<svg xmlns="http://www.w3.org/2000/svg" width="800" height="400" viewBox="0 0 800 400">
<rect width="800" height="400" fill="#1a1a2e"/>
<text x="400.0" y="20" text-anchor="middle" font-family="sans-serif" font-size="14" fill="#ffffff" font-weight="bold">潍柴动力(000338) K线图</text>
<line x1="60" y1="30.0" x2="780" y2="30.0" stroke="#2a2a4e" stroke-width="0.5"/>
<text x="55" y="33.0" text-anchor="end" font-family="sans-serif" font-size="8" fill="#666666">35.85</text>
<line x1="60" y1="84.0" x2="780" y2="84.0" stroke="#2a2a4e" stroke-width="0.5"/>
<text x="55" y="87.0" text-anchor="end" font-family="sans-serif" font-size="8" fill="#666666">32.96</text>
<line x1="60" y1="138.0" x2="780" y2="138.0" stroke="#2a2a4e" stroke-width="0.5"/>
<text x="55" y="141.0" text-anchor="end" font-family="sans-serif" font-size="8" fill="#666666">30.07</text>
<line x1="60" y1="192.0" x2="780" y2="192.0" stroke="#2a2a4e" stroke-width="0.5"/>
<text x="55" y="195.0" text-anchor="end" font-family="sans-serif" font-size="8" fill="#666666">27.18</text>
<line x1="60" y1="246.0" x2="780" y2="246.0" stroke="#2a2a4e" stroke-width="0.5"/>
<text x="55" y="249.0" text-anchor="end" font-family="sans-serif" font-size="8" fill="#666666">24.29</text>
<line x1="60" y1="300.0" x2="780" y2="300.0" stroke="#2a2a4e" stroke-width="0.5"/>
<text x="55" y="303.0" text-anchor="end" font-family="sans-serif" font-size="8" fill="#666666">21.40</text>
<line x1="60" y1="300" x2="780" y2="300" stroke="#2a2a4e" stroke-width="0.5"/>
<line x1="60" y1="345" x2="780" y2="345" stroke="#2a2a4e" stroke-width="0.5"/>
<rect x="61.8" y="318.97336643331244" width="7.199999999999999" height="26.026633566687565" fill="#ff4444" opacity="0.3"/>
<rect x="73.8" y="322.33047192155095" width="7.199999999999999" height="22.669528078449048" fill="#44aa44" opacity="0.3"/>
<rect x="85.8" y="326.4609101238834" width="7.199999999999999" height="18.539089876116577" fill="#ff4444" opacity="0.3"/>
<rect x="97.8" y="316.4860746417931" width="7.199999999999999" height="28.513925358206905" fill="#44aa44" opacity="0.3"/>
<rect x="109.8" y="327.5775213059737" width="7.199999999999999" height="17.422478694026324" fill="#ff4444" opacity="0.3"/>
<rect x="121.8" y="321.3733753539707" width="7.199999999999999" height="23.626624646029313" fill="#ff4444" opacity="0.3"/>
<rect x="133.8" y="320.6297515926151" width="7.199999999999999" height="24.370248407384906" fill="#ff4444" opacity="0.3"/>
<rect x="145.8" y="319.7653571205065" width="7.199999999999999" height="25.234642879493492" fill="#44aa44" opacity="0.3"/>
<rect x="157.8" y="322.63328923399644" width="7.199999999999999" height="22.366710766003564" fill="#ff4444" opacity="0.3"/>
<rect x="169.8" y="319.58159868564286" width="7.199999999999999" height="25.41840131435714" fill="#44aa44" opacity="0.3"/>
<rect x="181.8" y="314.84594896252946" width="7.199999999999999" height="30.154051037470538" fill="#44aa44" opacity="0.3"/>
<rect x="193.8" y="323.33036266272046" width="7.199999999999999" height="21.66963733727954" fill="#44aa44" opacity="0.3"/>
<rect x="205.8" y="329.23315132001824" width="7.199999999999999" height="15.766848679981763" fill="#44aa44" opacity="0.3"/>
<rect x="217.8" y="326.3165428171358" width="7.199999999999999" height="18.683457182864174" fill="#44aa44" opacity="0.3"/>
<rect x="229.8" y="329.71748917621784" width="7.199999999999999" height="15.282510823782161" fill="#ff4444" opacity="0.3"/>
<rect x="241.8" y="323.8864366091237" width="7.199999999999999" height="21.113563390876323" fill="#44aa44" opacity="0.3"/>
<rect x="253.8" y="328.5877157084229" width="7.199999999999999" height="16.412284291577123" fill="#44aa44" opacity="0.3"/>
<rect x="265.8" y="327.6654303287729" width="7.199999999999999" height="17.334569671227086" fill="#44aa44" opacity="0.3"/>
<rect x="277.8" y="324.77126380373187" width="7.199999999999999" height="20.22873619626813" fill="#ff4444" opacity="0.3"/>
<rect x="289.8" y="325.41284978504626" width="7.199999999999999" height="19.587150214953738" fill="#44aa44" opacity="0.3"/>
<rect x="301.8" y="332.6805111915126" width="7.199999999999999" height="12.319488808487392" fill="#44aa44" opacity="0.3"/>
<rect x="313.8" y="300.0" width="7.199999999999999" height="45.0" fill="#ff4444" opacity="0.3"/>
<rect x="325.8" y="318.55481968580216" width="7.199999999999999" height="26.44518031419784" fill="#ff4444" opacity="0.3"/>
<rect x="337.8" y="330.0543545539191" width="7.199999999999999" height="14.945645446080903" fill="#44aa44" opacity="0.3"/>
<rect x="349.8" y="326.8843402544418" width="7.199999999999999" height="18.11565974555822" fill="#ff4444" opacity="0.3"/>
<rect x="361.8" y="332.5105401406708" width="7.199999999999999" height="12.489459859329202" fill="#44aa44" opacity="0.3"/>
<rect x="373.8" y="335.2962309600224" width="7.199999999999999" height="9.703769039977601" fill="#44aa44" opacity="0.3"/>
<rect x="385.8" y="329.4047031034692" width="7.199999999999999" height="15.595296896530783" fill="#44aa44" opacity="0.3"/>
<rect x="397.8" y="322.87886948602056" width="7.199999999999999" height="22.121130513979438" fill="#ff4444" opacity="0.3"/>
<rect x="409.8" y="324.37629739634855" width="7.199999999999999" height="20.623702603651452" fill="#ff4444" opacity="0.3"/>
<rect x="421.8" y="325.8642833568982" width="7.199999999999999" height="19.135716643101773" fill="#ff4444" opacity="0.3"/>
<rect x="433.8" y="330.0056026048456" width="7.199999999999999" height="14.994397395154408" fill="#ff4444" opacity="0.3"/>
<rect x="445.8" y="323.7846462795119" width="7.199999999999999" height="21.21535372048811" fill="#44aa44" opacity="0.3"/>
<rect x="457.8" y="326.23559371395635" width="7.199999999999999" height="18.764406286043652" fill="#44aa44" opacity="0.3"/>
<rect x="469.8" y="326.8981297457057" width="7.199999999999999" height="18.101870254294283" fill="#ff4444" opacity="0.3"/>
<rect x="481.8" y="330.7597145616818" width="7.199999999999999" height="14.24028543831821" fill="#44aa44" opacity="0.3"/>
<rect x="493.8" y="328.6561896373393" width="7.199999999999999" height="16.34381036266069" fill="#44aa44" opacity="0.3"/>
<rect x="505.8" y="330.631265813305" width="7.199999999999999" height="14.368734186695008" fill="#ff4444" opacity="0.3"/>
<rect x="517.8" y="326.7940181384041" width="7.199999999999999" height="18.205981861595887" fill="#ff4444" opacity="0.3"/>
<rect x="529.8" y="314.3072249939517" width="7.199999999999999" height="30.692775006048294" fill="#ff4444" opacity="0.3"/>
<rect x="541.8" y="329.2447116501756" width="7.199999999999999" height="15.755288349824411" fill="#44aa44" opacity="0.3"/>
<rect x="553.8" y="329.3906056538242" width="7.199999999999999" height="15.609394346175804" fill="#44aa44" opacity="0.3"/>
<rect x="565.8" y="327.7912445729736" width="7.199999999999999" height="17.208755427026404" fill="#ff4444" opacity="0.3"/>
<rect x="577.8" y="333.8908147223439" width="7.199999999999999" height="11.109185277656081" fill="#ff4444" opacity="0.3"/>
<rect x="589.8" y="319.4671611405023" width="7.199999999999999" height="25.5328388594977" fill="#ff4444" opacity="0.3"/>
<rect x="601.8" y="326.4787248991091" width="7.199999999999999" height="18.521275100890875" fill="#ff4444" opacity="0.3"/>
<rect x="613.8" y="317.8539989785562" width="7.199999999999999" height="27.146001021443794" fill="#44aa44" opacity="0.3"/>
<rect x="625.8" y="323.1517341582305" width="7.199999999999999" height="21.84826584176949" fill="#44aa44" opacity="0.3"/>
<rect x="637.8" y="329.10219615768153" width="7.199999999999999" height="15.897803842318467" fill="#ff4444" opacity="0.3"/>
<rect x="649.8" y="327.9750251338793" width="7.199999999999999" height="17.024974866120715" fill="#44aa44" opacity="0.3"/>
<rect x="661.8" y="324.01593145268555" width="7.199999999999999" height="20.98406854731445" fill="#ff4444" opacity="0.3"/>
<rect x="673.8" y="326.4626097651539" width="7.199999999999999" height="18.5373902348461" fill="#44aa44" opacity="0.3"/>
<rect x="685.8" y="328.63143149939606" width="7.199999999999999" height="16.368568500603942" fill="#ff4444" opacity="0.3"/>
<rect x="697.8" y="327.15074261720207" width="7.199999999999999" height="17.84925738279793" fill="#44aa44" opacity="0.3"/>
<rect x="709.8" y="330.8696171713071" width="7.199999999999999" height="14.130382828692916" fill="#44aa44" opacity="0.3"/>
<rect x="721.8" y="326.9550687818873" width="7.199999999999999" height="18.04493121811271" fill="#44aa44" opacity="0.3"/>
<rect x="733.8" y="330.0835105061238" width="7.199999999999999" height="14.916489493876213" fill="#44aa44" opacity="0.3"/>
<rect x="745.8" y="329.8867543009564" width="7.199999999999999" height="15.113245699043603" fill="#ff4444" opacity="0.3"/>
<rect x="757.8" y="331.73021484470445" width="7.199999999999999" height="13.269785155295551" fill="#ff4444" opacity="0.3"/>
<rect x="769.8" y="335.4371095769571" width="7.199999999999999" height="9.562890423042916" fill="#44aa44" opacity="0.3"/>
<polyline points="66.0,153.88 78.0,162.35 90.0,168.87 102.0,181.07 114.0,189.44 126.0,185.75 138.0,181.73 150.0,188.39 162.0,185.61 174.0,191.60 186.0,204.07 198.0,214.37 210.0,223.29 222.0,228.31 234.0,227.48 246.0,236.70 258.0,245.60 270.0,256.63 282.0,256.70 294.0,251.70 306.0,252.98 318.0,255.57 330.0,251.51 342.0,249.98 354.0,242.37 366.0,236.97 378.0,234.94 390.0,241.18 402.0,235.87 414.0,228.72 426.0,217.60 438.0,210.94 450.0,210.85 462.0,208.18 474.0,201.42 486.0,202.51 498.0,204.12 510.0,201.63 522.0,193.44 534.0,178.57 546.0,168.04 558.0,160.58 570.0,152.99 582.0,147.50 594.0,137.29 606.0,111.06 618.0,89.33 630.0,86.93 642.0,82.40 654.0,84.56 666.0,75.78 678.0,70.79 690.0,63.92 702.0,68.50 714.0,72.48 726.0,78.50 738.0,84.57 750.0,77.84 762.0,66.56 774.0,60.60" fill="none" stroke="#ffd700" stroke-width="0.8" opacity="0.7"/>
<polyline points="66.0,153.88 78.0,158.50 90.0,162.76 102.0,170.52 114.0,177.01 126.0,177.25 138.0,176.61 150.0,181.17 162.0,180.97 174.0,185.08 186.0,193.06 198.0,200.68 210.0,208.04 222.0,213.55 234.0,215.78 246.0,222.94 258.0,230.29 270.0,239.09 282.0,242.32 294.0,242.21 306.0,244.63 318.0,247.56 330.0,246.80 342.0,246.83 354.0,243.25 366.0,240.14 378.0,238.46 390.0,241.22 402.0,238.32 414.0,233.97 426.0,226.95 438.0,221.62 450.0,219.63 462.0,216.58 474.0,211.36 486.0,210.15 498.0,209.64 510.0,207.28 522.0,201.78 534.0,192.16 546.0,183.94 558.0,176.98 570.0,169.86 582.0,163.80 594.0,155.27 606.0,137.69 618.0,121.00 630.0,113.93 642.0,106.55 654.0,103.33 666.0,95.13 678.0,88.89 690.0,81.86 702.0,81.09 714.0,80.97 726.0,82.71 738.0,85.26 750.0,81.46 762.0,74.65 774.0,69.93" fill="none" stroke="#ff6b6b" stroke-width="0.8" opacity="0.7"/>
<polyline points="66.0,153.88 78.0,156.30 90.0,158.74 102.0,163.19 114.0,167.29 126.0,168.34 138.0,168.85 150.0,171.98 162.0,172.75 174.0,175.68 186.0,180.76 198.0,185.93 210.0,191.18 222.0,195.68 234.0,198.55 246.0,203.94 258.0,209.60 270.0,216.18 282.0,220.05 294.0,222.11 306.0,225.30 318.0,228.67 330.0,230.07 342.0,231.68 354.0,231.25 366.0,230.77 378.0,230.78 390.0,232.95 402.0,232.22 414.0,230.53 426.0,227.18 438.0,224.36 450.0,223.06 462.0,221.13 474.0,217.97 486.0,216.70 498.0,215.81 510.0,213.99 522.0,210.47 534.0,204.60 546.0,199.11 558.0,194.02 570.0,188.67 582.0,183.70 594.0,177.34 606.0,166.03 618.0,154.58 630.0,147.68 642.0,140.61 654.0,135.68 666.0,128.30 678.0,121.87 690.0,115.05 702.0,111.48 714.0,108.53 726.0,106.82 738.0,105.85 750.0,101.90 762.0,96.39 774.0,91.85" fill="none" stroke="#4ecdc4" stroke-width="0.8" opacity="0.7"/>
<line x1="66.0" y1="144.5397923875433" x2="66.0" y2="178.54671280276818" stroke="#ff4444" stroke-width="0.5" opacity="0.6"/>
<rect x="63.0" y="153.8823529411765" width="6.0" height="15.882352941176435" fill="#ff4444" opacity="0.85"/>
<line x1="78.0" y1="167.1487889273356" x2="78.0" y2="186.39446366782008" stroke="#44aa44" stroke-width="0.5" opacity="0.6"/>
<rect x="75.0" y="174.80968858131484" width="6.0" height="4.484429065743996" fill="#44aa44" opacity="0.85"/>
<line x1="90.0" y1="170.88581314878897" x2="90.0" y2="187.7024221453287" stroke="#ff4444" stroke-width="0.5" opacity="0.6"/>
<rect x="87.0" y="181.91003460207614" width="6.0" height="4.110726643598582" fill="#ff4444" opacity="0.85"/>
<line x1="102.0" y1="175.74394463667818" x2="102.0" y2="206.57439446366783" stroke="#44aa44" stroke-width="0.5" opacity="0.6"/>
<rect x="99.0" y="183.59169550173013" width="6.0" height="21.861591695501687" fill="#44aa44" opacity="0.85"/>
<line x1="114.0" y1="193.12110726643596" x2="114.0" y2="215.54325259515568" stroke="#ff4444" stroke-width="0.5" opacity="0.6"/>
<rect x="111.0" y="206.20069204152247" width="6.0" height="4.484429065743967" fill="#ff4444" opacity="0.85"/>
<line x1="126.0" y1="171.25951557093427" x2="126.0" y2="191.6262975778547" stroke="#ff4444" stroke-width="0.5" opacity="0.6"/>
<rect x="123.0" y="178.3598615916955" width="6.0" height="9.716262975778534" fill="#ff4444" opacity="0.85"/>
<line x1="138.0" y1="160.04844290657437" x2="138.0" y2="196.67128027681662" stroke="#ff4444" stroke-width="0.5" opacity="0.6"/>
<rect x="135.0" y="173.6885813148789" width="6.0" height="13.266435986159195" fill="#ff4444" opacity="0.85"/>
<line x1="150.0" y1="196.2975778546713" x2="150.0" y2="225.0726643598616" stroke="#44aa44" stroke-width="0.5" opacity="0.6"/>
<rect x="147.0" y="200.9688581314879" width="6.0" height="0.747404844290628" fill="#44aa44" opacity="0.85"/>
<line x1="162.0" y1="170.13840830449823" x2="162.0" y2="190.69204152249137" stroke="#ff4444" stroke-width="0.5" opacity="0.6"/>
<rect x="159.0" y="180.04152249134947" width="6.0" height="7.84775086505195" fill="#ff4444" opacity="0.85"/>
<line x1="174.0" y1="180.04152249134947" x2="174.0" y2="217.78546712802765" stroke="#44aa44" stroke-width="0.5" opacity="0.6"/>
<rect x="171.0" y="182.6574394463668" width="6.0" height="20.92733564013841" fill="#44aa44" opacity="0.85"/>
<line x1="186.0" y1="203.77162629757782" x2="186.0" y2="235.91003460207614" stroke="#44aa44" stroke-width="0.5" opacity="0.6"/>
<rect x="183.0" y="206.38754325259512" width="6.0" height="22.6089965397924" fill="#44aa44" opacity="0.85"/>
<line x1="198.0" y1="219.65397923875432" x2="198.0" y2="238.71280276816609" stroke="#44aa44" stroke-width="0.5" opacity="0.6"/>
<rect x="195.0" y="231.98615916955018" width="6.0" height="2.989619377162626" fill="#44aa44" opacity="0.85"/>
<line x1="210.0" y1="235.91003460207614" x2="210.0" y2="250.6712802768166" stroke="#44aa44" stroke-width="0.5" opacity="0.6"/>
<rect x="207.0" y="236.09688581314876" width="6.0" height="5.044982698961945" fill="#44aa44" opacity="0.85"/>
<line x1="222.0" y1="217.2249134948097" x2="222.0" y2="238.71280276816609" stroke="#44aa44" stroke-width="0.5" opacity="0.6"/>
<rect x="219.0" y="232.7335640138408" width="6.0" height="5.605536332179952" fill="#44aa44" opacity="0.85"/>
<line x1="234.0" y1="223.3910034602076" x2="234.0" y2="241.88927335640133" stroke="#ff4444" stroke-width="0.5" opacity="0.6"/>
<rect x="231.0" y="225.82006920415222" width="6.0" height="9.155709342560584" fill="#ff4444" opacity="0.85"/>
<line x1="246.0" y1="238.8996539792387" x2="246.0" y2="257.58477508650515" stroke="#44aa44" stroke-width="0.5" opacity="0.6"/>
<rect x="243.0" y="245.06574394463667" width="6.0" height="10.089965397923862" fill="#44aa44" opacity="0.85"/>
<line x1="258.0" y1="245.81314878892732" x2="258.0" y2="265.99307958477505" stroke="#44aa44" stroke-width="0.5" opacity="0.6"/>
<rect x="255.0" y="250.1107266435986" width="6.0" height="13.266435986159166" fill="#44aa44" opacity="0.85"/>
<line x1="270.0" y1="268.235294117647" x2="270.0" y2="282.6228373702422" stroke="#44aa44" stroke-width="0.5" opacity="0.6"/>
<rect x="267.0" y="275.14878892733566" width="6.0" height="3.550173010380604" fill="#44aa44" opacity="0.85"/>
<line x1="282.0" y1="254.03460207612454" x2="282.0" y2="278.69896193771626" stroke="#ff4444" stroke-width="0.5" opacity="0.6"/>
<rect x="279.0" y="256.8373702422145" width="6.0" height="13.266435986159195" fill="#ff4444" opacity="0.85"/>
<line x1="294.0" y1="221.52249134948093" x2="294.0" y2="244.13148788927333" stroke="#44aa44" stroke-width="0.5" opacity="0.6"/>
<rect x="291.0" y="236.28373702422147" width="6.0" height="5.4186851211072735" fill="#44aa44" opacity="0.85"/>
<line x1="306.0" y1="237.77854671280275" x2="306.0" y2="258.1453287197231" stroke="#44aa44" stroke-width="0.5" opacity="0.6"/>
<rect x="303.0" y="237.77854671280275" width="6.0" height="17.750865051903077" fill="#44aa44" opacity="0.85"/>
<line x1="318.0" y1="253.66089965397924" x2="318.0" y2="300.0" stroke="#ff4444" stroke-width="0.5" opacity="0.6"/>
<rect x="315.0" y="260.76124567474045" width="6.0" height="37.37024221453288" fill="#ff4444" opacity="0.85"/>
<line x1="330.0" y1="236.65743944636677" x2="330.0" y2="274.2145328719723" stroke="#ff4444" stroke-width="0.5" opacity="0.6"/>
<rect x="327.0" y="243.3840830449827" width="6.0" height="30.83044982698962" fill="#ff4444" opacity="0.85"/>
<line x1="342.0" y1="237.21799307958474" x2="342.0" y2="251.23183391003454" stroke="#44aa44" stroke-width="0.5" opacity="0.6"/>
<rect x="339.0" y="245.439446366782" width="6.0" height="1.4948096885813413" fill="#44aa44" opacity="0.85"/>
<line x1="354.0" y1="223.5778546712803" x2="354.0" y2="236.47058823529412" stroke="#ff4444" stroke-width="0.5" opacity="0.6"/>
<rect x="351.0" y="227.12802768166085" width="6.0" height="5.605536332179952" fill="#ff4444" opacity="0.85"/>
<line x1="366.0" y1="217.78546712802765" x2="366.0" y2="230.30449826989621" stroke="#44aa44" stroke-width="0.5" opacity="0.6"/>
<rect x="363.0" y="225.25951557093427" width="6.0" height="0.9342560553632495" fill="#44aa44" opacity="0.85"/>
<line x1="378.0" y1="215.91695501730106" x2="378.0" y2="231.61245674740485" stroke="#44aa44" stroke-width="0.5" opacity="0.6"/>
<rect x="375.0" y="225.4463667820069" width="6.0" height="5.418685121107245" fill="#44aa44" opacity="0.85"/>
<line x1="390.0" y1="230.1176470588235" x2="390.0" y2="256.08996539792383" stroke="#44aa44" stroke-width="0.5" opacity="0.6"/>
<rect x="387.0" y="230.86505190311414" width="6.0" height="22.795847750865107" fill="#44aa44" opacity="0.85"/>
<line x1="402.0" y1="214.0484429065744" x2="402.0" y2="233.66782006920417" stroke="#ff4444" stroke-width="0.5" opacity="0.6"/>
<rect x="399.0" y="225.25951557093427" width="6.0" height="0.7474048442906565" fill="#ff4444" opacity="0.85"/>
<line x1="414.0" y1="208.81660899653977" x2="414.0" y2="234.6020761245675" stroke="#ff4444" stroke-width="0.5" opacity="0.6"/>
<rect x="411.0" y="214.4221453287197" width="6.0" height="18.31141868512111" fill="#ff4444" opacity="0.85"/>
<line x1="426.0" y1="191.6262975778547" x2="426.0" y2="211.99307958477507" stroke="#ff4444" stroke-width="0.5" opacity="0.6"/>
<rect x="423.0" y="195.36332179930795" width="6.0" height="8.408304498269871" fill="#ff4444" opacity="0.85"/>
<line x1="438.0" y1="191.06574394463667" x2="438.0" y2="214.6089965397924" stroke="#ff4444" stroke-width="0.5" opacity="0.6"/>
<rect x="435.0" y="197.60553633217995" width="6.0" height="10.83737024221449" fill="#ff4444" opacity="0.85"/>
<line x1="450.0" y1="156.4982698961938" x2="450.0" y2="214.98269896193773" stroke="#44aa44" stroke-width="0.5" opacity="0.6"/>
<rect x="447.0" y="166.21453287197232" width="6.0" height="44.470588235294116" fill="#44aa44" opacity="0.85"/>
<line x1="462.0" y1="186.02076124567472" x2="462.0" y2="204.51903114186848" stroke="#44aa44" stroke-width="0.5" opacity="0.6"/>
<rect x="459.0" y="195.36332179930795" width="6.0" height="7.474048442906565" fill="#44aa44" opacity="0.85"/>
<line x1="474.0" y1="184.71280276816609" x2="474.0" y2="206.94809688581316" stroke="#ff4444" stroke-width="0.5" opacity="0.6"/>
<rect x="471.0" y="187.88927335640142" width="6.0" height="11.584775086505118" fill="#ff4444" opacity="0.85"/>
<line x1="486.0" y1="192.93425605536333" x2="486.0" y2="207.5086505190311" stroke="#44aa44" stroke-width="0.5" opacity="0.6"/>
<rect x="483.0" y="192.93425605536333" width="6.0" height="11.771626297577825" fill="#44aa44" opacity="0.85"/>
<line x1="498.0" y1="187.3287197231834" x2="498.0" y2="210.1245674740484" stroke="#44aa44" stroke-width="0.5" opacity="0.6"/>
<rect x="495.0" y="203.5847750865052" width="6.0" height="3.737024221453254" fill="#44aa44" opacity="0.85"/>
<line x1="510.0" y1="194.0553633217993" x2="510.0" y2="211.24567474048445" stroke="#ff4444" stroke-width="0.5" opacity="0.6"/>
<rect x="507.0" y="196.67128027681662" width="6.0" height="10.83737024221449" fill="#ff4444" opacity="0.85"/>
<line x1="522.0" y1="168.8304498269896" x2="522.0" y2="204.70588235294116" stroke="#ff4444" stroke-width="0.5" opacity="0.6"/>
<rect x="519.0" y="177.0519031141868" width="6.0" height="24.66435986159172" fill="#ff4444" opacity="0.85"/>
<line x1="534.0" y1="135.9446366782007" x2="534.0" y2="161.1695501730104" stroke="#ff4444" stroke-width="0.5" opacity="0.6"/>
<rect x="531.0" y="148.83737024221458" width="6.0" height="1.8685121107265843" fill="#ff4444" opacity="0.85"/>
<line x1="546.0" y1="140.242214532872" x2="546.0" y2="159.11418685121103" stroke="#44aa44" stroke-width="0.5" opacity="0.6"/>
<rect x="543.0" y="145.47404844290656" width="6.0" height="1.494809688581313" fill="#44aa44" opacity="0.85"/>
<line x1="558.0" y1="126.41522491349478" x2="558.0" y2="147.90311418685124" stroke="#44aa44" stroke-width="0.5" opacity="0.6"/>
<rect x="555.0" y="144.5397923875433" width="6.0" height="1.1211072664359563" fill="#44aa44" opacity="0.85"/>
<line x1="570.0" y1="131.83391003460213" x2="570.0" y2="148.08996539792386" stroke="#ff4444" stroke-width="0.5" opacity="0.6"/>
<rect x="567.0" y="137.81314878892738" width="6.0" height="6.539792387543201" fill="#ff4444" opacity="0.85"/>
<line x1="582.0" y1="133.70242214532874" x2="582.0" y2="145.66089965397924" stroke="#ff4444" stroke-width="0.5" opacity="0.6"/>
<rect x="579.0" y="136.50519031141872" width="6.0" height="2.8027681660899475" fill="#ff4444" opacity="0.85"/>
<line x1="594.0" y1="89.60553633218001" x2="594.0" y2="124.17301038062287" stroke="#ff4444" stroke-width="0.5" opacity="0.6"/>
<rect x="591.0" y="116.88581314878896" width="6.0" height="5.605536332179938" fill="#ff4444" opacity="0.85"/>
<line x1="606.0" y1="58.588235294117666" x2="606.0" y2="64.3806228373703" stroke="#ff4444" stroke-width="0.5" opacity="0.6"/>
<rect x="603.0" y="58.588235294117666" width="6.0" height="2.615916955017312" fill="#ff4444" opacity="0.85"/>
<line x1="618.0" y1="30.0" x2="618.0" y2="60.08304498269895" stroke="#44aa44" stroke-width="0.5" opacity="0.6"/>
<rect x="615.0" y="32.61591695501731" width="6.0" height="13.26643598615918" fill="#44aa44" opacity="0.85"/>
<line x1="630.0" y1="55.22491349480971" x2="630.0" y2="85.49480968858128" stroke="#44aa44" stroke-width="0.5" opacity="0.6"/>
<rect x="627.0" y="58.77508650519029" width="6.0" height="23.356401384083043" fill="#44aa44" opacity="0.85"/>
<line x1="642.0" y1="67.37024221453287" x2="642.0" y2="83.439446366782" stroke="#ff4444" stroke-width="0.5" opacity="0.6"/>
<rect x="639.0" y="73.34948096885813" width="6.0" height="0.5605536332180066" fill="#ff4444" opacity="0.85"/>
<line x1="654.0" y1="69.05190311418691" x2="654.0" y2="100.06920415224911" stroke="#44aa44" stroke-width="0.5" opacity="0.6"/>
<rect x="651.0" y="70.73356401384082" width="6.0" height="18.12456747404842" fill="#44aa44" opacity="0.85"/>
<line x1="666.0" y1="55.411764705882334" x2="666.0" y2="106.42214532871971" stroke="#ff4444" stroke-width="0.5" opacity="0.6"/>
<rect x="663.0" y="58.214532871972274" width="6.0" height="43.53633217993089" fill="#ff4444" opacity="0.85"/>
<line x1="678.0" y1="35.41868512110725" x2="678.0" y2="60.830449826989586" stroke="#44aa44" stroke-width="0.5" opacity="0.6"/>
<rect x="675.0" y="42.14532871972315" width="6.0" height="18.685121107266433" fill="#44aa44" opacity="0.85"/>
<line x1="690.0" y1="33.92387543252597" x2="690.0" y2="68.30449826989627" stroke="#ff4444" stroke-width="0.5" opacity="0.6"/>
<rect x="687.0" y="50.17993079584771" width="6.0" height="10.08996539792399" fill="#ff4444" opacity="0.85"/>
<line x1="702.0" y1="66.62283737024222" x2="702.0" y2="85.49480968858128" stroke="#44aa44" stroke-width="0.5" opacity="0.6"/>
<rect x="699.0" y="69.05190311418691" width="6.0" height="8.595155709342563" fill="#44aa44" opacity="0.85"/>
<line x1="714.0" y1="69.23875432525953" x2="714.0" y2="100.44290657439451" stroke="#44aa44" stroke-width="0.5" opacity="0.6"/>
<rect x="711.0" y="72.04152249134947" width="6.0" height="8.408304498269956" fill="#44aa44" opacity="0.85"/>
<line x1="726.0" y1="80.44982698961942" x2="726.0" y2="112.21453287197235" stroke="#44aa44" stroke-width="0.5" opacity="0.6"/>
<rect x="723.0" y="81.75778546712809" width="6.0" height="8.7820069204152" fill="#44aa44" opacity="0.85"/>
<line x1="738.0" y1="63.63321799307966" x2="738.0" y2="97.26643598615918" stroke="#44aa44" stroke-width="0.5" opacity="0.6"/>
<rect x="735.0" y="78.39446366782012" width="6.0" height="18.311418685121055" fill="#44aa44" opacity="0.85"/>
<line x1="750.0" y1="62.698961937716255" x2="750.0" y2="87.17647058823533" stroke="#ff4444" stroke-width="0.5" opacity="0.6"/>
<rect x="747.0" y="64.3806228373703" width="6.0" height="22.608996539792415" fill="#ff4444" opacity="0.85"/>
<line x1="762.0" y1="41.02422145328726" x2="762.0" y2="78.58131487889275" stroke="#ff4444" stroke-width="0.5" opacity="0.6"/>
<rect x="759.0" y="44.01384083044982" width="6.0" height="20.179930795847724" fill="#ff4444" opacity="0.85"/>
<line x1="774.0" y1="35.41868512110725" x2="774.0" y2="57.09342560553638" stroke="#44aa44" stroke-width="0.5" opacity="0.6"/>
<rect x="771.0" y="44.761245674740465" width="6.0" height="3.9238754325259677" fill="#44aa44" opacity="0.85"/>
<rect x="146.0" y="221.0726643598616" width="8" height="8" fill="#4caf50" opacity="0.85" rx="1"/>
<text x="150.0" y="219.0726643598616" text-anchor="middle" font-family="sans-serif" font-size="8" fill="#4caf50">前低</text>
<rect x="182.0" y="231.91003460207614" width="8" height="8" fill="#4caf50" opacity="0.85" rx="1"/>
<text x="186.0" y="229.91003460207614" text-anchor="middle" font-family="sans-serif" font-size="8" fill="#4caf50">前低</text>
<rect x="194.0" y="234.71280276816609" width="8" height="8" fill="#4caf50" opacity="0.85" rx="1"/>
<text x="198.0" y="232.71280276816609" text-anchor="middle" font-family="sans-serif" font-size="8" fill="#4caf50">前低</text>
<rect x="206.0" y="246.6712802768166" width="8" height="8" fill="#4caf50" opacity="0.85" rx="1"/>
<text x="210.0" y="244.6712802768166" text-anchor="middle" font-family="sans-serif" font-size="8" fill="#4caf50">前低</text>
<rect x="242.0" y="253.58477508650515" width="8" height="8" fill="#4caf50" opacity="0.85" rx="1"/>
<text x="246.0" y="251.58477508650515" text-anchor="middle" font-family="sans-serif" font-size="8" fill="#4caf50">前低</text>
<rect x="254.0" y="261.99307958477505" width="8" height="8" fill="#4caf50" opacity="0.85" rx="1"/>
<text x="258.0" y="259.99307958477505" text-anchor="middle" font-family="sans-serif" font-size="8" fill="#4caf50">前低</text>
<rect x="266.0" y="278.6228373702422" width="8" height="8" fill="#4caf50" opacity="0.85" rx="1"/>
<text x="270.0" y="276.6228373702422" text-anchor="middle" font-family="sans-serif" font-size="8" fill="#4caf50">前低</text>
<rect x="314.0" y="296.0" width="8" height="8" fill="#4caf50" opacity="0.85" rx="1"/>
<text x="318.0" y="294.0" text-anchor="middle" font-family="sans-serif" font-size="8" fill="#4caf50">前低</text>
<rect x="314.0" y="226.4913494809689" width="8" height="8" fill="#ff9800" opacity="0.85" rx="1"/>
<text x="318.0" y="224.4913494809689" text-anchor="middle" font-family="sans-serif" font-size="8" fill="#ff9800">量</text>
<rect x="362.0" y="213.78546712802765" width="8" height="8" fill="#ff9800" opacity="0.85" rx="1"/>
<text x="366.0" y="211.78546712802765" text-anchor="middle" font-family="sans-serif" font-size="8" fill="#ff9800">前高</text>
<rect x="374.0" y="211.91695501730106" width="8" height="8" fill="#ff9800" opacity="0.85" rx="1"/>
<text x="378.0" y="209.91695501730106" text-anchor="middle" font-family="sans-serif" font-size="8" fill="#ff9800">前高</text>
<rect x="398.0" y="210.0484429065744" width="8" height="8" fill="#ff9800" opacity="0.85" rx="1"/>
<text x="402.0" y="208.0484429065744" text-anchor="middle" font-family="sans-serif" font-size="8" fill="#ff9800">前高</text>
<rect x="410.0" y="204.81660899653977" width="8" height="8" fill="#ff9800" opacity="0.85" rx="1"/>
<text x="414.0" y="202.81660899653977" text-anchor="middle" font-family="sans-serif" font-size="8" fill="#ff9800">前高</text>
<rect x="422.0" y="187.6262975778547" width="8" height="8" fill="#ff9800" opacity="0.85" rx="1"/>
<text x="426.0" y="185.6262975778547" text-anchor="middle" font-family="sans-serif" font-size="8" fill="#ff9800">前高</text>
<rect x="422.0" y="187.6262975778547" width="8" height="8" fill="#2196f3" opacity="0.85" rx="1"/>
<text x="426.0" y="185.6262975778547" text-anchor="middle" font-family="sans-serif" font-size="8" fill="#2196f3">突</text>
<rect x="434.0" y="187.06574394463667" width="8" height="8" fill="#ff9800" opacity="0.85" rx="1"/>
<text x="438.0" y="185.06574394463667" text-anchor="middle" font-family="sans-serif" font-size="8" fill="#ff9800">前高</text>
<rect x="446.0" y="152.4982698961938" width="8" height="8" fill="#ff9800" opacity="0.85" rx="1"/>
<text x="450.0" y="150.4982698961938" text-anchor="middle" font-family="sans-serif" font-size="8" fill="#ff9800">前高</text>
<rect x="530.0" y="131.9446366782007" width="8" height="8" fill="#ff9800" opacity="0.85" rx="1"/>
<text x="534.0" y="129.9446366782007" text-anchor="middle" font-family="sans-serif" font-size="8" fill="#ff9800">前高</text>
<rect x="554.0" y="122.41522491349478" width="8" height="8" fill="#ff9800" opacity="0.85" rx="1"/>
<text x="558.0" y="120.41522491349478" text-anchor="middle" font-family="sans-serif" font-size="8" fill="#ff9800">前高</text>
<rect x="590.0" y="85.60553633218001" width="8" height="8" fill="#ff9800" opacity="0.85" rx="1"/>
<text x="594.0" y="83.60553633218001" text-anchor="middle" font-family="sans-serif" font-size="8" fill="#ff9800">前高</text>
<rect x="602.0" y="54.588235294117666" width="8" height="8" fill="#ff9800" opacity="0.85" rx="1"/>
<text x="606.0" y="52.588235294117666" text-anchor="middle" font-family="sans-serif" font-size="8" fill="#ff9800">前高</text>
<rect x="602.0" y="54.588235294117666" width="8" height="8" fill="#2196f3" opacity="0.85" rx="1"/>
<text x="606.0" y="52.588235294117666" text-anchor="middle" font-family="sans-serif" font-size="8" fill="#2196f3">突</text>
<rect x="614.0" y="26.0" width="8" height="8" fill="#ff9800" opacity="0.85" rx="1"/>
<text x="618.0" y="24.0" text-anchor="middle" font-family="sans-serif" font-size="8" fill="#ff9800">前高</text>
<rect x="722.0" y="108.21453287197235" width="8" height="8" fill="#4caf50" opacity="0.85" rx="1"/>
<text x="726.0" y="106.21453287197235" text-anchor="middle" font-family="sans-serif" font-size="8" fill="#4caf50">前低</text>
<text x="66.0" y="359" text-anchor="middle" font-family="sans-serif" font-size="8" fill="#666666" transform="rotate(-40,66.0,359)">02/26</text>
<text x="138.0" y="359" text-anchor="middle" font-family="sans-serif" font-size="8" fill="#666666" transform="rotate(-40,138.0,359)">03/06</text>
<text x="210.0" y="359" text-anchor="middle" font-family="sans-serif" font-size="8" fill="#666666" transform="rotate(-40,210.0,359)">03/16</text>
<text x="282.0" y="359" text-anchor="middle" font-family="sans-serif" font-size="8" fill="#666666" transform="rotate(-40,282.0,359)">03/24</text>
<text x="354.0" y="359" text-anchor="middle" font-family="sans-serif" font-size="8" fill="#666666" transform="rotate(-40,354.0,359)">04/01</text>
<text x="426.0" y="359" text-anchor="middle" font-family="sans-serif" font-size="8" fill="#666666" transform="rotate(-40,426.0,359)">04/10</text>
<text x="498.0" y="359" text-anchor="middle" font-family="sans-serif" font-size="8" fill="#666666" transform="rotate(-40,498.0,359)">04/20</text>
<text x="570.0" y="359" text-anchor="middle" font-family="sans-serif" font-size="8" fill="#666666" transform="rotate(-40,570.0,359)">04/28</text>
<text x="642.0" y="359" text-anchor="middle" font-family="sans-serif" font-size="8" fill="#666666" transform="rotate(-40,642.0,359)">05/11</text>
<text x="714.0" y="359" text-anchor="middle" font-family="sans-serif" font-size="8" fill="#666666" transform="rotate(-40,714.0,359)">05/19</text>
<text x="774.0" y="359" text-anchor="middle" font-family="sans-serif" font-size="8" fill="#666666" transform="rotate(-40,774.0,359)">05/26</text>
<text x="400.0" y="396" text-anchor="middle" font-family="sans-serif" font-size="9" fill="#555555">数据截至: 2026-05-26 23:14  |  最新K线: 20260526</text>
<rect x="50" y="373" width="8" height="8" fill="#ffd700" opacity="0.8" rx="1"/>
<text x="61" y="380" font-family="sans-serif" font-size="9" fill="#888888">EMA5</text>
<rect x="150" y="373" width="8" height="8" fill="#ff6b6b" opacity="0.8" rx="1"/>
<text x="161" y="380" font-family="sans-serif" font-size="9" fill="#888888">EMA10</text>
<rect x="250" y="373" width="8" height="8" fill="#4ecdc4" opacity="0.8" rx="1"/>
<text x="261" y="380" font-family="sans-serif" font-size="9" fill="#888888">EMA20</text>
<rect x="350" y="373" width="8" height="8" fill="#2196f3" opacity="0.8" rx="1"/>
<text x="361" y="380" font-family="sans-serif" font-size="9" fill="#888888">突破</text>
<rect x="450" y="373" width="8" height="8" fill="#ff9800" opacity="0.8" rx="1"/>
<text x="461" y="380" font-family="sans-serif" font-size="9" fill="#888888">前高/量</text>
<rect x="550" y="373" width="8" height="8" fill="#4caf50" opacity="0.8" rx="1"/>
<text x="561" y="380" font-family="sans-serif" font-size="9" fill="#888888">前低</text>
</svg>