<svg xmlns="http://www.w3.org/2000/svg" width="800" height="400" viewBox="0 0 800 400">
<rect width="800" height="400" fill="#1a1a2e"/>
<text x="400.0" y="20" text-anchor="middle" font-family="sans-serif" font-size="14" fill="#ffffff" font-weight="bold">胜宏科技(300476) K线图</text>
<line x1="60" y1="30.0" x2="780" y2="30.0" stroke="#2a2a4e" stroke-width="0.5"/>
<text x="55" y="33.0" text-anchor="end" font-family="sans-serif" font-size="8" fill="#666666">402.60</text>
<line x1="60" y1="84.00000000000003" x2="780" y2="84.00000000000003" stroke="#2a2a4e" stroke-width="0.5"/>
<text x="55" y="87.00000000000003" text-anchor="end" font-family="sans-serif" font-size="8" fill="#666666">372.24</text>
<line x1="60" y1="138.00000000000006" x2="780" y2="138.00000000000006" stroke="#2a2a4e" stroke-width="0.5"/>
<text x="55" y="141.00000000000006" text-anchor="end" font-family="sans-serif" font-size="8" fill="#666666">341.88</text>
<line x1="60" y1="192.00000000000006" x2="780" y2="192.00000000000006" stroke="#2a2a4e" stroke-width="0.5"/>
<text x="55" y="195.00000000000006" text-anchor="end" font-family="sans-serif" font-size="8" fill="#666666">311.52</text>
<line x1="60" y1="245.99999999999997" x2="780" y2="245.99999999999997" stroke="#2a2a4e" stroke-width="0.5"/>
<text x="55" y="248.99999999999997" text-anchor="end" font-family="sans-serif" font-size="8" fill="#666666">281.16</text>
<line x1="60" y1="300.0" x2="780" y2="300.0" stroke="#2a2a4e" stroke-width="0.5"/>
<text x="55" y="303.0" text-anchor="end" font-family="sans-serif" font-size="8" fill="#666666">250.80</text>
<line x1="60" y1="300" x2="780" y2="300" stroke="#2a2a4e" stroke-width="0.5"/>
<line x1="60" y1="345" x2="780" y2="345" stroke="#2a2a4e" stroke-width="0.5"/>
<rect x="61.8" y="317.29939204191095" width="7.199999999999999" height="27.70060795808905" fill="#ff4444" opacity="0.3"/>
<rect x="73.8" y="322.8632550205813" width="7.199999999999999" height="22.136744979418722" fill="#ff4444" opacity="0.3"/>
<rect x="85.8" y="320.09965386054637" width="7.199999999999999" height="24.90034613945363" fill="#44aa44" opacity="0.3"/>
<rect x="97.8" y="327.26696164400647" width="7.199999999999999" height="17.73303835599353" fill="#ff4444" opacity="0.3"/>
<rect x="109.8" y="320.58179206685793" width="7.199999999999999" height="24.41820793314207" fill="#44aa44" opacity="0.3"/>
<rect x="121.8" y="328.6420767743545" width="7.199999999999999" height="16.357923225645493" fill="#44aa44" opacity="0.3"/>
<rect x="133.8" y="326.5362597605089" width="7.199999999999999" height="18.463740239491074" fill="#ff4444" opacity="0.3"/>
<rect x="145.8" y="322.73981626543593" width="7.199999999999999" height="22.260183734564066" fill="#ff4444" opacity="0.3"/>
<rect x="157.8" y="330.2806010353" width="7.199999999999999" height="14.71939896470002" fill="#44aa44" opacity="0.3"/>
<rect x="169.8" y="329.1622525258825" width="7.199999999999999" height="15.83774747411752" fill="#44aa44" opacity="0.3"/>
<rect x="181.8" y="328.20127491580394" width="7.199999999999999" height="16.798725084196064" fill="#ff4444" opacity="0.3"/>
<rect x="193.8" y="324.1255462766621" width="7.199999999999999" height="20.874453723337922" fill="#ff4444" opacity="0.3"/>
<rect x="205.8" y="316.9790439066983" width="7.199999999999999" height="28.02095609330172" fill="#44aa44" opacity="0.3"/>
<rect x="217.8" y="320.4822178495697" width="7.199999999999999" height="24.51778215043032" fill="#ff4444" opacity="0.3"/>
<rect x="229.8" y="326.6670926156917" width="7.199999999999999" height="18.332907384308328" fill="#44aa44" opacity="0.3"/>
<rect x="241.8" y="326.39173662217786" width="7.199999999999999" height="18.60826337782214" fill="#44aa44" opacity="0.3"/>
<rect x="253.8" y="325.92006511163777" width="7.199999999999999" height="19.07993488836223" fill="#44aa44" opacity="0.3"/>
<rect x="265.8" y="333.6459280279406" width="7.199999999999999" height="11.354071972059387" fill="#ff4444" opacity="0.3"/>
<rect x="277.8" y="330.5823581140077" width="7.199999999999999" height="14.417641885992282" fill="#44aa44" opacity="0.3"/>
<rect x="289.8" y="328.5800091056505" width="7.199999999999999" height="16.419990894349496" fill="#ff4444" opacity="0.3"/>
<rect x="301.8" y="332.18356723213174" width="7.199999999999999" height="12.816432767868264" fill="#ff4444" opacity="0.3"/>
<rect x="313.8" y="332.551966633404" width="7.199999999999999" height="12.448033366596007" fill="#ff4444" opacity="0.3"/>
<rect x="325.8" y="332.6689228514407" width="7.199999999999999" height="12.331077148559302" fill="#44aa44" opacity="0.3"/>
<rect x="337.8" y="332.06533740800796" width="7.199999999999999" height="12.934662591992037" fill="#44aa44" opacity="0.3"/>
<rect x="349.8" y="329.6030875015592" width="7.199999999999999" height="15.396912498440827" fill="#ff4444" opacity="0.3"/>
<rect x="361.8" y="325.0752612573282" width="7.199999999999999" height="19.92473874267182" fill="#ff4444" opacity="0.3"/>
<rect x="373.8" y="333.16059766745667" width="7.199999999999999" height="11.83940233254333" fill="#44aa44" opacity="0.3"/>
<rect x="385.8" y="319.30945846326557" width="7.199999999999999" height="25.69054153673443" fill="#ff4444" opacity="0.3"/>
<rect x="397.8" y="325.828317200948" width="7.199999999999999" height="19.171682799052007" fill="#44aa44" opacity="0.3"/>
<rect x="409.8" y="317.8037001995759" width="7.199999999999999" height="27.19629980042407" fill="#ff4444" opacity="0.3"/>
<rect x="421.8" y="319.6965982287639" width="7.199999999999999" height="25.30340177123611" fill="#ff4444" opacity="0.3"/>
<rect x="433.8" y="312.3506886615941" width="7.199999999999999" height="32.64931133840588" fill="#ff4444" opacity="0.3"/>
<rect x="445.8" y="319.3919195459648" width="7.199999999999999" height="25.60808045403519" fill="#44aa44" opacity="0.3"/>
<rect x="457.8" y="322.53763003617314" width="7.199999999999999" height="22.46236996382686" fill="#ff4444" opacity="0.3"/>
<rect x="469.8" y="307.58819446176875" width="7.199999999999999" height="37.41180553823125" fill="#ff4444" opacity="0.3"/>
<rect x="481.8" y="314.42236640888115" width="7.199999999999999" height="30.577633591118854" fill="#ff4444" opacity="0.3"/>
<rect x="493.8" y="316.9689403766995" width="7.199999999999999" height="28.031059623300507" fill="#ff4444" opacity="0.3"/>
<rect x="505.8" y="318.862408132718" width="7.199999999999999" height="26.137591867282026" fill="#ff4444" opacity="0.3"/>
<rect x="517.8" y="316.55172296370216" width="7.199999999999999" height="28.44827703629784" fill="#44aa44" opacity="0.3"/>
<rect x="529.8" y="316.0409726830485" width="7.199999999999999" height="28.959027316951506" fill="#44aa44" opacity="0.3"/>
<rect x="541.8" y="325.3194226019708" width="7.199999999999999" height="19.680577398029186" fill="#44aa44" opacity="0.3"/>
<rect x="553.8" y="329.07166146937755" width="7.199999999999999" height="15.928338530622455" fill="#44aa44" opacity="0.3"/>
<rect x="565.8" y="309.8720003118373" width="7.199999999999999" height="35.127999688162674" fill="#ff4444" opacity="0.3"/>
<rect x="577.8" y="326.83982368716477" width="7.199999999999999" height="18.160176312835233" fill="#44aa44" opacity="0.3"/>
<rect x="589.8" y="315.7158792565798" width="7.199999999999999" height="29.284120743420203" fill="#44aa44" opacity="0.3"/>
<rect x="601.8" y="313.417312149183" width="7.199999999999999" height="31.582687850817024" fill="#ff4444" opacity="0.3"/>
<rect x="613.8" y="313.584658600474" width="7.199999999999999" height="31.415341399526028" fill="#ff4444" opacity="0.3"/>
<rect x="625.8" y="309.7718412124236" width="7.199999999999999" height="35.228158787576376" fill="#ff4444" opacity="0.3"/>
<rect x="637.8" y="318.3358458276163" width="7.199999999999999" height="26.66415417238369" fill="#44aa44" opacity="0.3"/>
<rect x="649.8" y="318.91914955719096" width="7.199999999999999" height="26.080850442809037" fill="#ff4444" opacity="0.3"/>
<rect x="661.8" y="303.06402737931893" width="7.199999999999999" height="41.93597262068107" fill="#44aa44" opacity="0.3"/>
<rect x="673.8" y="314.9254340775851" width="7.199999999999999" height="30.074565922414877" fill="#44aa44" opacity="0.3"/>
<rect x="685.8" y="324.3152815891231" width="7.199999999999999" height="20.684718410876883" fill="#ff4444" opacity="0.3"/>
<rect x="697.8" y="323.8926593488836" width="7.199999999999999" height="21.107340651116374" fill="#44aa44" opacity="0.3"/>
<rect x="709.8" y="328.41814269676934" width="7.199999999999999" height="16.581857303230663" fill="#44aa44" opacity="0.3"/>
<rect x="721.8" y="318.4652114257203" width="7.199999999999999" height="26.534788574279673" fill="#44aa44" opacity="0.3"/>
<rect x="733.8" y="300.0" width="7.199999999999999" height="45.0" fill="#ff4444" opacity="0.3"/>
<rect x="745.8" y="304.4841150056131" width="7.199999999999999" height="40.51588499438691" fill="#44aa44" opacity="0.3"/>
<rect x="757.8" y="305.9567045029313" width="7.199999999999999" height="39.0432954970687" fill="#ff4444" opacity="0.3"/>
<rect x="769.8" y="312.0630535112885" width="7.199999999999999" height="32.9369464887115" fill="#44aa44" opacity="0.3"/>
<polyline points="66.0,205.27 78.0,205.72 90.0,217.46 102.0,223.74 114.0,228.91 126.0,236.25 138.0,246.09 150.0,241.41 162.0,240.78 174.0,242.92 186.0,245.68 198.0,241.11 210.0,243.43 222.0,239.25 234.0,243.80 246.0,245.98 258.0,257.69 270.0,262.75 282.0,265.89 294.0,266.54 306.0,270.99 318.0,276.82 330.0,284.43 342.0,285.85 354.0,286.84 366.0,283.59 378.0,280.71 390.0,266.34 402.0,261.42 414.0,251.18 426.0,239.38 438.0,224.49 450.0,223.19 462.0,217.55 474.0,200.20 486.0,178.80 498.0,171.71 510.0,159.94 522.0,158.51 534.0,167.26 546.0,172.02 558.0,177.77 570.0,169.26 582.0,166.78 594.0,166.65 606.0,159.36 618.0,142.29 630.0,119.31 642.0,105.65 654.0,89.44 666.0,97.95 678.0,112.28 690.0,118.30 702.0,127.77 714.0,135.73 726.0,142.70 738.0,121.20 750.0,102.13 762.0,83.80 774.0,79.68" fill="none" stroke="#ffd700" stroke-width="0.8" opacity="0.7"/>
<polyline points="66.0,205.27 78.0,205.51 90.0,211.96 102.0,216.38 114.0,220.54 126.0,226.07 138.0,233.29 150.0,233.06 162.0,234.24 174.0,236.59 186.0,239.25 198.0,237.93 210.0,239.77 222.0,238.16 234.0,240.84 246.0,242.57 258.0,249.57 270.0,253.81 282.0,257.15 294.0,259.09 306.0,262.87 318.0,267.53 330.0,273.37 342.0,276.15 354.0,278.46 366.0,278.21 378.0,277.62 390.0,270.34 402.0,266.93 414.0,260.34 426.0,252.24 438.0,241.78 450.0,237.93 462.0,232.17 474.0,220.05 486.0,204.77 498.0,196.18 510.0,185.31 522.0,179.92 534.0,180.80 546.0,180.93 558.0,182.45 570.0,176.96 582.0,174.20 594.0,172.78 606.0,167.69 618.0,156.87 630.0,141.68 642.0,130.16 654.0,116.87 666.0,116.52 678.0,120.96 690.0,122.66 702.0,127.04 714.0,131.51 726.0,136.08 738.0,125.56 750.0,114.36 762.0,102.14 774.0,96.56" fill="none" stroke="#ff6b6b" stroke-width="0.8" opacity="0.7"/>
<polyline points="66.0,205.27 78.0,205.40 90.0,208.78 102.0,211.40 114.0,214.06 126.0,217.57 138.0,222.16 150.0,223.10 162.0,224.67 174.0,226.81 186.0,229.13 198.0,229.40 210.0,231.18 222.0,231.15 234.0,233.23 246.0,234.86 258.0,239.26 270.0,242.46 282.0,245.29 294.0,247.44 306.0,250.53 318.0,254.14 330.0,258.48 342.0,261.35 354.0,263.97 366.0,265.22 378.0,266.15 390.0,263.43 402.0,262.30 414.0,259.29 426.0,255.15 438.0,249.39 450.0,246.65 462.0,242.80 474.0,235.44 486.0,225.97 498.0,219.45 510.0,211.54 522.0,206.22 534.0,204.18 546.0,202.02 558.0,200.81 570.0,196.18 582.0,192.91 594.0,190.38 606.0,186.04 618.0,178.62 630.0,168.59 642.0,160.00 654.0,150.19 666.0,146.84 678.0,146.28 690.0,144.76 702.0,144.94 714.0,145.58 726.0,146.64 738.0,140.12 750.0,132.87 762.0,124.70 774.0,119.63" fill="none" stroke="#4ecdc4" stroke-width="0.8" opacity="0.7"/>
<line x1="66.0" y1="198.83003952569172" x2="66.0" y2="215.86956521739128" stroke="#ff4444" stroke-width="0.5" opacity="0.6"/>
<rect x="63.0" y="205.26877470355734" width="6.0" height="0.5" fill="#ff4444" opacity="0.85"/>
<line x1="78.0" y1="198.29644268774703" x2="78.0" y2="218.02173913043484" stroke="#ff4444" stroke-width="0.5" opacity="0.6"/>
<rect x="75.0" y="206.62055335968378" width="6.0" height="5.86956521739134" fill="#ff4444" opacity="0.85"/>
<line x1="90.0" y1="196.83794466403162" x2="90.0" y2="241.85573122529647" stroke="#44aa44" stroke-width="0.5" opacity="0.6"/>
<rect x="87.0" y="199.84387351778656" width="6.0" height="41.10474308300397" fill="#44aa44" opacity="0.85"/>
<line x1="102.0" y1="220.40513833992097" x2="102.0" y2="251.6205533596838" stroke="#ff4444" stroke-width="0.5" opacity="0.6"/>
<rect x="99.0" y="236.28853754940712" width="6.0" height="11.57905138339919" fill="#ff4444" opacity="0.85"/>
<line x1="114.0" y1="214.23320158102774" x2="114.0" y2="246.9604743083004" stroke="#44aa44" stroke-width="0.5" opacity="0.6"/>
<rect x="111.0" y="224.76284584980235" width="6.0" height="14.496047430830117" fill="#44aa44" opacity="0.85"/>
<line x1="126.0" y1="238.65415019762844" x2="126.0" y2="257.1166007905138" stroke="#44aa44" stroke-width="0.5" opacity="0.6"/>
<rect x="123.0" y="244.50592885375497" width="6.0" height="6.4209486166008105" fill="#44aa44" opacity="0.85"/>
<line x1="138.0" y1="262.63043478260875" x2="138.0" y2="283.28063241106724" stroke="#ff4444" stroke-width="0.5" opacity="0.6"/>
<rect x="135.0" y="265.7786561264822" width="6.0" height="0.5" fill="#ff4444" opacity="0.85"/>
<line x1="150.0" y1="230.29446640316206" x2="150.0" y2="254.28853754940715" stroke="#ff4444" stroke-width="0.5" opacity="0.6"/>
<rect x="147.0" y="232.05533596837947" width="6.0" height="19.565217391304344" fill="#ff4444" opacity="0.85"/>
<line x1="162.0" y1="229.29841897233203" x2="162.0" y2="241.30434782608697" stroke="#44aa44" stroke-width="0.5" opacity="0.6"/>
<rect x="159.0" y="232.07312252964428" width="6.0" height="7.452569169960469" fill="#44aa44" opacity="0.85"/>
<line x1="174.0" y1="237.74703557312253" x2="174.0" y2="259.80237154150205" stroke="#44aa44" stroke-width="0.5" opacity="0.6"/>
<rect x="171.0" y="242.74505928853756" width="6.0" height="4.4466403162055315" fill="#44aa44" opacity="0.85"/>
<line x1="186.0" y1="234.7411067193676" x2="186.0" y2="258.9486166007905" stroke="#ff4444" stroke-width="0.5" opacity="0.6"/>
<rect x="183.0" y="251.21146245059288" width="6.0" height="5.745059288537618" fill="#ff4444" opacity="0.85"/>
<line x1="198.0" y1="230.45454545454552" x2="198.0" y2="263.18181818181824" stroke="#ff4444" stroke-width="0.5" opacity="0.6"/>
<rect x="195.0" y="231.96640316205534" width="6.0" height="19.245059288537533" fill="#ff4444" opacity="0.85"/>
<line x1="210.0" y1="196.41106719367588" x2="210.0" y2="248.06324110671937" stroke="#44aa44" stroke-width="0.5" opacity="0.6"/>
<rect x="207.0" y="203.57905138339925" width="6.0" height="44.48418972332013" fill="#44aa44" opacity="0.85"/>
<line x1="222.0" y1="224.94071146245062" x2="222.0" y2="253.38142292490122" stroke="#ff4444" stroke-width="0.5" opacity="0.6"/>
<rect x="219.0" y="230.8992094861661" width="6.0" height="13.375494071146221" fill="#ff4444" opacity="0.85"/>
<line x1="234.0" y1="241.6956521739131" x2="234.0" y2="254.4664031620554" stroke="#44aa44" stroke-width="0.5" opacity="0.6"/>
<rect x="231.0" y="246.28458498023718" width="6.0" height="6.616600790513871" fill="#44aa44" opacity="0.85"/>
<line x1="246.0" y1="235.79051383399215" x2="246.0" y2="252.04743083003956" stroke="#44aa44" stroke-width="0.5" opacity="0.6"/>
<rect x="243.0" y="246.28458498023718" width="6.0" height="4.0553359683793815" fill="#44aa44" opacity="0.85"/>
<line x1="258.0" y1="266.20553359683794" x2="258.0" y2="282.800395256917" stroke="#44aa44" stroke-width="0.5" opacity="0.6"/>
<rect x="255.0" y="269.72727272727275" width="6.0" height="11.383399209486129" fill="#44aa44" opacity="0.85"/>
<line x1="270.0" y1="272.07509881422925" x2="270.0" y2="285.09486166007906" stroke="#ff4444" stroke-width="0.5" opacity="0.6"/>
<rect x="267.0" y="272.85770750988144" width="6.0" height="5.033596837944685" fill="#ff4444" opacity="0.85"/>
<line x1="282.0" y1="262.7549407114625" x2="282.0" y2="274.7430830039526" stroke="#44aa44" stroke-width="0.5" opacity="0.6"/>
<rect x="279.0" y="264.4446640316205" width="6.0" height="7.737154150197739" fill="#44aa44" opacity="0.85"/>
<line x1="294.0" y1="258.7351778656126" x2="294.0" y2="279.3142292490119" stroke="#ff4444" stroke-width="0.5" opacity="0.6"/>
<rect x="291.0" y="267.8241106719368" width="6.0" height="6.723320158102695" fill="#ff4444" opacity="0.85"/>
<line x1="306.0" y1="272.9822134387352" x2="306.0" y2="289.1857707509882" stroke="#ff4444" stroke-width="0.5" opacity="0.6"/>
<rect x="303.0" y="279.901185770751" width="6.0" height="1.0671936758893708" fill="#ff4444" opacity="0.85"/>
<line x1="318.0" y1="281.85770750988144" x2="318.0" y2="296.65612648221344" stroke="#ff4444" stroke-width="0.5" opacity="0.6"/>
<rect x="315.0" y="288.4743083003953" width="6.0" height="0.5" fill="#ff4444" opacity="0.85"/>
<line x1="330.0" y1="281.85770750988144" x2="330.0" y2="300.0" stroke="#44aa44" stroke-width="0.5" opacity="0.6"/>
<rect x="327.0" y="290.7509881422925" width="6.0" height="8.893280632411063" fill="#44aa44" opacity="0.85"/>
<line x1="342.0" y1="281.85770750988144" x2="342.0" y2="293.59683794466406" stroke="#44aa44" stroke-width="0.5" opacity="0.6"/>
<rect x="339.0" y="283.6363636363636" width="6.0" height="5.051383399209499" fill="#44aa44" opacity="0.85"/>
<line x1="354.0" y1="277.1086956521739" x2="354.0" y2="293.95256916996055" stroke="#ff4444" stroke-width="0.5" opacity="0.6"/>
<rect x="351.0" y="288.83003952569175" width="6.0" height="1.9209486166007537" fill="#ff4444" opacity="0.85"/>
<line x1="366.0" y1="266.08102766798424" x2="366.0" y2="287.19367588932806" stroke="#ff4444" stroke-width="0.5" opacity="0.6"/>
<rect x="363.0" y="277.0909090909091" width="6.0" height="10.03162055335963" fill="#ff4444" opacity="0.85"/>
<line x1="378.0" y1="263.05731225296444" x2="378.0" y2="278.28260869565224" stroke="#44aa44" stroke-width="0.5" opacity="0.6"/>
<rect x="375.0" y="272.62648221343875" width="6.0" height="2.3300395256917454" fill="#44aa44" opacity="0.85"/>
<line x1="390.0" y1="237.56916996047437" x2="390.0" y2="265.7608695652174" stroke="#ff4444" stroke-width="0.5" opacity="0.6"/>
<rect x="387.0" y="237.60474308300397" width="6.0" height="21.166007905138287" fill="#ff4444" opacity="0.85"/>
<line x1="402.0" y1="241.48221343873522" x2="402.0" y2="252.86561264822134" stroke="#44aa44" stroke-width="0.5" opacity="0.6"/>
<rect x="399.0" y="248.06324110671937" width="6.0" height="3.521739130434838" fill="#44aa44" opacity="0.85"/>
<line x1="414.0" y1="219.9604743083004" x2="414.0" y2="249.8596837944664" stroke="#ff4444" stroke-width="0.5" opacity="0.6"/>
<rect x="411.0" y="230.6857707509882" width="6.0" height="15.598814229248973" fill="#ff4444" opacity="0.85"/>
<line x1="426.0" y1="208.9505928853755" x2="426.0" y2="239.1699604743083" stroke="#ff4444" stroke-width="0.5" opacity="0.6"/>
<rect x="423.0" y="215.78063241106724" width="6.0" height="23.389328063241067" fill="#ff4444" opacity="0.85"/>
<line x1="438.0" y1="187.58893280632415" x2="438.0" y2="220.13833992094868" stroke="#ff4444" stroke-width="0.5" opacity="0.6"/>
<rect x="435.0" y="194.703557312253" width="6.0" height="18.462450592885347" fill="#ff4444" opacity="0.85"/>
<line x1="450.0" y1="189.7411067193676" x2="450.0" y2="225.74110671936762" stroke="#44aa44" stroke-width="0.5" opacity="0.6"/>
<rect x="447.0" y="194.703557312253" width="6.0" height="25.89723320158103" fill="#44aa44" opacity="0.85"/>
<line x1="462.0" y1="200.92885375494075" x2="462.0" y2="224.94071146245062" stroke="#ff4444" stroke-width="0.5" opacity="0.6"/>
<rect x="459.0" y="206.2648221343874" width="6.0" height="8.537549407114625" fill="#ff4444" opacity="0.85"/>
<line x1="474.0" y1="150.23715415019768" x2="474.0" y2="210.07114624505928" stroke="#ff4444" stroke-width="0.5" opacity="0.6"/>
<rect x="471.0" y="165.49802371541503" width="6.0" height="38.02766798418969" fill="#ff4444" opacity="0.85"/>
<line x1="486.0" y1="123.93083003952569" x2="486.0" y2="164.64426877470362" stroke="#ff4444" stroke-width="0.5" opacity="0.6"/>
<rect x="483.0" y="136.00790513833996" width="6.0" height="24.90118577075097" fill="#ff4444" opacity="0.85"/>
<line x1="498.0" y1="143.33596837944668" x2="498.0" y2="168.005928853755" stroke="#ff4444" stroke-width="0.5" opacity="0.6"/>
<rect x="495.0" y="157.52964426877477" width="6.0" height="1.6007905138339424" fill="#ff4444" opacity="0.85"/>
<line x1="510.0" y1="132.45059288537553" x2="510.0" y2="165.23122529644272" stroke="#ff4444" stroke-width="0.5" opacity="0.6"/>
<rect x="507.0" y="136.3992094861661" width="6.0" height="20.952569169960412" fill="#ff4444" opacity="0.85"/>
<line x1="522.0" y1="127.11462450592889" x2="522.0" y2="166.2450592885376" stroke="#44aa44" stroke-width="0.5" opacity="0.6"/>
<rect x="519.0" y="130.47628458498025" width="6.0" height="25.185770750988183" fill="#44aa44" opacity="0.85"/>
<line x1="534.0" y1="152.3715415019763" x2="534.0" y2="193.8853754940712" stroke="#44aa44" stroke-width="0.5" opacity="0.6"/>
<rect x="531.0" y="167.4545454545455" width="6.0" height="17.306324110671966" fill="#44aa44" opacity="0.85"/>
<line x1="546.0" y1="164.46640316205537" x2="546.0" y2="184.76086956521746" stroke="#44aa44" stroke-width="0.5" opacity="0.6"/>
<rect x="543.0" y="179.33596837944668" width="6.0" height="2.205533596837995" fill="#44aa44" opacity="0.85"/>
<line x1="558.0" y1="175.52964426877477" x2="558.0" y2="195.98418972332024" stroke="#44aa44" stroke-width="0.5" opacity="0.6"/>
<rect x="555.0" y="176.91699604743087" width="6.0" height="12.343873517786562" fill="#44aa44" opacity="0.85"/>
<line x1="570.0" y1="135.8300395256917" x2="570.0" y2="205.37549407114628" stroke="#ff4444" stroke-width="0.5" opacity="0.6"/>
<rect x="567.0" y="152.24703557312256" width="6.0" height="49.57114624505928" fill="#ff4444" opacity="0.85"/>
<line x1="582.0" y1="146.92885375494072" x2="582.0" y2="166.13833992094865" stroke="#44aa44" stroke-width="0.5" opacity="0.6"/>
<rect x="579.0" y="153.7944664031621" width="6.0" height="8.021739130434753" fill="#44aa44" opacity="0.85"/>
<line x1="594.0" y1="143.31818181818187" x2="594.0" y2="168.0237154150198" stroke="#44aa44" stroke-width="0.5" opacity="0.6"/>
<rect x="591.0" y="151.99802371541506" width="6.0" height="14.389328063241067" fill="#44aa44" opacity="0.85"/>
<line x1="606.0" y1="139.79644268774706" x2="606.0" y2="159.13043478260872" stroke="#ff4444" stroke-width="0.5" opacity="0.6"/>
<rect x="603.0" y="144.79446640316206" width="6.0" height="14.335968379446655" fill="#ff4444" opacity="0.85"/>
<line x1="618.0" y1="93.30237154150203" x2="618.0" y2="153.74110671936768" stroke="#ff4444" stroke-width="0.5" opacity="0.6"/>
<rect x="615.0" y="108.15415019762845" width="6.0" height="45.586956521739225" fill="#ff4444" opacity="0.85"/>
<line x1="630.0" y1="63.95454545454551" x2="630.0" y2="120.00000000000004" stroke="#ff4444" stroke-width="0.5" opacity="0.6"/>
<rect x="627.0" y="73.32806324110675" width="6.0" height="28.049407114624458" fill="#ff4444" opacity="0.85"/>
<line x1="642.0" y1="61.67786561264822" x2="642.0" y2="89.97628458498028" stroke="#44aa44" stroke-width="0.5" opacity="0.6"/>
<rect x="639.0" y="73.98616600790515" width="6.0" height="4.339920948616609" fill="#44aa44" opacity="0.85"/>
<line x1="654.0" y1="53.300395256917035" x2="654.0" y2="88.19762845849806" stroke="#ff4444" stroke-width="0.5" opacity="0.6"/>
<rect x="651.0" y="57.035573122529726" width="6.0" height="30.948616600790473" fill="#ff4444" opacity="0.85"/>
<line x1="666.0" y1="52.41106719367593" x2="666.0" y2="115.37549407114624" stroke="#44aa44" stroke-width="0.5" opacity="0.6"/>
<rect x="663.0" y="55.968379446640355" width="6.0" height="58.998023715415044" fill="#44aa44" opacity="0.85"/>
<line x1="678.0" y1="102.39130434782616" x2="678.0" y2="148.10276679841903" stroke="#44aa44" stroke-width="0.5" opacity="0.6"/>
<rect x="675.0" y="114.9664031620554" width="6.0" height="25.98616600790504" fill="#44aa44" opacity="0.85"/>
<line x1="690.0" y1="119.07509881422932" x2="690.0" y2="147.9960474308301" stroke="#ff4444" stroke-width="0.5" opacity="0.6"/>
<rect x="687.0" y="130.31620553359687" width="6.0" height="17.075098814229193" fill="#ff4444" opacity="0.85"/>
<line x1="702.0" y1="136.00790513833996" x2="702.0" y2="167.27667984189725" stroke="#44aa44" stroke-width="0.5" opacity="0.6"/>
<rect x="699.0" y="137.78656126482218" width="6.0" height="8.928853754940661" fill="#44aa44" opacity="0.85"/>
<line x1="714.0" y1="142.98023715415025" x2="714.0" y2="158.95256916996047" stroke="#44aa44" stroke-width="0.5" opacity="0.6"/>
<rect x="711.0" y="148.45849802371544" width="6.0" height="3.2015810276679986" fill="#44aa44" opacity="0.85"/>
<line x1="726.0" y1="124.57114624505931" x2="726.0" y2="159.13043478260872" stroke="#44aa44" stroke-width="0.5" opacity="0.6"/>
<rect x="723.0" y="137.78656126482218" width="6.0" height="18.853754940711497" fill="#44aa44" opacity="0.85"/>
<line x1="738.0" y1="78.20158102766803" x2="738.0" y2="130.600790513834" stroke="#ff4444" stroke-width="0.5" opacity="0.6"/>
<rect x="735.0" y="78.20158102766803" width="6.0" height="52.39920948616597" fill="#ff4444" opacity="0.85"/>
<line x1="750.0" y1="50.61462450592891" x2="750.0" y2="84.10671936758897" stroke="#44aa44" stroke-width="0.5" opacity="0.6"/>
<rect x="747.0" y="52.41106719367593" width="6.0" height="11.561264822134383" fill="#44aa44" opacity="0.85"/>
<line x1="762.0" y1="34.62450592885379" x2="762.0" y2="76.13833992094861" stroke="#ff4444" stroke-width="0.5" opacity="0.6"/>
<rect x="759.0" y="47.164031620553416" width="6.0" height="23.033596837944643" fill="#ff4444" opacity="0.85"/>
<line x1="774.0" y1="30.0" x2="774.0" y2="75.72924901185777" stroke="#44aa44" stroke-width="0.5" opacity="0.6"/>
<rect x="771.0" y="59.73913043478265" width="6.0" height="11.70355731225294" fill="#44aa44" opacity="0.85"/>
<rect x="122.0" y="253.11660079051381" width="8" height="8" fill="#4caf50" opacity="0.85" rx="1"/>
<text x="126.0" y="251.11660079051381" text-anchor="middle" font-family="sans-serif" font-size="8" fill="#4caf50">前低</text>
<rect x="134.0" y="279.28063241106724" width="8" height="8" fill="#4caf50" opacity="0.85" rx="1"/>
<text x="138.0" y="277.28063241106724" text-anchor="middle" font-family="sans-serif" font-size="8" fill="#4caf50">前低</text>
<rect x="206.0" y="192.41106719367588" width="8" height="8" fill="#ff9800" opacity="0.85" rx="1"/>
<text x="210.0" y="190.41106719367588" text-anchor="middle" font-family="sans-serif" font-size="8" fill="#ff9800">前高</text>
<rect x="266.0" y="281.09486166007906" width="8" height="8" fill="#4caf50" opacity="0.85" rx="1"/>
<text x="270.0" y="279.09486166007906" text-anchor="middle" font-family="sans-serif" font-size="8" fill="#4caf50">前低</text>
<rect x="302.0" y="285.1857707509882" width="8" height="8" fill="#4caf50" opacity="0.85" rx="1"/>
<text x="306.0" y="283.1857707509882" text-anchor="middle" font-family="sans-serif" font-size="8" fill="#4caf50">前低</text>
<rect x="314.0" y="292.65612648221344" width="8" height="8" fill="#4caf50" opacity="0.85" rx="1"/>
<text x="318.0" y="290.65612648221344" text-anchor="middle" font-family="sans-serif" font-size="8" fill="#4caf50">前低</text>
<rect x="326.0" y="296.0" width="8" height="8" fill="#4caf50" opacity="0.85" rx="1"/>
<text x="330.0" y="294.0" text-anchor="middle" font-family="sans-serif" font-size="8" fill="#4caf50">前低</text>
<rect x="386.0" y="233.56916996047437" width="8" height="8" fill="#ff9800" opacity="0.85" rx="1"/>
<text x="390.0" y="231.56916996047437" text-anchor="middle" font-family="sans-serif" font-size="8" fill="#ff9800">前高</text>
<rect x="386.0" y="233.56916996047437" width="8" height="8" fill="#2196f3" opacity="0.85" rx="1"/>
<text x="390.0" y="231.56916996047437" text-anchor="middle" font-family="sans-serif" font-size="8" fill="#2196f3">突</text>
<rect x="410.0" y="215.9604743083004" width="8" height="8" fill="#ff9800" opacity="0.85" rx="1"/>
<text x="414.0" y="213.9604743083004" text-anchor="middle" font-family="sans-serif" font-size="8" fill="#ff9800">前高</text>
<rect x="422.0" y="204.9505928853755" width="8" height="8" fill="#ff9800" opacity="0.85" rx="1"/>
<text x="426.0" y="202.9505928853755" text-anchor="middle" font-family="sans-serif" font-size="8" fill="#ff9800">前高</text>
<rect x="422.0" y="204.9505928853755" width="8" height="8" fill="#2196f3" opacity="0.85" rx="1"/>
<text x="426.0" y="202.9505928853755" text-anchor="middle" font-family="sans-serif" font-size="8" fill="#2196f3">突</text>
<rect x="434.0" y="183.58893280632415" width="8" height="8" fill="#ff9800" opacity="0.85" rx="1"/>
<text x="438.0" y="181.58893280632415" text-anchor="middle" font-family="sans-serif" font-size="8" fill="#ff9800">前高</text>
<rect x="434.0" y="183.58893280632415" width="8" height="8" fill="#2196f3" opacity="0.85" rx="1"/>
<text x="438.0" y="181.58893280632415" text-anchor="middle" font-family="sans-serif" font-size="8" fill="#2196f3">突</text>
<rect x="470.0" y="146.23715415019768" width="8" height="8" fill="#ff9800" opacity="0.85" rx="1"/>
<text x="474.0" y="144.23715415019768" text-anchor="middle" font-family="sans-serif" font-size="8" fill="#ff9800">前高</text>
<rect x="470.0" y="146.23715415019768" width="8" height="8" fill="#2196f3" opacity="0.85" rx="1"/>
<text x="474.0" y="144.23715415019768" text-anchor="middle" font-family="sans-serif" font-size="8" fill="#2196f3">突</text>
<rect x="482.0" y="119.93083003952569" width="8" height="8" fill="#ff9800" opacity="0.85" rx="1"/>
<text x="486.0" y="117.93083003952569" text-anchor="middle" font-family="sans-serif" font-size="8" fill="#ff9800">前高</text>
<rect x="482.0" y="119.93083003952569" width="8" height="8" fill="#2196f3" opacity="0.85" rx="1"/>
<text x="486.0" y="117.93083003952569" text-anchor="middle" font-family="sans-serif" font-size="8" fill="#2196f3">突</text>
<rect x="614.0" y="89.30237154150203" width="8" height="8" fill="#ff9800" opacity="0.85" rx="1"/>
<text x="618.0" y="87.30237154150203" text-anchor="middle" font-family="sans-serif" font-size="8" fill="#ff9800">前高</text>
<rect x="614.0" y="89.30237154150203" width="8" height="8" fill="#2196f3" opacity="0.85" rx="1"/>
<text x="618.0" y="87.30237154150203" text-anchor="middle" font-family="sans-serif" font-size="8" fill="#2196f3">突</text>
<rect x="626.0" y="59.95454545454551" width="8" height="8" fill="#ff9800" opacity="0.85" rx="1"/>
<text x="630.0" y="57.95454545454551" text-anchor="middle" font-family="sans-serif" font-size="8" fill="#ff9800">前高</text>
<rect x="626.0" y="59.95454545454551" width="8" height="8" fill="#2196f3" opacity="0.85" rx="1"/>
<text x="630.0" y="57.95454545454551" text-anchor="middle" font-family="sans-serif" font-size="8" fill="#2196f3">突</text>
<rect x="638.0" y="57.67786561264822" width="8" height="8" fill="#ff9800" opacity="0.85" rx="1"/>
<text x="642.0" y="55.67786561264822" text-anchor="middle" font-family="sans-serif" font-size="8" fill="#ff9800">前高</text>
<rect x="650.0" y="49.300395256917035" width="8" height="8" fill="#ff9800" opacity="0.85" rx="1"/>
<text x="654.0" y="47.300395256917035" text-anchor="middle" font-family="sans-serif" font-size="8" fill="#ff9800">前高</text>
<rect x="650.0" y="49.300395256917035" width="8" height="8" fill="#2196f3" opacity="0.85" rx="1"/>
<text x="654.0" y="47.300395256917035" text-anchor="middle" font-family="sans-serif" font-size="8" fill="#2196f3">突</text>
<rect x="662.0" y="48.41106719367593" width="8" height="8" fill="#ff9800" opacity="0.85" rx="1"/>
<text x="666.0" y="46.41106719367593" text-anchor="middle" font-family="sans-serif" font-size="8" fill="#ff9800">前高</text>
<rect x="746.0" y="46.61462450592891" width="8" height="8" fill="#ff9800" opacity="0.85" rx="1"/>
<text x="750.0" y="44.61462450592891" text-anchor="middle" font-family="sans-serif" font-size="8" fill="#ff9800">前高</text>
<rect x="758.0" y="30.624505928853793" width="8" height="8" fill="#ff9800" opacity="0.85" rx="1"/>
<text x="762.0" y="28.624505928853793" text-anchor="middle" font-family="sans-serif" font-size="8" fill="#ff9800">前高</text>
<rect x="770.0" y="26.0" width="8" height="8" fill="#ff9800" opacity="0.85" rx="1"/>
<text x="774.0" y="24.0" text-anchor="middle" font-family="sans-serif" font-size="8" fill="#ff9800">前高</text>
<text x="66.0" y="359" text-anchor="middle" font-family="sans-serif" font-size="8" fill="#666666" transform="rotate(-40,66.0,359)">02/27</text>
<text x="138.0" y="359" text-anchor="middle" font-family="sans-serif" font-size="8" fill="#666666" transform="rotate(-40,138.0,359)">03/09</text>
<text x="210.0" y="359" text-anchor="middle" font-family="sans-serif" font-size="8" fill="#666666" transform="rotate(-40,210.0,359)">03/17</text>
<text x="282.0" y="359" text-anchor="middle" font-family="sans-serif" font-size="8" fill="#666666" transform="rotate(-40,282.0,359)">03/25</text>
<text x="354.0" y="359" text-anchor="middle" font-family="sans-serif" font-size="8" fill="#666666" transform="rotate(-40,354.0,359)">04/02</text>
<text x="426.0" y="359" text-anchor="middle" font-family="sans-serif" font-size="8" fill="#666666" transform="rotate(-40,426.0,359)">04/13</text>
<text x="498.0" y="359" text-anchor="middle" font-family="sans-serif" font-size="8" fill="#666666" transform="rotate(-40,498.0,359)">04/21</text>
<text x="570.0" y="359" text-anchor="middle" font-family="sans-serif" font-size="8" fill="#666666" transform="rotate(-40,570.0,359)">04/29</text>
<text x="642.0" y="359" text-anchor="middle" font-family="sans-serif" font-size="8" fill="#666666" transform="rotate(-40,642.0,359)">05/12</text>
<text x="714.0" y="359" text-anchor="middle" font-family="sans-serif" font-size="8" fill="#666666" transform="rotate(-40,714.0,359)">05/20</text>
<text x="774.0" y="359" text-anchor="middle" font-family="sans-serif" font-size="8" fill="#666666" transform="rotate(-40,774.0,359)">05/27</text>
<text x="400.0" y="396" text-anchor="middle" font-family="sans-serif" font-size="9" fill="#555555">数据截至: 2026-05-27 20:56  |  最新K线: 20260527</text>
<rect x="50" y="373" width="8" height="8" fill="#ffd700" opacity="0.8" rx="1"/>
<text x="61" y="380" font-family="sans-serif" font-size="9" fill="#888888">EMA5</text>
<rect x="150" y="373" width="8" height="8" fill="#ff6b6b" opacity="0.8" rx="1"/>
<text x="161" y="380" font-family="sans-serif" font-size="9" fill="#888888">EMA10</text>
<rect x="250" y="373" width="8" height="8" fill="#4ecdc4" opacity="0.8" rx="1"/>
<text x="261" y="380" font-family="sans-serif" font-size="9" fill="#888888">EMA20</text>
<rect x="350" y="373" width="8" height="8" fill="#2196f3" opacity="0.8" rx="1"/>
<text x="361" y="380" font-family="sans-serif" font-size="9" fill="#888888">突破</text>
<rect x="450" y="373" width="8" height="8" fill="#ff9800" opacity="0.8" rx="1"/>
<text x="461" y="380" font-family="sans-serif" font-size="9" fill="#888888">前高/量</text>
<rect x="550" y="373" width="8" height="8" fill="#4caf50" opacity="0.8" rx="1"/>
<text x="561" y="380" font-family="sans-serif" font-size="9" fill="#888888">前低</text>
</svg>