<svg xmlns="http://www.w3.org/2000/svg" width="800" height="400" viewBox="0 0 800 400">
<rect width="800" height="400" fill="#1a1a2e"/>
<text x="400.0" y="20" text-anchor="middle" font-family="sans-serif" font-size="14" fill="#ffffff" font-weight="bold">国城矿业(000688) K线图</text>
<line x1="60" y1="30.0" x2="780" y2="30.0" stroke="#2a2a4e" stroke-width="0.5"/>
<text x="55" y="33.0" text-anchor="end" font-family="sans-serif" font-size="8" fill="#666666">52.73</text>
<line x1="60" y1="83.99999999999997" x2="780" y2="83.99999999999997" stroke="#2a2a4e" stroke-width="0.5"/>
<text x="55" y="86.99999999999997" text-anchor="end" font-family="sans-serif" font-size="8" fill="#666666">48.07</text>
<line x1="60" y1="138.0" x2="780" y2="138.0" stroke="#2a2a4e" stroke-width="0.5"/>
<text x="55" y="141.0" text-anchor="end" font-family="sans-serif" font-size="8" fill="#666666">43.41</text>
<line x1="60" y1="192.0" x2="780" y2="192.0" stroke="#2a2a4e" stroke-width="0.5"/>
<text x="55" y="195.0" text-anchor="end" font-family="sans-serif" font-size="8" fill="#666666">38.75</text>
<line x1="60" y1="245.99999999999994" x2="780" y2="245.99999999999994" stroke="#2a2a4e" stroke-width="0.5"/>
<text x="55" y="248.99999999999994" text-anchor="end" font-family="sans-serif" font-size="8" fill="#666666">34.09</text>
<line x1="60" y1="300.0" x2="780" y2="300.0" stroke="#2a2a4e" stroke-width="0.5"/>
<text x="55" y="303.0" text-anchor="end" font-family="sans-serif" font-size="8" fill="#666666">29.43</text>
<line x1="60" y1="300" x2="780" y2="300" stroke="#2a2a4e" stroke-width="0.5"/>
<line x1="60" y1="345" x2="780" y2="345" stroke="#2a2a4e" stroke-width="0.5"/>
<rect x="61.8" y="309.37233792309695" width="7.199999999999999" height="35.62766207690305" fill="#44aa44" opacity="0.3"/>
<rect x="73.8" y="317.7017402737056" width="7.199999999999999" height="27.298259726294418" fill="#ff4444" opacity="0.3"/>
<rect x="85.8" y="312.28556366721836" width="7.199999999999999" height="32.714436332781645" fill="#44aa44" opacity="0.3"/>
<rect x="97.8" y="316.49218073979483" width="7.199999999999999" height="28.507819260205167" fill="#44aa44" opacity="0.3"/>
<rect x="109.8" y="323.238230154663" width="7.199999999999999" height="21.761769845337028" fill="#44aa44" opacity="0.3"/>
<rect x="121.8" y="316.61183243302276" width="7.199999999999999" height="28.388167566977245" fill="#44aa44" opacity="0.3"/>
<rect x="133.8" y="328.04036485680444" width="7.199999999999999" height="16.959635143195555" fill="#44aa44" opacity="0.3"/>
<rect x="145.8" y="317.85645577276887" width="7.199999999999999" height="27.143544227231132" fill="#ff4444" opacity="0.3"/>
<rect x="157.8" y="325.7175531155226" width="7.199999999999999" height="19.282446884477395" fill="#44aa44" opacity="0.3"/>
<rect x="169.8" y="318.10691152873574" width="7.199999999999999" height="26.893088471264264" fill="#ff4444" opacity="0.3"/>
<rect x="181.8" y="325.04028294674583" width="7.199999999999999" height="19.959717053254167" fill="#ff4444" opacity="0.3"/>
<rect x="193.8" y="322.4411192694463" width="7.199999999999999" height="22.55888073055371" fill="#ff4444" opacity="0.3"/>
<rect x="205.8" y="323.01319802071697" width="7.199999999999999" height="21.98680197928303" fill="#ff4444" opacity="0.3"/>
<rect x="217.8" y="331.39788966085035" width="7.199999999999999" height="13.602110339149647" fill="#44aa44" opacity="0.3"/>
<rect x="229.8" y="317.2471394487243" width="7.199999999999999" height="27.752860551275717" fill="#44aa44" opacity="0.3"/>
<rect x="241.8" y="310.2961888719935" width="7.199999999999999" height="34.70381112800652" fill="#44aa44" opacity="0.3"/>
<rect x="253.8" y="309.01451698268545" width="7.199999999999999" height="35.98548301731455" fill="#ff4444" opacity="0.3"/>
<rect x="265.8" y="303.6718704056858" width="7.199999999999999" height="41.32812959431419" fill="#ff4444" opacity="0.3"/>
<rect x="277.8" y="300.269925146808" width="7.199999999999999" height="44.73007485319198" fill="#ff4444" opacity="0.3"/>
<rect x="289.8" y="307.9363285811498" width="7.199999999999999" height="37.06367141885022" fill="#ff4444" opacity="0.3"/>
<rect x="301.8" y="311.51028496299347" width="7.199999999999999" height="33.48971503700653" fill="#ff4444" opacity="0.3"/>
<rect x="313.8" y="300.0" width="7.199999999999999" height="45.0" fill="#ff4444" opacity="0.3"/>
<rect x="325.8" y="310.4524165567532" width="7.199999999999999" height="34.54758344324682" fill="#44aa44" opacity="0.3"/>
<rect x="337.8" y="303.3829484260667" width="7.199999999999999" height="41.61705157393328" fill="#44aa44" opacity="0.3"/>
<rect x="349.8" y="316.3778216965043" width="7.199999999999999" height="28.622178303495673" fill="#ff4444" opacity="0.3"/>
<rect x="361.8" y="316.3816966723514" width="7.199999999999999" height="28.61830332764862" fill="#ff4444" opacity="0.3"/>
<rect x="373.8" y="325.7399523661506" width="7.199999999999999" height="19.26004763384941" fill="#44aa44" opacity="0.3"/>
<rect x="385.8" y="326.4005884922668" width="7.199999999999999" height="18.59941150773318" fill="#44aa44" opacity="0.3"/>
<rect x="397.8" y="321.1670083086203" width="7.199999999999999" height="23.832991691379675" fill="#ff4444" opacity="0.3"/>
<rect x="409.8" y="323.7021876286408" width="7.199999999999999" height="21.297812371359214" fill="#44aa44" opacity="0.3"/>
<rect x="421.8" y="317.09006115951036" width="7.199999999999999" height="27.909938840489644" fill="#ff4444" opacity="0.3"/>
<rect x="433.8" y="319.618152109079" width="7.199999999999999" height="25.381847890920994" fill="#ff4444" opacity="0.3"/>
<rect x="445.8" y="318.1112590626129" width="7.199999999999999" height="26.888740937387126" fill="#ff4444" opacity="0.3"/>
<rect x="457.8" y="325.74486696966386" width="7.199999999999999" height="19.25513303033614" fill="#44aa44" opacity="0.3"/>
<rect x="469.8" y="317.9749733267245" width="7.199999999999999" height="27.025026673275477" fill="#ff4444" opacity="0.3"/>
<rect x="481.8" y="320.6006947653172" width="7.199999999999999" height="24.3993052346828" fill="#44aa44" opacity="0.3"/>
<rect x="493.8" y="324.1065082792167" width="7.199999999999999" height="20.893491720783288" fill="#44aa44" opacity="0.3"/>
<rect x="505.8" y="326.5555875261482" width="7.199999999999999" height="18.4444124738518" fill="#44aa44" opacity="0.3"/>
<rect x="517.8" y="328.93274344089457" width="7.199999999999999" height="16.06725655910543" fill="#ff4444" opacity="0.3"/>
<rect x="529.8" y="307.1925222417313" width="7.199999999999999" height="37.8074777582687" fill="#44aa44" opacity="0.3"/>
<rect x="541.8" y="311.3091642653718" width="7.199999999999999" height="33.690835734628195" fill="#ff4444" opacity="0.3"/>
<rect x="553.8" y="310.6069430326044" width="7.199999999999999" height="34.39305696739558" fill="#ff4444" opacity="0.3"/>
<rect x="565.8" y="328.45659396973946" width="7.199999999999999" height="16.54340603026054" fill="#ff4444" opacity="0.3"/>
<rect x="577.8" y="313.9254345433619" width="7.199999999999999" height="31.074565456638084" fill="#ff4444" opacity="0.3"/>
<rect x="589.8" y="321.65364856804416" width="7.199999999999999" height="23.34635143195584" fill="#ff4444" opacity="0.3"/>
<rect x="601.8" y="324.23277578486636" width="7.199999999999999" height="20.767224215133638" fill="#44aa44" opacity="0.3"/>
<rect x="613.8" y="308.0155293069989" width="7.199999999999999" height="36.98447069300107" fill="#44aa44" opacity="0.3"/>
<rect x="625.8" y="312.3649534162795" width="7.199999999999999" height="32.63504658372051" fill="#44aa44" opacity="0.3"/>
<rect x="637.8" y="311.8675388337688" width="7.199999999999999" height="33.132461166231224" fill="#44aa44" opacity="0.3"/>
<rect x="649.8" y="310.1995034990297" width="7.199999999999999" height="34.800496500970326" fill="#44aa44" opacity="0.3"/>
<rect x="661.8" y="307.1667205732864" width="7.199999999999999" height="37.8332794267136" fill="#44aa44" opacity="0.3"/>
<rect x="673.8" y="314.87981274100457" width="7.199999999999999" height="30.12018725899543" fill="#ff4444" opacity="0.3"/>
<rect x="685.8" y="314.5580007224887" width="7.199999999999999" height="30.441999277511286" fill="#44aa44" opacity="0.3"/>
<rect x="697.8" y="318.3647391899725" width="7.199999999999999" height="26.63526081002749" fill="#ff4444" opacity="0.3"/>
<rect x="709.8" y="315.88541622911293" width="7.199999999999999" height="29.114583770887066" fill="#44aa44" opacity="0.3"/>
<rect x="721.8" y="310.8357556307915" width="7.199999999999999" height="34.16424436920852" fill="#ff4444" opacity="0.3"/>
<rect x="733.8" y="311.2393201885192" width="7.199999999999999" height="33.76067981148083" fill="#44aa44" opacity="0.3"/>
<rect x="745.8" y="318.1372497542698" width="7.199999999999999" height="26.862750245730183" fill="#ff4444" opacity="0.3"/>
<rect x="757.8" y="322.96925012391523" width="7.199999999999999" height="22.03074987608477" fill="#44aa44" opacity="0.3"/>
<rect x="769.8" y="307.8625150168441" width="7.199999999999999" height="37.1374849831559" fill="#ff4444" opacity="0.3"/>
<polyline points="66.0,227.92 78.0,221.20 90.0,219.04 102.0,223.62 114.0,228.73 126.0,230.66 138.0,233.92 150.0,234.12 162.0,234.57 174.0,232.08 186.0,229.19 198.0,225.87 210.0,225.09 222.0,229.01 234.0,240.19 246.0,258.28 258.0,267.66 270.0,266.20 282.0,252.63 294.0,236.47 306.0,218.83 318.0,195.63 330.0,180.32 342.0,183.75 354.0,185.34 366.0,183.93 378.0,181.72 390.0,181.94 402.0,178.96 414.0,179.02 426.0,174.54 438.0,155.71 450.0,141.89 462.0,140.32 474.0,126.73 486.0,122.80 498.0,122.50 510.0,125.38 522.0,127.08 534.0,140.14 546.0,137.50 558.0,128.20 570.0,121.93 582.0,104.38 594.0,84.41 606.0,73.77 618.0,77.33 630.0,89.48 642.0,103.22 654.0,118.06 666.0,132.97 678.0,141.60 690.0,152.07 702.0,154.79 714.0,162.33 726.0,154.91 738.0,148.35 750.0,144.55 762.0,146.62 774.0,135.13" fill="none" stroke="#ffd700" stroke-width="0.8" opacity="0.7"/>
<polyline points="66.0,227.92 78.0,224.26 90.0,222.52 102.0,224.39 114.0,227.03 126.0,228.40 138.0,230.58 150.0,231.30 162.0,232.06 174.0,231.16 186.0,229.75 198.0,227.84 210.0,227.05 222.0,228.83 234.0,234.97 246.0,245.78 258.0,253.17 270.0,255.01 282.0,249.64 294.0,241.37 306.0,230.86 318.0,216.02 330.0,203.96 342.0,201.53 354.0,199.17 366.0,195.88 378.0,192.50 390.0,190.66 402.0,187.45 414.0,185.94 426.0,182.24 438.0,170.57 450.0,160.33 462.0,156.12 474.0,145.83 486.0,140.22 498.0,136.88 510.0,135.84 522.0,134.87 534.0,140.58 546.0,139.05 558.0,133.70 570.0,129.28 582.0,118.37 594.0,104.94 606.0,95.40 618.0,93.41 630.0,97.11 642.0,103.22 654.0,111.31 666.0,120.67 678.0,127.62 690.0,135.87 702.0,140.30 714.0,147.05 726.0,145.78 738.0,143.86 750.0,142.61 762.0,144.09 774.0,138.28" fill="none" stroke="#ff6b6b" stroke-width="0.8" opacity="0.7"/>
<polyline points="66.0,227.92 78.0,226.00 90.0,224.93 102.0,225.68 114.0,226.94 126.0,227.66 138.0,228.88 150.0,229.42 162.0,229.99 174.0,229.72 186.0,229.12 198.0,228.17 210.0,227.73 222.0,228.60 234.0,231.83 246.0,237.80 258.0,242.43 270.0,244.41 282.0,242.61 294.0,238.95 306.0,233.67 318.0,225.63 330.0,218.40 342.0,215.75 354.0,213.16 366.0,210.11 378.0,206.98 390.0,204.64 402.0,201.63 414.0,199.48 426.0,196.25 438.0,188.81 450.0,181.71 462.0,177.47 474.0,170.04 486.0,164.80 498.0,160.71 510.0,157.90 522.0,155.28 534.0,156.33 546.0,154.03 558.0,149.80 570.0,145.95 582.0,138.65 594.0,129.68 606.0,122.33 618.0,118.72 630.0,118.25 642.0,119.44 654.0,122.13 666.0,126.01 678.0,129.13 690.0,133.31 702.0,135.88 714.0,139.83 726.0,139.86 738.0,139.41 750.0,139.18 762.0,140.28 774.0,137.60" fill="none" stroke="#4ecdc4" stroke-width="0.8" opacity="0.7"/>
<line x1="66.0" y1="200.6909871244635" x2="66.0" y2="232.44206008583694" stroke="#44aa44" stroke-width="0.5" opacity="0.6"/>
<rect x="63.0" y="200.6909871244635" width="6.0" height="27.231759656652372" fill="#44aa44" opacity="0.85"/>
<line x1="78.0" y1="202.08154506437765" x2="78.0" y2="235.33905579399143" stroke="#ff4444" stroke-width="0.5" opacity="0.6"/>
<rect x="75.0" y="207.7596566523605" width="6.0" height="27.579399141630944" fill="#ff4444" opacity="0.85"/>
<line x1="90.0" y1="204.63090128755368" x2="90.0" y2="234.29613733905578" stroke="#44aa44" stroke-width="0.5" opacity="0.6"/>
<rect x="87.0" y="212.27896995708153" width="6.0" height="2.433476394849805" fill="#44aa44" opacity="0.85"/>
<line x1="102.0" y1="199.30042918454936" x2="102.0" y2="234.29613733905578" stroke="#44aa44" stroke-width="0.5" opacity="0.6"/>
<rect x="99.0" y="222.36051502145918" width="6.0" height="10.429184549356279" fill="#44aa44" opacity="0.85"/>
<line x1="114.0" y1="222.93991416309012" x2="114.0" y2="245.65236051502148" stroke="#44aa44" stroke-width="0.5" opacity="0.6"/>
<rect x="111.0" y="237.88841201716738" width="6.0" height="1.042918454935574" fill="#44aa44" opacity="0.85"/>
<line x1="126.0" y1="212.3948497854077" x2="126.0" y2="237.07725321888412" stroke="#44aa44" stroke-width="0.5" opacity="0.6"/>
<rect x="123.0" y="225.2575107296137" width="6.0" height="9.270386266094448" fill="#44aa44" opacity="0.85"/>
<line x1="138.0" y1="226.6480686695279" x2="138.0" y2="245.07296137339054" stroke="#44aa44" stroke-width="0.5" opacity="0.6"/>
<rect x="135.0" y="235.4549356223176" width="6.0" height="4.982832618025725" fill="#44aa44" opacity="0.85"/>
<line x1="150.0" y1="225.60515021459227" x2="150.0" y2="264.4248927038626" stroke="#ff4444" stroke-width="0.5" opacity="0.6"/>
<rect x="147.0" y="234.52789699570815" width="6.0" height="18.65665236051501" fill="#ff4444" opacity="0.85"/>
<line x1="162.0" y1="216.9141630901287" x2="162.0" y2="240.90128755364805" stroke="#44aa44" stroke-width="0.5" opacity="0.6"/>
<rect x="159.0" y="222.5922746781116" width="6.0" height="12.862660944205999" fill="#44aa44" opacity="0.85"/>
<line x1="174.0" y1="221.7811158798283" x2="174.0" y2="242.4077253218884" stroke="#ff4444" stroke-width="0.5" opacity="0.6"/>
<rect x="171.0" y="227.11158798283262" width="6.0" height="12.97854077253217" fill="#ff4444" opacity="0.85"/>
<line x1="186.0" y1="216.68240343347642" x2="186.0" y2="236.49785407725324" stroke="#ff4444" stroke-width="0.5" opacity="0.6"/>
<rect x="183.0" y="223.40343347639487" width="6.0" height="6.257510729613699" fill="#ff4444" opacity="0.85"/>
<line x1="198.0" y1="197.793991416309" x2="198.0" y2="227.34334763948493" stroke="#ff4444" stroke-width="0.5" opacity="0.6"/>
<rect x="195.0" y="219.23175965665237" width="6.0" height="5.330472103004297" fill="#ff4444" opacity="0.85"/>
<line x1="210.0" y1="205.90557939914163" x2="210.0" y2="235.4549356223176" stroke="#ff4444" stroke-width="0.5" opacity="0.6"/>
<rect x="207.0" y="223.519313304721" width="6.0" height="0.5" fill="#ff4444" opacity="0.85"/>
<line x1="222.0" y1="215.17596566523602" x2="222.0" y2="238.1201716738197" stroke="#44aa44" stroke-width="0.5" opacity="0.6"/>
<rect x="219.0" y="223.86695278969955" width="6.0" height="12.97854077253217" fill="#44aa44" opacity="0.85"/>
<line x1="234.0" y1="230.93562231759654" x2="234.0" y2="269.75536480686696" stroke="#44aa44" stroke-width="0.5" opacity="0.6"/>
<rect x="231.0" y="237.7725321888412" width="6.0" height="24.798283261802595" fill="#44aa44" opacity="0.85"/>
<line x1="246.0" y1="269.2918454935623" x2="246.0" y2="298.84120171673817" stroke="#44aa44" stroke-width="0.5" opacity="0.6"/>
<rect x="243.0" y="270.21888412017165" width="6.0" height="24.218884120171708" fill="#44aa44" opacity="0.85"/>
<line x1="258.0" y1="271.84120171673817" x2="258.0" y2="300.0" stroke="#ff4444" stroke-width="0.5" opacity="0.6"/>
<rect x="255.0" y="286.4420600858369" width="6.0" height="6.721030042918471" fill="#ff4444" opacity="0.85"/>
<line x1="270.0" y1="250.98283261802578" x2="270.0" y2="295.7124463519313" stroke="#ff4444" stroke-width="0.5" opacity="0.6"/>
<rect x="267.0" y="263.26609442060084" width="6.0" height="26.652360515021485" fill="#ff4444" opacity="0.85"/>
<line x1="282.0" y1="225.4892703862661" x2="282.0" y2="260.9484978540773" stroke="#ff4444" stroke-width="0.5" opacity="0.6"/>
<rect x="279.0" y="225.4892703862661" width="6.0" height="29.085836909871205" fill="#ff4444" opacity="0.85"/>
<line x1="294.0" y1="201.27038626609436" x2="294.0" y2="220.62231759656652" stroke="#ff4444" stroke-width="0.5" opacity="0.6"/>
<rect x="291.0" y="204.16738197424885" width="6.0" height="10.081545064377764" fill="#ff4444" opacity="0.85"/>
<line x1="306.0" y1="170.33047210300433" x2="306.0" y2="212.27896995708153" stroke="#ff4444" stroke-width="0.5" opacity="0.6"/>
<rect x="303.0" y="183.54077253218887" width="6.0" height="28.73819742489266" fill="#ff4444" opacity="0.85"/>
<line x1="318.0" y1="137.7682403433476" x2="318.0" y2="187.71244635193133" stroke="#ff4444" stroke-width="0.5" opacity="0.6"/>
<rect x="315.0" y="149.2403433476395" width="6.0" height="35.459227467811075" fill="#ff4444" opacity="0.85"/>
<line x1="330.0" y1="142.75107296137338" x2="330.0" y2="169.1716738197425" stroke="#44aa44" stroke-width="0.5" opacity="0.6"/>
<rect x="327.0" y="147.9656652360515" width="6.0" height="1.7381974248926895" fill="#44aa44" opacity="0.85"/>
<line x1="342.0" y1="154.45493562231758" x2="342.0" y2="192.9270386266094" stroke="#44aa44" stroke-width="0.5" opacity="0.6"/>
<rect x="339.0" y="163.37768240343345" width="6.0" height="27.2317596566524" fill="#44aa44" opacity="0.85"/>
<line x1="354.0" y1="174.61802575107293" x2="354.0" y2="214.5965665236052" stroke="#ff4444" stroke-width="0.5" opacity="0.6"/>
<rect x="351.0" y="188.5236051502146" width="6.0" height="2.3175965665235765" fill="#ff4444" opacity="0.85"/>
<line x1="366.0" y1="166.7381974248927" x2="366.0" y2="200.2274678111588" stroke="#ff4444" stroke-width="0.5" opacity="0.6"/>
<rect x="363.0" y="181.10729613733906" width="6.0" height="5.21459227467804" fill="#ff4444" opacity="0.85"/>
<line x1="378.0" y1="163.95708154506434" x2="378.0" y2="193.27467811158795" stroke="#44aa44" stroke-width="0.5" opacity="0.6"/>
<rect x="375.0" y="174.03862660944208" width="6.0" height="3.2446351931329787" fill="#44aa44" opacity="0.85"/>
<line x1="390.0" y1="171.14163090128758" x2="390.0" y2="197.56223175965658" stroke="#44aa44" stroke-width="0.5" opacity="0.6"/>
<rect x="387.0" y="178.90557939914157" width="6.0" height="3.476394849785464" fill="#44aa44" opacity="0.85"/>
<line x1="402.0" y1="168.01287553648066" x2="402.0" y2="194.08583690987123" stroke="#ff4444" stroke-width="0.5" opacity="0.6"/>
<rect x="399.0" y="172.99570815450642" width="6.0" height="16.223175965665234" fill="#ff4444" opacity="0.85"/>
<line x1="414.0" y1="163.84120171673817" x2="414.0" y2="190.14592274678114" stroke="#44aa44" stroke-width="0.5" opacity="0.6"/>
<rect x="411.0" y="172.99570815450642" width="6.0" height="6.141630901287584" fill="#44aa44" opacity="0.85"/>
<line x1="426.0" y1="136.03004291845494" x2="426.0" y2="177.51502145922743" stroke="#ff4444" stroke-width="0.5" opacity="0.6"/>
<rect x="423.0" y="165.5793991416309" width="6.0" height="7.300429184549358" fill="#ff4444" opacity="0.85"/>
<line x1="438.0" y1="118.06866952789694" x2="438.0" y2="172.87982832618025" stroke="#ff4444" stroke-width="0.5" opacity="0.6"/>
<rect x="435.0" y="118.06866952789694" width="6.0" height="54.8111587982833" fill="#ff4444" opacity="0.85"/>
<line x1="450.0" y1="108.450643776824" x2="450.0" y2="128.8454935622317" stroke="#ff4444" stroke-width="0.5" opacity="0.6"/>
<rect x="447.0" y="114.244635193133" width="6.0" height="3.476394849785464" fill="#ff4444" opacity="0.85"/>
<line x1="462.0" y1="114.244635193133" x2="462.0" y2="142.75107296137338" stroke="#44aa44" stroke-width="0.5" opacity="0.6"/>
<rect x="459.0" y="114.244635193133" width="6.0" height="22.944206008583734" fill="#44aa44" opacity="0.85"/>
<line x1="474.0" y1="88.51931330472101" x2="474.0" y2="131.97424892703862" stroke="#ff4444" stroke-width="0.5" opacity="0.6"/>
<rect x="471.0" y="99.52789699570816" width="6.0" height="32.33047210300428" fill="#ff4444" opacity="0.85"/>
<line x1="486.0" y1="80.29184549356219" x2="486.0" y2="121.5450643776824" stroke="#44aa44" stroke-width="0.5" opacity="0.6"/>
<rect x="483.0" y="96.39914163090125" width="6.0" height="18.540772532188868" fill="#44aa44" opacity="0.85"/>
<line x1="498.0" y1="103.8154506437768" x2="498.0" y2="126.41201716738199" stroke="#44aa44" stroke-width="0.5" opacity="0.6"/>
<rect x="495.0" y="114.36051502145916" width="6.0" height="7.532188841201787" fill="#44aa44" opacity="0.85"/>
<line x1="510.0" y1="109.37768240343341" x2="510.0" y2="133.48068669527896" stroke="#44aa44" stroke-width="0.5" opacity="0.6"/>
<rect x="507.0" y="116.2145922746781" width="6.0" height="14.94849785407726" fill="#44aa44" opacity="0.85"/>
<line x1="522.0" y1="118.8798283261802" x2="522.0" y2="142.51931330472098" stroke="#ff4444" stroke-width="0.5" opacity="0.6"/>
<rect x="519.0" y="130.4678111587982" width="6.0" height="12.051502145922768" fill="#ff4444" opacity="0.85"/>
<line x1="534.0" y1="132.90128755364802" x2="534.0" y2="173.6909871244635" stroke="#44aa44" stroke-width="0.5" opacity="0.6"/>
<rect x="531.0" y="136.49356223175965" width="6.0" height="29.78111587982832" fill="#44aa44" opacity="0.85"/>
<line x1="546.0" y1="125.13733905579393" x2="546.0" y2="167.2017167381974" stroke="#ff4444" stroke-width="0.5" opacity="0.6"/>
<rect x="543.0" y="132.20600858369102" width="6.0" height="34.99570815450639" fill="#ff4444" opacity="0.85"/>
<line x1="558.0" y1="96.63090128755366" x2="558.0" y2="150.05150214592277" stroke="#ff4444" stroke-width="0.5" opacity="0.6"/>
<rect x="555.0" y="109.60944206008583" width="6.0" height="29.085836909871205" fill="#ff4444" opacity="0.85"/>
<line x1="570.0" y1="94.31330472103002" x2="570.0" y2="125.9484978540772" stroke="#ff4444" stroke-width="0.5" opacity="0.6"/>
<rect x="567.0" y="109.37768240343341" width="6.0" height="0.9270386266095159" fill="#ff4444" opacity="0.85"/>
<line x1="582.0" y1="59.31759656652354" x2="582.0" y2="119.5751072961373" stroke="#ff4444" stroke-width="0.5" opacity="0.6"/>
<rect x="579.0" y="69.28326180257503" width="6.0" height="42.99141630901289" fill="#ff4444" opacity="0.85"/>
<line x1="594.0" y1="30.0" x2="594.0" y2="79.01716738197422" stroke="#ff4444" stroke-width="0.5" opacity="0.6"/>
<rect x="591.0" y="44.48497854077253" width="6.0" height="29.781115879828334" fill="#ff4444" opacity="0.85"/>
<line x1="606.0" y1="30.811158798283266" x2="606.0" y2="61.40343347639478" stroke="#44aa44" stroke-width="0.5" opacity="0.6"/>
<rect x="603.0" y="44.25321888412014" width="6.0" height="8.22746781115881" fill="#44aa44" opacity="0.85"/>
<line x1="618.0" y1="44.25321888412014" x2="618.0" y2="98.13733905579394" stroke="#44aa44" stroke-width="0.5" opacity="0.6"/>
<rect x="615.0" y="52.48068669527895" width="6.0" height="31.982832618025725" fill="#44aa44" opacity="0.85"/>
<line x1="630.0" y1="73.33905579399136" x2="630.0" y2="121.89270386266095" stroke="#44aa44" stroke-width="0.5" opacity="0.6"/>
<rect x="627.0" y="84.46351931330467" width="6.0" height="29.31759656652362" fill="#44aa44" opacity="0.85"/>
<line x1="642.0" y1="102.65665236051498" x2="642.0" y2="140.31759656652355" stroke="#44aa44" stroke-width="0.5" opacity="0.6"/>
<rect x="639.0" y="110.76824034334763" width="6.0" height="19.931330472102985" fill="#44aa44" opacity="0.85"/>
<line x1="654.0" y1="116.79399141630896" x2="654.0" y2="153.18025751072958" stroke="#44aa44" stroke-width="0.5" opacity="0.6"/>
<rect x="651.0" y="120.84978540772529" width="6.0" height="26.884120171673814" fill="#44aa44" opacity="0.85"/>
<line x1="666.0" y1="142.75107296137338" x2="666.0" y2="170.5622317596566" stroke="#44aa44" stroke-width="0.5" opacity="0.6"/>
<rect x="663.0" y="145.18454935622316" width="6.0" height="17.613733905579352" fill="#44aa44" opacity="0.85"/>
<line x1="678.0" y1="148.42918454935625" x2="678.0" y2="174.03862660944208" stroke="#ff4444" stroke-width="0.5" opacity="0.6"/>
<rect x="675.0" y="158.85836909871244" width="6.0" height="4.055793991416323" fill="#ff4444" opacity="0.85"/>
<line x1="690.0" y1="136.95708154506434" x2="690.0" y2="176.9356223175966" stroke="#44aa44" stroke-width="0.5" opacity="0.6"/>
<rect x="687.0" y="161.75536480686694" width="6.0" height="11.240343347639481" fill="#44aa44" opacity="0.85"/>
<line x1="702.0" y1="155.72961373390552" x2="702.0" y2="189.10300429184548" stroke="#ff4444" stroke-width="0.5" opacity="0.6"/>
<rect x="699.0" y="160.24892703862656" width="6.0" height="12.862660944205999" fill="#ff4444" opacity="0.85"/>
<line x1="714.0" y1="161.29184549356222" x2="714.0" y2="193.73819742489266" stroke="#44aa44" stroke-width="0.5" opacity="0.6"/>
<rect x="711.0" y="165.81115879828326" width="6.0" height="11.587982832618025" fill="#44aa44" opacity="0.85"/>
<line x1="726.0" y1="134.98712446351925" x2="726.0" y2="184.69957081545058" stroke="#ff4444" stroke-width="0.5" opacity="0.6"/>
<rect x="723.0" y="140.08583690987126" width="6.0" height="34.3004291845493" fill="#ff4444" opacity="0.85"/>
<line x1="738.0" y1="112.62231759656649" x2="738.0" y2="141.59227467811155" stroke="#44aa44" stroke-width="0.5" opacity="0.6"/>
<rect x="735.0" y="119.5751072961373" width="6.0" height="15.643776824034347" fill="#44aa44" opacity="0.85"/>
<line x1="750.0" y1="126.6437768240343" x2="750.0" y2="160.13304721030042" stroke="#ff4444" stroke-width="0.5" opacity="0.6"/>
<rect x="747.0" y="136.95708154506434" width="6.0" height="5.793991416309041" fill="#ff4444" opacity="0.85"/>
<line x1="762.0" y1="131.16309012875536" x2="762.0" y2="162.33476394849782" stroke="#44aa44" stroke-width="0.5" opacity="0.6"/>
<rect x="759.0" y="142.75107296137338" width="6.0" height="7.995708154506389" fill="#44aa44" opacity="0.85"/>
<line x1="774.0" y1="107.29184549356218" x2="774.0" y2="158.39484978540773" stroke="#ff4444" stroke-width="0.5" opacity="0.6"/>
<rect x="771.0" y="112.15879828326176" width="6.0" height="38.70386266094427" fill="#ff4444" opacity="0.85"/>
<rect x="146.0" y="260.4248927038626" width="8" height="8" fill="#4caf50" opacity="0.85" rx="1"/>
<text x="150.0" y="258.4248927038626" text-anchor="middle" font-family="sans-serif" font-size="8" fill="#4caf50">前低</text>
<rect x="194.0" y="193.793991416309" width="8" height="8" fill="#ff9800" opacity="0.85" rx="1"/>
<text x="198.0" y="191.793991416309" text-anchor="middle" font-family="sans-serif" font-size="8" fill="#ff9800">前高</text>
<rect x="230.0" y="265.75536480686696" width="8" height="8" fill="#4caf50" opacity="0.85" rx="1"/>
<text x="234.0" y="263.75536480686696" text-anchor="middle" font-family="sans-serif" font-size="8" fill="#4caf50">前低</text>
<rect x="242.0" y="294.84120171673817" width="8" height="8" fill="#4caf50" opacity="0.85" rx="1"/>
<text x="246.0" y="292.84120171673817" text-anchor="middle" font-family="sans-serif" font-size="8" fill="#4caf50">前低</text>
<rect x="254.0" y="296.0" width="8" height="8" fill="#4caf50" opacity="0.85" rx="1"/>
<text x="258.0" y="294.0" text-anchor="middle" font-family="sans-serif" font-size="8" fill="#4caf50">前低</text>
<rect x="302.0" y="166.33047210300433" width="8" height="8" fill="#ff9800" opacity="0.85" rx="1"/>
<text x="306.0" y="164.33047210300433" text-anchor="middle" font-family="sans-serif" font-size="8" fill="#ff9800">前高</text>
<rect x="314.0" y="133.7682403433476" width="8" height="8" fill="#ff9800" opacity="0.85" rx="1"/>
<text x="318.0" y="131.7682403433476" text-anchor="middle" font-family="sans-serif" font-size="8" fill="#ff9800">前高</text>
<rect x="314.0" y="133.7682403433476" width="8" height="8" fill="#2196f3" opacity="0.85" rx="1"/>
<text x="318.0" y="131.7682403433476" text-anchor="middle" font-family="sans-serif" font-size="8" fill="#2196f3">突</text>
<rect x="422.0" y="132.03004291845494" width="8" height="8" fill="#ff9800" opacity="0.85" rx="1"/>
<text x="426.0" y="130.03004291845494" text-anchor="middle" font-family="sans-serif" font-size="8" fill="#ff9800">前高</text>
<rect x="434.0" y="114.06866952789694" width="8" height="8" fill="#ff9800" opacity="0.85" rx="1"/>
<text x="438.0" y="112.06866952789694" text-anchor="middle" font-family="sans-serif" font-size="8" fill="#ff9800">前高</text>
<rect x="434.0" y="114.06866952789694" width="8" height="8" fill="#2196f3" opacity="0.85" rx="1"/>
<text x="438.0" y="112.06866952789694" text-anchor="middle" font-family="sans-serif" font-size="8" fill="#2196f3">突</text>
<rect x="446.0" y="104.450643776824" width="8" height="8" fill="#ff9800" opacity="0.85" rx="1"/>
<text x="450.0" y="102.450643776824" text-anchor="middle" font-family="sans-serif" font-size="8" fill="#ff9800">前高</text>
<rect x="446.0" y="104.450643776824" width="8" height="8" fill="#2196f3" opacity="0.85" rx="1"/>
<text x="450.0" y="102.450643776824" text-anchor="middle" font-family="sans-serif" font-size="8" fill="#2196f3">突</text>
<rect x="470.0" y="84.51931330472101" width="8" height="8" fill="#ff9800" opacity="0.85" rx="1"/>
<text x="474.0" y="82.51931330472101" text-anchor="middle" font-family="sans-serif" font-size="8" fill="#ff9800">前高</text>
<rect x="470.0" y="84.51931330472101" width="8" height="8" fill="#2196f3" opacity="0.85" rx="1"/>
<text x="474.0" y="82.51931330472101" text-anchor="middle" font-family="sans-serif" font-size="8" fill="#2196f3">突</text>
<rect x="482.0" y="76.29184549356219" width="8" height="8" fill="#ff9800" opacity="0.85" rx="1"/>
<text x="486.0" y="74.29184549356219" text-anchor="middle" font-family="sans-serif" font-size="8" fill="#ff9800">前高</text>
<rect x="578.0" y="55.31759656652354" width="8" height="8" fill="#ff9800" opacity="0.85" rx="1"/>
<text x="582.0" y="53.31759656652354" text-anchor="middle" font-family="sans-serif" font-size="8" fill="#ff9800">前高</text>
<rect x="578.0" y="55.31759656652354" width="8" height="8" fill="#2196f3" opacity="0.85" rx="1"/>
<text x="582.0" y="53.31759656652354" text-anchor="middle" font-family="sans-serif" font-size="8" fill="#2196f3">突</text>
<rect x="590.0" y="26.0" width="8" height="8" fill="#ff9800" opacity="0.85" rx="1"/>
<text x="594.0" y="24.0" text-anchor="middle" font-family="sans-serif" font-size="8" fill="#ff9800">前高</text>
<rect x="590.0" y="26.0" width="8" height="8" fill="#2196f3" opacity="0.85" rx="1"/>
<text x="594.0" y="24.0" text-anchor="middle" font-family="sans-serif" font-size="8" fill="#2196f3">突</text>
<rect x="662.0" y="166.5622317596566" width="8" height="8" fill="#4caf50" opacity="0.85" rx="1"/>
<text x="666.0" y="164.5622317596566" text-anchor="middle" font-family="sans-serif" font-size="8" fill="#4caf50">前低</text>
<rect x="674.0" y="170.03862660944208" width="8" height="8" fill="#4caf50" opacity="0.85" rx="1"/>
<text x="678.0" y="168.03862660944208" text-anchor="middle" font-family="sans-serif" font-size="8" fill="#4caf50">前低</text>
<rect x="686.0" y="172.9356223175966" width="8" height="8" fill="#4caf50" opacity="0.85" rx="1"/>
<text x="690.0" y="170.9356223175966" text-anchor="middle" font-family="sans-serif" font-size="8" fill="#4caf50">前低</text>
<rect x="698.0" y="185.10300429184548" width="8" height="8" fill="#4caf50" opacity="0.85" rx="1"/>
<text x="702.0" y="183.10300429184548" text-anchor="middle" font-family="sans-serif" font-size="8" fill="#4caf50">前低</text>
<rect x="710.0" y="189.73819742489266" width="8" height="8" fill="#4caf50" opacity="0.85" rx="1"/>
<text x="714.0" y="187.73819742489266" text-anchor="middle" font-family="sans-serif" font-size="8" fill="#4caf50">前低</text>
<rect x="770.0" y="103.29184549356218" width="8" height="8" fill="#ff9800" opacity="0.85" rx="1"/>
<text x="774.0" y="101.29184549356218" text-anchor="middle" font-family="sans-serif" font-size="8" fill="#ff9800">前高</text>
<rect x="770.0" y="103.29184549356218" width="8" height="8" fill="#2196f3" opacity="0.85" rx="1"/>
<text x="774.0" y="101.29184549356218" text-anchor="middle" font-family="sans-serif" font-size="8" fill="#2196f3">突</text>
<line x1="60" y1="118.06866952789694" x2="780" y2="118.06866952789694" stroke="#4caf50" stroke-width="1.5" stroke-dasharray="6,3" opacity="0.7"/>
<text x="64" y="114.06866952789694" font-family="sans-serif" font-size="9" fill="#4caf50" font-weight="bold">支撑 45.13</text>
<line x1="60" y1="30.811158798283266" x2="780" y2="30.811158798283266" stroke="#f44336" stroke-width="1.5" stroke-dasharray="6,3" opacity="0.7"/>
<text x="64" y="26.811158798283266" font-family="sans-serif" font-size="9" fill="#f44336" font-weight="bold">压力 52.66</text>
<text x="66.0" y="359" text-anchor="middle" font-family="sans-serif" font-size="8" fill="#666666" transform="rotate(-40,66.0,359)">02/26</text>
<text x="138.0" y="359" text-anchor="middle" font-family="sans-serif" font-size="8" fill="#666666" transform="rotate(-40,138.0,359)">03/06</text>
<text x="210.0" y="359" text-anchor="middle" font-family="sans-serif" font-size="8" fill="#666666" transform="rotate(-40,210.0,359)">03/16</text>
<text x="282.0" y="359" text-anchor="middle" font-family="sans-serif" font-size="8" fill="#666666" transform="rotate(-40,282.0,359)">03/24</text>
<text x="354.0" y="359" text-anchor="middle" font-family="sans-serif" font-size="8" fill="#666666" transform="rotate(-40,354.0,359)">04/01</text>
<text x="426.0" y="359" text-anchor="middle" font-family="sans-serif" font-size="8" fill="#666666" transform="rotate(-40,426.0,359)">04/10</text>
<text x="498.0" y="359" text-anchor="middle" font-family="sans-serif" font-size="8" fill="#666666" transform="rotate(-40,498.0,359)">04/20</text>
<text x="570.0" y="359" text-anchor="middle" font-family="sans-serif" font-size="8" fill="#666666" transform="rotate(-40,570.0,359)">04/28</text>
<text x="642.0" y="359" text-anchor="middle" font-family="sans-serif" font-size="8" fill="#666666" transform="rotate(-40,642.0,359)">05/11</text>
<text x="714.0" y="359" text-anchor="middle" font-family="sans-serif" font-size="8" fill="#666666" transform="rotate(-40,714.0,359)">05/19</text>
<text x="774.0" y="359" text-anchor="middle" font-family="sans-serif" font-size="8" fill="#666666" transform="rotate(-40,774.0,359)">05/26</text>
<text x="400.0" y="396" text-anchor="middle" font-family="sans-serif" font-size="9" fill="#555555">数据截至: 2026-05-26 21:35  |  最新K线: 20260526</text>
<rect x="50" y="373" width="8" height="8" fill="#ffd700" opacity="0.8" rx="1"/>
<text x="61" y="380" font-family="sans-serif" font-size="9" fill="#888888">EMA5</text>
<rect x="150" y="373" width="8" height="8" fill="#ff6b6b" opacity="0.8" rx="1"/>
<text x="161" y="380" font-family="sans-serif" font-size="9" fill="#888888">EMA10</text>
<rect x="250" y="373" width="8" height="8" fill="#4ecdc4" opacity="0.8" rx="1"/>
<text x="261" y="380" font-family="sans-serif" font-size="9" fill="#888888">EMA20</text>
<rect x="350" y="373" width="8" height="8" fill="#2196f3" opacity="0.8" rx="1"/>
<text x="361" y="380" font-family="sans-serif" font-size="9" fill="#888888">突破</text>
<rect x="450" y="373" width="8" height="8" fill="#ff9800" opacity="0.8" rx="1"/>
<text x="461" y="380" font-family="sans-serif" font-size="9" fill="#888888">前高/量</text>
<rect x="550" y="373" width="8" height="8" fill="#4caf50" opacity="0.8" rx="1"/>
<text x="561" y="380" font-family="sans-serif" font-size="9" fill="#888888">前低</text>
</svg>