<svg xmlns="http://www.w3.org/2000/svg" width="800" height="400" viewBox="0 0 800 400">
<rect width="800" height="400" fill="#1a1a2e"/>
<text x="400.0" y="20" text-anchor="middle" font-family="sans-serif" font-size="14" fill="#ffffff" font-weight="bold">华虹公司(688347) K线图</text>
<line x1="60" y1="30.0" x2="780" y2="30.0" stroke="#2a2a4e" stroke-width="0.5"/>
<text x="55" y="33.0" text-anchor="end" font-family="sans-serif" font-size="8" fill="#666666">230.50</text>
<line x1="60" y1="84.00000000000003" x2="780" y2="84.00000000000003" stroke="#2a2a4e" stroke-width="0.5"/>
<text x="55" y="87.00000000000003" text-anchor="end" font-family="sans-serif" font-size="8" fill="#666666">205.51</text>
<line x1="60" y1="138.00000000000006" x2="780" y2="138.00000000000006" stroke="#2a2a4e" stroke-width="0.5"/>
<text x="55" y="141.00000000000006" text-anchor="end" font-family="sans-serif" font-size="8" fill="#666666">180.52</text>
<line x1="60" y1="192.0" x2="780" y2="192.0" stroke="#2a2a4e" stroke-width="0.5"/>
<text x="55" y="195.0" text-anchor="end" font-family="sans-serif" font-size="8" fill="#666666">155.53</text>
<line x1="60" y1="246.0" x2="780" y2="246.0" stroke="#2a2a4e" stroke-width="0.5"/>
<text x="55" y="249.0" text-anchor="end" font-family="sans-serif" font-size="8" fill="#666666">130.54</text>
<line x1="60" y1="300.0" x2="780" y2="300.0" stroke="#2a2a4e" stroke-width="0.5"/>
<text x="55" y="303.0" text-anchor="end" font-family="sans-serif" font-size="8" fill="#666666">105.55</text>
<line x1="60" y1="300" x2="780" y2="300" stroke="#2a2a4e" stroke-width="0.5"/>
<line x1="60" y1="345" x2="780" y2="345" stroke="#2a2a4e" stroke-width="0.5"/>
<rect x="61.8" y="334.180570768032" width="7.199999999999999" height="10.819429231968002" fill="#ff4444" opacity="0.3"/>
<rect x="73.8" y="334.3973108221353" width="7.199999999999999" height="10.602689177864704" fill="#ff4444" opacity="0.3"/>
<rect x="85.8" y="330.951514948249" width="7.199999999999999" height="14.048485051751015" fill="#44aa44" opacity="0.3"/>
<rect x="97.8" y="330.26574675086005" width="7.199999999999999" height="14.734253249139954" fill="#ff4444" opacity="0.3"/>
<rect x="109.8" y="334.0768806602664" width="7.199999999999999" height="10.923119339733603" fill="#44aa44" opacity="0.3"/>
<rect x="121.8" y="334.92252942235876" width="7.199999999999999" height="10.077470577641236" fill="#ff4444" opacity="0.3"/>
<rect x="133.8" y="333.437886019142" width="7.199999999999999" height="11.562113980857987" fill="#ff4444" opacity="0.3"/>
<rect x="145.8" y="333.0872741406686" width="7.199999999999999" height="11.912725859331374" fill="#ff4444" opacity="0.3"/>
<rect x="157.8" y="323.79199017171925" width="7.199999999999999" height="21.20800982828075" fill="#ff4444" opacity="0.3"/>
<rect x="169.8" y="328.20964707871445" width="7.199999999999999" height="16.790352921285546" fill="#ff4444" opacity="0.3"/>
<rect x="181.8" y="330.08856892660765" width="7.199999999999999" height="14.91143107339235" fill="#44aa44" opacity="0.3"/>
<rect x="193.8" y="313.5783934032168" width="7.199999999999999" height="31.421606596783192" fill="#ff4444" opacity="0.3"/>
<rect x="205.8" y="320.838268914111" width="7.199999999999999" height="24.161731085889016" fill="#44aa44" opacity="0.3"/>
<rect x="217.8" y="326.66748259651854" width="7.199999999999999" height="18.33251740348146" fill="#44aa44" opacity="0.3"/>
<rect x="229.8" y="327.9447135317122" width="7.199999999999999" height="17.055286468287818" fill="#44aa44" opacity="0.3"/>
<rect x="241.8" y="330.7428429790644" width="7.199999999999999" height="14.257157020935608" fill="#44aa44" opacity="0.3"/>
<rect x="253.8" y="330.59645387985535" width="7.199999999999999" height="14.403546120144654" fill="#44aa44" opacity="0.3"/>
<rect x="265.8" y="331.1909797774119" width="7.199999999999999" height="13.809020222588117" fill="#ff4444" opacity="0.3"/>
<rect x="277.8" y="331.9122629304008" width="7.199999999999999" height="13.0877370695992" fill="#ff4444" opacity="0.3"/>
<rect x="289.8" y="333.9002949586874" width="7.199999999999999" height="11.099705041312575" fill="#44aa44" opacity="0.3"/>
<rect x="301.8" y="334.7385694779323" width="7.199999999999999" height="10.261430522067712" fill="#ff4444" opacity="0.3"/>
<rect x="313.8" y="335.61166262974507" width="7.199999999999999" height="9.38833737025493" fill="#ff4444" opacity="0.3"/>
<rect x="325.8" y="334.2631354935458" width="7.199999999999999" height="10.736864506454197" fill="#44aa44" opacity="0.3"/>
<rect x="337.8" y="329.9469234246817" width="7.199999999999999" height="15.0530765753183" fill="#ff4444" opacity="0.3"/>
<rect x="349.8" y="336.3681977564762" width="7.199999999999999" height="8.631802243523794" fill="#44aa44" opacity="0.3"/>
<rect x="361.8" y="338.53182392895997" width="7.199999999999999" height="6.468176071040034" fill="#44aa44" opacity="0.3"/>
<rect x="373.8" y="333.72537067393927" width="7.199999999999999" height="11.274629326060733" fill="#ff4444" opacity="0.3"/>
<rect x="385.8" y="328.88803689832105" width="7.199999999999999" height="16.111963101678953" fill="#ff4444" opacity="0.3"/>
<rect x="397.8" y="333.8282519884442" width="7.199999999999999" height="11.171748011555792" fill="#ff4444" opacity="0.3"/>
<rect x="409.8" y="332.809962252639" width="7.199999999999999" height="12.190037747360975" fill="#44aa44" opacity="0.3"/>
<rect x="421.8" y="333.2791251948014" width="7.199999999999999" height="11.720874805198605" fill="#44aa44" opacity="0.3"/>
<rect x="433.8" y="332.3162435862566" width="7.199999999999999" height="12.683756413743424" fill="#ff4444" opacity="0.3"/>
<rect x="445.8" y="327.8408315629686" width="7.199999999999999" height="17.159168437031383" fill="#ff4444" opacity="0.3"/>
<rect x="457.8" y="333.1840357515658" width="7.199999999999999" height="11.815964248434227" fill="#ff4444" opacity="0.3"/>
<rect x="469.8" y="334.62674264532916" width="7.199999999999999" height="10.37325735467084" fill="#ff4444" opacity="0.3"/>
<rect x="481.8" y="328.9390264341792" width="7.199999999999999" height="16.060973565820802" fill="#ff4444" opacity="0.3"/>
<rect x="493.8" y="333.1006440390779" width="7.199999999999999" height="11.899355960922094" fill="#44aa44" opacity="0.3"/>
<rect x="505.8" y="332.6855999514834" width="7.199999999999999" height="12.314400048516575" fill="#ff4444" opacity="0.3"/>
<rect x="517.8" y="329.9532788195772" width="7.199999999999999" height="15.046721180422821" fill="#44aa44" opacity="0.3"/>
<rect x="529.8" y="308.03106153885733" width="7.199999999999999" height="36.96893846114267" fill="#ff4444" opacity="0.3"/>
<rect x="541.8" y="319.11768530021465" width="7.199999999999999" height="25.882314699785354" fill="#ff4444" opacity="0.3"/>
<rect x="553.8" y="327.8889985922844" width="7.199999999999999" height="17.111001407715605" fill="#44aa44" opacity="0.3"/>
<rect x="565.8" y="320.63532382972153" width="7.199999999999999" height="24.36467617027847" fill="#44aa44" opacity="0.3"/>
<rect x="577.8" y="314.5750111183804" width="7.199999999999999" height="30.424988881619583" fill="#ff4444" opacity="0.3"/>
<rect x="589.8" y="313.4780294370608" width="7.199999999999999" height="31.521970562939202" fill="#ff4444" opacity="0.3"/>
<rect x="601.8" y="316.1641195161575" width="7.199999999999999" height="28.835880483842516" fill="#ff4444" opacity="0.3"/>
<rect x="613.8" y="319.02265043811934" width="7.199999999999999" height="25.977349561880658" fill="#44aa44" opacity="0.3"/>
<rect x="625.8" y="322.25689394719046" width="7.199999999999999" height="22.743106052809537" fill="#44aa44" opacity="0.3"/>
<rect x="637.8" y="325.3722696565615" width="7.199999999999999" height="19.627730343438486" fill="#44aa44" opacity="0.3"/>
<rect x="649.8" y="326.63431049501605" width="7.199999999999999" height="18.365689504983948" fill="#ff4444" opacity="0.3"/>
<rect x="661.8" y="328.4156363021553" width="7.199999999999999" height="16.584363697844708" fill="#44aa44" opacity="0.3"/>
<rect x="673.8" y="309.3220287276897" width="7.199999999999999" height="35.67797127231029" fill="#44aa44" opacity="0.3"/>
<rect x="685.8" y="324.4858893050369" width="7.199999999999999" height="20.514110694963108" fill="#44aa44" opacity="0.3"/>
<rect x="697.8" y="323.00925857861154" width="7.199999999999999" height="21.990741421388464" fill="#ff4444" opacity="0.3"/>
<rect x="709.8" y="300.0" width="7.199999999999999" height="45.0" fill="#ff4444" opacity="0.3"/>
<rect x="721.8" y="309.2965740686289" width="7.199999999999999" height="35.7034259313711" fill="#44aa44" opacity="0.3"/>
<rect x="733.8" y="312.0083470551913" width="7.199999999999999" height="32.99165294480872" fill="#ff4444" opacity="0.3"/>
<rect x="745.8" y="303.4917871004734" width="7.199999999999999" height="41.5082128995266" fill="#ff4444" opacity="0.3"/>
<rect x="757.8" y="301.5621783939545" width="7.199999999999999" height="43.437821606045475" fill="#ff4444" opacity="0.3"/>
<rect x="769.8" y="311.3733864565262" width="7.199999999999999" height="33.62661354347381" fill="#44aa44" opacity="0.3"/>
<polyline points="66.0,254.12 78.0,256.13 90.0,263.73 102.0,269.23 114.0,271.83 126.0,272.40 138.0,275.00 150.0,274.04 162.0,269.58 174.0,264.56 186.0,266.60 198.0,257.49 210.0,256.37 222.0,255.03 234.0,258.96 246.0,265.12 258.0,273.77 270.0,276.25 282.0,276.03 294.0,279.68 306.0,281.38 318.0,283.81 330.0,288.95 342.0,286.58 354.0,288.58 366.0,291.05 378.0,289.74 390.0,282.55 402.0,278.23 414.0,273.92 426.0,272.91 438.0,269.68 450.0,266.97 462.0,263.88 474.0,262.19 486.0,256.64 498.0,254.52 510.0,252.55 522.0,255.37 534.0,246.30 546.0,237.15 558.0,234.67 570.0,237.28 582.0,232.65 594.0,221.64 606.0,204.28 618.0,197.72 630.0,189.41 642.0,186.58 654.0,184.72 666.0,185.47 678.0,191.56 690.0,197.28 702.0,199.69 714.0,181.09 726.0,175.02 738.0,163.78 750.0,130.49 762.0,102.81 774.0,89.27" fill="none" stroke="#ffd700" stroke-width="0.8" opacity="0.7"/>
<polyline points="66.0,254.12 78.0,255.22 90.0,259.53 102.0,263.29 114.0,265.79 126.0,267.20 138.0,269.57 150.0,270.03 162.0,268.33 174.0,265.81 186.0,266.70 198.0,261.71 210.0,260.33 222.0,258.88 234.0,260.33 246.0,263.44 258.0,268.46 270.0,270.78 282.0,271.65 294.0,274.44 306.0,276.32 318.0,278.56 330.0,282.32 342.0,282.24 354.0,284.12 366.0,286.27 378.0,286.43 390.0,283.11 402.0,280.65 414.0,277.86 426.0,276.59 438.0,274.16 450.0,271.87 462.0,269.29 474.0,267.39 486.0,263.42 498.0,261.03 510.0,258.77 522.0,259.18 534.0,253.54 546.0,247.23 558.0,244.04 570.0,243.76 582.0,240.06 594.0,232.71 606.0,221.23 618.0,214.56 630.0,206.97 642.0,202.23 654.0,198.37 666.0,196.30 678.0,197.66 690.0,199.66 702.0,200.55 714.0,190.24 726.0,185.27 738.0,177.27 750.0,156.66 762.0,136.81 774.0,123.24" fill="none" stroke="#ff6b6b" stroke-width="0.8" opacity="0.7"/>
<polyline points="66.0,254.12 78.0,254.70 90.0,257.01 102.0,259.22 114.0,260.91 126.0,262.12 138.0,263.84 150.0,264.63 162.0,264.25 174.0,263.32 186.0,264.02 198.0,261.67 210.0,260.95 222.0,260.13 234.0,260.77 246.0,262.35 258.0,265.09 270.0,266.62 282.0,267.48 294.0,269.34 306.0,270.81 318.0,272.51 330.0,275.05 342.0,275.70 354.0,277.31 366.0,279.09 378.0,279.85 390.0,278.74 402.0,277.87 414.0,276.67 426.0,276.12 438.0,274.89 450.0,273.62 462.0,272.10 474.0,270.84 486.0,268.43 498.0,266.70 510.0,264.98 522.0,264.60 534.0,261.13 546.0,257.10 558.0,254.49 570.0,253.35 582.0,250.50 594.0,245.65 606.0,238.41 618.0,233.28 630.0,227.52 642.0,223.08 654.0,219.07 666.0,216.02 678.0,214.85 690.0,214.26 702.0,213.33 714.0,206.72 726.0,202.55 738.0,196.71 750.0,184.07 762.0,171.06 774.0,160.69" fill="none" stroke="#4ecdc4" stroke-width="0.8" opacity="0.7"/>
<line x1="66.0" y1="251.81272509003603" x2="66.0" y2="257.6902761104442" stroke="#ff4444" stroke-width="0.5" opacity="0.6"/>
<rect x="63.0" y="254.12484993997597" width="6.0" height="0.6482593037214883" fill="#ff4444" opacity="0.85"/>
<line x1="78.0" y1="254.57863145258105" x2="78.0" y2="262.05522208883554" stroke="#ff4444" stroke-width="0.5" opacity="0.6"/>
<rect x="75.0" y="260.13205282112847" width="6.0" height="1.9231692677070669" fill="#ff4444" opacity="0.85"/>
<line x1="90.0" y1="257.625450180072" x2="90.0" y2="280.2064825930372" stroke="#44aa44" stroke-width="0.5" opacity="0.6"/>
<rect x="87.0" y="259.05162064825925" width="6.0" height="19.879951980792384" fill="#44aa44" opacity="0.85"/>
<line x1="102.0" y1="273.52941176470586" x2="102.0" y2="283.7719087635054" stroke="#ff4444" stroke-width="0.5" opacity="0.6"/>
<rect x="99.0" y="280.2280912364946" width="6.0" height="2.096038415366138" fill="#ff4444" opacity="0.85"/>
<line x1="114.0" y1="271.3685474189676" x2="114.0" y2="279.6230492196879" stroke="#44aa44" stroke-width="0.5" opacity="0.6"/>
<rect x="111.0" y="274.5018007202881" width="6.0" height="2.528211284513816" fill="#44aa44" opacity="0.85"/>
<line x1="126.0" y1="269.8775510204082" x2="126.0" y2="279.5582232893157" stroke="#ff4444" stroke-width="0.5" opacity="0.6"/>
<rect x="123.0" y="273.55102040816325" width="6.0" height="5.553421368547447" fill="#ff4444" opacity="0.85"/>
<line x1="138.0" y1="278.93157262905163" x2="138.0" y2="290.14645858343334" stroke="#ff4444" stroke-width="0.5" opacity="0.6"/>
<rect x="135.0" y="280.2064825930372" width="6.0" height="4.991596638655437" fill="#ff4444" opacity="0.85"/>
<line x1="150.0" y1="270.4825930372149" x2="150.0" y2="278.6506602641056" stroke="#ff4444" stroke-width="0.5" opacity="0.6"/>
<rect x="147.0" y="272.1032412965186" width="6.0" height="0.8859543817526969" fill="#ff4444" opacity="0.85"/>
<line x1="162.0" y1="249.58703481392558" x2="162.0" y2="268.1272509003602" stroke="#ff4444" stroke-width="0.5" opacity="0.6"/>
<rect x="159.0" y="260.672268907563" width="6.0" height="7.390156062424978" fill="#ff4444" opacity="0.85"/>
<line x1="174.0" y1="245.7406962785114" x2="174.0" y2="263.3733493397359" stroke="#ff4444" stroke-width="0.5" opacity="0.6"/>
<rect x="171.0" y="254.51380552220888" width="6.0" height="7.800720288115258" fill="#ff4444" opacity="0.85"/>
<line x1="186.0" y1="257.97118847539014" x2="186.0" y2="272.6002400960384" stroke="#44aa44" stroke-width="0.5" opacity="0.6"/>
<rect x="183.0" y="258.46818727490995" width="6.0" height="12.208883553421401" fill="#44aa44" opacity="0.85"/>
<line x1="198.0" y1="227.00600240096034" x2="198.0" y2="276.3385354141657" stroke="#ff4444" stroke-width="0.5" opacity="0.6"/>
<rect x="195.0" y="239.27971188475388" width="6.0" height="32.0888355342137" fill="#ff4444" opacity="0.85"/>
<line x1="210.0" y1="242.0024009603842" x2="210.0" y2="257.4309723889556" stroke="#44aa44" stroke-width="0.5" opacity="0.6"/>
<rect x="207.0" y="247.18847539015604" width="6.0" height="6.936374549819931" fill="#44aa44" opacity="0.85"/>
<line x1="222.0" y1="247.6422569027611" x2="222.0" y2="262.29291716686674" stroke="#44aa44" stroke-width="0.5" opacity="0.6"/>
<rect x="219.0" y="249.32773109243698" width="6.0" height="3.025210084033631" fill="#44aa44" opacity="0.85"/>
<line x1="234.0" y1="260.3481392557022" x2="234.0" y2="269.7911164465786" stroke="#44aa44" stroke-width="0.5" opacity="0.6"/>
<rect x="231.0" y="262.29291716686674" width="6.0" height="4.537815126050418" fill="#44aa44" opacity="0.85"/>
<line x1="246.0" y1="261.6014405762305" x2="246.0" y2="277.61344537815125" stroke="#44aa44" stroke-width="0.5" opacity="0.6"/>
<rect x="243.0" y="262.6602641056422" width="6.0" height="14.758703481392558" fill="#44aa44" opacity="0.85"/>
<line x1="258.0" y1="280.01200480192074" x2="258.0" y2="293.625450180072" stroke="#44aa44" stroke-width="0.5" opacity="0.6"/>
<rect x="255.0" y="283.90156062424967" width="6.0" height="7.174069627851168" fill="#44aa44" opacity="0.85"/>
<line x1="270.0" y1="280.6818727490996" x2="270.0" y2="296.5642256902761" stroke="#ff4444" stroke-width="0.5" opacity="0.6"/>
<rect x="267.0" y="281.20048019207684" width="6.0" height="4.840336134453764" fill="#ff4444" opacity="0.85"/>
<line x1="282.0" y1="272.01680672268907" x2="282.0" y2="280.5954381752701" stroke="#ff4444" stroke-width="0.5" opacity="0.6"/>
<rect x="279.0" y="275.6038415366146" width="6.0" height="4.991596638655494" fill="#ff4444" opacity="0.85"/>
<line x1="294.0" y1="275.6038415366146" x2="294.0" y2="288.5258103241296" stroke="#44aa44" stroke-width="0.5" opacity="0.6"/>
<rect x="291.0" y="276.5546218487395" width="6.0" height="10.41536614645861" fill="#44aa44" opacity="0.85"/>
<line x1="306.0" y1="280.1200480192077" x2="306.0" y2="294.90036014405763" stroke="#ff4444" stroke-width="0.5" opacity="0.6"/>
<rect x="303.0" y="284.7875150060024" width="6.0" height="7.6926770708282675" fill="#ff4444" opacity="0.85"/>
<line x1="318.0" y1="286.5594237695078" x2="318.0" y2="295.0084033613445" stroke="#ff4444" stroke-width="0.5" opacity="0.6"/>
<rect x="315.0" y="288.65546218487395" width="6.0" height="0.907563025210095" fill="#ff4444" opacity="0.85"/>
<line x1="330.0" y1="288.65546218487395" x2="330.0" y2="300.0" stroke="#44aa44" stroke-width="0.5" opacity="0.6"/>
<rect x="327.0" y="288.65546218487395" width="6.0" height="10.588235294117624" fill="#44aa44" opacity="0.85"/>
<line x1="342.0" y1="280.55222088835535" x2="342.0" y2="293.625450180072" stroke="#ff4444" stroke-width="0.5" opacity="0.6"/>
<rect x="339.0" y="281.8487394957983" width="6.0" height="8.535414165666282" fill="#ff4444" opacity="0.85"/>
<line x1="354.0" y1="283.90156062424967" x2="354.0" y2="294.6626650660264" stroke="#44aa44" stroke-width="0.5" opacity="0.6"/>
<rect x="351.0" y="286.0408163265306" width="6.0" height="6.525810324129679" fill="#44aa44" opacity="0.85"/>
<line x1="366.0" y1="288.5042016806722" x2="366.0" y2="296.4345738295318" stroke="#44aa44" stroke-width="0.5" opacity="0.6"/>
<rect x="363.0" y="290.2545018007203" width="6.0" height="5.726290516206518" fill="#44aa44" opacity="0.85"/>
<line x1="378.0" y1="283.1020408163265" x2="378.0" y2="294.7490996398559" stroke="#ff4444" stroke-width="0.5" opacity="0.6"/>
<rect x="375.0" y="287.1212484993997" width="6.0" height="7.5846338535414475" fill="#ff4444" opacity="0.85"/>
<line x1="390.0" y1="266.6794717887155" x2="390.0" y2="276.3169267707083" stroke="#ff4444" stroke-width="0.5" opacity="0.6"/>
<rect x="387.0" y="268.1704681872749" width="6.0" height="7.087635054021632" fill="#ff4444" opacity="0.85"/>
<line x1="402.0" y1="263.265306122449" x2="402.0" y2="276.5762304921969" stroke="#ff4444" stroke-width="0.5" opacity="0.6"/>
<rect x="399.0" y="269.5966386554622" width="6.0" height="3.5006002400960483" fill="#ff4444" opacity="0.85"/>
<line x1="414.0" y1="261.3421368547419" x2="414.0" y2="266.9603841536615" stroke="#44aa44" stroke-width="0.5" opacity="0.6"/>
<rect x="411.0" y="264.23769507803127" width="6.0" height="1.0588235294117112" fill="#44aa44" opacity="0.85"/>
<line x1="426.0" y1="260.13205282112847" x2="426.0" y2="271.15246098439377" stroke="#44aa44" stroke-width="0.5" opacity="0.6"/>
<rect x="423.0" y="267.9975990396158" width="6.0" height="2.895558223289413" fill="#44aa44" opacity="0.85"/>
<line x1="438.0" y1="258.2953181272509" x2="438.0" y2="266.5066026410564" stroke="#ff4444" stroke-width="0.5" opacity="0.6"/>
<rect x="435.0" y="263.22208883553424" width="6.0" height="1.469387755101991" fill="#ff4444" opacity="0.85"/>
<line x1="450.0" y1="248.2472989195678" x2="450.0" y2="262.703481392557" stroke="#ff4444" stroke-width="0.5" opacity="0.6"/>
<rect x="447.0" y="261.5582232893157" width="6.0" height="0.7346938775510239" fill="#ff4444" opacity="0.85"/>
<line x1="462.0" y1="252.50420168067225" x2="462.0" y2="263.80552220888353" stroke="#ff4444" stroke-width="0.5" opacity="0.6"/>
<rect x="459.0" y="257.6902761104442" width="6.0" height="3.3925570228091146" fill="#ff4444" opacity="0.85"/>
<line x1="474.0" y1="251.51020408163268" x2="474.0" y2="263.265306122449" stroke="#ff4444" stroke-width="0.5" opacity="0.6"/>
<rect x="471.0" y="258.8139255702281" width="6.0" height="2.2905162064826072" fill="#ff4444" opacity="0.85"/>
<line x1="486.0" y1="245.43817527010802" x2="486.0" y2="257.97118847539014" stroke="#ff4444" stroke-width="0.5" opacity="0.6"/>
<rect x="483.0" y="245.54621848739495" width="6.0" height="9.313325330132074" fill="#ff4444" opacity="0.85"/>
<line x1="498.0" y1="248.05282112845137" x2="498.0" y2="256.67466986794716" stroke="#44aa44" stroke-width="0.5" opacity="0.6"/>
<rect x="495.0" y="248.26890756302518" width="6.0" height="2.009603841536631" fill="#44aa44" opacity="0.85"/>
<line x1="510.0" y1="247.16686674669867" x2="510.0" y2="254.53541416566625" stroke="#ff4444" stroke-width="0.5" opacity="0.6"/>
<rect x="507.0" y="248.59303721488592" width="6.0" height="4.883553421368589" fill="#ff4444" opacity="0.85"/>
<line x1="522.0" y1="244.57382953181275" x2="522.0" y2="263.9567827130852" stroke="#44aa44" stroke-width="0.5" opacity="0.6"/>
<rect x="519.0" y="245.00600240096037" width="6.0" height="16.01200480192074" fill="#44aa44" opacity="0.85"/>
<line x1="534.0" y1="221.66866746698676" x2="534.0" y2="267.9975990396158" stroke="#ff4444" stroke-width="0.5" opacity="0.6"/>
<rect x="531.0" y="228.15126050420167" width="6.0" height="33.75270108043219" fill="#ff4444" opacity="0.85"/>
<line x1="546.0" y1="215.74789915966386" x2="546.0" y2="231.88955582232896" stroke="#ff4444" stroke-width="0.5" opacity="0.6"/>
<rect x="543.0" y="218.85954381752703" width="6.0" height="11.020408163265301" fill="#ff4444" opacity="0.85"/>
<line x1="558.0" y1="217.6062424969988" x2="558.0" y2="231.6518607442977" stroke="#44aa44" stroke-width="0.5" opacity="0.6"/>
<rect x="555.0" y="222.48979591836735" width="6.0" height="7.217286914765879" fill="#44aa44" opacity="0.85"/>
<line x1="570.0" y1="232.45138055222088" x2="570.0" y2="255.72388955582232" stroke="#44aa44" stroke-width="0.5" opacity="0.6"/>
<rect x="567.0" y="236.34093637454984" width="6.0" height="6.158463385354139" fill="#44aa44" opacity="0.85"/>
<line x1="582.0" y1="221.23649459783914" x2="582.0" y2="247.16686674669867" stroke="#ff4444" stroke-width="0.5" opacity="0.6"/>
<rect x="579.0" y="223.39735894357744" width="6.0" height="17.286914765906346" fill="#ff4444" opacity="0.85"/>
<line x1="594.0" y1="185.2581032412965" x2="594.0" y2="214.75390156062426" stroke="#ff4444" stroke-width="0.5" opacity="0.6"/>
<rect x="591.0" y="199.6278511404562" width="6.0" height="15.1044417767107" fill="#ff4444" opacity="0.85"/>
<line x1="606.0" y1="160.77551020408166" x2="606.0" y2="204.20888355342137" stroke="#ff4444" stroke-width="0.5" opacity="0.6"/>
<rect x="603.0" y="169.54861944777912" width="6.0" height="24.244897959183675" fill="#ff4444" opacity="0.85"/>
<line x1="618.0" y1="178.0192076830732" x2="618.0" y2="195.58703481392556" stroke="#44aa44" stroke-width="0.5" opacity="0.6"/>
<rect x="615.0" y="181.34693877551018" width="6.0" height="3.2412965186074416" fill="#44aa44" opacity="0.85"/>
<line x1="630.0" y1="162.50420168067225" x2="630.0" y2="177.5870348139256" stroke="#44aa44" stroke-width="0.5" opacity="0.6"/>
<rect x="627.0" y="171.53661464585832" width="6.0" height="1.2749099639856354" fill="#44aa44" opacity="0.85"/>
<line x1="642.0" y1="170.26170468187274" x2="642.0" y2="186.66266506602642" stroke="#44aa44" stroke-width="0.5" opacity="0.6"/>
<rect x="639.0" y="174.21608643457384" width="6.0" height="6.698679471788722" fill="#44aa44" opacity="0.85"/>
<line x1="654.0" y1="179.51020408163265" x2="654.0" y2="195.73829531812723" stroke="#ff4444" stroke-width="0.5" opacity="0.6"/>
<rect x="651.0" y="181.00120048019207" width="6.0" height="5.445378151260513" fill="#ff4444" opacity="0.85"/>
<line x1="666.0" y1="173.69747899159663" x2="666.0" y2="194.22569027611044" stroke="#44aa44" stroke-width="0.5" opacity="0.6"/>
<rect x="663.0" y="175.27490996398558" width="6.0" height="11.69027611044416" fill="#44aa44" opacity="0.85"/>
<line x1="678.0" y1="163.6278511404562" x2="678.0" y2="208.89795918367344" stroke="#44aa44" stroke-width="0.5" opacity="0.6"/>
<rect x="675.0" y="178.0192076830732" width="6.0" height="25.73589435774312" fill="#44aa44" opacity="0.85"/>
<line x1="690.0" y1="194.9387755102041" x2="690.0" y2="212.20408163265304" stroke="#44aa44" stroke-width="0.5" opacity="0.6"/>
<rect x="687.0" y="206.3049219687875" width="6.0" height="2.398559423769484" fill="#44aa44" opacity="0.85"/>
<line x1="702.0" y1="202.86914765906363" x2="702.0" y2="225.55822328931572" stroke="#ff4444" stroke-width="0.5" opacity="0.6"/>
<rect x="699.0" y="204.5114045618247" width="6.0" height="7.001200480192097" fill="#ff4444" opacity="0.85"/>
<line x1="714.0" y1="141.71668667466983" x2="714.0" y2="209.3517406962785" stroke="#ff4444" stroke-width="0.5" opacity="0.6"/>
<rect x="711.0" y="143.87755102040813" width="6.0" height="63.96158463385359" fill="#ff4444" opacity="0.85"/>
<line x1="726.0" y1="128.31932773109241" x2="726.0" y2="167.30132052821125" stroke="#44aa44" stroke-width="0.5" opacity="0.6"/>
<rect x="723.0" y="144.0504201680672" width="6.0" height="18.842737094837958" fill="#44aa44" opacity="0.85"/>
<line x1="738.0" y1="133.63505402160865" x2="738.0" y2="174.43217286914768" stroke="#ff4444" stroke-width="0.5" opacity="0.6"/>
<rect x="735.0" y="141.28451380552218" width="6.0" height="21.608643457382982" fill="#ff4444" opacity="0.85"/>
<line x1="750.0" y1="63.92557022809121" x2="750.0" y2="141.28451380552218" stroke="#ff4444" stroke-width="0.5" opacity="0.6"/>
<rect x="747.0" y="63.92557022809121" width="6.0" height="68.71548619447782" fill="#ff4444" opacity="0.85"/>
<line x1="762.0" y1="33.50060024009605" x2="762.0" y2="74.31932773109241" stroke="#ff4444" stroke-width="0.5" opacity="0.6"/>
<rect x="759.0" y="47.45978391356545" width="6.0" height="16.465786314525758" fill="#ff4444" opacity="0.85"/>
<line x1="774.0" y1="30.0" x2="774.0" y2="64.42256902761106" stroke="#44aa44" stroke-width="0.5" opacity="0.6"/>
<rect x="771.0" y="57.05402160864348" width="6.0" height="5.121248499399705" fill="#44aa44" opacity="0.85"/>
<rect x="134.0" y="286.14645858343334" width="8" height="8" fill="#4caf50" opacity="0.85" rx="1"/>
<text x="138.0" y="284.14645858343334" text-anchor="middle" font-family="sans-serif" font-size="8" fill="#4caf50">前低</text>
<rect x="158.0" y="245.58703481392558" width="8" height="8" fill="#ff9800" opacity="0.85" rx="1"/>
<text x="162.0" y="243.58703481392558" text-anchor="middle" font-family="sans-serif" font-size="8" fill="#ff9800">前高</text>
<rect x="170.0" y="241.7406962785114" width="8" height="8" fill="#ff9800" opacity="0.85" rx="1"/>
<text x="174.0" y="239.7406962785114" text-anchor="middle" font-family="sans-serif" font-size="8" fill="#ff9800">前高</text>
<rect x="194.0" y="223.00600240096034" width="8" height="8" fill="#ff9800" opacity="0.85" rx="1"/>
<text x="198.0" y="221.00600240096034" text-anchor="middle" font-family="sans-serif" font-size="8" fill="#ff9800">前高</text>
<rect x="194.0" y="223.00600240096034" width="8" height="8" fill="#2196f3" opacity="0.85" rx="1"/>
<text x="198.0" y="221.00600240096034" text-anchor="middle" font-family="sans-serif" font-size="8" fill="#2196f3">突</text>
<rect x="254.0" y="289.625450180072" width="8" height="8" fill="#4caf50" opacity="0.85" rx="1"/>
<text x="258.0" y="287.625450180072" text-anchor="middle" font-family="sans-serif" font-size="8" fill="#4caf50">前低</text>
<rect x="266.0" y="292.5642256902761" width="8" height="8" fill="#4caf50" opacity="0.85" rx="1"/>
<text x="270.0" y="290.5642256902761" text-anchor="middle" font-family="sans-serif" font-size="8" fill="#4caf50">前低</text>
<rect x="326.0" y="296.0" width="8" height="8" fill="#4caf50" opacity="0.85" rx="1"/>
<text x="330.0" y="294.0" text-anchor="middle" font-family="sans-serif" font-size="8" fill="#4caf50">前低</text>
<rect x="386.0" y="262.6794717887155" width="8" height="8" fill="#ff9800" opacity="0.85" rx="1"/>
<text x="390.0" y="260.6794717887155" text-anchor="middle" font-family="sans-serif" font-size="8" fill="#ff9800">前高</text>
<rect x="386.0" y="262.6794717887155" width="8" height="8" fill="#2196f3" opacity="0.85" rx="1"/>
<text x="390.0" y="260.6794717887155" text-anchor="middle" font-family="sans-serif" font-size="8" fill="#2196f3">突</text>
<rect x="398.0" y="259.265306122449" width="8" height="8" fill="#ff9800" opacity="0.85" rx="1"/>
<text x="402.0" y="257.265306122449" text-anchor="middle" font-family="sans-serif" font-size="8" fill="#ff9800">前高</text>
<rect x="410.0" y="257.3421368547419" width="8" height="8" fill="#ff9800" opacity="0.85" rx="1"/>
<text x="414.0" y="255.3421368547419" text-anchor="middle" font-family="sans-serif" font-size="8" fill="#ff9800">前高</text>
<rect x="422.0" y="256.13205282112847" width="8" height="8" fill="#ff9800" opacity="0.85" rx="1"/>
<text x="426.0" y="254.13205282112847" text-anchor="middle" font-family="sans-serif" font-size="8" fill="#ff9800">前高</text>
<rect x="434.0" y="254.29531812725088" width="8" height="8" fill="#ff9800" opacity="0.85" rx="1"/>
<text x="438.0" y="252.29531812725088" text-anchor="middle" font-family="sans-serif" font-size="8" fill="#ff9800">前高</text>
<rect x="446.0" y="244.2472989195678" width="8" height="8" fill="#ff9800" opacity="0.85" rx="1"/>
<text x="450.0" y="242.2472989195678" text-anchor="middle" font-family="sans-serif" font-size="8" fill="#ff9800">前高</text>
<rect x="482.0" y="241.43817527010802" width="8" height="8" fill="#ff9800" opacity="0.85" rx="1"/>
<text x="486.0" y="239.43817527010802" text-anchor="middle" font-family="sans-serif" font-size="8" fill="#ff9800">前高</text>
<rect x="482.0" y="241.43817527010802" width="8" height="8" fill="#2196f3" opacity="0.85" rx="1"/>
<text x="486.0" y="239.43817527010802" text-anchor="middle" font-family="sans-serif" font-size="8" fill="#2196f3">突</text>
<rect x="518.0" y="240.57382953181275" width="8" height="8" fill="#ff9800" opacity="0.85" rx="1"/>
<text x="522.0" y="238.57382953181275" text-anchor="middle" font-family="sans-serif" font-size="8" fill="#ff9800">前高</text>
<rect x="530.0" y="217.66866746698676" width="8" height="8" fill="#ff9800" opacity="0.85" rx="1"/>
<text x="534.0" y="215.66866746698676" text-anchor="middle" font-family="sans-serif" font-size="8" fill="#ff9800">前高</text>
<rect x="530.0" y="194.50420168067225" width="8" height="8" fill="#ff9800" opacity="0.85" rx="1"/>
<text x="534.0" y="192.50420168067225" text-anchor="middle" font-family="sans-serif" font-size="8" fill="#ff9800">量</text>
<rect x="530.0" y="217.66866746698676" width="8" height="8" fill="#2196f3" opacity="0.85" rx="1"/>
<text x="534.0" y="215.66866746698676" text-anchor="middle" font-family="sans-serif" font-size="8" fill="#2196f3">突</text>
<rect x="542.0" y="211.74789915966386" width="8" height="8" fill="#ff9800" opacity="0.85" rx="1"/>
<text x="546.0" y="209.74789915966386" text-anchor="middle" font-family="sans-serif" font-size="8" fill="#ff9800">前高</text>
<rect x="542.0" y="211.74789915966386" width="8" height="8" fill="#2196f3" opacity="0.85" rx="1"/>
<text x="546.0" y="209.74789915966386" text-anchor="middle" font-family="sans-serif" font-size="8" fill="#2196f3">突</text>
<rect x="590.0" y="181.2581032412965" width="8" height="8" fill="#ff9800" opacity="0.85" rx="1"/>
<text x="594.0" y="179.2581032412965" text-anchor="middle" font-family="sans-serif" font-size="8" fill="#ff9800">前高</text>
<rect x="602.0" y="156.77551020408166" width="8" height="8" fill="#ff9800" opacity="0.85" rx="1"/>
<text x="606.0" y="154.77551020408166" text-anchor="middle" font-family="sans-serif" font-size="8" fill="#ff9800">前高</text>
<rect x="602.0" y="156.77551020408166" width="8" height="8" fill="#2196f3" opacity="0.85" rx="1"/>
<text x="606.0" y="154.77551020408166" text-anchor="middle" font-family="sans-serif" font-size="8" fill="#2196f3">突</text>
<rect x="710.0" y="137.71668667466983" width="8" height="8" fill="#ff9800" opacity="0.85" rx="1"/>
<text x="714.0" y="135.71668667466983" text-anchor="middle" font-family="sans-serif" font-size="8" fill="#ff9800">前高</text>
<rect x="710.0" y="137.71668667466983" width="8" height="8" fill="#2196f3" opacity="0.85" rx="1"/>
<text x="714.0" y="135.71668667466983" text-anchor="middle" font-family="sans-serif" font-size="8" fill="#2196f3">突</text>
<rect x="722.0" y="124.31932773109241" width="8" height="8" fill="#ff9800" opacity="0.85" rx="1"/>
<text x="726.0" y="122.31932773109241" text-anchor="middle" font-family="sans-serif" font-size="8" fill="#ff9800">前高</text>
<rect x="746.0" y="59.92557022809121" width="8" height="8" fill="#ff9800" opacity="0.85" rx="1"/>
<text x="750.0" y="57.92557022809121" text-anchor="middle" font-family="sans-serif" font-size="8" fill="#ff9800">前高</text>
<rect x="746.0" y="59.92557022809121" width="8" height="8" fill="#2196f3" opacity="0.85" rx="1"/>
<text x="750.0" y="57.92557022809121" text-anchor="middle" font-family="sans-serif" font-size="8" fill="#2196f3">突</text>
<rect x="758.0" y="29.50060024009605" width="8" height="8" fill="#ff9800" opacity="0.85" rx="1"/>
<text x="762.0" y="27.50060024009605" text-anchor="middle" font-family="sans-serif" font-size="8" fill="#ff9800">前高</text>
<rect x="770.0" y="26.0" width="8" height="8" fill="#ff9800" opacity="0.85" rx="1"/>
<text x="774.0" y="24.0" text-anchor="middle" font-family="sans-serif" font-size="8" fill="#ff9800">前高</text>
<text x="66.0" y="359" text-anchor="middle" font-family="sans-serif" font-size="8" fill="#666666" transform="rotate(-40,66.0,359)">02/27</text>
<text x="138.0" y="359" text-anchor="middle" font-family="sans-serif" font-size="8" fill="#666666" transform="rotate(-40,138.0,359)">03/09</text>
<text x="210.0" y="359" text-anchor="middle" font-family="sans-serif" font-size="8" fill="#666666" transform="rotate(-40,210.0,359)">03/17</text>
<text x="282.0" y="359" text-anchor="middle" font-family="sans-serif" font-size="8" fill="#666666" transform="rotate(-40,282.0,359)">03/25</text>
<text x="354.0" y="359" text-anchor="middle" font-family="sans-serif" font-size="8" fill="#666666" transform="rotate(-40,354.0,359)">04/02</text>
<text x="426.0" y="359" text-anchor="middle" font-family="sans-serif" font-size="8" fill="#666666" transform="rotate(-40,426.0,359)">04/13</text>
<text x="498.0" y="359" text-anchor="middle" font-family="sans-serif" font-size="8" fill="#666666" transform="rotate(-40,498.0,359)">04/21</text>
<text x="570.0" y="359" text-anchor="middle" font-family="sans-serif" font-size="8" fill="#666666" transform="rotate(-40,570.0,359)">04/29</text>
<text x="642.0" y="359" text-anchor="middle" font-family="sans-serif" font-size="8" fill="#666666" transform="rotate(-40,642.0,359)">05/12</text>
<text x="714.0" y="359" text-anchor="middle" font-family="sans-serif" font-size="8" fill="#666666" transform="rotate(-40,714.0,359)">05/20</text>
<text x="774.0" y="359" text-anchor="middle" font-family="sans-serif" font-size="8" fill="#666666" transform="rotate(-40,774.0,359)">05/27</text>
<text x="400.0" y="396" text-anchor="middle" font-family="sans-serif" font-size="9" fill="#555555">数据截至: 2026-05-27 20:56  |  最新K线: 20260527</text>
<rect x="50" y="373" width="8" height="8" fill="#ffd700" opacity="0.8" rx="1"/>
<text x="61" y="380" font-family="sans-serif" font-size="9" fill="#888888">EMA5</text>
<rect x="150" y="373" width="8" height="8" fill="#ff6b6b" opacity="0.8" rx="1"/>
<text x="161" y="380" font-family="sans-serif" font-size="9" fill="#888888">EMA10</text>
<rect x="250" y="373" width="8" height="8" fill="#4ecdc4" opacity="0.8" rx="1"/>
<text x="261" y="380" font-family="sans-serif" font-size="9" fill="#888888">EMA20</text>
<rect x="350" y="373" width="8" height="8" fill="#2196f3" opacity="0.8" rx="1"/>
<text x="361" y="380" font-family="sans-serif" font-size="9" fill="#888888">突破</text>
<rect x="450" y="373" width="8" height="8" fill="#ff9800" opacity="0.8" rx="1"/>
<text x="461" y="380" font-family="sans-serif" font-size="9" fill="#888888">前高/量</text>
<rect x="550" y="373" width="8" height="8" fill="#4caf50" opacity="0.8" rx="1"/>
<text x="561" y="380" font-family="sans-serif" font-size="9" fill="#888888">前低</text>
</svg>