<svg xmlns="http://www.w3.org/2000/svg" width="800" height="400" viewBox="0 0 800 400">
<rect width="800" height="400" fill="#1a1a2e"/>
<text x="400.0" y="20" text-anchor="middle" font-family="sans-serif" font-size="14" fill="#ffffff" font-weight="bold">锴威特(688693) K线图</text>
<line x1="60" y1="30.0" x2="780" y2="30.0" stroke="#2a2a4e" stroke-width="0.5"/>
<text x="55" y="33.0" text-anchor="end" font-family="sans-serif" font-size="8" fill="#666666">148.50</text>
<line x1="60" y1="84.0" x2="780" y2="84.0" stroke="#2a2a4e" stroke-width="0.5"/>
<text x="55" y="87.0" text-anchor="end" font-family="sans-serif" font-size="8" fill="#666666">126.35</text>
<line x1="60" y1="138.0" x2="780" y2="138.0" stroke="#2a2a4e" stroke-width="0.5"/>
<text x="55" y="141.0" text-anchor="end" font-family="sans-serif" font-size="8" fill="#666666">104.21</text>
<line x1="60" y1="192.0" x2="780" y2="192.0" stroke="#2a2a4e" stroke-width="0.5"/>
<text x="55" y="195.0" text-anchor="end" font-family="sans-serif" font-size="8" fill="#666666">82.06</text>
<line x1="60" y1="245.99999999999997" x2="780" y2="245.99999999999997" stroke="#2a2a4e" stroke-width="0.5"/>
<text x="55" y="248.99999999999997" text-anchor="end" font-family="sans-serif" font-size="8" fill="#666666">59.92</text>
<line x1="60" y1="300.0" x2="780" y2="300.0" stroke="#2a2a4e" stroke-width="0.5"/>
<text x="55" y="303.0" text-anchor="end" font-family="sans-serif" font-size="8" fill="#666666">37.77</text>
<line x1="60" y1="300" x2="780" y2="300" stroke="#2a2a4e" stroke-width="0.5"/>
<line x1="60" y1="345" x2="780" y2="345" stroke="#2a2a4e" stroke-width="0.5"/>
<rect x="61.8" y="339.50874813004657" width="7.199999999999999" height="5.49125186995343" fill="#44aa44" opacity="0.3"/>
<rect x="73.8" y="340.81288386311473" width="7.199999999999999" height="4.187116136885265" fill="#ff4444" opacity="0.3"/>
<rect x="85.8" y="338.9568214972636" width="7.199999999999999" height="6.043178502736396" fill="#ff4444" opacity="0.3"/>
<rect x="97.8" y="341.1289872982541" width="7.199999999999999" height="3.871012701745883" fill="#44aa44" opacity="0.3"/>
<rect x="109.8" y="341.38738931269336" width="7.199999999999999" height="3.612610687306642" fill="#44aa44" opacity="0.3"/>
<rect x="121.8" y="339.8691729463033" width="7.199999999999999" height="5.130827053696692" fill="#ff4444" opacity="0.3"/>
<rect x="133.8" y="340.5252130120885" width="7.199999999999999" height="4.4747869879115" fill="#ff4444" opacity="0.3"/>
<rect x="145.8" y="339.3557139273204" width="7.199999999999999" height="5.64428607267962" fill="#ff4444" opacity="0.3"/>
<rect x="157.8" y="339.98833892383595" width="7.199999999999999" height="5.011661076164046" fill="#ff4444" opacity="0.3"/>
<rect x="169.8" y="337.5527535935627" width="7.199999999999999" height="7.447246406437273" fill="#ff4444" opacity="0.3"/>
<rect x="181.8" y="339.98875705007293" width="7.199999999999999" height="5.011242949927066" fill="#ff4444" opacity="0.3"/>
<rect x="193.8" y="337.9976399096847" width="7.199999999999999" height="7.002360090315278" fill="#44aa44" opacity="0.3"/>
<rect x="205.8" y="336.68430539940346" width="7.199999999999999" height="8.315694600596544" fill="#44aa44" opacity="0.3"/>
<rect x="217.8" y="339.9047136764446" width="7.199999999999999" height="5.095286323555399" fill="#44aa44" opacity="0.3"/>
<rect x="229.8" y="338.60183232208726" width="7.199999999999999" height="6.398167677912738" fill="#ff4444" opacity="0.3"/>
<rect x="241.8" y="334.4481662841586" width="7.199999999999999" height="10.551833715841383" fill="#ff4444" opacity="0.3"/>
<rect x="253.8" y="335.6862380717876" width="7.199999999999999" height="9.313761928212386" fill="#ff4444" opacity="0.3"/>
<rect x="265.8" y="321.537264339407" width="7.199999999999999" height="23.46273566059301" fill="#ff4444" opacity="0.3"/>
<rect x="277.8" y="325.6403371026639" width="7.199999999999999" height="19.35966289733608" fill="#44aa44" opacity="0.3"/>
<rect x="289.8" y="324.63139849288723" width="7.199999999999999" height="20.36860150711277" fill="#ff4444" opacity="0.3"/>
<rect x="301.8" y="333.07294909080775" width="7.199999999999999" height="11.927050909192246" fill="#44aa44" opacity="0.3"/>
<rect x="313.8" y="314.7623649219962" width="7.199999999999999" height="30.23763507800379" fill="#ff4444" opacity="0.3"/>
<rect x="325.8" y="307.2745602705741" width="7.199999999999999" height="37.72543972942589" fill="#44aa44" opacity="0.3"/>
<rect x="337.8" y="318.2198507753919" width="7.199999999999999" height="26.780149224608124" fill="#ff4444" opacity="0.3"/>
<rect x="349.8" y="311.5540823058268" width="7.199999999999999" height="33.445917694173204" fill="#ff4444" opacity="0.3"/>
<rect x="361.8" y="321.08610612973064" width="7.199999999999999" height="23.913893870269362" fill="#44aa44" opacity="0.3"/>
<rect x="373.8" y="326.89429768729735" width="7.199999999999999" height="18.105702312702647" fill="#44aa44" opacity="0.3"/>
<rect x="385.8" y="310.55308809455227" width="7.199999999999999" height="34.446911905447735" fill="#ff4444" opacity="0.3"/>
<rect x="397.8" y="302.1303531772948" width="7.199999999999999" height="42.86964682270519" fill="#ff4444" opacity="0.3"/>
<rect x="409.8" y="306.0770467279299" width="7.199999999999999" height="38.92295327207012" fill="#ff4444" opacity="0.3"/>
<rect x="421.8" y="310.73789989128716" width="7.199999999999999" height="34.26210010871284" fill="#ff4444" opacity="0.3"/>
<rect x="433.8" y="304.9614859277292" width="7.199999999999999" height="40.0385140722708" fill="#ff4444" opacity="0.3"/>
<rect x="445.8" y="317.05495107923025" width="7.199999999999999" height="27.94504892076975" fill="#44aa44" opacity="0.3"/>
<rect x="457.8" y="325.7799912658075" width="7.199999999999999" height="19.220008734192504" fill="#ff4444" opacity="0.3"/>
<rect x="469.8" y="313.5732139040911" width="7.199999999999999" height="31.42678609590888" fill="#ff4444" opacity="0.3"/>
<rect x="481.8" y="303.25009523986506" width="7.199999999999999" height="41.74990476013494" fill="#44aa44" opacity="0.3"/>
<rect x="493.8" y="322.6026499911729" width="7.199999999999999" height="22.397350008827118" fill="#44aa44" opacity="0.3"/>
<rect x="505.8" y="324.4457504436784" width="7.199999999999999" height="20.554249556321622" fill="#44aa44" opacity="0.3"/>
<rect x="517.8" y="320.30588257156927" width="7.199999999999999" height="24.69411742843073" fill="#44aa44" opacity="0.3"/>
<rect x="529.8" y="313.2867974317757" width="7.199999999999999" height="31.71320256822429" fill="#ff4444" opacity="0.3"/>
<rect x="541.8" y="300.0" width="7.199999999999999" height="45.0" fill="#ff4444" opacity="0.3"/>
<rect x="553.8" y="321.2044358547894" width="7.199999999999999" height="23.79556414521062" fill="#44aa44" opacity="0.3"/>
<rect x="565.8" y="324.8496603885786" width="7.199999999999999" height="20.150339611421373" fill="#44aa44" opacity="0.3"/>
<rect x="577.8" y="307.0797134441523" width="7.199999999999999" height="37.920286555847724" fill="#ff4444" opacity="0.3"/>
<rect x="589.8" y="302.2340484840601" width="7.199999999999999" height="42.76595151593989" fill="#44aa44" opacity="0.3"/>
<rect x="601.8" y="316.9198963046932" width="7.199999999999999" height="28.080103695306775" fill="#ff4444" opacity="0.3"/>
<rect x="613.8" y="305.882618027745" width="7.199999999999999" height="39.117381972254975" fill="#ff4444" opacity="0.3"/>
<rect x="625.8" y="308.1049589771703" width="7.199999999999999" height="36.89504102282967" fill="#ff4444" opacity="0.3"/>
<rect x="637.8" y="308.5067782908858" width="7.199999999999999" height="36.49322170911421" fill="#ff4444" opacity="0.3"/>
<rect x="649.8" y="309.21466601005363" width="7.199999999999999" height="35.785333989946366" fill="#ff4444" opacity="0.3"/>
<rect x="661.8" y="316.1463627663232" width="7.199999999999999" height="28.853637233676807" fill="#44aa44" opacity="0.3"/>
<rect x="673.8" y="310.0571903775215" width="7.199999999999999" height="34.94280962247848" fill="#ff4444" opacity="0.3"/>
<rect x="685.8" y="322.5357497932598" width="7.199999999999999" height="22.46425020674019" fill="#44aa44" opacity="0.3"/>
<rect x="697.8" y="328.76917573381155" width="7.199999999999999" height="16.23082426618845" fill="#44aa44" opacity="0.3"/>
<rect x="709.8" y="325.6629159194596" width="7.199999999999999" height="19.33708408054042" fill="#44aa44" opacity="0.3"/>
<rect x="721.8" y="322.1146966726443" width="7.199999999999999" height="22.8853033273557" fill="#44aa44" opacity="0.3"/>
<rect x="733.8" y="330.81841242113677" width="7.199999999999999" height="14.18158757886323" fill="#ff4444" opacity="0.3"/>
<rect x="745.8" y="320.61571411315424" width="7.199999999999999" height="24.38428588684576" fill="#ff4444" opacity="0.3"/>
<rect x="757.8" y="319.9053176365647" width="7.199999999999999" height="25.09468236343531" fill="#44aa44" opacity="0.3"/>
<rect x="769.8" y="327.79870473783484" width="7.199999999999999" height="17.20129526216516" fill="#44aa44" opacity="0.3"/>
<polyline points="66.0,295.34 78.0,295.48 90.0,294.71 102.0,294.69 114.0,294.60 126.0,293.86 138.0,293.26 150.0,292.33 162.0,291.76 174.0,290.66 186.0,289.90 198.0,290.52 210.0,292.82 222.0,295.16 234.0,295.22 246.0,292.88 258.0,291.20 270.0,286.58 282.0,284.28 294.0,281.07 306.0,280.89 318.0,273.34 330.0,272.53 342.0,269.91 354.0,264.95 366.0,261.48 378.0,259.69 390.0,249.44 402.0,233.19 414.0,220.23 426.0,208.73 438.0,192.15 450.0,184.42 462.0,177.26 474.0,166.08 486.0,167.30 498.0,169.93 510.0,172.09 522.0,178.53 534.0,181.88 546.0,173.93 558.0,171.71 570.0,172.61 582.0,167.74 594.0,167.83 606.0,165.05 618.0,153.39 630.0,132.55 642.0,107.31 654.0,88.94 666.0,76.20 678.0,70.93 690.0,72.32 702.0,75.72 714.0,78.17 726.0,88.53 738.0,92.19 750.0,91.51 762.0,102.30 774.0,112.55" fill="none" stroke="#ffd700" stroke-width="0.8" opacity="0.7"/>
<polyline points="66.0,295.34 78.0,295.42 90.0,295.01 102.0,294.95 114.0,294.85 126.0,294.40 138.0,293.98 150.0,293.34 162.0,292.84 174.0,292.05 186.0,291.38 198.0,291.45 210.0,292.53 222.0,293.86 234.0,294.13 246.0,293.05 258.0,292.10 270.0,289.42 282.0,287.65 294.0,285.29 306.0,284.42 318.0,279.66 330.0,278.07 342.0,275.63 354.0,271.89 366.0,268.74 378.0,266.44 390.0,259.62 402.0,248.90 414.0,238.98 426.0,229.30 438.0,216.52 450.0,207.87 462.0,199.70 474.0,189.52 486.0,185.93 498.0,183.97 510.0,182.60 522.0,184.20 534.0,184.99 546.0,180.09 558.0,177.76 570.0,177.15 582.0,173.67 594.0,172.64 606.0,170.25 618.0,162.94 630.0,149.84 642.0,132.93 654.0,118.25 666.0,105.97 678.0,97.68 690.0,93.58 702.0,91.57 714.0,90.02 726.0,93.52 738.0,94.61 750.0,93.80 762.0,99.27 774.0,105.41" fill="none" stroke="#ff6b6b" stroke-width="0.8" opacity="0.7"/>
<polyline points="66.0,295.34 78.0,295.38 90.0,295.17 102.0,295.12 114.0,295.06 126.0,294.80 138.0,294.54 150.0,294.15 162.0,293.82 174.0,293.31 186.0,292.84 198.0,292.73 210.0,293.18 222.0,293.81 234.0,293.96 246.0,293.41 258.0,292.88 270.0,291.40 282.0,290.29 294.0,288.80 306.0,288.01 318.0,285.17 330.0,283.81 342.0,281.99 354.0,279.42 366.0,277.06 378.0,275.06 390.0,270.67 402.0,264.00 414.0,257.37 426.0,250.54 438.0,241.82 450.0,234.88 462.0,228.03 474.0,220.00 486.0,215.22 498.0,211.40 510.0,208.07 522.0,206.48 534.0,204.78 546.0,200.33 558.0,197.18 570.0,195.01 582.0,191.49 594.0,189.25 606.0,186.42 618.0,181.05 630.0,172.46 642.0,161.45 654.0,151.04 666.0,141.49 678.0,133.76 690.0,128.18 702.0,123.83 714.0,119.95 726.0,118.93 738.0,117.08 750.0,114.52 762.0,115.41 774.0,117.09" fill="none" stroke="#4ecdc4" stroke-width="0.8" opacity="0.7"/>
<line x1="66.0" y1="293.5871037659171" x2="66.0" y2="296.9764291519914" stroke="#44aa44" stroke-width="0.5" opacity="0.6"/>
<rect x="63.0" y="293.5871037659171" width="6.0" height="1.7556217827147407" fill="#44aa44" opacity="0.85"/>
<line x1="78.0" y1="294.07477648333787" x2="78.0" y2="296.756976429152" stroke="#ff4444" stroke-width="0.5" opacity="0.6"/>
<rect x="75.0" y="295.7572473584395" width="6.0" height="0.5" fill="#ff4444" opacity="0.85"/>
<line x1="90.0" y1="292.4166892441073" x2="90.0" y2="295.34272554863185" stroke="#ff4444" stroke-width="0.5" opacity="0.6"/>
<rect x="87.0" y="293.1725819561095" width="6.0" height="1.6824708751015578" fill="#ff4444" opacity="0.85"/>
<line x1="102.0" y1="292.6849092386887" x2="102.0" y2="295.0501219181794" stroke="#44aa44" stroke-width="0.5" opacity="0.6"/>
<rect x="99.0" y="292.6849092386887" width="6.0" height="1.975074505554062" fill="#44aa44" opacity="0.85"/>
<line x1="114.0" y1="293.39203467894885" x2="114.0" y2="295.2695746410187" stroke="#44aa44" stroke-width="0.5" opacity="0.6"/>
<rect x="111.0" y="294.09916011920893" width="6.0" height="0.5" fill="#44aa44" opacity="0.85"/>
<line x1="126.0" y1="291.68518016797617" x2="126.0" y2="295.00135464643733" stroke="#ff4444" stroke-width="0.5" opacity="0.6"/>
<rect x="123.0" y="292.3679219723652" width="6.0" height="1.5605526957464804" fill="#ff4444" opacity="0.85"/>
<line x1="138.0" y1="290.5391492820374" x2="138.0" y2="293.07504741262534" stroke="#ff4444" stroke-width="0.5" opacity="0.6"/>
<rect x="135.0" y="292.07531834191275" width="6.0" height="0.9997290707125899" fill="#ff4444" opacity="0.85"/>
<line x1="150.0" y1="289.6857220265511" x2="150.0" y2="292.61175833107563" stroke="#ff4444" stroke-width="0.5" opacity="0.6"/>
<rect x="147.0" y="290.46599837442426" width="6.0" height="0.5" fill="#ff4444" opacity="0.85"/>
<line x1="162.0" y1="289.612571118938" x2="162.0" y2="292.31915470062313" stroke="#ff4444" stroke-width="0.5" opacity="0.6"/>
<rect x="159.0" y="290.6123001896505" width="6.0" height="1.3898672446491673" fill="#ff4444" opacity="0.85"/>
<line x1="174.0" y1="287.24735843944734" x2="174.0" y2="291.4413438092658" stroke="#ff4444" stroke-width="0.5" opacity="0.6"/>
<rect x="171.0" y="288.4665402329992" width="6.0" height="2.121376320780314" fill="#ff4444" opacity="0.85"/>
<line x1="186.0" y1="288.36900568951506" x2="186.0" y2="290.88052018423195" stroke="#ff4444" stroke-width="0.5" opacity="0.6"/>
<rect x="183.0" y="288.36900568951506" width="6.0" height="0.6095908967759556" fill="#ff4444" opacity="0.85"/>
<line x1="198.0" y1="288.4665402329992" x2="198.0" y2="292.5873746952046" stroke="#44aa44" stroke-width="0.5" opacity="0.6"/>
<rect x="195.0" y="290.0514765646167" width="6.0" height="1.7068545109726188" fill="#44aa44" opacity="0.85"/>
<line x1="210.0" y1="290.5391492820374" x2="210.0" y2="297.7323218639935" stroke="#44aa44" stroke-width="0.5" opacity="0.6"/>
<rect x="207.0" y="291.7583310755893" width="6.0" height="5.657003522080743" fill="#44aa44" opacity="0.85"/>
<line x1="222.0" y1="296.51314007044164" x2="222.0" y2="300.0" stroke="#44aa44" stroke-width="0.5" opacity="0.6"/>
<rect x="219.0" y="298.19561094554325" width="6.0" height="1.6580872392305537" fill="#44aa44" opacity="0.85"/>
<line x1="234.0" y1="293.3432674072067" x2="234.0" y2="296.39122189108645" stroke="#ff4444" stroke-width="0.5" opacity="0.6"/>
<rect x="231.0" y="295.34272554863185" width="6.0" height="1.048496342454598" fill="#ff4444" opacity="0.85"/>
<line x1="246.0" y1="286.0525602817665" x2="246.0" y2="296.04985098889193" stroke="#ff4444" stroke-width="0.5" opacity="0.6"/>
<rect x="243.0" y="288.1983202384178" width="6.0" height="6.169059875372511" fill="#ff4444" opacity="0.85"/>
<line x1="258.0" y1="286.3207802763479" x2="258.0" y2="291.0999729070713" stroke="#ff4444" stroke-width="0.5" opacity="0.6"/>
<rect x="255.0" y="287.83256570035223" width="6.0" height="2.4871308588458305" fill="#ff4444" opacity="0.85"/>
<line x1="270.0" y1="268.42319154700624" x2="270.0" y2="287.00352208073696" stroke="#ff4444" stroke-width="0.5" opacity="0.6"/>
<rect x="267.0" y="277.347602275806" width="6.0" height="9.655919804930932" fill="#ff4444" opacity="0.85"/>
<line x1="282.0" y1="274.5922514223788" x2="282.0" y2="280.37117312381474" stroke="#44aa44" stroke-width="0.5" opacity="0.6"/>
<rect x="279.0" y="278.5180167976158" width="6.0" height="1.170414521809846" fill="#44aa44" opacity="0.85"/>
<line x1="294.0" y1="273.6900568951504" x2="294.0" y2="282.6144676239502" stroke="#ff4444" stroke-width="0.5" opacity="0.6"/>
<rect x="291.0" y="274.6410186941208" width="6.0" height="4.559739907884136" fill="#ff4444" opacity="0.85"/>
<line x1="306.0" y1="274.5678677865077" x2="306.0" y2="280.541858574912" stroke="#44aa44" stroke-width="0.5" opacity="0.6"/>
<rect x="303.0" y="274.6410186941208" width="6.0" height="5.900839880791182" fill="#44aa44" opacity="0.85"/>
<line x1="318.0" y1="258.23083175291254" x2="318.0" y2="268.2037388241669" stroke="#ff4444" stroke-width="0.5" opacity="0.6"/>
<rect x="315.0" y="258.23083175291254" width="6.0" height="0.5" fill="#ff4444" opacity="0.85"/>
<line x1="330.0" y1="253.378488214576" x2="330.0" y2="272.0807369276619" stroke="#44aa44" stroke-width="0.5" opacity="0.6"/>
<rect x="327.0" y="261.88837713356816" width="6.0" height="9.021945272283915" fill="#44aa44" opacity="0.85"/>
<line x1="342.0" y1="262.0590625846654" x2="342.0" y2="270.7152533188838" stroke="#ff4444" stroke-width="0.5" opacity="0.6"/>
<rect x="339.0" y="264.6681116228665" width="6.0" height="1.975074505554005" fill="#ff4444" opacity="0.85"/>
<line x1="354.0" y1="243.40558114332163" x2="354.0" y2="260.42535898130586" stroke="#ff4444" stroke-width="0.5" opacity="0.6"/>
<rect x="351.0" y="255.03657545380656" width="6.0" height="3.4380926578163553" fill="#ff4444" opacity="0.85"/>
<line x1="366.0" y1="252.35437550799244" x2="366.0" y2="262.0102953129234" stroke="#44aa44" stroke-width="0.5" opacity="0.6"/>
<rect x="363.0" y="252.57382823083177" width="6.0" height="1.975074505554062" fill="#44aa44" opacity="0.85"/>
<line x1="378.0" y1="247.69710105662426" x2="378.0" y2="258.7672717420753" stroke="#44aa44" stroke-width="0.5" opacity="0.6"/>
<rect x="375.0" y="255.84123543755084" width="6.0" height="0.5" fill="#44aa44" opacity="0.85"/>
<line x1="390.0" y1="228.92170143592523" x2="390.0" y2="255.5486318070984" stroke="#ff4444" stroke-width="0.5" opacity="0.6"/>
<rect x="387.0" y="228.92170143592523" width="6.0" height="24.188566784069366" fill="#ff4444" opacity="0.85"/>
<line x1="402.0" y1="198.10078569493362" x2="402.0" y2="234.2617176916825" stroke="#ff4444" stroke-width="0.5" opacity="0.6"/>
<rect x="399.0" y="200.68545109726364" width="6.0" height="32.64968843131942" fill="#ff4444" opacity="0.85"/>
<line x1="414.0" y1="185.49444594960715" x2="414.0" y2="206.63505824979683" stroke="#ff4444" stroke-width="0.5" opacity="0.6"/>
<rect x="411.0" y="194.32132213492278" width="6.0" height="2.5358981305879524" fill="#ff4444" opacity="0.85"/>
<line x1="426.0" y1="179.20346789487945" x2="426.0" y2="197.51557843402873" stroke="#ff4444" stroke-width="0.5" opacity="0.6"/>
<rect x="423.0" y="185.73828230831754" width="6.0" height="11.777296125711189" fill="#ff4444" opacity="0.85"/>
<line x1="438.0" y1="148.91899214305067" x2="438.0" y2="181.61744784611219" stroke="#ff4444" stroke-width="0.5" opacity="0.6"/>
<rect x="435.0" y="158.98943375778924" width="6.0" height="21.579517745868316" fill="#ff4444" opacity="0.85"/>
<line x1="450.0" y1="155.57572473584395" x2="450.0" y2="172.6442698455703" stroke="#44aa44" stroke-width="0.5" opacity="0.6"/>
<rect x="447.0" y="158.67244649146573" width="6.0" height="10.289894337577891" fill="#44aa44" opacity="0.85"/>
<line x1="462.0" y1="159.13573557301544" x2="462.0" y2="172.3760498509889" stroke="#ff4444" stroke-width="0.5" opacity="0.6"/>
<rect x="459.0" y="162.9395827688973" width="6.0" height="2.389596315361729" fill="#ff4444" opacity="0.85"/>
<line x1="474.0" y1="136.06881603901383" x2="474.0" y2="162.9151991330263" stroke="#ff4444" stroke-width="0.5" opacity="0.6"/>
<rect x="471.0" y="143.72527770251966" width="6.0" height="19.189921430506644" fill="#ff4444" opacity="0.85"/>
<line x1="486.0" y1="146.18802492549446" x2="486.0" y2="173.37577892170145" stroke="#44aa44" stroke-width="0.5" opacity="0.6"/>
<rect x="483.0" y="151.16228664318612" width="6.0" height="18.580330533730717" fill="#44aa44" opacity="0.85"/>
<line x1="498.0" y1="170.20590625846654" x2="498.0" y2="181.27607694391767" stroke="#44aa44" stroke-width="0.5" opacity="0.6"/>
<rect x="495.0" y="170.20590625846654" width="6.0" height="4.974261717691718" fill="#44aa44" opacity="0.85"/>
<line x1="510.0" y1="171.18125169330807" x2="510.0" y2="180.4226496884313" stroke="#44aa44" stroke-width="0.5" opacity="0.6"/>
<rect x="507.0" y="171.86399349769712" width="6.0" height="4.53535627201299" fill="#44aa44" opacity="0.85"/>
<line x1="522.0" y1="175.03386616093204" x2="522.0" y2="194.07748577621243" stroke="#44aa44" stroke-width="0.5" opacity="0.6"/>
<rect x="519.0" y="176.37496613383908" width="6.0" height="15.044703332430231" fill="#44aa44" opacity="0.85"/>
<line x1="534.0" y1="178.30127336765102" x2="534.0" y2="195.3698184773774" stroke="#ff4444" stroke-width="0.5" opacity="0.6"/>
<rect x="531.0" y="188.56678406935794" width="6.0" height="0.8778108913573419" fill="#ff4444" opacity="0.85"/>
<line x1="546.0" y1="156.4535356272013" x2="546.0" y2="188.1034949878082" stroke="#ff4444" stroke-width="0.5" opacity="0.6"/>
<rect x="543.0" y="158.03847195881877" width="6.0" height="30.06502302898943" fill="#ff4444" opacity="0.85"/>
<line x1="558.0" y1="152.33270116499597" x2="558.0" y2="170.20590625846654" stroke="#44aa44" stroke-width="0.5" opacity="0.6"/>
<rect x="555.0" y="153.8444865890003" width="6.0" height="13.435383364941742" fill="#44aa44" opacity="0.85"/>
<line x1="570.0" y1="168.93795719317262" x2="570.0" y2="182.2758060146302" stroke="#44aa44" stroke-width="0.5" opacity="0.6"/>
<rect x="567.0" y="172.6442698455703" width="6.0" height="1.7556217827147123" fill="#44aa44" opacity="0.85"/>
<line x1="582.0" y1="155.57572473584395" x2="582.0" y2="179.56922243294503" stroke="#ff4444" stroke-width="0.5" opacity="0.6"/>
<rect x="579.0" y="158.0140883229477" width="6.0" height="12.435654294229181" fill="#ff4444" opacity="0.85"/>
<line x1="594.0" y1="139.72636141966947" x2="594.0" y2="170.20590625846654" stroke="#44aa44" stroke-width="0.5" opacity="0.6"/>
<rect x="591.0" y="151.2110539149282" width="6.0" height="16.80032511514497" fill="#44aa44" opacity="0.85"/>
<line x1="606.0" y1="153.4055811433216" x2="606.0" y2="174.5949607152533" stroke="#ff4444" stroke-width="0.5" opacity="0.6"/>
<rect x="603.0" y="159.47710647520995" width="6.0" height="8.87564345705772" fill="#ff4444" opacity="0.85"/>
<line x1="618.0" y1="119.00027092928745" x2="618.0" y2="165.32917908425904" stroke="#ff4444" stroke-width="0.5" opacity="0.6"/>
<rect x="615.0" y="130.07044161473857" width="6.0" height="30.60146301815226" fill="#ff4444" opacity="0.85"/>
<line x1="630.0" y1="83.64399891628285" x2="630.0" y2="133.63045245191006" stroke="#ff4444" stroke-width="0.5" opacity="0.6"/>
<rect x="627.0" y="90.88593876998104" width="6.0" height="28.797073963695482" fill="#ff4444" opacity="0.85"/>
<line x1="642.0" y1="50.774857762124114" x2="642.0" y2="89.76429151991331" stroke="#ff4444" stroke-width="0.5" opacity="0.6"/>
<rect x="639.0" y="56.82199945814143" width="6.0" height="32.94229206177189" fill="#ff4444" opacity="0.85"/>
<line x1="654.0" y1="36.900568951503686" x2="654.0" y2="79.98645353562722" stroke="#ff4444" stroke-width="0.5" opacity="0.6"/>
<rect x="651.0" y="52.18910864264426" width="6.0" height="10.728799783256584" fill="#ff4444" opacity="0.85"/>
<line x1="666.0" y1="30.0" x2="666.0" y2="55.602817664589544" stroke="#44aa44" stroke-width="0.5" opacity="0.6"/>
<rect x="663.0" y="45.89813058791658" width="6.0" height="4.827959902465423" fill="#44aa44" opacity="0.85"/>
<line x1="678.0" y1="47.97073963695476" x2="678.0" y2="78.76727174207532" stroke="#ff4444" stroke-width="0.5" opacity="0.6"/>
<rect x="675.0" y="60.382010295312945" width="6.0" height="0.5" fill="#ff4444" opacity="0.85"/>
<line x1="690.0" y1="62.94229206177186" x2="690.0" y2="80.13275535085344" stroke="#44aa44" stroke-width="0.5" opacity="0.6"/>
<rect x="687.0" y="67.79463560010838" width="6.0" height="7.315090761311296" fill="#44aa44" opacity="0.85"/>
<line x1="702.0" y1="67.30696288268766" x2="702.0" y2="93.27553508534274" stroke="#44aa44" stroke-width="0.5" opacity="0.6"/>
<rect x="699.0" y="70.23299918721214" width="6.0" height="12.289352479003" fill="#44aa44" opacity="0.85"/>
<line x1="714.0" y1="66.59983744242751" x2="714.0" y2="91.88566784069357" stroke="#44aa44" stroke-width="0.5" opacity="0.6"/>
<rect x="711.0" y="79.98645353562722" width="6.0" height="3.0723381197507535" fill="#44aa44" opacity="0.85"/>
<line x1="726.0" y1="73.71985911677055" x2="726.0" y2="109.24681658087239" stroke="#44aa44" stroke-width="0.5" opacity="0.6"/>
<rect x="723.0" y="75.74370089406663" width="6.0" height="33.50311568680576" fill="#44aa44" opacity="0.85"/>
<line x1="738.0" y1="95.2749932267678" x2="738.0" y2="110.49038201029533" stroke="#ff4444" stroke-width="0.5" opacity="0.6"/>
<rect x="735.0" y="99.51774586832839" width="6.0" height="7.0468707667298816" fill="#ff4444" opacity="0.85"/>
<line x1="750.0" y1="72.67136277431591" x2="750.0" y2="107.93010024383635" stroke="#ff4444" stroke-width="0.5" opacity="0.6"/>
<rect x="747.0" y="90.15442969384992" width="6.0" height="9.217014359252246" fill="#ff4444" opacity="0.85"/>
<line x1="762.0" y1="91.8369005689515" x2="762.0" y2="150.55269574641017" stroke="#44aa44" stroke-width="0.5" opacity="0.6"/>
<rect x="759.0" y="94.59225142237875" width="6.0" height="29.284746681116246" fill="#44aa44" opacity="0.85"/>
<line x1="774.0" y1="116.07423462476294" x2="774.0" y2="134.6789487943647" stroke="#44aa44" stroke-width="0.5" opacity="0.6"/>
<rect x="771.0" y="116.07423462476294" width="6.0" height="16.971010566242228" fill="#44aa44" opacity="0.85"/>
<rect x="122.0" y="287.68518016797617" width="8" height="8" fill="#ff9800" opacity="0.85" rx="1"/>
<text x="126.0" y="285.68518016797617" text-anchor="middle" font-family="sans-serif" font-size="8" fill="#ff9800">前高</text>
<rect x="134.0" y="286.5391492820374" width="8" height="8" fill="#ff9800" opacity="0.85" rx="1"/>
<text x="138.0" y="284.5391492820374" text-anchor="middle" font-family="sans-serif" font-size="8" fill="#ff9800">前高</text>
<rect x="146.0" y="285.6857220265511" width="8" height="8" fill="#ff9800" opacity="0.85" rx="1"/>
<text x="150.0" y="283.6857220265511" text-anchor="middle" font-family="sans-serif" font-size="8" fill="#ff9800">前高</text>
<rect x="158.0" y="285.612571118938" width="8" height="8" fill="#ff9800" opacity="0.85" rx="1"/>
<text x="162.0" y="283.612571118938" text-anchor="middle" font-family="sans-serif" font-size="8" fill="#ff9800">前高</text>
<rect x="170.0" y="283.24735843944734" width="8" height="8" fill="#ff9800" opacity="0.85" rx="1"/>
<text x="174.0" y="281.24735843944734" text-anchor="middle" font-family="sans-serif" font-size="8" fill="#ff9800">前高</text>
<rect x="206.0" y="293.7323218639935" width="8" height="8" fill="#4caf50" opacity="0.85" rx="1"/>
<text x="210.0" y="291.7323218639935" text-anchor="middle" font-family="sans-serif" font-size="8" fill="#4caf50">前低</text>
<rect x="218.0" y="296.0" width="8" height="8" fill="#4caf50" opacity="0.85" rx="1"/>
<text x="222.0" y="294.0" text-anchor="middle" font-family="sans-serif" font-size="8" fill="#4caf50">前低</text>
<rect x="242.0" y="282.0525602817665" width="8" height="8" fill="#ff9800" opacity="0.85" rx="1"/>
<text x="246.0" y="280.0525602817665" text-anchor="middle" font-family="sans-serif" font-size="8" fill="#ff9800">前高</text>
<rect x="266.0" y="264.42319154700624" width="8" height="8" fill="#ff9800" opacity="0.85" rx="1"/>
<text x="270.0" y="262.42319154700624" text-anchor="middle" font-family="sans-serif" font-size="8" fill="#ff9800">前高</text>
<rect x="266.0" y="255.13302628014088" width="8" height="8" fill="#ff9800" opacity="0.85" rx="1"/>
<text x="270.0" y="253.13302628014088" text-anchor="middle" font-family="sans-serif" font-size="8" fill="#ff9800">量</text>
<rect x="314.0" y="254.23083175291254" width="8" height="8" fill="#ff9800" opacity="0.85" rx="1"/>
<text x="318.0" y="252.23083175291254" text-anchor="middle" font-family="sans-serif" font-size="8" fill="#ff9800">前高</text>
<rect x="314.0" y="254.23083175291254" width="8" height="8" fill="#2196f3" opacity="0.85" rx="1"/>
<text x="318.0" y="252.23083175291254" text-anchor="middle" font-family="sans-serif" font-size="8" fill="#2196f3">突</text>
<rect x="326.0" y="249.378488214576" width="8" height="8" fill="#ff9800" opacity="0.85" rx="1"/>
<text x="330.0" y="247.378488214576" text-anchor="middle" font-family="sans-serif" font-size="8" fill="#ff9800">前高</text>
<rect x="350.0" y="239.40558114332163" width="8" height="8" fill="#ff9800" opacity="0.85" rx="1"/>
<text x="354.0" y="237.40558114332163" text-anchor="middle" font-family="sans-serif" font-size="8" fill="#ff9800">前高</text>
<rect x="386.0" y="224.92170143592523" width="8" height="8" fill="#ff9800" opacity="0.85" rx="1"/>
<text x="390.0" y="222.92170143592523" text-anchor="middle" font-family="sans-serif" font-size="8" fill="#ff9800">前高</text>
<rect x="386.0" y="224.92170143592523" width="8" height="8" fill="#2196f3" opacity="0.85" rx="1"/>
<text x="390.0" y="222.92170143592523" text-anchor="middle" font-family="sans-serif" font-size="8" fill="#2196f3">突</text>
<rect x="398.0" y="194.10078569493362" width="8" height="8" fill="#ff9800" opacity="0.85" rx="1"/>
<text x="402.0" y="192.10078569493362" text-anchor="middle" font-family="sans-serif" font-size="8" fill="#ff9800">前高</text>
<rect x="398.0" y="194.10078569493362" width="8" height="8" fill="#2196f3" opacity="0.85" rx="1"/>
<text x="402.0" y="192.10078569493362" text-anchor="middle" font-family="sans-serif" font-size="8" fill="#2196f3">突</text>
<rect x="410.0" y="181.49444594960715" width="8" height="8" fill="#ff9800" opacity="0.85" rx="1"/>
<text x="414.0" y="179.49444594960715" text-anchor="middle" font-family="sans-serif" font-size="8" fill="#ff9800">前高</text>
<rect x="422.0" y="175.20346789487945" width="8" height="8" fill="#ff9800" opacity="0.85" rx="1"/>
<text x="426.0" y="173.20346789487945" text-anchor="middle" font-family="sans-serif" font-size="8" fill="#ff9800">前高</text>
<rect x="434.0" y="144.91899214305067" width="8" height="8" fill="#ff9800" opacity="0.85" rx="1"/>
<text x="438.0" y="142.91899214305067" text-anchor="middle" font-family="sans-serif" font-size="8" fill="#ff9800">前高</text>
<rect x="470.0" y="132.06881603901383" width="8" height="8" fill="#ff9800" opacity="0.85" rx="1"/>
<text x="474.0" y="130.06881603901383" text-anchor="middle" font-family="sans-serif" font-size="8" fill="#ff9800">前高</text>
<rect x="470.0" y="132.06881603901383" width="8" height="8" fill="#2196f3" opacity="0.85" rx="1"/>
<text x="474.0" y="130.06881603901383" text-anchor="middle" font-family="sans-serif" font-size="8" fill="#2196f3">突</text>
<rect x="614.0" y="115.00027092928745" width="8" height="8" fill="#ff9800" opacity="0.85" rx="1"/>
<text x="618.0" y="113.00027092928745" text-anchor="middle" font-family="sans-serif" font-size="8" fill="#ff9800">前高</text>
<rect x="614.0" y="115.00027092928745" width="8" height="8" fill="#2196f3" opacity="0.85" rx="1"/>
<text x="618.0" y="113.00027092928745" text-anchor="middle" font-family="sans-serif" font-size="8" fill="#2196f3">突</text>
<rect x="626.0" y="79.64399891628285" width="8" height="8" fill="#ff9800" opacity="0.85" rx="1"/>
<text x="630.0" y="77.64399891628285" text-anchor="middle" font-family="sans-serif" font-size="8" fill="#ff9800">前高</text>
<rect x="626.0" y="79.64399891628285" width="8" height="8" fill="#2196f3" opacity="0.85" rx="1"/>
<text x="630.0" y="77.64399891628285" text-anchor="middle" font-family="sans-serif" font-size="8" fill="#2196f3">突</text>
<rect x="638.0" y="46.774857762124114" width="8" height="8" fill="#ff9800" opacity="0.85" rx="1"/>
<text x="642.0" y="44.774857762124114" text-anchor="middle" font-family="sans-serif" font-size="8" fill="#ff9800">前高</text>
<rect x="638.0" y="46.774857762124114" width="8" height="8" fill="#2196f3" opacity="0.85" rx="1"/>
<text x="642.0" y="44.774857762124114" text-anchor="middle" font-family="sans-serif" font-size="8" fill="#2196f3">突</text>
<rect x="650.0" y="32.900568951503686" width="8" height="8" fill="#ff9800" opacity="0.85" rx="1"/>
<text x="654.0" y="30.900568951503686" text-anchor="middle" font-family="sans-serif" font-size="8" fill="#ff9800">前高</text>
<rect x="662.0" y="26.0" width="8" height="8" fill="#ff9800" opacity="0.85" rx="1"/>
<text x="666.0" y="24.0" text-anchor="middle" font-family="sans-serif" font-size="8" fill="#ff9800">前高</text>
<rect x="758.0" y="146.55269574641017" width="8" height="8" fill="#4caf50" opacity="0.85" rx="1"/>
<text x="762.0" y="144.55269574641017" text-anchor="middle" font-family="sans-serif" font-size="8" fill="#4caf50">前低</text>
<line x1="60" y1="136.06881603901383" x2="780" y2="136.06881603901383" stroke="#4caf50" stroke-width="1.5" stroke-dasharray="6,3" opacity="0.7"/>
<text x="64" y="132.06881603901383" font-family="sans-serif" font-size="9" fill="#4caf50" font-weight="bold">支撑 105.00</text>
<line x1="60" y1="30.0" x2="780" y2="30.0" stroke="#f44336" stroke-width="1.5" stroke-dasharray="6,3" opacity="0.7"/>
<text x="64" y="26.0" font-family="sans-serif" font-size="9" fill="#f44336" font-weight="bold">压力 148.50</text>
<text x="66.0" y="359" text-anchor="middle" font-family="sans-serif" font-size="8" fill="#666666" transform="rotate(-40,66.0,359)">02/05</text>
<text x="138.0" y="359" text-anchor="middle" font-family="sans-serif" font-size="8" fill="#666666" transform="rotate(-40,138.0,359)">02/13</text>
<text x="210.0" y="359" text-anchor="middle" font-family="sans-serif" font-size="8" fill="#666666" transform="rotate(-40,210.0,359)">03/03</text>
<text x="282.0" y="359" text-anchor="middle" font-family="sans-serif" font-size="8" fill="#666666" transform="rotate(-40,282.0,359)">03/11</text>
<text x="354.0" y="359" text-anchor="middle" font-family="sans-serif" font-size="8" fill="#666666" transform="rotate(-40,354.0,359)">04/02</text>
<text x="426.0" y="359" text-anchor="middle" font-family="sans-serif" font-size="8" fill="#666666" transform="rotate(-40,426.0,359)">04/13</text>
<text x="498.0" y="359" text-anchor="middle" font-family="sans-serif" font-size="8" fill="#666666" transform="rotate(-40,498.0,359)">04/21</text>
<text x="570.0" y="359" text-anchor="middle" font-family="sans-serif" font-size="8" fill="#666666" transform="rotate(-40,570.0,359)">04/29</text>
<text x="642.0" y="359" text-anchor="middle" font-family="sans-serif" font-size="8" fill="#666666" transform="rotate(-40,642.0,359)">05/12</text>
<text x="714.0" y="359" text-anchor="middle" font-family="sans-serif" font-size="8" fill="#666666" transform="rotate(-40,714.0,359)">05/20</text>
<text x="774.0" y="359" text-anchor="middle" font-family="sans-serif" font-size="8" fill="#666666" transform="rotate(-40,774.0,359)">05/27</text>
<text x="400.0" y="396" text-anchor="middle" font-family="sans-serif" font-size="9" fill="#555555">数据截至: 2026-05-27 21:31  |  最新K线: 20260527</text>
<rect x="50" y="373" width="8" height="8" fill="#ffd700" opacity="0.8" rx="1"/>
<text x="61" y="380" font-family="sans-serif" font-size="9" fill="#888888">EMA5</text>
<rect x="150" y="373" width="8" height="8" fill="#ff6b6b" opacity="0.8" rx="1"/>
<text x="161" y="380" font-family="sans-serif" font-size="9" fill="#888888">EMA10</text>
<rect x="250" y="373" width="8" height="8" fill="#4ecdc4" opacity="0.8" rx="1"/>
<text x="261" y="380" font-family="sans-serif" font-size="9" fill="#888888">EMA20</text>
<rect x="350" y="373" width="8" height="8" fill="#2196f3" opacity="0.8" rx="1"/>
<text x="361" y="380" font-family="sans-serif" font-size="9" fill="#888888">突破</text>
<rect x="450" y="373" width="8" height="8" fill="#ff9800" opacity="0.8" rx="1"/>
<text x="461" y="380" font-family="sans-serif" font-size="9" fill="#888888">前高/量</text>
<rect x="550" y="373" width="8" height="8" fill="#4caf50" opacity="0.8" rx="1"/>
<text x="561" y="380" font-family="sans-serif" font-size="9" fill="#888888">前低</text>
</svg>