<svg xmlns="http://www.w3.org/2000/svg" width="800" height="400" viewBox="0 0 800 400">
<rect width="800" height="400" fill="#1a1a2e"/>
<text x="400.0" y="20" text-anchor="middle" font-family="sans-serif" font-size="14" fill="#ffffff" font-weight="bold">华丰科技(688629) K线图</text>
<line x1="60" y1="30.0" x2="780" y2="30.0" stroke="#2a2a4e" stroke-width="0.5"/>
<text x="55" y="33.0" text-anchor="end" font-family="sans-serif" font-size="8" fill="#666666">159.80</text>
<line x1="60" y1="84.0" x2="780" y2="84.0" stroke="#2a2a4e" stroke-width="0.5"/>
<text x="55" y="87.0" text-anchor="end" font-family="sans-serif" font-size="8" fill="#666666">147.68</text>
<line x1="60" y1="138.0" x2="780" y2="138.0" stroke="#2a2a4e" stroke-width="0.5"/>
<text x="55" y="141.0" text-anchor="end" font-family="sans-serif" font-size="8" fill="#666666">135.56</text>
<line x1="60" y1="191.99999999999997" x2="780" y2="191.99999999999997" stroke="#2a2a4e" stroke-width="0.5"/>
<text x="55" y="194.99999999999997" text-anchor="end" font-family="sans-serif" font-size="8" fill="#666666">123.44</text>
<line x1="60" y1="245.99999999999997" x2="780" y2="245.99999999999997" stroke="#2a2a4e" stroke-width="0.5"/>
<text x="55" y="248.99999999999997" text-anchor="end" font-family="sans-serif" font-size="8" fill="#666666">111.32</text>
<line x1="60" y1="300.0" x2="780" y2="300.0" stroke="#2a2a4e" stroke-width="0.5"/>
<text x="55" y="303.0" text-anchor="end" font-family="sans-serif" font-size="8" fill="#666666">99.20</text>
<line x1="60" y1="300" x2="780" y2="300" stroke="#2a2a4e" stroke-width="0.5"/>
<line x1="60" y1="345" x2="780" y2="345" stroke="#2a2a4e" stroke-width="0.5"/>
<rect x="61.8" y="308.41628369219904" width="7.199999999999999" height="36.583716307800955" fill="#ff4444" opacity="0.3"/>
<rect x="73.8" y="309.53515490860764" width="7.199999999999999" height="35.46484509139236" fill="#ff4444" opacity="0.3"/>
<rect x="85.8" y="312.25451549768593" width="7.199999999999999" height="32.74548450231407" fill="#44aa44" opacity="0.3"/>
<rect x="97.8" y="312.327433293984" width="7.199999999999999" height="32.67256670601603" fill="#44aa44" opacity="0.3"/>
<rect x="109.8" y="319.06985790722865" width="7.199999999999999" height="25.930142092771348" fill="#ff4444" opacity="0.3"/>
<rect x="121.8" y="317.9877268693269" width="7.199999999999999" height="27.012273130673123" fill="#44aa44" opacity="0.3"/>
<rect x="133.8" y="324.6198792411028" width="7.199999999999999" height="20.380120758897192" fill="#ff4444" opacity="0.3"/>
<rect x="145.8" y="318.8859646685673" width="7.199999999999999" height="26.114035331432717" fill="#ff4444" opacity="0.3"/>
<rect x="157.8" y="323.224092682981" width="7.199999999999999" height="21.775907317019005" fill="#ff4444" opacity="0.3"/>
<rect x="169.8" y="317.6259662031998" width="7.199999999999999" height="27.374033796800177" fill="#ff4444" opacity="0.3"/>
<rect x="181.8" y="318.5557953026318" width="7.199999999999999" height="26.444204697368207" fill="#44aa44" opacity="0.3"/>
<rect x="193.8" y="329.8442689230499" width="7.199999999999999" height="15.155731076950076" fill="#44aa44" opacity="0.3"/>
<rect x="205.8" y="328.7756072846373" width="7.199999999999999" height="16.224392715362683" fill="#ff4444" opacity="0.3"/>
<rect x="217.8" y="331.2523149614746" width="7.199999999999999" height="13.74768503852539" fill="#44aa44" opacity="0.3"/>
<rect x="229.8" y="324.5048169605989" width="7.199999999999999" height="20.495183039401127" fill="#ff4444" opacity="0.3"/>
<rect x="241.8" y="329.0196717692624" width="7.199999999999999" height="15.980328230737598" fill="#ff4444" opacity="0.3"/>
<rect x="253.8" y="319.4659389134898" width="7.199999999999999" height="25.534061086510178" fill="#ff4444" opacity="0.3"/>
<rect x="265.8" y="319.89326789244694" width="7.199999999999999" height="25.106732107553057" fill="#ff4444" opacity="0.3"/>
<rect x="277.8" y="323.2823177170569" width="7.199999999999999" height="21.717682282943088" fill="#44aa44" opacity="0.3"/>
<rect x="289.8" y="321.33690210085405" width="7.199999999999999" height="23.663097899145953" fill="#44aa44" opacity="0.3"/>
<rect x="301.8" y="326.30246421586446" width="7.199999999999999" height="18.69753578413554" fill="#44aa44" opacity="0.3"/>
<rect x="313.8" y="326.34753835909174" width="7.199999999999999" height="18.652461640908257" fill="#ff4444" opacity="0.3"/>
<rect x="325.8" y="328.48754207226824" width="7.199999999999999" height="16.51245792773176" fill="#ff4444" opacity="0.3"/>
<rect x="337.8" y="331.95013223279176" width="7.199999999999999" height="13.04986776720824" fill="#44aa44" opacity="0.3"/>
<rect x="349.8" y="322.03926535913126" width="7.199999999999999" height="22.960734640868736" fill="#ff4444" opacity="0.3"/>
<rect x="361.8" y="330.40020197032754" width="7.199999999999999" height="14.599798029672456" fill="#44aa44" opacity="0.3"/>
<rect x="373.8" y="320.1667189356351" width="7.199999999999999" height="24.833281064364883" fill="#ff4444" opacity="0.3"/>
<rect x="385.8" y="322.16517761579183" width="7.199999999999999" height="22.834822384208167" fill="#44aa44" opacity="0.3"/>
<rect x="397.8" y="319.62437214328946" width="7.199999999999999" height="25.375627856710537" fill="#ff4444" opacity="0.3"/>
<rect x="409.8" y="326.0101425698449" width="7.199999999999999" height="18.989857430155098" fill="#ff4444" opacity="0.3"/>
<rect x="421.8" y="326.7234550796992" width="7.199999999999999" height="18.276544920300807" fill="#44aa44" opacity="0.3"/>
<rect x="433.8" y="329.55632470259945" width="7.199999999999999" height="15.443675297400546" fill="#ff4444" opacity="0.3"/>
<rect x="445.8" y="318.55812103617893" width="7.199999999999999" height="26.44187896382107" fill="#ff4444" opacity="0.3"/>
<rect x="457.8" y="314.5253569761424" width="7.199999999999999" height="30.474643023857595" fill="#ff4444" opacity="0.3"/>
<rect x="469.8" y="318.0599590447526" width="7.199999999999999" height="26.94004095524741" fill="#44aa44" opacity="0.3"/>
<rect x="481.8" y="322.7008543408281" width="7.199999999999999" height="22.299145659171927" fill="#ff4444" opacity="0.3"/>
<rect x="493.8" y="316.6365366914715" width="7.199999999999999" height="28.36346330852848" fill="#44aa44" opacity="0.3"/>
<rect x="505.8" y="326.88460494001384" width="7.199999999999999" height="18.115395059986156" fill="#ff4444" opacity="0.3"/>
<rect x="517.8" y="308.1481656005015" width="7.199999999999999" height="36.8518343994985" fill="#44aa44" opacity="0.3"/>
<rect x="529.8" y="318.25926686067197" width="7.199999999999999" height="26.74073313932803" fill="#44aa44" opacity="0.3"/>
<rect x="541.8" y="300.0" width="7.199999999999999" height="45.0" fill="#ff4444" opacity="0.3"/>
<rect x="553.8" y="309.93116973125524" width="7.199999999999999" height="35.06883026874476" fill="#44aa44" opacity="0.3"/>
<rect x="565.8" y="320.49349122077814" width="7.199999999999999" height="24.50650877922186" fill="#44aa44" opacity="0.3"/>
<rect x="577.8" y="324.64453470541156" width="7.199999999999999" height="20.35546529458844" fill="#ff4444" opacity="0.3"/>
<rect x="589.8" y="310.0728843597849" width="7.199999999999999" height="34.927115640215106" fill="#ff4444" opacity="0.3"/>
<rect x="601.8" y="311.91500286692246" width="7.199999999999999" height="33.084997133077536" fill="#44aa44" opacity="0.3"/>
<rect x="613.8" y="320.3910079633365" width="7.199999999999999" height="24.608992036663494" fill="#ff4444" opacity="0.3"/>
<rect x="625.8" y="319.7964795281329" width="7.199999999999999" height="25.20352047186708" fill="#44aa44" opacity="0.3"/>
<rect x="637.8" y="318.62153734744766" width="7.199999999999999" height="26.378462652552344" fill="#ff4444" opacity="0.3"/>
<rect x="649.8" y="322.2726256783734" width="7.199999999999999" height="22.7273743216266" fill="#44aa44" opacity="0.3"/>
<rect x="661.8" y="320.0597786254642" width="7.199999999999999" height="24.94022137453578" fill="#ff4444" opacity="0.3"/>
<rect x="673.8" y="325.07391020579587" width="7.199999999999999" height="19.92608979420413" fill="#44aa44" opacity="0.3"/>
<rect x="685.8" y="324.4625132220727" width="7.199999999999999" height="20.537486777927313" fill="#44aa44" opacity="0.3"/>
<rect x="697.8" y="322.69259896914883" width="7.199999999999999" height="22.307401030851167" fill="#ff4444" opacity="0.3"/>
<rect x="709.8" y="308.6957719218915" width="7.199999999999999" height="36.30422807810851" fill="#ff4444" opacity="0.3"/>
<rect x="721.8" y="320.0402358453071" width="7.199999999999999" height="24.95976415469289" fill="#ff4444" opacity="0.3"/>
<rect x="733.8" y="321.2175802843427" width="7.199999999999999" height="23.782419715657284" fill="#44aa44" opacity="0.3"/>
<rect x="745.8" y="322.94264169549734" width="7.199999999999999" height="22.057358304502657" fill="#ff4444" opacity="0.3"/>
<rect x="757.8" y="314.2036994433889" width="7.199999999999999" height="30.796300556611072" fill="#ff4444" opacity="0.3"/>
<rect x="769.8" y="321.3225019942984" width="7.199999999999999" height="23.67749800570158" fill="#44aa44" opacity="0.3"/>
<polyline points="66.0,182.33 78.0,178.78 90.0,175.70 102.0,190.79 114.0,199.72 126.0,209.46 138.0,212.67 150.0,222.83 162.0,223.44 174.0,222.18 186.0,232.56 198.0,244.12 210.0,251.10 222.0,263.10 234.0,259.34 246.0,260.85 258.0,257.95 270.0,257.41 282.0,255.72 294.0,254.60 306.0,263.94 318.0,261.27 330.0,261.29 342.0,268.13 354.0,260.71 366.0,261.91 378.0,250.27 390.0,240.79 402.0,219.87 414.0,205.57 426.0,197.89 438.0,194.30 450.0,187.51 462.0,176.32 474.0,169.01 486.0,157.43 498.0,146.59 510.0,139.36 522.0,141.22 534.0,150.26 546.0,137.10 558.0,136.72 570.0,146.81 582.0,156.35 594.0,149.28 606.0,139.20 618.0,129.17 630.0,130.66 642.0,127.24 654.0,131.48 666.0,131.81 678.0,140.35 690.0,153.47 702.0,153.90 714.0,131.25 726.0,117.48 738.0,126.54 750.0,122.24 762.0,100.12 774.0,95.98" fill="none" stroke="#ffd700" stroke-width="0.8" opacity="0.7"/>
<polyline points="66.0,182.33 78.0,180.40 90.0,178.42 102.0,186.16 114.0,191.87 126.0,198.61 138.0,202.33 150.0,209.75 162.0,212.46 174.0,213.77 186.0,220.96 198.0,229.38 210.0,235.87 222.0,245.18 234.0,246.39 246.0,249.57 258.0,250.04 270.0,251.18 282.0,251.39 294.0,251.57 306.0,257.21 318.0,256.98 330.0,257.77 342.0,262.14 354.0,259.19 366.0,260.12 378.0,254.09 390.0,248.23 402.0,235.46 414.0,224.83 426.0,217.14 438.0,211.68 450.0,204.81 462.0,195.57 474.0,188.08 486.0,178.30 498.0,168.59 510.0,160.64 522.0,157.79 534.0,159.71 546.0,150.81 558.0,148.11 570.0,151.55 582.0,155.89 594.0,152.12 606.0,146.10 618.0,139.38 630.0,138.33 642.0,135.07 654.0,135.96 666.0,135.33 678.0,139.35 690.0,146.68 702.0,148.15 714.0,136.84 726.0,128.31 738.0,131.29 750.0,128.08 762.0,114.95 774.0,110.00" fill="none" stroke="#ff6b6b" stroke-width="0.8" opacity="0.7"/>
<polyline points="66.0,182.33 78.0,181.32 90.0,180.20 102.0,184.08 114.0,187.27 126.0,191.24 138.0,193.89 150.0,198.58 162.0,201.06 174.0,202.84 186.0,207.64 198.0,213.32 210.0,218.25 222.0,224.80 234.0,227.38 246.0,230.85 258.0,232.88 270.0,235.12 282.0,236.75 294.0,238.24 306.0,242.47 318.0,243.75 330.0,245.43 342.0,248.89 354.0,248.60 366.0,250.10 378.0,247.90 390.0,245.42 402.0,239.00 414.0,233.09 426.0,228.27 438.0,224.36 450.0,219.55 462.0,213.30 474.0,207.69 486.0,200.70 498.0,193.48 510.0,186.95 522.0,182.95 534.0,181.56 546.0,174.82 558.0,171.12 570.0,170.72 582.0,171.17 594.0,167.74 606.0,163.10 618.0,157.96 630.0,155.64 642.0,152.29 654.0,151.11 666.0,149.34 678.0,150.11 690.0,152.93 702.0,153.10 714.0,146.71 726.0,141.30 738.0,141.62 750.0,138.96 762.0,131.04 774.0,126.92" fill="none" stroke="#4ecdc4" stroke-width="0.8" opacity="0.7"/>
<line x1="66.0" y1="182.33168316831686" x2="66.0" y2="249.34158415841588" stroke="#ff4444" stroke-width="0.5" opacity="0.6"/>
<rect x="63.0" y="182.33168316831686" width="6.0" height="63.13366336633666" fill="#ff4444" opacity="0.85"/>
<line x1="78.0" y1="152.5247524752475" x2="78.0" y2="189.50495049504954" stroke="#ff4444" stroke-width="0.5" opacity="0.6"/>
<rect x="75.0" y="171.6831683168317" width="6.0" height="8.910891089108901" fill="#ff4444" opacity="0.85"/>
<line x1="90.0" y1="129.98019801980195" x2="90.0" y2="172.61881188118812" stroke="#44aa44" stroke-width="0.5" opacity="0.6"/>
<rect x="87.0" y="164.9108910891089" width="6.0" height="4.6336633663367195" fill="#44aa44" opacity="0.85"/>
<line x1="102.0" y1="166.91584158415847" x2="102.0" y2="226.66336633663371" stroke="#44aa44" stroke-width="0.5" opacity="0.6"/>
<rect x="99.0" y="176.13861386138618" width="6.0" height="44.8217821782178" fill="#44aa44" opacity="0.85"/>
<line x1="114.0" y1="191.15346534653472" x2="114.0" y2="232.00990099009906" stroke="#ff4444" stroke-width="0.5" opacity="0.6"/>
<rect x="111.0" y="217.5742574257426" width="6.0" height="14.435643564356468" fill="#ff4444" opacity="0.85"/>
<line x1="126.0" y1="200.91089108910896" x2="126.0" y2="236.1534653465347" stroke="#44aa44" stroke-width="0.5" opacity="0.6"/>
<rect x="123.0" y="201.31188118811886" width="6.0" height="27.62376237623755" fill="#44aa44" opacity="0.85"/>
<line x1="138.0" y1="217.12871287128718" x2="138.0" y2="239.76237623762378" stroke="#ff4444" stroke-width="0.5" opacity="0.6"/>
<rect x="135.0" y="219.08910891089113" width="6.0" height="10.960396039603921" fill="#ff4444" opacity="0.85"/>
<line x1="150.0" y1="232.72277227722776" x2="150.0" y2="275.0495049504951" stroke="#ff4444" stroke-width="0.5" opacity="0.6"/>
<rect x="147.0" y="243.1485148514852" width="6.0" height="8.732673267326703" fill="#ff4444" opacity="0.85"/>
<line x1="162.0" y1="220.6930693069307" x2="162.0" y2="236.8217821782179" stroke="#ff4444" stroke-width="0.5" opacity="0.6"/>
<rect x="159.0" y="224.65841584158417" width="6.0" height="4.945544554455438" fill="#ff4444" opacity="0.85"/>
<line x1="174.0" y1="188.6138613861386" x2="174.0" y2="228.13366336633666" stroke="#ff4444" stroke-width="0.5" opacity="0.6"/>
<rect x="171.0" y="219.6683168316832" width="6.0" height="5.480198019801975" fill="#ff4444" opacity="0.85"/>
<line x1="186.0" y1="210.4455445544555" x2="186.0" y2="259.81188118811883" stroke="#44aa44" stroke-width="0.5" opacity="0.6"/>
<rect x="183.0" y="221.67326732673268" width="6.0" height="31.633663366336634" fill="#44aa44" opacity="0.85"/>
<line x1="198.0" y1="253.39603960396045" x2="198.0" y2="271.3960396039604" stroke="#44aa44" stroke-width="0.5" opacity="0.6"/>
<rect x="195.0" y="253.39603960396045" width="6.0" height="13.856435643564339" fill="#44aa44" opacity="0.85"/>
<line x1="210.0" y1="263.509900990099" x2="210.0" y2="285.4306930693069" stroke="#ff4444" stroke-width="0.5" opacity="0.6"/>
<rect x="207.0" y="265.0693069306931" width="6.0" height="4.633663366336691" fill="#ff4444" opacity="0.85"/>
<line x1="222.0" y1="256.55940594059405" x2="222.0" y2="287.56930693069313" stroke="#44aa44" stroke-width="0.5" opacity="0.6"/>
<rect x="219.0" y="258.5643564356436" width="6.0" height="28.514851485148483" fill="#44aa44" opacity="0.85"/>
<line x1="234.0" y1="247.73762376237622" x2="234.0" y2="283.5148514851485" stroke="#ff4444" stroke-width="0.5" opacity="0.6"/>
<rect x="231.0" y="251.83663366336634" width="6.0" height="26.108910891089067" fill="#ff4444" opacity="0.85"/>
<line x1="246.0" y1="253.30693069306932" x2="246.0" y2="271.9306930693069" stroke="#ff4444" stroke-width="0.5" opacity="0.6"/>
<rect x="243.0" y="263.86633663366337" width="6.0" height="8.06435643564356" fill="#ff4444" opacity="0.85"/>
<line x1="258.0" y1="234.6831683168317" x2="258.0" y2="274.960396039604" stroke="#ff4444" stroke-width="0.5" opacity="0.6"/>
<rect x="255.0" y="252.14851485148517" width="6.0" height="4.188118811881168" fill="#ff4444" opacity="0.85"/>
<line x1="270.0" y1="238.51485148514854" x2="270.0" y2="278.61386138613864" stroke="#ff4444" stroke-width="0.5" opacity="0.6"/>
<rect x="267.0" y="256.33663366336634" width="6.0" height="22.277227722772295" fill="#ff4444" opacity="0.85"/>
<line x1="282.0" y1="247.470297029703" x2="282.0" y2="285.4306930693069" stroke="#44aa44" stroke-width="0.5" opacity="0.6"/>
<rect x="279.0" y="248.71782178217825" width="6.0" height="3.6089108910890957" fill="#44aa44" opacity="0.85"/>
<line x1="294.0" y1="227.24257425742576" x2="294.0" y2="253.17326732673274" stroke="#44aa44" stroke-width="0.5" opacity="0.6"/>
<rect x="291.0" y="247.42574257425744" width="6.0" height="4.945544554455466" fill="#44aa44" opacity="0.85"/>
<line x1="306.0" y1="257.6287128712872" x2="306.0" y2="284.9851485148515" stroke="#44aa44" stroke-width="0.5" opacity="0.6"/>
<rect x="303.0" y="264.9356435643565" width="6.0" height="17.688118811881168" fill="#44aa44" opacity="0.85"/>
<line x1="318.0" y1="252.7722772277228" x2="318.0" y2="300.0" stroke="#ff4444" stroke-width="0.5" opacity="0.6"/>
<rect x="315.0" y="255.93564356435644" width="6.0" height="40.5" fill="#ff4444" opacity="0.85"/>
<line x1="330.0" y1="251.92574257425747" x2="330.0" y2="280.3960396039604" stroke="#ff4444" stroke-width="0.5" opacity="0.6"/>
<rect x="327.0" y="261.3267326732674" width="6.0" height="12.787128712871265" fill="#ff4444" opacity="0.85"/>
<line x1="342.0" y1="256.33663366336634" x2="342.0" y2="282.7574257425743" stroke="#44aa44" stroke-width="0.5" opacity="0.6"/>
<rect x="339.0" y="260.97029702970303" width="6.0" height="20.851485148514826" fill="#44aa44" opacity="0.85"/>
<line x1="354.0" y1="245.19801980198022" x2="354.0" y2="272.68811881188117" stroke="#ff4444" stroke-width="0.5" opacity="0.6"/>
<rect x="351.0" y="245.8663366336634" width="6.0" height="19.381188118811878" fill="#ff4444" opacity="0.85"/>
<line x1="366.0" y1="244.7524752475248" x2="366.0" y2="266.450495049505" stroke="#44aa44" stroke-width="0.5" opacity="0.6"/>
<rect x="363.0" y="248.94059405940598" width="6.0" height="15.37128712871285" fill="#44aa44" opacity="0.85"/>
<line x1="378.0" y1="221.80693069306932" x2="378.0" y2="260.7920792079208" stroke="#ff4444" stroke-width="0.5" opacity="0.6"/>
<rect x="375.0" y="226.9752475247525" width="6.0" height="27.66831683168317" fill="#ff4444" opacity="0.85"/>
<line x1="390.0" y1="194.5841584158416" x2="390.0" y2="222.20792079207925" stroke="#44aa44" stroke-width="0.5" opacity="0.6"/>
<rect x="387.0" y="216.32673267326734" width="6.0" height="5.5247524752475385" fill="#44aa44" opacity="0.85"/>
<line x1="402.0" y1="173.86633663366337" x2="402.0" y2="199.21782178217828" stroke="#ff4444" stroke-width="0.5" opacity="0.6"/>
<rect x="399.0" y="178.00990099009906" width="6.0" height="8.108910891089096" fill="#ff4444" opacity="0.85"/>
<line x1="414.0" y1="165.44554455445547" x2="414.0" y2="192.08910891089113" stroke="#ff4444" stroke-width="0.5" opacity="0.6"/>
<rect x="411.0" y="176.98514851485152" width="6.0" height="15.059405940594019" fill="#ff4444" opacity="0.85"/>
<line x1="426.0" y1="166.87128712871285" x2="426.0" y2="187.990099009901" stroke="#44aa44" stroke-width="0.5" opacity="0.6"/>
<rect x="423.0" y="176.13861386138618" width="6.0" height="6.371287128712879" fill="#44aa44" opacity="0.85"/>
<line x1="438.0" y1="174.0445544554456" x2="438.0" y2="193.78217821782178" stroke="#ff4444" stroke-width="0.5" opacity="0.6"/>
<rect x="435.0" y="187.14356435643566" width="6.0" height="5.391089108910933" fill="#ff4444" opacity="0.85"/>
<line x1="450.0" y1="164.55445544554462" x2="450.0" y2="204.9653465346535" stroke="#ff4444" stroke-width="0.5" opacity="0.6"/>
<rect x="447.0" y="173.91089108910893" width="6.0" height="3.8316831683168573" fill="#ff4444" opacity="0.85"/>
<line x1="462.0" y1="137.91089108910887" x2="462.0" y2="188.52475247524754" stroke="#ff4444" stroke-width="0.5" opacity="0.6"/>
<rect x="459.0" y="153.95049504950504" width="6.0" height="8.955445544554408" fill="#ff4444" opacity="0.85"/>
<line x1="474.0" y1="124.54455445544554" x2="474.0" y2="165.44554455445547" stroke="#44aa44" stroke-width="0.5" opacity="0.6"/>
<rect x="471.0" y="144.37128712871294" width="6.0" height="10.02475247524751" fill="#44aa44" opacity="0.85"/>
<line x1="486.0" y1="124.99009900990107" x2="486.0" y2="167.22772277227727" stroke="#ff4444" stroke-width="0.5" opacity="0.6"/>
<rect x="483.0" y="134.25742574257427" width="6.0" height="32.970297029703005" fill="#ff4444" opacity="0.85"/>
<line x1="498.0" y1="85.78217821782182" x2="498.0" y2="132.65346534653474" stroke="#44aa44" stroke-width="0.5" opacity="0.6"/>
<rect x="495.0" y="104.85148514851488" width="6.0" height="20.049504950495063" fill="#44aa44" opacity="0.85"/>
<line x1="510.0" y1="122.2722772277228" x2="510.0" y2="155.77722772277235" stroke="#ff4444" stroke-width="0.5" opacity="0.6"/>
<rect x="507.0" y="124.90099009900995" width="6.0" height="6.103960396039625" fill="#ff4444" opacity="0.85"/>
<line x1="522.0" y1="115.5445544554456" x2="522.0" y2="181.39603960396045" stroke="#44aa44" stroke-width="0.5" opacity="0.6"/>
<rect x="519.0" y="131.5841584158416" width="6.0" height="13.366336633663366" fill="#44aa44" opacity="0.85"/>
<line x1="534.0" y1="129.7128712871288" x2="534.0" y2="178.8118811881188" stroke="#44aa44" stroke-width="0.5" opacity="0.6"/>
<rect x="531.0" y="141.02970297029708" width="6.0" height="27.311881188118804" fill="#44aa44" opacity="0.85"/>
<line x1="546.0" y1="91.48514851485152" x2="546.0" y2="186.25247524752479" stroke="#ff4444" stroke-width="0.5" opacity="0.6"/>
<rect x="543.0" y="110.77722772277237" width="6.0" height="53.955445544554394" fill="#ff4444" opacity="0.85"/>
<line x1="558.0" y1="113.7623762376238" x2="558.0" y2="144.95049504950498" stroke="#44aa44" stroke-width="0.5" opacity="0.6"/>
<rect x="555.0" y="122.67326732673271" width="6.0" height="13.27722772277221" fill="#44aa44" opacity="0.85"/>
<line x1="570.0" y1="127.9752475247525" x2="570.0" y2="171.6831683168317" stroke="#44aa44" stroke-width="0.5" opacity="0.6"/>
<rect x="567.0" y="131.62871287128712" width="6.0" height="35.376237623762364" fill="#44aa44" opacity="0.85"/>
<line x1="582.0" y1="164.6435643564356" x2="582.0" y2="184.82673267326737" stroke="#ff4444" stroke-width="0.5" opacity="0.6"/>
<rect x="579.0" y="175.42574257425747" width="6.0" height="0.7128712871287064" fill="#ff4444" opacity="0.85"/>
<line x1="594.0" y1="123.3415841584159" x2="594.0" y2="191.6881188118812" stroke="#ff4444" stroke-width="0.5" opacity="0.6"/>
<rect x="591.0" y="135.14851485148523" width="6.0" height="31.633663366336606" fill="#ff4444" opacity="0.85"/>
<line x1="606.0" y1="80.3465346534654" x2="606.0" y2="123.20792079207926" stroke="#44aa44" stroke-width="0.5" opacity="0.6"/>
<rect x="603.0" y="109.30693069306935" width="6.0" height="9.712871287128735" fill="#44aa44" opacity="0.85"/>
<line x1="618.0" y1="104.1386138613862" x2="618.0" y2="135.95049504950492" stroke="#ff4444" stroke-width="0.5" opacity="0.6"/>
<rect x="615.0" y="109.1287128712872" width="6.0" height="4.633663366336592" fill="#ff4444" opacity="0.85"/>
<line x1="630.0" y1="120.89108910891089" x2="630.0" y2="139.3366336633664" stroke="#44aa44" stroke-width="0.5" opacity="0.6"/>
<rect x="627.0" y="127.03960396039604" width="6.0" height="6.594059405940655" fill="#44aa44" opacity="0.85"/>
<line x1="642.0" y1="105.47524752475245" x2="642.0" y2="147.1782178217822" stroke="#ff4444" stroke-width="0.5" opacity="0.6"/>
<rect x="639.0" y="120.40099009900999" width="6.0" height="2.806930693069276" fill="#ff4444" opacity="0.85"/>
<line x1="654.0" y1="122.85148514851485" x2="654.0" y2="148.5148514851486" stroke="#44aa44" stroke-width="0.5" opacity="0.6"/>
<rect x="651.0" y="126.23762376237633" width="6.0" height="13.722772277227648" fill="#44aa44" opacity="0.85"/>
<line x1="666.0" y1="122.71782178217822" x2="666.0" y2="158.27227722772284" stroke="#ff4444" stroke-width="0.5" opacity="0.6"/>
<rect x="663.0" y="132.47524752475246" width="6.0" height="17.86633663366345" fill="#ff4444" opacity="0.85"/>
<line x1="678.0" y1="123.20792079207926" x2="678.0" y2="158.09405940594058" stroke="#44aa44" stroke-width="0.5" opacity="0.6"/>
<rect x="675.0" y="123.3861386138614" width="6.0" height="34.03960396039612" fill="#44aa44" opacity="0.85"/>
<line x1="690.0" y1="154.08415841584167" x2="690.0" y2="191.28712871287135" stroke="#44aa44" stroke-width="0.5" opacity="0.6"/>
<rect x="687.0" y="161.88118811881196" width="6.0" height="17.821782178217745" fill="#44aa44" opacity="0.85"/>
<line x1="702.0" y1="132.60891089108912" x2="702.0" y2="171.72772277227727" stroke="#ff4444" stroke-width="0.5" opacity="0.6"/>
<rect x="699.0" y="154.75247524752473" width="6.0" height="16.930693069306983" fill="#ff4444" opacity="0.85"/>
<line x1="714.0" y1="82.57425742574262" x2="714.0" y2="173.86633663366337" stroke="#ff4444" stroke-width="0.5" opacity="0.6"/>
<rect x="711.0" y="85.96039603960395" width="6.0" height="63.445544554455495" fill="#ff4444" opacity="0.85"/>
<line x1="726.0" y1="77.80693069306938" x2="726.0" y2="99.90594059405939" stroke="#ff4444" stroke-width="0.5" opacity="0.6"/>
<rect x="723.0" y="89.9257425742575" width="6.0" height="1.6039603960395254" fill="#ff4444" opacity="0.85"/>
<line x1="738.0" y1="76.64851485148515" x2="738.0" y2="149.40594059405944" stroke="#44aa44" stroke-width="0.5" opacity="0.6"/>
<rect x="735.0" y="82.57425742574262" width="6.0" height="62.108910891089096" fill="#44aa44" opacity="0.85"/>
<line x1="750.0" y1="105.38613861386145" x2="750.0" y2="148.38118811881196" stroke="#ff4444" stroke-width="0.5" opacity="0.6"/>
<rect x="747.0" y="113.62871287128716" width="6.0" height="24.415841584158343" fill="#ff4444" opacity="0.85"/>
<line x1="762.0" y1="30.0" x2="762.0" y2="82.57425742574262" stroke="#ff4444" stroke-width="0.5" opacity="0.6"/>
<rect x="759.0" y="55.88613861386139" width="6.0" height="25.217821782178206" fill="#ff4444" opacity="0.85"/>
<line x1="774.0" y1="51.43069306930694" x2="774.0" y2="99.59405940594061" stroke="#44aa44" stroke-width="0.5" opacity="0.6"/>
<rect x="771.0" y="57.6683168316832" width="6.0" height="30.029702970297066" fill="#44aa44" opacity="0.85"/>
<rect x="146.0" y="271.0495049504951" width="8" height="8" fill="#4caf50" opacity="0.85" rx="1"/>
<text x="150.0" y="269.0495049504951" text-anchor="middle" font-family="sans-serif" font-size="8" fill="#4caf50">前低</text>
<rect x="206.0" y="281.4306930693069" width="8" height="8" fill="#4caf50" opacity="0.85" rx="1"/>
<text x="210.0" y="279.4306930693069" text-anchor="middle" font-family="sans-serif" font-size="8" fill="#4caf50">前低</text>
<rect x="218.0" y="283.56930693069313" width="8" height="8" fill="#4caf50" opacity="0.85" rx="1"/>
<text x="222.0" y="281.56930693069313" text-anchor="middle" font-family="sans-serif" font-size="8" fill="#4caf50">前低</text>
<rect x="314.0" y="296.0" width="8" height="8" fill="#4caf50" opacity="0.85" rx="1"/>
<text x="318.0" y="294.0" text-anchor="middle" font-family="sans-serif" font-size="8" fill="#4caf50">前低</text>
<rect x="374.0" y="217.80693069306932" width="8" height="8" fill="#ff9800" opacity="0.85" rx="1"/>
<text x="378.0" y="215.80693069306932" text-anchor="middle" font-family="sans-serif" font-size="8" fill="#ff9800">前高</text>
<rect x="374.0" y="217.80693069306932" width="8" height="8" fill="#2196f3" opacity="0.85" rx="1"/>
<text x="378.0" y="215.80693069306932" text-anchor="middle" font-family="sans-serif" font-size="8" fill="#2196f3">突</text>
<rect x="386.0" y="190.5841584158416" width="8" height="8" fill="#ff9800" opacity="0.85" rx="1"/>
<text x="390.0" y="188.5841584158416" text-anchor="middle" font-family="sans-serif" font-size="8" fill="#ff9800">前高</text>
<rect x="398.0" y="169.86633663366337" width="8" height="8" fill="#ff9800" opacity="0.85" rx="1"/>
<text x="402.0" y="167.86633663366337" text-anchor="middle" font-family="sans-serif" font-size="8" fill="#ff9800">前高</text>
<rect x="398.0" y="169.86633663366337" width="8" height="8" fill="#2196f3" opacity="0.85" rx="1"/>
<text x="402.0" y="167.86633663366337" text-anchor="middle" font-family="sans-serif" font-size="8" fill="#2196f3">突</text>
<rect x="410.0" y="161.44554455445547" width="8" height="8" fill="#ff9800" opacity="0.85" rx="1"/>
<text x="414.0" y="159.44554455445547" text-anchor="middle" font-family="sans-serif" font-size="8" fill="#ff9800">前高</text>
<rect x="446.0" y="160.55445544554462" width="8" height="8" fill="#ff9800" opacity="0.85" rx="1"/>
<text x="450.0" y="158.55445544554462" text-anchor="middle" font-family="sans-serif" font-size="8" fill="#ff9800">前高</text>
<rect x="458.0" y="133.91089108910887" width="8" height="8" fill="#ff9800" opacity="0.85" rx="1"/>
<text x="462.0" y="131.91089108910887" text-anchor="middle" font-family="sans-serif" font-size="8" fill="#ff9800">前高</text>
<rect x="470.0" y="120.54455445544554" width="8" height="8" fill="#ff9800" opacity="0.85" rx="1"/>
<text x="474.0" y="118.54455445544554" text-anchor="middle" font-family="sans-serif" font-size="8" fill="#ff9800">前高</text>
<rect x="494.0" y="81.78217821782182" width="8" height="8" fill="#ff9800" opacity="0.85" rx="1"/>
<text x="498.0" y="79.78217821782182" text-anchor="middle" font-family="sans-serif" font-size="8" fill="#ff9800">前高</text>
<rect x="590.0" y="187.6881188118812" width="8" height="8" fill="#4caf50" opacity="0.85" rx="1"/>
<text x="594.0" y="185.6881188118812" text-anchor="middle" font-family="sans-serif" font-size="8" fill="#4caf50">前低</text>
<rect x="602.0" y="76.3465346534654" width="8" height="8" fill="#ff9800" opacity="0.85" rx="1"/>
<text x="606.0" y="74.3465346534654" text-anchor="middle" font-family="sans-serif" font-size="8" fill="#ff9800">前高</text>
<rect x="722.0" y="73.80693069306938" width="8" height="8" fill="#ff9800" opacity="0.85" rx="1"/>
<text x="726.0" y="71.80693069306938" text-anchor="middle" font-family="sans-serif" font-size="8" fill="#ff9800">前高</text>
<rect x="734.0" y="72.64851485148515" width="8" height="8" fill="#ff9800" opacity="0.85" rx="1"/>
<text x="738.0" y="70.64851485148515" text-anchor="middle" font-family="sans-serif" font-size="8" fill="#ff9800">前高</text>
<rect x="758.0" y="26.0" width="8" height="8" fill="#ff9800" opacity="0.85" rx="1"/>
<text x="762.0" y="24.0" text-anchor="middle" font-family="sans-serif" font-size="8" fill="#ff9800">前高</text>
<line x1="60" y1="173.86633663366337" x2="780" y2="173.86633663366337" stroke="#4caf50" stroke-width="1.5" stroke-dasharray="6,3" opacity="0.7"/>
<text x="64" y="169.86633663366337" font-family="sans-serif" font-size="9" fill="#4caf50" font-weight="bold">支撑 127.51</text>
<line x1="60" y1="30.0" x2="780" y2="30.0" stroke="#f44336" stroke-width="1.5" stroke-dasharray="6,3" opacity="0.7"/>
<text x="64" y="26.0" font-family="sans-serif" font-size="9" fill="#f44336" font-weight="bold">压力 159.80</text>
<text x="66.0" y="359" text-anchor="middle" font-family="sans-serif" font-size="8" fill="#666666" transform="rotate(-40,66.0,359)">02/26</text>
<text x="138.0" y="359" text-anchor="middle" font-family="sans-serif" font-size="8" fill="#666666" transform="rotate(-40,138.0,359)">03/06</text>
<text x="210.0" y="359" text-anchor="middle" font-family="sans-serif" font-size="8" fill="#666666" transform="rotate(-40,210.0,359)">03/16</text>
<text x="282.0" y="359" text-anchor="middle" font-family="sans-serif" font-size="8" fill="#666666" transform="rotate(-40,282.0,359)">03/24</text>
<text x="354.0" y="359" text-anchor="middle" font-family="sans-serif" font-size="8" fill="#666666" transform="rotate(-40,354.0,359)">04/01</text>
<text x="426.0" y="359" text-anchor="middle" font-family="sans-serif" font-size="8" fill="#666666" transform="rotate(-40,426.0,359)">04/10</text>
<text x="498.0" y="359" text-anchor="middle" font-family="sans-serif" font-size="8" fill="#666666" transform="rotate(-40,498.0,359)">04/20</text>
<text x="570.0" y="359" text-anchor="middle" font-family="sans-serif" font-size="8" fill="#666666" transform="rotate(-40,570.0,359)">04/28</text>
<text x="642.0" y="359" text-anchor="middle" font-family="sans-serif" font-size="8" fill="#666666" transform="rotate(-40,642.0,359)">05/11</text>
<text x="714.0" y="359" text-anchor="middle" font-family="sans-serif" font-size="8" fill="#666666" transform="rotate(-40,714.0,359)">05/19</text>
<text x="774.0" y="359" text-anchor="middle" font-family="sans-serif" font-size="8" fill="#666666" transform="rotate(-40,774.0,359)">05/26</text>
<text x="400.0" y="396" text-anchor="middle" font-family="sans-serif" font-size="9" fill="#555555">数据截至: 2026-05-26 20:59  |  最新K线: 20260526</text>
<rect x="50" y="373" width="8" height="8" fill="#ffd700" opacity="0.8" rx="1"/>
<text x="61" y="380" font-family="sans-serif" font-size="9" fill="#888888">EMA5</text>
<rect x="150" y="373" width="8" height="8" fill="#ff6b6b" opacity="0.8" rx="1"/>
<text x="161" y="380" font-family="sans-serif" font-size="9" fill="#888888">EMA10</text>
<rect x="250" y="373" width="8" height="8" fill="#4ecdc4" opacity="0.8" rx="1"/>
<text x="261" y="380" font-family="sans-serif" font-size="9" fill="#888888">EMA20</text>
<rect x="350" y="373" width="8" height="8" fill="#2196f3" opacity="0.8" rx="1"/>
<text x="361" y="380" font-family="sans-serif" font-size="9" fill="#888888">突破</text>
<rect x="450" y="373" width="8" height="8" fill="#ff9800" opacity="0.8" rx="1"/>
<text x="461" y="380" font-family="sans-serif" font-size="9" fill="#888888">前高/量</text>
<rect x="550" y="373" width="8" height="8" fill="#4caf50" opacity="0.8" rx="1"/>
<text x="561" y="380" font-family="sans-serif" font-size="9" fill="#888888">前低</text>
</svg>