<svg xmlns="http://www.w3.org/2000/svg" width="750" height="540" viewBox="0 0 750 540">
<rect width="750" height="540" fill="#1a1a2e"/>
<text x="375.0" y="22" text-anchor="middle" font-family="sans-serif" font-size="15" fill="#ffffff" font-weight="bold">浙江荣泰(603119) 趋势交易分析图</text>
<text x="60" y="31" font-family="sans-serif" font-size="10" fill="#888888">最新: 82.20</text>
<line x1="60" y1="213.73593073893252" x2="725" y2="213.73593073893252" stroke="#4ecdc4" stroke-width="0.5" stroke-dasharray="4,3" opacity="0.4"/>
<text x="62" y="211.73593073893252" font-family="sans-serif" font-size="7" fill="#4ecdc4" opacity="0.6">买入↑2%</text>
<line x1="60" y1="146.16535812969022" x2="725" y2="146.16535812969022" stroke="#e94560" stroke-width="0.5" stroke-dasharray="4,3" opacity="0.4"/>
<text x="62" y="144.16535812969022" font-family="sans-serif" font-size="7" fill="#e94560" opacity="0.6">警戒↑8%</text>
<rect x="60" y="213.73593073893252" width="3" height="169.26406926106748" fill="#4ecdc4" opacity="0.3" rx="1"/>
<rect x="60" y="146.16535812969022" width="3" height="236.83464187030978" fill="#e94560" opacity="0.3" rx="1"/>
<rect x="60" y="146.16535812969022" width="3" height="67.5705726092423" fill="#ffd700" opacity="0.2" rx="1"/>
<line x1="60" y1="32.0" x2="725" y2="32.0" stroke="#2a2a4e" stroke-width="0.5"/>
<text x="56" y="35.0" text-anchor="end" font-family="sans-serif" font-size="8" fill="#666666">95.8</text>
<line x1="60" y1="127.7500000000001" x2="725" y2="127.7500000000001" stroke="#2a2a4e" stroke-width="0.5"/>
<text x="56" y="130.7500000000001" text-anchor="end" font-family="sans-serif" font-size="8" fill="#666666">88.9</text>
<line x1="60" y1="223.5" x2="725" y2="223.5" stroke="#2a2a4e" stroke-width="0.5"/>
<text x="56" y="226.5" text-anchor="end" font-family="sans-serif" font-size="8" fill="#666666">82.0</text>
<line x1="60" y1="319.24999999999994" x2="725" y2="319.24999999999994" stroke="#2a2a4e" stroke-width="0.5"/>
<text x="56" y="322.24999999999994" text-anchor="end" font-family="sans-serif" font-size="8" fill="#666666">75.1</text>
<line x1="60" y1="415.0" x2="725" y2="415.0" stroke="#2a2a4e" stroke-width="0.5"/>
<text x="56" y="418.0" text-anchor="end" font-family="sans-serif" font-size="8" fill="#666666">68.2</text>
<rect x="61.66250000000001" y="465.7802272709668" width="6.095833333333334" height="9.219772729033208" fill="#44aa44" opacity="0.35"/>
<rect x="72.74583333333334" y="469.0850161764668" width="6.095833333333334" height="5.914983823533209" fill="#44aa44" opacity="0.35"/>
<rect x="83.82916666666668" y="466.58236313263154" width="6.095833333333334" height="8.417636867368465" fill="#44aa44" opacity="0.35"/>
<rect x="94.91250000000001" y="465.9593432328662" width="6.095833333333334" height="9.040656767133758" fill="#44aa44" opacity="0.35"/>
<rect x="105.99583333333335" y="467.64991956952264" width="6.095833333333334" height="7.350080430477341" fill="#ff4444" opacity="0.35"/>
<rect x="117.07916666666668" y="467.10037155523884" width="6.095833333333334" height="7.8996284447611735" fill="#44aa44" opacity="0.35"/>
<rect x="128.1625" y="469.8719696558918" width="6.095833333333334" height="5.1280303441081765" fill="#ff4444" opacity="0.35"/>
<rect x="139.24583333333334" y="464.42149443183547" width="6.095833333333334" height="10.578505568164505" fill="#ff4444" opacity="0.35"/>
<rect x="150.32916666666668" y="459.09302049363396" width="6.095833333333334" height="15.906979506366014" fill="#ff4444" opacity="0.35"/>
<rect x="161.4125" y="465.12630037878495" width="6.095833333333334" height="9.873699621215055" fill="#44aa44" opacity="0.35"/>
<rect x="172.49583333333334" y="466.790217175199" width="6.095833333333334" height="8.209782824800989" fill="#44aa44" opacity="0.35"/>
<rect x="183.57916666666668" y="467.4482107769094" width="6.095833333333334" height="7.551789223090648" fill="#44aa44" opacity="0.35"/>
<rect x="194.6625" y="464.2778040284954" width="6.095833333333334" height="10.72219597150463" fill="#44aa44" opacity="0.35"/>
<rect x="205.74583333333334" y="468.0565001510492" width="6.095833333333334" height="6.943499848950789" fill="#44aa44" opacity="0.35"/>
<rect x="216.82916666666668" y="469.2625958258777" width="6.095833333333334" height="5.737404174122301" fill="#44aa44" opacity="0.35"/>
<rect x="227.9125" y="466.29986237738547" width="6.095833333333334" height="8.70013762261452" fill="#44aa44" opacity="0.35"/>
<rect x="238.99583333333334" y="467.43564916303245" width="6.095833333333334" height="7.564350836967552" fill="#44aa44" opacity="0.35"/>
<rect x="250.07916666666668" y="463.8727597594574" width="6.095833333333334" height="11.12724024054264" fill="#44aa44" opacity="0.35"/>
<rect x="261.1625" y="465.56884874680793" width="6.095833333333334" height="9.431151253192043" fill="#44aa44" opacity="0.35"/>
<rect x="272.2458333333334" y="462.32813310921244" width="6.095833333333334" height="12.671866890787546" fill="#ff4444" opacity="0.35"/>
<rect x="283.3291666666667" y="461.34218197685976" width="6.095833333333334" height="13.657818023140223" fill="#44aa44" opacity="0.35"/>
<rect x="294.4125" y="466.6067633898025" width="6.095833333333334" height="8.3932366101975" fill="#ff4444" opacity="0.35"/>
<rect x="305.4958333333334" y="466.58859875390857" width="6.095833333333334" height="8.41140124609144" fill="#ff4444" opacity="0.35"/>
<rect x="316.5791666666667" y="468.61960386376137" width="6.095833333333334" height="6.380396136238642" fill="#44aa44" opacity="0.35"/>
<rect x="327.6625" y="464.6080208422091" width="6.095833333333334" height="10.391979157790912" fill="#44aa44" opacity="0.35"/>
<rect x="338.7458333333334" y="467.99685507796465" width="6.095833333333334" height="7.003144922035369" fill="#44aa44" opacity="0.35"/>
<rect x="349.8291666666667" y="468.2094988006434" width="6.095833333333334" height="6.790501199356556" fill="#44aa44" opacity="0.35"/>
<rect x="360.9125" y="466.8522119026778" width="6.095833333333334" height="8.147788097322168" fill="#ff4444" opacity="0.35"/>
<rect x="371.9958333333334" y="463.47982524768196" width="6.095833333333334" height="11.520174752318024" fill="#ff4444" opacity="0.35"/>
<rect x="383.0791666666667" y="468.4127439057453" width="6.095833333333334" height="6.587256094254708" fill="#44aa44" opacity="0.35"/>
<rect x="394.1625" y="466.0946291031808" width="6.095833333333334" height="8.905370896819187" fill="#ff4444" opacity="0.35"/>
<rect x="405.2458333333334" y="468.2773676641079" width="6.095833333333334" height="6.722632335892133" fill="#ff4444" opacity="0.35"/>
<rect x="416.3291666666667" y="463.021642640805" width="6.095833333333334" height="11.978357359195025" fill="#ff4444" opacity="0.35"/>
<rect x="427.4125" y="458.1524357653547" width="6.095833333333334" height="16.847564234645265" fill="#44aa44" opacity="0.35"/>
<rect x="438.4958333333334" y="454.6584093097955" width="6.095833333333334" height="20.341590690204523" fill="#44aa44" opacity="0.35"/>
<rect x="449.5791666666667" y="461.34950205401105" width="6.095833333333334" height="13.650497945988933" fill="#ff4444" opacity="0.35"/>
<rect x="460.6625" y="462.55270584650816" width="6.095833333333334" height="12.447294153491818" fill="#44aa44" opacity="0.35"/>
<rect x="471.7458333333334" y="456.14248717372726" width="6.095833333333334" height="18.857512826272753" fill="#ff4444" opacity="0.35"/>
<rect x="482.8291666666667" y="464.20469362830534" width="6.095833333333334" height="10.79530637169467" fill="#ff4444" opacity="0.35"/>
<rect x="493.9125" y="462.1807374816353" width="6.095833333333334" height="12.819262518364743" fill="#44aa44" opacity="0.35"/>
<rect x="504.9958333333334" y="462.0326188834752" width="6.095833333333334" height="12.967381116524784" fill="#ff4444" opacity="0.35"/>
<rect x="516.0791666666667" y="464.22385234875065" width="6.095833333333334" height="10.77614765124932" fill="#44aa44" opacity="0.35"/>
<rect x="527.1624999999999" y="464.0640758499423" width="6.095833333333334" height="10.93592415005771" fill="#44aa44" opacity="0.35"/>
<rect x="538.2458333333333" y="466.81389446178713" width="6.095833333333334" height="8.186105538212868" fill="#ff4444" opacity="0.35"/>
<rect x="549.3291666666667" y="454.30017738599656" width="6.095833333333334" height="20.699822614003423" fill="#ff4444" opacity="0.35"/>
<rect x="560.4124999999999" y="449.9822355799644" width="6.095833333333334" height="25.017764420035583" fill="#ff4444" opacity="0.35"/>
<rect x="571.4958333333333" y="449.831857698733" width="6.095833333333334" height="25.168142301267007" fill="#ff4444" opacity="0.35"/>
<rect x="582.5791666666667" y="444.31739957809503" width="6.095833333333334" height="30.682600421904976" fill="#ff4444" opacity="0.35"/>
<rect x="593.6624999999999" y="453.24229068065097" width="6.095833333333334" height="21.75770931934902" fill="#ff4444" opacity="0.35"/>
<rect x="604.7458333333333" y="456.56524422204495" width="6.095833333333334" height="18.434755777955075" fill="#ff4444" opacity="0.35"/>
<rect x="615.8291666666667" y="456.9616128440888" width="6.095833333333334" height="18.038387155911188" fill="#ff4444" opacity="0.35"/>
<rect x="626.9124999999999" y="458.8371792786303" width="6.095833333333334" height="16.16282072136972" fill="#44aa44" opacity="0.35"/>
<rect x="637.9958333333333" y="446.35843590478476" width="6.095833333333334" height="28.641564095215227" fill="#ff4444" opacity="0.35"/>
<rect x="649.0791666666667" y="446.74567702322025" width="6.095833333333334" height="28.254322976779736" fill="#ff4444" opacity="0.35"/>
<rect x="660.1624999999999" y="455.9739446566019" width="6.095833333333334" height="19.026055343398117" fill="#44aa44" opacity="0.35"/>
<rect x="671.2458333333333" y="445.71200983239993" width="6.095833333333334" height="29.287990167600075" fill="#ff4444" opacity="0.35"/>
<rect x="682.3291666666667" y="440.0" width="6.095833333333334" height="35.0" fill="#ff4444" opacity="0.35"/>
<rect x="693.4124999999999" y="449.2510412067412" width="6.095833333333334" height="25.74895879325882" fill="#44aa44" opacity="0.35"/>
<rect x="704.4958333333333" y="451.82852170590076" width="6.095833333333334" height="23.171478294099266" fill="#ff4444" opacity="0.35"/>
<rect x="715.5791666666667" y="452.84547020199284" width="6.095833333333334" height="22.154529798007186" fill="#44aa44" opacity="0.25" stroke-dasharray="3,2"/>
<polyline points="65.54166666666667,57.5425878941646 76.625,59.48604566872061 87.70833333333334,71.88715718255409 98.79166666666667,98.61741371672515 109.87500000000001,120.09313626783722 120.95833333333334,133.253464531343 132.04166666666666,143.64656485247696 143.125,163.57795636776228 154.20833333333334,147.34350165969704 165.29166666666666,145.63627427307085 176.375,149.95831357240607 187.45833333333334,167.9246072601833 198.54166666666666,192.67343033245032 209.625,215.0955646459418 220.70833333333334,228.56292445527444 231.79166666666666,256.23537720722527 242.875,280.83796199461995 253.95833333333334,314.26807711565937 265.0416666666667,335.2129092091589 276.12500000000006,335.94210861618205 287.20833333333337,333.09659965495854 298.2916666666667,331.2458664849658 309.37500000000006,330.0120443716373 320.45833333333337,337.56487384833815 331.5416666666667,335.65917287605765 342.62500000000006,348.40936522050094 353.70833333333337,361.6293194740516 364.7916666666667,365.86161469829847 375.87500000000006,349.38738551470476 386.95833333333337,344.14239377433137 398.0416666666667,337.36036351899975 409.12500000000006,332.5613731905087 420.20833333333337,318.3491189156974 431.2916666666667,305.17245840000226 442.37500000000006,288.5679141538254 453.45833333333337,282.2180440136292 464.5416666666667,288.58126940524414 475.62500000000006,275.0083900662242 486.70833333333337,267.34798796489366 497.7916666666667,272.51361575332646 508.87500000000006,273.92136422941354 519.9583333333334,280.5051453205152 531.0416666666666,296.9715345993238 542.125,305.03394079002874 553.2083333333334,275.70427513342736 564.2916666666666,248.88633444318626 575.375,210.92531031261342 586.4583333333334,166.18338314667153 597.5416666666666,142.32462343884663 608.625,124.10514342582536 619.7083333333334,103.21326343164245 630.7916666666666,106.49882658158783 641.875,188.463516379993 652.9583333333334,232.83408038960985 664.0416666666666,265.8386439035723 675.125,275.57939314484855 686.2083333333334,266.84947340501077 697.2916666666666,262.3251654281563 708.375,243.71502510964916 719.4583333333334,236.25945494201324" fill="none" stroke="#ffd700" stroke-width="1" opacity="0.7"/>
<polyline points="65.54166666666667,57.5425878941646 76.625,58.60265577119516 87.70833333333334,65.52751476010901 98.79166666666667,81.26395331010131 109.87500000000001,96.13315841191233 120.95833333333334,107.66787889308367 132.04166666666666,117.98876736611285 143.125,133.5254895537892 154.20833333333334,130.13441731556688 165.29166666666666,132.33212680361277 176.375,137.1085386886062 187.45833333333334,149.24465795172105 198.54166666666666,166.14037041085984 209.625,183.19481820396254 220.70833333333334,196.3407865439584 231.79166666666666,217.29342221071627 242.875,237.79336936684234 253.95833333333334,263.85426718336896 265.0416666666667,284.44486831296695 276.12500000000006,294.0731663342873 287.20833333333337,300.1336054976008 298.2916666666667,305.1173863425788 309.37500000000006,309.19502521574276 320.45833333333337,317.0996629586513 331.5416666666667,319.78113713553233 342.62500000000006,329.62270309441516 353.70833333333337,340.2493439829128 364.7916666666667,346.44513692180004 375.87500000000006,340.989462417385 386.95833333333337,339.6554529403303 398.0416666666667,336.7719711345133 409.12500000000006,334.26132047978854 420.20833333333337,326.20010045911334 431.2916666666667,317.5853798972039 442.37500000000006,306.2714609452526 453.45833333333337,299.58906872488603 464.5416666666667,299.90155080917475 475.62500000000006,290.43992909626746 486.70833333333337,283.45579358098837 497.7916666666667,283.34471680811646 508.87500000000006,282.14328851238383 519.9583333333334,284.2395465106265 531.0416666666666,292.5422313554109 542.125,297.7452353219614 553.2083333333334,283.0724550489184 564.2916666666666,267.1048183241521 575.375,243.0863535473004 586.4583333333334,212.83420359593447 597.5416666666666,191.33836730998223 608.625,172.48887932630961 619.7083333333334,152.2962655293945 630.7916666666666,145.16420868431902 641.875,182.84215182840708 652.9583333333334,208.06634393394108 664.0416666666666,230.5720579334967 675.125,242.2973004232975 686.2083333333334,243.58681560548615 697.2916666666666,245.34858539984268 708.375,238.2842506858049 719.4583333333334,235.20498958052056" fill="none" stroke="#ff6b6b" stroke-width="1" opacity="0.7"/>
<polyline points="65.54166666666667,57.5425878941646 76.625,58.097861544037826 87.70833333333334,61.77324427415043 98.79166666666667,70.37369022757105 109.87500000000001,79.19948938399865 120.95833333333334,86.85421621012776 132.04166666666666,94.24264947532934 143.125,104.64246756323438 154.20833333333334,105.61695562802785 165.29166666666666,109.10313313962689 176.375,113.8173482854792 187.45833333333334,122.39257174740851 198.54166666666666,133.80004838832053 209.625,145.8133612344733 220.70833333333334,156.2594834096605 231.79166666666666,171.05194048599077 242.875,186.19395868441163 253.95833333333334,204.75913474853806 265.0416666666667,221.17279557212083 276.12500000000006,232.2421014633692 287.20833333333337,241.3052900604303 298.2916666666667,249.5185386399113 309.37500000000006,256.9495730689654 320.45833333333337,266.0658549482772 331.5416666666667,272.33079932763144 342.62500000000006,282.00498509732245 353.70833333333337,292.10634156244924 364.7916666666667,299.9368047609582 375.87500000000006,301.5084354644401 386.95833333333337,304.569766400549 398.0416666666667,306.40086512510015 409.12500000000006,307.9782486878075 420.20833333333337,306.2588545619282 431.2916666666667,303.64554816256475 442.37500000000006,299.04681268627013 453.45833333333337,296.2345737383622 464.5416666666667,296.7177305431347 475.62500000000006,292.06486395694895 486.70833333333337,288.2517515574523 497.7916666666667,287.7368105834274 508.87500000000006,286.6891963546809 519.9583333333334,287.35429265449403 531.0416666666666,291.406675559489 542.125,294.2402067606271 553.2083333333334,286.8882769567792 564.2916666666666,278.16086515734344 575.375,264.52680771868853 586.4583333333334,246.63849544212653 597.5416666666666,232.15931530699044 608.625,218.3980646491611 619.7083333333334,203.44867786764837 630.7916666666666,194.841180249918 641.875,209.84610555724032 652.9583333333334,220.48697249548835 664.0416666666666,231.09276282272725 675.125,237.18496556602946 686.2083333333334,238.3473149335824 697.2916666666666,239.76914679461723 708.375,236.60015609728558 719.4583333333334,235.14759976485286" fill="none" stroke="#4ecdc4" stroke-width="1" opacity="0.7"/>
<line x1="65.54166666666667" y1="32.0" x2="65.54166666666667" y2="67.25987676694463" stroke="#44aa44" stroke-width="0.5" opacity="0.6"/>
<rect x="63.04791666666667" y="35.19282348677062" width="4.987500000000001" height="22.349764407393977" fill="#44aa44" opacity="0.8" rx="1"/>
<line x1="76.625" y1="34.77636824936575" x2="76.625" y2="65.87169264226165" stroke="#44aa44" stroke-width="0.5" opacity="0.6"/>
<rect x="74.13125" y="57.403769481696244" width="4.987500000000001" height="5.9691917361363735" fill="#44aa44" opacity="0.8" rx="1"/>
<line x1="87.70833333333334" y1="58.097861544037826" x2="87.70833333333334" y2="99.18811163465027" stroke="#44aa44" stroke-width="0.5" opacity="0.6"/>
<rect x="85.21458333333334" y="85.30627038782171" width="4.987500000000001" height="11.383109822399334" fill="#44aa44" opacity="0.8" rx="1"/>
<line x1="98.79166666666667" y1="74.47843421529542" x2="98.79166666666667" y2="154.7154766219645" stroke="#44aa44" stroke-width="0.5" opacity="0.6"/>
<rect x="96.29791666666667" y="96.68938021022105" width="4.987500000000001" height="55.388546574846075" fill="#44aa44" opacity="0.8" rx="1"/>
<line x1="109.87500000000001" y1="140.9724537876043" x2="109.87500000000001" y2="171.37368611815882" stroke="#ff4444" stroke-width="0.5" opacity="0.6"/>
<rect x="107.38125000000001" y="163.04458137006156" width="4.987500000000001" height="5.5527364987315195" fill="#ff4444" opacity="0.8" rx="1"/>
<line x1="120.95833333333334" y1="139.44545125045317" x2="120.95833333333334" y2="176.3711489670171" stroke="#44aa44" stroke-width="0.5" opacity="0.6"/>
<rect x="118.46458333333334" y="140.9724537876043" width="4.987500000000001" height="18.601667270750113" fill="#44aa44" opacity="0.8" rx="1"/>
<line x1="132.04166666666666" y1="149.8568321855746" x2="132.04166666666666" y2="170.26313881841256" stroke="#ff4444" stroke-width="0.5" opacity="0.6"/>
<rect x="129.54791666666665" y="164.43276549474453" width="4.987500000000001" height="4.719826023921769" fill="#ff4444" opacity="0.8" rx="1"/>
<line x1="143.125" y1="188.448350851758" x2="143.125" y2="236.34070315331638" stroke="#ff4444" stroke-width="0.5" opacity="0.6"/>
<rect x="140.63125" y="203.44073939833282" width="4.987500000000001" height="4.71982602392157" fill="#ff4444" opacity="0.8" rx="1"/>
<line x1="154.20833333333334" y1="110.29358463211308" x2="154.20833333333334" y2="194.0010873504893" stroke="#ff4444" stroke-width="0.5" opacity="0.6"/>
<rect x="151.71458333333334" y="114.87459224356648" width="4.987500000000001" height="65.38347227256263" fill="#ff4444" opacity="0.8" rx="1"/>
<line x1="165.29166666666666" y1="99.88220369699167" x2="165.29166666666666" y2="143.6100036245017" stroke="#44aa44" stroke-width="0.5" opacity="0.6"/>
<rect x="162.79791666666665" y="113.06995288147884" width="4.987500000000001" height="29.151866618339895" fill="#44aa44" opacity="0.8" rx="1"/>
<line x1="176.375" y1="122.78724175425886" x2="176.375" y2="168.59731786879308" stroke="#44aa44" stroke-width="0.5" opacity="0.6"/>
<rect x="173.88125" y="125.14715476621974" width="4.987500000000001" height="33.45523740485679" fill="#44aa44" opacity="0.8" rx="1"/>
<line x1="187.45833333333334" y1="158.0471185212033" x2="187.45833333333334" y2="204.82892352301562" stroke="#44aa44" stroke-width="0.5" opacity="0.6"/>
<rect x="184.96458333333334" y="159.0188474084814" width="4.987500000000001" height="44.83834722725629" fill="#44aa44" opacity="0.8" rx="1"/>
<line x1="198.54166666666666" y1="197.19391083725995" x2="198.54166666666666" y2="261.7444726350126" stroke="#44aa44" stroke-width="0.5" opacity="0.6"/>
<rect x="196.04791666666665" y="198.3044581370062" width="4.987500000000001" height="43.866618339978174" fill="#44aa44" opacity="0.8" rx="1"/>
<line x1="209.625" y1="224.1246828561073" x2="209.625" y2="260.3562885103298" stroke="#44aa44" stroke-width="0.5" opacity="0.6"/>
<rect x="207.13125" y="230.92678506705323" width="4.987500000000001" height="29.01304820587177" fill="#44aa44" opacity="0.8" rx="1"/>
<line x1="220.70833333333334" y1="252.44363899963767" x2="220.70833333333334" y2="278.2638637187388" stroke="#44aa44" stroke-width="0.5" opacity="0.6"/>
<rect x="218.21458333333334" y="255.2200072490032" width="4.987500000000001" height="0.5" fill="#44aa44" opacity="0.8" rx="1"/>
<line x1="231.79166666666666" y1="270.3512142080464" x2="231.79166666666666" y2="318.5212033345415" stroke="#44aa44" stroke-width="0.5" opacity="0.6"/>
<rect x="229.29791666666665" y="276.73686118158764" width="4.987500000000001" height="34.84342152953957" fill="#44aa44" opacity="0.8" rx="1"/>
<line x1="242.875" y1="296.1714389271475" x2="242.875" y2="337.95578108010153" stroke="#44aa44" stroke-width="0.5" opacity="0.6"/>
<rect x="240.38125" y="303.66763320043503" width="4.987500000000001" height="26.37549836897415" fill="#44aa44" opacity="0.8" rx="1"/>
<line x1="253.95833333333334" y1="321.2975715839072" x2="253.95833333333334" y2="389.04095686843056" stroke="#44aa44" stroke-width="0.5" opacity="0.6"/>
<rect x="251.46458333333334" y="351.97644073939824" width="4.987500000000001" height="29.151866618340136" fill="#44aa44" opacity="0.8" rx="1"/>
<line x1="265.0416666666667" y1="359.0561797752809" x2="265.0416666666667" y2="402.0898876404494" stroke="#44aa44" stroke-width="0.5" opacity="0.6"/>
<rect x="262.5479166666667" y="362.24900326205153" width="4.987500000000001" height="14.853570134106462" fill="#44aa44" opacity="0.8" rx="1"/>
<line x1="276.12500000000006" y1="318.6600217470098" x2="276.12500000000006" y2="382.7941283073578" stroke="#ff4444" stroke-width="0.5" opacity="0.6"/>
<rect x="273.6312500000001" y="337.4005074302283" width="4.987500000000001" height="45.393620877129536" fill="#ff4444" opacity="0.8" rx="1"/>
<line x1="287.20833333333337" y1="285.20478434215306" x2="287.20833333333337" y2="337.26168901776015" stroke="#44aa44" stroke-width="0.5" opacity="0.6"/>
<rect x="284.7145833333334" y="317.27183762232687" width="4.987500000000001" height="10.13374411018492" fill="#44aa44" opacity="0.8" rx="1"/>
<line x1="298.2916666666667" y1="313.5237404856832" x2="298.2916666666667" y2="355.86335628851026" stroke="#ff4444" stroke-width="0.5" opacity="0.6"/>
<rect x="295.7979166666667" y="327.54440014498016" width="4.987500000000001" height="4.719826023921712" fill="#ff4444" opacity="0.8" rx="1"/>
<line x1="309.37500000000006" y1="314.35665096049297" x2="309.37500000000006" y2="346.14606741573044" stroke="#ff4444" stroke-width="0.5" opacity="0.6"/>
<rect x="306.8812500000001" y="327.54440014498016" width="4.987500000000001" height="18.601667270750283" fill="#ff4444" opacity="0.8" rx="1"/>
<line x1="320.45833333333337" y1="314.4954693729613" x2="320.45833333333337" y2="353.64226168901774" stroke="#44aa44" stroke-width="0.5" opacity="0.6"/>
<rect x="317.9645833333334" y="327.960855382385" width="4.987500000000001" height="24.709677419354875" fill="#44aa44" opacity="0.8" rx="1"/>
<line x1="331.5416666666667" y1="317.6882928597317" x2="331.5416666666667" y2="348.36716201522296" stroke="#44aa44" stroke-width="0.5" opacity="0.6"/>
<rect x="329.0479166666667" y="328.93258426966287" width="4.987500000000001" height="2.9151866618341273" fill="#44aa44" opacity="0.8" rx="1"/>
<line x1="342.62500000000006" y1="327.960855382385" x2="342.62500000000006" y2="375.159115621602" stroke="#44aa44" stroke-width="0.5" opacity="0.6"/>
<rect x="340.1312500000001" y="330.8760420442189" width="4.987500000000001" height="43.03370786516865" fill="#44aa44" opacity="0.8" rx="1"/>
<line x1="353.70833333333337" y1="360.58318231243203" x2="353.70833333333337" y2="399.5911562160203" stroke="#44aa44" stroke-width="0.5" opacity="0.6"/>
<rect x="351.2145833333334" y="361.55491119971015" width="4.987500000000001" height="26.51431678144246" fill="#44aa44" opacity="0.8" rx="1"/>
<line x1="364.7916666666667" y1="354.3363537513591" x2="364.7916666666667" y2="396.8147879666546" stroke="#ff4444" stroke-width="0.5" opacity="0.6"/>
<rect x="362.2979166666667" y="374.32620514679223" width="4.987500000000001" height="22.48858281986236" fill="#ff4444" opacity="0.8" rx="1"/>
<line x1="375.87500000000006" y1="314.35665096049297" x2="375.87500000000006" y2="342.6756071040233" stroke="#ff4444" stroke-width="0.5" opacity="0.6"/>
<rect x="373.3812500000001" y="316.43892714751735" width="4.987500000000001" height="18.740485683218424" fill="#ff4444" opacity="0.8" rx="1"/>
<line x1="386.95833333333337" y1="319.2152953968829" x2="386.95833333333337" y2="344.20260964117443" stroke="#44aa44" stroke-width="0.5" opacity="0.6"/>
<rect x="384.4645833333334" y="332.40304458137007" width="4.987500000000001" height="1.2493657122145692" fill="#44aa44" opacity="0.8" rx="1"/>
<line x1="398.0416666666667" y1="292.5621602029722" x2="398.0416666666667" y2="333.09713664371145" stroke="#ff4444" stroke-width="0.5" opacity="0.6"/>
<rect x="395.5479166666667" y="323.79630300833645" width="4.987500000000001" height="4.581007611453401" fill="#ff4444" opacity="0.8" rx="1"/>
<line x1="409.12500000000006" y1="315.0507430228343" x2="409.12500000000006" y2="342.9532439289598" stroke="#ff4444" stroke-width="0.5" opacity="0.6"/>
<rect x="406.6312500000001" y="322.9633925335267" width="4.987500000000001" height="12.21602029720907" fill="#ff4444" opacity="0.8" rx="1"/>
<line x1="420.20833333333337" y1="284.7883291047482" x2="420.20833333333337" y2="329.904313156941" stroke="#ff4444" stroke-width="0.5" opacity="0.6"/>
<rect x="417.7145833333334" y="289.9246103660746" width="4.987500000000001" height="24.432040594418368" fill="#ff4444" opacity="0.8" rx="1"/>
<line x1="431.2916666666667" y1="246.89090250090615" x2="431.2916666666667" y2="283.1225081551287" stroke="#44aa44" stroke-width="0.5" opacity="0.6"/>
<rect x="428.7979166666667" y="269.9347589706415" width="4.987500000000001" height="8.884378397970295" fill="#44aa44" opacity="0.8" rx="1"/>
<line x1="442.37500000000006" y1="202.46901051105473" x2="442.37500000000006" y2="264.52084088437834" stroke="#44aa44" stroke-width="0.5" opacity="0.6"/>
<rect x="439.8812500000001" y="224.1246828561073" width="4.987500000000001" height="31.234142805364257" fill="#44aa44" opacity="0.8" rx="1"/>
<line x1="453.45833333333337" y1="263.2714751721637" x2="453.45833333333337" y2="301.86299383834717" stroke="#ff4444" stroke-width="0.5" opacity="0.6"/>
<rect x="450.9645833333334" y="269.5183037332366" width="4.987500000000001" height="9.717288872780045" fill="#ff4444" opacity="0.8" rx="1"/>
<line x1="464.5416666666667" y1="279.65204784342154" x2="464.5416666666667" y2="314.35665096049297" stroke="#44aa44" stroke-width="0.5" opacity="0.6"/>
<rect x="462.0479166666667" y="279.65204784342154" width="4.987500000000001" height="21.65567234505255" fill="#44aa44" opacity="0.8" rx="1"/>
<line x1="475.62500000000006" y1="202.60782892352307" x2="475.62500000000006" y2="321.0199347589707" stroke="#ff4444" stroke-width="0.5" opacity="0.6"/>
<rect x="473.1312500000001" y="247.86263138818404" width="4.987500000000001" height="57.47082276187027" fill="#ff4444" opacity="0.8" rx="1"/>
<line x1="486.70833333333337" y1="231.20442189198994" x2="486.70833333333337" y2="258.96810438564705" stroke="#ff4444" stroke-width="0.5" opacity="0.6"/>
<rect x="484.2145833333334" y="252.0271837622328" width="4.987500000000001" height="5.136281261326445" fill="#ff4444" opacity="0.8" rx="1"/>
<line x1="497.7916666666667" y1="254.6647335991302" x2="497.7916666666667" y2="302.5570859006888" stroke="#44aa44" stroke-width="0.5" opacity="0.6"/>
<rect x="495.2979166666667" y="258.6904675607103" width="4.987500000000001" height="24.15440376948186" fill="#44aa44" opacity="0.8" rx="1"/>
<line x1="508.87500000000006" y1="253.97064153678878" x2="508.87500000000006" y2="299.64189923885465" stroke="#ff4444" stroke-width="0.5" opacity="0.6"/>
<rect x="506.3812500000001" y="276.73686118158764" width="4.987500000000001" height="5.552736498731292" fill="#ff4444" opacity="0.8" rx="1"/>
<line x1="519.9583333333334" y1="259.1069227981152" x2="519.9583333333334" y2="307.4157303370786" stroke="#44aa44" stroke-width="0.5" opacity="0.6"/>
<rect x="517.4645833333334" y="282.4284160927873" width="4.987500000000001" height="11.244291409931122" fill="#44aa44" opacity="0.8" rx="1"/>
<line x1="531.0416666666666" y1="293.5338890902501" x2="531.0416666666666" y2="335.17941283073577" stroke="#44aa44" stroke-width="0.5" opacity="0.6"/>
<rect x="528.5479166666667" y="300.61362812613277" width="4.987500000000001" height="29.29068503080822" fill="#44aa44" opacity="0.8" rx="1"/>
<line x1="542.125" y1="307.4157303370786" x2="542.125" y2="336.28996013048203" stroke="#ff4444" stroke-width="0.5" opacity="0.6"/>
<rect x="539.63125" y="321.1587531714389" width="4.987500000000001" height="14.020659659296882" fill="#ff4444" opacity="0.8" rx="1"/>
<line x1="553.2083333333334" y1="217.0449438202247" x2="553.2083333333334" y2="304.6393620877129" stroke="#ff4444" stroke-width="0.5" opacity="0.6"/>
<rect x="550.7145833333334" y="217.0449438202247" width="4.987500000000001" height="84.4015947807176" fill="#ff4444" opacity="0.8" rx="1"/>
<line x1="564.2916666666666" y1="183.86734324030442" x2="564.2916666666666" y2="231.06560347952157" stroke="#ff4444" stroke-width="0.5" opacity="0.6"/>
<rect x="561.7979166666667" y="195.25045306270394" width="4.987500000000001" height="18.462848858281944" fill="#ff4444" opacity="0.8" rx="1"/>
<line x1="575.375" y1="92.247191011236" x2="575.375" y2="192.19644798840164" stroke="#ff4444" stroke-width="0.5" opacity="0.6"/>
<rect x="572.88125" y="135.00326205146794" width="4.987500000000001" height="57.1931859369337" fill="#ff4444" opacity="0.8" rx="1"/>
<line x1="586.4583333333334" y1="50.879304095686834" x2="586.4583333333334" y2="130.56107285248288" stroke="#ff4444" stroke-width="0.5" opacity="0.6"/>
<rect x="583.9645833333334" y="76.69952881478795" width="4.987500000000001" height="50.252265313519445" fill="#ff4444" opacity="0.8" rx="1"/>
<line x1="597.5416666666666" y1="73.09025009061264" x2="597.5416666666666" y2="112.65349764407397" stroke="#ff4444" stroke-width="0.5" opacity="0.6"/>
<rect x="595.0479166666667" y="94.60710402319688" width="4.987500000000001" height="1.8046393620876415" fill="#ff4444" opacity="0.8" rx="1"/>
<line x1="608.625" y1="55.73794853207695" x2="608.625" y2="105.9902138455962" stroke="#ff4444" stroke-width="0.5" opacity="0.6"/>
<rect x="606.13125" y="87.6661833997826" width="4.987500000000001" height="1.8046393620876415" fill="#ff4444" opacity="0.8" rx="1"/>
<line x1="619.7083333333334" y1="54.48858281986233" x2="619.7083333333334" y2="149.162740123233" stroke="#ff4444" stroke-width="0.5" opacity="0.6"/>
<rect x="617.2145833333334" y="61.42950344327661" width="4.987500000000001" height="44.28307357738307" fill="#ff4444" opacity="0.8" rx="1"/>
<line x1="630.7916666666666" y1="49.768756795940575" x2="630.7916666666666" y2="113.06995288147884" stroke="#44aa44" stroke-width="0.5" opacity="0.6"/>
<rect x="628.2979166666667" y="58.93077201884738" width="4.987500000000001" height="54.13918086263146" fill="#44aa44" opacity="0.8" rx="1"/>
<line x1="641.875" y1="328.93258426966287" x2="641.875" y2="415.0" stroke="#ff4444" stroke-width="0.5" opacity="0.6"/>
<rect x="639.38125" y="352.3928959768031" width="4.987500000000001" height="45.81007611453441" fill="#ff4444" opacity="0.8" rx="1"/>
<line x1="652.9583333333334" y1="299.36426241391814" x2="652.9583333333334" y2="382.5164914824211" stroke="#ff4444" stroke-width="0.5" opacity="0.6"/>
<rect x="650.4645833333334" y="321.57520840884376" width="4.987500000000001" height="35.81515041681763" fill="#ff4444" opacity="0.8" rx="1"/>
<line x1="664.0416666666666" y1="300.4748097136644" x2="664.0416666666666" y2="345.3131569409207" stroke="#44aa44" stroke-width="0.5" opacity="0.6"/>
<rect x="661.5479166666667" y="307.4157303370786" width="4.987500000000001" height="24.432040594418368" fill="#44aa44" opacity="0.8" rx="1"/>
<line x1="675.125" y1="239.94998187749187" x2="675.125" y2="362.6654584994564" stroke="#ff4444" stroke-width="0.5" opacity="0.6"/>
<rect x="672.63125" y="295.06089162740125" width="4.987500000000001" height="47.05944182674881" fill="#ff4444" opacity="0.8" rx="1"/>
<line x1="686.2083333333334" y1="195.80572671257696" x2="686.2083333333334" y2="312.5520115984053" stroke="#ff4444" stroke-width="0.5" opacity="0.6"/>
<rect x="683.7145833333334" y="249.3896339253352" width="4.987500000000001" height="62.05183037332387" fill="#ff4444" opacity="0.8" rx="1"/>
<line x1="697.2916666666666" y1="233.28669807901412" x2="697.2916666666666" y2="279.7908662558899" stroke="#44aa44" stroke-width="0.5" opacity="0.6"/>
<rect x="694.7979166666667" y="251.7495469372961" width="4.987500000000001" height="1.5270025371511053" fill="#44aa44" opacity="0.8" rx="1"/>
<line x1="708.375" y1="201.49728162377681" x2="708.375" y2="266.0478434215295" stroke="#ff4444" stroke-width="0.5" opacity="0.6"/>
<rect x="705.88125" y="206.4947444726351" width="4.987500000000001" height="39.42442914099297" fill="#ff4444" opacity="0.8" rx="1"/>
<line x1="719.4583333333334" y1="169.98550199347585" x2="719.4583333333334" y2="241.476984414643" stroke="#44aa44" stroke-width="0.5" opacity="0.3" stroke-dasharray="4,3"/>
<rect x="716.9645833333334" y="196.36100036245017" width="4.987500000000001" height="24.98731424429141" fill="#44aa44" opacity="0.4" stroke-dasharray="4,3" rx="1"/>
<text x="739.4583333333334" y="215.34831460674158" font-family="sans-serif" font-size="9" fill="#ffd700" opacity="0.8">🕐 盘中</text>
<line x1="453.45833333333337" y1="301.86299383834717" x2="453.45833333333337" y2="266.86299383834717" stroke="#4ecdc4" stroke-width="0.8" stroke-dasharray="2,2" opacity="0.7"/>
<rect x="417.45833333333337" y="257.86299383834717" width="72" height="16" fill="#4ecdc4" opacity="0.85" rx="3"/>
<text x="453.45833333333337" y="269.86299383834717" text-anchor="middle" font-family="sans-serif" font-size="9" fill="#000000" font-weight="bold">B1乖离买入</text>
<polygon points="453.45833333333337,307.86299383834717 449.45833333333337,301.86299383834717 457.45833333333337,301.86299383834717" fill="#4ecdc4" opacity="0.9"/>
<line x1="486.70833333333337" y1="258.96810438564705" x2="486.70833333333337" y2="208.96810438564705" stroke="#4ecdc4" stroke-width="0.8" stroke-dasharray="2,2" opacity="0.7"/>
<rect x="450.70833333333337" y="199.96810438564705" width="72" height="16" fill="#4ecdc4" opacity="0.85" rx="3"/>
<text x="486.70833333333337" y="211.96810438564705" text-anchor="middle" font-family="sans-serif" font-size="9" fill="#000000" font-weight="bold">B2乖离买入</text>
<polygon points="486.70833333333337,264.96810438564705 482.70833333333337,258.96810438564705 490.70833333333337,258.96810438564705" fill="#4ecdc4" opacity="0.9"/>
<line x1="630.7916666666666" y1="113.06995288147884" x2="630.7916666666666" y2="48.06995288147884" stroke="#4ecdc4" stroke-width="0.8" stroke-dasharray="2,2" opacity="0.7"/>
<rect x="594.7916666666666" y="39.06995288147884" width="72" height="16" fill="#4ecdc4" opacity="0.85" rx="3"/>
<text x="630.7916666666666" y="51.06995288147884" text-anchor="middle" font-family="sans-serif" font-size="9" fill="#000000" font-weight="bold">B3乖离买入</text>
<polygon points="630.7916666666666,119.06995288147884 626.7916666666666,113.06995288147884 634.7916666666666,113.06995288147884" fill="#4ecdc4" opacity="0.9"/>
<line x1="686.2083333333334" y1="312.5520115984053" x2="686.2083333333334" y2="232.55201159840527" stroke="#4ecdc4" stroke-width="0.8" stroke-dasharray="2,2" opacity="0.7"/>
<rect x="650.2083333333334" y="223.55201159840527" width="72" height="16" fill="#4ecdc4" opacity="0.85" rx="3"/>
<text x="686.2083333333334" y="235.55201159840527" text-anchor="middle" font-family="sans-serif" font-size="9" fill="#000000" font-weight="bold">B4乖离买入</text>
<polygon points="686.2083333333334,318.5520115984053 682.2083333333334,312.5520115984053 690.2083333333334,312.5520115984053" fill="#4ecdc4" opacity="0.9"/>
<line x1="719.4583333333334" y1="241.476984414643" x2="719.4583333333334" y2="146.476984414643" stroke="#4ecdc4" stroke-width="0.8" stroke-dasharray="2,2" opacity="0.7"/>
<rect x="683.4583333333334" y="137.476984414643" width="72" height="16" fill="#4ecdc4" opacity="0.85" rx="3"/>
<text x="719.4583333333334" y="149.476984414643" text-anchor="middle" font-family="sans-serif" font-size="9" fill="#000000" font-weight="bold">B5乖离买入</text>
<polygon points="719.4583333333334,247.476984414643 715.4583333333334,241.476984414643 723.4583333333334,241.476984414643" fill="#4ecdc4" opacity="0.9"/>
<text x="375.0" y="435" text-anchor="middle" font-family="sans-serif" font-size="10" fill="#aaaaaa">✅ BIAS5=1.32%，乖离率买入区，趋势健康可持股</text>
<rect x="60" y="443" width="665" height="55" fill="#111122" opacity="0.5" rx="2"/>
<rect x="60" y="443" width="665" height="18.280394109267547" fill="#e94560" opacity="0.18" rx="2"/>
<rect x="60" y="461.28039410926755" width="665" height="8.414704418049325" fill="#ffd700" opacity="0.12"/>
<rect x="60" y="469.6950985273169" width="665" height="30.304901472683127" fill="#4ecdc4" opacity="0.14"/>
<text x="670" y="455.14019705463375" text-anchor="end" font-family="sans-serif" font-size="9" fill="#e94560" font-weight="bold">⚠️ 警戒区</text>
<text x="670" y="468.48774631829224" text-anchor="end" font-family="sans-serif" font-size="9" fill="#ffd700">持有区</text>
<text x="670" y="487.84754926365844" text-anchor="end" font-family="sans-serif" font-size="9" fill="#4ecdc4">买入区</text>
<line x1="60" y1="472.5" x2="725" y2="472.5" stroke="#888888" stroke-width="0.5" stroke-dasharray="3,2" opacity="0.5"/>
<text x="56" y="475.5" text-anchor="end" font-family="sans-serif" font-size="7" fill="#888888">0%</text>
<line x1="60" y1="469.6950985273169" x2="725" y2="469.6950985273169" stroke="#4ecdc4" stroke-width="0.5" stroke-dasharray="3,2" opacity="0.5"/>
<text x="56" y="472.6950985273169" text-anchor="end" font-family="sans-serif" font-size="7" fill="#4ecdc4">2%</text>
<line x1="60" y1="461.28039410926755" x2="725" y2="461.28039410926755" stroke="#e94560" stroke-width="0.5" stroke-dasharray="3,2" opacity="0.5"/>
<text x="56" y="464.28039410926755" text-anchor="end" font-family="sans-serif" font-size="7" fill="#e94560">8%</text>
<text x="60" y="445" font-family="sans-serif" font-size="8" fill="#888888">BIAS5</text>
<polyline points="65.54166666666667,472.5 76.625,472.9183743939651 87.70833333333334,475.1952800096059 98.79166666666667,478.4324776989148 109.87500000000001,477.34868580224526 120.95833333333334,475.5030880784266 132.04166666666666,474.89185125553433 143.125,477.1632380979683 154.20833333333334,468.75246155895854 165.29166666666666,472.1064589901123 176.375,473.4998450181742 187.45833333333334,476.71877079269603 198.54166666666666,478.43436924355865 209.625,477.9815374736696 220.70833333333334,475.83146886845554 231.79166666666666,479.5166772081424 242.875,478.8801750044492 253.95833333333334,481.44591477643786 265.0416666666667,478.2191285967409 276.12500000000006,472.6992542941675 287.20833333333337,471.7246119336345 298.2916666666667,471.99658887228634 309.37500000000006,472.16479365705754 320.45833333333337,474.5670842317919 331.5416666666667,471.9794092478602 342.62500000000006,476.026834884688 353.70833333333337,476.205079340953 364.7916666666667,473.691198095373 375.87500000000006,467.9386586868814 386.95833333333337,471.0552605058768 398.0416666666667,470.64424105022385 409.12500000000006,471.19297688605565 420.20833333333337,468.68192829977534 431.2916666666667,469.0042541676054 442.37500000000006,468.1629565820867 453.45833333333337,470.8511877829084 464.5416666666667,474.1620707931706 475.62500000000006,468.99902203846017 486.70833333333337,470.5379038515294 497.7916666666667,473.82936818737136 508.87500000000006,472.8627509322202 519.9583333333334,474.20684317899503 531.0416666666666,476.8348807543968 542.125,474.6386625799688 553.2083333333334,464.9298844081117 564.2916666666666,465.7448721160576 575.375,463.25328050276823 586.4583333333334,462.00917801436293 597.5416666666666,467.01513280709474 608.625,468.37316589345494 619.7083333333334,467.8463609855299 630.7916666666666,473.23376945681247 641.875,492.0833333333333 652.9583333333334,483.51760674022944 664.0416666666666,480.94198434032836 675.125,475.01384130514725 686.2083333333334,470.2649805263718 697.2916666666666,471.3464578684612 708.375,467.83399062103166 719.4583333333334,470.6430845764329" fill="none" stroke="#4ecdc4" stroke-width="1.5" opacity="0.9"/>
<circle cx="719.4583333333334" cy="470.6430845764329" r="3" fill="#4ecdc4" opacity="1"/>
<text x="724.4583333333334" y="473.6430845764329" font-family="sans-serif" font-size="9" fill="#4ecdc4" font-weight="bold">BIAS5=1.3%</text>
<text x="65.54166666666667" y="489" text-anchor="middle" font-family="sans-serif" font-size="8" fill="#666666" transform="rotate(-45,65.54166666666667,489)">02/26</text>
<text x="120.95833333333334" y="489" text-anchor="middle" font-family="sans-serif" font-size="8" fill="#666666" transform="rotate(-45,120.95833333333334,489)">03/05</text>
<text x="176.375" y="489" text-anchor="middle" font-family="sans-serif" font-size="8" fill="#666666" transform="rotate(-45,176.375,489)">03/12</text>
<text x="231.79166666666666" y="489" text-anchor="middle" font-family="sans-serif" font-size="8" fill="#666666" transform="rotate(-45,231.79166666666666,489)">03/19</text>
<text x="287.20833333333337" y="489" text-anchor="middle" font-family="sans-serif" font-size="8" fill="#666666" transform="rotate(-45,287.20833333333337,489)">03/26</text>
<text x="342.62500000000006" y="489" text-anchor="middle" font-family="sans-serif" font-size="8" fill="#666666" transform="rotate(-45,342.62500000000006,489)">04/02</text>
<text x="398.0416666666667" y="489" text-anchor="middle" font-family="sans-serif" font-size="8" fill="#666666" transform="rotate(-45,398.0416666666667,489)">04/10</text>
<text x="453.45833333333337" y="489" text-anchor="middle" font-family="sans-serif" font-size="8" fill="#666666" transform="rotate(-45,453.45833333333337,489)">04/17</text>
<text x="508.87500000000006" y="489" text-anchor="middle" font-family="sans-serif" font-size="8" fill="#666666" transform="rotate(-45,508.87500000000006,489)">04/24</text>
<text x="564.2916666666666" y="489" text-anchor="middle" font-family="sans-serif" font-size="8" fill="#666666" transform="rotate(-45,564.2916666666666,489)">05/06</text>
<text x="619.7083333333334" y="489" text-anchor="middle" font-family="sans-serif" font-size="8" fill="#666666" transform="rotate(-45,619.7083333333334,489)">05/13</text>
<text x="675.125" y="489" text-anchor="middle" font-family="sans-serif" font-size="8" fill="#666666" transform="rotate(-45,675.125,489)">05/20</text>
<text x="719.4583333333334" y="489" text-anchor="middle" font-family="sans-serif" font-size="8" fill="#666666" transform="rotate(-45,719.4583333333334,489)">05/26</text>
<rect x="60" y="484" width="8" height="8" fill="#4ecdc4" opacity="0.8" rx="1"/>
<text x="71" y="491" font-family="sans-serif" font-size="9" fill="#888888">买入区(BIAS&lt;2%)</text>
<rect x="230" y="484" width="8" height="8" fill="#ffd700" opacity="0.8" rx="1"/>
<text x="241" y="491" font-family="sans-serif" font-size="9" fill="#888888">持有区(2-8%)</text>
<rect x="400" y="484" width="8" height="8" fill="#e94560" opacity="0.8" rx="1"/>
<text x="411" y="491" font-family="sans-serif" font-size="9" fill="#888888">警戒区(&gt;8%)</text>
<rect x="570" y="484" width="8" height="8" fill="#ffd700" opacity="0.8" rx="1"/>
<text x="581" y="491" font-family="sans-serif" font-size="9" fill="#888888">EMA5</text>
<rect x="60" y="497" width="8" height="8" fill="#ff6b6b" opacity="0.8" rx="1"/>
<text x="71" y="504" font-family="sans-serif" font-size="9" fill="#888888">EMA10</text>
<rect x="230" y="497" width="8" height="8" fill="#4ecdc4" opacity="0.8" rx="1"/>
<text x="241" y="504" font-family="sans-serif" font-size="9" fill="#888888">EMA20</text>
<rect x="400" y="497" width="8" height="8" fill="#4ecdc4" opacity="0.8" rx="1"/>
<text x="411" y="504" font-family="sans-serif" font-size="9" fill="#888888">B乖离买入</text>
<rect x="570" y="497" width="8" height="8" fill="#e94560" opacity="0.8" rx="1"/>
<text x="581" y="504" font-family="sans-serif" font-size="9" fill="#888888">W警戒⚠️</text>
</svg>