<svg xmlns="http://www.w3.org/2000/svg" width="750" height="540" viewBox="0 0 750 540">
<rect width="750" height="540" fill="#1a1a2e"/>
<text x="375.0" y="22" text-anchor="middle" font-family="sans-serif" font-size="15" fill="#ffffff" font-weight="bold">步科股份(688160) 趋势交易分析图</text>
<text x="60" y="31" font-family="sans-serif" font-size="10" fill="#888888">最新: 134.53</text>
<line x1="60" y1="124.00775409056727" x2="725" y2="124.00775409056727" stroke="#4ecdc4" stroke-width="0.5" stroke-dasharray="4,3" opacity="0.4"/>
<text x="62" y="122.00775409056727" font-family="sans-serif" font-size="7" fill="#4ecdc4" opacity="0.6">买入↑2%</text>
<line x1="60" y1="65.58874281830145" x2="725" y2="65.58874281830145" stroke="#e94560" stroke-width="0.5" stroke-dasharray="4,3" opacity="0.4"/>
<text x="62" y="63.588742818301455" font-family="sans-serif" font-size="7" fill="#e94560" opacity="0.6">警戒↑8%</text>
<rect x="60" y="124.00775409056727" width="3" height="258.9922459094327" fill="#4ecdc4" opacity="0.3" rx="1"/>
<rect x="60" y="65.58874281830145" width="3" height="317.41125718169855" fill="#e94560" opacity="0.3" rx="1"/>
<rect x="60" y="65.58874281830145" width="3" height="58.41901127226582" fill="#ffd700" opacity="0.2" rx="1"/>
<line x1="60" y1="32.0" x2="725" y2="32.0" stroke="#2a2a4e" stroke-width="0.5"/>
<text x="56" y="35.0" text-anchor="end" font-family="sans-serif" font-size="8" fill="#666666">151.9</text>
<line x1="60" y1="127.75000000000004" x2="725" y2="127.75000000000004" stroke="#2a2a4e" stroke-width="0.5"/>
<text x="56" y="130.75000000000006" text-anchor="end" font-family="sans-serif" font-size="8" fill="#666666">138.5</text>
<line x1="60" y1="223.5" x2="725" y2="223.5" stroke="#2a2a4e" stroke-width="0.5"/>
<text x="56" y="226.5" text-anchor="end" font-family="sans-serif" font-size="8" fill="#666666">125.1</text>
<line x1="60" y1="319.24999999999994" x2="725" y2="319.24999999999994" stroke="#2a2a4e" stroke-width="0.5"/>
<text x="56" y="322.24999999999994" text-anchor="end" font-family="sans-serif" font-size="8" fill="#666666">111.7</text>
<line x1="60" y1="415.0" x2="725" y2="415.0" stroke="#2a2a4e" stroke-width="0.5"/>
<text x="56" y="418.0" text-anchor="end" font-family="sans-serif" font-size="8" fill="#666666">98.3</text>
<rect x="61.66250000000001" y="468.50447430748636" width="6.095833333333334" height="6.4955256925136435" fill="#44aa44" opacity="0.35"/>
<rect x="72.74583333333334" y="469.35588958397693" width="6.095833333333334" height="5.644110416023067" fill="#ff4444" opacity="0.35"/>
<rect x="83.82916666666668" y="466.78483485222944" width="6.095833333333334" height="8.21516514777057" fill="#44aa44" opacity="0.35"/>
<rect x="94.91250000000001" y="465.78645093193285" width="6.095833333333334" height="9.213549068067142" fill="#44aa44" opacity="0.35"/>
<rect x="105.99583333333335" y="468.48490822263415" width="6.095833333333334" height="6.515091777365874" fill="#ff4444" opacity="0.35"/>
<rect x="117.07916666666668" y="468.6941342292246" width="6.095833333333334" height="6.305865770775409" fill="#44aa44" opacity="0.35"/>
<rect x="128.1625" y="470.83257710328496" width="6.095833333333334" height="4.167422896715066" fill="#ff4444" opacity="0.35"/>
<rect x="139.24583333333334" y="468.59517299969104" width="6.095833333333334" height="6.404827000308928" fill="#ff4444" opacity="0.35"/>
<rect x="150.32916666666668" y="466.0770768973329" width="6.095833333333334" height="8.92292310266708" fill="#ff4444" opacity="0.35"/>
<rect x="161.4125" y="468.6950848264854" width="6.095833333333334" height="6.304915173514572" fill="#44aa44" opacity="0.35"/>
<rect x="172.49583333333334" y="470.2144861497271" width="6.095833333333334" height="4.785513850272886" fill="#44aa44" opacity="0.35"/>
<rect x="183.57916666666668" y="470.8925503295232" width="6.095833333333334" height="4.107449670476779" fill="#44aa44" opacity="0.35"/>
<rect x="194.6625" y="471.0666808258676" width="6.095833333333334" height="3.933319174132427" fill="#ff4444" opacity="0.35"/>
<rect x="205.74583333333334" y="471.7067436412316" width="6.095833333333334" height="3.293256358768407" fill="#44aa44" opacity="0.35"/>
<rect x="216.82916666666668" y="471.011640793945" width="6.095833333333334" height="3.988359206054989" fill="#ff4444" opacity="0.35"/>
<rect x="227.9125" y="470.28992572855526" width="6.095833333333334" height="4.710074271444753" fill="#44aa44" opacity="0.35"/>
<rect x="238.99583333333334" y="470.01769449593246" width="6.095833333333334" height="4.982305504067552" fill="#44aa44" opacity="0.35"/>
<rect x="250.07916666666668" y="465.7424891875193" width="6.095833333333334" height="9.257510812480692" fill="#44aa44" opacity="0.35"/>
<rect x="261.1625" y="468.5774405313562" width="6.095833333333334" height="6.422559468643806" fill="#44aa44" opacity="0.35"/>
<rect x="272.2458333333334" y="468.3415482442591" width="6.095833333333334" height="6.658451755740912" fill="#ff4444" opacity="0.35"/>
<rect x="283.3291666666667" y="469.21189437236126" width="6.095833333333334" height="5.78810562763876" fill="#44aa44" opacity="0.35"/>
<rect x="294.4125" y="469.65486368551126" width="6.095833333333334" height="5.345136314488724" fill="#ff4444" opacity="0.35"/>
<rect x="305.4958333333334" y="469.8440190248172" width="6.095833333333334" height="5.155980975182782" fill="#ff4444" opacity="0.35"/>
<rect x="316.5791666666667" y="468.92042593450725" width="6.095833333333334" height="6.07957406549274" fill="#44aa44" opacity="0.35"/>
<rect x="327.6625" y="468.09128887344247" width="6.095833333333334" height="6.908711126557512" fill="#ff4444" opacity="0.35"/>
<rect x="338.7458333333334" y="468.1854070126661" width="6.095833333333334" height="6.814592987333952" fill="#44aa44" opacity="0.35"/>
<rect x="349.8291666666667" y="468.08176488003295" width="6.095833333333334" height="6.918235119967047" fill="#44aa44" opacity="0.35"/>
<rect x="360.9125" y="470.4515182524972" width="6.095833333333334" height="4.548481747502832" fill="#44aa44" opacity="0.35"/>
<rect x="371.9958333333334" y="465.0019829317269" width="6.095833333333334" height="9.998017068273093" fill="#ff4444" opacity="0.35"/>
<rect x="383.0791666666667" y="467.06941483884253" width="6.095833333333334" height="7.930585161157451" fill="#44aa44" opacity="0.35"/>
<rect x="394.1625" y="465.80285436618266" width="6.095833333333334" height="9.197145633817321" fill="#ff4444" opacity="0.35"/>
<rect x="405.2458333333334" y="467.741671815467" width="6.095833333333334" height="7.258328184533004" fill="#44aa44" opacity="0.35"/>
<rect x="416.3291666666667" y="466.8030403665946" width="6.095833333333334" height="8.196959633405417" fill="#ff4444" opacity="0.35"/>
<rect x="427.4125" y="464.75382298424466" width="6.095833333333334" height="10.246177015755329" fill="#44aa44" opacity="0.35"/>
<rect x="438.4958333333334" y="464.4127162496138" width="6.095833333333334" height="10.58728375038616" fill="#44aa44" opacity="0.35"/>
<rect x="449.5791666666667" y="465.5198692204716" width="6.095833333333334" height="9.48013077952837" fill="#ff4444" opacity="0.35"/>
<rect x="460.6625" y="466.4479404798682" width="6.095833333333334" height="8.55205952013181" fill="#44aa44" opacity="0.35"/>
<rect x="471.7458333333334" y="466.55533994954175" width="6.095833333333334" height="8.444660050458243" fill="#ff4444" opacity="0.35"/>
<rect x="482.8291666666667" y="465.59431315003604" width="6.095833333333334" height="9.405686849963958" fill="#ff4444" opacity="0.35"/>
<rect x="493.9125" y="464.56280699721964" width="6.095833333333334" height="10.437193002780353" fill="#44aa44" opacity="0.35"/>
<rect x="504.9958333333334" y="468.02576974564926" width="6.095833333333334" height="6.974230254350736" fill="#44aa44" opacity="0.35"/>
<rect x="516.0791666666667" y="465.8335392853465" width="6.095833333333334" height="9.166460714653487" fill="#ff4444" opacity="0.35"/>
<rect x="527.1624999999999" y="464.60963404901656" width="6.095833333333334" height="10.390365950983421" fill="#44aa44" opacity="0.35"/>
<rect x="538.2458333333333" y="467.78131307280404" width="6.095833333333334" height="7.2186869271959635" fill="#ff4444" opacity="0.35"/>
<rect x="549.3291666666667" y="464.4640169652971" width="6.095833333333334" height="10.535983034702914" fill="#ff4444" opacity="0.35"/>
<rect x="560.4124999999999" y="464.7822688188652" width="6.095833333333334" height="10.217731181134797" fill="#ff4444" opacity="0.35"/>
<rect x="571.4958333333333" y="457.25944032540417" width="6.095833333333334" height="17.74055967459582" fill="#ff4444" opacity="0.35"/>
<rect x="582.5791666666667" y="450.14786904026363" width="6.095833333333334" height="24.85213095973638" fill="#ff4444" opacity="0.35"/>
<rect x="593.6624999999999" y="457.79371202759756" width="6.095833333333334" height="17.20628797240243" fill="#44aa44" opacity="0.35"/>
<rect x="604.7458333333333" y="454.9929236175471" width="6.095833333333334" height="20.007076382452887" fill="#ff4444" opacity="0.35"/>
<rect x="615.8291666666667" y="461.8718013077953" width="6.095833333333334" height="13.128198692204718" fill="#ff4444" opacity="0.35"/>
<rect x="626.9124999999999" y="460.0637563072804" width="6.095833333333334" height="14.936243692719597" fill="#44aa44" opacity="0.35"/>
<rect x="637.9958333333333" y="448.02931212027596" width="6.095833333333334" height="26.970687879724025" fill="#ff4444" opacity="0.35"/>
<rect x="649.0791666666667" y="451.3158061734116" width="6.095833333333334" height="23.684193826588405" fill="#ff4444" opacity="0.35"/>
<rect x="660.1624999999999" y="451.6427891051385" width="6.095833333333334" height="23.357210894861495" fill="#ff4444" opacity="0.35"/>
<rect x="671.2458333333333" y="457.456750077232" width="6.095833333333334" height="17.543249922767995" fill="#44aa44" opacity="0.35"/>
<rect x="682.3291666666667" y="440.0" width="6.095833333333334" height="35.0" fill="#ff4444" opacity="0.35"/>
<rect x="693.4124999999999" y="450.0988569663268" width="6.095833333333334" height="24.901143033673154" fill="#ff4444" opacity="0.35"/>
<rect x="704.4958333333333" y="455.1604494902688" width="6.095833333333334" height="19.839550509731232" fill="#ff4444" opacity="0.35"/>
<rect x="715.5791666666667" y="447.87959530429407" width="6.095833333333334" height="27.1204046957059" fill="#44aa44" opacity="0.25" stroke-dasharray="3,2"/>
<polyline points="65.54166666666667,226.32195485916805 76.625,224.86930299073552 87.70833333333334,232.9263611681071 98.79166666666667,253.20527541158015 109.87500000000001,268.03431965199036 120.95833333333334,276.72965089278375 132.04166666666666,280.9310027278758 143.125,287.35162663982373 154.20833333333334,280.08226952883103 165.29166666666666,278.1175212266447 176.375,282.3087149531856 187.45833333333334,289.3417298842291 198.54166666666666,292.83970825211117 209.625,302.9588604040997 220.70833333333334,305.27556433829244 231.79166666666666,316.5837593008252 242.875,331.4572571798451 253.95833333333334,352.82743962459114 265.0416666666667,365.5501341574872 276.12500000000006,366.6019734151947 287.20833333333337,370.89910831049673 298.2916666666667,370.04888635858646 309.37500000000006,367.8389081350969 320.45833333333337,370.41396337900323 331.5416666666667,364.60545391715925 342.62500000000006,371.8304219921521 353.70833333333337,376.0517182490738 364.7916666666667,381.69977759538455 375.87500000000006,368.5096073728604 386.95833333333337,368.24156004798914 398.0416666666667,363.51439450566056 409.12500000000006,361.8156026792074 420.20833333333337,353.32455959251763 431.2916666666667,351.7122382609572 442.37500000000006,347.27958830031605 453.45833333333337,341.70495217036546 464.5416666666667,343.2514143611676 475.62500000000006,343.9251796791916 486.70833333333337,340.77844783437746 497.7916666666667,349.5159807051045 508.87500000000006,355.8649098501604 519.9583333333334,354.19166594624255 531.0416666666666,367.03115353327195 542.125,372.73313611787233 553.2083333333334,365.05612668381696 564.2916666666666,353.07969845824067 575.375,329.6163356879473 586.4583333333334,300.85259909507994 597.5416666666666,285.1536135980506 608.625,268.13878287622316 619.7083333333334,260.8439364545709 630.7916666666666,265.1014541233545 641.875,244.29253193500008 652.9583333333334,228.65768372859972 664.0416666666666,206.4227249230894 675.125,203.03012227975898 686.2083333333334,177.45451539411656 697.2916666666666,152.52168837006272 708.375,137.20957176545488 719.4583333333334,143.48075784798908" fill="none" stroke="#ffd700" stroke-width="1" opacity="0.7"/>
<polyline points="65.54166666666667,226.32195485916805 76.625,225.5295992945685 87.70833333333334,229.80430442698332 98.79166666666667,241.43317705817293 109.87500000000001,251.66212816265255 120.95833333333334,259.38179820114675 132.04166666666666,264.8275996914946 143.125,271.2576496500809 154.20833333333334,270.2187234058564 165.29166666666666,270.94041453611374 176.375,274.53144869432344 187.45833333333334,279.781687067413 198.54166666666666,283.42786487113347 209.625,290.6586466596686 220.70833333333334,294.1587058500339 231.79166666666666,302.34805919109886 242.875,313.0491853268781 253.95833333333334,328.0525706336427 265.0416666666667,339.4967438317584 276.12500000000006,344.80745439518597 287.20833333333337,351.1139859780796 298.2916666666667,354.2475235192952 309.37500000000006,355.9150559136266 320.45833333333337,359.48760463238824 331.5416666666667,358.30593742531244 342.62500000000006,363.39219573746254 353.70833333333337,367.2289439239088 364.7916666666667,371.9138443537447 375.87500000000006,366.4984666399388 386.95833333333337,366.7179209596311 398.0416666666667,364.4164923162443 409.12500000000006,363.32586080898193 420.20833333333337,358.4197903744649 431.2916666666667,356.6139367787143 442.37500000000006,353.3049097969541 453.45833333333337,349.16868618122874 464.5416666666667,348.65516846514566 475.62500000000006,348.0401760742537 486.70833333333337,345.57559572343473 497.7916666666667,349.46931403673 508.87500000000006,352.940851146465 519.9583333333334,352.55981969045445 531.0416666666666,359.859875875341 542.125,364.27391685929234 553.2083333333334,361.6244970331858 564.2916666666666,355.7158324829862 575.375,342.43833751287247 586.4583333333334,324.4177535849584 597.5416666666666,311.5700970429645 608.625,297.4862832956197 619.7083333333334,288.1713669893737 630.7916666666666,285.5250256205642 641.875,270.46132779106006 652.9583333333334,257.1752658864672 664.0416666666666,239.8620916002129 675.125,231.93169621710118 686.2083333333334,212.72653356359754 697.2916666666666,192.71371551966251 708.375,177.05401061722188 719.4583333333334,173.2302141437374" fill="none" stroke="#ff6b6b" stroke-width="1" opacity="0.7"/>
<polyline points="65.54166666666667,226.32195485916805 76.625,225.90691146818736 87.70833333333334,228.1101082352981 98.79166666666667,234.36277448893887 109.87500000000001,240.3941681693076 120.95833333333334,245.51094390312304 132.04166666666666,249.68454033121228 143.125,254.4948578676415 154.20833333333334,255.54711476661336 165.29166666666666,257.3224395147713 176.375,260.50040740919945 187.45833333333334,264.5868219174962 198.54166666666666,267.9438545908656 209.625,273.2060746020286 220.70833333333334,276.70158865961423 231.79166666666666,282.65383252306924 242.875,290.13482494352775 253.95833333333334,300.1760610931045 265.0416666666667,308.8255336769306 276.12500000000006,314.528402082043 287.20833333333337,320.7155426552865 298.2916666666667,325.252009302856 309.37500000000006,328.8869561966905 320.45833333333337,333.33239597479763 331.5416666666667,335.20439969086175 342.62500000000006,340.0687766862214 353.70833333333337,344.299779931621 364.7916666666667,348.9375052988957 375.87500000000006,348.28910164450673 386.95833333333337,350.13827914486285 398.0416666666667,350.5117824092572 409.12500000000006,351.2647573251661 420.20833333333337,349.843587429354 431.2916666666667,349.71444535016184 442.37500000000006,348.6382399243401 453.45833333333337,346.91609135158996 464.5416666666667,346.86163872217867 475.62500000000006,346.7103122072321 486.70833333333337,345.5459952489004 497.7916666666667,347.5883810772488 508.87500000000006,349.5859417499177 519.9583333333334,349.70586902501196 531.0416666666666,353.80151280428043 542.125,356.69061646930834 553.2083333333334,356.0250442165843 564.2916666666666,353.4633106728228 575.375,346.72295824182646 586.4583333333334,336.87554563873294 597.5416666666666,328.959364397329 608.625,319.9260079244947 619.7083333333334,312.90964941847295 630.7916666666666,309.16744370822994 641.875,299.0252764558548 652.9583333333334,289.3455346329923 664.0416666666666,277.2128939357615 675.125,269.5016580364603 686.2083333333334,255.86371933040036 697.2916666666666,241.27251123435786 708.375,228.4451614554895 719.4583333333334,221.54782512763884" fill="none" stroke="#4ecdc4" stroke-width="1" opacity="0.7"/>
<line x1="65.54166666666667" y1="217.24883417272898" x2="65.54166666666667" y2="242.32493937698186" stroke="#44aa44" stroke-width="0.5" opacity="0.6"/>
<rect x="63.04791666666667" y="224.10725610893485" width="4.987500000000001" height="2.2146987502331967" fill="#44aa44" opacity="0.8" rx="1"/>
<line x1="76.625" y1="214.81980973698936" x2="76.625" y2="240.68177578809915" stroke="#ff4444" stroke-width="0.5" opacity="0.6"/>
<rect x="74.13125" y="221.96399925387053" width="4.987500000000001" height="10.787726170490487" fill="#ff4444" opacity="0.8" rx="1"/>
<line x1="87.70833333333334" y1="224.10725610893485" x2="87.70833333333334" y2="255.1130386121992" stroke="#44aa44" stroke-width="0.5" opacity="0.6"/>
<rect x="85.21458333333334" y="245.53982465957841" width="4.987500000000001" height="3.5006528632717107" fill="#44aa44" opacity="0.8" rx="1"/>
<line x1="98.79166666666667" y1="225.03600074612936" x2="98.79166666666667" y2="295.54915127774666" stroke="#44aa44" stroke-width="0.5" opacity="0.6"/>
<rect x="96.29791666666667" y="253.39843312814767" width="4.987500000000001" height="40.364670770378694" fill="#44aa44" opacity="0.8" rx="1"/>
<line x1="109.87500000000001" y1="276.4027233725051" x2="109.87500000000001" y2="310.62339115836596" stroke="#ff4444" stroke-width="0.5" opacity="0.6"/>
<rect x="107.38125000000001" y="297.692408132811" width="4.987500000000001" height="12.145122178698045" fill="#ff4444" opacity="0.8" rx="1"/>
<line x1="120.95833333333334" y1="276.4027233725051" x2="120.95833333333334" y2="306.9084126095878" stroke="#44aa44" stroke-width="0.5" opacity="0.6"/>
<rect x="118.46458333333334" y="281.2607722439843" width="4.987500000000001" height="12.859541130386106" fill="#44aa44" opacity="0.8" rx="1"/>
<line x1="132.04166666666666" y1="282.1180749860101" x2="132.04166666666666" y2="304.12217869800406" stroke="#ff4444" stroke-width="0.5" opacity="0.6"/>
<rect x="129.54791666666665" y="289.33370639806003" width="4.987500000000001" height="4.786606976310395" fill="#ff4444" opacity="0.8" rx="1"/>
<line x1="143.125" y1="294.6204066405522" x2="143.125" y2="336.1995896288006" stroke="#ff4444" stroke-width="0.5" opacity="0.6"/>
<rect x="140.63125" y="300.1928744637195" width="4.987500000000001" height="15.21712367095688" fill="#ff4444" opacity="0.8" rx="1"/>
<line x1="154.20833333333334" y1="256.39899272523775" x2="154.20833333333334" y2="292.4771497854877" stroke="#ff4444" stroke-width="0.5" opacity="0.6"/>
<rect x="151.71458333333334" y="265.5435553068457" width="4.987500000000001" height="15.71721693713863" fill="#ff4444" opacity="0.8" rx="1"/>
<line x1="165.29166666666666" y1="254.54150345084875" x2="165.29166666666666" y2="275.9026301063234" stroke="#44aa44" stroke-width="0.5" opacity="0.6"/>
<rect x="162.79791666666665" y="272.68774482372686" width="4.987500000000001" height="1.5002797985451366" fill="#44aa44" opacity="0.8" rx="1"/>
<line x1="176.375" y1="270.3301622831561" x2="176.375" y2="293.40589442268237" stroke="#44aa44" stroke-width="0.5" opacity="0.6"/>
<rect x="173.88125" y="280.6892370826338" width="4.987500000000001" height="10.001865323633638" fill="#44aa44" opacity="0.8" rx="1"/>
<line x1="187.45833333333334" y1="285.1186345831002" x2="187.45833333333334" y2="306.9084126095878" stroke="#44aa44" stroke-width="0.5" opacity="0.6"/>
<rect x="184.96458333333334" y="299.40701361686257" width="4.987500000000001" height="4.0007461294533755" fill="#44aa44" opacity="0.8" rx="1"/>
<line x1="198.54166666666666" y1="297.692408132811" x2="198.54166666666666" y2="316.8388360380526" stroke="#ff4444" stroke-width="0.5" opacity="0.6"/>
<rect x="196.04791666666665" y="299.8356649878753" width="4.987500000000001" height="7.572840887894131" fill="#ff4444" opacity="0.8" rx="1"/>
<line x1="209.625" y1="292.0484984144749" x2="209.625" y2="323.8401417645961" stroke="#44aa44" stroke-width="0.5" opacity="0.6"/>
<rect x="207.13125" y="292.0484984144749" width="4.987500000000001" height="31.148666293601934" fill="#44aa44" opacity="0.8" rx="1"/>
<line x1="220.70833333333334" y1="309.9089722066779" x2="220.70833333333334" y2="331.27009886215257" stroke="#ff4444" stroke-width="0.5" opacity="0.6"/>
<rect x="218.21458333333334" y="309.9089722066779" width="4.987500000000001" height="13.359634396567742" fill="#ff4444" opacity="0.8" rx="1"/>
<line x1="231.79166666666666" y1="320.5538145868308" x2="231.79166666666666" y2="343.5581048311882" stroke="#44aa44" stroke-width="0.5" opacity="0.6"/>
<rect x="229.29791666666665" y="329.9841447491139" width="4.987500000000001" height="9.216004476776732" fill="#44aa44" opacity="0.8" rx="1"/>
<line x1="242.875" y1="327.698004103712" x2="242.875" y2="362.4187651557545" stroke="#44aa44" stroke-width="0.5" opacity="0.6"/>
<rect x="240.38125" y="342.4150345084872" width="4.987500000000001" height="18.789218429397465" fill="#44aa44" opacity="0.8" rx="1"/>
<line x1="253.95833333333334" y1="338.1999626935273" x2="253.95833333333334" y2="402.64055213579553" stroke="#44aa44" stroke-width="0.5" opacity="0.6"/>
<rect x="251.46458333333334" y="369.2057451967916" width="4.987500000000001" height="26.362059317291596" fill="#44aa44" opacity="0.8" rx="1"/>
<line x1="265.0416666666667" y1="374.0637940682708" x2="265.0416666666667" y2="415.0" stroke="#44aa44" stroke-width="0.5" opacity="0.6"/>
<rect x="262.5479166666667" y="381.92240253684014" width="4.987500000000001" height="9.073120686439097" fill="#44aa44" opacity="0.8" rx="1"/>
<line x1="276.12500000000006" y1="362.70453273642977" x2="276.12500000000006" y2="391.2812908039545" stroke="#ff4444" stroke-width="0.5" opacity="0.6"/>
<rect x="273.6312500000001" y="368.7056519306099" width="4.987500000000001" height="22.00410371199399" fill="#ff4444" opacity="0.8" rx="1"/>
<line x1="287.20833333333337" y1="355.5603432195486" x2="287.20833333333337" y2="386.1374743518001" stroke="#44aa44" stroke-width="0.5" opacity="0.6"/>
<rect x="284.7145833333334" y="374.13523596343964" width="4.987500000000001" height="5.358142137660934" fill="#44aa44" opacity="0.8" rx="1"/>
<line x1="298.2916666666667" y1="361.34713672822227" x2="298.2916666666667" y2="402.3547845551203" stroke="#ff4444" stroke-width="0.5" opacity="0.6"/>
<rect x="295.7979166666667" y="368.34844245476586" width="4.987500000000001" height="34.00634210035446" fill="#ff4444" opacity="0.8" rx="1"/>
<line x1="309.37500000000006" y1="356.27476217123666" x2="309.37500000000006" y2="385.9231486662937" stroke="#ff4444" stroke-width="0.5" opacity="0.6"/>
<rect x="306.8812500000001" y="363.4189516881179" width="4.987500000000001" height="21.36112665547472" fill="#ff4444" opacity="0.8" rx="1"/>
<line x1="320.45833333333337" y1="347.0587576944599" x2="320.45833333333337" y2="378.4931915687372" stroke="#44aa44" stroke-width="0.5" opacity="0.6"/>
<rect x="317.9645833333334" y="363.34750979294904" width="4.987500000000001" height="12.216564073866891" fill="#44aa44" opacity="0.8" rx="1"/>
<line x1="331.5416666666667" y1="349.6306659205371" x2="331.5416666666667" y2="366.2766274948704" stroke="#ff4444" stroke-width="0.5" opacity="0.6"/>
<rect x="329.0479166666667" y="352.9884349934714" width="4.987500000000001" height="7.715724678231709" fill="#ff4444" opacity="0.8" rx="1"/>
<line x1="342.62500000000006" y1="357.6321581794441" x2="342.62500000000006" y2="390.7097556426039" stroke="#44aa44" stroke-width="0.5" opacity="0.6"/>
<rect x="340.1312500000001" y="360.91848535720953" width="4.987500000000001" height="25.361872784928153" fill="#44aa44" opacity="0.8" rx="1"/>
<line x1="353.70833333333337" y1="361.56146241372875" x2="353.70833333333337" y2="393.0673381831748" stroke="#44aa44" stroke-width="0.5" opacity="0.6"/>
<rect x="351.2145833333334" y="384.13710128707334" width="4.987500000000001" height="0.5" fill="#44aa44" opacity="0.8" rx="1"/>
<line x1="364.7916666666667" y1="379.9220294721134" x2="364.7916666666667" y2="398.42548032083573" stroke="#44aa44" stroke-width="0.5" opacity="0.6"/>
<rect x="362.2979166666667" y="388.066405521358" width="4.987500000000001" height="4.929490766647973" fill="#44aa44" opacity="0.8" rx="1"/>
<line x1="375.87500000000006" y1="339.0572654355531" x2="375.87500000000006" y2="368.41988434993476" stroke="#ff4444" stroke-width="0.5" opacity="0.6"/>
<rect x="373.3812500000001" y="342.1292669278119" width="4.987500000000001" height="26.290617422122864" fill="#ff4444" opacity="0.8" rx="1"/>
<line x1="386.95833333333337" y1="354.2029472113411" x2="386.95833333333337" y2="373.4208170117516" stroke="#44aa44" stroke-width="0.5" opacity="0.6"/>
<rect x="384.4645833333334" y="355.98899459056145" width="4.987500000000001" height="11.716470807685084" fill="#44aa44" opacity="0.8" rx="1"/>
<line x1="398.0416666666667" y1="324.6974445066219" x2="398.0416666666667" y2="360.84704346204063" stroke="#ff4444" stroke-width="0.5" opacity="0.6"/>
<rect x="395.5479166666667" y="354.0600634210035" width="4.987500000000001" height="5.786793508673782" fill="#ff4444" opacity="0.8" rx="1"/>
<line x1="409.12500000000006" y1="341.9863831374744" x2="409.12500000000006" y2="368.6342100354412" stroke="#44aa44" stroke-width="0.5" opacity="0.6"/>
<rect x="406.6312500000001" y="356.20332027606787" width="4.987500000000001" height="2.21469875023314" fill="#44aa44" opacity="0.8" rx="1"/>
<line x1="420.20833333333337" y1="334.913635515762" x2="420.20833333333337" y2="359.77541503450846" stroke="#ff4444" stroke-width="0.5" opacity="0.6"/>
<rect x="417.7145833333334" y="336.3424734191382" width="4.987500000000001" height="9.216004476776789" fill="#ff4444" opacity="0.8" rx="1"/>
<line x1="431.2916666666667" y1="311.2663682148853" x2="431.2916666666667" y2="351.48815519492626" stroke="#44aa44" stroke-width="0.5" opacity="0.6"/>
<rect x="428.7979166666667" y="326.48349188584217" width="4.987500000000001" height="22.00410371199405" fill="#44aa44" opacity="0.8" rx="1"/>
<line x1="442.37500000000006" y1="314.90990486849466" x2="442.37500000000006" y2="350.1307591867189" stroke="#44aa44" stroke-width="0.5" opacity="0.6"/>
<rect x="439.8812500000001" y="322.1255362805446" width="4.987500000000001" height="16.28875209848917" fill="#44aa44" opacity="0.8" rx="1"/>
<line x1="453.45833333333337" y1="324.26879313560903" x2="453.45833333333337" y2="358.84667039731397" stroke="#ff4444" stroke-width="0.5" opacity="0.6"/>
<rect x="450.9645833333334" y="330.5556799104645" width="4.987500000000001" height="15.002797985450457" fill="#ff4444" opacity="0.8" rx="1"/>
<line x1="464.5416666666667" y1="324.1259093452714" x2="464.5416666666667" y2="348.7733631785115" stroke="#44aa44" stroke-width="0.5" opacity="0.6"/>
<rect x="462.0479166666667" y="324.19735124044024" width="4.987500000000001" height="22.146987502331626" fill="#44aa44" opacity="0.8" rx="1"/>
<line x1="475.62500000000006" y1="327.698004103712" x2="475.62500000000006" y2="366.1337437045327" stroke="#ff4444" stroke-width="0.5" opacity="0.6"/>
<rect x="473.1312500000001" y="345.27271031523964" width="4.987500000000001" height="3.6435366536094307" fill="#ff4444" opacity="0.8" rx="1"/>
<line x1="486.70833333333337" y1="326.4120499906733" x2="486.70833333333337" y2="359.56108934900203" stroke="#ff4444" stroke-width="0.5" opacity="0.6"/>
<rect x="484.2145833333334" y="334.48498414474915" width="4.987500000000001" height="15.074239880619245" fill="#ff4444" opacity="0.8" rx="1"/>
<line x1="497.7916666666667" y1="334.48498414474915" x2="497.7916666666667" y2="378.9932848349189" stroke="#44aa44" stroke-width="0.5" opacity="0.6"/>
<rect x="495.2979166666667" y="334.48498414474915" width="4.987500000000001" height="32.50606230180932" fill="#44aa44" opacity="0.8" rx="1"/>
<line x1="508.87500000000006" y1="357.5607162842754" x2="508.87500000000006" y2="377.7073307218802" stroke="#44aa44" stroke-width="0.5" opacity="0.6"/>
<rect x="506.3812500000001" y="368.2055586644283" width="4.987500000000001" height="0.5" fill="#44aa44" opacity="0.8" rx="1"/>
<line x1="519.9583333333334" y1="339.62880059690355" x2="519.9583333333334" y2="374.9210968102966" stroke="#ff4444" stroke-width="0.5" opacity="0.6"/>
<rect x="517.4645833333334" y="350.84517813840694" width="4.987500000000001" height="21.86121992165647" fill="#ff4444" opacity="0.8" rx="1"/>
<line x1="531.0416666666666" y1="359.8468569296773" x2="531.0416666666666" y2="396.42510725610896" stroke="#44aa44" stroke-width="0.5" opacity="0.6"/>
<rect x="528.5479166666667" y="359.8468569296773" width="4.987500000000001" height="32.86327177765338" fill="#44aa44" opacity="0.8" rx="1"/>
<line x1="542.125" y1="375.92128334265993" x2="542.125" y2="401.06883044208166" stroke="#ff4444" stroke-width="0.5" opacity="0.6"/>
<rect x="539.63125" y="384.13710128707334" width="4.987500000000001" height="12.145122178697932" fill="#ff4444" opacity="0.8" rx="1"/>
<line x1="553.2083333333334" y1="338.5571721693713" x2="553.2083333333334" y2="388.9237082633837" stroke="#ff4444" stroke-width="0.5" opacity="0.6"/>
<rect x="550.7145833333334" y="349.70210781570603" width="4.987500000000001" height="39.221600447677645" fill="#ff4444" opacity="0.8" rx="1"/>
<line x1="564.2916666666666" y1="319.1249766834545" x2="564.2916666666666" y2="347.3445252751352" stroke="#ff4444" stroke-width="0.5" opacity="0.6"/>
<rect x="561.7979166666667" y="329.1268420070882" width="4.987500000000001" height="18.217683268046983" fill="#ff4444" opacity="0.8" rx="1"/>
<line x1="575.375" y1="274.83100167879115" x2="575.375" y2="338.3428464838649" stroke="#ff4444" stroke-width="0.5" opacity="0.6"/>
<rect x="572.88125" y="282.68961014736055" width="4.987500000000001" height="42.50792762544302" fill="#ff4444" opacity="0.8" rx="1"/>
<line x1="586.4583333333334" y1="210.67617981719826" x2="586.4583333333334" y2="287.11900764782683" stroke="#ff4444" stroke-width="0.5" opacity="0.6"/>
<rect x="583.9645833333334" y="243.32512590934525" width="4.987500000000001" height="36.50680843126284" fill="#ff4444" opacity="0.8" rx="1"/>
<line x1="597.5416666666666" y1="243.53945159485167" x2="597.5416666666666" y2="276.9742585338556" stroke="#44aa44" stroke-width="0.5" opacity="0.6"/>
<rect x="595.0479166666667" y="249.111919418019" width="4.987500000000001" height="4.643723185972789" fill="#44aa44" opacity="0.8" rx="1"/>
<line x1="608.625" y1="197.31654542063043" x2="608.625" y2="245.32549897407193" stroke="#ff4444" stroke-width="0.5" opacity="0.6"/>
<rect x="606.13125" y="234.10912143256857" width="4.987500000000001" height="5.000932661816734" fill="#ff4444" opacity="0.8" rx="1"/>
<line x1="619.7083333333334" y1="240.0387987315799" x2="619.7083333333334" y2="274.97388546912885" stroke="#ff4444" stroke-width="0.5" opacity="0.6"/>
<rect x="617.2145833333334" y="246.25424361126647" width="4.987500000000001" height="5.643909718336175" fill="#ff4444" opacity="0.8" rx="1"/>
<line x1="630.7916666666666" y1="216.96306659205368" x2="630.7916666666666" y2="274.0451408319343" stroke="#44aa44" stroke-width="0.5" opacity="0.6"/>
<rect x="628.2979166666667" y="236.46670397313935" width="4.987500000000001" height="37.14978548778217" fill="#44aa44" opacity="0.8" rx="1"/>
<line x1="641.875" y1="162.23857489274386" x2="641.875" y2="279.8319343406081" stroke="#ff4444" stroke-width="0.5" opacity="0.6"/>
<rect x="639.38125" y="202.6746875582913" width="4.987500000000001" height="69.72728968476034" fill="#ff4444" opacity="0.8" rx="1"/>
<line x1="652.9583333333334" y1="167.2395075545606" x2="652.9583333333334" y2="220.96381272150714" stroke="#ff4444" stroke-width="0.5" opacity="0.6"/>
<rect x="650.4645833333334" y="197.3879873157992" width="4.987500000000001" height="23.075732139526224" fill="#ff4444" opacity="0.8" rx="1"/>
<line x1="664.0416666666666" y1="131.23279238947953" x2="664.0416666666666" y2="177.5271404588695" stroke="#ff4444" stroke-width="0.5" opacity="0.6"/>
<rect x="661.5479166666667" y="161.95280731206867" width="4.987500000000001" height="12.145122178697932" fill="#ff4444" opacity="0.8" rx="1"/>
<line x1="675.125" y1="177.6700242492072" x2="675.125" y2="204.31785114717403" stroke="#44aa44" stroke-width="0.5" opacity="0.6"/>
<rect x="672.63125" y="181.24211900764777" width="4.987500000000001" height="15.002797985450428" fill="#44aa44" opacity="0.8" rx="1"/>
<line x1="686.2083333333334" y1="63.72020145495243" x2="686.2083333333334" y2="209.81887707517248" stroke="#ff4444" stroke-width="0.5" opacity="0.6"/>
<rect x="683.7145833333334" y="126.3033016228315" width="4.987500000000001" height="69.51296399925383" fill="#ff4444" opacity="0.8" rx="1"/>
<line x1="697.2916666666666" y1="86.0815146427905" x2="697.2916666666666" y2="156.9518746502517" stroke="#ff4444" stroke-width="0.5" opacity="0.6"/>
<rect x="694.7979166666667" y="102.65603432195478" width="4.987500000000001" height="30.93434060809558" fill="#ff4444" opacity="0.8" rx="1"/>
<line x1="708.375" y1="81.22346577131124" x2="708.375" y2="140.02014549524327" stroke="#ff4444" stroke-width="0.5" opacity="0.6"/>
<rect x="705.88125" y="106.5853385562395" width="4.987500000000001" height="6.215444879686473" fill="#ff4444" opacity="0.8" rx="1"/>
<line x1="719.4583333333334" y1="32.0" x2="719.4583333333334" y2="167.81104271591119" stroke="#44aa44" stroke-width="0.5" opacity="0.3" stroke-dasharray="4,3"/>
<rect x="716.9645833333334" y="102.65603432195478" width="4.987500000000001" height="53.36709569110242" fill="#44aa44" opacity="0.4" stroke-dasharray="4,3" rx="1"/>
<text x="739.4583333333334" y="150.0231300130572" font-family="sans-serif" font-size="9" fill="#ffd700" opacity="0.8">🕐 盘中</text>
<line x1="486.70833333333337" y1="359.56108934900203" x2="486.70833333333337" y2="324.56108934900203" stroke="#4ecdc4" stroke-width="0.8" stroke-dasharray="2,2" opacity="0.7"/>
<rect x="450.70833333333337" y="315.56108934900203" width="72" height="16" fill="#4ecdc4" opacity="0.85" rx="3"/>
<text x="486.70833333333337" y="327.56108934900203" text-anchor="middle" font-family="sans-serif" font-size="9" fill="#000000" font-weight="bold">B1乖离买入</text>
<polygon points="486.70833333333337,365.56108934900203 482.70833333333337,359.56108934900203 490.70833333333337,359.56108934900203" fill="#4ecdc4" opacity="0.9"/>
<line x1="519.9583333333334" y1="374.9210968102966" x2="519.9583333333334" y2="324.9210968102966" stroke="#4ecdc4" stroke-width="0.8" stroke-dasharray="2,2" opacity="0.7"/>
<rect x="483.95833333333337" y="315.9210968102966" width="72" height="16" fill="#4ecdc4" opacity="0.85" rx="3"/>
<text x="519.9583333333334" y="327.9210968102966" text-anchor="middle" font-family="sans-serif" font-size="9" fill="#000000" font-weight="bold">B2乖离买入</text>
<polygon points="519.9583333333334,380.9210968102966 515.9583333333334,374.9210968102966 523.9583333333334,374.9210968102966" fill="#4ecdc4" opacity="0.9"/>
<line x1="619.7083333333334" y1="274.97388546912885" x2="619.7083333333334" y2="209.97388546912885" stroke="#4ecdc4" stroke-width="0.8" stroke-dasharray="2,2" opacity="0.7"/>
<rect x="583.7083333333334" y="200.97388546912885" width="72" height="16" fill="#4ecdc4" opacity="0.85" rx="3"/>
<text x="619.7083333333334" y="212.97388546912885" text-anchor="middle" font-family="sans-serif" font-size="9" fill="#000000" font-weight="bold">B3乖离买入</text>
<polygon points="619.7083333333334,280.97388546912885 615.7083333333334,274.97388546912885 623.7083333333334,274.97388546912885" fill="#4ecdc4" opacity="0.9"/>
<line x1="675.125" y1="204.31785114717403" x2="675.125" y2="124.31785114717403" stroke="#4ecdc4" stroke-width="0.8" stroke-dasharray="2,2" opacity="0.7"/>
<rect x="639.125" y="115.31785114717403" width="72" height="16" fill="#4ecdc4" opacity="0.85" rx="3"/>
<text x="675.125" y="127.31785114717403" text-anchor="middle" font-family="sans-serif" font-size="9" fill="#000000" font-weight="bold">B4乖离买入</text>
<polygon points="675.125,210.31785114717403 671.125,204.31785114717403 679.125,204.31785114717403" fill="#4ecdc4" opacity="0.9"/>
<line x1="719.4583333333334" y1="167.81104271591119" x2="719.4583333333334" y2="72.81104271591119" stroke="#4ecdc4" stroke-width="0.8" stroke-dasharray="2,2" opacity="0.7"/>
<rect x="683.4583333333334" y="63.811042715911185" width="72" height="16" fill="#4ecdc4" opacity="0.85" rx="3"/>
<text x="719.4583333333334" y="75.81104271591119" text-anchor="middle" font-family="sans-serif" font-size="9" fill="#000000" font-weight="bold">B5乖离买入</text>
<polygon points="719.4583333333334,173.81104271591119 715.4583333333334,167.81104271591119 723.4583333333334,167.81104271591119" fill="#4ecdc4" opacity="0.9"/>
<text x="375.0" y="435" text-anchor="middle" font-family="sans-serif" font-size="10" fill="#aaaaaa">✅ BIAS5=-1.29%，乖离率买入区，可逢低吸纳</text>
<rect x="60" y="443" width="665" height="55" fill="#111122" opacity="0.5" rx="2"/>
<rect x="60" y="443" width="665" height="16.96666666666664" fill="#e94560" opacity="0.18" rx="2"/>
<rect x="60" y="459.96666666666664" width="665" height="9.400000000000034" fill="#ffd700" opacity="0.12"/>
<rect x="60" y="469.3666666666667" width="665" height="30.633333333333326" fill="#4ecdc4" opacity="0.14"/>
<text x="670" y="454.48333333333335" text-anchor="end" font-family="sans-serif" font-size="9" fill="#e94560" font-weight="bold">⚠️ 警戒区</text>
<text x="670" y="467.66666666666663" text-anchor="end" font-family="sans-serif" font-size="9" fill="#ffd700">持有区</text>
<text x="670" y="487.68333333333334" text-anchor="end" font-family="sans-serif" font-size="9" fill="#4ecdc4">买入区</text>
<line x1="60" y1="472.5" x2="725" y2="472.5" stroke="#888888" stroke-width="0.5" stroke-dasharray="3,2" opacity="0.5"/>
<text x="56" y="475.5" text-anchor="end" font-family="sans-serif" font-size="7" fill="#888888">0%</text>
<line x1="60" y1="469.3666666666667" x2="725" y2="469.3666666666667" stroke="#4ecdc4" stroke-width="0.5" stroke-dasharray="3,2" opacity="0.5"/>
<text x="56" y="472.3666666666667" text-anchor="end" font-family="sans-serif" font-size="7" fill="#4ecdc4">2%</text>
<line x1="60" y1="459.96666666666664" x2="725" y2="459.96666666666664" stroke="#e94560" stroke-width="0.5" stroke-dasharray="3,2" opacity="0.5"/>
<text x="56" y="462.96666666666664" text-anchor="end" font-family="sans-serif" font-size="7" fill="#e94560">8%</text>
<text x="60" y="445" font-family="sans-serif" font-size="8" fill="#888888">BIAS5</text>
<polyline points="65.54166666666667,472.5 76.625,471.9898758051315 87.70833333333334,475.35515924672393 98.79166666666667,479.85486861274376 109.87500000000001,477.972208603062 120.95833333333334,475.7419477919514 132.04166666666666,474.07429283035646 143.125,474.92449461700573 154.20833333333334,469.7788537159576 165.29166666666666,471.7662559183037 176.375,474.0730782585629 187.45833333333334,475.1621245717782 198.54166666666666,473.8296674429107 209.625,476.39434584098166 220.70833333333334,473.39412545965075 231.79166666666666,476.9260157073894 242.875,478.43167715393946 253.95833333333334,481.260905119446 265.0416666666667,477.8040793826166 276.12500000000006,472.9391253541308 287.20833333333337,474.30431272565863 298.2916666666667,472.14340881309175 309.37500000000006,471.57584785554 320.45833333333337,473.58053072606185 331.5416666666667,470.08147776891946 342.62500000000006,475.537463758705 353.70833333333337,474.2847927429896 364.7916666666667,474.9063778345961 375.87500000000006,466.9792917442246 386.95833333333337,472.38784970998387 398.0416666666667,470.53457270914316 409.12500000000006,471.7952769852659 420.20833333333337,469.0167523050945 431.2916666666667,471.83997691420427 442.37500000000006,470.69588940867186 453.45833333333337,470.24740679929494 464.5416666666667,473.1261415808062 475.62500000000006,472.7730361596527 486.70833333333337,471.22998930160173 497.7916666666667,476.0665801531691 508.87500000000006,475.11318781921864 519.9583333333334,471.81281151227347 531.0416666666666,477.8633389661563 542.125,474.9000892893527 553.2083333333334,469.30156429238025 564.2916666666666,467.5885307879537 575.375,463.16448599888884 586.4583333333334,461.45886739732845 597.5416666666666,466.58756072332477 608.625,466.22042068289466 619.7083333333334,469.8306630595572 630.7916666666666,474.0656995632711 641.875,465.02997021054125 652.9583333333334,466.98613783413487 664.0416666666666,464.84996061310335 675.125,471.3370916340382 686.2083333333334,463.97186212308213 697.2916666666666,464.4010876773666 708.375,467.6038964312483 719.4583333333334,474.51814949934993" fill="none" stroke="#4ecdc4" stroke-width="1.5" opacity="0.9"/>
<circle cx="719.4583333333334" cy="474.51814949934993" r="3" fill="#4ecdc4" opacity="1"/>
<text x="724.4583333333334" y="477.51814949934993" font-family="sans-serif" font-size="9" fill="#4ecdc4" font-weight="bold">BIAS5=-1.3%</text>
<text x="65.54166666666667" y="489" text-anchor="middle" font-family="sans-serif" font-size="8" fill="#666666" transform="rotate(-45,65.54166666666667,489)">02/26</text>
<text x="120.95833333333334" y="489" text-anchor="middle" font-family="sans-serif" font-size="8" fill="#666666" transform="rotate(-45,120.95833333333334,489)">03/05</text>
<text x="176.375" y="489" text-anchor="middle" font-family="sans-serif" font-size="8" fill="#666666" transform="rotate(-45,176.375,489)">03/12</text>
<text x="231.79166666666666" y="489" text-anchor="middle" font-family="sans-serif" font-size="8" fill="#666666" transform="rotate(-45,231.79166666666666,489)">03/19</text>
<text x="287.20833333333337" y="489" text-anchor="middle" font-family="sans-serif" font-size="8" fill="#666666" transform="rotate(-45,287.20833333333337,489)">03/26</text>
<text x="342.62500000000006" y="489" text-anchor="middle" font-family="sans-serif" font-size="8" fill="#666666" transform="rotate(-45,342.62500000000006,489)">04/02</text>
<text x="398.0416666666667" y="489" text-anchor="middle" font-family="sans-serif" font-size="8" fill="#666666" transform="rotate(-45,398.0416666666667,489)">04/10</text>
<text x="453.45833333333337" y="489" text-anchor="middle" font-family="sans-serif" font-size="8" fill="#666666" transform="rotate(-45,453.45833333333337,489)">04/17</text>
<text x="508.87500000000006" y="489" text-anchor="middle" font-family="sans-serif" font-size="8" fill="#666666" transform="rotate(-45,508.87500000000006,489)">04/24</text>
<text x="564.2916666666666" y="489" text-anchor="middle" font-family="sans-serif" font-size="8" fill="#666666" transform="rotate(-45,564.2916666666666,489)">05/06</text>
<text x="619.7083333333334" y="489" text-anchor="middle" font-family="sans-serif" font-size="8" fill="#666666" transform="rotate(-45,619.7083333333334,489)">05/13</text>
<text x="675.125" y="489" text-anchor="middle" font-family="sans-serif" font-size="8" fill="#666666" transform="rotate(-45,675.125,489)">05/20</text>
<text x="719.4583333333334" y="489" text-anchor="middle" font-family="sans-serif" font-size="8" fill="#666666" transform="rotate(-45,719.4583333333334,489)">05/26</text>
<rect x="60" y="484" width="8" height="8" fill="#4ecdc4" opacity="0.8" rx="1"/>
<text x="71" y="491" font-family="sans-serif" font-size="9" fill="#888888">买入区(BIAS&lt;2%)</text>
<rect x="230" y="484" width="8" height="8" fill="#ffd700" opacity="0.8" rx="1"/>
<text x="241" y="491" font-family="sans-serif" font-size="9" fill="#888888">持有区(2-8%)</text>
<rect x="400" y="484" width="8" height="8" fill="#e94560" opacity="0.8" rx="1"/>
<text x="411" y="491" font-family="sans-serif" font-size="9" fill="#888888">警戒区(&gt;8%)</text>
<rect x="570" y="484" width="8" height="8" fill="#ffd700" opacity="0.8" rx="1"/>
<text x="581" y="491" font-family="sans-serif" font-size="9" fill="#888888">EMA5</text>
<rect x="60" y="497" width="8" height="8" fill="#ff6b6b" opacity="0.8" rx="1"/>
<text x="71" y="504" font-family="sans-serif" font-size="9" fill="#888888">EMA10</text>
<rect x="230" y="497" width="8" height="8" fill="#4ecdc4" opacity="0.8" rx="1"/>
<text x="241" y="504" font-family="sans-serif" font-size="9" fill="#888888">EMA20</text>
<rect x="400" y="497" width="8" height="8" fill="#4ecdc4" opacity="0.8" rx="1"/>
<text x="411" y="504" font-family="sans-serif" font-size="9" fill="#888888">B乖离买入</text>
<rect x="570" y="497" width="8" height="8" fill="#e94560" opacity="0.8" rx="1"/>
<text x="581" y="504" font-family="sans-serif" font-size="9" fill="#888888">W警戒⚠️</text>
</svg>