<svg xmlns="http://www.w3.org/2000/svg" width="800" height="400" viewBox="0 0 800 400">
<rect width="800" height="400" fill="#1a1a2e"/>
<text x="400.0" y="20" text-anchor="middle" font-family="sans-serif" font-size="14" fill="#ffffff" font-weight="bold">晶方科技(603005) K线图</text>
<line x1="60" y1="30.0" x2="780" y2="30.0" stroke="#2a2a4e" stroke-width="0.5"/>
<text x="55" y="33.0" text-anchor="end" font-family="sans-serif" font-size="8" fill="#666666">47.33</text>
<line x1="60" y1="83.99999999999997" x2="780" y2="83.99999999999997" stroke="#2a2a4e" stroke-width="0.5"/>
<text x="55" y="86.99999999999997" text-anchor="end" font-family="sans-serif" font-size="8" fill="#666666">43.05</text>
<line x1="60" y1="138.0" x2="780" y2="138.0" stroke="#2a2a4e" stroke-width="0.5"/>
<text x="55" y="141.0" text-anchor="end" font-family="sans-serif" font-size="8" fill="#666666">38.77</text>
<line x1="60" y1="192.0" x2="780" y2="192.0" stroke="#2a2a4e" stroke-width="0.5"/>
<text x="55" y="195.0" text-anchor="end" font-family="sans-serif" font-size="8" fill="#666666">34.48</text>
<line x1="60" y1="245.99999999999997" x2="780" y2="245.99999999999997" stroke="#2a2a4e" stroke-width="0.5"/>
<text x="55" y="248.99999999999997" text-anchor="end" font-family="sans-serif" font-size="8" fill="#666666">30.20</text>
<line x1="60" y1="300.0" x2="780" y2="300.0" stroke="#2a2a4e" stroke-width="0.5"/>
<text x="55" y="303.0" text-anchor="end" font-family="sans-serif" font-size="8" fill="#666666">25.92</text>
<line x1="60" y1="300" x2="780" y2="300" stroke="#2a2a4e" stroke-width="0.5"/>
<line x1="60" y1="345" x2="780" y2="345" stroke="#2a2a4e" stroke-width="0.5"/>
<rect x="61.8" y="332.4643866345715" width="7.199999999999999" height="12.535613365428503" fill="#44aa44" opacity="0.3"/>
<rect x="73.8" y="333.4179278293718" width="7.199999999999999" height="11.58207217062818" fill="#44aa44" opacity="0.3"/>
<rect x="85.8" y="332.9320156947618" width="7.199999999999999" height="12.067984305238213" fill="#44aa44" opacity="0.3"/>
<rect x="97.8" y="336.01745667056997" width="7.199999999999999" height="8.98254332943003" fill="#ff4444" opacity="0.3"/>
<rect x="109.8" y="334.9445312206883" width="7.199999999999999" height="10.055468779311695" fill="#ff4444" opacity="0.3"/>
<rect x="121.8" y="336.7845682656972" width="7.199999999999999" height="8.215431734302797" fill="#44aa44" opacity="0.3"/>
<rect x="133.8" y="334.816127611762" width="7.199999999999999" height="10.183872388238001" fill="#ff4444" opacity="0.3"/>
<rect x="145.8" y="338.1653291496433" width="7.199999999999999" height="6.8346708503567015" fill="#ff4444" opacity="0.3"/>
<rect x="157.8" y="338.7756017345595" width="7.199999999999999" height="6.224398265440527" fill="#44aa44" opacity="0.3"/>
<rect x="169.8" y="338.795262148729" width="7.199999999999999" height="6.204737851270977" fill="#44aa44" opacity="0.3"/>
<rect x="181.8" y="338.4254464259268" width="7.199999999999999" height="6.574553574073207" fill="#ff4444" opacity="0.3"/>
<rect x="193.8" y="338.1364494452135" width="7.199999999999999" height="6.863550554786514" fill="#ff4444" opacity="0.3"/>
<rect x="205.8" y="337.7210260045694" width="7.199999999999999" height="7.27897399543059" fill="#44aa44" opacity="0.3"/>
<rect x="217.8" y="338.6513301448823" width="7.199999999999999" height="6.348669855117691" fill="#ff4444" opacity="0.3"/>
<rect x="229.8" y="338.7247956699203" width="7.199999999999999" height="6.275204330079703" fill="#44aa44" opacity="0.3"/>
<rect x="241.8" y="338.49266949177644" width="7.199999999999999" height="6.507330508223561" fill="#44aa44" opacity="0.3"/>
<rect x="253.8" y="338.5273473522495" width="7.199999999999999" height="6.472652647750522" fill="#44aa44" opacity="0.3"/>
<rect x="265.8" y="340.11402052878" width="7.199999999999999" height="4.8859794712200255" fill="#44aa44" opacity="0.3"/>
<rect x="277.8" y="339.6407932489618" width="7.199999999999999" height="5.359206751038187" fill="#ff4444" opacity="0.3"/>
<rect x="289.8" y="340.8369461761297" width="7.199999999999999" height="4.163053823870314" fill="#44aa44" opacity="0.3"/>
<rect x="301.8" y="341.13407390439784" width="7.199999999999999" height="3.8659260956021626" fill="#ff4444" opacity="0.3"/>
<rect x="313.8" y="341.4648575959053" width="7.199999999999999" height="3.5351424040946995" fill="#ff4444" opacity="0.3"/>
<rect x="325.8" y="341.23586375493426" width="7.199999999999999" height="3.7641362450657425" fill="#44aa44" opacity="0.3"/>
<rect x="337.8" y="340.99451828653014" width="7.199999999999999" height="4.005481713469862" fill="#ff4444" opacity="0.3"/>
<rect x="349.8" y="339.97933003035087" width="7.199999999999999" height="5.020669969649134" fill="#44aa44" opacity="0.3"/>
<rect x="361.8" y="339.52463019168226" width="7.199999999999999" height="5.475369808317737" fill="#ff4444" opacity="0.3"/>
<rect x="373.8" y="340.8089995083045" width="7.199999999999999" height="4.19100049169549" fill="#ff4444" opacity="0.3"/>
<rect x="385.8" y="337.23364766958065" width="7.199999999999999" height="7.766352330419352" fill="#ff4444" opacity="0.3"/>
<rect x="397.8" y="339.97713072978274" width="7.199999999999999" height="5.022869270217257" fill="#ff4444" opacity="0.3"/>
<rect x="409.8" y="339.5961852131964" width="7.199999999999999" height="5.4038147868035935" fill="#44aa44" opacity="0.3"/>
<rect x="421.8" y="341.0149562312035" width="7.199999999999999" height="3.9850437687965155" fill="#ff4444" opacity="0.3"/>
<rect x="433.8" y="330.3859587370732" width="7.199999999999999" height="14.614041262926776" fill="#ff4444" opacity="0.3"/>
<rect x="445.8" y="336.8669864991084" width="7.199999999999999" height="8.133013500891593" fill="#44aa44" opacity="0.3"/>
<rect x="457.8" y="339.05324676991614" width="7.199999999999999" height="5.946753230083857" fill="#44aa44" opacity="0.3"/>
<rect x="469.8" y="330.9268089555717" width="7.199999999999999" height="14.073191044428313" fill="#ff4444" opacity="0.3"/>
<rect x="481.8" y="332.8439103810936" width="7.199999999999999" height="12.156089618906378" fill="#44aa44" opacity="0.3"/>
<rect x="493.8" y="337.0986461589499" width="7.199999999999999" height="7.901353841050081" fill="#ff4444" opacity="0.3"/>
<rect x="505.8" y="334.2768768845858" width="7.199999999999999" height="10.723123115414182" fill="#ff4444" opacity="0.3"/>
<rect x="517.8" y="336.3709442527907" width="7.199999999999999" height="8.629055747209293" fill="#44aa44" opacity="0.3"/>
<rect x="529.8" y="338.12654148507835" width="7.199999999999999" height="6.873458514921651" fill="#44aa44" opacity="0.3"/>
<rect x="541.8" y="333.87404943810463" width="7.199999999999999" height="11.125950561895365" fill="#ff4444" opacity="0.3"/>
<rect x="553.8" y="337.0543491353861" width="7.199999999999999" height="7.945650864613924" fill="#44aa44" opacity="0.3"/>
<rect x="565.8" y="336.8305980715269" width="7.199999999999999" height="8.169401928473121" fill="#ff4444" opacity="0.3"/>
<rect x="577.8" y="336.84663741506404" width="7.199999999999999" height="8.153362584935962" fill="#ff4444" opacity="0.3"/>
<rect x="589.8" y="333.10462746662296" width="7.199999999999999" height="11.895372533377042" fill="#44aa44" opacity="0.3"/>
<rect x="601.8" y="334.9053436832928" width="7.199999999999999" height="10.094656316707187" fill="#ff4444" opacity="0.3"/>
<rect x="613.8" y="336.7478910410714" width="7.199999999999999" height="8.252108958928602" fill="#ff4444" opacity="0.3"/>
<rect x="625.8" y="330.80111559583025" width="7.199999999999999" height="14.198884404169746" fill="#ff4444" opacity="0.3"/>
<rect x="637.8" y="336.44989692167036" width="7.199999999999999" height="8.550103078329641" fill="#44aa44" opacity="0.3"/>
<rect x="649.8" y="332.7390770540134" width="7.199999999999999" height="12.260922945986579" fill="#ff4444" opacity="0.3"/>
<rect x="661.8" y="333.7503776576733" width="7.199999999999999" height="11.249622342326688" fill="#44aa44" opacity="0.3"/>
<rect x="673.8" y="329.33744774501343" width="7.199999999999999" height="15.662552254986565" fill="#44aa44" opacity="0.3"/>
<rect x="685.8" y="335.44954839053656" width="7.199999999999999" height="9.550451609463437" fill="#ff4444" opacity="0.3"/>
<rect x="697.8" y="335.1841216916694" width="7.199999999999999" height="9.815878308330582" fill="#ff4444" opacity="0.3"/>
<rect x="709.8" y="330.13379448708656" width="7.199999999999999" height="14.866205512913439" fill="#ff4444" opacity="0.3"/>
<rect x="721.8" y="303.32114379426986" width="7.199999999999999" height="41.67885620573014" fill="#44aa44" opacity="0.3"/>
<rect x="733.8" y="310.3885850623308" width="7.199999999999999" height="34.611414937669224" fill="#ff4444" opacity="0.3"/>
<rect x="745.8" y="321.2134980282814" width="7.199999999999999" height="23.78650197171862" fill="#ff4444" opacity="0.3"/>
<rect x="757.8" y="300.0" width="7.199999999999999" height="45.0" fill="#44aa44" opacity="0.3"/>
<rect x="769.8" y="309.7004039209259" width="7.199999999999999" height="35.29959607907409" fill="#44aa44" opacity="0.3"/>
<polyline points="66.0,196.97 78.0,201.26 90.0,212.52 102.0,217.89 114.0,217.73 126.0,221.11 138.0,225.75 150.0,226.33 162.0,229.11 174.0,233.32 186.0,237.22 198.0,238.26 210.0,244.80 222.0,245.21 234.0,249.98 246.0,257.40 258.0,267.78 270.0,273.10 282.0,274.92 294.0,279.29 306.0,282.07 318.0,283.72 330.0,287.30 342.0,286.95 354.0,290.67 366.0,290.67 378.0,290.29 390.0,284.19 402.0,281.18 414.0,278.71 426.0,276.73 438.0,266.07 450.0,261.66 462.0,258.51 474.0,249.98 486.0,246.09 498.0,243.13 510.0,236.40 522.0,233.35 534.0,232.53 546.0,229.75 558.0,230.97 570.0,234.10 582.0,234.29 594.0,232.44 606.0,227.68 618.0,225.93 630.0,221.20 642.0,220.35 654.0,214.36 666.0,214.16 678.0,213.26 690.0,212.29 702.0,209.87 714.0,194.18 726.0,186.74 738.0,168.92 750.0,140.61 762.0,113.11 774.0,103.57" fill="none" stroke="#ffd700" stroke-width="0.8" opacity="0.7"/>
<polyline points="66.0,196.97 78.0,199.31 90.0,205.81 102.0,209.96 114.0,211.31 126.0,214.32 138.0,218.09 150.0,219.80 162.0,222.50 174.0,226.00 186.0,229.46 198.0,231.44 210.0,236.25 222.0,238.02 234.0,241.93 246.0,247.45 258.0,254.91 270.0,260.15 282.0,263.50 294.0,267.96 306.0,271.54 318.0,274.35 330.0,278.01 342.0,279.51 354.0,282.89 366.0,284.30 378.0,285.25 390.0,282.84 402.0,281.45 414.0,280.05 426.0,278.73 438.0,272.55 450.0,268.97 462.0,265.92 474.0,259.92 486.0,255.99 498.0,252.58 510.0,247.19 522.0,243.56 534.0,241.26 546.0,238.16 558.0,237.29 570.0,237.85 582.0,237.27 594.0,235.72 606.0,232.53 618.0,230.70 630.0,227.25 642.0,225.68 654.0,221.45 666.0,220.05 678.0,218.49 690.0,217.01 702.0,214.83 714.0,205.37 726.0,199.28 738.0,187.28 750.0,168.50 762.0,148.43 774.0,136.80" fill="none" stroke="#ff6b6b" stroke-width="0.8" opacity="0.7"/>
<polyline points="66.0,196.97 78.0,198.19 90.0,201.70 102.0,204.27 114.0,205.52 126.0,207.65 138.0,210.26 150.0,211.90 162.0,214.07 174.0,216.70 186.0,219.40 198.0,221.39 210.0,224.87 222.0,226.88 234.0,229.99 246.0,234.02 258.0,239.21 270.0,243.45 282.0,246.79 294.0,250.72 306.0,254.24 318.0,257.36 330.0,260.89 342.0,263.31 354.0,266.62 366.0,268.91 378.0,270.87 390.0,270.98 402.0,271.38 414.0,271.61 426.0,271.72 438.0,269.15 450.0,267.60 462.0,266.13 474.0,262.97 486.0,260.62 498.0,258.39 510.0,255.01 522.0,252.37 534.0,250.32 546.0,247.84 558.0,246.46 570.0,245.88 582.0,244.81 594.0,243.28 606.0,240.89 618.0,239.13 630.0,236.52 642.0,234.82 654.0,231.73 666.0,230.02 678.0,228.25 690.0,226.55 702.0,224.50 714.0,218.62 726.0,214.17 738.0,206.47 750.0,194.80 762.0,181.78 774.0,172.52" fill="none" stroke="#4ecdc4" stroke-width="0.8" opacity="0.7"/>
<line x1="66.0" y1="190.5371321812237" x2="66.0" y2="208.06632414759457" stroke="#44aa44" stroke-width="0.5" opacity="0.6"/>
<rect x="63.0" y="191.79822512844467" width="6.0" height="5.17048108360575" fill="#44aa44" opacity="0.85"/>
<line x1="78.0" y1="202.39140588510048" x2="78.0" y2="215.1284446520318" stroke="#44aa44" stroke-width="0.5" opacity="0.6"/>
<rect x="75.0" y="209.7057449789818" width="6.0" height="0.5" fill="#44aa44" opacity="0.85"/>
<line x1="90.0" y1="204.66137319009815" x2="90.0" y2="236.69313404950958" stroke="#44aa44" stroke-width="0.5" opacity="0.6"/>
<rect x="87.0" y="209.8318542737039" width="6.0" height="25.22185894441847" fill="#44aa44" opacity="0.85"/>
<line x1="102.0" y1="216.1373190098085" x2="102.0" y2="242.62027090144795" stroke="#ff4444" stroke-width="0.5" opacity="0.6"/>
<rect x="99.0" y="228.6221391872957" width="6.0" height="13.998131714152265" fill="#ff4444" opacity="0.85"/>
<line x1="114.0" y1="201.38253152732366" x2="114.0" y2="223.3255488089678" stroke="#ff4444" stroke-width="0.5" opacity="0.6"/>
<rect x="111.0" y="217.39841195702945" width="6.0" height="0.5" fill="#ff4444" opacity="0.85"/>
<line x1="126.0" y1="215.1284446520318" x2="126.0" y2="230.0093414292387" stroke="#44aa44" stroke-width="0.5" opacity="0.6"/>
<rect x="123.0" y="221.93834656702478" width="6.0" height="5.927136851938343" fill="#44aa44" opacity="0.85"/>
<line x1="138.0" y1="232.90985520784682" x2="138.0" y2="254.47454460532464" stroke="#ff4444" stroke-width="0.5" opacity="0.6"/>
<rect x="135.0" y="235.05371321812237" width="6.0" height="7.440448388603471" fill="#ff4444" opacity="0.85"/>
<line x1="150.0" y1="220.17281644091548" x2="150.0" y2="231.14432508173752" stroke="#ff4444" stroke-width="0.5" opacity="0.6"/>
<rect x="147.0" y="227.4871555347968" width="6.0" height="0.5" fill="#ff4444" opacity="0.85"/>
<line x1="162.0" y1="222.44278374591315" x2="162.0" y2="235.93647828117705" stroke="#44aa44" stroke-width="0.5" opacity="0.6"/>
<rect x="159.0" y="227.4871555347968" width="6.0" height="7.188229799159274" fill="#44aa44" opacity="0.85"/>
<line x1="174.0" y1="229.75712283979453" x2="174.0" y2="246.02522185894443" stroke="#44aa44" stroke-width="0.5" opacity="0.6"/>
<rect x="171.0" y="236.5670247547875" width="6.0" height="5.170481083605779" fill="#44aa44" opacity="0.85"/>
<line x1="186.0" y1="233.16207379729101" x2="186.0" y2="250.43904717421765" stroke="#ff4444" stroke-width="0.5" opacity="0.6"/>
<rect x="183.0" y="245.01634750116767" width="6.0" height="0.5" fill="#ff4444" opacity="0.85"/>
<line x1="198.0" y1="238.96310135450724" x2="198.0" y2="254.60065390004672" stroke="#ff4444" stroke-width="0.5" opacity="0.6"/>
<rect x="195.0" y="240.3503035964503" width="6.0" height="4.792153199439525" fill="#ff4444" opacity="0.85"/>
<line x1="210.0" y1="236.5670247547875" x2="210.0" y2="258.51004203643157" stroke="#44aa44" stroke-width="0.5" opacity="0.6"/>
<rect x="207.0" y="237.44978981784217" width="6.0" height="20.429705744978975" fill="#44aa44" opacity="0.85"/>
<line x1="222.0" y1="245.39467538533395" x2="222.0" y2="256.366184026156" stroke="#ff4444" stroke-width="0.5" opacity="0.6"/>
<rect x="219.0" y="246.02522185894443" width="6.0" height="7.69266697804764" fill="#ff4444" opacity="0.85"/>
<line x1="234.0" y1="252.45679588977114" x2="234.0" y2="262.16721158337225" stroke="#44aa44" stroke-width="0.5" opacity="0.6"/>
<rect x="231.0" y="253.0873423633816" width="6.0" height="6.4315740308267095" fill="#44aa44" opacity="0.85"/>
<line x1="246.0" y1="255.4834189631014" x2="246.0" y2="272.50817375058386" stroke="#44aa44" stroke-width="0.5" opacity="0.6"/>
<rect x="243.0" y="256.366184026156" width="6.0" height="15.889771134983675" fill="#44aa44" opacity="0.85"/>
<line x1="258.0" y1="274.27370387669316" x2="258.0" y2="291.4245679588977" stroke="#44aa44" stroke-width="0.5" opacity="0.6"/>
<rect x="255.0" y="279.4441849602989" width="6.0" height="9.079869219990712" fill="#44aa44" opacity="0.85"/>
<line x1="270.0" y1="281.0836057916861" x2="270.0" y2="293.5684259691733" stroke="#44aa44" stroke-width="0.5" opacity="0.6"/>
<rect x="267.0" y="282.59691732835125" width="6.0" height="1.1349836524988177" fill="#44aa44" opacity="0.85"/>
<line x1="282.0" y1="275.0303596450257" x2="282.0" y2="281.0836057916861" stroke="#ff4444" stroke-width="0.5" opacity="0.6"/>
<rect x="279.0" y="278.56141989724426" width="6.0" height="2.5221858944418614" fill="#ff4444" opacity="0.85"/>
<line x1="294.0" y1="279.0658570761327" x2="294.0" y2="289.2807099486222" stroke="#44aa44" stroke-width="0.5" opacity="0.6"/>
<rect x="291.0" y="280.32695002335356" width="6.0" height="7.692666978047669" fill="#44aa44" opacity="0.85"/>
<line x1="306.0" y1="282.8491359177955" x2="306.0" y2="294.95562821111633" stroke="#ff4444" stroke-width="0.5" opacity="0.6"/>
<rect x="303.0" y="287.641289117235" width="6.0" height="6.305464736104625" fill="#ff4444" opacity="0.85"/>
<line x1="318.0" y1="285.7496496964036" x2="318.0" y2="295.838393274171" stroke="#ff4444" stroke-width="0.5" opacity="0.6"/>
<rect x="315.0" y="287.0107426436245" width="6.0" height="7.566557683325527" fill="#ff4444" opacity="0.85"/>
<line x1="330.0" y1="285.3713218122373" x2="330.0" y2="294.95562821111633" stroke="#44aa44" stroke-width="0.5" opacity="0.6"/>
<rect x="327.0" y="288.2718355908454" width="6.0" height="6.1793554413825404" fill="#44aa44" opacity="0.85"/>
<line x1="342.0" y1="283.8580102755722" x2="342.0" y2="289.4068192433442" stroke="#ff4444" stroke-width="0.5" opacity="0.6"/>
<rect x="339.0" y="286.25408687529193" width="6.0" height="1.0088743577767332" fill="#ff4444" opacity="0.85"/>
<line x1="354.0" y1="286.8846333489024" x2="354.0" y2="299.74778141055583" stroke="#44aa44" stroke-width="0.5" opacity="0.6"/>
<rect x="351.0" y="287.641289117235" width="6.0" height="10.467071461933642" fill="#44aa44" opacity="0.85"/>
<line x1="366.0" y1="283.8580102755722" x2="366.0" y2="300.0" stroke="#ff4444" stroke-width="0.5" opacity="0.6"/>
<rect x="363.0" y="290.6679121905652" width="6.0" height="5.9271368519383145" fill="#ff4444" opacity="0.85"/>
<line x1="378.0" y1="284.36244745446055" x2="378.0" y2="291.92900513778613" stroke="#ff4444" stroke-width="0.5" opacity="0.6"/>
<rect x="375.0" y="289.53292853806636" width="6.0" height="0.6305464736104227" fill="#ff4444" opacity="0.85"/>
<line x1="390.0" y1="272.0037365716955" x2="390.0" y2="283.73190098085007" stroke="#ff4444" stroke-width="0.5" opacity="0.6"/>
<rect x="387.0" y="272.0037365716955" width="6.0" height="8.575432041102204" fill="#ff4444" opacity="0.85"/>
<line x1="402.0" y1="272.2559551611397" x2="402.0" y2="278.81363848668843" stroke="#ff4444" stroke-width="0.5" opacity="0.6"/>
<rect x="399.0" y="275.1564689397478" width="6.0" height="1.7655301261092973" fill="#ff4444" opacity="0.85"/>
<line x1="414.0" y1="265.824381130313" x2="414.0" y2="273.8953759925269" stroke="#44aa44" stroke-width="0.5" opacity="0.6"/>
<rect x="411.0" y="271.1209715086408" width="6.0" height="2.648295189163946" fill="#44aa44" opacity="0.85"/>
<line x1="426.0" y1="269.73376926669783" x2="426.0" y2="277.93087342363384" stroke="#ff4444" stroke-width="0.5" opacity="0.6"/>
<rect x="423.0" y="272.76039234002803" width="6.0" height="4.161606725829074" fill="#ff4444" opacity="0.85"/>
<line x1="438.0" y1="240.22419430172818" x2="438.0" y2="269.73376926669783" stroke="#ff4444" stroke-width="0.5" opacity="0.6"/>
<rect x="435.0" y="244.7641289117235" width="6.0" height="24.96964035497433" fill="#ff4444" opacity="0.85"/>
<line x1="450.0" y1="242.99859878561418" x2="450.0" y2="253.4656702475479" stroke="#44aa44" stroke-width="0.5" opacity="0.6"/>
<rect x="447.0" y="248.5474077533863" width="6.0" height="4.28771602055113" fill="#44aa44" opacity="0.85"/>
<line x1="462.0" y1="248.5474077533863" x2="462.0" y2="255.60952825782346" stroke="#44aa44" stroke-width="0.5" opacity="0.6"/>
<rect x="459.0" y="251.7001401214386" width="6.0" height="0.5044371788883382" fill="#44aa44" opacity="0.85"/>
<line x1="474.0" y1="224.20831387202242" x2="474.0" y2="251.0695936478281" stroke="#ff4444" stroke-width="0.5" opacity="0.6"/>
<rect x="471.0" y="232.90985520784682" width="6.0" height="15.637552545539478" fill="#ff4444" opacity="0.85"/>
<line x1="486.0" y1="227.36104624007476" x2="486.0" y2="243.12470808033632" stroke="#44aa44" stroke-width="0.5" opacity="0.6"/>
<rect x="483.0" y="227.36104624007476" width="6.0" height="10.971508640822037" fill="#44aa44" opacity="0.85"/>
<line x1="498.0" y1="230.38766931340493" x2="498.0" y2="246.6557683325549" stroke="#ff4444" stroke-width="0.5" opacity="0.6"/>
<rect x="495.0" y="237.19757122839798" width="6.0" height="3.4049509574964816" fill="#ff4444" opacity="0.85"/>
<line x1="510.0" y1="220.8033629145259" x2="510.0" y2="239.5936478281177" stroke="#ff4444" stroke-width="0.5" opacity="0.6"/>
<rect x="507.0" y="222.9472209248015" width="6.0" height="16.01588042970573" fill="#ff4444" opacity="0.85"/>
<line x1="522.0" y1="221.0555815039701" x2="522.0" y2="232.0270901447922" stroke="#44aa44" stroke-width="0.5" opacity="0.6"/>
<rect x="519.0" y="222.9472209248015" width="6.0" height="4.28771602055113" fill="#44aa44" opacity="0.85"/>
<line x1="534.0" y1="220.29892573563754" x2="534.0" y2="233.2881830920131" stroke="#44aa44" stroke-width="0.5" opacity="0.6"/>
<rect x="531.0" y="229.75712283979453" width="6.0" height="1.1349836524988177" fill="#44aa44" opacity="0.85"/>
<line x1="546.0" y1="212.73236805231198" x2="546.0" y2="226.0999532928538" stroke="#ff4444" stroke-width="0.5" opacity="0.6"/>
<rect x="543.0" y="224.20831387202242" width="6.0" height="1.7655301261093257" fill="#ff4444" opacity="0.85"/>
<line x1="558.0" y1="224.3344231667445" x2="558.0" y2="236.94535263895375" stroke="#44aa44" stroke-width="0.5" opacity="0.6"/>
<rect x="555.0" y="226.0999532928538" width="6.0" height="7.314339093881387" fill="#44aa44" opacity="0.85"/>
<line x1="570.0" y1="236.18869687062121" x2="570.0" y2="248.42129845866415" stroke="#ff4444" stroke-width="0.5" opacity="0.6"/>
<rect x="567.0" y="240.3503035964503" width="6.0" height="8.070994862213865" fill="#ff4444" opacity="0.85"/>
<line x1="582.0" y1="231.52265296590377" x2="582.0" y2="245.1424567958898" stroke="#ff4444" stroke-width="0.5" opacity="0.6"/>
<rect x="579.0" y="234.6753853339561" width="6.0" height="2.52218589444189" fill="#ff4444" opacity="0.85"/>
<line x1="594.0" y1="217.02008407286317" x2="594.0" y2="229.5049042503503" stroke="#44aa44" stroke-width="0.5" opacity="0.6"/>
<rect x="591.0" y="225.84773470340963" width="6.0" height="2.900513778608115" fill="#44aa44" opacity="0.85"/>
<line x1="606.0" y1="214.7501167678655" x2="606.0" y2="231.2704343764596" stroke="#ff4444" stroke-width="0.5" opacity="0.6"/>
<rect x="603.0" y="218.15506772536204" width="6.0" height="6.557683325548737" fill="#ff4444" opacity="0.85"/>
<line x1="618.0" y1="221.0555815039701" x2="618.0" y2="231.01821578701544" stroke="#ff4444" stroke-width="0.5" opacity="0.6"/>
<rect x="615.0" y="222.44278374591315" width="6.0" height="0.8827650630546486" fill="#ff4444" opacity="0.85"/>
<line x1="630.0" y1="208.19243344231663" x2="630.0" y2="218.91172349369452" stroke="#ff4444" stroke-width="0.5" opacity="0.6"/>
<rect x="627.0" y="211.72349369453525" width="6.0" height="4.161606725829017" fill="#ff4444" opacity="0.85"/>
<line x1="642.0" y1="209.4535263895376" x2="642.0" y2="221.4339093881364" stroke="#44aa44" stroke-width="0.5" opacity="0.6"/>
<rect x="639.0" y="211.72349369453525" width="6.0" height="6.936011209715133" fill="#44aa44" opacity="0.85"/>
<line x1="654.0" y1="200.62587575899116" x2="654.0" y2="227.1088276506306" stroke="#ff4444" stroke-width="0.5" opacity="0.6"/>
<rect x="651.0" y="202.39140588510048" width="6.0" height="22.06912657636613" fill="#ff4444" opacity="0.85"/>
<line x1="666.0" y1="197.22092480149465" x2="666.0" y2="214.11957029425506" stroke="#44aa44" stroke-width="0.5" opacity="0.6"/>
<rect x="663.0" y="200.24754787482487" width="6.0" height="13.493694535263899" fill="#44aa44" opacity="0.85"/>
<line x1="678.0" y1="194.5726296123307" x2="678.0" y2="217.02008407286317" stroke="#44aa44" stroke-width="0.5" opacity="0.6"/>
<rect x="675.0" y="210.71461933675852" width="6.0" height="0.7566557683325925" fill="#44aa44" opacity="0.85"/>
<line x1="690.0" y1="204.53526389537598" x2="690.0" y2="219.2900513778608" stroke="#ff4444" stroke-width="0.5" opacity="0.6"/>
<rect x="687.0" y="210.33629145259226" width="6.0" height="7.944885567491809" fill="#ff4444" opacity="0.85"/>
<line x1="702.0" y1="204.0308267164876" x2="702.0" y2="224.4605324614666" stroke="#ff4444" stroke-width="0.5" opacity="0.6"/>
<rect x="699.0" y="205.03970107426434" width="6.0" height="10.719290051377868" fill="#ff4444" opacity="0.85"/>
<line x1="714.0" y1="162.79308734236344" x2="714.0" y2="206.5530126109295" stroke="#ff4444" stroke-width="0.5" opacity="0.6"/>
<rect x="711.0" y="162.79308734236344" width="6.0" height="43.759925268566064" fill="#ff4444" opacity="0.85"/>
<line x1="726.0" y1="116.76319476879958" x2="726.0" y2="172.1251751517982" stroke="#44aa44" stroke-width="0.5" opacity="0.6"/>
<rect x="723.0" y="116.76319476879958" width="6.0" height="55.10976179355448" fill="#44aa44" opacity="0.85"/>
<line x1="738.0" y1="126.72582905184497" x2="738.0" y2="180.07006071929004" stroke="#ff4444" stroke-width="0.5" opacity="0.6"/>
<rect x="735.0" y="133.28351237739372" width="6.0" height="38.33722559551612" fill="#ff4444" opacity="0.85"/>
<line x1="750.0" y1="83.97477814105561" x2="750.0" y2="127.10415693601117" stroke="#ff4444" stroke-width="0.5" opacity="0.6"/>
<rect x="747.0" y="83.97477814105561" width="6.0" height="36.06725829051845" fill="#ff4444" opacity="0.85"/>
<line x1="762.0" y1="30.0" x2="762.0" y2="91.03689864549273" stroke="#44aa44" stroke-width="0.5" opacity="0.6"/>
<rect x="759.0" y="46.015880429705696" width="6.0" height="12.10649229332089" fill="#44aa44" opacity="0.85"/>
<line x1="774.0" y1="39.9626342830453" x2="774.0" y2="98.72956562354035" stroke="#44aa44" stroke-width="0.5" opacity="0.6"/>
<rect x="771.0" y="83.21812237272303" width="6.0" height="1.2610929472209307" fill="#44aa44" opacity="0.85"/>
<rect x="134.0" y="250.47454460532464" width="8" height="8" fill="#4caf50" opacity="0.85" rx="1"/>
<text x="138.0" y="248.47454460532464" text-anchor="middle" font-family="sans-serif" font-size="8" fill="#4caf50">前低</text>
<rect x="194.0" y="250.60065390004672" width="8" height="8" fill="#4caf50" opacity="0.85" rx="1"/>
<text x="198.0" y="248.60065390004672" text-anchor="middle" font-family="sans-serif" font-size="8" fill="#4caf50">前低</text>
<rect x="206.0" y="254.51004203643157" width="8" height="8" fill="#4caf50" opacity="0.85" rx="1"/>
<text x="210.0" y="252.51004203643157" text-anchor="middle" font-family="sans-serif" font-size="8" fill="#4caf50">前低</text>
<rect x="230.0" y="258.16721158337225" width="8" height="8" fill="#4caf50" opacity="0.85" rx="1"/>
<text x="234.0" y="256.16721158337225" text-anchor="middle" font-family="sans-serif" font-size="8" fill="#4caf50">前低</text>
<rect x="242.0" y="268.50817375058386" width="8" height="8" fill="#4caf50" opacity="0.85" rx="1"/>
<text x="246.0" y="266.50817375058386" text-anchor="middle" font-family="sans-serif" font-size="8" fill="#4caf50">前低</text>
<rect x="254.0" y="287.4245679588977" width="8" height="8" fill="#4caf50" opacity="0.85" rx="1"/>
<text x="258.0" y="285.4245679588977" text-anchor="middle" font-family="sans-serif" font-size="8" fill="#4caf50">前低</text>
<rect x="266.0" y="289.5684259691733" width="8" height="8" fill="#4caf50" opacity="0.85" rx="1"/>
<text x="270.0" y="287.5684259691733" text-anchor="middle" font-family="sans-serif" font-size="8" fill="#4caf50">前低</text>
<rect x="302.0" y="290.95562821111633" width="8" height="8" fill="#4caf50" opacity="0.85" rx="1"/>
<text x="306.0" y="288.95562821111633" text-anchor="middle" font-family="sans-serif" font-size="8" fill="#4caf50">前低</text>
<rect x="314.0" y="291.838393274171" width="8" height="8" fill="#4caf50" opacity="0.85" rx="1"/>
<text x="318.0" y="289.838393274171" text-anchor="middle" font-family="sans-serif" font-size="8" fill="#4caf50">前低</text>
<rect x="350.0" y="295.74778141055583" width="8" height="8" fill="#4caf50" opacity="0.85" rx="1"/>
<text x="354.0" y="293.74778141055583" text-anchor="middle" font-family="sans-serif" font-size="8" fill="#4caf50">前低</text>
<rect x="362.0" y="296.0" width="8" height="8" fill="#4caf50" opacity="0.85" rx="1"/>
<text x="366.0" y="294.0" text-anchor="middle" font-family="sans-serif" font-size="8" fill="#4caf50">前低</text>
<rect x="386.0" y="268.0037365716955" width="8" height="8" fill="#ff9800" opacity="0.85" rx="1"/>
<text x="390.0" y="266.0037365716955" text-anchor="middle" font-family="sans-serif" font-size="8" fill="#ff9800">前高</text>
<rect x="386.0" y="268.0037365716955" width="8" height="8" fill="#2196f3" opacity="0.85" rx="1"/>
<text x="390.0" y="266.0037365716955" text-anchor="middle" font-family="sans-serif" font-size="8" fill="#2196f3">突</text>
<rect x="410.0" y="261.824381130313" width="8" height="8" fill="#ff9800" opacity="0.85" rx="1"/>
<text x="414.0" y="259.824381130313" text-anchor="middle" font-family="sans-serif" font-size="8" fill="#ff9800">前高</text>
<rect x="434.0" y="236.22419430172818" width="8" height="8" fill="#ff9800" opacity="0.85" rx="1"/>
<text x="438.0" y="234.22419430172818" text-anchor="middle" font-family="sans-serif" font-size="8" fill="#ff9800">前高</text>
<rect x="434.0" y="221.46940681924337" width="8" height="8" fill="#ff9800" opacity="0.85" rx="1"/>
<text x="438.0" y="219.46940681924337" text-anchor="middle" font-family="sans-serif" font-size="8" fill="#ff9800">量</text>
<rect x="434.0" y="236.22419430172818" width="8" height="8" fill="#2196f3" opacity="0.85" rx="1"/>
<text x="438.0" y="234.22419430172818" text-anchor="middle" font-family="sans-serif" font-size="8" fill="#2196f3">突</text>
<rect x="470.0" y="220.20831387202242" width="8" height="8" fill="#ff9800" opacity="0.85" rx="1"/>
<text x="474.0" y="218.20831387202242" text-anchor="middle" font-family="sans-serif" font-size="8" fill="#ff9800">前高</text>
<rect x="506.0" y="216.8033629145259" width="8" height="8" fill="#ff9800" opacity="0.85" rx="1"/>
<text x="510.0" y="214.8033629145259" text-anchor="middle" font-family="sans-serif" font-size="8" fill="#ff9800">前高</text>
<rect x="506.0" y="216.8033629145259" width="8" height="8" fill="#2196f3" opacity="0.85" rx="1"/>
<text x="510.0" y="214.8033629145259" text-anchor="middle" font-family="sans-serif" font-size="8" fill="#2196f3">突</text>
<rect x="530.0" y="216.29892573563754" width="8" height="8" fill="#ff9800" opacity="0.85" rx="1"/>
<text x="534.0" y="214.29892573563754" text-anchor="middle" font-family="sans-serif" font-size="8" fill="#ff9800">前高</text>
<rect x="542.0" y="208.73236805231198" width="8" height="8" fill="#ff9800" opacity="0.85" rx="1"/>
<text x="546.0" y="206.73236805231198" text-anchor="middle" font-family="sans-serif" font-size="8" fill="#ff9800">前高</text>
<rect x="626.0" y="204.19243344231663" width="8" height="8" fill="#ff9800" opacity="0.85" rx="1"/>
<text x="630.0" y="202.19243344231663" text-anchor="middle" font-family="sans-serif" font-size="8" fill="#ff9800">前高</text>
<rect x="650.0" y="196.62587575899116" width="8" height="8" fill="#ff9800" opacity="0.85" rx="1"/>
<text x="654.0" y="194.62587575899116" text-anchor="middle" font-family="sans-serif" font-size="8" fill="#ff9800">前高</text>
<rect x="650.0" y="196.62587575899116" width="8" height="8" fill="#2196f3" opacity="0.85" rx="1"/>
<text x="654.0" y="194.62587575899116" text-anchor="middle" font-family="sans-serif" font-size="8" fill="#2196f3">突</text>
<rect x="662.0" y="193.22092480149465" width="8" height="8" fill="#ff9800" opacity="0.85" rx="1"/>
<text x="666.0" y="191.22092480149465" text-anchor="middle" font-family="sans-serif" font-size="8" fill="#ff9800">前高</text>
<rect x="674.0" y="190.5726296123307" width="8" height="8" fill="#ff9800" opacity="0.85" rx="1"/>
<text x="678.0" y="188.5726296123307" text-anchor="middle" font-family="sans-serif" font-size="8" fill="#ff9800">前高</text>
<rect x="710.0" y="158.79308734236344" width="8" height="8" fill="#ff9800" opacity="0.85" rx="1"/>
<text x="714.0" y="156.79308734236344" text-anchor="middle" font-family="sans-serif" font-size="8" fill="#ff9800">前高</text>
<rect x="710.0" y="158.79308734236344" width="8" height="8" fill="#2196f3" opacity="0.85" rx="1"/>
<text x="714.0" y="156.79308734236344" text-anchor="middle" font-family="sans-serif" font-size="8" fill="#2196f3">突</text>
<rect x="722.0" y="112.76319476879958" width="8" height="8" fill="#ff9800" opacity="0.85" rx="1"/>
<text x="726.0" y="110.76319476879958" text-anchor="middle" font-family="sans-serif" font-size="8" fill="#ff9800">前高</text>
<rect x="722.0" y="85.08220457730027" width="8" height="8" fill="#ff9800" opacity="0.85" rx="1"/>
<text x="726.0" y="83.08220457730027" text-anchor="middle" font-family="sans-serif" font-size="8" fill="#ff9800">量</text>
<rect x="746.0" y="79.97477814105561" width="8" height="8" fill="#ff9800" opacity="0.85" rx="1"/>
<text x="750.0" y="77.97477814105561" text-anchor="middle" font-family="sans-serif" font-size="8" fill="#ff9800">前高</text>
<rect x="746.0" y="79.97477814105561" width="8" height="8" fill="#2196f3" opacity="0.85" rx="1"/>
<text x="750.0" y="77.97477814105561" text-anchor="middle" font-family="sans-serif" font-size="8" fill="#2196f3">突</text>
<rect x="758.0" y="26.0" width="8" height="8" fill="#ff9800" opacity="0.85" rx="1"/>
<text x="762.0" y="24.0" text-anchor="middle" font-family="sans-serif" font-size="8" fill="#ff9800">前高</text>
<text x="66.0" y="359" text-anchor="middle" font-family="sans-serif" font-size="8" fill="#666666" transform="rotate(-40,66.0,359)">02/27</text>
<text x="138.0" y="359" text-anchor="middle" font-family="sans-serif" font-size="8" fill="#666666" transform="rotate(-40,138.0,359)">03/09</text>
<text x="210.0" y="359" text-anchor="middle" font-family="sans-serif" font-size="8" fill="#666666" transform="rotate(-40,210.0,359)">03/17</text>
<text x="282.0" y="359" text-anchor="middle" font-family="sans-serif" font-size="8" fill="#666666" transform="rotate(-40,282.0,359)">03/25</text>
<text x="354.0" y="359" text-anchor="middle" font-family="sans-serif" font-size="8" fill="#666666" transform="rotate(-40,354.0,359)">04/02</text>
<text x="426.0" y="359" text-anchor="middle" font-family="sans-serif" font-size="8" fill="#666666" transform="rotate(-40,426.0,359)">04/13</text>
<text x="498.0" y="359" text-anchor="middle" font-family="sans-serif" font-size="8" fill="#666666" transform="rotate(-40,498.0,359)">04/21</text>
<text x="570.0" y="359" text-anchor="middle" font-family="sans-serif" font-size="8" fill="#666666" transform="rotate(-40,570.0,359)">04/29</text>
<text x="642.0" y="359" text-anchor="middle" font-family="sans-serif" font-size="8" fill="#666666" transform="rotate(-40,642.0,359)">05/12</text>
<text x="714.0" y="359" text-anchor="middle" font-family="sans-serif" font-size="8" fill="#666666" transform="rotate(-40,714.0,359)">05/20</text>
<text x="774.0" y="359" text-anchor="middle" font-family="sans-serif" font-size="8" fill="#666666" transform="rotate(-40,774.0,359)">05/27</text>
<text x="400.0" y="396" text-anchor="middle" font-family="sans-serif" font-size="9" fill="#555555">数据截至: 2026-05-27 20:56  |  最新K线: 20260527</text>
<rect x="50" y="373" width="8" height="8" fill="#ffd700" opacity="0.8" rx="1"/>
<text x="61" y="380" font-family="sans-serif" font-size="9" fill="#888888">EMA5</text>
<rect x="150" y="373" width="8" height="8" fill="#ff6b6b" opacity="0.8" rx="1"/>
<text x="161" y="380" font-family="sans-serif" font-size="9" fill="#888888">EMA10</text>
<rect x="250" y="373" width="8" height="8" fill="#4ecdc4" opacity="0.8" rx="1"/>
<text x="261" y="380" font-family="sans-serif" font-size="9" fill="#888888">EMA20</text>
<rect x="350" y="373" width="8" height="8" fill="#2196f3" opacity="0.8" rx="1"/>
<text x="361" y="380" font-family="sans-serif" font-size="9" fill="#888888">突破</text>
<rect x="450" y="373" width="8" height="8" fill="#ff9800" opacity="0.8" rx="1"/>
<text x="461" y="380" font-family="sans-serif" font-size="9" fill="#888888">前高/量</text>
<rect x="550" y="373" width="8" height="8" fill="#4caf50" opacity="0.8" rx="1"/>
<text x="561" y="380" font-family="sans-serif" font-size="9" fill="#888888">前低</text>
</svg>