<svg xmlns="http://www.w3.org/2000/svg" width="800" height="400" viewBox="0 0 800 400">
<rect width="800" height="400" fill="#1a1a2e"/>
<text x="400.0" y="20" text-anchor="middle" font-family="sans-serif" font-size="14" fill="#ffffff" font-weight="bold">华电能源(600726) K线图</text>
<line x1="60" y1="30.0" x2="780" y2="30.0" stroke="#2a2a4e" stroke-width="0.5"/>
<text x="55" y="33.0" text-anchor="end" font-family="sans-serif" font-size="8" fill="#666666">9.06</text>
<line x1="60" y1="84.0" x2="780" y2="84.0" stroke="#2a2a4e" stroke-width="0.5"/>
<text x="55" y="87.0" text-anchor="end" font-family="sans-serif" font-size="8" fill="#666666">7.78</text>
<line x1="60" y1="138.0" x2="780" y2="138.0" stroke="#2a2a4e" stroke-width="0.5"/>
<text x="55" y="141.0" text-anchor="end" font-family="sans-serif" font-size="8" fill="#666666">6.49</text>
<line x1="60" y1="191.99999999999997" x2="780" y2="191.99999999999997" stroke="#2a2a4e" stroke-width="0.5"/>
<text x="55" y="194.99999999999997" text-anchor="end" font-family="sans-serif" font-size="8" fill="#666666">5.21</text>
<line x1="60" y1="246.0" x2="780" y2="246.0" stroke="#2a2a4e" stroke-width="0.5"/>
<text x="55" y="249.0" text-anchor="end" font-family="sans-serif" font-size="8" fill="#666666">3.92</text>
<line x1="60" y1="300.0" x2="780" y2="300.0" stroke="#2a2a4e" stroke-width="0.5"/>
<text x="55" y="303.0" text-anchor="end" font-family="sans-serif" font-size="8" fill="#666666">2.64</text>
<line x1="60" y1="300" x2="780" y2="300" stroke="#2a2a4e" stroke-width="0.5"/>
<line x1="60" y1="345" x2="780" y2="345" stroke="#2a2a4e" stroke-width="0.5"/>
<rect x="61.8" y="340.3519205331974" width="7.199999999999999" height="4.648079466802585" fill="#ff4444" opacity="0.3"/>
<rect x="73.8" y="340.372674086263" width="7.199999999999999" height="4.627325913737025" fill="#ff4444" opacity="0.3"/>
<rect x="85.8" y="338.38807786805506" width="7.199999999999999" height="6.611922131944937" fill="#ff4444" opacity="0.3"/>
<rect x="97.8" y="340.1888558246445" width="7.199999999999999" height="4.81114417535548" fill="#ff4444" opacity="0.3"/>
<rect x="109.8" y="339.33658009800627" width="7.199999999999999" height="5.663419901993734" fill="#ff4444" opacity="0.3"/>
<rect x="121.8" y="338.9349551068672" width="7.199999999999999" height="6.065044893132779" fill="#ff4444" opacity="0.3"/>
<rect x="133.8" y="332.5216848989245" width="7.199999999999999" height="12.47831510107551" fill="#ff4444" opacity="0.3"/>
<rect x="145.8" y="332.79133026353696" width="7.199999999999999" height="12.208669736463037" fill="#ff4444" opacity="0.3"/>
<rect x="157.8" y="315.16985184436646" width="7.199999999999999" height="29.830148155633537" fill="#ff4444" opacity="0.3"/>
<rect x="169.8" y="331.2841260959339" width="7.199999999999999" height="13.715873904066086" fill="#ff4444" opacity="0.3"/>
<rect x="181.8" y="316.97526767709525" width="7.199999999999999" height="28.024732322904754" fill="#ff4444" opacity="0.3"/>
<rect x="193.8" y="306.31273010275726" width="7.199999999999999" height="38.68726989724274" fill="#ff4444" opacity="0.3"/>
<rect x="205.8" y="316.2254475361943" width="7.199999999999999" height="28.77455246380572" fill="#ff4444" opacity="0.3"/>
<rect x="217.8" y="309.9547448866473" width="7.199999999999999" height="35.04525511335271" fill="#ff4444" opacity="0.3"/>
<rect x="229.8" y="306.8202570363745" width="7.199999999999999" height="38.17974296362547" fill="#ff4444" opacity="0.3"/>
<rect x="241.8" y="303.5158796354252" width="7.199999999999999" height="41.48412036457478" fill="#ff4444" opacity="0.3"/>
<rect x="253.8" y="306.93946176504744" width="7.199999999999999" height="38.06053823495256" fill="#ff4444" opacity="0.3"/>
<rect x="265.8" y="309.94555208825085" width="7.199999999999999" height="35.05444791174915" fill="#ff4444" opacity="0.3"/>
<rect x="277.8" y="310.1588868493965" width="7.199999999999999" height="34.84111315060352" fill="#ff4444" opacity="0.3"/>
<rect x="289.8" y="300.0" width="7.199999999999999" height="45.0" fill="#ff4444" opacity="0.3"/>
<rect x="301.8" y="307.16171029789496" width="7.199999999999999" height="37.838289702105044" fill="#ff4444" opacity="0.3"/>
<rect x="313.8" y="333.18186959951373" width="7.199999999999999" height="11.818130400486268" fill="#44aa44" opacity="0.3"/>
<rect x="325.8" y="305.74902830838937" width="7.199999999999999" height="39.25097169161063" fill="#ff4444" opacity="0.3"/>
<rect x="337.8" y="312.4008361751322" width="7.199999999999999" height="32.59916382486779" fill="#44aa44" opacity="0.3"/>
<rect x="349.8" y="313.81812587572904" width="7.199999999999999" height="31.181874124270962" fill="#44aa44" opacity="0.3"/>
<rect x="361.8" y="317.4206169053979" width="7.199999999999999" height="27.57938309460212" fill="#44aa44" opacity="0.3"/>
<rect x="373.8" y="326.7918189373155" width="7.199999999999999" height="18.208181062684503" fill="#44aa44" opacity="0.3"/>
<rect x="385.8" y="325.34775021530305" width="7.199999999999999" height="19.65224978469695" fill="#ff4444" opacity="0.3"/>
<rect x="397.8" y="329.47448715647664" width="7.199999999999999" height="15.525512843523359" fill="#44aa44" opacity="0.3"/>
<rect x="409.8" y="335.5902998254952" width="7.199999999999999" height="9.409700174504792" fill="#44aa44" opacity="0.3"/>
<rect x="421.8" y="324.69878691259225" width="7.199999999999999" height="20.301213087407746" fill="#ff4444" opacity="0.3"/>
<rect x="433.8" y="317.7942034843647" width="7.199999999999999" height="27.205796515635313" fill="#ff4444" opacity="0.3"/>
<rect x="445.8" y="323.30733357565924" width="7.199999999999999" height="21.692666424340757" fill="#44aa44" opacity="0.3"/>
<rect x="457.8" y="331.45267330197174" width="7.199999999999999" height="13.547326698028257" fill="#44aa44" opacity="0.3"/>
<rect x="469.8" y="333.07283049203716" width="7.199999999999999" height="11.927169507962844" fill="#44aa44" opacity="0.3"/>
<rect x="481.8" y="334.353442359872" width="7.199999999999999" height="10.64655764012798" fill="#ff4444" opacity="0.3"/>
<rect x="493.8" y="323.69754109610733" width="7.199999999999999" height="21.30245890389267" fill="#ff4444" opacity="0.3"/>
<rect x="505.8" y="316.49967044684996" width="7.199999999999999" height="28.50032955315004" fill="#ff4444" opacity="0.3"/>
<rect x="517.8" y="318.58764228476105" width="7.199999999999999" height="26.412357715238954" fill="#ff4444" opacity="0.3"/>
<rect x="529.8" y="307.39560253929375" width="7.199999999999999" height="37.60439746070625" fill="#ff4444" opacity="0.3"/>
<rect x="541.8" y="301.85530128095877" width="7.199999999999999" height="43.14469871904123" fill="#ff4444" opacity="0.3"/>
<rect x="553.8" y="302.48850334605794" width="7.199999999999999" height="42.51149665394206" fill="#ff4444" opacity="0.3"/>
<rect x="565.8" y="304.7972380881996" width="7.199999999999999" height="40.202761911800394" fill="#ff4444" opacity="0.3"/>
<rect x="577.8" y="313.5188961402313" width="7.199999999999999" height="31.481103859768723" fill="#44aa44" opacity="0.3"/>
<rect x="589.8" y="311.88346789458524" width="7.199999999999999" height="33.11653210541476" fill="#ff4444" opacity="0.3"/>
<rect x="601.8" y="317.4005194421276" width="7.199999999999999" height="27.599480557872425" fill="#ff4444" opacity="0.3"/>
<rect x="613.8" y="303.26005740408647" width="7.199999999999999" height="41.73994259591353" fill="#44aa44" opacity="0.3"/>
<rect x="625.8" y="312.7999800910683" width="7.199999999999999" height="32.20001990893172" fill="#ff4444" opacity="0.3"/>
<rect x="637.8" y="313.7080083677843" width="7.199999999999999" height="31.291991632215684" fill="#44aa44" opacity="0.3"/>
<rect x="649.8" y="322.03079398931254" width="7.199999999999999" height="22.969206010687458" fill="#ff4444" opacity="0.3"/>
<rect x="661.8" y="306.6971157689297" width="7.199999999999999" height="38.30288423107032" fill="#44aa44" opacity="0.3"/>
<rect x="673.8" y="315.83697450600965" width="7.199999999999999" height="29.163025493990347" fill="#ff4444" opacity="0.3"/>
<rect x="685.8" y="321.91994497895234" width="7.199999999999999" height="23.080055021047656" fill="#44aa44" opacity="0.3"/>
<rect x="697.8" y="324.8586088784786" width="7.199999999999999" height="20.141391121521394" fill="#ff4444" opacity="0.3"/>
<rect x="709.8" y="327.20378299867724" width="7.199999999999999" height="17.79621700132276" fill="#44aa44" opacity="0.3"/>
<rect x="721.8" y="332.14680122289104" width="7.199999999999999" height="12.853198777108958" fill="#44aa44" opacity="0.3"/>
<rect x="733.8" y="335.3945135810588" width="7.199999999999999" height="9.605486418941211" fill="#ff4444" opacity="0.3"/>
<rect x="745.8" y="334.32715352048734" width="7.199999999999999" height="10.672846479512657" fill="#ff4444" opacity="0.3"/>
<rect x="757.8" y="329.68552183270765" width="7.199999999999999" height="15.31447816729235" fill="#ff4444" opacity="0.3"/>
<rect x="769.8" y="335.3175700847185" width="7.199999999999999" height="9.682429915281489" fill="#ff4444" opacity="0.3"/>
<polyline points="66.0,296.64 78.0,296.78 90.0,296.73 102.0,296.70 114.0,296.12 126.0,294.89 138.0,292.67 150.0,287.12 162.0,278.94 174.0,268.57 186.0,256.20 198.0,246.13 210.0,241.51 222.0,234.09 234.0,222.70 246.0,208.09 258.0,201.16 270.0,192.75 282.0,179.29 294.0,161.63 306.0,151.12 318.0,153.50 330.0,149.49 342.0,153.82 354.0,164.97 366.0,176.62 378.0,184.94 390.0,190.07 402.0,196.43 414.0,201.38 426.0,203.13 438.0,202.48 450.0,206.39 462.0,209.83 474.0,213.95 486.0,215.44 498.0,215.45 510.0,213.49 522.0,205.46 534.0,192.67 546.0,176.02 558.0,155.94 570.0,141.44 582.0,138.92 594.0,132.61 606.0,118.74 618.0,110.89 630.0,101.59 642.0,96.79 654.0,82.80 666.0,80.06 678.0,83.56 690.0,94.87 702.0,102.12 714.0,114.95 726.0,126.87 738.0,133.41 750.0,128.94 762.0,116.29 774.0,97.20" fill="none" stroke="#ffd700" stroke-width="0.8" opacity="0.7"/>
<polyline points="66.0,296.64 78.0,296.71 90.0,296.70 102.0,296.69 114.0,296.37 126.0,295.65 138.0,294.30 150.0,290.98 162.0,285.82 174.0,278.91 186.0,270.28 198.0,262.23 210.0,256.78 222.0,249.96 234.0,240.86 246.0,229.59 258.0,221.90 270.0,213.54 282.0,202.42 294.0,188.58 306.0,177.95 318.0,174.37 330.0,168.39 342.0,167.31 354.0,170.94 366.0,176.21 378.0,180.82 390.0,184.37 402.0,188.88 414.0,192.95 426.0,195.44 438.0,196.48 450.0,199.70 462.0,202.80 474.0,206.32 486.0,208.52 498.0,209.78 510.0,209.75 522.0,206.05 534.0,198.97 546.0,188.74 558.0,175.48 570.0,164.01 582.0,158.53 594.0,151.53 606.0,140.52 618.0,132.28 630.0,123.32 642.0,116.75 654.0,105.49 666.0,99.87 678.0,98.18 690.0,101.68 702.0,104.40 714.0,110.99 726.0,118.21 738.0,123.35 750.0,122.74 762.0,116.97 774.0,106.43" fill="none" stroke="#ff6b6b" stroke-width="0.8" opacity="0.7"/>
<polyline points="66.0,296.64 78.0,296.68 90.0,296.67 102.0,296.67 114.0,296.50 126.0,296.12 138.0,295.37 150.0,293.52 162.0,290.58 174.0,286.51 186.0,281.26 198.0,276.00 210.0,271.84 222.0,266.83 234.0,260.45 246.0,252.68 258.0,246.46 270.0,239.74 282.0,231.42 294.0,221.41 306.0,212.71 318.0,207.53 330.0,201.23 342.0,197.54 354.0,196.57 366.0,196.89 378.0,197.33 390.0,197.62 402.0,198.72 414.0,199.91 426.0,200.55 438.0,200.61 450.0,201.91 462.0,203.32 474.0,205.12 486.0,206.38 498.0,207.25 510.0,207.47 522.0,205.75 534.0,202.07 546.0,196.41 558.0,188.74 570.0,181.47 582.0,176.94 594.0,171.51 606.0,163.84 618.0,157.31 630.0,150.23 642.0,144.22 654.0,135.71 666.0,129.89 678.0,126.14 690.0,125.32 702.0,124.49 714.0,126.02 726.0,128.38 738.0,130.10 750.0,129.14 762.0,125.50 774.0,119.17" fill="none" stroke="#4ecdc4" stroke-width="0.8" opacity="0.7"/>
<line x1="66.0" y1="295.3738317757009" x2="66.0" y2="299.15887850467294" stroke="#ff4444" stroke-width="0.5" opacity="0.6"/>
<rect x="63.0" y="296.6355140186916" width="6.0" height="2.102803738317789" fill="#ff4444" opacity="0.85"/>
<line x1="78.0" y1="295.3738317757009" x2="78.0" y2="299.15887850467294" stroke="#ff4444" stroke-width="0.5" opacity="0.6"/>
<rect x="75.0" y="297.05607476635515" width="6.0" height="1.2616822429906733" fill="#ff4444" opacity="0.85"/>
<line x1="90.0" y1="294.11214953271036" x2="90.0" y2="298.7383177570094" stroke="#ff4444" stroke-width="0.5" opacity="0.6"/>
<rect x="87.0" y="296.6355140186916" width="6.0" height="0.8411214953271156" fill="#ff4444" opacity="0.85"/>
<line x1="102.0" y1="295.3738317757009" x2="102.0" y2="300.0" stroke="#ff4444" stroke-width="0.5" opacity="0.6"/>
<rect x="99.0" y="296.6355140186916" width="6.0" height="1.2616822429906733" fill="#ff4444" opacity="0.85"/>
<line x1="114.0" y1="294.53271028037386" x2="114.0" y2="297.05607476635515" stroke="#ff4444" stroke-width="0.5" opacity="0.6"/>
<rect x="111.0" y="294.9532710280374" width="6.0" height="0.8411214953271156" fill="#ff4444" opacity="0.85"/>
<line x1="126.0" y1="291.588785046729" x2="126.0" y2="296.6355140186916" stroke="#ff4444" stroke-width="0.5" opacity="0.6"/>
<rect x="123.0" y="292.4299065420561" width="6.0" height="2.9439252336448476" fill="#ff4444" opacity="0.85"/>
<line x1="138.0" y1="280.6542056074767" x2="138.0" y2="293.2710280373832" stroke="#ff4444" stroke-width="0.5" opacity="0.6"/>
<rect x="135.0" y="288.2242990654206" width="6.0" height="5.04672897196258" fill="#ff4444" opacity="0.85"/>
<line x1="150.0" y1="276.02803738317755" x2="150.0" y2="288.2242990654206" stroke="#ff4444" stroke-width="0.5" opacity="0.6"/>
<rect x="147.0" y="276.02803738317755" width="6.0" height="11.775700934579504" fill="#ff4444" opacity="0.85"/>
<line x1="162.0" y1="262.5700934579439" x2="162.0" y2="282.7570093457945" stroke="#ff4444" stroke-width="0.5" opacity="0.6"/>
<rect x="159.0" y="262.5700934579439" width="6.0" height="12.196261682243005" fill="#ff4444" opacity="0.85"/>
<line x1="174.0" y1="247.85046728971966" x2="174.0" y2="258.36448598130846" stroke="#ff4444" stroke-width="0.5" opacity="0.6"/>
<rect x="171.0" y="247.85046728971966" width="6.0" height="10.514018691588802" fill="#ff4444" opacity="0.85"/>
<line x1="186.0" y1="231.44859813084116" x2="186.0" y2="255.4205607476636" stroke="#ff4444" stroke-width="0.5" opacity="0.6"/>
<rect x="183.0" y="231.44859813084116" width="6.0" height="2.9439252336448476" fill="#ff4444" opacity="0.85"/>
<line x1="198.0" y1="215.88785046728978" x2="198.0" y2="238.59813084112156" stroke="#ff4444" stroke-width="0.5" opacity="0.6"/>
<rect x="195.0" y="225.98130841121497" width="6.0" height="4.205607476635521" fill="#ff4444" opacity="0.85"/>
<line x1="210.0" y1="225.14018691588788" x2="210.0" y2="244.48598130841123" stroke="#ff4444" stroke-width="0.5" opacity="0.6"/>
<rect x="207.0" y="232.28971962616825" width="6.0" height="3.785046728971963" fill="#ff4444" opacity="0.85"/>
<line x1="222.0" y1="214.20560747663552" x2="222.0" y2="233.97196261682248" stroke="#ff4444" stroke-width="0.5" opacity="0.6"/>
<rect x="219.0" y="219.2523364485982" width="6.0" height="13.87850467289715" fill="#ff4444" opacity="0.85"/>
<line x1="234.0" y1="199.9065420560748" x2="234.0" y2="233.5514018691589" stroke="#ff4444" stroke-width="0.5" opacity="0.6"/>
<rect x="231.0" y="199.9065420560748" width="6.0" height="29.43925233644856" fill="#ff4444" opacity="0.85"/>
<line x1="246.0" y1="178.87850467289724" x2="246.0" y2="199.9065420560748" stroke="#ff4444" stroke-width="0.5" opacity="0.6"/>
<rect x="243.0" y="178.87850467289724" width="6.0" height="19.766355140186903" fill="#ff4444" opacity="0.85"/>
<line x1="258.0" y1="171.30841121495328" x2="258.0" y2="202.00934579439254" stroke="#ff4444" stroke-width="0.5" opacity="0.6"/>
<rect x="255.0" y="187.28971962616825" width="6.0" height="0.5" fill="#ff4444" opacity="0.85"/>
<line x1="270.0" y1="172.99065420560748" x2="270.0" y2="209.57943925233647" stroke="#ff4444" stroke-width="0.5" opacity="0.6"/>
<rect x="267.0" y="175.93457943925236" width="6.0" height="11.35514018691589" fill="#ff4444" opacity="0.85"/>
<line x1="282.0" y1="152.38317757009347" x2="282.0" y2="188.13084112149534" stroke="#ff4444" stroke-width="0.5" opacity="0.6"/>
<rect x="279.0" y="152.38317757009347" width="6.0" height="27.336448598130858" fill="#ff4444" opacity="0.85"/>
<line x1="294.0" y1="126.30841121495331" x2="294.0" y2="166.26168224299067" stroke="#ff4444" stroke-width="0.5" opacity="0.6"/>
<rect x="291.0" y="126.30841121495331" width="6.0" height="23.551401869158866" fill="#ff4444" opacity="0.85"/>
<line x1="306.0" y1="109.90654205607477" x2="306.0" y2="144.81308411214954" stroke="#ff4444" stroke-width="0.5" opacity="0.6"/>
<rect x="303.0" y="130.09345794392527" width="6.0" height="5.887850467289695" fill="#ff4444" opacity="0.85"/>
<line x1="318.0" y1="136.82242990654208" x2="318.0" y2="158.27102803738322" stroke="#44aa44" stroke-width="0.5" opacity="0.6"/>
<rect x="315.0" y="143.13084112149534" width="6.0" height="15.140186915887881" fill="#44aa44" opacity="0.85"/>
<line x1="330.0" y1="135.5607476635514" x2="330.0" y2="175.51401869158883" stroke="#ff4444" stroke-width="0.5" opacity="0.6"/>
<rect x="327.0" y="141.44859813084113" width="6.0" height="34.0654205607477" fill="#ff4444" opacity="0.85"/>
<line x1="342.0" y1="147.3364485981309" x2="342.0" y2="168.36448598130843" stroke="#44aa44" stroke-width="0.5" opacity="0.6"/>
<rect x="339.0" y="147.3364485981309" width="6.0" height="15.140186915887824" fill="#44aa44" opacity="0.85"/>
<line x1="354.0" y1="155.7476635514019" x2="354.0" y2="187.28971962616825" stroke="#44aa44" stroke-width="0.5" opacity="0.6"/>
<rect x="351.0" y="162.05607476635518" width="6.0" height="25.23364485981307" fill="#44aa44" opacity="0.85"/>
<line x1="366.0" y1="185.1869158878505" x2="366.0" y2="202.00934579439254" stroke="#44aa44" stroke-width="0.5" opacity="0.6"/>
<rect x="363.0" y="191.91588785046733" width="6.0" height="7.990654205607484" fill="#44aa44" opacity="0.85"/>
<line x1="378.0" y1="196.12149532710282" x2="378.0" y2="206.6355140186916" stroke="#44aa44" stroke-width="0.5" opacity="0.6"/>
<rect x="375.0" y="200.7476635514019" width="6.0" height="0.8411214953270871" fill="#44aa44" opacity="0.85"/>
<line x1="390.0" y1="196.96261682242994" x2="390.0" y2="204.53271028037383" stroke="#ff4444" stroke-width="0.5" opacity="0.6"/>
<rect x="387.0" y="200.32710280373834" width="6.0" height="0.5" fill="#ff4444" opacity="0.85"/>
<line x1="402.0" y1="204.1121495327103" x2="402.0" y2="211.68224299065423" stroke="#44aa44" stroke-width="0.5" opacity="0.6"/>
<rect x="399.0" y="204.53271028037383" width="6.0" height="4.626168224299079" fill="#44aa44" opacity="0.85"/>
<line x1="414.0" y1="207.4766355140187" x2="414.0" y2="212.9439252336449" stroke="#44aa44" stroke-width="0.5" opacity="0.6"/>
<rect x="411.0" y="209.1588785046729" width="6.0" height="2.102803738317789" fill="#44aa44" opacity="0.85"/>
<line x1="426.0" y1="203.2710280373832" x2="426.0" y2="212.9439252336449" stroke="#ff4444" stroke-width="0.5" opacity="0.6"/>
<rect x="423.0" y="206.6355140186916" width="6.0" height="4.626168224299107" fill="#ff4444" opacity="0.85"/>
<line x1="438.0" y1="197.38317757009347" x2="438.0" y2="211.2616822429907" stroke="#ff4444" stroke-width="0.5" opacity="0.6"/>
<rect x="435.0" y="201.16822429906543" width="6.0" height="7.990654205607484" fill="#ff4444" opacity="0.85"/>
<line x1="450.0" y1="205.7943925233645" x2="450.0" y2="219.2523364485982" stroke="#44aa44" stroke-width="0.5" opacity="0.6"/>
<rect x="447.0" y="207.05607476635518" width="6.0" height="7.14953271028034" fill="#44aa44" opacity="0.85"/>
<line x1="462.0" y1="212.9439252336449" x2="462.0" y2="221.77570093457945" stroke="#44aa44" stroke-width="0.5" opacity="0.6"/>
<rect x="459.0" y="212.9439252336449" width="6.0" height="3.7850467289719347" fill="#44aa44" opacity="0.85"/>
<line x1="474.0" y1="212.9439252336449" x2="474.0" y2="223.8785046728972" stroke="#44aa44" stroke-width="0.5" opacity="0.6"/>
<rect x="471.0" y="215.88785046728978" width="6.0" height="6.3084112149532245" fill="#44aa44" opacity="0.85"/>
<line x1="486.0" y1="217.9906542056075" x2="486.0" y2="223.03738317757012" stroke="#ff4444" stroke-width="0.5" opacity="0.6"/>
<rect x="483.0" y="218.41121495327104" width="6.0" height="3.785046728971963" fill="#ff4444" opacity="0.85"/>
<line x1="498.0" y1="206.6355140186916" x2="498.0" y2="225.5607476635514" stroke="#ff4444" stroke-width="0.5" opacity="0.6"/>
<rect x="495.0" y="215.46728971962617" width="6.0" height="2.5233644859813467" fill="#ff4444" opacity="0.85"/>
<line x1="510.0" y1="198.64485981308414" x2="510.0" y2="220.9345794392524" stroke="#ff4444" stroke-width="0.5" opacity="0.6"/>
<rect x="507.0" y="209.57943925233647" width="6.0" height="7.9906542056075125" fill="#ff4444" opacity="0.85"/>
<line x1="522.0" y1="189.392523364486" x2="522.0" y2="207.05607476635518" stroke="#ff4444" stroke-width="0.5" opacity="0.6"/>
<rect x="519.0" y="189.392523364486" width="6.0" height="17.66355140186917" fill="#ff4444" opacity="0.85"/>
<line x1="534.0" y1="167.10280373831776" x2="534.0" y2="182.6635514018692" stroke="#ff4444" stroke-width="0.5" opacity="0.6"/>
<rect x="531.0" y="167.10280373831776" width="6.0" height="11.35514018691589" fill="#ff4444" opacity="0.85"/>
<line x1="546.0" y1="142.7102803738318" x2="546.0" y2="191.4953271028038" stroke="#ff4444" stroke-width="0.5" opacity="0.6"/>
<rect x="543.0" y="142.7102803738318" width="6.0" height="31.12149532710282" fill="#ff4444" opacity="0.85"/>
<line x1="558.0" y1="115.79439252336452" x2="558.0" y2="147.3364485981309" stroke="#ff4444" stroke-width="0.5" opacity="0.6"/>
<rect x="555.0" y="115.79439252336452" width="6.0" height="29.018691588785018" fill="#ff4444" opacity="0.85"/>
<line x1="570.0" y1="90.14018691588788" x2="570.0" y2="135.5607476635514" stroke="#ff4444" stroke-width="0.5" opacity="0.6"/>
<rect x="567.0" y="112.42990654205612" width="6.0" height="6.308411214953239" fill="#ff4444" opacity="0.85"/>
<line x1="582.0" y1="109.48598130841124" x2="582.0" y2="135.5607476635514" stroke="#44aa44" stroke-width="0.5" opacity="0.6"/>
<rect x="579.0" y="113.2710280373832" width="6.0" height="20.607476635514033" fill="#44aa44" opacity="0.85"/>
<line x1="594.0" y1="116.63551401869161" x2="594.0" y2="134.2990654205608" stroke="#ff4444" stroke-width="0.5" opacity="0.6"/>
<rect x="591.0" y="120.00000000000003" width="6.0" height="13.45794392523365" fill="#ff4444" opacity="0.85"/>
<line x1="606.0" y1="90.98130841121497" x2="606.0" y2="128.41121495327104" stroke="#ff4444" stroke-width="0.5" opacity="0.6"/>
<rect x="603.0" y="90.98130841121497" width="6.0" height="35.32710280373834" fill="#ff4444" opacity="0.85"/>
<line x1="618.0" y1="65.74766355140186" x2="618.0" y2="98.13084112149534" stroke="#44aa44" stroke-width="0.5" opacity="0.6"/>
<rect x="615.0" y="82.99065420560751" width="6.0" height="12.19626168224299" fill="#44aa44" opacity="0.85"/>
<line x1="630.0" y1="77.52336448598135" x2="630.0" y2="105.70093457943928" stroke="#ff4444" stroke-width="0.5" opacity="0.6"/>
<rect x="627.0" y="82.99065420560751" width="6.0" height="15.98130841121494" fill="#ff4444" opacity="0.85"/>
<line x1="642.0" y1="74.57943925233647" x2="642.0" y2="112.42990654205612" stroke="#44aa44" stroke-width="0.5" opacity="0.6"/>
<rect x="639.0" y="86.35514018691592" width="6.0" height="0.8411214953270871" fill="#44aa44" opacity="0.85"/>
<line x1="654.0" y1="54.813084112149525" x2="654.0" y2="97.28971962616825" stroke="#ff4444" stroke-width="0.5" opacity="0.6"/>
<rect x="651.0" y="54.813084112149525" width="6.0" height="42.476635514018724" fill="#ff4444" opacity="0.85"/>
<line x1="666.0" y1="30.0" x2="666.0" y2="74.57943925233647" stroke="#44aa44" stroke-width="0.5" opacity="0.6"/>
<rect x="663.0" y="38.41121495327107" width="6.0" height="36.1682242990654" fill="#44aa44" opacity="0.85"/>
<line x1="678.0" y1="57.7570093457944" x2="678.0" y2="108.22429906542057" stroke="#ff4444" stroke-width="0.5" opacity="0.6"/>
<rect x="675.0" y="90.56074766355141" width="6.0" height="1.682242990654217" fill="#ff4444" opacity="0.85"/>
<line x1="690.0" y1="96.44859813084113" x2="690.0" y2="121.68224299065423" stroke="#44aa44" stroke-width="0.5" opacity="0.6"/>
<rect x="687.0" y="107.80373831775704" width="6.0" height="9.672897196261658" fill="#44aa44" opacity="0.85"/>
<line x1="702.0" y1="106.96261682242992" x2="702.0" y2="131.3551401869159" stroke="#ff4444" stroke-width="0.5" opacity="0.6"/>
<rect x="699.0" y="116.63551401869161" width="6.0" height="8.411214953271028" fill="#ff4444" opacity="0.85"/>
<line x1="714.0" y1="120.00000000000003" x2="714.0" y2="143.5514018691589" stroke="#44aa44" stroke-width="0.5" opacity="0.6"/>
<rect x="711.0" y="120.84112149532712" width="6.0" height="19.76635514018693" fill="#44aa44" opacity="0.85"/>
<line x1="726.0" y1="130.09345794392527" x2="726.0" y2="151.54205607476638" stroke="#44aa44" stroke-width="0.5" opacity="0.6"/>
<rect x="723.0" y="145.65420560747668" width="6.0" height="5.04672897196258" fill="#44aa44" opacity="0.85"/>
<line x1="738.0" y1="144.392523364486" x2="738.0" y2="157.8504672897197" stroke="#ff4444" stroke-width="0.5" opacity="0.6"/>
<rect x="735.0" y="146.49532710280377" width="6.0" height="4.2056074766354925" fill="#ff4444" opacity="0.85"/>
<line x1="750.0" y1="120.00000000000003" x2="750.0" y2="147.3364485981309" stroke="#ff4444" stroke-width="0.5" opacity="0.6"/>
<rect x="747.0" y="120.00000000000003" width="6.0" height="26.495327102803742" fill="#ff4444" opacity="0.85"/>
<line x1="762.0" y1="90.98130841121497" x2="762.0" y2="109.48598130841124" stroke="#ff4444" stroke-width="0.5" opacity="0.6"/>
<rect x="759.0" y="90.98130841121497" width="6.0" height="14.299065420560765" fill="#ff4444" opacity="0.85"/>
<line x1="774.0" y1="59.0186915887851" x2="774.0" y2="86.77570093457946" stroke="#ff4444" stroke-width="0.5" opacity="0.6"/>
<rect x="771.0" y="59.0186915887851" width="6.0" height="21.448598130841063" fill="#ff4444" opacity="0.85"/>
<rect x="122.0" y="287.588785046729" width="8" height="8" fill="#ff9800" opacity="0.85" rx="1"/>
<text x="126.0" y="285.588785046729" text-anchor="middle" font-family="sans-serif" font-size="8" fill="#ff9800">前高</text>
<rect x="134.0" y="276.6542056074767" width="8" height="8" fill="#ff9800" opacity="0.85" rx="1"/>
<text x="138.0" y="274.6542056074767" text-anchor="middle" font-family="sans-serif" font-size="8" fill="#ff9800">前高</text>
<rect x="146.0" y="272.02803738317755" width="8" height="8" fill="#ff9800" opacity="0.85" rx="1"/>
<text x="150.0" y="270.02803738317755" text-anchor="middle" font-family="sans-serif" font-size="8" fill="#ff9800">前高</text>
<rect x="158.0" y="258.5700934579439" width="8" height="8" fill="#ff9800" opacity="0.85" rx="1"/>
<text x="162.0" y="256.5700934579439" text-anchor="middle" font-family="sans-serif" font-size="8" fill="#ff9800">前高</text>
<rect x="170.0" y="243.85046728971966" width="8" height="8" fill="#ff9800" opacity="0.85" rx="1"/>
<text x="174.0" y="241.85046728971966" text-anchor="middle" font-family="sans-serif" font-size="8" fill="#ff9800">前高</text>
<rect x="182.0" y="227.44859813084116" width="8" height="8" fill="#ff9800" opacity="0.85" rx="1"/>
<text x="186.0" y="225.44859813084116" text-anchor="middle" font-family="sans-serif" font-size="8" fill="#ff9800">前高</text>
<rect x="182.0" y="227.44859813084116" width="8" height="8" fill="#2196f3" opacity="0.85" rx="1"/>
<text x="186.0" y="225.44859813084116" text-anchor="middle" font-family="sans-serif" font-size="8" fill="#2196f3">突</text>
<rect x="194.0" y="211.88785046728978" width="8" height="8" fill="#ff9800" opacity="0.85" rx="1"/>
<text x="198.0" y="209.88785046728978" text-anchor="middle" font-family="sans-serif" font-size="8" fill="#ff9800">前高</text>
<rect x="218.0" y="210.20560747663552" width="8" height="8" fill="#ff9800" opacity="0.85" rx="1"/>
<text x="222.0" y="208.20560747663552" text-anchor="middle" font-family="sans-serif" font-size="8" fill="#ff9800">前高</text>
<rect x="230.0" y="195.9065420560748" width="8" height="8" fill="#ff9800" opacity="0.85" rx="1"/>
<text x="234.0" y="193.9065420560748" text-anchor="middle" font-family="sans-serif" font-size="8" fill="#ff9800">前高</text>
<rect x="230.0" y="195.9065420560748" width="8" height="8" fill="#2196f3" opacity="0.85" rx="1"/>
<text x="234.0" y="193.9065420560748" text-anchor="middle" font-family="sans-serif" font-size="8" fill="#2196f3">突</text>
<rect x="242.0" y="174.87850467289724" width="8" height="8" fill="#ff9800" opacity="0.85" rx="1"/>
<text x="246.0" y="172.87850467289724" text-anchor="middle" font-family="sans-serif" font-size="8" fill="#ff9800">前高</text>
<rect x="242.0" y="174.87850467289724" width="8" height="8" fill="#2196f3" opacity="0.85" rx="1"/>
<text x="246.0" y="172.87850467289724" text-anchor="middle" font-family="sans-serif" font-size="8" fill="#2196f3">突</text>
<rect x="254.0" y="167.30841121495328" width="8" height="8" fill="#ff9800" opacity="0.85" rx="1"/>
<text x="258.0" y="165.30841121495328" text-anchor="middle" font-family="sans-serif" font-size="8" fill="#ff9800">前高</text>
<rect x="278.0" y="148.38317757009347" width="8" height="8" fill="#ff9800" opacity="0.85" rx="1"/>
<text x="282.0" y="146.38317757009347" text-anchor="middle" font-family="sans-serif" font-size="8" fill="#ff9800">前高</text>
<rect x="278.0" y="148.38317757009347" width="8" height="8" fill="#2196f3" opacity="0.85" rx="1"/>
<text x="282.0" y="146.38317757009347" text-anchor="middle" font-family="sans-serif" font-size="8" fill="#2196f3">突</text>
<rect x="290.0" y="122.30841121495331" width="8" height="8" fill="#ff9800" opacity="0.85" rx="1"/>
<text x="294.0" y="120.30841121495331" text-anchor="middle" font-family="sans-serif" font-size="8" fill="#ff9800">前高</text>
<rect x="290.0" y="122.30841121495331" width="8" height="8" fill="#2196f3" opacity="0.85" rx="1"/>
<text x="294.0" y="120.30841121495331" text-anchor="middle" font-family="sans-serif" font-size="8" fill="#2196f3">突</text>
<rect x="302.0" y="105.90654205607477" width="8" height="8" fill="#ff9800" opacity="0.85" rx="1"/>
<text x="306.0" y="103.90654205607477" text-anchor="middle" font-family="sans-serif" font-size="8" fill="#ff9800">前高</text>
<rect x="314.0" y="122.09813084112155" width="8" height="8" fill="#ff9800" opacity="0.85" rx="1"/>
<text x="318.0" y="120.09813084112155" text-anchor="middle" font-family="sans-serif" font-size="8" fill="#ff9800">量</text>
<rect x="398.0" y="207.68224299065423" width="8" height="8" fill="#4caf50" opacity="0.85" rx="1"/>
<text x="402.0" y="205.68224299065423" text-anchor="middle" font-family="sans-serif" font-size="8" fill="#4caf50">前低</text>
<rect x="410.0" y="208.9439252336449" width="8" height="8" fill="#4caf50" opacity="0.85" rx="1"/>
<text x="414.0" y="206.9439252336449" text-anchor="middle" font-family="sans-serif" font-size="8" fill="#4caf50">前低</text>
<rect x="422.0" y="208.9439252336449" width="8" height="8" fill="#4caf50" opacity="0.85" rx="1"/>
<text x="426.0" y="206.9439252336449" text-anchor="middle" font-family="sans-serif" font-size="8" fill="#4caf50">前低</text>
<rect x="446.0" y="215.2523364485982" width="8" height="8" fill="#4caf50" opacity="0.85" rx="1"/>
<text x="450.0" y="213.2523364485982" text-anchor="middle" font-family="sans-serif" font-size="8" fill="#4caf50">前低</text>
<rect x="458.0" y="217.77570093457945" width="8" height="8" fill="#4caf50" opacity="0.85" rx="1"/>
<text x="462.0" y="215.77570093457945" text-anchor="middle" font-family="sans-serif" font-size="8" fill="#4caf50">前低</text>
<rect x="470.0" y="219.8785046728972" width="8" height="8" fill="#4caf50" opacity="0.85" rx="1"/>
<text x="474.0" y="217.8785046728972" text-anchor="middle" font-family="sans-serif" font-size="8" fill="#4caf50">前低</text>
<rect x="494.0" y="221.5607476635514" width="8" height="8" fill="#4caf50" opacity="0.85" rx="1"/>
<text x="498.0" y="219.5607476635514" text-anchor="middle" font-family="sans-serif" font-size="8" fill="#4caf50">前低</text>
<rect x="518.0" y="185.392523364486" width="8" height="8" fill="#ff9800" opacity="0.85" rx="1"/>
<text x="522.0" y="183.392523364486" text-anchor="middle" font-family="sans-serif" font-size="8" fill="#ff9800">前高</text>
<rect x="518.0" y="185.392523364486" width="8" height="8" fill="#2196f3" opacity="0.85" rx="1"/>
<text x="522.0" y="183.392523364486" text-anchor="middle" font-family="sans-serif" font-size="8" fill="#2196f3">突</text>
<rect x="530.0" y="163.10280373831776" width="8" height="8" fill="#ff9800" opacity="0.85" rx="1"/>
<text x="534.0" y="161.10280373831776" text-anchor="middle" font-family="sans-serif" font-size="8" fill="#ff9800">前高</text>
<rect x="530.0" y="163.10280373831776" width="8" height="8" fill="#2196f3" opacity="0.85" rx="1"/>
<text x="534.0" y="161.10280373831776" text-anchor="middle" font-family="sans-serif" font-size="8" fill="#2196f3">突</text>
<rect x="542.0" y="138.7102803738318" width="8" height="8" fill="#ff9800" opacity="0.85" rx="1"/>
<text x="546.0" y="136.7102803738318" text-anchor="middle" font-family="sans-serif" font-size="8" fill="#ff9800">前高</text>
<rect x="542.0" y="138.7102803738318" width="8" height="8" fill="#2196f3" opacity="0.85" rx="1"/>
<text x="546.0" y="136.7102803738318" text-anchor="middle" font-family="sans-serif" font-size="8" fill="#2196f3">突</text>
<rect x="554.0" y="111.79439252336452" width="8" height="8" fill="#ff9800" opacity="0.85" rx="1"/>
<text x="558.0" y="109.79439252336452" text-anchor="middle" font-family="sans-serif" font-size="8" fill="#ff9800">前高</text>
<rect x="554.0" y="111.79439252336452" width="8" height="8" fill="#2196f3" opacity="0.85" rx="1"/>
<text x="558.0" y="109.79439252336452" text-anchor="middle" font-family="sans-serif" font-size="8" fill="#2196f3">突</text>
<rect x="566.0" y="86.14018691588788" width="8" height="8" fill="#ff9800" opacity="0.85" rx="1"/>
<text x="570.0" y="84.14018691588788" text-anchor="middle" font-family="sans-serif" font-size="8" fill="#ff9800">前高</text>
<rect x="614.0" y="61.74766355140186" width="8" height="8" fill="#ff9800" opacity="0.85" rx="1"/>
<text x="618.0" y="59.74766355140186" text-anchor="middle" font-family="sans-serif" font-size="8" fill="#ff9800">前高</text>
<rect x="650.0" y="50.813084112149525" width="8" height="8" fill="#ff9800" opacity="0.85" rx="1"/>
<text x="654.0" y="48.813084112149525" text-anchor="middle" font-family="sans-serif" font-size="8" fill="#ff9800">前高</text>
<rect x="650.0" y="50.813084112149525" width="8" height="8" fill="#2196f3" opacity="0.85" rx="1"/>
<text x="654.0" y="48.813084112149525" text-anchor="middle" font-family="sans-serif" font-size="8" fill="#2196f3">突</text>
<rect x="662.0" y="26.0" width="8" height="8" fill="#ff9800" opacity="0.85" rx="1"/>
<text x="666.0" y="24.0" text-anchor="middle" font-family="sans-serif" font-size="8" fill="#ff9800">前高</text>
<rect x="710.0" y="139.5514018691589" width="8" height="8" fill="#4caf50" opacity="0.85" rx="1"/>
<text x="714.0" y="137.5514018691589" text-anchor="middle" font-family="sans-serif" font-size="8" fill="#4caf50">前低</text>
<rect x="722.0" y="147.54205607476638" width="8" height="8" fill="#4caf50" opacity="0.85" rx="1"/>
<text x="726.0" y="145.54205607476638" text-anchor="middle" font-family="sans-serif" font-size="8" fill="#4caf50">前低</text>
<rect x="734.0" y="153.8504672897197" width="8" height="8" fill="#4caf50" opacity="0.85" rx="1"/>
<text x="738.0" y="151.8504672897197" text-anchor="middle" font-family="sans-serif" font-size="8" fill="#4caf50">前低</text>
<line x1="60" y1="115.79439252336452" x2="780" y2="115.79439252336452" stroke="#4caf50" stroke-width="1.5" stroke-dasharray="6,3" opacity="0.7"/>
<text x="64" y="111.79439252336452" font-family="sans-serif" font-size="9" fill="#4caf50" font-weight="bold">支撑 7.02</text>
<line x1="60" y1="30.0" x2="780" y2="30.0" stroke="#f44336" stroke-width="1.5" stroke-dasharray="6,3" opacity="0.7"/>
<text x="64" y="26.0" font-family="sans-serif" font-size="9" fill="#f44336" font-weight="bold">压力 9.06</text>
<text x="66.0" y="359" text-anchor="middle" font-family="sans-serif" font-size="8" fill="#666666" transform="rotate(-40,66.0,359)">02/27</text>
<text x="138.0" y="359" text-anchor="middle" font-family="sans-serif" font-size="8" fill="#666666" transform="rotate(-40,138.0,359)">03/09</text>
<text x="210.0" y="359" text-anchor="middle" font-family="sans-serif" font-size="8" fill="#666666" transform="rotate(-40,210.0,359)">03/17</text>
<text x="282.0" y="359" text-anchor="middle" font-family="sans-serif" font-size="8" fill="#666666" transform="rotate(-40,282.0,359)">03/25</text>
<text x="354.0" y="359" text-anchor="middle" font-family="sans-serif" font-size="8" fill="#666666" transform="rotate(-40,354.0,359)">04/02</text>
<text x="426.0" y="359" text-anchor="middle" font-family="sans-serif" font-size="8" fill="#666666" transform="rotate(-40,426.0,359)">04/13</text>
<text x="498.0" y="359" text-anchor="middle" font-family="sans-serif" font-size="8" fill="#666666" transform="rotate(-40,498.0,359)">04/21</text>
<text x="570.0" y="359" text-anchor="middle" font-family="sans-serif" font-size="8" fill="#666666" transform="rotate(-40,570.0,359)">04/29</text>
<text x="642.0" y="359" text-anchor="middle" font-family="sans-serif" font-size="8" fill="#666666" transform="rotate(-40,642.0,359)">05/12</text>
<text x="714.0" y="359" text-anchor="middle" font-family="sans-serif" font-size="8" fill="#666666" transform="rotate(-40,714.0,359)">05/20</text>
<text x="774.0" y="359" text-anchor="middle" font-family="sans-serif" font-size="8" fill="#666666" transform="rotate(-40,774.0,359)">05/27</text>
<text x="400.0" y="396" text-anchor="middle" font-family="sans-serif" font-size="9" fill="#555555">数据截至: 2026-05-27 21:00  |  最新K线: 20260527</text>
<rect x="50" y="373" width="8" height="8" fill="#ffd700" opacity="0.8" rx="1"/>
<text x="61" y="380" font-family="sans-serif" font-size="9" fill="#888888">EMA5</text>
<rect x="150" y="373" width="8" height="8" fill="#ff6b6b" opacity="0.8" rx="1"/>
<text x="161" y="380" font-family="sans-serif" font-size="9" fill="#888888">EMA10</text>
<rect x="250" y="373" width="8" height="8" fill="#4ecdc4" opacity="0.8" rx="1"/>
<text x="261" y="380" font-family="sans-serif" font-size="9" fill="#888888">EMA20</text>
<rect x="350" y="373" width="8" height="8" fill="#2196f3" opacity="0.8" rx="1"/>
<text x="361" y="380" font-family="sans-serif" font-size="9" fill="#888888">突破</text>
<rect x="450" y="373" width="8" height="8" fill="#ff9800" opacity="0.8" rx="1"/>
<text x="461" y="380" font-family="sans-serif" font-size="9" fill="#888888">前高/量</text>
<rect x="550" y="373" width="8" height="8" fill="#4caf50" opacity="0.8" rx="1"/>
<text x="561" y="380" font-family="sans-serif" font-size="9" fill="#888888">前低</text>
</svg>