<svg xmlns="http://www.w3.org/2000/svg" width="750" height="540" viewBox="0 0 750 540">
<rect width="750" height="540" fill="#1a1a2e"/>
<text x="375.0" y="22" text-anchor="middle" font-family="sans-serif" font-size="15" fill="#ffffff" font-weight="bold">通富微电(002156) 趋势交易分析图</text>
<text x="60" y="31" font-family="sans-serif" font-size="10" fill="#888888">最新: 71.52</text>
<line x1="60" y1="112.9199310930675" x2="725" y2="112.9199310930675" stroke="#4ecdc4" stroke-width="0.5" stroke-dasharray="4,3" opacity="0.4"/>
<text x="62" y="110.9199310930675" font-family="sans-serif" font-size="7" fill="#4ecdc4" opacity="0.6">买入↑2%</text>
<line x1="60" y1="71.2986223165713" x2="725" y2="71.2986223165713" stroke="#e94560" stroke-width="0.5" stroke-dasharray="4,3" opacity="0.4"/>
<text x="62" y="69.2986223165713" font-family="sans-serif" font-size="7" fill="#e94560" opacity="0.6">警戒↑8%</text>
<rect x="60" y="112.9199310930675" width="3" height="270.0800689069325" fill="#4ecdc4" opacity="0.3" rx="1"/>
<rect x="60" y="71.2986223165713" width="3" height="311.7013776834287" fill="#e94560" opacity="0.3" rx="1"/>
<rect x="60" y="71.2986223165713" width="3" height="41.62130877649621" fill="#ffd700" opacity="0.2" rx="1"/>
<line x1="60" y1="32.0" x2="725" y2="32.0" stroke="#2a2a4e" stroke-width="0.5"/>
<text x="56" y="35.0" text-anchor="end" font-family="sans-serif" font-size="8" fill="#666666">78.6</text>
<line x1="60" y1="127.75000000000006" x2="725" y2="127.75000000000006" stroke="#2a2a4e" stroke-width="0.5"/>
<text x="56" y="130.75000000000006" text-anchor="end" font-family="sans-serif" font-size="8" fill="#666666">69.0</text>
<line x1="60" y1="223.49999999999997" x2="725" y2="223.49999999999997" stroke="#2a2a4e" stroke-width="0.5"/>
<text x="56" y="226.49999999999997" text-anchor="end" font-family="sans-serif" font-size="8" fill="#666666">59.5</text>
<line x1="60" y1="319.25" x2="725" y2="319.25" stroke="#2a2a4e" stroke-width="0.5"/>
<text x="56" y="322.25" text-anchor="end" font-family="sans-serif" font-size="8" fill="#666666">49.9</text>
<line x1="60" y1="415.0" x2="725" y2="415.0" stroke="#2a2a4e" stroke-width="0.5"/>
<text x="56" y="418.0" text-anchor="end" font-family="sans-serif" font-size="8" fill="#666666">40.4</text>
<rect x="61.66250000000001" y="462.86019912469357" width="6.095833333333334" height="12.139800875306431" fill="#ff4444" opacity="0.35"/>
<rect x="72.74583333333334" y="463.04039379057934" width="6.095833333333334" height="11.959606209420647" fill="#44aa44" opacity="0.35"/>
<rect x="83.82916666666668" y="462.3237519098118" width="6.095833333333334" height="12.676248090188235" fill="#44aa44" opacity="0.35"/>
<rect x="94.91250000000001" y="466.68042006864556" width="6.095833333333334" height="8.319579931354413" fill="#ff4444" opacity="0.35"/>
<rect x="105.99583333333335" y="466.7598922277849" width="6.095833333333334" height="8.240107772215081" fill="#44aa44" opacity="0.35"/>
<rect x="117.07916666666668" y="468.22165311478096" width="6.095833333333334" height="6.778346885219023" fill="#44aa44" opacity="0.35"/>
<rect x="128.1625" y="466.1397545326052" width="6.095833333333334" height="8.86024546739482" fill="#ff4444" opacity="0.35"/>
<rect x="139.24583333333334" y="468.9425140391992" width="6.095833333333334" height="6.057485960800828" fill="#ff4444" opacity="0.35"/>
<rect x="150.32916666666668" y="468.54242542334345" width="6.095833333333334" height="6.457574576656548" fill="#44aa44" opacity="0.35"/>
<rect x="161.4125" y="468.9694413161032" width="6.095833333333334" height="6.030558683896774" fill="#44aa44" opacity="0.35"/>
<rect x="172.49583333333334" y="469.9867521654855" width="6.095833333333334" height="5.013247834514534" fill="#44aa44" opacity="0.35"/>
<rect x="183.57916666666668" y="467.49789726812503" width="6.095833333333334" height="7.502102731874961" fill="#ff4444" opacity="0.35"/>
<rect x="194.6625" y="469.17844421521295" width="6.095833333333334" height="5.821555784787031" fill="#44aa44" opacity="0.35"/>
<rect x="205.74583333333334" y="465.90116961133765" width="6.095833333333334" height="9.09883038866236" fill="#ff4444" opacity="0.35"/>
<rect x="216.82916666666668" y="467.77408428562205" width="6.095833333333334" height="7.225915714377974" fill="#44aa44" opacity="0.35"/>
<rect x="227.9125" y="468.43132514469744" width="6.095833333333334" height="6.568674855302546" fill="#44aa44" opacity="0.35"/>
<rect x="238.99583333333334" y="468.04312049013856" width="6.095833333333334" height="6.956879509861426" fill="#44aa44" opacity="0.35"/>
<rect x="250.07916666666668" y="469.9083951211442" width="6.095833333333334" height="5.091604878855785" fill="#44aa44" opacity="0.35"/>
<rect x="261.1625" y="468.66491537554396" width="6.095833333333334" height="6.335084624456029" fill="#ff4444" opacity="0.35"/>
<rect x="272.2458333333334" y="470.9337667105765" width="6.095833333333334" height="4.066233289423513" fill="#44aa44" opacity="0.35"/>
<rect x="283.3291666666667" y="471.3998112084165" width="6.095833333333334" height="3.600188791583469" fill="#ff4444" opacity="0.35"/>
<rect x="294.4125" y="471.49738354682233" width="6.095833333333334" height="3.5026164531776525" fill="#ff4444" opacity="0.35"/>
<rect x="305.4958333333334" y="471.5035943977085" width="6.095833333333334" height="3.49640560229145" fill="#44aa44" opacity="0.35"/>
<rect x="316.5791666666667" y="471.0394798824314" width="6.095833333333334" height="3.960520117568617" fill="#44aa44" opacity="0.35"/>
<rect x="327.6625" y="471.03229521554" width="6.095833333333334" height="3.9677047844599933" fill="#44aa44" opacity="0.35"/>
<rect x="338.7458333333334" y="472.09620958578796" width="6.095833333333334" height="2.903790414212037" fill="#44aa44" opacity="0.35"/>
<rect x="349.8291666666667" y="471.3480747947312" width="6.095833333333334" height="3.6519252052688245" fill="#ff4444" opacity="0.35"/>
<rect x="360.9125" y="467.3986297570569" width="6.095833333333334" height="7.601370242943096" fill="#ff4444" opacity="0.35"/>
<rect x="371.9958333333334" y="468.74674874175804" width="6.095833333333334" height="6.253251258241939" fill="#ff4444" opacity="0.35"/>
<rect x="383.0791666666667" y="468.4242652624961" width="6.095833333333334" height="6.575734737503911" fill="#44aa44" opacity="0.35"/>
<rect x="394.1625" y="469.4684960606492" width="6.095833333333334" height="5.531503939350777" fill="#ff4444" opacity="0.35"/>
<rect x="405.2458333333334" y="467.59093400817034" width="6.095833333333334" height="7.409065991829647" fill="#ff4444" opacity="0.35"/>
<rect x="416.3291666666667" y="465.85796541534" width="6.095833333333334" height="9.14203458465999" fill="#ff4444" opacity="0.35"/>
<rect x="427.4125" y="467.08077817401795" width="6.095833333333334" height="7.919221825982051" fill="#ff4444" opacity="0.35"/>
<rect x="438.4958333333334" y="465.1915767753914" width="6.095833333333334" height="9.808423224608608" fill="#44aa44" opacity="0.35"/>
<rect x="449.5791666666667" y="467.45294536397523" width="6.095833333333334" height="7.547054636024749" fill="#ff4444" opacity="0.35"/>
<rect x="460.6625" y="467.1986138327434" width="6.095833333333334" height="7.801386167256603" fill="#44aa44" opacity="0.35"/>
<rect x="471.7458333333334" y="465.39934555494904" width="6.095833333333334" height="9.600654445050946" fill="#ff4444" opacity="0.35"/>
<rect x="482.8291666666667" y="466.8001434957584" width="6.095833333333334" height="8.199856504241618" fill="#44aa44" opacity="0.35"/>
<rect x="493.9125" y="462.13224322560535" width="6.095833333333334" height="12.867756774394648" fill="#44aa44" opacity="0.35"/>
<rect x="504.9958333333334" y="458.71419301624485" width="6.095833333333334" height="16.285806983755137" fill="#ff4444" opacity="0.35"/>
<rect x="516.0791666666667" y="463.03404205375284" width="6.095833333333334" height="11.965957946247183" fill="#44aa44" opacity="0.35"/>
<rect x="527.1624999999999" y="465.4523053540196" width="6.095833333333334" height="9.547694645980394" fill="#ff4444" opacity="0.35"/>
<rect x="538.2458333333333" y="461.37212053761664" width="6.095833333333334" height="13.62787946238338" fill="#ff4444" opacity="0.35"/>
<rect x="549.3291666666667" y="470.35762609475967" width="6.095833333333334" height="4.642373905240308" fill="#ff4444" opacity="0.35"/>
<rect x="560.4124999999999" y="449.01715803495154" width="6.095833333333334" height="25.98284196504849" fill="#44aa44" opacity="0.35"/>
<rect x="571.4958333333333" y="458.2403509718697" width="6.095833333333334" height="16.759649028130298" fill="#44aa44" opacity="0.35"/>
<rect x="582.5791666666667" y="454.19395989314194" width="6.095833333333334" height="20.806040106858042" fill="#ff4444" opacity="0.35"/>
<rect x="593.6624999999999" y="460.7607822789521" width="6.095833333333334" height="14.239217721047902" fill="#44aa44" opacity="0.35"/>
<rect x="604.7458333333333" y="459.54529693094247" width="6.095833333333334" height="15.454703069057555" fill="#ff4444" opacity="0.35"/>
<rect x="615.8291666666667" y="461.56699871809275" width="6.095833333333334" height="13.433001281907236" fill="#44aa44" opacity="0.35"/>
<rect x="626.9124999999999" y="458.660005393624" width="6.095833333333334" height="16.339994606376038" fill="#44aa44" opacity="0.35"/>
<rect x="637.9958333333333" y="461.089279471997" width="6.095833333333334" height="13.910720528003054" fill="#ff4444" opacity="0.35"/>
<rect x="649.0791666666667" y="460.73471538680894" width="6.095833333333334" height="14.265284613191051" fill="#ff4444" opacity="0.35"/>
<rect x="660.1624999999999" y="454.49267348876054" width="6.095833333333334" height="20.50732651123947" fill="#ff4444" opacity="0.35"/>
<rect x="671.2458333333333" y="450.2631124188708" width="6.095833333333334" height="24.736887581129217" fill="#44aa44" opacity="0.35"/>
<rect x="682.3291666666667" y="454.27221021509325" width="6.095833333333334" height="20.72778978490676" fill="#ff4444" opacity="0.35"/>
<rect x="693.4124999999999" y="451.47362712512177" width="6.095833333333334" height="23.526372874878245" fill="#ff4444" opacity="0.35"/>
<rect x="704.4958333333333" y="440.0" width="6.095833333333334" height="35.0" fill="#ff4444" opacity="0.35"/>
<rect x="715.5791666666667" y="445.73944549771" width="6.095833333333334" height="29.260554502290006" fill="#44aa44" opacity="0.25" stroke-dasharray="3,2"/>
<polyline points="65.54166666666667,298.4740566037736 76.625,302.1876310272537 87.70833333333334,314.2316561844864 98.79166666666667,321.75917190775687 109.87500000000001,324.6029000698812 120.95833333333334,329.54318075937573 132.04166666666666,336.78446502057614 143.125,337.73113531071255 154.20833333333334,341.10561012328424 165.29166666666666,345.89788753152567 176.375,350.66515353254744 187.45833333333334,350.69850207550684 198.54166666666666,355.90635638017716 209.625,352.1852997810545 220.70833333333334,354.5556610699693 231.79166666666666,361.5222576245637 242.875,375.4004079481718 253.95833333333334,382.97972689207256 265.0416666666667,383.2149961251133 276.12500000000006,385.91446981366744 287.20833333333337,388.7512433279096 298.2916666666667,390.475147543554 309.37500000000006,395.5387251967509 320.45833333333337,395.30123608504573 331.5416666666667,400.6296325822037 342.62500000000006,405.352843803929 353.70833333333337,405.9255681264488 364.7916666666667,394.7317379403439 375.87500000000006,386.9680838540099 386.95833333333337,380.15298881671936 398.0416666666667,374.2044558568486 409.12500000000006,366.5586484188914 420.20833333333337,360.658508449771 431.2916666666667,353.2791523837048 442.37500000000006,347.8242916660059 453.45833333333337,343.15059346566704 464.5416666666667,344.2502034704727 475.62500000000006,339.42964298450795 486.70833333333337,341.73611419092987 497.7916666666667,339.3259978603404 508.87500000000006,328.4185897685289 519.9583333333334,324.3252687904797 531.0416666666666,324.10556004620383 542.125,316.3646605758759 553.2083333333334,293.87404695275023 564.2916666666666,271.75425631930386 575.375,263.43120931419696 586.4583333333334,244.2995273834688 597.5416666666666,237.36635158897923 608.625,228.12735808238034 619.7083333333334,233.54367547909914 630.7916666666666,238.42586751017507 641.875,238.16782152669953 652.9583333333334,235.35279646154532 664.0416666666666,222.03428918540482 675.125,214.89497685735583 686.2083333333334,204.51489023194796 697.2916666666666,176.38396595477178 708.375,138.8614105666333 719.4583333333334,126.79370068523285" fill="none" stroke="#ffd700" stroke-width="1" opacity="0.7"/>
<polyline points="65.54166666666667,298.4740566037736 76.625,300.4996426529446 87.70833333333334,307.3760178976732 98.79166666666667,312.72841525342307 109.87500000000001,315.9214954608243 120.95833333333334,320.1946312203771 132.04166666666666,325.84415891539527 143.125,328.3496710927753 154.20833333333334,331.8960144847121 165.29166666666666,336.1844559144023 176.375,340.55086129989115 187.45833333333334,342.40801363835203 198.54166666666666,346.7560229749276 209.625,346.39005272181515 220.70833333333334,348.73665834472126 231.79166666666666,353.5946205972724 242.875,362.60590932420246 253.95833333333334,369.0663557706883 265.0416666666667,371.72438828350766 276.12500000000006,375.2860299030109 287.20833333333337,378.7658045308988 298.2916666666667,381.5216502479795 309.37500000000006,385.91151029437316 320.45833333333337,387.53237348842083 331.5416666666667,391.85129204989335 342.62500000000006,396.0236509948909 353.70833333333337,398.0322629542723 364.7916666666667,393.36168379315626 375.87500000000006,389.3760641364627 386.95833333333337,385.22092497385825 398.0416666666667,381.05482769444893 409.12500000000006,375.63886512145405 420.20833333333337,370.7696584651042 431.2916666666667,364.9061642444621 442.37500000000006,359.8167835146704 453.45833333333337,355.0870405238194 464.5416666666667,353.5165646976856 475.62500000000006,349.2023751185753 486.70833333333337,348.6835899340659 497.7916666666667,346.1058036186287 508.87500000000006,338.92361633977 519.9583333333334,334.7808909751539 531.0416666666666,332.76002762651717 542.125,326.96417926446316 553.2083333333334,312.76938661756054 564.2916666666666,297.26852996935156 575.375,288.0897273029209 586.4583333333334,273.170897524574 597.5416666666666,264.1398252473788 608.625,254.23246994225212 619.7083333333334,252.44044091139477 630.7916666666666,251.66767921338246 641.875,249.11932473090354 652.9583333333334,245.59267411278233 664.0416666666666,236.46623784375345 675.125,229.9480768178452 686.2083333333334,221.54928412026098 697.2916666666666,203.10798108028976 708.375,177.78222084575646 719.4583333333334,164.12332267787926" fill="none" stroke="#ff6b6b" stroke-width="1" opacity="0.7"/>
<polyline points="65.54166666666667,298.4740566037736 76.625,299.53507786762503 87.70833333333334,303.2288520229895 98.79166666666667,306.4274569116855 109.87500000000001,308.7001140052517 120.95833333333334,311.626173827453 132.04166666666666,315.40149380036 143.125,317.70844447565764 154.20833333333334,320.5795030730643 165.29166666666666,323.9035925278208 176.375,327.36036329037046 187.45833333333334,329.5893952780899 198.54166666666666,333.0877447744164 209.625,334.1977868514062 220.70833333333334,336.5881294034436 231.79166666666666,340.28977905394925 242.875,346.2771056769434 253.95833333333334,351.2162732105559 265.0416666666667,354.3085838182358 276.12500000000006,357.83285366323963 287.20833333333337,361.31780001496867 298.2916666666667,364.4230529635281 309.37500000000006,368.3509413006345 320.45833333333337,370.8724000207298 331.5416666666667,374.7213548355669 342.62500000000006,378.53829877954905 353.70833333333337,381.2557004930671 364.7916666666667,380.40697450021634 375.87500000000006,379.55305080318067 386.95833333333337,378.31207441641476 398.0416666666667,376.78781875171876 409.12500000000006,374.35726777945763 420.20833333333337,371.92878784917883 431.2916666666667,368.74704045893066 442.37500000000006,365.7153766276618 453.45833333333337,362.6761214312168 464.5416666666667,361.130721626347 475.62500000000006,358.1457502345595 486.70833333333337,357.0222556030561 497.7916666666667,354.8778279455423 508.87500000000006,350.28029895881497 519.9583333333334,347.0287111374404 531.0416666666666,344.80370460603194 542.125,340.6207671802403 553.2083333333334,331.88477218274113 564.2916666666666,321.94476293223346 575.375,314.7867012533525 586.4583333333334,304.42950718370105 597.5416666666666,296.7219350709676 608.625,288.42930992794044 619.7083333333334,284.23378615123534 630.7916666666666,280.8010685722917 641.875,276.6916077139542 652.9583333333334,272.2183828203621 664.0416666666666,264.9020868025299 675.125,258.77963588812304 686.2083333333334,251.63440551602864 697.2916666666666,239.10942569549442 708.375,222.41484227595743 719.4583333333334,211.0094554803836" fill="none" stroke="#4ecdc4" stroke-width="1" opacity="0.7"/>
<line x1="65.54166666666667" y1="288.7384696016772" x2="65.54166666666667" y2="322.6624737945492" stroke="#ff4444" stroke-width="0.5" opacity="0.6"/>
<rect x="63.04791666666667" y="298.4740566037736" width="4.987500000000001" height="15.155398322851113" fill="#ff4444" opacity="0.8" rx="1"/>
<line x1="76.625" y1="290.04323899371064" x2="76.625" y2="313.1276205450734" stroke="#44aa44" stroke-width="0.5" opacity="0.6"/>
<rect x="74.13125" y="309.0125786163522" width="4.987500000000001" height="0.6022012578616796" fill="#44aa44" opacity="0.8" rx="1"/>
<line x1="87.70833333333334" y1="294.6601153039832" x2="87.70833333333334" y2="338.72117400419285" stroke="#44aa44" stroke-width="0.5" opacity="0.6"/>
<rect x="85.21458333333334" y="307.60744234800836" width="4.987500000000001" height="30.71226415094344" fill="#44aa44" opacity="0.8" rx="1"/>
<line x1="98.79166666666667" y1="320.85587002096435" x2="98.79166666666667" y2="346.85089098532495" stroke="#ff4444" stroke-width="0.5" opacity="0.6"/>
<rect x="96.29791666666667" y="336.8142033542977" width="4.987500000000001" height="10.036687631027235" fill="#ff4444" opacity="0.8" rx="1"/>
<line x1="109.87500000000001" y1="316.84119496855345" x2="109.87500000000001" y2="335.71016771488473" stroke="#44aa44" stroke-width="0.5" opacity="0.6"/>
<rect x="107.38125000000001" y="322.6624737945492" width="4.987500000000001" height="7.627882599580687" fill="#44aa44" opacity="0.8" rx="1"/>
<line x1="120.95833333333334" y1="325.0712788259958" x2="120.95833333333334" y2="341.63181341719076" stroke="#44aa44" stroke-width="0.5" opacity="0.6"/>
<rect x="118.46458333333334" y="334.9072327044025" width="4.987500000000001" height="4.516509433962312" fill="#44aa44" opacity="0.8" rx="1"/>
<line x1="132.04166666666666" y1="348.7578616352201" x2="132.04166666666666" y2="373.8495807127882" stroke="#ff4444" stroke-width="0.5" opacity="0.6"/>
<rect x="129.54791666666665" y="351.26703354297695" width="4.987500000000001" height="7.527515723270426" fill="#ff4444" opacity="0.8" rx="1"/>
<line x1="143.125" y1="335.9109014675052" x2="143.125" y2="346.44942348008385" stroke="#ff4444" stroke-width="0.5" opacity="0.6"/>
<rect x="140.63125" y="339.62447589098537" width="4.987500000000001" height="1.3047693920335064" fill="#ff4444" opacity="0.8" rx="1"/>
<line x1="154.20833333333334" y1="332.0969601677149" x2="154.20833333333334" y2="349.3600628930818" stroke="#44aa44" stroke-width="0.5" opacity="0.6"/>
<rect x="151.71458333333334" y="339.62447589098537" width="4.987500000000001" height="8.230083857442253" fill="#44aa44" opacity="0.8" rx="1"/>
<line x1="165.29166666666666" y1="336.1116352201258" x2="165.29166666666666" y2="360.09931865828094" stroke="#44aa44" stroke-width="0.5" opacity="0.6"/>
<rect x="162.79791666666665" y="349.76153039832286" width="4.987500000000001" height="5.720911949685501" fill="#44aa44" opacity="0.8" rx="1"/>
<line x1="176.375" y1="349.15932914046124" x2="176.375" y2="365.2180293501048" stroke="#44aa44" stroke-width="0.5" opacity="0.6"/>
<rect x="173.88125" y="359.39675052410905" width="4.987500000000001" height="0.8029350104821447" fill="#44aa44" opacity="0.8" rx="1"/>
<line x1="187.45833333333334" y1="347.3527253668763" x2="187.45833333333334" y2="375.5558176100629" stroke="#ff4444" stroke-width="0.5" opacity="0.6"/>
<rect x="184.96458333333334" y="350.7651991614256" width="4.987500000000001" height="11.241090146750537" fill="#ff4444" opacity="0.8" rx="1"/>
<line x1="198.54166666666666" y1="340.9292452830189" x2="198.54166666666666" y2="366.9242662473795" stroke="#44aa44" stroke-width="0.5" opacity="0.6"/>
<rect x="196.04791666666665" y="346.75052410901463" width="4.987500000000001" height="19.571540880503164" fill="#44aa44" opacity="0.8" rx="1"/>
<line x1="209.625" y1="343.73951781970646" x2="209.625" y2="364.2143605870021" stroke="#ff4444" stroke-width="0.5" opacity="0.6"/>
<rect x="207.13125" y="344.7431865828092" width="4.987500000000001" height="14.954664570230648" fill="#ff4444" opacity="0.8" rx="1"/>
<line x1="220.70833333333334" y1="347.95492662473794" x2="220.70833333333334" y2="361.604821802935" stroke="#44aa44" stroke-width="0.5" opacity="0.6"/>
<rect x="218.21458333333334" y="354.980607966457" width="4.987500000000001" height="4.315775681341734" fill="#44aa44" opacity="0.8" rx="1"/>
<line x1="231.79166666666666" y1="353.97693920335433" x2="231.79166666666666" y2="375.45545073375257" stroke="#44aa44" stroke-width="0.5" opacity="0.6"/>
<rect x="229.29791666666665" y="355.28170859538784" width="4.987500000000001" height="20.17374213836473" fill="#44aa44" opacity="0.8" rx="1"/>
<line x1="242.875" y1="379.1690251572327" x2="242.875" y2="406.167714884696" stroke="#44aa44" stroke-width="0.5" opacity="0.6"/>
<rect x="240.38125" y="385.4921383647798" width="4.987500000000001" height="17.664570230608035" fill="#44aa44" opacity="0.8" rx="1"/>
<line x1="253.95833333333334" y1="393.8225890985325" x2="253.95833333333334" y2="413.5948637316562" stroke="#44aa44" stroke-width="0.5" opacity="0.6"/>
<rect x="251.46458333333334" y="393.92295597484275" width="4.987500000000001" height="4.215408805031473" fill="#44aa44" opacity="0.8" rx="1"/>
<line x1="265.0416666666667" y1="378.4664570230608" x2="265.0416666666667" y2="395.9302935010482" stroke="#ff4444" stroke-width="0.5" opacity="0.6"/>
<rect x="262.5479166666667" y="383.68553459119494" width="4.987500000000001" height="10.237421383647813" fill="#ff4444" opacity="0.8" rx="1"/>
<line x1="276.12500000000006" y1="375.0539832285115" x2="276.12500000000006" y2="393.62185534591197" stroke="#44aa44" stroke-width="0.5" opacity="0.6"/>
<rect x="273.6312500000001" y="382.8825995807128" width="4.987500000000001" height="8.430817610062888" fill="#44aa44" opacity="0.8" rx="1"/>
<line x1="287.20833333333337" y1="387.2987421383648" x2="287.20833333333337" y2="404.96331236897277" stroke="#ff4444" stroke-width="0.5" opacity="0.6"/>
<rect x="284.7145833333334" y="394.4247903563941" width="4.987500000000001" height="4.6168763102725165" fill="#ff4444" opacity="0.8" rx="1"/>
<line x1="298.2916666666667" y1="391.01231656184484" x2="298.2916666666667" y2="405.26441299790355" stroke="#ff4444" stroke-width="0.5" opacity="0.6"/>
<rect x="295.7979166666667" y="393.92295597484275" width="4.987500000000001" height="9.033018867924511" fill="#ff4444" opacity="0.8" rx="1"/>
<line x1="309.37500000000006" y1="393.1200209643606" x2="309.37500000000006" y2="406.8702830188679" stroke="#44aa44" stroke-width="0.5" opacity="0.6"/>
<rect x="306.8812500000001" y="395.127358490566" width="4.987500000000001" height="10.538522012578653" fill="#44aa44" opacity="0.8" rx="1"/>
<line x1="320.45833333333337" y1="392.1163522012579" x2="320.45833333333337" y2="400.44680293501045" stroke="#44aa44" stroke-width="0.5" opacity="0.6"/>
<rect x="317.9645833333334" y="394.023322851153" width="4.987500000000001" height="0.8029350104822583" fill="#44aa44" opacity="0.8" rx="1"/>
<line x1="331.5416666666667" y1="394.82625786163527" x2="331.5416666666667" y2="413.9963312368973" stroke="#44aa44" stroke-width="0.5" opacity="0.6"/>
<rect x="329.0479166666667" y="394.82625786163527" width="4.987500000000001" height="16.46016771488462" fill="#44aa44" opacity="0.8" rx="1"/>
<line x1="342.62500000000006" y1="406.46881551362685" x2="342.62500000000006" y2="415.0" stroke="#44aa44" stroke-width="0.5" opacity="0.6"/>
<rect x="340.1312500000001" y="406.97064989517816" width="4.987500000000001" height="7.828616352201266" fill="#44aa44" opacity="0.8" rx="1"/>
<line x1="353.70833333333337" y1="404.7625786163522" x2="353.70833333333337" y2="412.4908280922432" stroke="#ff4444" stroke-width="0.5" opacity="0.6"/>
<rect x="351.2145833333334" y="407.0710167714885" width="4.987500000000001" height="4.315775681341734" fill="#ff4444" opacity="0.8" rx="1"/>
<line x1="364.7916666666667" y1="371.3404088050314" x2="364.7916666666667" y2="394.82625786163527" stroke="#ff4444" stroke-width="0.5" opacity="0.6"/>
<rect x="362.2979166666667" y="372.34407756813414" width="4.987500000000001" height="20.775943396226467" fill="#ff4444" opacity="0.8" rx="1"/>
<line x1="375.87500000000006" y1="366.1213312368972" x2="375.87500000000006" y2="383.68553459119494" stroke="#ff4444" stroke-width="0.5" opacity="0.6"/>
<rect x="373.3812500000001" y="371.4407756813417" width="4.987500000000001" height="10.53852201257871" fill="#ff4444" opacity="0.8" rx="1"/>
<line x1="386.95833333333337" y1="351.76886792452825" x2="386.95833333333337" y2="368.1286687631027" stroke="#44aa44" stroke-width="0.5" opacity="0.6"/>
<rect x="384.4645833333334" y="366.42243186582806" width="4.987500000000001" height="0.5" fill="#44aa44" opacity="0.8" rx="1"/>
<line x1="398.0416666666667" y1="354.88024109014674" x2="398.0416666666667" y2="370.0356394129979" stroke="#ff4444" stroke-width="0.5" opacity="0.6"/>
<rect x="395.5479166666667" y="362.3073899371069" width="4.987500000000001" height="6.5238469601677025" fill="#ff4444" opacity="0.8" rx="1"/>
<line x1="409.12500000000006" y1="347.5534591194969" x2="409.12500000000006" y2="360.60115303983224" stroke="#ff4444" stroke-width="0.5" opacity="0.6"/>
<rect x="406.6312500000001" y="351.26703354297695" width="4.987500000000001" height="4.014675052410894" fill="#ff4444" opacity="0.8" rx="1"/>
<line x1="420.20833333333337" y1="331.394392033543" x2="420.20833333333337" y2="352.5718029350105" stroke="#ff4444" stroke-width="0.5" opacity="0.6"/>
<rect x="417.7145833333334" y="348.85822851153034" width="4.987500000000001" height="1.4051362683438242" fill="#ff4444" opacity="0.8" rx="1"/>
<line x1="431.2916666666667" y1="335.10796645702305" x2="431.2916666666667" y2="354.27803983228506" stroke="#ff4444" stroke-width="0.5" opacity="0.6"/>
<rect x="428.7979166666667" y="338.52044025157227" width="4.987500000000001" height="5.319444444444457" fill="#ff4444" opacity="0.8" rx="1"/>
<line x1="442.37500000000006" y1="326.97824947589095" x2="442.37500000000006" y2="339.8252096436059" stroke="#44aa44" stroke-width="0.5" opacity="0.6"/>
<rect x="439.8812500000001" y="335.6098008385744" width="4.987500000000001" height="1.3047693920335632" fill="#44aa44" opacity="0.8" rx="1"/>
<line x1="453.45833333333337" y1="326.27568134171906" x2="453.45833333333337" y2="343.4384171907757" stroke="#ff4444" stroke-width="0.5" opacity="0.6"/>
<rect x="450.9645833333334" y="333.8031970649895" width="4.987500000000001" height="2.6095387840671265" fill="#ff4444" opacity="0.8" rx="1"/>
<line x1="464.5416666666667" y1="336.21200209643604" x2="464.5416666666667" y2="355.7835429769392" stroke="#44aa44" stroke-width="0.5" opacity="0.6"/>
<rect x="462.0479166666667" y="336.5131027253669" width="4.987500000000001" height="9.936320754716974" fill="#44aa44" opacity="0.8" rx="1"/>
<line x1="475.62500000000006" y1="329.48742138364776" x2="475.62500000000006" y2="352.67216981132077" stroke="#ff4444" stroke-width="0.5" opacity="0.6"/>
<rect x="473.1312500000001" y="329.7885220125786" width="4.987500000000001" height="10.939989517819754" fill="#ff4444" opacity="0.8" rx="1"/>
<line x1="486.70833333333337" y1="325.171645702306" x2="486.70833333333337" y2="349.8618972746331" stroke="#44aa44" stroke-width="0.5" opacity="0.6"/>
<rect x="484.2145833333334" y="326.5767819706499" width="4.987500000000001" height="19.77227463312363" fill="#44aa44" opacity="0.8" rx="1"/>
<line x1="497.7916666666667" y1="306.8045073375262" x2="497.7916666666667" y2="334.80686582809227" stroke="#44aa44" stroke-width="0.5" opacity="0.6"/>
<rect x="495.2979166666667" y="330.99292452830184" width="4.987500000000001" height="3.512840670859532" fill="#44aa44" opacity="0.8" rx="1"/>
<line x1="508.87500000000006" y1="298.07258909853255" x2="508.87500000000006" y2="320.25366876310267" stroke="#ff4444" stroke-width="0.5" opacity="0.6"/>
<rect x="506.3812500000001" y="306.60377358490564" width="4.987500000000001" height="3.412473794549271" fill="#ff4444" opacity="0.8" rx="1"/>
<line x1="519.9583333333334" y1="297.57075471698107" x2="519.9583333333334" y2="321.5584381551363" stroke="#44aa44" stroke-width="0.5" opacity="0.6"/>
<rect x="517.4645833333334" y="310.11661425576517" width="4.987500000000001" height="6.022012578616341" fill="#44aa44" opacity="0.8" rx="1"/>
<line x1="531.0416666666666" y1="320.25366876310267" x2="531.0416666666666" y2="337.61713836477986" stroke="#ff4444" stroke-width="0.5" opacity="0.6"/>
<rect x="528.5479166666667" y="323.666142557652" width="4.987500000000001" height="2.007337526205447" fill="#ff4444" opacity="0.8" rx="1"/>
<line x1="542.125" y1="289.6417714884696" x2="542.125" y2="316.3393605870021" stroke="#ff4444" stroke-width="0.5" opacity="0.6"/>
<rect x="539.63125" y="300.8828616352201" width="4.987500000000001" height="7.9289832285115835" fill="#ff4444" opacity="0.8" rx="1"/>
<line x1="553.2083333333334" y1="248.89281970649895" x2="553.2083333333334" y2="248.99318658280924" stroke="#ff4444" stroke-width="0.5" opacity="0.6"/>
<rect x="550.7145833333334" y="248.89281970649895" width="4.987500000000001" height="0.5" fill="#ff4444" opacity="0.8" rx="1"/>
<line x1="564.2916666666666" y1="210.25157232704404" x2="564.2916666666666" y2="242.3689727463312" stroke="#44aa44" stroke-width="0.5" opacity="0.6"/>
<rect x="561.7979166666667" y="210.25157232704404" width="4.987500000000001" height="17.263102725366878" fill="#44aa44" opacity="0.8" rx="1"/>
<line x1="575.375" y1="232.33228511530396" x2="575.375" y2="254.51336477987422" stroke="#44aa44" stroke-width="0.5" opacity="0.6"/>
<rect x="572.88125" y="235.24292452830184" width="4.987500000000001" height="11.542190775681405" fill="#44aa44" opacity="0.8" rx="1"/>
<line x1="586.4583333333334" y1="195.8991090146751" x2="586.4583333333334" y2="224.2025681341719" stroke="#ff4444" stroke-width="0.5" opacity="0.6"/>
<rect x="583.9645833333334" y="206.0361635220126" width="4.987500000000001" height="12.144392033542971" fill="#ff4444" opacity="0.8" rx="1"/>
<line x1="597.5416666666666" y1="205.43396226415095" x2="597.5416666666666" y2="228.31761006289307" stroke="#44aa44" stroke-width="0.5" opacity="0.6"/>
<rect x="595.0479166666667" y="206.0361635220126" width="4.987500000000001" height="17.463836477987428" fill="#44aa44" opacity="0.8" rx="1"/>
<line x1="608.625" y1="208.2442348008386" x2="608.625" y2="249.09355345911948" stroke="#ff4444" stroke-width="0.5" opacity="0.6"/>
<rect x="606.13125" y="209.6493710691824" width="4.987500000000001" height="29.80896226415092" fill="#ff4444" opacity="0.8" rx="1"/>
<line x1="619.7083333333334" y1="206.2368972746331" x2="619.7083333333334" y2="244.47667714884693" stroke="#44aa44" stroke-width="0.5" opacity="0.6"/>
<rect x="617.2145833333334" y="208.94680293501048" width="4.987500000000001" height="35.42950733752622" fill="#44aa44" opacity="0.8" rx="1"/>
<line x1="630.7916666666666" y1="217.0765199161426" x2="630.7916666666666" y2="266.05555555555554" stroke="#44aa44" stroke-width="0.5" opacity="0.6"/>
<rect x="628.2979166666667" y="238.35429769392033" width="4.987500000000001" height="9.835953878406684" fill="#44aa44" opacity="0.8" rx="1"/>
<line x1="641.875" y1="217.17688679245285" x2="641.875" y2="247.78878406708594" stroke="#ff4444" stroke-width="0.5" opacity="0.6"/>
<rect x="639.38125" y="237.65172955974845" width="4.987500000000001" height="4.717243186582749" fill="#ff4444" opacity="0.8" rx="1"/>
<line x1="652.9583333333334" y1="226.71174004192878" x2="652.9583333333334" y2="268.36399371069183" stroke="#ff4444" stroke-width="0.5" opacity="0.6"/>
<rect x="650.4645833333334" y="229.7227463312369" width="4.987500000000001" height="19.872641509433947" fill="#ff4444" opacity="0.8" rx="1"/>
<line x1="664.0416666666666" y1="179.74004192872115" x2="664.0416666666666" y2="232.8341194968554" stroke="#ff4444" stroke-width="0.5" opacity="0.6"/>
<rect x="661.5479166666667" y="195.3972746331237" width="4.987500000000001" height="37.13574423480085" fill="#ff4444" opacity="0.8" rx="1"/>
<line x1="675.125" y1="149.2285115303984" x2="675.125" y2="204.12919287211744" stroke="#44aa44" stroke-width="0.5" opacity="0.6"/>
<rect x="672.63125" y="178.13417190775684" width="4.987500000000001" height="22.482180293501045" fill="#44aa44" opacity="0.8" rx="1"/>
<line x1="686.2083333333334" y1="174.7216981132075" x2="686.2083333333334" y2="216.97615303983227" stroke="#ff4444" stroke-width="0.5" opacity="0.6"/>
<rect x="683.7145833333334" y="183.7547169811321" width="4.987500000000001" height="16.359800838574387" fill="#ff4444" opacity="0.8" rx="1"/>
<line x1="697.2916666666666" y1="120.1221174004193" x2="697.2916666666666" y2="190.17819706498955" stroke="#ff4444" stroke-width="0.5" opacity="0.6"/>
<rect x="694.7979166666667" y="120.1221174004193" width="4.987500000000001" height="55.30214884696021" fill="#ff4444" opacity="0.8" rx="1"/>
<line x1="708.375" y1="50.06603773584902" x2="708.375" y2="118.61661425576514" stroke="#ff4444" stroke-width="0.5" opacity="0.6"/>
<rect x="705.88125" y="63.81629979035641" width="4.987500000000001" height="23.786949685534623" fill="#ff4444" opacity="0.8" rx="1"/>
<line x1="719.4583333333334" y1="32.0" x2="719.4583333333334" y2="103.56158280922426" stroke="#44aa44" stroke-width="0.5" opacity="0.3" stroke-dasharray="4,3"/>
<rect x="716.9645833333334" y="88.10508385744237" width="4.987500000000001" height="14.553197064989547" fill="#44aa44" opacity="0.4" stroke-dasharray="4,3" rx="1"/>
<text x="739.4583333333334" y="96.65828092243191" font-family="sans-serif" font-size="9" fill="#ffd700" opacity="0.8">🕐 盘中</text>
<line x1="486.70833333333337" y1="349.8618972746331" x2="486.70833333333337" y2="314.8618972746331" stroke="#4ecdc4" stroke-width="0.8" stroke-dasharray="2,2" opacity="0.7"/>
<rect x="450.70833333333337" y="305.8618972746331" width="72" height="16" fill="#4ecdc4" opacity="0.85" rx="3"/>
<text x="486.70833333333337" y="317.8618972746331" text-anchor="middle" font-family="sans-serif" font-size="9" fill="#000000" font-weight="bold">B1乖离买入</text>
<polygon points="486.70833333333337,355.8618972746331 482.70833333333337,349.8618972746331 490.70833333333337,349.8618972746331" fill="#4ecdc4" opacity="0.9"/>
<line x1="497.7916666666667" y1="334.80686582809227" x2="497.7916666666667" y2="284.80686582809227" stroke="#4ecdc4" stroke-width="0.8" stroke-dasharray="2,2" opacity="0.7"/>
<rect x="461.7916666666667" y="275.80686582809227" width="72" height="16" fill="#4ecdc4" opacity="0.85" rx="3"/>
<text x="497.7916666666667" y="287.80686582809227" text-anchor="middle" font-family="sans-serif" font-size="9" fill="#000000" font-weight="bold">B2乖离买入</text>
<polygon points="497.7916666666667,340.80686582809227 493.7916666666667,334.80686582809227 501.7916666666667,334.80686582809227" fill="#4ecdc4" opacity="0.9"/>
<line x1="519.9583333333334" y1="321.5584381551363" x2="519.9583333333334" y2="256.5584381551363" stroke="#4ecdc4" stroke-width="0.8" stroke-dasharray="2,2" opacity="0.7"/>
<rect x="483.95833333333337" y="247.5584381551363" width="72" height="16" fill="#4ecdc4" opacity="0.85" rx="3"/>
<text x="519.9583333333334" y="259.5584381551363" text-anchor="middle" font-family="sans-serif" font-size="9" fill="#000000" font-weight="bold">B3乖离买入</text>
<polygon points="519.9583333333334,327.5584381551363 515.9583333333334,321.5584381551363 523.9583333333334,321.5584381551363" fill="#4ecdc4" opacity="0.9"/>
<line x1="619.7083333333334" y1="244.47667714884693" x2="619.7083333333334" y2="164.47667714884693" stroke="#4ecdc4" stroke-width="0.8" stroke-dasharray="2,2" opacity="0.7"/>
<rect x="583.7083333333334" y="155.47667714884693" width="72" height="16" fill="#4ecdc4" opacity="0.85" rx="3"/>
<text x="619.7083333333334" y="167.47667714884693" text-anchor="middle" font-family="sans-serif" font-size="9" fill="#000000" font-weight="bold">B4乖离买入</text>
<polygon points="619.7083333333334,250.47667714884693 615.7083333333334,244.47667714884693 623.7083333333334,244.47667714884693" fill="#4ecdc4" opacity="0.9"/>
<line x1="641.875" y1="247.78878406708594" x2="641.875" y2="152.78878406708594" stroke="#4ecdc4" stroke-width="0.8" stroke-dasharray="2,2" opacity="0.7"/>
<rect x="605.875" y="143.78878406708594" width="72" height="16" fill="#4ecdc4" opacity="0.85" rx="3"/>
<text x="641.875" y="155.78878406708594" text-anchor="middle" font-family="sans-serif" font-size="9" fill="#000000" font-weight="bold">B5乖离买入</text>
<polygon points="641.875,253.78878406708594 637.875,247.78878406708594 645.875,247.78878406708594" fill="#4ecdc4" opacity="0.9"/>
<line x1="553.2083333333334" y1="248.89281970649895" x2="553.2083333333334" y2="267.8928197064989" stroke="#e94560" stroke-width="0.8" stroke-dasharray="2,2" opacity="0.7"/>
<rect x="519.2083333333334" y="274.8928197064989" width="68" height="16" fill="#e94560" opacity="0.85" rx="3"/>
<text x="553.2083333333334" y="286.8928197064989" text-anchor="middle" font-family="sans-serif" font-size="9" fill="#ffffff" font-weight="bold">W1警戒⚠️</text>
<polygon points="553.2083333333334,242.89281970649895 549.2083333333334,248.89281970649895 557.2083333333334,248.89281970649895" fill="#e94560" opacity="0.9"/>
<line x1="697.2916666666666" y1="120.1221174004193" x2="697.2916666666666" y2="154.1221174004193" stroke="#e94560" stroke-width="0.8" stroke-dasharray="2,2" opacity="0.7"/>
<rect x="663.2916666666666" y="161.1221174004193" width="68" height="16" fill="#e94560" opacity="0.85" rx="3"/>
<text x="697.2916666666666" y="173.1221174004193" text-anchor="middle" font-family="sans-serif" font-size="9" fill="#ffffff" font-weight="bold">W2警戒⚠️</text>
<polygon points="697.2916666666666,114.1221174004193 693.2916666666666,120.1221174004193 701.2916666666666,120.1221174004193" fill="#e94560" opacity="0.9"/>
<text x="375.0" y="435" text-anchor="middle" font-family="sans-serif" font-size="10" fill="#aaaaaa">📊 BIAS5=3.48%，持有区，趋势健康</text>
<rect x="60" y="443" width="665" height="55" fill="#111122" opacity="0.5" rx="2"/>
<rect x="60" y="443" width="665" height="16.96666666666664" fill="#e94560" opacity="0.18" rx="2"/>
<rect x="60" y="459.96666666666664" width="665" height="9.400000000000034" fill="#ffd700" opacity="0.12"/>
<rect x="60" y="469.3666666666667" width="665" height="30.633333333333326" fill="#4ecdc4" opacity="0.14"/>
<text x="670" y="454.48333333333335" text-anchor="end" font-family="sans-serif" font-size="9" fill="#e94560" font-weight="bold">⚠️ 警戒区</text>
<text x="670" y="467.66666666666663" text-anchor="end" font-family="sans-serif" font-size="9" fill="#ffd700">持有区</text>
<text x="670" y="487.68333333333334" text-anchor="end" font-family="sans-serif" font-size="9" fill="#4ecdc4">买入区</text>
<line x1="60" y1="472.5" x2="725" y2="472.5" stroke="#888888" stroke-width="0.5" stroke-dasharray="3,2" opacity="0.5"/>
<text x="56" y="475.5" text-anchor="end" font-family="sans-serif" font-size="7" fill="#888888">0%</text>
<line x1="60" y1="469.3666666666667" x2="725" y2="469.3666666666667" stroke="#4ecdc4" stroke-width="0.5" stroke-dasharray="3,2" opacity="0.5"/>
<text x="56" y="472.3666666666667" text-anchor="end" font-family="sans-serif" font-size="7" fill="#4ecdc4">2%</text>
<line x1="60" y1="459.96666666666664" x2="725" y2="459.96666666666664" stroke="#e94560" stroke-width="0.5" stroke-dasharray="3,2" opacity="0.5"/>
<text x="56" y="462.96666666666664" text-anchor="end" font-family="sans-serif" font-size="7" fill="#e94560">8%</text>
<text x="60" y="445" font-family="sans-serif" font-size="8" fill="#888888">BIAS5</text>
<polyline points="65.54166666666667,472.5 76.625,474.74502969274465 87.70833333333334,479.95440126883426 98.79166666666667,477.2293217951298 109.87500000000001,474.2968785139207 120.95833333333334,475.6530487851048 132.04166666666666,477.19081342237865 143.125,473.11444374001644 154.20833333333334,474.70564689028714 165.29166666666666,475.66399062818414 176.375,475.6794150954577 187.45833333333334,472.5222425993319 198.54166666666666,476.012439229083 209.625,470.01027368269195 220.70833333333334,474.0940565158164 231.79166666666666,477.2561166294125 242.875,482.27008579453417 253.95833333333334,477.9282056034778 265.0416666666667,472.66858729785463 276.12500000000006,474.44638273549214 287.20833333333337,474.55881864148193 298.2916666666667,473.75615772091186 309.37500000000006,476.23364419580747 320.45833333333337,472.32498450127036 331.5416666666667,476.47654901673775 342.62500000000006,476.06500826623164 353.70833333333337,472.9328808558092 364.7916666666667,464.261840326944 375.87500000000006,466.88862165337326 386.95833333333337,467.65045450914585 398.0416666666667,468.3235117759634 409.12500000000006,467.22226892343247 420.20833333333337,468.47952294138094 431.2916666666667,467.55097763518665 442.37500000000006,468.88387566849076 453.45833333333337,469.43205839186516 464.5416666666667,473.2234803308902 475.62500000000006,469.36013030083643 486.70833333333337,474.00955665751763 497.7916666666667,470.9305100689637 508.87500000000006,465.554445398433 519.9583333333334,469.91498329113256 531.0416666666666,472.36131080635477 542.125,467.68865792366296 553.2083333333334,459.11802108801436 564.2916666666666,459.86920898499943 575.375,467.81840316692126 586.4583333333334,462.0960184824166 597.5416666666666,468.7745050377046 608.625,467.612921304056 619.7083333333334,475.39146609122514 630.7916666666666,475.1281881485923 641.875,472.361149897923 652.9583333333334,470.99257068358924 664.0416666666666,465.5267407708124 675.125,468.806090160488 686.2083333333334,467.2198054261894 697.2916666666666,458.8151984009697 708.375,455.2513070652744 719.4583333333334,467.04911552664953" fill="none" stroke="#4ecdc4" stroke-width="1.5" opacity="0.9"/>
<circle cx="719.4583333333334" cy="467.04911552664953" r="3" fill="#4ecdc4" opacity="1"/>
<text x="724.4583333333334" y="470.04911552664953" font-family="sans-serif" font-size="9" fill="#4ecdc4" font-weight="bold">BIAS5=3.5%</text>
<text x="65.54166666666667" y="489" text-anchor="middle" font-family="sans-serif" font-size="8" fill="#666666" transform="rotate(-45,65.54166666666667,489)">02/27</text>
<text x="120.95833333333334" y="489" text-anchor="middle" font-family="sans-serif" font-size="8" fill="#666666" transform="rotate(-45,120.95833333333334,489)">03/06</text>
<text x="176.375" y="489" text-anchor="middle" font-family="sans-serif" font-size="8" fill="#666666" transform="rotate(-45,176.375,489)">03/13</text>
<text x="231.79166666666666" y="489" text-anchor="middle" font-family="sans-serif" font-size="8" fill="#666666" transform="rotate(-45,231.79166666666666,489)">03/20</text>
<text x="287.20833333333337" y="489" text-anchor="middle" font-family="sans-serif" font-size="8" fill="#666666" transform="rotate(-45,287.20833333333337,489)">03/27</text>
<text x="342.62500000000006" y="489" text-anchor="middle" font-family="sans-serif" font-size="8" fill="#666666" transform="rotate(-45,342.62500000000006,489)">04/03</text>
<text x="398.0416666666667" y="489" text-anchor="middle" font-family="sans-serif" font-size="8" fill="#666666" transform="rotate(-45,398.0416666666667,489)">04/13</text>
<text x="453.45833333333337" y="489" text-anchor="middle" font-family="sans-serif" font-size="8" fill="#666666" transform="rotate(-45,453.45833333333337,489)">04/20</text>
<text x="508.87500000000006" y="489" text-anchor="middle" font-family="sans-serif" font-size="8" fill="#666666" transform="rotate(-45,508.87500000000006,489)">04/27</text>
<text x="564.2916666666666" y="489" text-anchor="middle" font-family="sans-serif" font-size="8" fill="#666666" transform="rotate(-45,564.2916666666666,489)">05/07</text>
<text x="619.7083333333334" y="489" text-anchor="middle" font-family="sans-serif" font-size="8" fill="#666666" transform="rotate(-45,619.7083333333334,489)">05/14</text>
<text x="675.125" y="489" text-anchor="middle" font-family="sans-serif" font-size="8" fill="#666666" transform="rotate(-45,675.125,489)">05/21</text>
<text x="719.4583333333334" y="489" text-anchor="middle" font-family="sans-serif" font-size="8" fill="#666666" transform="rotate(-45,719.4583333333334,489)">05/27</text>
<rect x="60" y="484" width="8" height="8" fill="#4ecdc4" opacity="0.8" rx="1"/>
<text x="71" y="491" font-family="sans-serif" font-size="9" fill="#888888">买入区(BIAS&lt;2%)</text>
<rect x="230" y="484" width="8" height="8" fill="#ffd700" opacity="0.8" rx="1"/>
<text x="241" y="491" font-family="sans-serif" font-size="9" fill="#888888">持有区(2-8%)</text>
<rect x="400" y="484" width="8" height="8" fill="#e94560" opacity="0.8" rx="1"/>
<text x="411" y="491" font-family="sans-serif" font-size="9" fill="#888888">警戒区(&gt;8%)</text>
<rect x="570" y="484" width="8" height="8" fill="#ffd700" opacity="0.8" rx="1"/>
<text x="581" y="491" font-family="sans-serif" font-size="9" fill="#888888">EMA5</text>
<rect x="60" y="497" width="8" height="8" fill="#ff6b6b" opacity="0.8" rx="1"/>
<text x="71" y="504" font-family="sans-serif" font-size="9" fill="#888888">EMA10</text>
<rect x="230" y="497" width="8" height="8" fill="#4ecdc4" opacity="0.8" rx="1"/>
<text x="241" y="504" font-family="sans-serif" font-size="9" fill="#888888">EMA20</text>
<rect x="400" y="497" width="8" height="8" fill="#4ecdc4" opacity="0.8" rx="1"/>
<text x="411" y="504" font-family="sans-serif" font-size="9" fill="#888888">B乖离买入</text>
<rect x="570" y="497" width="8" height="8" fill="#e94560" opacity="0.8" rx="1"/>
<text x="581" y="504" font-family="sans-serif" font-size="9" fill="#888888">W警戒⚠️</text>
</svg>