<svg xmlns="http://www.w3.org/2000/svg" width="750" height="540" viewBox="0 0 750 540">
<rect width="750" height="540" fill="#1a1a2e"/>
<text x="375.0" y="22" text-anchor="middle" font-family="sans-serif" font-size="15" fill="#ffffff" font-weight="bold">鼎龙股份(300054) 趋势交易分析图</text>
<text x="60" y="31" font-family="sans-serif" font-size="10" fill="#888888">最新: 73.40</text>
<line x1="60" y1="76.2650181498992" x2="725" y2="76.2650181498992" stroke="#4ecdc4" stroke-width="0.5" stroke-dasharray="4,3" opacity="0.4"/>
<text x="62" y="74.2650181498992" font-family="sans-serif" font-size="7" fill="#4ecdc4" opacity="0.6">买入↑2%</text>
<line x1="60" y1="34.40949558283245" x2="725" y2="34.40949558283245" stroke="#e94560" stroke-width="0.5" stroke-dasharray="4,3" opacity="0.4"/>
<text x="62" y="32.40949558283245" font-family="sans-serif" font-size="7" fill="#e94560" opacity="0.6">警戒↑8%</text>
<rect x="60" y="76.2650181498992" width="3" height="306.7349818501008" fill="#4ecdc4" opacity="0.3" rx="1"/>
<rect x="60" y="34.40949558283245" width="3" height="348.59050441716755" fill="#e94560" opacity="0.3" rx="1"/>
<rect x="60" y="34.40949558283245" width="3" height="41.85552256706676" fill="#ffd700" opacity="0.2" rx="1"/>
<line x1="60" y1="32.0" x2="725" y2="32.0" stroke="#2a2a4e" stroke-width="0.5"/>
<text x="56" y="35.0" text-anchor="end" font-family="sans-serif" font-size="8" fill="#666666">81.6</text>
<line x1="60" y1="127.74999999999994" x2="725" y2="127.74999999999994" stroke="#2a2a4e" stroke-width="0.5"/>
<text x="56" y="130.74999999999994" text-anchor="end" font-family="sans-serif" font-size="8" fill="#666666">71.2</text>
<line x1="60" y1="223.50000000000003" x2="725" y2="223.50000000000003" stroke="#2a2a4e" stroke-width="0.5"/>
<text x="56" y="226.50000000000003" text-anchor="end" font-family="sans-serif" font-size="8" fill="#666666">60.9</text>
<line x1="60" y1="319.25" x2="725" y2="319.25" stroke="#2a2a4e" stroke-width="0.5"/>
<text x="56" y="322.25" text-anchor="end" font-family="sans-serif" font-size="8" fill="#666666">50.6</text>
<line x1="60" y1="415.0" x2="725" y2="415.0" stroke="#2a2a4e" stroke-width="0.5"/>
<text x="56" y="418.0" text-anchor="end" font-family="sans-serif" font-size="8" fill="#666666">40.2</text>
<rect x="61.66250000000001" y="468.90741606004025" width="6.095833333333334" height="6.092583939959743" fill="#44aa44" opacity="0.35"/>
<rect x="72.74583333333334" y="469.14688021123857" width="6.095833333333334" height="5.853119788761408" fill="#ff4444" opacity="0.35"/>
<rect x="83.82916666666668" y="466.9670516022755" width="6.095833333333334" height="8.032948397724514" fill="#44aa44" opacity="0.35"/>
<rect x="94.91250000000001" y="470.533357039548" width="6.095833333333334" height="4.466642960452008" fill="#ff4444" opacity="0.35"/>
<rect x="105.99583333333335" y="470.44048646400984" width="6.095833333333334" height="4.559513535990171" fill="#44aa44" opacity="0.35"/>
<rect x="117.07916666666668" y="471.20630546080986" width="6.095833333333334" height="3.7936945391901347" fill="#ff4444" opacity="0.35"/>
<rect x="128.1625" y="469.02803880297483" width="6.095833333333334" height="5.971961197025175" fill="#ff4444" opacity="0.35"/>
<rect x="139.24583333333334" y="468.5886323711815" width="6.095833333333334" height="6.411367628818498" fill="#ff4444" opacity="0.35"/>
<rect x="150.32916666666668" y="469.6886369754643" width="6.095833333333334" height="5.31136302453571" fill="#ff4444" opacity="0.35"/>
<rect x="161.4125" y="470.09654351229307" width="6.095833333333334" height="4.903456487706919" fill="#ff4444" opacity="0.35"/>
<rect x="172.49583333333334" y="465.75882584256436" width="6.095833333333334" height="9.241174157435651" fill="#ff4444" opacity="0.35"/>
<rect x="183.57916666666668" y="468.2194376274935" width="6.095833333333334" height="6.780562372506501" fill="#ff4444" opacity="0.35"/>
<rect x="194.6625" y="470.1228325257759" width="6.095833333333334" height="4.8771674742240965" fill="#44aa44" opacity="0.35"/>
<rect x="205.74583333333334" y="468.0760285457346" width="6.095833333333334" height="6.923971454265405" fill="#ff4444" opacity="0.35"/>
<rect x="216.82916666666668" y="469.6722008201388" width="6.095833333333334" height="5.327799179861169" fill="#44aa44" opacity="0.35"/>
<rect x="227.9125" y="462.7095671205804" width="6.095833333333334" height="12.290432879419615" fill="#44aa44" opacity="0.35"/>
<rect x="238.99583333333334" y="465.46445312467023" width="6.095833333333334" height="9.535546875329795" fill="#44aa44" opacity="0.35"/>
<rect x="250.07916666666668" y="468.94690479925146" width="6.095833333333334" height="6.053095200748563" fill="#ff4444" opacity="0.35"/>
<rect x="261.1625" y="465.9138688186704" width="6.095833333333334" height="9.086131181329593" fill="#ff4444" opacity="0.35"/>
<rect x="272.2458333333334" y="468.8904071196556" width="6.095833333333334" height="6.109592880344396" fill="#44aa44" opacity="0.35"/>
<rect x="283.3291666666667" y="440.0" width="6.095833333333334" height="35.0" fill="#ff4444" opacity="0.35"/>
<rect x="294.4125" y="454.8185933048782" width="6.095833333333334" height="20.181406695121797" fill="#44aa44" opacity="0.35"/>
<rect x="305.4958333333334" y="459.51841500340896" width="6.095833333333334" height="15.481584996591048" fill="#44aa44" opacity="0.35"/>
<rect x="316.5791666666667" y="458.6904600207243" width="6.095833333333334" height="16.309539979275698" fill="#44aa44" opacity="0.35"/>
<rect x="327.6625" y="463.7157445176863" width="6.095833333333334" height="11.284255482313716" fill="#44aa44" opacity="0.35"/>
<rect x="338.7458333333334" y="459.28219086357984" width="6.095833333333334" height="15.717809136420158" fill="#ff4444" opacity="0.35"/>
<rect x="349.8291666666667" y="464.8587700854588" width="6.095833333333334" height="10.141229914541219" fill="#44aa44" opacity="0.35"/>
<rect x="360.9125" y="459.85778104731037" width="6.095833333333334" height="15.14221895268966" fill="#ff4444" opacity="0.35"/>
<rect x="371.9958333333334" y="461.9367935162352" width="6.095833333333334" height="13.063206483764837" fill="#ff4444" opacity="0.35"/>
<rect x="383.0791666666667" y="463.77944782735716" width="6.095833333333334" height="11.22055217264285" fill="#44aa44" opacity="0.35"/>
<rect x="394.1625" y="466.9381774447605" width="6.095833333333334" height="8.061822555239475" fill="#44aa44" opacity="0.35"/>
<rect x="405.2458333333334" y="462.99696224789153" width="6.095833333333334" height="12.003037752108467" fill="#ff4444" opacity="0.35"/>
<rect x="416.3291666666667" y="466.4754148738938" width="6.095833333333334" height="8.524585126106222" fill="#44aa44" opacity="0.35"/>
<rect x="427.4125" y="467.52914566863416" width="6.095833333333334" height="7.470854331365823" fill="#44aa44" opacity="0.35"/>
<rect x="438.4958333333334" y="465.823856497289" width="6.095833333333334" height="9.176143502710989" fill="#ff4444" opacity="0.35"/>
<rect x="449.5791666666667" y="466.6840581744265" width="6.095833333333334" height="8.31594182557348" fill="#44aa44" opacity="0.35"/>
<rect x="460.6625" y="467.69832679476565" width="6.095833333333334" height="7.301673205234324" fill="#44aa44" opacity="0.35"/>
<rect x="471.7458333333334" y="463.68091506704934" width="6.095833333333334" height="11.319084932950632" fill="#ff4444" opacity="0.35"/>
<rect x="482.8291666666667" y="460.4283012325961" width="6.095833333333334" height="14.571698767403905" fill="#ff4444" opacity="0.35"/>
<rect x="493.9125" y="462.72329187440624" width="6.095833333333334" height="12.276708125593748" fill="#ff4444" opacity="0.35"/>
<rect x="504.9958333333334" y="458.17512300466404" width="6.095833333333334" height="16.824876995335963" fill="#44aa44" opacity="0.35"/>
<rect x="516.0791666666667" y="458.72390422099136" width="6.095833333333334" height="16.276095779008617" fill="#ff4444" opacity="0.35"/>
<rect x="527.1624999999999" y="464.3254504839575" width="6.095833333333334" height="10.674549516042463" fill="#ff4444" opacity="0.35"/>
<rect x="538.2458333333333" y="462.2312545845084" width="6.095833333333334" height="12.768745415491578" fill="#ff4444" opacity="0.35"/>
<rect x="549.3291666666667" y="459.2411365914685" width="6.095833333333334" height="15.75886340853153" fill="#ff4444" opacity="0.35"/>
<rect x="560.4124999999999" y="460.51511652387376" width="6.095833333333334" height="14.484883476126223" fill="#ff4444" opacity="0.35"/>
<rect x="571.4958333333333" y="459.04802355639424" width="6.095833333333334" height="15.951976443605751" fill="#44aa44" opacity="0.35"/>
<rect x="582.5791666666667" y="459.05266016041173" width="6.095833333333334" height="15.947339839588288" fill="#ff4444" opacity="0.35"/>
<rect x="593.6624999999999" y="462.873729587001" width="6.095833333333334" height="12.126270412999048" fill="#44aa44" opacity="0.35"/>
<rect x="604.7458333333333" y="458.771403295082" width="6.095833333333334" height="16.228596704918033" fill="#ff4444" opacity="0.35"/>
<rect x="615.8291666666667" y="462.28239632085143" width="6.095833333333334" height="12.717603679148572" fill="#44aa44" opacity="0.35"/>
<rect x="626.9124999999999" y="459.8673333350901" width="6.095833333333334" height="15.132666664909893" fill="#44aa44" opacity="0.35"/>
<rect x="637.9958333333333" y="462.27347591737094" width="6.095833333333334" height="12.72652408262906" fill="#ff4444" opacity="0.35"/>
<rect x="649.0791666666667" y="460.8953992401407" width="6.095833333333334" height="14.104600759859313" fill="#ff4444" opacity="0.35"/>
<rect x="660.1624999999999" y="460.3952943070094" width="6.095833333333334" height="14.604705692990569" fill="#ff4444" opacity="0.35"/>
<rect x="671.2458333333333" y="459.4206642633487" width="6.095833333333334" height="15.579335736651263" fill="#44aa44" opacity="0.35"/>
<rect x="682.3291666666667" y="461.0705777452166" width="6.095833333333334" height="13.929422254783374" fill="#44aa44" opacity="0.35"/>
<rect x="693.4124999999999" y="459.2738116061714" width="6.095833333333334" height="15.726188393828568" fill="#ff4444" opacity="0.35"/>
<rect x="704.4958333333333" y="458.30837477763487" width="6.095833333333334" height="16.691625222365154" fill="#44aa44" opacity="0.35"/>
<rect x="715.5791666666667" y="460.5148657998249" width="6.095833333333334" height="14.485134200175063" fill="#44aa44" opacity="0.25" stroke-dasharray="3,2"/>
<polyline points="65.54166666666667,361.8209966134495 76.625,364.26068376068383 87.70833333333334,374.50325216362955 98.79166666666667,381.9492734146823 109.87500000000001,385.8941777610541 120.95833333333334,387.9682359077887 132.04166666666666,392.77885619138823 143.125,388.3580537808739 154.20833333333334,384.484388700231 165.29166666666666,379.58578662905256 176.375,372.92301917827825 187.45833333333334,366.65912937961656 198.54166666666666,365.6022965417408 209.625,359.9566027904462 220.70833333333334,360.67071374547726 231.79166666666666,362.3203081154335 242.875,374.1052497579749 253.95833333333334,377.79279188831936 265.0416666666667,370.55416895118725 276.12500000000006,369.9592701893579 287.20833333333337,345.3510922371884 298.2916666666667,332.2500266583675 309.37500000000006,331.85415420185313 320.45833333333337,333.4431661781101 331.5416666666667,338.1157150427846 342.62500000000006,334.3749179143479 353.70833333333337,332.65310605675126 364.7916666666667,324.4949912011949 375.87500000000006,317.26508524846633 386.95833333333337,313.4951398834317 398.0416666666667,312.0009527944052 409.12500000000006,306.77397820546224 420.20833333333337,307.05694660560886 431.2916666666667,307.40000278464555 442.37500000000006,303.8610887778947 453.45833333333337,302.9841543312073 464.5416666666667,303.07893791408014 475.62500000000006,296.13188668550356 486.70833333333337,287.2387872210727 497.7916666666667,278.06743208706894 508.87500000000006,274.08406132042296 519.9583333333334,262.50354934665836 531.0416666666666,255.49349669393416 542.125,240.35109100672852 553.2083333333334,223.09150301916074 564.2916666666666,198.86167932288512 575.375,196.94511890353283 586.4583333333334,183.99397218951864 597.5416666666666,184.87156604281085 608.625,159.20683019206263 619.7083333333334,154.17191356458417 630.7916666666666,150.19766016384307 641.875,138.3761695077128 652.9583333333334,117.03057325348884 664.0416666666666,103.32517171906517 675.125,106.10873405686422 686.2083333333334,107.90267805048809 697.2916666666666,96.74579439779355 708.375,81.43293243678093 719.4583333333334,90.21685900558816" fill="none" stroke="#ffd700" stroke-width="1" opacity="0.7"/>
<polyline points="65.54166666666667,361.8209966134495 76.625,363.15173505739546 87.70833333333334,368.94021758687285 98.79166666666667,374.0131445559482 109.87500000000001,377.60784308282996 120.95833333333334,380.245753831635 132.04166666666666,384.27381618198996 143.125,383.40884032341825 154.20833333333334,382.19578908987774 165.29166666666666,379.93993334384464 176.375,376.2413062407328 187.45833333333334,372.22131415738016 198.54166666666666,370.63355355894555 209.625,366.6393102369294 220.70833333333334,365.8137875857676 231.79166666666666,365.7784619984182 242.875,371.5778567338072 253.95833333333334,374.04876935475284 265.0416666666667,370.781160940602 276.12500000000006,370.4153994360742 287.20833333333337,356.909824326397 298.2916666666667,347.6622009035476 309.37500000000006,344.64405697359797 320.45833333333337,343.1853539112391 331.5416666666667,343.96271006776533 342.62500000000006,340.8591852658943 353.70833333333337,338.7410574614695 364.7916666666667,333.1842763757628 375.87500000000006,327.6608212788985 386.95833333333337,323.7143536197101 398.0416666666667,321.04130361909955 409.12500000000006,316.54652642064076 420.20833333333337,314.9240458725065 431.2916666666667,313.68078573981785 442.37500000000006,310.60850847155876 453.45833333333337,308.9033770108813 464.5416666666667,307.87885484159847 475.62500000000006,303.21684200282607 486.70833333333337,297.07788678271424 497.7916666666667,290.2864022438683 508.87500000000006,285.8920236153706 519.9583333333334,277.42847848514486 531.0416666666666,270.8911899221159 542.125,259.8321153239707 553.2083333333334,246.87579018216243 564.2916666666666,229.3351068636481 575.375,222.7490870820445 586.4583333333334,210.99319466012554 597.5416666666666,206.56293267635638 608.625,188.62010100621265 619.7083333333334,180.52591542501543 630.7916666666666,173.56650414089643 641.875,162.86953760536107 652.9583333333334,146.77314544893926 664.0416666666666,133.88973148553538 675.125,129.8508455304312 686.2083333333334,126.51261289539563 697.2916666666666,117.04341547666995 708.375,105.0004687563219 719.4583333333334,105.50669482666385" fill="none" stroke="#ff6b6b" stroke-width="1" opacity="0.7"/>
<polyline points="65.54166666666667,361.8209966134495 76.625,362.5180500840878 87.70833333333334,365.61046331127193 98.79166666666667,368.584830226083 109.87500000000001,370.98474986681776 120.95833333333334,372.99728342247874 132.04166666666666,375.797551359251 143.125,376.1517320831171 154.20833333333334,376.2074774598627 165.29166666666666,375.5961541290848 176.375,374.0724712860034 187.45833333333334,372.17331685707865 198.54166666666666,371.34620390554636 209.625,369.18610975148067 220.70833333333334,368.5111407899625 231.79166666666666,368.2357461295228 242.875,371.0394972641452 253.95833333333334,372.3850571579417 265.0416666666667,370.83190153117806 276.12500000000006,370.6354797344658 287.20833333333337,363.54017083907377 298.2916666666667,358.0647160449454 309.37500000000006,355.4930677824577 320.45833333333337,353.69574610133066 331.5416666666667,353.10194292712134 342.62500000000006,350.6058839490597 353.70833333333337,348.5681314150119 364.7916666666667,344.7215247554948 375.87500000000006,340.7295008114485 386.95833333333337,337.4176673202022 398.0416666666667,334.71242077697843 409.12500000000006,331.05600251513056 420.20833333333337,328.82427688568026 431.2916666666667,326.84921386254103 442.37500000000006,323.98578975795556 453.45833333333337,321.81859887032476 464.5416666666667,320.0519232712296 475.62500000000006,316.45057669571736 486.70833333333337,311.97457780014525 497.7916666666667,306.99840104004204 508.87500000000006,303.10496473024097 519.9583333333334,297.03235146061127 531.0416666666666,291.74102192993263 542.125,283.96247504444545 553.2083333333334,274.8776990444054 564.2916666666666,263.02287360497 575.375,256.36469498209937 586.4583333333334,247.0053601039461 597.5416666666666,241.2550166416079 608.625,228.55238253198485 619.7083333333334,220.509496606046 630.7916666666666,213.0561305828379 641.875,203.69204083165832 652.9583333333334,191.37273987102816 664.0416666666666,180.37670451666517 675.125,173.83376682293158 686.2083333333334,167.89631912910346 697.2916666666666,158.9949579827512 708.375,148.69136279532307 719.4583333333334,144.795491304645" fill="none" stroke="#4ecdc4" stroke-width="1" opacity="0.7"/>
<line x1="65.54166666666667" y1="354.03870343492986" x2="65.54166666666667" y2="367.28713110788584" stroke="#44aa44" stroke-width="0.5" opacity="0.6"/>
<rect x="63.04791666666667" y="356.91074020319303" width="4.987500000000001" height="4.910256410256466" fill="#44aa44" opacity="0.8" rx="1"/>
<line x1="76.625" y1="357.55926463473634" x2="76.625" y2="370.90033865505563" stroke="#ff4444" stroke-width="0.5" opacity="0.6"/>
<rect x="74.13125" y="369.1400580551524" width="4.987500000000001" height="1.4823415578132995" fill="#ff4444" opacity="0.8" rx="1"/>
<line x1="87.70833333333334" y1="364.507740686986" x2="87.70833333333334" y2="397.5824866956943" stroke="#44aa44" stroke-width="0.5" opacity="0.6"/>
<rect x="85.21458333333334" y="369.41799709724245" width="4.987500000000001" height="25.570391872278663" fill="#44aa44" opacity="0.8" rx="1"/>
<line x1="98.79166666666667" y1="386.65021770682154" x2="98.79166666666667" y2="404.25302370585393" stroke="#ff4444" stroke-width="0.5" opacity="0.6"/>
<rect x="96.29791666666667" y="396.8413159167876" width="4.987500000000001" height="6.485244315433022" fill="#ff4444" opacity="0.8" rx="1"/>
<line x1="109.87500000000001" y1="379.2385099177552" x2="109.87500000000001" y2="397.9530720851476" stroke="#44aa44" stroke-width="0.5" opacity="0.6"/>
<rect x="107.38125000000001" y="389.15166908563134" width="4.987500000000001" height="4.632317368166468" fill="#44aa44" opacity="0.8" rx="1"/>
<line x1="120.95833333333334" y1="388.50314465408803" x2="120.95833333333334" y2="396.8413159167876" stroke="#ff4444" stroke-width="0.5" opacity="0.6"/>
<rect x="118.46458333333334" y="392.1163522012579" width="4.987500000000001" height="3.4279148524431093" fill="#ff4444" opacity="0.8" rx="1"/>
<line x1="132.04166666666666" y1="399.71335268505084" x2="132.04166666666666" y2="415.0" stroke="#ff4444" stroke-width="0.5" opacity="0.6"/>
<rect x="129.54791666666665" y="402.4000967585873" width="4.987500000000001" height="0.5" fill="#ff4444" opacity="0.8" rx="1"/>
<line x1="143.125" y1="374.1429608127722" x2="143.125" y2="395.544267053701" stroke="#ff4444" stroke-width="0.5" opacity="0.6"/>
<rect x="140.63125" y="379.5164489598452" width="4.987500000000001" height="15.471940009675905" fill="#ff4444" opacity="0.8" rx="1"/>
<line x1="154.20833333333334" y1="367.1944847605225" x2="154.20833333333334" y2="382.20319303338175" stroke="#ff4444" stroke-width="0.5" opacity="0.6"/>
<rect x="151.71458333333334" y="376.73705853894535" width="4.987500000000001" height="2.4088050314465477" fill="#ff4444" opacity="0.8" rx="1"/>
<line x1="165.29166666666666" y1="365.8047895500726" x2="165.29166666666666" y2="380.9061441702951" stroke="#ff4444" stroke-width="0.5" opacity="0.6"/>
<rect x="162.79791666666665" y="369.78858248669576" width="4.987500000000001" height="8.152878567972834" fill="#ff4444" opacity="0.8" rx="1"/>
<line x1="176.375" y1="347.83139816158683" x2="176.375" y2="374.97677793904205" stroke="#ff4444" stroke-width="0.5" opacity="0.6"/>
<rect x="173.88125" y="359.5974842767296" width="4.987500000000001" height="14.360183841315859" fill="#ff4444" opacity="0.8" rx="1"/>
<line x1="187.45833333333334" y1="352.1857764876633" x2="187.45833333333334" y2="371.36357039187226" stroke="#ff4444" stroke-width="0.5" opacity="0.6"/>
<rect x="184.96458333333334" y="354.13134978229317" width="4.987500000000001" height="6.2073052733430245" fill="#ff4444" opacity="0.8" rx="1"/>
<line x1="198.54166666666666" y1="352.2784228350266" x2="198.54166666666666" y2="364.4150943396226" stroke="#44aa44" stroke-width="0.5" opacity="0.6"/>
<rect x="196.04791666666665" y="353.29753265602324" width="4.987500000000001" height="10.191098209966185" fill="#44aa44" opacity="0.8" rx="1"/>
<line x1="209.625" y1="348.20198355104014" x2="209.625" y2="362.3768746976294" stroke="#ff4444" stroke-width="0.5" opacity="0.6"/>
<rect x="207.13125" y="348.6652152878568" width="4.987500000000001" height="11.67343976777937" fill="#ff4444" opacity="0.8" rx="1"/>
<line x1="220.70833333333334" y1="350.5181422351234" x2="220.70833333333334" y2="364.6003870343493" stroke="#44aa44" stroke-width="0.5" opacity="0.6"/>
<rect x="218.21458333333334" y="356.1695694242864" width="4.987500000000001" height="5.929366231253027" fill="#44aa44" opacity="0.8" rx="1"/>
<line x1="231.79166666666666" y1="338.6594097726174" x2="231.79166666666666" y2="365.7121432027092" stroke="#44aa44" stroke-width="0.5" opacity="0.6"/>
<rect x="229.29791666666665" y="348.0166908563135" width="4.987500000000001" height="17.602805999032398" fill="#44aa44" opacity="0.8" rx="1"/>
<line x1="242.875" y1="372.19738751814225" x2="242.875" y2="400.26923076923083" stroke="#44aa44" stroke-width="0.5" opacity="0.6"/>
<rect x="240.38125" y="376.3664731494921" width="4.987500000000001" height="21.308659893565505" fill="#44aa44" opacity="0.8" rx="1"/>
<line x1="253.95833333333334" y1="384.1487663280116" x2="253.95833333333334" y2="403.69714562167394" stroke="#ff4444" stroke-width="0.5" opacity="0.6"/>
<rect x="251.46458333333334" y="385.16787614900824" width="4.987500000000001" height="5.65142718916303" fill="#ff4444" opacity="0.8" rx="1"/>
<line x1="265.0416666666667" y1="340.5123367198839" x2="265.0416666666667" y2="380.1649733913885" stroke="#ff4444" stroke-width="0.5" opacity="0.6"/>
<rect x="262.5479166666667" y="356.0769230769231" width="4.987500000000001" height="24.08805031446542" fill="#ff4444" opacity="0.8" rx="1"/>
<line x1="276.12500000000006" y1="351.53725205612" x2="276.12500000000006" y2="371.45621673923563" stroke="#44aa44" stroke-width="0.5" opacity="0.6"/>
<rect x="273.6312500000001" y="359.6901306240929" width="4.987500000000001" height="9.079342041606253" fill="#44aa44" opacity="0.8" rx="1"/>
<line x1="287.20833333333337" y1="284.92452830188677" x2="287.20833333333337" y2="343.84760522496373" stroke="#ff4444" stroke-width="0.5" opacity="0.6"/>
<rect x="284.7145833333334" y="296.13473633284957" width="4.987500000000001" height="47.71286889211416" fill="#ff4444" opacity="0.8" rx="1"/>
<line x1="298.2916666666667" y1="302.34204160619254" x2="298.2916666666667" y2="318.55515239477506" stroke="#44aa44" stroke-width="0.5" opacity="0.6"/>
<rect x="295.7979166666667" y="303.5464441219158" width="4.987500000000001" height="2.501451378809918" fill="#44aa44" opacity="0.8" rx="1"/>
<line x1="309.37500000000006" y1="301.9714562167393" x2="309.37500000000006" y2="331.15505563618774" stroke="#44aa44" stroke-width="0.5" opacity="0.6"/>
<rect x="306.8812500000001" y="305.862602805999" width="4.987500000000001" height="25.19980648282541" fill="#44aa44" opacity="0.8" rx="1"/>
<line x1="320.45833333333337" y1="318.6477987421384" x2="320.45833333333337" y2="345.329946782777" stroke="#44aa44" stroke-width="0.5" opacity="0.6"/>
<rect x="317.9645833333334" y="320.500725689405" width="4.987500000000001" height="16.1204644412191" fill="#44aa44" opacity="0.8" rx="1"/>
<line x1="331.5416666666667" y1="333.8417997097242" x2="331.5416666666667" y2="352.1857764876633" stroke="#44aa44" stroke-width="0.5" opacity="0.6"/>
<rect x="329.0479166666667" y="333.8417997097242" width="4.987500000000001" height="13.619013062409294" fill="#44aa44" opacity="0.8" rx="1"/>
<line x1="342.62500000000006" y1="317.35074987905176" x2="342.62500000000006" y2="344.21819061441704" stroke="#ff4444" stroke-width="0.5" opacity="0.6"/>
<rect x="340.1312500000001" y="326.89332365747464" width="4.987500000000001" height="16.58369617803578" fill="#ff4444" opacity="0.8" rx="1"/>
<line x1="353.70833333333337" y1="310.7728592162554" x2="353.70833333333337" y2="332.17416545718436" stroke="#44aa44" stroke-width="0.5" opacity="0.6"/>
<rect x="351.2145833333334" y="319.944847605225" width="4.987500000000001" height="9.264634736332823" fill="#44aa44" opacity="0.8" rx="1"/>
<line x1="364.7916666666667" y1="306.6037735849057" x2="364.7916666666667" y2="325.1330430575714" stroke="#ff4444" stroke-width="0.5" opacity="0.6"/>
<rect x="362.2979166666667" y="308.17876149008225" width="4.987500000000001" height="4.632317368166412" fill="#ff4444" opacity="0.8" rx="1"/>
<line x1="375.87500000000006" y1="291.5950653120464" x2="375.87500000000006" y2="316.1463473633285" stroke="#ff4444" stroke-width="0.5" opacity="0.6"/>
<rect x="373.3812500000001" y="302.8052733430092" width="4.987500000000001" height="7.9675858732462075" fill="#ff4444" opacity="0.8" rx="1"/>
<line x1="386.95833333333337" y1="290.7612481857765" x2="386.95833333333337" y2="308.6419932268989" stroke="#44aa44" stroke-width="0.5" opacity="0.6"/>
<rect x="384.4645833333334" y="299.09941944847606" width="4.987500000000001" height="6.855829704886332" fill="#44aa44" opacity="0.8" rx="1"/>
<line x1="398.0416666666667" y1="294.9303338171262" x2="398.0416666666667" y2="311.5140299951621" stroke="#44aa44" stroke-width="0.5" opacity="0.6"/>
<rect x="395.5479166666667" y="306.0478955007257" width="4.987500000000001" height="2.964683115626542" fill="#44aa44" opacity="0.8" rx="1"/>
<line x1="409.12500000000006" y1="280.0142718916304" x2="409.12500000000006" y2="306.97435897435895" stroke="#ff4444" stroke-width="0.5" opacity="0.6"/>
<rect x="406.6312500000001" y="296.3200290275762" width="4.987500000000001" height="6.948476052249646" fill="#ff4444" opacity="0.8" rx="1"/>
<line x1="420.20833333333337" y1="285.8509917755201" x2="420.20833333333337" y2="309.3831640058055" stroke="#44aa44" stroke-width="0.5" opacity="0.6"/>
<rect x="417.7145833333334" y="292.2435897435897" width="4.987500000000001" height="15.379293662312591" fill="#44aa44" opacity="0.8" rx="1"/>
<line x1="431.2916666666667" y1="302.8052733430092" x2="431.2916666666667" y2="312.81107885824866" stroke="#44aa44" stroke-width="0.5" opacity="0.6"/>
<rect x="428.7979166666667" y="305.0287856797291" width="4.987500000000001" height="3.0573294629898555" fill="#44aa44" opacity="0.8" rx="1"/>
<line x1="442.37500000000006" y1="288.7230285437833" x2="442.37500000000006" y2="318.9257377842284" stroke="#ff4444" stroke-width="0.5" opacity="0.6"/>
<rect x="439.8812500000001" y="296.7832607643929" width="4.987500000000001" height="15.564586357039161" fill="#ff4444" opacity="0.8" rx="1"/>
<line x1="453.45833333333337" y1="288.2597968069666" x2="453.45833333333337" y2="307.9008224479923" stroke="#44aa44" stroke-width="0.5" opacity="0.6"/>
<rect x="450.9645833333334" y="294.37445573294633" width="4.987500000000001" height="6.8558297048862755" fill="#44aa44" opacity="0.8" rx="1"/>
<line x1="464.5416666666667" y1="293.63328495403965" x2="464.5416666666667" y2="309.9390420899855" stroke="#44aa44" stroke-width="0.5" opacity="0.6"/>
<rect x="462.0479166666667" y="299.28471214320274" width="4.987500000000001" height="3.9837929366231037" fill="#44aa44" opacity="0.8" rx="1"/>
<line x1="475.62500000000006" y1="281.9598451862603" x2="475.62500000000006" y2="305.9552491533624" stroke="#ff4444" stroke-width="0.5" opacity="0.6"/>
<rect x="473.1312500000001" y="282.2377842283503" width="4.987500000000001" height="21.957184325108813" fill="#ff4444" opacity="0.8" rx="1"/>
<line x1="486.70833333333337" y1="261.11441702951134" x2="486.70833333333337" y2="290.9465408805031" stroke="#ff4444" stroke-width="0.5" opacity="0.6"/>
<rect x="484.2145833333334" y="269.452588292211" width="4.987500000000001" height="3.983792936623047" fill="#ff4444" opacity="0.8" rx="1"/>
<line x1="497.7916666666667" y1="250.4600870827286" x2="497.7916666666667" y2="276.40106434446056" stroke="#ff4444" stroke-width="0.5" opacity="0.6"/>
<rect x="495.2979166666667" y="259.7247218190615" width="4.987500000000001" height="16.676342525399093" fill="#ff4444" opacity="0.8" rx="1"/>
<line x1="508.87500000000006" y1="232.0234639574262" x2="508.87500000000006" y2="275.65989356555394" stroke="#44aa44" stroke-width="0.5" opacity="0.6"/>
<rect x="506.3812500000001" y="257.8717948717948" width="4.987500000000001" height="8.245524915336318" fill="#44aa44" opacity="0.8" rx="1"/>
<line x1="519.9583333333334" y1="216.18093855829702" x2="519.9583333333334" y2="254.9997581035317" stroke="#ff4444" stroke-width="0.5" opacity="0.6"/>
<rect x="517.4645833333334" y="239.34252539912913" width="4.987500000000001" height="11.210208030962775" fill="#ff4444" opacity="0.8" rx="1"/>
<line x1="531.0416666666666" y1="239.0645863570392" x2="531.0416666666666" y2="261.76294146105465" stroke="#ff4444" stroke-width="0.5" opacity="0.6"/>
<rect x="528.5479166666667" y="241.47339138848574" width="4.987500000000001" height="4.539671020803098" fill="#ff4444" opacity="0.8" rx="1"/>
<line x1="542.125" y1="202.46927914852444" x2="542.125" y2="238.41606192549594" stroke="#ff4444" stroke-width="0.5" opacity="0.6"/>
<rect x="539.63125" y="210.0662796323174" width="4.987500000000001" height="23.71746492501208" fill="#ff4444" opacity="0.8" rx="1"/>
<line x1="553.2083333333334" y1="160.6857764876633" x2="553.2083333333334" y2="200.80164489598454" stroke="#ff4444" stroke-width="0.5" opacity="0.6"/>
<rect x="550.7145833333334" y="188.5723270440251" width="4.987500000000001" height="6.299951620706395" fill="#ff4444" opacity="0.8" rx="1"/>
<line x1="564.2916666666666" y1="139.37711659409777" x2="564.2916666666666" y2="179.12239961296564" stroke="#ff4444" stroke-width="0.5" opacity="0.6"/>
<rect x="561.7979166666667" y="150.40203193033383" width="4.987500000000001" height="14.267537493952517" fill="#ff4444" opacity="0.8" rx="1"/>
<line x1="575.375" y1="167.07837445573296" x2="575.375" y2="196.7252056119981" stroke="#44aa44" stroke-width="0.5" opacity="0.6"/>
<rect x="572.88125" y="176.3430091920658" width="4.987500000000001" height="16.768988872762463" fill="#44aa44" opacity="0.8" rx="1"/>
<line x1="586.4583333333334" y1="157.8137397194001" x2="586.4583333333334" y2="203.76632801161102" stroke="#ff4444" stroke-width="0.5" opacity="0.6"/>
<rect x="583.9645833333334" y="158.0916787614901" width="4.987500000000001" height="23.34687953555874" fill="#ff4444" opacity="0.8" rx="1"/>
<line x1="597.5416666666666" y1="167.07837445573296" x2="597.5416666666666" y2="194.87227866473148" stroke="#44aa44" stroke-width="0.5" opacity="0.6"/>
<rect x="595.0479166666667" y="167.07837445573296" width="4.987500000000001" height="19.548379293662293" fill="#44aa44" opacity="0.8" rx="1"/>
<line x1="608.625" y1="102.31857764876636" x2="608.625" y2="197.65166908563134" stroke="#ff4444" stroke-width="0.5" opacity="0.6"/>
<rect x="606.13125" y="107.87735849056602" width="4.987500000000001" height="86.99492017416546" fill="#ff4444" opacity="0.8" rx="1"/>
<line x1="619.7083333333334" y1="103.15239477503621" x2="619.7083333333334" y2="144.56531204644406" stroke="#44aa44" stroke-width="0.5" opacity="0.6"/>
<rect x="617.2145833333334" y="106.48766328011604" width="4.987500000000001" height="37.6144170295114" fill="#44aa44" opacity="0.8" rx="1"/>
<line x1="630.7916666666666" y1="106.1170778906628" x2="630.7916666666666" y2="149.47556845670047" stroke="#44aa44" stroke-width="0.5" opacity="0.6"/>
<rect x="628.2979166666667" y="133.81833575229797" width="4.987500000000001" height="8.43081761006286" fill="#44aa44" opacity="0.8" rx="1"/>
<line x1="641.875" y1="94.81422351233674" x2="641.875" y2="144.2873730043542" stroke="#ff4444" stroke-width="0.5" opacity="0.6"/>
<rect x="639.38125" y="114.73318819545229" width="4.987500000000001" height="16.768988872762478" fill="#ff4444" opacity="0.8" rx="1"/>
<line x1="652.9583333333334" y1="65.16739235607159" x2="652.9583333333334" y2="141.23004354136424" stroke="#ff4444" stroke-width="0.5" opacity="0.6"/>
<rect x="650.4645833333334" y="74.33938074504107" width="4.987500000000001" height="50.12167392356082" fill="#ff4444" opacity="0.8" rx="1"/>
<line x1="664.0416666666666" y1="43.580793420416065" x2="664.0416666666666" y2="88.32897919690372" stroke="#ff4444" stroke-width="0.5" opacity="0.6"/>
<rect x="661.5479166666667" y="75.91436865021765" width="4.987500000000001" height="2.038219641993237" fill="#ff4444" opacity="0.8" rx="1"/>
<line x1="675.125" y1="48.21311078858249" x2="675.125" y2="116.58611514271888" stroke="#44aa44" stroke-width="0.5" opacity="0.6"/>
<rect x="672.63125" y="68.13207547169804" width="4.987500000000001" height="43.543783260764414" fill="#44aa44" opacity="0.8" rx="1"/>
<line x1="686.2083333333334" y1="88.79221093372033" x2="686.2083333333334" y2="138.35800677310115" stroke="#44aa44" stroke-width="0.5" opacity="0.6"/>
<rect x="683.7145833333334" y="102.225931301403" width="4.987500000000001" height="9.264634736332852" fill="#44aa44" opacity="0.8" rx="1"/>
<line x1="697.2916666666666" y1="60.53507498790516" x2="697.2916666666666" y2="139.65505563618774" stroke="#ff4444" stroke-width="0.5" opacity="0.6"/>
<rect x="694.7979166666667" y="74.43202709240444" width="4.987500000000001" height="36.317368166424785" fill="#ff4444" opacity="0.8" rx="1"/>
<line x1="708.375" y1="32.0" x2="708.375" y2="83.69666182873729" stroke="#44aa44" stroke-width="0.5" opacity="0.6"/>
<rect x="705.88125" y="37.37348814707304" width="4.987500000000001" height="13.43372036768266" fill="#44aa44" opacity="0.8" rx="1"/>
<line x1="719.4583333333334" y1="53.6792452830189" x2="719.4583333333334" y2="107.9700048379294" stroke="#44aa44" stroke-width="0.5" opacity="0.3" stroke-dasharray="4,3"/>
<rect x="716.9645833333334" y="55.717464925012116" width="4.987500000000001" height="52.06724721819052" fill="#44aa44" opacity="0.4" stroke-dasharray="4,3" rx="1"/>
<text x="739.4583333333334" y="101.78471214320264" font-family="sans-serif" font-size="9" fill="#ffd700" opacity="0.8">🕐 盘中</text>
<line x1="575.375" y1="196.7252056119981" x2="575.375" y2="161.7252056119981" stroke="#4ecdc4" stroke-width="0.8" stroke-dasharray="2,2" opacity="0.7"/>
<rect x="539.375" y="152.7252056119981" width="72" height="16" fill="#4ecdc4" opacity="0.85" rx="3"/>
<text x="575.375" y="164.7252056119981" text-anchor="middle" font-family="sans-serif" font-size="9" fill="#000000" font-weight="bold">B1乖离买入</text>
<polygon points="575.375,202.7252056119981 571.375,196.7252056119981 579.375,196.7252056119981" fill="#4ecdc4" opacity="0.9"/>
<line x1="597.5416666666666" y1="194.87227866473148" x2="597.5416666666666" y2="144.87227866473148" stroke="#4ecdc4" stroke-width="0.8" stroke-dasharray="2,2" opacity="0.7"/>
<rect x="561.5416666666666" y="135.87227866473148" width="72" height="16" fill="#4ecdc4" opacity="0.85" rx="3"/>
<text x="597.5416666666666" y="147.87227866473148" text-anchor="middle" font-family="sans-serif" font-size="9" fill="#000000" font-weight="bold">B2乖离买入</text>
<polygon points="597.5416666666666,200.87227866473148 593.5416666666666,194.87227866473148 601.5416666666666,194.87227866473148" fill="#4ecdc4" opacity="0.9"/>
<line x1="619.7083333333334" y1="144.56531204644406" x2="619.7083333333334" y2="79.56531204644406" stroke="#4ecdc4" stroke-width="0.8" stroke-dasharray="2,2" opacity="0.7"/>
<rect x="583.7083333333334" y="70.56531204644406" width="72" height="16" fill="#4ecdc4" opacity="0.85" rx="3"/>
<text x="619.7083333333334" y="82.56531204644406" text-anchor="middle" font-family="sans-serif" font-size="9" fill="#000000" font-weight="bold">B3乖离买入</text>
<polygon points="619.7083333333334,150.56531204644406 615.7083333333334,144.56531204644406 623.7083333333334,144.56531204644406" fill="#4ecdc4" opacity="0.9"/>
<line x1="675.125" y1="116.58611514271888" x2="675.125" y2="36.58611514271888" stroke="#4ecdc4" stroke-width="0.8" stroke-dasharray="2,2" opacity="0.7"/>
<rect x="639.125" y="27.58611514271888" width="72" height="16" fill="#4ecdc4" opacity="0.85" rx="3"/>
<text x="675.125" y="39.58611514271888" text-anchor="middle" font-family="sans-serif" font-size="9" fill="#000000" font-weight="bold">B4乖离买入</text>
<polygon points="675.125,122.58611514271888 671.125,116.58611514271888 679.125,116.58611514271888" fill="#4ecdc4" opacity="0.9"/>
<line x1="719.4583333333334" y1="107.9700048379294" x2="719.4583333333334" y2="12.970004837929395" stroke="#4ecdc4" stroke-width="0.8" stroke-dasharray="2,2" opacity="0.7"/>
<rect x="683.4583333333334" y="3.9700048379293946" width="72" height="16" fill="#4ecdc4" opacity="0.85" rx="3"/>
<text x="719.4583333333334" y="15.970004837929395" text-anchor="middle" font-family="sans-serif" font-size="9" fill="#000000" font-weight="bold">B5乖离买入</text>
<polygon points="719.4583333333334,113.9700048379294 715.4583333333334,107.9700048379294 723.4583333333334,107.9700048379294" fill="#4ecdc4" opacity="0.9"/>
<line x1="287.20833333333337" y1="284.92452830188677" x2="287.20833333333337" y2="303.92452830188677" stroke="#e94560" stroke-width="0.8" stroke-dasharray="2,2" opacity="0.7"/>
<rect x="253.20833333333337" y="310.92452830188677" width="68" height="16" fill="#e94560" opacity="0.85" rx="3"/>
<text x="287.20833333333337" y="322.92452830188677" text-anchor="middle" font-family="sans-serif" font-size="9" fill="#ffffff" font-weight="bold">W1警戒⚠️</text>
<polygon points="287.20833333333337,278.92452830188677 283.20833333333337,284.92452830188677 291.20833333333337,284.92452830188677" fill="#e94560" opacity="0.9"/>
<line x1="564.2916666666666" y1="139.37711659409777" x2="564.2916666666666" y2="173.37711659409777" stroke="#e94560" stroke-width="0.8" stroke-dasharray="2,2" opacity="0.7"/>
<rect x="530.2916666666666" y="180.37711659409777" width="68" height="16" fill="#e94560" opacity="0.85" rx="3"/>
<text x="564.2916666666666" y="192.37711659409777" text-anchor="middle" font-family="sans-serif" font-size="9" fill="#ffffff" font-weight="bold">W2警戒⚠️</text>
<polygon points="564.2916666666666,133.37711659409777 560.2916666666666,139.37711659409777 568.2916666666666,139.37711659409777" fill="#e94560" opacity="0.9"/>
<line x1="608.625" y1="102.31857764876636" x2="608.625" y2="151.31857764876636" stroke="#e94560" stroke-width="0.8" stroke-dasharray="2,2" opacity="0.7"/>
<rect x="574.625" y="158.31857764876636" width="68" height="16" fill="#e94560" opacity="0.85" rx="3"/>
<text x="608.625" y="170.31857764876636" text-anchor="middle" font-family="sans-serif" font-size="9" fill="#ffffff" font-weight="bold">W3警戒⚠️</text>
<polygon points="608.625,96.31857764876636 604.625,102.31857764876636 612.625,102.31857764876636" fill="#e94560" opacity="0.9"/>
<text x="375.0" y="435" text-anchor="middle" font-family="sans-serif" font-size="10" fill="#aaaaaa">✅ BIAS5=-2.52%，乖离率买入区，可逢低吸纳</text>
<rect x="60" y="443" width="665" height="55" fill="#111122" opacity="0.5" rx="2"/>
<rect x="60" y="443" width="665" height="16.96666666666664" fill="#e94560" opacity="0.18" rx="2"/>
<rect x="60" y="459.96666666666664" width="665" height="9.400000000000034" fill="#ffd700" opacity="0.12"/>
<rect x="60" y="469.3666666666667" width="665" height="30.633333333333326" fill="#4ecdc4" opacity="0.14"/>
<text x="670" y="454.48333333333335" text-anchor="end" font-family="sans-serif" font-size="9" fill="#e94560" font-weight="bold">⚠️ 警戒区</text>
<text x="670" y="467.66666666666663" text-anchor="end" font-family="sans-serif" font-size="9" fill="#ffd700">持有区</text>
<text x="670" y="487.68333333333334" text-anchor="end" font-family="sans-serif" font-size="9" fill="#4ecdc4">买入区</text>
<line x1="60" y1="472.5" x2="725" y2="472.5" stroke="#888888" stroke-width="0.5" stroke-dasharray="3,2" opacity="0.5"/>
<text x="56" y="475.5" text-anchor="end" font-family="sans-serif" font-size="7" fill="#888888">0%</text>
<line x1="60" y1="469.3666666666667" x2="725" y2="469.3666666666667" stroke="#4ecdc4" stroke-width="0.5" stroke-dasharray="3,2" opacity="0.5"/>
<text x="56" y="472.3666666666667" text-anchor="end" font-family="sans-serif" font-size="7" fill="#4ecdc4">2%</text>
<line x1="60" y1="459.96666666666664" x2="725" y2="459.96666666666664" stroke="#e94560" stroke-width="0.5" stroke-dasharray="3,2" opacity="0.5"/>
<text x="56" y="462.96666666666664" text-anchor="end" font-family="sans-serif" font-size="7" fill="#e94560">8%</text>
<text x="60" y="445" font-family="sans-serif" font-size="8" fill="#888888">BIAS5</text>
<polyline points="65.54166666666667,472.5 76.625,474.3048365536517 87.70833333333334,480.2650477376505 98.79166666666667,478.24850636906774 109.87500000000001,475.57545345972625 120.95833333333334,474.12532630644154 132.04166666666666,476.31572922276564 143.125,469.0322773447643 154.20833333333334,469.4906406564867 165.29166666666666,468.7400578050789 176.375,467.4680931020505 187.45833333333334,467.83969718417734 198.54166666666666,471.7156897790053 209.625,468.3654328930601 220.70833333333334,473.02384631525007 231.79166666666666,473.71477499108136 242.875,481.42574921651925 253.95833333333334,475.3180109015348 265.0416666666667,467.06422737687507 276.12500000000006,472.05390265314867 287.20833333333337,455.07333861322167 298.2916666666667,463.4890888486277 309.37500000000006,472.2279553792769 320.45833333333337,473.5957921784235 331.5416666666667,475.755698227321 342.62500000000006,469.9150229685957 353.70833333333337,471.31468926954017 364.7916666666667,466.9827701845626 375.87500000000006,467.6856331924514 386.95833333333337,470.0095608802018 398.0416666666667,471.51603446891426 409.12500000000006,469.09528801152794 420.20833333333337,472.68442656569533 431.2916666666667,472.7237488446211 442.37500000000006,470.20872046055206 453.45833333333337,471.9332533668391 464.5416666666667,472.56126886757596 475.62500000000006,468.0728198564975 486.70833333333337,466.933338272193 497.7916666666667,466.8624534276253 508.87500000000006,470.0704448337075 519.9583333333334,465.5924739267008 531.0416666666666,468.37371858208064 542.125,463.8333587443585 553.2083333333334,462.9235211313211 564.2916666666666,459.6091820536491 575.375,471.4836536235193 586.4583333333334,465.77935469718193 597.5416666666666,472.9560663124703 608.625,459.7071416933262 619.7083333333334,470.0102349779778 630.7916666666666,470.5469822608686 641.875,466.79645768047936 652.9583333333334,462.52906542774645 664.0416666666666,466.22613407917305 675.125,473.779422988473 686.2083333333334,473.32673526393665 697.2916666666666,467.4413830558795 708.375,465.7075406167762 719.4583333333334,476.4454248654755" fill="none" stroke="#4ecdc4" stroke-width="1.5" opacity="0.9"/>
<circle cx="719.4583333333334" cy="476.4454248654755" r="3" fill="#4ecdc4" opacity="1"/>
<text x="724.4583333333334" y="479.4454248654755" font-family="sans-serif" font-size="9" fill="#4ecdc4" font-weight="bold">BIAS5=-2.5%</text>
<text x="65.54166666666667" y="489" text-anchor="middle" font-family="sans-serif" font-size="8" fill="#666666" transform="rotate(-45,65.54166666666667,489)">02/27</text>
<text x="120.95833333333334" y="489" text-anchor="middle" font-family="sans-serif" font-size="8" fill="#666666" transform="rotate(-45,120.95833333333334,489)">03/06</text>
<text x="176.375" y="489" text-anchor="middle" font-family="sans-serif" font-size="8" fill="#666666" transform="rotate(-45,176.375,489)">03/13</text>
<text x="231.79166666666666" y="489" text-anchor="middle" font-family="sans-serif" font-size="8" fill="#666666" transform="rotate(-45,231.79166666666666,489)">03/20</text>
<text x="287.20833333333337" y="489" text-anchor="middle" font-family="sans-serif" font-size="8" fill="#666666" transform="rotate(-45,287.20833333333337,489)">03/27</text>
<text x="342.62500000000006" y="489" text-anchor="middle" font-family="sans-serif" font-size="8" fill="#666666" transform="rotate(-45,342.62500000000006,489)">04/03</text>
<text x="398.0416666666667" y="489" text-anchor="middle" font-family="sans-serif" font-size="8" fill="#666666" transform="rotate(-45,398.0416666666667,489)">04/13</text>
<text x="453.45833333333337" y="489" text-anchor="middle" font-family="sans-serif" font-size="8" fill="#666666" transform="rotate(-45,453.45833333333337,489)">04/20</text>
<text x="508.87500000000006" y="489" text-anchor="middle" font-family="sans-serif" font-size="8" fill="#666666" transform="rotate(-45,508.87500000000006,489)">04/27</text>
<text x="564.2916666666666" y="489" text-anchor="middle" font-family="sans-serif" font-size="8" fill="#666666" transform="rotate(-45,564.2916666666666,489)">05/07</text>
<text x="619.7083333333334" y="489" text-anchor="middle" font-family="sans-serif" font-size="8" fill="#666666" transform="rotate(-45,619.7083333333334,489)">05/14</text>
<text x="675.125" y="489" text-anchor="middle" font-family="sans-serif" font-size="8" fill="#666666" transform="rotate(-45,675.125,489)">05/21</text>
<text x="719.4583333333334" y="489" text-anchor="middle" font-family="sans-serif" font-size="8" fill="#666666" transform="rotate(-45,719.4583333333334,489)">05/27</text>
<rect x="60" y="484" width="8" height="8" fill="#4ecdc4" opacity="0.8" rx="1"/>
<text x="71" y="491" font-family="sans-serif" font-size="9" fill="#888888">买入区(BIAS&lt;2%)</text>
<rect x="230" y="484" width="8" height="8" fill="#ffd700" opacity="0.8" rx="1"/>
<text x="241" y="491" font-family="sans-serif" font-size="9" fill="#888888">持有区(2-8%)</text>
<rect x="400" y="484" width="8" height="8" fill="#e94560" opacity="0.8" rx="1"/>
<text x="411" y="491" font-family="sans-serif" font-size="9" fill="#888888">警戒区(&gt;8%)</text>
<rect x="570" y="484" width="8" height="8" fill="#ffd700" opacity="0.8" rx="1"/>
<text x="581" y="491" font-family="sans-serif" font-size="9" fill="#888888">EMA5</text>
<rect x="60" y="497" width="8" height="8" fill="#ff6b6b" opacity="0.8" rx="1"/>
<text x="71" y="504" font-family="sans-serif" font-size="9" fill="#888888">EMA10</text>
<rect x="230" y="497" width="8" height="8" fill="#4ecdc4" opacity="0.8" rx="1"/>
<text x="241" y="504" font-family="sans-serif" font-size="9" fill="#888888">EMA20</text>
<rect x="400" y="497" width="8" height="8" fill="#4ecdc4" opacity="0.8" rx="1"/>
<text x="411" y="504" font-family="sans-serif" font-size="9" fill="#888888">B乖离买入</text>
<rect x="570" y="497" width="8" height="8" fill="#e94560" opacity="0.8" rx="1"/>
<text x="581" y="504" font-family="sans-serif" font-size="9" fill="#888888">W警戒⚠️</text>
</svg>