<svg xmlns="http://www.w3.org/2000/svg" width="800" height="400" viewBox="0 0 800 400">
<rect width="800" height="400" fill="#1a1a2e"/>
<text x="400.0" y="20" text-anchor="middle" font-family="sans-serif" font-size="14" fill="#ffffff" font-weight="bold">广钢气体(688548) K线图</text>
<line x1="60" y1="30.0" x2="780" y2="30.0" stroke="#2a2a4e" stroke-width="0.5"/>
<text x="55" y="33.0" text-anchor="end" font-family="sans-serif" font-size="8" fill="#666666">36.10</text>
<line x1="60" y1="83.99999999999997" x2="780" y2="83.99999999999997" stroke="#2a2a4e" stroke-width="0.5"/>
<text x="55" y="86.99999999999997" text-anchor="end" font-family="sans-serif" font-size="8" fill="#666666">33.14</text>
<line x1="60" y1="138.0" x2="780" y2="138.0" stroke="#2a2a4e" stroke-width="0.5"/>
<text x="55" y="141.0" text-anchor="end" font-family="sans-serif" font-size="8" fill="#666666">30.17</text>
<line x1="60" y1="192.0" x2="780" y2="192.0" stroke="#2a2a4e" stroke-width="0.5"/>
<text x="55" y="195.0" text-anchor="end" font-family="sans-serif" font-size="8" fill="#666666">27.21</text>
<line x1="60" y1="246.0" x2="780" y2="246.0" stroke="#2a2a4e" stroke-width="0.5"/>
<text x="55" y="249.0" text-anchor="end" font-family="sans-serif" font-size="8" fill="#666666">24.24</text>
<line x1="60" y1="300.0" x2="780" y2="300.0" stroke="#2a2a4e" stroke-width="0.5"/>
<text x="55" y="303.0" text-anchor="end" font-family="sans-serif" font-size="8" fill="#666666">21.28</text>
<line x1="60" y1="300" x2="780" y2="300" stroke="#2a2a4e" stroke-width="0.5"/>
<line x1="60" y1="345" x2="780" y2="345" stroke="#2a2a4e" stroke-width="0.5"/>
<rect x="61.8" y="333.35528418409996" width="7.199999999999999" height="11.644715815900042" fill="#ff4444" opacity="0.3"/>
<rect x="73.8" y="333.36243491819107" width="7.199999999999999" height="11.63756508180893" fill="#ff4444" opacity="0.3"/>
<rect x="85.8" y="327.9056437743772" width="7.199999999999999" height="17.09435622562279" fill="#ff4444" opacity="0.3"/>
<rect x="97.8" y="305.73679616009736" width="7.199999999999999" height="39.263203839902644" fill="#44aa44" opacity="0.3"/>
<rect x="109.8" y="305.1840476786448" width="7.199999999999999" height="39.81595232135521" fill="#44aa44" opacity="0.3"/>
<rect x="121.8" y="320.7162975408404" width="7.199999999999999" height="24.2837024591596" fill="#44aa44" opacity="0.3"/>
<rect x="133.8" y="327.2533542811804" width="7.199999999999999" height="17.746645718819593" fill="#44aa44" opacity="0.3"/>
<rect x="145.8" y="309.61238322044727" width="7.199999999999999" height="35.38761677955273" fill="#44aa44" opacity="0.3"/>
<rect x="157.8" y="322.4724445122128" width="7.199999999999999" height="22.527555487787197" fill="#ff4444" opacity="0.3"/>
<rect x="169.8" y="326.4241575544825" width="7.199999999999999" height="18.57584244551748" fill="#44aa44" opacity="0.3"/>
<rect x="181.8" y="316.08917675264627" width="7.199999999999999" height="28.910823247353733" fill="#ff4444" opacity="0.3"/>
<rect x="193.8" y="315.50912857338517" width="7.199999999999999" height="29.49087142661483" fill="#44aa44" opacity="0.3"/>
<rect x="205.8" y="315.56755419239187" width="7.199999999999999" height="29.432445807608133" fill="#44aa44" opacity="0.3"/>
<rect x="217.8" y="323.94483235087944" width="7.199999999999999" height="21.055167649120563" fill="#44aa44" opacity="0.3"/>
<rect x="229.8" y="331.03008648450617" width="7.199999999999999" height="13.969913515493829" fill="#44aa44" opacity="0.3"/>
<rect x="241.8" y="319.3190474391316" width="7.199999999999999" height="25.680952560868377" fill="#ff4444" opacity="0.3"/>
<rect x="253.8" y="325.3769374425253" width="7.199999999999999" height="19.623062557474725" fill="#44aa44" opacity="0.3"/>
<rect x="265.8" y="313.85604978298755" width="7.199999999999999" height="31.143950217012446" fill="#ff4444" opacity="0.3"/>
<rect x="277.8" y="322.11876135579314" width="7.199999999999999" height="22.88123864420686" fill="#44aa44" opacity="0.3"/>
<rect x="289.8" y="324.8737332787738" width="7.199999999999999" height="20.126266721226216" fill="#ff4444" opacity="0.3"/>
<rect x="301.8" y="325.47943028580335" width="7.199999999999999" height="19.520569714196654" fill="#ff4444" opacity="0.3"/>
<rect x="313.8" y="324.1073880208316" width="7.199999999999999" height="20.892611979168407" fill="#ff4444" opacity="0.3"/>
<rect x="325.8" y="326.43382216515886" width="7.199999999999999" height="18.56617783484114" fill="#44aa44" opacity="0.3"/>
<rect x="337.8" y="325.57357845541645" width="7.199999999999999" height="19.426421544583548" fill="#44aa44" opacity="0.3"/>
<rect x="349.8" y="323.70380987914365" width="7.199999999999999" height="21.29619012085635" fill="#44aa44" opacity="0.3"/>
<rect x="361.8" y="328.0768431721533" width="7.199999999999999" height="16.923156827846697" fill="#ff4444" opacity="0.3"/>
<rect x="373.8" y="331.2855030249505" width="7.199999999999999" height="13.714496975049485" fill="#44aa44" opacity="0.3"/>
<rect x="385.8" y="329.1757062940696" width="7.199999999999999" height="15.824293705930415" fill="#ff4444" opacity="0.3"/>
<rect x="397.8" y="315.98221934956314" width="7.199999999999999" height="29.017780650436862" fill="#ff4444" opacity="0.3"/>
<rect x="409.8" y="330.8071287056234" width="7.199999999999999" height="14.192871294376573" fill="#ff4444" opacity="0.3"/>
<rect x="421.8" y="333.3908480993784" width="7.199999999999999" height="11.609151900621612" fill="#ff4444" opacity="0.3"/>
<rect x="433.8" y="331.0060437445561" width="7.199999999999999" height="13.99395625544389" fill="#44aa44" opacity="0.3"/>
<rect x="445.8" y="328.0531116306936" width="7.199999999999999" height="16.946888369306407" fill="#ff4444" opacity="0.3"/>
<rect x="457.8" y="328.71537617403635" width="7.199999999999999" height="16.28462382596365" fill="#44aa44" opacity="0.3"/>
<rect x="469.8" y="316.58688105234677" width="7.199999999999999" height="28.41311894765323" fill="#ff4444" opacity="0.3"/>
<rect x="481.8" y="330.26794392422477" width="7.199999999999999" height="14.732056075775233" fill="#44aa44" opacity="0.3"/>
<rect x="493.8" y="318.03252403734245" width="7.199999999999999" height="26.967475962657545" fill="#ff4444" opacity="0.3"/>
<rect x="505.8" y="307.79366334091907" width="7.199999999999999" height="37.20633665908093" fill="#ff4444" opacity="0.3"/>
<rect x="517.8" y="318.1817027263349" width="7.199999999999999" height="26.81829727366511" fill="#44aa44" opacity="0.3"/>
<rect x="529.8" y="319.2162130365349" width="7.199999999999999" height="25.783786963465104" fill="#44aa44" opacity="0.3"/>
<rect x="541.8" y="313.0069044740391" width="7.199999999999999" height="31.993095525960882" fill="#ff4444" opacity="0.3"/>
<rect x="553.8" y="307.48496430578615" width="7.199999999999999" height="37.51503569421385" fill="#ff4444" opacity="0.3"/>
<rect x="565.8" y="313.0092445348822" width="7.199999999999999" height="31.990755465117786" fill="#44aa44" opacity="0.3"/>
<rect x="577.8" y="322.63356791008874" width="7.199999999999999" height="22.366432089911257" fill="#ff4444" opacity="0.3"/>
<rect x="589.8" y="319.9163861101234" width="7.199999999999999" height="25.083613889876574" fill="#44aa44" opacity="0.3"/>
<rect x="601.8" y="321.9417554496" width="7.199999999999999" height="23.05824455039999" fill="#44aa44" opacity="0.3"/>
<rect x="613.8" y="300.0" width="7.199999999999999" height="45.0" fill="#44aa44" opacity="0.3"/>
<rect x="625.8" y="321.37827289729336" width="7.199999999999999" height="23.621727102706643" fill="#44aa44" opacity="0.3"/>
<rect x="637.8" y="311.473731980005" width="7.199999999999999" height="33.52626801999497" fill="#ff4444" opacity="0.3"/>
<rect x="649.8" y="324.3504651616242" width="7.199999999999999" height="20.649534838375814" fill="#44aa44" opacity="0.3"/>
<rect x="661.8" y="318.453408610196" width="7.199999999999999" height="26.546591389804007" fill="#ff4444" opacity="0.3"/>
<rect x="673.8" y="312.8919834256865" width="7.199999999999999" height="32.108016574313524" fill="#ff4444" opacity="0.3"/>
<rect x="685.8" y="306.5762760993487" width="7.199999999999999" height="38.42372390065128" fill="#ff4444" opacity="0.3"/>
<rect x="697.8" y="310.54818744168193" width="7.199999999999999" height="34.45181255831807" fill="#ff4444" opacity="0.3"/>
<rect x="709.8" y="312.23284832472325" width="7.199999999999999" height="32.76715167527675" fill="#ff4444" opacity="0.3"/>
<rect x="721.8" y="315.9023339380761" width="7.199999999999999" height="29.097666061923917" fill="#44aa44" opacity="0.3"/>
<rect x="733.8" y="308.673496616117" width="7.199999999999999" height="36.326503383882994" fill="#44aa44" opacity="0.3"/>
<rect x="745.8" y="318.4023204443746" width="7.199999999999999" height="26.597679555625405" fill="#44aa44" opacity="0.3"/>
<rect x="757.8" y="319.46927585376335" width="7.199999999999999" height="25.53072414623665" fill="#ff4444" opacity="0.3"/>
<rect x="769.8" y="328.63255335240893" width="7.199999999999999" height="16.367446647591066" fill="#44aa44" opacity="0.3"/>
<polyline points="66.0,230.59 78.0,226.88 90.0,215.49 102.0,208.19 114.0,207.58 126.0,207.84 138.0,211.11 150.0,217.91 162.0,220.92 174.0,225.84 186.0,219.16 198.0,220.30 210.0,227.55 222.0,238.89 234.0,247.30 246.0,249.80 258.0,254.69 270.0,255.71 282.0,260.94 294.0,264.97 306.0,267.17 318.0,263.54 330.0,261.60 342.0,268.51 354.0,273.48 366.0,272.54 378.0,270.95 390.0,267.15 402.0,258.30 414.0,254.29 426.0,253.43 438.0,254.68 450.0,250.96 462.0,251.64 474.0,239.04 486.0,234.82 498.0,226.18 510.0,200.87 522.0,182.05 534.0,168.11 546.0,157.84 558.0,141.40 570.0,136.58 582.0,135.24 594.0,136.84 606.0,138.27 618.0,152.59 630.0,163.10 642.0,164.58 654.0,167.03 666.0,161.98 678.0,154.73 690.0,139.45 702.0,121.67 714.0,99.13 726.0,87.87 738.0,101.07 750.0,115.27 762.0,123.35 774.0,131.22" fill="none" stroke="#ffd700" stroke-width="0.8" opacity="0.7"/>
<polyline points="66.0,230.59 78.0,228.57 90.0,222.04 102.0,216.87 114.0,214.96 126.0,213.76 138.0,214.47 150.0,217.56 162.0,219.27 174.0,222.25 186.0,219.26 198.0,219.87 210.0,223.90 222.0,230.75 234.0,236.81 246.0,240.09 258.0,244.52 270.0,246.92 282.0,251.37 294.0,255.31 306.0,258.27 318.0,257.91 330.0,257.88 342.0,262.32 354.0,266.16 366.0,266.98 378.0,267.12 390.0,265.74 402.0,261.17 414.0,258.46 426.0,257.24 438.0,257.23 450.0,254.73 462.0,254.42 474.0,247.04 486.0,243.29 498.0,237.03 510.0,221.25 522.0,207.28 534.0,195.09 546.0,184.58 558.0,170.75 570.0,162.79 582.0,157.29 594.0,154.16 606.0,151.79 618.0,157.14 630.0,162.05 642.0,163.05 654.0,164.66 666.0,162.34 678.0,158.32 690.0,149.33 702.0,137.84 714.0,122.60 726.0,112.19 738.0,114.97 750.0,120.19 762.0,123.70 774.0,127.93" fill="none" stroke="#ff6b6b" stroke-width="0.8" opacity="0.7"/>
<polyline points="66.0,230.59 78.0,229.53 90.0,226.02 102.0,222.93 114.0,221.35 126.0,220.12 138.0,219.88 150.0,220.99 162.0,221.56 174.0,222.90 186.0,221.27 198.0,221.40 210.0,223.37 222.0,227.00 234.0,230.54 246.0,232.85 258.0,235.86 270.0,237.94 282.0,241.13 294.0,244.17 306.0,246.78 318.0,247.68 330.0,248.64 342.0,251.85 354.0,254.86 366.0,256.36 378.0,257.45 390.0,257.65 402.0,256.02 414.0,255.09 426.0,254.77 438.0,255.00 450.0,253.91 462.0,253.82 474.0,250.01 486.0,247.76 498.0,244.06 510.0,235.13 522.0,226.49 534.0,218.27 546.0,210.56 558.0,200.84 570.0,193.80 582.0,187.97 594.0,183.41 606.0,179.38 618.0,179.56 630.0,179.99 642.0,178.81 654.0,178.15 666.0,175.65 678.0,172.28 690.0,166.24 702.0,158.61 714.0,148.65 726.0,140.72 738.0,139.45 750.0,139.86 762.0,139.82 774.0,140.50" fill="none" stroke="#4ecdc4" stroke-width="0.8" opacity="0.7"/>
<line x1="66.0" y1="228.2186234817814" x2="66.0" y2="248.07692307692312" stroke="#ff4444" stroke-width="0.5" opacity="0.6"/>
<rect x="63.0" y="230.58704453441297" width="6.0" height="2.368421052631561" fill="#ff4444" opacity="0.85"/>
<line x1="78.0" y1="211.09311740890692" x2="78.0" y2="250.44534412955466" stroke="#ff4444" stroke-width="0.5" opacity="0.6"/>
<rect x="75.0" y="219.47368421052636" width="6.0" height="15.303643724696371" fill="#ff4444" opacity="0.85"/>
<line x1="90.0" y1="188.50202429149803" x2="90.0" y2="229.4939271255061" stroke="#ff4444" stroke-width="0.5" opacity="0.6"/>
<rect x="87.0" y="192.69230769230768" width="6.0" height="35.89068825910937" fill="#ff4444" opacity="0.85"/>
<line x1="102.0" y1="141.13360323886644" x2="102.0" y2="195.78947368421055" stroke="#44aa44" stroke-width="0.5" opacity="0.6"/>
<rect x="99.0" y="186.68016194331986" width="6.0" height="6.923076923076906" fill="#44aa44" opacity="0.85"/>
<line x1="114.0" y1="168.46153846153848" x2="114.0" y2="230.04048582995952" stroke="#44aa44" stroke-width="0.5" opacity="0.6"/>
<rect x="111.0" y="175.02024291497978" width="6.0" height="31.336032388663938" fill="#44aa44" opacity="0.85"/>
<line x1="126.0" y1="185.22267206477738" x2="126.0" y2="217.28744939271257" stroke="#44aa44" stroke-width="0.5" opacity="0.6"/>
<rect x="123.0" y="200.3441295546559" width="6.0" height="8.016194331983826" fill="#44aa44" opacity="0.85"/>
<line x1="138.0" y1="189.77732793522273" x2="138.0" y2="219.83805668016197" stroke="#44aa44" stroke-width="0.5" opacity="0.6"/>
<rect x="135.0" y="210.72874493927128" width="6.0" height="6.923076923076906" fill="#44aa44" opacity="0.85"/>
<line x1="150.0" y1="196.33603238866402" x2="150.0" y2="245.89068825910934" stroke="#44aa44" stroke-width="0.5" opacity="0.6"/>
<rect x="147.0" y="197.61133603238872" width="6.0" height="33.88663967611333" fill="#44aa44" opacity="0.85"/>
<line x1="162.0" y1="217.28744939271257" x2="162.0" y2="242.79352226720647" stroke="#ff4444" stroke-width="0.5" opacity="0.6"/>
<rect x="159.0" y="226.94331983805674" width="6.0" height="9.10931174089066" fill="#ff4444" opacity="0.85"/>
<line x1="174.0" y1="218.3805668016194" x2="174.0" y2="242.24696356275308" stroke="#44aa44" stroke-width="0.5" opacity="0.6"/>
<rect x="171.0" y="226.76113360323887" width="6.0" height="8.927125506072912" fill="#44aa44" opacity="0.85"/>
<line x1="186.0" y1="193.05668016194338" x2="186.0" y2="237.69230769230774" stroke="#ff4444" stroke-width="0.5" opacity="0.6"/>
<rect x="183.0" y="205.8097165991903" width="6.0" height="25.870445344129536" fill="#ff4444" opacity="0.85"/>
<line x1="198.0" y1="177.20647773279356" x2="198.0" y2="228.0364372469636" stroke="#44aa44" stroke-width="0.5" opacity="0.6"/>
<rect x="195.0" y="185.22267206477738" width="6.0" height="37.34817813765176" fill="#44aa44" opacity="0.85"/>
<line x1="210.0" y1="203.6234817813765" x2="210.0" y2="248.07692307692312" stroke="#44aa44" stroke-width="0.5" opacity="0.6"/>
<rect x="207.0" y="223.11740890688262" width="6.0" height="18.9473684210526" fill="#44aa44" opacity="0.85"/>
<line x1="222.0" y1="242.61133603238866" x2="222.0" y2="264.1093117408907" stroke="#44aa44" stroke-width="0.5" opacity="0.6"/>
<rect x="219.0" y="243.8866396761134" width="6.0" height="17.672064777327904" fill="#44aa44" opacity="0.85"/>
<line x1="234.0" y1="254.08906882591094" x2="234.0" y2="267.5708502024292" stroke="#44aa44" stroke-width="0.5" opacity="0.6"/>
<rect x="231.0" y="259.3724696356275" width="6.0" height="4.736842105263179" fill="#44aa44" opacity="0.85"/>
<line x1="246.0" y1="243.52226720647778" x2="246.0" y2="272.3076923076923" stroke="#ff4444" stroke-width="0.5" opacity="0.6"/>
<rect x="243.0" y="254.81781376518217" width="6.0" height="4.736842105263179" fill="#ff4444" opacity="0.85"/>
<line x1="258.0" y1="242.42914979757086" x2="258.0" y2="265.9311740890689" stroke="#44aa44" stroke-width="0.5" opacity="0.6"/>
<rect x="255.0" y="258.0971659919029" width="6.0" height="6.37651821862346" fill="#44aa44" opacity="0.85"/>
<line x1="270.0" y1="220.38461538461542" x2="270.0" y2="268.1174089068826" stroke="#ff4444" stroke-width="0.5" opacity="0.6"/>
<rect x="267.0" y="257.73279352226723" width="6.0" height="8.927125506072912" fill="#ff4444" opacity="0.85"/>
<line x1="282.0" y1="265.0202429149798" x2="282.0" y2="286.5182186234818" stroke="#44aa44" stroke-width="0.5" opacity="0.6"/>
<rect x="279.0" y="268.4817813765182" width="6.0" height="2.9149797570850637" fill="#44aa44" opacity="0.85"/>
<line x1="294.0" y1="267.02429149797575" x2="294.0" y2="283.2388663967612" stroke="#ff4444" stroke-width="0.5" opacity="0.6"/>
<rect x="291.0" y="273.03643724696354" width="6.0" height="1.4574898785425603" fill="#ff4444" opacity="0.85"/>
<line x1="306.0" y1="256.82186234817823" x2="306.0" y2="279.7773279352227" stroke="#ff4444" stroke-width="0.5" opacity="0.6"/>
<rect x="303.0" y="271.5789473684211" width="6.0" height="2.368421052631504" fill="#ff4444" opacity="0.85"/>
<line x1="318.0" y1="243.15789473684214" x2="318.0" y2="273.2186234817814" stroke="#ff4444" stroke-width="0.5" opacity="0.6"/>
<rect x="315.0" y="256.2753036437247" width="6.0" height="12.388663967611308" fill="#ff4444" opacity="0.85"/>
<line x1="330.0" y1="243.34008097165994" x2="330.0" y2="267.5708502024292" stroke="#44aa44" stroke-width="0.5" opacity="0.6"/>
<rect x="327.0" y="243.8866396761134" width="6.0" height="13.84615384615384" fill="#44aa44" opacity="0.85"/>
<line x1="342.0" y1="259.55465587044534" x2="342.0" y2="286.33603238866397" stroke="#44aa44" stroke-width="0.5" opacity="0.6"/>
<rect x="339.0" y="263.19838056680163" width="6.0" height="19.129554655870436" fill="#44aa44" opacity="0.85"/>
<line x1="354.0" y1="276.1336032388664" x2="354.0" y2="300.0" stroke="#44aa44" stroke-width="0.5" opacity="0.6"/>
<rect x="351.0" y="280.5060728744939" width="6.0" height="2.9149797570850637" fill="#44aa44" opacity="0.85"/>
<line x1="366.0" y1="265.3846153846154" x2="366.0" y2="284.69635627530363" stroke="#ff4444" stroke-width="0.5" opacity="0.6"/>
<rect x="363.0" y="270.668016194332" width="6.0" height="12.93522267206481" fill="#ff4444" opacity="0.85"/>
<line x1="378.0" y1="257.1862348178138" x2="378.0" y2="274.1295546558705" stroke="#44aa44" stroke-width="0.5" opacity="0.6"/>
<rect x="375.0" y="263.74493927125513" width="6.0" height="4.008097165991842" fill="#44aa44" opacity="0.85"/>
<line x1="390.0" y1="242.42914979757086" x2="390.0" y2="266.2955465587045" stroke="#ff4444" stroke-width="0.5" opacity="0.6"/>
<rect x="387.0" y="259.55465587044534" width="6.0" height="4.008097165991899" fill="#ff4444" opacity="0.85"/>
<line x1="402.0" y1="235.87044534412954" x2="402.0" y2="279.9595141700405" stroke="#ff4444" stroke-width="0.5" opacity="0.6"/>
<rect x="399.0" y="240.60728744939274" width="6.0" height="31.336032388663966" fill="#ff4444" opacity="0.85"/>
<line x1="414.0" y1="235.87044534412954" x2="414.0" y2="252.99595141700408" stroke="#ff4444" stroke-width="0.5" opacity="0.6"/>
<rect x="411.0" y="246.25506072874495" width="6.0" height="1.0931174089068634" fill="#ff4444" opacity="0.85"/>
<line x1="426.0" y1="239.1497975708502" x2="426.0" y2="254.45344129554655" stroke="#ff4444" stroke-width="0.5" opacity="0.6"/>
<rect x="423.0" y="251.72064777327938" width="6.0" height="0.5465587044534743" fill="#ff4444" opacity="0.85"/>
<line x1="438.0" y1="243.34008097165994" x2="438.0" y2="268.4817813765182" stroke="#44aa44" stroke-width="0.5" opacity="0.6"/>
<rect x="435.0" y="256.4574898785425" width="6.0" height="0.7287449392712801" fill="#44aa44" opacity="0.85"/>
<line x1="450.0" y1="234.4129554655871" x2="450.0" y2="265.9311740890689" stroke="#ff4444" stroke-width="0.5" opacity="0.6"/>
<rect x="447.0" y="243.52226720647778" width="6.0" height="15.668016194332012" fill="#ff4444" opacity="0.85"/>
<line x1="462.0" y1="228.58299595141705" x2="462.0" y2="262.2874493927126" stroke="#44aa44" stroke-width="0.5" opacity="0.6"/>
<rect x="459.0" y="232.2267206477733" width="6.0" height="20.769230769230774" fill="#44aa44" opacity="0.85"/>
<line x1="474.0" y1="209.45344129554658" x2="474.0" y2="253.72469635627533" stroke="#ff4444" stroke-width="0.5" opacity="0.6"/>
<rect x="471.0" y="213.82591093117406" width="6.0" height="33.88663967611345" fill="#ff4444" opacity="0.85"/>
<line x1="486.0" y1="219.47368421052636" x2="486.0" y2="231.13360323886644" stroke="#44aa44" stroke-width="0.5" opacity="0.6"/>
<rect x="483.0" y="222.93522267206478" width="6.0" height="3.461538461538481" fill="#44aa44" opacity="0.85"/>
<line x1="498.0" y1="204.3522267206478" x2="498.0" y2="242.79352226720647" stroke="#ff4444" stroke-width="0.5" opacity="0.6"/>
<rect x="495.0" y="208.90688259109314" width="6.0" height="16.761133603238875" fill="#ff4444" opacity="0.85"/>
<line x1="510.0" y1="142.22672064777328" x2="510.0" y2="210.36437246963564" stroke="#ff4444" stroke-width="0.5" opacity="0.6"/>
<rect x="507.0" y="150.24291497975713" width="6.0" height="56.65991902834003" fill="#ff4444" opacity="0.85"/>
<line x1="522.0" y1="124.73684210526321" x2="522.0" y2="162.99595141700405" stroke="#44aa44" stroke-width="0.5" opacity="0.6"/>
<rect x="519.0" y="141.13360323886644" width="6.0" height="3.2793522267206185" fill="#44aa44" opacity="0.85"/>
<line x1="534.0" y1="128.74493927125508" x2="534.0" y2="155.70850202429153" stroke="#44aa44" stroke-width="0.5" opacity="0.6"/>
<rect x="531.0" y="134.57489878542515" width="6.0" height="5.6477732793521795" fill="#44aa44" opacity="0.85"/>
<line x1="546.0" y1="97.9554655870446" x2="546.0" y2="150.24291497975713" stroke="#ff4444" stroke-width="0.5" opacity="0.6"/>
<rect x="543.0" y="137.30769230769232" width="6.0" height="3.8259109311741213" fill="#ff4444" opacity="0.85"/>
<line x1="558.0" y1="53.684210526315866" x2="558.0" y2="141.13360323886644" stroke="#ff4444" stroke-width="0.5" opacity="0.6"/>
<rect x="555.0" y="108.52226720647776" width="6.0" height="32.61133603238868" fill="#ff4444" opacity="0.85"/>
<line x1="570.0" y1="102.32793522267204" x2="570.0" y2="148.05668016194332" stroke="#44aa44" stroke-width="0.5" opacity="0.6"/>
<rect x="567.0" y="104.5141700404859" width="6.0" height="22.408906882591026" fill="#44aa44" opacity="0.85"/>
<line x1="582.0" y1="110.70850202429149" x2="582.0" y2="139.31174089068827" stroke="#ff4444" stroke-width="0.5" opacity="0.6"/>
<rect x="579.0" y="132.5708502024292" width="6.0" height="0.546558704453389" fill="#ff4444" opacity="0.85"/>
<line x1="594.0" y1="108.34008097165993" x2="594.0" y2="149.14979757085024" stroke="#44aa44" stroke-width="0.5" opacity="0.6"/>
<rect x="591.0" y="122.18623481781381" width="6.0" height="17.85425101214574" fill="#44aa44" opacity="0.85"/>
<line x1="606.0" y1="118.72469635627532" x2="606.0" y2="143.68421052631584" stroke="#44aa44" stroke-width="0.5" opacity="0.6"/>
<rect x="603.0" y="130.20242914979758" width="6.0" height="10.931174089068861" fill="#44aa44" opacity="0.85"/>
<line x1="618.0" y1="152.9757085020243" x2="618.0" y2="188.86639676113364" stroke="#44aa44" stroke-width="0.5" opacity="0.6"/>
<rect x="615.0" y="158.98785425101218" width="6.0" height="22.22672064777325" fill="#44aa44" opacity="0.85"/>
<line x1="630.0" y1="162.99595141700405" x2="630.0" y2="184.8582995951417" stroke="#44aa44" stroke-width="0.5" opacity="0.6"/>
<rect x="627.0" y="179.93927125506073" width="6.0" height="4.190283400809733" fill="#44aa44" opacity="0.85"/>
<line x1="642.0" y1="157.71255060728748" x2="642.0" y2="189.04858299595142" stroke="#ff4444" stroke-width="0.5" opacity="0.6"/>
<rect x="639.0" y="167.55060728744942" width="6.0" height="12.75303643724692" fill="#ff4444" opacity="0.85"/>
<line x1="654.0" y1="159.3522267206478" x2="654.0" y2="179.75708502024295" stroke="#44aa44" stroke-width="0.5" opacity="0.6"/>
<rect x="651.0" y="169.37246963562757" width="6.0" height="2.5506072874493952" fill="#44aa44" opacity="0.85"/>
<line x1="666.0" y1="144.04858299595145" x2="666.0" y2="181.94331983805668" stroke="#ff4444" stroke-width="0.5" opacity="0.6"/>
<rect x="663.0" y="151.88259109311744" width="6.0" height="24.777327935222672" fill="#ff4444" opacity="0.85"/>
<line x1="678.0" y1="106.51821862348183" x2="678.0" y2="150.60728744939274" stroke="#ff4444" stroke-width="0.5" opacity="0.6"/>
<rect x="675.0" y="140.22267206477733" width="6.0" height="10.020242914979804" fill="#ff4444" opacity="0.85"/>
<line x1="690.0" y1="86.84210526315798" x2="690.0" y2="160.99190283400813" stroke="#ff4444" stroke-width="0.5" opacity="0.6"/>
<rect x="687.0" y="108.88663967611339" width="6.0" height="28.785425101214543" fill="#ff4444" opacity="0.85"/>
<line x1="702.0" y1="74.63562753036442" x2="702.0" y2="125.10121457489883" stroke="#ff4444" stroke-width="0.5" opacity="0.6"/>
<rect x="699.0" y="86.11336032388661" width="6.0" height="6.012145748987962" fill="#ff4444" opacity="0.85"/>
<line x1="714.0" y1="50.769230769230774" x2="714.0" y2="120.9109311740891" stroke="#ff4444" stroke-width="0.5" opacity="0.6"/>
<rect x="711.0" y="54.04858299595142" width="6.0" height="40.809716599190324" fill="#ff4444" opacity="0.85"/>
<line x1="726.0" y1="30.0" x2="726.0" y2="79.91902834008101" stroke="#44aa44" stroke-width="0.5" opacity="0.6"/>
<rect x="723.0" y="54.77732793522266" width="6.0" height="10.566801619433292" fill="#44aa44" opacity="0.85"/>
<line x1="738.0" y1="68.25910931174091" x2="738.0" y2="129.1093117408907" stroke="#44aa44" stroke-width="0.5" opacity="0.6"/>
<rect x="735.0" y="68.25910931174091" width="6.0" height="59.210526315789465" fill="#44aa44" opacity="0.85"/>
<line x1="750.0" y1="111.61943319838058" x2="750.0" y2="148.78542510121463" stroke="#44aa44" stroke-width="0.5" opacity="0.6"/>
<rect x="747.0" y="115.8097165991903" width="6.0" height="27.874493927125542" fill="#44aa44" opacity="0.85"/>
<line x1="762.0" y1="122.55060728744942" x2="762.0" y2="173.9271255060729" stroke="#ff4444" stroke-width="0.5" opacity="0.6"/>
<rect x="759.0" y="139.4939271255061" width="6.0" height="4.190283400809733" fill="#ff4444" opacity="0.85"/>
<line x1="774.0" y1="140.04048582995955" x2="774.0" y2="159.53441295546563" stroke="#44aa44" stroke-width="0.5" opacity="0.6"/>
<rect x="771.0" y="141.86234817813767" width="6.0" height="5.1012145748987905" fill="#44aa44" opacity="0.85"/>
<rect x="206.0" y="244.07692307692312" width="8" height="8" fill="#4caf50" opacity="0.85" rx="1"/>
<text x="210.0" y="242.07692307692312" text-anchor="middle" font-family="sans-serif" font-size="8" fill="#4caf50">前低</text>
<rect x="218.0" y="260.1093117408907" width="8" height="8" fill="#4caf50" opacity="0.85" rx="1"/>
<text x="222.0" y="258.1093117408907" text-anchor="middle" font-family="sans-serif" font-size="8" fill="#4caf50">前低</text>
<rect x="230.0" y="263.5708502024292" width="8" height="8" fill="#4caf50" opacity="0.85" rx="1"/>
<text x="234.0" y="261.5708502024292" text-anchor="middle" font-family="sans-serif" font-size="8" fill="#4caf50">前低</text>
<rect x="242.0" y="268.3076923076923" width="8" height="8" fill="#4caf50" opacity="0.85" rx="1"/>
<text x="246.0" y="266.3076923076923" text-anchor="middle" font-family="sans-serif" font-size="8" fill="#4caf50">前低</text>
<rect x="278.0" y="282.5182186234818" width="8" height="8" fill="#4caf50" opacity="0.85" rx="1"/>
<text x="282.0" y="280.5182186234818" text-anchor="middle" font-family="sans-serif" font-size="8" fill="#4caf50">前低</text>
<rect x="350.0" y="296.0" width="8" height="8" fill="#4caf50" opacity="0.85" rx="1"/>
<text x="354.0" y="294.0" text-anchor="middle" font-family="sans-serif" font-size="8" fill="#4caf50">前低</text>
<rect x="398.0" y="231.87044534412954" width="8" height="8" fill="#ff9800" opacity="0.85" rx="1"/>
<text x="402.0" y="229.87044534412954" text-anchor="middle" font-family="sans-serif" font-size="8" fill="#ff9800">前高</text>
<rect x="398.0" y="231.87044534412954" width="8" height="8" fill="#2196f3" opacity="0.85" rx="1"/>
<text x="402.0" y="229.87044534412954" text-anchor="middle" font-family="sans-serif" font-size="8" fill="#2196f3">突</text>
<rect x="410.0" y="231.87044534412954" width="8" height="8" fill="#ff9800" opacity="0.85" rx="1"/>
<text x="414.0" y="229.87044534412954" text-anchor="middle" font-family="sans-serif" font-size="8" fill="#ff9800">前高</text>
<rect x="446.0" y="230.4129554655871" width="8" height="8" fill="#ff9800" opacity="0.85" rx="1"/>
<text x="450.0" y="228.4129554655871" text-anchor="middle" font-family="sans-serif" font-size="8" fill="#ff9800">前高</text>
<rect x="458.0" y="224.58299595141705" width="8" height="8" fill="#ff9800" opacity="0.85" rx="1"/>
<text x="462.0" y="222.58299595141705" text-anchor="middle" font-family="sans-serif" font-size="8" fill="#ff9800">前高</text>
<rect x="470.0" y="205.45344129554658" width="8" height="8" fill="#ff9800" opacity="0.85" rx="1"/>
<text x="474.0" y="203.45344129554658" text-anchor="middle" font-family="sans-serif" font-size="8" fill="#ff9800">前高</text>
<rect x="470.0" y="205.45344129554658" width="8" height="8" fill="#2196f3" opacity="0.85" rx="1"/>
<text x="474.0" y="203.45344129554658" text-anchor="middle" font-family="sans-serif" font-size="8" fill="#2196f3">突</text>
<rect x="494.0" y="200.3522267206478" width="8" height="8" fill="#ff9800" opacity="0.85" rx="1"/>
<text x="498.0" y="198.3522267206478" text-anchor="middle" font-family="sans-serif" font-size="8" fill="#ff9800">前高</text>
<rect x="494.0" y="200.3522267206478" width="8" height="8" fill="#2196f3" opacity="0.85" rx="1"/>
<text x="498.0" y="198.3522267206478" text-anchor="middle" font-family="sans-serif" font-size="8" fill="#2196f3">突</text>
<rect x="506.0" y="138.22672064777328" width="8" height="8" fill="#ff9800" opacity="0.85" rx="1"/>
<text x="510.0" y="136.22672064777328" text-anchor="middle" font-family="sans-serif" font-size="8" fill="#ff9800">前高</text>
<rect x="506.0" y="138.22672064777328" width="8" height="8" fill="#2196f3" opacity="0.85" rx="1"/>
<text x="510.0" y="136.22672064777328" text-anchor="middle" font-family="sans-serif" font-size="8" fill="#2196f3">突</text>
<rect x="518.0" y="120.73684210526321" width="8" height="8" fill="#ff9800" opacity="0.85" rx="1"/>
<text x="522.0" y="118.73684210526321" text-anchor="middle" font-family="sans-serif" font-size="8" fill="#ff9800">前高</text>
<rect x="542.0" y="93.9554655870446" width="8" height="8" fill="#ff9800" opacity="0.85" rx="1"/>
<text x="546.0" y="91.9554655870446" text-anchor="middle" font-family="sans-serif" font-size="8" fill="#ff9800">前高</text>
<rect x="554.0" y="49.684210526315866" width="8" height="8" fill="#ff9800" opacity="0.85" rx="1"/>
<text x="558.0" y="47.684210526315866" text-anchor="middle" font-family="sans-serif" font-size="8" fill="#ff9800">前高</text>
<rect x="638.0" y="185.04858299595142" width="8" height="8" fill="#4caf50" opacity="0.85" rx="1"/>
<text x="642.0" y="183.04858299595142" text-anchor="middle" font-family="sans-serif" font-size="8" fill="#4caf50">前低</text>
<rect x="686.0" y="82.84210526315798" width="8" height="8" fill="#ff9800" opacity="0.85" rx="1"/>
<text x="690.0" y="80.84210526315798" text-anchor="middle" font-family="sans-serif" font-size="8" fill="#ff9800">前高</text>
<rect x="698.0" y="70.63562753036442" width="8" height="8" fill="#ff9800" opacity="0.85" rx="1"/>
<text x="702.0" y="68.63562753036442" text-anchor="middle" font-family="sans-serif" font-size="8" fill="#ff9800">前高</text>
<rect x="698.0" y="70.63562753036442" width="8" height="8" fill="#2196f3" opacity="0.85" rx="1"/>
<text x="702.0" y="68.63562753036442" text-anchor="middle" font-family="sans-serif" font-size="8" fill="#2196f3">突</text>
<rect x="710.0" y="46.769230769230774" width="8" height="8" fill="#ff9800" opacity="0.85" rx="1"/>
<text x="714.0" y="44.769230769230774" text-anchor="middle" font-family="sans-serif" font-size="8" fill="#ff9800">前高</text>
<rect x="710.0" y="46.769230769230774" width="8" height="8" fill="#2196f3" opacity="0.85" rx="1"/>
<text x="714.0" y="44.769230769230774" text-anchor="middle" font-family="sans-serif" font-size="8" fill="#2196f3">突</text>
<rect x="722.0" y="26.0" width="8" height="8" fill="#ff9800" opacity="0.85" rx="1"/>
<text x="726.0" y="24.0" text-anchor="middle" font-family="sans-serif" font-size="8" fill="#ff9800">前高</text>
<line x1="60" y1="204.3522267206478" x2="780" y2="204.3522267206478" stroke="#4caf50" stroke-width="1.5" stroke-dasharray="6,3" opacity="0.7"/>
<text x="64" y="200.3522267206478" font-family="sans-serif" font-size="9" fill="#4caf50" font-weight="bold">支撑 26.53</text>
<line x1="60" y1="30.0" x2="780" y2="30.0" stroke="#f44336" stroke-width="1.5" stroke-dasharray="6,3" opacity="0.7"/>
<text x="64" y="26.0" font-family="sans-serif" font-size="9" fill="#f44336" font-weight="bold">压力 36.10</text>
<text x="66.0" y="359" text-anchor="middle" font-family="sans-serif" font-size="8" fill="#666666" transform="rotate(-40,66.0,359)">02/26</text>
<text x="138.0" y="359" text-anchor="middle" font-family="sans-serif" font-size="8" fill="#666666" transform="rotate(-40,138.0,359)">03/06</text>
<text x="210.0" y="359" text-anchor="middle" font-family="sans-serif" font-size="8" fill="#666666" transform="rotate(-40,210.0,359)">03/16</text>
<text x="282.0" y="359" text-anchor="middle" font-family="sans-serif" font-size="8" fill="#666666" transform="rotate(-40,282.0,359)">03/24</text>
<text x="354.0" y="359" text-anchor="middle" font-family="sans-serif" font-size="8" fill="#666666" transform="rotate(-40,354.0,359)">04/01</text>
<text x="426.0" y="359" text-anchor="middle" font-family="sans-serif" font-size="8" fill="#666666" transform="rotate(-40,426.0,359)">04/10</text>
<text x="498.0" y="359" text-anchor="middle" font-family="sans-serif" font-size="8" fill="#666666" transform="rotate(-40,498.0,359)">04/20</text>
<text x="570.0" y="359" text-anchor="middle" font-family="sans-serif" font-size="8" fill="#666666" transform="rotate(-40,570.0,359)">04/28</text>
<text x="642.0" y="359" text-anchor="middle" font-family="sans-serif" font-size="8" fill="#666666" transform="rotate(-40,642.0,359)">05/11</text>
<text x="714.0" y="359" text-anchor="middle" font-family="sans-serif" font-size="8" fill="#666666" transform="rotate(-40,714.0,359)">05/19</text>
<text x="774.0" y="359" text-anchor="middle" font-family="sans-serif" font-size="8" fill="#666666" transform="rotate(-40,774.0,359)">05/26</text>
<text x="400.0" y="396" text-anchor="middle" font-family="sans-serif" font-size="9" fill="#555555">数据截至: 2026-05-26 21:27  |  最新K线: 20260526</text>
<rect x="50" y="373" width="8" height="8" fill="#ffd700" opacity="0.8" rx="1"/>
<text x="61" y="380" font-family="sans-serif" font-size="9" fill="#888888">EMA5</text>
<rect x="150" y="373" width="8" height="8" fill="#ff6b6b" opacity="0.8" rx="1"/>
<text x="161" y="380" font-family="sans-serif" font-size="9" fill="#888888">EMA10</text>
<rect x="250" y="373" width="8" height="8" fill="#4ecdc4" opacity="0.8" rx="1"/>
<text x="261" y="380" font-family="sans-serif" font-size="9" fill="#888888">EMA20</text>
<rect x="350" y="373" width="8" height="8" fill="#2196f3" opacity="0.8" rx="1"/>
<text x="361" y="380" font-family="sans-serif" font-size="9" fill="#888888">突破</text>
<rect x="450" y="373" width="8" height="8" fill="#ff9800" opacity="0.8" rx="1"/>
<text x="461" y="380" font-family="sans-serif" font-size="9" fill="#888888">前高/量</text>
<rect x="550" y="373" width="8" height="8" fill="#4caf50" opacity="0.8" rx="1"/>
<text x="561" y="380" font-family="sans-serif" font-size="9" fill="#888888">前低</text>
</svg>