<svg xmlns="http://www.w3.org/2000/svg" width="800" height="400" viewBox="0 0 800 400">
<rect width="800" height="400" fill="#1a1a2e"/>
<text x="400.0" y="20" text-anchor="middle" font-family="sans-serif" font-size="14" fill="#ffffff" font-weight="bold">沃格光电(603773) K线图</text>
<line x1="60" y1="30.0" x2="780" y2="30.0" stroke="#2a2a4e" stroke-width="0.5"/>
<text x="55" y="33.0" text-anchor="end" font-family="sans-serif" font-size="8" fill="#666666">91.54</text>
<line x1="60" y1="84.0" x2="780" y2="84.0" stroke="#2a2a4e" stroke-width="0.5"/>
<text x="55" y="87.0" text-anchor="end" font-family="sans-serif" font-size="8" fill="#666666">79.68</text>
<line x1="60" y1="137.99999999999994" x2="780" y2="137.99999999999994" stroke="#2a2a4e" stroke-width="0.5"/>
<text x="55" y="140.99999999999994" text-anchor="end" font-family="sans-serif" font-size="8" fill="#666666">67.81</text>
<line x1="60" y1="192.0" x2="780" y2="192.0" stroke="#2a2a4e" stroke-width="0.5"/>
<text x="55" y="195.0" text-anchor="end" font-family="sans-serif" font-size="8" fill="#666666">55.95</text>
<line x1="60" y1="245.99999999999997" x2="780" y2="245.99999999999997" stroke="#2a2a4e" stroke-width="0.5"/>
<text x="55" y="248.99999999999997" text-anchor="end" font-family="sans-serif" font-size="8" fill="#666666">44.08</text>
<line x1="60" y1="300.0" x2="780" y2="300.0" stroke="#2a2a4e" stroke-width="0.5"/>
<text x="55" y="303.0" text-anchor="end" font-family="sans-serif" font-size="8" fill="#666666">32.22</text>
<line x1="60" y1="300" x2="780" y2="300" stroke="#2a2a4e" stroke-width="0.5"/>
<line x1="60" y1="345" x2="780" y2="345" stroke="#2a2a4e" stroke-width="0.5"/>
<rect x="61.8" y="336.2460447303352" width="7.199999999999999" height="8.7539552696648" fill="#ff4444" opacity="0.3"/>
<rect x="73.8" y="330.28567179163025" width="7.199999999999999" height="14.71432820836975" fill="#ff4444" opacity="0.3"/>
<rect x="85.8" y="335.1982840357694" width="7.199999999999999" height="9.801715964230596" fill="#44aa44" opacity="0.3"/>
<rect x="97.8" y="334.9798471806503" width="7.199999999999999" height="10.020152819349676" fill="#44aa44" opacity="0.3"/>
<rect x="109.8" y="338.92425960698284" width="7.199999999999999" height="6.075740393017156" fill="#ff4444" opacity="0.3"/>
<rect x="121.8" y="338.507798992359" width="7.199999999999999" height="6.492201007640972" fill="#ff4444" opacity="0.3"/>
<rect x="133.8" y="325.41673018646935" width="7.199999999999999" height="19.58326981353065" fill="#ff4444" opacity="0.3"/>
<rect x="145.8" y="331.10160999460857" width="7.199999999999999" height="13.898390005391434" fill="#ff4444" opacity="0.3"/>
<rect x="157.8" y="333.79245756567326" width="7.199999999999999" height="11.20754243432674" fill="#ff4444" opacity="0.3"/>
<rect x="169.8" y="327.29373106025395" width="7.199999999999999" height="17.706268939746053" fill="#ff4444" opacity="0.3"/>
<rect x="181.8" y="325.4292792206585" width="7.199999999999999" height="19.570720779341514" fill="#44aa44" opacity="0.3"/>
<rect x="193.8" y="333.29877856067225" width="7.199999999999999" height="11.701221439327753" fill="#44aa44" opacity="0.3"/>
<rect x="205.8" y="330.2383201026232" width="7.199999999999999" height="14.76167989737678" fill="#ff4444" opacity="0.3"/>
<rect x="217.8" y="322.9433155477886" width="7.199999999999999" height="22.056684452211414" fill="#44aa44" opacity="0.3"/>
<rect x="229.8" y="333.7491215676068" width="7.199999999999999" height="11.250878432393222" fill="#ff4444" opacity="0.3"/>
<rect x="241.8" y="336.03731246165574" width="7.199999999999999" height="8.962687538344255" fill="#ff4444" opacity="0.3"/>
<rect x="253.8" y="334.69364554090987" width="7.199999999999999" height="10.30635445909013" fill="#44aa44" opacity="0.3"/>
<rect x="265.8" y="335.8187082860808" width="7.199999999999999" height="9.181291713919222" fill="#ff4444" opacity="0.3"/>
<rect x="277.8" y="336.79694733123875" width="7.199999999999999" height="8.203052668761245" fill="#44aa44" opacity="0.3"/>
<rect x="289.8" y="337.96643365743927" width="7.199999999999999" height="7.033566342560732" fill="#44aa44" opacity="0.3"/>
<rect x="301.8" y="338.1421201360873" width="7.199999999999999" height="6.857879863912672" fill="#44aa44" opacity="0.3"/>
<rect x="313.8" y="338.36867203331536" width="7.199999999999999" height="6.631327966684637" fill="#ff4444" opacity="0.3"/>
<rect x="325.8" y="336.99522207142724" width="7.199999999999999" height="8.004777928572764" fill="#44aa44" opacity="0.3"/>
<rect x="337.8" y="339.16545204409823" width="7.199999999999999" height="5.834547955901769" fill="#44aa44" opacity="0.3"/>
<rect x="349.8" y="339.05209243525627" width="7.199999999999999" height="5.94790756474373" fill="#ff4444" opacity="0.3"/>
<rect x="361.8" y="340.67836360594174" width="7.199999999999999" height="4.32163639405826" fill="#44aa44" opacity="0.3"/>
<rect x="373.8" y="339.44696871107476" width="7.199999999999999" height="5.55303128892524" fill="#ff4444" opacity="0.3"/>
<rect x="385.8" y="338.1140939597315" width="7.199999999999999" height="6.88590604026848" fill="#44aa44" opacity="0.3"/>
<rect x="397.8" y="333.8400602353641" width="7.199999999999999" height="11.159939764635908" fill="#ff4444" opacity="0.3"/>
<rect x="409.8" y="326.1161296919445" width="7.199999999999999" height="18.88387030805552" fill="#ff4444" opacity="0.3"/>
<rect x="421.8" y="319.02098942162894" width="7.199999999999999" height="25.97901057837106" fill="#ff4444" opacity="0.3"/>
<rect x="433.8" y="317.5158582609827" width="7.199999999999999" height="27.484141739017275" fill="#ff4444" opacity="0.3"/>
<rect x="445.8" y="324.4442636970384" width="7.199999999999999" height="20.555736302961577" fill="#ff4444" opacity="0.3"/>
<rect x="457.8" y="329.2006822956367" width="7.199999999999999" height="15.799317704363318" fill="#ff4444" opacity="0.3"/>
<rect x="469.8" y="320.1232965848036" width="7.199999999999999" height="24.876703415196403" fill="#44aa44" opacity="0.3"/>
<rect x="481.8" y="326.6994924612839" width="7.199999999999999" height="18.30050753871609" fill="#ff4444" opacity="0.3"/>
<rect x="493.8" y="336.9916246816264" width="7.199999999999999" height="8.008375318373623" fill="#ff4444" opacity="0.3"/>
<rect x="505.8" y="300.0" width="7.199999999999999" height="45.0" fill="#44aa44" opacity="0.3"/>
<rect x="517.8" y="324.1324620275521" width="7.199999999999999" height="20.867537972447906" fill="#ff4444" opacity="0.3"/>
<rect x="529.8" y="316.91333729944785" width="7.199999999999999" height="28.086662700552154" fill="#44aa44" opacity="0.3"/>
<rect x="541.8" y="322.78954804885757" width="7.199999999999999" height="22.21045195114243" fill="#44aa44" opacity="0.3"/>
<rect x="553.8" y="333.7960549554742" width="7.199999999999999" height="11.203945044525824" fill="#ff4444" opacity="0.3"/>
<rect x="565.8" y="322.13306624030935" width="7.199999999999999" height="22.866933759690653" fill="#44aa44" opacity="0.3"/>
<rect x="577.8" y="327.8674729033817" width="7.199999999999999" height="17.132527096618276" fill="#ff4444" opacity="0.3"/>
<rect x="589.8" y="322.1356597073751" width="7.199999999999999" height="22.864340292624888" fill="#44aa44" opacity="0.3"/>
<rect x="601.8" y="315.6266429939207" width="7.199999999999999" height="29.37335700607929" fill="#44aa44" opacity="0.3"/>
<rect x="613.8" y="315.72762088902937" width="7.199999999999999" height="29.272379110970633" fill="#ff4444" opacity="0.3"/>
<rect x="625.8" y="316.4445890423693" width="7.199999999999999" height="28.555410957630727" fill="#ff4444" opacity="0.3"/>
<rect x="637.8" y="323.48033055085614" width="7.199999999999999" height="21.519669449143862" fill="#ff4444" opacity="0.3"/>
<rect x="649.8" y="313.50066928182343" width="7.199999999999999" height="31.499330718176566" fill="#44aa44" opacity="0.3"/>
<rect x="661.8" y="319.62451430589897" width="7.199999999999999" height="25.37548569410103" fill="#ff4444" opacity="0.3"/>
<rect x="673.8" y="317.41580062838125" width="7.199999999999999" height="27.58419937161875" fill="#44aa44" opacity="0.3"/>
<rect x="685.8" y="343.01424082990945" width="7.199999999999999" height="1.985759170090546" fill="#ff4444" opacity="0.3"/>
<rect x="697.8" y="343.96821840896837" width="7.199999999999999" height="1.0317815910316313" fill="#ff4444" opacity="0.3"/>
<rect x="709.8" y="307.9247987506739" width="7.199999999999999" height="37.075201249326085" fill="#ff4444" opacity="0.3"/>
<rect x="721.8" y="316.7681868039934" width="7.199999999999999" height="28.231813196006613" fill="#ff4444" opacity="0.3"/>
<rect x="733.8" y="314.57394634590713" width="7.199999999999999" height="30.42605365409287" fill="#44aa44" opacity="0.3"/>
<rect x="745.8" y="319.57691163620814" width="7.199999999999999" height="25.423088363791862" fill="#44aa44" opacity="0.3"/>
<rect x="757.8" y="322.4709699009091" width="7.199999999999999" height="22.529030099090903" fill="#ff4444" opacity="0.3"/>
<rect x="769.8" y="327.5601052259756" width="7.199999999999999" height="17.439894774024424" fill="#ff4444" opacity="0.3"/>
<polyline points="66.0,267.05 78.0,263.37 90.0,264.17 102.0,269.41 114.0,273.78 126.0,271.22 138.0,268.73 150.0,269.81 162.0,268.95 174.0,262.40 186.0,260.25 198.0,260.15 210.0,257.83 222.0,262.73 234.0,264.67 246.0,267.63 258.0,271.35 270.0,274.41 282.0,276.75 294.0,277.78 306.0,279.75 318.0,281.68 330.0,284.89 342.0,289.11 354.0,289.84 366.0,292.21 378.0,292.00 390.0,293.63 402.0,290.55 414.0,283.08 426.0,272.15 438.0,263.56 450.0,256.29 462.0,244.61 474.0,239.00 486.0,227.96 498.0,212.57 510.0,201.83 522.0,185.79 534.0,180.95 546.0,181.07 558.0,172.30 570.0,167.56 582.0,154.78 594.0,146.85 606.0,145.44 618.0,141.76 630.0,133.02 642.0,116.14 654.0,102.27 666.0,83.40 678.0,78.07 690.0,87.16 702.0,104.59 714.0,111.30 726.0,105.11 738.0,96.03 750.0,91.53 762.0,83.64 774.0,65.76" fill="none" stroke="#ffd700" stroke-width="0.8" opacity="0.7"/>
<polyline points="66.0,267.05 78.0,265.04 90.0,265.18 102.0,267.85 114.0,270.52 126.0,269.71 138.0,268.63 150.0,269.24 162.0,268.87 174.0,265.31 186.0,263.61 198.0,262.94 210.0,261.17 222.0,263.23 234.0,264.20 246.0,265.90 258.0,268.24 270.0,270.48 282.0,272.47 294.0,273.81 306.0,275.61 318.0,277.41 330.0,279.94 342.0,283.14 354.0,284.62 366.0,286.86 378.0,287.72 390.0,289.39 402.0,288.48 414.0,284.78 426.0,278.51 438.0,272.67 450.0,267.05 462.0,258.72 474.0,253.09 486.0,244.51 498.0,233.11 510.0,223.51 522.0,210.82 534.0,203.63 546.0,199.57 558.0,191.42 570.0,185.36 582.0,175.15 594.0,167.13 606.0,162.67 618.0,157.53 630.0,149.89 642.0,137.62 654.0,126.15 666.0,111.51 678.0,103.49 690.0,103.83 702.0,110.31 714.0,112.93 726.0,109.25 738.0,103.55 750.0,99.73 762.0,93.93 774.0,82.31" fill="none" stroke="#ff6b6b" stroke-width="0.8" opacity="0.7"/>
<polyline points="66.0,267.05 78.0,266.00 90.0,265.98 102.0,267.30 114.0,268.75 126.0,268.50 138.0,268.05 150.0,268.42 162.0,268.31 174.0,266.50 186.0,265.49 198.0,264.96 210.0,263.84 222.0,264.67 234.0,265.04 246.0,265.85 258.0,267.08 270.0,268.36 282.0,269.61 294.0,270.58 306.0,271.83 318.0,273.13 330.0,274.87 342.0,277.02 354.0,278.39 366.0,280.15 378.0,281.24 390.0,282.73 402.0,282.89 414.0,281.49 426.0,278.52 438.0,275.46 450.0,272.24 462.0,267.39 474.0,263.61 486.0,258.12 498.0,250.85 510.0,244.13 522.0,235.52 534.0,229.40 546.0,224.82 558.0,218.15 570.0,212.43 582.0,204.50 594.0,197.50 606.0,192.27 618.0,186.76 630.0,179.98 642.0,170.69 654.0,161.53 666.0,150.49 678.0,142.58 690.0,139.03 702.0,139.07 714.0,137.71 726.0,133.42 738.0,128.13 750.0,123.79 762.0,118.46 774.0,110.04" fill="none" stroke="#4ecdc4" stroke-width="0.8" opacity="0.7"/>
<line x1="66.0" y1="262.3128792987188" x2="66.0" y2="276.78691840863115" stroke="#ff4444" stroke-width="0.5" opacity="0.6"/>
<rect x="63.0" y="267.0465273095077" width="6.0" height="4.369521240728318" fill="#ff4444" opacity="0.85"/>
<line x1="78.0" y1="253.66486850977748" x2="78.0" y2="271.3705327039784" stroke="#ff4444" stroke-width="0.5" opacity="0.6"/>
<rect x="75.0" y="256.0316925151719" width="6.0" height="13.56372218476065" fill="#ff4444" opacity="0.85"/>
<line x1="90.0" y1="257.5792312879299" x2="90.0" y2="266.363789615644" stroke="#44aa44" stroke-width="0.5" opacity="0.6"/>
<rect x="87.0" y="261.49359406608227" width="6.0" height="4.278489548213031" fill="#44aa44" opacity="0.85"/>
<line x1="102.0" y1="263.0411328388402" x2="102.0" y2="280.06405933917733" stroke="#44aa44" stroke-width="0.5" opacity="0.6"/>
<rect x="99.0" y="265.7720836142953" width="6.0" height="14.10991233985169" fill="#44aa44" opacity="0.85"/>
<line x1="114.0" y1="277.242076871207" x2="114.0" y2="283.61429534726904" stroke="#ff4444" stroke-width="0.5" opacity="0.6"/>
<rect x="111.0" y="282.52191503708696" width="6.0" height="0.8192852326366165" fill="#ff4444" opacity="0.85"/>
<line x1="126.0" y1="266.09069453809843" x2="126.0" y2="274.3290627107215" stroke="#ff4444" stroke-width="0.5" opacity="0.6"/>
<rect x="123.0" y="266.09069453809843" width="6.0" height="8.23836817262304" fill="#ff4444" opacity="0.85"/>
<line x1="138.0" y1="258.89919082939986" x2="138.0" y2="271.5525960890087" stroke="#ff4444" stroke-width="0.5" opacity="0.6"/>
<rect x="135.0" y="263.7693863789616" width="6.0" height="2.2757923128792754" fill="#ff4444" opacity="0.85"/>
<line x1="150.0" y1="270.64227916385704" x2="150.0" y2="280.428186109238" stroke="#ff4444" stroke-width="0.5" opacity="0.6"/>
<rect x="147.0" y="271.962238705327" width="6.0" height="0.9103169251517897" fill="#ff4444" opacity="0.85"/>
<line x1="162.0" y1="262.4949426837492" x2="162.0" y2="271.8256911665543" stroke="#ff4444" stroke-width="0.5" opacity="0.6"/>
<rect x="159.0" y="267.22859069453807" width="6.0" height="1.2289278489548678" fill="#ff4444" opacity="0.85"/>
<line x1="174.0" y1="249.29534726904922" x2="174.0" y2="266.4548213081591" stroke="#ff4444" stroke-width="0.5" opacity="0.6"/>
<rect x="171.0" y="249.29534726904922" width="6.0" height="17.15947403910991" fill="#ff4444" opacity="0.85"/>
<line x1="186.0" y1="247.56574511126095" x2="186.0" y2="256.48685097774785" stroke="#44aa44" stroke-width="0.5" opacity="0.6"/>
<rect x="183.0" y="250.93391773432234" width="6.0" height="5.006743088334474" fill="#44aa44" opacity="0.85"/>
<line x1="198.0" y1="253.07316250842885" x2="198.0" y2="260.6743088334457" stroke="#44aa44" stroke-width="0.5" opacity="0.6"/>
<rect x="195.0" y="255.98617666891437" width="6.0" height="3.959878624409953" fill="#44aa44" opacity="0.85"/>
<line x1="210.0" y1="249.61395819285232" x2="210.0" y2="255.62204989885367" stroke="#ff4444" stroke-width="0.5" opacity="0.6"/>
<rect x="207.0" y="253.2097100472016" width="6.0" height="1.5020229265003593" fill="#ff4444" opacity="0.85"/>
<line x1="222.0" y1="241.46662171274446" x2="222.0" y2="272.5539447066757" stroke="#44aa44" stroke-width="0.5" opacity="0.6"/>
<rect x="219.0" y="241.46662171274446" width="6.0" height="31.041807147673666" fill="#44aa44" opacity="0.85"/>
<line x1="234.0" y1="266.40930546190157" x2="234.0" y2="273.2366824005394" stroke="#ff4444" stroke-width="0.5" opacity="0.6"/>
<rect x="231.0" y="268.54855023600805" width="6.0" height="4.688132164531339" fill="#ff4444" opacity="0.85"/>
<line x1="246.0" y1="268.229939312205" x2="246.0" y2="276.8779501011463" stroke="#ff4444" stroke-width="0.5" opacity="0.6"/>
<rect x="243.0" y="273.55529332434253" width="6.0" height="1.0468644639245213" fill="#ff4444" opacity="0.85"/>
<line x1="258.0" y1="266.86446392447743" x2="258.0" y2="278.7896156439649" stroke="#44aa44" stroke-width="0.5" opacity="0.6"/>
<rect x="255.0" y="270.4602157788267" width="6.0" height="8.329399865138214" fill="#44aa44" opacity="0.85"/>
<line x1="270.0" y1="273.9194200944032" x2="270.0" y2="286.84592043155766" stroke="#ff4444" stroke-width="0.5" opacity="0.6"/>
<rect x="267.0" y="280.5192178017532" width="6.0" height="4.551584625758608" fill="#ff4444" opacity="0.85"/>
<line x1="282.0" y1="278.3344571813891" x2="282.0" y2="287.3921105866487" stroke="#44aa44" stroke-width="0.5" opacity="0.6"/>
<rect x="279.0" y="278.9261631827377" width="6.0" height="2.503371544167237" fill="#44aa44" opacity="0.85"/>
<line x1="294.0" y1="275.2848954821308" x2="294.0" y2="280.97437626432907" stroke="#44aa44" stroke-width="0.5" opacity="0.6"/>
<rect x="291.0" y="278.88064733648014" width="6.0" height="0.9558327714092911" fill="#44aa44" opacity="0.85"/>
<line x1="306.0" y1="276.0586648685098" x2="306.0" y2="284.8432231962239" stroke="#44aa44" stroke-width="0.5" opacity="0.6"/>
<rect x="303.0" y="281.3840188806473" width="6.0" height="2.3213081591368905" fill="#44aa44" opacity="0.85"/>
<line x1="318.0" y1="280.7923128792987" x2="318.0" y2="288.7120701281187" stroke="#ff4444" stroke-width="0.5" opacity="0.6"/>
<rect x="315.0" y="285.5259608900877" width="6.0" height="1.274443695212426" fill="#ff4444" opacity="0.85"/>
<line x1="330.0" y1="287.3465947403911" x2="330.0" y2="296.22218476062034" stroke="#44aa44" stroke-width="0.5" opacity="0.6"/>
<rect x="327.0" y="287.3465947403911" width="6.0" height="3.9598786244100097" fill="#44aa44" opacity="0.85"/>
<line x1="342.0" y1="290.0775455158463" x2="342.0" y2="297.906271072151" stroke="#44aa44" stroke-width="0.5" opacity="0.6"/>
<rect x="339.0" y="291.4885367498314" width="6.0" height="6.053607552258995" fill="#44aa44" opacity="0.85"/>
<line x1="354.0" y1="290.12306136210384" x2="354.0" y2="294.173971679029" stroke="#ff4444" stroke-width="0.5" opacity="0.6"/>
<rect x="351.0" y="291.3064733648011" width="6.0" height="2.8674983142279302" fill="#ff4444" opacity="0.85"/>
<line x1="366.0" y1="291.8071476736345" x2="366.0" y2="298.1793661496966" stroke="#44aa44" stroke-width="0.5" opacity="0.6"/>
<rect x="363.0" y="291.8071476736345" width="6.0" height="5.143290627107206" fill="#44aa44" opacity="0.85"/>
<line x1="378.0" y1="290.8968307484828" x2="378.0" y2="298.2703978422117" stroke="#ff4444" stroke-width="0.5" opacity="0.6"/>
<rect x="375.0" y="291.5795684423466" width="6.0" height="4.870195549561686" fill="#ff4444" opacity="0.85"/>
<line x1="390.0" y1="294.0829399865138" x2="390.0" y2="300.0" stroke="#44aa44" stroke-width="0.5" opacity="0.6"/>
<rect x="387.0" y="296.4497639919083" width="6.0" height="0.5" fill="#44aa44" opacity="0.85"/>
<line x1="402.0" y1="281.93020903573836" x2="402.0" y2="293.67329737019554" stroke="#ff4444" stroke-width="0.5" opacity="0.6"/>
<rect x="399.0" y="284.388064733648" width="6.0" height="7.965273095077578" fill="#ff4444" opacity="0.85"/>
<line x1="414.0" y1="268.1389076196898" x2="414.0" y2="282.38536749831417" stroke="#ff4444" stroke-width="0.5" opacity="0.6"/>
<rect x="411.0" y="268.1389076196898" width="6.0" height="13.654753877275766" fill="#ff4444" opacity="0.85"/>
<line x1="426.0" y1="250.2966958867161" x2="426.0" y2="266.0451786918409" stroke="#ff4444" stroke-width="0.5" opacity="0.6"/>
<rect x="423.0" y="250.2966958867161" width="6.0" height="12.016183412002732" fill="#ff4444" opacity="0.85"/>
<line x1="438.0" y1="240.0101146325017" x2="438.0" y2="256.12272420768716" stroke="#ff4444" stroke-width="0.5" opacity="0.6"/>
<rect x="435.0" y="246.3823331085637" width="6.0" height="9.740391099123457" fill="#ff4444" opacity="0.85"/>
<line x1="450.0" y1="237.27916385704654" x2="450.0" y2="246.8374915711396" stroke="#ff4444" stroke-width="0.5" opacity="0.6"/>
<rect x="447.0" y="241.73971679028995" width="6.0" height="3.095077545515835" fill="#ff4444" opacity="0.85"/>
<line x1="462.0" y1="221.25758597437627" x2="462.0" y2="243.65138233310856" stroke="#ff4444" stroke-width="0.5" opacity="0.6"/>
<rect x="459.0" y="221.25758597437627" width="6.0" height="22.120701281186797" fill="#ff4444" opacity="0.85"/>
<line x1="474.0" y1="223.62440997977075" x2="474.0" y2="237.00606877950102" stroke="#44aa44" stroke-width="0.5" opacity="0.6"/>
<rect x="471.0" y="223.62440997977075" width="6.0" height="4.141942009440299" fill="#44aa44" opacity="0.85"/>
<line x1="486.0" y1="205.8732299393122" x2="486.0" y2="228.17599460552935" stroke="#ff4444" stroke-width="0.5" opacity="0.6"/>
<rect x="483.0" y="205.8732299393122" width="6.0" height="22.302764666217143" fill="#ff4444" opacity="0.85"/>
<line x1="498.0" y1="181.79534726904924" x2="498.0" y2="190.85300067430884" stroke="#ff4444" stroke-width="0.5" opacity="0.6"/>
<rect x="495.0" y="181.79534726904924" width="6.0" height="7.2370195549561345" fill="#ff4444" opacity="0.85"/>
<line x1="510.0" y1="160.2208361429535" x2="510.0" y2="191.76331759946058" stroke="#44aa44" stroke-width="0.5" opacity="0.6"/>
<rect x="507.0" y="173.55697909642618" width="6.0" height="6.781861092380296" fill="#44aa44" opacity="0.85"/>
<line x1="522.0" y1="153.71207012811868" x2="522.0" y2="181.34018880647338" stroke="#ff4444" stroke-width="0.5" opacity="0.6"/>
<rect x="519.0" y="153.71207012811868" width="6.0" height="27.628118678354696" fill="#ff4444" opacity="0.85"/>
<line x1="534.0" y1="146.2474713418746" x2="534.0" y2="173.55697909642618" stroke="#44aa44" stroke-width="0.5" opacity="0.6"/>
<rect x="531.0" y="166.72960215778826" width="6.0" height="4.551584625758608" fill="#44aa44" opacity="0.85"/>
<line x1="546.0" y1="164.0441672285907" x2="546.0" y2="185.48213081591368" stroke="#44aa44" stroke-width="0.5" opacity="0.6"/>
<rect x="543.0" y="171.8273769386379" width="6.0" height="9.467296021577909" fill="#44aa44" opacity="0.85"/>
<line x1="558.0" y1="154.7589345920432" x2="558.0" y2="173.28388401888066" stroke="#ff4444" stroke-width="0.5" opacity="0.6"/>
<rect x="555.0" y="154.7589345920432" width="6.0" height="16.20364126770056" fill="#ff4444" opacity="0.85"/>
<line x1="570.0" y1="142.15104517869185" x2="570.0" y2="160.7215104517869" stroke="#44aa44" stroke-width="0.5" opacity="0.6"/>
<rect x="567.0" y="142.15104517869185" width="6.0" height="15.930546190155098" fill="#44aa44" opacity="0.85"/>
<line x1="582.0" y1="129.22454484153747" x2="582.0" y2="153.48449089683078" stroke="#ff4444" stroke-width="0.5" opacity="0.6"/>
<rect x="579.0" y="129.22454484153747" width="6.0" height="24.259946055293312" fill="#ff4444" opacity="0.85"/>
<line x1="594.0" y1="115.52427511800406" x2="594.0" y2="143.9716790289953" stroke="#44aa44" stroke-width="0.5" opacity="0.6"/>
<rect x="591.0" y="119.71173297370197" width="6.0" height="11.287929871881346" fill="#44aa44" opacity="0.85"/>
<line x1="606.0" y1="118.93796358732301" x2="606.0" y2="149.16048550236007" stroke="#44aa44" stroke-width="0.5" opacity="0.6"/>
<rect x="603.0" y="118.93796358732301" width="6.0" height="23.6682400539447" fill="#44aa44" opacity="0.85"/>
<line x1="618.0" y1="127.54045853000677" x2="618.0" y2="152.2555630478759" stroke="#ff4444" stroke-width="0.5" opacity="0.6"/>
<rect x="615.0" y="134.41335131490226" width="6.0" height="0.5" fill="#ff4444" opacity="0.85"/>
<line x1="630.0" y1="109.83479433580582" x2="630.0" y2="150.7990559676332" stroke="#ff4444" stroke-width="0.5" opacity="0.6"/>
<rect x="627.0" y="115.52427511800406" width="6.0" height="29.35772083614296" fill="#ff4444" opacity="0.85"/>
<line x1="642.0" y1="82.38873904248148" x2="642.0" y2="111.33681726230616" stroke="#ff4444" stroke-width="0.5" opacity="0.6"/>
<rect x="639.0" y="82.38873904248148" width="6.0" height="27.081928523263656" fill="#ff4444" opacity="0.85"/>
<line x1="654.0" y1="55.07923128792989" x2="654.0" y2="91.62845583277144" stroke="#44aa44" stroke-width="0.5" opacity="0.6"/>
<rect x="651.0" y="72.60283209710047" width="6.0" height="1.9116655428186107" fill="#44aa44" opacity="0.85"/>
<line x1="666.0" y1="42.10721510451792" x2="666.0" y2="87.16790289952799" stroke="#ff4444" stroke-width="0.5" opacity="0.6"/>
<rect x="663.0" y="45.65745111260963" width="6.0" height="41.51045178691836" fill="#ff4444" opacity="0.85"/>
<line x1="678.0" y1="42.10721510451792" x2="678.0" y2="77.56405933917735" stroke="#44aa44" stroke-width="0.5" opacity="0.6"/>
<rect x="675.0" y="44.747134187457895" width="6.0" height="22.66689143627783" fill="#44aa44" opacity="0.85"/>
<line x1="690.0" y1="105.32872555630483" x2="690.0" y2="105.32872555630483" stroke="#ff4444" stroke-width="0.5" opacity="0.6"/>
<rect x="687.0" y="105.32872555630483" width="6.0" height="0.5" fill="#ff4444" opacity="0.85"/>
<line x1="702.0" y1="139.46561024949432" x2="702.0" y2="139.46561024949432" stroke="#ff4444" stroke-width="0.5" opacity="0.6"/>
<rect x="699.0" y="139.46561024949432" width="6.0" height="0.5" fill="#ff4444" opacity="0.85"/>
<line x1="714.0" y1="109.83479433580582" x2="714.0" y2="167.23027646662172" stroke="#ff4444" stroke-width="0.5" opacity="0.6"/>
<rect x="711.0" y="124.7184760620364" width="6.0" height="42.511800404585316" fill="#ff4444" opacity="0.85"/>
<line x1="726.0" y1="92.53877275792317" x2="726.0" y2="140.83108563722186" stroke="#ff4444" stroke-width="0.5" opacity="0.6"/>
<rect x="723.0" y="92.72083614295347" width="6.0" height="44.46898179366151" fill="#ff4444" opacity="0.85"/>
<line x1="738.0" y1="57.30950775455158" x2="738.0" y2="83.07147673634529" stroke="#44aa44" stroke-width="0.5" opacity="0.6"/>
<rect x="735.0" y="68.7795010114633" width="6.0" height="9.103169251517201" fill="#44aa44" opacity="0.85"/>
<line x1="750.0" y1="59.99494268374917" x2="750.0" y2="102.55225893459207" stroke="#44aa44" stroke-width="0.5" opacity="0.6"/>
<rect x="747.0" y="77.97370195549564" width="6.0" height="4.5515846257585935" fill="#44aa44" opacity="0.85"/>
<line x1="762.0" y1="50.254551584625766" x2="762.0" y2="82.57080242751184" stroke="#ff4444" stroke-width="0.5" opacity="0.6"/>
<rect x="759.0" y="67.86918408631155" width="6.0" height="14.656102494942687" fill="#ff4444" opacity="0.85"/>
<line x1="774.0" y1="30.0" x2="774.0" y2="64.63755900202293" stroke="#ff4444" stroke-width="0.5" opacity="0.6"/>
<rect x="771.0" y="30.0" width="6.0" height="26.17161159811193" fill="#ff4444" opacity="0.85"/>
<rect x="170.0" y="245.29534726904922" width="8" height="8" fill="#ff9800" opacity="0.85" rx="1"/>
<text x="174.0" y="243.29534726904922" text-anchor="middle" font-family="sans-serif" font-size="8" fill="#ff9800">前高</text>
<rect x="182.0" y="243.56574511126095" width="8" height="8" fill="#ff9800" opacity="0.85" rx="1"/>
<text x="186.0" y="241.56574511126095" text-anchor="middle" font-family="sans-serif" font-size="8" fill="#ff9800">前高</text>
<rect x="218.0" y="237.46662171274446" width="8" height="8" fill="#ff9800" opacity="0.85" rx="1"/>
<text x="222.0" y="235.46662171274446" text-anchor="middle" font-family="sans-serif" font-size="8" fill="#ff9800">前高</text>
<rect x="266.0" y="282.84592043155766" width="8" height="8" fill="#4caf50" opacity="0.85" rx="1"/>
<text x="270.0" y="280.84592043155766" text-anchor="middle" font-family="sans-serif" font-size="8" fill="#4caf50">前低</text>
<rect x="278.0" y="283.3921105866487" width="8" height="8" fill="#4caf50" opacity="0.85" rx="1"/>
<text x="282.0" y="281.3921105866487" text-anchor="middle" font-family="sans-serif" font-size="8" fill="#4caf50">前低</text>
<rect x="314.0" y="284.7120701281187" width="8" height="8" fill="#4caf50" opacity="0.85" rx="1"/>
<text x="318.0" y="282.7120701281187" text-anchor="middle" font-family="sans-serif" font-size="8" fill="#4caf50">前低</text>
<rect x="326.0" y="292.22218476062034" width="8" height="8" fill="#4caf50" opacity="0.85" rx="1"/>
<text x="330.0" y="290.22218476062034" text-anchor="middle" font-family="sans-serif" font-size="8" fill="#4caf50">前低</text>
<rect x="338.0" y="293.906271072151" width="8" height="8" fill="#4caf50" opacity="0.85" rx="1"/>
<text x="342.0" y="291.906271072151" text-anchor="middle" font-family="sans-serif" font-size="8" fill="#4caf50">前低</text>
<rect x="362.0" y="294.1793661496966" width="8" height="8" fill="#4caf50" opacity="0.85" rx="1"/>
<text x="366.0" y="292.1793661496966" text-anchor="middle" font-family="sans-serif" font-size="8" fill="#4caf50">前低</text>
<rect x="374.0" y="294.2703978422117" width="8" height="8" fill="#4caf50" opacity="0.85" rx="1"/>
<text x="378.0" y="292.2703978422117" text-anchor="middle" font-family="sans-serif" font-size="8" fill="#4caf50">前低</text>
<rect x="386.0" y="296.0" width="8" height="8" fill="#4caf50" opacity="0.85" rx="1"/>
<text x="390.0" y="294.0" text-anchor="middle" font-family="sans-serif" font-size="8" fill="#4caf50">前低</text>
<rect x="410.0" y="264.1389076196898" width="8" height="8" fill="#ff9800" opacity="0.85" rx="1"/>
<text x="414.0" y="262.1389076196898" text-anchor="middle" font-family="sans-serif" font-size="8" fill="#ff9800">前高</text>
<rect x="410.0" y="257.0156776803776" width="8" height="8" fill="#ff9800" opacity="0.85" rx="1"/>
<text x="414.0" y="255.01567768037762" text-anchor="middle" font-family="sans-serif" font-size="8" fill="#ff9800">量</text>
<rect x="410.0" y="264.1389076196898" width="8" height="8" fill="#2196f3" opacity="0.85" rx="1"/>
<text x="414.0" y="262.1389076196898" text-anchor="middle" font-family="sans-serif" font-size="8" fill="#2196f3">突</text>
<rect x="422.0" y="246.2966958867161" width="8" height="8" fill="#ff9800" opacity="0.85" rx="1"/>
<text x="426.0" y="244.2966958867161" text-anchor="middle" font-family="sans-serif" font-size="8" fill="#ff9800">前高</text>
<rect x="422.0" y="246.2966958867161" width="8" height="8" fill="#2196f3" opacity="0.85" rx="1"/>
<text x="426.0" y="244.2966958867161" text-anchor="middle" font-family="sans-serif" font-size="8" fill="#2196f3">突</text>
<rect x="434.0" y="236.0101146325017" width="8" height="8" fill="#ff9800" opacity="0.85" rx="1"/>
<text x="438.0" y="234.0101146325017" text-anchor="middle" font-family="sans-serif" font-size="8" fill="#ff9800">前高</text>
<rect x="446.0" y="233.27916385704654" width="8" height="8" fill="#ff9800" opacity="0.85" rx="1"/>
<text x="450.0" y="231.27916385704654" text-anchor="middle" font-family="sans-serif" font-size="8" fill="#ff9800">前高</text>
<rect x="458.0" y="217.25758597437627" width="8" height="8" fill="#ff9800" opacity="0.85" rx="1"/>
<text x="462.0" y="215.25758597437627" text-anchor="middle" font-family="sans-serif" font-size="8" fill="#ff9800">前高</text>
<rect x="458.0" y="217.25758597437627" width="8" height="8" fill="#2196f3" opacity="0.85" rx="1"/>
<text x="462.0" y="215.25758597437627" text-anchor="middle" font-family="sans-serif" font-size="8" fill="#2196f3">突</text>
<rect x="482.0" y="201.8732299393122" width="8" height="8" fill="#ff9800" opacity="0.85" rx="1"/>
<text x="486.0" y="199.8732299393122" text-anchor="middle" font-family="sans-serif" font-size="8" fill="#ff9800">前高</text>
<rect x="482.0" y="201.8732299393122" width="8" height="8" fill="#2196f3" opacity="0.85" rx="1"/>
<text x="486.0" y="199.8732299393122" text-anchor="middle" font-family="sans-serif" font-size="8" fill="#2196f3">突</text>
<rect x="494.0" y="177.79534726904924" width="8" height="8" fill="#ff9800" opacity="0.85" rx="1"/>
<text x="498.0" y="175.79534726904924" text-anchor="middle" font-family="sans-serif" font-size="8" fill="#ff9800">前高</text>
<rect x="494.0" y="177.79534726904924" width="8" height="8" fill="#2196f3" opacity="0.85" rx="1"/>
<text x="498.0" y="175.79534726904924" text-anchor="middle" font-family="sans-serif" font-size="8" fill="#2196f3">突</text>
<rect x="506.0" y="156.2208361429535" width="8" height="8" fill="#ff9800" opacity="0.85" rx="1"/>
<text x="510.0" y="154.2208361429535" text-anchor="middle" font-family="sans-serif" font-size="8" fill="#ff9800">前高</text>
<rect x="506.0" y="140.44959541469996" width="8" height="8" fill="#ff9800" opacity="0.85" rx="1"/>
<text x="510.0" y="138.44959541469996" text-anchor="middle" font-family="sans-serif" font-size="8" fill="#ff9800">量</text>
<rect x="518.0" y="149.71207012811868" width="8" height="8" fill="#ff9800" opacity="0.85" rx="1"/>
<text x="522.0" y="147.71207012811868" text-anchor="middle" font-family="sans-serif" font-size="8" fill="#ff9800">前高</text>
<rect x="518.0" y="149.71207012811868" width="8" height="8" fill="#2196f3" opacity="0.85" rx="1"/>
<text x="522.0" y="147.71207012811868" text-anchor="middle" font-family="sans-serif" font-size="8" fill="#2196f3">突</text>
<rect x="530.0" y="142.2474713418746" width="8" height="8" fill="#ff9800" opacity="0.85" rx="1"/>
<text x="534.0" y="140.2474713418746" text-anchor="middle" font-family="sans-serif" font-size="8" fill="#ff9800">前高</text>
<rect x="566.0" y="138.15104517869185" width="8" height="8" fill="#ff9800" opacity="0.85" rx="1"/>
<text x="570.0" y="136.15104517869185" text-anchor="middle" font-family="sans-serif" font-size="8" fill="#ff9800">前高</text>
<rect x="578.0" y="125.22454484153747" width="8" height="8" fill="#ff9800" opacity="0.85" rx="1"/>
<text x="582.0" y="123.22454484153747" text-anchor="middle" font-family="sans-serif" font-size="8" fill="#ff9800">前高</text>
<rect x="578.0" y="125.22454484153747" width="8" height="8" fill="#2196f3" opacity="0.85" rx="1"/>
<text x="582.0" y="123.22454484153747" text-anchor="middle" font-family="sans-serif" font-size="8" fill="#2196f3">突</text>
<rect x="590.0" y="111.52427511800406" width="8" height="8" fill="#ff9800" opacity="0.85" rx="1"/>
<text x="594.0" y="109.52427511800406" text-anchor="middle" font-family="sans-serif" font-size="8" fill="#ff9800">前高</text>
<rect x="626.0" y="105.83479433580582" width="8" height="8" fill="#ff9800" opacity="0.85" rx="1"/>
<text x="630.0" y="103.83479433580582" text-anchor="middle" font-family="sans-serif" font-size="8" fill="#ff9800">前高</text>
<rect x="638.0" y="78.38873904248148" width="8" height="8" fill="#ff9800" opacity="0.85" rx="1"/>
<text x="642.0" y="76.38873904248148" text-anchor="middle" font-family="sans-serif" font-size="8" fill="#ff9800">前高</text>
<rect x="638.0" y="78.38873904248148" width="8" height="8" fill="#2196f3" opacity="0.85" rx="1"/>
<text x="642.0" y="76.38873904248148" text-anchor="middle" font-family="sans-serif" font-size="8" fill="#2196f3">突</text>
<rect x="650.0" y="51.07923128792989" width="8" height="8" fill="#ff9800" opacity="0.85" rx="1"/>
<text x="654.0" y="49.07923128792989" text-anchor="middle" font-family="sans-serif" font-size="8" fill="#ff9800">前高</text>
<rect x="662.0" y="38.10721510451792" width="8" height="8" fill="#ff9800" opacity="0.85" rx="1"/>
<text x="666.0" y="36.10721510451792" text-anchor="middle" font-family="sans-serif" font-size="8" fill="#ff9800">前高</text>
<rect x="662.0" y="38.10721510451792" width="8" height="8" fill="#2196f3" opacity="0.85" rx="1"/>
<text x="666.0" y="36.10721510451792" text-anchor="middle" font-family="sans-serif" font-size="8" fill="#2196f3">突</text>
<rect x="674.0" y="38.10721510451792" width="8" height="8" fill="#ff9800" opacity="0.85" rx="1"/>
<text x="678.0" y="36.10721510451792" text-anchor="middle" font-family="sans-serif" font-size="8" fill="#ff9800">前高</text>
<rect x="686.0" y="101.32872555630483" width="8" height="8" fill="#ff9800" opacity="0.85" rx="1"/>
<text x="690.0" y="99.32872555630483" text-anchor="middle" font-family="sans-serif" font-size="8" fill="#ff9800">量</text>
<rect x="710.0" y="163.23027646662172" width="8" height="8" fill="#4caf50" opacity="0.85" rx="1"/>
<text x="714.0" y="161.23027646662172" text-anchor="middle" font-family="sans-serif" font-size="8" fill="#4caf50">前低</text>
<rect x="770.0" y="26.0" width="8" height="8" fill="#ff9800" opacity="0.85" rx="1"/>
<text x="774.0" y="24.0" text-anchor="middle" font-family="sans-serif" font-size="8" fill="#ff9800">前高</text>
<rect x="770.0" y="26.0" width="8" height="8" fill="#2196f3" opacity="0.85" rx="1"/>
<text x="774.0" y="24.0" text-anchor="middle" font-family="sans-serif" font-size="8" fill="#2196f3">突</text>
<text x="66.0" y="359" text-anchor="middle" font-family="sans-serif" font-size="8" fill="#666666" transform="rotate(-40,66.0,359)">02/26</text>
<text x="138.0" y="359" text-anchor="middle" font-family="sans-serif" font-size="8" fill="#666666" transform="rotate(-40,138.0,359)">03/06</text>
<text x="210.0" y="359" text-anchor="middle" font-family="sans-serif" font-size="8" fill="#666666" transform="rotate(-40,210.0,359)">03/16</text>
<text x="282.0" y="359" text-anchor="middle" font-family="sans-serif" font-size="8" fill="#666666" transform="rotate(-40,282.0,359)">03/24</text>
<text x="354.0" y="359" text-anchor="middle" font-family="sans-serif" font-size="8" fill="#666666" transform="rotate(-40,354.0,359)">04/01</text>
<text x="426.0" y="359" text-anchor="middle" font-family="sans-serif" font-size="8" fill="#666666" transform="rotate(-40,426.0,359)">04/10</text>
<text x="498.0" y="359" text-anchor="middle" font-family="sans-serif" font-size="8" fill="#666666" transform="rotate(-40,498.0,359)">04/20</text>
<text x="570.0" y="359" text-anchor="middle" font-family="sans-serif" font-size="8" fill="#666666" transform="rotate(-40,570.0,359)">04/28</text>
<text x="642.0" y="359" text-anchor="middle" font-family="sans-serif" font-size="8" fill="#666666" transform="rotate(-40,642.0,359)">05/11</text>
<text x="714.0" y="359" text-anchor="middle" font-family="sans-serif" font-size="8" fill="#666666" transform="rotate(-40,714.0,359)">05/19</text>
<text x="774.0" y="359" text-anchor="middle" font-family="sans-serif" font-size="8" fill="#666666" transform="rotate(-40,774.0,359)">05/26</text>
<text x="400.0" y="396" text-anchor="middle" font-family="sans-serif" font-size="9" fill="#555555">数据截至: 2026-05-26 21:29  |  最新K线: 20260526</text>
<rect x="50" y="373" width="8" height="8" fill="#ffd700" opacity="0.8" rx="1"/>
<text x="61" y="380" font-family="sans-serif" font-size="9" fill="#888888">EMA5</text>
<rect x="150" y="373" width="8" height="8" fill="#ff6b6b" opacity="0.8" rx="1"/>
<text x="161" y="380" font-family="sans-serif" font-size="9" fill="#888888">EMA10</text>
<rect x="250" y="373" width="8" height="8" fill="#4ecdc4" opacity="0.8" rx="1"/>
<text x="261" y="380" font-family="sans-serif" font-size="9" fill="#888888">EMA20</text>
<rect x="350" y="373" width="8" height="8" fill="#2196f3" opacity="0.8" rx="1"/>
<text x="361" y="380" font-family="sans-serif" font-size="9" fill="#888888">突破</text>
<rect x="450" y="373" width="8" height="8" fill="#ff9800" opacity="0.8" rx="1"/>
<text x="461" y="380" font-family="sans-serif" font-size="9" fill="#888888">前高/量</text>
<rect x="550" y="373" width="8" height="8" fill="#4caf50" opacity="0.8" rx="1"/>
<text x="561" y="380" font-family="sans-serif" font-size="9" fill="#888888">前低</text>
</svg>