<svg xmlns="http://www.w3.org/2000/svg" width="800" height="400" viewBox="0 0 800 400">
<rect width="800" height="400" fill="#1a1a2e"/>
<text x="400.0" y="20" text-anchor="middle" font-family="sans-serif" font-size="14" fill="#ffffff" font-weight="bold">蓝思科技(300433) K线图</text>
<line x1="60" y1="30.0" x2="780" y2="30.0" stroke="#2a2a4e" stroke-width="0.5"/>
<text x="55" y="33.0" text-anchor="end" font-family="sans-serif" font-size="8" fill="#666666">40.50</text>
<line x1="60" y1="84.00000000000004" x2="780" y2="84.00000000000004" stroke="#2a2a4e" stroke-width="0.5"/>
<text x="55" y="87.00000000000004" text-anchor="end" font-family="sans-serif" font-size="8" fill="#666666">37.39</text>
<line x1="60" y1="137.99999999999994" x2="780" y2="137.99999999999994" stroke="#2a2a4e" stroke-width="0.5"/>
<text x="55" y="140.99999999999994" text-anchor="end" font-family="sans-serif" font-size="8" fill="#666666">34.28</text>
<line x1="60" y1="192.0" x2="780" y2="192.0" stroke="#2a2a4e" stroke-width="0.5"/>
<text x="55" y="195.0" text-anchor="end" font-family="sans-serif" font-size="8" fill="#666666">31.16</text>
<line x1="60" y1="246.0" x2="780" y2="246.0" stroke="#2a2a4e" stroke-width="0.5"/>
<text x="55" y="249.0" text-anchor="end" font-family="sans-serif" font-size="8" fill="#666666">28.05</text>
<line x1="60" y1="300.0" x2="780" y2="300.0" stroke="#2a2a4e" stroke-width="0.5"/>
<text x="55" y="303.0" text-anchor="end" font-family="sans-serif" font-size="8" fill="#666666">24.94</text>
<line x1="60" y1="300" x2="780" y2="300" stroke="#2a2a4e" stroke-width="0.5"/>
<line x1="60" y1="345" x2="780" y2="345" stroke="#2a2a4e" stroke-width="0.5"/>
<rect x="61.8" y="335.7650344545241" width="7.199999999999999" height="9.234965545475916" fill="#ff4444" opacity="0.3"/>
<rect x="73.8" y="331.154696017702" width="7.199999999999999" height="13.845303982297992" fill="#ff4444" opacity="0.3"/>
<rect x="85.8" y="336.62267601511337" width="7.199999999999999" height="8.37732398488663" fill="#44aa44" opacity="0.3"/>
<rect x="97.8" y="332.3832005445432" width="7.199999999999999" height="12.616799455456828" fill="#44aa44" opacity="0.3"/>
<rect x="109.8" y="333.97350318131294" width="7.199999999999999" height="11.026496818687065" fill="#44aa44" opacity="0.3"/>
<rect x="121.8" y="336.47167422511075" width="7.199999999999999" height="8.528325774889254" fill="#44aa44" opacity="0.3"/>
<rect x="133.8" y="338.35576759825227" width="7.199999999999999" height="6.644232401747729" fill="#44aa44" opacity="0.3"/>
<rect x="145.8" y="339.2827574048283" width="7.199999999999999" height="5.717242595171683" fill="#ff4444" opacity="0.3"/>
<rect x="157.8" y="336.3706618353874" width="7.199999999999999" height="8.62933816461259" fill="#44aa44" opacity="0.3"/>
<rect x="169.8" y="336.8919958296384" width="7.199999999999999" height="8.108004170361596" fill="#ff4444" opacity="0.3"/>
<rect x="181.8" y="337.393593857811" width="7.199999999999999" height="7.606406142188973" fill="#ff4444" opacity="0.3"/>
<rect x="193.8" y="338.69792751405043" width="7.199999999999999" height="6.302072485949566" fill="#44aa44" opacity="0.3"/>
<rect x="205.8" y="339.96751022648016" width="7.199999999999999" height="5.032489773519842" fill="#44aa44" opacity="0.3"/>
<rect x="217.8" y="339.4365247442177" width="7.199999999999999" height="5.5634752557822935" fill="#44aa44" opacity="0.3"/>
<rect x="229.8" y="338.83276899778787" width="7.199999999999999" height="6.167231002212134" fill="#44aa44" opacity="0.3"/>
<rect x="241.8" y="339.5145886609992" width="7.199999999999999" height="5.485411339000791" fill="#44aa44" opacity="0.3"/>
<rect x="253.8" y="337.8658603015783" width="7.199999999999999" height="7.134139698421677" fill="#44aa44" opacity="0.3"/>
<rect x="265.8" y="338.97779273154026" width="7.199999999999999" height="6.022207268459738" fill="#44aa44" opacity="0.3"/>
<rect x="277.8" y="335.38911528181757" width="7.199999999999999" height="9.610884718182433" fill="#44aa44" opacity="0.3"/>
<rect x="289.8" y="338.5518981259756" width="7.199999999999999" height="6.448101874024417" fill="#44aa44" opacity="0.3"/>
<rect x="301.8" y="334.3564200320133" width="7.199999999999999" height="10.643579967986682" fill="#ff4444" opacity="0.3"/>
<rect x="313.8" y="336.47277765138125" width="7.199999999999999" height="8.52722234861875" fill="#44aa44" opacity="0.3"/>
<rect x="325.8" y="339.083651816401" width="7.199999999999999" height="5.916348183598984" fill="#ff4444" opacity="0.3"/>
<rect x="337.8" y="338.1215060108021" width="7.199999999999999" height="6.878493989197921" fill="#ff4444" opacity="0.3"/>
<rect x="349.8" y="338.3091722813113" width="7.199999999999999" height="6.690827718688695" fill="#44aa44" opacity="0.3"/>
<rect x="361.8" y="336.8643124009283" width="7.199999999999999" height="8.135687599071673" fill="#44aa44" opacity="0.3"/>
<rect x="373.8" y="337.6324088245546" width="7.199999999999999" height="7.367591175445398" fill="#44aa44" opacity="0.3"/>
<rect x="385.8" y="336.793762956723" width="7.199999999999999" height="8.206237043276985" fill="#ff4444" opacity="0.3"/>
<rect x="397.8" y="335.47093643488716" width="7.199999999999999" height="9.529063565112835" fill="#44aa44" opacity="0.3"/>
<rect x="409.8" y="329.8271764423613" width="7.199999999999999" height="15.172823557638708" fill="#ff4444" opacity="0.3"/>
<rect x="421.8" y="334.14795627141865" width="7.199999999999999" height="10.85204372858135" fill="#ff4444" opacity="0.3"/>
<rect x="433.8" y="332.1670686697397" width="7.199999999999999" height="12.832931330260294" fill="#ff4444" opacity="0.3"/>
<rect x="445.8" y="334.34218722986617" width="7.199999999999999" height="10.65781277013383" fill="#44aa44" opacity="0.3"/>
<rect x="457.8" y="334.15281693397725" width="7.199999999999999" height="10.847183066022751" fill="#ff4444" opacity="0.3"/>
<rect x="469.8" y="333.72796988499846" width="7.199999999999999" height="11.272030115001542" fill="#44aa44" opacity="0.3"/>
<rect x="481.8" y="310.7983250268562" width="7.199999999999999" height="34.20167497314378" fill="#44aa44" opacity="0.3"/>
<rect x="493.8" y="325.34029604104313" width="7.199999999999999" height="19.659703958956868" fill="#ff4444" opacity="0.3"/>
<rect x="505.8" y="323.05255816422147" width="7.199999999999999" height="21.947441835778534" fill="#ff4444" opacity="0.3"/>
<rect x="517.8" y="332.74766643191055" width="7.199999999999999" height="12.252333568089455" fill="#44aa44" opacity="0.3"/>
<rect x="529.8" y="333.2207848883677" width="7.199999999999999" height="11.779215111632311" fill="#ff4444" opacity="0.3"/>
<rect x="541.8" y="334.8139927487357" width="7.199999999999999" height="10.1860072512643" fill="#44aa44" opacity="0.3"/>
<rect x="553.8" y="336.7601713088684" width="7.199999999999999" height="8.239828691131606" fill="#44aa44" opacity="0.3"/>
<rect x="565.8" y="335.1195719885542" width="7.199999999999999" height="9.880428011445815" fill="#ff4444" opacity="0.3"/>
<rect x="577.8" y="334.855531859222" width="7.199999999999999" height="10.144468140777974" fill="#44aa44" opacity="0.3"/>
<rect x="589.8" y="337.6248384822938" width="7.199999999999999" height="7.3751615177062035" fill="#ff4444" opacity="0.3"/>
<rect x="601.8" y="338.0302009787748" width="7.199999999999999" height="6.969799021225185" fill="#44aa44" opacity="0.3"/>
<rect x="613.8" y="332.3914692578613" width="7.199999999999999" height="12.608530742138726" fill="#ff4444" opacity="0.3"/>
<rect x="625.8" y="331.43241025233544" width="7.199999999999999" height="13.567589747664556" fill="#ff4444" opacity="0.3"/>
<rect x="637.8" y="327.8094148488585" width="7.199999999999999" height="17.190585151141477" fill="#ff4444" opacity="0.3"/>
<rect x="649.8" y="318.88576915329185" width="7.199999999999999" height="26.114230846708153" fill="#ff4444" opacity="0.3"/>
<rect x="661.8" y="326.94407723921813" width="7.199999999999999" height="18.05592276078187" fill="#ff4444" opacity="0.3"/>
<rect x="673.8" y="319.7172078318124" width="7.199999999999999" height="25.282792168187598" fill="#ff4444" opacity="0.3"/>
<rect x="685.8" y="320.3144407925673" width="7.199999999999999" height="24.685559207432675" fill="#44aa44" opacity="0.3"/>
<rect x="697.8" y="308.3214962025686" width="7.199999999999999" height="36.678503797431404" fill="#ff4444" opacity="0.3"/>
<rect x="709.8" y="300.0" width="7.199999999999999" height="45.0" fill="#ff4444" opacity="0.3"/>
<rect x="721.8" y="311.48149952991866" width="7.199999999999999" height="33.518500470081335" fill="#44aa44" opacity="0.3"/>
<rect x="733.8" y="318.3314441102955" width="7.199999999999999" height="26.66855588970452" fill="#44aa44" opacity="0.3"/>
<rect x="745.8" y="311.9824131544552" width="7.199999999999999" height="33.01758684554483" fill="#44aa44" opacity="0.3"/>
<rect x="757.8" y="313.9800476940874" width="7.199999999999999" height="31.019952305912625" fill="#ff4444" opacity="0.3"/>
<rect x="769.8" y="314.2793276269693" width="7.199999999999999" height="30.72067237303071" fill="#ff4444" opacity="0.3"/>
<polyline points="66.0,130.99 78.0,126.07 90.0,124.88 102.0,131.14 114.0,143.64 126.0,154.58 138.0,159.96 150.0,163.43 162.0,171.30 174.0,170.13 186.0,169.75 198.0,172.21 210.0,176.81 222.0,181.72 234.0,188.64 246.0,192.85 258.0,200.86 270.0,208.40 282.0,221.93 294.0,230.25 306.0,227.70 318.0,228.61 330.0,230.66 342.0,234.34 354.0,238.64 366.0,237.81 378.0,243.85 390.0,245.33 402.0,244.18 414.0,233.69 426.0,228.43 438.0,222.27 450.0,220.59 462.0,216.93 474.0,217.72 486.0,241.10 498.0,254.66 510.0,256.70 522.0,260.14 534.0,260.07 546.0,263.78 558.0,269.95 570.0,269.73 582.0,275.89 594.0,278.83 606.0,281.55 618.0,277.98 630.0,269.82 642.0,259.00 654.0,238.66 666.0,227.06 678.0,206.55 690.0,195.07 702.0,176.43 714.0,138.03 726.0,116.71 738.0,112.04 750.0,107.77 762.0,94.00 774.0,78.33" fill="none" stroke="#ffd700" stroke-width="0.8" opacity="0.7"/>
<polyline points="66.0,130.99 78.0,128.31 90.0,127.25 102.0,130.23 114.0,137.22 126.0,144.35 138.0,149.15 150.0,153.01 162.0,159.19 174.0,160.75 186.0,162.25 198.0,164.96 210.0,168.78 222.0,172.92 234.0,178.30 246.0,182.47 258.0,188.73 270.0,195.05 282.0,204.85 294.0,212.50 306.0,214.34 318.0,217.26 330.0,220.44 342.0,224.31 354.0,228.48 366.0,229.87 378.0,234.61 390.0,237.10 402.0,237.96 414.0,233.37 426.0,230.57 438.0,226.82 450.0,225.07 462.0,222.26 474.0,221.72 486.0,233.75 498.0,242.48 510.0,245.81 522.0,249.67 534.0,251.53 546.0,255.11 558.0,260.05 570.0,261.73 582.0,266.54 594.0,269.85 606.0,272.97 618.0,272.58 630.0,269.11 642.0,263.34 654.0,251.45 666.0,242.80 678.0,228.75 690.0,218.45 702.0,204.03 714.0,178.07 726.0,159.16 738.0,148.90 750.0,139.87 762.0,126.52 774.0,112.06" fill="none" stroke="#ff6b6b" stroke-width="0.8" opacity="0.7"/>
<polyline points="66.0,130.99 78.0,129.59 90.0,128.91 102.0,130.31 114.0,133.96 126.0,138.01 138.0,141.13 150.0,143.91 162.0,148.02 174.0,149.90 186.0,151.72 198.0,154.14 210.0,157.17 222.0,160.45 234.0,164.45 246.0,167.96 258.0,172.62 270.0,177.46 282.0,184.27 294.0,190.24 306.0,193.32 318.0,196.85 330.0,200.46 342.0,204.39 354.0,208.47 366.0,211.11 378.0,215.38 390.0,218.51 402.0,220.74 414.0,219.97 426.0,219.78 438.0,218.84 450.0,218.69 462.0,217.82 474.0,217.96 486.0,224.62 498.0,230.06 510.0,232.99 522.0,236.23 534.0,238.49 546.0,241.60 558.0,245.48 570.0,247.75 582.0,251.60 594.0,254.75 606.0,257.82 618.0,259.06 630.0,258.53 642.0,256.52 654.0,250.94 666.0,246.46 678.0,238.75 690.0,232.40 702.0,223.52 714.0,208.07 726.0,195.30 738.0,186.49 750.0,178.18 762.0,167.53 774.0,156.06" fill="none" stroke="#4ecdc4" stroke-width="0.8" opacity="0.7"/>
<line x1="66.0" y1="126.47814910025713" x2="66.0" y2="144.00385604113112" stroke="#ff4444" stroke-width="0.5" opacity="0.6"/>
<rect x="63.0" y="130.9897172236504" width="6.0" height="6.7673521850900045" fill="#ff4444" opacity="0.85"/>
<line x1="78.0" y1="109.64652956298207" x2="78.0" y2="127.51928020565549" stroke="#ff4444" stroke-width="0.5" opacity="0.6"/>
<rect x="75.0" y="116.24035989717223" width="6.0" height="9.54370179948593" fill="#ff4444" opacity="0.85"/>
<line x1="90.0" y1="118.14910025706938" x2="90.0" y2="132.72493573264785" stroke="#44aa44" stroke-width="0.5" opacity="0.6"/>
<rect x="87.0" y="120.5784061696658" width="6.0" height="1.9087403598971662" fill="#44aa44" opacity="0.85"/>
<line x1="102.0" y1="128.90745501285352" x2="102.0" y2="149.5565552699229" stroke="#44aa44" stroke-width="0.5" opacity="0.6"/>
<rect x="99.0" y="140.53341902313622" width="6.0" height="3.1233933161953473" fill="#44aa44" opacity="0.85"/>
<line x1="114.0" y1="138.9717223650386" x2="114.0" y2="170.8997429305912" stroke="#44aa44" stroke-width="0.5" opacity="0.6"/>
<rect x="111.0" y="144.00385604113112" width="6.0" height="24.640102827763542" fill="#44aa44" opacity="0.85"/>
<line x1="126.0" y1="164.47943444730078" x2="126.0" y2="183.39331619537276" stroke="#44aa44" stroke-width="0.5" opacity="0.6"/>
<rect x="123.0" y="176.2789203084833" width="6.0" height="0.5" fill="#44aa44" opacity="0.85"/>
<line x1="138.0" y1="161.00899742930588" x2="138.0" y2="174.89074550128538" stroke="#44aa44" stroke-width="0.5" opacity="0.6"/>
<rect x="135.0" y="165.34704370179944" width="6.0" height="5.379177377892063" fill="#44aa44" opacity="0.85"/>
<line x1="150.0" y1="167.42930591259645" x2="150.0" y2="178.36118251928025" stroke="#ff4444" stroke-width="0.5" opacity="0.6"/>
<rect x="147.0" y="170.3791773778921" width="6.0" height="3.296915167095108" fill="#ff4444" opacity="0.85"/>
<line x1="162.0" y1="182.69922879177378" x2="162.0" y2="201.7866323907455" stroke="#44aa44" stroke-width="0.5" opacity="0.6"/>
<rect x="159.0" y="182.69922879177378" width="6.0" height="4.338046272493585" fill="#44aa44" opacity="0.85"/>
<line x1="174.0" y1="162.3971722365039" x2="174.0" y2="177.4935732647815" stroke="#ff4444" stroke-width="0.5" opacity="0.6"/>
<rect x="171.0" y="167.77634961439585" width="6.0" height="9.543701799485945" fill="#ff4444" opacity="0.85"/>
<line x1="186.0" y1="155.10925449871468" x2="186.0" y2="171.24678663239078" stroke="#ff4444" stroke-width="0.5" opacity="0.6"/>
<rect x="183.0" y="168.99100257069406" width="6.0" height="0.8676092544987739" fill="#ff4444" opacity="0.85"/>
<line x1="198.0" y1="163.78534704370182" x2="198.0" y2="182.3521850899743" stroke="#44aa44" stroke-width="0.5" opacity="0.6"/>
<rect x="195.0" y="171.76735218509003" width="6.0" height="5.379177377891921" fill="#44aa44" opacity="0.85"/>
<line x1="210.0" y1="176.97300771208225" x2="210.0" y2="187.38431876606685" stroke="#44aa44" stroke-width="0.5" opacity="0.6"/>
<rect x="207.0" y="180.96401028277637" width="6.0" height="5.0321336760925135" fill="#44aa44" opacity="0.85"/>
<line x1="222.0" y1="183.91388174807201" x2="222.0" y2="201.2660668380463" stroke="#44aa44" stroke-width="0.5" opacity="0.6"/>
<rect x="219.0" y="186.16966580976865" width="6.0" height="5.379177377892006" fill="#44aa44" opacity="0.85"/>
<line x1="234.0" y1="181.4845758354756" x2="234.0" y2="203.17480719794347" stroke="#44aa44" stroke-width="0.5" opacity="0.6"/>
<rect x="231.0" y="186.16966580976865" width="6.0" height="16.311053984575864" fill="#44aa44" opacity="0.85"/>
<line x1="246.0" y1="197.10154241645245" x2="246.0" y2="209.07455012853472" stroke="#44aa44" stroke-width="0.5" opacity="0.6"/>
<rect x="243.0" y="198.66323907455012" width="6.0" height="2.6028277634961796" fill="#44aa44" opacity="0.85"/>
<line x1="258.0" y1="208.55398457583547" x2="258.0" y2="220.1799485861183" stroke="#44aa44" stroke-width="0.5" opacity="0.6"/>
<rect x="255.0" y="210.11568123393315" width="6.0" height="6.7673521850900045" fill="#44aa44" opacity="0.85"/>
<line x1="270.0" y1="209.07455012853472" x2="270.0" y2="223.99742930591262" stroke="#44aa44" stroke-width="0.5" opacity="0.6"/>
<rect x="267.0" y="213.93316195372756" width="6.0" height="9.543701799485802" fill="#44aa44" opacity="0.85"/>
<line x1="282.0" y1="229.89717223650385" x2="282.0" y2="253.84318766066838" stroke="#44aa44" stroke-width="0.5" opacity="0.6"/>
<rect x="279.0" y="233.02056555269925" width="6.0" height="15.964010282776343" fill="#44aa44" opacity="0.85"/>
<line x1="294.0" y1="238.22622107969153" x2="294.0" y2="259.74293059125966" stroke="#44aa44" stroke-width="0.5" opacity="0.6"/>
<rect x="291.0" y="240.30848329048848" width="6.0" height="6.593830334190216" fill="#44aa44" opacity="0.85"/>
<line x1="306.0" y1="215.66838046272494" x2="306.0" y2="241.69665809768637" stroke="#ff4444" stroke-width="0.5" opacity="0.6"/>
<rect x="303.0" y="222.60925449871468" width="6.0" height="19.08740359897169" fill="#ff4444" opacity="0.85"/>
<line x1="318.0" y1="210.46272493573264" x2="318.0" y2="232.32647814910027" stroke="#44aa44" stroke-width="0.5" opacity="0.6"/>
<rect x="315.0" y="222.26221079691516" width="6.0" height="8.155526992287975" fill="#44aa44" opacity="0.85"/>
<line x1="330.0" y1="227.64138817480722" x2="330.0" y2="242.04370179948586" stroke="#ff4444" stroke-width="0.5" opacity="0.6"/>
<rect x="327.0" y="234.75578406169666" width="6.0" height="3.296915167095108" fill="#ff4444" opacity="0.85"/>
<line x1="342.0" y1="240.82904884318765" x2="342.0" y2="252.62853470437017" stroke="#ff4444" stroke-width="0.5" opacity="0.6"/>
<rect x="339.0" y="241.69665809768637" width="6.0" height="2.429305912596419" fill="#ff4444" opacity="0.85"/>
<line x1="354.0" y1="231.1118251928021" x2="354.0" y2="247.42287917737792" stroke="#44aa44" stroke-width="0.5" opacity="0.6"/>
<rect x="351.0" y="241.52313624678666" width="6.0" height="5.7262210796914985" fill="#44aa44" opacity="0.85"/>
<line x1="366.0" y1="225.03856041131104" x2="366.0" y2="240.48200514138819" stroke="#44aa44" stroke-width="0.5" opacity="0.6"/>
<rect x="363.0" y="234.06169665809773" width="6.0" height="2.08226221079687" fill="#44aa44" opacity="0.85"/>
<line x1="378.0" y1="238.39974293059132" x2="378.0" y2="262.1722365038561" stroke="#44aa44" stroke-width="0.5" opacity="0.6"/>
<rect x="375.0" y="239.961439588689" width="6.0" height="15.964010282776314" fill="#44aa44" opacity="0.85"/>
<line x1="390.0" y1="235.62339331619543" x2="390.0" y2="261.65167095115686" stroke="#ff4444" stroke-width="0.5" opacity="0.6"/>
<rect x="387.0" y="248.29048843187658" width="6.0" height="3.8174807197944176" fill="#ff4444" opacity="0.85"/>
<line x1="402.0" y1="226.25321336760925" x2="402.0" y2="245.86118251928025" stroke="#44aa44" stroke-width="0.5" opacity="0.6"/>
<rect x="399.0" y="236.49100257069406" width="6.0" height="5.379177377892063" fill="#44aa44" opacity="0.85"/>
<line x1="414.0" y1="212.71850899742932" x2="414.0" y2="233.02056555269925" stroke="#ff4444" stroke-width="0.5" opacity="0.6"/>
<rect x="411.0" y="212.71850899742932" width="6.0" height="17.352185089974313" fill="#ff4444" opacity="0.85"/>
<line x1="426.0" y1="208.90102827763496" x2="426.0" y2="229.2030848329049" stroke="#ff4444" stroke-width="0.5" opacity="0.6"/>
<rect x="423.0" y="217.92416452442157" width="6.0" height="6.246786632390808" fill="#ff4444" opacity="0.85"/>
<line x1="438.0" y1="198.48971722365042" x2="438.0" y2="215.14781491002574" stroke="#ff4444" stroke-width="0.5" opacity="0.6"/>
<rect x="435.0" y="209.94215938303344" width="6.0" height="1.0411311053984207" fill="#ff4444" opacity="0.85"/>
<line x1="450.0" y1="209.94215938303344" x2="450.0" y2="221.74164524421596" stroke="#44aa44" stroke-width="0.5" opacity="0.6"/>
<rect x="447.0" y="216.53598971722369" width="6.0" height="0.6940874035989282" fill="#44aa44" opacity="0.85"/>
<line x1="462.0" y1="203.52185089974293" x2="462.0" y2="216.3624678663239" stroke="#ff4444" stroke-width="0.5" opacity="0.6"/>
<rect x="459.0" y="209.59511568123398" width="6.0" height="1.3881748071978848" fill="#ff4444" opacity="0.85"/>
<line x1="474.0" y1="203.17480719794347" x2="474.0" y2="223.30334190231366" stroke="#44aa44" stroke-width="0.5" opacity="0.6"/>
<rect x="471.0" y="205.2570694087404" width="6.0" height="14.055269922879177" fill="#44aa44" opacity="0.85"/>
<line x1="486.0" y1="261.13110539845763" x2="486.0" y2="300.0" stroke="#44aa44" stroke-width="0.5" opacity="0.6"/>
<rect x="483.0" y="264.42802056555274" width="6.0" height="23.425449871465275" fill="#44aa44" opacity="0.85"/>
<line x1="498.0" y1="272.9305912596401" x2="498.0" y2="293.57969151670954" stroke="#ff4444" stroke-width="0.5" opacity="0.6"/>
<rect x="495.0" y="281.780205655527" width="6.0" height="9.196658097686338" fill="#ff4444" opacity="0.85"/>
<line x1="510.0" y1="250.1992287917738" x2="510.0" y2="266.3367609254499" stroke="#ff4444" stroke-width="0.5" opacity="0.6"/>
<rect x="507.0" y="260.7840616966581" width="6.0" height="5.5526992287917665" fill="#ff4444" opacity="0.85"/>
<line x1="522.0" y1="262.5192802056555" x2="522.0" y2="276.0539845758355" stroke="#44aa44" stroke-width="0.5" opacity="0.6"/>
<rect x="519.0" y="263.21336760925453" width="6.0" height="3.8174807197943323" fill="#44aa44" opacity="0.85"/>
<line x1="534.0" y1="258.3547557840617" x2="534.0" y2="271.7159383033419" stroke="#ff4444" stroke-width="0.5" opacity="0.6"/>
<rect x="531.0" y="259.9164524421594" width="6.0" height="11.278920308483237" fill="#ff4444" opacity="0.85"/>
<line x1="546.0" y1="258.7017994858612" x2="546.0" y2="274.6658097686376" stroke="#44aa44" stroke-width="0.5" opacity="0.6"/>
<rect x="543.0" y="260.7840616966581" width="6.0" height="10.411311053984548" fill="#44aa44" opacity="0.85"/>
<line x1="558.0" y1="270.32776349614403" x2="558.0" y2="288.54755784061695" stroke="#44aa44" stroke-width="0.5" opacity="0.6"/>
<rect x="555.0" y="273.97172236503854" width="6.0" height="8.329048843187707" fill="#44aa44" opacity="0.85"/>
<line x1="570.0" y1="265.64267352185084" x2="570.0" y2="283.51542416452446" stroke="#ff4444" stroke-width="0.5" opacity="0.6"/>
<rect x="567.0" y="269.28663239074547" width="6.0" height="13.534704370180009" fill="#ff4444" opacity="0.85"/>
<line x1="582.0" y1="271.88946015424165" x2="582.0" y2="290.28277634961444" stroke="#44aa44" stroke-width="0.5" opacity="0.6"/>
<rect x="579.0" y="272.9305912596401" width="6.0" height="15.269922879177386" fill="#44aa44" opacity="0.85"/>
<line x1="594.0" y1="283.16838046272494" x2="594.0" y2="293.75321336760925" stroke="#ff4444" stroke-width="0.5" opacity="0.6"/>
<rect x="591.0" y="284.73007712082267" width="6.0" height="7.808483290488368" fill="#ff4444" opacity="0.85"/>
<line x1="606.0" y1="284.2095115681234" x2="606.0" y2="293.0591259640103" stroke="#44aa44" stroke-width="0.5" opacity="0.6"/>
<rect x="603.0" y="286.4652956298201" width="6.0" height="0.5205655526991677" fill="#44aa44" opacity="0.85"/>
<line x1="618.0" y1="266.3367609254499" x2="618.0" y2="283.3419023136247" stroke="#ff4444" stroke-width="0.5" opacity="0.6"/>
<rect x="615.0" y="270.8483290488432" width="6.0" height="12.493573264781503" fill="#ff4444" opacity="0.85"/>
<line x1="630.0" y1="250.37275064267354" x2="630.0" y2="271.02185089974296" stroke="#ff4444" stroke-width="0.5" opacity="0.6"/>
<rect x="627.0" y="253.49614395886888" width="6.0" height="10.931876606683858" fill="#ff4444" opacity="0.85"/>
<line x1="642.0" y1="233.88817480719797" x2="642.0" y2="261.4781491002571" stroke="#ff4444" stroke-width="0.5" opacity="0.6"/>
<rect x="639.0" y="237.3586118251928" width="6.0" height="19.955012853470436" fill="#ff4444" opacity="0.85"/>
<line x1="654.0" y1="192.0694087403599" x2="654.0" y2="235.44987146529564" stroke="#ff4444" stroke-width="0.5" opacity="0.6"/>
<rect x="651.0" y="197.96915167095116" width="6.0" height="34.01028277634961" fill="#ff4444" opacity="0.85"/>
<line x1="666.0" y1="200.9190231362468" x2="666.0" y2="217.5771208226221" stroke="#ff4444" stroke-width="0.5" opacity="0.6"/>
<rect x="663.0" y="203.86889460154242" width="6.0" height="3.991002570694093" fill="#ff4444" opacity="0.85"/>
<line x1="678.0" y1="157.7120822622108" x2="678.0" y2="214.10668380462727" stroke="#ff4444" stroke-width="0.5" opacity="0.6"/>
<rect x="675.0" y="165.52056555269928" width="6.0" height="45.11568123393312" fill="#ff4444" opacity="0.85"/>
<line x1="690.0" y1="151.46529562982005" x2="690.0" y2="184.43444730077118" stroke="#44aa44" stroke-width="0.5" opacity="0.6"/>
<rect x="687.0" y="165.34704370179944" width="6.0" height="6.7673521850900045" fill="#44aa44" opacity="0.85"/>
<line x1="702.0" y1="125.43701799485862" x2="702.0" y2="157.3650385604114" stroke="#ff4444" stroke-width="0.5" opacity="0.6"/>
<rect x="699.0" y="139.1452442159383" width="6.0" height="3.6439588688946003" fill="#ff4444" opacity="0.85"/>
<line x1="714.0" y1="30.0" x2="714.0" y2="135.8483290488432" stroke="#ff4444" stroke-width="0.5" opacity="0.6"/>
<rect x="711.0" y="61.23393316195368" width="6.0" height="58.12982005141391" fill="#ff4444" opacity="0.85"/>
<line x1="726.0" y1="48.74035989717221" x2="726.0" y2="90.55912596401032" stroke="#44aa44" stroke-width="0.5" opacity="0.6"/>
<rect x="723.0" y="73.38046272493574" width="6.0" height="0.6940874035989566" fill="#44aa44" opacity="0.85"/>
<line x1="738.0" y1="82.40359897172243" x2="738.0" y2="106.34961439588686" stroke="#44aa44" stroke-width="0.5" opacity="0.6"/>
<rect x="735.0" y="87.26221079691513" width="6.0" height="15.443444730077118" fill="#44aa44" opacity="0.85"/>
<line x1="750.0" y1="71.29820051413887" x2="750.0" y2="112.42287917737791" stroke="#44aa44" stroke-width="0.5" opacity="0.6"/>
<rect x="747.0" y="90.90616966580974" width="6.0" height="8.329048843187735" fill="#44aa44" opacity="0.85"/>
<line x1="762.0" y1="63.83676092544992" x2="762.0" y2="120.92544987146535" stroke="#ff4444" stroke-width="0.5" opacity="0.6"/>
<rect x="759.0" y="66.43958868894605" width="6.0" height="44.074550128534696" fill="#ff4444" opacity="0.85"/>
<line x1="774.0" y1="30.52056555269925" x2="774.0" y2="62.969151670951135" stroke="#ff4444" stroke-width="0.5" opacity="0.6"/>
<rect x="771.0" y="47.00514138817475" width="6.0" height="15.964010282776385" fill="#ff4444" opacity="0.85"/>
<rect x="122.0" y="179.39331619537276" width="8" height="8" fill="#4caf50" opacity="0.85" rx="1"/>
<text x="126.0" y="177.39331619537276" text-anchor="middle" font-family="sans-serif" font-size="8" fill="#4caf50">前低</text>
<rect x="158.0" y="197.7866323907455" width="8" height="8" fill="#4caf50" opacity="0.85" rx="1"/>
<text x="162.0" y="195.7866323907455" text-anchor="middle" font-family="sans-serif" font-size="8" fill="#4caf50">前低</text>
<rect x="230.0" y="199.17480719794347" width="8" height="8" fill="#4caf50" opacity="0.85" rx="1"/>
<text x="234.0" y="197.17480719794347" text-anchor="middle" font-family="sans-serif" font-size="8" fill="#4caf50">前低</text>
<rect x="242.0" y="205.07455012853472" width="8" height="8" fill="#4caf50" opacity="0.85" rx="1"/>
<text x="246.0" y="203.07455012853472" text-anchor="middle" font-family="sans-serif" font-size="8" fill="#4caf50">前低</text>
<rect x="254.0" y="216.1799485861183" width="8" height="8" fill="#4caf50" opacity="0.85" rx="1"/>
<text x="258.0" y="214.1799485861183" text-anchor="middle" font-family="sans-serif" font-size="8" fill="#4caf50">前低</text>
<rect x="266.0" y="219.99742930591262" width="8" height="8" fill="#4caf50" opacity="0.85" rx="1"/>
<text x="270.0" y="217.99742930591262" text-anchor="middle" font-family="sans-serif" font-size="8" fill="#4caf50">前低</text>
<rect x="278.0" y="249.84318766066838" width="8" height="8" fill="#4caf50" opacity="0.85" rx="1"/>
<text x="282.0" y="247.84318766066838" text-anchor="middle" font-family="sans-serif" font-size="8" fill="#4caf50">前低</text>
<rect x="290.0" y="255.74293059125966" width="8" height="8" fill="#4caf50" opacity="0.85" rx="1"/>
<text x="294.0" y="253.74293059125966" text-anchor="middle" font-family="sans-serif" font-size="8" fill="#4caf50">前低</text>
<rect x="374.0" y="258.1722365038561" width="8" height="8" fill="#4caf50" opacity="0.85" rx="1"/>
<text x="378.0" y="256.1722365038561" text-anchor="middle" font-family="sans-serif" font-size="8" fill="#4caf50">前低</text>
<rect x="422.0" y="204.90102827763496" width="8" height="8" fill="#ff9800" opacity="0.85" rx="1"/>
<text x="426.0" y="202.90102827763496" text-anchor="middle" font-family="sans-serif" font-size="8" fill="#ff9800">前高</text>
<rect x="434.0" y="194.48971722365042" width="8" height="8" fill="#ff9800" opacity="0.85" rx="1"/>
<text x="438.0" y="192.48971722365042" text-anchor="middle" font-family="sans-serif" font-size="8" fill="#ff9800">前高</text>
<rect x="482.0" y="296.0" width="8" height="8" fill="#4caf50" opacity="0.85" rx="1"/>
<text x="486.0" y="294.0" text-anchor="middle" font-family="sans-serif" font-size="8" fill="#4caf50">前低</text>
<rect x="482.0" y="237.69665809768642" width="8" height="8" fill="#ff9800" opacity="0.85" rx="1"/>
<text x="486.0" y="235.69665809768642" text-anchor="middle" font-family="sans-serif" font-size="8" fill="#ff9800">量</text>
<rect x="638.0" y="229.88817480719797" width="8" height="8" fill="#ff9800" opacity="0.85" rx="1"/>
<text x="642.0" y="227.88817480719797" text-anchor="middle" font-family="sans-serif" font-size="8" fill="#ff9800">前高</text>
<rect x="638.0" y="229.88817480719797" width="8" height="8" fill="#2196f3" opacity="0.85" rx="1"/>
<text x="642.0" y="227.88817480719797" text-anchor="middle" font-family="sans-serif" font-size="8" fill="#2196f3">突</text>
<rect x="650.0" y="188.0694087403599" width="8" height="8" fill="#ff9800" opacity="0.85" rx="1"/>
<text x="654.0" y="186.0694087403599" text-anchor="middle" font-family="sans-serif" font-size="8" fill="#ff9800">前高</text>
<rect x="650.0" y="166.3791773778921" width="8" height="8" fill="#ff9800" opacity="0.85" rx="1"/>
<text x="654.0" y="164.3791773778921" text-anchor="middle" font-family="sans-serif" font-size="8" fill="#ff9800">量</text>
<rect x="650.0" y="188.0694087403599" width="8" height="8" fill="#2196f3" opacity="0.85" rx="1"/>
<text x="654.0" y="186.0694087403599" text-anchor="middle" font-family="sans-serif" font-size="8" fill="#2196f3">突</text>
<rect x="674.0" y="153.7120822622108" width="8" height="8" fill="#ff9800" opacity="0.85" rx="1"/>
<text x="678.0" y="151.7120822622108" text-anchor="middle" font-family="sans-serif" font-size="8" fill="#ff9800">前高</text>
<rect x="674.0" y="153.7120822622108" width="8" height="8" fill="#2196f3" opacity="0.85" rx="1"/>
<text x="678.0" y="151.7120822622108" text-anchor="middle" font-family="sans-serif" font-size="8" fill="#2196f3">突</text>
<rect x="686.0" y="147.46529562982005" width="8" height="8" fill="#ff9800" opacity="0.85" rx="1"/>
<text x="690.0" y="145.46529562982005" text-anchor="middle" font-family="sans-serif" font-size="8" fill="#ff9800">前高</text>
<rect x="698.0" y="121.43701799485862" width="8" height="8" fill="#ff9800" opacity="0.85" rx="1"/>
<text x="702.0" y="119.43701799485862" text-anchor="middle" font-family="sans-serif" font-size="8" fill="#ff9800">前高</text>
<rect x="710.0" y="26.0" width="8" height="8" fill="#ff9800" opacity="0.85" rx="1"/>
<text x="714.0" y="24.0" text-anchor="middle" font-family="sans-serif" font-size="8" fill="#ff9800">前高</text>
<rect x="710.0" y="26.0" width="8" height="8" fill="#2196f3" opacity="0.85" rx="1"/>
<text x="714.0" y="24.0" text-anchor="middle" font-family="sans-serif" font-size="8" fill="#2196f3">突</text>
<text x="66.0" y="359" text-anchor="middle" font-family="sans-serif" font-size="8" fill="#666666" transform="rotate(-40,66.0,359)">02/25</text>
<text x="138.0" y="359" text-anchor="middle" font-family="sans-serif" font-size="8" fill="#666666" transform="rotate(-40,138.0,359)">03/05</text>
<text x="210.0" y="359" text-anchor="middle" font-family="sans-serif" font-size="8" fill="#666666" transform="rotate(-40,210.0,359)">03/13</text>
<text x="282.0" y="359" text-anchor="middle" font-family="sans-serif" font-size="8" fill="#666666" transform="rotate(-40,282.0,359)">03/23</text>
<text x="354.0" y="359" text-anchor="middle" font-family="sans-serif" font-size="8" fill="#666666" transform="rotate(-40,354.0,359)">03/31</text>
<text x="426.0" y="359" text-anchor="middle" font-family="sans-serif" font-size="8" fill="#666666" transform="rotate(-40,426.0,359)">04/09</text>
<text x="498.0" y="359" text-anchor="middle" font-family="sans-serif" font-size="8" fill="#666666" transform="rotate(-40,498.0,359)">04/17</text>
<text x="570.0" y="359" text-anchor="middle" font-family="sans-serif" font-size="8" fill="#666666" transform="rotate(-40,570.0,359)">04/27</text>
<text x="642.0" y="359" text-anchor="middle" font-family="sans-serif" font-size="8" fill="#666666" transform="rotate(-40,642.0,359)">05/08</text>
<text x="714.0" y="359" text-anchor="middle" font-family="sans-serif" font-size="8" fill="#666666" transform="rotate(-40,714.0,359)">05/18</text>
<text x="774.0" y="359" text-anchor="middle" font-family="sans-serif" font-size="8" fill="#666666" transform="rotate(-40,774.0,359)">05/25</text>
<text x="400.0" y="396" text-anchor="middle" font-family="sans-serif" font-size="9" fill="#555555">数据截至: 2026-05-26 19:11  |  最新K线: 20260525</text>
<rect x="50" y="373" width="8" height="8" fill="#ffd700" opacity="0.8" rx="1"/>
<text x="61" y="380" font-family="sans-serif" font-size="9" fill="#888888">EMA5</text>
<rect x="150" y="373" width="8" height="8" fill="#ff6b6b" opacity="0.8" rx="1"/>
<text x="161" y="380" font-family="sans-serif" font-size="9" fill="#888888">EMA10</text>
<rect x="250" y="373" width="8" height="8" fill="#4ecdc4" opacity="0.8" rx="1"/>
<text x="261" y="380" font-family="sans-serif" font-size="9" fill="#888888">EMA20</text>
<rect x="350" y="373" width="8" height="8" fill="#2196f3" opacity="0.8" rx="1"/>
<text x="361" y="380" font-family="sans-serif" font-size="9" fill="#888888">突破</text>
<rect x="450" y="373" width="8" height="8" fill="#ff9800" opacity="0.8" rx="1"/>
<text x="461" y="380" font-family="sans-serif" font-size="9" fill="#888888">前高/量</text>
<rect x="550" y="373" width="8" height="8" fill="#4caf50" opacity="0.8" rx="1"/>
<text x="561" y="380" font-family="sans-serif" font-size="9" fill="#888888">前低</text>
</svg>