<svg xmlns="http://www.w3.org/2000/svg" width="800" height="400" viewBox="0 0 800 400">
<rect width="800" height="400" fill="#1a1a2e"/>
<text x="400.0" y="20" text-anchor="middle" font-family="sans-serif" font-size="14" fill="#ffffff" font-weight="bold">南亚新材(688519) K线图</text>
<line x1="60" y1="30.0" x2="780" y2="30.0" stroke="#2a2a4e" stroke-width="0.5"/>
<text x="55" y="33.0" text-anchor="end" font-family="sans-serif" font-size="8" fill="#666666">219.90</text>
<line x1="60" y1="84.0" x2="780" y2="84.0" stroke="#2a2a4e" stroke-width="0.5"/>
<text x="55" y="87.0" text-anchor="end" font-family="sans-serif" font-size="8" fill="#666666">196.21</text>
<line x1="60" y1="137.99999999999994" x2="780" y2="137.99999999999994" stroke="#2a2a4e" stroke-width="0.5"/>
<text x="55" y="140.99999999999994" text-anchor="end" font-family="sans-serif" font-size="8" fill="#666666">172.53</text>
<line x1="60" y1="192.00000000000003" x2="780" y2="192.00000000000003" stroke="#2a2a4e" stroke-width="0.5"/>
<text x="55" y="195.00000000000003" text-anchor="end" font-family="sans-serif" font-size="8" fill="#666666">148.84</text>
<line x1="60" y1="245.99999999999997" x2="780" y2="245.99999999999997" stroke="#2a2a4e" stroke-width="0.5"/>
<text x="55" y="248.99999999999997" text-anchor="end" font-family="sans-serif" font-size="8" fill="#666666">125.16</text>
<line x1="60" y1="300.00000000000006" x2="780" y2="300.00000000000006" stroke="#2a2a4e" stroke-width="0.5"/>
<text x="55" y="303.00000000000006" text-anchor="end" font-family="sans-serif" font-size="8" fill="#666666">101.47</text>
<line x1="60" y1="300" x2="780" y2="300" stroke="#2a2a4e" stroke-width="0.5"/>
<line x1="60" y1="345" x2="780" y2="345" stroke="#2a2a4e" stroke-width="0.5"/>
<rect x="61.8" y="324.03364279115544" width="7.199999999999999" height="20.966357208844556" fill="#ff4444" opacity="0.3"/>
<rect x="73.8" y="320.7761704485789" width="7.199999999999999" height="24.22382955142109" fill="#44aa44" opacity="0.3"/>
<rect x="85.8" y="321.24310163918085" width="7.199999999999999" height="23.75689836081915" fill="#44aa44" opacity="0.3"/>
<rect x="97.8" y="325.15654028920386" width="7.199999999999999" height="19.84345971079614" fill="#ff4444" opacity="0.3"/>
<rect x="109.8" y="318.22433938571993" width="7.199999999999999" height="26.77566061428007" fill="#ff4444" opacity="0.3"/>
<rect x="121.8" y="329.7470135469062" width="7.199999999999999" height="15.252986453093797" fill="#44aa44" opacity="0.3"/>
<rect x="133.8" y="327.0992460708218" width="7.199999999999999" height="17.900753929178222" fill="#ff4444" opacity="0.3"/>
<rect x="145.8" y="326.3524429476518" width="7.199999999999999" height="18.64755705234819" fill="#ff4444" opacity="0.3"/>
<rect x="157.8" y="327.92785727583555" width="7.199999999999999" height="17.07214272416445" fill="#44aa44" opacity="0.3"/>
<rect x="169.8" y="326.8909642073908" width="7.199999999999999" height="18.109035792609177" fill="#ff4444" opacity="0.3"/>
<rect x="181.8" y="314.18569526728913" width="7.199999999999999" height="30.814304732710866" fill="#ff4444" opacity="0.3"/>
<rect x="193.8" y="313.2745232723132" width="7.199999999999999" height="31.725476727686782" fill="#ff4444" opacity="0.3"/>
<rect x="205.8" y="314.38774470750013" width="7.199999999999999" height="30.612255292499867" fill="#44aa44" opacity="0.3"/>
<rect x="217.8" y="318.7100318261719" width="7.199999999999999" height="26.289968173828072" fill="#ff4444" opacity="0.3"/>
<rect x="229.8" y="316.49866946294947" width="7.199999999999999" height="28.501330537050535" fill="#ff4444" opacity="0.3"/>
<rect x="241.8" y="316.44167064068677" width="7.199999999999999" height="28.558329359313234" fill="#ff4444" opacity="0.3"/>
<rect x="253.8" y="316.974482609348" width="7.199999999999999" height="28.025517390652" fill="#44aa44" opacity="0.3"/>
<rect x="265.8" y="312.83025988669567" width="7.199999999999999" height="32.16974011330433" fill="#ff4444" opacity="0.3"/>
<rect x="277.8" y="309.6470760718605" width="7.199999999999999" height="35.35292392813949" fill="#44aa44" opacity="0.3"/>
<rect x="289.8" y="316.6146617839885" width="7.199999999999999" height="28.38533821601152" fill="#44aa44" opacity="0.3"/>
<rect x="301.8" y="306.62407607169325" width="7.199999999999999" height="38.37592392830675" fill="#44aa44" opacity="0.3"/>
<rect x="313.8" y="320.14276280343967" width="7.199999999999999" height="24.857237196560334" fill="#44aa44" opacity="0.3"/>
<rect x="325.8" y="320.720168964573" width="7.199999999999999" height="24.27983103542698" fill="#44aa44" opacity="0.3"/>
<rect x="337.8" y="320.52505196613214" width="7.199999999999999" height="24.47494803386786" fill="#44aa44" opacity="0.3"/>
<rect x="349.8" y="303.22417253542034" width="7.199999999999999" height="41.77582746457966" fill="#44aa44" opacity="0.3"/>
<rect x="361.8" y="317.61280920204075" width="7.199999999999999" height="27.38719079795925" fill="#ff4444" opacity="0.3"/>
<rect x="373.8" y="318.1673104551325" width="7.199999999999999" height="26.832689544867492" fill="#ff4444" opacity="0.3"/>
<rect x="385.8" y="300.0" width="7.199999999999999" height="45.0" fill="#ff4444" opacity="0.3"/>
<rect x="397.8" y="314.1082867643972" width="7.199999999999999" height="30.891713235602822" fill="#ff4444" opacity="0.3"/>
<rect x="409.8" y="313.3540130131525" width="7.199999999999999" height="31.645986986847504" fill="#ff4444" opacity="0.3"/>
<rect x="421.8" y="311.64052943481823" width="7.199999999999999" height="33.359470565181766" fill="#ff4444" opacity="0.3"/>
<rect x="433.8" y="308.369354040947" width="7.199999999999999" height="36.63064595905303" fill="#ff4444" opacity="0.3"/>
<rect x="445.8" y="308.65568044562997" width="7.199999999999999" height="36.34431955437003" fill="#ff4444" opacity="0.3"/>
<rect x="457.8" y="310.86372336605046" width="7.199999999999999" height="34.136276633949535" fill="#44aa44" opacity="0.3"/>
<rect x="469.8" y="314.0989569472701" width="7.199999999999999" height="30.901043052729904" fill="#44aa44" opacity="0.3"/>
<rect x="481.8" y="319.63908816604004" width="7.199999999999999" height="25.36091183395996" fill="#44aa44" opacity="0.3"/>
<rect x="493.8" y="312.6379015635086" width="7.199999999999999" height="32.36209843649141" fill="#ff4444" opacity="0.3"/>
<rect x="505.8" y="310.02394573610087" width="7.199999999999999" height="34.97605426389913" fill="#ff4444" opacity="0.3"/>
<rect x="517.8" y="311.8993932838029" width="7.199999999999999" height="33.10060671619709" fill="#44aa44" opacity="0.3"/>
<rect x="529.8" y="308.743792457965" width="7.199999999999999" height="36.256207542034986" fill="#ff4444" opacity="0.3"/>
<rect x="541.8" y="314.6656407812575" width="7.199999999999999" height="30.33435921874252" fill="#ff4444" opacity="0.3"/>
<rect x="553.8" y="314.56198158273776" width="7.199999999999999" height="30.438018417262242" fill="#44aa44" opacity="0.3"/>
<rect x="565.8" y="318.39433098717" width="7.199999999999999" height="26.605669012829992" fill="#ff4444" opacity="0.3"/>
<rect x="577.8" y="321.100241401857" width="7.199999999999999" height="23.899758598143023" fill="#44aa44" opacity="0.3"/>
<rect x="589.8" y="312.0291187644614" width="7.199999999999999" height="32.97088123553863" fill="#ff4444" opacity="0.3"/>
<rect x="601.8" y="321.45967834607615" width="7.199999999999999" height="23.540321653923854" fill="#ff4444" opacity="0.3"/>
<rect x="613.8" y="324.5418750762117" width="7.199999999999999" height="20.45812492378832" fill="#ff4444" opacity="0.3"/>
<rect x="625.8" y="323.65677312691514" width="7.199999999999999" height="21.34322687308486" fill="#ff4444" opacity="0.3"/>
<rect x="637.8" y="310.70523690818953" width="7.199999999999999" height="34.29476309181047" fill="#ff4444" opacity="0.3"/>
<rect x="649.8" y="316.9277093268732" width="7.199999999999999" height="28.072290673126815" fill="#ff4444" opacity="0.3"/>
<rect x="661.8" y="322.5001768864078" width="7.199999999999999" height="22.499823113592186" fill="#44aa44" opacity="0.3"/>
<rect x="673.8" y="318.4510550709695" width="7.199999999999999" height="26.548944929030483" fill="#ff4444" opacity="0.3"/>
<rect x="685.8" y="329.1596001313392" width="7.199999999999999" height="15.840399868660825" fill="#ff4444" opacity="0.3"/>
<rect x="697.8" y="327.7851889790819" width="7.199999999999999" height="17.21481102091809" fill="#ff4444" opacity="0.3"/>
<rect x="709.8" y="326.8924771507087" width="7.199999999999999" height="18.107522849291286" fill="#ff4444" opacity="0.3"/>
<rect x="721.8" y="323.16694831889333" width="7.199999999999999" height="21.833051681106667" fill="#44aa44" opacity="0.3"/>
<rect x="733.8" y="310.37166301491715" width="7.199999999999999" height="34.62833698508285" fill="#ff4444" opacity="0.3"/>
<rect x="745.8" y="307.7597658442132" width="7.199999999999999" height="37.24023415578682" fill="#44aa44" opacity="0.3"/>
<rect x="757.8" y="314.15552672590536" width="7.199999999999999" height="30.84447327409464" fill="#ff4444" opacity="0.3"/>
<rect x="769.8" y="304.8302258475619" width="7.199999999999999" height="40.169774152438094" fill="#ff4444" opacity="0.3"/>
<polyline points="66.0,264.59 78.0,267.71 90.0,271.56 102.0,276.76 114.0,277.45 126.0,278.53 138.0,279.77 150.0,275.97 162.0,274.05 174.0,269.82 186.0,255.92 198.0,242.05 210.0,240.67 222.0,237.60 234.0,229.58 246.0,218.98 258.0,222.01 270.0,205.81 282.0,198.81 294.0,196.90 306.0,202.80 318.0,211.45 330.0,219.46 342.0,221.93 354.0,234.50 366.0,239.78 378.0,239.08 390.0,237.33 402.0,233.38 414.0,228.62 426.0,221.18 438.0,203.28 450.0,188.77 462.0,185.66 474.0,188.04 486.0,189.28 498.0,187.32 510.0,180.45 522.0,185.61 534.0,178.60 546.0,165.39 558.0,156.09 570.0,148.11 582.0,143.48 594.0,129.89 606.0,119.32 618.0,117.58 630.0,113.08 642.0,102.22 654.0,92.13 666.0,101.29 678.0,106.71 690.0,109.98 702.0,109.46 714.0,108.01 726.0,110.05 738.0,97.02 750.0,91.86 762.0,84.65 774.0,69.17" fill="none" stroke="#ffd700" stroke-width="0.8" opacity="0.7"/>
<polyline points="66.0,264.59 78.0,266.29 90.0,268.65 102.0,272.02 114.0,273.26 126.0,274.60 138.0,276.00 150.0,274.61 162.0,273.81 174.0,271.55 186.0,263.65 198.0,254.68 210.0,251.63 222.0,247.97 234.0,241.70 246.0,233.72 258.0,232.69 270.0,221.91 282.0,215.17 294.0,211.15 306.0,211.78 318.0,214.87 330.0,218.61 342.0,220.12 354.0,227.30 366.0,231.49 378.0,232.62 390.0,232.83 402.0,231.50 414.0,229.24 426.0,225.07 438.0,214.60 450.0,204.63 462.0,200.05 474.0,198.73 486.0,197.46 498.0,194.91 510.0,189.78 522.0,190.90 534.0,186.11 546.0,177.54 558.0,170.26 570.0,163.33 582.0,158.04 594.0,147.98 606.0,138.92 618.0,134.41 630.0,128.90 642.0,120.10 654.0,111.34 666.0,112.84 678.0,113.70 690.0,114.21 702.0,113.16 714.0,111.70 726.0,112.14 738.0,104.65 750.0,100.45 762.0,94.96 774.0,84.64" fill="none" stroke="#ff6b6b" stroke-width="0.8" opacity="0.7"/>
<polyline points="66.0,264.59 78.0,265.48 90.0,266.80 102.0,268.74 114.0,269.70 126.0,270.74 138.0,271.84 150.0,271.51 162.0,271.39 174.0,270.43 186.0,266.40 198.0,261.44 210.0,259.20 222.0,256.56 234.0,252.46 246.0,247.25 258.0,245.43 270.0,238.57 282.0,233.45 294.0,229.60 306.0,228.18 318.0,228.23 330.0,228.92 342.0,228.73 354.0,231.67 366.0,233.45 378.0,233.85 390.0,233.85 402.0,233.05 414.0,231.72 426.0,229.30 438.0,223.41 450.0,217.35 462.0,213.74 474.0,211.74 486.0,209.84 498.0,207.32 510.0,203.45 522.0,202.74 534.0,199.11 546.0,193.38 558.0,188.06 570.0,182.73 582.0,178.11 594.0,170.93 606.0,164.00 618.0,159.25 630.0,154.00 642.0,147.00 654.0,139.85 666.0,137.92 678.0,135.98 690.0,134.13 702.0,131.68 714.0,129.15 726.0,127.72 738.0,122.31 750.0,118.43 762.0,113.84 774.0,106.64" fill="none" stroke="#4ecdc4" stroke-width="0.8" opacity="0.7"/>
<line x1="66.0" y1="260.3309972135438" x2="66.0" y2="273.6451912522165" stroke="#ff4444" stroke-width="0.5" opacity="0.6"/>
<rect x="63.0" y="264.59427509921477" width="6.0" height="4.559655492696038" fill="#ff4444" opacity="0.85"/>
<line x1="78.0" y1="265.3922148104365" x2="78.0" y2="278.27324157730305" stroke="#44aa44" stroke-width="0.5" opacity="0.6"/>
<rect x="75.0" y="273.71358608460696" width="6.0" height="0.5" fill="#44aa44" opacity="0.85"/>
<line x1="90.0" y1="261.5849024740353" x2="90.0" y2="280.5530693236511" stroke="#44aa44" stroke-width="0.5" opacity="0.6"/>
<rect x="87.0" y="265.3238199780461" width="6.0" height="13.929747530186603" fill="#44aa44" opacity="0.85"/>
<line x1="102.0" y1="279.1851726758423" x2="102.0" y2="291.9294097779279" stroke="#ff4444" stroke-width="0.5" opacity="0.6"/>
<rect x="99.0" y="287.1645697880605" width="6.0" height="1.6186776999070958" fill="#ff4444" opacity="0.85"/>
<line x1="114.0" y1="268.6979650426412" x2="114.0" y2="285.1355230938107" stroke="#ff4444" stroke-width="0.5" opacity="0.6"/>
<rect x="111.0" y="278.84319851389006" width="6.0" height="4.308874440597776" fill="#ff4444" opacity="0.85"/>
<line x1="126.0" y1="271.8897238875285" x2="126.0" y2="285.11272481634717" stroke="#44aa44" stroke-width="0.5" opacity="0.6"/>
<rect x="123.0" y="280.5530693236511" width="6.0" height="0.5" fill="#44aa44" opacity="0.85"/>
<line x1="138.0" y1="279.504348560331" x2="138.0" y2="300.0" stroke="#ff4444" stroke-width="0.5" opacity="0.6"/>
<rect x="135.0" y="282.26294013341214" width="6.0" height="9.005319598074777" fill="#ff4444" opacity="0.85"/>
<line x1="150.0" y1="259.39626783754113" x2="150.0" y2="277.133327704129" stroke="#ff4444" stroke-width="0.5" opacity="0.6"/>
<rect x="147.0" y="268.35599088068903" width="6.0" height="7.0674660136789385" fill="#ff4444" opacity="0.85"/>
<line x1="162.0" y1="256.4096934898252" x2="162.0" y2="273.4172084775817" stroke="#44aa44" stroke-width="0.5" opacity="0.6"/>
<rect x="159.0" y="269.1539305919108" width="6.0" height="1.0715190407836417" fill="#44aa44" opacity="0.85"/>
<line x1="174.0" y1="258.8947057333446" x2="174.0" y2="271.93532044245546" stroke="#ff4444" stroke-width="0.5" opacity="0.6"/>
<rect x="171.0" y="261.35691969940046" width="6.0" height="3.647724394156967" fill="#ff4444" opacity="0.85"/>
<line x1="186.0" y1="207.37059866587862" x2="186.0" y2="271.0233893439162" stroke="#ff4444" stroke-width="0.5" opacity="0.6"/>
<rect x="183.0" y="228.11703115764587" width="6.0" height="38.392299248501246" fill="#ff4444" opacity="0.85"/>
<line x1="198.0" y1="211.01832306003547" x2="198.0" y2="252.6707759858144" stroke="#ff4444" stroke-width="0.5" opacity="0.6"/>
<rect x="195.0" y="214.30127501477668" width="6.0" height="22.707084353626612" fill="#ff4444" opacity="0.85"/>
<line x1="210.0" y1="216.7178924259056" x2="210.0" y2="243.80224605252047" stroke="#44aa44" stroke-width="0.5" opacity="0.6"/>
<rect x="207.0" y="216.87748036814995" width="6.0" height="21.042810098792557" fill="#44aa44" opacity="0.85"/>
<line x1="222.0" y1="221.30034619606516" x2="222.0" y2="246.3556531284303" stroke="#ff4444" stroke-width="0.5" opacity="0.6"/>
<rect x="219.0" y="231.4683779447775" width="6.0" height="3.8757071687916778" fill="#ff4444" opacity="0.85"/>
<line x1="234.0" y1="193.91961496242507" x2="234.0" y2="239.47057333445915" stroke="#ff4444" stroke-width="0.5" opacity="0.6"/>
<rect x="231.0" y="213.5261335810183" width="6.0" height="25.944439753440832" fill="#ff4444" opacity="0.85"/>
<line x1="246.0" y1="175.93177404373895" x2="246.0" y2="222.18947901714094" stroke="#ff4444" stroke-width="0.5" opacity="0.6"/>
<rect x="243.0" y="197.79532213121675" width="6.0" height="21.2023980410369" fill="#ff4444" opacity="0.85"/>
<line x1="258.0" y1="206.48146584480284" x2="258.0" y2="237.37313180781896" stroke="#44aa44" stroke-width="0.5" opacity="0.6"/>
<rect x="255.0" y="212.15823693320948" width="6.0" height="15.913197669509401" fill="#44aa44" opacity="0.85"/>
<line x1="270.0" y1="167.42801654986067" x2="270.0" y2="230.39685890399392" stroke="#ff4444" stroke-width="0.5" opacity="0.6"/>
<rect x="267.0" y="173.40116524529256" width="6.0" height="45.1405893776915" fill="#ff4444" opacity="0.85"/>
<line x1="282.0" y1="143.78620282023132" x2="282.0" y2="188.7216077007515" stroke="#44aa44" stroke-width="0.5" opacity="0.6"/>
<rect x="279.0" y="175.17943088744406" width="6.0" height="9.620873089588798" fill="#44aa44" opacity="0.85"/>
<line x1="294.0" y1="162.0020265135523" x2="294.0" y2="194.4439753440851" stroke="#44aa44" stroke-width="0.5" opacity="0.6"/>
<rect x="291.0" y="185.9402178502069" width="6.0" height="7.135860846069363" fill="#44aa44" opacity="0.85"/>
<line x1="306.0" y1="196.4730220383349" x2="306.0" y2="217.49303385966397" stroke="#44aa44" stroke-width="0.5" opacity="0.6"/>
<rect x="303.0" y="205.63792957865402" width="6.0" height="8.982521320611369" fill="#44aa44" opacity="0.85"/>
<line x1="318.0" y1="217.62982352444484" x2="318.0" y2="229.25694503081988" stroke="#44aa44" stroke-width="0.5" opacity="0.6"/>
<rect x="315.0" y="222.14388246221395" width="6.0" height="6.6115004644093744" fill="#44aa44" opacity="0.85"/>
<line x1="330.0" y1="222.2122772946044" x2="330.0" y2="240.65608376256014" stroke="#44aa44" stroke-width="0.5" opacity="0.6"/>
<rect x="327.0" y="229.0289622561851" width="6.0" height="6.429114244701481" fill="#44aa44" opacity="0.85"/>
<line x1="342.0" y1="221.32314447352869" x2="342.0" y2="238.14827324157733" stroke="#44aa44" stroke-width="0.5" opacity="0.6"/>
<rect x="339.0" y="222.00709279743307" width="6.0" height="4.878831377184866" fill="#44aa44" opacity="0.85"/>
<line x1="354.0" y1="234.95651439669004" x2="354.0" y2="263.27197500633287" stroke="#44aa44" stroke-width="0.5" opacity="0.6"/>
<rect x="351.0" y="234.95651439669004" width="6.0" height="24.69053449294941" fill="#44aa44" opacity="0.85"/>
<line x1="366.0" y1="244.18981676939964" x2="366.0" y2="263.27197500633287" stroke="#ff4444" stroke-width="0.5" opacity="0.6"/>
<rect x="363.0" y="250.32255340707587" width="6.0" height="9.48408342480792" fill="#ff4444" opacity="0.85"/>
<line x1="378.0" y1="227.36468800135097" x2="378.0" y2="248.63548087477835" stroke="#ff4444" stroke-width="0.5" opacity="0.6"/>
<rect x="375.0" y="237.69230769230768" width="6.0" height="7.500633285485094" fill="#ff4444" opacity="0.85"/>
<line x1="390.0" y1="225.44963269441868" x2="390.0" y2="250.64172929156462" stroke="#ff4444" stroke-width="0.5" opacity="0.6"/>
<rect x="387.0" y="233.816600523516" width="6.0" height="1.139913873174038" fill="#ff4444" opacity="0.85"/>
<line x1="402.0" y1="212.20383348813647" x2="402.0" y2="238.0570801317234" stroke="#ff4444" stroke-width="0.5" opacity="0.6"/>
<rect x="399.0" y="225.47243097188212" width="6.0" height="9.620873089588798" fill="#ff4444" opacity="0.85"/>
<line x1="414.0" y1="206.96022967153593" x2="414.0" y2="230.39685890399392" stroke="#ff4444" stroke-width="0.5" opacity="0.6"/>
<rect x="411.0" y="219.11171155957106" width="6.0" height="9.005319598074806" fill="#ff4444" opacity="0.85"/>
<line x1="426.0" y1="197.79532213121675" x2="426.0" y2="225.81440513383436" stroke="#ff4444" stroke-width="0.5" opacity="0.6"/>
<rect x="423.0" y="206.299079625095" width="6.0" height="15.662416617411168" fill="#ff4444" opacity="0.85"/>
<line x1="438.0" y1="153.33868107742967" x2="438.0" y2="207.59858144051339" stroke="#ff4444" stroke-width="0.5" opacity="0.6"/>
<rect x="435.0" y="167.47361310478763" width="6.0" height="33.17149370936417" fill="#ff4444" opacity="0.85"/>
<line x1="450.0" y1="143.8545976526218" x2="450.0" y2="175.11103605505363" stroke="#ff4444" stroke-width="0.5" opacity="0.6"/>
<rect x="447.0" y="159.76779532213126" width="6.0" height="2.4622139660558275" fill="#ff4444" opacity="0.85"/>
<line x1="462.0" y1="164.73781980916996" x2="462.0" y2="187.19412311069834" stroke="#44aa44" stroke-width="0.5" opacity="0.6"/>
<rect x="459.0" y="168.84150975259647" width="6.0" height="10.601199020518493" fill="#44aa44" opacity="0.85"/>
<line x1="474.0" y1="179.48830532804186" x2="474.0" y2="194.14759773705987" stroke="#44aa44" stroke-width="0.5" opacity="0.6"/>
<rect x="471.0" y="180.76500886599675" width="6.0" height="12.014692223254286" fill="#44aa44" opacity="0.85"/>
<line x1="486.0" y1="185.25626952630242" x2="486.0" y2="197.8409186861437" stroke="#44aa44" stroke-width="0.5" opacity="0.6"/>
<rect x="483.0" y="188.8128008106054" width="6.0" height="2.940977792789056" fill="#44aa44" opacity="0.85"/>
<line x1="498.0" y1="182.7484590053196" x2="498.0" y2="207.59858144051339" stroke="#ff4444" stroke-width="0.5" opacity="0.6"/>
<rect x="495.0" y="183.4096090517605" width="6.0" height="12.33386810774303" fill="#ff4444" opacity="0.85"/>
<line x1="510.0" y1="159.58540910242337" x2="510.0" y2="193.91961496242507" stroke="#ff4444" stroke-width="0.5" opacity="0.6"/>
<rect x="507.0" y="166.69847167102932" width="6.0" height="21.863548087477852" fill="#ff4444" opacity="0.85"/>
<line x1="522.0" y1="167.0404458329815" x2="522.0" y2="207.4617917757325" stroke="#44aa44" stroke-width="0.5" opacity="0.6"/>
<rect x="519.0" y="170.61977539474796" width="6.0" height="25.306087984463403" fill="#44aa44" opacity="0.85"/>
<line x1="534.0" y1="159.8361901545217" x2="534.0" y2="203.01612767035382" stroke="#ff4444" stroke-width="0.5" opacity="0.6"/>
<rect x="531.0" y="164.60103014438906" width="6.0" height="33.513467871316436" fill="#ff4444" opacity="0.85"/>
<line x1="546.0" y1="130.08443806467955" x2="546.0" y2="180.69661403360632" stroke="#ff4444" stroke-width="0.5" opacity="0.6"/>
<rect x="543.0" y="138.97576627543697" width="6.0" height="27.58591573081145" fill="#ff4444" opacity="0.85"/>
<line x1="558.0" y1="107.35455543358947" x2="558.0" y2="139.2037490500718" stroke="#44aa44" stroke-width="0.5" opacity="0.6"/>
<rect x="555.0" y="125.52478257198347" width="6.0" height="11.969095668327256" fill="#44aa44" opacity="0.85"/>
<line x1="570.0" y1="121.1247150215317" x2="570.0" y2="149.44017563117455" stroke="#ff4444" stroke-width="0.5" opacity="0.6"/>
<rect x="567.0" y="132.13628303639283" width="6.0" height="17.30389259478173" fill="#ff4444" opacity="0.85"/>
<line x1="582.0" y1="119.4832390441611" x2="582.0" y2="150.60288778181206" stroke="#44aa44" stroke-width="0.5" opacity="0.6"/>
<rect x="579.0" y="133.27619690956686" width="6.0" height="0.9347293760026787" fill="#44aa44" opacity="0.85"/>
<line x1="594.0" y1="76.02972219876719" x2="594.0" y2="131.49793126741537" stroke="#ff4444" stroke-width="0.5" opacity="0.6"/>
<rect x="591.0" y="102.72650510850292" width="6.0" height="25.944439753440832" fill="#ff4444" opacity="0.85"/>
<line x1="606.0" y1="95.88702186945876" x2="606.0" y2="117.43139407244784" stroke="#ff4444" stroke-width="0.5" opacity="0.6"/>
<rect x="603.0" y="98.16684961580681" width="6.0" height="4.559655492696109" fill="#ff4444" opacity="0.85"/>
<line x1="618.0" y1="101.17622224098623" x2="618.0" y2="122.51540994680404" stroke="#ff4444" stroke-width="0.5" opacity="0.6"/>
<rect x="615.0" y="114.10284556277973" width="6.0" height="0.5" fill="#ff4444" opacity="0.85"/>
<line x1="630.0" y1="100.56066874947228" x2="630.0" y2="123.51853415519719" stroke="#ff4444" stroke-width="0.5" opacity="0.6"/>
<rect x="627.0" y="104.09440175631174" width="6.0" height="7.751414337583398" fill="#ff4444" opacity="0.85"/>
<line x1="642.0" y1="77.03284640716033" x2="642.0" y2="125.52478257198347" stroke="#ff4444" stroke-width="0.5" opacity="0.6"/>
<rect x="639.0" y="80.4981845816094" width="6.0" height="29.751752089842128" fill="#ff4444" opacity="0.85"/>
<line x1="654.0" y1="62.966309212192876" x2="654.0" y2="108.4944693067635" stroke="#ff4444" stroke-width="0.5" opacity="0.6"/>
<rect x="651.0" y="71.94883053280421" width="6.0" height="30.77767457569871" fill="#ff4444" opacity="0.85"/>
<line x1="666.0" y1="71.90323397787722" x2="666.0" y2="120.96512707928736" stroke="#44aa44" stroke-width="0.5" opacity="0.6"/>
<rect x="663.0" y="72.06282192012162" width="6.0" height="47.534408511356915" fill="#44aa44" opacity="0.85"/>
<line x1="678.0" y1="99.07878071434605" x2="678.0" y2="135.92079709533058" stroke="#ff4444" stroke-width="0.5" opacity="0.6"/>
<rect x="675.0" y="117.54538545976527" width="6.0" height="1.139913873174038" fill="#ff4444" opacity="0.85"/>
<line x1="690.0" y1="114.1256438402432" x2="690.0" y2="135.7840074305497" stroke="#ff4444" stroke-width="0.5" opacity="0.6"/>
<rect x="687.0" y="116.51946297390867" width="6.0" height="11.262349066959374" fill="#ff4444" opacity="0.85"/>
<line x1="702.0" y1="101.63218779025588" x2="702.0" y2="130.92797433082836" stroke="#ff4444" stroke-width="0.5" opacity="0.6"/>
<rect x="699.0" y="108.42607447437305" width="6.0" height="10.23642658110279" fill="#ff4444" opacity="0.85"/>
<line x1="714.0" y1="87.49725576289791" x2="714.0" y2="117.6593768470827" stroke="#ff4444" stroke-width="0.5" opacity="0.6"/>
<rect x="711.0" y="105.1203242421684" width="6.0" height="5.129612429283128" fill="#ff4444" opacity="0.85"/>
<line x1="726.0" y1="75.36857215232628" x2="726.0" y2="120.5547580849447" stroke="#44aa44" stroke-width="0.5" opacity="0.6"/>
<rect x="723.0" y="98.23524444819725" width="6.0" height="15.89039939204595" fill="#44aa44" opacity="0.85"/>
<line x1="738.0" y1="53.25424301275018" x2="738.0" y2="111.84581609389514" stroke="#ff4444" stroke-width="0.5" opacity="0.6"/>
<rect x="735.0" y="70.96850460187451" width="6.0" height="36.317655999324515" fill="#ff4444" opacity="0.85"/>
<line x1="750.0" y1="40.16803174871234" x2="750.0" y2="92.46728024993668" stroke="#44aa44" stroke-width="0.5" opacity="0.6"/>
<rect x="747.0" y="57.129950181541844" width="6.0" height="24.394156885924147" fill="#44aa44" opacity="0.85"/>
<line x1="762.0" y1="60.32170902642913" x2="762.0" y2="105.00633285485098" stroke="#ff4444" stroke-width="0.5" opacity="0.6"/>
<rect x="759.0" y="70.23895972304317" width="6.0" height="7.614624672802506" fill="#ff4444" opacity="0.85"/>
<line x1="774.0" y1="30.0" x2="774.0" y2="83.11998648990968" stroke="#ff4444" stroke-width="0.5" opacity="0.6"/>
<rect x="771.0" y="38.207379886852976" width="6.0" height="31.46162289960317" fill="#ff4444" opacity="0.85"/>
<rect x="134.0" y="296.0" width="8" height="8" fill="#4caf50" opacity="0.85" rx="1"/>
<text x="138.0" y="294.0" text-anchor="middle" font-family="sans-serif" font-size="8" fill="#4caf50">前低</text>
<rect x="146.0" y="255.39626783754113" width="8" height="8" fill="#ff9800" opacity="0.85" rx="1"/>
<text x="150.0" y="253.39626783754113" text-anchor="middle" font-family="sans-serif" font-size="8" fill="#ff9800">前高</text>
<rect x="158.0" y="252.4096934898252" width="8" height="8" fill="#ff9800" opacity="0.85" rx="1"/>
<text x="162.0" y="250.4096934898252" text-anchor="middle" font-family="sans-serif" font-size="8" fill="#ff9800">前高</text>
<rect x="182.0" y="203.37059866587862" width="8" height="8" fill="#ff9800" opacity="0.85" rx="1"/>
<text x="186.0" y="201.37059866587862" text-anchor="middle" font-family="sans-serif" font-size="8" fill="#ff9800">前高</text>
<rect x="230.0" y="189.91961496242507" width="8" height="8" fill="#ff9800" opacity="0.85" rx="1"/>
<text x="234.0" y="187.91961496242507" text-anchor="middle" font-family="sans-serif" font-size="8" fill="#ff9800">前高</text>
<rect x="242.0" y="171.93177404373895" width="8" height="8" fill="#ff9800" opacity="0.85" rx="1"/>
<text x="246.0" y="169.93177404373895" text-anchor="middle" font-family="sans-serif" font-size="8" fill="#ff9800">前高</text>
<rect x="266.0" y="163.42801654986067" width="8" height="8" fill="#ff9800" opacity="0.85" rx="1"/>
<text x="270.0" y="161.42801654986067" text-anchor="middle" font-family="sans-serif" font-size="8" fill="#ff9800">前高</text>
<rect x="266.0" y="163.42801654986067" width="8" height="8" fill="#2196f3" opacity="0.85" rx="1"/>
<text x="270.0" y="161.42801654986067" text-anchor="middle" font-family="sans-serif" font-size="8" fill="#2196f3">突</text>
<rect x="278.0" y="139.78620282023132" width="8" height="8" fill="#ff9800" opacity="0.85" rx="1"/>
<text x="282.0" y="137.78620282023132" text-anchor="middle" font-family="sans-serif" font-size="8" fill="#ff9800">前高</text>
<rect x="350.0" y="259.27197500633287" width="8" height="8" fill="#4caf50" opacity="0.85" rx="1"/>
<text x="354.0" y="257.27197500633287" text-anchor="middle" font-family="sans-serif" font-size="8" fill="#4caf50">前低</text>
<rect x="362.0" y="259.27197500633287" width="8" height="8" fill="#4caf50" opacity="0.85" rx="1"/>
<text x="366.0" y="257.27197500633287" text-anchor="middle" font-family="sans-serif" font-size="8" fill="#4caf50">前低</text>
<rect x="434.0" y="149.33868107742967" width="8" height="8" fill="#ff9800" opacity="0.85" rx="1"/>
<text x="438.0" y="147.33868107742967" text-anchor="middle" font-family="sans-serif" font-size="8" fill="#ff9800">前高</text>
<rect x="434.0" y="149.33868107742967" width="8" height="8" fill="#2196f3" opacity="0.85" rx="1"/>
<text x="438.0" y="147.33868107742967" text-anchor="middle" font-family="sans-serif" font-size="8" fill="#2196f3">突</text>
<rect x="446.0" y="139.8545976526218" width="8" height="8" fill="#ff9800" opacity="0.85" rx="1"/>
<text x="450.0" y="137.8545976526218" text-anchor="middle" font-family="sans-serif" font-size="8" fill="#ff9800">前高</text>
<rect x="542.0" y="126.08443806467955" width="8" height="8" fill="#ff9800" opacity="0.85" rx="1"/>
<text x="546.0" y="124.08443806467955" text-anchor="middle" font-family="sans-serif" font-size="8" fill="#ff9800">前高</text>
<rect x="542.0" y="126.08443806467955" width="8" height="8" fill="#2196f3" opacity="0.85" rx="1"/>
<text x="546.0" y="124.08443806467955" text-anchor="middle" font-family="sans-serif" font-size="8" fill="#2196f3">突</text>
<rect x="554.0" y="103.35455543358947" width="8" height="8" fill="#ff9800" opacity="0.85" rx="1"/>
<text x="558.0" y="101.35455543358947" text-anchor="middle" font-family="sans-serif" font-size="8" fill="#ff9800">前高</text>
<rect x="590.0" y="72.02972219876719" width="8" height="8" fill="#ff9800" opacity="0.85" rx="1"/>
<text x="594.0" y="70.02972219876719" text-anchor="middle" font-family="sans-serif" font-size="8" fill="#ff9800">前高</text>
<rect x="650.0" y="58.966309212192876" width="8" height="8" fill="#ff9800" opacity="0.85" rx="1"/>
<text x="654.0" y="56.966309212192876" text-anchor="middle" font-family="sans-serif" font-size="8" fill="#ff9800">前高</text>
<rect x="650.0" y="58.966309212192876" width="8" height="8" fill="#2196f3" opacity="0.85" rx="1"/>
<text x="654.0" y="56.966309212192876" text-anchor="middle" font-family="sans-serif" font-size="8" fill="#2196f3">突</text>
<rect x="734.0" y="49.25424301275018" width="8" height="8" fill="#ff9800" opacity="0.85" rx="1"/>
<text x="738.0" y="47.25424301275018" text-anchor="middle" font-family="sans-serif" font-size="8" fill="#ff9800">前高</text>
<rect x="746.0" y="36.16803174871234" width="8" height="8" fill="#ff9800" opacity="0.85" rx="1"/>
<text x="750.0" y="34.16803174871234" text-anchor="middle" font-family="sans-serif" font-size="8" fill="#ff9800">前高</text>
<rect x="770.0" y="26.0" width="8" height="8" fill="#ff9800" opacity="0.85" rx="1"/>
<text x="774.0" y="24.0" text-anchor="middle" font-family="sans-serif" font-size="8" fill="#ff9800">前高</text>
<rect x="770.0" y="26.0" width="8" height="8" fill="#2196f3" opacity="0.85" rx="1"/>
<text x="774.0" y="24.0" text-anchor="middle" font-family="sans-serif" font-size="8" fill="#2196f3">突</text>
<text x="66.0" y="359" text-anchor="middle" font-family="sans-serif" font-size="8" fill="#666666" transform="rotate(-40,66.0,359)">02/27</text>
<text x="138.0" y="359" text-anchor="middle" font-family="sans-serif" font-size="8" fill="#666666" transform="rotate(-40,138.0,359)">03/09</text>
<text x="210.0" y="359" text-anchor="middle" font-family="sans-serif" font-size="8" fill="#666666" transform="rotate(-40,210.0,359)">03/17</text>
<text x="282.0" y="359" text-anchor="middle" font-family="sans-serif" font-size="8" fill="#666666" transform="rotate(-40,282.0,359)">03/25</text>
<text x="354.0" y="359" text-anchor="middle" font-family="sans-serif" font-size="8" fill="#666666" transform="rotate(-40,354.0,359)">04/02</text>
<text x="426.0" y="359" text-anchor="middle" font-family="sans-serif" font-size="8" fill="#666666" transform="rotate(-40,426.0,359)">04/13</text>
<text x="498.0" y="359" text-anchor="middle" font-family="sans-serif" font-size="8" fill="#666666" transform="rotate(-40,498.0,359)">04/21</text>
<text x="570.0" y="359" text-anchor="middle" font-family="sans-serif" font-size="8" fill="#666666" transform="rotate(-40,570.0,359)">04/29</text>
<text x="642.0" y="359" text-anchor="middle" font-family="sans-serif" font-size="8" fill="#666666" transform="rotate(-40,642.0,359)">05/12</text>
<text x="714.0" y="359" text-anchor="middle" font-family="sans-serif" font-size="8" fill="#666666" transform="rotate(-40,714.0,359)">05/20</text>
<text x="774.0" y="359" text-anchor="middle" font-family="sans-serif" font-size="8" fill="#666666" transform="rotate(-40,774.0,359)">05/27</text>
<text x="400.0" y="396" text-anchor="middle" font-family="sans-serif" font-size="9" fill="#555555">数据截至: 2026-05-27 20:56  |  最新K线: 20260527</text>
<rect x="50" y="373" width="8" height="8" fill="#ffd700" opacity="0.8" rx="1"/>
<text x="61" y="380" font-family="sans-serif" font-size="9" fill="#888888">EMA5</text>
<rect x="150" y="373" width="8" height="8" fill="#ff6b6b" opacity="0.8" rx="1"/>
<text x="161" y="380" font-family="sans-serif" font-size="9" fill="#888888">EMA10</text>
<rect x="250" y="373" width="8" height="8" fill="#4ecdc4" opacity="0.8" rx="1"/>
<text x="261" y="380" font-family="sans-serif" font-size="9" fill="#888888">EMA20</text>
<rect x="350" y="373" width="8" height="8" fill="#2196f3" opacity="0.8" rx="1"/>
<text x="361" y="380" font-family="sans-serif" font-size="9" fill="#888888">突破</text>
<rect x="450" y="373" width="8" height="8" fill="#ff9800" opacity="0.8" rx="1"/>
<text x="461" y="380" font-family="sans-serif" font-size="9" fill="#888888">前高/量</text>
<rect x="550" y="373" width="8" height="8" fill="#4caf50" opacity="0.8" rx="1"/>
<text x="561" y="380" font-family="sans-serif" font-size="9" fill="#888888">前低</text>
</svg>