<svg xmlns="http://www.w3.org/2000/svg" width="800" height="400" viewBox="0 0 800 400">
<rect width="800" height="400" fill="#1a1a2e"/>
<text x="400.0" y="20" text-anchor="middle" font-family="sans-serif" font-size="14" fill="#ffffff" font-weight="bold">兴森科技(002436) K线图</text>
<line x1="60" y1="30.0" x2="780" y2="30.0" stroke="#2a2a4e" stroke-width="0.5"/>
<text x="55" y="33.0" text-anchor="end" font-family="sans-serif" font-size="8" fill="#666666">38.20</text>
<line x1="60" y1="83.99999999999999" x2="780" y2="83.99999999999999" stroke="#2a2a4e" stroke-width="0.5"/>
<text x="55" y="86.99999999999999" text-anchor="end" font-family="sans-serif" font-size="8" fill="#666666">34.46</text>
<line x1="60" y1="137.99999999999997" x2="780" y2="137.99999999999997" stroke="#2a2a4e" stroke-width="0.5"/>
<text x="55" y="140.99999999999997" text-anchor="end" font-family="sans-serif" font-size="8" fill="#666666">30.72</text>
<line x1="60" y1="192.00000000000003" x2="780" y2="192.00000000000003" stroke="#2a2a4e" stroke-width="0.5"/>
<text x="55" y="195.00000000000003" text-anchor="end" font-family="sans-serif" font-size="8" fill="#666666">26.99</text>
<line x1="60" y1="246.0" x2="780" y2="246.0" stroke="#2a2a4e" stroke-width="0.5"/>
<text x="55" y="249.0" text-anchor="end" font-family="sans-serif" font-size="8" fill="#666666">23.25</text>
<line x1="60" y1="300.0" x2="780" y2="300.0" stroke="#2a2a4e" stroke-width="0.5"/>
<text x="55" y="303.0" text-anchor="end" font-family="sans-serif" font-size="8" fill="#666666">19.51</text>
<line x1="60" y1="300" x2="780" y2="300" stroke="#2a2a4e" stroke-width="0.5"/>
<line x1="60" y1="345" x2="780" y2="345" stroke="#2a2a4e" stroke-width="0.5"/>
<rect x="61.8" y="309.6944644785408" width="7.199999999999999" height="35.305535521459205" fill="#ff4444" opacity="0.3"/>
<rect x="73.8" y="318.72884037001194" width="7.199999999999999" height="26.271159629988063" fill="#ff4444" opacity="0.3"/>
<rect x="85.8" y="322.81472856837837" width="7.199999999999999" height="22.18527143162163" fill="#44aa44" opacity="0.3"/>
<rect x="97.8" y="319.8492349318413" width="7.199999999999999" height="25.150765068158705" fill="#ff4444" opacity="0.3"/>
<rect x="109.8" y="320.0129342284651" width="7.199999999999999" height="24.9870657715349" fill="#44aa44" opacity="0.3"/>
<rect x="121.8" y="322.7653877100809" width="7.199999999999999" height="22.234612289919085" fill="#ff4444" opacity="0.3"/>
<rect x="133.8" y="324.70531006130693" width="7.199999999999999" height="20.294689938693068" fill="#44aa44" opacity="0.3"/>
<rect x="145.8" y="329.4495792256387" width="7.199999999999999" height="15.550420774361328" fill="#44aa44" opacity="0.3"/>
<rect x="157.8" y="315.8035479893662" width="7.199999999999999" height="29.196452010633777" fill="#44aa44" opacity="0.3"/>
<rect x="169.8" y="328.8249767889364" width="7.199999999999999" height="16.175023211063603" fill="#ff4444" opacity="0.3"/>
<rect x="181.8" y="332.33096449954235" width="7.199999999999999" height="12.669035500457653" fill="#44aa44" opacity="0.3"/>
<rect x="193.8" y="332.3357605265783" width="7.199999999999999" height="12.664239473421674" fill="#44aa44" opacity="0.3"/>
<rect x="205.8" y="327.1535827293936" width="7.199999999999999" height="17.846417270606423" fill="#ff4444" opacity="0.3"/>
<rect x="217.8" y="328.4726208987954" width="7.199999999999999" height="16.527379101204588" fill="#ff4444" opacity="0.3"/>
<rect x="229.8" y="326.1332740988157" width="7.199999999999999" height="18.86672590118428" fill="#44aa44" opacity="0.3"/>
<rect x="241.8" y="331.4259018843621" width="7.199999999999999" height="13.574098115637923" fill="#ff4444" opacity="0.3"/>
<rect x="253.8" y="333.0635014666067" width="7.199999999999999" height="11.93649853339332" fill="#44aa44" opacity="0.3"/>
<rect x="265.8" y="331.96538375041786" width="7.199999999999999" height="13.034616249582143" fill="#44aa44" opacity="0.3"/>
<rect x="277.8" y="331.40436337368544" width="7.199999999999999" height="13.595636626314558" fill="#44aa44" opacity="0.3"/>
<rect x="289.8" y="333.81488960196856" width="7.199999999999999" height="11.18511039803144" fill="#ff4444" opacity="0.3"/>
<rect x="301.8" y="335.20675339130923" width="7.199999999999999" height="9.793246608690765" fill="#ff4444" opacity="0.3"/>
<rect x="313.8" y="336.2515560382018" width="7.199999999999999" height="8.748443961798216" fill="#44aa44" opacity="0.3"/>
<rect x="325.8" y="338.07248379819634" width="7.199999999999999" height="6.927516201803655" fill="#ff4444" opacity="0.3"/>
<rect x="337.8" y="337.40670195944256" width="7.199999999999999" height="7.593298040557443" fill="#ff4444" opacity="0.3"/>
<rect x="349.8" y="335.78086789251415" width="7.199999999999999" height="9.219132107485848" fill="#44aa44" opacity="0.3"/>
<rect x="361.8" y="336.7853493779172" width="7.199999999999999" height="8.214650622082786" fill="#ff4444" opacity="0.3"/>
<rect x="373.8" y="334.903655862839" width="7.199999999999999" height="10.096344137160997" fill="#44aa44" opacity="0.3"/>
<rect x="385.8" y="337.93379850259106" width="7.199999999999999" height="7.06620149740894" fill="#44aa44" opacity="0.3"/>
<rect x="397.8" y="334.9908673981032" width="7.199999999999999" height="10.009132601896795" fill="#ff4444" opacity="0.3"/>
<rect x="409.8" y="329.1575890114756" width="7.199999999999999" height="15.84241098852442" fill="#ff4444" opacity="0.3"/>
<rect x="421.8" y="329.51998507578924" width="7.199999999999999" height="15.480014924210764" fill="#ff4444" opacity="0.3"/>
<rect x="433.8" y="323.7824000196014" width="7.199999999999999" height="21.217599980398575" fill="#ff4444" opacity="0.3"/>
<rect x="445.8" y="304.79095812032824" width="7.199999999999999" height="40.20904187967176" fill="#ff4444" opacity="0.3"/>
<rect x="457.8" y="300.03766571518076" width="7.199999999999999" height="44.962334284819235" fill="#ff4444" opacity="0.3"/>
<rect x="469.8" y="320.262955711278" width="7.199999999999999" height="24.737044288722018" fill="#44aa44" opacity="0.3"/>
<rect x="481.8" y="326.7643158008495" width="7.199999999999999" height="18.235684199150512" fill="#ff4444" opacity="0.3"/>
<rect x="493.8" y="316.77422003388244" width="7.199999999999999" height="28.225779966117557" fill="#ff4444" opacity="0.3"/>
<rect x="505.8" y="319.8258257757002" width="7.199999999999999" height="25.174174224299804" fill="#44aa44" opacity="0.3"/>
<rect x="517.8" y="313.2252722541815" width="7.199999999999999" height="31.774727745818495" fill="#ff4444" opacity="0.3"/>
<rect x="529.8" y="311.8989696562925" width="7.199999999999999" height="33.10103034370752" fill="#44aa44" opacity="0.3"/>
<rect x="541.8" y="321.8282742694531" width="7.199999999999999" height="23.171725730546882" fill="#44aa44" opacity="0.3"/>
<rect x="553.8" y="314.2167584535525" width="7.199999999999999" height="30.783241546447528" fill="#ff4444" opacity="0.3"/>
<rect x="565.8" y="305.91097701732804" width="7.199999999999999" height="39.08902298267196" fill="#ff4444" opacity="0.3"/>
<rect x="577.8" y="315.64965161528" width="7.199999999999999" height="29.350348384720007" fill="#44aa44" opacity="0.3"/>
<rect x="589.8" y="323.7741635485232" width="7.199999999999999" height="21.225836451476823" fill="#44aa44" opacity="0.3"/>
<rect x="601.8" y="317.78158476654176" width="7.199999999999999" height="27.218415233458245" fill="#ff4444" opacity="0.3"/>
<rect x="613.8" y="303.5076524098378" width="7.199999999999999" height="41.49234759016218" fill="#44aa44" opacity="0.3"/>
<rect x="625.8" y="309.6906434474358" width="7.199999999999999" height="35.309356552564225" fill="#ff4444" opacity="0.3"/>
<rect x="637.8" y="317.0524606790144" width="7.199999999999999" height="27.947539320985584" fill="#44aa44" opacity="0.3"/>
<rect x="649.8" y="315.45941675694405" width="7.199999999999999" height="29.54058324305595" fill="#44aa44" opacity="0.3"/>
<rect x="661.8" y="317.22778845598515" width="7.199999999999999" height="27.77221154401485" fill="#44aa44" opacity="0.3"/>
<rect x="673.8" y="314.58239846636343" width="7.199999999999999" height="30.41760153363657" fill="#ff4444" opacity="0.3"/>
<rect x="685.8" y="318.2913461891853" width="7.199999999999999" height="26.708653810814724" fill="#44aa44" opacity="0.3"/>
<rect x="697.8" y="318.01749755419706" width="7.199999999999999" height="26.982502445802936" fill="#44aa44" opacity="0.3"/>
<rect x="709.8" y="316.6559517673661" width="7.199999999999999" height="28.344048232633895" fill="#ff4444" opacity="0.3"/>
<rect x="721.8" y="321.0367382352066" width="7.199999999999999" height="23.9632617647934" fill="#ff4444" opacity="0.3"/>
<rect x="733.8" y="319.1986779538211" width="7.199999999999999" height="25.801322046178882" fill="#ff4444" opacity="0.3"/>
<rect x="745.8" y="300.0" width="7.199999999999999" height="45.0" fill="#44aa44" opacity="0.3"/>
<rect x="757.8" y="307.78671679614695" width="7.199999999999999" height="37.21328320385305" fill="#44aa44" opacity="0.3"/>
<rect x="769.8" y="305.8448564633077" width="7.199999999999999" height="39.15514353669232" fill="#ff4444" opacity="0.3"/>
<polyline points="66.0,201.91 78.0,199.31 90.0,201.77 102.0,201.48 114.0,210.00 126.0,214.72 138.0,214.16 150.0,215.90 162.0,223.52 174.0,224.55 186.0,226.06 198.0,230.72 210.0,232.48 222.0,233.75 234.0,241.00 246.0,242.90 258.0,247.97 270.0,254.91 282.0,265.46 294.0,270.33 306.0,272.56 318.0,276.27 330.0,278.45 342.0,280.58 354.0,284.45 366.0,284.29 378.0,288.37 390.0,291.57 402.0,290.72 414.0,283.03 426.0,276.31 438.0,267.69 450.0,250.92 462.0,238.82 474.0,234.22 486.0,230.05 498.0,221.39 510.0,213.69 522.0,200.57 534.0,189.80 546.0,183.72 558.0,179.09 570.0,172.59 582.0,174.76 594.0,178.22 606.0,179.33 618.0,171.59 630.0,152.23 642.0,141.29 654.0,128.42 666.0,118.48 678.0,108.30 690.0,108.64 702.0,114.74 714.0,108.59 726.0,108.25 738.0,104.61 750.0,103.38 762.0,92.31 774.0,71.92" fill="none" stroke="#ffd700" stroke-width="0.8" opacity="0.7"/>
<polyline points="66.0,201.91 78.0,200.49 90.0,201.62 102.0,201.49 114.0,206.13 126.0,209.41 138.0,210.07 150.0,211.76 162.0,216.67 174.0,218.48 186.0,220.40 198.0,223.98 210.0,226.16 222.0,228.00 234.0,233.00 246.0,235.49 258.0,239.60 270.0,244.91 282.0,252.49 294.0,257.50 306.0,261.05 318.0,265.16 330.0,268.37 342.0,271.37 354.0,275.15 366.0,276.76 378.0,280.35 390.0,283.56 402.0,284.55 414.0,281.48 426.0,278.09 438.0,273.07 450.0,262.94 462.0,254.15 474.0,248.86 486.0,243.92 498.0,236.68 510.0,229.70 522.0,219.63 534.0,210.29 546.0,203.25 558.0,197.17 570.0,190.34 582.0,188.29 594.0,187.72 606.0,186.60 618.0,181.06 630.0,168.77 642.0,159.80 654.0,149.41 666.0,140.18 678.0,130.68 690.0,126.79 702.0,126.82 714.0,121.27 726.0,118.78 738.0,114.88 750.0,112.34 762.0,104.67 774.0,91.31" fill="none" stroke="#ff6b6b" stroke-width="0.8" opacity="0.7"/>
<polyline points="66.0,201.91 78.0,201.17 90.0,201.69 102.0,201.62 114.0,204.04 126.0,205.95 138.0,206.63 150.0,207.84 162.0,210.79 174.0,212.29 186.0,213.89 198.0,216.38 210.0,218.25 222.0,219.97 234.0,223.35 246.0,225.58 258.0,228.67 270.0,232.50 282.0,237.65 294.0,241.69 306.0,245.05 318.0,248.73 330.0,251.98 342.0,255.10 354.0,258.64 366.0,261.05 378.0,264.43 390.0,267.62 402.0,269.66 414.0,269.47 426.0,268.84 438.0,267.09 450.0,262.35 462.0,257.81 474.0,254.69 486.0,251.54 498.0,247.02 510.0,242.38 522.0,235.90 534.0,229.46 546.0,223.95 558.0,218.79 570.0,213.15 582.0,209.91 594.0,207.55 606.0,205.07 618.0,200.41 630.0,192.13 642.0,185.21 654.0,177.35 666.0,169.85 678.0,162.05 690.0,157.03 702.0,154.16 714.0,148.65 726.0,144.74 738.0,140.22 750.0,136.48 762.0,130.16 774.0,120.73" fill="none" stroke="#4ecdc4" stroke-width="0.8" opacity="0.7"/>
<line x1="66.0" y1="195.55377207062605" x2="66.0" y2="225.024077046549" stroke="#ff4444" stroke-width="0.5" opacity="0.6"/>
<rect x="63.0" y="201.9101123595506" width="6.0" height="20.22471910112361" fill="#ff4444" opacity="0.85"/>
<line x1="78.0" y1="186.88603531300163" x2="78.0" y2="208.12199036918142" stroke="#ff4444" stroke-width="0.5" opacity="0.6"/>
<rect x="75.0" y="194.10914927768863" width="6.0" height="8.3788121990369" fill="#ff4444" opacity="0.85"/>
<line x1="90.0" y1="200.7544141252007" x2="90.0" y2="214.9117174959872" stroke="#44aa44" stroke-width="0.5" opacity="0.6"/>
<rect x="87.0" y="204.79935794542536" width="6.0" height="1.8780096308186671" fill="#44aa44" opacity="0.85"/>
<line x1="102.0" y1="191.7977528089888" x2="102.0" y2="213.46709470304978" stroke="#ff4444" stroke-width="0.5" opacity="0.6"/>
<rect x="99.0" y="200.89887640449442" width="6.0" height="12.568218298555365" fill="#ff4444" opacity="0.85"/>
<line x1="114.0" y1="191.94221508828255" x2="114.0" y2="227.91332263242379" stroke="#44aa44" stroke-width="0.5" opacity="0.6"/>
<rect x="111.0" y="199.0208667736758" width="6.0" height="28.025682182985577" fill="#44aa44" opacity="0.85"/>
<line x1="126.0" y1="209.5666131621188" x2="126.0" y2="233.4028892455859" stroke="#ff4444" stroke-width="0.5" opacity="0.6"/>
<rect x="123.0" y="224.1573033707865" width="6.0" height="9.245585874799389" fill="#ff4444" opacity="0.85"/>
<line x1="138.0" y1="201.33226324237563" x2="138.0" y2="216.9341894060995" stroke="#44aa44" stroke-width="0.5" opacity="0.6"/>
<rect x="135.0" y="210.8667736757625" width="6.0" height="2.1669341894060494" fill="#44aa44" opacity="0.85"/>
<line x1="150.0" y1="210.7223113964687" x2="150.0" y2="224.1573033707865" stroke="#44aa44" stroke-width="0.5" opacity="0.6"/>
<rect x="147.0" y="216.64526484751204" width="6.0" height="2.7447833065810983" fill="#44aa44" opacity="0.85"/>
<line x1="162.0" y1="234.26966292134836" x2="162.0" y2="255.65008025682187" stroke="#44aa44" stroke-width="0.5" opacity="0.6"/>
<rect x="159.0" y="237.01444622792937" width="6.0" height="1.7335473515249191" fill="#44aa44" opacity="0.85"/>
<line x1="174.0" y1="223.57945425361157" x2="174.0" y2="233.4028892455859" stroke="#ff4444" stroke-width="0.5" opacity="0.6"/>
<rect x="171.0" y="226.6131621187801" width="6.0" height="4.1894060995184645" fill="#ff4444" opacity="0.85"/>
<line x1="186.0" y1="219.39004815409314" x2="186.0" y2="232.247191011236" stroke="#44aa44" stroke-width="0.5" opacity="0.6"/>
<rect x="183.0" y="227.91332263242379" width="6.0" height="1.1556982343498987" fill="#44aa44" opacity="0.85"/>
<line x1="198.0" y1="227.91332263242379" x2="198.0" y2="244.81540930979136" stroke="#44aa44" stroke-width="0.5" opacity="0.6"/>
<rect x="195.0" y="229.93579454253614" width="6.0" height="10.112359550561791" fill="#44aa44" opacity="0.85"/>
<line x1="210.0" y1="224.44622792937403" x2="210.0" y2="247.4157303370787" stroke="#ff4444" stroke-width="0.5" opacity="0.6"/>
<rect x="207.0" y="236.0032102728732" width="6.0" height="7.078651685393282" fill="#ff4444" opacity="0.85"/>
<line x1="222.0" y1="234.12520064205458" x2="222.0" y2="250.3049759229535" stroke="#ff4444" stroke-width="0.5" opacity="0.6"/>
<rect x="219.0" y="236.29213483146066" width="6.0" height="1.155698234349984" fill="#ff4444" opacity="0.85"/>
<line x1="234.0" y1="229.06902086677368" x2="234.0" y2="255.50561797752812" stroke="#44aa44" stroke-width="0.5" opacity="0.6"/>
<rect x="231.0" y="230.3691813804174" width="6.0" height="25.13643659711073" fill="#44aa44" opacity="0.85"/>
<line x1="246.0" y1="245.97110754414126" x2="246.0" y2="256.08346709470305" stroke="#ff4444" stroke-width="0.5" opacity="0.6"/>
<rect x="243.0" y="246.69341894061" width="6.0" height="5.634028892455859" fill="#ff4444" opacity="0.85"/>
<line x1="258.0" y1="251.1717495987159" x2="258.0" y2="260.2728731942215" stroke="#44aa44" stroke-width="0.5" opacity="0.6"/>
<rect x="255.0" y="255.36115569823434" width="6.0" height="2.7447833065811267" fill="#44aa44" opacity="0.85"/>
<line x1="270.0" y1="251.46067415730337" x2="270.0" y2="268.94060995184594" stroke="#44aa44" stroke-width="0.5" opacity="0.6"/>
<rect x="267.0" y="257.3836276083467" width="6.0" height="11.41252006420541" fill="#44aa44" opacity="0.85"/>
<line x1="282.0" y1="270.8186195826645" x2="282.0" y2="288.58747993579453" stroke="#44aa44" stroke-width="0.5" opacity="0.6"/>
<rect x="279.0" y="274.86356340288927" width="6.0" height="11.701444622792906" fill="#44aa44" opacity="0.85"/>
<line x1="294.0" y1="279.1974317817015" x2="294.0" y2="292.92134831460675" stroke="#ff4444" stroke-width="0.5" opacity="0.6"/>
<rect x="291.0" y="280.0642054574639" width="6.0" height="0.5778491171749351" fill="#ff4444" opacity="0.85"/>
<line x1="306.0" y1="270.9630818619583" x2="306.0" y2="278.33065810593905" stroke="#ff4444" stroke-width="0.5" opacity="0.6"/>
<rect x="303.0" y="277.0304975922953" width="6.0" height="0.72231139646874" fill="#ff4444" opacity="0.85"/>
<line x1="318.0" y1="275.008025682183" x2="318.0" y2="285.4093097913323" stroke="#44aa44" stroke-width="0.5" opacity="0.6"/>
<rect x="315.0" y="277.0304975922953" width="6.0" height="6.645264847512067" fill="#44aa44" opacity="0.85"/>
<line x1="330.0" y1="280.3531300160514" x2="330.0" y2="292.48796147672556" stroke="#ff4444" stroke-width="0.5" opacity="0.6"/>
<rect x="327.0" y="282.808988764045" width="6.0" height="8.089887640449376" fill="#ff4444" opacity="0.85"/>
<line x1="342.0" y1="283.53130016051364" x2="342.0" y2="292.19903691813806" stroke="#ff4444" stroke-width="0.5" opacity="0.6"/>
<rect x="339.0" y="284.83146067415737" width="6.0" height="4.333868378812099" fill="#ff4444" opacity="0.85"/>
<line x1="354.0" y1="279.3418940609952" x2="354.0" y2="293.21027287319424" stroke="#44aa44" stroke-width="0.5" opacity="0.6"/>
<rect x="351.0" y="284.83146067415737" width="6.0" height="7.367576243980693" fill="#44aa44" opacity="0.85"/>
<line x1="366.0" y1="283.09791332263245" x2="366.0" y2="288.87640449438203" stroke="#ff4444" stroke-width="0.5" opacity="0.6"/>
<rect x="363.0" y="283.9646869983949" width="6.0" height="0.5" fill="#ff4444" opacity="0.85"/>
<line x1="378.0" y1="284.975922953451" x2="378.0" y2="298.6998394863563" stroke="#44aa44" stroke-width="0.5" opacity="0.6"/>
<rect x="375.0" y="286.9983948635634" width="6.0" height="9.534510433386856" fill="#44aa44" opacity="0.85"/>
<line x1="390.0" y1="293.6436597110755" x2="390.0" y2="300.0" stroke="#44aa44" stroke-width="0.5" opacity="0.6"/>
<rect x="387.0" y="294.36597110754417" width="6.0" height="3.6115569823435294" fill="#44aa44" opacity="0.85"/>
<line x1="402.0" y1="286.7094703049759" x2="402.0" y2="293.7881219903692" stroke="#ff4444" stroke-width="0.5" opacity="0.6"/>
<rect x="399.0" y="289.0208667736758" width="6.0" height="3.9004815409309685" fill="#ff4444" opacity="0.85"/>
<line x1="414.0" y1="267.4959871589085" x2="414.0" y2="281.21990369181384" stroke="#ff4444" stroke-width="0.5" opacity="0.6"/>
<rect x="411.0" y="267.64044943820227" width="6.0" height="10.112359550561791" fill="#ff4444" opacity="0.85"/>
<line x1="426.0" y1="261.71749598715894" x2="426.0" y2="273.8523274478331" stroke="#ff4444" stroke-width="0.5" opacity="0.6"/>
<rect x="423.0" y="262.87319422150887" width="6.0" height="8.52327447833062" fill="#ff4444" opacity="0.85"/>
<line x1="438.0" y1="241.49277688603536" x2="438.0" y2="262.2953451043339" stroke="#ff4444" stroke-width="0.5" opacity="0.6"/>
<rect x="435.0" y="250.4494382022472" width="6.0" height="11.845906902086682" fill="#ff4444" opacity="0.85"/>
<line x1="450.0" y1="217.36757624398075" x2="450.0" y2="256.08346709470305" stroke="#ff4444" stroke-width="0.5" opacity="0.6"/>
<rect x="447.0" y="217.36757624398075" width="6.0" height="37.84911717495987" fill="#ff4444" opacity="0.85"/>
<line x1="462.0" y1="206.24398073836278" x2="462.0" y2="223.14606741573039" stroke="#ff4444" stroke-width="0.5" opacity="0.6"/>
<rect x="459.0" y="214.62279293739968" width="6.0" height="6.356340288924571" fill="#ff4444" opacity="0.85"/>
<line x1="474.0" y1="211.15569823434996" x2="474.0" y2="226.90208667736758" stroke="#44aa44" stroke-width="0.5" opacity="0.6"/>
<rect x="471.0" y="215.05617977528092" width="6.0" height="9.967897271268072" fill="#44aa44" opacity="0.85"/>
<line x1="486.0" y1="214.04494382022474" x2="486.0" y2="226.46869983948636" stroke="#ff4444" stroke-width="0.5" opacity="0.6"/>
<rect x="483.0" y="221.70144462279296" width="6.0" height="3.178170144462257" fill="#ff4444" opacity="0.85"/>
<line x1="498.0" y1="200.7544141252007" x2="498.0" y2="223.14606741573039" stroke="#ff4444" stroke-width="0.5" opacity="0.6"/>
<rect x="495.0" y="204.0770465489567" width="6.0" height="16.90208667736755" fill="#ff4444" opacity="0.85"/>
<line x1="510.0" y1="187.75280898876406" x2="510.0" y2="201.04333868378816" stroke="#44aa44" stroke-width="0.5" opacity="0.6"/>
<rect x="507.0" y="197.57624398073835" width="6.0" height="0.7223113964687116" fill="#44aa44" opacity="0.85"/>
<line x1="522.0" y1="168.68378812199037" x2="522.0" y2="206.82182985553771" stroke="#ff4444" stroke-width="0.5" opacity="0.6"/>
<rect x="519.0" y="174.31781701444623" width="6.0" height="27.59229534510436" fill="#ff4444" opacity="0.85"/>
<line x1="534.0" y1="155.97110754414126" x2="534.0" y2="180.9630818619583" stroke="#44aa44" stroke-width="0.5" opacity="0.6"/>
<rect x="531.0" y="162.9052969502408" width="6.0" height="5.345104333868392" fill="#44aa44" opacity="0.85"/>
<line x1="546.0" y1="155.82664526484757" x2="546.0" y2="177.3515248796148" stroke="#44aa44" stroke-width="0.5" opacity="0.6"/>
<rect x="543.0" y="162.18298555377208" width="6.0" height="9.390048154093137" fill="#44aa44" opacity="0.85"/>
<line x1="558.0" y1="159.2937399678973" x2="558.0" y2="192.08667736757627" stroke="#ff4444" stroke-width="0.5" opacity="0.6"/>
<rect x="555.0" y="169.83948635634033" width="6.0" height="1.7335473515248907" fill="#ff4444" opacity="0.85"/>
<line x1="570.0" y1="142.9695024077047" x2="570.0" y2="174.75120385232748" stroke="#ff4444" stroke-width="0.5" opacity="0.6"/>
<rect x="567.0" y="159.58266452648476" width="6.0" height="13.434991974317825" fill="#ff4444" opacity="0.85"/>
<line x1="582.0" y1="160.4494382022472" x2="582.0" y2="182.98555377207066" stroke="#44aa44" stroke-width="0.5" opacity="0.6"/>
<rect x="579.0" y="163.04975922953457" width="6.0" height="16.035313001605147" fill="#44aa44" opacity="0.85"/>
<line x1="594.0" y1="177.3515248796148" x2="594.0" y2="191.7977528089888" stroke="#44aa44" stroke-width="0.5" opacity="0.6"/>
<rect x="591.0" y="185.00802568218302" width="6.0" height="0.5" fill="#44aa44" opacity="0.85"/>
<line x1="606.0" y1="177.49598715890855" x2="606.0" y2="202.19903691813806" stroke="#ff4444" stroke-width="0.5" opacity="0.6"/>
<rect x="603.0" y="181.54093097913326" width="6.0" height="3.467094703049753" fill="#ff4444" opacity="0.85"/>
<line x1="618.0" y1="141.5248796147673" x2="618.0" y2="157.70465489566618" stroke="#44aa44" stroke-width="0.5" opacity="0.6"/>
<rect x="615.0" y="153.51524879614772" width="6.0" height="2.600321027287322" fill="#44aa44" opacity="0.85"/>
<line x1="630.0" y1="113.49919743178171" x2="630.0" y2="160.016051364366" stroke="#ff4444" stroke-width="0.5" opacity="0.6"/>
<rect x="627.0" y="113.49919743178171" width="6.0" height="40.88282504012844" fill="#ff4444" opacity="0.85"/>
<line x1="642.0" y1="108.87640449438203" x2="642.0" y2="125.77849117174964" stroke="#44aa44" stroke-width="0.5" opacity="0.6"/>
<rect x="639.0" y="116.38844301765656" width="6.0" height="3.0337078651685516" fill="#44aa44" opacity="0.85"/>
<line x1="654.0" y1="96.30818619582669" x2="654.0" y2="115.23274478330666" stroke="#44aa44" stroke-width="0.5" opacity="0.6"/>
<rect x="651.0" y="102.23113964686998" width="6.0" height="0.5" fill="#44aa44" opacity="0.85"/>
<line x1="666.0" y1="87.06260032102733" x2="666.0" y2="111.62118780096316" stroke="#44aa44" stroke-width="0.5" opacity="0.6"/>
<rect x="663.0" y="95.00802568218297" width="6.0" height="3.611556982343501" fill="#44aa44" opacity="0.85"/>
<line x1="678.0" y1="83.45104333868383" x2="678.0" y2="116.24398073836284" stroke="#ff4444" stroke-width="0.5" opacity="0.6"/>
<rect x="675.0" y="87.92937399678979" width="6.0" height="22.96950240770461" fill="#ff4444" opacity="0.85"/>
<line x1="690.0" y1="79.98394863563404" x2="690.0" y2="112.34349919743181" stroke="#44aa44" stroke-width="0.5" opacity="0.6"/>
<rect x="687.0" y="86.19582664526484" width="6.0" height="23.11396468699843" fill="#44aa44" opacity="0.85"/>
<line x1="702.0" y1="92.55216693418949" x2="702.0" y2="131.99036918138046" stroke="#44aa44" stroke-width="0.5" opacity="0.6"/>
<rect x="699.0" y="104.97592295345112" width="6.0" height="21.95826645264846" fill="#44aa44" opacity="0.85"/>
<line x1="714.0" y1="91.97431781701454" x2="714.0" y2="134.01284109149282" stroke="#ff4444" stroke-width="0.5" opacity="0.6"/>
<rect x="711.0" y="96.30818619582669" width="6.0" height="30.33707865168536" fill="#ff4444" opacity="0.85"/>
<line x1="726.0" y1="105.12038523274482" x2="726.0" y2="128.81219903691817" stroke="#ff4444" stroke-width="0.5" opacity="0.6"/>
<rect x="723.0" y="107.57624398073843" width="6.0" height="7.512038523274427" fill="#ff4444" opacity="0.85"/>
<line x1="738.0" y1="93.56340288924567" x2="738.0" y2="119.42215088282511" stroke="#ff4444" stroke-width="0.5" opacity="0.6"/>
<rect x="735.0" y="97.31942215088287" width="6.0" height="13.57945425361153" fill="#ff4444" opacity="0.85"/>
<line x1="750.0" y1="55.85874799357954" x2="750.0" y2="108.29855537720708" stroke="#44aa44" stroke-width="0.5" opacity="0.6"/>
<rect x="747.0" y="97.31942215088287" width="6.0" height="3.611556982343501" fill="#44aa44" opacity="0.85"/>
<line x1="762.0" y1="61.926163723916545" x2="762.0" y2="83.30658105939011" stroke="#44aa44" stroke-width="0.5" opacity="0.6"/>
<rect x="759.0" y="67.99357945425365" width="6.0" height="2.166934189406078" fill="#44aa44" opacity="0.85"/>
<line x1="774.0" y1="30.0" x2="774.0" y2="70.016051364366" stroke="#ff4444" stroke-width="0.5" opacity="0.6"/>
<rect x="771.0" y="31.155698234349998" width="6.0" height="30.626003210272835" fill="#ff4444" opacity="0.85"/>
<rect x="122.0" y="229.4028892455859" width="8" height="8" fill="#4caf50" opacity="0.85" rx="1"/>
<text x="126.0" y="227.4028892455859" text-anchor="middle" font-family="sans-serif" font-size="8" fill="#4caf50">前低</text>
<rect x="158.0" y="251.65008025682187" width="8" height="8" fill="#4caf50" opacity="0.85" rx="1"/>
<text x="162.0" y="249.65008025682187" text-anchor="middle" font-family="sans-serif" font-size="8" fill="#4caf50">前低</text>
<rect x="242.0" y="252.08346709470305" width="8" height="8" fill="#4caf50" opacity="0.85" rx="1"/>
<text x="246.0" y="250.08346709470305" text-anchor="middle" font-family="sans-serif" font-size="8" fill="#4caf50">前低</text>
<rect x="254.0" y="256.2728731942215" width="8" height="8" fill="#4caf50" opacity="0.85" rx="1"/>
<text x="258.0" y="254.27287319422152" text-anchor="middle" font-family="sans-serif" font-size="8" fill="#4caf50">前低</text>
<rect x="266.0" y="264.94060995184594" width="8" height="8" fill="#4caf50" opacity="0.85" rx="1"/>
<text x="270.0" y="262.94060995184594" text-anchor="middle" font-family="sans-serif" font-size="8" fill="#4caf50">前低</text>
<rect x="278.0" y="284.58747993579453" width="8" height="8" fill="#4caf50" opacity="0.85" rx="1"/>
<text x="282.0" y="282.58747993579453" text-anchor="middle" font-family="sans-serif" font-size="8" fill="#4caf50">前低</text>
<rect x="290.0" y="288.92134831460675" width="8" height="8" fill="#4caf50" opacity="0.85" rx="1"/>
<text x="294.0" y="286.92134831460675" text-anchor="middle" font-family="sans-serif" font-size="8" fill="#4caf50">前低</text>
<rect x="350.0" y="289.21027287319424" width="8" height="8" fill="#4caf50" opacity="0.85" rx="1"/>
<text x="354.0" y="287.21027287319424" text-anchor="middle" font-family="sans-serif" font-size="8" fill="#4caf50">前低</text>
<rect x="374.0" y="294.6998394863563" width="8" height="8" fill="#4caf50" opacity="0.85" rx="1"/>
<text x="378.0" y="292.6998394863563" text-anchor="middle" font-family="sans-serif" font-size="8" fill="#4caf50">前低</text>
<rect x="386.0" y="296.0" width="8" height="8" fill="#4caf50" opacity="0.85" rx="1"/>
<text x="390.0" y="294.0" text-anchor="middle" font-family="sans-serif" font-size="8" fill="#4caf50">前低</text>
<rect x="410.0" y="263.4959871589085" width="8" height="8" fill="#ff9800" opacity="0.85" rx="1"/>
<text x="414.0" y="261.4959871589085" text-anchor="middle" font-family="sans-serif" font-size="8" fill="#ff9800">前高</text>
<rect x="410.0" y="263.4959871589085" width="8" height="8" fill="#2196f3" opacity="0.85" rx="1"/>
<text x="414.0" y="261.4959871589085" text-anchor="middle" font-family="sans-serif" font-size="8" fill="#2196f3">突</text>
<rect x="422.0" y="257.71749598715894" width="8" height="8" fill="#ff9800" opacity="0.85" rx="1"/>
<text x="426.0" y="255.71749598715894" text-anchor="middle" font-family="sans-serif" font-size="8" fill="#ff9800">前高</text>
<rect x="422.0" y="257.71749598715894" width="8" height="8" fill="#2196f3" opacity="0.85" rx="1"/>
<text x="426.0" y="255.71749598715894" text-anchor="middle" font-family="sans-serif" font-size="8" fill="#2196f3">突</text>
<rect x="434.0" y="237.49277688603536" width="8" height="8" fill="#ff9800" opacity="0.85" rx="1"/>
<text x="438.0" y="235.49277688603536" text-anchor="middle" font-family="sans-serif" font-size="8" fill="#ff9800">前高</text>
<rect x="446.0" y="213.36757624398075" width="8" height="8" fill="#ff9800" opacity="0.85" rx="1"/>
<text x="450.0" y="211.36757624398075" text-anchor="middle" font-family="sans-serif" font-size="8" fill="#ff9800">前高</text>
<rect x="446.0" y="194.0096308186196" width="8" height="8" fill="#ff9800" opacity="0.85" rx="1"/>
<text x="450.0" y="192.0096308186196" text-anchor="middle" font-family="sans-serif" font-size="8" fill="#ff9800">量</text>
<rect x="446.0" y="213.36757624398075" width="8" height="8" fill="#2196f3" opacity="0.85" rx="1"/>
<text x="450.0" y="211.36757624398075" text-anchor="middle" font-family="sans-serif" font-size="8" fill="#2196f3">突</text>
<rect x="458.0" y="202.24398073836278" width="8" height="8" fill="#ff9800" opacity="0.85" rx="1"/>
<text x="462.0" y="200.24398073836278" text-anchor="middle" font-family="sans-serif" font-size="8" fill="#ff9800">前高</text>
<rect x="494.0" y="196.7544141252007" width="8" height="8" fill="#ff9800" opacity="0.85" rx="1"/>
<text x="498.0" y="194.7544141252007" text-anchor="middle" font-family="sans-serif" font-size="8" fill="#ff9800">前高</text>
<rect x="494.0" y="196.7544141252007" width="8" height="8" fill="#2196f3" opacity="0.85" rx="1"/>
<text x="498.0" y="194.7544141252007" text-anchor="middle" font-family="sans-serif" font-size="8" fill="#2196f3">突</text>
<rect x="506.0" y="183.75280898876406" width="8" height="8" fill="#ff9800" opacity="0.85" rx="1"/>
<text x="510.0" y="181.75280898876406" text-anchor="middle" font-family="sans-serif" font-size="8" fill="#ff9800">前高</text>
<rect x="518.0" y="164.68378812199037" width="8" height="8" fill="#ff9800" opacity="0.85" rx="1"/>
<text x="522.0" y="162.68378812199037" text-anchor="middle" font-family="sans-serif" font-size="8" fill="#ff9800">前高</text>
<rect x="518.0" y="164.68378812199037" width="8" height="8" fill="#2196f3" opacity="0.85" rx="1"/>
<text x="522.0" y="162.68378812199037" text-anchor="middle" font-family="sans-serif" font-size="8" fill="#2196f3">突</text>
<rect x="530.0" y="151.97110754414126" width="8" height="8" fill="#ff9800" opacity="0.85" rx="1"/>
<text x="534.0" y="149.97110754414126" text-anchor="middle" font-family="sans-serif" font-size="8" fill="#ff9800">前高</text>
<rect x="542.0" y="151.82664526484757" width="8" height="8" fill="#ff9800" opacity="0.85" rx="1"/>
<text x="546.0" y="149.82664526484757" text-anchor="middle" font-family="sans-serif" font-size="8" fill="#ff9800">前高</text>
<rect x="566.0" y="138.9695024077047" width="8" height="8" fill="#ff9800" opacity="0.85" rx="1"/>
<text x="570.0" y="136.9695024077047" text-anchor="middle" font-family="sans-serif" font-size="8" fill="#ff9800">前高</text>
<rect x="614.0" y="137.5248796147673" width="8" height="8" fill="#ff9800" opacity="0.85" rx="1"/>
<text x="618.0" y="135.5248796147673" text-anchor="middle" font-family="sans-serif" font-size="8" fill="#ff9800">前高</text>
<rect x="626.0" y="109.49919743178171" width="8" height="8" fill="#ff9800" opacity="0.85" rx="1"/>
<text x="630.0" y="107.49919743178171" text-anchor="middle" font-family="sans-serif" font-size="8" fill="#ff9800">前高</text>
<rect x="626.0" y="109.49919743178171" width="8" height="8" fill="#2196f3" opacity="0.85" rx="1"/>
<text x="630.0" y="107.49919743178171" text-anchor="middle" font-family="sans-serif" font-size="8" fill="#2196f3">突</text>
<rect x="638.0" y="104.87640449438203" width="8" height="8" fill="#ff9800" opacity="0.85" rx="1"/>
<text x="642.0" y="102.87640449438203" text-anchor="middle" font-family="sans-serif" font-size="8" fill="#ff9800">前高</text>
<rect x="650.0" y="92.30818619582669" width="8" height="8" fill="#ff9800" opacity="0.85" rx="1"/>
<text x="654.0" y="90.30818619582669" text-anchor="middle" font-family="sans-serif" font-size="8" fill="#ff9800">前高</text>
<rect x="662.0" y="83.06260032102733" width="8" height="8" fill="#ff9800" opacity="0.85" rx="1"/>
<text x="666.0" y="81.06260032102733" text-anchor="middle" font-family="sans-serif" font-size="8" fill="#ff9800">前高</text>
<rect x="674.0" y="79.45104333868383" width="8" height="8" fill="#ff9800" opacity="0.85" rx="1"/>
<text x="678.0" y="77.45104333868383" text-anchor="middle" font-family="sans-serif" font-size="8" fill="#ff9800">前高</text>
<rect x="686.0" y="75.98394863563404" width="8" height="8" fill="#ff9800" opacity="0.85" rx="1"/>
<text x="690.0" y="73.98394863563404" text-anchor="middle" font-family="sans-serif" font-size="8" fill="#ff9800">前高</text>
<rect x="746.0" y="51.85874799357954" width="8" height="8" fill="#ff9800" opacity="0.85" rx="1"/>
<text x="750.0" y="49.85874799357954" text-anchor="middle" font-family="sans-serif" font-size="8" fill="#ff9800">前高</text>
<rect x="770.0" y="26.0" width="8" height="8" fill="#ff9800" opacity="0.85" rx="1"/>
<text x="774.0" y="24.0" text-anchor="middle" font-family="sans-serif" font-size="8" fill="#ff9800">前高</text>
<rect x="770.0" y="26.0" width="8" height="8" fill="#2196f3" opacity="0.85" rx="1"/>
<text x="774.0" y="24.0" text-anchor="middle" font-family="sans-serif" font-size="8" fill="#2196f3">突</text>
<text x="66.0" y="359" text-anchor="middle" font-family="sans-serif" font-size="8" fill="#666666" transform="rotate(-40,66.0,359)">02/25</text>
<text x="138.0" y="359" text-anchor="middle" font-family="sans-serif" font-size="8" fill="#666666" transform="rotate(-40,138.0,359)">03/05</text>
<text x="210.0" y="359" text-anchor="middle" font-family="sans-serif" font-size="8" fill="#666666" transform="rotate(-40,210.0,359)">03/13</text>
<text x="282.0" y="359" text-anchor="middle" font-family="sans-serif" font-size="8" fill="#666666" transform="rotate(-40,282.0,359)">03/23</text>
<text x="354.0" y="359" text-anchor="middle" font-family="sans-serif" font-size="8" fill="#666666" transform="rotate(-40,354.0,359)">03/31</text>
<text x="426.0" y="359" text-anchor="middle" font-family="sans-serif" font-size="8" fill="#666666" transform="rotate(-40,426.0,359)">04/09</text>
<text x="498.0" y="359" text-anchor="middle" font-family="sans-serif" font-size="8" fill="#666666" transform="rotate(-40,498.0,359)">04/17</text>
<text x="570.0" y="359" text-anchor="middle" font-family="sans-serif" font-size="8" fill="#666666" transform="rotate(-40,570.0,359)">04/27</text>
<text x="642.0" y="359" text-anchor="middle" font-family="sans-serif" font-size="8" fill="#666666" transform="rotate(-40,642.0,359)">05/08</text>
<text x="714.0" y="359" text-anchor="middle" font-family="sans-serif" font-size="8" fill="#666666" transform="rotate(-40,714.0,359)">05/18</text>
<text x="774.0" y="359" text-anchor="middle" font-family="sans-serif" font-size="8" fill="#666666" transform="rotate(-40,774.0,359)">05/25</text>
<text x="400.0" y="396" text-anchor="middle" font-family="sans-serif" font-size="9" fill="#555555">数据截至: 2026-05-26 18:47  |  最新K线: 20260525</text>
<rect x="50" y="373" width="8" height="8" fill="#ffd700" opacity="0.8" rx="1"/>
<text x="61" y="380" font-family="sans-serif" font-size="9" fill="#888888">EMA5</text>
<rect x="150" y="373" width="8" height="8" fill="#ff6b6b" opacity="0.8" rx="1"/>
<text x="161" y="380" font-family="sans-serif" font-size="9" fill="#888888">EMA10</text>
<rect x="250" y="373" width="8" height="8" fill="#4ecdc4" opacity="0.8" rx="1"/>
<text x="261" y="380" font-family="sans-serif" font-size="9" fill="#888888">EMA20</text>
<rect x="350" y="373" width="8" height="8" fill="#2196f3" opacity="0.8" rx="1"/>
<text x="361" y="380" font-family="sans-serif" font-size="9" fill="#888888">突破</text>
<rect x="450" y="373" width="8" height="8" fill="#ff9800" opacity="0.8" rx="1"/>
<text x="461" y="380" font-family="sans-serif" font-size="9" fill="#888888">前高/量</text>
<rect x="550" y="373" width="8" height="8" fill="#4caf50" opacity="0.8" rx="1"/>
<text x="561" y="380" font-family="sans-serif" font-size="9" fill="#888888">前低</text>
</svg>