<svg xmlns="http://www.w3.org/2000/svg" width="750" height="540" viewBox="0 0 750 540">
<rect width="750" height="540" fill="#1a1a2e"/>
<text x="375.0" y="22" text-anchor="middle" font-family="sans-serif" font-size="15" fill="#ffffff" font-weight="bold">拓荆科技(688072) 趋势交易分析图</text>
<text x="60" y="31" font-family="sans-serif" font-size="10" fill="#888888">最新: 667.00</text>
<line x1="60" y1="112.02101899831587" x2="725" y2="112.02101899831587" stroke="#4ecdc4" stroke-width="0.5" stroke-dasharray="4,3" opacity="0.4"/>
<text x="62" y="110.02101899831587" font-family="sans-serif" font-size="7" fill="#4ecdc4" opacity="0.6">买入↑2%</text>
<line x1="60" y1="78.06232642847476" x2="725" y2="78.06232642847476" stroke="#e94560" stroke-width="0.5" stroke-dasharray="4,3" opacity="0.4"/>
<text x="62" y="76.06232642847476" font-family="sans-serif" font-size="7" fill="#e94560" opacity="0.6">警戒↑8%</text>
<rect x="60" y="112.02101899831587" width="3" height="270.97898100168413" fill="#4ecdc4" opacity="0.3" rx="1"/>
<rect x="60" y="78.06232642847476" width="3" height="304.93767357152524" fill="#e94560" opacity="0.3" rx="1"/>
<rect x="60" y="78.06232642847476" width="3" height="33.958692569841105" fill="#ffd700" opacity="0.2" rx="1"/>
<line x1="60" y1="32.0" x2="725" y2="32.0" stroke="#2a2a4e" stroke-width="0.5"/>
<text x="56" y="35.0" text-anchor="end" font-family="sans-serif" font-size="8" fill="#666666">779.0</text>
<line x1="60" y1="127.75000000000001" x2="725" y2="127.75000000000001" stroke="#2a2a4e" stroke-width="0.5"/>
<text x="56" y="130.75" text-anchor="end" font-family="sans-serif" font-size="8" fill="#666666">665.5</text>
<line x1="60" y1="223.50000000000003" x2="725" y2="223.50000000000003" stroke="#2a2a4e" stroke-width="0.5"/>
<text x="56" y="226.50000000000003" text-anchor="end" font-family="sans-serif" font-size="8" fill="#666666">552.0</text>
<line x1="60" y1="319.24999999999994" x2="725" y2="319.24999999999994" stroke="#2a2a4e" stroke-width="0.5"/>
<text x="56" y="322.24999999999994" text-anchor="end" font-family="sans-serif" font-size="8" fill="#666666">438.6</text>
<line x1="60" y1="415.0" x2="725" y2="415.0" stroke="#2a2a4e" stroke-width="0.5"/>
<text x="56" y="418.0" text-anchor="end" font-family="sans-serif" font-size="8" fill="#666666">325.1</text>
<rect x="61.66250000000001" y="462.34488954753857" width="6.095833333333334" height="12.655110452461445" fill="#44aa44" opacity="0.35"/>
<rect x="72.74583333333334" y="455.8453410827583" width="6.095833333333334" height="19.154658917241697" fill="#ff4444" opacity="0.35"/>
<rect x="83.82916666666668" y="455.14312971796414" width="6.095833333333334" height="19.856870282035846" fill="#44aa44" opacity="0.35"/>
<rect x="94.91250000000001" y="462.2416060760432" width="6.095833333333334" height="12.758393923956838" fill="#ff4444" opacity="0.35"/>
<rect x="105.99583333333335" y="459.1639790672903" width="6.095833333333334" height="15.836020932709674" fill="#44aa44" opacity="0.35"/>
<rect x="117.07916666666668" y="465.54168943639144" width="6.095833333333334" height="9.458310563608576" fill="#44aa44" opacity="0.35"/>
<rect x="128.1625" y="460.05007409808735" width="6.095833333333334" height="14.949925901912657" fill="#ff4444" opacity="0.35"/>
<rect x="139.24583333333334" y="463.51592877321355" width="6.095833333333334" height="11.484071226786458" fill="#44aa44" opacity="0.35"/>
<rect x="150.32916666666668" y="466.07593201500487" width="6.095833333333334" height="8.924067984995137" fill="#44aa44" opacity="0.35"/>
<rect x="161.4125" y="464.0836173760015" width="6.095833333333334" height="10.916382623998519" fill="#44aa44" opacity="0.35"/>
<rect x="172.49583333333334" y="464.9109595702311" width="6.095833333333334" height="10.089040429768906" fill="#ff4444" opacity="0.35"/>
<rect x="183.57916666666668" y="461.70253322836106" width="6.095833333333334" height="13.297466771638957" fill="#ff4444" opacity="0.35"/>
<rect x="194.6625" y="467.296730421896" width="6.095833333333334" height="7.703269578104015" fill="#44aa44" opacity="0.35"/>
<rect x="205.74583333333334" y="467.1392303061177" width="6.095833333333334" height="7.860769693882277" fill="#ff4444" opacity="0.35"/>
<rect x="216.82916666666668" y="467.51652850460795" width="6.095833333333334" height="7.483471495392025" fill="#44aa44" opacity="0.35"/>
<rect x="227.9125" y="460.283561802436" width="6.095833333333334" height="14.716438197564026" fill="#ff4444" opacity="0.35"/>
<rect x="238.99583333333334" y="456.3723266799426" width="6.095833333333334" height="18.627673320057426" fill="#ff4444" opacity="0.35"/>
<rect x="250.07916666666668" y="462.1610081971009" width="6.095833333333334" height="12.838991802899088" fill="#ff4444" opacity="0.35"/>
<rect x="261.1625" y="460.39369240031493" width="6.095833333333334" height="14.606307599685083" fill="#ff4444" opacity="0.35"/>
<rect x="272.2458333333334" y="464.7443639142315" width="6.095833333333334" height="10.255636085768534" fill="#ff4444" opacity="0.35"/>
<rect x="283.3291666666667" y="461.3382230352429" width="6.095833333333334" height="13.661776964757097" fill="#ff4444" opacity="0.35"/>
<rect x="294.4125" y="461.25302875932016" width="6.095833333333334" height="13.74697124067985" fill="#ff4444" opacity="0.35"/>
<rect x="305.4958333333334" y="461.0372667068031" width="6.095833333333334" height="13.96273329319687" fill="#44aa44" opacity="0.35"/>
<rect x="316.5791666666667" y="459.18060019450746" width="6.095833333333334" height="15.819399805492521" fill="#44aa44" opacity="0.35"/>
<rect x="327.6625" y="464.36205483258465" width="6.095833333333334" height="10.637945167415367" fill="#44aa44" opacity="0.35"/>
<rect x="338.7458333333334" y="468.5144560737276" width="6.095833333333334" height="6.485543926272403" fill="#44aa44" opacity="0.35"/>
<rect x="349.8291666666667" y="467.6862872227111" width="6.095833333333334" height="7.313712777288937" fill="#44aa44" opacity="0.35"/>
<rect x="360.9125" y="459.1955054878896" width="6.095833333333334" height="15.804494512110406" fill="#ff4444" opacity="0.35"/>
<rect x="371.9958333333334" y="461.00979252535546" width="6.095833333333334" height="13.990207474644562" fill="#ff4444" opacity="0.35"/>
<rect x="383.0791666666667" y="463.67647154170334" width="6.095833333333334" height="11.323528458296671" fill="#44aa44" opacity="0.35"/>
<rect x="394.1625" y="463.36529893947113" width="6.095833333333334" height="11.634701060528876" fill="#ff4444" opacity="0.35"/>
<rect x="405.2458333333334" y="460.8934029546612" width="6.095833333333334" height="14.106597045338766" fill="#ff4444" opacity="0.35"/>
<rect x="416.3291666666667" y="464.00164405131295" width="6.095833333333334" height="10.998355948687076" fill="#44aa44" opacity="0.35"/>
<rect x="427.4125" y="466.0756796183949" width="6.095833333333334" height="8.92432038160515" fill="#44aa44" opacity="0.35"/>
<rect x="438.4958333333334" y="460.7469943963321" width="6.095833333333334" height="14.253005603667855" fill="#44aa44" opacity="0.35"/>
<rect x="449.5791666666667" y="463.8172648543509" width="6.095833333333334" height="11.182735145649053" fill="#ff4444" opacity="0.35"/>
<rect x="460.6625" y="467.5011670448757" width="6.095833333333334" height="7.498832955124346" fill="#44aa44" opacity="0.35"/>
<rect x="471.7458333333334" y="461.94600564997916" width="6.095833333333334" height="13.05399435002084" fill="#ff4444" opacity="0.35"/>
<rect x="482.8291666666667" y="463.67842819432224" width="6.095833333333334" height="11.321571805677767" fill="#44aa44" opacity="0.35"/>
<rect x="493.9125" y="464.3569050155143" width="6.095833333333334" height="10.643094984485712" fill="#44aa44" opacity="0.35"/>
<rect x="504.9958333333334" y="456.51077664057794" width="6.095833333333334" height="18.489223359422038" fill="#ff4444" opacity="0.35"/>
<rect x="516.0791666666667" y="453.9405733339508" width="6.095833333333334" height="21.05942666604918" fill="#ff4444" opacity="0.35"/>
<rect x="527.1624999999999" y="461.8066711434261" width="6.095833333333334" height="13.193328856573888" fill="#ff4444" opacity="0.35"/>
<rect x="538.2458333333333" y="459.42887972954196" width="6.095833333333334" height="15.57112027045802" fill="#ff4444" opacity="0.35"/>
<rect x="549.3291666666667" y="456.1283564118001" width="6.095833333333334" height="18.87164358819988" fill="#44aa44" opacity="0.35"/>
<rect x="560.4124999999999" y="463.3899643402955" width="6.095833333333334" height="11.610035659704534" fill="#ff4444" opacity="0.35"/>
<rect x="571.4958333333333" y="464.02946556754506" width="6.095833333333334" height="10.970534432454961" fill="#44aa44" opacity="0.35"/>
<rect x="582.5791666666667" y="455.49383364979394" width="6.095833333333334" height="19.506166350206083" fill="#ff4444" opacity="0.35"/>
<rect x="593.6624999999999" y="461.8583429815218" width="6.095833333333334" height="13.141657018478211" fill="#ff4444" opacity="0.35"/>
<rect x="604.7458333333333" y="460.9616843421479" width="6.095833333333334" height="14.038315657852083" fill="#ff4444" opacity="0.35"/>
<rect x="615.8291666666667" y="462.88368221182793" width="6.095833333333334" height="12.116317788172093" fill="#44aa44" opacity="0.35"/>
<rect x="626.9124999999999" y="450.523581716297" width="6.095833333333334" height="24.47641828370305" fill="#ff4444" opacity="0.35"/>
<rect x="637.9958333333333" y="454.3411082295188" width="6.095833333333334" height="20.658891770481176" fill="#44aa44" opacity="0.35"/>
<rect x="649.0791666666667" y="455.66618811651927" width="6.095833333333334" height="19.333811883480756" fill="#ff4444" opacity="0.35"/>
<rect x="660.1624999999999" y="446.44977539017276" width="6.095833333333334" height="28.550224609827257" fill="#ff4444" opacity="0.35"/>
<rect x="671.2458333333333" y="440.0" width="6.095833333333334" height="35.0" fill="#44aa44" opacity="0.35"/>
<rect x="682.3291666666667" y="446.42384105960264" width="6.095833333333334" height="28.576158940397352" fill="#ff4444" opacity="0.35"/>
<rect x="693.4124999999999" y="441.1211966841106" width="6.095833333333334" height="33.87880331588941" fill="#ff4444" opacity="0.35"/>
<rect x="704.4958333333333" y="446.25434168480524" width="6.095833333333334" height="28.74565831519474" fill="#ff4444" opacity="0.35"/>
<rect x="715.5791666666667" y="444.5535590237577" width="6.095833333333334" height="30.4464409762423" fill="#44aa44" opacity="0.25" stroke-dasharray="3,2"/>
<polyline points="65.54166666666667,377.61974003084384 76.625,373.30230594110304 87.70833333333334,371.7600303542141 98.79166666666667,370.7318466296215 109.87500000000001,368.7272529708235 120.95833333333334,369.4975400212335 132.04166666666666,374.6772687312005 143.125,376.2403132512182 154.20833333333334,379.48465621609455 165.29166666666666,386.70752802597536 176.375,392.22312839977997 187.45833333333334,393.55162367725654 198.54166666666666,398.1809385137795 209.625,398.13384444650734 220.70833333333334,401.38763603476485 231.79166666666666,399.52066240167403 242.875,397.67691659560825 253.95833333333334,394.2257508155197 265.0416666666667,389.0194951827339 276.12500000000006,385.7736709457926 287.20833333333337,380.91807188410854 298.2916666666667,374.83459327046614 309.37500000000006,375.59421588523844 320.45833333333337,376.5281553797602 331.5416666666667,380.3797161296514 342.62500000000006,382.8011649427169 353.70833333333337,386.68809395241124 364.7916666666667,380.8385853638826 375.87500000000006,373.45121377200013 386.95833333333337,366.77963711700204 398.0416666666667,363.0519604720676 409.12500000000006,356.88225726411326 420.20833333333337,354.62547781769996 431.2916666666667,352.87063138937214 442.37500000000006,355.23062287968867 453.45833333333337,354.52569541762597 464.5416666666667,356.86277909974365 475.62500000000006,356.5926054687136 486.70833333333337,360.60897939670866 497.7916666666667,362.0096140826409 508.87500000000006,355.025730824867 519.9583333333334,347.3405731385872 531.0416666666666,342.1693194501061 542.125,332.72241183579814 553.2083333333334,321.03541563085673 564.2916666666666,308.91258743459775 575.375,305.4744046949606 586.4583333333334,291.61380963654636 597.5416666666666,281.57461730781876 608.625,272.6316939061745 619.7083333333334,272.86322371155563 630.7916666666666,262.6276084933173 641.875,257.13425349947374 652.9583333333334,245.11278940061857 664.0416666666666,214.6112581463476 675.125,202.34361470606913 686.2083333333334,191.1331375708082 697.2916666666666,154.40219012027592 708.375,121.75817595005248 719.4583333333334,123.3405831882629" fill="none" stroke="#ffd700" stroke-width="1" opacity="0.7"/>
<polyline points="65.54166666666667,377.61974003084384 76.625,375.26477598189433 87.70833333333334,374.06672201799284 98.79166666666667,373.08649604752793 109.87500000000001,371.56496324856425 120.95833333333334,371.4691724982896 132.04166666666666,373.9360004351705 143.125,374.9233462271856 154.20833333333334,376.932436394215 165.29166666666666,381.3362246217645 176.375,385.32133453551444 187.45833333333334,387.3008399349136 198.54166666666666,390.9624268898066 209.625,392.2491958756532 220.70833333333334,395.0939273912217 231.79166666666666,395.21988879927096 242.875,394.99616810549014 253.95833333333334,393.60112286000884 265.0416666666667,390.8749157794913 276.12500000000006,388.7671169962947 287.20833333333337,385.57434549892116 298.2916666666667,381.40948923424116 309.37500000000006,380.62839321252153 320.45833333333337,380.2225097863911 331.5416666666667,381.6516603033079 342.62500000000006,382.7411879879515 353.70833333333337,384.87223598501487 364.7916666666667,382.01175093079854 375.87500000000006,377.76897268669615 386.95833333333337,373.34488379947976 398.0416666666667,370.11792441451956 409.12500000000006,365.46791103882595 420.20833333333337,362.67591247265267 431.2916666666667,360.25500811993703 442.37500000000006,360.1996622545524 453.45833333333337,358.91169466163393 464.5416666666667,359.3890131711512 475.62500000000006,358.7823304503334 486.70833333333337,360.5749480507635 497.7916666666667,361.34511812417117 508.87500000000006,357.656544703289 519.9583333333334,352.986310714696 531.0416666666666,349.1391291435047 542.125,342.7190323187188 553.2083333333334,334.52673975549243 564.2916666666666,325.4613199894174 575.375,320.5770871214663 586.4583333333334,310.27082028478475 597.5416666666666,301.40271344216274 608.625,292.9196468350215 619.7083333333334,289.357217105439 630.7916666666666,280.77524636933026 641.875,274.4793003952314 652.9583333333334,264.76849326935445 664.0416666666666,244.55753006361826 675.125,232.4213114748717 686.2083333333334,220.83783362494708 697.2916666666666,195.40191755117692 708.375,170.14159574361852 719.4583333333334,162.20774154744862" fill="none" stroke="#ff6b6b" stroke-width="1" opacity="0.7"/>
<polyline points="65.54166666666667,377.61974003084384 76.625,376.3861874337751 87.70833333333334,375.6518342667904 98.79166666666667,374.98741949666146 109.87500000000001,374.00938579728677 120.95833333333334,373.7264075425026 132.04166666666666,374.80358074332474 143.125,375.2381351764608 154.20833333333334,376.26053584021184 165.29166666666666,378.63127258359526 176.375,380.97632558967086 187.45833333333334,382.42701974610316 198.54166666666666,384.8091672166481 209.625,386.0692137971543 220.70833333333334,388.147880979452 231.79166666666666,388.87538899431297 242.875,389.36244004089997 253.95833333333334,389.16824758513263 265.0416666666667,388.1624129500878 276.12500000000006,387.31666147597565 287.20833333333337,385.78239597928655 298.2916666666667,383.5809902710861 309.37500000000006,382.96503511334294 320.45833333333337,382.52989218529154 331.5416666666667,383.05874413235273 342.62500000000006,383.4954411263047 353.70833333333337,384.5398707306375 364.7916666666667,383.07317525027446 375.87500000000006,380.74967956817545 386.95833333333337,378.14842282901645 398.0416666666667,376.0006308626529 409.12500000000006,373.00465181365774 420.20833333333337,370.8243915385354 431.2916666666667,368.7802531570288 442.37500000000006,367.93933436686626 453.45833333333337,366.52757304559333 464.5416666666667,366.0522752759158 475.62500000000006,365.0998926978908 486.70833333333337,365.43721027453915 497.7916666666667,365.3775601012026 508.87500000000006,363.06140812102325 519.9583333333334,360.10034618245226 531.0416666666666,357.40762864823245 542.125,353.2572446443229 553.2083333333334,347.96240450876587 564.2916666666666,341.93426417860525 575.375,337.80700465832723 586.4583333333334,330.7675394070311 597.5416666666666,324.1702720968723 608.625,317.55842209744503 619.7083333333334,313.3458374521948 630.7916666666666,306.5658889383515 641.875,300.8117608024882 652.9583333333334,293.2172941739568 664.0416666666666,279.92118955146617 675.125,270.1961551013753 686.2083333333334,260.5310149298431 697.2916666666666,243.42713686216388 708.375,225.62170931430117 719.4583333333334,216.18206058576624" fill="none" stroke="#4ecdc4" stroke-width="1" opacity="0.7"/>
<line x1="65.54166666666667" y1="374.92802379378725" x2="65.54166666666667" y2="382.37876184181545" stroke="#44aa44" stroke-width="0.5" opacity="0.6"/>
<rect x="63.04791666666667" y="376.2949768671513" width="4.987500000000001" height="1.3247631636925234" fill="#44aa44" opacity="0.8" rx="1"/>
<line x1="76.625" y1="360.23749724608945" x2="76.625" y2="387.3402952192113" stroke="#ff4444" stroke-width="0.5" opacity="0.6"/>
<rect x="74.13125" y="364.66743776162156" width="4.987500000000001" height="22.563163692443254" fill="#ff4444" opacity="0.8" rx="1"/>
<line x1="87.70833333333334" y1="345.3022692222957" x2="87.70833333333334" y2="372.89447014760964" stroke="#44aa44" stroke-width="0.5" opacity="0.6"/>
<rect x="85.21458333333334" y="358.6342806785636" width="4.987500000000001" height="10.041198501872657" fill="#44aa44" opacity="0.8" rx="1"/>
<line x1="98.79166666666667" y1="362.7688918263935" x2="98.79166666666667" y2="380.69116545494603" stroke="#ff4444" stroke-width="0.5" opacity="0.6"/>
<rect x="96.29791666666667" y="368.67547918043624" width="4.987500000000001" height="0.5" fill="#ff4444" opacity="0.8" rx="1"/>
<line x1="109.87500000000001" y1="346.2473231989425" x2="109.87500000000001" y2="367.83168098700156" stroke="#44aa44" stroke-width="0.5" opacity="0.6"/>
<rect x="107.38125000000001" y="361.9250936329588" width="4.987500000000001" height="2.7929720202687918" fill="#44aa44" opacity="0.8" rx="1"/>
<line x1="120.95833333333334" y1="359.3936990526548" x2="120.95833333333334" y2="373.80577219651906" stroke="#44aa44" stroke-width="0.5" opacity="0.6"/>
<rect x="118.46458333333334" y="370.00868032606303" width="4.987500000000001" height="1.0294337959903146" fill="#44aa44" opacity="0.8" rx="1"/>
<line x1="132.04166666666666" y1="381.8556069618859" x2="132.04166666666666" y2="396.20861423220975" stroke="#ff4444" stroke-width="0.5" opacity="0.6"/>
<rect x="129.54791666666665" y="385.03672615113464" width="4.987500000000001" height="10.30277594183741" fill="#ff4444" opacity="0.8" rx="1"/>
<line x1="143.125" y1="374.71707424542853" x2="143.125" y2="387.1884115443931" stroke="#44aa44" stroke-width="0.5" opacity="0.6"/>
<rect x="140.63125" y="375.72119409561583" width="4.987500000000001" height="3.6452081956377924" fill="#44aa44" opacity="0.8" rx="1"/>
<line x1="154.20833333333334" y1="377.113461114783" x2="154.20833333333334" y2="390.61423220973785" stroke="#44aa44" stroke-width="0.5" opacity="0.6"/>
<rect x="151.71458333333334" y="380.82617316589557" width="4.987500000000001" height="5.147168979951573" fill="#44aa44" opacity="0.8" rx="1"/>
<line x1="165.29166666666666" y1="385.68645076007937" x2="165.29166666666666" y2="404.95880149812734" stroke="#44aa44" stroke-width="0.5" opacity="0.6"/>
<rect x="162.79791666666665" y="386.1758537122715" width="4.987500000000001" height="14.97741793346546" fill="#44aa44" opacity="0.8" rx="1"/>
<line x1="176.375" y1="396.5208195637806" x2="176.375" y2="410.2578541528971" stroke="#ff4444" stroke-width="0.5" opacity="0.6"/>
<rect x="173.88125" y="403.25432914738934" width="4.987500000000001" height="0.9534919585811394" fill="#ff4444" opacity="0.8" rx="1"/>
<line x1="187.45833333333334" y1="395.59264155100243" x2="187.45833333333334" y2="415.0" stroke="#ff4444" stroke-width="0.5" opacity="0.6"/>
<rect x="184.96458333333334" y="396.20861423220975" width="4.987500000000001" height="7.897951090548588" fill="#ff4444" opacity="0.8" rx="1"/>
<line x1="198.54166666666666" y1="394.82478519497687" x2="198.54166666666666" y2="407.9289711390174" stroke="#44aa44" stroke-width="0.5" opacity="0.6"/>
<rect x="196.04791666666665" y="397.8962106190791" width="4.987500000000001" height="9.54335756774617" fill="#44aa44" opacity="0.8" rx="1"/>
<line x1="209.625" y1="396.3942498347654" x2="209.625" y2="406.6126459572593" stroke="#ff4444" stroke-width="0.5" opacity="0.6"/>
<rect x="207.13125" y="398.03965631196303" width="4.987500000000001" height="6.100660938532656" fill="#ff4444" opacity="0.8" rx="1"/>
<line x1="220.70833333333334" y1="399.38129543952414" x2="220.70833333333334" y2="410.0131526768011" stroke="#44aa44" stroke-width="0.5" opacity="0.6"/>
<rect x="218.21458333333334" y="403.4146508041419" width="4.987500000000001" height="4.480568407138151" fill="#44aa44" opacity="0.8" rx="1"/>
<line x1="231.79166666666666" y1="383.3997576558713" x2="231.79166666666666" y2="407.4901960784314" stroke="#ff4444" stroke-width="0.5" opacity="0.6"/>
<rect x="229.29791666666665" y="395.7867151354924" width="4.987500000000001" height="9.180524344569335" fill="#ff4444" opacity="0.8" rx="1"/>
<line x1="242.875" y1="386.4036792244988" x2="242.875" y2="410.8738268341044" stroke="#ff4444" stroke-width="0.5" opacity="0.6"/>
<rect x="240.38125" y="393.98942498347657" width="4.987500000000001" height="2.970169640890049" fill="#ff4444" opacity="0.8" rx="1"/>
<line x1="253.95833333333334" y1="383.54320334875524" x2="253.95833333333334" y2="397.62619519718004" stroke="#ff4444" stroke-width="0.5" opacity="0.6"/>
<rect x="251.46458333333334" y="387.3234192553426" width="4.987500000000001" height="1.6032165675258625" fill="#ff4444" opacity="0.8" rx="1"/>
<line x1="265.0416666666667" y1="364.04302709847985" x2="265.0416666666667" y2="386.28554747741794" stroke="#ff4444" stroke-width="0.5" opacity="0.6"/>
<rect x="262.5479166666667" y="378.6069839171624" width="4.987500000000001" height="0.5" fill="#ff4444" opacity="0.8" rx="1"/>
<line x1="276.12500000000006" y1="373.84796210619083" x2="276.12500000000006" y2="388.4878607622825" stroke="#ff4444" stroke-width="0.5" opacity="0.6"/>
<rect x="273.6312500000001" y="379.2820224719101" width="4.987500000000001" height="5.425622383784969" fill="#ff4444" opacity="0.8" rx="1"/>
<line x1="287.20833333333337" y1="367.2663361974003" x2="287.20833333333337" y2="390.07420136593964" stroke="#ff4444" stroke-width="0.5" opacity="0.6"/>
<rect x="284.7145833333334" y="371.2068737607403" width="4.987500000000001" height="16.032165675258852" fill="#ff4444" opacity="0.8" rx="1"/>
<line x1="298.2916666666667" y1="355.27596386869357" x2="298.2916666666667" y2="378.80105750165234" stroke="#ff4444" stroke-width="0.5" opacity="0.6"/>
<rect x="295.7979166666667" y="362.66763604318135" width="4.987500000000001" height="15.289623265036369" fill="#ff4444" opacity="0.8" rx="1"/>
<line x1="309.37500000000006" y1="361.19942718660496" x2="309.37500000000006" y2="380.88523903943604" stroke="#44aa44" stroke-width="0.5" opacity="0.6"/>
<rect x="306.8812500000001" y="364.9880810751267" width="4.987500000000001" height="12.125380039656307" fill="#44aa44" opacity="0.8" rx="1"/>
<line x1="320.45833333333337" y1="364.45648821326284" x2="320.45833333333337" y2="386.92683410442834" stroke="#44aa44" stroke-width="0.5" opacity="0.6"/>
<rect x="317.9645833333334" y="370.3630755673056" width="4.987500000000001" height="8.032958801498125" fill="#44aa44" opacity="0.8" rx="1"/>
<line x1="331.5416666666667" y1="378.80105750165234" x2="331.5416666666667" y2="394.83322317691125" stroke="#44aa44" stroke-width="0.5" opacity="0.6"/>
<rect x="329.0479166666667" y="379.04575897774845" width="4.987500000000001" height="9.037078651685363" fill="#44aa44" opacity="0.8" rx="1"/>
<line x1="342.62500000000006" y1="380.4970918704561" x2="342.62500000000006" y2="390.2935888962327" stroke="#44aa44" stroke-width="0.5" opacity="0.6"/>
<rect x="340.1312500000001" y="384.1507380480282" width="4.987500000000001" height="3.4933245208196126" fill="#44aa44" opacity="0.8" rx="1"/>
<line x1="353.70833333333337" y1="383.96510244547255" x2="353.70833333333337" y2="397.3646177572153" stroke="#44aa44" stroke-width="0.5" opacity="0.6"/>
<rect x="351.2145833333334" y="384.0579202467504" width="4.987500000000001" height="10.404031725049549" fill="#44aa44" opacity="0.8" rx="1"/>
<line x1="364.7916666666667" y1="369.10581625908793" x2="364.7916666666667" y2="387.15465961665564" stroke="#ff4444" stroke-width="0.5" opacity="0.6"/>
<rect x="362.2979166666667" y="369.13956818682533" width="4.987500000000001" height="14.251751487111676" fill="#ff4444" opacity="0.8" rx="1"/>
<line x1="375.87500000000006" y1="353.1158404935008" x2="375.87500000000006" y2="377.8306895792025" stroke="#ff4444" stroke-width="0.5" opacity="0.6"/>
<rect x="373.3812500000001" y="358.6764705882353" width="4.987500000000001" height="18.428552544613353" fill="#ff4444" opacity="0.8" rx="1"/>
<line x1="386.95833333333337" y1="345.89292795769995" x2="386.95833333333337" y2="358.2714474553867" stroke="#44aa44" stroke-width="0.5" opacity="0.6"/>
<rect x="384.4645833333334" y="351.79951531174265" width="4.987500000000001" height="1.636968495263318" fill="#44aa44" opacity="0.8" rx="1"/>
<line x1="398.0416666666667" y1="351.79951531174265" x2="398.0416666666667" y2="362.77732980832786" stroke="#ff4444" stroke-width="0.5" opacity="0.6"/>
<rect x="395.5479166666667" y="355.59660718219874" width="4.987500000000001" height="0.6834765366820648" fill="#ff4444" opacity="0.8" rx="1"/>
<line x1="409.12500000000006" y1="334.9235514430491" x2="409.12500000000006" y2="351.79951531174265" stroke="#ff4444" stroke-width="0.5" opacity="0.6"/>
<rect x="406.6312500000001" y="344.5428508482044" width="4.987500000000001" height="4.30337078651695" fill="#ff4444" opacity="0.8" rx="1"/>
<line x1="420.20833333333337" y1="336.1217448777264" x2="420.20833333333337" y2="351.81639127561135" stroke="#44aa44" stroke-width="0.5" opacity="0.6"/>
<rect x="417.7145833333334" y="340.8301387970919" width="4.987500000000001" height="9.281780127781474" fill="#44aa44" opacity="0.8" rx="1"/>
<line x1="431.2916666666667" y1="344.49222295659837" x2="431.2916666666667" y2="355.8159947124917" stroke="#44aa44" stroke-width="0.5" opacity="0.6"/>
<rect x="428.7979166666667" y="349.2681207314386" width="4.987500000000001" height="0.5" fill="#44aa44" opacity="0.8" rx="1"/>
<line x1="442.37500000000006" y1="351.79951531174265" x2="442.37500000000006" y2="364.0345891165455" stroke="#44aa44" stroke-width="0.5" opacity="0.6"/>
<rect x="439.8812500000001" y="355.4784754351179" width="4.987500000000001" height="4.472130425203773" fill="#44aa44" opacity="0.8" rx="1"/>
<line x1="453.45833333333337" y1="347.84210178453407" x2="453.45833333333337" y2="368.24514210178455" stroke="#ff4444" stroke-width="0.5" opacity="0.6"/>
<rect x="450.9645833333334" y="353.1158404935008" width="4.987500000000001" height="8.809253139458008" fill="#ff4444" opacity="0.8" rx="1"/>
<line x1="464.5416666666667" y1="354.33090989204675" x2="464.5416666666667" y2="365.1990306234853" stroke="#44aa44" stroke-width="0.5" opacity="0.6"/>
<rect x="462.0479166666667" y="354.33090989204675" width="4.987500000000001" height="7.206036571932145" fill="#44aa44" opacity="0.8" rx="1"/>
<line x1="475.62500000000006" y1="352.7445692883895" x2="475.62500000000006" y2="366.2875302930161" stroke="#ff4444" stroke-width="0.5" opacity="0.6"/>
<rect x="473.1312500000001" y="356.0522582066535" width="4.987500000000001" height="5.459374311522311" fill="#ff4444" opacity="0.8" rx="1"/>
<line x1="486.70833333333337" y1="352.9808327825512" x2="486.70833333333337" y2="370.3461996034369" stroke="#44aa44" stroke-width="0.5" opacity="0.6"/>
<rect x="484.2145833333334" y="356.01850627891605" width="4.987500000000001" height="12.623220973782793" fill="#44aa44" opacity="0.8" rx="1"/>
<line x1="497.7916666666667" y1="357.1998237497246" x2="497.7916666666667" y2="372.3881912315488" stroke="#44aa44" stroke-width="0.5" opacity="0.6"/>
<rect x="495.2979166666667" y="364.45648821326284" width="4.987500000000001" height="0.5" fill="#44aa44" opacity="0.8" rx="1"/>
<line x1="508.87500000000006" y1="337.03304692663585" x2="508.87500000000006" y2="375.24866710729236" stroke="#ff4444" stroke-width="0.5" opacity="0.6"/>
<rect x="506.3812500000001" y="341.05796430931923" width="4.987500000000001" height="17.2641110376735" fill="#ff4444" opacity="0.8" rx="1"/>
<line x1="519.9583333333334" y1="319.2710949548359" x2="519.9583333333334" y2="352.6686274509804" stroke="#ff4444" stroke-width="0.5" opacity="0.6"/>
<rect x="517.4645833333334" y="331.97025776602777" width="4.987500000000001" height="15.610266578541541" fill="#ff4444" opacity="0.8" rx="1"/>
<line x1="531.0416666666666" y1="330.95769993390616" x2="531.0416666666666" y2="349.8419035029742" stroke="#ff4444" stroke-width="0.5" opacity="0.6"/>
<rect x="528.5479166666667" y="331.82681207314386" width="4.987500000000001" height="0.5" fill="#ff4444" opacity="0.8" rx="1"/>
<line x1="542.125" y1="304.1249173826834" x2="542.125" y2="330.7045604758757" stroke="#ff4444" stroke-width="0.5" opacity="0.6"/>
<rect x="539.63125" y="313.8285966071822" width="4.987500000000001" height="15.72839832562238" fill="#ff4444" opacity="0.8" rx="1"/>
<line x1="553.2083333333334" y1="275.88299184842475" x2="553.2083333333334" y2="301.13787177792466" stroke="#44aa44" stroke-width="0.5" opacity="0.6"/>
<rect x="550.7145833333334" y="295.06252478519497" width="4.987500000000001" height="2.5988984357788354" fill="#44aa44" opacity="0.8" rx="1"/>
<line x1="564.2916666666666" y1="281.43518396122494" x2="564.2916666666666" y2="303.52582066534484" stroke="#ff4444" stroke-width="0.5" opacity="0.6"/>
<rect x="561.7979166666667" y="284.66693104207974" width="4.987500000000001" height="10.488411544393045" fill="#ff4444" opacity="0.8" rx="1"/>
<line x1="575.375" y1="284.66693104207974" x2="575.375" y2="303.93928178012777" stroke="#44aa44" stroke-width="0.5" opacity="0.6"/>
<rect x="572.88125" y="291.74639788499667" width="4.987500000000001" height="6.851641330689574" fill="#44aa44" opacity="0.8" rx="1"/>
<line x1="586.4583333333334" y1="253.10887860762278" x2="586.4583333333334" y2="293.6955717118308" stroke="#ff4444" stroke-width="0.5" opacity="0.6"/>
<rect x="583.9645833333334" y="263.892619519718" width="4.987500000000001" height="24.622031284423883" fill="#ff4444" opacity="0.8" rx="1"/>
<line x1="597.5416666666666" y1="254.77959903062347" x2="597.5416666666666" y2="275.85767790262173" stroke="#ff4444" stroke-width="0.5" opacity="0.6"/>
<rect x="595.0479166666667" y="261.49623265036354" width="4.987500000000001" height="5.9234633179113985" fill="#ff4444" opacity="0.8" rx="1"/>
<line x1="608.625" y1="248.01233751927737" x2="608.625" y2="278.3806345009914" stroke="#ff4444" stroke-width="0.5" opacity="0.6"/>
<rect x="606.13125" y="254.74584710288613" width="4.987500000000001" height="13.517647058823542" fill="#ff4444" opacity="0.8" rx="1"/>
<line x1="619.7083333333334" y1="246.324741132408" x2="619.7083333333334" y2="274.87043401630314" stroke="#44aa44" stroke-width="0.5" opacity="0.6"/>
<rect x="617.2145833333334" y="250.5437320995814" width="4.987500000000001" height="22.782551222736288" fill="#44aa44" opacity="0.8" rx="1"/>
<line x1="630.7916666666666" y1="212.57281339502094" x2="630.7916666666666" y2="290.9954174928398" stroke="#ff4444" stroke-width="0.5" opacity="0.6"/>
<rect x="628.2979166666667" y="242.15637805684068" width="4.987500000000001" height="31.169905265477013" fill="#ff4444" opacity="0.8" rx="1"/>
<line x1="641.875" y1="220.16699713593303" x2="641.875" y2="250.53529411764708" stroke="#44aa44" stroke-width="0.5" opacity="0.6"/>
<rect x="639.38125" y="233.66776823088784" width="4.987500000000001" height="12.47977528089885" fill="#44aa44" opacity="0.8" rx="1"/>
<line x1="652.9583333333334" y1="214.44604538444594" x2="652.9583333333334" y2="260.6693104207975" stroke="#ff4444" stroke-width="0.5" opacity="0.6"/>
<rect x="650.4645833333334" y="221.06986120290816" width="4.987500000000001" height="25.077682308878536" fill="#ff4444" opacity="0.8" rx="1"/>
<line x1="664.0416666666666" y1="152.4353161489315" x2="664.0416666666666" y2="211.70370125578324" stroke="#ff4444" stroke-width="0.5" opacity="0.6"/>
<rect x="661.5479166666667" y="153.6081956378057" width="4.987500000000001" height="54.745626790041854" fill="#ff4444" opacity="0.8" rx="1"/>
<line x1="675.125" y1="100.34765366820886" x2="675.125" y2="182.19607843137254" stroke="#44aa44" stroke-width="0.5" opacity="0.6"/>
<rect x="672.63125" y="142.5291253580084" width="4.987500000000001" height="35.27920246750381" fill="#44aa44" opacity="0.8" rx="1"/>
<line x1="686.2083333333334" y1="152.66314166115885" x2="686.2083333333334" y2="201.60343688037014" stroke="#ff4444" stroke-width="0.5" opacity="0.6"/>
<rect x="683.7145833333334" y="168.7121833002864" width="4.987500000000001" height="9.264904163912774" fill="#ff4444" opacity="0.8" rx="1"/>
<line x1="697.2916666666666" y1="64.86593963428072" x2="697.2916666666666" y2="196.66721744877725" stroke="#ff4444" stroke-width="0.5" opacity="0.6"/>
<rect x="694.7979166666667" y="80.94029521921128" width="4.987500000000001" height="100.41198501872658" fill="#ff4444" opacity="0.8" rx="1"/>
<line x1="708.375" y1="32.0" x2="708.375" y2="102.03525005507821" stroke="#ff4444" stroke-width="0.5" opacity="0.6"/>
<rect x="705.88125" y="56.47014760960564" width="4.987500000000001" height="24.368891826393472" fill="#ff4444" opacity="0.8" rx="1"/>
<line x1="719.4583333333334" y1="61.53293677021371" x2="719.4583333333334" y2="128.21830799735622" stroke="#44aa44" stroke-width="0.5" opacity="0.3" stroke-dasharray="4,3"/>
<rect x="716.9645833333334" y="62.79863406036572" width="4.987500000000001" height="63.706763604318134" fill="#44aa44" opacity="0.4" stroke-dasharray="4,3" rx="1"/>
<text x="739.4583333333334" y="120.50539766468385" font-family="sans-serif" font-size="9" fill="#ffd700" opacity="0.8">🕐 盘中</text>
<line x1="453.45833333333337" y1="368.24514210178455" x2="453.45833333333337" y2="333.24514210178455" stroke="#4ecdc4" stroke-width="0.8" stroke-dasharray="2,2" opacity="0.7"/>
<rect x="417.45833333333337" y="324.24514210178455" width="72" height="16" fill="#4ecdc4" opacity="0.85" rx="3"/>
<text x="453.45833333333337" y="336.24514210178455" text-anchor="middle" font-family="sans-serif" font-size="9" fill="#000000" font-weight="bold">B1乖离买入</text>
<polygon points="453.45833333333337,374.24514210178455 449.45833333333337,368.24514210178455 457.45833333333337,368.24514210178455" fill="#4ecdc4" opacity="0.9"/>
<line x1="475.62500000000006" y1="366.2875302930161" x2="475.62500000000006" y2="316.2875302930161" stroke="#4ecdc4" stroke-width="0.8" stroke-dasharray="2,2" opacity="0.7"/>
<rect x="439.62500000000006" y="307.2875302930161" width="72" height="16" fill="#4ecdc4" opacity="0.85" rx="3"/>
<text x="475.62500000000006" y="319.2875302930161" text-anchor="middle" font-family="sans-serif" font-size="9" fill="#000000" font-weight="bold">B2乖离买入</text>
<polygon points="475.62500000000006,372.2875302930161 471.62500000000006,366.2875302930161 479.62500000000006,366.2875302930161" fill="#4ecdc4" opacity="0.9"/>
<line x1="575.375" y1="303.93928178012777" x2="575.375" y2="238.93928178012777" stroke="#4ecdc4" stroke-width="0.8" stroke-dasharray="2,2" opacity="0.7"/>
<rect x="539.375" y="229.93928178012777" width="72" height="16" fill="#4ecdc4" opacity="0.85" rx="3"/>
<text x="575.375" y="241.93928178012777" text-anchor="middle" font-family="sans-serif" font-size="9" fill="#000000" font-weight="bold">B3乖离买入</text>
<polygon points="575.375,309.93928178012777 571.375,303.93928178012777 579.375,303.93928178012777" fill="#4ecdc4" opacity="0.9"/>
<line x1="619.7083333333334" y1="274.87043401630314" x2="619.7083333333334" y2="194.87043401630314" stroke="#4ecdc4" stroke-width="0.8" stroke-dasharray="2,2" opacity="0.7"/>
<rect x="583.7083333333334" y="185.87043401630314" width="72" height="16" fill="#4ecdc4" opacity="0.85" rx="3"/>
<text x="619.7083333333334" y="197.87043401630314" text-anchor="middle" font-family="sans-serif" font-size="9" fill="#000000" font-weight="bold">B4乖离买入</text>
<polygon points="619.7083333333334,280.87043401630314 615.7083333333334,274.87043401630314 623.7083333333334,274.87043401630314" fill="#4ecdc4" opacity="0.9"/>
<line x1="719.4583333333334" y1="128.21830799735622" x2="719.4583333333334" y2="33.21830799735622" stroke="#4ecdc4" stroke-width="0.8" stroke-dasharray="2,2" opacity="0.7"/>
<rect x="683.4583333333334" y="24.21830799735622" width="72" height="16" fill="#4ecdc4" opacity="0.85" rx="3"/>
<text x="719.4583333333334" y="36.21830799735622" text-anchor="middle" font-family="sans-serif" font-size="9" fill="#000000" font-weight="bold">B5乖离买入</text>
<polygon points="719.4583333333334,134.21830799735622 715.4583333333334,128.21830799735622 723.4583333333334,128.21830799735622" fill="#4ecdc4" opacity="0.9"/>
<line x1="664.0416666666666" y1="152.4353161489315" x2="664.0416666666666" y2="171.4353161489315" stroke="#e94560" stroke-width="0.8" stroke-dasharray="2,2" opacity="0.7"/>
<rect x="630.0416666666666" y="178.4353161489315" width="68" height="16" fill="#e94560" opacity="0.85" rx="3"/>
<text x="664.0416666666666" y="190.4353161489315" text-anchor="middle" font-family="sans-serif" font-size="9" fill="#ffffff" font-weight="bold">W1警戒⚠️</text>
<polygon points="664.0416666666666,146.4353161489315 660.0416666666666,152.4353161489315 668.0416666666666,152.4353161489315" fill="#e94560" opacity="0.9"/>
<line x1="697.2916666666666" y1="64.86593963428072" x2="697.2916666666666" y2="98.86593963428072" stroke="#e94560" stroke-width="0.8" stroke-dasharray="2,2" opacity="0.7"/>
<rect x="663.2916666666666" y="105.86593963428072" width="68" height="16" fill="#e94560" opacity="0.85" rx="3"/>
<text x="697.2916666666666" y="117.86593963428072" text-anchor="middle" font-family="sans-serif" font-size="9" fill="#ffffff" font-weight="bold">W2警戒⚠️</text>
<polygon points="697.2916666666666,58.86593963428072 693.2916666666666,64.86593963428072 701.2916666666666,64.86593963428072" fill="#e94560" opacity="0.9"/>
<text x="375.0" y="435" text-anchor="middle" font-family="sans-serif" font-size="10" fill="#aaaaaa">✅ BIAS5=-0.56%，乖离率买入区，可逢低吸纳</text>
<rect x="60" y="443" width="665" height="55" fill="#111122" opacity="0.5" rx="2"/>
<rect x="60" y="443" width="665" height="18.092235310369745" fill="#e94560" opacity="0.18" rx="2"/>
<rect x="60" y="461.09223531036974" width="665" height="8.555823517222677" fill="#ffd700" opacity="0.12"/>
<rect x="60" y="469.6480588275924" width="665" height="30.351941172407578" fill="#4ecdc4" opacity="0.14"/>
<text x="670" y="455.04611765518484" text-anchor="end" font-family="sans-serif" font-size="9" fill="#e94560" font-weight="bold">⚠️ 警戒区</text>
<text x="670" y="468.37014706898105" text-anchor="end" font-family="sans-serif" font-size="9" fill="#ffd700">持有区</text>
<text x="670" y="487.8240294137962" text-anchor="end" font-family="sans-serif" font-size="9" fill="#4ecdc4">买入区</text>
<line x1="60" y1="472.5" x2="725" y2="472.5" stroke="#888888" stroke-width="0.5" stroke-dasharray="3,2" opacity="0.5"/>
<text x="56" y="475.5" text-anchor="end" font-family="sans-serif" font-size="7" fill="#888888">0%</text>
<line x1="60" y1="469.6480588275924" x2="725" y2="469.6480588275924" stroke="#4ecdc4" stroke-width="0.5" stroke-dasharray="3,2" opacity="0.5"/>
<text x="56" y="472.6480588275924" text-anchor="end" font-family="sans-serif" font-size="7" fill="#4ecdc4">2%</text>
<line x1="60" y1="461.09223531036974" x2="725" y2="461.09223531036974" stroke="#e94560" stroke-width="0.5" stroke-dasharray="3,2" opacity="0.5"/>
<text x="56" y="464.09223531036974" text-anchor="end" font-family="sans-serif" font-size="7" fill="#e94560">8%</text>
<text x="60" y="445" font-family="sans-serif" font-size="8" fill="#888888">BIAS5</text>
<polyline points="65.54166666666667,472.5 76.625,468.6036627656574 87.70833333333334,471.1149085564021 98.79166666666667,471.5795857980792 109.87500000000001,470.7167392207046 120.95833333333334,473.186887858557 132.04166666666666,477.19495614698235 143.125,473.9238318229339 154.20833333333334,475.4863317787941 165.29166666666666,479.3071509237404 176.375,477.7946473771042 187.45833333333334,473.7810043764788 198.54166666666666,477.03480486756786 209.625,472.45387484475356 220.70833333333334,475.72286143150455 231.79166666666666,470.6626869135442 242.875,470.69701661288514 253.95833333333334,469.16460390978267 265.0416666666667,467.5556212030172 276.12500000000006,469.4504040365816 287.20833333333337,468.0097760975619 298.2916666666667,466.98311770131113 309.37500000000006,473.1905416950931 320.45833333333337,473.351540992373 331.5416666666667,476.05553101378354 342.62500000000006,474.75299589381245 353.70833333333337,476.1629769958485 364.7916666666667,467.09205032088903 375.87500000000006,465.8300057982445 386.95833333333337,466.6008885839863 398.0416666666667,469.2415889537456 409.12500000000006,467.20707075623005 420.20833333333337,470.5769851280689 431.2916666666667,471.01248443120664 442.37500000000006,474.51460497738515 453.45833333333337,471.8995062416093 464.5416666666667,474.50484422119547 475.62500000000006,472.26842240507773 486.70833333333337,475.98467301734195 497.7916666666667,473.7204142106133 508.87500000000006,466.54186730790417 519.9583333333334,466.0909317116812 531.0416666666666,468.25165384245344 542.125,464.94467240161856 553.2083333333334,463.4497338910065 564.2916666666666,463.41140144884844 575.375,469.9454504949878 586.4583333333334,462.5605716785089 597.5416666666666,465.4781496171004 608.625,466.3791741991665 619.7083333333334,472.65855458152055 630.7916666666666,465.65866520160876 641.875,468.8749917312878 652.9583333333334,464.7818448731887 664.0416666666666,454.1753334471593 675.125,465.3155275673588 686.2083333333334,466.0823882168955 697.2916666666666,452.9166666666667 708.375,456.09667579117934 719.4583333333334,473.29736856975046" fill="none" stroke="#4ecdc4" stroke-width="1.5" opacity="0.9"/>
<circle cx="719.4583333333334" cy="473.29736856975046" r="3" fill="#4ecdc4" opacity="1"/>
<text x="724.4583333333334" y="476.29736856975046" font-family="sans-serif" font-size="9" fill="#4ecdc4" font-weight="bold">BIAS5=-0.6%</text>
<text x="65.54166666666667" y="489" text-anchor="middle" font-family="sans-serif" font-size="8" fill="#666666" transform="rotate(-45,65.54166666666667,489)">02/27</text>
<text x="120.95833333333334" y="489" text-anchor="middle" font-family="sans-serif" font-size="8" fill="#666666" transform="rotate(-45,120.95833333333334,489)">03/06</text>
<text x="176.375" y="489" text-anchor="middle" font-family="sans-serif" font-size="8" fill="#666666" transform="rotate(-45,176.375,489)">03/13</text>
<text x="231.79166666666666" y="489" text-anchor="middle" font-family="sans-serif" font-size="8" fill="#666666" transform="rotate(-45,231.79166666666666,489)">03/20</text>
<text x="287.20833333333337" y="489" text-anchor="middle" font-family="sans-serif" font-size="8" fill="#666666" transform="rotate(-45,287.20833333333337,489)">03/27</text>
<text x="342.62500000000006" y="489" text-anchor="middle" font-family="sans-serif" font-size="8" fill="#666666" transform="rotate(-45,342.62500000000006,489)">04/03</text>
<text x="398.0416666666667" y="489" text-anchor="middle" font-family="sans-serif" font-size="8" fill="#666666" transform="rotate(-45,398.0416666666667,489)">04/13</text>
<text x="453.45833333333337" y="489" text-anchor="middle" font-family="sans-serif" font-size="8" fill="#666666" transform="rotate(-45,453.45833333333337,489)">04/20</text>
<text x="508.87500000000006" y="489" text-anchor="middle" font-family="sans-serif" font-size="8" fill="#666666" transform="rotate(-45,508.87500000000006,489)">04/27</text>
<text x="564.2916666666666" y="489" text-anchor="middle" font-family="sans-serif" font-size="8" fill="#666666" transform="rotate(-45,564.2916666666666,489)">05/07</text>
<text x="619.7083333333334" y="489" text-anchor="middle" font-family="sans-serif" font-size="8" fill="#666666" transform="rotate(-45,619.7083333333334,489)">05/14</text>
<text x="675.125" y="489" text-anchor="middle" font-family="sans-serif" font-size="8" fill="#666666" transform="rotate(-45,675.125,489)">05/21</text>
<text x="719.4583333333334" y="489" text-anchor="middle" font-family="sans-serif" font-size="8" fill="#666666" transform="rotate(-45,719.4583333333334,489)">05/27</text>
<rect x="60" y="484" width="8" height="8" fill="#4ecdc4" opacity="0.8" rx="1"/>
<text x="71" y="491" font-family="sans-serif" font-size="9" fill="#888888">买入区(BIAS&lt;2%)</text>
<rect x="230" y="484" width="8" height="8" fill="#ffd700" opacity="0.8" rx="1"/>
<text x="241" y="491" font-family="sans-serif" font-size="9" fill="#888888">持有区(2-8%)</text>
<rect x="400" y="484" width="8" height="8" fill="#e94560" opacity="0.8" rx="1"/>
<text x="411" y="491" font-family="sans-serif" font-size="9" fill="#888888">警戒区(&gt;8%)</text>
<rect x="570" y="484" width="8" height="8" fill="#ffd700" opacity="0.8" rx="1"/>
<text x="581" y="491" font-family="sans-serif" font-size="9" fill="#888888">EMA5</text>
<rect x="60" y="497" width="8" height="8" fill="#ff6b6b" opacity="0.8" rx="1"/>
<text x="71" y="504" font-family="sans-serif" font-size="9" fill="#888888">EMA10</text>
<rect x="230" y="497" width="8" height="8" fill="#4ecdc4" opacity="0.8" rx="1"/>
<text x="241" y="504" font-family="sans-serif" font-size="9" fill="#888888">EMA20</text>
<rect x="400" y="497" width="8" height="8" fill="#4ecdc4" opacity="0.8" rx="1"/>
<text x="411" y="504" font-family="sans-serif" font-size="9" fill="#888888">B乖离买入</text>
<rect x="570" y="497" width="8" height="8" fill="#e94560" opacity="0.8" rx="1"/>
<text x="581" y="504" font-family="sans-serif" font-size="9" fill="#888888">W警戒⚠️</text>
</svg>