<svg xmlns="http://www.w3.org/2000/svg" width="750" height="540" viewBox="0 0 750 540">
<rect width="750" height="540" fill="#1a1a2e"/>
<text x="375.0" y="22" text-anchor="middle" font-family="sans-serif" font-size="15" fill="#ffffff" font-weight="bold">优迅股份(688807) 趋势交易分析图</text>
<text x="60" y="31" font-family="sans-serif" font-size="10" fill="#888888">最新: 501.88</text>
<line x1="60" y1="63.03132617654103" x2="725" y2="63.03132617654103" stroke="#4ecdc4" stroke-width="0.5" stroke-dasharray="4,3" opacity="0.4"/>
<text x="62" y="61.03132617654103" font-family="sans-serif" font-size="7" fill="#4ecdc4" opacity="0.6">买入↑2%</text>
<rect x="60" y="63.03132617654103" width="3" height="319.96867382345897" fill="#4ecdc4" opacity="0.3" rx="1"/>
<rect x="60" y="32" width="3" height="31.03132617654103" fill="#ffd700" opacity="0.2" rx="1"/>
<line x1="60" y1="32.0" x2="725" y2="32.0" stroke="#2a2a4e" stroke-width="0.5"/>
<text x="56" y="35.0" text-anchor="end" font-family="sans-serif" font-size="8" fill="#666666">518.9</text>
<line x1="60" y1="127.75" x2="725" y2="127.75" stroke="#2a2a4e" stroke-width="0.5"/>
<text x="56" y="130.75" text-anchor="end" font-family="sans-serif" font-size="8" fill="#666666">439.2</text>
<line x1="60" y1="223.5" x2="725" y2="223.5" stroke="#2a2a4e" stroke-width="0.5"/>
<text x="56" y="226.5" text-anchor="end" font-family="sans-serif" font-size="8" fill="#666666">359.5</text>
<line x1="60" y1="319.25" x2="725" y2="319.25" stroke="#2a2a4e" stroke-width="0.5"/>
<text x="56" y="322.25" text-anchor="end" font-family="sans-serif" font-size="8" fill="#666666">279.8</text>
<line x1="60" y1="415.0" x2="725" y2="415.0" stroke="#2a2a4e" stroke-width="0.5"/>
<text x="56" y="418.0" text-anchor="end" font-family="sans-serif" font-size="8" fill="#666666">200.1</text>
<rect x="61.66250000000001" y="446.75393154486585" width="6.095833333333334" height="28.246068455134136" fill="#ff4444" opacity="0.35"/>
<rect x="72.74583333333334" y="449.7304964539007" width="6.095833333333334" height="25.269503546099294" fill="#ff4444" opacity="0.35"/>
<rect x="83.82916666666668" y="449.5204029191078" width="6.095833333333334" height="25.479597080892177" fill="#ff4444" opacity="0.35"/>
<rect x="94.91250000000001" y="456.27001747353273" width="6.095833333333334" height="18.72998252646726" fill="#44aa44" opacity="0.35"/>
<rect x="105.99583333333335" y="462.1526364477336" width="6.095833333333334" height="12.847363552266419" fill="#ff4444" opacity="0.35"/>
<rect x="117.07916666666668" y="448.19292835851576" width="6.095833333333334" height="26.807071641484225" fill="#ff4444" opacity="0.35"/>
<rect x="128.1625" y="456.44413608798436" width="6.095833333333334" height="18.55586391201562" fill="#44aa44" opacity="0.35"/>
<rect x="139.24583333333334" y="454.8274231678487" width="6.095833333333334" height="20.172576832151304" fill="#44aa44" opacity="0.35"/>
<rect x="150.32916666666668" y="443.46150683523484" width="6.095833333333334" height="31.538493164765136" fill="#ff4444" opacity="0.35"/>
<rect x="161.4125" y="456.0556069482989" width="6.095833333333334" height="18.9443930517011" fill="#44aa44" opacity="0.35"/>
<rect x="172.49583333333334" y="459.380409086237" width="6.095833333333334" height="15.619590913762975" fill="#44aa44" opacity="0.35"/>
<rect x="183.57916666666668" y="457.36869154075447" width="6.095833333333334" height="17.631308459245552" fill="#44aa44" opacity="0.35"/>
<rect x="194.6625" y="463.2261280707164" width="6.095833333333334" height="11.773871929283585" fill="#ff4444" opacity="0.35"/>
<rect x="205.74583333333334" y="460.06465207112757" width="6.095833333333334" height="14.935347928872442" fill="#44aa44" opacity="0.35"/>
<rect x="216.82916666666668" y="464.7600986740672" width="6.095833333333334" height="10.23990132593278" fill="#ff4444" opacity="0.35"/>
<rect x="227.9125" y="464.7600986740672" width="6.095833333333334" height="10.23990132593278" fill="#44aa44" opacity="0.35"/>
<rect x="238.99583333333334" y="455.97718162195497" width="6.095833333333334" height="19.02281837804502" fill="#44aa44" opacity="0.35"/>
<rect x="250.07916666666668" y="458.04933703361087" width="6.095833333333334" height="16.950662966389146" fill="#44aa44" opacity="0.35"/>
<rect x="261.1625" y="464.308973172988" width="6.095833333333334" height="10.691026827012026" fill="#ff4444" opacity="0.35"/>
<rect x="272.2458333333334" y="458.5781683626272" width="6.095833333333334" height="16.421831637372804" fill="#ff4444" opacity="0.35"/>
<rect x="283.3291666666667" y="464.9896186658444" width="6.095833333333334" height="10.010381334155618" fill="#44aa44" opacity="0.35"/>
<rect x="294.4125" y="465.68969061568504" width="6.095833333333334" height="9.310309384314936" fill="#ff4444" opacity="0.35"/>
<rect x="305.4958333333334" y="466.6710864425943" width="6.095833333333334" height="8.328913557405693" fill="#ff4444" opacity="0.35"/>
<rect x="316.5791666666667" y="464.2535717956624" width="6.095833333333334" height="10.746428204337548" fill="#44aa44" opacity="0.35"/>
<rect x="327.6625" y="461.24319046150686" width="6.095833333333334" height="13.756809538493165" fill="#ff4444" opacity="0.35"/>
<rect x="338.7458333333334" y="465.99187994655153" width="6.095833333333334" height="9.008120053448453" fill="#44aa44" opacity="0.35"/>
<rect x="349.8291666666667" y="456.8880666049954" width="6.095833333333334" height="18.111933395004623" fill="#ff4444" opacity="0.35"/>
<rect x="360.9125" y="462.7649295919416" width="6.095833333333334" height="12.235070408058382" fill="#ff4444" opacity="0.35"/>
<rect x="371.9958333333334" y="456.38153972659063" width="6.095833333333334" height="18.618460273409394" fill="#ff4444" opacity="0.35"/>
<rect x="383.0791666666667" y="459.68691540754446" width="6.095833333333334" height="15.313084592455544" fill="#ff4444" opacity="0.35"/>
<rect x="394.1625" y="457.69750231267346" width="6.095833333333334" height="17.30249768732655" fill="#ff4444" opacity="0.35"/>
<rect x="405.2458333333334" y="447.5863912015623" width="6.095833333333334" height="27.41360879843766" fill="#ff4444" opacity="0.35"/>
<rect x="416.3291666666667" y="455.6685168054271" width="6.095833333333334" height="19.33148319457293" fill="#ff4444" opacity="0.35"/>
<rect x="427.4125" y="461.87706855791964" width="6.095833333333334" height="13.122931442080377" fill="#44aa44" opacity="0.35"/>
<rect x="438.4958333333334" y="457.8032685784767" width="6.095833333333334" height="17.196731421523282" fill="#ff4444" opacity="0.35"/>
<rect x="449.5791666666667" y="452.8207421112139" width="6.095833333333334" height="22.179257888786104" fill="#ff4444" opacity="0.35"/>
<rect x="460.6625" y="444.86524822695037" width="6.095833333333334" height="30.134751773049647" fill="#44aa44" opacity="0.35"/>
<rect x="471.7458333333334" y="459.1048411964231" width="6.095833333333334" height="15.895158803576933" fill="#ff4444" opacity="0.35"/>
<rect x="482.8291666666667" y="450.90687634905953" width="6.095833333333334" height="24.093123650940488" fill="#ff4444" opacity="0.35"/>
<rect x="493.9125" y="454.44249152019734" width="6.095833333333334" height="20.55750847980265" fill="#44aa44" opacity="0.35"/>
<rect x="504.9958333333334" y="447.72093740363863" width="6.095833333333334" height="27.279062596361396" fill="#ff4444" opacity="0.35"/>
<rect x="516.0791666666667" y="458.72278754239903" width="6.095833333333334" height="16.27721245760099" fill="#44aa44" opacity="0.35"/>
<rect x="527.1624999999999" y="458.9638195086854" width="6.095833333333334" height="16.036180491314624" fill="#44aa44" opacity="0.35"/>
<rect x="538.2458333333333" y="456.6772535717957" width="6.095833333333334" height="18.322746428204336" fill="#44aa44" opacity="0.35"/>
<rect x="549.3291666666667" y="460.243807174427" width="6.095833333333334" height="14.756192825573029" fill="#44aa44" opacity="0.35"/>
<rect x="560.4124999999999" y="460.23445369513826" width="6.095833333333334" height="14.765546304861754" fill="#44aa44" opacity="0.35"/>
<rect x="571.4958333333333" y="460.78486997635935" width="6.095833333333334" height="14.215130023640661" fill="#ff4444" opacity="0.35"/>
<rect x="582.5791666666667" y="454.63459759481964" width="6.095833333333334" height="20.36540240518039" fill="#ff4444" opacity="0.35"/>
<rect x="593.6624999999999" y="458.86596772535717" width="6.095833333333334" height="16.13403227464282" fill="#44aa44" opacity="0.35"/>
<rect x="604.7458333333333" y="460.0200431699044" width="6.095833333333334" height="14.979956830095592" fill="#44aa44" opacity="0.35"/>
<rect x="615.8291666666667" y="463.203104121698" width="6.095833333333334" height="11.796895878301983" fill="#ff4444" opacity="0.35"/>
<rect x="626.9124999999999" y="463.8305067324494" width="6.095833333333334" height="11.16949326755062" fill="#44aa44" opacity="0.35"/>
<rect x="637.9958333333333" y="461.98427382053654" width="6.095833333333334" height="13.01572617946346" fill="#44aa44" opacity="0.35"/>
<rect x="649.0791666666667" y="440.1582896495015" width="6.095833333333334" height="34.84171035049851" fill="#ff4444" opacity="0.35"/>
<rect x="660.1624999999999" y="440.0" width="6.095833333333334" height="35.0" fill="#ff4444" opacity="0.35"/>
<rect x="671.2458333333333" y="451.5465104327269" width="6.095833333333334" height="23.4534895672731" fill="#ff4444" opacity="0.35"/>
<rect x="682.3291666666667" y="456.1901531503752" width="6.095833333333334" height="18.809846849624833" fill="#44aa44" opacity="0.35"/>
<rect x="693.4124999999999" y="456.819714256347" width="6.095833333333334" height="18.180285743653" fill="#ff4444" opacity="0.35"/>
<rect x="704.4958333333333" y="456.9823208962894" width="6.095833333333334" height="18.017679103710556" fill="#ff4444" opacity="0.35"/>
<rect x="715.5791666666667" y="459.62935553499847" width="6.095833333333334" height="15.370644465001542" fill="#44aa44" opacity="0.25" stroke-dasharray="3,2"/>
<polyline points="65.54166666666667,377.0340046427003 76.625,372.4604638517682 87.70833333333334,367.62927759304574 98.79166666666667,374.22437859152836 109.87500000000001,379.24186462431226 120.95833333333334,375.55834034953733 132.04166666666666,371.9252310613914 143.125,375.5264553563593 154.20833333333334,365.0436632128746 165.29166666666666,359.825279626493 176.375,358.7532731859661 187.45833333333334,363.9657829354044 198.54166666666666,366.75195492010835 209.625,375.6459275768705 220.70833333333334,378.9320404729589 231.79166666666666,383.87011075970855 242.875,386.20099317811633 253.95833333333334,394.6472647914339 265.0416666666667,398.2396429516977 276.12500000000006,396.249248970329 287.20833333333337,397.7978032640305 298.2916666666667,398.46172642471845 309.37500000000006,397.5707262054745 320.45833333333337,399.8722339330807 331.5416666666667,396.8049976644028 342.62500000000006,396.42218699512375 353.70833333333337,389.9834886553015 364.7916666666667,384.5656597309263 375.87500000000006,372.7358178242564 386.95833333333337,366.8757115795982 398.0416666666667,360.08147591305254 409.12500000000006,341.17456739561845 420.20833333333337,328.18149108972807 431.2916666666667,321.58594376389885 442.37500000000006,311.6502021311577 453.45833333333337,280.78500624332446 464.5416666666667,266.2915789159649 475.62500000000006,258.23123476343414 486.70833333333337,245.70500662502363 497.7916666666667,246.90976433470323 508.87500000000006,226.8877066202746 519.9583333333334,218.34549034111538 531.0416666666666,213.45965955819216 542.125,215.32063967618316 553.2083333333334,219.84527158954694 564.2916666666666,221.80040712992403 575.375,216.37567974753162 586.4583333333334,202.466725620424 597.5416666666666,188.44834011602313 608.625,182.42677679943503 619.7083333333334,173.09395802355627 630.7916666666666,171.54974577817362 641.875,179.83555630668212 652.9583333333334,160.14488286476384 664.0416666666666,134.41049367302298 675.125,118.8081167222667 686.2083333333334,116.66453656382498 697.2916666666666,106.59301287369787 708.375,85.75755619105634 719.4583333333334,74.6466189066335" fill="none" stroke="#ffd700" stroke-width="1" opacity="0.7"/>
<polyline points="65.54166666666667,377.0340046427003 76.625,374.53934602946464 87.70833333333334,371.52617494694385 98.79166666666667,374.41497597268017 109.87500000000001,377.1171324667166 120.95833333333334,375.49425234549307 132.04166666666666,373.5242087345124 143.125,375.19778968210926 154.20833333333334,369.53966045370856 165.29166666666666,365.87581536280334 176.375,364.1909871704595 187.45833333333334,366.0454990366088 198.54166666666666,367.1870990098647 209.625,371.95923971541566 220.70833333333334,374.42197181536477 231.79166666666666,377.93547718224534 242.875,380.28589187909745 253.95833333333334,385.9684220861832 265.0416666666667,389.50587248364536 276.12500000000006,390.008161306181 287.20833333333337,391.98757049622697 298.2916666666667,393.4061163598392 309.37500000000006,393.8393180702297 320.45833333333337,395.77312376442296 331.5416666666667,394.8453785576274 342.62500000000006,394.9928671210706 353.70833333333337,391.74072618554095 364.7916666666667,388.4660490394746 375.87500000000006,381.3042463070095 386.95833333333337,376.54992863124085 398.0416666666667,371.0850333491899 409.12500000000006,358.77152735129187 420.20833333333337,348.4849475561383 431.2916666666667,341.19583874815686 442.37500000000006,332.210907860433 453.45833333333337,311.6370363344739 464.5416666666667,298.1220705029779 475.62500000000006,287.9381570403224 486.70833333333337,275.70441036902787 497.7916666666667,270.90711389357966 508.87500000000006,255.62283703864102 519.9583333333334,245.73887717394214 531.0416666666666,238.09326277728823 542.125,234.62950589272035 553.2083333333334,233.586783987912 564.2916666666666,232.15476475568767 575.375,227.3132120696984 586.4583333333334,217.7378675781548 597.5416666666666,207.31490421980328 608.625,200.60013075552249 619.7083333333334,192.20525615848177 630.7916666666666,187.8881770910139 641.875,189.43708623150212 652.9583333333334,176.9509861859431 664.0416666666666,159.85839147750636 675.125,146.72111353991505 686.2083333333334,140.4767976684653 697.2916666666666,130.65373727300687 708.375,114.914265555328 719.4583333333334,103.55253442486618" fill="none" stroke="#ff6b6b" stroke-width="1" opacity="0.7"/>
<polyline points="65.54166666666667,377.0340046427003 76.625,375.727278702434 87.70833333333334,374.0358145474975 98.79166666666667,375.30998274187806 109.87500000000001,376.6401593083545 120.95833333333334,375.8355052599386 132.04166666666666,374.77107737662055 143.125,375.5289656213515 154.20833333333334,372.533643078928 165.29166666666666,370.3293449241472 176.375,369.02267019850586 187.45833333333334,369.53392088762723 198.54166666666666,369.7996711735215 209.625,372.0505475275094 220.70833333333334,373.33185407395 231.79166666666666,375.2760823843555 242.875,376.7605276825057 253.95833333333334,380.0728400954165 265.0416666666667,382.4872743027316 276.12500000000006,383.41881589367057 287.20833333333337,385.08320598488615 298.2916666666667,386.4838123430965 309.37500000000006,387.3699945739432 320.45833333333337,388.9990664610241 331.5416666666667,389.1582530006453 342.62500000000006,389.7771399202568 353.70833333333337,388.5703734493425 364.7916666666667,387.15700472866 375.87500000000006,383.53025513649396 386.95833333333337,380.8278974178071 398.0416666666667,377.5579076237265 409.12500000000006,370.4915116939193 420.20833333333337,363.98711424477904 431.2916666666667,358.6926128035849 442.37500000000006,352.3198609999745 453.45833333333337,339.6279327588015 464.5416666666667,329.8828652828438 475.62500000000006,321.5235968233703 486.70833333333337,311.91683049240197 497.7916666666667,305.95515899351244 508.87500000000006,294.61120015521766 519.9583333333334,285.7207104054633 531.0416666666666,277.9080711280235 542.125,272.3018357741322 553.2083333333334,268.16780716862195 564.2916666666666,264.1242710773892 575.375,258.54350478266133 586.4583333333334,250.55353455252302 597.5416666666666,241.96858546249427 608.625,235.15097257713848 619.7083333333334,227.46310094805852 630.7916666666666,221.8438838375204 641.875,219.4213403638231 652.9583333333334,210.02535899402352 664.0416666666666,197.92215483169193 675.125,187.4156032116026 686.2083333333334,180.26910540544435 697.2916666666666,171.3339492233491 708.375,159.2151581378657 719.4583333333334,149.04464253785824" fill="none" stroke="#4ecdc4" stroke-width="1" opacity="0.7"/>
<line x1="65.54166666666667" y1="368.5036702428007" x2="65.54166666666667" y2="391.9801116757639" stroke="#ff4444" stroke-width="0.5" opacity="0.6"/>
<rect x="63.04791666666667" y="377.0340046427003" width="4.987500000000001" height="14.705815923207183" fill="#ff4444" opacity="0.8" rx="1"/>
<line x1="76.625" y1="361.54724261246" x2="76.625" y2="385.08375682288727" stroke="#ff4444" stroke-width="0.5" opacity="0.6"/>
<rect x="74.13125" y="363.313382269904" width="4.987500000000001" height="20.56891900370158" fill="#ff4444" opacity="0.8" rx="1"/>
<line x1="87.70833333333334" y1="351.9235836627141" x2="87.70833333333334" y2="376.67356797791587" stroke="#ff4444" stroke-width="0.5" opacity="0.6"/>
<rect x="85.21458333333334" y="357.9669050756007" width="4.987500000000001" height="13.888826149695774" fill="#ff4444" opacity="0.8" rx="1"/>
<line x1="98.79166666666667" y1="356.248823640128" x2="98.79166666666667" y2="387.47465336595775" stroke="#44aa44" stroke-width="0.5" opacity="0.6"/>
<rect x="96.29791666666667" y="360.9345002823264" width="4.987500000000001" height="26.48008030616728" fill="#44aa44" opacity="0.8" rx="1"/>
<line x1="109.87500000000001" y1="377.29832486354223" x2="109.87500000000001" y2="391.0790200138027" stroke="#ff4444" stroke-width="0.5" opacity="0.6"/>
<rect x="107.38125000000001" y="389.2768366898802" width="4.987500000000001" height="1.5979358805445827" fill="#ff4444" opacity="0.8" rx="1"/>
<line x1="120.95833333333334" y1="352.0557437731351" x2="120.95833333333334" y2="383.85827216262004" stroke="#ff4444" stroke-width="0.5" opacity="0.6"/>
<rect x="118.46458333333334" y="368.1912917999875" width="4.987500000000001" height="15.630936696154095" fill="#ff4444" opacity="0.8" rx="1"/>
<line x1="132.04166666666666" y1="355.071397201832" x2="132.04166666666666" y2="370.30585356672316" stroke="#44aa44" stroke-width="0.5" opacity="0.6"/>
<rect x="129.54791666666665" y="362.268115942029" width="4.987500000000001" height="2.3908965430704825" fill="#44aa44" opacity="0.8" rx="1"/>
<line x1="143.125" y1="376.67356797791587" x2="143.125" y2="395.704623878537" stroke="#44aa44" stroke-width="0.5" opacity="0.6"/>
<rect x="140.63125" y="380.27793462576074" width="4.987500000000001" height="2.4509693205345116" fill="#44aa44" opacity="0.8" rx="1"/>
<line x1="154.20833333333334" y1="333.6975029801117" x2="154.20833333333334" y2="377.87502352719747" stroke="#ff4444" stroke-width="0.5" opacity="0.6"/>
<rect x="151.71458333333334" y="344.07807892590506" width="4.987500000000001" height="33.79694460129241" fill="#ff4444" opacity="0.8" rx="1"/>
<line x1="165.29166666666666" y1="337.15769496204285" x2="165.29166666666666" y2="353.84591254156476" stroke="#44aa44" stroke-width="0.5" opacity="0.6"/>
<rect x="162.79791666666665" y="344.23426814731164" width="4.987500000000001" height="5.15424430641815" fill="#44aa44" opacity="0.8" rx="1"/>
<line x1="176.375" y1="345.4116945856077" x2="176.375" y2="362.53243616287097" stroke="#44aa44" stroke-width="0.5" opacity="0.6"/>
<rect x="173.88125" y="346.6371792458749" width="4.987500000000001" height="9.972081059037578" fill="#44aa44" opacity="0.8" rx="1"/>
<line x1="187.45833333333334" y1="360.45391806261375" x2="187.45833333333334" y2="378.235460191982" stroke="#44aa44" stroke-width="0.5" opacity="0.6"/>
<rect x="184.96458333333334" y="364.5388669301713" width="4.987500000000001" height="9.851935504109406" fill="#44aa44" opacity="0.8" rx="1"/>
<line x1="198.54166666666666" y1="369.3807327937763" x2="198.54166666666666" y2="381.04686617730096" stroke="#ff4444" stroke-width="0.5" opacity="0.6"/>
<rect x="196.04791666666665" y="372.3242988895163" width="4.987500000000001" height="4.349269088399581" fill="#ff4444" opacity="0.8" rx="1"/>
<line x1="209.625" y1="369.34468912729784" x2="209.625" y2="393.43387289039464" stroke="#44aa44" stroke-width="0.5" opacity="0.6"/>
<rect x="207.13125" y="370.6662902315076" width="4.987500000000001" height="22.767582658887022" fill="#44aa44" opacity="0.8" rx="1"/>
<line x1="220.70833333333334" y1="384.13460693895485" x2="220.70833333333334" y2="393.62610577827974" stroke="#ff4444" stroke-width="0.5" opacity="0.6"/>
<rect x="218.21458333333334" y="385.50426626513587" width="4.987500000000001" height="5.586768304159591" fill="#ff4444" opacity="0.8" rx="1"/>
<line x1="231.79166666666666" y1="385.08375682288727" x2="231.79166666666666" y2="396.66578831796227" stroke="#44aa44" stroke-width="0.5" opacity="0.6"/>
<rect x="229.29791666666665" y="393.4939456678587" width="4.987500000000001" height="0.5" fill="#44aa44" opacity="0.8" rx="1"/>
<line x1="242.875" y1="371.8917748917749" x2="242.875" y2="391.45147123408" stroke="#44aa44" stroke-width="0.5" opacity="0.6"/>
<rect x="240.38125" y="385.08375682288727" width="4.987500000000001" height="5.779001192044689" fill="#44aa44" opacity="0.8" rx="1"/>
<line x1="253.95833333333334" y1="396.617730095991" x2="253.95833333333334" y2="412.7172344563649" stroke="#44aa44" stroke-width="0.5" opacity="0.6"/>
<rect x="251.46458333333334" y="402.180469289165" width="4.987500000000001" height="9.359338728903879" fill="#44aa44" opacity="0.8" rx="1"/>
<line x1="265.0416666666667" y1="404.33107472237907" x2="265.0416666666667" y2="415.0" stroke="#ff4444" stroke-width="0.5" opacity="0.6"/>
<rect x="262.5479166666667" y="405.4243992722254" width="4.987500000000001" height="1.8021833239224065" fill="#ff4444" opacity="0.8" rx="1"/>
<line x1="276.12500000000006" y1="384.00244682853383" x2="276.12500000000006" y2="402.31262939958594" stroke="#ff4444" stroke-width="0.5" opacity="0.6"/>
<rect x="273.6312500000001" y="392.2684610075915" width="4.987500000000001" height="4.829851308112154" fill="#ff4444" opacity="0.8" rx="1"/>
<line x1="287.20833333333337" y1="390.009724574942" x2="287.20833333333337" y2="401.8801054018446" stroke="#44aa44" stroke-width="0.5" opacity="0.6"/>
<rect x="284.7145833333334" y="391.09103456929546" width="4.987500000000001" height="9.803877282138103" fill="#44aa44" opacity="0.8" rx="1"/>
<line x1="298.2916666666667" y1="394.93569232699673" x2="298.2916666666667" y2="407.9114122592384" stroke="#ff4444" stroke-width="0.5" opacity="0.6"/>
<rect x="295.7979166666667" y="399.7895727460945" width="4.987500000000001" height="4.4333709768492895" fill="#ff4444" opacity="0.8" rx="1"/>
<line x1="309.37500000000006" y1="395.6565656565657" x2="309.37500000000006" y2="407.8513394817743" stroke="#ff4444" stroke-width="0.5" opacity="0.6"/>
<rect x="306.8812500000001" y="395.7887257669866" width="4.987500000000001" height="8.878756509191362" fill="#ff4444" opacity="0.8" rx="1"/>
<line x1="320.45833333333337" y1="397.6509818683732" x2="320.45833333333337" y2="410.45849802371544" stroke="#44aa44" stroke-width="0.5" opacity="0.6"/>
<rect x="317.9645833333334" y="397.6509818683732" width="4.987500000000001" height="6.824267519919658" fill="#44aa44" opacity="0.8" rx="1"/>
<line x1="331.5416666666667" y1="388.5559633603112" x2="331.5416666666667" y2="396.2332643202208" stroke="#ff4444" stroke-width="0.5" opacity="0.6"/>
<rect x="329.0479166666667" y="390.67052512704686" width="4.987500000000001" height="0.5" fill="#ff4444" opacity="0.8" rx="1"/>
<line x1="342.62500000000006" y1="390.12987012987014" x2="342.62500000000006" y2="399.48920885877413" stroke="#44aa44" stroke-width="0.5" opacity="0.6"/>
<rect x="340.1312500000001" y="393.0373925591317" width="4.987500000000001" height="2.619173097433986" fill="#44aa44" opacity="0.8" rx="1"/>
<line x1="353.70833333333337" y1="370.67830478700046" x2="353.70833333333337" y2="394.0105715540498" stroke="#ff4444" stroke-width="0.5" opacity="0.6"/>
<rect x="351.2145833333334" y="377.1060919756572" width="4.987500000000001" height="15.186398142919927" fill="#ff4444" opacity="0.8" rx="1"/>
<line x1="364.7916666666667" y1="370.90658134136396" x2="364.7916666666667" y2="380.16980362632535" stroke="#ff4444" stroke-width="0.5" opacity="0.6"/>
<rect x="362.2979166666667" y="373.7300018821758" width="4.987500000000001" height="6.43980174414952" fill="#ff4444" opacity="0.8" rx="1"/>
<line x1="375.87500000000006" y1="347.83863479515657" x2="375.87500000000006" y2="369.1524562394128" stroke="#ff4444" stroke-width="0.5" opacity="0.6"/>
<rect x="373.3812500000001" y="349.07613401091663" width="4.987500000000001" height="14.381422924901187" fill="#ff4444" opacity="0.8" rx="1"/>
<line x1="386.95833333333337" y1="344.23426814731164" x2="386.95833333333337" y2="358.6517347386913" stroke="#ff4444" stroke-width="0.5" opacity="0.6"/>
<rect x="384.4645833333334" y="355.15549909028175" width="4.987500000000001" height="2.6792458748980152" fill="#ff4444" opacity="0.8" rx="1"/>
<line x1="398.0416666666667" y1="339.4284459501851" x2="398.0416666666667" y2="357.3661773009599" stroke="#ff4444" stroke-width="0.5" opacity="0.6"/>
<rect x="395.5479166666667" y="346.4930045799611" width="4.987500000000001" height="8.554363510885253" fill="#ff4444" opacity="0.8" rx="1"/>
<line x1="409.12500000000006" y1="293.77313507748295" x2="409.12500000000006" y2="351.32285588807326" stroke="#ff4444" stroke-width="0.5" opacity="0.6"/>
<rect x="406.6312500000001" y="303.3607503607504" width="4.987500000000001" height="43.27642888512452" fill="#ff4444" opacity="0.8" rx="1"/>
<line x1="420.20833333333337" y1="286.9849112240417" x2="420.20833333333337" y2="306.3523746784617" stroke="#ff4444" stroke-width="0.5" opacity="0.6"/>
<rect x="417.7145833333334" y="302.1953384779472" width="4.987500000000001" height="0.5" fill="#ff4444" opacity="0.8" rx="1"/>
<line x1="431.2916666666667" y1="298.9874521613652" x2="431.2916666666667" y2="318.03052261747916" stroke="#44aa44" stroke-width="0.5" opacity="0.6"/>
<rect x="428.7979166666667" y="300.8617228182445" width="4.987500000000001" height="7.533126293995963" fill="#44aa44" opacity="0.8" rx="1"/>
<line x1="442.37500000000006" y1="287.7658573310747" x2="442.37500000000006" y2="314.19787941527073" stroke="#ff4444" stroke-width="0.5" opacity="0.6"/>
<rect x="439.8812500000001" y="291.7787188656754" width="4.987500000000001" height="13.047807265198571" fill="#ff4444" opacity="0.8" rx="1"/>
<line x1="453.45833333333337" y1="219.05461446765796" x2="453.45833333333337" y2="276.3760587238848" stroke="#ff4444" stroke-width="0.5" opacity="0.6"/>
<rect x="450.9645833333334" y="219.05461446765796" width="4.987500000000001" height="52.4795783926219" fill="#ff4444" opacity="0.8" rx="1"/>
<line x1="464.5416666666667" y1="219.31893468849987" x2="464.5416666666667" y2="251.26563774389862" stroke="#44aa44" stroke-width="0.5" opacity="0.6"/>
<rect x="462.0479166666667" y="220.1839826839827" width="4.987500000000001" height="17.120741577263317" fill="#44aa44" opacity="0.8" rx="1"/>
<line x1="475.62500000000006" y1="234.4692891649413" x2="475.62500000000006" y2="251.72219085262563" stroke="#ff4444" stroke-width="0.5" opacity="0.6"/>
<rect x="473.1312500000001" y="242.11054645837257" width="4.987500000000001" height="4.805822197126531" fill="#ff4444" opacity="0.8" rx="1"/>
<line x1="486.70833333333337" y1="204.86542443064184" x2="486.70833333333337" y2="249.07898864420605" stroke="#ff4444" stroke-width="0.5" opacity="0.6"/>
<rect x="484.2145833333334" y="220.6525503482025" width="4.987500000000001" height="23.692703431833905" fill="#ff4444" opacity="0.8" rx="1"/>
<line x1="497.7916666666667" y1="222.8872576698664" x2="497.7916666666667" y2="254.12510195118892" stroke="#44aa44" stroke-width="0.5" opacity="0.6"/>
<rect x="495.2979166666667" y="232.49890206411948" width="4.987500000000001" height="16.820377689942916" fill="#44aa44" opacity="0.8" rx="1"/>
<line x1="508.87500000000006" y1="183.659733985821" x2="508.87500000000006" y2="250.90520107911414" stroke="#ff4444" stroke-width="0.5" opacity="0.6"/>
<rect x="506.3812500000001" y="186.8435911914173" width="4.987500000000001" height="63.67714411192674" fill="#ff4444" opacity="0.8" rx="1"/>
<line x1="519.9583333333334" y1="185.88242675199194" x2="519.9583333333334" y2="206.4393312002008" stroke="#44aa44" stroke-width="0.5" opacity="0.6"/>
<rect x="517.4645833333334" y="187.3602170776084" width="4.987500000000001" height="13.9008407051885" fill="#44aa44" opacity="0.8" rx="1"/>
<line x1="531.0416666666666" y1="162.81448020578455" x2="531.0416666666666" y2="210.75255662212183" stroke="#44aa44" stroke-width="0.5" opacity="0.6"/>
<rect x="528.5479166666667" y="203.6639688813602" width="4.987500000000001" height="0.5" fill="#44aa44" opacity="0.8" rx="1"/>
<line x1="542.125" y1="198.85814668423365" x2="542.125" y2="230.09599096555618" stroke="#44aa44" stroke-width="0.5" opacity="0.6"/>
<rect x="539.63125" y="216.8799799234582" width="4.987500000000001" height="2.162619988706979" fill="#44aa44" opacity="0.8" rx="1"/>
<line x1="553.2083333333334" y1="210.9207603990213" x2="553.2083333333334" y2="239.19100947361818" stroke="#44aa44" stroke-width="0.5" opacity="0.6"/>
<rect x="550.7145833333334" y="215.43823326432025" width="4.987500000000001" height="13.456302151954333" fill="#44aa44" opacity="0.8" rx="1"/>
<line x1="564.2916666666666" y1="206.3912729782295" x2="564.2916666666666" y2="232.48688750862667" stroke="#44aa44" stroke-width="0.5" opacity="0.6"/>
<rect x="561.7979166666667" y="220.36420101637492" width="4.987500000000001" height="5.346477194303333" fill="#44aa44" opacity="0.8" rx="1"/>
<line x1="575.375" y1="198.85814668423365" x2="575.375" y2="234.7936821632474" stroke="#ff4444" stroke-width="0.5" opacity="0.6"/>
<rect x="572.88125" y="205.52622498274675" width="4.987500000000001" height="22.32304410565277" fill="#ff4444" opacity="0.8" rx="1"/>
<line x1="586.4583333333334" y1="132.14132003262444" x2="586.4583333333334" y2="222.8872576698664" stroke="#ff4444" stroke-width="0.5" opacity="0.6"/>
<rect x="583.9645833333334" y="174.6488173662087" width="4.987500000000001" height="44.46586987891334" fill="#ff4444" opacity="0.8" rx="1"/>
<line x1="597.5416666666666" y1="127.9722692766171" x2="597.5416666666666" y2="164.9771001944915" stroke="#44aa44" stroke-width="0.5" opacity="0.6"/>
<rect x="595.0479166666667" y="150.7999247129682" width="4.987500000000001" height="9.61164439425309" fill="#44aa44" opacity="0.8" rx="1"/>
<line x1="608.625" y1="152.80635548026856" x2="608.625" y2="179.63485789572746" stroke="#44aa44" stroke-width="0.5" opacity="0.6"/>
<rect x="606.13125" y="160.19530710835056" width="4.987500000000001" height="10.188343057908327" fill="#44aa44" opacity="0.8" rx="1"/>
<line x1="619.7083333333334" y1="153.2028358115315" x2="619.7083333333334" y2="186.74747474747477" stroke="#ff4444" stroke-width="0.5" opacity="0.6"/>
<rect x="617.2145833333334" y="154.4283204717987" width="4.987500000000001" height="23.0439174352218" fill="#ff4444" opacity="0.8" rx="1"/>
<line x1="630.7916666666666" y1="136.39447267708135" x2="630.7916666666666" y2="168.79772884120715" stroke="#44aa44" stroke-width="0.5" opacity="0.6"/>
<rect x="628.2979166666667" y="144.79264696656003" width="4.987500000000001" height="23.668674320848197" fill="#44aa44" opacity="0.8" rx="1"/>
<line x1="641.875" y1="158.00865800865802" x2="641.875" y2="208.72209674383586" stroke="#44aa44" stroke-width="0.5" opacity="0.6"/>
<rect x="639.38125" y="170.02321350147437" width="4.987500000000001" height="26.383963862224732" fill="#44aa44" opacity="0.8" rx="1"/>
<line x1="652.9583333333334" y1="104.60395884308929" x2="652.9583333333334" y2="165.08523119392683" stroke="#ff4444" stroke-width="0.5" opacity="0.6"/>
<rect x="650.4645833333334" y="120.76353598092729" width="4.987500000000001" height="44.32169521299954" fill="#ff4444" opacity="0.8" rx="1"/>
<line x1="664.0416666666666" y1="62.25265073091161" x2="664.0416666666666" y2="139.98682476943347" stroke="#ff4444" stroke-width="0.5" opacity="0.6"/>
<rect x="661.5479166666667" y="82.94171528954135" width="4.987500000000001" height="57.04510947989212" fill="#ff4444" opacity="0.8" rx="1"/>
<line x1="675.125" y1="59.48930296756383" x2="675.125" y2="108.6408494886756" stroke="#ff4444" stroke-width="0.5" opacity="0.6"/>
<rect x="672.63125" y="87.60336282075409" width="4.987500000000001" height="20.90532655750053" fill="#ff4444" opacity="0.8" rx="1"/>
<line x1="686.2083333333334" y1="70.30240291109857" x2="686.2083333333334" y2="114.75625823451911" stroke="#44aa44" stroke-width="0.5" opacity="0.6"/>
<rect x="683.7145833333334" y="89.52569169960475" width="4.987500000000001" height="22.85168454733669" fill="#44aa44" opacity="0.8" rx="1"/>
<line x1="697.2916666666666" y1="68.17582658887008" x2="697.2916666666666" y2="106.75456427630337" stroke="#ff4444" stroke-width="0.5" opacity="0.6"/>
<rect x="694.7979166666667" y="86.44996549344376" width="4.987500000000001" height="7.4009661835749085" fill="#ff4444" opacity="0.8" rx="1"/>
<line x1="708.375" y1="43.89440993788817" x2="708.375" y2="81.11550285463329" stroke="#ff4444" stroke-width="0.5" opacity="0.6"/>
<rect x="705.88125" y="44.08664282577327" width="4.987500000000001" height="37.028860028860024" fill="#ff4444" opacity="0.8" rx="1"/>
<line x1="719.4583333333334" y1="32.0" x2="719.4583333333334" y2="74.11101700232138" stroke="#44aa44" stroke-width="0.5" opacity="0.3" stroke-dasharray="4,3"/>
<rect x="716.9645833333334" y="50.43032812598027" width="4.987500000000001" height="1.9944162118075468" fill="#44aa44" opacity="0.4" stroke-dasharray="4,3" rx="1"/>
<text x="739.4583333333334" y="46.424744337787814" font-family="sans-serif" font-size="9" fill="#ffd700" opacity="0.8">🕐 盘中</text>
<line x1="342.62500000000006" y1="399.48920885877413" x2="342.62500000000006" y2="364.48920885877413" stroke="#4ecdc4" stroke-width="0.8" stroke-dasharray="2,2" opacity="0.7"/>
<rect x="306.62500000000006" y="355.48920885877413" width="72" height="16" fill="#4ecdc4" opacity="0.85" rx="3"/>
<text x="342.62500000000006" y="367.48920885877413" text-anchor="middle" font-family="sans-serif" font-size="9" fill="#000000" font-weight="bold">B1乖离买入</text>
<polygon points="342.62500000000006,405.48920885877413 338.62500000000006,399.48920885877413 346.62500000000006,399.48920885877413" fill="#4ecdc4" opacity="0.9"/>
<line x1="497.7916666666667" y1="254.12510195118892" x2="497.7916666666667" y2="204.12510195118892" stroke="#4ecdc4" stroke-width="0.8" stroke-dasharray="2,2" opacity="0.7"/>
<rect x="461.7916666666667" y="195.12510195118892" width="72" height="16" fill="#4ecdc4" opacity="0.85" rx="3"/>
<text x="497.7916666666667" y="207.12510195118892" text-anchor="middle" font-family="sans-serif" font-size="9" fill="#000000" font-weight="bold">B2乖离买入</text>
<polygon points="497.7916666666667,260.1251019511889 493.7916666666667,254.12510195118892 501.7916666666667,254.12510195118892" fill="#4ecdc4" opacity="0.9"/>
<line x1="542.125" y1="230.09599096555618" x2="542.125" y2="165.09599096555618" stroke="#4ecdc4" stroke-width="0.8" stroke-dasharray="2,2" opacity="0.7"/>
<rect x="506.125" y="156.09599096555618" width="72" height="16" fill="#4ecdc4" opacity="0.85" rx="3"/>
<text x="542.125" y="168.09599096555618" text-anchor="middle" font-family="sans-serif" font-size="9" fill="#000000" font-weight="bold">B3乖离买入</text>
<polygon points="542.125,236.09599096555618 538.125,230.09599096555618 546.125,230.09599096555618" fill="#4ecdc4" opacity="0.9"/>
<line x1="630.7916666666666" y1="168.79772884120715" x2="630.7916666666666" y2="88.79772884120715" stroke="#4ecdc4" stroke-width="0.8" stroke-dasharray="2,2" opacity="0.7"/>
<rect x="594.7916666666666" y="79.79772884120715" width="72" height="16" fill="#4ecdc4" opacity="0.85" rx="3"/>
<text x="630.7916666666666" y="91.79772884120715" text-anchor="middle" font-family="sans-serif" font-size="9" fill="#000000" font-weight="bold">B4乖离买入</text>
<polygon points="630.7916666666666,174.79772884120715 626.7916666666666,168.79772884120715 634.7916666666666,168.79772884120715" fill="#4ecdc4" opacity="0.9"/>
<line x1="686.2083333333334" y1="114.75625823451911" x2="686.2083333333334" y2="19.75625823451911" stroke="#4ecdc4" stroke-width="0.8" stroke-dasharray="2,2" opacity="0.7"/>
<rect x="650.2083333333334" y="10.756258234519109" width="72" height="16" fill="#4ecdc4" opacity="0.85" rx="3"/>
<text x="686.2083333333334" y="22.75625823451911" text-anchor="middle" font-family="sans-serif" font-size="9" fill="#000000" font-weight="bold">B5乖离买入</text>
<polygon points="686.2083333333334,120.75625823451911 682.2083333333334,114.75625823451911 690.2083333333334,114.75625823451911" fill="#4ecdc4" opacity="0.9"/>
<line x1="453.45833333333337" y1="219.05461446765796" x2="453.45833333333337" y2="238.05461446765796" stroke="#e94560" stroke-width="0.8" stroke-dasharray="2,2" opacity="0.7"/>
<rect x="419.45833333333337" y="245.05461446765796" width="68" height="16" fill="#e94560" opacity="0.85" rx="3"/>
<text x="453.45833333333337" y="257.054614467658" text-anchor="middle" font-family="sans-serif" font-size="9" fill="#ffffff" font-weight="bold">W1警戒⚠️</text>
<polygon points="453.45833333333337,213.05461446765796 449.45833333333337,219.05461446765796 457.45833333333337,219.05461446765796" fill="#e94560" opacity="0.9"/>
<line x1="508.87500000000006" y1="183.659733985821" x2="508.87500000000006" y2="217.659733985821" stroke="#e94560" stroke-width="0.8" stroke-dasharray="2,2" opacity="0.7"/>
<rect x="474.87500000000006" y="224.659733985821" width="68" height="16" fill="#e94560" opacity="0.85" rx="3"/>
<text x="508.87500000000006" y="236.659733985821" text-anchor="middle" font-family="sans-serif" font-size="9" fill="#ffffff" font-weight="bold">W2警戒⚠️</text>
<polygon points="508.87500000000006,177.659733985821 504.87500000000006,183.659733985821 512.875,183.659733985821" fill="#e94560" opacity="0.9"/>
<line x1="664.0416666666666" y1="62.25265073091161" x2="664.0416666666666" y2="111.25265073091161" stroke="#e94560" stroke-width="0.8" stroke-dasharray="2,2" opacity="0.7"/>
<rect x="630.0416666666666" y="118.25265073091161" width="68" height="16" fill="#e94560" opacity="0.85" rx="3"/>
<text x="664.0416666666666" y="130.25265073091163" text-anchor="middle" font-family="sans-serif" font-size="9" fill="#ffffff" font-weight="bold">W3警戒⚠️</text>
<polygon points="664.0416666666666,56.25265073091161 660.0416666666666,62.25265073091161 668.0416666666666,62.25265073091161" fill="#e94560" opacity="0.9"/>
<text x="375.0" y="435" text-anchor="middle" font-family="sans-serif" font-size="10" fill="#aaaaaa">📊 BIAS5=3.83%，持有区，趋势健康</text>
<rect x="60" y="443" width="665" height="55" fill="#111122" opacity="0.5" rx="2"/>
<rect x="60" y="443" width="665" height="19.992293339678497" fill="#e94560" opacity="0.18" rx="2"/>
<rect x="60" y="462.9922933396785" width="665" height="7.1307799952411415" fill="#ffd700" opacity="0.12"/>
<rect x="60" y="470.12307333491964" width="665" height="29.87692666508036" fill="#4ecdc4" opacity="0.14"/>
<text x="670" y="455.9961466698393" text-anchor="end" font-family="sans-serif" font-size="9" fill="#e94560" font-weight="bold">⚠️ 警戒区</text>
<text x="670" y="469.55768333729907" text-anchor="end" font-family="sans-serif" font-size="9" fill="#ffd700">持有区</text>
<text x="670" y="488.0615366674598" text-anchor="end" font-family="sans-serif" font-size="9" fill="#4ecdc4">买入区</text>
<line x1="60" y1="472.5" x2="725" y2="472.5" stroke="#888888" stroke-width="0.5" stroke-dasharray="3,2" opacity="0.5"/>
<text x="56" y="475.5" text-anchor="end" font-family="sans-serif" font-size="7" fill="#888888">0%</text>
<line x1="60" y1="470.12307333491964" x2="725" y2="470.12307333491964" stroke="#4ecdc4" stroke-width="0.5" stroke-dasharray="3,2" opacity="0.5"/>
<text x="56" y="473.12307333491964" text-anchor="end" font-family="sans-serif" font-size="7" fill="#4ecdc4">2%</text>
<line x1="60" y1="462.9922933396785" x2="725" y2="462.9922933396785" stroke="#e94560" stroke-width="0.5" stroke-dasharray="3,2" opacity="0.5"/>
<text x="56" y="465.9922933396785" text-anchor="end" font-family="sans-serif" font-size="7" fill="#e94560">8%</text>
<text x="60" y="445" font-family="sans-serif" font-size="8" fill="#888888">BIAS5</text>
<polyline points="65.54166666666667,472.5 76.625,468.657999417537 87.70833333333334,468.5096961146117 98.79166666666667,478.07496551741343 109.87500000000001,476.81843525779914 120.95833333333334,469.3714040129786 132.04166666666666,469.4537706968271 143.125,475.5583461666963 154.20833333333334,463.9188673805854 165.29166666666666,468.30368619919903 176.375,471.6410712516439 187.45833333333334,476.7511394361968 198.54166666666666,474.79423630995944 209.625,480.0564477306738 220.70833333333334,475.3251126830349 231.79166666666666,476.82252392309766 242.875,474.55799605391064 253.95833333333334,480.1989802811676 265.0416666666667,475.8202807100361 276.12500000000006,470.67449301566154 287.20833333333337,473.92880737102206 298.2916666666667,473.1141660077869 309.37500000000006,471.67862324195625 320.45833333333337,474.6407748436975 331.5416666666667,469.6808123520898 342.62500000000006,472.1486674541705 353.70833333333337,466.7340946618432 364.7916666666667,467.7453419060244 375.87500000000006,462.552667146577 386.95833333333337,467.67250366864374 398.0416666666667,467.0317400933654 409.12500000000006,458.1985715789215 420.20833333333337,463.0621086770855 431.2916666666667,467.80379160519624 442.37500000000006,465.62995785913864 453.45833333333337,452.9166666666667 464.5416666666667,463.64673043699906 475.62500000000006,467.67628129566384 486.70833333333337,465.2328602472444 497.7916666666667,473.2010061866731 508.87500000000006,461.3942012625736 519.9583333333334,467.8544241449433 531.0416666666666,469.87227751229534 542.125,473.5051141986404 553.2083333333334,474.9691363981606 564.2916666666666,473.5717475861567 575.375,469.56306735017836 586.4583333333334,465.20096849091675 597.5416666666666,465.3643853258197 608.625,469.47393570827626 619.7083333333334,467.9006572169612 630.7916666666666,471.74141945794014 641.875,476.64124691907034 652.9583333333334,463.04987591488623 664.0416666666666,460.75937304288664 675.125,465.5888019210073 686.2083333333334,471.55426192697047 697.2916666666666,468.1380325285172 708.375,463.8062352380241 719.4583333333334,467.95256693583644" fill="none" stroke="#4ecdc4" stroke-width="1.5" opacity="0.9"/>
<circle cx="719.4583333333334" cy="467.95256693583644" r="3" fill="#4ecdc4" opacity="1"/>
<text x="724.4583333333334" y="470.95256693583644" font-family="sans-serif" font-size="9" fill="#4ecdc4" font-weight="bold">BIAS5=3.8%</text>
<text x="65.54166666666667" y="489" text-anchor="middle" font-family="sans-serif" font-size="8" fill="#666666" transform="rotate(-45,65.54166666666667,489)">02/26</text>
<text x="120.95833333333334" y="489" text-anchor="middle" font-family="sans-serif" font-size="8" fill="#666666" transform="rotate(-45,120.95833333333334,489)">03/05</text>
<text x="176.375" y="489" text-anchor="middle" font-family="sans-serif" font-size="8" fill="#666666" transform="rotate(-45,176.375,489)">03/12</text>
<text x="231.79166666666666" y="489" text-anchor="middle" font-family="sans-serif" font-size="8" fill="#666666" transform="rotate(-45,231.79166666666666,489)">03/19</text>
<text x="287.20833333333337" y="489" text-anchor="middle" font-family="sans-serif" font-size="8" fill="#666666" transform="rotate(-45,287.20833333333337,489)">03/26</text>
<text x="342.62500000000006" y="489" text-anchor="middle" font-family="sans-serif" font-size="8" fill="#666666" transform="rotate(-45,342.62500000000006,489)">04/02</text>
<text x="398.0416666666667" y="489" text-anchor="middle" font-family="sans-serif" font-size="8" fill="#666666" transform="rotate(-45,398.0416666666667,489)">04/10</text>
<text x="453.45833333333337" y="489" text-anchor="middle" font-family="sans-serif" font-size="8" fill="#666666" transform="rotate(-45,453.45833333333337,489)">04/17</text>
<text x="508.87500000000006" y="489" text-anchor="middle" font-family="sans-serif" font-size="8" fill="#666666" transform="rotate(-45,508.87500000000006,489)">04/24</text>
<text x="564.2916666666666" y="489" text-anchor="middle" font-family="sans-serif" font-size="8" fill="#666666" transform="rotate(-45,564.2916666666666,489)">05/06</text>
<text x="619.7083333333334" y="489" text-anchor="middle" font-family="sans-serif" font-size="8" fill="#666666" transform="rotate(-45,619.7083333333334,489)">05/13</text>
<text x="675.125" y="489" text-anchor="middle" font-family="sans-serif" font-size="8" fill="#666666" transform="rotate(-45,675.125,489)">05/20</text>
<text x="719.4583333333334" y="489" text-anchor="middle" font-family="sans-serif" font-size="8" fill="#666666" transform="rotate(-45,719.4583333333334,489)">05/26</text>
<rect x="60" y="484" width="8" height="8" fill="#4ecdc4" opacity="0.8" rx="1"/>
<text x="71" y="491" font-family="sans-serif" font-size="9" fill="#888888">买入区(BIAS&lt;2%)</text>
<rect x="230" y="484" width="8" height="8" fill="#ffd700" opacity="0.8" rx="1"/>
<text x="241" y="491" font-family="sans-serif" font-size="9" fill="#888888">持有区(2-8%)</text>
<rect x="400" y="484" width="8" height="8" fill="#e94560" opacity="0.8" rx="1"/>
<text x="411" y="491" font-family="sans-serif" font-size="9" fill="#888888">警戒区(&gt;8%)</text>
<rect x="570" y="484" width="8" height="8" fill="#ffd700" opacity="0.8" rx="1"/>
<text x="581" y="491" font-family="sans-serif" font-size="9" fill="#888888">EMA5</text>
<rect x="60" y="497" width="8" height="8" fill="#ff6b6b" opacity="0.8" rx="1"/>
<text x="71" y="504" font-family="sans-serif" font-size="9" fill="#888888">EMA10</text>
<rect x="230" y="497" width="8" height="8" fill="#4ecdc4" opacity="0.8" rx="1"/>
<text x="241" y="504" font-family="sans-serif" font-size="9" fill="#888888">EMA20</text>
<rect x="400" y="497" width="8" height="8" fill="#4ecdc4" opacity="0.8" rx="1"/>
<text x="411" y="504" font-family="sans-serif" font-size="9" fill="#888888">B乖离买入</text>
<rect x="570" y="497" width="8" height="8" fill="#e94560" opacity="0.8" rx="1"/>
<text x="581" y="504" font-family="sans-serif" font-size="9" fill="#888888">W警戒⚠️</text>
</svg>