<svg xmlns="http://www.w3.org/2000/svg" width="800" height="400" viewBox="0 0 800 400">
<rect width="800" height="400" fill="#1a1a2e"/>
<text x="400.0" y="20" text-anchor="middle" font-family="sans-serif" font-size="14" fill="#ffffff" font-weight="bold">安克创新(300866) K线图</text>
<line x1="60" y1="30.0" x2="780" y2="30.0" stroke="#2a2a4e" stroke-width="0.5"/>
<text x="55" y="33.0" text-anchor="end" font-family="sans-serif" font-size="8" fill="#666666">137.49</text>
<line x1="60" y1="83.99999999999997" x2="780" y2="83.99999999999997" stroke="#2a2a4e" stroke-width="0.5"/>
<text x="55" y="86.99999999999997" text-anchor="end" font-family="sans-serif" font-size="8" fill="#666666">128.23</text>
<line x1="60" y1="137.99999999999994" x2="780" y2="137.99999999999994" stroke="#2a2a4e" stroke-width="0.5"/>
<text x="55" y="140.99999999999994" text-anchor="end" font-family="sans-serif" font-size="8" fill="#666666">118.98</text>
<line x1="60" y1="191.99999999999997" x2="780" y2="191.99999999999997" stroke="#2a2a4e" stroke-width="0.5"/>
<text x="55" y="194.99999999999997" text-anchor="end" font-family="sans-serif" font-size="8" fill="#666666">109.72</text>
<line x1="60" y1="246.0" x2="780" y2="246.0" stroke="#2a2a4e" stroke-width="0.5"/>
<text x="55" y="249.0" text-anchor="end" font-family="sans-serif" font-size="8" fill="#666666">100.47</text>
<line x1="60" y1="300.0" x2="780" y2="300.0" stroke="#2a2a4e" stroke-width="0.5"/>
<text x="55" y="303.0" text-anchor="end" font-family="sans-serif" font-size="8" fill="#666666">91.21</text>
<line x1="60" y1="300" x2="780" y2="300" stroke="#2a2a4e" stroke-width="0.5"/>
<line x1="60" y1="345" x2="780" y2="345" stroke="#2a2a4e" stroke-width="0.5"/>
<rect x="61.8" y="331.5880402640461" width="7.199999999999999" height="13.411959735953872" fill="#44aa44" opacity="0.3"/>
<rect x="73.8" y="329.27560560351264" width="7.199999999999999" height="15.724394396487355" fill="#44aa44" opacity="0.3"/>
<rect x="85.8" y="320.9788524149467" width="7.199999999999999" height="24.021147585053313" fill="#ff4444" opacity="0.3"/>
<rect x="97.8" y="334.9443233071478" width="7.199999999999999" height="10.055676692852217" fill="#44aa44" opacity="0.3"/>
<rect x="109.8" y="338.6406702709161" width="7.199999999999999" height="6.359329729083925" fill="#44aa44" opacity="0.3"/>
<rect x="121.8" y="336.41506616087696" width="7.199999999999999" height="8.584933839123039" fill="#ff4444" opacity="0.3"/>
<rect x="133.8" y="330.47564144687715" width="7.199999999999999" height="14.524358553122852" fill="#44aa44" opacity="0.3"/>
<rect x="145.8" y="334.86125630992564" width="7.199999999999999" height="10.138743690074364" fill="#ff4444" opacity="0.3"/>
<rect x="157.8" y="332.4813465157263" width="7.199999999999999" height="12.518653484273727" fill="#ff4444" opacity="0.3"/>
<rect x="169.8" y="339.05358582992324" width="7.199999999999999" height="5.946414170076764" fill="#44aa44" opacity="0.3"/>
<rect x="181.8" y="334.4023716359509" width="7.199999999999999" height="10.597628364049115" fill="#ff4444" opacity="0.3"/>
<rect x="193.8" y="332.9254458018459" width="7.199999999999999" height="12.07455419815409" fill="#ff4444" opacity="0.3"/>
<rect x="205.8" y="332.17945577824906" width="7.199999999999999" height="12.820544221750936" fill="#ff4444" opacity="0.3"/>
<rect x="217.8" y="335.80053167657337" width="7.199999999999999" height="9.199468323426629" fill="#44aa44" opacity="0.3"/>
<rect x="229.8" y="335.8634367812659" width="7.199999999999999" height="9.136563218734125" fill="#44aa44" opacity="0.3"/>
<rect x="241.8" y="301.16643268914845" width="7.199999999999999" height="43.83356731085155" fill="#ff4444" opacity="0.3"/>
<rect x="253.8" y="300.0" width="7.199999999999999" height="45.0" fill="#ff4444" opacity="0.3"/>
<rect x="265.8" y="320.7253502195406" width="7.199999999999999" height="24.274649780459413" fill="#44aa44" opacity="0.3"/>
<rect x="277.8" y="316.7803399145733" width="7.199999999999999" height="28.21966008542671" fill="#ff4444" opacity="0.3"/>
<rect x="289.8" y="315.05421308880193" width="7.199999999999999" height="29.94578691119807" fill="#ff4444" opacity="0.3"/>
<rect x="301.8" y="320.25974491472266" width="7.199999999999999" height="24.74025508527734" fill="#ff4444" opacity="0.3"/>
<rect x="313.8" y="326.5639654708922" width="7.199999999999999" height="18.436034529107815" fill="#44aa44" opacity="0.3"/>
<rect x="325.8" y="328.44896800979717" width="7.199999999999999" height="16.55103199020283" fill="#44aa44" opacity="0.3"/>
<rect x="337.8" y="328.60676842199587" width="7.199999999999999" height="16.393231578004134" fill="#44aa44" opacity="0.3"/>
<rect x="349.8" y="327.1360255682667" width="7.199999999999999" height="17.86397443173331" fill="#44aa44" opacity="0.3"/>
<rect x="361.8" y="331.5767496042295" width="7.199999999999999" height="13.42325039577048" fill="#44aa44" opacity="0.3"/>
<rect x="373.8" y="333.2456166552167" width="7.199999999999999" height="11.75438334478332" fill="#44aa44" opacity="0.3"/>
<rect x="385.8" y="328.70166372950206" width="7.199999999999999" height="16.29833627049794" fill="#ff4444" opacity="0.3"/>
<rect x="397.8" y="329.79336300367396" width="7.199999999999999" height="15.20663699632604" fill="#ff4444" opacity="0.3"/>
<rect x="409.8" y="307.803458884674" width="7.199999999999999" height="37.196541115326" fill="#ff4444" opacity="0.3"/>
<rect x="421.8" y="323.9905015084083" width="7.199999999999999" height="21.009498491591728" fill="#ff4444" opacity="0.3"/>
<rect x="433.8" y="328.76134293138983" width="7.199999999999999" height="16.238657068610166" fill="#44aa44" opacity="0.3"/>
<rect x="445.8" y="327.5771677768153" width="7.199999999999999" height="17.422832223184685" fill="#44aa44" opacity="0.3"/>
<rect x="457.8" y="310.3909017593118" width="7.199999999999999" height="34.60909824068818" fill="#ff4444" opacity="0.3"/>
<rect x="469.8" y="325.7677051285881" width="7.199999999999999" height="19.23229487141191" fill="#44aa44" opacity="0.3"/>
<rect x="481.8" y="327.71399982078316" width="7.199999999999999" height="17.286000179216842" fill="#44aa44" opacity="0.3"/>
<rect x="493.8" y="330.57430030765556" width="7.199999999999999" height="14.425699692344438" fill="#ff4444" opacity="0.3"/>
<rect x="505.8" y="327.24946981690016" width="7.199999999999999" height="17.75053018309984" fill="#ff4444" opacity="0.3"/>
<rect x="517.8" y="317.66154903073567" width="7.199999999999999" height="27.33845096926433" fill="#ff4444" opacity="0.3"/>
<rect x="529.8" y="324.29669344962514" width="7.199999999999999" height="20.70330655037486" fill="#ff4444" opacity="0.3"/>
<rect x="541.8" y="329.2194211296634" width="7.199999999999999" height="15.780578870336626" fill="#ff4444" opacity="0.3"/>
<rect x="553.8" y="327.50135906090384" width="7.199999999999999" height="17.498640939096163" fill="#44aa44" opacity="0.3"/>
<rect x="565.8" y="331.9686967950058" width="7.199999999999999" height="13.031303204994174" fill="#ff4444" opacity="0.3"/>
<rect x="577.8" y="318.46130410107827" width="7.199999999999999" height="26.53869589892173" fill="#ff4444" opacity="0.3"/>
<rect x="589.8" y="322.2993219630216" width="7.199999999999999" height="22.70067803697839" fill="#44aa44" opacity="0.3"/>
<rect x="601.8" y="330.8197377460498" width="7.199999999999999" height="14.180262253950218" fill="#44aa44" opacity="0.3"/>
<rect x="613.8" y="328.76940768840166" width="7.199999999999999" height="16.230592311598343" fill="#44aa44" opacity="0.3"/>
<rect x="625.8" y="316.2811314555393" width="7.199999999999999" height="28.71886854446069" fill="#ff4444" opacity="0.3"/>
<rect x="637.8" y="328.180680426536" width="7.199999999999999" height="16.819319573463986" fill="#44aa44" opacity="0.3"/>
<rect x="649.8" y="318.4984019833328" width="7.199999999999999" height="26.501598016667174" fill="#ff4444" opacity="0.3"/>
<rect x="661.8" y="330.4449953702321" width="7.199999999999999" height="14.555004629767893" fill="#44aa44" opacity="0.3"/>
<rect x="673.8" y="331.1442098031602" width="7.199999999999999" height="13.855790196839791" fill="#ff4444" opacity="0.3"/>
<rect x="685.8" y="328.3024582574151" width="7.199999999999999" height="16.697541742584917" fill="#ff4444" opacity="0.3"/>
<rect x="697.8" y="329.7807282176887" width="7.199999999999999" height="15.219271782311296" fill="#44aa44" opacity="0.3"/>
<rect x="709.8" y="329.3129723110009" width="7.199999999999999" height="15.68702768899908" fill="#ff4444" opacity="0.3"/>
<rect x="721.8" y="331.72997998745484" width="7.199999999999999" height="13.27002001254516" fill="#44aa44" opacity="0.3"/>
<rect x="733.8" y="330.1968696795006" width="7.199999999999999" height="14.803130320499406" fill="#44aa44" opacity="0.3"/>
<rect x="745.8" y="328.26159682188836" width="7.199999999999999" height="16.73840317811164" fill="#44aa44" opacity="0.3"/>
<rect x="757.8" y="333.766331132949" width="7.199999999999999" height="11.233668867050994" fill="#44aa44" opacity="0.3"/>
<rect x="769.8" y="332.5211326503181" width="7.199999999999999" height="12.478867349681877" fill="#ff4444" opacity="0.3"/>
<polyline points="66.0,267.56 78.0,273.12 90.0,270.63 102.0,272.85 114.0,274.92 126.0,272.97 138.0,278.64 150.0,278.66 162.0,274.77 174.0,274.17 186.0,271.33 198.0,266.26 210.0,261.04 222.0,261.21 234.0,267.86 246.0,248.68 258.0,227.94 270.0,215.15 282.0,206.54 294.0,199.38 306.0,189.75 318.0,187.35 330.0,191.88 342.0,193.99 354.0,203.87 366.0,217.69 378.0,230.23 390.0,228.63 402.0,226.38 414.0,201.74 426.0,185.59 438.0,178.33 450.0,178.75 462.0,161.86 474.0,157.07 486.0,154.54 498.0,152.76 510.0,148.90 522.0,139.39 534.0,133.79 546.0,129.51 558.0,132.90 570.0,132.55 582.0,121.80 594.0,119.28 606.0,119.66 618.0,124.76 630.0,109.49 642.0,104.75 654.0,82.31 666.0,75.16 678.0,65.92 690.0,56.07 702.0,62.59 714.0,57.67 726.0,63.40 738.0,70.94 750.0,82.85 762.0,97.86 774.0,101.48" fill="none" stroke="#ffd700" stroke-width="0.8" opacity="0.7"/>
<polyline points="66.0,267.56 78.0,270.60 90.0,269.69 102.0,271.08 114.0,272.53 126.0,271.90 138.0,275.19 150.0,275.83 162.0,274.22 174.0,273.99 186.0,272.47 198.0,269.50 210.0,266.06 222.0,265.24 234.0,268.14 246.0,257.63 258.0,244.69 270.0,234.67 282.0,226.42 294.0,218.90 306.0,210.10 318.0,205.09 330.0,204.34 342.0,203.22 354.0,206.93 366.0,213.91 378.0,221.44 390.0,222.17 402.0,222.12 414.0,209.45 426.0,199.24 438.0,192.80 450.0,190.40 462.0,179.06 474.0,173.33 486.0,168.99 498.0,165.39 510.0,160.99 522.0,153.61 534.0,147.97 546.0,143.05 558.0,142.44 570.0,140.52 582.0,133.21 594.0,129.76 606.0,128.06 618.0,129.31 630.0,120.16 642.0,115.63 654.0,101.41 666.0,94.04 678.0,85.57 690.0,76.62 702.0,76.44 714.0,71.24 726.0,71.90 738.0,74.46 750.0,80.32 762.0,88.97 774.0,92.56" fill="none" stroke="#ff6b6b" stroke-width="0.8" opacity="0.7"/>
<polyline points="66.0,267.56 78.0,269.15 90.0,268.82 102.0,269.63 114.0,270.52 126.0,270.39 138.0,272.25 150.0,272.87 162.0,272.30 174.0,272.37 186.0,271.73 198.0,270.24 210.0,268.37 222.0,267.72 234.0,269.00 246.0,263.41 258.0,256.09 270.0,249.75 282.0,244.00 294.0,238.38 306.0,231.92 318.0,227.22 330.0,224.71 342.0,222.19 354.0,222.33 366.0,224.52 378.0,227.45 390.0,227.26 402.0,226.75 414.0,219.67 426.0,213.35 438.0,208.63 450.0,205.87 462.0,198.46 474.0,193.60 486.0,189.40 498.0,185.57 510.0,181.35 522.0,175.54 534.0,170.50 546.0,165.78 558.0,163.29 570.0,160.30 582.0,154.58 594.0,150.74 606.0,147.86 618.0,146.63 630.0,140.18 642.0,135.90 654.0,126.52 666.0,120.27 678.0,113.33 690.0,106.00 702.0,103.11 714.0,97.85 726.0,95.66 738.0,94.74 750.0,95.87 762.0,98.92 774.0,99.86" fill="none" stroke="#4ecdc4" stroke-width="0.8" opacity="0.7"/>
<line x1="66.0" y1="262.13699222126183" x2="66.0" y2="271.4131374243733" stroke="#44aa44" stroke-width="0.5" opacity="0.6"/>
<rect x="63.0" y="266.1041486603284" width="6.0" height="1.4585133967156594" fill="#44aa44" opacity="0.85"/>
<line x1="78.0" y1="275.08859118409674" x2="78.0" y2="292.29904926534135" stroke="#44aa44" stroke-width="0.5" opacity="0.6"/>
<rect x="75.0" y="276.8388072601555" width="6.0" height="7.409248055315572" fill="#44aa44" opacity="0.85"/>
<line x1="90.0" y1="241.1343993085566" x2="90.0" y2="274.38850475367326" stroke="#ff4444" stroke-width="0.5" opacity="0.6"/>
<rect x="87.0" y="265.6374243733794" width="6.0" height="8.751080380293843" fill="#ff4444" opacity="0.85"/>
<line x1="102.0" y1="251.75237683664645" x2="102.0" y2="277.88893690579084" stroke="#44aa44" stroke-width="0.5" opacity="0.6"/>
<rect x="99.0" y="268.55445116681074" width="6.0" height="8.751080380293843" fill="#44aa44" opacity="0.85"/>
<line x1="114.0" y1="268.08772687986163" x2="114.0" y2="280.2225583405359" stroke="#44aa44" stroke-width="0.5" opacity="0.6"/>
<rect x="111.0" y="269.77960242005184" width="6.0" height="9.276145203111525" fill="#44aa44" opacity="0.85"/>
<line x1="126.0" y1="260.56179775280896" x2="126.0" y2="283.19792566983574" stroke="#ff4444" stroke-width="0.5" opacity="0.6"/>
<rect x="123.0" y="269.07951598962825" width="6.0" height="11.726447709593856" fill="#ff4444" opacity="0.85"/>
<line x1="138.0" y1="279.1724286949006" x2="138.0" y2="300.0" stroke="#44aa44" stroke-width="0.5" opacity="0.6"/>
<rect x="135.0" y="279.1724286949006" width="6.0" height="10.792999135695709" fill="#44aa44" opacity="0.85"/>
<line x1="150.0" y1="277.0138288677614" x2="150.0" y2="290.7238547968885" stroke="#ff4444" stroke-width="0.5" opacity="0.6"/>
<rect x="147.0" y="278.70570440795154" width="6.0" height="6.3591184096802635" fill="#ff4444" opacity="0.85"/>
<line x1="162.0" y1="257.35306828003456" x2="162.0" y2="284.24805531547105" stroke="#ff4444" stroke-width="0.5" opacity="0.6"/>
<rect x="159.0" y="266.97925669835774" width="6.0" height="11.784788245462494" fill="#ff4444" opacity="0.85"/>
<line x1="174.0" y1="266.8042350907519" x2="174.0" y2="276.5471045808124" stroke="#44aa44" stroke-width="0.5" opacity="0.6"/>
<rect x="171.0" y="269.25453759723416" width="6.0" height="3.73379429559202" fill="#44aa44" opacity="0.85"/>
<line x1="186.0" y1="260.44511668107174" x2="186.0" y2="283.13958513396716" stroke="#ff4444" stroke-width="0.5" opacity="0.6"/>
<rect x="183.0" y="265.6374243733794" width="6.0" height="11.901469317199599" fill="#ff4444" opacity="0.85"/>
<line x1="198.0" y1="251.052290406223" x2="198.0" y2="266.51253241140876" stroke="#ff4444" stroke-width="0.5" opacity="0.6"/>
<rect x="195.0" y="256.1279170267934" width="6.0" height="10.384615384615358" fill="#ff4444" opacity="0.85"/>
<line x1="210.0" y1="241.71780466724286" x2="210.0" y2="258.053154710458" stroke="#ff4444" stroke-width="0.5" opacity="0.6"/>
<rect x="207.0" y="250.58556611927392" width="6.0" height="5.484010371650896" fill="#ff4444" opacity="0.85"/>
<line x1="222.0" y1="247.61019878997408" x2="222.0" y2="265.4624027657735" stroke="#44aa44" stroke-width="0.5" opacity="0.6"/>
<rect x="219.0" y="256.36127917026795" width="6.0" height="5.192307692307622" fill="#44aa44" opacity="0.85"/>
<line x1="234.0" y1="262.13699222126183" x2="234.0" y2="284.77312013828873" stroke="#44aa44" stroke-width="0.5" opacity="0.6"/>
<rect x="231.0" y="265.229040622299" width="6.0" height="15.926966292134864" fill="#44aa44" opacity="0.85"/>
<line x1="246.0" y1="200.29602420051862" x2="246.0" y2="282.26447709593776" stroke="#ff4444" stroke-width="0.5" opacity="0.6"/>
<rect x="243.0" y="210.3305963699222" width="6.0" height="66.97493517718237" fill="#ff4444" opacity="0.85"/>
<line x1="258.0" y1="178.00993949870352" x2="258.0" y2="220.01512532411408" stroke="#ff4444" stroke-width="0.5" opacity="0.6"/>
<rect x="255.0" y="186.46931719965428" width="6.0" height="33.07908383751078" fill="#ff4444" opacity="0.85"/>
<line x1="270.0" y1="180.57692307692304" x2="270.0" y2="206.42178046672427" stroke="#44aa44" stroke-width="0.5" opacity="0.6"/>
<rect x="267.0" y="186.46931719965428" width="6.0" height="3.092048401037175" fill="#44aa44" opacity="0.85"/>
<line x1="282.0" y1="188.62791702679345" x2="282.0" y2="226.08254105445118" stroke="#ff4444" stroke-width="0.5" opacity="0.6"/>
<rect x="279.0" y="189.32800345721688" width="6.0" height="10.90968020743307" fill="#ff4444" opacity="0.85"/>
<line x1="294.0" y1="152.57346585998272" x2="294.0" y2="200.87942955920482" stroke="#ff4444" stroke-width="0.5" opacity="0.6"/>
<rect x="291.0" y="185.06914433880726" width="6.0" height="11.143042350907507" fill="#ff4444" opacity="0.85"/>
<line x1="306.0" y1="160.15773552290403" x2="306.0" y2="196.21218668971477" stroke="#ff4444" stroke-width="0.5" opacity="0.6"/>
<rect x="303.0" y="170.48401037165084" width="6.0" height="21.819360414865997" fill="#ff4444" opacity="0.85"/>
<line x1="318.0" y1="155.95721694036297" x2="318.0" y2="190.26145203111497" stroke="#44aa44" stroke-width="0.5" opacity="0.6"/>
<rect x="315.0" y="178.71002592912706" width="6.0" height="3.850475367329267" fill="#44aa44" opacity="0.85"/>
<line x1="330.0" y1="180.46024200518582" x2="330.0" y2="201.69619706136558" stroke="#44aa44" stroke-width="0.5" opacity="0.6"/>
<rect x="327.0" y="188.45289541918757" width="6.0" height="12.48487467588592" fill="#44aa44" opacity="0.85"/>
<line x1="342.0" y1="186.41097666378562" x2="342.0" y2="208.17199654278303" stroke="#44aa44" stroke-width="0.5" opacity="0.6"/>
<rect x="339.0" y="188.33621434745035" width="6.0" height="9.859550561797732" fill="#44aa44" opacity="0.85"/>
<line x1="354.0" y1="194.461970613656" x2="354.0" y2="228.29948141745894" stroke="#44aa44" stroke-width="0.5" opacity="0.6"/>
<rect x="351.0" y="202.04624027657735" width="6.0" height="21.58599827139153" fill="#44aa44" opacity="0.85"/>
<line x1="366.0" y1="208.6970613656007" x2="366.0" y2="245.80164217804665" stroke="#44aa44" stroke-width="0.5" opacity="0.6"/>
<rect x="363.0" y="209.04710458081243" width="6.0" height="36.2878133102852" fill="#44aa44" opacity="0.85"/>
<line x1="378.0" y1="240.08426966292132" x2="378.0" y2="262.3703543647364" stroke="#44aa44" stroke-width="0.5" opacity="0.6"/>
<rect x="375.0" y="242.8846153846154" width="6.0" height="12.426534140017225" fill="#44aa44" opacity="0.85"/>
<line x1="390.0" y1="224.33232497839236" x2="390.0" y2="249.88547968885047" stroke="#ff4444" stroke-width="0.5" opacity="0.6"/>
<rect x="387.0" y="225.4407951598963" width="6.0" height="17.443820224719076" fill="#ff4444" opacity="0.85"/>
<line x1="402.0" y1="209.7471910112359" x2="402.0" y2="239.96758859118407" stroke="#ff4444" stroke-width="0.5" opacity="0.6"/>
<rect x="399.0" y="221.88202247191015" width="6.0" height="12.251512532411368" fill="#ff4444" opacity="0.85"/>
<line x1="414.0" y1="142.07216940363008" x2="414.0" y2="209.5721694036301" stroke="#ff4444" stroke-width="0.5" opacity="0.6"/>
<rect x="411.0" y="152.4567847882455" width="6.0" height="57.11538461538461" fill="#ff4444" opacity="0.85"/>
<line x1="426.0" y1="149.59809853068285" x2="426.0" y2="172.8176318063958" stroke="#ff4444" stroke-width="0.5" opacity="0.6"/>
<rect x="423.0" y="153.27355229040623" width="6.0" height="7.875972342264447" fill="#ff4444" opacity="0.85"/>
<line x1="438.0" y1="146.91443388072602" x2="438.0" y2="171.06741573033707" stroke="#44aa44" stroke-width="0.5" opacity="0.6"/>
<rect x="435.0" y="149.3647363872083" width="6.0" height="14.468452895419233" fill="#44aa44" opacity="0.85"/>
<line x1="450.0" y1="164.00821089023339" x2="450.0" y2="187.05272255834058" stroke="#44aa44" stroke-width="0.5" opacity="0.6"/>
<rect x="447.0" y="164.12489196197063" width="6.0" height="15.460242005185847" fill="#44aa44" opacity="0.85"/>
<line x1="462.0" y1="126.90363007778743" x2="462.0" y2="178.71002592912706" stroke="#ff4444" stroke-width="0.5" opacity="0.6"/>
<rect x="459.0" y="128.07044079515987" width="6.0" height="44.80553154710461" fill="#ff4444" opacity="0.85"/>
<line x1="474.0" y1="129.7039757994814" x2="474.0" y2="150.88159031979262" stroke="#44aa44" stroke-width="0.5" opacity="0.6"/>
<rect x="471.0" y="133.61279170267935" width="6.0" height="13.88504753673297" fill="#44aa44" opacity="0.85"/>
<line x1="486.0" y1="132.9127052722559" x2="486.0" y2="156.5406222990493" stroke="#44aa44" stroke-width="0.5" opacity="0.6"/>
<rect x="483.0" y="146.21434745030257" width="6.0" height="3.2670700086429747" fill="#44aa44" opacity="0.85"/>
<line x1="498.0" y1="141.78046672428698" x2="498.0" y2="160.56611927398447" stroke="#ff4444" stroke-width="0.5" opacity="0.6"/>
<rect x="495.0" y="149.1897147796024" width="6.0" height="3.2670700086430884" fill="#ff4444" opacity="0.85"/>
<line x1="510.0" y1="138.45505617977526" x2="510.0" y2="161.14952463267068" stroke="#ff4444" stroke-width="0.5" opacity="0.6"/>
<rect x="507.0" y="141.1970613656007" width="6.0" height="13.651685393258418" fill="#ff4444" opacity="0.85"/>
<line x1="522.0" y1="103.45073465859983" x2="522.0" y2="146.56439066551422" stroke="#ff4444" stroke-width="0.5" opacity="0.6"/>
<rect x="519.0" y="120.36949006050132" width="6.0" height="12.834917891097675" fill="#ff4444" opacity="0.85"/>
<line x1="534.0" y1="104.03414001728613" x2="534.0" y2="132.03759723422647" stroke="#ff4444" stroke-width="0.5" opacity="0.6"/>
<rect x="531.0" y="122.58643042350907" width="6.0" height="5.659031979256682" fill="#ff4444" opacity="0.85"/>
<line x1="546.0" y1="110.56828003457215" x2="546.0" y2="140.78867761452034" stroke="#ff4444" stroke-width="0.5" opacity="0.6"/>
<rect x="543.0" y="120.95289541918754" width="6.0" height="7.584269662921429" fill="#ff4444" opacity="0.85"/>
<line x1="558.0" y1="98.25842696629212" x2="558.0" y2="143.35566119273983" stroke="#44aa44" stroke-width="0.5" opacity="0.6"/>
<rect x="555.0" y="127.31201382886776" width="6.0" height="12.368193604148686" fill="#44aa44" opacity="0.85"/>
<line x1="570.0" y1="130.34572169403629" x2="570.0" y2="150.64822817631807" stroke="#ff4444" stroke-width="0.5" opacity="0.6"/>
<rect x="567.0" y="131.86257562662058" width="6.0" height="11.843128781331018" fill="#ff4444" opacity="0.85"/>
<line x1="582.0" y1="69.02981849611061" x2="582.0" y2="130.69576490924806" stroke="#ff4444" stroke-width="0.5" opacity="0.6"/>
<rect x="579.0" y="100.30034572169409" width="6.0" height="30.39541918755397" fill="#ff4444" opacity="0.85"/>
<line x1="594.0" y1="92.71607605877276" x2="594.0" y2="119.72774416594643" stroke="#44aa44" stroke-width="0.5" opacity="0.6"/>
<rect x="591.0" y="105.84269662921353" width="6.0" height="8.401037165082101" fill="#44aa44" opacity="0.85"/>
<line x1="606.0" y1="103.10069144338814" x2="606.0" y2="125.91184096802078" stroke="#44aa44" stroke-width="0.5" opacity="0.6"/>
<rect x="603.0" y="116.98573898012103" width="6.0" height="3.4420916162489448" fill="#44aa44" opacity="0.85"/>
<line x1="618.0" y1="112.20181503889367" x2="618.0" y2="141.66378565254973" stroke="#44aa44" stroke-width="0.5" opacity="0.6"/>
<rect x="615.0" y="126.2035436473639" width="6.0" height="8.751080380293857" fill="#44aa44" opacity="0.85"/>
<line x1="630.0" y1="75.03889369057906" x2="630.0" y2="126.14520311149523" stroke="#ff4444" stroke-width="0.5" opacity="0.6"/>
<rect x="627.0" y="78.94770959377709" width="6.0" height="47.197493517718144" fill="#ff4444" opacity="0.85"/>
<line x1="642.0" y1="72.41356957649097" x2="642.0" y2="97.79170267934315" stroke="#44aa44" stroke-width="0.5" opacity="0.6"/>
<rect x="639.0" y="80.28954191875542" width="6.0" height="14.993517718236845" fill="#44aa44" opacity="0.85"/>
<line x1="654.0" y1="30.0" x2="654.0" y2="105.78435609334488" stroke="#ff4444" stroke-width="0.5" opacity="0.6"/>
<rect x="651.0" y="37.40924805531553" width="6.0" height="57.81547104580808" fill="#ff4444" opacity="0.85"/>
<line x1="666.0" y1="35.19230769230778" x2="666.0" y2="69.4382022471911" stroke="#44aa44" stroke-width="0.5" opacity="0.6"/>
<rect x="663.0" y="35.19230769230778" width="6.0" height="25.669835782195356" fill="#44aa44" opacity="0.85"/>
<line x1="678.0" y1="39.33448573898025" x2="678.0" y2="73.52203975799485" stroke="#ff4444" stroke-width="0.5" opacity="0.6"/>
<rect x="675.0" y="47.44382022471915" width="6.0" height="11.784788245462458" fill="#ff4444" opacity="0.85"/>
<line x1="690.0" y1="34.60890233362155" x2="690.0" y2="82.62316335350047" stroke="#ff4444" stroke-width="0.5" opacity="0.6"/>
<rect x="687.0" y="36.35911840968023" width="6.0" height="35.52938634399309" fill="#ff4444" opacity="0.85"/>
<line x1="702.0" y1="50.36084701815044" x2="702.0" y2="85.59853068280042" stroke="#44aa44" stroke-width="0.5" opacity="0.6"/>
<rect x="699.0" y="54.969749351771824" width="6.0" height="20.652549697493626" fill="#44aa44" opacity="0.85"/>
<line x1="714.0" y1="36.884183232497875" x2="714.0" y2="97.61668107173725" stroke="#ff4444" stroke-width="0.5" opacity="0.6"/>
<rect x="711.0" y="47.85220397579948" width="6.0" height="35.8210890233363" fill="#ff4444" opacity="0.85"/>
<line x1="726.0" y1="39.33448573898025" x2="726.0" y2="80.23120138288684" stroke="#44aa44" stroke-width="0.5" opacity="0.6"/>
<rect x="723.0" y="51.002592912705396" width="6.0" height="23.86127917026778" fill="#44aa44" opacity="0.85"/>
<line x1="738.0" y1="45.69360414866031" x2="738.0" y2="93.53284356093351" stroke="#44aa44" stroke-width="0.5" opacity="0.6"/>
<rect x="735.0" y="67.86300777873817" width="6.0" height="18.143906655142587" fill="#44aa44" opacity="0.85"/>
<line x1="750.0" y1="93.47450302506485" x2="750.0" y2="145.98098530682802" stroke="#44aa44" stroke-width="0.5" opacity="0.6"/>
<rect x="747.0" y="93.47450302506485" width="6.0" height="13.184961106309459" fill="#44aa44" opacity="0.85"/>
<line x1="762.0" y1="104.03414001728613" x2="762.0" y2="137.2882454624028" stroke="#44aa44" stroke-width="0.5" opacity="0.6"/>
<rect x="759.0" y="112.78522039757999" width="6.0" height="15.110198789974078" fill="#44aa44" opacity="0.85"/>
<line x1="774.0" y1="94.23292999135697" x2="774.0" y2="127.31201382886776" stroke="#ff4444" stroke-width="0.5" opacity="0.6"/>
<rect x="771.0" y="108.70138288677617" width="6.0" height="16.218668971477953" fill="#ff4444" opacity="0.85"/>
<rect x="134.0" y="296.0" width="8" height="8" fill="#4caf50" opacity="0.85" rx="1"/>
<text x="138.0" y="294.0" text-anchor="middle" font-family="sans-serif" font-size="8" fill="#4caf50">前低</text>
<rect x="242.0" y="196.29602420051862" width="8" height="8" fill="#ff9800" opacity="0.85" rx="1"/>
<text x="246.0" y="194.29602420051862" text-anchor="middle" font-family="sans-serif" font-size="8" fill="#ff9800">前高</text>
<rect x="242.0" y="155.31179775280907" width="8" height="8" fill="#ff9800" opacity="0.85" rx="1"/>
<text x="246.0" y="153.31179775280907" text-anchor="middle" font-family="sans-serif" font-size="8" fill="#ff9800">量</text>
<rect x="242.0" y="196.29602420051862" width="8" height="8" fill="#2196f3" opacity="0.85" rx="1"/>
<text x="246.0" y="194.29602420051862" text-anchor="middle" font-family="sans-serif" font-size="8" fill="#2196f3">突</text>
<rect x="254.0" y="174.00993949870352" width="8" height="8" fill="#ff9800" opacity="0.85" rx="1"/>
<text x="258.0" y="172.00993949870352" text-anchor="middle" font-family="sans-serif" font-size="8" fill="#ff9800">前高</text>
<rect x="254.0" y="174.00993949870352" width="8" height="8" fill="#2196f3" opacity="0.85" rx="1"/>
<text x="258.0" y="172.00993949870352" text-anchor="middle" font-family="sans-serif" font-size="8" fill="#2196f3">突</text>
<rect x="290.0" y="148.57346585998272" width="8" height="8" fill="#ff9800" opacity="0.85" rx="1"/>
<text x="294.0" y="146.57346585998272" text-anchor="middle" font-family="sans-serif" font-size="8" fill="#ff9800">前高</text>
<rect x="374.0" y="258.3703543647364" width="8" height="8" fill="#4caf50" opacity="0.85" rx="1"/>
<text x="378.0" y="256.3703543647364" text-anchor="middle" font-family="sans-serif" font-size="8" fill="#4caf50">前低</text>
<rect x="410.0" y="138.07216940363008" width="8" height="8" fill="#ff9800" opacity="0.85" rx="1"/>
<text x="414.0" y="136.07216940363008" text-anchor="middle" font-family="sans-serif" font-size="8" fill="#ff9800">前高</text>
<rect x="410.0" y="138.07216940363008" width="8" height="8" fill="#2196f3" opacity="0.85" rx="1"/>
<text x="414.0" y="136.07216940363008" text-anchor="middle" font-family="sans-serif" font-size="8" fill="#2196f3">突</text>
<rect x="458.0" y="122.90363007778743" width="8" height="8" fill="#ff9800" opacity="0.85" rx="1"/>
<text x="462.0" y="120.90363007778743" text-anchor="middle" font-family="sans-serif" font-size="8" fill="#ff9800">前高</text>
<rect x="458.0" y="122.90363007778743" width="8" height="8" fill="#2196f3" opacity="0.85" rx="1"/>
<text x="462.0" y="120.90363007778743" text-anchor="middle" font-family="sans-serif" font-size="8" fill="#2196f3">突</text>
<rect x="518.0" y="99.45073465859983" width="8" height="8" fill="#ff9800" opacity="0.85" rx="1"/>
<text x="522.0" y="97.45073465859983" text-anchor="middle" font-family="sans-serif" font-size="8" fill="#ff9800">前高</text>
<rect x="554.0" y="94.25842696629212" width="8" height="8" fill="#ff9800" opacity="0.85" rx="1"/>
<text x="558.0" y="92.25842696629212" text-anchor="middle" font-family="sans-serif" font-size="8" fill="#ff9800">前高</text>
<rect x="578.0" y="65.02981849611061" width="8" height="8" fill="#ff9800" opacity="0.85" rx="1"/>
<text x="582.0" y="63.02981849611061" text-anchor="middle" font-family="sans-serif" font-size="8" fill="#ff9800">前高</text>
<rect x="650.0" y="26.0" width="8" height="8" fill="#ff9800" opacity="0.85" rx="1"/>
<text x="654.0" y="24.0" text-anchor="middle" font-family="sans-serif" font-size="8" fill="#ff9800">前高</text>
<rect x="650.0" y="26.0" width="8" height="8" fill="#2196f3" opacity="0.85" rx="1"/>
<text x="654.0" y="24.0" text-anchor="middle" font-family="sans-serif" font-size="8" fill="#2196f3">突</text>
<rect x="746.0" y="141.98098530682802" width="8" height="8" fill="#4caf50" opacity="0.85" rx="1"/>
<text x="750.0" y="139.98098530682802" text-anchor="middle" font-family="sans-serif" font-size="8" fill="#4caf50">前低</text>
<line x1="60" y1="126.90363007778743" x2="780" y2="126.90363007778743" stroke="#4caf50" stroke-width="1.5" stroke-dasharray="6,3" opacity="0.7"/>
<text x="64" y="122.90363007778743" font-family="sans-serif" font-size="9" fill="#4caf50" font-weight="bold">支撑 120.88</text>
<line x1="60" y1="30.0" x2="780" y2="30.0" stroke="#f44336" stroke-width="1.5" stroke-dasharray="6,3" opacity="0.7"/>
<text x="64" y="26.0" font-family="sans-serif" font-size="9" fill="#f44336" font-weight="bold">压力 137.49</text>
<text x="66.0" y="359" text-anchor="middle" font-family="sans-serif" font-size="8" fill="#666666" transform="rotate(-40,66.0,359)">02/27</text>
<text x="138.0" y="359" text-anchor="middle" font-family="sans-serif" font-size="8" fill="#666666" transform="rotate(-40,138.0,359)">03/09</text>
<text x="210.0" y="359" text-anchor="middle" font-family="sans-serif" font-size="8" fill="#666666" transform="rotate(-40,210.0,359)">03/17</text>
<text x="282.0" y="359" text-anchor="middle" font-family="sans-serif" font-size="8" fill="#666666" transform="rotate(-40,282.0,359)">03/25</text>
<text x="354.0" y="359" text-anchor="middle" font-family="sans-serif" font-size="8" fill="#666666" transform="rotate(-40,354.0,359)">04/02</text>
<text x="426.0" y="359" text-anchor="middle" font-family="sans-serif" font-size="8" fill="#666666" transform="rotate(-40,426.0,359)">04/13</text>
<text x="498.0" y="359" text-anchor="middle" font-family="sans-serif" font-size="8" fill="#666666" transform="rotate(-40,498.0,359)">04/21</text>
<text x="570.0" y="359" text-anchor="middle" font-family="sans-serif" font-size="8" fill="#666666" transform="rotate(-40,570.0,359)">04/29</text>
<text x="642.0" y="359" text-anchor="middle" font-family="sans-serif" font-size="8" fill="#666666" transform="rotate(-40,642.0,359)">05/12</text>
<text x="714.0" y="359" text-anchor="middle" font-family="sans-serif" font-size="8" fill="#666666" transform="rotate(-40,714.0,359)">05/20</text>
<text x="774.0" y="359" text-anchor="middle" font-family="sans-serif" font-size="8" fill="#666666" transform="rotate(-40,774.0,359)">05/27</text>
<text x="400.0" y="396" text-anchor="middle" font-family="sans-serif" font-size="9" fill="#555555">数据截至: 2026-05-27 21:26  |  最新K线: 20260527</text>
<rect x="50" y="373" width="8" height="8" fill="#ffd700" opacity="0.8" rx="1"/>
<text x="61" y="380" font-family="sans-serif" font-size="9" fill="#888888">EMA5</text>
<rect x="150" y="373" width="8" height="8" fill="#ff6b6b" opacity="0.8" rx="1"/>
<text x="161" y="380" font-family="sans-serif" font-size="9" fill="#888888">EMA10</text>
<rect x="250" y="373" width="8" height="8" fill="#4ecdc4" opacity="0.8" rx="1"/>
<text x="261" y="380" font-family="sans-serif" font-size="9" fill="#888888">EMA20</text>
<rect x="350" y="373" width="8" height="8" fill="#2196f3" opacity="0.8" rx="1"/>
<text x="361" y="380" font-family="sans-serif" font-size="9" fill="#888888">突破</text>
<rect x="450" y="373" width="8" height="8" fill="#ff9800" opacity="0.8" rx="1"/>
<text x="461" y="380" font-family="sans-serif" font-size="9" fill="#888888">前高/量</text>
<rect x="550" y="373" width="8" height="8" fill="#4caf50" opacity="0.8" rx="1"/>
<text x="561" y="380" font-family="sans-serif" font-size="9" fill="#888888">前低</text>
</svg>