<svg xmlns="http://www.w3.org/2000/svg" width="750" height="540" viewBox="0 0 750 540">
<rect width="750" height="540" fill="#1a1a2e"/>
<text x="375.0" y="22" text-anchor="middle" font-family="sans-serif" font-size="15" fill="#ffffff" font-weight="bold">德龙激光(688170) 趋势交易分析图</text>
<text x="60" y="31" font-family="sans-serif" font-size="10" fill="#888888">最新: 87.43</text>
<line x1="60" y1="92.29937771013135" x2="725" y2="92.29937771013135" stroke="#4ecdc4" stroke-width="0.5" stroke-dasharray="4,3" opacity="0.4"/>
<text x="62" y="90.29937771013135" font-family="sans-serif" font-size="7" fill="#4ecdc4" opacity="0.6">买入↑2%</text>
<line x1="60" y1="50.958364662286115" x2="725" y2="50.958364662286115" stroke="#e94560" stroke-width="0.5" stroke-dasharray="4,3" opacity="0.4"/>
<text x="62" y="48.958364662286115" font-family="sans-serif" font-size="7" fill="#e94560" opacity="0.6">警戒↑8%</text>
<rect x="60" y="92.29937771013135" width="3" height="290.70062228986865" fill="#4ecdc4" opacity="0.3" rx="1"/>
<rect x="60" y="50.958364662286115" width="3" height="332.0416353377139" fill="#e94560" opacity="0.3" rx="1"/>
<rect x="60" y="50.958364662286115" width="3" height="41.34101304784524" fill="#ffd700" opacity="0.2" rx="1"/>
<line x1="60" y1="32.0" x2="725" y2="32.0" stroke="#2a2a4e" stroke-width="0.5"/>
<text x="56" y="35.0" text-anchor="end" font-family="sans-serif" font-size="8" fill="#666666">92.0</text>
<line x1="60" y1="127.75000000000004" x2="725" y2="127.75000000000004" stroke="#2a2a4e" stroke-width="0.5"/>
<text x="56" y="130.75000000000006" text-anchor="end" font-family="sans-serif" font-size="8" fill="#666666">80.4</text>
<line x1="60" y1="223.49999999999997" x2="725" y2="223.49999999999997" stroke="#2a2a4e" stroke-width="0.5"/>
<text x="56" y="226.49999999999997" text-anchor="end" font-family="sans-serif" font-size="8" fill="#666666">68.9</text>
<line x1="60" y1="319.25" x2="725" y2="319.25" stroke="#2a2a4e" stroke-width="0.5"/>
<text x="56" y="322.25" text-anchor="end" font-family="sans-serif" font-size="8" fill="#666666">57.4</text>
<line x1="60" y1="415.0" x2="725" y2="415.0" stroke="#2a2a4e" stroke-width="0.5"/>
<text x="56" y="418.0" text-anchor="end" font-family="sans-serif" font-size="8" fill="#666666">45.8</text>
<rect x="61.66250000000001" y="448.36252471350923" width="6.095833333333334" height="26.637475286490776" fill="#ff4444" opacity="0.35"/>
<rect x="72.74583333333334" y="450.3894353234293" width="6.095833333333334" height="24.61056467657066" fill="#44aa44" opacity="0.35"/>
<rect x="83.82916666666668" y="444.95100682371753" width="6.095833333333334" height="30.04899317628247" fill="#ff4444" opacity="0.35"/>
<rect x="94.91250000000001" y="451.6130871588916" width="6.095833333333334" height="23.386912841108405" fill="#44aa44" opacity="0.35"/>
<rect x="105.99583333333335" y="457.8315638770615" width="6.095833333333334" height="17.168436122938473" fill="#ff4444" opacity="0.35"/>
<rect x="117.07916666666668" y="450.65646517796824" width="6.095833333333334" height="24.343534822031746" fill="#ff4444" opacity="0.35"/>
<rect x="128.1625" y="454.5788322208381" width="6.095833333333334" height="20.42116777916194" fill="#44aa44" opacity="0.35"/>
<rect x="139.24583333333334" y="451.3146037471568" width="6.095833333333334" height="23.685396252843216" fill="#44aa44" opacity="0.35"/>
<rect x="150.32916666666668" y="459.9441583152049" width="6.095833333333334" height="15.055841684795071" fill="#ff4444" opacity="0.35"/>
<rect x="161.4125" y="454.820265387452" width="6.095833333333334" height="20.179734612547957" fill="#ff4444" opacity="0.35"/>
<rect x="172.49583333333334" y="459.81118569064574" width="6.095833333333334" height="15.188814309354257" fill="#ff4444" opacity="0.35"/>
<rect x="183.57916666666668" y="462.53766679681934" width="6.095833333333334" height="12.462333203180684" fill="#44aa44" opacity="0.35"/>
<rect x="194.6625" y="455.2961902459885" width="6.095833333333334" height="19.70380975401149" fill="#ff4444" opacity="0.35"/>
<rect x="205.74583333333334" y="458.7831966730503" width="6.095833333333334" height="16.216803326949655" fill="#44aa44" opacity="0.35"/>
<rect x="216.82916666666668" y="461.1767039151157" width="6.095833333333334" height="13.82329608488432" fill="#ff4444" opacity="0.35"/>
<rect x="227.9125" y="459.48905788074296" width="6.095833333333334" height="15.510942119257013" fill="#44aa44" opacity="0.35"/>
<rect x="238.99583333333334" y="458.77386906643363" width="6.095833333333334" height="16.22613093356637" fill="#44aa44" opacity="0.35"/>
<rect x="250.07916666666668" y="457.5797184984103" width="6.095833333333334" height="17.42028150158972" fill="#44aa44" opacity="0.35"/>
<rect x="261.1625" y="458.93894601144103" width="6.095833333333334" height="16.061053988558964" fill="#44aa44" opacity="0.35"/>
<rect x="272.2458333333334" y="456.3191900786494" width="6.095833333333334" height="18.680809921350612" fill="#ff4444" opacity="0.35"/>
<rect x="283.3291666666667" y="461.2721491921239" width="6.095833333333334" height="13.727850807876095" fill="#44aa44" opacity="0.35"/>
<rect x="294.4125" y="457.4424074521689" width="6.095833333333334" height="17.5575925478311" fill="#ff4444" opacity="0.35"/>
<rect x="305.4958333333334" y="457.31767782880587" width="6.095833333333334" height="17.68232217119412" fill="#44aa44" opacity="0.35"/>
<rect x="316.5791666666667" y="455.095321322103" width="6.095833333333334" height="19.904678677896978" fill="#44aa44" opacity="0.35"/>
<rect x="327.6625" y="461.513799279822" width="6.095833333333334" height="13.486200720178" fill="#ff4444" opacity="0.35"/>
<rect x="338.7458333333334" y="463.5151132018172" width="6.095833333333334" height="11.48488679818282" fill="#ff4444" opacity="0.35"/>
<rect x="349.8291666666667" y="450.9221935060025" width="6.095833333333334" height="24.077806493997485" fill="#ff4444" opacity="0.35"/>
<rect x="360.9125" y="460.14177342282875" width="6.095833333333334" height="14.858226577171225" fill="#44aa44" opacity="0.35"/>
<rect x="371.9958333333334" y="458.71551729480814" width="6.095833333333334" height="16.284482705191852" fill="#ff4444" opacity="0.35"/>
<rect x="383.0791666666667" y="457.29685340473134" width="6.095833333333334" height="17.70314659526864" fill="#ff4444" opacity="0.35"/>
<rect x="394.1625" y="452.14280844628723" width="6.095833333333334" height="22.85719155371276" fill="#44aa44" opacity="0.35"/>
<rect x="405.2458333333334" y="458.7257125857613" width="6.095833333333334" height="16.2742874142387" fill="#ff4444" opacity="0.35"/>
<rect x="416.3291666666667" y="457.50791761957" width="6.095833333333334" height="17.492082380430002" fill="#ff4444" opacity="0.35"/>
<rect x="427.4125" y="458.90402171689936" width="6.095833333333334" height="16.095978283100607" fill="#ff4444" opacity="0.35"/>
<rect x="438.4958333333334" y="462.38734048553135" width="6.095833333333334" height="12.612659514468636" fill="#ff4444" opacity="0.35"/>
<rect x="449.5791666666667" y="452.5196003693856" width="6.095833333333334" height="22.480399630614386" fill="#ff4444" opacity="0.35"/>
<rect x="460.6625" y="454.67189136592106" width="6.095833333333334" height="20.328108634078923" fill="#44aa44" opacity="0.35"/>
<rect x="471.7458333333334" y="462.681485475584" width="6.095833333333334" height="12.318514524416017" fill="#ff4444" opacity="0.35"/>
<rect x="482.8291666666667" y="460.29209973411673" width="6.095833333333334" height="14.707900265883271" fill="#ff4444" opacity="0.35"/>
<rect x="493.9125" y="458.4259276475218" width="6.095833333333334" height="16.57407235247817" fill="#44aa44" opacity="0.35"/>
<rect x="504.9958333333334" y="462.6903792400325" width="6.095833333333334" height="12.309620759967524" fill="#44aa44" opacity="0.35"/>
<rect x="516.0791666666667" y="451.81851142554336" width="6.095833333333334" height="23.181488574456612" fill="#ff4444" opacity="0.35"/>
<rect x="527.1624999999999" y="452.98272688395963" width="6.095833333333334" height="22.017273116040386" fill="#ff4444" opacity="0.35"/>
<rect x="538.2458333333333" y="460.2615138612573" width="6.095833333333334" height="14.738486138742726" fill="#ff4444" opacity="0.35"/>
<rect x="549.3291666666667" y="458.16475466225387" width="6.095833333333334" height="16.835245337746127" fill="#ff4444" opacity="0.35"/>
<rect x="560.4124999999999" y="456.50639297423595" width="6.095833333333334" height="18.493607025764028" fill="#44aa44" opacity="0.35"/>
<rect x="571.4958333333333" y="454.2697196759819" width="6.095833333333334" height="20.730280324018125" fill="#ff4444" opacity="0.35"/>
<rect x="582.5791666666667" y="461.6177044791105" width="6.095833333333334" height="13.3822955208895" fill="#ff4444" opacity="0.35"/>
<rect x="593.6624999999999" y="456.30465636601406" width="6.095833333333334" height="18.695343633985956" fill="#ff4444" opacity="0.35"/>
<rect x="604.7458333333333" y="461.5875524484193" width="6.095833333333334" height="13.412447551580735" fill="#ff4444" opacity="0.35"/>
<rect x="615.8291666666667" y="454.10442580989036" width="6.095833333333334" height="20.895574190109638" fill="#ff4444" opacity="0.35"/>
<rect x="626.9124999999999" y="447.7605687051051" width="6.095833333333334" height="27.239431294894917" fill="#ff4444" opacity="0.35"/>
<rect x="637.9958333333333" y="444.1104376227928" width="6.095833333333334" height="30.889562377207174" fill="#ff4444" opacity="0.35"/>
<rect x="649.0791666666667" y="447.76425636353497" width="6.095833333333334" height="27.235743636465056" fill="#44aa44" opacity="0.35"/>
<rect x="660.1624999999999" y="449.39398446845036" width="6.095833333333334" height="25.60601553154962" fill="#ff4444" opacity="0.35"/>
<rect x="671.2458333333333" y="452.140422314362" width="6.095833333333334" height="22.859577685637966" fill="#ff4444" opacity="0.35"/>
<rect x="682.3291666666667" y="440.0" width="6.095833333333334" height="35.0" fill="#44aa44" opacity="0.35"/>
<rect x="693.4124999999999" y="447.8985305145988" width="6.095833333333334" height="27.10146948540121" fill="#ff4444" opacity="0.35"/>
<rect x="704.4958333333333" y="441.9210531208746" width="6.095833333333334" height="33.078946879125375" fill="#ff4444" opacity="0.35"/>
<rect x="715.5791666666667" y="448.12586381074567" width="6.095833333333334" height="26.87413618925435" fill="#44aa44" opacity="0.25" stroke-dasharray="3,2"/>
<polyline points="65.54166666666667,359.7524366471735 76.625,364.8679517724352 87.70833333333334,352.1851611195341 98.79166666666667,354.9287977602901 109.87500000000001,360.2696208590368 120.95833333333334,357.3044313776872 132.04166666666666,353.4473409386733 143.125,359.0054686468637 154.20833333333334,357.8165834586051 165.29166666666666,357.3005076641946 176.375,357.23297146568285 187.45833333333334,364.93034860400803 198.54166666666666,360.0521145772442 209.625,367.63932033833464 220.70833333333334,367.1395194573808 231.79166666666666,375.48886886646847 242.875,382.0229019646935 253.95833333333334,388.1486157491863 265.0416666666667,391.6240934104387 276.12500000000006,387.525946036531 287.20833333333337,385.789299379202 298.2916666666667,381.6175287320447 309.37500000000006,383.9518634258682 320.45833333333337,392.5592019980122 331.5416666666667,393.0436554219656 342.62500000000006,393.56018440303444 353.70833333333337,382.7057066477237 364.7916666666667,378.1792285889163 375.87500000000006,367.0597066486213 386.95833333333337,358.4576803980484 398.0416666666667,357.72790562382346 409.12500000000006,351.93231395064515 420.20833333333337,342.7042081452788 431.2916666666667,335.36312598465855 442.37500000000006,330.1372540135974 453.45833333333337,316.5882177143569 464.5416666666667,309.51877859897274 475.62500000000006,304.19748766030716 486.70833333333337,296.55754826765406 497.7916666666667,301.1422569275516 508.87500000000006,308.42939863324034 519.9583333333334,296.17125600890483 531.0416666666666,299.41920280024743 542.125,302.4693465206472 553.2083333333334,299.4978662747568 564.2916666666666,297.4615765779442 575.375,285.5412026655647 586.4583333333334,278.23026968549743 597.5416666666666,266.66466755294806 608.625,260.253883487396 619.7083333333334,247.76755181016648 630.7916666666666,229.0740432759423 641.875,214.12307527326917 652.9583333333334,206.53378651890603 664.0416666666666,197.4095000155641 675.125,184.2755269037412 686.2083333333334,173.63924737774494 697.2916666666666,163.1749195210524 708.375,124.20599284220624 719.4583333333334,106.07971539274648" fill="none" stroke="#ffd700" stroke-width="1" opacity="0.7"/>
<polyline points="65.54166666666667,359.7524366471735 76.625,362.542717624589 87.70833333333334,356.0476016589786 98.79166666666667,356.84186881949194 109.87500000000001,359.40721395349885 120.95833333333334,357.9466391283151 132.04166666666666,355.72600657055693 143.125,358.3434097510456 154.20833333333334,357.8153012657806 165.29166666666666,357.53403850388844 176.375,357.45474042475587 187.45833333333334,361.61298814401084 198.54166666666666,359.55528966759374 209.625,363.7840973390341 220.70833333333334,364.2124283129321 231.79166666666666,369.2988172896069 242.875,373.98829926624995 253.95833333333334,378.7904345484176 265.0416666666667,382.38763712742224 276.12500000000006,381.8316397022029 287.20833333333337,381.91970631353763 298.2916666666667,380.34775742702715 309.37500000000006,381.8518984063886 320.45833333333337,386.92862217655437 331.5416666666667,388.21661128443037 342.62500000000006,389.3759987536561 353.70833333333337,384.2161355506463 364.7916666666667,381.4725240816746 375.87500000000006,374.80854929737575 386.95833333333337,368.7076544972897 398.0416666666667,366.44596387512314 409.12500000000006,361.69963055315316 420.20833333333337,354.8902425497701 431.2916666666667,348.6703732977061 442.37500000000006,343.400398165664 453.45833333333337,333.5985339747935 464.5416666666667,326.64969150086824 475.62500000000006,320.6324577339787 486.70833333333337,313.47704168822764 497.7916666666667,312.90152033534025 508.87500000000006,314.7382770097543 519.9583333333334,306.9049486007506 531.0416666666666,306.72497547023823 542.125,307.06036792318525 553.2083333333334,304.60482935223814 564.2916666666666,302.56558713988915 575.375,295.13556308551034 586.4583333333334,289.40335229275627 597.5416666666666,281.0633724736823 608.625,274.94863481597497 619.7083333333334,265.4661354777445 630.7916666666666,252.05175197406254 641.875,239.71891330021896 652.9583333333334,230.9255125202118 664.0416666666666,221.51376969996969 675.125,209.96718987817434 686.2083333333334,199.49437141409766 697.2916666666666,189.08562457656484 708.375,163.11880910528285 719.4583333333334,146.15669117592728" fill="none" stroke="#ff6b6b" stroke-width="1" opacity="0.7"/>
<polyline points="65.54166666666667,359.7524366471735 76.625,361.21401239724827 87.70833333333334,357.93835215119907 98.79166666666667,358.1743253788756 109.87500000000001,359.39117696722366 120.95833333333334,358.6276412955822 132.04166666666666,357.39959546368345 143.125,358.61122675887975 154.20833333333334,358.3090921229948 165.29166666666666,358.1147363089356 176.375,358.0178946670046 187.45833333333334,360.1423906873526 198.54166666666666,359.2046055289111 209.625,361.4530937509686 220.70833333333334,361.8994579361596 231.79166666666666,364.7840398169676 242.875,367.6704139449844 253.95833333333334,370.7875215043356 265.0416666666667,373.43395266896493 276.12500000000006,373.99544777560783 287.20833333333337,374.78788189836365 298.2916666666667,374.6437014735414 309.37500000000006,375.97482826782465 320.45833333333337,379.19378549396515 331.5416666666667,380.60509756786104 342.62500000000006,381.93730183427164 353.70833333333337,379.94296367263644 364.7916666666667,378.91280260584267 375.87500000000006,375.66593214509874 386.95833333333337,372.3885698357467 398.0416666666667,370.85331138237785 409.12500000000006,367.9473894035122 420.20833333333337,363.7855424636107 431.2916666666667,359.68034429216374 442.37500000000006,355.87131246162187 453.45833333333337,349.5492965239318 464.5416666666667,344.3903064138625 475.62500000000006,339.54883968711147 486.70833333333337,333.99920442951486 497.7916666666667,331.7432491740703 508.87500000000006,330.91090944745577 519.9583333333334,325.2674867153394 531.0416666666666,323.42440192177685 542.125,322.0096621160311 553.2083333333334,319.2996853224068 564.2916666666666,316.832000737827 575.375,311.58137731906305 586.4583333333334,307.01252269109165 597.5416666666666,300.96689798602097 608.625,295.8683663069991 619.7083333333334,288.908987464019 630.7916666666666,279.64975305863567 641.875,270.56131364999635 652.9583333333334,263.0178751128709 664.0416666666666,255.03149910296705 675.125,245.79112591983647 686.2083333333334,236.89356043468564 697.2916666666666,227.8795321844934 708.375,210.58320907020968 719.4583333333334,197.1778711105542" fill="none" stroke="#4ecdc4" stroke-width="1" opacity="0.7"/>
<line x1="65.54166666666667" y1="345.7331600606454" x2="65.54166666666667" y2="379.9103313840156" stroke="#ff4444" stroke-width="0.5" opacity="0.6"/>
<rect x="63.04791666666667" y="359.7524366471735" width="4.987500000000001" height="13.93632228719946" fill="#ff4444" opacity="0.8" rx="1"/>
<line x1="76.625" y1="360.416071041802" x2="76.625" y2="386.7955382282868" stroke="#44aa44" stroke-width="0.5" opacity="0.6"/>
<rect x="74.13125" y="364.14901451158755" width="4.987500000000001" height="10.949967511371028" fill="#44aa44" opacity="0.8" rx="1"/>
<line x1="87.70833333333334" y1="302.9287416071042" x2="87.70833333333334" y2="376.01147931557284" stroke="#ff4444" stroke-width="0.5" opacity="0.6"/>
<rect x="85.21458333333334" y="326.8195798137318" width="4.987500000000001" height="48.52826510721252" fill="#ff4444" opacity="0.8" rx="1"/>
<line x1="98.79166666666667" y1="318.9389213775179" x2="98.79166666666667" y2="363.73424301494475" stroke="#44aa44" stroke-width="0.5" opacity="0.6"/>
<rect x="96.29791666666667" y="323.2525449426034" width="4.987500000000001" height="37.163526099198634" fill="#44aa44" opacity="0.8" rx="1"/>
<line x1="109.87500000000001" y1="353.77972709551653" x2="109.87500000000001" y2="380.32510288065845" stroke="#ff4444" stroke-width="0.5" opacity="0.6"/>
<rect x="107.38125000000001" y="370.9512670565302" width="4.987500000000001" height="0.9954515919428673" fill="#ff4444" opacity="0.8" rx="1"/>
<line x1="120.95833333333334" y1="321.51050465670346" x2="120.95833333333334" y2="369.5410439679446" stroke="#ff4444" stroke-width="0.5" opacity="0.6"/>
<rect x="118.46458333333334" y="351.37405241498806" width="4.987500000000001" height="8.212475633528243" fill="#ff4444" opacity="0.8" rx="1"/>
<line x1="132.04166666666666" y1="327.23435131037473" x2="132.04166666666666" y2="364.72969460688756" stroke="#44aa44" stroke-width="0.5" opacity="0.6"/>
<rect x="129.54791666666665" y="340.5070392029457" width="4.987500000000001" height="5.226120857699698" fill="#44aa44" opacity="0.8" rx="1"/>
<line x1="143.125" y1="359.5865280485163" x2="143.125" y2="394.09551656920075" stroke="#44aa44" stroke-width="0.5" opacity="0.6"/>
<rect x="140.63125" y="363.73424301494475" width="4.987500000000001" height="6.387481048299776" fill="#44aa44" opacity="0.8" rx="1"/>
<line x1="154.20833333333334" y1="350.046783625731" x2="154.20833333333334" y2="368.71150097465886" stroke="#ff4444" stroke-width="0.5" opacity="0.6"/>
<rect x="151.71458333333334" y="355.4388130820879" width="4.987500000000001" height="8.461338531514059" fill="#ff4444" opacity="0.8" rx="1"/>
<line x1="165.29166666666666" y1="344.90361706735973" x2="165.29166666666666" y2="372.0296729478016" stroke="#ff4444" stroke-width="0.5" opacity="0.6"/>
<rect x="162.79791666666665" y="356.2683560753736" width="4.987500000000001" height="1.576131687242821" fill="#ff4444" opacity="0.8" rx="1"/>
<line x1="176.375" y1="346.1479315572883" x2="176.375" y2="366.2228719948018" stroke="#ff4444" stroke-width="0.5" opacity="0.6"/>
<rect x="173.88125" y="357.09789906865933" width="4.987500000000001" height="0.5" fill="#ff4444" opacity="0.8" rx="1"/>
<line x1="187.45833333333334" y1="350.71041802035955" x2="187.45833333333334" y2="380.32510288065845" stroke="#44aa44" stroke-width="0.5" opacity="0.6"/>
<rect x="184.96458333333334" y="357.1808533679879" width="4.987500000000001" height="23.14424951267057" fill="#44aa44" opacity="0.8" rx="1"/>
<line x1="198.54166666666666" y1="348.1388347411739" x2="198.54166666666666" y2="381.9012345679012" stroke="#ff4444" stroke-width="0.5" opacity="0.6"/>
<rect x="196.04791666666665" y="350.2956465237167" width="4.987500000000001" height="27.872644574398976" fill="#ff4444" opacity="0.8" rx="1"/>
<line x1="209.625" y1="345.65020576131684" x2="209.625" y2="382.8137318605155" stroke="#44aa44" stroke-width="0.5" opacity="0.6"/>
<rect x="207.13125" y="347.22633744855966" width="4.987500000000001" height="35.58739441195581" fill="#44aa44" opacity="0.8" rx="1"/>
<line x1="220.70833333333334" y1="364.72969460688756" x2="220.70833333333334" y2="387.7909898202296" stroke="#ff4444" stroke-width="0.5" opacity="0.6"/>
<rect x="218.21458333333334" y="366.1399176954733" width="4.987500000000001" height="12.940870695256649" fill="#ff4444" opacity="0.8" rx="1"/>
<line x1="231.79166666666666" y1="373.68875893437297" x2="231.79166666666666" y2="396.0034654537579" stroke="#44aa44" stroke-width="0.5" opacity="0.6"/>
<rect x="229.29791666666665" y="377.4217024041585" width="4.987500000000001" height="14.765865280485173" fill="#44aa44" opacity="0.8" rx="1"/>
<line x1="242.875" y1="368.1308208793589" x2="242.875" y2="396.08641975308643" stroke="#44aa44" stroke-width="0.5" opacity="0.6"/>
<rect x="240.38125" y="387.127355425601" width="4.987500000000001" height="7.963612735542597" fill="#44aa44" opacity="0.8" rx="1"/>
<line x1="253.95833333333334" y1="377.91942820012997" x2="253.95833333333334" y2="404.050032488629" stroke="#44aa44" stroke-width="0.5" opacity="0.6"/>
<rect x="251.46458333333334" y="400.1511804201863" width="4.987500000000001" height="0.5" fill="#44aa44" opacity="0.8" rx="1"/>
<line x1="265.0416666666667" y1="388.6205328135153" x2="265.0416666666667" y2="415.0" stroke="#44aa44" stroke-width="0.5" opacity="0.6"/>
<rect x="262.5479166666667" y="394.17847086852936" width="4.987500000000001" height="4.396577864414155" fill="#44aa44" opacity="0.8" rx="1"/>
<line x1="276.12500000000006" y1="365.808100498159" x2="276.12500000000006" y2="389.6989387047867" stroke="#ff4444" stroke-width="0.5" opacity="0.6"/>
<rect x="273.6312500000001" y="379.32965128871564" width="4.987500000000001" height="9.0420186268139" fill="#ff4444" opacity="0.8" rx="1"/>
<line x1="287.20833333333337" y1="370.37058696123023" x2="287.20833333333337" y2="387.62508122157243" stroke="#44aa44" stroke-width="0.5" opacity="0.6"/>
<rect x="284.7145833333334" y="380.32510288065845" width="4.987500000000001" height="1.9909031838856777" fill="#44aa44" opacity="0.8" rx="1"/>
<line x1="298.2916666666667" y1="363.31947151830195" x2="298.2916666666667" y2="394.42733376651506" stroke="#ff4444" stroke-width="0.5" opacity="0.6"/>
<rect x="295.7979166666667" y="373.2739874377301" width="4.987500000000001" height="15.346545375785183" fill="#ff4444" opacity="0.8" rx="1"/>
<line x1="309.37500000000006" y1="368.1308208793589" x2="309.37500000000006" y2="389.45007580680095" stroke="#44aa44" stroke-width="0.5" opacity="0.6"/>
<rect x="306.8812500000001" y="380.4910114793156" width="4.987500000000001" height="8.129521334199694" fill="#44aa44" opacity="0.8" rx="1"/>
<line x1="320.45833333333337" y1="382.3989603638726" x2="320.45833333333337" y2="410.76933073424306" stroke="#44aa44" stroke-width="0.5" opacity="0.6"/>
<rect x="317.9645833333334" y="393.59779077322935" width="4.987500000000001" height="16.17608836907084" fill="#44aa44" opacity="0.8" rx="1"/>
<line x1="331.5416666666667" y1="388.78644141217245" x2="331.5416666666667" y2="400.48299761750053" stroke="#ff4444" stroke-width="0.5" opacity="0.6"/>
<rect x="329.0479166666667" y="394.0125622698722" width="4.987500000000001" height="4.728395061728406" fill="#ff4444" opacity="0.8" rx="1"/>
<line x1="342.62500000000006" y1="385.30236084037256" x2="342.62500000000006" y2="402.7227636993719" stroke="#ff4444" stroke-width="0.5" opacity="0.6"/>
<rect x="340.1312500000001" y="394.5932423651722" width="4.987500000000001" height="3.9818063677712985" fill="#ff4444" opacity="0.8" rx="1"/>
<line x1="353.70833333333337" y1="349.88087502707384" x2="353.70833333333337" y2="394.0125622698722" stroke="#ff4444" stroke-width="0.5" opacity="0.6"/>
<rect x="351.2145833333334" y="360.996751137102" width="4.987500000000001" height="27.623781676413273" fill="#ff4444" opacity="0.8" rx="1"/>
<line x1="364.7916666666667" y1="353.77972709551653" x2="364.7916666666667" y2="371.28308425384444" stroke="#44aa44" stroke-width="0.5" opacity="0.6"/>
<rect x="362.2979166666667" y="358.50812215724494" width="4.987500000000001" height="10.61815031405672" fill="#44aa44" opacity="0.8" rx="1"/>
<line x1="375.87500000000006" y1="343.8252111760884" x2="375.87500000000006" y2="361.4115226337448" stroke="#ff4444" stroke-width="0.5" opacity="0.6"/>
<rect x="373.3812500000001" y="344.8206627680312" width="4.987500000000001" height="10.61815031405672" fill="#ff4444" opacity="0.8" rx="1"/>
<line x1="386.95833333333337" y1="332.4604721680745" x2="386.95833333333337" y2="358.25925925925924" stroke="#ff4444" stroke-width="0.5" opacity="0.6"/>
<rect x="384.4645833333334" y="341.25362789690274" width="4.987500000000001" height="11.19883040935673" fill="#ff4444" opacity="0.8" rx="1"/>
<line x1="398.0416666666667" y1="326.404808317089" x2="398.0416666666667" y2="359.5865280485163" stroke="#44aa44" stroke-width="0.5" opacity="0.6"/>
<rect x="395.5479166666667" y="335.5297812432315" width="4.987500000000001" height="20.738574832142092" fill="#44aa44" opacity="0.8" rx="1"/>
<line x1="409.12500000000006" y1="338.01841022308855" x2="409.12500000000006" y2="363.23651721897335" stroke="#ff4444" stroke-width="0.5" opacity="0.6"/>
<rect x="406.6312500000001" y="340.3411306042885" width="4.987500000000001" height="22.895386614684867" fill="#ff4444" opacity="0.8" rx="1"/>
<line x1="420.20833333333337" y1="317.44574398960367" x2="420.20833333333337" y2="341.83430799220275" stroke="#ff4444" stroke-width="0.5" opacity="0.6"/>
<rect x="417.7145833333334" y="324.24799653454625" width="4.987500000000001" height="14.599956681828019" fill="#ff4444" opacity="0.8" rx="1"/>
<line x1="431.2916666666667" y1="310.7264457439896" x2="431.2916666666667" y2="333.62183235867445" stroke="#ff4444" stroke-width="0.5" opacity="0.6"/>
<rect x="428.7979166666667" y="320.6809616634178" width="4.987500000000001" height="10.452241715399566" fill="#ff4444" opacity="0.8" rx="1"/>
<line x1="442.37500000000006" y1="314.54234351310373" x2="442.37500000000006" y2="331.38206627680313" stroke="#ff4444" stroke-width="0.5" opacity="0.6"/>
<rect x="439.8812500000001" y="319.685510071475" width="4.987500000000001" height="6.6363439462854785" fill="#ff4444" opacity="0.8" rx="1"/>
<line x1="453.45833333333337" y1="255.89365388780593" x2="453.45833333333337" y2="314.293480615118" stroke="#ff4444" stroke-width="0.5" opacity="0.6"/>
<rect x="450.9645833333334" y="289.4901451158761" width="4.987500000000001" height="24.80333549924194" fill="#ff4444" opacity="0.8" rx="1"/>
<line x1="464.5416666666667" y1="280.1992635910765" x2="464.5416666666667" y2="298.8639809400043" stroke="#44aa44" stroke-width="0.5" opacity="0.6"/>
<rect x="462.0479166666667" y="288.162876326619" width="4.987500000000001" height="7.217024041585432" fill="#44aa44" opacity="0.8" rx="1"/>
<line x1="475.62500000000006" y1="289.5730994152047" x2="475.62500000000006" y2="303.7582846003899" stroke="#ff4444" stroke-width="0.5" opacity="0.6"/>
<rect x="473.1312500000001" y="293.55490578297594" width="4.987500000000001" height="7.7147498375568375" fill="#ff4444" opacity="0.8" rx="1"/>
<line x1="486.70833333333337" y1="269.58111327701965" x2="486.70833333333337" y2="296.54126055880437" stroke="#ff4444" stroke-width="0.5" opacity="0.6"/>
<rect x="484.2145833333334" y="281.27766948234785" width="4.987500000000001" height="13.106779293913746" fill="#ff4444" opacity="0.8" rx="1"/>
<line x1="497.7916666666667" y1="280.44812648906213" x2="497.7916666666667" y2="312.3025774312324" stroke="#44aa44" stroke-width="0.5" opacity="0.6"/>
<rect x="495.2979166666667" y="283.51743556421917" width="4.987500000000001" height="26.794238683127617" fill="#44aa44" opacity="0.8" rx="1"/>
<line x1="508.87500000000006" y1="304.00714749837556" x2="508.87500000000006" y2="327.4002599090318" stroke="#44aa44" stroke-width="0.5" opacity="0.6"/>
<rect x="506.3812500000001" y="312.6343946285467" width="4.987500000000001" height="10.369287416071018" fill="#44aa44" opacity="0.8" rx="1"/>
<line x1="519.9583333333334" y1="251.66298462204887" x2="519.9583333333334" y2="321.09573316006066" stroke="#ff4444" stroke-width="0.5" opacity="0.6"/>
<rect x="517.4645833333334" y="271.6549707602339" width="4.987500000000001" height="49.357808100498175" fill="#ff4444" opacity="0.8" rx="1"/>
<line x1="531.0416666666666" y1="272.8992852501624" x2="531.0416666666666" y2="310.2287199480182" stroke="#ff4444" stroke-width="0.5" opacity="0.6"/>
<rect x="528.5479166666667" y="305.91509638293263" width="4.987500000000001" height="2.65453757851418" fill="#ff4444" opacity="0.8" rx="1"/>
<line x1="542.125" y1="298.3662551440329" x2="542.125" y2="329.474117392246" stroke="#ff4444" stroke-width="0.5" opacity="0.6"/>
<rect x="539.63125" y="308.5696339614468" width="4.987500000000001" height="6.387481048299719" fill="#ff4444" opacity="0.8" rx="1"/>
<line x1="553.2083333333334" y1="275.6367771280052" x2="553.2083333333334" y2="299.9423868312757" stroke="#ff4444" stroke-width="0.5" opacity="0.6"/>
<rect x="550.7145833333334" y="293.55490578297594" width="4.987500000000001" height="3.8158977691141445" fill="#ff4444" opacity="0.8" rx="1"/>
<line x1="564.2916666666666" y1="280.9458522850336" x2="564.2916666666666" y2="297.45375785141863" stroke="#44aa44" stroke-width="0.5" opacity="0.6"/>
<rect x="561.7979166666667" y="283.6003898635478" width="4.987500000000001" height="9.788607320771064" fill="#44aa44" opacity="0.8" rx="1"/>
<line x1="575.375" y1="243.20164609053495" x2="575.375" y2="300.60602122590427" stroke="#ff4444" stroke-width="0.5" opacity="0.6"/>
<rect x="572.88125" y="261.7004548408057" width="4.987500000000001" height="32.76694823478448" fill="#ff4444" opacity="0.8" rx="1"/>
<line x1="586.4583333333334" y1="251.74593892137747" x2="586.4583333333334" y2="278.62313190383367" stroke="#ff4444" stroke-width="0.5" opacity="0.6"/>
<rect x="583.9645833333334" y="263.60840372536285" width="4.987500000000001" height="6.387481048299719" fill="#ff4444" opacity="0.8" rx="1"/>
<line x1="597.5416666666666" y1="223.79034004764992" x2="597.5416666666666" y2="251.74593892137747" stroke="#ff4444" stroke-width="0.5" opacity="0.6"/>
<rect x="595.0479166666667" y="243.5334632878493" width="4.987500000000001" height="3.4011262724712594" fill="#ff4444" opacity="0.8" rx="1"/>
<line x1="608.625" y1="243.36755468919208" x2="608.625" y2="259.2118258609487" stroke="#ff4444" stroke-width="0.5" opacity="0.6"/>
<rect x="606.13125" y="247.43231535629195" width="4.987500000000001" height="0.5" fill="#ff4444" opacity="0.8" rx="1"/>
<line x1="619.7083333333334" y1="208.94152046783626" x2="619.7083333333334" y2="263.4424951267056" stroke="#ff4444" stroke-width="0.5" opacity="0.6"/>
<rect x="617.2145833333334" y="222.7948884557072" width="4.987500000000001" height="38.490794888455724" fill="#ff4444" opacity="0.8" rx="1"/>
<line x1="630.7916666666666" y1="160.82802685726665" x2="630.7916666666666" y2="215.90968161143604" stroke="#ff4444" stroke-width="0.5" opacity="0.6"/>
<rect x="628.2979166666667" y="191.68702620749406" width="4.987500000000001" height="14.434048083170865" fill="#ff4444" opacity="0.8" rx="1"/>
<line x1="641.875" y1="155.6848602988954" x2="641.875" y2="201.9733593242365" stroke="#ff4444" stroke-width="0.5" opacity="0.6"/>
<rect x="639.38125" y="184.22113926792287" width="4.987500000000001" height="7.217024041585489" fill="#ff4444" opacity="0.8" rx="1"/>
<line x1="652.9583333333334" y1="140.75308641975312" x2="652.9583333333334" y2="204.95971410006496" stroke="#44aa44" stroke-width="0.5" opacity="0.6"/>
<rect x="650.4645833333334" y="181.317738791423" width="4.987500000000001" height="10.03747021875671" fill="#44aa44" opacity="0.8" rx="1"/>
<line x1="664.0416666666666" y1="167.4643708035521" x2="664.0416666666666" y2="224.37102014295" stroke="#ff4444" stroke-width="0.5" opacity="0.6"/>
<rect x="661.5479166666667" y="179.1609270088802" width="4.987500000000001" height="26.960147281784714" fill="#ff4444" opacity="0.8" rx="1"/>
<line x1="675.125" y1="143.075806800953" x2="675.125" y2="192.76543209876542" stroke="#ff4444" stroke-width="0.5" opacity="0.6"/>
<rect x="672.63125" y="158.0075806800953" width="4.987500000000001" height="23.227203811999118" fill="#ff4444" opacity="0.8" rx="1"/>
<line x1="686.2083333333334" y1="57.79878709118475" x2="686.2083333333334" y2="157.8416720814382" stroke="#44aa44" stroke-width="0.5" opacity="0.6"/>
<rect x="683.7145833333334" y="119.01905999566816" width="4.987500000000001" height="33.34762833008443" fill="#44aa44" opacity="0.8" rx="1"/>
<line x1="697.2916666666666" y1="125.82131254061069" x2="697.2916666666666" y2="167.13255360623776" stroke="#ff4444" stroke-width="0.5" opacity="0.6"/>
<rect x="694.7979166666667" y="142.24626380766728" width="4.987500000000001" height="5.806800952999794" fill="#ff4444" opacity="0.8" rx="1"/>
<line x1="708.375" y1="32.0" x2="708.375" y2="148.05306476066707" stroke="#ff4444" stroke-width="0.5" opacity="0.6"/>
<rect x="705.88125" y="46.268139484513746" width="4.987500000000001" height="76.89863547758281" fill="#ff4444" opacity="0.8" rx="1"/>
<line x1="719.4583333333334" y1="40.21247563352822" x2="719.4583333333334" y2="100.43729694606888" stroke="#44aa44" stroke-width="0.5" opacity="0.3" stroke-dasharray="4,3"/>
<rect x="716.9645833333334" y="53.73402642408483" width="4.987500000000001" height="16.093134069742234" fill="#44aa44" opacity="0.4" stroke-dasharray="4,3" rx="1"/>
<text x="739.4583333333334" y="63.827160493827066" font-family="sans-serif" font-size="9" fill="#ffd700" opacity="0.8">🕐 盘中</text>
<line x1="309.37500000000006" y1="389.45007580680095" x2="309.37500000000006" y2="354.45007580680095" stroke="#4ecdc4" stroke-width="0.8" stroke-dasharray="2,2" opacity="0.7"/>
<rect x="273.37500000000006" y="345.45007580680095" width="72" height="16" fill="#4ecdc4" opacity="0.85" rx="3"/>
<text x="309.37500000000006" y="357.45007580680095" text-anchor="middle" font-family="sans-serif" font-size="9" fill="#000000" font-weight="bold">B1乖离买入</text>
<polygon points="309.37500000000006,395.45007580680095 305.37500000000006,389.45007580680095 313.37500000000006,389.45007580680095" fill="#4ecdc4" opacity="0.9"/>
<line x1="398.0416666666667" y1="359.5865280485163" x2="398.0416666666667" y2="309.5865280485163" stroke="#4ecdc4" stroke-width="0.8" stroke-dasharray="2,2" opacity="0.7"/>
<rect x="362.0416666666667" y="300.5865280485163" width="72" height="16" fill="#4ecdc4" opacity="0.85" rx="3"/>
<text x="398.0416666666667" y="312.5865280485163" text-anchor="middle" font-family="sans-serif" font-size="9" fill="#000000" font-weight="bold">B2乖离买入</text>
<polygon points="398.0416666666667,365.5865280485163 394.0416666666667,359.5865280485163 402.0416666666667,359.5865280485163" fill="#4ecdc4" opacity="0.9"/>
<line x1="497.7916666666667" y1="312.3025774312324" x2="497.7916666666667" y2="247.3025774312324" stroke="#4ecdc4" stroke-width="0.8" stroke-dasharray="2,2" opacity="0.7"/>
<rect x="461.7916666666667" y="238.3025774312324" width="72" height="16" fill="#4ecdc4" opacity="0.85" rx="3"/>
<text x="497.7916666666667" y="250.3025774312324" text-anchor="middle" font-family="sans-serif" font-size="9" fill="#000000" font-weight="bold">B3乖离买入</text>
<polygon points="497.7916666666667,318.3025774312324 493.7916666666667,312.3025774312324 501.7916666666667,312.3025774312324" fill="#4ecdc4" opacity="0.9"/>
<line x1="531.0416666666666" y1="310.2287199480182" x2="531.0416666666666" y2="230.22871994801818" stroke="#4ecdc4" stroke-width="0.8" stroke-dasharray="2,2" opacity="0.7"/>
<rect x="495.04166666666663" y="221.22871994801818" width="72" height="16" fill="#4ecdc4" opacity="0.85" rx="3"/>
<text x="531.0416666666666" y="233.22871994801818" text-anchor="middle" font-family="sans-serif" font-size="9" fill="#000000" font-weight="bold">B4乖离买入</text>
<polygon points="531.0416666666666,316.2287199480182 527.0416666666666,310.2287199480182 535.0416666666666,310.2287199480182" fill="#4ecdc4" opacity="0.9"/>
<line x1="553.2083333333334" y1="299.9423868312757" x2="553.2083333333334" y2="204.9423868312757" stroke="#4ecdc4" stroke-width="0.8" stroke-dasharray="2,2" opacity="0.7"/>
<rect x="517.2083333333334" y="195.9423868312757" width="72" height="16" fill="#4ecdc4" opacity="0.85" rx="3"/>
<text x="553.2083333333334" y="207.9423868312757" text-anchor="middle" font-family="sans-serif" font-size="9" fill="#000000" font-weight="bold">B5乖离买入</text>
<polygon points="553.2083333333334,305.9423868312757 549.2083333333334,299.9423868312757 557.2083333333334,299.9423868312757" fill="#4ecdc4" opacity="0.9"/>
<line x1="708.375" y1="32.0" x2="708.375" y2="51.0" stroke="#e94560" stroke-width="0.8" stroke-dasharray="2,2" opacity="0.7"/>
<rect x="674.375" y="58.0" width="68" height="16" fill="#e94560" opacity="0.85" rx="3"/>
<text x="708.375" y="70.0" text-anchor="middle" font-family="sans-serif" font-size="9" fill="#ffffff" font-weight="bold">W1警戒⚠️</text>
<polygon points="708.375,26.0 704.375,32.0 712.375,32.0" fill="#e94560" opacity="0.9"/>
<text x="375.0" y="435" text-anchor="middle" font-family="sans-serif" font-size="10" fill="#aaaaaa">📊 BIAS5=5.26%，持有区，趋势健康</text>
<rect x="60" y="443" width="665" height="55" fill="#111122" opacity="0.5" rx="2"/>
<rect x="60" y="443" width="665" height="16.96666666666664" fill="#e94560" opacity="0.18" rx="2"/>
<rect x="60" y="459.96666666666664" width="665" height="9.400000000000034" fill="#ffd700" opacity="0.12"/>
<rect x="60" y="469.3666666666667" width="665" height="30.633333333333326" fill="#4ecdc4" opacity="0.14"/>
<text x="670" y="454.48333333333335" text-anchor="end" font-family="sans-serif" font-size="9" fill="#e94560" font-weight="bold">⚠️ 警戒区</text>
<text x="670" y="467.66666666666663" text-anchor="end" font-family="sans-serif" font-size="9" fill="#ffd700">持有区</text>
<text x="670" y="487.68333333333334" text-anchor="end" font-family="sans-serif" font-size="9" fill="#4ecdc4">买入区</text>
<line x1="60" y1="472.5" x2="725" y2="472.5" stroke="#888888" stroke-width="0.5" stroke-dasharray="3,2" opacity="0.5"/>
<text x="56" y="475.5" text-anchor="end" font-family="sans-serif" font-size="7" fill="#888888">0%</text>
<line x1="60" y1="469.3666666666667" x2="725" y2="469.3666666666667" stroke="#4ecdc4" stroke-width="0.5" stroke-dasharray="3,2" opacity="0.5"/>
<text x="56" y="472.3666666666667" text-anchor="end" font-family="sans-serif" font-size="7" fill="#4ecdc4">2%</text>
<line x1="60" y1="459.96666666666664" x2="725" y2="459.96666666666664" stroke="#e94560" stroke-width="0.5" stroke-dasharray="3,2" opacity="0.5"/>
<text x="56" y="462.96666666666664" text-anchor="end" font-family="sans-serif" font-size="7" fill="#e94560">8%</text>
<text x="60" y="445" font-family="sans-serif" font-size="8" fill="#888888">BIAS5</text>
<polyline points="65.54166666666667,472.5 76.625,476.2256036163421 87.70833333333334,463.5276847092446 98.79166666666667,474.45305701748265 109.87500000000001,476.34856043066566 120.95833333333334,470.3777767814093 132.04166666666666,469.76354119081526 143.125,476.49353841110866 154.20833333333334,471.6481033998764 165.29166666666666,472.1306414060744 176.375,472.4516713861477 187.45833333333334,478.1067737334574 198.54166666666666,468.98653555836984 209.625,478.0615486916963 220.70833333333334,472.13406546280765 231.79166666666666,478.7347027720813 242.875,477.4563319641908 253.95833333333334,477.21654952394493 265.0416666666667,475.19902653595085 276.12500000000006,469.34941453421203 287.20833333333337,471.170560515849 298.2916666666667,469.3386433676706 309.37500000000006,474.27899607246263 320.45833333333337,479.19991434961685 331.5416666666667,472.877550788768 342.62500000000006,472.90306617608525 353.70833333333337,464.25280115196784 364.7916666666667,469.0981353685337 375.87500000000006,464.36024164593624 386.95833333333337,466.3271614360184 398.0416666666667,471.97718534549955 409.12500000000006,468.40230504417 420.20833333333337,466.10848412251323 431.2916666666667,467.4966537655938 442.37500000000006,468.97831600745627 453.45833333333337,463.62791986831144 464.5416666666667,467.9382370294366 475.62500000000006,469.1035020492903 486.70833333333337,467.69827449758566 497.7916666666667,475.4082486434237 508.87500000000006,477.1917162219664 519.9583333333334,464.80168453279606 531.0416666666666,474.55312971974973 542.125,474.4400301003101 553.2083333333334,470.6213353709044 564.2916666666666,471.217860663106 575.375,465.16998148665095 586.4583333333334,468.06798563152864 597.5416666666666,465.6421845483767 608.625,468.7442933589395 619.7083333333334,465.35186134030823 630.7916666666666,462.15182698803653 641.875,464.43657465392545 652.9583333333334,468.4596884300347 664.0416666666666,467.7166558275489 675.125,465.76265618606175 686.2083333333334,467.1372813731491 697.2916666666666,467.31134635479253 708.375,454.2999185394682 719.4583333333334,464.2569988994838" fill="none" stroke="#4ecdc4" stroke-width="1.5" opacity="0.9"/>
<circle cx="719.4583333333334" cy="464.2569988994838" r="3" fill="#4ecdc4" opacity="1"/>
<text x="724.4583333333334" y="467.2569988994838" font-family="sans-serif" font-size="9" fill="#4ecdc4" font-weight="bold">BIAS5=5.3%</text>
<text x="65.54166666666667" y="489" text-anchor="middle" font-family="sans-serif" font-size="8" fill="#666666" transform="rotate(-45,65.54166666666667,489)">02/26</text>
<text x="120.95833333333334" y="489" text-anchor="middle" font-family="sans-serif" font-size="8" fill="#666666" transform="rotate(-45,120.95833333333334,489)">03/05</text>
<text x="176.375" y="489" text-anchor="middle" font-family="sans-serif" font-size="8" fill="#666666" transform="rotate(-45,176.375,489)">03/12</text>
<text x="231.79166666666666" y="489" text-anchor="middle" font-family="sans-serif" font-size="8" fill="#666666" transform="rotate(-45,231.79166666666666,489)">03/19</text>
<text x="287.20833333333337" y="489" text-anchor="middle" font-family="sans-serif" font-size="8" fill="#666666" transform="rotate(-45,287.20833333333337,489)">03/26</text>
<text x="342.62500000000006" y="489" text-anchor="middle" font-family="sans-serif" font-size="8" fill="#666666" transform="rotate(-45,342.62500000000006,489)">04/02</text>
<text x="398.0416666666667" y="489" text-anchor="middle" font-family="sans-serif" font-size="8" fill="#666666" transform="rotate(-45,398.0416666666667,489)">04/10</text>
<text x="453.45833333333337" y="489" text-anchor="middle" font-family="sans-serif" font-size="8" fill="#666666" transform="rotate(-45,453.45833333333337,489)">04/17</text>
<text x="508.87500000000006" y="489" text-anchor="middle" font-family="sans-serif" font-size="8" fill="#666666" transform="rotate(-45,508.87500000000006,489)">04/24</text>
<text x="564.2916666666666" y="489" text-anchor="middle" font-family="sans-serif" font-size="8" fill="#666666" transform="rotate(-45,564.2916666666666,489)">05/06</text>
<text x="619.7083333333334" y="489" text-anchor="middle" font-family="sans-serif" font-size="8" fill="#666666" transform="rotate(-45,619.7083333333334,489)">05/13</text>
<text x="675.125" y="489" text-anchor="middle" font-family="sans-serif" font-size="8" fill="#666666" transform="rotate(-45,675.125,489)">05/20</text>
<text x="719.4583333333334" y="489" text-anchor="middle" font-family="sans-serif" font-size="8" fill="#666666" transform="rotate(-45,719.4583333333334,489)">05/26</text>
<rect x="60" y="484" width="8" height="8" fill="#4ecdc4" opacity="0.8" rx="1"/>
<text x="71" y="491" font-family="sans-serif" font-size="9" fill="#888888">买入区(BIAS&lt;2%)</text>
<rect x="230" y="484" width="8" height="8" fill="#ffd700" opacity="0.8" rx="1"/>
<text x="241" y="491" font-family="sans-serif" font-size="9" fill="#888888">持有区(2-8%)</text>
<rect x="400" y="484" width="8" height="8" fill="#e94560" opacity="0.8" rx="1"/>
<text x="411" y="491" font-family="sans-serif" font-size="9" fill="#888888">警戒区(&gt;8%)</text>
<rect x="570" y="484" width="8" height="8" fill="#ffd700" opacity="0.8" rx="1"/>
<text x="581" y="491" font-family="sans-serif" font-size="9" fill="#888888">EMA5</text>
<rect x="60" y="497" width="8" height="8" fill="#ff6b6b" opacity="0.8" rx="1"/>
<text x="71" y="504" font-family="sans-serif" font-size="9" fill="#888888">EMA10</text>
<rect x="230" y="497" width="8" height="8" fill="#4ecdc4" opacity="0.8" rx="1"/>
<text x="241" y="504" font-family="sans-serif" font-size="9" fill="#888888">EMA20</text>
<rect x="400" y="497" width="8" height="8" fill="#4ecdc4" opacity="0.8" rx="1"/>
<text x="411" y="504" font-family="sans-serif" font-size="9" fill="#888888">B乖离买入</text>
<rect x="570" y="497" width="8" height="8" fill="#e94560" opacity="0.8" rx="1"/>
<text x="581" y="504" font-family="sans-serif" font-size="9" fill="#888888">W警戒⚠️</text>
</svg>