<svg xmlns="http://www.w3.org/2000/svg" width="800" height="400" viewBox="0 0 800 400">
<rect width="800" height="400" fill="#1a1a2e"/>
<text x="400.0" y="20" text-anchor="middle" font-family="sans-serif" font-size="14" fill="#ffffff" font-weight="bold">华天科技(002185) K线图</text>
<line x1="60" y1="30.0" x2="780" y2="30.0" stroke="#2a2a4e" stroke-width="0.5"/>
<text x="55" y="33.0" text-anchor="end" font-family="sans-serif" font-size="8" fill="#666666">18.67</text>
<line x1="60" y1="84.0" x2="780" y2="84.0" stroke="#2a2a4e" stroke-width="0.5"/>
<text x="55" y="87.0" text-anchor="end" font-family="sans-serif" font-size="8" fill="#666666">17.20</text>
<line x1="60" y1="138.0" x2="780" y2="138.0" stroke="#2a2a4e" stroke-width="0.5"/>
<text x="55" y="141.0" text-anchor="end" font-family="sans-serif" font-size="8" fill="#666666">15.72</text>
<line x1="60" y1="192.0" x2="780" y2="192.0" stroke="#2a2a4e" stroke-width="0.5"/>
<text x="55" y="195.0" text-anchor="end" font-family="sans-serif" font-size="8" fill="#666666">14.25</text>
<line x1="60" y1="246.0" x2="780" y2="246.0" stroke="#2a2a4e" stroke-width="0.5"/>
<text x="55" y="249.0" text-anchor="end" font-family="sans-serif" font-size="8" fill="#666666">12.77</text>
<line x1="60" y1="300.0" x2="780" y2="300.0" stroke="#2a2a4e" stroke-width="0.5"/>
<text x="55" y="303.0" text-anchor="end" font-family="sans-serif" font-size="8" fill="#666666">11.30</text>
<line x1="60" y1="300" x2="780" y2="300" stroke="#2a2a4e" stroke-width="0.5"/>
<line x1="60" y1="345" x2="780" y2="345" stroke="#2a2a4e" stroke-width="0.5"/>
<rect x="61.8" y="344.7949519969917" width="7.199999999999999" height="0.5" fill="#ff4444" opacity="0.3"/>
<rect x="73.8" y="344.8520370045646" width="7.199999999999999" height="0.5" fill="#ff4444" opacity="0.3"/>
<rect x="85.8" y="344.8491650948809" width="7.199999999999999" height="0.5" fill="#44aa44" opacity="0.3"/>
<rect x="97.8" y="344.8247685786569" width="7.199999999999999" height="0.5" fill="#44aa44" opacity="0.3"/>
<rect x="109.8" y="344.88154458564713" width="7.199999999999999" height="0.5" fill="#ff4444" opacity="0.3"/>
<rect x="121.8" y="344.8744573923937" width="7.199999999999999" height="0.5" fill="#44aa44" opacity="0.3"/>
<rect x="133.8" y="344.9011783053326" width="7.199999999999999" height="0.5" fill="#44aa44" opacity="0.3"/>
<rect x="145.8" y="344.8684150786125" width="7.199999999999999" height="0.5" fill="#ff4444" opacity="0.3"/>
<rect x="157.8" y="344.897154815228" width="7.199999999999999" height="0.5" fill="#ff4444" opacity="0.3"/>
<rect x="169.8" y="344.9145772471652" width="7.199999999999999" height="0.5" fill="#44aa44" opacity="0.3"/>
<rect x="181.8" y="344.9126371824989" width="7.199999999999999" height="0.5" fill="#44aa44" opacity="0.3"/>
<rect x="193.8" y="344.9220577883993" width="7.199999999999999" height="0.5" fill="#44aa44" opacity="0.3"/>
<rect x="205.8" y="344.89542159541764" width="7.199999999999999" height="0.5" fill="#ff4444" opacity="0.3"/>
<rect x="217.8" y="344.91357781991286" width="7.199999999999999" height="0.5" fill="#44aa44" opacity="0.3"/>
<rect x="229.8" y="344.9015871517751" width="7.199999999999999" height="0.5" fill="#ff4444" opacity="0.3"/>
<rect x="241.8" y="344.9144581027399" width="7.199999999999999" height="0.5" fill="#44aa44" opacity="0.3"/>
<rect x="253.8" y="344.90891472021053" width="7.199999999999999" height="0.5" fill="#44aa44" opacity="0.3"/>
<rect x="265.8" y="344.8958446736208" width="7.199999999999999" height="0.5" fill="#44aa44" opacity="0.3"/>
<rect x="277.8" y="344.92965196018287" width="7.199999999999999" height="0.5" fill="#44aa44" opacity="0.3"/>
<rect x="289.8" y="344.9281930929515" width="7.199999999999999" height="0.5" fill="#ff4444" opacity="0.3"/>
<rect x="301.8" y="344.9478180947522" width="7.199999999999999" height="0.5" fill="#44aa44" opacity="0.3"/>
<rect x="313.8" y="344.94966941582226" width="7.199999999999999" height="0.5" fill="#ff4444" opacity="0.3"/>
<rect x="325.8" y="344.94602988520705" width="7.199999999999999" height="0.5" fill="#ff4444" opacity="0.3"/>
<rect x="337.8" y="344.92197865682976" width="7.199999999999999" height="0.5" fill="#44aa44" opacity="0.3"/>
<rect x="349.8" y="344.93868167699316" width="7.199999999999999" height="0.5" fill="#44aa44" opacity="0.3"/>
<rect x="361.8" y="344.9495431182607" width="7.199999999999999" height="0.5" fill="#44aa44" opacity="0.3"/>
<rect x="373.8" y="344.95668798367495" width="7.199999999999999" height="0.5" fill="#44aa44" opacity="0.3"/>
<rect x="385.8" y="344.9636623660091" width="7.199999999999999" height="0.5" fill="#ff4444" opacity="0.3"/>
<rect x="397.8" y="344.92016816824577" width="7.199999999999999" height="0.5" fill="#ff4444" opacity="0.3"/>
<rect x="409.8" y="344.9140111807493" width="7.199999999999999" height="0.5" fill="#ff4444" opacity="0.3"/>
<rect x="421.8" y="344.9340106045245" width="7.199999999999999" height="0.5" fill="#44aa44" opacity="0.3"/>
<rect x="433.8" y="344.9367203019418" width="7.199999999999999" height="0.5" fill="#ff4444" opacity="0.3"/>
<rect x="445.8" y="344.9145417795314" width="7.199999999999999" height="0.5" fill="#ff4444" opacity="0.3"/>
<rect x="457.8" y="344.92582980105834" width="7.199999999999999" height="0.5" fill="#44aa44" opacity="0.3"/>
<rect x="469.8" y="344.9477013347057" width="7.199999999999999" height="0.5" fill="#ff4444" opacity="0.3"/>
<rect x="481.8" y="344.9191207553712" width="7.199999999999999" height="0.5" fill="#ff4444" opacity="0.3"/>
<rect x="493.8" y="344.93236068894635" width="7.199999999999999" height="0.5" fill="#44aa44" opacity="0.3"/>
<rect x="505.8" y="344.9311723741905" width="7.199999999999999" height="0.5" fill="#44aa44" opacity="0.3"/>
<rect x="517.8" y="344.9277541437274" width="7.199999999999999" height="0.5" fill="#ff4444" opacity="0.3"/>
<rect x="529.8" y="344.9312617138815" width="7.199999999999999" height="0.5" fill="#44aa44" opacity="0.3"/>
<rect x="541.8" y="344.93693780199027" width="7.199999999999999" height="0.5" fill="#ff4444" opacity="0.3"/>
<rect x="553.8" y="344.89142649432245" width="7.199999999999999" height="0.5" fill="#ff4444" opacity="0.3"/>
<rect x="565.8" y="344.913892036324" width="7.199999999999999" height="0.5" fill="#44aa44" opacity="0.3"/>
<rect x="577.8" y="344.9174777693938" width="7.199999999999999" height="0.5" fill="#ff4444" opacity="0.3"/>
<rect x="589.8" y="344.8548703916292" width="7.199999999999999" height="0.5" fill="#ff4444" opacity="0.3"/>
<rect x="601.8" y="344.79070765380607" width="7.199999999999999" height="0.5" fill="#44aa44" opacity="0.3"/>
<rect x="613.8" y="344.83658347337416" width="7.199999999999999" height="0.5" fill="#ff4444" opacity="0.3"/>
<rect x="625.8" y="344.86254727155045" width="7.199999999999999" height="0.5" fill="#ff4444" opacity="0.3"/>
<rect x="637.8" y="344.76193498295913" width="7.199999999999999" height="0.5" fill="#ff4444" opacity="0.3"/>
<rect x="649.8" y="344.83342774810825" width="7.199999999999999" height="0.5" fill="#44aa44" opacity="0.3"/>
<rect x="661.8" y="344.8141879724982" width="7.199999999999999" height="0.5" fill="#ff4444" opacity="0.3"/>
<rect x="673.8" y="344.8445192819245" width="7.199999999999999" height="0.5" fill="#44aa44" opacity="0.3"/>
<rect x="685.8" y="344.8101226067419" width="7.199999999999999" height="0.5" fill="#ff4444" opacity="0.3"/>
<rect x="697.8" y="344.7810960740707" width="7.199999999999999" height="0.5" fill="#ff4444" opacity="0.3"/>
<rect x="709.8" y="344.7452369550887" width="7.199999999999999" height="0.5" fill="#ff4444" opacity="0.3"/>
<rect x="721.8" y="344.62738896122056" width="7.199999999999999" height="0.5" fill="#ff4444" opacity="0.3"/>
<rect x="733.8" y="344.6571121050438" width="7.199999999999999" height="0.5" fill="#44aa44" opacity="0.3"/>
<rect x="745.8" y="344.7449823481461" width="7.199999999999999" height="0.5" fill="#ff4444" opacity="0.3"/>
<rect x="757.8" y="344.7829907610291" width="7.199999999999999" height="0.5" fill="#ff4444" opacity="0.3"/>
<rect x="769.8" y="300.0" width="7.199999999999999" height="45.0" fill="#ff4444" opacity="0.3"/>
<polyline points="66.0,160.05 78.0,159.32 90.0,164.57 102.0,175.16 114.0,182.58 126.0,185.82 138.0,190.78 150.0,197.15 162.0,196.38 174.0,196.97 186.0,199.44 198.0,204.27 210.0,202.59 222.0,208.32 234.0,206.76 246.0,210.49 258.0,219.57 270.0,235.51 282.0,244.31 294.0,246.26 306.0,252.82 318.0,256.94 330.0,260.31 342.0,269.39 354.0,271.90 366.0,278.21 378.0,284.74 390.0,287.87 402.0,281.41 414.0,277.47 426.0,273.50 438.0,269.39 450.0,262.62 462.0,260.91 474.0,258.80 486.0,254.95 498.0,252.14 510.0,252.83 522.0,250.11 534.0,252.45 546.0,254.26 558.0,250.09 570.0,250.24 582.0,248.88 594.0,243.81 606.0,234.21 618.0,223.90 630.0,219.47 642.0,204.31 654.0,197.98 666.0,191.32 678.0,191.40 690.0,190.97 702.0,185.91 714.0,175.10 726.0,160.80 738.0,159.70 750.0,156.03 762.0,134.78 774.0,99.85" fill="none" stroke="#ffd700" stroke-width="0.8" opacity="0.7"/>
<polyline points="66.0,160.05 78.0,159.65 90.0,162.46 102.0,168.62 114.0,173.85 126.0,177.21 138.0,181.48 150.0,186.64 162.0,188.14 174.0,189.96 186.0,192.58 198.0,196.46 210.0,196.97 222.0,201.11 234.0,201.57 246.0,204.55 258.0,210.58 270.0,220.91 282.0,228.36 294.0,232.33 306.0,238.44 318.0,243.30 330.0,247.62 342.0,254.88 354.0,258.88 366.0,264.69 378.0,270.71 390.0,274.97 402.0,273.80 414.0,273.03 426.0,271.67 438.0,269.76 450.0,266.00 462.0,264.46 474.0,262.66 486.0,259.86 498.0,257.43 510.0,256.84 522.0,254.63 534.0,255.09 546.0,255.59 558.0,253.08 570.0,252.62 582.0,251.44 594.0,248.21 606.0,242.18 618.0,235.10 630.0,230.65 642.0,220.35 654.0,213.98 666.0,207.44 678.0,204.55 690.0,201.92 702.0,197.18 714.0,189.23 726.0,178.86 738.0,174.97 750.0,170.20 762.0,156.03 774.0,133.12" fill="none" stroke="#ff6b6b" stroke-width="0.8" opacity="0.7"/>
<polyline points="66.0,160.05 78.0,159.84 90.0,161.30 102.0,164.63 114.0,167.75 126.0,170.09 138.0,173.01 150.0,176.52 162.0,178.27 174.0,180.16 186.0,182.47 198.0,185.46 210.0,186.78 222.0,189.92 234.0,191.23 246.0,193.77 258.0,197.96 270.0,204.57 282.0,210.03 294.0,213.85 306.0,218.81 318.0,223.23 330.0,227.40 342.0,233.13 354.0,237.30 366.0,242.40 378.0,247.68 390.0,252.10 402.0,253.66 414.0,255.18 426.0,256.17 438.0,256.64 450.0,255.92 462.0,256.07 474.0,255.93 486.0,255.10 498.0,254.29 510.0,254.28 522.0,253.36 534.0,253.72 546.0,254.12 558.0,252.94 570.0,252.71 582.0,252.09 594.0,250.33 606.0,246.97 618.0,242.81 630.0,239.74 642.0,233.48 654.0,228.89 666.0,224.05 678.0,220.95 690.0,218.01 702.0,213.99 714.0,208.23 726.0,200.99 738.0,196.85 750.0,192.26 762.0,182.74 774.0,168.19" fill="none" stroke="#4ecdc4" stroke-width="0.8" opacity="0.7"/>
<line x1="66.0" y1="151.62822252374497" x2="66.0" y2="178.73812754409778" stroke="#ff4444" stroke-width="0.5" opacity="0.6"/>
<rect x="63.0" y="160.0542740841249" width="6.0" height="16.485753052917204" fill="#ff4444" opacity="0.85"/>
<line x1="78.0" y1="157.85617367706925" x2="78.0" y2="178.73812754409778" stroke="#ff4444" stroke-width="0.5" opacity="0.6"/>
<rect x="75.0" y="157.85617367706925" width="6.0" height="13.188602442333774" fill="#ff4444" opacity="0.85"/>
<line x1="90.0" y1="157.12347354138404" x2="90.0" y2="176.5400271370421" stroke="#44aa44" stroke-width="0.5" opacity="0.6"/>
<rect x="87.0" y="172.51017639077347" width="6.0" height="2.564450474898166" fill="#44aa44" opacity="0.85"/>
<line x1="102.0" y1="154.19267299864322" x2="102.0" y2="198.887381275441" stroke="#44aa44" stroke-width="0.5" opacity="0.6"/>
<rect x="99.0" y="174.70827679782906" width="6.0" height="21.614654002713706" fill="#44aa44" opacity="0.85"/>
<line x1="114.0" y1="180.56987788331077" x2="114.0" y2="205.84803256445053" stroke="#ff4444" stroke-width="0.5" opacity="0.6"/>
<rect x="111.0" y="197.4219810040706" width="6.0" height="6.9606512890094905" fill="#ff4444" opacity="0.85"/>
<line x1="126.0" y1="176.1736770691995" x2="126.0" y2="195.59023066485756" stroke="#44aa44" stroke-width="0.5" opacity="0.6"/>
<rect x="123.0" y="184.59972862957946" width="6.0" height="7.693351424694669" fill="#44aa44" opacity="0.85"/>
<line x1="138.0" y1="185.33242876526464" x2="138.0" y2="202.18453188602444" stroke="#44aa44" stroke-width="0.5" opacity="0.6"/>
<rect x="135.0" y="196.68928086838542" width="6.0" height="4.0298507462686075" fill="#44aa44" opacity="0.85"/>
<line x1="150.0" y1="206.58073270013574" x2="150.0" y2="235.1560379918589" stroke="#ff4444" stroke-width="0.5" opacity="0.6"/>
<rect x="147.0" y="209.87788331071917" width="6.0" height="4.762550881953814" fill="#ff4444" opacity="0.85"/>
<line x1="162.0" y1="190.09497964721848" x2="162.0" y2="202.55088195386702" stroke="#ff4444" stroke-width="0.5" opacity="0.6"/>
<rect x="159.0" y="194.85753052917235" width="6.0" height="6.594301221166887" fill="#ff4444" opacity="0.85"/>
<line x1="174.0" y1="185.69877883310724" x2="174.0" y2="201.08548168249663" stroke="#44aa44" stroke-width="0.5" opacity="0.6"/>
<rect x="171.0" y="194.12483039348717" width="6.0" height="4.029850746268636" fill="#44aa44" opacity="0.85"/>
<line x1="186.0" y1="189.36227951153327" x2="186.0" y2="210.97693351424695" stroke="#44aa44" stroke-width="0.5" opacity="0.6"/>
<rect x="183.0" y="200.35278154681146" width="6.0" height="4.029850746268636" fill="#44aa44" opacity="0.85"/>
<line x1="198.0" y1="199.2537313432836" x2="198.0" y2="218.30393487109913" stroke="#44aa44" stroke-width="0.5" opacity="0.6"/>
<rect x="195.0" y="210.24423337856177" width="6.0" height="3.663500678426061" fill="#44aa44" opacity="0.85"/>
<line x1="210.0" y1="197.7883310719132" x2="210.0" y2="222.70013568521034" stroke="#ff4444" stroke-width="0.5" opacity="0.6"/>
<rect x="207.0" y="199.2537313432836" width="6.0" height="16.119402985074686" fill="#ff4444" opacity="0.85"/>
<line x1="222.0" y1="194.85753052917235" x2="222.0" y2="220.13568521031212" stroke="#44aa44" stroke-width="0.5" opacity="0.6"/>
<rect x="219.0" y="194.85753052917235" width="6.0" height="24.911804613297164" fill="#44aa44" opacity="0.85"/>
<line x1="234.0" y1="202.91723202170968" x2="234.0" y2="216.83853459972866" stroke="#ff4444" stroke-width="0.5" opacity="0.6"/>
<rect x="231.0" y="203.6499321573949" width="6.0" height="8.42605156037996" fill="#ff4444" opacity="0.85"/>
<line x1="246.0" y1="203.6499321573949" x2="246.0" y2="220.5020352781547" stroke="#44aa44" stroke-width="0.5" opacity="0.6"/>
<rect x="243.0" y="210.24423337856177" width="6.0" height="7.693351424694754" fill="#44aa44" opacity="0.85"/>
<line x1="258.0" y1="212.07598371777485" x2="258.0" y2="237.72048846675716" stroke="#44aa44" stroke-width="0.5" opacity="0.6"/>
<rect x="255.0" y="213.90773405698783" width="6.0" height="23.812754409769326" fill="#44aa44" opacity="0.85"/>
<line x1="270.0" y1="242.48303934871103" x2="270.0" y2="270.325644504749" stroke="#44aa44" stroke-width="0.5" opacity="0.6"/>
<rect x="267.0" y="248.71099050203534" width="6.0" height="18.683853459972823" fill="#44aa44" opacity="0.85"/>
<line x1="282.0" y1="256.77069199457264" x2="282.0" y2="276.5535956580733" stroke="#44aa44" stroke-width="0.5" opacity="0.6"/>
<rect x="279.0" y="258.6024423337857" width="6.0" height="3.297150610583401" fill="#44aa44" opacity="0.85"/>
<line x1="294.0" y1="243.94843962008144" x2="294.0" y2="260.4341926729986" stroke="#ff4444" stroke-width="0.5" opacity="0.6"/>
<rect x="291.0" y="250.17639077340573" width="6.0" height="10.257801899592891" fill="#ff4444" opacity="0.85"/>
<line x1="306.0" y1="252.74084124830398" x2="306.0" y2="268.8602442333786" stroke="#44aa44" stroke-width="0.5" opacity="0.6"/>
<rect x="303.0" y="254.57259158751702" width="6.0" height="11.35685210312073" fill="#44aa44" opacity="0.85"/>
<line x1="318.0" y1="260.06784260515605" x2="318.0" y2="276.9199457259159" stroke="#ff4444" stroke-width="0.5" opacity="0.6"/>
<rect x="315.0" y="265.19674355495255" width="6.0" height="9.525101763907685" fill="#ff4444" opacity="0.85"/>
<line x1="330.0" y1="266.29579375848033" x2="330.0" y2="282.41519674355504" stroke="#ff4444" stroke-width="0.5" opacity="0.6"/>
<rect x="327.0" y="267.0284938941656" width="6.0" height="6.9606512890094905" fill="#ff4444" opacity="0.85"/>
<line x1="342.0" y1="268.1275440976934" x2="342.0" y2="287.910447761194" stroke="#44aa44" stroke-width="0.5" opacity="0.6"/>
<rect x="339.0" y="268.8602442333786" width="6.0" height="18.683853459972852" fill="#44aa44" opacity="0.85"/>
<line x1="354.0" y1="272.8900949796473" x2="354.0" y2="281.6824966078697" stroke="#44aa44" stroke-width="0.5" opacity="0.6"/>
<rect x="351.0" y="276.1872455902307" width="6.0" height="0.7327001356852065" fill="#44aa44" opacity="0.85"/>
<line x1="366.0" y1="276.9199457259159" x2="366.0" y2="295.2374491180462" stroke="#44aa44" stroke-width="0.5" opacity="0.6"/>
<rect x="363.0" y="276.9199457259159" width="6.0" height="13.921302578018981" fill="#44aa44" opacity="0.85"/>
<line x1="378.0" y1="288.64314789687927" x2="378.0" y2="300.0" stroke="#44aa44" stroke-width="0.5" opacity="0.6"/>
<rect x="375.0" y="290.47489823609226" width="6.0" height="7.327001356852179" fill="#44aa44" opacity="0.85"/>
<line x1="390.0" y1="289.74219810040705" x2="390.0" y2="296.70284938941654" stroke="#ff4444" stroke-width="0.5" opacity="0.6"/>
<rect x="387.0" y="294.1383989145183" width="6.0" height="0.5" fill="#ff4444" opacity="0.85"/>
<line x1="402.0" y1="268.49389416553595" x2="402.0" y2="282.0488466757124" stroke="#ff4444" stroke-width="0.5" opacity="0.6"/>
<rect x="399.0" y="268.49389416553595" width="6.0" height="13.188602442333774" fill="#ff4444" opacity="0.85"/>
<line x1="414.0" y1="261.8995929443691" x2="414.0" y2="277.28629579375854" stroke="#ff4444" stroke-width="0.5" opacity="0.6"/>
<rect x="411.0" y="269.59294436906373" width="6.0" height="4.762550881953928" fill="#ff4444" opacity="0.85"/>
<line x1="426.0" y1="256.77069199457264" x2="426.0" y2="265.92944369063775" stroke="#44aa44" stroke-width="0.5" opacity="0.6"/>
<rect x="423.0" y="262.6322930800543" width="6.0" height="2.930800542740826" fill="#44aa44" opacity="0.85"/>
<line x1="438.0" y1="254.93894165535963" x2="438.0" y2="271.05834464043426" stroke="#ff4444" stroke-width="0.5" opacity="0.6"/>
<rect x="435.0" y="261.1668928086839" width="6.0" height="8.426051560379847" fill="#ff4444" opacity="0.85"/>
<line x1="450.0" y1="247.97829036635005" x2="450.0" y2="256.40434192673" stroke="#ff4444" stroke-width="0.5" opacity="0.6"/>
<rect x="447.0" y="249.07734056987795" width="6.0" height="6.227951153324284" fill="#ff4444" opacity="0.85"/>
<line x1="462.0" y1="245.04748982360923" x2="462.0" y2="260.4341926729986" stroke="#44aa44" stroke-width="0.5" opacity="0.6"/>
<rect x="459.0" y="247.24559023066487" width="6.0" height="10.25780189959292" fill="#44aa44" opacity="0.85"/>
<line x1="474.0" y1="254.20624151967436" x2="474.0" y2="261.1668928086839" stroke="#ff4444" stroke-width="0.5" opacity="0.6"/>
<rect x="471.0" y="254.57259158751702" width="6.0" height="3.297150610583458" fill="#ff4444" opacity="0.85"/>
<line x1="486.0" y1="243.21573948439624" x2="486.0" y2="257.5033921302578" stroke="#ff4444" stroke-width="0.5" opacity="0.6"/>
<rect x="483.0" y="247.24559023066487" width="6.0" height="8.792401628222507" fill="#ff4444" opacity="0.85"/>
<line x1="498.0" y1="241.3839891451832" x2="498.0" y2="249.81004070556315" stroke="#44aa44" stroke-width="0.5" opacity="0.6"/>
<rect x="495.0" y="245.78018995929452" width="6.0" height="0.7327001356851497" fill="#44aa44" opacity="0.85"/>
<line x1="510.0" y1="247.61194029850748" x2="510.0" y2="261.8995929443691" stroke="#44aa44" stroke-width="0.5" opacity="0.6"/>
<rect x="507.0" y="248.71099050203534" width="6.0" height="5.495251017639021" fill="#44aa44" opacity="0.85"/>
<line x1="522.0" y1="243.58208955223884" x2="522.0" y2="257.5033921302578" stroke="#ff4444" stroke-width="0.5" opacity="0.6"/>
<rect x="519.0" y="244.68113975576662" width="6.0" height="11.356852103120758" fill="#ff4444" opacity="0.85"/>
<line x1="534.0" y1="240.651289009498" x2="534.0" y2="260.06784260515605" stroke="#44aa44" stroke-width="0.5" opacity="0.6"/>
<rect x="531.0" y="242.11668928086837" width="6.0" height="15.020352781546848" fill="#44aa44" opacity="0.85"/>
<line x1="546.0" y1="246.14654002713706" x2="546.0" y2="259.33514246947084" stroke="#ff4444" stroke-width="0.5" opacity="0.6"/>
<rect x="543.0" y="257.8697421981005" width="6.0" height="1.4654002713703562" fill="#ff4444" opacity="0.85"/>
<line x1="558.0" y1="238.81953867028494" x2="558.0" y2="252.74084124830398" stroke="#ff4444" stroke-width="0.5" opacity="0.6"/>
<rect x="555.0" y="241.7503392130258" width="6.0" height="8.792401628222535" fill="#ff4444" opacity="0.85"/>
<line x1="570.0" y1="241.7503392130258" x2="570.0" y2="257.5033921302578" stroke="#44aa44" stroke-width="0.5" opacity="0.6"/>
<rect x="567.0" y="242.48303934871103" width="6.0" height="8.0597014925373" fill="#44aa44" opacity="0.85"/>
<line x1="582.0" y1="241.0176390773406" x2="582.0" y2="253.4735413839892" stroke="#ff4444" stroke-width="0.5" opacity="0.6"/>
<rect x="579.0" y="246.14654002713706" width="6.0" height="4.396200814111268" fill="#ff4444" opacity="0.85"/>
<line x1="594.0" y1="231.85888738127548" x2="594.0" y2="246.14654002713706" stroke="#ff4444" stroke-width="0.5" opacity="0.6"/>
<rect x="591.0" y="233.69063772048852" width="6.0" height="9.15875169606511" fill="#ff4444" opacity="0.85"/>
<line x1="606.0" y1="198.887381275441" x2="606.0" y2="216.47218453188606" stroke="#44aa44" stroke-width="0.5" opacity="0.6"/>
<rect x="603.0" y="212.80868385346" width="6.0" height="2.1981004070556764" fill="#44aa44" opacity="0.85"/>
<line x1="618.0" y1="201.81818181818184" x2="618.0" y2="218.30393487109913" stroke="#ff4444" stroke-width="0.5" opacity="0.6"/>
<rect x="615.0" y="203.28358208955228" width="6.0" height="3.297150610583458" fill="#ff4444" opacity="0.85"/>
<line x1="630.0" y1="206.58073270013574" x2="630.0" y2="221.23473541383996" stroke="#ff4444" stroke-width="0.5" opacity="0.6"/>
<rect x="627.0" y="210.61058344640435" width="6.0" height="1.4654002713704983" fill="#ff4444" opacity="0.85"/>
<line x1="642.0" y1="173.60922659430125" x2="642.0" y2="200.71913161465403" stroke="#ff4444" stroke-width="0.5" opacity="0.6"/>
<rect x="639.0" y="173.97557666214385" width="6.0" height="26.74355495251018" fill="#ff4444" opacity="0.85"/>
<line x1="654.0" y1="171.7774762550882" x2="654.0" y2="189.72862957937588" stroke="#44aa44" stroke-width="0.5" opacity="0.6"/>
<rect x="651.0" y="171.7774762550882" width="6.0" height="13.554952510176435" fill="#44aa44" opacity="0.85"/>
<line x1="666.0" y1="173.60922659430125" x2="666.0" y2="204.3826322930801" stroke="#ff4444" stroke-width="0.5" opacity="0.6"/>
<rect x="663.0" y="178.0054274084125" width="6.0" height="20.14925373134332" fill="#ff4444" opacity="0.85"/>
<line x1="678.0" y1="168.84667571234738" x2="678.0" y2="191.92672998643152" stroke="#44aa44" stroke-width="0.5" opacity="0.6"/>
<rect x="675.0" y="176.5400271370421" width="6.0" height="15.02035278154682" fill="#44aa44" opacity="0.85"/>
<line x1="690.0" y1="172.87652645861607" x2="690.0" y2="205.11533242876527" stroke="#ff4444" stroke-width="0.5" opacity="0.6"/>
<rect x="687.0" y="190.09497964721848" width="6.0" height="0.7327001356852634" fill="#ff4444" opacity="0.85"/>
<line x1="702.0" y1="162.6187245590231" x2="702.0" y2="193.0257801899593" stroke="#ff4444" stroke-width="0.5" opacity="0.6"/>
<rect x="699.0" y="175.8073270013569" width="6.0" height="14.287652645861584" fill="#ff4444" opacity="0.85"/>
<line x1="714.0" y1="148.3310719131615" x2="714.0" y2="192.65943012211673" stroke="#ff4444" stroke-width="0.5" opacity="0.6"/>
<rect x="711.0" y="153.45997286295795" width="6.0" height="29.30800542740846" fill="#ff4444" opacity="0.85"/>
<line x1="726.0" y1="99.24016282225239" x2="726.0" y2="162.6187245590231" stroke="#ff4444" stroke-width="0.5" opacity="0.6"/>
<rect x="723.0" y="132.21166892808685" width="6.0" height="26.74355495251018" fill="#ff4444" opacity="0.85"/>
<line x1="738.0" y1="110.96336499321576" x2="738.0" y2="161.51967435549528" stroke="#44aa44" stroke-width="0.5" opacity="0.6"/>
<rect x="735.0" y="127.81546811397563" width="6.0" height="29.67435549525105" fill="#44aa44" opacity="0.85"/>
<line x1="750.0" y1="145.40027137042068" x2="750.0" y2="176.1736770691995" stroke="#ff4444" stroke-width="0.5" opacity="0.6"/>
<rect x="747.0" y="148.69742198100414" width="6.0" height="0.5" fill="#ff4444" opacity="0.85"/>
<line x1="762.0" y1="92.27951153324298" x2="762.0" y2="131.11261872455907" stroke="#ff4444" stroke-width="0.5" opacity="0.6"/>
<rect x="759.0" y="92.27951153324298" width="6.0" height="35.535956580732645" fill="#ff4444" opacity="0.85"/>
<line x1="774.0" y1="30.0" x2="774.0" y2="48.683853459972916" stroke="#ff4444" stroke-width="0.5" opacity="0.6"/>
<rect x="771.0" y="30.0" width="6.0" height="0.5" fill="#ff4444" opacity="0.85"/>
<rect x="146.0" y="231.1560379918589" width="8" height="8" fill="#4caf50" opacity="0.85" rx="1"/>
<text x="150.0" y="229.1560379918589" text-anchor="middle" font-family="sans-serif" font-size="8" fill="#4caf50">前低</text>
<rect x="254.0" y="233.72048846675716" width="8" height="8" fill="#4caf50" opacity="0.85" rx="1"/>
<text x="258.0" y="231.72048846675716" text-anchor="middle" font-family="sans-serif" font-size="8" fill="#4caf50">前低</text>
<rect x="266.0" y="266.325644504749" width="8" height="8" fill="#4caf50" opacity="0.85" rx="1"/>
<text x="270.0" y="264.325644504749" text-anchor="middle" font-family="sans-serif" font-size="8" fill="#4caf50">前低</text>
<rect x="278.0" y="272.5535956580733" width="8" height="8" fill="#4caf50" opacity="0.85" rx="1"/>
<text x="282.0" y="270.5535956580733" text-anchor="middle" font-family="sans-serif" font-size="8" fill="#4caf50">前低</text>
<rect x="314.0" y="272.9199457259159" width="8" height="8" fill="#4caf50" opacity="0.85" rx="1"/>
<text x="318.0" y="270.9199457259159" text-anchor="middle" font-family="sans-serif" font-size="8" fill="#4caf50">前低</text>
<rect x="326.0" y="278.41519674355504" width="8" height="8" fill="#4caf50" opacity="0.85" rx="1"/>
<text x="330.0" y="276.41519674355504" text-anchor="middle" font-family="sans-serif" font-size="8" fill="#4caf50">前低</text>
<rect x="338.0" y="283.910447761194" width="8" height="8" fill="#4caf50" opacity="0.85" rx="1"/>
<text x="342.0" y="281.910447761194" text-anchor="middle" font-family="sans-serif" font-size="8" fill="#4caf50">前低</text>
<rect x="362.0" y="291.2374491180462" width="8" height="8" fill="#4caf50" opacity="0.85" rx="1"/>
<text x="366.0" y="289.2374491180462" text-anchor="middle" font-family="sans-serif" font-size="8" fill="#4caf50">前低</text>
<rect x="374.0" y="296.0" width="8" height="8" fill="#4caf50" opacity="0.85" rx="1"/>
<text x="378.0" y="294.0" text-anchor="middle" font-family="sans-serif" font-size="8" fill="#4caf50">前低</text>
<rect x="434.0" y="250.93894165535963" width="8" height="8" fill="#ff9800" opacity="0.85" rx="1"/>
<text x="438.0" y="248.93894165535963" text-anchor="middle" font-family="sans-serif" font-size="8" fill="#ff9800">前高</text>
<rect x="446.0" y="243.97829036635005" width="8" height="8" fill="#ff9800" opacity="0.85" rx="1"/>
<text x="450.0" y="241.97829036635005" text-anchor="middle" font-family="sans-serif" font-size="8" fill="#ff9800">前高</text>
<rect x="446.0" y="243.97829036635005" width="8" height="8" fill="#2196f3" opacity="0.85" rx="1"/>
<text x="450.0" y="241.97829036635005" text-anchor="middle" font-family="sans-serif" font-size="8" fill="#2196f3">突</text>
<rect x="458.0" y="241.04748982360923" width="8" height="8" fill="#ff9800" opacity="0.85" rx="1"/>
<text x="462.0" y="239.04748982360923" text-anchor="middle" font-family="sans-serif" font-size="8" fill="#ff9800">前高</text>
<rect x="482.0" y="239.21573948439624" width="8" height="8" fill="#ff9800" opacity="0.85" rx="1"/>
<text x="486.0" y="237.21573948439624" text-anchor="middle" font-family="sans-serif" font-size="8" fill="#ff9800">前高</text>
<rect x="494.0" y="237.3839891451832" width="8" height="8" fill="#ff9800" opacity="0.85" rx="1"/>
<text x="498.0" y="235.3839891451832" text-anchor="middle" font-family="sans-serif" font-size="8" fill="#ff9800">前高</text>
<rect x="530.0" y="236.651289009498" width="8" height="8" fill="#ff9800" opacity="0.85" rx="1"/>
<text x="534.0" y="234.651289009498" text-anchor="middle" font-family="sans-serif" font-size="8" fill="#ff9800">前高</text>
<rect x="554.0" y="234.81953867028494" width="8" height="8" fill="#ff9800" opacity="0.85" rx="1"/>
<text x="558.0" y="232.81953867028494" text-anchor="middle" font-family="sans-serif" font-size="8" fill="#ff9800">前高</text>
<rect x="590.0" y="227.85888738127548" width="8" height="8" fill="#ff9800" opacity="0.85" rx="1"/>
<text x="594.0" y="225.85888738127548" text-anchor="middle" font-family="sans-serif" font-size="8" fill="#ff9800">前高</text>
<rect x="590.0" y="227.85888738127548" width="8" height="8" fill="#2196f3" opacity="0.85" rx="1"/>
<text x="594.0" y="225.85888738127548" text-anchor="middle" font-family="sans-serif" font-size="8" fill="#2196f3">突</text>
<rect x="602.0" y="194.887381275441" width="8" height="8" fill="#ff9800" opacity="0.85" rx="1"/>
<text x="606.0" y="192.887381275441" text-anchor="middle" font-family="sans-serif" font-size="8" fill="#ff9800">前高</text>
<rect x="638.0" y="169.60922659430125" width="8" height="8" fill="#ff9800" opacity="0.85" rx="1"/>
<text x="642.0" y="167.60922659430125" text-anchor="middle" font-family="sans-serif" font-size="8" fill="#ff9800">前高</text>
<rect x="638.0" y="169.60922659430125" width="8" height="8" fill="#2196f3" opacity="0.85" rx="1"/>
<text x="642.0" y="167.60922659430125" text-anchor="middle" font-family="sans-serif" font-size="8" fill="#2196f3">突</text>
<rect x="650.0" y="167.7774762550882" width="8" height="8" fill="#ff9800" opacity="0.85" rx="1"/>
<text x="654.0" y="165.7774762550882" text-anchor="middle" font-family="sans-serif" font-size="8" fill="#ff9800">前高</text>
<rect x="674.0" y="164.84667571234738" width="8" height="8" fill="#ff9800" opacity="0.85" rx="1"/>
<text x="678.0" y="162.84667571234738" text-anchor="middle" font-family="sans-serif" font-size="8" fill="#ff9800">前高</text>
<rect x="698.0" y="158.6187245590231" width="8" height="8" fill="#ff9800" opacity="0.85" rx="1"/>
<text x="702.0" y="156.6187245590231" text-anchor="middle" font-family="sans-serif" font-size="8" fill="#ff9800">前高</text>
<rect x="710.0" y="144.3310719131615" width="8" height="8" fill="#ff9800" opacity="0.85" rx="1"/>
<text x="714.0" y="142.3310719131615" text-anchor="middle" font-family="sans-serif" font-size="8" fill="#ff9800">前高</text>
<rect x="710.0" y="144.3310719131615" width="8" height="8" fill="#2196f3" opacity="0.85" rx="1"/>
<text x="714.0" y="142.3310719131615" text-anchor="middle" font-family="sans-serif" font-size="8" fill="#2196f3">突</text>
<rect x="722.0" y="95.24016282225239" width="8" height="8" fill="#ff9800" opacity="0.85" rx="1"/>
<text x="726.0" y="93.24016282225239" text-anchor="middle" font-family="sans-serif" font-size="8" fill="#ff9800">前高</text>
<rect x="758.0" y="88.27951153324298" width="8" height="8" fill="#ff9800" opacity="0.85" rx="1"/>
<text x="762.0" y="86.27951153324298" text-anchor="middle" font-family="sans-serif" font-size="8" fill="#ff9800">前高</text>
<rect x="758.0" y="88.27951153324298" width="8" height="8" fill="#2196f3" opacity="0.85" rx="1"/>
<text x="762.0" y="86.27951153324298" text-anchor="middle" font-family="sans-serif" font-size="8" fill="#2196f3">突</text>
<rect x="770.0" y="26.0" width="8" height="8" fill="#ff9800" opacity="0.85" rx="1"/>
<text x="774.0" y="24.0" text-anchor="middle" font-family="sans-serif" font-size="8" fill="#ff9800">前高</text>
<rect x="770.0" y="16.658073270013475" width="8" height="8" fill="#ff9800" opacity="0.85" rx="1"/>
<text x="774.0" y="14.658073270013475" text-anchor="middle" font-family="sans-serif" font-size="8" fill="#ff9800">量</text>
<rect x="770.0" y="26.0" width="8" height="8" fill="#2196f3" opacity="0.85" rx="1"/>
<text x="774.0" y="24.0" text-anchor="middle" font-family="sans-serif" font-size="8" fill="#2196f3">突</text>
<text x="66.0" y="359" text-anchor="middle" font-family="sans-serif" font-size="8" fill="#666666" transform="rotate(-40,66.0,359)">02/26</text>
<text x="138.0" y="359" text-anchor="middle" font-family="sans-serif" font-size="8" fill="#666666" transform="rotate(-40,138.0,359)">03/06</text>
<text x="210.0" y="359" text-anchor="middle" font-family="sans-serif" font-size="8" fill="#666666" transform="rotate(-40,210.0,359)">03/16</text>
<text x="282.0" y="359" text-anchor="middle" font-family="sans-serif" font-size="8" fill="#666666" transform="rotate(-40,282.0,359)">03/24</text>
<text x="354.0" y="359" text-anchor="middle" font-family="sans-serif" font-size="8" fill="#666666" transform="rotate(-40,354.0,359)">04/01</text>
<text x="426.0" y="359" text-anchor="middle" font-family="sans-serif" font-size="8" fill="#666666" transform="rotate(-40,426.0,359)">04/10</text>
<text x="498.0" y="359" text-anchor="middle" font-family="sans-serif" font-size="8" fill="#666666" transform="rotate(-40,498.0,359)">04/20</text>
<text x="570.0" y="359" text-anchor="middle" font-family="sans-serif" font-size="8" fill="#666666" transform="rotate(-40,570.0,359)">04/28</text>
<text x="642.0" y="359" text-anchor="middle" font-family="sans-serif" font-size="8" fill="#666666" transform="rotate(-40,642.0,359)">05/11</text>
<text x="714.0" y="359" text-anchor="middle" font-family="sans-serif" font-size="8" fill="#666666" transform="rotate(-40,714.0,359)">05/19</text>
<text x="774.0" y="359" text-anchor="middle" font-family="sans-serif" font-size="8" fill="#666666" transform="rotate(-40,774.0,359)">05/26</text>
<text x="400.0" y="396" text-anchor="middle" font-family="sans-serif" font-size="9" fill="#555555">数据截至: 2026-05-26 20:18  |  最新K线: 20260526</text>
<rect x="50" y="373" width="8" height="8" fill="#ffd700" opacity="0.8" rx="1"/>
<text x="61" y="380" font-family="sans-serif" font-size="9" fill="#888888">EMA5</text>
<rect x="150" y="373" width="8" height="8" fill="#ff6b6b" opacity="0.8" rx="1"/>
<text x="161" y="380" font-family="sans-serif" font-size="9" fill="#888888">EMA10</text>
<rect x="250" y="373" width="8" height="8" fill="#4ecdc4" opacity="0.8" rx="1"/>
<text x="261" y="380" font-family="sans-serif" font-size="9" fill="#888888">EMA20</text>
<rect x="350" y="373" width="8" height="8" fill="#2196f3" opacity="0.8" rx="1"/>
<text x="361" y="380" font-family="sans-serif" font-size="9" fill="#888888">突破</text>
<rect x="450" y="373" width="8" height="8" fill="#ff9800" opacity="0.8" rx="1"/>
<text x="461" y="380" font-family="sans-serif" font-size="9" fill="#888888">前高/量</text>
<rect x="550" y="373" width="8" height="8" fill="#4caf50" opacity="0.8" rx="1"/>
<text x="561" y="380" font-family="sans-serif" font-size="9" fill="#888888">前低</text>
</svg>