<svg xmlns="http://www.w3.org/2000/svg" width="800" height="400" viewBox="0 0 800 400">
<rect width="800" height="400" fill="#1a1a2e"/>
<text x="400.0" y="20" text-anchor="middle" font-family="sans-serif" font-size="14" fill="#ffffff" font-weight="bold">东山精密(002384) K线图</text>
<line x1="60" y1="30.0" x2="780" y2="30.0" stroke="#2a2a4e" stroke-width="0.5"/>
<text x="55" y="33.0" text-anchor="end" font-family="sans-serif" font-size="8" fill="#666666">230.00</text>
<line x1="60" y1="84.0" x2="780" y2="84.0" stroke="#2a2a4e" stroke-width="0.5"/>
<text x="55" y="87.0" text-anchor="end" font-family="sans-serif" font-size="8" fill="#666666">199.94</text>
<line x1="60" y1="138.0" x2="780" y2="138.0" stroke="#2a2a4e" stroke-width="0.5"/>
<text x="55" y="141.0" text-anchor="end" font-family="sans-serif" font-size="8" fill="#666666">169.88</text>
<line x1="60" y1="192.0" x2="780" y2="192.0" stroke="#2a2a4e" stroke-width="0.5"/>
<text x="55" y="195.0" text-anchor="end" font-family="sans-serif" font-size="8" fill="#666666">139.82</text>
<line x1="60" y1="246.0" x2="780" y2="246.0" stroke="#2a2a4e" stroke-width="0.5"/>
<text x="55" y="249.0" text-anchor="end" font-family="sans-serif" font-size="8" fill="#666666">109.76</text>
<line x1="60" y1="300.0" x2="780" y2="300.0" stroke="#2a2a4e" stroke-width="0.5"/>
<text x="55" y="303.0" text-anchor="end" font-family="sans-serif" font-size="8" fill="#666666">79.70</text>
<line x1="60" y1="300" x2="780" y2="300" stroke="#2a2a4e" stroke-width="0.5"/>
<line x1="60" y1="345" x2="780" y2="345" stroke="#2a2a4e" stroke-width="0.5"/>
<rect x="61.8" y="311.34296293174793" width="7.199999999999999" height="33.657037068252066" fill="#ff4444" opacity="0.3"/>
<rect x="73.8" y="320.3923234985736" width="7.199999999999999" height="24.607676501426397" fill="#ff4444" opacity="0.3"/>
<rect x="85.8" y="317.4951088508615" width="7.199999999999999" height="27.504891149138473" fill="#ff4444" opacity="0.3"/>
<rect x="97.8" y="308.70577128484507" width="7.199999999999999" height="36.29422871515493" fill="#44aa44" opacity="0.3"/>
<rect x="109.8" y="323.14788161694975" width="7.199999999999999" height="21.852118383050254" fill="#ff4444" opacity="0.3"/>
<rect x="121.8" y="320.80629925533" width="7.199999999999999" height="24.193700744670025" fill="#44aa44" opacity="0.3"/>
<rect x="133.8" y="317.0233222633005" width="7.199999999999999" height="27.976677736699514" fill="#ff4444" opacity="0.3"/>
<rect x="145.8" y="316.9208599174804" width="7.199999999999999" height="28.079140082519586" fill="#ff4444" opacity="0.3"/>
<rect x="157.8" y="316.64435439708336" width="7.199999999999999" height="28.35564560291664" fill="#ff4444" opacity="0.3"/>
<rect x="169.8" y="316.6332099909216" width="7.199999999999999" height="28.366790009078386" fill="#44aa44" opacity="0.3"/>
<rect x="181.8" y="320.41236641625215" width="7.199999999999999" height="24.587633583747845" fill="#ff4444" opacity="0.3"/>
<rect x="193.8" y="312.7730703426787" width="7.199999999999999" height="32.22692965732131" fill="#44aa44" opacity="0.3"/>
<rect x="205.8" y="317.9074115185605" width="7.199999999999999" height="27.09258848143952" fill="#ff4444" opacity="0.3"/>
<rect x="217.8" y="314.80910112842804" width="7.199999999999999" height="30.19089887157196" fill="#44aa44" opacity="0.3"/>
<rect x="229.8" y="302.38493706962225" width="7.199999999999999" height="42.615062930377746" fill="#44aa44" opacity="0.3"/>
<rect x="241.8" y="319.31948098660075" width="7.199999999999999" height="25.68051901339925" fill="#ff4444" opacity="0.3"/>
<rect x="253.8" y="316.16983790191756" width="7.199999999999999" height="28.83016209808244" fill="#44aa44" opacity="0.3"/>
<rect x="265.8" y="319.12659825177457" width="7.199999999999999" height="25.873401748225433" fill="#44aa44" opacity="0.3"/>
<rect x="277.8" y="323.7795293957618" width="7.199999999999999" height="21.220470604238187" fill="#44aa44" opacity="0.3"/>
<rect x="289.8" y="319.78467518725415" width="7.199999999999999" height="25.21532481274585" fill="#44aa44" opacity="0.3"/>
<rect x="301.8" y="324.5931070593616" width="7.199999999999999" height="20.406892940638386" fill="#44aa44" opacity="0.3"/>
<rect x="313.8" y="325.26442713583833" width="7.199999999999999" height="19.735572864161668" fill="#ff4444" opacity="0.3"/>
<rect x="325.8" y="328.88844824886246" width="7.199999999999999" height="16.11155175113754" fill="#ff4444" opacity="0.3"/>
<rect x="337.8" y="327.40819287298626" width="7.199999999999999" height="17.591807127013737" fill="#ff4444" opacity="0.3"/>
<rect x="349.8" y="323.21765927234503" width="7.199999999999999" height="21.78234072765497" fill="#ff4444" opacity="0.3"/>
<rect x="361.8" y="331.25051873315397" width="7.199999999999999" height="13.749481266846033" fill="#44aa44" opacity="0.3"/>
<rect x="373.8" y="325.7013008347625" width="7.199999999999999" height="19.298699165237508" fill="#ff4444" opacity="0.3"/>
<rect x="385.8" y="330.8502428095461" width="7.199999999999999" height="14.149757190453897" fill="#44aa44" opacity="0.3"/>
<rect x="397.8" y="337.78981013321334" width="7.199999999999999" height="7.2101898667866635" fill="#ff4444" opacity="0.3"/>
<rect x="409.8" y="315.92228033045427" width="7.199999999999999" height="29.07771966954573" fill="#ff4444" opacity="0.3"/>
<rect x="421.8" y="300.0" width="7.199999999999999" height="45.0" fill="#ff4444" opacity="0.3"/>
<rect x="433.8" y="311.2786913506584" width="7.199999999999999" height="33.72130864934161" fill="#ff4444" opacity="0.3"/>
<rect x="445.8" y="317.8024958883218" width="7.199999999999999" height="27.1975041116782" fill="#44aa44" opacity="0.3"/>
<rect x="457.8" y="319.7472453691333" width="7.199999999999999" height="25.25275463086672" fill="#ff4444" opacity="0.3"/>
<rect x="469.8" y="319.9577211523205" width="7.199999999999999" height="25.042278847679484" fill="#ff4444" opacity="0.3"/>
<rect x="481.8" y="307.8865816788066" width="7.199999999999999" height="37.11341832119342" fill="#ff4444" opacity="0.3"/>
<rect x="493.8" y="311.33847890405144" width="7.199999999999999" height="33.66152109594856" fill="#44aa44" opacity="0.3"/>
<rect x="505.8" y="315.04991294389947" width="7.199999999999999" height="29.95008705610053" fill="#ff4444" opacity="0.3"/>
<rect x="517.8" y="319.1577241037957" width="7.199999999999999" height="25.842275896204285" fill="#ff4444" opacity="0.3"/>
<rect x="529.8" y="309.8726079338552" width="7.199999999999999" height="35.12739206614481" fill="#44aa44" opacity="0.3"/>
<rect x="541.8" y="308.3718768538566" width="7.199999999999999" height="36.62812314614342" fill="#44aa44" opacity="0.3"/>
<rect x="553.8" y="316.82693439292814" width="7.199999999999999" height="28.173065607071862" fill="#44aa44" opacity="0.3"/>
<rect x="565.8" y="320.4878727484497" width="7.199999999999999" height="24.512127251550282" fill="#44aa44" opacity="0.3"/>
<rect x="577.8" y="316.7971379466119" width="7.199999999999999" height="28.202862053388117" fill="#ff4444" opacity="0.3"/>
<rect x="589.8" y="319.5290188588504" width="7.199999999999999" height="25.470981141149593" fill="#44aa44" opacity="0.3"/>
<rect x="601.8" y="313.3349882775104" width="7.199999999999999" height="31.665011722489623" fill="#ff4444" opacity="0.3"/>
<rect x="613.8" y="318.0918698199902" width="7.199999999999999" height="26.908130180009778" fill="#ff4444" opacity="0.3"/>
<rect x="625.8" y="317.20128224833365" width="7.199999999999999" height="27.798717751666345" fill="#ff4444" opacity="0.3"/>
<rect x="637.8" y="317.2316515002373" width="7.199999999999999" height="27.76834849976268" fill="#ff4444" opacity="0.3"/>
<rect x="649.8" y="316.6140795261545" width="7.199999999999999" height="28.385920473845488" fill="#44aa44" opacity="0.3"/>
<rect x="661.8" y="320.5652527292763" width="7.199999999999999" height="24.434747270723676" fill="#ff4444" opacity="0.3"/>
<rect x="673.8" y="321.3311354018856" width="7.199999999999999" height="23.668864598114396" fill="#44aa44" opacity="0.3"/>
<rect x="685.8" y="313.3391888518186" width="7.199999999999999" height="31.66081114818138" fill="#44aa44" opacity="0.3"/>
<rect x="697.8" y="320.66326147284576" width="7.199999999999999" height="24.33673852715424" fill="#ff4444" opacity="0.3"/>
<rect x="709.8" y="310.825425166629" width="7.199999999999999" height="34.174574833371025" fill="#ff4444" opacity="0.3"/>
<rect x="721.8" y="320.71931445799385" width="7.199999999999999" height="24.280685542006154" fill="#ff4444" opacity="0.3"/>
<rect x="733.8" y="317.0744702319301" width="7.199999999999999" height="27.925529768069907" fill="#44aa44" opacity="0.3"/>
<rect x="745.8" y="318.808782737521" width="7.199999999999999" height="26.191217262478972" fill="#ff4444" opacity="0.3"/>
<rect x="757.8" y="319.1802525941211" width="7.199999999999999" height="25.8197474058789" fill="#ff4444" opacity="0.3"/>
<rect x="769.8" y="323.9742472817141" width="7.199999999999999" height="21.0257527182859" fill="#ff4444" opacity="0.3"/>
<polyline points="66.0,288.88 78.0,289.08 90.0,285.94 102.0,281.54 114.0,278.53 126.0,277.90 138.0,275.84 150.0,272.79 162.0,264.88 174.0,261.56 186.0,256.65 198.0,252.40 210.0,244.73 222.0,245.18 234.0,246.88 246.0,245.41 258.0,241.84 270.0,245.94 282.0,247.30 294.0,247.79 306.0,250.47 318.0,253.23 330.0,253.67 342.0,254.98 354.0,252.44 366.0,252.40 378.0,249.79 390.0,248.98 402.0,241.91 414.0,230.01 426.0,215.11 438.0,203.21 450.0,195.77 462.0,190.93 474.0,185.46 486.0,174.30 498.0,169.91 510.0,159.56 522.0,142.52 534.0,130.96 546.0,122.52 558.0,117.61 570.0,116.01 582.0,114.74 594.0,112.40 606.0,107.76 618.0,93.18 630.0,83.26 642.0,72.51 654.0,64.65 666.0,58.64 678.0,58.14 690.0,64.72 702.0,64.37 714.0,57.66 726.0,52.63 738.0,58.88 750.0,54.91 762.0,48.86 774.0,47.84" fill="none" stroke="#ffd700" stroke-width="0.8" opacity="0.7"/>
<polyline points="66.0,288.88 78.0,288.99 90.0,287.29 102.0,284.64 114.0,282.44 126.0,281.39 138.0,279.63 150.0,277.27 162.0,272.14 174.0,269.01 186.0,264.98 198.0,261.14 210.0,255.37 222.0,253.69 234.0,253.07 246.0,251.14 258.0,248.15 270.0,249.24 282.0,249.38 294.0,249.27 306.0,250.46 318.0,251.97 330.0,252.44 342.0,253.38 354.0,252.29 366.0,252.29 378.0,250.89 390.0,250.24 402.0,246.16 414.0,238.90 426.0,229.15 438.0,220.11 450.0,212.98 462.0,207.21 474.0,201.27 486.0,192.31 498.0,186.64 510.0,177.95 522.0,165.31 534.0,154.87 546.0,145.91 558.0,138.98 570.0,134.22 582.0,130.22 594.0,126.13 606.0,121.10 618.0,110.72 630.0,102.12 642.0,92.83 654.0,84.85 666.0,77.90 678.0,74.12 690.0,74.81 702.0,72.78 714.0,67.59 726.0,63.04 738.0,64.56 750.0,61.36 762.0,56.89 774.0,54.87" fill="none" stroke="#ff6b6b" stroke-width="0.8" opacity="0.7"/>
<polyline points="66.0,288.88 78.0,288.94 90.0,288.05 102.0,286.59 114.0,285.25 126.0,284.43 138.0,283.22 150.0,281.65 162.0,278.54 174.0,276.29 186.0,273.49 198.0,270.67 210.0,266.74 222.0,264.77 234.0,263.39 246.0,261.40 258.0,258.85 270.0,258.41 282.0,257.61 294.0,256.77 306.0,256.68 318.0,256.88 330.0,256.65 342.0,256.74 354.0,255.85 366.0,255.51 378.0,254.47 390.0,253.79 402.0,251.32 414.0,247.02 426.0,241.14 438.0,235.26 450.0,230.09 462.0,225.44 474.0,220.59 486.0,214.05 498.0,209.01 510.0,202.33 522.0,193.39 534.0,185.24 546.0,177.66 558.0,171.01 570.0,165.46 582.0,160.39 594.0,155.37 606.0,149.96 618.0,141.77 630.0,134.31 642.0,126.38 654.0,119.00 666.0,112.11 678.0,106.87 690.0,104.11 702.0,100.26 714.0,94.92 726.0,89.94 738.0,88.17 750.0,84.25 762.0,79.72 774.0,76.49" fill="none" stroke="#4ecdc4" stroke-width="0.8" opacity="0.7"/>
<line x1="66.0" y1="286.0419161676647" x2="66.0" y2="300.0" stroke="#ff4444" stroke-width="0.5" opacity="0.6"/>
<rect x="63.0" y="288.88023952095807" width="6.0" height="11.119760479041929" fill="#ff4444" opacity="0.85"/>
<line x1="78.0" y1="284.5329341317365" x2="78.0" y2="292.27544910179637" stroke="#ff4444" stroke-width="0.5" opacity="0.6"/>
<rect x="75.0" y="289.49101796407183" width="6.0" height="2.6946107784431206" fill="#ff4444" opacity="0.85"/>
<line x1="90.0" y1="278.065868263473" x2="90.0" y2="292.27544910179637" stroke="#ff4444" stroke-width="0.5" opacity="0.6"/>
<rect x="87.0" y="279.6467065868263" width="6.0" height="12.628742514970043" fill="#ff4444" opacity="0.85"/>
<line x1="102.0" y1="265.8862275449102" x2="102.0" y2="276.8263473053892" stroke="#44aa44" stroke-width="0.5" opacity="0.6"/>
<rect x="99.0" y="271.49101796407183" width="6.0" height="1.2395209580838582" fill="#44aa44" opacity="0.85"/>
<line x1="114.0" y1="269.8203592814371" x2="114.0" y2="279.7005988023952" stroke="#ff4444" stroke-width="0.5" opacity="0.6"/>
<rect x="111.0" y="272.5149700598802" width="6.0" height="7.18562874251495" fill="#ff4444" opacity="0.85"/>
<line x1="126.0" y1="267.14371257485027" x2="126.0" y2="277.9041916167664" stroke="#44aa44" stroke-width="0.5" opacity="0.6"/>
<rect x="123.0" y="267.3952095808383" width="6.0" height="9.251497005988028" fill="#44aa44" opacity="0.85"/>
<line x1="138.0" y1="266.22754491017963" x2="138.0" y2="285.14371257485027" stroke="#ff4444" stroke-width="0.5" opacity="0.6"/>
<rect x="135.0" y="271.70658682634735" width="6.0" height="9.682634730538894" fill="#ff4444" opacity="0.85"/>
<line x1="150.0" y1="266.22754491017963" x2="150.0" y2="286.5449101796407" stroke="#ff4444" stroke-width="0.5" opacity="0.6"/>
<rect x="147.0" y="266.69461077844306" width="6.0" height="14.263473053892199" fill="#ff4444" opacity="0.85"/>
<line x1="162.0" y1="249.05389221556882" x2="162.0" y2="261.377245508982" stroke="#ff4444" stroke-width="0.5" opacity="0.6"/>
<rect x="159.0" y="249.05389221556882" width="6.0" height="10.886227544910213" fill="#ff4444" opacity="0.85"/>
<line x1="174.0" y1="242.60479041916165" x2="174.0" y2="256.8682634730539" stroke="#44aa44" stroke-width="0.5" opacity="0.6"/>
<rect x="171.0" y="246.77245508982034" width="6.0" height="8.137724550898213" fill="#44aa44" opacity="0.85"/>
<line x1="186.0" y1="246.8263473053892" x2="186.0" y2="261.377245508982" stroke="#ff4444" stroke-width="0.5" opacity="0.6"/>
<rect x="183.0" y="246.8263473053892" width="6.0" height="5.766467065868284" fill="#ff4444" opacity="0.85"/>
<line x1="198.0" y1="229.43712574850295" x2="198.0" y2="245.37125748502993" stroke="#44aa44" stroke-width="0.5" opacity="0.6"/>
<rect x="195.0" y="243.5928143712575" width="6.0" height="0.5" fill="#44aa44" opacity="0.85"/>
<line x1="210.0" y1="226.7065868263473" x2="210.0" y2="243.77245508982034" stroke="#ff4444" stroke-width="0.5" opacity="0.6"/>
<rect x="207.0" y="229.4011976047904" width="6.0" height="11.299401197604794" fill="#ff4444" opacity="0.85"/>
<line x1="222.0" y1="232.7065868263473" x2="222.0" y2="247.562874251497" stroke="#44aa44" stroke-width="0.5" opacity="0.6"/>
<rect x="219.0" y="232.99401197604791" width="6.0" height="13.095808383233503" fill="#44aa44" opacity="0.85"/>
<line x1="234.0" y1="238.5988023952096" x2="234.0" y2="260.2455089820359" stroke="#44aa44" stroke-width="0.5" opacity="0.6"/>
<rect x="231.0" y="242.1017964071856" width="6.0" height="8.173652694610837" fill="#44aa44" opacity="0.85"/>
<line x1="246.0" y1="238.18562874251495" x2="246.0" y2="256.34730538922156" stroke="#ff4444" stroke-width="0.5" opacity="0.6"/>
<rect x="243.0" y="242.47904191616763" width="6.0" height="13.86826347305393" fill="#ff4444" opacity="0.85"/>
<line x1="258.0" y1="228.4131736526946" x2="258.0" y2="238.32934131736525" stroke="#44aa44" stroke-width="0.5" opacity="0.6"/>
<rect x="255.0" y="232.88622754491018" width="6.0" height="1.7964071856287092" fill="#44aa44" opacity="0.85"/>
<line x1="270.0" y1="238.56287425149696" x2="270.0" y2="254.73053892215566" stroke="#44aa44" stroke-width="0.5" opacity="0.6"/>
<rect x="267.0" y="245.08383233532933" width="6.0" height="9.053892215568851" fill="#44aa44" opacity="0.85"/>
<line x1="282.0" y1="248.5329341317365" x2="282.0" y2="260.40718562874247" stroke="#44aa44" stroke-width="0.5" opacity="0.6"/>
<rect x="279.0" y="248.62275449101796" width="6.0" height="1.4011976047904113" fill="#44aa44" opacity="0.85"/>
<line x1="294.0" y1="236.56886227544908" x2="294.0" y2="249.61077844311376" stroke="#44aa44" stroke-width="0.5" opacity="0.6"/>
<rect x="291.0" y="238.56287425149696" width="6.0" height="10.221556886227575" fill="#44aa44" opacity="0.85"/>
<line x1="306.0" y1="246.79041916167665" x2="306.0" y2="256.7065868263473" stroke="#44aa44" stroke-width="0.5" opacity="0.6"/>
<rect x="303.0" y="250.43712574850298" width="6.0" height="5.3712574850299575" fill="#44aa44" opacity="0.85"/>
<line x1="318.0" y1="256.437125748503" x2="318.0" y2="265.6347305389222" stroke="#ff4444" stroke-width="0.5" opacity="0.6"/>
<rect x="315.0" y="258.7724550898203" width="6.0" height="4.760479041916199" fill="#ff4444" opacity="0.85"/>
<line x1="330.0" y1="251.31736526946108" x2="330.0" y2="262.16766467065867" stroke="#ff4444" stroke-width="0.5" opacity="0.6"/>
<rect x="327.0" y="254.5508982035928" width="6.0" height="7.526946107784454" fill="#ff4444" opacity="0.85"/>
<line x1="342.0" y1="250.95808383233532" x2="342.0" y2="262.50898203592817" stroke="#ff4444" stroke-width="0.5" opacity="0.6"/>
<rect x="339.0" y="257.60479041916165" width="6.0" height="0.7185628742515178" fill="#ff4444" opacity="0.85"/>
<line x1="354.0" y1="246.46706586826346" x2="354.0" y2="255.4131736526946" stroke="#ff4444" stroke-width="0.5" opacity="0.6"/>
<rect x="351.0" y="247.36526946107784" width="6.0" height="2.694610778443092" fill="#ff4444" opacity="0.85"/>
<line x1="366.0" y1="245.92814371257484" x2="366.0" y2="254.91017964071855" stroke="#44aa44" stroke-width="0.5" opacity="0.6"/>
<rect x="363.0" y="250.86826347305387" width="6.0" height="1.4371257485029787" fill="#44aa44" opacity="0.85"/>
<line x1="378.0" y1="236.08383233532933" x2="378.0" y2="249.16167664670655" stroke="#ff4444" stroke-width="0.5" opacity="0.6"/>
<rect x="375.0" y="244.58083832335328" width="6.0" height="3.5209580838323404" fill="#ff4444" opacity="0.85"/>
<line x1="390.0" y1="241.9760479041916" x2="390.0" y2="251.22754491017963" stroke="#44aa44" stroke-width="0.5" opacity="0.6"/>
<rect x="387.0" y="244.562874251497" width="6.0" height="2.784431137724539" fill="#44aa44" opacity="0.85"/>
<line x1="402.0" y1="227.76646706586826" x2="402.0" y2="227.78443113772454" stroke="#ff4444" stroke-width="0.5" opacity="0.6"/>
<rect x="399.0" y="227.76646706586826" width="6.0" height="0.5" fill="#ff4444" opacity="0.85"/>
<line x1="414.0" y1="206.22754491017963" x2="414.0" y2="216.62874251497004" stroke="#ff4444" stroke-width="0.5" opacity="0.6"/>
<rect x="411.0" y="206.22754491017963" width="6.0" height="7.005988023952085" fill="#ff4444" opacity="0.85"/>
<line x1="426.0" y1="182.5329341317365" x2="426.0" y2="205.56287425149696" stroke="#ff4444" stroke-width="0.5" opacity="0.6"/>
<rect x="423.0" y="185.29940119760477" width="6.0" height="20.209580838323348" fill="#ff4444" opacity="0.85"/>
<line x1="438.0" y1="174.28742514970057" x2="438.0" y2="185.19161676646704" stroke="#ff4444" stroke-width="0.5" opacity="0.6"/>
<rect x="435.0" y="179.40718562874247" width="6.0" height="5.784431137724567" fill="#ff4444" opacity="0.85"/>
<line x1="450.0" y1="175.49101796407186" x2="450.0" y2="185.37125748502993" stroke="#44aa44" stroke-width="0.5" opacity="0.6"/>
<rect x="447.0" y="179.10179640718562" width="6.0" height="1.796407185628766" fill="#44aa44" opacity="0.85"/>
<line x1="462.0" y1="171.91616766467067" x2="462.0" y2="185.20958083832335" stroke="#ff4444" stroke-width="0.5" opacity="0.6"/>
<rect x="459.0" y="181.2574850299401" width="6.0" height="0.5" fill="#ff4444" opacity="0.85"/>
<line x1="474.0" y1="174.5209580838323" x2="474.0" y2="184.27544910179637" stroke="#ff4444" stroke-width="0.5" opacity="0.6"/>
<rect x="471.0" y="174.5209580838323" width="6.0" height="7.9580838323353476" fill="#ff4444" opacity="0.85"/>
<line x1="486.0" y1="147.75449101796409" x2="486.0" y2="169.83233532934133" stroke="#ff4444" stroke-width="0.5" opacity="0.6"/>
<rect x="483.0" y="151.9760479041916" width="6.0" height="12.754491017964085" fill="#ff4444" opacity="0.85"/>
<line x1="498.0" y1="141.01796407185628" x2="498.0" y2="163.47305389221557" stroke="#44aa44" stroke-width="0.5" opacity="0.6"/>
<rect x="495.0" y="152.01197604790417" width="6.0" height="9.125748502994014" fill="#44aa44" opacity="0.85"/>
<line x1="510.0" y1="132.9700598802395" x2="510.0" y2="162.91616766467067" stroke="#ff4444" stroke-width="0.5" opacity="0.6"/>
<rect x="507.0" y="138.8622754491018" width="6.0" height="21.93413173652695" fill="#ff4444" opacity="0.85"/>
<line x1="522.0" y1="108.4311377245509" x2="522.0" y2="135.6287425149701" stroke="#ff4444" stroke-width="0.5" opacity="0.6"/>
<rect x="519.0" y="108.4311377245509" width="6.0" height="25.65269461077844" fill="#ff4444" opacity="0.85"/>
<line x1="534.0" y1="94.67065868263472" x2="534.0" y2="112.67065868263474" stroke="#44aa44" stroke-width="0.5" opacity="0.6"/>
<rect x="531.0" y="98.26347305389221" width="6.0" height="9.59281437125749" fill="#44aa44" opacity="0.85"/>
<line x1="546.0" y1="91.07784431137725" x2="546.0" y2="121.59880239520959" stroke="#44aa44" stroke-width="0.5" opacity="0.6"/>
<rect x="543.0" y="95.56886227544909" width="6.0" height="10.059880239520965" fill="#44aa44" opacity="0.85"/>
<line x1="558.0" y1="100.86826347305386" x2="558.0" y2="121.86826347305386" stroke="#44aa44" stroke-width="0.5" opacity="0.6"/>
<rect x="555.0" y="105.44910179640719" width="6.0" height="2.335329341317376" fill="#44aa44" opacity="0.85"/>
<line x1="570.0" y1="101.49700598802397" x2="570.0" y2="118.0059880239521" stroke="#44aa44" stroke-width="0.5" opacity="0.6"/>
<rect x="567.0" y="107.24550898203591" width="6.0" height="5.568862275449106" fill="#44aa44" opacity="0.85"/>
<line x1="582.0" y1="103.437125748503" x2="582.0" y2="125.42514970059881" stroke="#ff4444" stroke-width="0.5" opacity="0.6"/>
<rect x="579.0" y="112.18562874251496" width="6.0" height="6.538922155688596" fill="#ff4444" opacity="0.85"/>
<line x1="594.0" y1="98.35329341317367" x2="594.0" y2="116.53293413173651" stroke="#44aa44" stroke-width="0.5" opacity="0.6"/>
<rect x="591.0" y="102.25149700598801" width="6.0" height="5.479041916167688" fill="#44aa44" opacity="0.85"/>
<line x1="606.0" y1="85.56287425149702" x2="606.0" y2="107.24550898203591" stroke="#ff4444" stroke-width="0.5" opacity="0.6"/>
<rect x="603.0" y="98.47904191616766" width="6.0" height="0.5" fill="#ff4444" opacity="0.85"/>
<line x1="618.0" y1="64.0059880239521" x2="618.0" y2="109.40119760479038" stroke="#ff4444" stroke-width="0.5" opacity="0.6"/>
<rect x="615.0" y="64.0059880239521" width="6.0" height="40.67065868263471" fill="#ff4444" opacity="0.85"/>
<line x1="630.0" y1="59.49700598802393" x2="630.0" y2="73.09580838323355" stroke="#ff4444" stroke-width="0.5" opacity="0.6"/>
<rect x="627.0" y="63.43113772455092" width="6.0" height="2.497005988023929" fill="#ff4444" opacity="0.85"/>
<line x1="642.0" y1="43.2934131736527" x2="642.0" y2="68.67664670658684" stroke="#ff4444" stroke-width="0.5" opacity="0.6"/>
<rect x="639.0" y="51.01796407185627" width="6.0" height="11.317365269461092" fill="#ff4444" opacity="0.85"/>
<line x1="654.0" y1="30.0" x2="654.0" y2="59.62275449101798" stroke="#44aa44" stroke-width="0.5" opacity="0.6"/>
<rect x="651.0" y="41.55089820359282" width="6.0" height="7.383233532934106" fill="#44aa44" opacity="0.85"/>
<line x1="666.0" y1="37.79640718562875" x2="666.0" y2="60.71856287425149" stroke="#ff4444" stroke-width="0.5" opacity="0.6"/>
<rect x="663.0" y="46.61676646706587" width="6.0" height="13.922155688622752" fill="#ff4444" opacity="0.85"/>
<line x1="678.0" y1="37.18562874251497" x2="678.0" y2="59.91017964071857" stroke="#44aa44" stroke-width="0.5" opacity="0.6"/>
<rect x="675.0" y="46.63473053892214" width="6.0" height="10.508982035928184" fill="#44aa44" opacity="0.85"/>
<line x1="690.0" y1="55.814371257485035" x2="690.0" y2="90.86227544910179" stroke="#44aa44" stroke-width="0.5" opacity="0.6"/>
<rect x="687.0" y="60.790419161676624" width="6.0" height="17.08383233532936" fill="#44aa44" opacity="0.85"/>
<line x1="702.0" y1="55.8682634730539" x2="702.0" y2="84.0" stroke="#ff4444" stroke-width="0.5" opacity="0.6"/>
<rect x="699.0" y="63.68263473053892" width="6.0" height="14.191616766467064" fill="#ff4444" opacity="0.85"/>
<line x1="714.0" y1="39.880239520958085" x2="714.0" y2="87.48502994011976" stroke="#ff4444" stroke-width="0.5" opacity="0.6"/>
<rect x="711.0" y="44.22754491017962" width="6.0" height="28.8862275449102" fill="#ff4444" opacity="0.85"/>
<line x1="726.0" y1="37.95808383233534" x2="726.0" y2="55.059880239520936" stroke="#ff4444" stroke-width="0.5" opacity="0.6"/>
<rect x="723.0" y="42.5748502994012" width="6.0" height="5.209580838323362" fill="#ff4444" opacity="0.85"/>
<line x1="738.0" y1="38.982035928143716" x2="738.0" y2="76.41916167664671" stroke="#44aa44" stroke-width="0.5" opacity="0.6"/>
<rect x="735.0" y="42.1616766467066" width="6.0" height="29.209580838323326" fill="#44aa44" opacity="0.85"/>
<line x1="750.0" y1="44.856287425149716" x2="750.0" y2="64.27544910179643" stroke="#ff4444" stroke-width="0.5" opacity="0.6"/>
<rect x="747.0" y="46.97604790419159" width="6.0" height="17.299401197604837" fill="#ff4444" opacity="0.85"/>
<line x1="762.0" y1="33.08982035928143" x2="762.0" y2="51.01796407185627" stroke="#ff4444" stroke-width="0.5" opacity="0.6"/>
<rect x="759.0" y="36.75449101796406" width="6.0" height="5.9820359281437305" fill="#ff4444" opacity="0.85"/>
<line x1="774.0" y1="38.784431137724525" x2="774.0" y2="54.50299401197602" stroke="#ff4444" stroke-width="0.5" opacity="0.6"/>
<rect x="771.0" y="45.80838323353295" width="6.0" height="0.5" fill="#ff4444" opacity="0.85"/>
<rect x="158.0" y="245.05389221556882" width="8" height="8" fill="#ff9800" opacity="0.85" rx="1"/>
<text x="162.0" y="243.05389221556882" text-anchor="middle" font-family="sans-serif" font-size="8" fill="#ff9800">前高</text>
<rect x="170.0" y="238.60479041916165" width="8" height="8" fill="#ff9800" opacity="0.85" rx="1"/>
<text x="174.0" y="236.60479041916165" text-anchor="middle" font-family="sans-serif" font-size="8" fill="#ff9800">前高</text>
<rect x="194.0" y="225.43712574850295" width="8" height="8" fill="#ff9800" opacity="0.85" rx="1"/>
<text x="198.0" y="223.43712574850295" text-anchor="middle" font-family="sans-serif" font-size="8" fill="#ff9800">前高</text>
<rect x="206.0" y="222.7065868263473" width="8" height="8" fill="#ff9800" opacity="0.85" rx="1"/>
<text x="210.0" y="220.7065868263473" text-anchor="middle" font-family="sans-serif" font-size="8" fill="#ff9800">前高</text>
<rect x="206.0" y="222.7065868263473" width="8" height="8" fill="#2196f3" opacity="0.85" rx="1"/>
<text x="210.0" y="220.7065868263473" text-anchor="middle" font-family="sans-serif" font-size="8" fill="#2196f3">突</text>
<rect x="314.0" y="261.6347305389222" width="8" height="8" fill="#4caf50" opacity="0.85" rx="1"/>
<text x="318.0" y="259.6347305389222" text-anchor="middle" font-family="sans-serif" font-size="8" fill="#4caf50">前低</text>
<rect x="398.0" y="223.76646706586826" width="8" height="8" fill="#ff9800" opacity="0.85" rx="1"/>
<text x="402.0" y="221.76646706586826" text-anchor="middle" font-family="sans-serif" font-size="8" fill="#ff9800">前高</text>
<rect x="398.0" y="223.76646706586826" width="8" height="8" fill="#2196f3" opacity="0.85" rx="1"/>
<text x="402.0" y="221.76646706586826" text-anchor="middle" font-family="sans-serif" font-size="8" fill="#2196f3">突</text>
<rect x="410.0" y="202.22754491017963" width="8" height="8" fill="#ff9800" opacity="0.85" rx="1"/>
<text x="414.0" y="200.22754491017963" text-anchor="middle" font-family="sans-serif" font-size="8" fill="#ff9800">前高</text>
<rect x="410.0" y="202.22754491017963" width="8" height="8" fill="#2196f3" opacity="0.85" rx="1"/>
<text x="414.0" y="200.22754491017963" text-anchor="middle" font-family="sans-serif" font-size="8" fill="#2196f3">突</text>
<rect x="422.0" y="178.5329341317365" width="8" height="8" fill="#ff9800" opacity="0.85" rx="1"/>
<text x="426.0" y="176.5329341317365" text-anchor="middle" font-family="sans-serif" font-size="8" fill="#ff9800">前高</text>
<rect x="422.0" y="167.01796407185626" width="8" height="8" fill="#ff9800" opacity="0.85" rx="1"/>
<text x="426.0" y="165.01796407185626" text-anchor="middle" font-family="sans-serif" font-size="8" fill="#ff9800">量</text>
<rect x="422.0" y="178.5329341317365" width="8" height="8" fill="#2196f3" opacity="0.85" rx="1"/>
<text x="426.0" y="176.5329341317365" text-anchor="middle" font-family="sans-serif" font-size="8" fill="#2196f3">突</text>
<rect x="434.0" y="170.28742514970057" width="8" height="8" fill="#ff9800" opacity="0.85" rx="1"/>
<text x="438.0" y="168.28742514970057" text-anchor="middle" font-family="sans-serif" font-size="8" fill="#ff9800">前高</text>
<rect x="458.0" y="167.91616766467067" width="8" height="8" fill="#ff9800" opacity="0.85" rx="1"/>
<text x="462.0" y="165.91616766467067" text-anchor="middle" font-family="sans-serif" font-size="8" fill="#ff9800">前高</text>
<rect x="482.0" y="143.75449101796409" width="8" height="8" fill="#ff9800" opacity="0.85" rx="1"/>
<text x="486.0" y="141.75449101796409" text-anchor="middle" font-family="sans-serif" font-size="8" fill="#ff9800">前高</text>
<rect x="482.0" y="143.75449101796409" width="8" height="8" fill="#2196f3" opacity="0.85" rx="1"/>
<text x="486.0" y="141.75449101796409" text-anchor="middle" font-family="sans-serif" font-size="8" fill="#2196f3">突</text>
<rect x="494.0" y="137.01796407185628" width="8" height="8" fill="#ff9800" opacity="0.85" rx="1"/>
<text x="498.0" y="135.01796407185628" text-anchor="middle" font-family="sans-serif" font-size="8" fill="#ff9800">前高</text>
<rect x="506.0" y="128.9700598802395" width="8" height="8" fill="#ff9800" opacity="0.85" rx="1"/>
<text x="510.0" y="126.97005988023949" text-anchor="middle" font-family="sans-serif" font-size="8" fill="#ff9800">前高</text>
<rect x="506.0" y="128.9700598802395" width="8" height="8" fill="#2196f3" opacity="0.85" rx="1"/>
<text x="510.0" y="126.97005988023949" text-anchor="middle" font-family="sans-serif" font-size="8" fill="#2196f3">突</text>
<rect x="518.0" y="104.4311377245509" width="8" height="8" fill="#ff9800" opacity="0.85" rx="1"/>
<text x="522.0" y="102.4311377245509" text-anchor="middle" font-family="sans-serif" font-size="8" fill="#ff9800">前高</text>
<rect x="518.0" y="104.4311377245509" width="8" height="8" fill="#2196f3" opacity="0.85" rx="1"/>
<text x="522.0" y="102.4311377245509" text-anchor="middle" font-family="sans-serif" font-size="8" fill="#2196f3">突</text>
<rect x="530.0" y="90.67065868263472" width="8" height="8" fill="#ff9800" opacity="0.85" rx="1"/>
<text x="534.0" y="88.67065868263472" text-anchor="middle" font-family="sans-serif" font-size="8" fill="#ff9800">前高</text>
<rect x="542.0" y="87.07784431137725" width="8" height="8" fill="#ff9800" opacity="0.85" rx="1"/>
<text x="546.0" y="85.07784431137725" text-anchor="middle" font-family="sans-serif" font-size="8" fill="#ff9800">前高</text>
<rect x="602.0" y="81.56287425149702" width="8" height="8" fill="#ff9800" opacity="0.85" rx="1"/>
<text x="606.0" y="79.56287425149702" text-anchor="middle" font-family="sans-serif" font-size="8" fill="#ff9800">前高</text>
<rect x="614.0" y="60.0059880239521" width="8" height="8" fill="#ff9800" opacity="0.85" rx="1"/>
<text x="618.0" y="58.0059880239521" text-anchor="middle" font-family="sans-serif" font-size="8" fill="#ff9800">前高</text>
<rect x="614.0" y="60.0059880239521" width="8" height="8" fill="#2196f3" opacity="0.85" rx="1"/>
<text x="618.0" y="58.0059880239521" text-anchor="middle" font-family="sans-serif" font-size="8" fill="#2196f3">突</text>
<rect x="626.0" y="55.49700598802393" width="8" height="8" fill="#ff9800" opacity="0.85" rx="1"/>
<text x="630.0" y="53.49700598802393" text-anchor="middle" font-family="sans-serif" font-size="8" fill="#ff9800">前高</text>
<rect x="626.0" y="55.49700598802393" width="8" height="8" fill="#2196f3" opacity="0.85" rx="1"/>
<text x="630.0" y="53.49700598802393" text-anchor="middle" font-family="sans-serif" font-size="8" fill="#2196f3">突</text>
<rect x="638.0" y="39.2934131736527" width="8" height="8" fill="#ff9800" opacity="0.85" rx="1"/>
<text x="642.0" y="37.2934131736527" text-anchor="middle" font-family="sans-serif" font-size="8" fill="#ff9800">前高</text>
<rect x="650.0" y="26.0" width="8" height="8" fill="#ff9800" opacity="0.85" rx="1"/>
<text x="654.0" y="24.0" text-anchor="middle" font-family="sans-serif" font-size="8" fill="#ff9800">前高</text>
<text x="66.0" y="359" text-anchor="middle" font-family="sans-serif" font-size="8" fill="#666666" transform="rotate(-40,66.0,359)">02/26</text>
<text x="138.0" y="359" text-anchor="middle" font-family="sans-serif" font-size="8" fill="#666666" transform="rotate(-40,138.0,359)">03/06</text>
<text x="210.0" y="359" text-anchor="middle" font-family="sans-serif" font-size="8" fill="#666666" transform="rotate(-40,210.0,359)">03/16</text>
<text x="282.0" y="359" text-anchor="middle" font-family="sans-serif" font-size="8" fill="#666666" transform="rotate(-40,282.0,359)">03/24</text>
<text x="354.0" y="359" text-anchor="middle" font-family="sans-serif" font-size="8" fill="#666666" transform="rotate(-40,354.0,359)">04/01</text>
<text x="426.0" y="359" text-anchor="middle" font-family="sans-serif" font-size="8" fill="#666666" transform="rotate(-40,426.0,359)">04/10</text>
<text x="498.0" y="359" text-anchor="middle" font-family="sans-serif" font-size="8" fill="#666666" transform="rotate(-40,498.0,359)">04/20</text>
<text x="570.0" y="359" text-anchor="middle" font-family="sans-serif" font-size="8" fill="#666666" transform="rotate(-40,570.0,359)">04/28</text>
<text x="642.0" y="359" text-anchor="middle" font-family="sans-serif" font-size="8" fill="#666666" transform="rotate(-40,642.0,359)">05/11</text>
<text x="714.0" y="359" text-anchor="middle" font-family="sans-serif" font-size="8" fill="#666666" transform="rotate(-40,714.0,359)">05/19</text>
<text x="774.0" y="359" text-anchor="middle" font-family="sans-serif" font-size="8" fill="#666666" transform="rotate(-40,774.0,359)">05/26</text>
<text x="400.0" y="396" text-anchor="middle" font-family="sans-serif" font-size="9" fill="#555555">数据截至: 2026-05-26 21:29  |  最新K线: 20260526</text>
<rect x="50" y="373" width="8" height="8" fill="#ffd700" opacity="0.8" rx="1"/>
<text x="61" y="380" font-family="sans-serif" font-size="9" fill="#888888">EMA5</text>
<rect x="150" y="373" width="8" height="8" fill="#ff6b6b" opacity="0.8" rx="1"/>
<text x="161" y="380" font-family="sans-serif" font-size="9" fill="#888888">EMA10</text>
<rect x="250" y="373" width="8" height="8" fill="#4ecdc4" opacity="0.8" rx="1"/>
<text x="261" y="380" font-family="sans-serif" font-size="9" fill="#888888">EMA20</text>
<rect x="350" y="373" width="8" height="8" fill="#2196f3" opacity="0.8" rx="1"/>
<text x="361" y="380" font-family="sans-serif" font-size="9" fill="#888888">突破</text>
<rect x="450" y="373" width="8" height="8" fill="#ff9800" opacity="0.8" rx="1"/>
<text x="461" y="380" font-family="sans-serif" font-size="9" fill="#888888">前高/量</text>
<rect x="550" y="373" width="8" height="8" fill="#4caf50" opacity="0.8" rx="1"/>
<text x="561" y="380" font-family="sans-serif" font-size="9" fill="#888888">前低</text>
</svg>