<svg xmlns="http://www.w3.org/2000/svg" width="750" height="540" viewBox="0 0 750 540">
<rect width="750" height="540" fill="#1a1a2e"/>
<text x="375.0" y="22" text-anchor="middle" font-family="sans-serif" font-size="15" fill="#ffffff" font-weight="bold">蓝特光学(688127) 趋势交易分析图</text>
<text x="60" y="31" font-family="sans-serif" font-size="10" fill="#888888">最新: 90.46</text>
<line x1="60" y1="84.33975933971954" x2="725" y2="84.33975933971954" stroke="#4ecdc4" stroke-width="0.5" stroke-dasharray="4,3" opacity="0.4"/>
<text x="62" y="82.33975933971954" font-family="sans-serif" font-size="7" fill="#4ecdc4" opacity="0.6">买入↑2%</text>
<line x1="60" y1="45.046255974599255" x2="725" y2="45.046255974599255" stroke="#e94560" stroke-width="0.5" stroke-dasharray="4,3" opacity="0.4"/>
<text x="62" y="43.046255974599255" font-family="sans-serif" font-size="7" fill="#e94560" opacity="0.6">警戒↑8%</text>
<rect x="60" y="84.33975933971954" width="3" height="298.66024066028046" fill="#4ecdc4" opacity="0.3" rx="1"/>
<rect x="60" y="45.046255974599255" width="3" height="337.95374402540074" fill="#e94560" opacity="0.3" rx="1"/>
<rect x="60" y="45.046255974599255" width="3" height="39.29350336512028" fill="#ffd700" opacity="0.2" rx="1"/>
<line x1="60" y1="32.0" x2="725" y2="32.0" stroke="#2a2a4e" stroke-width="0.5"/>
<text x="56" y="35.0" text-anchor="end" font-family="sans-serif" font-size="8" fill="#666666">104.6</text>
<line x1="60" y1="127.75000000000004" x2="725" y2="127.75000000000004" stroke="#2a2a4e" stroke-width="0.5"/>
<text x="56" y="130.75000000000006" text-anchor="end" font-family="sans-serif" font-size="8" fill="#666666">90.7</text>
<line x1="60" y1="223.5" x2="725" y2="223.5" stroke="#2a2a4e" stroke-width="0.5"/>
<text x="56" y="226.5" text-anchor="end" font-family="sans-serif" font-size="8" fill="#666666">76.8</text>
<line x1="60" y1="319.25" x2="725" y2="319.25" stroke="#2a2a4e" stroke-width="0.5"/>
<text x="56" y="322.25" text-anchor="end" font-family="sans-serif" font-size="8" fill="#666666">62.9</text>
<line x1="60" y1="415.0" x2="725" y2="415.0" stroke="#2a2a4e" stroke-width="0.5"/>
<text x="56" y="418.0" text-anchor="end" font-family="sans-serif" font-size="8" fill="#666666">49.0</text>
<rect x="61.66250000000001" y="462.65059709869615" width="6.095833333333334" height="12.34940290130386" fill="#ff4444" opacity="0.35"/>
<rect x="72.74583333333334" y="458.3394968051118" width="6.095833333333334" height="16.66050319488818" fill="#ff4444" opacity="0.35"/>
<rect x="83.82916666666668" y="461.0046859079527" width="6.095833333333334" height="13.995314092047318" fill="#ff4444" opacity="0.35"/>
<rect x="94.91250000000001" y="455.9605591054313" width="6.095833333333334" height="19.03944089456869" fill="#44aa44" opacity="0.35"/>
<rect x="105.99583333333335" y="462.11445276746394" width="6.095833333333334" height="12.885547232536052" fill="#44aa44" opacity="0.35"/>
<rect x="117.07916666666668" y="449.5791185994301" width="6.095833333333334" height="25.4208814005699" fill="#ff4444" opacity="0.35"/>
<rect x="128.1625" y="455.96111216647955" width="6.095833333333334" height="19.038887833520423" fill="#ff4444" opacity="0.35"/>
<rect x="139.24583333333334" y="454.4308375787929" width="6.095833333333334" height="20.569162421207146" fill="#ff4444" opacity="0.35"/>
<rect x="150.32916666666668" y="448.03853984975393" width="6.095833333333334" height="26.96146015024609" fill="#ff4444" opacity="0.35"/>
<rect x="161.4125" y="456.74299693463433" width="6.095833333333334" height="18.257003065365687" fill="#44aa44" opacity="0.35"/>
<rect x="172.49583333333334" y="459.6458103790692" width="6.095833333333334" height="15.354189620930834" fill="#ff4444" opacity="0.35"/>
<rect x="183.57916666666668" y="443.26859381745965" width="6.095833333333334" height="31.731406182540365" fill="#44aa44" opacity="0.35"/>
<rect x="194.6625" y="456.68630213280375" width="6.095833333333334" height="18.31369786719627" fill="#44aa44" opacity="0.35"/>
<rect x="205.74583333333334" y="458.15700479233226" width="6.095833333333334" height="16.842995207667734" fill="#44aa44" opacity="0.35"/>
<rect x="216.82916666666668" y="463.3021679906744" width="6.095833333333334" height="11.69783200932562" fill="#ff4444" opacity="0.35"/>
<rect x="227.9125" y="459.7553799326483" width="6.095833333333334" height="15.244620067351695" fill="#ff4444" opacity="0.35"/>
<rect x="238.99583333333334" y="447.5891006821518" width="6.095833333333334" height="27.410899317848198" fill="#ff4444" opacity="0.35"/>
<rect x="250.07916666666668" y="458.72472800276313" width="6.095833333333334" height="16.275271997236853" fill="#44aa44" opacity="0.35"/>
<rect x="261.1625" y="458.95492228650374" width="6.095833333333334" height="16.045077713496244" fill="#ff4444" opacity="0.35"/>
<rect x="272.2458333333334" y="461.0252156549521" width="6.095833333333334" height="13.974784345047924" fill="#44aa44" opacity="0.35"/>
<rect x="283.3291666666667" y="456.98707818841206" width="6.095833333333334" height="18.012921811587947" fill="#44aa44" opacity="0.35"/>
<rect x="294.4125" y="454.80879738364564" width="6.095833333333334" height="20.19120261635437" fill="#ff4444" opacity="0.35"/>
<rect x="305.4958333333334" y="459.3006322856403" width="6.095833333333334" height="15.699367714359727" fill="#ff4444" opacity="0.35"/>
<rect x="316.5791666666667" y="464.61879932648304" width="6.095833333333334" height="10.381200673516968" fill="#44aa44" opacity="0.35"/>
<rect x="327.6625" y="463.52991732147484" width="6.095833333333334" height="11.470082678525172" fill="#44aa44" opacity="0.35"/>
<rect x="338.7458333333334" y="459.9183334772472" width="6.095833333333334" height="15.081666522752784" fill="#ff4444" opacity="0.35"/>
<rect x="349.8291666666667" y="455.151513902081" width="6.095833333333334" height="19.848486097919007" fill="#ff4444" opacity="0.35"/>
<rect x="360.9125" y="459.78469216820656" width="6.095833333333334" height="15.215307831793455" fill="#ff4444" opacity="0.35"/>
<rect x="371.9958333333334" y="456.6488904239703" width="6.095833333333334" height="18.351109576029707" fill="#ff4444" opacity="0.35"/>
<rect x="383.0791666666667" y="457.81715935584145" width="6.095833333333334" height="17.182840644158535" fill="#ff4444" opacity="0.35"/>
<rect x="394.1625" y="460.15505418357657" width="6.095833333333334" height="14.84494581642345" fill="#ff4444" opacity="0.35"/>
<rect x="405.2458333333334" y="463.50983636991623" width="6.095833333333334" height="11.490163630083758" fill="#44aa44" opacity="0.35"/>
<rect x="416.3291666666667" y="461.92291986875057" width="6.095833333333334" height="13.07708013124946" fill="#44aa44" opacity="0.35"/>
<rect x="427.4125" y="461.10951515413177" width="6.095833333333334" height="13.890484845868233" fill="#44aa44" opacity="0.35"/>
<rect x="438.4958333333334" y="458.58822921163977" width="6.095833333333334" height="16.411770788360247" fill="#ff4444" opacity="0.35"/>
<rect x="449.5791666666667" y="464.27838269579485" width="6.095833333333334" height="10.721617304205164" fill="#ff4444" opacity="0.35"/>
<rect x="460.6625" y="463.50976988170277" width="6.095833333333334" height="11.490230118297212" fill="#ff4444" opacity="0.35"/>
<rect x="471.7458333333334" y="462.7522409550125" width="6.095833333333334" height="12.24775904498748" fill="#ff4444" opacity="0.35"/>
<rect x="482.8291666666667" y="460.72158211726105" width="6.095833333333334" height="14.27841788273897" fill="#ff4444" opacity="0.35"/>
<rect x="493.9125" y="455.2634332095674" width="6.095833333333334" height="19.736566790432605" fill="#44aa44" opacity="0.35"/>
<rect x="504.9958333333334" y="463.7806035748208" width="6.095833333333334" height="11.219396425179173" fill="#44aa44" opacity="0.35"/>
<rect x="516.0791666666667" y="466.1395993437527" width="6.095833333333334" height="8.860400656247302" fill="#ff4444" opacity="0.35"/>
<rect x="527.1624999999999" y="467.00587427683274" width="6.095833333333334" height="7.994125723167256" fill="#44aa44" opacity="0.35"/>
<rect x="538.2458333333333" y="462.48139215093687" width="6.095833333333334" height="12.518607849063121" fill="#ff4444" opacity="0.35"/>
<rect x="549.3291666666667" y="452.51165831966154" width="6.095833333333334" height="22.488341680338486" fill="#ff4444" opacity="0.35"/>
<rect x="560.4124999999999" y="455.59917299887746" width="6.095833333333334" height="19.40082700112253" fill="#ff4444" opacity="0.35"/>
<rect x="571.4958333333333" y="460.96402836542615" width="6.095833333333334" height="14.03597163457387" fill="#ff4444" opacity="0.35"/>
<rect x="582.5791666666667" y="456.7706666091011" width="6.095833333333334" height="18.229333390898887" fill="#ff4444" opacity="0.35"/>
<rect x="593.6624999999999" y="453.56396274069596" width="6.095833333333334" height="21.436037259304033" fill="#ff4444" opacity="0.35"/>
<rect x="604.7458333333333" y="459.2349736637596" width="6.095833333333334" height="15.765026336240393" fill="#ff4444" opacity="0.35"/>
<rect x="615.8291666666667" y="458.5646032294275" width="6.095833333333334" height="16.43539677057249" fill="#ff4444" opacity="0.35"/>
<rect x="626.9124999999999" y="456.8283209567395" width="6.095833333333334" height="18.171679043260514" fill="#ff4444" opacity="0.35"/>
<rect x="637.9958333333333" y="456.91713107676367" width="6.095833333333334" height="18.082868923236337" fill="#44aa44" opacity="0.35"/>
<rect x="649.0791666666667" y="458.4686698039893" width="6.095833333333334" height="16.531330196010707" fill="#ff4444" opacity="0.35"/>
<rect x="660.1624999999999" y="459.54436145410585" width="6.095833333333334" height="15.455638545894136" fill="#ff4444" opacity="0.35"/>
<rect x="671.2458333333333" y="461.0636171315085" width="6.095833333333334" height="13.936382868491496" fill="#44aa44" opacity="0.35"/>
<rect x="682.3291666666667" y="456.9469389517313" width="6.095833333333334" height="18.053061048268717" fill="#44aa44" opacity="0.35"/>
<rect x="693.4124999999999" y="457.4221785683447" width="6.095833333333334" height="17.577821431655295" fill="#ff4444" opacity="0.35"/>
<rect x="704.4958333333333" y="440.0" width="6.095833333333334" height="35.0" fill="#44aa44" opacity="0.35"/>
<rect x="715.5791666666667" y="444.9982514463345" width="6.095833333333334" height="30.001748553665486" fill="#44aa44" opacity="0.25" stroke-dasharray="3,2"/>
<polyline points="65.54166666666667,402.39406474820146 76.625,395.64334532374096 87.70833333333334,392.03836930455634 98.79166666666667,391.51790567545964 109.87500000000001,393.007860378364 120.95833333333334,382.17592370548005 132.04166666666666,376.0567908636054 143.125,370.3011699282549 154.20833333333334,348.55401736224184 165.29166666666666,337.1098125340605 176.375,328.010798284098 187.45833333333334,335.0558799112211 198.54166666666666,341.31399188326014 209.625,351.75459171114227 220.70833333333334,355.70701797529387 231.79166666666666,358.1123525111072 242.875,351.65637649421535 253.95833333333334,351.94471862204284 265.0416666666667,347.2690809998271 276.12500000000006,343.69275663777444 287.20833333333337,347.14079459304867 298.2916666666667,349.1869086255816 309.37500000000006,351.5842580285652 320.45833333333337,354.6749969590914 331.5416666666667,354.48524977128875 342.62500000000006,352.7284758667105 353.70833333333337,342.9926050142578 364.7916666666667,336.5249860766515 375.87500000000006,324.383324051101 386.95833333333337,312.3854054825086 398.0416666666667,302.5498626478114 409.12500000000006,298.2660355301956 420.20833333333337,297.08634982588575 431.2916666666667,299.3997128335641 442.37500000000006,291.11437690103315 453.45833333333337,284.85604743042495 464.5416666666667,278.41062634450395 475.62500000000006,272.29971012894987 486.70833333333337,262.04908732817285 497.7916666666667,265.96138195978915 508.87500000000006,271.2560891722335 519.9583333333334,272.46676928028995 531.0416666666666,274.69751045544507 542.125,270.8805345482344 553.2083333333334,255.01813814006994 564.2916666666666,241.02192422767246 575.375,227.351366751302 586.4583333333334,207.675311647151 597.5416666666666,184.5466705945035 608.625,166.0277564155203 619.7083333333334,145.66820451682162 630.7916666666666,124.93114114071078 641.875,114.78029313457456 652.9583333333334,100.91791724559168 664.0416666666666,91.1252541829124 675.125,85.05604475503512 686.2083333333334,87.82950945299706 697.2916666666666,69.86259862813708 708.375,81.55809932523283 719.4583333333334,97.43759379475958" fill="none" stroke="#ffd700" stroke-width="1" opacity="0.7"/>
<polyline points="65.54166666666667,402.39406474820146 76.625,398.7118541530412 87.70833333333334,396.1875929008859 98.79166666666667,395.14929935840956 109.87500000000001,395.30174852673014 120.95833333333334,388.9763488599996 132.04166666666666,384.4021990999735 143.125,379.74542254680625 154.20833333333334,366.16620248924437 165.29166666666666,356.72169346896317 176.375,348.1927982535467 187.45833333333334,348.3661155102596 198.54166666666666,349.35958829518296 209.625,353.5916252173145 220.70833333333334,355.4134879966386 231.79166666666666,356.778857739565 242.875,353.4998698706317 253.95833333333334,353.32196678100735 265.0416666666667,350.52121023089614 276.12500000000006,347.97919162776395 287.20833333333337,349.0805877870063 298.2916666666667,349.8439603149411 309.37500000000006,351.0321415003213 320.45833333333337,352.8183839221073 331.5416666666667,353.05245146275746 342.62500000000006,352.35471993453865 353.70833333333337,347.1122005481412 364.7916666666667,342.8353910305589 375.87500000000006,335.0653199340937 386.95833333333337,326.5788196452264 398.0416666666667,318.6333573421702 409.12500000000006,313.37245260631454 420.20833333333337,309.9823663901239 431.2916666666667,308.89947047354156 442.37500000000006,302.65296766671054 453.45833333333337,297.14140781625565 464.5416666666667,291.3920216992386 475.62500000000006,285.6985409717119 486.70833333333337,277.67114110896773 497.7916666666667,276.9647465842503 508.87500000000006,277.852156950227 519.9583333333334,277.31324286771354 531.0416666666666,277.6488337655394 542.125,275.0302426688618 553.2083333333334,265.623534060658 564.2916666666666,256.06098175924336 575.375,245.86993994821023 586.4583333333334,231.77053294650824 597.5416666666666,214.77396122699918 608.625,199.1768642871 619.7083333333334,182.0445436384317 630.7916666666666,164.11953832026035 641.875,151.45754901154066 652.9583333333334,137.22766109446522 664.0416666666666,125.28443690593585 675.125,115.7631985410894 686.2083333333334,111.69287859705875 697.2916666666666,97.55395103003305 708.375,98.89852370083149 719.4583333333334,104.40726170682814" fill="none" stroke="#ff6b6b" stroke-width="1" opacity="0.7"/>
<polyline points="65.54166666666667,402.39406474820146 76.625,400.46528776978414 87.70833333333334,398.9760620075368 98.79166666666667,398.1666254751301 109.87500000000001,397.9591154093246 120.95833333333334,394.3927282617425 132.04166666666666,391.4808993968009 143.125,388.3674735549679 154.20833333333334,380.43340104784863 165.29166666666666,374.12749646021524 176.375,368.0022843958302 187.45833333333334,366.20645189770045 198.54166666666666,365.02776274814215 209.625,365.75233690231016 220.70833333333334,365.54848295957555 231.79166666666666,365.298439018924 242.875,362.76948525144854 253.95833333333334,361.79347740632943 265.0416666666667,359.5196039157643 276.12500000000006,357.3310804869933 287.20833333333337,357.0173462028603 298.2916666666667,356.66132624931623 309.37500000000006,356.63443392409874 320.45833333333337,357.03653305705546 331.5416666666667,356.75741137502 342.62500000000006,356.03907963049943 353.70833333333337,352.942106647533 364.7916666666667,350.1466439383812 375.87500000000006,345.3802968966306 386.95833333333337,339.9526084631728 398.0416666666667,334.5170054646247 409.12500000000006,330.2485650675141 420.20833333333337,326.8655568151095 431.2916666666667,324.69040272309155 442.37500000000006,319.9145267528896 453.45833333333337,315.38356120396764 464.5416666666667,310.6346300581289 475.62500000000006,305.81970126191106 486.70833333333337,299.69857178235935 497.7916666666667,297.2307050624225 508.87500000000006,295.7654477800129 519.9583333333334,293.77713175300244 531.0416666666666,292.3849280437408 542.125,289.6098475380334 553.2083333333334,283.29399018429126 564.2916666666666,276.60213363368047 575.375,269.30766869700244 586.4583333333334,259.69010038670206 597.5416666666666,248.128127825036 608.625,236.78163260908534 619.7083333333334,224.22615338149856 630.7916666666666,210.81956871549764 641.875,199.73947618281238 652.9583333333334,187.68744659088986 664.0416666666666,176.62577815914364 675.125,166.7488112772519 686.2083333333334,159.76096628407748 697.2916666666666,147.77694825496698 708.375,143.69810563253438 719.4583333333334,142.31700821360852" fill="none" stroke="#4ecdc4" stroke-width="1" opacity="0.7"/>
<line x1="65.54166666666667" y1="394.61007194244604" x2="65.54166666666667" y2="415.0" stroke="#ff4444" stroke-width="0.5" opacity="0.6"/>
<rect x="63.04791666666667" y="402.39406474820146" width="4.987500000000001" height="0.6888489208632791" fill="#ff4444" opacity="0.8" rx="1"/>
<line x1="76.625" y1="380.4197841726618" x2="76.625" y2="406.87158273381294" stroke="#ff4444" stroke-width="0.5" opacity="0.6"/>
<rect x="74.13125" y="382.1419064748201" width="4.987500000000001" height="24.729676258992868" fill="#ff4444" opacity="0.8" rx="1"/>
<line x1="87.70833333333334" y1="378.9732014388489" x2="87.70833333333334" y2="394.1278776978417" stroke="#ff4444" stroke-width="0.5" opacity="0.6"/>
<rect x="85.21458333333334" y="384.828417266187" width="4.987500000000001" height="5.717446043165523" fill="#ff4444" opacity="0.8" rx="1"/>
<line x1="98.79166666666667" y1="372.9113309352518" x2="98.79166666666667" y2="392.40575539568346" stroke="#44aa44" stroke-width="0.5" opacity="0.6"/>
<rect x="96.29791666666667" y="388.47931654676256" width="4.987500000000001" height="1.9976618705035776" fill="#44aa44" opacity="0.8" rx="1"/>
<line x1="109.87500000000001" y1="376.21780575539566" x2="109.87500000000001" y2="400.46528776978414" stroke="#44aa44" stroke-width="0.5" opacity="0.6"/>
<rect x="107.38125000000001" y="394.1278776978417" width="4.987500000000001" height="1.8598920863309445" fill="#44aa44" opacity="0.8" rx="1"/>
<line x1="120.95833333333334" y1="339.019964028777" x2="120.95833333333334" y2="387.23938848920864" stroke="#ff4444" stroke-width="0.5" opacity="0.6"/>
<rect x="118.46458333333334" y="360.5120503597122" width="4.987500000000001" height="23.76528776978421" fill="#ff4444" opacity="0.8" rx="1"/>
<line x1="132.04166666666666" y1="354.17464028776976" x2="132.04166666666666" y2="387.03273381294963" stroke="#ff4444" stroke-width="0.5" opacity="0.6"/>
<rect x="129.54791666666665" y="363.8185251798561" width="4.987500000000001" height="10.057194244604318" fill="#ff4444" opacity="0.8" rx="1"/>
<line x1="143.125" y1="356.2411870503597" x2="143.125" y2="385.1728417266187" stroke="#ff4444" stroke-width="0.5" opacity="0.6"/>
<rect x="140.63125" y="358.7899280575539" width="4.987500000000001" height="21.56097122302168" fill="#ff4444" opacity="0.8" rx="1"/>
<line x1="154.20833333333334" y1="301.13327338129494" x2="154.20833333333334" y2="356.0345323741007" stroke="#ff4444" stroke-width="0.5" opacity="0.6"/>
<rect x="151.71458333333334" y="305.0597122302158" width="4.987500000000001" height="47.94388489208637" fill="#ff4444" opacity="0.8" rx="1"/>
<line x1="165.29166666666666" y1="298.37787769784165" x2="165.29166666666666" y2="317.6656474820143" stroke="#44aa44" stroke-width="0.5" opacity="0.6"/>
<rect x="162.79791666666665" y="311.0526978417266" width="4.987500000000001" height="3.168705035971186" fill="#44aa44" opacity="0.8" rx="1"/>
<line x1="176.375" y1="303.3375899280575" x2="176.375" y2="321.7987410071942" stroke="#ff4444" stroke-width="0.5" opacity="0.6"/>
<rect x="173.88125" y="309.8127697841727" width="4.987500000000001" height="5.71744604316541" fill="#ff4444" opacity="0.8" rx="1"/>
<line x1="187.45833333333334" y1="311.4660071942446" x2="187.45833333333334" y2="349.21492805755395" stroke="#44aa44" stroke-width="0.5" opacity="0.6"/>
<rect x="184.96458333333334" y="314.0147482014388" width="4.987500000000001" height="35.13129496402877" fill="#44aa44" opacity="0.8" rx="1"/>
<line x1="198.54166666666666" y1="347.14838129496405" x2="198.54166666666666" y2="364.3696043165467" stroke="#44aa44" stroke-width="0.5" opacity="0.6"/>
<rect x="196.04791666666665" y="352.93471223021584" width="4.987500000000001" height="0.8955035971222856" fill="#44aa44" opacity="0.8" rx="1"/>
<line x1="209.625" y1="352.4525179856115" x2="209.625" y2="375.5289568345324" stroke="#44aa44" stroke-width="0.5" opacity="0.6"/>
<rect x="207.13125" y="352.4525179856115" width="4.987500000000001" height="20.183273381294953" fill="#44aa44" opacity="0.8" rx="1"/>
<line x1="220.70833333333334" y1="357.2055755395683" x2="220.70833333333334" y2="372.63579136690646" stroke="#ff4444" stroke-width="0.5" opacity="0.6"/>
<rect x="218.21458333333334" y="363.6118705035971" width="4.987500000000001" height="9.023920863309343" fill="#ff4444" opacity="0.8" rx="1"/>
<line x1="231.79166666666666" y1="349.3526978417266" x2="231.79166666666666" y2="369.3293165467626" stroke="#ff4444" stroke-width="0.5" opacity="0.6"/>
<rect x="229.29791666666665" y="362.9230215827338" width="4.987500000000001" height="3.6508992805755724" fill="#ff4444" opacity="0.8" rx="1"/>
<line x1="242.875" y1="324.55413669064745" x2="242.875" y2="355.5523381294964" stroke="#ff4444" stroke-width="0.5" opacity="0.6"/>
<rect x="240.38125" y="338.7444244604316" width="4.987500000000001" height="16.80791366906476" fill="#ff4444" opacity="0.8" rx="1"/>
<line x1="253.95833333333334" y1="339.3643884892086" x2="253.95833333333334" y2="358.2388489208633" stroke="#44aa44" stroke-width="0.5" opacity="0.6"/>
<rect x="251.46458333333334" y="345.0818345323741" width="4.987500000000001" height="7.439568345323721" fill="#44aa44" opacity="0.8" rx="1"/>
<line x1="265.0416666666667" y1="336.81564748201436" x2="265.0416666666667" y2="362.0964028776978" stroke="#ff4444" stroke-width="0.5" opacity="0.6"/>
<rect x="262.5479166666667" y="337.9178057553957" width="4.987500000000001" height="5.855215827338043" fill="#ff4444" opacity="0.8" rx="1"/>
<line x1="276.12500000000006" y1="318.76780575539567" x2="276.12500000000006" y2="341.9131294964029" stroke="#44aa44" stroke-width="0.5" opacity="0.6"/>
<rect x="273.6312500000001" y="332.95809352517983" width="4.987500000000001" height="3.582014388489199" fill="#44aa44" opacity="0.8" rx="1"/>
<line x1="287.20833333333337" y1="337.5044964028777" x2="287.20833333333337" y2="359.3410071942446" stroke="#44aa44" stroke-width="0.5" opacity="0.6"/>
<rect x="284.7145833333334" y="337.9178057553957" width="4.987500000000001" height="16.119064748201424" fill="#44aa44" opacity="0.8" rx="1"/>
<line x1="298.2916666666667" y1="345.9084532374101" x2="298.2916666666667" y2="371.05143884892084" stroke="#ff4444" stroke-width="0.5" opacity="0.6"/>
<rect x="295.7979166666667" y="353.2791366906475" width="4.987500000000001" height="7.646223021582728" fill="#ff4444" opacity="0.8" rx="1"/>
<line x1="309.37500000000006" y1="351.6947841726619" x2="309.37500000000006" y2="373.46241007194243" stroke="#ff4444" stroke-width="0.5" opacity="0.6"/>
<rect x="306.8812500000001" y="356.3789568345324" width="4.987500000000001" height="6.199640287769739" fill="#ff4444" opacity="0.8" rx="1"/>
<line x1="320.45833333333337" y1="352.4525179856115" x2="320.45833333333337" y2="366.8494604316547" stroke="#44aa44" stroke-width="0.5" opacity="0.6"/>
<rect x="317.9645833333334" y="358.3077338129496" width="4.987500000000001" height="2.5487410071942804" fill="#44aa44" opacity="0.8" rx="1"/>
<line x1="331.5416666666667" y1="347.4239208633093" x2="331.5416666666667" y2="359.4787769784173" stroke="#44aa44" stroke-width="0.5" opacity="0.6"/>
<rect x="329.0479166666667" y="350.73039568345325" width="4.987500000000001" height="3.3753597122301926" fill="#44aa44" opacity="0.8" rx="1"/>
<line x1="342.62500000000006" y1="334.8179856115108" x2="342.62500000000006" y2="358.5143884892086" stroke="#ff4444" stroke-width="0.5" opacity="0.6"/>
<rect x="340.1312500000001" y="349.21492805755395" width="4.987500000000001" height="6.750719424460442" fill="#ff4444" opacity="0.8" rx="1"/>
<line x1="353.70833333333337" y1="313.3258992805756" x2="353.70833333333337" y2="345.7706834532374" stroke="#ff4444" stroke-width="0.5" opacity="0.6"/>
<rect x="351.2145833333334" y="323.5208633093525" width="4.987500000000001" height="19.081115107913718" fill="#ff4444" opacity="0.8" rx="1"/>
<line x1="364.7916666666667" y1="298.5156474820144" x2="364.7916666666667" y2="328.6872302158273" stroke="#ff4444" stroke-width="0.5" opacity="0.6"/>
<rect x="362.2979166666667" y="323.58974820143885" width="4.987500000000001" height="1.653237410071938" fill="#ff4444" opacity="0.8" rx="1"/>
<line x1="375.87500000000006" y1="297.96456834532376" x2="375.87500000000006" y2="320.69658273381293" stroke="#ff4444" stroke-width="0.5" opacity="0.6"/>
<rect x="373.3812500000001" y="300.09999999999997" width="4.987500000000001" height="9.988309352518002" fill="#ff4444" opacity="0.8" rx="1"/>
<line x1="386.95833333333337" y1="266.62194244604314" x2="386.95833333333337" y2="306.2307553956834" stroke="#ff4444" stroke-width="0.5" opacity="0.6"/>
<rect x="384.4645833333334" y="288.38956834532377" width="4.987500000000001" height="13.708093525179834" fill="#ff4444" opacity="0.8" rx="1"/>
<line x1="398.0416666666667" y1="275.78363309352505" x2="398.0416666666667" y2="297.4823741007194" stroke="#ff4444" stroke-width="0.5" opacity="0.6"/>
<rect x="395.5479166666667" y="282.8787769784172" width="4.987500000000001" height="7.783992805755474" fill="#ff4444" opacity="0.8" rx="1"/>
<line x1="409.12500000000006" y1="270.96169064748204" x2="409.12500000000006" y2="293.1426258992806" stroke="#44aa44" stroke-width="0.5" opacity="0.6"/>
<rect x="406.6312500000001" y="277.0924460431655" width="4.987500000000001" height="12.605935251798485" fill="#44aa44" opacity="0.8" rx="1"/>
<line x1="420.20833333333337" y1="283.29208633093515" x2="420.20833333333337" y2="295.5535971223021" stroke="#44aa44" stroke-width="0.5" opacity="0.6"/>
<rect x="417.7145833333334" y="286.11636690647475" width="4.987500000000001" height="8.61061151079133" fill="#44aa44" opacity="0.8" rx="1"/>
<line x1="431.2916666666667" y1="287.838489208633" x2="431.2916666666667" y2="307.3329136690648" stroke="#44aa44" stroke-width="0.5" opacity="0.6"/>
<rect x="428.7979166666667" y="294.24478417266187" width="4.987500000000001" height="9.781654676258995" fill="#44aa44" opacity="0.8" rx="1"/>
<line x1="442.37500000000006" y1="272.27050359712234" x2="442.37500000000006" y2="308.2973021582734" stroke="#ff4444" stroke-width="0.5" opacity="0.6"/>
<rect x="439.8812500000001" y="274.54370503597124" width="4.987500000000001" height="33.61582733812946" fill="#ff4444" opacity="0.8" rx="1"/>
<line x1="453.45833333333337" y1="264.83093525179856" x2="453.45833333333337" y2="279.5723021582734" stroke="#ff4444" stroke-width="0.5" opacity="0.6"/>
<rect x="450.9645833333334" y="272.33938848920855" width="4.987500000000001" height="0.6888489208633928" fill="#ff4444" opacity="0.8" rx="1"/>
<line x1="464.5416666666667" y1="260.62895683453235" x2="464.5416666666667" y2="283.3609712230216" stroke="#ff4444" stroke-width="0.5" opacity="0.6"/>
<rect x="462.0479166666667" y="265.51978417266184" width="4.987500000000001" height="3.995323741007155" fill="#ff4444" opacity="0.8" rx="1"/>
<line x1="475.62500000000006" y1="246.92086330935246" x2="475.62500000000006" y2="272.27050359712234" stroke="#ff4444" stroke-width="0.5" opacity="0.6"/>
<rect x="473.1312500000001" y="260.0778776978417" width="4.987500000000001" height="10.057194244604261" fill="#ff4444" opacity="0.8" rx="1"/>
<line x1="486.70833333333337" y1="232.38615107913662" x2="486.70833333333337" y2="266.69082733812945" stroke="#ff4444" stroke-width="0.5" opacity="0.6"/>
<rect x="484.2145833333334" y="241.54784172661863" width="4.987500000000001" height="21.2854316546763" fill="#ff4444" opacity="0.8" rx="1"/>
<line x1="497.7916666666667" y1="236.6570143884892" x2="497.7916666666667" y2="283.22320143884895" stroke="#44aa44" stroke-width="0.5" opacity="0.6"/>
<rect x="495.2979166666667" y="239.06798561151072" width="4.987500000000001" height="34.71798561151081" fill="#44aa44" opacity="0.8" rx="1"/>
<line x1="508.87500000000006" y1="268.7573741007194" x2="508.87500000000006" y2="290.7316546762589" stroke="#44aa44" stroke-width="0.5" opacity="0.6"/>
<rect x="506.3812500000001" y="273.5793165467626" width="4.987500000000001" height="8.26618705035969" fill="#44aa44" opacity="0.8" rx="1"/>
<line x1="519.9583333333334" y1="263.9354316546762" x2="519.9583333333334" y2="281.2255395683453" stroke="#ff4444" stroke-width="0.5" opacity="0.6"/>
<rect x="517.4645833333334" y="274.8881294964028" width="4.987500000000001" height="6.268525179856056" fill="#ff4444" opacity="0.8" rx="1"/>
<line x1="531.0416666666666" y1="269.58399280575543" x2="531.0416666666666" y2="283.9120503597122" stroke="#44aa44" stroke-width="0.5" opacity="0.6"/>
<rect x="528.5479166666667" y="277.0235611510791" width="4.987500000000001" height="2.1354316546762675" fill="#44aa44" opacity="0.8" rx="1"/>
<line x1="542.125" y1="263.24658273381294" x2="542.125" y2="286.66744604316546" stroke="#ff4444" stroke-width="0.5" opacity="0.6"/>
<rect x="539.63125" y="263.24658273381294" width="4.987500000000001" height="14.12140287769779" fill="#ff4444" opacity="0.8" rx="1"/>
<line x1="553.2083333333334" y1="209.65413669064745" x2="553.2083333333334" y2="251.74280575539564" stroke="#ff4444" stroke-width="0.5" opacity="0.6"/>
<rect x="550.7145833333334" y="223.293345323741" width="4.987500000000001" height="28.449460431654643" fill="#ff4444" opacity="0.8" rx="1"/>
<line x1="564.2916666666666" y1="201.38794964028773" x2="564.2916666666666" y2="235.69262589928053" stroke="#ff4444" stroke-width="0.5" opacity="0.6"/>
<rect x="561.7979166666667" y="213.0294964028776" width="4.987500000000001" height="10.263848920863381" fill="#ff4444" opacity="0.8" rx="1"/>
<line x1="575.375" y1="195.87715827338127" x2="575.375" y2="216.54262589928055" stroke="#ff4444" stroke-width="0.5" opacity="0.6"/>
<rect x="572.88125" y="200.01025179856106" width="4.987500000000001" height="7.09514388489211" fill="#ff4444" opacity="0.8" rx="1"/>
<line x1="586.4583333333334" y1="164.87895683453235" x2="586.4583333333334" y2="216.6115107913669" stroke="#ff4444" stroke-width="0.5" opacity="0.6"/>
<rect x="583.9645833333334" y="168.32320143884888" width="4.987500000000001" height="39.19550359712227" fill="#ff4444" opacity="0.8" rx="1"/>
<line x1="597.5416666666666" y1="113.21528776978413" x2="597.5416666666666" y2="159.71258992805753" stroke="#ff4444" stroke-width="0.5" opacity="0.6"/>
<rect x="595.0479166666667" y="138.2893884892086" width="4.987500000000001" height="21.423201438848935" fill="#ff4444" opacity="0.8" rx="1"/>
<line x1="608.625" y1="127.54334532374095" x2="608.625" y2="155.23507194244596" stroke="#ff4444" stroke-width="0.5" opacity="0.6"/>
<rect x="606.13125" y="128.98992805755395" width="4.987500000000001" height="9.161690647482004" fill="#ff4444" opacity="0.8" rx="1"/>
<line x1="619.7083333333334" y1="91.86097122302158" x2="619.7083333333334" y2="153.65071942446042" stroke="#ff4444" stroke-width="0.5" opacity="0.6"/>
<rect x="617.2145833333334" y="104.9491007194244" width="4.987500000000001" height="48.08165467625901" fill="#ff4444" opacity="0.8" rx="1"/>
<line x1="630.7916666666666" y1="67.95791366906474" x2="630.7916666666666" y2="116.52176258992803" stroke="#ff4444" stroke-width="0.5" opacity="0.6"/>
<rect x="628.2979166666667" y="83.45701438848921" width="4.987500000000001" height="21.354316546762547" fill="#ff4444" opacity="0.8" rx="1"/>
<line x1="641.875" y1="64.37589928057547" x2="641.875" y2="111.35539568345321" stroke="#44aa44" stroke-width="0.5" opacity="0.6"/>
<rect x="639.38125" y="86.90125899280577" width="4.987500000000001" height="7.577338129496354" fill="#44aa44" opacity="0.8" rx="1"/>
<line x1="652.9583333333334" y1="51.21888489208628" x2="652.9583333333334" y2="101.91816546762584" stroke="#ff4444" stroke-width="0.5" opacity="0.6"/>
<rect x="650.4645833333334" y="73.19316546762583" width="4.987500000000001" height="28.58723021582739" fill="#ff4444" opacity="0.8" rx="1"/>
<line x1="664.0416666666666" y1="52.87212230215819" x2="664.0416666666666" y2="105.29352517985602" stroke="#ff4444" stroke-width="0.5" opacity="0.6"/>
<rect x="661.5479166666667" y="71.53992805755394" width="4.987500000000001" height="9.16169064748199" fill="#ff4444" opacity="0.8" rx="1"/>
<line x1="675.125" y1="66.92464028776973" x2="675.125" y2="86.90125899280577" stroke="#44aa44" stroke-width="0.5" opacity="0.6"/>
<rect x="672.63125" y="72.57320143884883" width="4.987500000000001" height="0.5" fill="#44aa44" opacity="0.8" rx="1"/>
<line x1="686.2083333333334" y1="43.29712230215818" x2="686.2083333333334" y2="97.92284172661867" stroke="#44aa44" stroke-width="0.5" opacity="0.6"/>
<rect x="683.7145833333334" y="54.52535971223019" width="4.987500000000001" height="38.851079136690664" fill="#44aa44" opacity="0.8" rx="1"/>
<line x1="697.2916666666666" y1="32.0" x2="697.2916666666666" y2="90.27661870503593" stroke="#ff4444" stroke-width="0.5" opacity="0.6"/>
<rect x="694.7979166666667" y="33.928776978417176" width="4.987500000000001" height="45.39514388489212" fill="#ff4444" opacity="0.8" rx="1"/>
<line x1="708.375" y1="34.96205035971218" x2="708.375" y2="124.23687050359705" stroke="#44aa44" stroke-width="0.5" opacity="0.6"/>
<rect x="705.88125" y="34.96205035971218" width="4.987500000000001" height="69.98705035971221" fill="#44aa44" opacity="0.8" rx="1"/>
<line x1="719.4583333333334" y1="98.12949640287766" x2="719.4583333333334" y2="146.07338129496395" stroke="#44aa44" stroke-width="0.5" opacity="0.3" stroke-dasharray="4,3"/>
<rect x="716.9645833333334" y="99.43830935251795" width="4.987500000000001" height="29.758273381295012" fill="#44aa44" opacity="0.4" stroke-dasharray="4,3" rx="1"/>
<text x="739.4583333333334" y="123.19658273381296" font-family="sans-serif" font-size="9" fill="#ffd700" opacity="0.8">🕐 盘中</text>
<line x1="409.12500000000006" y1="293.1426258992806" x2="409.12500000000006" y2="258.1426258992806" stroke="#4ecdc4" stroke-width="0.8" stroke-dasharray="2,2" opacity="0.7"/>
<rect x="373.12500000000006" y="249.14262589928057" width="72" height="16" fill="#4ecdc4" opacity="0.85" rx="3"/>
<text x="409.12500000000006" y="261.1426258992806" text-anchor="middle" font-family="sans-serif" font-size="9" fill="#000000" font-weight="bold">B1乖离买入</text>
<polygon points="409.12500000000006,299.1426258992806 405.12500000000006,293.1426258992806 413.12500000000006,293.1426258992806" fill="#4ecdc4" opacity="0.9"/>
<line x1="497.7916666666667" y1="283.22320143884895" x2="497.7916666666667" y2="233.22320143884895" stroke="#4ecdc4" stroke-width="0.8" stroke-dasharray="2,2" opacity="0.7"/>
<rect x="461.7916666666667" y="224.22320143884895" width="72" height="16" fill="#4ecdc4" opacity="0.85" rx="3"/>
<text x="497.7916666666667" y="236.22320143884895" text-anchor="middle" font-family="sans-serif" font-size="9" fill="#000000" font-weight="bold">B2乖离买入</text>
<polygon points="497.7916666666667,289.22320143884895 493.7916666666667,283.22320143884895 501.7916666666667,283.22320143884895" fill="#4ecdc4" opacity="0.9"/>
<line x1="542.125" y1="286.66744604316546" x2="542.125" y2="221.66744604316546" stroke="#4ecdc4" stroke-width="0.8" stroke-dasharray="2,2" opacity="0.7"/>
<rect x="506.125" y="212.66744604316546" width="72" height="16" fill="#4ecdc4" opacity="0.85" rx="3"/>
<text x="542.125" y="224.66744604316546" text-anchor="middle" font-family="sans-serif" font-size="9" fill="#000000" font-weight="bold">B3乖离买入</text>
<polygon points="542.125,292.66744604316546 538.125,286.66744604316546 546.125,286.66744604316546" fill="#4ecdc4" opacity="0.9"/>
<line x1="675.125" y1="86.90125899280577" x2="675.125" y2="6.901258992805765" stroke="#4ecdc4" stroke-width="0.8" stroke-dasharray="2,2" opacity="0.7"/>
<rect x="639.125" y="-2.098741007194235" width="72" height="16" fill="#4ecdc4" opacity="0.85" rx="3"/>
<text x="675.125" y="9.901258992805765" text-anchor="middle" font-family="sans-serif" font-size="9" fill="#000000" font-weight="bold">B4乖离买入</text>
<polygon points="675.125,92.90125899280577 671.125,86.90125899280577 679.125,86.90125899280577" fill="#4ecdc4" opacity="0.9"/>
<line x1="708.375" y1="124.23687050359705" x2="708.375" y2="29.236870503597046" stroke="#4ecdc4" stroke-width="0.8" stroke-dasharray="2,2" opacity="0.7"/>
<rect x="672.375" y="20.236870503597046" width="72" height="16" fill="#4ecdc4" opacity="0.85" rx="3"/>
<text x="708.375" y="32.236870503597046" text-anchor="middle" font-family="sans-serif" font-size="9" fill="#000000" font-weight="bold">B5乖离买入</text>
<polygon points="708.375,130.23687050359706 704.375,124.23687050359705 712.375,124.23687050359705" fill="#4ecdc4" opacity="0.9"/>
<line x1="154.20833333333334" y1="301.13327338129494" x2="154.20833333333334" y2="320.13327338129494" stroke="#e94560" stroke-width="0.8" stroke-dasharray="2,2" opacity="0.7"/>
<rect x="120.20833333333334" y="327.13327338129494" width="68" height="16" fill="#e94560" opacity="0.85" rx="3"/>
<text x="154.20833333333334" y="339.13327338129494" text-anchor="middle" font-family="sans-serif" font-size="9" fill="#ffffff" font-weight="bold">W1警戒⚠️</text>
<polygon points="154.20833333333334,295.13327338129494 150.20833333333334,301.13327338129494 158.20833333333334,301.13327338129494" fill="#e94560" opacity="0.9"/>
<line x1="597.5416666666666" y1="113.21528776978413" x2="597.5416666666666" y2="147.21528776978414" stroke="#e94560" stroke-width="0.8" stroke-dasharray="2,2" opacity="0.7"/>
<rect x="563.5416666666666" y="154.21528776978414" width="68" height="16" fill="#e94560" opacity="0.85" rx="3"/>
<text x="597.5416666666666" y="166.21528776978414" text-anchor="middle" font-family="sans-serif" font-size="9" fill="#ffffff" font-weight="bold">W2警戒⚠️</text>
<polygon points="597.5416666666666,107.21528776978413 593.5416666666666,113.21528776978413 601.5416666666666,113.21528776978413" fill="#e94560" opacity="0.9"/>
<text x="375.0" y="435" text-anchor="middle" font-family="sans-serif" font-size="10" fill="#aaaaaa">✅ BIAS5=-4.85%，乖离率买入区，可逢低吸纳</text>
<rect x="60" y="443" width="665" height="55" fill="#111122" opacity="0.5" rx="2"/>
<rect x="60" y="443" width="665" height="16.96666666666664" fill="#e94560" opacity="0.18" rx="2"/>
<rect x="60" y="459.96666666666664" width="665" height="9.400000000000034" fill="#ffd700" opacity="0.12"/>
<rect x="60" y="469.3666666666667" width="665" height="30.633333333333326" fill="#4ecdc4" opacity="0.14"/>
<text x="670" y="454.48333333333335" text-anchor="end" font-family="sans-serif" font-size="9" fill="#e94560" font-weight="bold">⚠️ 警戒区</text>
<text x="670" y="467.66666666666663" text-anchor="end" font-family="sans-serif" font-size="9" fill="#ffd700">持有区</text>
<text x="670" y="487.68333333333334" text-anchor="end" font-family="sans-serif" font-size="9" fill="#4ecdc4">买入区</text>
<line x1="60" y1="472.5" x2="725" y2="472.5" stroke="#888888" stroke-width="0.5" stroke-dasharray="3,2" opacity="0.5"/>
<text x="56" y="475.5" text-anchor="end" font-family="sans-serif" font-size="7" fill="#888888">0%</text>
<line x1="60" y1="469.3666666666667" x2="725" y2="469.3666666666667" stroke="#4ecdc4" stroke-width="0.5" stroke-dasharray="3,2" opacity="0.5"/>
<text x="56" y="472.3666666666667" text-anchor="end" font-family="sans-serif" font-size="7" fill="#4ecdc4">2%</text>
<line x1="60" y1="459.96666666666664" x2="725" y2="459.96666666666664" stroke="#e94560" stroke-width="0.5" stroke-dasharray="3,2" opacity="0.5"/>
<text x="56" y="462.96666666666664" text-anchor="end" font-family="sans-serif" font-size="7" fill="#e94560">8%</text>
<text x="60" y="445" font-family="sans-serif" font-size="8" fill="#888888">BIAS5</text>
<polyline points="65.54166666666667,472.5 76.625,466.569782412772 87.70833333333334,469.36486945807576 98.79166666666667,472.04802259887003 109.87500000000001,473.7992613314967 120.95833333333334,463.3308099025703 132.04166666666666,467.4044159230787 143.125,467.77933240249604 154.20833333333334,455.6240102656615 165.29166666666666,463.86396336995335 176.375,465.7809332087094 187.45833333333334,477.7901975443982 198.54166666666666,477.270807721531 209.625,480.6667358004481 220.70833333333334,475.62243386355567 231.79166666666666,474.4118190150234 242.875,467.4513124469362 253.95833333333334,472.7256510378294 265.0416666666667,468.8831721974649 276.12500000000006,469.75775482817113 287.20833333333337,475.1663766801107 298.2916666666667,474.090295929172 309.37500000000006,474.37443229463406 320.45833333333337,474.9353602711246 331.5416666666667,472.35055924215055 342.62500000000006,471.12248582235776 353.70833333333337,465.0475219271663 364.7916666666667,467.6262638410745 375.87500000000006,463.6101225355883 386.95833333333337,463.9549384055235 398.0416666666667,465.64818986322393 409.12500000000006,469.5438793747401 420.20833333333337,471.6880492812892 431.2916666666667,474.100367334048 442.37500000000006,466.87123193034364 453.45833333333337,468.30522916779677 464.5416666666667,468.238582766747 475.62500000000006,468.5111757234538 486.70833333333337,465.94892651284505 497.7916666666667,475.02042174397747 508.87500000000006,475.9485566136227 519.9583333333334,473.29053144701254 531.0416666666666,473.96339828985685 542.125,470.0158608163993 553.2083333333334,462.5058197823973 564.2916666666666,463.92300615031786 575.375,464.34072141646146 586.4583333333334,461.1805864325365 597.5416666666666,459.73635840552697 608.625,462.6030570204933 619.7083333333334,461.9845307617519 630.7916666666666,462.14355739961127 641.875,467.51120866768804 652.9583333333334,465.83210249333314 664.0416666666666,467.8594239142 675.125,469.65006474689363 686.2083333333334,473.8077790684326 697.2916666666666,464.25105259986117 708.375,477.9632490547266 719.4583333333334,480.09755355110696" fill="none" stroke="#4ecdc4" stroke-width="1.5" opacity="0.9"/>
<circle cx="719.4583333333334" cy="480.09755355110696" r="3" fill="#4ecdc4" opacity="1"/>
<text x="724.4583333333334" y="483.09755355110696" font-family="sans-serif" font-size="9" fill="#4ecdc4" font-weight="bold">BIAS5=-4.8%</text>
<text x="65.54166666666667" y="489" text-anchor="middle" font-family="sans-serif" font-size="8" fill="#666666" transform="rotate(-45,65.54166666666667,489)">02/26</text>
<text x="120.95833333333334" y="489" text-anchor="middle" font-family="sans-serif" font-size="8" fill="#666666" transform="rotate(-45,120.95833333333334,489)">03/05</text>
<text x="176.375" y="489" text-anchor="middle" font-family="sans-serif" font-size="8" fill="#666666" transform="rotate(-45,176.375,489)">03/12</text>
<text x="231.79166666666666" y="489" text-anchor="middle" font-family="sans-serif" font-size="8" fill="#666666" transform="rotate(-45,231.79166666666666,489)">03/19</text>
<text x="287.20833333333337" y="489" text-anchor="middle" font-family="sans-serif" font-size="8" fill="#666666" transform="rotate(-45,287.20833333333337,489)">03/26</text>
<text x="342.62500000000006" y="489" text-anchor="middle" font-family="sans-serif" font-size="8" fill="#666666" transform="rotate(-45,342.62500000000006,489)">04/02</text>
<text x="398.0416666666667" y="489" text-anchor="middle" font-family="sans-serif" font-size="8" fill="#666666" transform="rotate(-45,398.0416666666667,489)">04/10</text>
<text x="453.45833333333337" y="489" text-anchor="middle" font-family="sans-serif" font-size="8" fill="#666666" transform="rotate(-45,453.45833333333337,489)">04/17</text>
<text x="508.87500000000006" y="489" text-anchor="middle" font-family="sans-serif" font-size="8" fill="#666666" transform="rotate(-45,508.87500000000006,489)">04/24</text>
<text x="564.2916666666666" y="489" text-anchor="middle" font-family="sans-serif" font-size="8" fill="#666666" transform="rotate(-45,564.2916666666666,489)">05/06</text>
<text x="619.7083333333334" y="489" text-anchor="middle" font-family="sans-serif" font-size="8" fill="#666666" transform="rotate(-45,619.7083333333334,489)">05/13</text>
<text x="675.125" y="489" text-anchor="middle" font-family="sans-serif" font-size="8" fill="#666666" transform="rotate(-45,675.125,489)">05/20</text>
<text x="719.4583333333334" y="489" text-anchor="middle" font-family="sans-serif" font-size="8" fill="#666666" transform="rotate(-45,719.4583333333334,489)">05/26</text>
<rect x="60" y="484" width="8" height="8" fill="#4ecdc4" opacity="0.8" rx="1"/>
<text x="71" y="491" font-family="sans-serif" font-size="9" fill="#888888">买入区(BIAS&lt;2%)</text>
<rect x="230" y="484" width="8" height="8" fill="#ffd700" opacity="0.8" rx="1"/>
<text x="241" y="491" font-family="sans-serif" font-size="9" fill="#888888">持有区(2-8%)</text>
<rect x="400" y="484" width="8" height="8" fill="#e94560" opacity="0.8" rx="1"/>
<text x="411" y="491" font-family="sans-serif" font-size="9" fill="#888888">警戒区(&gt;8%)</text>
<rect x="570" y="484" width="8" height="8" fill="#ffd700" opacity="0.8" rx="1"/>
<text x="581" y="491" font-family="sans-serif" font-size="9" fill="#888888">EMA5</text>
<rect x="60" y="497" width="8" height="8" fill="#ff6b6b" opacity="0.8" rx="1"/>
<text x="71" y="504" font-family="sans-serif" font-size="9" fill="#888888">EMA10</text>
<rect x="230" y="497" width="8" height="8" fill="#4ecdc4" opacity="0.8" rx="1"/>
<text x="241" y="504" font-family="sans-serif" font-size="9" fill="#888888">EMA20</text>
<rect x="400" y="497" width="8" height="8" fill="#4ecdc4" opacity="0.8" rx="1"/>
<text x="411" y="504" font-family="sans-serif" font-size="9" fill="#888888">B乖离买入</text>
<rect x="570" y="497" width="8" height="8" fill="#e94560" opacity="0.8" rx="1"/>
<text x="581" y="504" font-family="sans-serif" font-size="9" fill="#888888">W警戒⚠️</text>
</svg>