<svg xmlns="http://www.w3.org/2000/svg" width="800" height="400" viewBox="0 0 800 400">
<rect width="800" height="400" fill="#1a1a2e"/>
<text x="400.0" y="20" text-anchor="middle" font-family="sans-serif" font-size="14" fill="#ffffff" font-weight="bold">京东方Ａ(000725) K线图</text>
<line x1="60" y1="30.0" x2="780" y2="30.0" stroke="#2a2a4e" stroke-width="0.5"/>
<text x="55" y="33.0" text-anchor="end" font-family="sans-serif" font-size="8" fill="#666666">6.09</text>
<line x1="60" y1="84.00000000000006" x2="780" y2="84.00000000000006" stroke="#2a2a4e" stroke-width="0.5"/>
<text x="55" y="87.00000000000006" text-anchor="end" font-family="sans-serif" font-size="8" fill="#666666">5.64</text>
<line x1="60" y1="138.0" x2="780" y2="138.0" stroke="#2a2a4e" stroke-width="0.5"/>
<text x="55" y="141.0" text-anchor="end" font-family="sans-serif" font-size="8" fill="#666666">5.19</text>
<line x1="60" y1="191.99999999999994" x2="780" y2="191.99999999999994" stroke="#2a2a4e" stroke-width="0.5"/>
<text x="55" y="194.99999999999994" text-anchor="end" font-family="sans-serif" font-size="8" fill="#666666">4.75</text>
<line x1="60" y1="246.0" x2="780" y2="246.0" stroke="#2a2a4e" stroke-width="0.5"/>
<text x="55" y="249.0" text-anchor="end" font-family="sans-serif" font-size="8" fill="#666666">4.30</text>
<line x1="60" y1="300.0" x2="780" y2="300.0" stroke="#2a2a4e" stroke-width="0.5"/>
<text x="55" y="303.0" text-anchor="end" font-family="sans-serif" font-size="8" fill="#666666">3.85</text>
<line x1="60" y1="300" x2="780" y2="300" stroke="#2a2a4e" stroke-width="0.5"/>
<line x1="60" y1="345" x2="780" y2="345" stroke="#2a2a4e" stroke-width="0.5"/>
<rect x="61.8" y="336.7706665574014" width="7.199999999999999" height="8.229333442598602" fill="#ff4444" opacity="0.3"/>
<rect x="73.8" y="337.3286737884731" width="7.199999999999999" height="7.671326211526889" fill="#ff4444" opacity="0.3"/>
<rect x="85.8" y="338.01967713111196" width="7.199999999999999" height="6.980322868888038" fill="#44aa44" opacity="0.3"/>
<rect x="97.8" y="339.9133402312857" width="7.199999999999999" height="5.0866597687142985" fill="#ff4444" opacity="0.3"/>
<rect x="109.8" y="337.211976634667" width="7.199999999999999" height="7.788023365333004" fill="#ff4444" opacity="0.3"/>
<rect x="121.8" y="337.97805160528117" width="7.199999999999999" height="7.021948394718834" fill="#44aa44" opacity="0.3"/>
<rect x="133.8" y="338.69063167769167" width="7.199999999999999" height="6.30936832230833" fill="#ff4444" opacity="0.3"/>
<rect x="145.8" y="340.7169622451897" width="7.199999999999999" height="4.283037754810323" fill="#ff4444" opacity="0.3"/>
<rect x="157.8" y="340.64507674454444" width="7.199999999999999" height="4.35492325545556" fill="#ff4444" opacity="0.3"/>
<rect x="169.8" y="339.35894958412655" width="7.199999999999999" height="5.641050415873451" fill="#ff4444" opacity="0.3"/>
<rect x="181.8" y="341.03992820433376" width="7.199999999999999" height="3.960071795666238" fill="#44aa44" opacity="0.3"/>
<rect x="193.8" y="338.21663834220766" width="7.199999999999999" height="6.783361657792341" fill="#44aa44" opacity="0.3"/>
<rect x="205.8" y="341.14942288374067" width="7.199999999999999" height="3.8505771162593305" fill="#44aa44" opacity="0.3"/>
<rect x="217.8" y="341.2189292695703" width="7.199999999999999" height="3.7810707304296898" fill="#44aa44" opacity="0.3"/>
<rect x="229.8" y="341.1045737995726" width="7.199999999999999" height="3.89542620042738" fill="#44aa44" opacity="0.3"/>
<rect x="241.8" y="341.37449852431996" width="7.199999999999999" height="3.625501475680039" fill="#44aa44" opacity="0.3"/>
<rect x="253.8" y="338.15822051794134" width="7.199999999999999" height="6.841779482058655" fill="#44aa44" opacity="0.3"/>
<rect x="265.8" y="340.62790639293655" width="7.199999999999999" height="4.372093607063448" fill="#ff4444" opacity="0.3"/>
<rect x="277.8" y="341.71130646991463" width="7.199999999999999" height="3.288693530085368" fill="#44aa44" opacity="0.3"/>
<rect x="289.8" y="342.04821847370926" width="7.199999999999999" height="2.9517815262907448" fill="#44aa44" opacity="0.3"/>
<rect x="301.8" y="342.330192988284" width="7.199999999999999" height="2.6698070117159887" fill="#ff4444" opacity="0.3"/>
<rect x="313.8" y="342.3295798683866" width="7.199999999999999" height="2.6704201316134117" fill="#ff4444" opacity="0.3"/>
<rect x="325.8" y="342.08575803079765" width="7.199999999999999" height="2.914241969202351" fill="#44aa44" opacity="0.3"/>
<rect x="337.8" y="340.6344935015779" width="7.199999999999999" height="4.365506498422121" fill="#ff4444" opacity="0.3"/>
<rect x="349.8" y="342.07742813446254" width="7.199999999999999" height="2.9225718655374635" fill="#44aa44" opacity="0.3"/>
<rect x="361.8" y="342.9259374121619" width="7.199999999999999" height="2.074062587838114" fill="#44aa44" opacity="0.3"/>
<rect x="373.8" y="342.40580961172367" width="7.199999999999999" height="2.5941903882763313" fill="#44aa44" opacity="0.3"/>
<rect x="385.8" y="340.66481261738363" width="7.199999999999999" height="4.335187382616368" fill="#ff4444" opacity="0.3"/>
<rect x="397.8" y="341.86889175871033" width="7.199999999999999" height="3.1311082412896667" fill="#ff4444" opacity="0.3"/>
<rect x="409.8" y="341.53935516056805" width="7.199999999999999" height="3.46064483943195" fill="#44aa44" opacity="0.3"/>
<rect x="421.8" y="341.9707565016162" width="7.199999999999999" height="3.029243498383778" fill="#ff4444" opacity="0.3"/>
<rect x="433.8" y="341.6859027939702" width="7.199999999999999" height="3.314097206029828" fill="#44aa44" opacity="0.3"/>
<rect x="445.8" y="340.9956855024818" width="7.199999999999999" height="4.00431449751818" fill="#44aa44" opacity="0.3"/>
<rect x="457.8" y="341.89001931639604" width="7.199999999999999" height="3.1099806836039647" fill="#ff4444" opacity="0.3"/>
<rect x="469.8" y="342.6802687286793" width="7.199999999999999" height="2.319731271320677" fill="#ff4444" opacity="0.3"/>
<rect x="481.8" y="336.08798113317533" width="7.199999999999999" height="8.912018866824667" fill="#ff4444" opacity="0.3"/>
<rect x="493.8" y="336.50464139498075" width="7.199999999999999" height="8.495358605019248" fill="#ff4444" opacity="0.3"/>
<rect x="505.8" y="339.8997393005213" width="7.199999999999999" height="5.100260699478724" fill="#ff4444" opacity="0.3"/>
<rect x="517.8" y="339.8233650734965" width="7.199999999999999" height="5.176634926503482" fill="#44aa44" opacity="0.3"/>
<rect x="529.8" y="341.5556002176788" width="7.199999999999999" height="3.444399782321227" fill="#44aa44" opacity="0.3"/>
<rect x="541.8" y="341.38860701954155" width="7.199999999999999" height="3.6113929804584473" fill="#ff4444" opacity="0.3"/>
<rect x="553.8" y="342.0396669858118" width="7.199999999999999" height="2.9603330141882225" fill="#44aa44" opacity="0.3"/>
<rect x="565.8" y="341.9006444820906" width="7.199999999999999" height="3.0993555179093732" fill="#ff4444" opacity="0.3"/>
<rect x="577.8" y="339.41974876906886" width="7.199999999999999" height="5.58025123093114" fill="#44aa44" opacity="0.3"/>
<rect x="589.8" y="338.80113774291226" width="7.199999999999999" height="6.19886225708774" fill="#ff4444" opacity="0.3"/>
<rect x="601.8" y="340.0213578831498" width="7.199999999999999" height="4.97864211685021" fill="#ff4444" opacity="0.3"/>
<rect x="613.8" y="340.224510182831" width="7.199999999999999" height="4.775489817168989" fill="#44aa44" opacity="0.3"/>
<rect x="625.8" y="340.4327890332539" width="7.199999999999999" height="4.5672109667460745" fill="#ff4444" opacity="0.3"/>
<rect x="637.8" y="340.36962495727875" width="7.199999999999999" height="4.630375042721255" fill="#44aa44" opacity="0.3"/>
<rect x="649.8" y="340.22215202937946" width="7.199999999999999" height="4.777847970620542" fill="#ff4444" opacity="0.3"/>
<rect x="661.8" y="338.44124834105776" width="7.199999999999999" height="6.558751658942242" fill="#44aa44" opacity="0.3"/>
<rect x="673.8" y="338.8493780763297" width="7.199999999999999" height="6.150621923670315" fill="#44aa44" opacity="0.3"/>
<rect x="685.8" y="338.7118999759643" width="7.199999999999999" height="6.288100024035714" fill="#ff4444" opacity="0.3"/>
<rect x="697.8" y="338.41135519011357" width="7.199999999999999" height="6.588644809886432" fill="#ff4444" opacity="0.3"/>
<rect x="709.8" y="340.71954947640506" width="7.199999999999999" height="4.280450523594936" fill="#44aa44" opacity="0.3"/>
<rect x="721.8" y="337.24422045286127" width="7.199999999999999" height="7.755779547138729" fill="#ff4444" opacity="0.3"/>
<rect x="733.8" y="300.0" width="7.199999999999999" height="45.0" fill="#ff4444" opacity="0.3"/>
<rect x="745.8" y="312.74288930643036" width="7.199999999999999" height="32.25711069356964" fill="#ff4444" opacity="0.3"/>
<rect x="757.8" y="306.5379572372203" width="7.199999999999999" height="38.462042762779674" fill="#ff4444" opacity="0.3"/>
<rect x="769.8" y="307.43033640394026" width="7.199999999999999" height="37.56966359605974" fill="#44aa44" opacity="0.3"/>
<polyline points="66.0,224.06 78.0,223.66 90.0,230.22 102.0,234.60 114.0,231.89 126.0,233.70 138.0,237.32 150.0,238.12 162.0,237.05 174.0,235.13 186.0,236.26 198.0,242.24 210.0,248.24 222.0,251.43 234.0,257.98 246.0,262.74 258.0,274.36 270.0,276.88 282.0,278.96 294.0,282.36 306.0,284.22 318.0,285.86 330.0,288.17 342.0,285.68 354.0,286.44 366.0,287.74 378.0,289.42 390.0,285.71 402.0,284.05 414.0,281.73 426.0,280.59 438.0,280.23 450.0,280.79 462.0,279.96 474.0,279.81 486.0,272.88 498.0,267.05 510.0,261.16 522.0,260.45 534.0,262.38 546.0,260.46 558.0,261.58 570.0,261.53 582.0,265.11 594.0,263.48 606.0,261.19 618.0,261.27 630.0,260.52 642.0,260.82 654.0,258.61 666.0,257.54 678.0,260.04 690.0,258.90 702.0,254.12 714.0,252.94 726.0,234.88 738.0,203.95 750.0,178.91 762.0,142.13 774.0,119.62" fill="none" stroke="#ffd700" stroke-width="0.8" opacity="0.7"/>
<polyline points="66.0,224.06 78.0,223.84 90.0,227.39 102.0,230.29 114.0,229.60 126.0,231.00 138.0,233.47 150.0,234.60 162.0,234.66 174.0,234.05 186.0,234.86 198.0,238.38 210.0,242.35 222.0,245.16 234.0,249.87 246.0,253.95 258.0,261.88 270.0,265.52 282.0,268.72 294.0,272.44 306.0,275.26 318.0,277.78 330.0,280.51 342.0,280.55 354.0,281.89 366.0,283.43 378.0,285.13 390.0,283.89 402.0,283.31 414.0,282.18 426.0,281.48 438.0,281.12 450.0,281.26 462.0,280.73 474.0,280.50 486.0,276.60 498.0,272.74 510.0,268.50 522.0,266.77 534.0,266.68 546.0,264.85 558.0,264.66 570.0,264.08 582.0,265.57 594.0,264.59 606.0,263.14 618.0,262.83 630.0,262.14 642.0,262.01 654.0,260.59 666.0,259.65 678.0,260.63 690.0,259.90 702.0,257.11 714.0,255.92 726.0,245.53 738.0,226.72 750.0,208.92 762.0,183.41 774.0,163.62" fill="none" stroke="#ff6b6b" stroke-width="0.8" opacity="0.7"/>
<polyline points="66.0,224.06 78.0,223.95 90.0,225.80 102.0,227.47 114.0,227.37 126.0,228.32 138.0,229.87 150.0,230.81 162.0,231.20 174.0,231.21 186.0,231.90 198.0,234.03 210.0,236.52 222.0,238.55 234.0,241.65 246.0,244.56 258.0,249.61 270.0,252.69 282.0,255.59 294.0,258.79 306.0,261.56 318.0,264.19 330.0,266.91 342.0,268.23 354.0,270.10 366.0,272.03 378.0,274.01 390.0,274.42 402.0,275.02 414.0,275.22 426.0,275.51 438.0,275.89 450.0,276.46 462.0,276.64 474.0,276.91 486.0,275.21 498.0,273.32 510.0,271.04 522.0,269.90 534.0,269.55 546.0,268.32 558.0,267.89 570.0,267.27 582.0,267.75 594.0,267.03 606.0,266.04 618.0,265.60 630.0,264.97 642.0,264.64 654.0,263.64 666.0,262.86 678.0,263.07 690.0,262.45 702.0,260.75 714.0,259.78 726.0,253.97 738.0,243.31 750.0,232.41 762.0,216.81 774.0,203.26" fill="none" stroke="#4ecdc4" stroke-width="0.8" opacity="0.7"/>
<line x1="66.0" y1="222.85714285714283" x2="66.0" y2="243.34821428571425" stroke="#ff4444" stroke-width="0.5" opacity="0.6"/>
<rect x="63.0" y="224.06249999999994" width="6.0" height="18.080357142857196" fill="#ff4444" opacity="0.85"/>
<line x1="78.0" y1="210.80357142857144" x2="78.0" y2="230.08928571428575" stroke="#ff4444" stroke-width="0.5" opacity="0.6"/>
<rect x="75.0" y="222.85714285714283" width="6.0" height="6.026785714285694" fill="#ff4444" opacity="0.85"/>
<line x1="90.0" y1="218.03571428571425" x2="90.0" y2="244.55357142857147" stroke="#44aa44" stroke-width="0.5" opacity="0.6"/>
<rect x="87.0" y="220.4464285714286" width="6.0" height="22.901785714285637" fill="#44aa44" opacity="0.85"/>
<line x1="102.0" y1="236.11607142857144" x2="102.0" y2="250.58035714285717" stroke="#ff4444" stroke-width="0.5" opacity="0.6"/>
<rect x="99.0" y="243.34821428571425" width="6.0" height="3.6160714285714732" fill="#ff4444" opacity="0.85"/>
<line x1="114.0" y1="218.03571428571425" x2="114.0" y2="236.11607142857144" stroke="#ff4444" stroke-width="0.5" opacity="0.6"/>
<rect x="111.0" y="226.4732142857143" width="6.0" height="9.642857142857139" fill="#ff4444" opacity="0.85"/>
<line x1="126.0" y1="230.08928571428575" x2="126.0" y2="244.55357142857147" stroke="#44aa44" stroke-width="0.5" opacity="0.6"/>
<rect x="123.0" y="231.29464285714286" width="6.0" height="6.026785714285694" fill="#44aa44" opacity="0.85"/>
<line x1="138.0" y1="242.14285714285714" x2="138.0" y2="255.40178571428575" stroke="#ff4444" stroke-width="0.5" opacity="0.6"/>
<rect x="135.0" y="244.55357142857147" width="6.0" height="0.5" fill="#ff4444" opacity="0.85"/>
<line x1="150.0" y1="234.91071428571433" x2="150.0" y2="242.14285714285714" stroke="#ff4444" stroke-width="0.5" opacity="0.6"/>
<rect x="147.0" y="239.7321428571429" width="6.0" height="0.5" fill="#ff4444" opacity="0.85"/>
<line x1="162.0" y1="233.7053571428571" x2="162.0" y2="242.14285714285714" stroke="#ff4444" stroke-width="0.5" opacity="0.6"/>
<rect x="159.0" y="234.91071428571433" width="6.0" height="6.026785714285694" fill="#ff4444" opacity="0.85"/>
<line x1="174.0" y1="225.26785714285717" x2="174.0" y2="236.11607142857144" stroke="#ff4444" stroke-width="0.5" opacity="0.6"/>
<rect x="171.0" y="231.29464285714286" width="6.0" height="2.410714285714249" fill="#ff4444" opacity="0.85"/>
<line x1="186.0" y1="227.67857142857142" x2="186.0" y2="239.7321428571429" stroke="#44aa44" stroke-width="0.5" opacity="0.6"/>
<rect x="183.0" y="233.7053571428571" width="6.0" height="4.821428571428584" fill="#44aa44" opacity="0.85"/>
<line x1="198.0" y1="240.93750000000003" x2="198.0" y2="257.8125" stroke="#44aa44" stroke-width="0.5" opacity="0.6"/>
<rect x="195.0" y="240.93750000000003" width="6.0" height="13.258928571428498" fill="#44aa44" opacity="0.85"/>
<line x1="210.0" y1="249.37500000000006" x2="210.0" y2="260.22321428571433" stroke="#44aa44" stroke-width="0.5" opacity="0.6"/>
<rect x="207.0" y="251.78571428571428" width="6.0" height="8.437500000000057" fill="#44aa44" opacity="0.85"/>
<line x1="222.0" y1="254.19642857142853" x2="222.0" y2="263.83928571428567" stroke="#44aa44" stroke-width="0.5" opacity="0.6"/>
<rect x="219.0" y="254.19642857142853" width="6.0" height="3.6160714285714732" fill="#44aa44" opacity="0.85"/>
<line x1="234.0" y1="262.63392857142856" x2="234.0" y2="272.2767857142857" stroke="#44aa44" stroke-width="0.5" opacity="0.6"/>
<rect x="231.0" y="263.83928571428567" width="6.0" height="7.23214285714289" fill="#44aa44" opacity="0.85"/>
<line x1="246.0" y1="263.83928571428567" x2="246.0" y2="273.48214285714283" stroke="#44aa44" stroke-width="0.5" opacity="0.6"/>
<rect x="243.0" y="268.6607142857142" width="6.0" height="3.6160714285715017" fill="#44aa44" opacity="0.85"/>
<line x1="258.0" y1="279.50892857142867" x2="258.0" y2="300.0" stroke="#44aa44" stroke-width="0.5" opacity="0.6"/>
<rect x="255.0" y="280.7142857142858" width="6.0" height="16.874999999999943" fill="#44aa44" opacity="0.85"/>
<line x1="270.0" y1="281.9196428571429" x2="270.0" y2="293.97321428571433" stroke="#ff4444" stroke-width="0.5" opacity="0.6"/>
<rect x="267.0" y="281.9196428571429" width="6.0" height="9.642857142857167" fill="#ff4444" opacity="0.85"/>
<line x1="282.0" y1="277.0982142857143" x2="282.0" y2="284.33035714285717" stroke="#44aa44" stroke-width="0.5" opacity="0.6"/>
<rect x="279.0" y="278.30357142857144" width="6.0" height="4.821428571428555" fill="#44aa44" opacity="0.85"/>
<line x1="294.0" y1="280.7142857142858" x2="294.0" y2="290.3571428571429" stroke="#44aa44" stroke-width="0.5" opacity="0.6"/>
<rect x="291.0" y="283.125" width="6.0" height="6.026785714285722" fill="#44aa44" opacity="0.85"/>
<line x1="306.0" y1="285.5357142857143" x2="306.0" y2="293.97321428571433" stroke="#ff4444" stroke-width="0.5" opacity="0.6"/>
<rect x="303.0" y="287.94642857142856" width="6.0" height="4.821428571428555" fill="#ff4444" opacity="0.85"/>
<line x1="318.0" y1="287.94642857142856" x2="318.0" y2="295.1785714285714" stroke="#ff4444" stroke-width="0.5" opacity="0.6"/>
<rect x="315.0" y="289.1517857142857" width="6.0" height="3.616071428571388" fill="#ff4444" opacity="0.85"/>
<line x1="330.0" y1="285.5357142857143" x2="330.0" y2="293.97321428571433" stroke="#44aa44" stroke-width="0.5" opacity="0.6"/>
<rect x="327.0" y="290.3571428571429" width="6.0" height="2.4107142857142208" fill="#44aa44" opacity="0.85"/>
<line x1="342.0" y1="274.68750000000006" x2="342.0" y2="285.5357142857143" stroke="#ff4444" stroke-width="0.5" opacity="0.6"/>
<rect x="339.0" y="280.7142857142858" width="6.0" height="0.5" fill="#ff4444" opacity="0.85"/>
<line x1="354.0" y1="280.7142857142858" x2="354.0" y2="290.3571428571429" stroke="#44aa44" stroke-width="0.5" opacity="0.6"/>
<rect x="351.0" y="280.7142857142858" width="6.0" height="7.232142857142776" fill="#44aa44" opacity="0.85"/>
<line x1="366.0" y1="285.5357142857143" x2="366.0" y2="291.56250000000006" stroke="#44aa44" stroke-width="0.5" opacity="0.6"/>
<rect x="363.0" y="286.74107142857144" width="6.0" height="3.616071428571445" fill="#44aa44" opacity="0.85"/>
<line x1="378.0" y1="287.94642857142856" x2="378.0" y2="295.1785714285714" stroke="#44aa44" stroke-width="0.5" opacity="0.6"/>
<rect x="375.0" y="287.94642857142856" width="6.0" height="4.821428571428555" fill="#44aa44" opacity="0.85"/>
<line x1="390.0" y1="277.0982142857143" x2="390.0" y2="287.94642857142856" stroke="#ff4444" stroke-width="0.5" opacity="0.6"/>
<rect x="387.0" y="278.30357142857144" width="6.0" height="6.026785714285722" fill="#ff4444" opacity="0.85"/>
<line x1="402.0" y1="278.30357142857144" x2="402.0" y2="285.5357142857143" stroke="#ff4444" stroke-width="0.5" opacity="0.6"/>
<rect x="399.0" y="280.7142857142858" width="6.0" height="2.4107142857142208" fill="#ff4444" opacity="0.85"/>
<line x1="414.0" y1="272.2767857142857" x2="414.0" y2="278.30357142857144" stroke="#44aa44" stroke-width="0.5" opacity="0.6"/>
<rect x="411.0" y="275.89285714285717" width="6.0" height="1.2053571428571104" fill="#44aa44" opacity="0.85"/>
<line x1="426.0" y1="277.0982142857143" x2="426.0" y2="283.125" stroke="#ff4444" stroke-width="0.5" opacity="0.6"/>
<rect x="423.0" y="278.30357142857144" width="6.0" height="2.4107142857143344" fill="#ff4444" opacity="0.85"/>
<line x1="438.0" y1="272.2767857142857" x2="438.0" y2="283.125" stroke="#44aa44" stroke-width="0.5" opacity="0.6"/>
<rect x="435.0" y="275.89285714285717" width="6.0" height="3.6160714285715017" fill="#44aa44" opacity="0.85"/>
<line x1="450.0" y1="274.68750000000006" x2="450.0" y2="281.9196428571429" stroke="#44aa44" stroke-width="0.5" opacity="0.6"/>
<rect x="447.0" y="277.0982142857143" width="6.0" height="4.821428571428612" fill="#44aa44" opacity="0.85"/>
<line x1="462.0" y1="277.0982142857143" x2="462.0" y2="284.33035714285717" stroke="#ff4444" stroke-width="0.5" opacity="0.6"/>
<rect x="459.0" y="278.30357142857144" width="6.0" height="2.4107142857143344" fill="#ff4444" opacity="0.85"/>
<line x1="474.0" y1="277.0982142857143" x2="474.0" y2="281.9196428571429" stroke="#ff4444" stroke-width="0.5" opacity="0.6"/>
<rect x="471.0" y="279.50892857142867" width="6.0" height="1.2053571428571104" fill="#ff4444" opacity="0.85"/>
<line x1="486.0" y1="252.99107142857142" x2="486.0" y2="275.89285714285717" stroke="#ff4444" stroke-width="0.5" opacity="0.6"/>
<rect x="483.0" y="259.0178571428571" width="6.0" height="15.669642857142946" fill="#ff4444" opacity="0.85"/>
<line x1="498.0" y1="240.93750000000003" x2="498.0" y2="265.0446428571429" stroke="#ff4444" stroke-width="0.5" opacity="0.6"/>
<rect x="495.0" y="255.40178571428575" width="6.0" height="3.6160714285713595" fill="#ff4444" opacity="0.85"/>
<line x1="510.0" y1="248.16964285714283" x2="510.0" y2="257.8125" stroke="#ff4444" stroke-width="0.5" opacity="0.6"/>
<rect x="507.0" y="249.37500000000006" width="6.0" height="8.437499999999943" fill="#ff4444" opacity="0.85"/>
<line x1="522.0" y1="246.96428571428572" x2="522.0" y2="261.42857142857144" stroke="#44aa44" stroke-width="0.5" opacity="0.6"/>
<rect x="519.0" y="250.58035714285717" width="6.0" height="8.437499999999943" fill="#44aa44" opacity="0.85"/>
<line x1="534.0" y1="259.0178571428571" x2="534.0" y2="268.6607142857142" stroke="#44aa44" stroke-width="0.5" opacity="0.6"/>
<rect x="531.0" y="261.42857142857144" width="6.0" height="4.821428571428555" fill="#44aa44" opacity="0.85"/>
<line x1="546.0" y1="255.40178571428575" x2="546.0" y2="266.25" stroke="#ff4444" stroke-width="0.5" opacity="0.6"/>
<rect x="543.0" y="256.6071428571429" width="6.0" height="7.232142857142776" fill="#ff4444" opacity="0.85"/>
<line x1="558.0" y1="256.6071428571429" x2="558.0" y2="265.0446428571429" stroke="#44aa44" stroke-width="0.5" opacity="0.6"/>
<rect x="555.0" y="257.8125" width="6.0" height="6.026785714285666" fill="#44aa44" opacity="0.85"/>
<line x1="570.0" y1="260.22321428571433" x2="570.0" y2="267.4553571428571" stroke="#ff4444" stroke-width="0.5" opacity="0.6"/>
<rect x="567.0" y="261.42857142857144" width="6.0" height="3.616071428571445" fill="#ff4444" opacity="0.85"/>
<line x1="582.0" y1="260.22321428571433" x2="582.0" y2="272.2767857142857" stroke="#44aa44" stroke-width="0.5" opacity="0.6"/>
<rect x="579.0" y="266.25" width="6.0" height="6.026785714285722" fill="#44aa44" opacity="0.85"/>
<line x1="594.0" y1="255.40178571428575" x2="594.0" y2="271.07142857142856" stroke="#ff4444" stroke-width="0.5" opacity="0.6"/>
<rect x="591.0" y="260.22321428571433" width="6.0" height="8.437499999999886" fill="#ff4444" opacity="0.85"/>
<line x1="606.0" y1="251.78571428571428" x2="606.0" y2="262.63392857142856" stroke="#ff4444" stroke-width="0.5" opacity="0.6"/>
<rect x="603.0" y="256.6071428571429" width="6.0" height="1.2053571428571104" fill="#ff4444" opacity="0.85"/>
<line x1="618.0" y1="259.0178571428571" x2="618.0" y2="267.4553571428571" stroke="#44aa44" stroke-width="0.5" opacity="0.6"/>
<rect x="615.0" y="259.0178571428571" width="6.0" height="2.4107142857143344" fill="#44aa44" opacity="0.85"/>
<line x1="630.0" y1="254.19642857142853" x2="630.0" y2="262.63392857142856" stroke="#ff4444" stroke-width="0.5" opacity="0.6"/>
<rect x="627.0" y="259.0178571428571" width="6.0" height="2.4107142857143344" fill="#ff4444" opacity="0.85"/>
<line x1="642.0" y1="254.19642857142853" x2="642.0" y2="265.0446428571429" stroke="#44aa44" stroke-width="0.5" opacity="0.6"/>
<rect x="639.0" y="259.0178571428571" width="6.0" height="2.4107142857143344" fill="#44aa44" opacity="0.85"/>
<line x1="654.0" y1="254.19642857142853" x2="654.0" y2="263.83928571428567" stroke="#ff4444" stroke-width="0.5" opacity="0.6"/>
<rect x="651.0" y="254.19642857142853" width="6.0" height="7.232142857142918" fill="#ff4444" opacity="0.85"/>
<line x1="666.0" y1="242.14285714285714" x2="666.0" y2="257.8125" stroke="#44aa44" stroke-width="0.5" opacity="0.6"/>
<rect x="663.0" y="248.16964285714283" width="6.0" height="7.232142857142918" fill="#44aa44" opacity="0.85"/>
<line x1="678.0" y1="252.99107142857142" x2="678.0" y2="267.4553571428571" stroke="#44aa44" stroke-width="0.5" opacity="0.6"/>
<rect x="675.0" y="255.40178571428575" width="6.0" height="9.642857142857139" fill="#44aa44" opacity="0.85"/>
<line x1="690.0" y1="254.19642857142853" x2="690.0" y2="272.2767857142857" stroke="#ff4444" stroke-width="0.5" opacity="0.6"/>
<rect x="687.0" y="256.6071428571429" width="6.0" height="10.84821428571422" fill="#ff4444" opacity="0.85"/>
<line x1="702.0" y1="243.34821428571425" x2="702.0" y2="261.42857142857144" stroke="#ff4444" stroke-width="0.5" opacity="0.6"/>
<rect x="699.0" y="244.55357142857147" width="6.0" height="13.258928571428527" fill="#ff4444" opacity="0.85"/>
<line x1="714.0" y1="244.55357142857147" x2="714.0" y2="252.99107142857142" stroke="#44aa44" stroke-width="0.5" opacity="0.6"/>
<rect x="711.0" y="246.96428571428572" width="6.0" height="3.616071428571445" fill="#44aa44" opacity="0.85"/>
<line x1="726.0" y1="198.74999999999994" x2="726.0" y2="198.74999999999994" stroke="#ff4444" stroke-width="0.5" opacity="0.6"/>
<rect x="723.0" y="198.74999999999994" width="6.0" height="0.5" fill="#ff4444" opacity="0.85"/>
<line x1="738.0" y1="142.09821428571428" x2="738.0" y2="225.26785714285717" stroke="#ff4444" stroke-width="0.5" opacity="0.6"/>
<rect x="735.0" y="142.09821428571428" width="6.0" height="55.446428571428555" fill="#ff4444" opacity="0.85"/>
<line x1="750.0" y1="116.78571428571426" x2="750.0" y2="154.15178571428575" stroke="#ff4444" stroke-width="0.5" opacity="0.6"/>
<rect x="747.0" y="128.83928571428575" width="6.0" height="12.053571428571388" fill="#ff4444" opacity="0.85"/>
<line x1="762.0" y1="64.95535714285715" x2="762.0" y2="139.68750000000003" stroke="#ff4444" stroke-width="0.5" opacity="0.6"/>
<rect x="759.0" y="68.57142857142861" width="6.0" height="66.29464285714283" fill="#ff4444" opacity="0.85"/>
<line x1="774.0" y1="30.0" x2="774.0" y2="97.49999999999996" stroke="#44aa44" stroke-width="0.5" opacity="0.6"/>
<rect x="771.0" y="64.95535714285715" width="6.0" height="9.642857142857153" fill="#44aa44" opacity="0.85"/>
<rect x="134.0" y="251.40178571428575" width="8" height="8" fill="#4caf50" opacity="0.85" rx="1"/>
<text x="138.0" y="249.40178571428575" text-anchor="middle" font-family="sans-serif" font-size="8" fill="#4caf50">前低</text>
<rect x="194.0" y="253.8125" width="8" height="8" fill="#4caf50" opacity="0.85" rx="1"/>
<text x="198.0" y="251.8125" text-anchor="middle" font-family="sans-serif" font-size="8" fill="#4caf50">前低</text>
<rect x="206.0" y="256.22321428571433" width="8" height="8" fill="#4caf50" opacity="0.85" rx="1"/>
<text x="210.0" y="254.22321428571433" text-anchor="middle" font-family="sans-serif" font-size="8" fill="#4caf50">前低</text>
<rect x="218.0" y="259.83928571428567" width="8" height="8" fill="#4caf50" opacity="0.85" rx="1"/>
<text x="222.0" y="257.83928571428567" text-anchor="middle" font-family="sans-serif" font-size="8" fill="#4caf50">前低</text>
<rect x="230.0" y="268.2767857142857" width="8" height="8" fill="#4caf50" opacity="0.85" rx="1"/>
<text x="234.0" y="266.2767857142857" text-anchor="middle" font-family="sans-serif" font-size="8" fill="#4caf50">前低</text>
<rect x="242.0" y="269.48214285714283" width="8" height="8" fill="#4caf50" opacity="0.85" rx="1"/>
<text x="246.0" y="267.48214285714283" text-anchor="middle" font-family="sans-serif" font-size="8" fill="#4caf50">前低</text>
<rect x="254.0" y="296.0" width="8" height="8" fill="#4caf50" opacity="0.85" rx="1"/>
<text x="258.0" y="294.0" text-anchor="middle" font-family="sans-serif" font-size="8" fill="#4caf50">前低</text>
<rect x="410.0" y="268.2767857142857" width="8" height="8" fill="#ff9800" opacity="0.85" rx="1"/>
<text x="414.0" y="266.2767857142857" text-anchor="middle" font-family="sans-serif" font-size="8" fill="#ff9800">前高</text>
<rect x="434.0" y="268.2767857142857" width="8" height="8" fill="#ff9800" opacity="0.85" rx="1"/>
<text x="438.0" y="266.2767857142857" text-anchor="middle" font-family="sans-serif" font-size="8" fill="#ff9800">前高</text>
<rect x="482.0" y="248.99107142857142" width="8" height="8" fill="#ff9800" opacity="0.85" rx="1"/>
<text x="486.0" y="246.99107142857142" text-anchor="middle" font-family="sans-serif" font-size="8" fill="#ff9800">前高</text>
<rect x="482.0" y="237.54017857142847" width="8" height="8" fill="#ff9800" opacity="0.85" rx="1"/>
<text x="486.0" y="235.54017857142847" text-anchor="middle" font-family="sans-serif" font-size="8" fill="#ff9800">量</text>
<rect x="482.0" y="248.99107142857142" width="8" height="8" fill="#2196f3" opacity="0.85" rx="1"/>
<text x="486.0" y="246.99107142857142" text-anchor="middle" font-family="sans-serif" font-size="8" fill="#2196f3">突</text>
<rect x="494.0" y="236.93750000000003" width="8" height="8" fill="#ff9800" opacity="0.85" rx="1"/>
<text x="498.0" y="234.93750000000003" text-anchor="middle" font-family="sans-serif" font-size="8" fill="#ff9800">前高</text>
<rect x="662.0" y="238.14285714285714" width="8" height="8" fill="#ff9800" opacity="0.85" rx="1"/>
<text x="666.0" y="236.14285714285714" text-anchor="middle" font-family="sans-serif" font-size="8" fill="#ff9800">前高</text>
<rect x="686.0" y="268.2767857142857" width="8" height="8" fill="#4caf50" opacity="0.85" rx="1"/>
<text x="690.0" y="266.2767857142857" text-anchor="middle" font-family="sans-serif" font-size="8" fill="#4caf50">前低</text>
<rect x="722.0" y="194.74999999999994" width="8" height="8" fill="#ff9800" opacity="0.85" rx="1"/>
<text x="726.0" y="192.74999999999994" text-anchor="middle" font-family="sans-serif" font-size="8" fill="#ff9800">前高</text>
<rect x="734.0" y="138.09821428571428" width="8" height="8" fill="#ff9800" opacity="0.85" rx="1"/>
<text x="738.0" y="136.09821428571428" text-anchor="middle" font-family="sans-serif" font-size="8" fill="#ff9800">前高</text>
<rect x="734.0" y="96.51339285714276" width="8" height="8" fill="#ff9800" opacity="0.85" rx="1"/>
<text x="738.0" y="94.51339285714276" text-anchor="middle" font-family="sans-serif" font-size="8" fill="#ff9800">量</text>
<rect x="734.0" y="138.09821428571428" width="8" height="8" fill="#2196f3" opacity="0.85" rx="1"/>
<text x="738.0" y="136.09821428571428" text-anchor="middle" font-family="sans-serif" font-size="8" fill="#2196f3">突</text>
<rect x="746.0" y="112.78571428571426" width="8" height="8" fill="#ff9800" opacity="0.85" rx="1"/>
<text x="750.0" y="110.78571428571426" text-anchor="middle" font-family="sans-serif" font-size="8" fill="#ff9800">前高</text>
<rect x="758.0" y="60.95535714285715" width="8" height="8" fill="#ff9800" opacity="0.85" rx="1"/>
<text x="762.0" y="58.95535714285715" text-anchor="middle" font-family="sans-serif" font-size="8" fill="#ff9800">前高</text>
<rect x="758.0" y="60.95535714285715" width="8" height="8" fill="#2196f3" opacity="0.85" rx="1"/>
<text x="762.0" y="58.95535714285715" text-anchor="middle" font-family="sans-serif" font-size="8" fill="#2196f3">突</text>
<rect x="770.0" y="26.0" width="8" height="8" fill="#ff9800" opacity="0.85" rx="1"/>
<text x="774.0" y="24.0" text-anchor="middle" font-family="sans-serif" font-size="8" fill="#ff9800">前高</text>
<text x="66.0" y="359" text-anchor="middle" font-family="sans-serif" font-size="8" fill="#666666" transform="rotate(-40,66.0,359)">02/27</text>
<text x="138.0" y="359" text-anchor="middle" font-family="sans-serif" font-size="8" fill="#666666" transform="rotate(-40,138.0,359)">03/09</text>
<text x="210.0" y="359" text-anchor="middle" font-family="sans-serif" font-size="8" fill="#666666" transform="rotate(-40,210.0,359)">03/17</text>
<text x="282.0" y="359" text-anchor="middle" font-family="sans-serif" font-size="8" fill="#666666" transform="rotate(-40,282.0,359)">03/25</text>
<text x="354.0" y="359" text-anchor="middle" font-family="sans-serif" font-size="8" fill="#666666" transform="rotate(-40,354.0,359)">04/02</text>
<text x="426.0" y="359" text-anchor="middle" font-family="sans-serif" font-size="8" fill="#666666" transform="rotate(-40,426.0,359)">04/13</text>
<text x="498.0" y="359" text-anchor="middle" font-family="sans-serif" font-size="8" fill="#666666" transform="rotate(-40,498.0,359)">04/21</text>
<text x="570.0" y="359" text-anchor="middle" font-family="sans-serif" font-size="8" fill="#666666" transform="rotate(-40,570.0,359)">04/29</text>
<text x="642.0" y="359" text-anchor="middle" font-family="sans-serif" font-size="8" fill="#666666" transform="rotate(-40,642.0,359)">05/12</text>
<text x="714.0" y="359" text-anchor="middle" font-family="sans-serif" font-size="8" fill="#666666" transform="rotate(-40,714.0,359)">05/20</text>
<text x="774.0" y="359" text-anchor="middle" font-family="sans-serif" font-size="8" fill="#666666" transform="rotate(-40,774.0,359)">05/27</text>
<text x="400.0" y="396" text-anchor="middle" font-family="sans-serif" font-size="9" fill="#555555">数据截至: 2026-05-27 20:57  |  最新K线: 20260527</text>
<rect x="50" y="373" width="8" height="8" fill="#ffd700" opacity="0.8" rx="1"/>
<text x="61" y="380" font-family="sans-serif" font-size="9" fill="#888888">EMA5</text>
<rect x="150" y="373" width="8" height="8" fill="#ff6b6b" opacity="0.8" rx="1"/>
<text x="161" y="380" font-family="sans-serif" font-size="9" fill="#888888">EMA10</text>
<rect x="250" y="373" width="8" height="8" fill="#4ecdc4" opacity="0.8" rx="1"/>
<text x="261" y="380" font-family="sans-serif" font-size="9" fill="#888888">EMA20</text>
<rect x="350" y="373" width="8" height="8" fill="#2196f3" opacity="0.8" rx="1"/>
<text x="361" y="380" font-family="sans-serif" font-size="9" fill="#888888">突破</text>
<rect x="450" y="373" width="8" height="8" fill="#ff9800" opacity="0.8" rx="1"/>
<text x="461" y="380" font-family="sans-serif" font-size="9" fill="#888888">前高/量</text>
<rect x="550" y="373" width="8" height="8" fill="#4caf50" opacity="0.8" rx="1"/>
<text x="561" y="380" font-family="sans-serif" font-size="9" fill="#888888">前低</text>
</svg>