<svg xmlns="http://www.w3.org/2000/svg" width="800" height="400" viewBox="0 0 800 400">
<rect width="800" height="400" fill="#1a1a2e"/>
<text x="400.0" y="20" text-anchor="middle" font-family="sans-serif" font-size="14" fill="#ffffff" font-weight="bold">华工科技(000988) K线图</text>
<line x1="60" y1="30.0" x2="780" y2="30.0" stroke="#2a2a4e" stroke-width="0.5"/>
<text x="55" y="33.0" text-anchor="end" font-family="sans-serif" font-size="8" fill="#666666">175.80</text>
<line x1="60" y1="83.99999999999997" x2="780" y2="83.99999999999997" stroke="#2a2a4e" stroke-width="0.5"/>
<text x="55" y="86.99999999999997" text-anchor="end" font-family="sans-serif" font-size="8" fill="#666666">157.64</text>
<line x1="60" y1="137.99999999999994" x2="780" y2="137.99999999999994" stroke="#2a2a4e" stroke-width="0.5"/>
<text x="55" y="140.99999999999994" text-anchor="end" font-family="sans-serif" font-size="8" fill="#666666">139.48</text>
<line x1="60" y1="192.0" x2="780" y2="192.0" stroke="#2a2a4e" stroke-width="0.5"/>
<text x="55" y="195.0" text-anchor="end" font-family="sans-serif" font-size="8" fill="#666666">121.32</text>
<line x1="60" y1="246.0" x2="780" y2="246.0" stroke="#2a2a4e" stroke-width="0.5"/>
<text x="55" y="249.0" text-anchor="end" font-family="sans-serif" font-size="8" fill="#666666">103.16</text>
<line x1="60" y1="300.0" x2="780" y2="300.0" stroke="#2a2a4e" stroke-width="0.5"/>
<text x="55" y="303.0" text-anchor="end" font-family="sans-serif" font-size="8" fill="#666666">85.00</text>
<line x1="60" y1="300" x2="780" y2="300" stroke="#2a2a4e" stroke-width="0.5"/>
<line x1="60" y1="345" x2="780" y2="345" stroke="#2a2a4e" stroke-width="0.5"/>
<rect x="61.8" y="324.0690836156549" width="7.199999999999999" height="20.930916384345096" fill="#ff4444" opacity="0.3"/>
<rect x="73.8" y="325.0177413236292" width="7.199999999999999" height="19.982258676370805" fill="#ff4444" opacity="0.3"/>
<rect x="85.8" y="325.6628592440078" width="7.199999999999999" height="19.33714075599221" fill="#ff4444" opacity="0.3"/>
<rect x="97.8" y="316.67335181588555" width="7.199999999999999" height="28.326648184114447" fill="#44aa44" opacity="0.3"/>
<rect x="109.8" y="319.827603836837" width="7.199999999999999" height="25.172396163163" fill="#ff4444" opacity="0.3"/>
<rect x="121.8" y="311.7060820172493" width="7.199999999999999" height="33.29391798275071" fill="#ff4444" opacity="0.3"/>
<rect x="133.8" y="317.1836689255634" width="7.199999999999999" height="27.81633107443662" fill="#ff4444" opacity="0.3"/>
<rect x="145.8" y="315.9041271803635" width="7.199999999999999" height="29.095872819636497" fill="#ff4444" opacity="0.3"/>
<rect x="157.8" y="320.59668069690645" width="7.199999999999999" height="24.403319303093554" fill="#ff4444" opacity="0.3"/>
<rect x="169.8" y="318.0009476074084" width="7.199999999999999" height="26.99905239259158" fill="#ff4444" opacity="0.3"/>
<rect x="181.8" y="300.0" width="7.199999999999999" height="45.0" fill="#44aa44" opacity="0.3"/>
<rect x="193.8" y="310.6384787965842" width="7.199999999999999" height="34.361521203415805" fill="#44aa44" opacity="0.3"/>
<rect x="205.8" y="318.91395990303147" width="7.199999999999999" height="26.08604009696853" fill="#44aa44" opacity="0.3"/>
<rect x="217.8" y="320.74061162841866" width="7.199999999999999" height="24.259388371581338" fill="#44aa44" opacity="0.3"/>
<rect x="229.8" y="323.893199084367" width="7.199999999999999" height="21.106800915633016" fill="#ff4444" opacity="0.3"/>
<rect x="241.8" y="318.3917890143829" width="7.199999999999999" height="26.60821098561712" fill="#ff4444" opacity="0.3"/>
<rect x="253.8" y="313.54588532895605" width="7.199999999999999" height="31.454114671043953" fill="#44aa44" opacity="0.3"/>
<rect x="265.8" y="324.50956148882005" width="7.199999999999999" height="20.490438511179946" fill="#ff4444" opacity="0.3"/>
<rect x="277.8" y="319.9339965862321" width="7.199999999999999" height="25.066003413767874" fill="#44aa44" opacity="0.3"/>
<rect x="289.8" y="322.80679620950553" width="7.199999999999999" height="22.193203790494465" fill="#ff4444" opacity="0.3"/>
<rect x="301.8" y="315.24928503466913" width="7.199999999999999" height="29.75071496533087" fill="#44aa44" opacity="0.3"/>
<rect x="313.8" y="323.97939206613444" width="7.199999999999999" height="21.020607933865563" fill="#ff4444" opacity="0.3"/>
<rect x="325.8" y="332.2684993990703" width="7.199999999999999" height="12.731500600929678" fill="#44aa44" opacity="0.3"/>
<rect x="337.8" y="332.52372304803094" width="7.199999999999999" height="12.476276951969055" fill="#44aa44" opacity="0.3"/>
<rect x="349.8" y="333.91010987706625" width="7.199999999999999" height="11.089890122933753" fill="#44aa44" opacity="0.3"/>
<rect x="361.8" y="332.2510415202456" width="7.199999999999999" height="12.748958479754378" fill="#44aa44" opacity="0.3"/>
<rect x="373.8" y="330.30511677401665" width="7.199999999999999" height="14.694883225983347" fill="#ff4444" opacity="0.3"/>
<rect x="385.8" y="332.7523887242978" width="7.199999999999999" height="12.247611275702184" fill="#44aa44" opacity="0.3"/>
<rect x="397.8" y="325.36168665186875" width="7.199999999999999" height="19.63831334813125" fill="#ff4444" opacity="0.3"/>
<rect x="409.8" y="321.143405903274" width="7.199999999999999" height="23.856594096725985" fill="#ff4444" opacity="0.3"/>
<rect x="421.8" y="323.4600005999669" width="7.199999999999999" height="21.539999400033082" fill="#44aa44" opacity="0.3"/>
<rect x="433.8" y="321.0328998917181" width="7.199999999999999" height="23.967100108281898" fill="#ff4444" opacity="0.3"/>
<rect x="445.8" y="314.7104429730883" width="7.199999999999999" height="30.289557026911723" fill="#ff4444" opacity="0.3"/>
<rect x="457.8" y="316.09065326005947" width="7.199999999999999" height="28.90934673994053" fill="#44aa44" opacity="0.3"/>
<rect x="469.8" y="327.78742156319197" width="7.199999999999999" height="17.21257843680803" fill="#ff4444" opacity="0.3"/>
<rect x="481.8" y="324.5386155583449" width="7.199999999999999" height="20.461384441655127" fill="#ff4444" opacity="0.3"/>
<rect x="493.8" y="325.09648869605724" width="7.199999999999999" height="19.903511303942764" fill="#44aa44" opacity="0.3"/>
<rect x="505.8" y="330.0589449613389" width="7.199999999999999" height="14.94105503866109" fill="#ff4444" opacity="0.3"/>
<rect x="517.8" y="322.2755726266614" width="7.199999999999999" height="22.724427373338585" fill="#ff4444" opacity="0.3"/>
<rect x="529.8" y="323.4174976773922" width="7.199999999999999" height="21.58250232260781" fill="#44aa44" opacity="0.3"/>
<rect x="541.8" y="330.1158535240373" width="7.199999999999999" height="14.884146475962723" fill="#ff4444" opacity="0.3"/>
<rect x="553.8" y="325.6597137073069" width="7.199999999999999" height="19.340286292693122" fill="#ff4444" opacity="0.3"/>
<rect x="565.8" y="330.94014199559973" width="7.199999999999999" height="14.059858004400269" fill="#44aa44" opacity="0.3"/>
<rect x="577.8" y="327.13812217659756" width="7.199999999999999" height="17.861877823402438" fill="#ff4444" opacity="0.3"/>
<rect x="589.8" y="325.26354959582494" width="7.199999999999999" height="19.73645040417506" fill="#ff4444" opacity="0.3"/>
<rect x="601.8" y="321.6463323100215" width="7.199999999999999" height="23.353667689978522" fill="#ff4444" opacity="0.3"/>
<rect x="613.8" y="322.11965408180635" width="7.199999999999999" height="22.880345918193655" fill="#ff4444" opacity="0.3"/>
<rect x="625.8" y="322.3286177942559" width="7.199999999999999" height="22.671382205744123" fill="#ff4444" opacity="0.3"/>
<rect x="637.8" y="322.3972756850609" width="7.199999999999999" height="22.60272431493911" fill="#ff4444" opacity="0.3"/>
<rect x="649.8" y="323.75741381890987" width="7.199999999999999" height="21.242586181090132" fill="#44aa44" opacity="0.3"/>
<rect x="661.8" y="324.0631410692638" width="7.199999999999999" height="20.936858930736207" fill="#ff4444" opacity="0.3"/>
<rect x="673.8" y="325.5782641245355" width="7.199999999999999" height="19.421735875464492" fill="#44aa44" opacity="0.3"/>
<rect x="685.8" y="325.98282998899606" width="7.199999999999999" height="19.01717001100394" fill="#44aa44" opacity="0.3"/>
<rect x="697.8" y="330.4840024982035" width="7.199999999999999" height="14.515997501796505" fill="#ff4444" opacity="0.3"/>
<rect x="709.8" y="314.4854843373463" width="7.199999999999999" height="30.514515662653707" fill="#ff4444" opacity="0.3"/>
<rect x="721.8" y="316.98001547788795" width="7.199999999999999" height="28.019984522112054" fill="#ff4444" opacity="0.3"/>
<rect x="733.8" y="319.00915045810723" width="7.199999999999999" height="25.99084954189277" fill="#44aa44" opacity="0.3"/>
<rect x="745.8" y="325.52300232515296" width="7.199999999999999" height="19.47699767484704" fill="#ff4444" opacity="0.3"/>
<rect x="757.8" y="321.6086257625485" width="7.199999999999999" height="23.391374237451487" fill="#ff4444" opacity="0.3"/>
<rect x="769.8" y="321.0629289789602" width="7.199999999999999" height="23.9370710210398" fill="#44aa44" opacity="0.3"/>
<polyline points="66.0,289.44 78.0,288.15 90.0,282.21 102.0,277.41 114.0,268.53 126.0,257.60 138.0,242.22 150.0,228.17 162.0,213.95 174.0,193.19 186.0,186.27 198.0,190.79 210.0,195.27 222.0,204.29 234.0,206.67 246.0,203.10 258.0,204.59 270.0,208.31 282.0,212.11 294.0,210.94 306.0,220.45 318.0,222.68 330.0,226.70 342.0,232.80 354.0,235.63 366.0,241.88 378.0,242.88 390.0,242.89 402.0,236.74 414.0,228.16 426.0,221.46 438.0,207.83 450.0,203.24 462.0,208.43 474.0,211.88 486.0,209.85 498.0,210.18 510.0,209.12 522.0,203.78 534.0,203.49 546.0,205.61 558.0,203.58 570.0,205.40 582.0,203.19 594.0,201.24 606.0,194.32 618.0,181.47 630.0,169.75 642.0,151.16 654.0,142.13 666.0,138.16 678.0,140.17 690.0,144.90 702.0,134.77 714.0,117.09 726.0,100.33 738.0,98.54 750.0,95.01 762.0,77.17 774.0,66.88" fill="none" stroke="#ffd700" stroke-width="0.8" opacity="0.7"/>
<polyline points="66.0,289.44 78.0,288.74 90.0,285.39 102.0,282.19 114.0,276.48 126.0,269.08 138.0,258.60 150.0,247.96 162.0,236.60 174.0,221.16 186.0,212.30 198.0,210.03 210.0,208.98 222.0,211.40 234.0,211.41 246.0,208.60 258.0,208.42 270.0,209.75 282.0,211.56 294.0,211.02 306.0,216.19 318.0,218.19 330.0,221.19 342.0,225.52 354.0,228.39 366.0,233.12 378.0,235.25 390.0,236.65 402.0,234.43 414.0,230.17 426.0,226.15 438.0,217.86 450.0,213.53 462.0,214.49 474.0,215.27 486.0,213.55 498.0,213.06 510.0,211.95 522.0,208.53 534.0,207.51 546.0,207.93 558.0,206.40 570.0,206.88 582.0,205.41 594.0,203.94 606.0,199.68 618.0,191.69 630.0,183.44 642.0,170.81 654.0,162.31 666.0,156.48 678.0,154.24 690.0,154.26 702.0,147.03 714.0,135.16 726.0,122.74 738.0,117.68 750.0,112.28 762.0,99.40 774.0,89.75" fill="none" stroke="#ff6b6b" stroke-width="0.8" opacity="0.7"/>
<polyline points="66.0,289.44 78.0,289.07 90.0,287.29 102.0,285.43 114.0,282.13 126.0,277.72 138.0,271.40 150.0,264.61 162.0,257.08 174.0,247.04 186.0,239.93 198.0,236.11 210.0,233.08 222.0,232.05 234.0,230.09 246.0,226.84 258.0,225.01 270.0,224.12 282.0,223.70 294.0,222.26 306.0,223.90 318.0,224.21 330.0,225.21 342.0,227.10 354.0,228.45 366.0,230.92 378.0,232.25 390.0,233.26 402.0,232.42 414.0,230.38 426.0,228.26 438.0,223.72 450.0,220.89 462.0,220.69 474.0,220.51 486.0,219.11 498.0,218.32 510.0,217.24 522.0,214.94 534.0,213.80 546.0,213.42 558.0,212.10 570.0,211.81 582.0,210.57 594.0,209.30 606.0,206.56 618.0,201.72 630.0,196.45 642.0,188.59 654.0,182.45 666.0,177.47 678.0,174.30 690.0,172.40 702.0,166.89 714.0,158.78 726.0,150.02 738.0,144.78 750.0,139.36 762.0,130.04 774.0,122.07" fill="none" stroke="#4ecdc4" stroke-width="0.8" opacity="0.7"/>
<line x1="66.0" y1="285.488986784141" x2="66.0" y2="300.0" stroke="#ff4444" stroke-width="0.5" opacity="0.6"/>
<rect x="63.0" y="289.44383259911893" width="6.0" height="7.136563876651962" fill="#ff4444" opacity="0.85"/>
<line x1="78.0" y1="282.5154185022027" x2="78.0" y2="299.1079295154185" stroke="#ff4444" stroke-width="0.5" opacity="0.6"/>
<rect x="75.0" y="285.5484581497798" width="6.0" height="9.039647577092524" fill="#ff4444" opacity="0.85"/>
<line x1="90.0" y1="261.7896475770925" x2="90.0" y2="285.7268722466961" stroke="#ff4444" stroke-width="0.5" opacity="0.6"/>
<rect x="87.0" y="270.3535242290749" width="6.0" height="15.224669603524262" fill="#ff4444" opacity="0.85"/>
<line x1="102.0" y1="253.01762114537448" x2="102.0" y2="270.74008810572684" stroke="#44aa44" stroke-width="0.5" opacity="0.6"/>
<rect x="99.0" y="261.90859030837004" width="6.0" height="5.887665198237926" fill="#44aa44" opacity="0.85"/>
<line x1="114.0" y1="245.04845814977975" x2="114.0" y2="273.68392070484583" stroke="#ff4444" stroke-width="0.5" opacity="0.6"/>
<rect x="111.0" y="250.7874449339207" width="6.0" height="22.89647577092512" fill="#ff4444" opacity="0.85"/>
<line x1="126.0" y1="220.57599118942733" x2="126.0" y2="256.73458149779736" stroke="#ff4444" stroke-width="0.5" opacity="0.6"/>
<rect x="123.0" y="235.74118942731278" width="6.0" height="4.78744493392071" fill="#ff4444" opacity="0.85"/>
<line x1="138.0" y1="207.55176211453744" x2="138.0" y2="237.55506607929516" stroke="#ff4444" stroke-width="0.5" opacity="0.6"/>
<rect x="135.0" y="211.44713656387668" width="6.0" height="23.877753303964738" fill="#ff4444" opacity="0.85"/>
<line x1="150.0" y1="196.57929515418502" x2="150.0" y2="230.12114537444936" stroke="#ff4444" stroke-width="0.5" opacity="0.6"/>
<rect x="147.0" y="200.08810572687227" width="6.0" height="19.625550660792925" fill="#ff4444" opacity="0.85"/>
<line x1="162.0" y1="184.03083700440533" x2="162.0" y2="206.18392070484583" stroke="#ff4444" stroke-width="0.5" opacity="0.6"/>
<rect x="159.0" y="185.48788546255508" width="6.0" height="11.953744493392094" fill="#ff4444" opacity="0.85"/>
<line x1="174.0" y1="149.26982378854626" x2="174.0" y2="187.30176211453744" stroke="#ff4444" stroke-width="0.5" opacity="0.6"/>
<rect x="171.0" y="151.67841409691636" width="6.0" height="35.35572687224666" fill="#ff4444" opacity="0.85"/>
<line x1="186.0" y1="132.26101321585907" x2="186.0" y2="185.51762114537448" stroke="#44aa44" stroke-width="0.5" opacity="0.6"/>
<rect x="183.0" y="155.06828193832598" width="6.0" height="17.36563876651985" fill="#44aa44" opacity="0.85"/>
<line x1="198.0" y1="175.704845814978" x2="198.0" y2="200.11784140969164" stroke="#44aa44" stroke-width="0.5" opacity="0.6"/>
<rect x="195.0" y="180.16519823788548" width="6.0" height="19.655286343612346" fill="#44aa44" opacity="0.85"/>
<line x1="210.0" y1="196.54955947136563" x2="210.0" y2="217.0969162995595" stroke="#44aa44" stroke-width="0.5" opacity="0.6"/>
<rect x="207.0" y="199.67180616740092" width="6.0" height="4.549559471365626" fill="#44aa44" opacity="0.85"/>
<line x1="222.0" y1="197.11453744493397" x2="222.0" y2="223.2819383259912" stroke="#44aa44" stroke-width="0.5" opacity="0.6"/>
<rect x="219.0" y="201.90198237885465" width="6.0" height="20.42841409691627" fill="#44aa44" opacity="0.85"/>
<line x1="234.0" y1="207.22466960352423" x2="234.0" y2="220.48678414096918" stroke="#ff4444" stroke-width="0.5" opacity="0.6"/>
<rect x="231.0" y="211.44713656387668" width="6.0" height="1.3083700440528503" fill="#ff4444" opacity="0.85"/>
<line x1="246.0" y1="188.4614537444934" x2="246.0" y2="216.0264317180617" stroke="#ff4444" stroke-width="0.5" opacity="0.6"/>
<rect x="243.0" y="195.95484581497803" width="6.0" height="20.071585903083673" fill="#ff4444" opacity="0.85"/>
<line x1="258.0" y1="178.79735682819384" x2="258.0" y2="207.8193832599119" stroke="#44aa44" stroke-width="0.5" opacity="0.6"/>
<rect x="255.0" y="186.73678414096918" width="6.0" height="20.844713656387654" fill="#44aa44" opacity="0.85"/>
<line x1="270.0" y1="201.6343612334802" x2="270.0" y2="221.79515418502203" stroke="#ff4444" stroke-width="0.5" opacity="0.6"/>
<rect x="267.0" y="215.72907488986786" width="6.0" height="6.066079295154168" fill="#ff4444" opacity="0.85"/>
<line x1="282.0" y1="210.34691629955947" x2="282.0" y2="238.89317180616743" stroke="#44aa44" stroke-width="0.5" opacity="0.6"/>
<rect x="279.0" y="215.13436123348018" width="6.0" height="4.579295154185019" fill="#44aa44" opacity="0.85"/>
<line x1="294.0" y1="200.5638766519824" x2="294.0" y2="215.25330396475772" stroke="#ff4444" stroke-width="0.5" opacity="0.6"/>
<rect x="291.0" y="208.59251101321587" width="6.0" height="6.185022026431739" fill="#ff4444" opacity="0.85"/>
<line x1="306.0" y1="226.76101321585907" x2="306.0" y2="241.71806167400885" stroke="#44aa44" stroke-width="0.5" opacity="0.6"/>
<rect x="303.0" y="237.04955947136563" width="6.0" height="2.4383259911894584" fill="#44aa44" opacity="0.85"/>
<line x1="318.0" y1="221.97356828193833" x2="318.0" y2="245.94052863436121" stroke="#ff4444" stroke-width="0.5" opacity="0.6"/>
<rect x="315.0" y="227.14757709251103" width="6.0" height="18.792951541850186" fill="#ff4444" opacity="0.85"/>
<line x1="330.0" y1="224.17400881057267" x2="330.0" y2="238.83370044052867" stroke="#44aa44" stroke-width="0.5" opacity="0.6"/>
<rect x="327.0" y="228.63436123348018" width="6.0" height="6.095814977973561" fill="#44aa44" opacity="0.85"/>
<line x1="342.0" y1="235.62224669603523" x2="342.0" y2="249.12224669603523" stroke="#44aa44" stroke-width="0.5" opacity="0.6"/>
<rect x="339.0" y="238.14977973568284" width="6.0" height="6.839207048458121" fill="#44aa44" opacity="0.85"/>
<line x1="354.0" y1="235.1762114537445" x2="354.0" y2="245.91079295154185" stroke="#44aa44" stroke-width="0.5" opacity="0.6"/>
<rect x="351.0" y="235.74118942731278" width="6.0" height="5.560572687224692" fill="#44aa44" opacity="0.85"/>
<line x1="366.0" y1="239.33920704845812" x2="366.0" y2="255.78303964757708" stroke="#44aa44" stroke-width="0.5" opacity="0.6"/>
<rect x="363.0" y="243.3535242290749" width="6.0" height="11.031938325991177" fill="#44aa44" opacity="0.85"/>
<line x1="378.0" y1="238.03083700440527" x2="378.0" y2="250.46035242290748" stroke="#ff4444" stroke-width="0.5" opacity="0.6"/>
<rect x="375.0" y="244.87004405286342" width="6.0" height="3.389867841409682" fill="#ff4444" opacity="0.85"/>
<line x1="390.0" y1="230.12114537444936" x2="390.0" y2="245.70264317180616" stroke="#44aa44" stroke-width="0.5" opacity="0.6"/>
<rect x="387.0" y="240.8854625550661" width="6.0" height="2.0220264317180465" fill="#44aa44" opacity="0.85"/>
<line x1="402.0" y1="224.29295154185027" x2="402.0" y2="237.22797356828193" stroke="#ff4444" stroke-width="0.5" opacity="0.6"/>
<rect x="399.0" y="224.44162995594718" width="6.0" height="7.166299559471327" fill="#ff4444" opacity="0.85"/>
<line x1="414.0" y1="202.318281938326" x2="414.0" y2="232.29185022026434" stroke="#ff4444" stroke-width="0.5" opacity="0.6"/>
<rect x="411.0" y="211.00110132158588" width="6.0" height="19.98237885462561" fill="#ff4444" opacity="0.85"/>
<line x1="426.0" y1="202.8237885462555" x2="426.0" y2="214.06387665198238" stroke="#44aa44" stroke-width="0.5" opacity="0.6"/>
<rect x="423.0" y="204.8458149779736" width="6.0" height="3.211453744493383" fill="#44aa44" opacity="0.85"/>
<line x1="438.0" y1="180.4625550660793" x2="438.0" y2="211.2092511013216" stroke="#ff4444" stroke-width="0.5" opacity="0.6"/>
<rect x="435.0" y="180.58149779735683" width="6.0" height="30.627753303964766" fill="#ff4444" opacity="0.85"/>
<line x1="450.0" y1="183.01982378854626" x2="450.0" y2="201.87224669603526" stroke="#ff4444" stroke-width="0.5" opacity="0.6"/>
<rect x="447.0" y="194.05176211453747" width="6.0" height="1.8733480176211117" fill="#ff4444" opacity="0.85"/>
<line x1="462.0" y1="194.76541850220264" x2="462.0" y2="223.8766519823789" stroke="#44aa44" stroke-width="0.5" opacity="0.6"/>
<rect x="459.0" y="194.76541850220264" width="6.0" height="24.056167400881066" fill="#44aa44" opacity="0.85"/>
<line x1="474.0" y1="214.36123348017622" x2="474.0" y2="232.05396475770928" stroke="#ff4444" stroke-width="0.5" opacity="0.6"/>
<rect x="471.0" y="218.76211453744494" width="6.0" height="7.196035242290719" fill="#ff4444" opacity="0.85"/>
<line x1="486.0" y1="203.12114537444936" x2="486.0" y2="217.36453744493392" stroke="#ff4444" stroke-width="0.5" opacity="0.6"/>
<rect x="483.0" y="205.7973568281938" width="6.0" height="10.942731277533085" fill="#ff4444" opacity="0.85"/>
<line x1="498.0" y1="201.27753303964758" x2="498.0" y2="214.65859030837007" stroke="#44aa44" stroke-width="0.5" opacity="0.6"/>
<rect x="495.0" y="210.25770925110132" width="6.0" height="0.594713656387654" fill="#44aa44" opacity="0.85"/>
<line x1="510.0" y1="204.6079295154185" x2="510.0" y2="218.04845814977975" stroke="#ff4444" stroke-width="0.5" opacity="0.6"/>
<rect x="507.0" y="206.98678414096918" width="6.0" height="9.75330396475772" fill="#ff4444" opacity="0.85"/>
<line x1="522.0" y1="191.97026431718064" x2="522.0" y2="210.10903083700438" stroke="#ff4444" stroke-width="0.5" opacity="0.6"/>
<rect x="519.0" y="193.1002202643172" width="6.0" height="16.265418502202635" fill="#ff4444" opacity="0.85"/>
<line x1="534.0" y1="185.51762114537448" x2="534.0" y2="207.8193832599119" stroke="#44aa44" stroke-width="0.5" opacity="0.6"/>
<rect x="531.0" y="190.18612334801762" width="6.0" height="12.726872246696047" fill="#44aa44" opacity="0.85"/>
<line x1="546.0" y1="203.8050660792952" x2="546.0" y2="216.65088105726872" stroke="#ff4444" stroke-width="0.5" opacity="0.6"/>
<rect x="543.0" y="209.84140969163" width="6.0" height="0.9515418502202522" fill="#ff4444" opacity="0.85"/>
<line x1="558.0" y1="192.2081497797357" x2="558.0" y2="207.8193832599119" stroke="#ff4444" stroke-width="0.5" opacity="0.6"/>
<rect x="555.0" y="199.52312775330395" width="6.0" height="7.998898678414122" fill="#ff4444" opacity="0.85"/>
<line x1="570.0" y1="198.15528634361237" x2="570.0" y2="212.63656387665202" stroke="#44aa44" stroke-width="0.5" opacity="0.6"/>
<rect x="567.0" y="200.3854625550661" width="6.0" height="8.653083700440476" fill="#44aa44" opacity="0.85"/>
<line x1="582.0" y1="194.43832599118943" x2="582.0" y2="212.60682819383263" stroke="#ff4444" stroke-width="0.5" opacity="0.6"/>
<rect x="579.0" y="198.77973568281936" width="6.0" height="13.827092511013262" fill="#ff4444" opacity="0.85"/>
<line x1="594.0" y1="193.04074889867843" x2="594.0" y2="210.79295154185024" stroke="#ff4444" stroke-width="0.5" opacity="0.6"/>
<rect x="591.0" y="197.3226872246696" width="6.0" height="1.2488986784141218" fill="#ff4444" opacity="0.85"/>
<line x1="606.0" y1="167.8546255506608" x2="606.0" y2="190.988986784141" stroke="#ff4444" stroke-width="0.5" opacity="0.6"/>
<rect x="603.0" y="180.49229074889868" width="6.0" height="6.482378854625551" fill="#ff4444" opacity="0.85"/>
<line x1="618.0" y1="152.7488986784141" x2="618.0" y2="184.62555066079298" stroke="#ff4444" stroke-width="0.5" opacity="0.6"/>
<rect x="615.0" y="155.7819383259912" width="6.0" height="22.926211453744486" fill="#ff4444" opacity="0.85"/>
<line x1="630.0" y1="145.67180616740086" x2="630.0" y2="168.33039647577093" stroke="#ff4444" stroke-width="0.5" opacity="0.6"/>
<rect x="627.0" y="146.29625550660796" width="6.0" height="17.54405286343615" fill="#ff4444" opacity="0.85"/>
<line x1="642.0" y1="110.34581497797359" x2="642.0" y2="136.66189427312776" stroke="#ff4444" stroke-width="0.5" opacity="0.6"/>
<rect x="639.0" y="113.97356828193834" width="6.0" height="22.539647577092538" fill="#ff4444" opacity="0.85"/>
<line x1="654.0" y1="105.23127753303967" x2="654.0" y2="124.55947136563879" stroke="#44aa44" stroke-width="0.5" opacity="0.6"/>
<rect x="651.0" y="115.69823788546262" width="6.0" height="8.385462555066056" fill="#44aa44" opacity="0.85"/>
<line x1="666.0" y1="125.68942731277534" x2="666.0" y2="145.9691629955947" stroke="#ff4444" stroke-width="0.5" opacity="0.6"/>
<rect x="663.0" y="130.20925110132163" width="6.0" height="6.244493392070467" fill="#ff4444" opacity="0.85"/>
<line x1="678.0" y1="118.0176211453745" x2="678.0" y2="144.33370044052867" stroke="#44aa44" stroke-width="0.5" opacity="0.6"/>
<rect x="675.0" y="124.91629955947141" width="6.0" height="19.268722466960327" fill="#44aa44" opacity="0.85"/>
<line x1="690.0" y1="127.5925110132159" x2="690.0" y2="165.41629955947138" stroke="#44aa44" stroke-width="0.5" opacity="0.6"/>
<rect x="687.0" y="142.10352422907494" width="6.0" height="12.251101321585907" fill="#44aa44" opacity="0.85"/>
<line x1="702.0" y1="114.50881057268725" x2="702.0" y2="145.2852422907489" stroke="#ff4444" stroke-width="0.5" opacity="0.6"/>
<rect x="699.0" y="114.50881057268725" width="6.0" height="29.289647577092495" fill="#ff4444" opacity="0.85"/>
<line x1="714.0" y1="77.90418502202647" x2="714.0" y2="114.80616740088108" stroke="#ff4444" stroke-width="0.5" opacity="0.6"/>
<rect x="711.0" y="81.74008810572688" width="6.0" height="21.825991189427313" fill="#ff4444" opacity="0.85"/>
<line x1="726.0" y1="44.62995594713661" x2="726.0" y2="81.71035242290753" stroke="#ff4444" stroke-width="0.5" opacity="0.6"/>
<rect x="723.0" y="66.81277533039653" width="6.0" height="14.897577092511" fill="#ff4444" opacity="0.85"/>
<line x1="738.0" y1="59.73568281938326" x2="738.0" y2="97.82709251101322" stroke="#44aa44" stroke-width="0.5" opacity="0.6"/>
<rect x="735.0" y="65.05837004405292" width="6.0" height="29.88436123348012" fill="#44aa44" opacity="0.85"/>
<line x1="750.0" y1="79.53964757709258" x2="750.0" y2="96.01321585903088" stroke="#ff4444" stroke-width="0.5" opacity="0.6"/>
<rect x="747.0" y="87.954845814978" width="6.0" height="2.2599118942731025" fill="#ff4444" opacity="0.85"/>
<line x1="762.0" y1="41.47797356828198" x2="762.0" y2="90.36343612334804" stroke="#ff4444" stroke-width="0.5" opacity="0.6"/>
<rect x="759.0" y="41.47797356828198" width="6.0" height="44.42511013215858" fill="#ff4444" opacity="0.85"/>
<line x1="774.0" y1="30.0" x2="774.0" y2="59.25991189427313" stroke="#44aa44" stroke-width="0.5" opacity="0.6"/>
<rect x="771.0" y="41.47797356828198" width="6.0" height="4.817180616740096" fill="#44aa44" opacity="0.85"/>
<rect x="122.0" y="216.57599118942733" width="8" height="8" fill="#ff9800" opacity="0.85" rx="1"/>
<text x="126.0" y="214.57599118942733" text-anchor="middle" font-family="sans-serif" font-size="8" fill="#ff9800">前高</text>
<rect x="134.0" y="203.55176211453744" width="8" height="8" fill="#ff9800" opacity="0.85" rx="1"/>
<text x="138.0" y="201.55176211453744" text-anchor="middle" font-family="sans-serif" font-size="8" fill="#ff9800">前高</text>
<rect x="146.0" y="192.57929515418502" width="8" height="8" fill="#ff9800" opacity="0.85" rx="1"/>
<text x="150.0" y="190.57929515418502" text-anchor="middle" font-family="sans-serif" font-size="8" fill="#ff9800">前高</text>
<rect x="158.0" y="180.03083700440533" width="8" height="8" fill="#ff9800" opacity="0.85" rx="1"/>
<text x="162.0" y="178.03083700440533" text-anchor="middle" font-family="sans-serif" font-size="8" fill="#ff9800">前高</text>
<rect x="170.0" y="145.26982378854626" width="8" height="8" fill="#ff9800" opacity="0.85" rx="1"/>
<text x="174.0" y="143.26982378854626" text-anchor="middle" font-family="sans-serif" font-size="8" fill="#ff9800">前高</text>
<rect x="182.0" y="128.26101321585907" width="8" height="8" fill="#ff9800" opacity="0.85" rx="1"/>
<text x="186.0" y="126.26101321585907" text-anchor="middle" font-family="sans-serif" font-size="8" fill="#ff9800">前高</text>
<rect x="278.0" y="234.89317180616743" width="8" height="8" fill="#4caf50" opacity="0.85" rx="1"/>
<text x="282.0" y="232.89317180616743" text-anchor="middle" font-family="sans-serif" font-size="8" fill="#4caf50">前低</text>
<rect x="302.0" y="237.71806167400885" width="8" height="8" fill="#4caf50" opacity="0.85" rx="1"/>
<text x="306.0" y="235.71806167400885" text-anchor="middle" font-family="sans-serif" font-size="8" fill="#4caf50">前低</text>
<rect x="314.0" y="241.94052863436121" width="8" height="8" fill="#4caf50" opacity="0.85" rx="1"/>
<text x="318.0" y="239.94052863436121" text-anchor="middle" font-family="sans-serif" font-size="8" fill="#4caf50">前低</text>
<rect x="338.0" y="245.12224669603523" width="8" height="8" fill="#4caf50" opacity="0.85" rx="1"/>
<text x="342.0" y="243.12224669603523" text-anchor="middle" font-family="sans-serif" font-size="8" fill="#4caf50">前低</text>
<rect x="362.0" y="251.78303964757708" width="8" height="8" fill="#4caf50" opacity="0.85" rx="1"/>
<text x="366.0" y="249.78303964757708" text-anchor="middle" font-family="sans-serif" font-size="8" fill="#4caf50">前低</text>
<rect x="434.0" y="176.4625550660793" width="8" height="8" fill="#ff9800" opacity="0.85" rx="1"/>
<text x="438.0" y="174.4625550660793" text-anchor="middle" font-family="sans-serif" font-size="8" fill="#ff9800">前高</text>
<rect x="434.0" y="176.4625550660793" width="8" height="8" fill="#2196f3" opacity="0.85" rx="1"/>
<text x="438.0" y="174.4625550660793" text-anchor="middle" font-family="sans-serif" font-size="8" fill="#2196f3">突</text>
<rect x="602.0" y="163.8546255506608" width="8" height="8" fill="#ff9800" opacity="0.85" rx="1"/>
<text x="606.0" y="161.8546255506608" text-anchor="middle" font-family="sans-serif" font-size="8" fill="#ff9800">前高</text>
<rect x="614.0" y="148.7488986784141" width="8" height="8" fill="#ff9800" opacity="0.85" rx="1"/>
<text x="618.0" y="146.7488986784141" text-anchor="middle" font-family="sans-serif" font-size="8" fill="#ff9800">前高</text>
<rect x="614.0" y="148.7488986784141" width="8" height="8" fill="#2196f3" opacity="0.85" rx="1"/>
<text x="618.0" y="146.7488986784141" text-anchor="middle" font-family="sans-serif" font-size="8" fill="#2196f3">突</text>
<rect x="626.0" y="141.67180616740086" width="8" height="8" fill="#ff9800" opacity="0.85" rx="1"/>
<text x="630.0" y="139.67180616740086" text-anchor="middle" font-family="sans-serif" font-size="8" fill="#ff9800">前高</text>
<rect x="626.0" y="141.67180616740086" width="8" height="8" fill="#2196f3" opacity="0.85" rx="1"/>
<text x="630.0" y="139.67180616740086" text-anchor="middle" font-family="sans-serif" font-size="8" fill="#2196f3">突</text>
<rect x="638.0" y="106.34581497797359" width="8" height="8" fill="#ff9800" opacity="0.85" rx="1"/>
<text x="642.0" y="104.34581497797359" text-anchor="middle" font-family="sans-serif" font-size="8" fill="#ff9800">前高</text>
<rect x="638.0" y="106.34581497797359" width="8" height="8" fill="#2196f3" opacity="0.85" rx="1"/>
<text x="642.0" y="104.34581497797359" text-anchor="middle" font-family="sans-serif" font-size="8" fill="#2196f3">突</text>
<rect x="650.0" y="101.23127753303967" width="8" height="8" fill="#ff9800" opacity="0.85" rx="1"/>
<text x="654.0" y="99.23127753303967" text-anchor="middle" font-family="sans-serif" font-size="8" fill="#ff9800">前高</text>
<rect x="710.0" y="73.90418502202647" width="8" height="8" fill="#ff9800" opacity="0.85" rx="1"/>
<text x="714.0" y="71.90418502202647" text-anchor="middle" font-family="sans-serif" font-size="8" fill="#ff9800">前高</text>
<rect x="710.0" y="73.90418502202647" width="8" height="8" fill="#2196f3" opacity="0.85" rx="1"/>
<text x="714.0" y="71.90418502202647" text-anchor="middle" font-family="sans-serif" font-size="8" fill="#2196f3">突</text>
<rect x="722.0" y="40.62995594713661" width="8" height="8" fill="#ff9800" opacity="0.85" rx="1"/>
<text x="726.0" y="38.62995594713661" text-anchor="middle" font-family="sans-serif" font-size="8" fill="#ff9800">前高</text>
<rect x="758.0" y="37.47797356828198" width="8" height="8" fill="#ff9800" opacity="0.85" rx="1"/>
<text x="762.0" y="35.47797356828198" text-anchor="middle" font-family="sans-serif" font-size="8" fill="#ff9800">前高</text>
<rect x="758.0" y="37.47797356828198" width="8" height="8" fill="#2196f3" opacity="0.85" rx="1"/>
<text x="762.0" y="35.47797356828198" text-anchor="middle" font-family="sans-serif" font-size="8" fill="#2196f3">突</text>
<rect x="770.0" y="26.0" width="8" height="8" fill="#ff9800" opacity="0.85" rx="1"/>
<text x="774.0" y="24.0" text-anchor="middle" font-family="sans-serif" font-size="8" fill="#ff9800">前高</text>
<text x="66.0" y="359" text-anchor="middle" font-family="sans-serif" font-size="8" fill="#666666" transform="rotate(-40,66.0,359)">02/26</text>
<text x="138.0" y="359" text-anchor="middle" font-family="sans-serif" font-size="8" fill="#666666" transform="rotate(-40,138.0,359)">03/06</text>
<text x="210.0" y="359" text-anchor="middle" font-family="sans-serif" font-size="8" fill="#666666" transform="rotate(-40,210.0,359)">03/16</text>
<text x="282.0" y="359" text-anchor="middle" font-family="sans-serif" font-size="8" fill="#666666" transform="rotate(-40,282.0,359)">03/24</text>
<text x="354.0" y="359" text-anchor="middle" font-family="sans-serif" font-size="8" fill="#666666" transform="rotate(-40,354.0,359)">04/01</text>
<text x="426.0" y="359" text-anchor="middle" font-family="sans-serif" font-size="8" fill="#666666" transform="rotate(-40,426.0,359)">04/10</text>
<text x="498.0" y="359" text-anchor="middle" font-family="sans-serif" font-size="8" fill="#666666" transform="rotate(-40,498.0,359)">04/20</text>
<text x="570.0" y="359" text-anchor="middle" font-family="sans-serif" font-size="8" fill="#666666" transform="rotate(-40,570.0,359)">04/28</text>
<text x="642.0" y="359" text-anchor="middle" font-family="sans-serif" font-size="8" fill="#666666" transform="rotate(-40,642.0,359)">05/11</text>
<text x="714.0" y="359" text-anchor="middle" font-family="sans-serif" font-size="8" fill="#666666" transform="rotate(-40,714.0,359)">05/19</text>
<text x="774.0" y="359" text-anchor="middle" font-family="sans-serif" font-size="8" fill="#666666" transform="rotate(-40,774.0,359)">05/26</text>
<text x="400.0" y="396" text-anchor="middle" font-family="sans-serif" font-size="9" fill="#555555">数据截至: 2026-05-27 17:36  |  最新K线: 20260526</text>
<rect x="50" y="373" width="8" height="8" fill="#ffd700" opacity="0.8" rx="1"/>
<text x="61" y="380" font-family="sans-serif" font-size="9" fill="#888888">EMA5</text>
<rect x="150" y="373" width="8" height="8" fill="#ff6b6b" opacity="0.8" rx="1"/>
<text x="161" y="380" font-family="sans-serif" font-size="9" fill="#888888">EMA10</text>
<rect x="250" y="373" width="8" height="8" fill="#4ecdc4" opacity="0.8" rx="1"/>
<text x="261" y="380" font-family="sans-serif" font-size="9" fill="#888888">EMA20</text>
<rect x="350" y="373" width="8" height="8" fill="#2196f3" opacity="0.8" rx="1"/>
<text x="361" y="380" font-family="sans-serif" font-size="9" fill="#888888">突破</text>
<rect x="450" y="373" width="8" height="8" fill="#ff9800" opacity="0.8" rx="1"/>
<text x="461" y="380" font-family="sans-serif" font-size="9" fill="#888888">前高/量</text>
<rect x="550" y="373" width="8" height="8" fill="#4caf50" opacity="0.8" rx="1"/>
<text x="561" y="380" font-family="sans-serif" font-size="9" fill="#888888">前低</text>
</svg>