<svg xmlns="http://www.w3.org/2000/svg" width="800" height="400" viewBox="0 0 800 400">
<rect width="800" height="400" fill="#1a1a2e"/>
<text x="400.0" y="20" text-anchor="middle" font-family="sans-serif" font-size="14" fill="#ffffff" font-weight="bold">金钼股份(601958) K线图</text>
<line x1="60" y1="30.0" x2="780" y2="30.0" stroke="#2a2a4e" stroke-width="0.5"/>
<text x="55" y="33.0" text-anchor="end" font-family="sans-serif" font-size="8" fill="#666666">27.65</text>
<line x1="60" y1="84.00000000000004" x2="780" y2="84.00000000000004" stroke="#2a2a4e" stroke-width="0.5"/>
<text x="55" y="87.00000000000004" text-anchor="end" font-family="sans-serif" font-size="8" fill="#666666">25.61</text>
<line x1="60" y1="137.99999999999997" x2="780" y2="137.99999999999997" stroke="#2a2a4e" stroke-width="0.5"/>
<text x="55" y="140.99999999999997" text-anchor="end" font-family="sans-serif" font-size="8" fill="#666666">23.58</text>
<line x1="60" y1="192.00000000000003" x2="780" y2="192.00000000000003" stroke="#2a2a4e" stroke-width="0.5"/>
<text x="55" y="195.00000000000003" text-anchor="end" font-family="sans-serif" font-size="8" fill="#666666">21.54</text>
<line x1="60" y1="245.99999999999994" x2="780" y2="245.99999999999994" stroke="#2a2a4e" stroke-width="0.5"/>
<text x="55" y="248.99999999999994" text-anchor="end" font-family="sans-serif" font-size="8" fill="#666666">19.51</text>
<line x1="60" y1="300.0" x2="780" y2="300.0" stroke="#2a2a4e" stroke-width="0.5"/>
<text x="55" y="303.0" text-anchor="end" font-family="sans-serif" font-size="8" fill="#666666">17.47</text>
<line x1="60" y1="300" x2="780" y2="300" stroke="#2a2a4e" stroke-width="0.5"/>
<line x1="60" y1="345" x2="780" y2="345" stroke="#2a2a4e" stroke-width="0.5"/>
<rect x="61.8" y="317.50217483269296" width="7.199999999999999" height="27.49782516730704" fill="#ff4444" opacity="0.3"/>
<rect x="73.8" y="306.9455130855747" width="7.199999999999999" height="38.0544869144253" fill="#ff4444" opacity="0.3"/>
<rect x="85.8" y="305.17928255171887" width="7.199999999999999" height="39.82071744828113" fill="#44aa44" opacity="0.3"/>
<rect x="97.8" y="315.3101939616784" width="7.199999999999999" height="29.689806038321592" fill="#ff4444" opacity="0.3"/>
<rect x="109.8" y="320.8533216494058" width="7.199999999999999" height="24.146678350594186" fill="#44aa44" opacity="0.3"/>
<rect x="121.8" y="320.76121529809916" width="7.199999999999999" height="24.23878470190084" fill="#44aa44" opacity="0.3"/>
<rect x="133.8" y="323.4057840212219" width="7.199999999999999" height="21.594215978778095" fill="#44aa44" opacity="0.3"/>
<rect x="145.8" y="331.1295492569785" width="7.199999999999999" height="13.870450743021479" fill="#44aa44" opacity="0.3"/>
<rect x="157.8" y="328.21045064759915" width="7.199999999999999" height="16.789549352400854" fill="#44aa44" opacity="0.3"/>
<rect x="169.8" y="329.05282656683374" width="7.199999999999999" height="15.947173433166256" fill="#44aa44" opacity="0.3"/>
<rect x="181.8" y="327.0478852833405" width="7.199999999999999" height="17.95211471665948" fill="#44aa44" opacity="0.3"/>
<rect x="193.8" y="324.8636336166315" width="7.199999999999999" height="20.13636638336851" fill="#44aa44" opacity="0.3"/>
<rect x="205.8" y="335.70180300389325" width="7.199999999999999" height="9.298196996106753" fill="#44aa44" opacity="0.3"/>
<rect x="217.8" y="335.9956559009135" width="7.199999999999999" height="9.004344099086495" fill="#44aa44" opacity="0.3"/>
<rect x="229.8" y="328.8527618387236" width="7.199999999999999" height="16.14723816127639" fill="#44aa44" opacity="0.3"/>
<rect x="241.8" y="325.4282233644622" width="7.199999999999999" height="19.571776635537788" fill="#44aa44" opacity="0.3"/>
<rect x="253.8" y="327.939749580142" width="7.199999999999999" height="17.060250419857994" fill="#44aa44" opacity="0.3"/>
<rect x="265.8" y="331.0010512354004" width="7.199999999999999" height="13.998948764599618" fill="#ff4444" opacity="0.3"/>
<rect x="277.8" y="328.58964684215886" width="7.199999999999999" height="16.410353157841143" fill="#ff4444" opacity="0.3"/>
<rect x="289.8" y="335.3048582661136" width="7.199999999999999" height="9.695141733886373" fill="#44aa44" opacity="0.3"/>
<rect x="301.8" y="331.2097039682944" width="7.199999999999999" height="13.790296031705623" fill="#ff4444" opacity="0.3"/>
<rect x="313.8" y="335.05691541133365" width="7.199999999999999" height="9.943084588666352" fill="#ff4444" opacity="0.3"/>
<rect x="325.8" y="334.47164288531513" width="7.199999999999999" height="10.528357114684866" fill="#44aa44" opacity="0.3"/>
<rect x="337.8" y="334.0641062749688" width="7.199999999999999" height="10.935893725031178" fill="#ff4444" opacity="0.3"/>
<rect x="349.8" y="334.4489920226978" width="7.199999999999999" height="10.55100797730222" fill="#44aa44" opacity="0.3"/>
<rect x="361.8" y="338.43117827425635" width="7.199999999999999" height="6.568821725743646" fill="#44aa44" opacity="0.3"/>
<rect x="373.8" y="337.03534123005676" width="7.199999999999999" height="7.964658769943242" fill="#ff4444" opacity="0.3"/>
<rect x="385.8" y="329.0691079925698" width="7.199999999999999" height="15.930892007430202" fill="#ff4444" opacity="0.3"/>
<rect x="397.8" y="334.5397743899336" width="7.199999999999999" height="10.460225610066402" fill="#44aa44" opacity="0.3"/>
<rect x="409.8" y="334.45124637395355" width="7.199999999999999" height="10.548753626046448" fill="#44aa44" opacity="0.3"/>
<rect x="421.8" y="336.2441712893458" width="7.199999999999999" height="8.755828710654214" fill="#ff4444" opacity="0.3"/>
<rect x="433.8" y="334.3718073297031" width="7.199999999999999" height="10.628192670296926" fill="#ff4444" opacity="0.3"/>
<rect x="445.8" y="332.98373527316215" width="7.199999999999999" height="12.016264726837846" fill="#44aa44" opacity="0.3"/>
<rect x="457.8" y="333.09906502073846" width="7.199999999999999" height="11.900934979261535" fill="#ff4444" opacity="0.3"/>
<rect x="469.8" y="333.54932695488435" width="7.199999999999999" height="11.45067304511565" fill="#ff4444" opacity="0.3"/>
<rect x="481.8" y="328.3731575548996" width="7.199999999999999" height="16.626842445100408" fill="#ff4444" opacity="0.3"/>
<rect x="493.8" y="333.3912003168019" width="7.199999999999999" height="11.608799683198072" fill="#ff4444" opacity="0.3"/>
<rect x="505.8" y="327.03936884526325" width="7.199999999999999" height="17.960631154736745" fill="#ff4444" opacity="0.3"/>
<rect x="517.8" y="324.8544372948421" width="7.199999999999999" height="20.145562705157886" fill="#44aa44" opacity="0.3"/>
<rect x="529.8" y="334.0865782208199" width="7.199999999999999" height="10.913421779180112" fill="#ff4444" opacity="0.3"/>
<rect x="541.8" y="334.9728603145118" width="7.199999999999999" height="10.02713968548818" fill="#44aa44" opacity="0.3"/>
<rect x="553.8" y="330.9773626555383" width="7.199999999999999" height="14.022637344461714" fill="#44aa44" opacity="0.3"/>
<rect x="565.8" y="329.57372484032675" width="7.199999999999999" height="15.426275159673253" fill="#ff4444" opacity="0.3"/>
<rect x="577.8" y="333.96162275121503" width="7.199999999999999" height="11.038377248784968" fill="#44aa44" opacity="0.3"/>
<rect x="589.8" y="327.53811722308456" width="7.199999999999999" height="17.461882776915445" fill="#ff4444" opacity="0.3"/>
<rect x="601.8" y="329.68604878622864" width="7.199999999999999" height="15.313951213771361" fill="#ff4444" opacity="0.3"/>
<rect x="613.8" y="331.04306089213463" width="7.199999999999999" height="13.956939107865367" fill="#ff4444" opacity="0.3"/>
<rect x="625.8" y="328.4618287042927" width="7.199999999999999" height="16.538171295707286" fill="#ff4444" opacity="0.3"/>
<rect x="637.8" y="315.82944620092115" width="7.199999999999999" height="29.170553799078846" fill="#ff4444" opacity="0.3"/>
<rect x="649.8" y="317.89750931957553" width="7.199999999999999" height="27.102490680424467" fill="#ff4444" opacity="0.3"/>
<rect x="661.8" y="323.35239525814904" width="7.199999999999999" height="21.647604741850955" fill="#44aa44" opacity="0.3"/>
<rect x="673.8" y="323.18417771444564" width="7.199999999999999" height="21.81582228555436" fill="#44aa44" opacity="0.3"/>
<rect x="685.8" y="324.5508513257335" width="7.199999999999999" height="20.449148674266496" fill="#ff4444" opacity="0.3"/>
<rect x="697.8" y="327.7537119265121" width="7.199999999999999" height="17.246288073487904" fill="#44aa44" opacity="0.3"/>
<rect x="709.8" y="330.565925659686" width="7.199999999999999" height="14.434074340313998" fill="#ff4444" opacity="0.3"/>
<rect x="721.8" y="321.94857852617116" width="7.199999999999999" height="23.05142147382884" fill="#44aa44" opacity="0.3"/>
<rect x="733.8" y="328.92550939591337" width="7.199999999999999" height="16.074490604086634" fill="#ff4444" opacity="0.3"/>
<rect x="745.8" y="327.36120432453754" width="7.199999999999999" height="17.63879567546246" fill="#44aa44" opacity="0.3"/>
<rect x="757.8" y="315.6418340797476" width="7.199999999999999" height="29.358165920252418" fill="#ff4444" opacity="0.3"/>
<rect x="769.8" y="300.0" width="7.199999999999999" height="45.0" fill="#ff4444" opacity="0.3"/>
<polyline points="66.0,112.75 78.0,95.51 90.0,94.10 102.0,87.76 114.0,91.76 126.0,98.31 138.0,107.90 150.0,114.56 162.0,126.15 174.0,136.80 186.0,152.21 198.0,165.05 210.0,177.77 222.0,188.19 234.0,208.57 246.0,226.05 258.0,249.11 270.0,259.62 282.0,262.21 294.0,268.08 306.0,267.05 318.0,266.19 330.0,267.47 342.0,263.64 354.0,265.06 366.0,268.13 378.0,267.61 390.0,258.43 402.0,256.55 414.0,258.13 426.0,259.44 438.0,256.96 450.0,257.16 462.0,252.43 474.0,249.28 486.0,244.08 498.0,240.09 510.0,232.48 522.0,237.66 534.0,238.99 546.0,244.21 558.0,252.90 570.0,247.91 582.0,246.62 594.0,237.01 606.0,227.77 618.0,220.99 630.0,214.00 642.0,196.87 654.0,179.00 666.0,177.78 678.0,186.96 690.0,188.48 702.0,194.53 714.0,198.22 726.0,199.87 738.0,195.06 750.0,197.77 762.0,180.92 774.0,159.26" fill="none" stroke="#ffd700" stroke-width="0.8" opacity="0.7"/>
<polyline points="66.0,112.75 78.0,103.35 90.0,101.15 102.0,96.41 114.0,97.02 126.0,99.64 138.0,104.63 150.0,108.85 162.0,116.22 174.0,123.83 186.0,134.60 198.0,144.80 210.0,155.42 222.0,165.17 234.0,180.47 246.0,195.11 258.0,213.32 270.0,225.56 282.0,233.16 294.0,241.65 306.0,245.89 318.0,249.27 330.0,253.04 342.0,253.58 354.0,256.18 366.0,259.47 378.0,260.76 390.0,257.00 402.0,256.23 414.0,257.15 426.0,258.05 438.0,256.95 450.0,257.06 462.0,254.50 474.0,252.40 486.0,249.00 498.0,245.93 510.0,240.71 522.0,242.04 534.0,241.97 546.0,244.28 558.0,249.01 570.0,246.99 582.0,246.46 594.0,241.24 606.0,235.43 618.0,230.34 630.0,224.83 642.0,213.52 654.0,200.74 666.0,196.12 678.0,197.79 690.0,196.65 702.0,198.47 714.0,199.76 726.0,200.39 738.0,197.67 750.0,198.67 762.0,189.32 774.0,175.97" fill="none" stroke="#ff6b6b" stroke-width="0.8" opacity="0.7"/>
<polyline points="66.0,112.75 78.0,107.82 90.0,106.25 102.0,103.28 114.0,102.94 126.0,103.75 138.0,105.97 150.0,108.06 162.0,111.99 174.0,116.38 186.0,122.73 198.0,129.21 210.0,136.25 222.0,143.18 234.0,153.29 246.0,163.55 258.0,176.09 270.0,186.05 282.0,193.80 294.0,201.99 306.0,207.99 318.0,213.37 330.0,218.76 342.0,222.31 354.0,226.65 366.0,231.19 378.0,234.56 390.0,235.08 402.0,236.77 414.0,239.10 426.0,241.29 438.0,242.31 450.0,243.76 462.0,243.69 474.0,243.62 486.0,242.67 498.0,241.67 510.0,239.34 522.0,240.17 534.0,240.31 546.0,241.67 558.0,244.40 570.0,243.78 582.0,243.81 594.0,241.33 606.0,238.28 618.0,235.34 630.0,231.98 642.0,225.37 654.0,217.55 666.0,213.53 678.0,212.75 690.0,210.73 702.0,210.34 714.0,209.88 726.0,209.25 738.0,206.98 750.0,206.62 762.0,200.96 774.0,192.86" fill="none" stroke="#4ecdc4" stroke-width="0.8" opacity="0.7"/>
<line x1="66.0" y1="112.75049115913549" x2="66.0" y2="175.07858546168956" stroke="#ff4444" stroke-width="0.5" opacity="0.6"/>
<rect x="63.0" y="112.75049115913549" width="6.0" height="61.797642436149346" fill="#ff4444" opacity="0.85"/>
<line x1="78.0" y1="49.09626719056971" x2="78.0" y2="126.27701375245577" stroke="#ff4444" stroke-width="0.5" opacity="0.6"/>
<rect x="75.0" y="61.03143418467579" width="6.0" height="31.031434184675874" fill="#ff4444" opacity="0.85"/>
<line x1="90.0" y1="30.0" x2="90.0" y2="94.7151277013752" stroke="#44aa44" stroke-width="0.5" opacity="0.6"/>
<rect x="87.0" y="73.76227897838896" width="6.0" height="17.504911591355608" fill="#44aa44" opacity="0.85"/>
<line x1="102.0" y1="44.85265225933199" x2="102.0" y2="124.95088408644398" stroke="#ff4444" stroke-width="0.5" opacity="0.6"/>
<rect x="99.0" y="75.08840864440077" width="6.0" height="49.862475442043205" fill="#ff4444" opacity="0.85"/>
<line x1="114.0" y1="52.54420432220034" x2="114.0" y2="108.24165029469548" stroke="#44aa44" stroke-width="0.5" opacity="0.6"/>
<rect x="111.0" y="56.52259332023576" width="6.0" height="43.23182711198426" fill="#44aa44" opacity="0.85"/>
<line x1="126.0" y1="70.57956777996066" x2="126.0" y2="113.5461689587426" stroke="#44aa44" stroke-width="0.5" opacity="0.6"/>
<rect x="123.0" y="100.28487229862472" width="6.0" height="11.139489194499063" fill="#44aa44" opacity="0.85"/>
<line x1="138.0" y1="118.32023575638503" x2="138.0" y2="156.51277013752457" stroke="#44aa44" stroke-width="0.5" opacity="0.6"/>
<rect x="135.0" y="121.50294695481334" width="6.0" height="5.569744597249539" fill="#44aa44" opacity="0.85"/>
<line x1="150.0" y1="120.44204322200393" x2="150.0" y2="138.47740667976424" stroke="#44aa44" stroke-width="0.5" opacity="0.6"/>
<rect x="147.0" y="121.23772102161094" width="6.0" height="6.630648330058946" fill="#44aa44" opacity="0.85"/>
<line x1="162.0" y1="119.11591355599214" x2="162.0" y2="151.2082514734774" stroke="#44aa44" stroke-width="0.5" opacity="0.6"/>
<rect x="159.0" y="124.15520628683686" width="6.0" height="25.196463654224033" fill="#44aa44" opacity="0.85"/>
<line x1="174.0" y1="134.76424361493122" x2="174.0" y2="166.59135559921413" stroke="#44aa44" stroke-width="0.5" opacity="0.6"/>
<rect x="171.0" y="150.67779960707264" width="6.0" height="7.426326129666023" fill="#44aa44" opacity="0.85"/>
<line x1="186.0" y1="152.00392927308442" x2="186.0" y2="185.68762278978383" stroke="#44aa44" stroke-width="0.5" opacity="0.6"/>
<rect x="183.0" y="158.63457760314336" width="6.0" height="24.40078585461694" fill="#44aa44" opacity="0.85"/>
<line x1="198.0" y1="179.852652259332" x2="198.0" y2="216.4538310412573" stroke="#44aa44" stroke-width="0.5" opacity="0.6"/>
<rect x="195.0" y="183.30058939096259" width="6.0" height="7.426326129666052" fill="#44aa44" opacity="0.85"/>
<line x1="210.0" y1="182.5049115913556" x2="210.0" y2="204.25343811394893" stroke="#44aa44" stroke-width="0.5" opacity="0.6"/>
<rect x="207.0" y="185.1571709233791" width="6.0" height="18.035363457760326" fill="#44aa44" opacity="0.85"/>
<line x1="222.0" y1="196.2966601178782" x2="222.0" y2="218.0451866404715" stroke="#44aa44" stroke-width="0.5" opacity="0.6"/>
<rect x="219.0" y="201.0707269155206" width="6.0" height="7.95677799607077" fill="#44aa44" opacity="0.85"/>
<line x1="234.0" y1="218.84086444007852" x2="234.0" y2="251.72888015717092" stroke="#44aa44" stroke-width="0.5" opacity="0.6"/>
<rect x="231.0" y="220.96267190569742" width="6.0" height="28.379174852652284" fill="#44aa44" opacity="0.85"/>
<line x1="246.0" y1="239.52848722986244" x2="246.0" y2="266.8467583497053" stroke="#44aa44" stroke-width="0.5" opacity="0.6"/>
<rect x="243.0" y="249.60707269155202" width="6.0" height="11.404715127701394" fill="#44aa44" opacity="0.85"/>
<line x1="258.0" y1="272.4165029469547" x2="258.0" y2="300.0" stroke="#44aa44" stroke-width="0.5" opacity="0.6"/>
<rect x="255.0" y="285.67779960707264" width="6.0" height="9.548133595284924" fill="#44aa44" opacity="0.85"/>
<line x1="270.0" y1="280.3732809430255" x2="270.0" y2="299.7347740667976" stroke="#ff4444" stroke-width="0.5" opacity="0.6"/>
<rect x="267.0" y="280.6385068762279" width="6.0" height="2.6522593320235046" fill="#ff4444" opacity="0.85"/>
<line x1="282.0" y1="258.88998035363454" x2="282.0" y2="273.21218074656184" stroke="#ff4444" stroke-width="0.5" opacity="0.6"/>
<rect x="279.0" y="267.37721021611003" width="6.0" height="2.6522593320235046" fill="#ff4444" opacity="0.85"/>
<line x1="294.0" y1="265.2554027504911" x2="294.0" y2="282.229862475442" stroke="#44aa44" stroke-width="0.5" opacity="0.6"/>
<rect x="291.0" y="267.9076620825147" width="6.0" height="11.935166994106055" fill="#44aa44" opacity="0.85"/>
<line x1="306.0" y1="258.35952848722985" x2="306.0" y2="288.86051080550095" stroke="#ff4444" stroke-width="0.5" opacity="0.6"/>
<rect x="303.0" y="264.9901768172888" width="6.0" height="23.074656188605047" fill="#ff4444" opacity="0.85"/>
<line x1="318.0" y1="259.68565815324166" x2="318.0" y2="274.8035363457759" stroke="#ff4444" stroke-width="0.5" opacity="0.6"/>
<rect x="315.0" y="264.4597249508841" width="6.0" height="0.5304518664046896" fill="#ff4444" opacity="0.85"/>
<line x1="330.0" y1="258.0943025540274" x2="330.0" y2="274.0078585461689" stroke="#44aa44" stroke-width="0.5" opacity="0.6"/>
<rect x="327.0" y="258.35952848722985" width="6.0" height="11.669941060903682" fill="#44aa44" opacity="0.85"/>
<line x1="342.0" y1="252.78978388998033" x2="342.0" y2="265.7858546168958" stroke="#ff4444" stroke-width="0.5" opacity="0.6"/>
<rect x="339.0" y="255.97249508840864" width="6.0" height="2.1218074656187866" fill="#ff4444" opacity="0.85"/>
<line x1="354.0" y1="258.35952848722985" x2="354.0" y2="272.1512770137524" stroke="#44aa44" stroke-width="0.5" opacity="0.6"/>
<rect x="351.0" y="258.35952848722985" width="6.0" height="9.548133595284867" fill="#44aa44" opacity="0.85"/>
<line x1="366.0" y1="265.2554027504911" x2="366.0" y2="277.9862475442043" stroke="#44aa44" stroke-width="0.5" opacity="0.6"/>
<rect x="363.0" y="266.8467583497053" width="6.0" height="7.426326129665995" fill="#44aa44" opacity="0.85"/>
<line x1="378.0" y1="264.4597249508841" x2="378.0" y2="277.19056974459727" stroke="#ff4444" stroke-width="0.5" opacity="0.6"/>
<rect x="375.0" y="266.5815324165029" width="6.0" height="3.447937131630624" fill="#ff4444" opacity="0.85"/>
<line x1="390.0" y1="238.73280943025534" x2="390.0" y2="254.38113948919442" stroke="#ff4444" stroke-width="0.5" opacity="0.6"/>
<rect x="387.0" y="240.05893909626715" width="6.0" height="8.752455795677832" fill="#ff4444" opacity="0.85"/>
<line x1="402.0" y1="244.56777996070727" x2="402.0" y2="256.50294695481335" stroke="#44aa44" stroke-width="0.5" opacity="0.6"/>
<rect x="399.0" y="250.4027504911591" width="6.0" height="2.3870333988212167" fill="#44aa44" opacity="0.85"/>
<line x1="414.0" y1="246.68958742632609" x2="414.0" y2="261.2770137524558" stroke="#44aa44" stroke-width="0.5" opacity="0.6"/>
<rect x="411.0" y="249.3418467583497" width="6.0" height="11.935166994106083" fill="#44aa44" opacity="0.85"/>
<line x1="426.0" y1="258.35952848722985" x2="426.0" y2="268.7033398821218" stroke="#ff4444" stroke-width="0.5" opacity="0.6"/>
<rect x="423.0" y="262.0726915520629" width="6.0" height="2.6522593320235046" fill="#ff4444" opacity="0.85"/>
<line x1="438.0" y1="244.8330058939096" x2="438.0" y2="257.82907662082516" stroke="#ff4444" stroke-width="0.5" opacity="0.6"/>
<rect x="435.0" y="251.9941060903732" width="6.0" height="2.6522593320236467" fill="#ff4444" opacity="0.85"/>
<line x1="450.0" y1="236.87622789783885" x2="450.0" y2="258.62475442043217" stroke="#44aa44" stroke-width="0.5" opacity="0.6"/>
<rect x="447.0" y="245.893909626719" width="6.0" height="11.669941060903739" fill="#44aa44" opacity="0.85"/>
<line x1="462.0" y1="239.79371316306484" x2="462.0" y2="257.82907662082516" stroke="#ff4444" stroke-width="0.5" opacity="0.6"/>
<rect x="459.0" y="242.97642436149306" width="6.0" height="14.322200392927357" fill="#ff4444" opacity="0.85"/>
<line x1="474.0" y1="234.4891944990176" x2="474.0" y2="248.0157170923379" stroke="#ff4444" stroke-width="0.5" opacity="0.6"/>
<rect x="471.0" y="242.97642436149306" width="6.0" height="3.1827111984283363" fill="#ff4444" opacity="0.85"/>
<line x1="486.0" y1="224.94106090373276" x2="486.0" y2="245.62868369351668" stroke="#ff4444" stroke-width="0.5" opacity="0.6"/>
<rect x="483.0" y="233.69351669941062" width="6.0" height="9.282907662082437" fill="#ff4444" opacity="0.85"/>
<line x1="498.0" y1="226.53241650294694" x2="498.0" y2="243.24165029469546" stroke="#ff4444" stroke-width="0.5" opacity="0.6"/>
<rect x="495.0" y="232.10216110019638" width="6.0" height="0.5" fill="#ff4444" opacity="0.85"/>
<line x1="510.0" y1="210.08840864440077" x2="510.0" y2="236.61100196463653" stroke="#ff4444" stroke-width="0.5" opacity="0.6"/>
<rect x="507.0" y="217.2495088408644" width="6.0" height="18.300589390962728" fill="#ff4444" opacity="0.85"/>
<line x1="522.0" y1="210.35363457760306" x2="522.0" y2="251.46365422396852" stroke="#44aa44" stroke-width="0.5" opacity="0.6"/>
<rect x="519.0" y="213.00589390962668" width="6.0" height="35.009823182711216" fill="#44aa44" opacity="0.85"/>
<line x1="534.0" y1="236.61100196463653" x2="534.0" y2="259.9508840864439" stroke="#ff4444" stroke-width="0.5" opacity="0.6"/>
<rect x="531.0" y="241.65029469548128" width="6.0" height="9.017681728880206" fill="#ff4444" opacity="0.85"/>
<line x1="546.0" y1="241.91552062868365" x2="546.0" y2="255.70726915520623" stroke="#44aa44" stroke-width="0.5" opacity="0.6"/>
<rect x="543.0" y="243.77210216110015" width="6.0" height="10.874263261296704" fill="#44aa44" opacity="0.85"/>
<line x1="558.0" y1="254.64636542239685" x2="558.0" y2="276.66011787819247" stroke="#44aa44" stroke-width="0.5" opacity="0.6"/>
<rect x="555.0" y="259.4204322200393" width="6.0" height="10.874263261296619" fill="#44aa44" opacity="0.85"/>
<line x1="570.0" y1="234.2239685658153" x2="570.0" y2="270.5599214145383" stroke="#ff4444" stroke-width="0.5" opacity="0.6"/>
<rect x="567.0" y="237.93713163064834" width="6.0" height="32.35756385068757" fill="#ff4444" opacity="0.85"/>
<line x1="582.0" y1="238.73280943025534" x2="582.0" y2="251.46365422396852" stroke="#44aa44" stroke-width="0.5" opacity="0.6"/>
<rect x="579.0" y="239.52848722986244" width="6.0" height="4.508840864440145" fill="#44aa44" opacity="0.85"/>
<line x1="594.0" y1="215.3929273084479" x2="594.0" y2="243.50687622789778" stroke="#ff4444" stroke-width="0.5" opacity="0.6"/>
<rect x="591.0" y="217.7799607072691" width="6.0" height="24.40078585461697" fill="#ff4444" opacity="0.85"/>
<line x1="606.0" y1="199.4793713163064" x2="606.0" y2="217.2495088408644" stroke="#ff4444" stroke-width="0.5" opacity="0.6"/>
<rect x="603.0" y="209.29273084479365" width="6.0" height="1.0609037328094075" fill="#ff4444" opacity="0.85"/>
<line x1="618.0" y1="204.78388998035362" x2="618.0" y2="223.08447937131626" stroke="#ff4444" stroke-width="0.5" opacity="0.6"/>
<rect x="615.0" y="207.43614931237715" width="6.0" height="6.100196463654214" fill="#ff4444" opacity="0.85"/>
<line x1="630.0" y1="197.62278978389" x2="630.0" y2="211.67976424361487" stroke="#ff4444" stroke-width="0.5" opacity="0.6"/>
<rect x="627.0" y="200.00982318271122" width="6.0" height="6.36542239685653" fill="#ff4444" opacity="0.85"/>
<line x1="642.0" y1="151.73870333988214" x2="642.0" y2="193.11394891944985" stroke="#ff4444" stroke-width="0.5" opacity="0.6"/>
<rect x="639.0" y="162.61296660117878" width="6.0" height="25.992141453830953" fill="#ff4444" opacity="0.85"/>
<line x1="654.0" y1="126.80746561886048" x2="654.0" y2="158.36935166994107" stroke="#ff4444" stroke-width="0.5" opacity="0.6"/>
<rect x="651.0" y="143.25147347740668" width="6.0" height="13.261296660117893" fill="#ff4444" opacity="0.85"/>
<line x1="666.0" y1="145.6385068762279" x2="666.0" y2="175.60903732809427" stroke="#44aa44" stroke-width="0.5" opacity="0.6"/>
<rect x="663.0" y="145.6385068762279" width="6.0" height="29.70530451866398" fill="#44aa44" opacity="0.85"/>
<line x1="678.0" y1="176.66994106090368" x2="678.0" y2="211.67976424361487" stroke="#44aa44" stroke-width="0.5" opacity="0.6"/>
<rect x="675.0" y="183.56581532416502" width="6.0" height="21.748526522593323" fill="#44aa44" opacity="0.85"/>
<line x1="690.0" y1="177.46561886051077" x2="690.0" y2="228.91944990176816" stroke="#ff4444" stroke-width="0.5" opacity="0.6"/>
<rect x="687.0" y="191.52259332023576" width="6.0" height="29.440078585461663" fill="#ff4444" opacity="0.85"/>
<line x1="702.0" y1="192.31827111984276" x2="702.0" y2="218.0451866404715" stroke="#44aa44" stroke-width="0.5" opacity="0.6"/>
<rect x="699.0" y="193.11394891944985" width="6.0" height="13.526522593320294" fill="#44aa44" opacity="0.85"/>
<line x1="714.0" y1="197.0923379174852" x2="714.0" y2="228.12377210216107" stroke="#ff4444" stroke-width="0.5" opacity="0.6"/>
<rect x="711.0" y="205.57956777996063" width="6.0" height="8.222003929273171" fill="#ff4444" opacity="0.85"/>
<line x1="726.0" y1="166.59135559921413" x2="726.0" y2="204.51866404715125" stroke="#44aa44" stroke-width="0.5" opacity="0.6"/>
<rect x="723.0" y="197.0923379174852" width="6.0" height="6.1001964636542425" fill="#44aa44" opacity="0.85"/>
<line x1="738.0" y1="179.852652259332" x2="738.0" y2="195.50098231827107" stroke="#ff4444" stroke-width="0.5" opacity="0.6"/>
<rect x="735.0" y="185.4223968565815" width="6.0" height="7.69155206286834" fill="#ff4444" opacity="0.85"/>
<line x1="750.0" y1="172.69155206286834" x2="750.0" y2="206.64047151277015" stroke="#44aa44" stroke-width="0.5" opacity="0.6"/>
<rect x="747.0" y="185.1571709233791" width="6.0" height="18.035363457760326" fill="#44aa44" opacity="0.85"/>
<line x1="762.0" y1="147.229862475442" x2="762.0" y2="217.51473477406682" stroke="#ff4444" stroke-width="0.5" opacity="0.6"/>
<rect x="759.0" y="147.229862475442" width="6.0" height="59.145383104125756" fill="#ff4444" opacity="0.85"/>
<line x1="774.0" y1="105.58939096267186" x2="774.0" y2="138.47740667976424" stroke="#ff4444" stroke-width="0.5" opacity="0.6"/>
<rect x="771.0" y="115.9332023575638" width="6.0" height="13.79174852652261" fill="#ff4444" opacity="0.85"/>
<rect x="182.0" y="181.68762278978383" width="8" height="8" fill="#4caf50" opacity="0.85" rx="1"/>
<text x="186.0" y="179.68762278978383" text-anchor="middle" font-family="sans-serif" font-size="8" fill="#4caf50">前低</text>
<rect x="194.0" y="212.4538310412573" width="8" height="8" fill="#4caf50" opacity="0.85" rx="1"/>
<text x="198.0" y="210.4538310412573" text-anchor="middle" font-family="sans-serif" font-size="8" fill="#4caf50">前低</text>
<rect x="218.0" y="214.0451866404715" width="8" height="8" fill="#4caf50" opacity="0.85" rx="1"/>
<text x="222.0" y="212.0451866404715" text-anchor="middle" font-family="sans-serif" font-size="8" fill="#4caf50">前低</text>
<rect x="230.0" y="247.72888015717092" width="8" height="8" fill="#4caf50" opacity="0.85" rx="1"/>
<text x="234.0" y="245.72888015717092" text-anchor="middle" font-family="sans-serif" font-size="8" fill="#4caf50">前低</text>
<rect x="242.0" y="262.8467583497053" width="8" height="8" fill="#4caf50" opacity="0.85" rx="1"/>
<text x="246.0" y="260.8467583497053" text-anchor="middle" font-family="sans-serif" font-size="8" fill="#4caf50">前低</text>
<rect x="254.0" y="296.0" width="8" height="8" fill="#4caf50" opacity="0.85" rx="1"/>
<text x="258.0" y="294.0" text-anchor="middle" font-family="sans-serif" font-size="8" fill="#4caf50">前低</text>
<rect x="386.0" y="234.73280943025534" width="8" height="8" fill="#ff9800" opacity="0.85" rx="1"/>
<text x="390.0" y="232.73280943025534" text-anchor="middle" font-family="sans-serif" font-size="8" fill="#ff9800">前高</text>
<rect x="386.0" y="234.73280943025534" width="8" height="8" fill="#2196f3" opacity="0.85" rx="1"/>
<text x="390.0" y="232.73280943025534" text-anchor="middle" font-family="sans-serif" font-size="8" fill="#2196f3">突</text>
<rect x="446.0" y="232.87622789783885" width="8" height="8" fill="#ff9800" opacity="0.85" rx="1"/>
<text x="450.0" y="230.87622789783885" text-anchor="middle" font-family="sans-serif" font-size="8" fill="#ff9800">前高</text>
<rect x="470.0" y="230.4891944990176" width="8" height="8" fill="#ff9800" opacity="0.85" rx="1"/>
<text x="474.0" y="228.4891944990176" text-anchor="middle" font-family="sans-serif" font-size="8" fill="#ff9800">前高</text>
<rect x="482.0" y="220.94106090373276" width="8" height="8" fill="#ff9800" opacity="0.85" rx="1"/>
<text x="486.0" y="218.94106090373276" text-anchor="middle" font-family="sans-serif" font-size="8" fill="#ff9800">前高</text>
<rect x="506.0" y="206.08840864440077" width="8" height="8" fill="#ff9800" opacity="0.85" rx="1"/>
<text x="510.0" y="204.08840864440077" text-anchor="middle" font-family="sans-serif" font-size="8" fill="#ff9800">前高</text>
<rect x="506.0" y="206.08840864440077" width="8" height="8" fill="#2196f3" opacity="0.85" rx="1"/>
<text x="510.0" y="204.08840864440077" text-anchor="middle" font-family="sans-serif" font-size="8" fill="#2196f3">突</text>
<rect x="554.0" y="272.66011787819247" width="8" height="8" fill="#4caf50" opacity="0.85" rx="1"/>
<text x="558.0" y="270.66011787819247" text-anchor="middle" font-family="sans-serif" font-size="8" fill="#4caf50">前低</text>
<rect x="602.0" y="195.4793713163064" width="8" height="8" fill="#ff9800" opacity="0.85" rx="1"/>
<text x="606.0" y="193.4793713163064" text-anchor="middle" font-family="sans-serif" font-size="8" fill="#ff9800">前高</text>
<rect x="626.0" y="193.62278978389" width="8" height="8" fill="#ff9800" opacity="0.85" rx="1"/>
<text x="630.0" y="191.62278978389" text-anchor="middle" font-family="sans-serif" font-size="8" fill="#ff9800">前高</text>
<rect x="638.0" y="147.73870333988214" width="8" height="8" fill="#ff9800" opacity="0.85" rx="1"/>
<text x="642.0" y="145.73870333988214" text-anchor="middle" font-family="sans-serif" font-size="8" fill="#ff9800">前高</text>
<rect x="638.0" y="147.73870333988214" width="8" height="8" fill="#2196f3" opacity="0.85" rx="1"/>
<text x="642.0" y="145.73870333988214" text-anchor="middle" font-family="sans-serif" font-size="8" fill="#2196f3">突</text>
<rect x="650.0" y="122.80746561886048" width="8" height="8" fill="#ff9800" opacity="0.85" rx="1"/>
<text x="654.0" y="120.80746561886048" text-anchor="middle" font-family="sans-serif" font-size="8" fill="#ff9800">前高</text>
<rect x="770.0" y="101.58939096267186" width="8" height="8" fill="#ff9800" opacity="0.85" rx="1"/>
<text x="774.0" y="99.58939096267186" text-anchor="middle" font-family="sans-serif" font-size="8" fill="#ff9800">前高</text>
<rect x="770.0" y="85.14538310412566" width="8" height="8" fill="#ff9800" opacity="0.85" rx="1"/>
<text x="774.0" y="83.14538310412566" text-anchor="middle" font-family="sans-serif" font-size="8" fill="#ff9800">量</text>
<text x="66.0" y="359" text-anchor="middle" font-family="sans-serif" font-size="8" fill="#666666" transform="rotate(-40,66.0,359)">02/27</text>
<text x="138.0" y="359" text-anchor="middle" font-family="sans-serif" font-size="8" fill="#666666" transform="rotate(-40,138.0,359)">03/09</text>
<text x="210.0" y="359" text-anchor="middle" font-family="sans-serif" font-size="8" fill="#666666" transform="rotate(-40,210.0,359)">03/17</text>
<text x="282.0" y="359" text-anchor="middle" font-family="sans-serif" font-size="8" fill="#666666" transform="rotate(-40,282.0,359)">03/25</text>
<text x="354.0" y="359" text-anchor="middle" font-family="sans-serif" font-size="8" fill="#666666" transform="rotate(-40,354.0,359)">04/02</text>
<text x="426.0" y="359" text-anchor="middle" font-family="sans-serif" font-size="8" fill="#666666" transform="rotate(-40,426.0,359)">04/13</text>
<text x="498.0" y="359" text-anchor="middle" font-family="sans-serif" font-size="8" fill="#666666" transform="rotate(-40,498.0,359)">04/21</text>
<text x="570.0" y="359" text-anchor="middle" font-family="sans-serif" font-size="8" fill="#666666" transform="rotate(-40,570.0,359)">04/29</text>
<text x="642.0" y="359" text-anchor="middle" font-family="sans-serif" font-size="8" fill="#666666" transform="rotate(-40,642.0,359)">05/12</text>
<text x="714.0" y="359" text-anchor="middle" font-family="sans-serif" font-size="8" fill="#666666" transform="rotate(-40,714.0,359)">05/20</text>
<text x="774.0" y="359" text-anchor="middle" font-family="sans-serif" font-size="8" fill="#666666" transform="rotate(-40,774.0,359)">05/27</text>
<text x="400.0" y="396" text-anchor="middle" font-family="sans-serif" font-size="9" fill="#555555">数据截至: 2026-05-27 21:21  |  最新K线: 20260527</text>
<rect x="50" y="373" width="8" height="8" fill="#ffd700" opacity="0.8" rx="1"/>
<text x="61" y="380" font-family="sans-serif" font-size="9" fill="#888888">EMA5</text>
<rect x="150" y="373" width="8" height="8" fill="#ff6b6b" opacity="0.8" rx="1"/>
<text x="161" y="380" font-family="sans-serif" font-size="9" fill="#888888">EMA10</text>
<rect x="250" y="373" width="8" height="8" fill="#4ecdc4" opacity="0.8" rx="1"/>
<text x="261" y="380" font-family="sans-serif" font-size="9" fill="#888888">EMA20</text>
<rect x="350" y="373" width="8" height="8" fill="#2196f3" opacity="0.8" rx="1"/>
<text x="361" y="380" font-family="sans-serif" font-size="9" fill="#888888">突破</text>
<rect x="450" y="373" width="8" height="8" fill="#ff9800" opacity="0.8" rx="1"/>
<text x="461" y="380" font-family="sans-serif" font-size="9" fill="#888888">前高/量</text>
<rect x="550" y="373" width="8" height="8" fill="#4caf50" opacity="0.8" rx="1"/>
<text x="561" y="380" font-family="sans-serif" font-size="9" fill="#888888">前低</text>
</svg>