<svg xmlns="http://www.w3.org/2000/svg" width="750" height="540" viewBox="0 0 750 540">
<rect width="750" height="540" fill="#1a1a2e"/>
<text x="375.0" y="22" text-anchor="middle" font-family="sans-serif" font-size="15" fill="#ffffff" font-weight="bold">沃格光电(603773) 趋势交易分析图</text>
<text x="60" y="31" font-family="sans-serif" font-size="10" fill="#888888">最新: 99.99</text>
<line x1="60" y1="86.75667286467292" x2="725" y2="86.75667286467292" stroke="#4ecdc4" stroke-width="0.5" stroke-dasharray="4,3" opacity="0.4"/>
<text x="62" y="84.75667286467292" font-family="sans-serif" font-size="7" fill="#4ecdc4" opacity="0.6">买入↑2%</text>
<line x1="60" y1="56.84655283876554" x2="725" y2="56.84655283876554" stroke="#e94560" stroke-width="0.5" stroke-dasharray="4,3" opacity="0.4"/>
<text x="62" y="54.84655283876554" font-family="sans-serif" font-size="7" fill="#e94560" opacity="0.6">警戒↑8%</text>
<rect x="60" y="86.75667286467292" width="3" height="296.2433271353271" fill="#4ecdc4" opacity="0.3" rx="1"/>
<rect x="60" y="56.84655283876554" width="3" height="326.15344716123445" fill="#e94560" opacity="0.3" rx="1"/>
<rect x="60" y="56.84655283876554" width="3" height="29.910120025907382" fill="#ffd700" opacity="0.2" rx="1"/>
<line x1="60" y1="32.0" x2="725" y2="32.0" stroke="#2a2a4e" stroke-width="0.5"/>
<text x="56" y="35.0" text-anchor="end" font-family="sans-serif" font-size="8" fill="#666666">100.7</text>
<line x1="60" y1="127.75000000000004" x2="725" y2="127.75000000000004" stroke="#2a2a4e" stroke-width="0.5"/>
<text x="56" y="130.75000000000006" text-anchor="end" font-family="sans-serif" font-size="8" fill="#666666">83.6</text>
<line x1="60" y1="223.5" x2="725" y2="223.5" stroke="#2a2a4e" stroke-width="0.5"/>
<text x="56" y="226.5" text-anchor="end" font-family="sans-serif" font-size="8" fill="#666666">66.5</text>
<line x1="60" y1="319.25" x2="725" y2="319.25" stroke="#2a2a4e" stroke-width="0.5"/>
<text x="56" y="322.25" text-anchor="end" font-family="sans-serif" font-size="8" fill="#666666">49.3</text>
<line x1="60" y1="415.0" x2="725" y2="415.0" stroke="#2a2a4e" stroke-width="0.5"/>
<text x="56" y="418.0" text-anchor="end" font-family="sans-serif" font-size="8" fill="#666666">32.2</text>
<rect x="61.66250000000001" y="463.5555225046013" width="6.095833333333334" height="11.444477495398688" fill="#ff4444" opacity="0.35"/>
<rect x="72.74583333333334" y="467.37644313893173" width="6.095833333333334" height="7.623556861068248" fill="#44aa44" opacity="0.35"/>
<rect x="83.82916666666668" y="467.20654780717246" width="6.095833333333334" height="7.79345219282753" fill="#44aa44" opacity="0.35"/>
<rect x="94.91250000000001" y="470.2744241387644" width="6.095833333333334" height="4.725575861235569" fill="#ff4444" opacity="0.35"/>
<rect x="105.99583333333335" y="469.95051032739036" width="6.095833333333334" height="5.049489672609641" fill="#ff4444" opacity="0.35"/>
<rect x="117.07916666666668" y="459.7685679228095" width="6.095833333333334" height="15.231432077190505" fill="#ff4444" opacity="0.35"/>
<rect x="128.1625" y="464.1901411069178" width="6.095833333333334" height="10.809858893082227" fill="#ff4444" opacity="0.35"/>
<rect x="139.24583333333334" y="466.2830225510792" width="6.095833333333334" height="8.716977448920783" fill="#ff4444" opacity="0.35"/>
<rect x="150.32916666666668" y="461.22845749130863" width="6.095833333333334" height="13.771542508691368" fill="#ff4444" opacity="0.35"/>
<rect x="161.4125" y="459.7783282827344" width="6.095833333333334" height="15.221671717265613" fill="#44aa44" opacity="0.35"/>
<rect x="172.49583333333334" y="465.899049991634" width="6.095833333333334" height="9.100950008366024" fill="#44aa44" opacity="0.35"/>
<rect x="183.57916666666668" y="463.51869341315137" width="6.095833333333334" height="11.481306586848612" fill="#ff4444" opacity="0.35"/>
<rect x="194.6625" y="457.84480098161333" width="6.095833333333334" height="17.15519901838666" fill="#44aa44" opacity="0.35"/>
<rect x="205.74583333333334" y="466.24931677480527" width="6.095833333333334" height="8.750683225194743" fill="#ff4444" opacity="0.35"/>
<rect x="216.82916666666668" y="468.02902080351004" width="6.095833333333334" height="6.9709791964899885" fill="#ff4444" opacity="0.35"/>
<rect x="227.9125" y="466.9839465318188" width="6.095833333333334" height="8.016053468181227" fill="#44aa44" opacity="0.35"/>
<rect x="238.99583333333334" y="467.8589953336184" width="6.095833333333334" height="7.141004666381602" fill="#ff4444" opacity="0.35"/>
<rect x="250.07916666666668" y="468.6198479242968" width="6.095833333333334" height="6.380152075703211" fill="#44aa44" opacity="0.35"/>
<rect x="261.1625" y="469.52944840023054" width="6.095833333333334" height="5.470551599769469" fill="#44aa44" opacity="0.35"/>
<rect x="272.2458333333334" y="469.666093439179" width="6.095833333333334" height="5.333906560820986" fill="#44aa44" opacity="0.35"/>
<rect x="283.3291666666667" y="469.8423004703564" width="6.095833333333334" height="5.157699529643607" fill="#ff4444" opacity="0.35"/>
<rect x="294.4125" y="468.7740616111101" width="6.095833333333334" height="6.225938388889921" fill="#44aa44" opacity="0.35"/>
<rect x="305.4958333333334" y="470.4620182565209" width="6.095833333333334" height="4.5379817434791505" fill="#44aa44" opacity="0.35"/>
<rect x="316.5791666666667" y="470.37384967186597" width="6.095833333333334" height="4.626150328134005" fill="#ff4444" opacity="0.35"/>
<rect x="327.6625" y="471.63872724906577" width="6.095833333333334" height="3.3612727509342055" fill="#44aa44" opacity="0.35"/>
<rect x="338.7458333333334" y="470.68097566416924" width="6.095833333333334" height="4.319024335830746" fill="#ff4444" opacity="0.35"/>
<rect x="349.8291666666667" y="469.6442953020134" width="6.095833333333334" height="5.355704697986577" fill="#44aa44" opacity="0.35"/>
<rect x="360.9125" y="466.32004684972765" width="6.095833333333334" height="8.679953150272361" fill="#ff4444" opacity="0.35"/>
<rect x="371.9958333333334" y="460.3125453159568" width="6.095833333333334" height="14.687454684043207" fill="#ff4444" opacity="0.35"/>
<rect x="383.0791666666667" y="454.7941028834892" width="6.095833333333334" height="20.205897116510812" fill="#ff4444" opacity="0.35"/>
<rect x="394.1625" y="453.6234453140977" width="6.095833333333334" height="21.37655468590232" fill="#ff4444" opacity="0.35"/>
<rect x="405.2458333333334" y="459.01220509769655" width="6.095833333333334" height="15.987794902303445" fill="#ff4444" opacity="0.35"/>
<rect x="416.3291666666667" y="462.7116417854952" width="6.095833333333334" height="12.288358214504823" fill="#ff4444" opacity="0.35"/>
<rect x="427.4125" y="455.65145289929166" width="6.095833333333334" height="19.34854710070832" fill="#44aa44" opacity="0.35"/>
<rect x="438.4958333333334" y="460.7662719143319" width="6.095833333333334" height="14.233728085668075" fill="#ff4444" opacity="0.35"/>
<rect x="449.5791666666667" y="468.77126364126497" width="6.095833333333334" height="6.228736358735057" fill="#ff4444" opacity="0.35"/>
<rect x="460.6625" y="440.0" width="6.095833333333334" height="35.0" fill="#44aa44" opacity="0.35"/>
<rect x="471.7458333333334" y="458.7696926880961" width="6.095833333333334" height="16.23030731190392" fill="#ff4444" opacity="0.35"/>
<rect x="482.8291666666667" y="453.15481789957056" width="6.095833333333334" height="21.845182100429458" fill="#44aa44" opacity="0.35"/>
<rect x="493.9125" y="457.72520403800036" width="6.095833333333334" height="17.274795961999665" fill="#44aa44" opacity="0.35"/>
<rect x="504.9958333333334" y="466.28582052092435" width="6.095833333333334" height="8.714179479075646" fill="#ff4444" opacity="0.35"/>
<rect x="516.0791666666667" y="457.21460707579615" width="6.095833333333334" height="17.785392924203833" fill="#44aa44" opacity="0.35"/>
<rect x="527.1624999999999" y="461.6747011470747" width="6.095833333333334" height="13.32529885292532" fill="#ff4444" opacity="0.35"/>
<rect x="538.2458333333333" y="457.2166242168473" width="6.095833333333334" height="17.78337578315269" fill="#44aa44" opacity="0.35"/>
<rect x="549.3291666666667" y="452.1540556619383" width="6.095833333333334" height="22.84594433806169" fill="#44aa44" opacity="0.35"/>
<rect x="560.4124999999999" y="452.2325940248006" width="6.095833333333334" height="22.76740597519939" fill="#ff4444" opacity="0.35"/>
<rect x="571.4958333333333" y="452.79023592184274" width="6.095833333333334" height="22.209764078157246" fill="#ff4444" opacity="0.35"/>
<rect x="582.5791666666667" y="458.2624793173325" width="6.095833333333334" height="16.737520682667462" fill="#ff4444" opacity="0.35"/>
<rect x="593.6624999999999" y="450.50052055252934" width="6.095833333333334" height="24.499479447470673" fill="#44aa44" opacity="0.35"/>
<rect x="604.7458333333333" y="455.26351112681033" width="6.095833333333334" height="19.736488873189685" fill="#ff4444" opacity="0.35"/>
<rect x="615.8291666666667" y="453.5456227109632" width="6.095833333333334" height="21.454377289036792" fill="#44aa44" opacity="0.35"/>
<rect x="626.9124999999999" y="473.45552064548514" width="6.095833333333334" height="1.5444793545148636" fill="#ff4444" opacity="0.35"/>
<rect x="637.9958333333333" y="474.1975032069754" width="6.095833333333334" height="0.8024967930245961" fill="#ff4444" opacity="0.35"/>
<rect x="649.0791666666667" y="446.16373236163525" width="6.095833333333334" height="28.83626763836472" fill="#ff4444" opacity="0.35"/>
<rect x="660.1624999999999" y="453.0419230697726" width="6.095833333333334" height="21.95807693022737" fill="#ff4444" opacity="0.35"/>
<rect x="671.2458333333333" y="451.33529160237225" width="6.095833333333334" height="23.66470839762777" fill="#44aa44" opacity="0.35"/>
<rect x="682.3291666666667" y="455.2264868281619" width="6.095833333333334" height="19.773513171838108" fill="#44aa44" opacity="0.35"/>
<rect x="693.4124999999999" y="457.4774210340404" width="6.095833333333334" height="17.522578965959582" fill="#ff4444" opacity="0.35"/>
<rect x="704.4958333333333" y="461.435637397981" width="6.095833333333334" height="13.564362602019001" fill="#ff4444" opacity="0.35"/>
<rect x="715.5791666666667" y="448.50081801111753" width="6.095833333333334" height="26.499181988882484" fill="#ff4444" opacity="0.25" stroke-dasharray="3,2"/>
<polyline points="65.54166666666667,360.96494815247553 76.625,364.95511416192005 87.70833333333334,373.39537185791016 98.79166666666667,380.1036571842764 109.87500000000001,377.8447729653611 120.95833333333334,375.38792273928505 132.04166666666666,377.1062369890351 143.125,376.3126337241539 154.20833333333334,368.437184470988 165.29166666666666,365.90914776036755 176.375,365.8646058824046 187.45833333333334,363.0753572344895 198.54166666666666,369.1216076125359 209.625,371.53027090434085 220.70833333333334,375.1870663436076 231.79166666666666,379.7691780589729 242.875,383.53245335375954 253.95833333333334,386.414216261447 265.0416666666667,387.68279428870335 276.12500000000006,390.1133919959838 287.20833333333337,392.47961588983026 298.2916666666667,396.4250942016131 309.37500000000006,401.60986514760185 320.45833333333337,402.51192704012755 331.5416666666667,405.42536044435553 342.62500000000006,405.1674643846456 353.70833333333337,407.17707303847607 364.7916666666667,403.3892623625379 375.87500000000006,394.2075633509855 386.95833333333337,380.7773415378217 398.0416666666667,370.2203356710448 409.12500000000006,361.2804769329286 420.20833333333337,346.93003510634946 431.2916666666667,340.02939977344573 442.37500000000006,326.46042551470555 453.45833333333337,307.55090146528295 464.5416666666667,294.3478917611404 475.62500000000006,274.6381884901931 486.70833333333337,268.6956016350082 497.7916666666667,268.8359168876784 508.87500000000006,258.059054859056 519.9583333333334,252.23561156905276 531.0416666666666,236.5319830985156 542.125,226.79007723825873 553.2083333333334,225.05011039874952 564.2916666666666,220.5339181052761 575.375,209.78518448632738 586.4583333333334,189.04533938736031 597.5416666666666,171.99308103648858 608.625,148.8035758587057 619.7083333333334,142.25651953698053 630.7916666666666,153.4236297424376 641.875,174.85259654802297 652.9583333333334,183.09738849757198 664.0416666666666,175.48603466655715 675.125,164.33332158725636 686.2083333333334,158.8000343613207 697.2916666666666,149.107281560972 708.375,127.13227757635707 719.4583333333334,96.7267128733087" fill="none" stroke="#ffd700" stroke-width="1" opacity="0.7"/>
<polyline points="65.54166666666667,360.96494815247553 76.625,363.1414023394453 87.70833333333334,368.07494505043525 98.79166666666667,372.7013601025396 109.87500000000001,372.81511363435607 120.95833333333334,372.3894970257701 132.04166666666666,373.8719276553637 143.125,374.0271093897324 154.20833333333334,370.1469596760822 165.29166666666666,368.45716234209027 176.375,367.96959139379726 187.45833333333334,366.065458401954 198.54166666666666,368.81975839589484 209.625,370.1884564126323 220.70833333333334,372.4270383779975 231.79166666666666,375.4281953073986 242.875,378.2701605139321 253.95833333333334,380.79881170718477 265.0416666666667,382.511746004645 276.12500000000006,384.77771716935405 287.20833333333337,387.0385074435666 298.2916666666667,390.1798789674961 309.37500000000006,394.14342952605665 320.45833333333337,395.9929970349879 331.5416666666667,398.76740252913777 342.62500000000006,399.8372697538809 353.70833333333337,401.90254622520024 364.7916666666667,400.7954725498296 375.87500000000006,396.25887123674795 386.95833333333337,388.56033063215637 398.0416666666667,381.38687486948993 409.12500000000006,374.48030843080016 420.20833333333337,364.2528253439622 431.2916666666667,357.3392442100851 442.37500000000006,346.79074108047416 453.45833333333337,332.7800342233767 464.5416666666667,320.9912775196455 475.62500000000006,305.3962783248552 486.70833333333337,296.5624873429976 497.7916666666667,291.57231644300145 508.87500000000006,281.5601372355123 519.9583333333334,274.11078955433663 531.0416666666666,261.5678689367193 542.125,251.7021228605422 553.2083333333334,246.22358719857655 564.2916666666666,239.9104865294407 575.375,230.52452847834786 586.4583333333334,215.4410958803621 597.5416666666666,201.34063559934083 608.625,183.35589558184975 619.7083333333334,173.50253400215527 630.7916666666666,173.912591484191 641.875,181.87585306146428 652.9583333333334,185.09605657695624 664.0416666666666,180.58101483651467 675.125,173.57135676235833 686.2083333333334,168.87355733455672 697.2916666666666,161.75505163014176 708.375,147.46909126232094 719.4583333333334,127.18663529957387" fill="none" stroke="#ff6b6b" stroke-width="1" opacity="0.7"/>
<polyline points="65.54166666666667,360.96494815247553 76.625,362.1049955837454 87.70833333333334,364.7879376471878 98.79166666666667,367.52434623669456 109.87500000000001,368.0769803596313 120.95833333333334,368.3052891146314 132.04166666666666,369.4707725788128 143.125,369.9712158755346 154.20833333333334,368.32503207449855 165.29166666666666,367.6134170520821 176.375,367.4383794401199 187.45833333333334,366.4915680590284 198.54166666666666,367.89371475518084 209.625,368.698846444016 220.70833333333334,370.0133046133613 231.79166666666666,371.8152186015843 242.875,373.64796006270325 253.95833333333334,375.41270120690507 265.0416666666667,376.82291541036324 276.12500000000006,378.55164607704717 287.20833333333337,380.3288287056639 298.2916666666667,382.6133260503796 309.37500000000006,385.41009566839864 320.45833333333337,387.2106628261872 331.5416666666667,389.50033562872284 342.62500000000006,390.94332007029453 353.70833333333337,392.87217438227947 364.7916666666667,393.15231406117306 375.87500000000006,391.50391894371654 386.95833333333337,387.92420265493354 398.0416666666667,384.22726182470086 409.12500000000006,380.33902350393856 420.20833333333337,374.42379759434357 431.2916666666667,369.83373392894305 442.37500000000006,363.1183761259223 453.45833333333337,354.22442157739994 464.5416666666667,346.0070359369671 475.62500000000006,335.455773652332 486.70833333333337,327.96574072588504 497.7916666666667,322.36105564656447 508.87500000000006,314.1843199470641 519.9583333333334,307.1752156653481 531.0416666666666,297.45612142649986 542.125,288.8704208637613 553.2083333333334,282.4608738024251 564.2916666666666,275.702841394416 575.375,267.37759147575065 586.4583333333334,255.9669303056245 597.5416666666666,244.72137164173122 608.625,231.16929486662727 619.7083333333334,221.45435315490377 630.7916666666666,217.10230524999403 641.875,217.16023143182255 652.9583333333334,215.48658771418897 664.0416666666666,210.22722955136405 675.125,203.73205487301078 686.2083333333334,198.3988553526716 697.2916666666666,191.85818112482426 708.375,181.50809431361498 719.4583333333334,167.6421408996718" fill="none" stroke="#4ecdc4" stroke-width="1" opacity="0.7"/>
<line x1="65.54166666666667" y1="358.0562290054038" x2="65.54166666666667" y2="379.81568570176717" stroke="#ff4444" stroke-width="0.5" opacity="0.6"/>
<rect x="63.04791666666667" y="360.96494815247553" width="4.987500000000001" height="16.669198188987878" fill="#ff4444" opacity="0.8" rx="1"/>
<line x1="76.625" y1="362.86680297940705" x2="76.625" y2="373.662625967577" stroke="#44aa44" stroke-width="0.5" opacity="0.6"/>
<rect x="74.13125" y="367.67737695341026" width="4.987500000000001" height="5.258069227398835" fill="#44aa44" opacity="0.8" rx="1"/>
<line x1="87.70833333333334" y1="369.57923178034173" x2="87.70833333333334" y2="390.49963487658835" stroke="#44aa44" stroke-width="0.5" opacity="0.6"/>
<rect x="85.21458333333334" y="372.9354461808091" width="4.987500000000001" height="17.34044106908135" fill="#44aa44" opacity="0.8" rx="1"/>
<line x1="98.79166666666667" y1="387.03154666277203" x2="98.79166666666667" y2="394.86271359719586" stroke="#ff4444" stroke-width="0.5" opacity="0.6"/>
<rect x="96.29791666666667" y="393.5202278370089" width="4.987500000000001" height="1.0068643201402097" fill="#ff4444" opacity="0.8" rx="1"/>
<line x1="109.87500000000001" y1="373.3270045275303" x2="109.87500000000001" y2="383.4515846356068" stroke="#ff4444" stroke-width="0.5" opacity="0.6"/>
<rect x="107.38125000000001" y="373.3270045275303" width="4.987500000000001" height="10.124580108076543" fill="#ff4444" opacity="0.8" rx="1"/>
<line x1="120.95833333333334" y1="364.4889732729663" x2="120.95833333333334" y2="380.039433328465" stroke="#ff4444" stroke-width="0.5" opacity="0.6"/>
<rect x="118.46458333333334" y="370.47422228713305" width="4.987500000000001" height="2.7968453337228425" fill="#ff4444" opacity="0.8" rx="1"/>
<line x1="132.04166666666666" y1="378.9206951949759" x2="132.04166666666666" y2="390.94713012998386" stroke="#ff4444" stroke-width="0.5" opacity="0.6"/>
<rect x="129.54791666666665" y="380.5428654885351" width="4.987500000000001" height="1.1187381334891597" fill="#ff4444" opacity="0.8" rx="1"/>
<line x1="143.125" y1="368.90798890024826" x2="143.125" y2="380.3750547685118" stroke="#ff4444" stroke-width="0.5" opacity="0.6"/>
<rect x="140.63125" y="374.72542719439167" width="4.987500000000001" height="1.510296480210343" fill="#ff4444" opacity="0.8" rx="1"/>
<line x1="154.20833333333334" y1="352.68628596465607" x2="154.20833333333334" y2="373.77449978092596" stroke="#ff4444" stroke-width="0.5" opacity="0.6"/>
<rect x="151.71458333333334" y="352.68628596465607" width="4.987500000000001" height="21.0882138162699" fill="#ff4444" opacity="0.8" rx="1"/>
<line x1="165.29166666666666" y1="350.5606835110267" x2="165.29166666666666" y2="361.5243172192201" stroke="#44aa44" stroke-width="0.5" opacity="0.6"/>
<rect x="162.79791666666665" y="354.7000146049365" width="4.987500000000001" height="6.153059734190151" fill="#44aa44" opacity="0.8" rx="1"/>
<line x1="176.375" y1="357.3290492186359" x2="176.375" y2="366.67051263327005" stroke="#44aa44" stroke-width="0.5" opacity="0.6"/>
<rect x="173.88125" y="360.909011245801" width="4.987500000000001" height="4.866510880677708" fill="#44aa44" opacity="0.8" rx="1"/>
<line x1="187.45833333333334" y1="353.07784431137725" x2="187.45833333333334" y2="360.46151599240545" stroke="#ff4444" stroke-width="0.5" opacity="0.6"/>
<rect x="184.96458333333334" y="357.49685993865927" width="4.987500000000001" height="1.8459179202570226" fill="#ff4444" opacity="0.8" rx="1"/>
<line x1="198.54166666666666" y1="343.06513801664966" x2="198.54166666666666" y2="381.27004527530306" stroke="#44aa44" stroke-width="0.5" opacity="0.6"/>
<rect x="196.04791666666665" y="343.06513801664966" width="4.987500000000001" height="38.14897035197896" fill="#44aa44" opacity="0.8" rx="1"/>
<line x1="209.625" y1="373.71856287425146" x2="209.625" y2="382.1090988754199" stroke="#ff4444" stroke-width="0.5" opacity="0.6"/>
<rect x="207.13125" y="376.3475974879509" width="4.987500000000001" height="5.761501387468968" fill="#ff4444" opacity="0.8" rx="1"/>
<line x1="220.70833333333334" y1="375.9560391412297" x2="220.70833333333334" y2="386.58405140937634" stroke="#ff4444" stroke-width="0.5" opacity="0.6"/>
<rect x="218.21458333333334" y="382.50065722214106" width="4.987500000000001" height="1.2865488535124996" fill="#ff4444" opacity="0.8" rx="1"/>
<line x1="231.79166666666666" y1="374.2779319409961" x2="231.79166666666666" y2="388.9334014897035" stroke="#44aa44" stroke-width="0.5" opacity="0.6"/>
<rect x="229.29791666666665" y="378.69694756827806" width="4.987500000000001" height="10.236453921425436" fill="#44aa44" opacity="0.8" rx="1"/>
<line x1="242.875" y1="382.9481524755367" x2="242.875" y2="398.8342339710822" stroke="#ff4444" stroke-width="0.5" opacity="0.6"/>
<rect x="240.38125" y="391.0590039433328" width="4.987500000000001" height="5.593690667445628" fill="#ff4444" opacity="0.8" rx="1"/>
<line x1="253.95833333333334" y1="388.374032422959" x2="253.95833333333334" y2="399.5054768511757" stroke="#44aa44" stroke-width="0.5" opacity="0.6"/>
<rect x="251.46458333333334" y="389.10121220972684" width="4.987500000000001" height="3.0765298670951324" fill="#44aa44" opacity="0.8" rx="1"/>
<line x1="265.0416666666667" y1="384.6262596757704" x2="265.0416666666667" y2="391.61837301007733" stroke="#44aa44" stroke-width="0.5" opacity="0.6"/>
<rect x="262.5479166666667" y="389.04527530305245" width="4.987500000000001" height="1.1746750401635495" fill="#44aa44" opacity="0.8" rx="1"/>
<line x1="276.12500000000006" y1="385.57718708923613" x2="276.12500000000006" y2="396.37301007740615" stroke="#44aa44" stroke-width="0.5" opacity="0.6"/>
<rect x="273.6312500000001" y="392.12180517014747" width="4.987500000000001" height="2.852782240397346" fill="#44aa44" opacity="0.8" rx="1"/>
<line x1="287.20833333333337" y1="391.39462538337955" x2="287.20833333333337" y2="401.1276471447349" stroke="#ff4444" stroke-width="0.5" opacity="0.6"/>
<rect x="284.7145833333334" y="397.21206367752296" width="4.987500000000001" height="1.5662333868847895" fill="#ff4444" opacity="0.8" rx="1"/>
<line x1="298.2916666666667" y1="399.4495399445012" x2="298.2916666666667" y2="410.3572367460202" stroke="#44aa44" stroke-width="0.5" opacity="0.6"/>
<rect x="295.7979166666667" y="399.4495399445012" width="4.987500000000001" height="4.866510880677708" fill="#44aa44" opacity="0.8" rx="1"/>
<line x1="309.37500000000006" y1="402.8057543449686" x2="309.37500000000006" y2="412.426902292975" stroke="#44aa44" stroke-width="0.5" opacity="0.6"/>
<rect x="306.8812500000001" y="404.5397984518767" width="4.987500000000001" height="7.439608587702708" fill="#44aa44" opacity="0.8" rx="1"/>
<line x1="320.45833333333337" y1="402.86169125164304" x2="320.45833333333337" y2="407.84007594566964" stroke="#ff4444" stroke-width="0.5" opacity="0.6"/>
<rect x="317.9645833333334" y="404.31605082517893" width="4.987500000000001" height="3.5240251204907054" fill="#ff4444" opacity="0.8" rx="1"/>
<line x1="331.5416666666667" y1="404.93135679859785" x2="331.5416666666667" y2="412.76252373302174" stroke="#44aa44" stroke-width="0.5" opacity="0.6"/>
<rect x="329.0479166666667" y="404.93135679859785" width="4.987500000000001" height="6.320870454213605" fill="#44aa44" opacity="0.8" rx="1"/>
<line x1="342.62500000000006" y1="403.8126186651088" x2="342.62500000000006" y2="412.87439754637074" stroke="#ff4444" stroke-width="0.5" opacity="0.6"/>
<rect x="340.1312500000001" y="404.65167226522567" width="4.987500000000001" height="5.9852490141667545" fill="#ff4444" opacity="0.8" rx="1"/>
<line x1="353.70833333333337" y1="407.72820213232063" x2="353.70833333333337" y2="415.0" stroke="#44aa44" stroke-width="0.5" opacity="0.6"/>
<rect x="351.2145833333334" y="410.6369212793924" width="4.987500000000001" height="0.559369066744523" fill="#44aa44" opacity="0.8" rx="1"/>
<line x1="364.7916666666667" y1="392.793048050241" x2="364.7916666666667" y2="407.2247699722506" stroke="#ff4444" stroke-width="0.5" opacity="0.6"/>
<rect x="362.2979166666667" y="395.81364101066157" width="4.987500000000001" height="9.788958668029807" fill="#ff4444" opacity="0.8" rx="1"/>
<line x1="375.87500000000006" y1="375.84416532788083" x2="375.87500000000006" y2="393.3524171169855" stroke="#ff4444" stroke-width="0.5" opacity="0.6"/>
<rect x="373.3812500000001" y="375.84416532788083" width="4.987500000000001" height="16.78107200233677" fill="#ff4444" opacity="0.8" rx="1"/>
<line x1="386.95833333333337" y1="353.91689791149406" x2="386.95833333333337" y2="373.2710676208559" stroke="#ff4444" stroke-width="0.5" opacity="0.6"/>
<rect x="384.4645833333334" y="353.91689791149406" width="4.987500000000001" height="14.767343362056351" fill="#ff4444" opacity="0.8" rx="1"/>
<line x1="398.0416666666667" y1="341.2751570030671" x2="398.0416666666667" y2="361.0768219658244" stroke="#ff4444" stroke-width="0.5" opacity="0.6"/>
<rect x="395.5479166666667" y="349.10632393749086" width="4.987500000000001" height="11.970498028333566" fill="#ff4444" opacity="0.8" rx="1"/>
<line x1="409.12500000000006" y1="337.91894260259966" x2="409.12500000000006" y2="349.66569300423544" stroke="#ff4444" stroke-width="0.5" opacity="0.6"/>
<rect x="406.6312500000001" y="343.40075945669633" width="4.987500000000001" height="3.8037096538629953" fill="#ff4444" opacity="0.8" rx="1"/>
<line x1="420.20833333333337" y1="318.22915145319115" x2="420.20833333333337" y2="345.7501095370235" stroke="#ff4444" stroke-width="0.5" opacity="0.6"/>
<rect x="417.7145833333334" y="318.22915145319115" width="4.987500000000001" height="27.18533664378566" fill="#ff4444" opacity="0.8" rx="1"/>
<line x1="431.2916666666667" y1="321.1378706002629" x2="431.2916666666667" y2="337.5833211625529" stroke="#44aa44" stroke-width="0.5" opacity="0.6"/>
<rect x="428.7979166666667" y="321.1378706002629" width="4.987500000000001" height="5.090258507375495" fill="#44aa44" opacity="0.8" rx="1"/>
<line x1="442.37500000000006" y1="299.32247699722507" x2="442.37500000000006" y2="326.73156126770846" stroke="#ff4444" stroke-width="0.5" opacity="0.6"/>
<rect x="439.8812500000001" y="299.32247699722507" width="4.987500000000001" height="27.40908427048339" fill="#ff4444" opacity="0.8" rx="1"/>
<line x1="453.45833333333337" y1="269.73185336643786" x2="453.45833333333337" y2="280.86329779465456" stroke="#ff4444" stroke-width="0.5" opacity="0.6"/>
<rect x="450.9645833333334" y="269.73185336643786" width="4.987500000000001" height="8.893968161238433" fill="#ff4444" opacity="0.8" rx="1"/>
<line x1="464.5416666666667" y1="243.21775960274573" x2="464.5416666666667" y2="281.98203592814366" stroke="#44aa44" stroke-width="0.5" opacity="0.6"/>
<rect x="462.0479166666667" y="259.6072732583613" width="4.987500000000001" height="8.334599094493967" fill="#44aa44" opacity="0.8" rx="1"/>
<line x1="475.62500000000006" y1="235.21878194829853" x2="475.62500000000006" y2="269.17248429969334" stroke="#ff4444" stroke-width="0.5" opacity="0.6"/>
<rect x="473.1312500000001" y="235.21878194829853" width="4.987500000000001" height="33.95370235139481" fill="#ff4444" opacity="0.8" rx="1"/>
<line x1="486.70833333333337" y1="226.04512925368775" x2="486.70833333333337" y2="259.6072732583613" stroke="#44aa44" stroke-width="0.5" opacity="0.6"/>
<rect x="484.2145833333334" y="251.2167372571929" width="4.987500000000001" height="5.593690667445628" fill="#44aa44" opacity="0.8" rx="1"/>
<line x1="497.7916666666667" y1="247.91645976339998" x2="497.7916666666667" y2="274.2627428070688" stroke="#44aa44" stroke-width="0.5" opacity="0.6"/>
<rect x="495.2979166666667" y="257.48167080473195" width="4.987500000000001" height="11.634876588286886" fill="#44aa44" opacity="0.8" rx="1"/>
<line x1="508.87500000000006" y1="236.50533080181103" x2="508.87500000000006" y2="259.2716518183146" stroke="#ff4444" stroke-width="0.5" opacity="0.6"/>
<rect x="506.3812500000001" y="236.50533080181103" width="4.987500000000001" height="19.91353877610632" fill="#ff4444" opacity="0.8" rx="1"/>
<line x1="519.9583333333334" y1="221.01080765298667" x2="519.9583333333334" y2="243.83306557616473" stroke="#44aa44" stroke-width="0.5" opacity="0.6"/>
<rect x="517.4645833333334" y="221.01080765298667" width="4.987500000000001" height="19.577917336059613" fill="#44aa44" opacity="0.8" rx="1"/>
<line x1="531.0416666666666" y1="205.12472615744122" x2="531.0416666666666" y2="234.93909741492627" stroke="#ff4444" stroke-width="0.5" opacity="0.6"/>
<rect x="528.5479166666667" y="205.12472615744122" width="4.987500000000001" height="29.81437125748505" fill="#ff4444" opacity="0.8" rx="1"/>
<line x1="542.125" y1="188.28771724842997" x2="542.125" y2="223.24828391996493" stroke="#44aa44" stroke-width="0.5" opacity="0.6"/>
<rect x="539.63125" y="193.43391266247994" width="4.987500000000001" height="13.872352855265063" fill="#44aa44" opacity="0.8" rx="1"/>
<line x1="553.2083333333334" y1="192.48298524901415" x2="553.2083333333334" y2="229.62509128085293" stroke="#44aa44" stroke-width="0.5" opacity="0.6"/>
<rect x="550.7145833333334" y="192.48298524901415" width="4.987500000000001" height="29.08719147071713" fill="#44aa44" opacity="0.8" rx="1"/>
<line x1="564.2916666666666" y1="203.05506061048635" x2="564.2916666666666" y2="233.4288009347159" stroke="#ff4444" stroke-width="0.5" opacity="0.6"/>
<rect x="561.7979166666667" y="211.5015335183292" width="4.987500000000001" height="0.5" fill="#ff4444" opacity="0.8" rx="1"/>
<line x1="575.375" y1="181.29560391412295" x2="575.375" y2="231.63881992113335" stroke="#ff4444" stroke-width="0.5" opacity="0.6"/>
<rect x="572.88125" y="188.28771724842997" width="4.987500000000001" height="36.079304805024094" fill="#ff4444" opacity="0.8" rx="1"/>
<line x1="586.4583333333334" y1="147.565649189426" x2="586.4583333333334" y2="183.14152183438" stroke="#ff4444" stroke-width="0.5" opacity="0.6"/>
<rect x="583.9645833333334" y="147.565649189426" width="4.987500000000001" height="33.28245947130131" fill="#ff4444" opacity="0.8" rx="1"/>
<line x1="597.5416666666666" y1="114.00350518475243" x2="597.5416666666666" y2="158.92084124434058" stroke="#44aa44" stroke-width="0.5" opacity="0.6"/>
<rect x="595.0479166666667" y="135.5392142544179" width="4.987500000000001" height="2.3493500803271843" fill="#44aa44" opacity="0.8" rx="1"/>
<line x1="608.625" y1="98.06148678253251" x2="608.625" y2="153.43902439024384" stroke="#ff4444" stroke-width="0.5" opacity="0.6"/>
<rect x="606.13125" y="102.42456550314009" width="4.987500000000001" height="51.01445888710376" fill="#ff4444" opacity="0.8" rx="1"/>
<line x1="619.7083333333334" y1="98.06148678253251" x2="619.7083333333334" y2="141.63633708193368" stroke="#44aa44" stroke-width="0.5" opacity="0.6"/>
<rect x="617.2145833333334" y="101.30582736965094" width="4.987500000000001" height="27.85657952387909" fill="#44aa44" opacity="0.8" rx="1"/>
<line x1="630.7916666666666" y1="175.75785015335185" x2="630.7916666666666" y2="175.75785015335185" stroke="#ff4444" stroke-width="0.5" opacity="0.6"/>
<rect x="628.2979166666667" y="175.75785015335185" width="4.987500000000001" height="0.5" fill="#ff4444" opacity="0.8" rx="1"/>
<line x1="641.875" y1="217.71053015919384" x2="641.875" y2="217.71053015919384" stroke="#ff4444" stroke-width="0.5" opacity="0.6"/>
<rect x="639.38125" y="217.71053015919384" width="4.987500000000001" height="0.5" fill="#ff4444" opacity="0.8" rx="1"/>
<line x1="652.9583333333334" y1="181.29560391412295" x2="652.9583333333334" y2="251.83204323061193" stroke="#ff4444" stroke-width="0.5" opacity="0.6"/>
<rect x="650.4645833333334" y="199.58697239667003" width="4.987500000000001" height="52.245070833941895" fill="#ff4444" opacity="0.8" rx="1"/>
<line x1="664.0416666666666" y1="160.0395793778297" x2="664.0416666666666" y2="219.3886373594275" stroke="#ff4444" stroke-width="0.5" opacity="0.6"/>
<rect x="661.5479166666667" y="160.2633270045275" width="4.987500000000001" height="54.650357820943526" fill="#ff4444" opacity="0.8" rx="1"/>
<line x1="675.125" y1="116.74441361180075" x2="675.125" y2="148.40470278954285" stroke="#44aa44" stroke-width="0.5" opacity="0.6"/>
<rect x="672.63125" y="130.84051409376372" width="4.987500000000001" height="11.1873813348912" fill="#44aa44" opacity="0.8" rx="1"/>
<line x1="686.2083333333334" y1="120.04469110559367" x2="686.2083333333334" y2="172.34569884621004" stroke="#44aa44" stroke-width="0.5" opacity="0.6"/>
<rect x="683.7145833333334" y="142.1397692420038" width="4.987500000000001" height="5.593690667445571" fill="#44aa44" opacity="0.8" rx="1"/>
<line x1="697.2916666666666" y1="108.07419307726008" x2="697.2916666666666" y2="147.78939681612385" stroke="#ff4444" stroke-width="0.5" opacity="0.6"/>
<rect x="694.7979166666667" y="129.72177596027456" width="4.987500000000001" height="18.011683949174824" fill="#ff4444" opacity="0.8" rx="1"/>
<line x1="708.375" y1="83.18226960712715" x2="708.375" y2="125.75025558638815" stroke="#ff4444" stroke-width="0.5" opacity="0.6"/>
<rect x="705.88125" y="83.18226960712715" width="4.987500000000001" height="32.16372133781219" fill="#ff4444" opacity="0.8" rx="1"/>
<line x1="719.4583333333334" y1="32.0" x2="719.4583333333334" y2="53.92726741638675" stroke="#ff4444" stroke-width="0.5" opacity="0.3" stroke-dasharray="4,3"/>
<rect x="716.9645833333334" y="35.91558346721193" width="4.987500000000001" height="13.648605228567249" fill="#ff4444" opacity="0.4" stroke-dasharray="4,3" rx="1"/>
<text x="739.4583333333334" y="29.91558346721193" font-family="sans-serif" font-size="9" fill="#ffd700" opacity="0.8">🕐 盘中</text>
<line x1="198.54166666666666" y1="381.27004527530306" x2="198.54166666666666" y2="346.27004527530306" stroke="#4ecdc4" stroke-width="0.8" stroke-dasharray="2,2" opacity="0.7"/>
<rect x="162.54166666666666" y="337.27004527530306" width="72" height="16" fill="#4ecdc4" opacity="0.85" rx="3"/>
<text x="198.54166666666666" y="349.27004527530306" text-anchor="middle" font-family="sans-serif" font-size="9" fill="#000000" font-weight="bold">B1乖离买入</text>
<polygon points="198.54166666666666,387.27004527530306 194.54166666666666,381.27004527530306 202.54166666666666,381.27004527530306" fill="#4ecdc4" opacity="0.9"/>
<line x1="342.62500000000006" y1="412.87439754637074" x2="342.62500000000006" y2="362.87439754637074" stroke="#4ecdc4" stroke-width="0.8" stroke-dasharray="2,2" opacity="0.7"/>
<rect x="306.62500000000006" y="353.87439754637074" width="72" height="16" fill="#4ecdc4" opacity="0.85" rx="3"/>
<text x="342.62500000000006" y="365.87439754637074" text-anchor="middle" font-family="sans-serif" font-size="9" fill="#000000" font-weight="bold">B2乖离买入</text>
<polygon points="342.62500000000006,418.87439754637074 338.62500000000006,412.87439754637074 346.62500000000006,412.87439754637074" fill="#4ecdc4" opacity="0.9"/>
<line x1="497.7916666666667" y1="274.2627428070688" x2="497.7916666666667" y2="209.26274280706878" stroke="#4ecdc4" stroke-width="0.8" stroke-dasharray="2,2" opacity="0.7"/>
<rect x="461.7916666666667" y="200.26274280706878" width="72" height="16" fill="#4ecdc4" opacity="0.85" rx="3"/>
<text x="497.7916666666667" y="212.26274280706878" text-anchor="middle" font-family="sans-serif" font-size="9" fill="#000000" font-weight="bold">B3乖离买入</text>
<polygon points="497.7916666666667,280.2627428070688 493.7916666666667,274.2627428070688 501.7916666666667,274.2627428070688" fill="#4ecdc4" opacity="0.9"/>
<line x1="553.2083333333334" y1="229.62509128085293" x2="553.2083333333334" y2="149.62509128085293" stroke="#4ecdc4" stroke-width="0.8" stroke-dasharray="2,2" opacity="0.7"/>
<rect x="517.2083333333334" y="140.62509128085293" width="72" height="16" fill="#4ecdc4" opacity="0.85" rx="3"/>
<text x="553.2083333333334" y="152.62509128085293" text-anchor="middle" font-family="sans-serif" font-size="9" fill="#000000" font-weight="bold">B4乖离买入</text>
<polygon points="553.2083333333334,235.62509128085293 549.2083333333334,229.62509128085293 557.2083333333334,229.62509128085293" fill="#4ecdc4" opacity="0.9"/>
<line x1="630.7916666666666" y1="175.75785015335185" x2="630.7916666666666" y2="80.75785015335185" stroke="#4ecdc4" stroke-width="0.8" stroke-dasharray="2,2" opacity="0.7"/>
<rect x="594.7916666666666" y="71.75785015335185" width="72" height="16" fill="#4ecdc4" opacity="0.85" rx="3"/>
<text x="630.7916666666666" y="83.75785015335185" text-anchor="middle" font-family="sans-serif" font-size="9" fill="#000000" font-weight="bold">B5乖离买入</text>
<polygon points="630.7916666666666,181.75785015335185 626.7916666666666,175.75785015335185 634.7916666666666,175.75785015335185" fill="#4ecdc4" opacity="0.9"/>
<line x1="531.0416666666666" y1="205.12472615744122" x2="531.0416666666666" y2="224.12472615744122" stroke="#e94560" stroke-width="0.8" stroke-dasharray="2,2" opacity="0.7"/>
<rect x="497.04166666666663" y="231.12472615744122" width="68" height="16" fill="#e94560" opacity="0.85" rx="3"/>
<text x="531.0416666666666" y="243.12472615744122" text-anchor="middle" font-family="sans-serif" font-size="9" fill="#ffffff" font-weight="bold">W1警戒⚠️</text>
<polygon points="531.0416666666666,199.12472615744122 527.0416666666666,205.12472615744122 535.0416666666666,205.12472615744122" fill="#e94560" opacity="0.9"/>
<line x1="586.4583333333334" y1="147.565649189426" x2="586.4583333333334" y2="181.565649189426" stroke="#e94560" stroke-width="0.8" stroke-dasharray="2,2" opacity="0.7"/>
<rect x="552.4583333333334" y="188.565649189426" width="68" height="16" fill="#e94560" opacity="0.85" rx="3"/>
<text x="586.4583333333334" y="200.565649189426" text-anchor="middle" font-family="sans-serif" font-size="9" fill="#ffffff" font-weight="bold">W2警戒⚠️</text>
<polygon points="586.4583333333334,141.565649189426 582.4583333333334,147.565649189426 590.4583333333334,147.565649189426" fill="#e94560" opacity="0.9"/>
<line x1="708.375" y1="83.18226960712715" x2="708.375" y2="132.18226960712715" stroke="#e94560" stroke-width="0.8" stroke-dasharray="2,2" opacity="0.7"/>
<rect x="674.375" y="139.18226960712715" width="68" height="16" fill="#e94560" opacity="0.85" rx="3"/>
<text x="708.375" y="151.18226960712715" text-anchor="middle" font-family="sans-serif" font-size="9" fill="#ffffff" font-weight="bold">W3警戒⚠️</text>
<polygon points="708.375,77.18226960712715 704.375,83.18226960712715 712.375,83.18226960712715" fill="#e94560" opacity="0.9"/>
<rect x="60" y="443" width="665" height="55" fill="#111122" opacity="0.5" rx="2"/>
<rect x="60" y="443" width="665" height="17.582850806527688" fill="#e94560" opacity="0.18" rx="2"/>
<rect x="60" y="460.5828508065277" width="665" height="8.93786189510422" fill="#ffd700" opacity="0.12"/>
<rect x="60" y="469.5207127016319" width="665" height="30.479287298368092" fill="#4ecdc4" opacity="0.14"/>
<text x="670" y="454.7914254032638" text-anchor="end" font-family="sans-serif" font-size="9" fill="#e94560" font-weight="bold">⚠️ 警戒区</text>
<text x="670" y="468.0517817540798" text-anchor="end" font-family="sans-serif" font-size="9" fill="#ffd700">持有区</text>
<text x="670" y="487.760356350816" text-anchor="end" font-family="sans-serif" font-size="9" fill="#4ecdc4">买入区</text>
<line x1="60" y1="472.5" x2="725" y2="472.5" stroke="#888888" stroke-width="0.5" stroke-dasharray="3,2" opacity="0.5"/>
<text x="56" y="475.5" text-anchor="end" font-family="sans-serif" font-size="7" fill="#888888">0%</text>
<line x1="60" y1="469.5207127016319" x2="725" y2="469.5207127016319" stroke="#4ecdc4" stroke-width="0.5" stroke-dasharray="3,2" opacity="0.5"/>
<text x="56" y="472.5207127016319" text-anchor="end" font-family="sans-serif" font-size="7" fill="#4ecdc4">2%</text>
<line x1="60" y1="460.5828508065277" x2="725" y2="460.5828508065277" stroke="#e94560" stroke-width="0.5" stroke-dasharray="3,2" opacity="0.5"/>
<text x="56" y="463.5828508065277" text-anchor="end" font-family="sans-serif" font-size="7" fill="#e94560">8%</text>
<text x="60" y="445" font-family="sans-serif" font-size="8" fill="#888888">BIAS5</text>
<polyline points="65.54166666666667,472.5 76.625,477.6624897315852 87.70833333333334,483.83551538491497 98.79166666666667,481.79036795018766 109.87500000000001,469.4041572015941 120.95833333333334,469.1704710924201 132.04166666666666,474.84700793120794 143.125,471.4199641563426 154.20833333333334,462.15427586756897 165.29166666666666,469.21561053071565 176.375,472.4421430612001 187.45833333333334,468.9204811813289 198.54166666666666,480.4668071018342 209.625,475.7079346974013 220.70833333333334,477.4511737234199 231.79166666666666,478.8359587301147 242.875,477.79620990403777 253.95833333333334,476.6115917473808 265.0416666666667,474.321022750775 276.12500000000006,476.03042806872054 287.20833333333337,475.97703683118874 298.2916666666667,478.41272607273953 309.37500000000006,480.47800543249133 320.45833333333337,473.8945342234218 331.5416666666667,477.07313056120046 342.62500000000006,472.0957374481346 353.70833333333337,475.6838071332742 364.7916666666667,466.6174892963885 375.87500000000006,458.89201932294134 386.95833333333337,453.8419289732281 398.0416666666667,458.5216966948497 409.12500000000006,461.11525609224776 420.20833333333337,455.2811853973402 431.2916666666667,464.4439535657528 442.37500000000006,457.45883833866753 453.45833333333337,452.9166666666667 464.5416666666667,459.426531604795 475.62500000000006,454.1835295916372 486.70833333333337,467.07798523201865 497.7916666666667,472.6280786385717 508.87500000000006,462.9773850926807 519.9583333333334,467.4416735966821 531.0416666666666,459.4567752085117 542.125,464.62245037567243 553.2083333333334,471.0996324304453 564.2916666666666,468.90906825787164 575.375,464.19176204809685 586.4583333333334,457.2876695499633 597.5416666666666,460.4963847937547 608.625,457.0241245538272 619.7083333333334,468.1938721605058 630.7916666666666,480.0304768624004 641.875,487.6871255468886 652.9583333333334,478.4601399977181 664.0416666666666,467.0975448897215 675.125,464.78881601935024 686.2083333333334,468.72269269967563 697.2916666666666,466.0269876653531 708.375,458.5135977854592 719.4583333333334,454.3281746831433" fill="none" stroke="#4ecdc4" stroke-width="1.5" opacity="0.9"/>
<circle cx="719.4583333333334" cy="454.3281746831433" r="3" fill="#4ecdc4" opacity="1"/>
<text x="724.4583333333334" y="457.3281746831433" font-family="sans-serif" font-size="9" fill="#4ecdc4" font-weight="bold">BIAS5=12.2%</text>
<text x="65.54166666666667" y="489" text-anchor="middle" font-family="sans-serif" font-size="8" fill="#666666" transform="rotate(-45,65.54166666666667,489)">02/27</text>
<text x="120.95833333333334" y="489" text-anchor="middle" font-family="sans-serif" font-size="8" fill="#666666" transform="rotate(-45,120.95833333333334,489)">03/06</text>
<text x="176.375" y="489" text-anchor="middle" font-family="sans-serif" font-size="8" fill="#666666" transform="rotate(-45,176.375,489)">03/13</text>
<text x="231.79166666666666" y="489" text-anchor="middle" font-family="sans-serif" font-size="8" fill="#666666" transform="rotate(-45,231.79166666666666,489)">03/20</text>
<text x="287.20833333333337" y="489" text-anchor="middle" font-family="sans-serif" font-size="8" fill="#666666" transform="rotate(-45,287.20833333333337,489)">03/27</text>
<text x="342.62500000000006" y="489" text-anchor="middle" font-family="sans-serif" font-size="8" fill="#666666" transform="rotate(-45,342.62500000000006,489)">04/03</text>
<text x="398.0416666666667" y="489" text-anchor="middle" font-family="sans-serif" font-size="8" fill="#666666" transform="rotate(-45,398.0416666666667,489)">04/13</text>
<text x="453.45833333333337" y="489" text-anchor="middle" font-family="sans-serif" font-size="8" fill="#666666" transform="rotate(-45,453.45833333333337,489)">04/20</text>
<text x="508.87500000000006" y="489" text-anchor="middle" font-family="sans-serif" font-size="8" fill="#666666" transform="rotate(-45,508.87500000000006,489)">04/27</text>
<text x="564.2916666666666" y="489" text-anchor="middle" font-family="sans-serif" font-size="8" fill="#666666" transform="rotate(-45,564.2916666666666,489)">05/07</text>
<text x="619.7083333333334" y="489" text-anchor="middle" font-family="sans-serif" font-size="8" fill="#666666" transform="rotate(-45,619.7083333333334,489)">05/14</text>
<text x="675.125" y="489" text-anchor="middle" font-family="sans-serif" font-size="8" fill="#666666" transform="rotate(-45,675.125,489)">05/21</text>
<text x="719.4583333333334" y="489" text-anchor="middle" font-family="sans-serif" font-size="8" fill="#666666" transform="rotate(-45,719.4583333333334,489)">05/27</text>
<rect x="60" y="484" width="8" height="8" fill="#4ecdc4" opacity="0.8" rx="1"/>
<text x="71" y="491" font-family="sans-serif" font-size="9" fill="#888888">买入区(BIAS&lt;2%)</text>
<rect x="230" y="484" width="8" height="8" fill="#ffd700" opacity="0.8" rx="1"/>
<text x="241" y="491" font-family="sans-serif" font-size="9" fill="#888888">持有区(2-8%)</text>
<rect x="400" y="484" width="8" height="8" fill="#e94560" opacity="0.8" rx="1"/>
<text x="411" y="491" font-family="sans-serif" font-size="9" fill="#888888">警戒区(&gt;8%)</text>
<rect x="570" y="484" width="8" height="8" fill="#ffd700" opacity="0.8" rx="1"/>
<text x="581" y="491" font-family="sans-serif" font-size="9" fill="#888888">EMA5</text>
<rect x="60" y="497" width="8" height="8" fill="#ff6b6b" opacity="0.8" rx="1"/>
<text x="71" y="504" font-family="sans-serif" font-size="9" fill="#888888">EMA10</text>
<rect x="230" y="497" width="8" height="8" fill="#4ecdc4" opacity="0.8" rx="1"/>
<text x="241" y="504" font-family="sans-serif" font-size="9" fill="#888888">EMA20</text>
<rect x="400" y="497" width="8" height="8" fill="#4ecdc4" opacity="0.8" rx="1"/>
<text x="411" y="504" font-family="sans-serif" font-size="9" fill="#888888">B乖离买入</text>
<rect x="570" y="497" width="8" height="8" fill="#e94560" opacity="0.8" rx="1"/>
<text x="581" y="504" font-family="sans-serif" font-size="9" fill="#888888">W警戒⚠️</text>
</svg>