<svg xmlns="http://www.w3.org/2000/svg" width="800" height="400" viewBox="0 0 800 400">
<rect width="800" height="400" fill="#1a1a2e"/>
<text x="400.0" y="20" text-anchor="middle" font-family="sans-serif" font-size="14" fill="#ffffff" font-weight="bold">景业智能(688290) K线图</text>
<line x1="60" y1="30.0" x2="780" y2="30.0" stroke="#2a2a4e" stroke-width="0.5"/>
<text x="55" y="33.0" text-anchor="end" font-family="sans-serif" font-size="8" fill="#666666">79.12</text>
<line x1="60" y1="84.00000000000003" x2="780" y2="84.00000000000003" stroke="#2a2a4e" stroke-width="0.5"/>
<text x="55" y="87.00000000000003" text-anchor="end" font-family="sans-serif" font-size="8" fill="#666666">72.13</text>
<line x1="60" y1="138.00000000000006" x2="780" y2="138.00000000000006" stroke="#2a2a4e" stroke-width="0.5"/>
<text x="55" y="141.00000000000006" text-anchor="end" font-family="sans-serif" font-size="8" fill="#666666">65.14</text>
<line x1="60" y1="192.00000000000003" x2="780" y2="192.00000000000003" stroke="#2a2a4e" stroke-width="0.5"/>
<text x="55" y="195.00000000000003" text-anchor="end" font-family="sans-serif" font-size="8" fill="#666666">58.14</text>
<line x1="60" y1="245.99999999999997" x2="780" y2="245.99999999999997" stroke="#2a2a4e" stroke-width="0.5"/>
<text x="55" y="248.99999999999997" text-anchor="end" font-family="sans-serif" font-size="8" fill="#666666">51.15</text>
<line x1="60" y1="300.0" x2="780" y2="300.0" stroke="#2a2a4e" stroke-width="0.5"/>
<text x="55" y="303.0" text-anchor="end" font-family="sans-serif" font-size="8" fill="#666666">44.16</text>
<line x1="60" y1="300" x2="780" y2="300" stroke="#2a2a4e" stroke-width="0.5"/>
<line x1="60" y1="345" x2="780" y2="345" stroke="#2a2a4e" stroke-width="0.5"/>
<rect x="61.8" y="337.48696085137203" width="7.199999999999999" height="7.513039148627968" fill="#ff4444" opacity="0.3"/>
<rect x="73.8" y="333.21199706284705" width="7.199999999999999" height="11.788002937152953" fill="#44aa44" opacity="0.3"/>
<rect x="85.8" y="332.54914601271423" width="7.199999999999999" height="12.450853987285768" fill="#44aa44" opacity="0.3"/>
<rect x="97.8" y="336.8133278345538" width="7.199999999999999" height="8.186672165446225" fill="#ff4444" opacity="0.3"/>
<rect x="109.8" y="337.90540255089724" width="7.199999999999999" height="7.094597449102764" fill="#ff4444" opacity="0.3"/>
<rect x="121.8" y="338.47374165124324" width="7.199999999999999" height="6.526258348756755" fill="#ff4444" opacity="0.3"/>
<rect x="133.8" y="336.714262291784" width="7.199999999999999" height="8.285737708216004" fill="#44aa44" opacity="0.3"/>
<rect x="145.8" y="336.68442403637243" width="7.199999999999999" height="8.315575963627566" fill="#ff4444" opacity="0.3"/>
<rect x="157.8" y="339.05786895469544" width="7.199999999999999" height="5.9421310453045635" fill="#44aa44" opacity="0.3"/>
<rect x="169.8" y="338.7659682546069" width="7.199999999999999" height="6.234031745393111" fill="#44aa44" opacity="0.3"/>
<rect x="181.8" y="339.1127746036855" width="7.199999999999999" height="5.887225396314477" fill="#44aa44" opacity="0.3"/>
<rect x="193.8" y="334.45169690995414" width="7.199999999999999" height="10.548303090045863" fill="#ff4444" opacity="0.3"/>
<rect x="205.8" y="334.8406805745554" width="7.199999999999999" height="10.159319425444608" fill="#ff4444" opacity="0.3"/>
<rect x="217.8" y="328.93903395831654" width="7.199999999999999" height="16.060966041683457" fill="#ff4444" opacity="0.3"/>
<rect x="229.8" y="337.64980385451037" width="7.199999999999999" height="7.350196145489633" fill="#44aa44" opacity="0.3"/>
<rect x="241.8" y="331.40624849118853" width="7.199999999999999" height="13.593751508811465" fill="#44aa44" opacity="0.3"/>
<rect x="253.8" y="330.5596423110968" width="7.199999999999999" height="14.440357688903191" fill="#44aa44" opacity="0.3"/>
<rect x="265.8" y="337.0438229258872" width="7.199999999999999" height="7.956177074112816" fill="#ff4444" opacity="0.3"/>
<rect x="277.8" y="330.8521767119981" width="7.199999999999999" height="14.147823288001916" fill="#ff4444" opacity="0.3"/>
<rect x="289.8" y="336.74522310292105" width="7.199999999999999" height="8.254776897078955" fill="#44aa44" opacity="0.3"/>
<rect x="301.8" y="336.1619920334755" width="7.199999999999999" height="8.838007966524515" fill="#44aa44" opacity="0.3"/>
<rect x="313.8" y="339.46498551541" width="7.199999999999999" height="5.535014484590022" fill="#ff4444" opacity="0.3"/>
<rect x="325.8" y="339.4050917357367" width="7.199999999999999" height="5.594908264263324" fill="#44aa44" opacity="0.3"/>
<rect x="337.8" y="335.26918906413454" width="7.199999999999999" height="9.730810935865463" fill="#44aa44" opacity="0.3"/>
<rect x="349.8" y="339.2531936509214" width="7.199999999999999" height="5.746806349078611" fill="#44aa44" opacity="0.3"/>
<rect x="361.8" y="340.8520117486119" width="7.199999999999999" height="4.147988251388085" fill="#44aa44" opacity="0.3"/>
<rect x="373.8" y="339.83414339744104" width="7.199999999999999" height="5.165856602558961" fill="#ff4444" opacity="0.3"/>
<rect x="385.8" y="331.9673543494005" width="7.199999999999999" height="13.032645650599477" fill="#ff4444" opacity="0.3"/>
<rect x="397.8" y="334.01129295083285" width="7.199999999999999" height="10.988707049167147" fill="#44aa44" opacity="0.3"/>
<rect x="409.8" y="337.123750704112" width="7.199999999999999" height="7.8762492958879875" fill="#ff4444" opacity="0.3"/>
<rect x="421.8" y="334.8769644725195" width="7.199999999999999" height="10.12303552748051" fill="#ff4444" opacity="0.3"/>
<rect x="433.8" y="335.326837732357" width="7.199999999999999" height="9.673162267643022" fill="#ff4444" opacity="0.3"/>
<rect x="445.8" y="333.87915727850645" width="7.199999999999999" height="11.120842721493545" fill="#ff4444" opacity="0.3"/>
<rect x="457.8" y="335.58596704755774" width="7.199999999999999" height="9.414032952442255" fill="#ff4444" opacity="0.3"/>
<rect x="469.8" y="333.34406936509214" width="7.199999999999999" height="11.655930634907861" fill="#ff4444" opacity="0.3"/>
<rect x="481.8" y="331.89204353424" width="7.199999999999999" height="13.107956465760026" fill="#ff4444" opacity="0.3"/>
<rect x="493.8" y="335.1230848153215" width="7.199999999999999" height="9.876915184678523" fill="#44aa44" opacity="0.3"/>
<rect x="505.8" y="334.1409934014645" width="7.199999999999999" height="10.859006598535473" fill="#ff4444" opacity="0.3"/>
<rect x="517.8" y="331.49038585338377" width="7.199999999999999" height="13.50961414661623" fill="#44aa44" opacity="0.3"/>
<rect x="529.8" y="335.27558038947456" width="7.199999999999999" height="9.724419610525445" fill="#ff4444" opacity="0.3"/>
<rect x="541.8" y="331.20095658646494" width="7.199999999999999" height="13.79904341353506" fill="#ff4444" opacity="0.3"/>
<rect x="553.8" y="326.4392472036694" width="7.199999999999999" height="18.560752796330576" fill="#ff4444" opacity="0.3"/>
<rect x="565.8" y="324.17372153375715" width="7.199999999999999" height="20.826278466242854" fill="#ff4444" opacity="0.3"/>
<rect x="577.8" y="328.65911020358897" width="7.199999999999999" height="16.340889796411034" fill="#ff4444" opacity="0.3"/>
<rect x="589.8" y="329.882614468496" width="7.199999999999999" height="15.117385531503999" fill="#ff4444" opacity="0.3"/>
<rect x="601.8" y="331.3319153858534" width="7.199999999999999" height="13.668084614146608" fill="#ff4444" opacity="0.3"/>
<rect x="613.8" y="324.3755642954856" width="7.199999999999999" height="20.624435704514383" fill="#ff4444" opacity="0.3"/>
<rect x="625.8" y="318.8845558059065" width="7.199999999999999" height="26.115444194093527" fill="#ff4444" opacity="0.3"/>
<rect x="637.8" y="324.6689225074435" width="7.199999999999999" height="20.331077492556517" fill="#ff4444" opacity="0.3"/>
<rect x="649.8" y="330.0775861028406" width="7.199999999999999" height="14.922413897159402" fill="#ff4444" opacity="0.3"/>
<rect x="661.8" y="322.90755109841473" width="7.199999999999999" height="22.09244890158527" fill="#ff4444" opacity="0.3"/>
<rect x="673.8" y="321.9168413535045" width="7.199999999999999" height="23.08315864649552" fill="#ff4444" opacity="0.3"/>
<rect x="685.8" y="320.8171803331456" width="7.199999999999999" height="24.182819666854414" fill="#ff4444" opacity="0.3"/>
<rect x="697.8" y="313.15019715136395" width="7.199999999999999" height="31.849802848636045" fill="#ff4444" opacity="0.3"/>
<rect x="709.8" y="311.43648909632253" width="7.199999999999999" height="33.56351090367747" fill="#ff4444" opacity="0.3"/>
<rect x="721.8" y="300.0" width="7.199999999999999" height="45.0" fill="#44aa44" opacity="0.3"/>
<rect x="733.8" y="319.68727367828114" width="7.199999999999999" height="25.312726321718856" fill="#44aa44" opacity="0.3"/>
<rect x="745.8" y="328.79083849682144" width="7.199999999999999" height="16.209161503178564" fill="#44aa44" opacity="0.3"/>
<rect x="757.8" y="325.73730586625896" width="7.199999999999999" height="19.262694133741036" fill="#44aa44" opacity="0.3"/>
<rect x="769.8" y="329.04612939567073" width="7.199999999999999" height="15.953870604329268" fill="#44aa44" opacity="0.3"/>
<polyline points="66.0,204.16 78.0,208.69 90.0,220.20 102.0,229.37 114.0,231.88 126.0,231.29 138.0,234.78 150.0,235.36 162.0,237.70 174.0,241.99 186.0,245.03 198.0,244.07 210.0,242.74 222.0,238.40 234.0,239.01 246.0,249.14 258.0,265.22 270.0,271.56 282.0,268.58 294.0,269.99 306.0,271.99 318.0,271.62 330.0,275.47 342.0,275.38 354.0,276.41 366.0,279.84 378.0,281.98 390.0,275.63 402.0,271.34 414.0,267.02 426.0,260.17 438.0,253.78 450.0,248.44 462.0,240.68 474.0,233.83 486.0,227.78 498.0,225.00 510.0,222.74 522.0,221.92 534.0,221.38 546.0,216.98 558.0,212.14 570.0,204.25 582.0,195.36 594.0,187.95 606.0,180.22 618.0,168.43 630.0,154.64 642.0,145.38 654.0,138.94 666.0,131.23 678.0,120.22 690.0,108.71 702.0,89.24 714.0,77.27 726.0,82.55 738.0,88.43 750.0,92.10 762.0,101.34 774.0,113.91" fill="none" stroke="#ffd700" stroke-width="0.8" opacity="0.7"/>
<polyline points="66.0,204.16 78.0,206.63 90.0,213.28 102.0,219.54 114.0,222.70 126.0,224.05 138.0,227.27 150.0,228.95 162.0,231.39 174.0,234.88 186.0,237.83 198.0,238.62 210.0,238.88 222.0,237.22 234.0,237.76 246.0,243.52 258.0,253.31 270.0,258.93 282.0,259.60 294.0,262.01 306.0,264.55 318.0,265.70 330.0,268.87 342.0,270.03 354.0,271.56 366.0,274.31 378.0,276.48 390.0,274.02 402.0,271.98 414.0,269.50 426.0,265.32 438.0,260.89 450.0,256.69 462.0,250.95 474.0,245.35 486.0,239.95 498.0,236.23 510.0,232.95 522.0,230.65 534.0,228.77 546.0,225.02 558.0,220.92 570.0,215.02 582.0,208.22 594.0,201.83 606.0,195.09 618.0,185.96 630.0,175.25 642.0,166.45 654.0,159.11 666.0,151.24 678.0,141.59 690.0,131.43 702.0,116.68 714.0,105.16 726.0,102.97 738.0,102.46 750.0,101.91 762.0,105.17 774.0,111.33" fill="none" stroke="#ff6b6b" stroke-width="0.8" opacity="0.7"/>
<polyline points="66.0,204.16 78.0,205.45 90.0,209.05 102.0,212.73 114.0,215.03 126.0,216.47 138.0,218.88 150.0,220.56 162.0,222.64 174.0,225.30 186.0,227.76 198.0,229.13 210.0,230.17 222.0,230.13 234.0,231.09 246.0,234.74 258.0,240.70 270.0,244.85 282.0,246.54 294.0,249.04 306.0,251.61 318.0,253.45 330.0,256.28 342.0,258.08 354.0,260.02 366.0,262.56 378.0,264.82 390.0,264.64 402.0,264.46 414.0,263.88 426.0,262.22 438.0,260.20 450.0,258.06 462.0,254.93 474.0,251.62 486.0,248.19 498.0,245.46 510.0,242.86 522.0,240.71 534.0,238.77 546.0,235.85 558.0,232.67 570.0,228.46 582.0,223.62 594.0,218.81 606.0,213.66 618.0,207.11 630.0,199.49 642.0,192.57 654.0,186.24 666.0,179.53 678.0,171.78 690.0,163.58 702.0,152.79 714.0,143.32 726.0,138.54 738.0,134.89 750.0,131.51 762.0,130.40 774.0,131.22" fill="none" stroke="#4ecdc4" stroke-width="0.8" opacity="0.7"/>
<line x1="66.0" y1="202.6115560640732" x2="66.0" y2="210.41189931350115" stroke="#ff4444" stroke-width="0.5" opacity="0.6"/>
<rect x="63.0" y="204.1561784897025" width="6.0" height="1.0040045766590708" fill="#ff4444" opacity="0.85"/>
<line x1="78.0" y1="205.0057208237986" x2="78.0" y2="219.44794050343248" stroke="#44aa44" stroke-width="0.5" opacity="0.6"/>
<rect x="75.0" y="210.1029748283753" width="6.0" height="7.645881006864954" fill="#44aa44" opacity="0.85"/>
<line x1="90.0" y1="212.1882151029748" x2="90.0" y2="243.31235697940502" stroke="#44aa44" stroke-width="0.5" opacity="0.6"/>
<rect x="87.0" y="216.89931350114415" width="6.0" height="26.33581235697943" fill="#44aa44" opacity="0.85"/>
<line x1="102.0" y1="240.37757437070934" x2="102.0" y2="254.8970251716247" stroke="#ff4444" stroke-width="0.5" opacity="0.6"/>
<rect x="99.0" y="247.71453089244852" width="6.0" height="7.182494279176183" fill="#ff4444" opacity="0.85"/>
<line x1="114.0" y1="231.72768878718534" x2="114.0" y2="245.70652173913044" stroke="#ff4444" stroke-width="0.5" opacity="0.6"/>
<rect x="111.0" y="236.90217391304347" width="6.0" height="8.804347826086968" fill="#ff4444" opacity="0.85"/>
<line x1="126.0" y1="227.55720823798626" x2="126.0" y2="241.22711670480547" stroke="#ff4444" stroke-width="0.5" opacity="0.6"/>
<rect x="123.0" y="230.1058352402746" width="6.0" height="8.49542334096111" fill="#ff4444" opacity="0.85"/>
<line x1="138.0" y1="229.95137299771167" x2="138.0" y2="248.71853546910756" stroke="#44aa44" stroke-width="0.5" opacity="0.6"/>
<rect x="135.0" y="241.45881006864988" width="6.0" height="0.5" fill="#44aa44" opacity="0.85"/>
<line x1="150.0" y1="229.79691075514873" x2="150.0" y2="239.4508009153318" stroke="#ff4444" stroke-width="0.5" opacity="0.6"/>
<rect x="147.0" y="236.51601830663614" width="6.0" height="2.934782608695656" fill="#ff4444" opacity="0.85"/>
<line x1="162.0" y1="234.50800915331806" x2="162.0" y2="243.69851258581232" stroke="#44aa44" stroke-width="0.5" opacity="0.6"/>
<rect x="159.0" y="235.58924485125857" width="6.0" height="6.796338672768883" fill="#44aa44" opacity="0.85"/>
<line x1="174.0" y1="240.45480549199084" x2="174.0" y2="252.9662471395881" stroke="#44aa44" stroke-width="0.5" opacity="0.6"/>
<rect x="171.0" y="244.08466819221965" width="6.0" height="6.487414187643026" fill="#44aa44" opacity="0.85"/>
<line x1="186.0" y1="244.85697940503434" x2="186.0" y2="252.5800915331808" stroke="#44aa44" stroke-width="0.5" opacity="0.6"/>
<rect x="183.0" y="247.17391304347822" width="6.0" height="3.9387871853546983" fill="#44aa44" opacity="0.85"/>
<line x1="198.0" y1="229.25629290617846" x2="198.0" y2="248.64130434782606" stroke="#ff4444" stroke-width="0.5" opacity="0.6"/>
<rect x="195.0" y="242.15389016018307" width="6.0" height="5.020022883295155" fill="#ff4444" opacity="0.85"/>
<line x1="210.0" y1="227.47997711670482" x2="210.0" y2="245.0886727688787" stroke="#ff4444" stroke-width="0.5" opacity="0.6"/>
<rect x="207.0" y="240.0686498855835" width="6.0" height="3.7070938215103126" fill="#ff4444" opacity="0.85"/>
<line x1="222.0" y1="216.66762013729974" x2="222.0" y2="243.23512585812358" stroke="#ff4444" stroke-width="0.5" opacity="0.6"/>
<rect x="219.0" y="229.71967963386726" width="6.0" height="10.271739130434781" fill="#ff4444" opacity="0.85"/>
<line x1="234.0" y1="228.7929061784897" x2="234.0" y2="242.15389016018307" stroke="#44aa44" stroke-width="0.5" opacity="0.6"/>
<rect x="231.0" y="228.7929061784897" width="6.0" height="11.430205949656767" fill="#44aa44" opacity="0.85"/>
<line x1="246.0" y1="236.36155606407323" x2="246.0" y2="269.41647597254007" stroke="#44aa44" stroke-width="0.5" opacity="0.6"/>
<rect x="243.0" y="242.38558352402745" width="6.0" height="27.030892448512617" fill="#44aa44" opacity="0.85"/>
<line x1="258.0" y1="269.57093821510296" x2="258.0" y2="300.0" stroke="#44aa44" stroke-width="0.5" opacity="0.6"/>
<rect x="255.0" y="269.57093821510296" width="6.0" height="27.803203661327245" fill="#44aa44" opacity="0.85"/>
<line x1="270.0" y1="282.46853546910756" x2="270.0" y2="297.68306636155603" stroke="#ff4444" stroke-width="0.5" opacity="0.6"/>
<rect x="267.0" y="284.2448512585812" width="6.0" height="8.49542334096111" fill="#ff4444" opacity="0.85"/>
<line x1="282.0" y1="261.07551487414185" x2="282.0" y2="284.4765446224256" stroke="#ff4444" stroke-width="0.5" opacity="0.6"/>
<rect x="279.0" y="262.62013729977116" width="6.0" height="21.161327231121277" fill="#ff4444" opacity="0.85"/>
<line x1="294.0" y1="259.1447368421052" x2="294.0" y2="273.2008009153318" stroke="#44aa44" stroke-width="0.5" opacity="0.6"/>
<rect x="291.0" y="266.40446224256294" width="6.0" height="6.410183066361526" fill="#44aa44" opacity="0.85"/>
<line x1="306.0" y1="272.81464530892447" x2="306.0" y2="283.3953089244851" stroke="#44aa44" stroke-width="0.5" opacity="0.6"/>
<rect x="303.0" y="273.97311212814645" width="6.0" height="2.008009153318028" fill="#44aa44" opacity="0.85"/>
<line x1="318.0" y1="264.3964530892448" x2="318.0" y2="277.68020594965674" stroke="#ff4444" stroke-width="0.5" opacity="0.6"/>
<rect x="315.0" y="270.8838672768878" width="6.0" height="4.6338672768879405" fill="#ff4444" opacity="0.85"/>
<line x1="330.0" y1="265.70938215102973" x2="330.0" y2="283.16361556064066" stroke="#44aa44" stroke-width="0.5" opacity="0.6"/>
<rect x="327.0" y="274.51372997711667" width="6.0" height="8.649885583523997" fill="#44aa44" opacity="0.85"/>
<line x1="342.0" y1="266.25" x2="342.0" y2="282.62299771167045" stroke="#44aa44" stroke-width="0.5" opacity="0.6"/>
<rect x="339.0" y="274.2048054919908" width="6.0" height="1.0040045766590993" fill="#44aa44" opacity="0.85"/>
<line x1="354.0" y1="272.9691075514874" x2="354.0" y2="283.78146453089244" stroke="#44aa44" stroke-width="0.5" opacity="0.6"/>
<rect x="351.0" y="273.27803203661324" width="6.0" height="5.174485125858098" fill="#44aa44" opacity="0.85"/>
<line x1="366.0" y1="274.82265446224255" x2="366.0" y2="293.512585812357" stroke="#44aa44" stroke-width="0.5" opacity="0.6"/>
<rect x="363.0" y="274.82265446224255" width="6.0" height="11.89359267734551" fill="#44aa44" opacity="0.85"/>
<line x1="378.0" y1="282.70022883295195" x2="378.0" y2="293.512585812357" stroke="#ff4444" stroke-width="0.5" opacity="0.6"/>
<rect x="375.0" y="286.25286041189935" width="6.0" height="1.6990846681921994" fill="#ff4444" opacity="0.85"/>
<line x1="390.0" y1="262.62013729977116" x2="390.0" y2="276.058352402746" stroke="#ff4444" stroke-width="0.5" opacity="0.6"/>
<rect x="387.0" y="262.929061784897" width="6.0" height="13.129290617848994" fill="#ff4444" opacity="0.85"/>
<line x1="402.0" y1="252.5800915331808" x2="402.0" y2="265.3232265446224" stroke="#44aa44" stroke-width="0.5" opacity="0.6"/>
<rect x="399.0" y="259.22196796338676" width="6.0" height="3.5526315789473415" fill="#44aa44" opacity="0.85"/>
<line x1="414.0" y1="253.3524027459954" x2="414.0" y2="265.70938215102973" stroke="#ff4444" stroke-width="0.5" opacity="0.6"/>
<rect x="411.0" y="258.37242562929066" width="6.0" height="4.402173913043441" fill="#ff4444" opacity="0.85"/>
<line x1="426.0" y1="242.92620137299772" x2="426.0" y2="260.07151029748286" stroke="#ff4444" stroke-width="0.5" opacity="0.6"/>
<rect x="423.0" y="246.47883295194507" width="6.0" height="12.743135011441694" fill="#ff4444" opacity="0.85"/>
<line x1="438.0" y1="237.28832951945077" x2="438.0" y2="247.9462242562929" stroke="#ff4444" stroke-width="0.5" opacity="0.6"/>
<rect x="435.0" y="240.99542334096108" width="6.0" height="5.328947368421069" fill="#ff4444" opacity="0.85"/>
<line x1="450.0" y1="228.09782608695653" x2="450.0" y2="240.91819221967958" stroke="#ff4444" stroke-width="0.5" opacity="0.6"/>
<rect x="447.0" y="237.7517162471396" width="6.0" height="3.1664759725399847" fill="#ff4444" opacity="0.85"/>
<line x1="462.0" y1="221.68764302059498" x2="462.0" y2="239.37356979405035" stroke="#ff4444" stroke-width="0.5" opacity="0.6"/>
<rect x="459.0" y="225.16304347826085" width="6.0" height="12.820366132723137" fill="#ff4444" opacity="0.85"/>
<line x1="474.0" y1="211.64759725400455" x2="474.0" y2="229.0245995423341" stroke="#ff4444" stroke-width="0.5" opacity="0.6"/>
<rect x="471.0" y="220.14302059496566" width="6.0" height="3.6298627002288413" fill="#ff4444" opacity="0.85"/>
<line x1="486.0" y1="209.33066361556064" x2="486.0" y2="224.00457665903892" stroke="#ff4444" stroke-width="0.5" opacity="0.6"/>
<rect x="483.0" y="215.66361556064075" width="6.0" height="5.251716247139598" fill="#ff4444" opacity="0.85"/>
<line x1="498.0" y1="208.63558352402742" x2="498.0" y2="227.09382151029746" stroke="#44aa44" stroke-width="0.5" opacity="0.6"/>
<rect x="495.0" y="208.63558352402742" width="6.0" height="10.812356979405052" fill="#44aa44" opacity="0.85"/>
<line x1="510.0" y1="217.20823798626998" x2="510.0" y2="225.39473684210523" stroke="#ff4444" stroke-width="0.5" opacity="0.6"/>
<rect x="507.0" y="218.21224256292905" width="6.0" height="2.2397025171624705" fill="#ff4444" opacity="0.85"/>
<line x1="522.0" y1="215.50915331807778" x2="522.0" y2="229.41075514874143" stroke="#44aa44" stroke-width="0.5" opacity="0.6"/>
<rect x="519.0" y="215.50915331807778" width="6.0" height="4.788329519450855" fill="#44aa44" opacity="0.85"/>
<line x1="534.0" y1="208.9445080091533" x2="534.0" y2="222.30549199084666" stroke="#ff4444" stroke-width="0.5" opacity="0.6"/>
<rect x="531.0" y="220.29748283752863" width="6.0" height="0.5" fill="#ff4444" opacity="0.85"/>
<line x1="546.0" y1="204.5423340961098" x2="546.0" y2="223.6184210526316" stroke="#ff4444" stroke-width="0.5" opacity="0.6"/>
<rect x="543.0" y="208.17219679633868" width="6.0" height="13.206521739130409" fill="#ff4444" opacity="0.85"/>
<line x1="558.0" y1="195.429061784897" x2="558.0" y2="212.4199084668192" stroke="#ff4444" stroke-width="0.5" opacity="0.6"/>
<rect x="555.0" y="202.45709382151028" width="6.0" height="3.0120137299771272" fill="#ff4444" opacity="0.85"/>
<line x1="570.0" y1="186.3930205949657" x2="570.0" y2="208.55835240274598" stroke="#ff4444" stroke-width="0.5" opacity="0.6"/>
<rect x="567.0" y="188.4782608695652" width="6.0" height="20.08009153318079" fill="#ff4444" opacity="0.85"/>
<line x1="582.0" y1="174.65389016018307" x2="582.0" y2="190.7179633867277" stroke="#ff4444" stroke-width="0.5" opacity="0.6"/>
<rect x="579.0" y="177.58867276887875" width="6.0" height="13.129290617848937" fill="#ff4444" opacity="0.85"/>
<line x1="594.0" y1="169.32494279176203" x2="594.0" y2="181.37299771167045" stroke="#ff4444" stroke-width="0.5" opacity="0.6"/>
<rect x="591.0" y="173.10926773455375" width="6.0" height="4.479405034324998" fill="#ff4444" opacity="0.85"/>
<line x1="606.0" y1="159.13043478260872" x2="606.0" y2="173.0320366132723" stroke="#ff4444" stroke-width="0.5" opacity="0.6"/>
<rect x="603.0" y="164.7683066361556" width="6.0" height="6.719107551487468" fill="#ff4444" opacity="0.85"/>
<line x1="618.0" y1="139.97711670480555" x2="618.0" y2="172.0280320366133" stroke="#ff4444" stroke-width="0.5" opacity="0.6"/>
<rect x="615.0" y="144.84267734553777" width="6.0" height="21.161327231121277" fill="#ff4444" opacity="0.85"/>
<line x1="630.0" y1="119.43363844393589" x2="630.0" y2="161.67906178489702" stroke="#ff4444" stroke-width="0.5" opacity="0.6"/>
<rect x="627.0" y="127.07951945080094" width="6.0" height="19.693935926773435" fill="#ff4444" opacity="0.85"/>
<line x1="642.0" y1="115.88100686498856" x2="642.0" y2="137.5057208237986" stroke="#ff4444" stroke-width="0.5" opacity="0.6"/>
<rect x="639.0" y="126.84782608695654" width="6.0" height="0.5" fill="#ff4444" opacity="0.85"/>
<line x1="654.0" y1="119.7425629290618" x2="654.0" y2="173.34096109839817" stroke="#ff4444" stroke-width="0.5" opacity="0.6"/>
<rect x="651.0" y="126.07551487414183" width="6.0" height="1.4673913043479274" fill="#ff4444" opacity="0.85"/>
<line x1="666.0" y1="101.97940503432498" x2="666.0" y2="131.404462242563" stroke="#ff4444" stroke-width="0.5" opacity="0.6"/>
<rect x="663.0" y="115.80377574370706" width="6.0" height="11.66189931350118" fill="#ff4444" opacity="0.85"/>
<line x1="678.0" y1="88.9273455377575" x2="678.0" y2="122.75457665903892" stroke="#ff4444" stroke-width="0.5" opacity="0.6"/>
<rect x="675.0" y="98.19508009153316" width="6.0" height="18.45823798627002" fill="#ff4444" opacity="0.85"/>
<line x1="690.0" y1="73.7900457665904" x2="690.0" y2="122.75457665903892" stroke="#ff4444" stroke-width="0.5" opacity="0.6"/>
<rect x="687.0" y="85.68363844393598" width="6.0" height="17.917620137299707" fill="#ff4444" opacity="0.85"/>
<line x1="702.0" y1="45.13729977116711" x2="702.0" y2="86.37871853546918" stroke="#ff4444" stroke-width="0.5" opacity="0.6"/>
<rect x="699.0" y="50.31178489702524" width="6.0" height="35.371853546910735" fill="#ff4444" opacity="0.85"/>
<line x1="714.0" y1="30.0" x2="714.0" y2="61.433066361556115" stroke="#ff4444" stroke-width="0.5" opacity="0.6"/>
<rect x="711.0" y="53.32379862700236" width="6.0" height="2.7030892448512134" fill="#ff4444" opacity="0.85"/>
<line x1="726.0" y1="44.364988558352394" x2="726.0" y2="93.09782608695652" stroke="#44aa44" stroke-width="0.5" opacity="0.6"/>
<rect x="723.0" y="44.596681922196794" width="6.0" height="48.50114416475972" fill="#44aa44" opacity="0.85"/>
<line x1="738.0" y1="83.21224256292905" x2="738.0" y2="109.70251716247144" stroke="#44aa44" stroke-width="0.5" opacity="0.6"/>
<rect x="735.0" y="97.42276887871856" width="6.0" height="2.780320366132713" fill="#44aa44" opacity="0.85"/>
<line x1="750.0" y1="90.5491990846682" x2="750.0" y2="109.23913043478264" stroke="#44aa44" stroke-width="0.5" opacity="0.6"/>
<rect x="747.0" y="98.73569794050346" width="6.0" height="0.6950800915332138" fill="#44aa44" opacity="0.85"/>
<line x1="762.0" y1="86.53318077803208" x2="762.0" y2="125.45766590389013" stroke="#44aa44" stroke-width="0.5" opacity="0.6"/>
<rect x="759.0" y="110.47482837528602" width="6.0" height="9.344965675057281" fill="#44aa44" opacity="0.85"/>
<line x1="774.0" y1="108.15789473684212" x2="774.0" y2="146.77345537757438" stroke="#44aa44" stroke-width="0.5" opacity="0.6"/>
<rect x="771.0" y="109.39359267734552" width="6.0" height="29.6567505720824" fill="#44aa44" opacity="0.85"/>
<rect x="218.0" y="212.66762013729974" width="8" height="8" fill="#ff9800" opacity="0.85" rx="1"/>
<text x="222.0" y="210.66762013729974" text-anchor="middle" font-family="sans-serif" font-size="8" fill="#ff9800">前高</text>
<rect x="218.0" y="199.38386727688786" width="8" height="8" fill="#ff9800" opacity="0.85" rx="1"/>
<text x="222.0" y="197.38386727688786" text-anchor="middle" font-family="sans-serif" font-size="8" fill="#ff9800">量</text>
<rect x="242.0" y="265.41647597254007" width="8" height="8" fill="#4caf50" opacity="0.85" rx="1"/>
<text x="246.0" y="263.41647597254007" text-anchor="middle" font-family="sans-serif" font-size="8" fill="#4caf50">前低</text>
<rect x="254.0" y="296.0" width="8" height="8" fill="#4caf50" opacity="0.85" rx="1"/>
<text x="258.0" y="294.0" text-anchor="middle" font-family="sans-serif" font-size="8" fill="#4caf50">前低</text>
<rect x="398.0" y="248.5800915331808" width="8" height="8" fill="#ff9800" opacity="0.85" rx="1"/>
<text x="402.0" y="246.5800915331808" text-anchor="middle" font-family="sans-serif" font-size="8" fill="#ff9800">前高</text>
<rect x="422.0" y="238.92620137299772" width="8" height="8" fill="#ff9800" opacity="0.85" rx="1"/>
<text x="426.0" y="236.92620137299772" text-anchor="middle" font-family="sans-serif" font-size="8" fill="#ff9800">前高</text>
<rect x="422.0" y="238.92620137299772" width="8" height="8" fill="#2196f3" opacity="0.85" rx="1"/>
<text x="426.0" y="236.92620137299772" text-anchor="middle" font-family="sans-serif" font-size="8" fill="#2196f3">突</text>
<rect x="434.0" y="233.28832951945077" width="8" height="8" fill="#ff9800" opacity="0.85" rx="1"/>
<text x="438.0" y="231.28832951945077" text-anchor="middle" font-family="sans-serif" font-size="8" fill="#ff9800">前高</text>
<rect x="446.0" y="224.09782608695653" width="8" height="8" fill="#ff9800" opacity="0.85" rx="1"/>
<text x="450.0" y="222.09782608695653" text-anchor="middle" font-family="sans-serif" font-size="8" fill="#ff9800">前高</text>
<rect x="458.0" y="217.68764302059498" width="8" height="8" fill="#ff9800" opacity="0.85" rx="1"/>
<text x="462.0" y="215.68764302059498" text-anchor="middle" font-family="sans-serif" font-size="8" fill="#ff9800">前高</text>
<rect x="458.0" y="217.68764302059498" width="8" height="8" fill="#2196f3" opacity="0.85" rx="1"/>
<text x="462.0" y="215.68764302059498" text-anchor="middle" font-family="sans-serif" font-size="8" fill="#2196f3">突</text>
<rect x="470.0" y="207.64759725400455" width="8" height="8" fill="#ff9800" opacity="0.85" rx="1"/>
<text x="474.0" y="205.64759725400455" text-anchor="middle" font-family="sans-serif" font-size="8" fill="#ff9800">前高</text>
<rect x="482.0" y="205.33066361556064" width="8" height="8" fill="#ff9800" opacity="0.85" rx="1"/>
<text x="486.0" y="203.33066361556064" text-anchor="middle" font-family="sans-serif" font-size="8" fill="#ff9800">前高</text>
<rect x="494.0" y="204.63558352402742" width="8" height="8" fill="#ff9800" opacity="0.85" rx="1"/>
<text x="498.0" y="202.63558352402742" text-anchor="middle" font-family="sans-serif" font-size="8" fill="#ff9800">前高</text>
<rect x="542.0" y="200.5423340961098" width="8" height="8" fill="#ff9800" opacity="0.85" rx="1"/>
<text x="546.0" y="198.5423340961098" text-anchor="middle" font-family="sans-serif" font-size="8" fill="#ff9800">前高</text>
<rect x="542.0" y="200.5423340961098" width="8" height="8" fill="#2196f3" opacity="0.85" rx="1"/>
<text x="546.0" y="198.5423340961098" text-anchor="middle" font-family="sans-serif" font-size="8" fill="#2196f3">突</text>
<rect x="554.0" y="191.429061784897" width="8" height="8" fill="#ff9800" opacity="0.85" rx="1"/>
<text x="558.0" y="189.429061784897" text-anchor="middle" font-family="sans-serif" font-size="8" fill="#ff9800">前高</text>
<rect x="566.0" y="182.3930205949657" width="8" height="8" fill="#ff9800" opacity="0.85" rx="1"/>
<text x="570.0" y="180.3930205949657" text-anchor="middle" font-family="sans-serif" font-size="8" fill="#ff9800">前高</text>
<rect x="566.0" y="182.3930205949657" width="8" height="8" fill="#2196f3" opacity="0.85" rx="1"/>
<text x="570.0" y="180.3930205949657" text-anchor="middle" font-family="sans-serif" font-size="8" fill="#2196f3">突</text>
<rect x="578.0" y="170.65389016018307" width="8" height="8" fill="#ff9800" opacity="0.85" rx="1"/>
<text x="582.0" y="168.65389016018307" text-anchor="middle" font-family="sans-serif" font-size="8" fill="#ff9800">前高</text>
<rect x="578.0" y="170.65389016018307" width="8" height="8" fill="#2196f3" opacity="0.85" rx="1"/>
<text x="582.0" y="168.65389016018307" text-anchor="middle" font-family="sans-serif" font-size="8" fill="#2196f3">突</text>
<rect x="590.0" y="165.32494279176203" width="8" height="8" fill="#ff9800" opacity="0.85" rx="1"/>
<text x="594.0" y="163.32494279176203" text-anchor="middle" font-family="sans-serif" font-size="8" fill="#ff9800">前高</text>
<rect x="602.0" y="155.13043478260872" width="8" height="8" fill="#ff9800" opacity="0.85" rx="1"/>
<text x="606.0" y="153.13043478260872" text-anchor="middle" font-family="sans-serif" font-size="8" fill="#ff9800">前高</text>
<rect x="614.0" y="135.97711670480555" width="8" height="8" fill="#ff9800" opacity="0.85" rx="1"/>
<text x="618.0" y="133.97711670480555" text-anchor="middle" font-family="sans-serif" font-size="8" fill="#ff9800">前高</text>
<rect x="614.0" y="135.97711670480555" width="8" height="8" fill="#2196f3" opacity="0.85" rx="1"/>
<text x="618.0" y="133.97711670480555" text-anchor="middle" font-family="sans-serif" font-size="8" fill="#2196f3">突</text>
<rect x="626.0" y="115.43363844393589" width="8" height="8" fill="#ff9800" opacity="0.85" rx="1"/>
<text x="630.0" y="113.43363844393589" text-anchor="middle" font-family="sans-serif" font-size="8" fill="#ff9800">前高</text>
<rect x="626.0" y="115.43363844393589" width="8" height="8" fill="#2196f3" opacity="0.85" rx="1"/>
<text x="630.0" y="113.43363844393589" text-anchor="middle" font-family="sans-serif" font-size="8" fill="#2196f3">突</text>
<rect x="638.0" y="111.88100686498856" width="8" height="8" fill="#ff9800" opacity="0.85" rx="1"/>
<text x="642.0" y="109.88100686498856" text-anchor="middle" font-family="sans-serif" font-size="8" fill="#ff9800">前高</text>
<rect x="662.0" y="97.97940503432498" width="8" height="8" fill="#ff9800" opacity="0.85" rx="1"/>
<text x="666.0" y="95.97940503432498" text-anchor="middle" font-family="sans-serif" font-size="8" fill="#ff9800">前高</text>
<rect x="674.0" y="84.9273455377575" width="8" height="8" fill="#ff9800" opacity="0.85" rx="1"/>
<text x="678.0" y="82.9273455377575" text-anchor="middle" font-family="sans-serif" font-size="8" fill="#ff9800">前高</text>
<rect x="674.0" y="84.9273455377575" width="8" height="8" fill="#2196f3" opacity="0.85" rx="1"/>
<text x="678.0" y="82.9273455377575" text-anchor="middle" font-family="sans-serif" font-size="8" fill="#2196f3">突</text>
<rect x="686.0" y="69.7900457665904" width="8" height="8" fill="#ff9800" opacity="0.85" rx="1"/>
<text x="690.0" y="67.7900457665904" text-anchor="middle" font-family="sans-serif" font-size="8" fill="#ff9800">前高</text>
<rect x="686.0" y="69.7900457665904" width="8" height="8" fill="#2196f3" opacity="0.85" rx="1"/>
<text x="690.0" y="67.7900457665904" text-anchor="middle" font-family="sans-serif" font-size="8" fill="#2196f3">突</text>
<rect x="698.0" y="41.13729977116711" width="8" height="8" fill="#ff9800" opacity="0.85" rx="1"/>
<text x="702.0" y="39.13729977116711" text-anchor="middle" font-family="sans-serif" font-size="8" fill="#ff9800">前高</text>
<rect x="698.0" y="41.13729977116711" width="8" height="8" fill="#2196f3" opacity="0.85" rx="1"/>
<text x="702.0" y="39.13729977116711" text-anchor="middle" font-family="sans-serif" font-size="8" fill="#2196f3">突</text>
<rect x="710.0" y="26.0" width="8" height="8" fill="#ff9800" opacity="0.85" rx="1"/>
<text x="714.0" y="24.0" text-anchor="middle" font-family="sans-serif" font-size="8" fill="#ff9800">前高</text>
<line x1="60" y1="139.97711670480555" x2="780" y2="139.97711670480555" stroke="#4caf50" stroke-width="1.5" stroke-dasharray="6,3" opacity="0.7"/>
<text x="64" y="135.97711670480555" font-family="sans-serif" font-size="9" fill="#4caf50" font-weight="bold">支撑 64.88</text>
<line x1="60" y1="30.0" x2="780" y2="30.0" stroke="#f44336" stroke-width="1.5" stroke-dasharray="6,3" opacity="0.7"/>
<text x="64" y="26.0" font-family="sans-serif" font-size="9" fill="#f44336" font-weight="bold">压力 79.12</text>
<text x="66.0" y="359" text-anchor="middle" font-family="sans-serif" font-size="8" fill="#666666" transform="rotate(-40,66.0,359)">02/27</text>
<text x="138.0" y="359" text-anchor="middle" font-family="sans-serif" font-size="8" fill="#666666" transform="rotate(-40,138.0,359)">03/09</text>
<text x="210.0" y="359" text-anchor="middle" font-family="sans-serif" font-size="8" fill="#666666" transform="rotate(-40,210.0,359)">03/17</text>
<text x="282.0" y="359" text-anchor="middle" font-family="sans-serif" font-size="8" fill="#666666" transform="rotate(-40,282.0,359)">03/25</text>
<text x="354.0" y="359" text-anchor="middle" font-family="sans-serif" font-size="8" fill="#666666" transform="rotate(-40,354.0,359)">04/02</text>
<text x="426.0" y="359" text-anchor="middle" font-family="sans-serif" font-size="8" fill="#666666" transform="rotate(-40,426.0,359)">04/13</text>
<text x="498.0" y="359" text-anchor="middle" font-family="sans-serif" font-size="8" fill="#666666" transform="rotate(-40,498.0,359)">04/21</text>
<text x="570.0" y="359" text-anchor="middle" font-family="sans-serif" font-size="8" fill="#666666" transform="rotate(-40,570.0,359)">04/29</text>
<text x="642.0" y="359" text-anchor="middle" font-family="sans-serif" font-size="8" fill="#666666" transform="rotate(-40,642.0,359)">05/12</text>
<text x="714.0" y="359" text-anchor="middle" font-family="sans-serif" font-size="8" fill="#666666" transform="rotate(-40,714.0,359)">05/20</text>
<text x="774.0" y="359" text-anchor="middle" font-family="sans-serif" font-size="8" fill="#666666" transform="rotate(-40,774.0,359)">05/27</text>
<text x="400.0" y="396" text-anchor="middle" font-family="sans-serif" font-size="9" fill="#555555">数据截至: 2026-05-27 21:35  |  最新K线: 20260527</text>
<rect x="50" y="373" width="8" height="8" fill="#ffd700" opacity="0.8" rx="1"/>
<text x="61" y="380" font-family="sans-serif" font-size="9" fill="#888888">EMA5</text>
<rect x="150" y="373" width="8" height="8" fill="#ff6b6b" opacity="0.8" rx="1"/>
<text x="161" y="380" font-family="sans-serif" font-size="9" fill="#888888">EMA10</text>
<rect x="250" y="373" width="8" height="8" fill="#4ecdc4" opacity="0.8" rx="1"/>
<text x="261" y="380" font-family="sans-serif" font-size="9" fill="#888888">EMA20</text>
<rect x="350" y="373" width="8" height="8" fill="#2196f3" opacity="0.8" rx="1"/>
<text x="361" y="380" font-family="sans-serif" font-size="9" fill="#888888">突破</text>
<rect x="450" y="373" width="8" height="8" fill="#ff9800" opacity="0.8" rx="1"/>
<text x="461" y="380" font-family="sans-serif" font-size="9" fill="#888888">前高/量</text>
<rect x="550" y="373" width="8" height="8" fill="#4caf50" opacity="0.8" rx="1"/>
<text x="561" y="380" font-family="sans-serif" font-size="9" fill="#888888">前低</text>
</svg>