<svg xmlns="http://www.w3.org/2000/svg" width="800" height="400" viewBox="0 0 800 400">
<rect width="800" height="400" fill="#1a1a2e"/>
<text x="400.0" y="20" text-anchor="middle" font-family="sans-serif" font-size="14" fill="#ffffff" font-weight="bold">科泰电源(300153) K线图</text>
<line x1="60" y1="30.0" x2="780" y2="30.0" stroke="#2a2a4e" stroke-width="0.5"/>
<text x="55" y="33.0" text-anchor="end" font-family="sans-serif" font-size="8" fill="#666666">41.40</text>
<line x1="60" y1="84.00000000000003" x2="780" y2="84.00000000000003" stroke="#2a2a4e" stroke-width="0.5"/>
<text x="55" y="87.00000000000003" text-anchor="end" font-family="sans-serif" font-size="8" fill="#666666">37.86</text>
<line x1="60" y1="137.99999999999994" x2="780" y2="137.99999999999994" stroke="#2a2a4e" stroke-width="0.5"/>
<text x="55" y="140.99999999999994" text-anchor="end" font-family="sans-serif" font-size="8" fill="#666666">34.32</text>
<line x1="60" y1="192.0" x2="780" y2="192.0" stroke="#2a2a4e" stroke-width="0.5"/>
<text x="55" y="195.0" text-anchor="end" font-family="sans-serif" font-size="8" fill="#666666">30.77</text>
<line x1="60" y1="246.0" x2="780" y2="246.0" stroke="#2a2a4e" stroke-width="0.5"/>
<text x="55" y="249.0" text-anchor="end" font-family="sans-serif" font-size="8" fill="#666666">27.23</text>
<line x1="60" y1="300.0" x2="780" y2="300.0" stroke="#2a2a4e" stroke-width="0.5"/>
<text x="55" y="303.0" text-anchor="end" font-family="sans-serif" font-size="8" fill="#666666">23.69</text>
<line x1="60" y1="300" x2="780" y2="300" stroke="#2a2a4e" stroke-width="0.5"/>
<line x1="60" y1="345" x2="780" y2="345" stroke="#2a2a4e" stroke-width="0.5"/>
<rect x="61.8" y="322.82641349991064" width="7.199999999999999" height="22.173586500089357" fill="#ff4444" opacity="0.3"/>
<rect x="73.8" y="300.255049809399" width="7.199999999999999" height="44.744950190601" fill="#ff4444" opacity="0.3"/>
<rect x="85.8" y="311.87585621537914" width="7.199999999999999" height="33.124143784620856" fill="#ff4444" opacity="0.3"/>
<rect x="97.8" y="316.4455614539282" width="7.199999999999999" height="28.55443854607182" fill="#44aa44" opacity="0.3"/>
<rect x="109.8" y="327.46203801596283" width="7.199999999999999" height="17.537961984037167" fill="#ff4444" opacity="0.3"/>
<rect x="121.8" y="317.8190612156769" width="7.199999999999999" height="27.180938784323075" fill="#ff4444" opacity="0.3"/>
<rect x="133.8" y="300.0" width="7.199999999999999" height="45.0" fill="#ff4444" opacity="0.3"/>
<rect x="145.8" y="316.2448720144142" width="7.199999999999999" height="28.755127985585773" fill="#ff4444" opacity="0.3"/>
<rect x="157.8" y="317.835729495503" width="7.199999999999999" height="27.164270504496983" fill="#44aa44" opacity="0.3"/>
<rect x="169.8" y="314.96350847280956" width="7.199999999999999" height="30.036491527190435" fill="#44aa44" opacity="0.3"/>
<rect x="181.8" y="318.3711246947406" width="7.199999999999999" height="26.628875305259385" fill="#44aa44" opacity="0.3"/>
<rect x="193.8" y="325.2412200696885" width="7.199999999999999" height="19.758779930311505" fill="#44aa44" opacity="0.3"/>
<rect x="205.8" y="331.85408787003394" width="7.199999999999999" height="13.145912129966064" fill="#44aa44" opacity="0.3"/>
<rect x="217.8" y="330.6001139138722" width="7.199999999999999" height="14.399886086127822" fill="#44aa44" opacity="0.3"/>
<rect x="229.8" y="334.03026162963846" width="7.199999999999999" height="10.96973837036154" fill="#ff4444" opacity="0.3"/>
<rect x="241.8" y="331.8186573053785" width="7.199999999999999" height="13.181342694621492" fill="#44aa44" opacity="0.3"/>
<rect x="253.8" y="332.6378320626601" width="7.199999999999999" height="12.362167937339905" fill="#44aa44" opacity="0.3"/>
<rect x="265.8" y="334.33875044672106" width="7.199999999999999" height="10.661249553278935" fill="#44aa44" opacity="0.3"/>
<rect x="277.8" y="336.92342270236463" width="7.199999999999999" height="8.076577297635367" fill="#44aa44" opacity="0.3"/>
<rect x="289.8" y="332.79563627970697" width="7.199999999999999" height="12.204363720293031" fill="#ff4444" opacity="0.3"/>
<rect x="301.8" y="324.383766900947" width="7.199999999999999" height="20.616233099052977" fill="#44aa44" opacity="0.3"/>
<rect x="313.8" y="333.7728665346358" width="7.199999999999999" height="11.227133465364204" fill="#ff4444" opacity="0.3"/>
<rect x="325.8" y="333.12640531002444" width="7.199999999999999" height="11.873594689975562" fill="#ff4444" opacity="0.3"/>
<rect x="337.8" y="335.78905831199" width="7.199999999999999" height="9.210941688009996" fill="#44aa44" opacity="0.3"/>
<rect x="349.8" y="335.1253424861516" width="7.199999999999999" height="9.874657513848376" fill="#44aa44" opacity="0.3"/>
<rect x="361.8" y="334.38029550598606" width="7.199999999999999" height="10.619704494013945" fill="#44aa44" opacity="0.3"/>
<rect x="373.8" y="330.43309607481086" width="7.199999999999999" height="14.566903925189138" fill="#ff4444" opacity="0.3"/>
<rect x="385.8" y="335.7548841503365" width="7.199999999999999" height="9.245115849663478" fill="#44aa44" opacity="0.3"/>
<rect x="397.8" y="325.9571185002085" width="7.199999999999999" height="19.04288149979152" fill="#ff4444" opacity="0.3"/>
<rect x="409.8" y="330.77492145154565" width="7.199999999999999" height="14.225078548454348" fill="#ff4444" opacity="0.3"/>
<rect x="421.8" y="330.5324356721663" width="7.199999999999999" height="14.467564327833713" fill="#ff4444" opacity="0.3"/>
<rect x="433.8" y="335.59138423968074" width="7.199999999999999" height="9.408615760319265" fill="#44aa44" opacity="0.3"/>
<rect x="445.8" y="333.0143341622491" width="7.199999999999999" height="11.9856658377509" fill="#ff4444" opacity="0.3"/>
<rect x="457.8" y="333.55014816248735" width="7.199999999999999" height="11.449851837512654" fill="#44aa44" opacity="0.3"/>
<rect x="469.8" y="323.5897202037048" width="7.199999999999999" height="21.410279796295185" fill="#ff4444" opacity="0.3"/>
<rect x="481.8" y="328.7442391595688" width="7.199999999999999" height="16.255760840431208" fill="#ff4444" opacity="0.3"/>
<rect x="493.8" y="323.9730906397046" width="7.199999999999999" height="21.026909360295406" fill="#ff4444" opacity="0.3"/>
<rect x="505.8" y="328.7155094109238" width="7.199999999999999" height="16.2844905890762" fill="#44aa44" opacity="0.3"/>
<rect x="517.8" y="334.5671645124784" width="7.199999999999999" height="10.432835487521572" fill="#ff4444" opacity="0.3"/>
<rect x="529.8" y="333.936031404491" width="7.199999999999999" height="11.063968595508982" fill="#44aa44" opacity="0.3"/>
<rect x="541.8" y="334.9760818095181" width="7.199999999999999" height="10.02391819048188" fill="#ff4444" opacity="0.3"/>
<rect x="553.8" y="328.9087441926261" width="7.199999999999999" height="16.091255807373898" fill="#ff4444" opacity="0.3"/>
<rect x="565.8" y="322.5176734022277" width="7.199999999999999" height="22.482326597772328" fill="#ff4444" opacity="0.3"/>
<rect x="577.8" y="325.43009932098397" width="7.199999999999999" height="19.56990067901603" fill="#ff4444" opacity="0.3"/>
<rect x="589.8" y="300.10997714277204" width="7.199999999999999" height="44.89002285722796" fill="#ff4444" opacity="0.3"/>
<rect x="601.8" y="311.862370823158" width="7.199999999999999" height="33.13762917684198" fill="#44aa44" opacity="0.3"/>
<rect x="613.8" y="325.54066278515694" width="7.199999999999999" height="19.45933721484306" fill="#ff4444" opacity="0.3"/>
<rect x="625.8" y="326.7141431889928" width="7.199999999999999" height="18.285856811007193" fill="#44aa44" opacity="0.3"/>
<rect x="637.8" y="329.20525530109" width="7.199999999999999" height="15.794744698909994" fill="#44aa44" opacity="0.3"/>
<rect x="649.8" y="328.9059801060218" width="7.199999999999999" height="16.094019893978214" fill="#44aa44" opacity="0.3"/>
<rect x="661.8" y="304.8602693728036" width="7.199999999999999" height="40.1397306271964" fill="#ff4444" opacity="0.3"/>
<rect x="673.8" y="317.94135110786823" width="7.199999999999999" height="27.05864889213177" fill="#44aa44" opacity="0.3"/>
<rect x="685.8" y="319.5031437995116" width="7.199999999999999" height="25.496856200488423" fill="#ff4444" opacity="0.3"/>
<rect x="697.8" y="325.0601305170052" width="7.199999999999999" height="19.939869482994823" fill="#ff4444" opacity="0.3"/>
<rect x="709.8" y="316.3945514920484" width="7.199999999999999" height="28.60544850795162" fill="#44aa44" opacity="0.3"/>
<rect x="721.8" y="327.3888316010483" width="7.199999999999999" height="17.61116839895169" fill="#ff4444" opacity="0.3"/>
<rect x="733.8" y="321.9821106825898" width="7.199999999999999" height="23.01788931741021" fill="#44aa44" opacity="0.3"/>
<rect x="745.8" y="330.5776661802371" width="7.199999999999999" height="14.422333819762912" fill="#ff4444" opacity="0.3"/>
<rect x="757.8" y="333.7900373756626" width="7.199999999999999" height="11.209962624337379" fill="#ff4444" opacity="0.3"/>
<rect x="769.8" y="335.44061587944486" width="7.199999999999999" height="9.559384120555137" fill="#44aa44" opacity="0.3"/>
<polyline points="66.0,112.02 78.0,96.32 90.0,88.24 102.0,100.94 114.0,109.31 126.0,105.29 138.0,90.15 150.0,85.75 162.0,84.75 174.0,89.27 186.0,99.19 198.0,115.61 210.0,129.97 222.0,146.80 234.0,153.05 246.0,165.39 258.0,180.28 270.0,197.21 282.0,205.30 294.0,211.05 306.0,226.73 318.0,238.75 330.0,243.57 342.0,252.21 354.0,257.22 366.0,266.65 378.0,270.35 390.0,276.93 402.0,269.83 414.0,266.06 426.0,261.47 438.0,260.29 450.0,255.64 462.0,254.31 474.0,243.68 486.0,237.91 498.0,229.79 510.0,229.87 522.0,230.02 534.0,232.71 546.0,236.59 558.0,234.81 570.0,230.57 582.0,222.92 594.0,208.11 606.0,199.25 618.0,193.55 630.0,195.44 642.0,193.91 654.0,194.31 666.0,180.19 678.0,179.17 690.0,178.23 702.0,174.56 714.0,176.73 726.0,179.15 738.0,194.28 750.0,199.03 762.0,200.57 774.0,206.17" fill="none" stroke="#ffd700" stroke-width="0.8" opacity="0.7"/>
<polyline points="66.0,112.02 78.0,103.46 90.0,97.75 102.0,102.95 114.0,107.15 126.0,105.35 138.0,97.08 150.0,93.42 162.0,91.48 174.0,92.72 186.0,97.51 198.0,106.77 210.0,116.21 222.0,127.89 234.0,134.74 246.0,144.80 258.0,156.66 270.0,170.19 282.0,179.52 294.0,187.34 306.0,200.20 318.0,211.59 330.0,219.15 342.0,228.31 354.0,235.38 366.0,244.50 378.0,250.54 390.0,257.73 402.0,257.35 414.0,257.57 426.0,256.61 438.0,256.84 450.0,254.93 462.0,254.34 474.0,248.53 486.0,244.50 498.0,238.88 510.0,237.27 522.0,236.00 534.0,236.39 546.0,237.83 558.0,236.64 570.0,233.99 582.0,229.20 594.0,219.98 606.0,212.99 618.0,207.38 630.0,205.90 642.0,203.16 654.0,201.70 666.0,192.66 678.0,189.83 690.0,187.38 702.0,183.71 714.0,183.24 726.0,183.37 738.0,190.86 750.0,194.07 762.0,195.81 774.0,199.73" fill="none" stroke="#ff6b6b" stroke-width="0.8" opacity="0.7"/>
<polyline points="66.0,112.02 78.0,107.53 90.0,104.16 102.0,106.27 114.0,108.16 126.0,107.11 138.0,102.62 150.0,100.17 162.0,98.51 174.0,98.49 186.0,100.45 198.0,105.02 210.0,110.13 222.0,116.83 234.0,121.47 246.0,128.00 258.0,135.82 270.0,144.89 282.0,152.19 294.0,158.89 306.0,168.33 318.0,177.33 330.0,184.56 342.0,192.65 354.0,199.75 366.0,207.92 378.0,214.57 390.0,221.76 402.0,224.99 414.0,228.18 426.0,230.48 438.0,233.09 450.0,234.35 462.0,236.00 474.0,234.71 486.0,233.91 498.0,231.97 510.0,231.79 522.0,231.65 534.0,232.26 546.0,233.41 558.0,233.21 570.0,232.15 582.0,229.81 594.0,224.92 606.0,220.79 618.0,217.11 630.0,215.41 642.0,213.07 654.0,211.36 666.0,205.70 678.0,202.98 690.0,200.44 702.0,197.28 714.0,195.74 726.0,194.62 738.0,197.47 750.0,198.52 762.0,199.01 774.0,200.76" fill="none" stroke="#4ecdc4" stroke-width="0.8" opacity="0.7"/>
<line x1="66.0" y1="109.58215697346131" x2="66.0" y2="140.2258610954263" stroke="#ff4444" stroke-width="0.5" opacity="0.6"/>
<rect x="63.0" y="112.02145680406545" width="6.0" height="17.837380011293078" fill="#ff4444" opacity="0.85"/>
<line x1="78.0" y1="60.49124788255224" x2="78.0" y2="129.09655561829476" stroke="#ff4444" stroke-width="0.5" opacity="0.6"/>
<rect x="75.0" y="64.9124788255223" width="6.0" height="53.20722755505368" fill="#ff4444" opacity="0.85"/>
<line x1="90.0" y1="49.97176736307164" x2="90.0" y2="94.94635798983623" stroke="#ff4444" stroke-width="0.5" opacity="0.6"/>
<rect x="87.0" y="72.07792207792205" width="6.0" height="9.757199322416724" fill="#ff4444" opacity="0.85"/>
<line x1="102.0" y1="64.45511010728399" x2="102.0" y2="127.57199322416713" stroke="#44aa44" stroke-width="0.5" opacity="0.6"/>
<rect x="99.0" y="64.60756634669673" width="6.0" height="61.744776962168345" fill="#44aa44" opacity="0.85"/>
<line x1="114.0" y1="97.84302653867866" x2="114.0" y2="141.2930547713156" stroke="#ff4444" stroke-width="0.5" opacity="0.6"/>
<rect x="111.0" y="126.0474308300395" width="6.0" height="10.519480519480595" fill="#ff4444" opacity="0.85"/>
<line x1="126.0" y1="91.28740824392993" x2="126.0" y2="122.99830604178433" stroke="#ff4444" stroke-width="0.5" opacity="0.6"/>
<rect x="123.0" y="97.23320158102763" width="6.0" height="17.68492377188035" fill="#ff4444" opacity="0.85"/>
<line x1="138.0" y1="30.0" x2="138.0" y2="94.03162055335963" stroke="#ff4444" stroke-width="0.5" opacity="0.6"/>
<rect x="135.0" y="59.8814229249012" width="6.0" height="31.101072840203273" fill="#ff4444" opacity="0.85"/>
<line x1="150.0" y1="71.92546583850933" x2="150.0" y2="100.12987012987017" stroke="#ff4444" stroke-width="0.5" opacity="0.6"/>
<rect x="147.0" y="76.95652173913041" width="6.0" height="12.196499153020852" fill="#ff4444" opacity="0.85"/>
<line x1="162.0" y1="64.30265386787127" x2="162.0" y2="95.55618294748726" stroke="#44aa44" stroke-width="0.5" opacity="0.6"/>
<rect x="159.0" y="73.14511575381138" width="6.0" height="9.604743083003996" fill="#44aa44" opacity="0.85"/>
<line x1="174.0" y1="69.94353472614338" x2="174.0" y2="101.95934500282326" stroke="#44aa44" stroke-width="0.5" opacity="0.6"/>
<rect x="171.0" y="87.78091473743648" width="6.0" height="10.519480519480481" fill="#44aa44" opacity="0.85"/>
<line x1="186.0" y1="94.48898927159793" x2="186.0" y2="132.75550536420104" stroke="#44aa44" stroke-width="0.5" opacity="0.6"/>
<rect x="183.0" y="94.64144551101076" width="6.0" height="24.392998306041704" fill="#44aa44" opacity="0.85"/>
<line x1="198.0" y1="120.1016374929418" x2="198.0" y2="151.3551665725579" stroke="#44aa44" stroke-width="0.5" opacity="0.6"/>
<rect x="195.0" y="128.63918690005647" width="6.0" height="19.819311123658906" fill="#44aa44" opacity="0.85"/>
<line x1="210.0" y1="150.74534161490686" x2="210.0" y2="173.15640880858277" stroke="#44aa44" stroke-width="0.5" opacity="0.6"/>
<rect x="207.0" y="150.74534161490686" width="6.0" height="7.92772444946354" fill="#44aa44" opacity="0.85"/>
<line x1="222.0" y1="152.2699040090344" x2="222.0" y2="181.99887069452288" stroke="#44aa44" stroke-width="0.5" opacity="0.6"/>
<rect x="219.0" y="155.9288537549407" width="6.0" height="24.545454545454533" fill="#44aa44" opacity="0.85"/>
<line x1="234.0" y1="163.7041219649915" x2="234.0" y2="181.23658949745908" stroke="#ff4444" stroke-width="0.5" opacity="0.6"/>
<rect x="231.0" y="165.53359683794469" width="6.0" height="10.824392998306024" fill="#ff4444" opacity="0.85"/>
<line x1="246.0" y1="172.69904009034445" x2="246.0" y2="193.2806324110672" stroke="#44aa44" stroke-width="0.5" opacity="0.6"/>
<rect x="243.0" y="180.1693958215697" width="6.0" height="9.909655561829538" fill="#44aa44" opacity="0.85"/>
<line x1="258.0" y1="183.21852060982494" x2="258.0" y2="210.20327498588372" stroke="#44aa44" stroke-width="0.5" opacity="0.6"/>
<rect x="255.0" y="183.5234330886505" width="6.0" height="26.527385657820446" fill="#44aa44" opacity="0.85"/>
<line x1="270.0" y1="205.17221908526255" x2="270.0" y2="233.98644833427443" stroke="#44aa44" stroke-width="0.5" opacity="0.6"/>
<rect x="267.0" y="221.33258046301523" width="6.0" height="9.75719932241671" fill="#44aa44" opacity="0.85"/>
<line x1="282.0" y1="217.52117447769618" x2="282.0" y2="233.22416713721063" stroke="#44aa44" stroke-width="0.5" opacity="0.6"/>
<rect x="279.0" y="219.19819311123663" width="6.0" height="2.286843591191399" fill="#44aa44" opacity="0.85"/>
<line x1="294.0" y1="217.36871823828346" x2="294.0" y2="229.71767363071712" stroke="#ff4444" stroke-width="0.5" opacity="0.6"/>
<rect x="291.0" y="222.55223037831735" width="6.0" height="6.860530773574226" fill="#ff4444" opacity="0.85"/>
<line x1="306.0" y1="222.85714285714286" x2="306.0" y2="264.63015245623944" stroke="#44aa44" stroke-width="0.5" opacity="0.6"/>
<rect x="303.0" y="226.6685488424619" width="6.0" height="31.40598531902876" fill="#44aa44" opacity="0.85"/>
<line x1="318.0" y1="258.98927159796733" x2="318.0" y2="272.40542066629024" stroke="#ff4444" stroke-width="0.5" opacity="0.6"/>
<rect x="315.0" y="262.8006775832863" width="6.0" height="0.914737436476571" fill="#ff4444" opacity="0.85"/>
<line x1="330.0" y1="248.62224731789954" x2="330.0" y2="270.88085827216264" stroke="#ff4444" stroke-width="0.5" opacity="0.6"/>
<rect x="327.0" y="253.19593450028233" width="6.0" height="13.263692828910251" fill="#ff4444" opacity="0.85"/>
<line x1="342.0" y1="255.94014680971208" x2="342.0" y2="269.5087521174478" stroke="#44aa44" stroke-width="0.5" opacity="0.6"/>
<rect x="339.0" y="257.15979672501413" width="6.0" height="12.348955392433652" fill="#44aa44" opacity="0.85"/>
<line x1="354.0" y1="259.5990965556183" x2="354.0" y2="271.1857707509882" stroke="#44aa44" stroke-width="0.5" opacity="0.6"/>
<rect x="351.0" y="262.6482213438735" width="6.0" height="4.573687182382855" fill="#44aa44" opacity="0.85"/>
<line x1="366.0" y1="263.56295878035013" x2="366.0" y2="287.4985883681536" stroke="#44aa44" stroke-width="0.5" opacity="0.6"/>
<rect x="363.0" y="270.11857707509887" width="6.0" height="15.398080180688794" fill="#44aa44" opacity="0.85"/>
<line x1="378.0" y1="274.08243929983064" x2="378.0" y2="300.0" stroke="#ff4444" stroke-width="0.5" opacity="0.6"/>
<rect x="375.0" y="277.7413890457369" width="6.0" height="3.81140598531897" fill="#ff4444" opacity="0.85"/>
<line x1="390.0" y1="281.8577075098815" x2="390.0" y2="292.5296442687747" stroke="#44aa44" stroke-width="0.5" opacity="0.6"/>
<rect x="387.0" y="282.772444946358" width="6.0" height="7.317899491812511" fill="#44aa44" opacity="0.85"/>
<line x1="402.0" y1="252.58610954263128" x2="402.0" y2="278.5036702428007" stroke="#ff4444" stroke-width="0.5" opacity="0.6"/>
<rect x="399.0" y="255.6352343308865" width="6.0" height="21.95369847543762" fill="#ff4444" opacity="0.85"/>
<line x1="414.0" y1="244.505928853755" x2="414.0" y2="262.343308865048" stroke="#ff4444" stroke-width="0.5" opacity="0.6"/>
<rect x="411.0" y="258.531902879729" width="6.0" height="0.7622811970638281" fill="#ff4444" opacity="0.85"/>
<line x1="426.0" y1="245.72557876905705" x2="426.0" y2="256.0926030491248" stroke="#ff4444" stroke-width="0.5" opacity="0.6"/>
<rect x="423.0" y="252.28119706380576" width="6.0" height="1.829474872953142" fill="#ff4444" opacity="0.85"/>
<line x1="438.0" y1="249.23207227555054" x2="438.0" y2="258.83681535855453" stroke="#44aa44" stroke-width="0.5" opacity="0.6"/>
<rect x="435.0" y="256.8548842461886" width="6.0" height="1.0671936758893708" fill="#44aa44" opacity="0.85"/>
<line x1="450.0" y1="246.33540372670805" x2="450.0" y2="255.6352343308865" stroke="#ff4444" stroke-width="0.5" opacity="0.6"/>
<rect x="447.0" y="246.33540372670805" width="6.0" height="9.299830604178453" fill="#ff4444" opacity="0.85"/>
<line x1="462.0" y1="238.4076792772445" x2="462.0" y2="252.58610954263128" stroke="#44aa44" stroke-width="0.5" opacity="0.6"/>
<rect x="459.0" y="244.3534726143422" width="6.0" height="7.31789949181254" fill="#44aa44" opacity="0.85"/>
<line x1="474.0" y1="220.41784302653866" x2="474.0" y2="248.16487859966122" stroke="#ff4444" stroke-width="0.5" opacity="0.6"/>
<rect x="471.0" y="222.39977413890458" width="6.0" height="24.088085827216275" fill="#ff4444" opacity="0.85"/>
<line x1="486.0" y1="220.87521174477698" x2="486.0" y2="237.18802936194243" stroke="#ff4444" stroke-width="0.5" opacity="0.6"/>
<rect x="483.0" y="226.36363636363637" width="6.0" height="0.5" fill="#ff4444" opacity="0.85"/>
<line x1="498.0" y1="198.31168831168833" x2="498.0" y2="234.13890457368717" stroke="#ff4444" stroke-width="0.5" opacity="0.6"/>
<rect x="495.0" y="213.55731225296444" width="6.0" height="15.855448898927136" fill="#ff4444" opacity="0.85"/>
<line x1="510.0" y1="219.80801806888766" x2="510.0" y2="235.8159232072276" stroke="#44aa44" stroke-width="0.5" opacity="0.6"/>
<rect x="507.0" y="220.87521174477698" width="6.0" height="9.147374364765653" fill="#44aa44" opacity="0.85"/>
<line x1="522.0" y1="228.9553924336533" x2="522.0" y2="237.34048560135517" stroke="#ff4444" stroke-width="0.5" opacity="0.6"/>
<rect x="519.0" y="230.32749858836814" width="6.0" height="2.439299830604199" fill="#ff4444" opacity="0.85"/>
<line x1="534.0" y1="220.2653867871259" x2="534.0" y2="241.91417278373802" stroke="#44aa44" stroke-width="0.5" opacity="0.6"/>
<rect x="531.0" y="232.76679841897234" width="6.0" height="5.335968379446626" fill="#44aa44" opacity="0.85"/>
<line x1="546.0" y1="240.23715415019765" x2="546.0" y2="251.82382834556745" stroke="#ff4444" stroke-width="0.5" opacity="0.6"/>
<rect x="543.0" y="244.3534726143422" width="6.0" height="3.5064935064935128" fill="#ff4444" opacity="0.85"/>
<line x1="558.0" y1="219.65556182947486" x2="558.0" y2="234.29136081309994" stroke="#ff4444" stroke-width="0.5" opacity="0.6"/>
<rect x="555.0" y="231.24223602484474" width="6.0" height="3.049124788255199" fill="#ff4444" opacity="0.85"/>
<line x1="570.0" y1="210.20327498588372" x2="570.0" y2="236.57820440429134" stroke="#ff4444" stroke-width="0.5" opacity="0.6"/>
<rect x="567.0" y="222.09486166007906" width="6.0" height="14.48334274421228" fill="#ff4444" opacity="0.85"/>
<line x1="582.0" y1="204.40993788819875" x2="582.0" y2="228.19311123658954" stroke="#ff4444" stroke-width="0.5" opacity="0.6"/>
<rect x="579.0" y="207.61151891586675" width="6.0" height="16.617730095990964" fill="#ff4444" opacity="0.85"/>
<line x1="594.0" y1="149.67814793901755" x2="594.0" y2="217.82608695652178" stroke="#ff4444" stroke-width="0.5" opacity="0.6"/>
<rect x="591.0" y="178.49237718802937" width="6.0" height="30.1863354037267" fill="#ff4444" opacity="0.85"/>
<line x1="606.0" y1="170.25974025974023" x2="606.0" y2="188.40203274985882" stroke="#44aa44" stroke-width="0.5" opacity="0.6"/>
<rect x="603.0" y="177.8825522303783" width="6.0" height="3.658949745906284" fill="#44aa44" opacity="0.85"/>
<line x1="618.0" y1="177.8825522303783" x2="618.0" y2="188.40203274985882" stroke="#ff4444" stroke-width="0.5" opacity="0.6"/>
<rect x="615.0" y="182.1513269339356" width="6.0" height="0.9147374364765994" fill="#ff4444" opacity="0.85"/>
<line x1="630.0" y1="187.48729531338228" x2="630.0" y2="199.8362507058159" stroke="#44aa44" stroke-width="0.5" opacity="0.6"/>
<rect x="627.0" y="188.0971202710333" width="6.0" height="11.129305477131567" fill="#44aa44" opacity="0.85"/>
<line x1="642.0" y1="183.98080180688876" x2="642.0" y2="196.17730095990967" stroke="#44aa44" stroke-width="0.5" opacity="0.6"/>
<rect x="639.0" y="190.53642010163747" width="6.0" height="0.5" fill="#44aa44" opacity="0.85"/>
<line x1="654.0" y1="185.8102766798419" x2="654.0" y2="207.45906267645395" stroke="#44aa44" stroke-width="0.5" opacity="0.6"/>
<rect x="651.0" y="187.18238283455676" width="6.0" height="7.92772444946354" fill="#44aa44" opacity="0.85"/>
<line x1="666.0" y1="140.68322981366458" x2="666.0" y2="200.29361942405419" stroke="#ff4444" stroke-width="0.5" opacity="0.6"/>
<rect x="663.0" y="151.96499153020895" width="6.0" height="46.19424054206661" fill="#ff4444" opacity="0.85"/>
<line x1="678.0" y1="142.66516092603052" x2="678.0" y2="177.5776397515528" stroke="#44aa44" stroke-width="0.5" opacity="0.6"/>
<rect x="675.0" y="147.23884810841332" width="6.0" height="29.881422924901187" fill="#44aa44" opacity="0.85"/>
<line x1="690.0" y1="154.5567476002259" x2="690.0" y2="182.3037831733484" stroke="#ff4444" stroke-width="0.5" opacity="0.6"/>
<rect x="687.0" y="176.3579898362507" width="6.0" height="2.286843591191456" fill="#ff4444" opacity="0.85"/>
<line x1="702.0" y1="161.8746470920384" x2="702.0" y2="188.8594014680971" stroke="#ff4444" stroke-width="0.5" opacity="0.6"/>
<rect x="699.0" y="167.21061547148506" width="6.0" height="15.245623941276108" fill="#ff4444" opacity="0.85"/>
<line x1="714.0" y1="127.8769057029927" x2="714.0" y2="198.61660079051384" stroke="#44aa44" stroke-width="0.5" opacity="0.6"/>
<rect x="711.0" y="129.7063805759458" width="6.0" height="51.37775268210055" fill="#44aa44" opacity="0.85"/>
<line x1="726.0" y1="173.0039525691699" x2="726.0" y2="195.71993224167136" stroke="#ff4444" stroke-width="0.5" opacity="0.6"/>
<rect x="723.0" y="183.98080180688876" width="6.0" height="11.739130434782595" fill="#ff4444" opacity="0.85"/>
<line x1="738.0" y1="185.6578204404291" x2="738.0" y2="226.6685488424619" stroke="#44aa44" stroke-width="0.5" opacity="0.6"/>
<rect x="735.0" y="188.40203274985882" width="6.0" height="36.13212874082441" fill="#44aa44" opacity="0.85"/>
<line x1="750.0" y1="204.56239412761155" x2="750.0" y2="225.29644268774706" stroke="#ff4444" stroke-width="0.5" opacity="0.6"/>
<rect x="747.0" y="208.5262563523433" width="6.0" height="15.245623941276136" fill="#ff4444" opacity="0.85"/>
<line x1="762.0" y1="188.5544889892716" x2="762.0" y2="211.11801242236027" stroke="#ff4444" stroke-width="0.5" opacity="0.6"/>
<rect x="759.0" y="203.64765669113496" width="6.0" height="4.878599661208341" fill="#ff4444" opacity="0.85"/>
<line x1="774.0" y1="207.61151891586675" x2="774.0" y2="223.61942405420666" stroke="#44aa44" stroke-width="0.5" opacity="0.6"/>
<rect x="771.0" y="207.91643139469227" width="6.0" height="9.452286843591196" fill="#44aa44" opacity="0.85"/>
<rect x="134.0" y="26.0" width="8" height="8" fill="#ff9800" opacity="0.85" rx="1"/>
<text x="138.0" y="24.0" text-anchor="middle" font-family="sans-serif" font-size="8" fill="#ff9800">前高</text>
<rect x="194.0" y="147.3551665725579" width="8" height="8" fill="#4caf50" opacity="0.85" rx="1"/>
<text x="198.0" y="145.3551665725579" text-anchor="middle" font-family="sans-serif" font-size="8" fill="#4caf50">前低</text>
<rect x="206.0" y="169.15640880858277" width="8" height="8" fill="#4caf50" opacity="0.85" rx="1"/>
<text x="210.0" y="167.15640880858277" text-anchor="middle" font-family="sans-serif" font-size="8" fill="#4caf50">前低</text>
<rect x="218.0" y="177.99887069452288" width="8" height="8" fill="#4caf50" opacity="0.85" rx="1"/>
<text x="222.0" y="175.99887069452288" text-anchor="middle" font-family="sans-serif" font-size="8" fill="#4caf50">前低</text>
<rect x="242.0" y="189.2806324110672" width="8" height="8" fill="#4caf50" opacity="0.85" rx="1"/>
<text x="246.0" y="187.2806324110672" text-anchor="middle" font-family="sans-serif" font-size="8" fill="#4caf50">前低</text>
<rect x="254.0" y="206.20327498588372" width="8" height="8" fill="#4caf50" opacity="0.85" rx="1"/>
<text x="258.0" y="204.20327498588372" text-anchor="middle" font-family="sans-serif" font-size="8" fill="#4caf50">前低</text>
<rect x="266.0" y="229.98644833427443" width="8" height="8" fill="#4caf50" opacity="0.85" rx="1"/>
<text x="270.0" y="227.98644833427443" text-anchor="middle" font-family="sans-serif" font-size="8" fill="#4caf50">前低</text>
<rect x="302.0" y="260.63015245623944" width="8" height="8" fill="#4caf50" opacity="0.85" rx="1"/>
<text x="306.0" y="258.63015245623944" text-anchor="middle" font-family="sans-serif" font-size="8" fill="#4caf50">前低</text>
<rect x="314.0" y="268.40542066629024" width="8" height="8" fill="#4caf50" opacity="0.85" rx="1"/>
<text x="318.0" y="266.40542066629024" text-anchor="middle" font-family="sans-serif" font-size="8" fill="#4caf50">前低</text>
<rect x="362.0" y="283.4985883681536" width="8" height="8" fill="#4caf50" opacity="0.85" rx="1"/>
<text x="366.0" y="281.4985883681536" text-anchor="middle" font-family="sans-serif" font-size="8" fill="#4caf50">前低</text>
<rect x="374.0" y="296.0" width="8" height="8" fill="#4caf50" opacity="0.85" rx="1"/>
<text x="378.0" y="294.0" text-anchor="middle" font-family="sans-serif" font-size="8" fill="#4caf50">前低</text>
<rect x="458.0" y="234.4076792772445" width="8" height="8" fill="#ff9800" opacity="0.85" rx="1"/>
<text x="462.0" y="232.4076792772445" text-anchor="middle" font-family="sans-serif" font-size="8" fill="#ff9800">前高</text>
<rect x="470.0" y="216.41784302653866" width="8" height="8" fill="#ff9800" opacity="0.85" rx="1"/>
<text x="474.0" y="214.41784302653866" text-anchor="middle" font-family="sans-serif" font-size="8" fill="#ff9800">前高</text>
<rect x="470.0" y="216.41784302653866" width="8" height="8" fill="#2196f3" opacity="0.85" rx="1"/>
<text x="474.0" y="214.41784302653866" text-anchor="middle" font-family="sans-serif" font-size="8" fill="#2196f3">突</text>
<rect x="494.0" y="194.31168831168833" width="8" height="8" fill="#ff9800" opacity="0.85" rx="1"/>
<text x="498.0" y="192.31168831168833" text-anchor="middle" font-family="sans-serif" font-size="8" fill="#ff9800">前高</text>
<rect x="590.0" y="145.67814793901755" width="8" height="8" fill="#ff9800" opacity="0.85" rx="1"/>
<text x="594.0" y="143.67814793901755" text-anchor="middle" font-family="sans-serif" font-size="8" fill="#ff9800">前高</text>
<rect x="590.0" y="111.60417843026542" width="8" height="8" fill="#ff9800" opacity="0.85" rx="1"/>
<text x="594.0" y="109.60417843026542" text-anchor="middle" font-family="sans-serif" font-size="8" fill="#ff9800">量</text>
<rect x="662.0" y="136.68322981366458" width="8" height="8" fill="#ff9800" opacity="0.85" rx="1"/>
<text x="666.0" y="134.68322981366458" text-anchor="middle" font-family="sans-serif" font-size="8" fill="#ff9800">前高</text>
<rect x="710.0" y="123.8769057029927" width="8" height="8" fill="#ff9800" opacity="0.85" rx="1"/>
<text x="714.0" y="121.8769057029927" text-anchor="middle" font-family="sans-serif" font-size="8" fill="#ff9800">前高</text>
<rect x="734.0" y="222.6685488424619" width="8" height="8" fill="#4caf50" opacity="0.85" rx="1"/>
<text x="738.0" y="220.6685488424619" text-anchor="middle" font-family="sans-serif" font-size="8" fill="#4caf50">前低</text>
<line x1="60" y1="220.41784302653866" x2="780" y2="220.41784302653866" stroke="#4caf50" stroke-width="1.5" stroke-dasharray="6,3" opacity="0.7"/>
<text x="64" y="216.41784302653866" font-family="sans-serif" font-size="9" fill="#4caf50" font-weight="bold">支撑 28.91</text>
<line x1="60" y1="127.8769057029927" x2="780" y2="127.8769057029927" stroke="#f44336" stroke-width="1.5" stroke-dasharray="6,3" opacity="0.7"/>
<text x="64" y="123.8769057029927" font-family="sans-serif" font-size="9" fill="#f44336" font-weight="bold">压力 34.98</text>
<text x="66.0" y="359" text-anchor="middle" font-family="sans-serif" font-size="8" fill="#666666" transform="rotate(-40,66.0,359)">02/26</text>
<text x="138.0" y="359" text-anchor="middle" font-family="sans-serif" font-size="8" fill="#666666" transform="rotate(-40,138.0,359)">03/06</text>
<text x="210.0" y="359" text-anchor="middle" font-family="sans-serif" font-size="8" fill="#666666" transform="rotate(-40,210.0,359)">03/16</text>
<text x="282.0" y="359" text-anchor="middle" font-family="sans-serif" font-size="8" fill="#666666" transform="rotate(-40,282.0,359)">03/24</text>
<text x="354.0" y="359" text-anchor="middle" font-family="sans-serif" font-size="8" fill="#666666" transform="rotate(-40,354.0,359)">04/01</text>
<text x="426.0" y="359" text-anchor="middle" font-family="sans-serif" font-size="8" fill="#666666" transform="rotate(-40,426.0,359)">04/10</text>
<text x="498.0" y="359" text-anchor="middle" font-family="sans-serif" font-size="8" fill="#666666" transform="rotate(-40,498.0,359)">04/20</text>
<text x="570.0" y="359" text-anchor="middle" font-family="sans-serif" font-size="8" fill="#666666" transform="rotate(-40,570.0,359)">04/28</text>
<text x="642.0" y="359" text-anchor="middle" font-family="sans-serif" font-size="8" fill="#666666" transform="rotate(-40,642.0,359)">05/11</text>
<text x="714.0" y="359" text-anchor="middle" font-family="sans-serif" font-size="8" fill="#666666" transform="rotate(-40,714.0,359)">05/19</text>
<text x="774.0" y="359" text-anchor="middle" font-family="sans-serif" font-size="8" fill="#666666" transform="rotate(-40,774.0,359)">05/26</text>
<text x="400.0" y="396" text-anchor="middle" font-family="sans-serif" font-size="9" fill="#555555">数据截至: 2026-05-26 21:30  |  最新K线: 20260526</text>
<rect x="50" y="373" width="8" height="8" fill="#ffd700" opacity="0.8" rx="1"/>
<text x="61" y="380" font-family="sans-serif" font-size="9" fill="#888888">EMA5</text>
<rect x="150" y="373" width="8" height="8" fill="#ff6b6b" opacity="0.8" rx="1"/>
<text x="161" y="380" font-family="sans-serif" font-size="9" fill="#888888">EMA10</text>
<rect x="250" y="373" width="8" height="8" fill="#4ecdc4" opacity="0.8" rx="1"/>
<text x="261" y="380" font-family="sans-serif" font-size="9" fill="#888888">EMA20</text>
<rect x="350" y="373" width="8" height="8" fill="#2196f3" opacity="0.8" rx="1"/>
<text x="361" y="380" font-family="sans-serif" font-size="9" fill="#888888">突破</text>
<rect x="450" y="373" width="8" height="8" fill="#ff9800" opacity="0.8" rx="1"/>
<text x="461" y="380" font-family="sans-serif" font-size="9" fill="#888888">前高/量</text>
<rect x="550" y="373" width="8" height="8" fill="#4caf50" opacity="0.8" rx="1"/>
<text x="561" y="380" font-family="sans-serif" font-size="9" fill="#888888">前低</text>
</svg>