<svg xmlns="http://www.w3.org/2000/svg" width="800" height="400" viewBox="0 0 800 400">
<rect width="800" height="400" fill="#1a1a2e"/>
<text x="400.0" y="20" text-anchor="middle" font-family="sans-serif" font-size="14" fill="#ffffff" font-weight="bold">优迅股份(688807) K线图</text>
<line x1="60" y1="30.0" x2="780" y2="30.0" stroke="#2a2a4e" stroke-width="0.5"/>
<text x="55" y="33.0" text-anchor="end" font-family="sans-serif" font-size="8" fill="#666666">518.88</text>
<line x1="60" y1="83.99999999999997" x2="780" y2="83.99999999999997" stroke="#2a2a4e" stroke-width="0.5"/>
<text x="55" y="86.99999999999997" text-anchor="end" font-family="sans-serif" font-size="8" fill="#666666">455.12</text>
<line x1="60" y1="138.0" x2="780" y2="138.0" stroke="#2a2a4e" stroke-width="0.5"/>
<text x="55" y="141.0" text-anchor="end" font-family="sans-serif" font-size="8" fill="#666666">391.37</text>
<line x1="60" y1="192.0" x2="780" y2="192.0" stroke="#2a2a4e" stroke-width="0.5"/>
<text x="55" y="195.0" text-anchor="end" font-family="sans-serif" font-size="8" fill="#666666">327.61</text>
<line x1="60" y1="246.0" x2="780" y2="246.0" stroke="#2a2a4e" stroke-width="0.5"/>
<text x="55" y="249.0" text-anchor="end" font-family="sans-serif" font-size="8" fill="#666666">263.86</text>
<line x1="60" y1="300.0" x2="780" y2="300.0" stroke="#2a2a4e" stroke-width="0.5"/>
<text x="55" y="303.0" text-anchor="end" font-family="sans-serif" font-size="8" fill="#666666">200.10</text>
<line x1="60" y1="300" x2="780" y2="300" stroke="#2a2a4e" stroke-width="0.5"/>
<line x1="60" y1="345" x2="780" y2="345" stroke="#2a2a4e" stroke-width="0.5"/>
<rect x="61.8" y="312.51063829787233" width="7.199999999999999" height="32.48936170212767" fill="#ff4444" opacity="0.3"/>
<rect x="73.8" y="312.24051803885294" width="7.199999999999999" height="32.75948196114706" fill="#ff4444" opacity="0.3"/>
<rect x="85.8" y="320.9185938945421" width="7.199999999999999" height="24.081406105457916" fill="#44aa44" opacity="0.3"/>
<rect x="97.8" y="328.48196114708605" width="7.199999999999999" height="16.518038852913946" fill="#ff4444" opacity="0.3"/>
<rect x="109.8" y="310.5337650323774" width="7.199999999999999" height="34.4662349676226" fill="#ff4444" opacity="0.3"/>
<rect x="121.8" y="321.14246068455134" width="7.199999999999999" height="23.857539315448662" fill="#44aa44" opacity="0.3"/>
<rect x="133.8" y="319.06382978723406" width="7.199999999999999" height="25.936170212765944" fill="#44aa44" opacity="0.3"/>
<rect x="145.8" y="304.45050878815914" width="7.199999999999999" height="40.54949121184086" fill="#ff4444" opacity="0.3"/>
<rect x="157.8" y="320.6429232192414" width="7.199999999999999" height="24.357076780758575" fill="#44aa44" opacity="0.3"/>
<rect x="169.8" y="324.9176688251619" width="7.199999999999999" height="20.08233117483809" fill="#44aa44" opacity="0.3"/>
<rect x="181.8" y="322.3311748381129" width="7.199999999999999" height="22.668825161887128" fill="#44aa44" opacity="0.3"/>
<rect x="193.8" y="329.8621646623497" width="7.199999999999999" height="15.137835337650301" fill="#ff4444" opacity="0.3"/>
<rect x="205.8" y="325.7974098057354" width="7.199999999999999" height="19.202590194264587" fill="#44aa44" opacity="0.3"/>
<rect x="217.8" y="331.8344125809436" width="7.199999999999999" height="13.165587419056408" fill="#ff4444" opacity="0.3"/>
<rect x="229.8" y="331.8344125809436" width="7.199999999999999" height="13.165587419056408" fill="#44aa44" opacity="0.3"/>
<rect x="241.8" y="320.54209065679925" width="7.199999999999999" height="24.457909343200754" fill="#44aa44" opacity="0.3"/>
<rect x="253.8" y="323.2062904717854" width="7.199999999999999" height="21.793709528214606" fill="#44aa44" opacity="0.3"/>
<rect x="265.8" y="331.254394079556" width="7.199999999999999" height="13.745605920444007" fill="#ff4444" opacity="0.3"/>
<rect x="277.8" y="323.88621646623494" width="7.199999999999999" height="21.11378353376506" fill="#ff4444" opacity="0.3"/>
<rect x="289.8" y="332.1295097132285" width="7.199999999999999" height="12.870490286771485" fill="#44aa44" opacity="0.3"/>
<rect x="301.8" y="333.0296022201665" width="7.199999999999999" height="11.97039777983349" fill="#ff4444" opacity="0.3"/>
<rect x="313.8" y="334.2913968547641" width="7.199999999999999" height="10.708603145235884" fill="#ff4444" opacity="0.3"/>
<rect x="325.8" y="331.1831637372803" width="7.199999999999999" height="13.816836262719676" fill="#44aa44" opacity="0.3"/>
<rect x="337.8" y="327.3126734505088" width="7.199999999999999" height="17.687326549491218" fill="#ff4444" opacity="0.3"/>
<rect x="349.8" y="333.418131359852" width="7.199999999999999" height="11.581868640148002" fill="#44aa44" opacity="0.3"/>
<rect x="361.8" y="321.7132284921369" width="7.199999999999999" height="23.28677150786308" fill="#ff4444" opacity="0.3"/>
<rect x="373.8" y="329.2691951896392" width="7.199999999999999" height="15.73080481036078" fill="#ff4444" opacity="0.3"/>
<rect x="385.8" y="321.06197964847365" width="7.199999999999999" height="23.938020351526347" fill="#ff4444" opacity="0.3"/>
<rect x="397.8" y="325.3117483811286" width="7.199999999999999" height="19.68825161887139" fill="#ff4444" opacity="0.3"/>
<rect x="409.8" y="322.75393154486585" width="7.199999999999999" height="22.24606845513415" fill="#ff4444" opacity="0.3"/>
<rect x="421.8" y="309.75393154486585" width="7.199999999999999" height="35.24606845513415" fill="#ff4444" opacity="0.3"/>
<rect x="433.8" y="320.14523589269197" width="7.199999999999999" height="24.85476410730803" fill="#ff4444" opacity="0.3"/>
<rect x="445.8" y="328.1276595744681" width="7.199999999999999" height="16.87234042553189" fill="#44aa44" opacity="0.3"/>
<rect x="457.8" y="322.8899167437558" width="7.199999999999999" height="22.110083256244195" fill="#ff4444" opacity="0.3"/>
<rect x="469.8" y="316.48381128584646" width="7.199999999999999" height="28.516188714153543" fill="#ff4444" opacity="0.3"/>
<rect x="481.8" y="306.25531914893617" width="7.199999999999999" height="38.74468085106383" fill="#44aa44" opacity="0.3"/>
<rect x="493.8" y="324.5633672525439" width="7.199999999999999" height="20.436632747456088" fill="#ff4444" opacity="0.3"/>
<rect x="505.8" y="314.02312673450507" width="7.199999999999999" height="30.97687326549493" fill="#ff4444" opacity="0.3"/>
<rect x="517.8" y="318.5689176688252" width="7.199999999999999" height="26.43108233117482" fill="#44aa44" opacity="0.3"/>
<rect x="529.8" y="309.9269195189639" width="7.199999999999999" height="35.07308048103607" fill="#ff4444" opacity="0.3"/>
<rect x="541.8" y="324.0721554116559" width="7.199999999999999" height="20.9278445883441" fill="#44aa44" opacity="0.3"/>
<rect x="553.8" y="324.38205365402405" width="7.199999999999999" height="20.61794634597595" fill="#44aa44" opacity="0.3"/>
<rect x="565.8" y="321.4421831637373" width="7.199999999999999" height="23.557816836262703" fill="#44aa44" opacity="0.3"/>
<rect x="577.8" y="326.0277520814061" width="7.199999999999999" height="18.972247918593894" fill="#44aa44" opacity="0.3"/>
<rect x="589.8" y="326.01572617946346" width="7.199999999999999" height="18.984273820536544" fill="#44aa44" opacity="0.3"/>
<rect x="601.8" y="326.72340425531917" width="7.199999999999999" height="18.276595744680833" fill="#ff4444" opacity="0.3"/>
<rect x="613.8" y="318.8159111933395" width="7.199999999999999" height="26.184088806660498" fill="#ff4444" opacity="0.3"/>
<rect x="625.8" y="324.2562442183164" width="7.199999999999999" height="20.743755781683603" fill="#44aa44" opacity="0.3"/>
<rect x="637.8" y="325.7400555041628" width="7.199999999999999" height="19.259944495837203" fill="#44aa44" opacity="0.3"/>
<rect x="649.8" y="329.8325624421832" width="7.199999999999999" height="15.167437557816811" fill="#ff4444" opacity="0.3"/>
<rect x="661.8" y="330.6392229417206" width="7.199999999999999" height="14.360777058279382" fill="#44aa44" opacity="0.3"/>
<rect x="673.8" y="328.2654949121184" width="7.199999999999999" height="16.734505087881587" fill="#44aa44" opacity="0.3"/>
<rect x="685.8" y="300.20351526364476" width="7.199999999999999" height="44.79648473635524" fill="#ff4444" opacity="0.3"/>
<rect x="697.8" y="300.0" width="7.199999999999999" height="45.0" fill="#ff4444" opacity="0.3"/>
<rect x="709.8" y="314.845513413506" width="7.199999999999999" height="30.154486586493988" fill="#ff4444" opacity="0.3"/>
<rect x="721.8" y="320.8159111933395" width="7.199999999999999" height="24.184088806660498" fill="#44aa44" opacity="0.3"/>
<rect x="733.8" y="321.62534690101756" width="7.199999999999999" height="23.374653098982435" fill="#ff4444" opacity="0.3"/>
<rect x="745.8" y="321.8344125809436" width="7.199999999999999" height="23.165587419056408" fill="#ff4444" opacity="0.3"/>
<rect x="757.8" y="325.2377428307123" width="7.199999999999999" height="19.762257169287693" fill="#44aa44" opacity="0.3"/>
<rect x="769.8" y="326.7974098057354" width="7.199999999999999" height="18.202590194264587" fill="#44aa44" opacity="0.3"/>
<polyline points="66.0,263.56 78.0,262.31 90.0,268.39 102.0,272.88 114.0,270.92 126.0,268.78 138.0,271.61 150.0,264.41 162.0,260.85 174.0,260.18 186.0,263.91 198.0,265.91 210.0,272.21 222.0,274.54 234.0,278.03 246.0,279.68 258.0,285.64 270.0,288.18 282.0,286.78 294.0,287.87 306.0,288.34 318.0,287.71 330.0,289.33 342.0,287.17 354.0,286.90 366.0,282.36 378.0,278.54 390.0,270.21 402.0,266.07 414.0,261.28 426.0,247.96 438.0,238.80 450.0,234.15 462.0,227.14 474.0,205.38 486.0,195.17 498.0,189.48 510.0,180.65 522.0,181.50 534.0,167.39 546.0,161.37 558.0,157.92 570.0,159.23 582.0,162.42 594.0,163.80 606.0,159.98 618.0,150.17 630.0,140.29 642.0,136.04 654.0,129.47 666.0,128.38 678.0,134.22 690.0,120.34 702.0,102.20 714.0,91.20 726.0,89.69 738.0,82.59 750.0,67.90 762.0,60.06 774.0,60.45" fill="none" stroke="#ffd700" stroke-width="0.8" opacity="0.7"/>
<polyline points="66.0,263.56 78.0,262.88 90.0,266.09 102.0,268.96 114.0,268.60 126.0,267.86 138.0,269.57 150.0,266.01 162.0,263.78 174.0,262.88 186.0,264.43 198.0,265.42 210.0,268.95 222.0,270.81 234.0,273.39 246.0,275.14 258.0,279.21 270.0,281.77 282.0,282.17 294.0,283.60 306.0,284.63 318.0,284.97 330.0,286.35 342.0,285.71 354.0,285.83 366.0,283.55 378.0,281.25 390.0,276.21 402.0,272.87 414.0,269.02 426.0,260.34 438.0,253.09 450.0,247.96 462.0,241.63 474.0,227.12 486.0,217.60 498.0,210.42 510.0,201.80 522.0,198.42 534.0,187.64 546.0,180.67 558.0,175.29 570.0,172.84 582.0,172.11 594.0,171.10 606.0,167.69 618.0,160.94 630.0,153.59 642.0,148.86 654.0,142.94 666.0,139.89 678.0,140.99 690.0,132.18 702.0,120.13 714.0,110.87 726.0,106.47 738.0,99.55 750.0,88.45 762.0,80.44 774.0,76.95" fill="none" stroke="#ff6b6b" stroke-width="0.8" opacity="0.7"/>
<polyline points="66.0,263.56 78.0,263.20 90.0,264.86 102.0,266.48 114.0,266.53 126.0,266.33 138.0,267.37 150.0,265.72 162.0,264.58 174.0,264.03 186.0,264.73 198.0,265.23 210.0,267.09 222.0,268.24 234.0,269.84 246.0,271.09 258.0,273.61 270.0,275.48 282.0,276.29 294.0,277.60 306.0,278.71 318.0,279.45 330.0,280.70 342.0,280.91 354.0,281.43 366.0,280.65 378.0,279.72 390.0,277.23 402.0,275.38 414.0,273.12 426.0,268.19 438.0,263.64 450.0,259.95 462.0,255.49 474.0,246.57 486.0,239.73 498.0,233.86 510.0,227.11 522.0,222.93 534.0,214.95 546.0,208.70 558.0,203.21 570.0,199.27 582.0,196.37 594.0,193.53 606.0,189.61 618.0,183.98 630.0,177.94 642.0,173.14 654.0,167.73 666.0,163.77 678.0,162.07 690.0,155.45 702.0,146.93 714.0,139.52 726.0,134.49 738.0,128.19 750.0,119.65 762.0,112.49 774.0,107.60" fill="none" stroke="#4ecdc4" stroke-width="0.8" opacity="0.7"/>
<line x1="66.0" y1="262.31789949181257" x2="66.0" y2="278.9102202145681" stroke="#ff4444" stroke-width="0.5" opacity="0.6"/>
<rect x="63.0" y="263.5629587803501" width="6.0" height="14.500282326369302" fill="#ff4444" opacity="0.85"/>
<line x1="78.0" y1="255.53359683794466" x2="78.0" y2="272.98136645962734" stroke="#ff4444" stroke-width="0.5" opacity="0.6"/>
<rect x="75.0" y="259.7939017504235" width="6.0" height="9.791078486730669" fill="#ff4444" opacity="0.85"/>
<line x1="90.0" y1="258.58272162619994" x2="90.0" y2="280.5957086391869" stroke="#44aa44" stroke-width="0.5" opacity="0.6"/>
<rect x="87.0" y="261.88594014680973" width="6.0" height="18.667419536984767" fill="#44aa44" opacity="0.85"/>
<line x1="102.0" y1="273.42179559570866" x2="102.0" y2="283.1366459627329" stroke="#ff4444" stroke-width="0.5" opacity="0.6"/>
<rect x="99.0" y="281.8661773009599" width="6.0" height="1.1264822134387487" fill="#ff4444" opacity="0.85"/>
<line x1="114.0" y1="255.62676453980802" x2="114.0" y2="278.0463015245624" stroke="#ff4444" stroke-width="0.5" opacity="0.6"/>
<rect x="111.0" y="267.0016939582157" width="6.0" height="11.019198193111265" fill="#ff4444" opacity="0.85"/>
<line x1="126.0" y1="257.7526821005082" x2="126.0" y2="268.49237718802937" stroke="#44aa44" stroke-width="0.5" opacity="0.6"/>
<rect x="123.0" y="262.82608695652175" width="6.0" height="1.6854884246188817" fill="#44aa44" opacity="0.85"/>
<line x1="138.0" y1="272.98136645962734" x2="138.0" y2="286.39751552795036" stroke="#44aa44" stroke-width="0.5" opacity="0.6"/>
<rect x="135.0" y="275.52230378317336" width="6.0" height="1.7278373800112945" fill="#44aa44" opacity="0.85"/>
<line x1="150.0" y1="242.68492377188034" x2="150.0" y2="273.82834556747605" stroke="#ff4444" stroke-width="0.5" opacity="0.6"/>
<rect x="147.0" y="250.00282326369285" width="6.0" height="23.825522303783202" fill="#ff4444" opacity="0.85"/>
<line x1="162.0" y1="245.1242236024845" x2="162.0" y2="256.8887634105025" stroke="#44aa44" stroke-width="0.5" opacity="0.6"/>
<rect x="159.0" y="250.11293054771318" width="6.0" height="3.633540372670751" fill="#44aa44" opacity="0.85"/>
<line x1="174.0" y1="250.9429700734049" x2="174.0" y2="263.0124223602485" stroke="#44aa44" stroke-width="0.5" opacity="0.6"/>
<rect x="171.0" y="251.8068887634105" width="6.0" height="7.029926595144019" fill="#44aa44" opacity="0.85"/>
<line x1="186.0" y1="261.54714850367026" x2="186.0" y2="274.08243929983064" stroke="#44aa44" stroke-width="0.5" opacity="0.6"/>
<rect x="183.0" y="264.42687747035575" width="6.0" height="6.945228684359108" fill="#44aa44" opacity="0.85"/>
<line x1="198.0" y1="267.8402032749859" x2="198.0" y2="276.06437041219647" stroke="#ff4444" stroke-width="0.5" opacity="0.6"/>
<rect x="195.0" y="269.9153020892152" width="6.0" height="3.066064370412164" fill="#ff4444" opacity="0.85"/>
<line x1="210.0" y1="267.8147939017504" x2="210.0" y2="284.7967250141163" stroke="#44aa44" stroke-width="0.5" opacity="0.6"/>
<rect x="207.0" y="268.746470920384" width="6.0" height="16.050254093732292" fill="#44aa44" opacity="0.85"/>
<line x1="222.0" y1="278.2411067193676" x2="222.0" y2="284.93224167137214" stroke="#ff4444" stroke-width="0.5" opacity="0.6"/>
<rect x="219.0" y="279.2066629023151" width="6.0" height="3.938452851496322" fill="#ff4444" opacity="0.85"/>
<line x1="234.0" y1="278.9102202145681" x2="234.0" y2="287.07509881422925" stroke="#44aa44" stroke-width="0.5" opacity="0.6"/>
<rect x="231.0" y="284.8390739695088" width="6.0" height="0.5" fill="#44aa44" opacity="0.85"/>
<line x1="246.0" y1="269.61038961038963" x2="246.0" y2="283.399209486166" stroke="#44aa44" stroke-width="0.5" opacity="0.6"/>
<rect x="243.0" y="278.9102202145681" width="6.0" height="4.073969508752043" fill="#44aa44" opacity="0.85"/>
<line x1="258.0" y1="287.0412196499154" x2="258.0" y2="298.3907396950875" stroke="#44aa44" stroke-width="0.5" opacity="0.6"/>
<rect x="255.0" y="290.9627329192547" width="6.0" height="6.597967250141153" fill="#44aa44" opacity="0.85"/>
<line x1="270.0" y1="292.4788255223038" x2="270.0" y2="300.0" stroke="#ff4444" stroke-width="0.5" opacity="0.6"/>
<rect x="267.0" y="293.2495765104461" width="6.0" height="1.270468661773009" fill="#ff4444" opacity="0.85"/>
<line x1="282.0" y1="278.1479390175043" x2="282.0" y2="291.05590062111804" stroke="#ff4444" stroke-width="0.5" opacity="0.6"/>
<rect x="279.0" y="283.97515527950316" width="6.0" height="3.404856013551637" fill="#ff4444" opacity="0.85"/>
<line x1="294.0" y1="282.38283455674764" x2="294.0" y2="290.75098814229256" stroke="#44aa44" stroke-width="0.5" opacity="0.6"/>
<rect x="291.0" y="283.1451157538114" width="6.0" height="6.911349520045178" fill="#44aa44" opacity="0.85"/>
<line x1="306.0" y1="285.8554488989272" x2="306.0" y2="295.00282326369285" stroke="#ff4444" stroke-width="0.5" opacity="0.6"/>
<rect x="303.0" y="289.27724449463585" width="6.0" height="3.1253529079615987" fill="#ff4444" opacity="0.85"/>
<line x1="318.0" y1="286.3636363636364" x2="318.0" y2="294.96047430830043" stroke="#ff4444" stroke-width="0.5" opacity="0.6"/>
<rect x="315.0" y="286.45680406549974" width="6.0" height="6.25917560700168" fill="#ff4444" opacity="0.85"/>
<line x1="330.0" y1="287.7696216826652" x2="330.0" y2="296.79841897233206" stroke="#44aa44" stroke-width="0.5" opacity="0.6"/>
<rect x="327.0" y="287.7696216826652" width="6.0" height="4.810841332580424" fill="#44aa44" opacity="0.85"/>
<line x1="342.0" y1="281.3579898362507" x2="342.0" y2="286.7701863354037" stroke="#ff4444" stroke-width="0.5" opacity="0.6"/>
<rect x="339.0" y="282.8486730660644" width="6.0" height="0.5" fill="#ff4444" opacity="0.85"/>
<line x1="354.0" y1="282.46753246753246" x2="354.0" y2="289.0654997176737" stroke="#44aa44" stroke-width="0.5" opacity="0.6"/>
<rect x="351.0" y="284.51722190852627" width="6.0" height="1.8464144551101072" fill="#44aa44" opacity="0.85"/>
<line x1="366.0" y1="268.7549407114625" x2="366.0" y2="285.2032749858837" stroke="#ff4444" stroke-width="0.5" opacity="0.6"/>
<rect x="363.0" y="273.2862789384529" width="6.0" height="10.70581592320724" fill="#ff4444" opacity="0.85"/>
<line x1="378.0" y1="268.9158667419537" x2="378.0" y2="275.44607566346696" stroke="#ff4444" stroke-width="0.5" opacity="0.6"/>
<rect x="375.0" y="270.9062676453981" width="6.0" height="4.539808018068868" fill="#ff4444" opacity="0.85"/>
<line x1="390.0" y1="252.6538678712592" x2="390.0" y2="267.67927724449464" stroke="#ff4444" stroke-width="0.5" opacity="0.6"/>
<rect x="387.0" y="253.5262563523433" width="6.0" height="10.138339920948624" fill="#ff4444" opacity="0.85"/>
<line x1="402.0" y1="250.11293054771318" x2="402.0" y2="260.27667984189725" stroke="#ff4444" stroke-width="0.5" opacity="0.6"/>
<rect x="399.0" y="257.81197063805763" width="6.0" height="1.88876341050252" fill="#ff4444" opacity="0.85"/>
<line x1="414.0" y1="246.72501411631848" x2="414.0" y2="259.37041219649916" stroke="#ff4444" stroke-width="0.5" opacity="0.6"/>
<rect x="411.0" y="251.70525127046866" width="6.0" height="6.030491247882566" fill="#ff4444" opacity="0.85"/>
<line x1="426.0" y1="214.53980801806892" x2="426.0" y2="255.1101072840203" stroke="#ff4444" stroke-width="0.5" opacity="0.6"/>
<rect x="423.0" y="221.29870129870133" width="6.0" height="30.50818746470918" fill="#ff4444" opacity="0.85"/>
<line x1="438.0" y1="209.75437605872392" x2="438.0" y2="223.40767927724454" stroke="#ff4444" stroke-width="0.5" opacity="0.6"/>
<rect x="435.0" y="220.4771315640881" width="6.0" height="0.5" fill="#ff4444" opacity="0.85"/>
<line x1="450.0" y1="218.21569734613212" x2="450.0" y2="231.6403162055336" stroke="#44aa44" stroke-width="0.5" opacity="0.6"/>
<rect x="447.0" y="219.53698475437605" width="6.0" height="5.310559006211207" fill="#44aa44" opacity="0.85"/>
<line x1="462.0" y1="210.30491247882554" x2="462.0" y2="228.93845285149632" stroke="#ff4444" stroke-width="0.5" opacity="0.6"/>
<rect x="459.0" y="213.13382269904008" width="6.0" height="9.198193111236606" fill="#ff4444" opacity="0.85"/>
<line x1="474.0" y1="161.86617730095992" x2="474.0" y2="202.27555053642007" stroke="#ff4444" stroke-width="0.5" opacity="0.6"/>
<rect x="471.0" y="161.86617730095992" width="6.0" height="36.99604743083006" fill="#ff4444" opacity="0.85"/>
<line x1="486.0" y1="162.0525127046866" x2="486.0" y2="184.57368718238283" stroke="#44aa44" stroke-width="0.5" opacity="0.6"/>
<rect x="483.0" y="162.66233766233768" width="6.0" height="12.069452286843585" fill="#44aa44" opacity="0.85"/>
<line x1="498.0" y1="172.73291925465836" x2="498.0" y2="184.89553924336533" stroke="#ff4444" stroke-width="0.5" opacity="0.6"/>
<rect x="495.0" y="178.11970638057596" width="6.0" height="3.3879164313946717" fill="#ff4444" opacity="0.85"/>
<line x1="510.0" y1="151.86335403726707" x2="510.0" y2="183.03218520609826" stroke="#ff4444" stroke-width="0.5" opacity="0.6"/>
<rect x="507.0" y="162.99265951439864" width="6.0" height="16.702428006775847" fill="#ff4444" opacity="0.85"/>
<line x1="522.0" y1="164.5680406549972" x2="522.0" y2="186.5894974590627" stroke="#44aa44" stroke-width="0.5" opacity="0.6"/>
<rect x="519.0" y="171.3438735177866" width="6.0" height="11.857707509881408" fill="#44aa44" opacity="0.85"/>
<line x1="534.0" y1="136.91417278373802" x2="534.0" y2="184.31959345002824" stroke="#ff4444" stroke-width="0.5" opacity="0.6"/>
<rect x="531.0" y="139.15866741953698" width="6.0" height="44.8898927159797" fill="#ff4444" opacity="0.85"/>
<line x1="546.0" y1="138.48108413325804" x2="546.0" y2="152.97289666854886" stroke="#44aa44" stroke-width="0.5" opacity="0.6"/>
<rect x="543.0" y="139.52286843591193" width="6.0" height="9.799548277809123" fill="#44aa44" opacity="0.85"/>
<line x1="558.0" y1="122.21908526256352" x2="558.0" y2="156.01355166572557" stroke="#44aa44" stroke-width="0.5" opacity="0.6"/>
<rect x="555.0" y="151.01637492941842" width="6.0" height="0.5" fill="#44aa44" opacity="0.85"/>
<line x1="570.0" y1="147.62845849802372" x2="570.0" y2="169.64991530208923" stroke="#44aa44" stroke-width="0.5" opacity="0.6"/>
<rect x="567.0" y="160.33314511575384" width="6.0" height="1.5245623941275994" fill="#44aa44" opacity="0.85"/>
<line x1="582.0" y1="156.13212874082444" x2="582.0" y2="176.06154714850368" stroke="#44aa44" stroke-width="0.5" opacity="0.6"/>
<rect x="579.0" y="159.31677018633542" width="6.0" height="9.486166007905126" fill="#44aa44" opacity="0.85"/>
<line x1="594.0" y1="152.93901750423487" x2="594.0" y2="171.33540372670808" stroke="#44aa44" stroke-width="0.5" opacity="0.6"/>
<rect x="591.0" y="162.78938452851494" width="6.0" height="3.7690570299266426" fill="#44aa44" opacity="0.85"/>
<line x1="606.0" y1="147.62845849802372" x2="606.0" y2="172.96160361377756" stroke="#ff4444" stroke-width="0.5" opacity="0.6"/>
<rect x="603.0" y="152.32919254658387" width="6.0" height="15.736871823828324" fill="#ff4444" opacity="0.85"/>
<line x1="618.0" y1="100.59570863918692" x2="618.0" y2="164.5680406549972" stroke="#ff4444" stroke-width="0.5" opacity="0.6"/>
<rect x="615.0" y="130.56182947487298" width="6.0" height="31.34669678147938" fill="#ff4444" opacity="0.85"/>
<line x1="630.0" y1="97.656691134952" x2="630.0" y2="123.74364765669114" stroke="#44aa44" stroke-width="0.5" opacity="0.6"/>
<rect x="627.0" y="113.74929418407679" width="6.0" height="6.775832862789386" fill="#44aa44" opacity="0.85"/>
<line x1="642.0" y1="115.1637492941841" x2="642.0" y2="134.07679277244495" stroke="#44aa44" stroke-width="0.5" opacity="0.6"/>
<rect x="639.0" y="120.3726708074534" width="6.0" height="7.182382834556776" fill="#44aa44" opacity="0.85"/>
<line x1="654.0" y1="115.44325239977415" x2="654.0" y2="139.09090909090912" stroke="#ff4444" stroke-width="0.5" opacity="0.6"/>
<rect x="651.0" y="116.30717108977979" width="6.0" height="16.245059288537533" fill="#ff4444" opacity="0.85"/>
<line x1="666.0" y1="103.5940146809712" x2="666.0" y2="126.43704121964994" stroke="#44aa44" stroke-width="0.5" opacity="0.6"/>
<rect x="663.0" y="109.51439864483343" width="6.0" height="16.685488424618853" fill="#44aa44" opacity="0.85"/>
<line x1="678.0" y1="118.83116883116884" x2="678.0" y2="154.5821569734613" stroke="#44aa44" stroke-width="0.5" opacity="0.6"/>
<rect x="675.0" y="127.30095990965557" width="6.0" height="18.59966120835682" fill="#44aa44" opacity="0.85"/>
<line x1="690.0" y1="81.18294748729532" x2="690.0" y2="123.81987577639751" stroke="#ff4444" stroke-width="0.5" opacity="0.6"/>
<rect x="687.0" y="92.57481648785998" width="6.0" height="31.245059288537533" fill="#ff4444" opacity="0.85"/>
<line x1="702.0" y1="51.3269339356296" x2="702.0" y2="106.12648221343873" stroke="#ff4444" stroke-width="0.5" opacity="0.6"/>
<rect x="699.0" y="65.91191417278372" width="6.0" height="40.21456804065501" fill="#ff4444" opacity="0.85"/>
<line x1="714.0" y1="49.37888198757764" x2="714.0" y2="84.02879728966687" stroke="#ff4444" stroke-width="0.5" opacity="0.6"/>
<rect x="711.0" y="69.19819311123658" width="6.0" height="14.737436476566927" fill="#ff4444" opacity="0.85"/>
<line x1="726.0" y1="57.0016939582157" x2="726.0" y2="88.3399209486166" stroke="#44aa44" stroke-width="0.5" opacity="0.6"/>
<rect x="723.0" y="70.55335968379447" width="6.0" height="16.10954263128174" fill="#44aa44" opacity="0.85"/>
<line x1="738.0" y1="55.50254093732356" x2="738.0" y2="82.69904009034443" stroke="#ff4444" stroke-width="0.5" opacity="0.6"/>
<rect x="735.0" y="68.38509316770185" width="6.0" height="5.217391304347856" fill="#ff4444" opacity="0.85"/>
<line x1="750.0" y1="38.38509316770185" x2="750.0" y2="64.62450592885375" stroke="#ff4444" stroke-width="0.5" opacity="0.6"/>
<rect x="747.0" y="38.52060982495765" width="6.0" height="26.103896103896098" fill="#ff4444" opacity="0.85"/>
<line x1="762.0" y1="30.0" x2="762.0" y2="59.686617730096" stroke="#44aa44" stroke-width="0.5" opacity="0.6"/>
<rect x="759.0" y="42.992659514398625" width="6.0" height="1.4059853190288152" fill="#44aa44" opacity="0.85"/>
<line x1="774.0" y1="41.76453980801806" x2="774.0" y2="69.21513269339357" stroke="#44aa44" stroke-width="0.5" opacity="0.6"/>
<rect x="771.0" y="54.409937888198755" width="6.0" height="6.82665160926031" fill="#44aa44" opacity="0.85"/>
<rect x="134.0" y="282.39751552795036" width="8" height="8" fill="#4caf50" opacity="0.85" rx="1"/>
<text x="138.0" y="280.39751552795036" text-anchor="middle" font-family="sans-serif" font-size="8" fill="#4caf50">前低</text>
<rect x="146.0" y="238.68492377188034" width="8" height="8" fill="#ff9800" opacity="0.85" rx="1"/>
<text x="150.0" y="236.68492377188034" text-anchor="middle" font-family="sans-serif" font-size="8" fill="#ff9800">前高</text>
<rect x="230.0" y="283.07509881422925" width="8" height="8" fill="#4caf50" opacity="0.85" rx="1"/>
<text x="234.0" y="281.07509881422925" text-anchor="middle" font-family="sans-serif" font-size="8" fill="#4caf50">前低</text>
<rect x="254.0" y="294.3907396950875" width="8" height="8" fill="#4caf50" opacity="0.85" rx="1"/>
<text x="258.0" y="292.3907396950875" text-anchor="middle" font-family="sans-serif" font-size="8" fill="#4caf50">前低</text>
<rect x="266.0" y="296.0" width="8" height="8" fill="#4caf50" opacity="0.85" rx="1"/>
<text x="270.0" y="294.0" text-anchor="middle" font-family="sans-serif" font-size="8" fill="#4caf50">前低</text>
<rect x="362.0" y="264.7549407114625" width="8" height="8" fill="#ff9800" opacity="0.85" rx="1"/>
<text x="366.0" y="262.7549407114625" text-anchor="middle" font-family="sans-serif" font-size="8" fill="#ff9800">前高</text>
<rect x="386.0" y="248.6538678712592" width="8" height="8" fill="#ff9800" opacity="0.85" rx="1"/>
<text x="390.0" y="246.6538678712592" text-anchor="middle" font-family="sans-serif" font-size="8" fill="#ff9800">前高</text>
<rect x="386.0" y="248.6538678712592" width="8" height="8" fill="#2196f3" opacity="0.85" rx="1"/>
<text x="390.0" y="246.6538678712592" text-anchor="middle" font-family="sans-serif" font-size="8" fill="#2196f3">突</text>
<rect x="398.0" y="246.11293054771318" width="8" height="8" fill="#ff9800" opacity="0.85" rx="1"/>
<text x="402.0" y="244.11293054771318" text-anchor="middle" font-family="sans-serif" font-size="8" fill="#ff9800">前高</text>
<rect x="410.0" y="242.72501411631848" width="8" height="8" fill="#ff9800" opacity="0.85" rx="1"/>
<text x="414.0" y="240.72501411631848" text-anchor="middle" font-family="sans-serif" font-size="8" fill="#ff9800">前高</text>
<rect x="422.0" y="210.53980801806892" width="8" height="8" fill="#ff9800" opacity="0.85" rx="1"/>
<text x="426.0" y="208.53980801806892" text-anchor="middle" font-family="sans-serif" font-size="8" fill="#ff9800">前高</text>
<rect x="422.0" y="210.53980801806892" width="8" height="8" fill="#2196f3" opacity="0.85" rx="1"/>
<text x="426.0" y="208.53980801806892" text-anchor="middle" font-family="sans-serif" font-size="8" fill="#2196f3">突</text>
<rect x="434.0" y="205.75437605872392" width="8" height="8" fill="#ff9800" opacity="0.85" rx="1"/>
<text x="438.0" y="203.75437605872392" text-anchor="middle" font-family="sans-serif" font-size="8" fill="#ff9800">前高</text>
<rect x="470.0" y="157.86617730095992" width="8" height="8" fill="#ff9800" opacity="0.85" rx="1"/>
<text x="474.0" y="155.86617730095992" text-anchor="middle" font-family="sans-serif" font-size="8" fill="#ff9800">前高</text>
<rect x="470.0" y="157.86617730095992" width="8" height="8" fill="#2196f3" opacity="0.85" rx="1"/>
<text x="474.0" y="155.86617730095992" text-anchor="middle" font-family="sans-serif" font-size="8" fill="#2196f3">突</text>
<rect x="506.0" y="147.86335403726707" width="8" height="8" fill="#ff9800" opacity="0.85" rx="1"/>
<text x="510.0" y="145.86335403726707" text-anchor="middle" font-family="sans-serif" font-size="8" fill="#ff9800">前高</text>
<rect x="530.0" y="132.91417278373802" width="8" height="8" fill="#ff9800" opacity="0.85" rx="1"/>
<text x="534.0" y="130.91417278373802" text-anchor="middle" font-family="sans-serif" font-size="8" fill="#ff9800">前高</text>
<rect x="530.0" y="132.91417278373802" width="8" height="8" fill="#2196f3" opacity="0.85" rx="1"/>
<text x="534.0" y="130.91417278373802" text-anchor="middle" font-family="sans-serif" font-size="8" fill="#2196f3">突</text>
<rect x="554.0" y="118.21908526256352" width="8" height="8" fill="#ff9800" opacity="0.85" rx="1"/>
<text x="558.0" y="116.21908526256352" text-anchor="middle" font-family="sans-serif" font-size="8" fill="#ff9800">前高</text>
<rect x="614.0" y="96.59570863918692" width="8" height="8" fill="#ff9800" opacity="0.85" rx="1"/>
<text x="618.0" y="94.59570863918692" text-anchor="middle" font-family="sans-serif" font-size="8" fill="#ff9800">前高</text>
<rect x="626.0" y="93.656691134952" width="8" height="8" fill="#ff9800" opacity="0.85" rx="1"/>
<text x="630.0" y="91.656691134952" text-anchor="middle" font-family="sans-serif" font-size="8" fill="#ff9800">前高</text>
<rect x="686.0" y="77.18294748729532" width="8" height="8" fill="#ff9800" opacity="0.85" rx="1"/>
<text x="690.0" y="75.18294748729532" text-anchor="middle" font-family="sans-serif" font-size="8" fill="#ff9800">前高</text>
<rect x="686.0" y="55.86448334274421" width="8" height="8" fill="#ff9800" opacity="0.85" rx="1"/>
<text x="690.0" y="53.86448334274421" text-anchor="middle" font-family="sans-serif" font-size="8" fill="#ff9800">量</text>
<rect x="686.0" y="77.18294748729532" width="8" height="8" fill="#2196f3" opacity="0.85" rx="1"/>
<text x="690.0" y="75.18294748729532" text-anchor="middle" font-family="sans-serif" font-size="8" fill="#2196f3">突</text>
<rect x="698.0" y="47.3269339356296" width="8" height="8" fill="#ff9800" opacity="0.85" rx="1"/>
<text x="702.0" y="45.3269339356296" text-anchor="middle" font-family="sans-serif" font-size="8" fill="#ff9800">前高</text>
<rect x="698.0" y="47.3269339356296" width="8" height="8" fill="#2196f3" opacity="0.85" rx="1"/>
<text x="702.0" y="45.3269339356296" text-anchor="middle" font-family="sans-serif" font-size="8" fill="#2196f3">突</text>
<rect x="710.0" y="45.37888198757764" width="8" height="8" fill="#ff9800" opacity="0.85" rx="1"/>
<text x="714.0" y="43.37888198757764" text-anchor="middle" font-family="sans-serif" font-size="8" fill="#ff9800">前高</text>
<rect x="746.0" y="34.38509316770185" width="8" height="8" fill="#ff9800" opacity="0.85" rx="1"/>
<text x="750.0" y="32.38509316770185" text-anchor="middle" font-family="sans-serif" font-size="8" fill="#ff9800">前高</text>
<rect x="746.0" y="34.38509316770185" width="8" height="8" fill="#2196f3" opacity="0.85" rx="1"/>
<text x="750.0" y="32.38509316770185" text-anchor="middle" font-family="sans-serif" font-size="8" fill="#2196f3">突</text>
<rect x="758.0" y="26.0" width="8" height="8" fill="#ff9800" opacity="0.85" rx="1"/>
<text x="762.0" y="24.0" text-anchor="middle" font-family="sans-serif" font-size="8" fill="#ff9800">前高</text>
<text x="66.0" y="359" text-anchor="middle" font-family="sans-serif" font-size="8" fill="#666666" transform="rotate(-40,66.0,359)">02/27</text>
<text x="138.0" y="359" text-anchor="middle" font-family="sans-serif" font-size="8" fill="#666666" transform="rotate(-40,138.0,359)">03/09</text>
<text x="210.0" y="359" text-anchor="middle" font-family="sans-serif" font-size="8" fill="#666666" transform="rotate(-40,210.0,359)">03/17</text>
<text x="282.0" y="359" text-anchor="middle" font-family="sans-serif" font-size="8" fill="#666666" transform="rotate(-40,282.0,359)">03/25</text>
<text x="354.0" y="359" text-anchor="middle" font-family="sans-serif" font-size="8" fill="#666666" transform="rotate(-40,354.0,359)">04/02</text>
<text x="426.0" y="359" text-anchor="middle" font-family="sans-serif" font-size="8" fill="#666666" transform="rotate(-40,426.0,359)">04/13</text>
<text x="498.0" y="359" text-anchor="middle" font-family="sans-serif" font-size="8" fill="#666666" transform="rotate(-40,498.0,359)">04/21</text>
<text x="570.0" y="359" text-anchor="middle" font-family="sans-serif" font-size="8" fill="#666666" transform="rotate(-40,570.0,359)">04/29</text>
<text x="642.0" y="359" text-anchor="middle" font-family="sans-serif" font-size="8" fill="#666666" transform="rotate(-40,642.0,359)">05/12</text>
<text x="714.0" y="359" text-anchor="middle" font-family="sans-serif" font-size="8" fill="#666666" transform="rotate(-40,714.0,359)">05/20</text>
<text x="774.0" y="359" text-anchor="middle" font-family="sans-serif" font-size="8" fill="#666666" transform="rotate(-40,774.0,359)">05/27</text>
<text x="400.0" y="396" text-anchor="middle" font-family="sans-serif" font-size="9" fill="#555555">数据截至: 2026-05-27 20:57  |  最新K线: 20260527</text>
<rect x="50" y="373" width="8" height="8" fill="#ffd700" opacity="0.8" rx="1"/>
<text x="61" y="380" font-family="sans-serif" font-size="9" fill="#888888">EMA5</text>
<rect x="150" y="373" width="8" height="8" fill="#ff6b6b" opacity="0.8" rx="1"/>
<text x="161" y="380" font-family="sans-serif" font-size="9" fill="#888888">EMA10</text>
<rect x="250" y="373" width="8" height="8" fill="#4ecdc4" opacity="0.8" rx="1"/>
<text x="261" y="380" font-family="sans-serif" font-size="9" fill="#888888">EMA20</text>
<rect x="350" y="373" width="8" height="8" fill="#2196f3" opacity="0.8" rx="1"/>
<text x="361" y="380" font-family="sans-serif" font-size="9" fill="#888888">突破</text>
<rect x="450" y="373" width="8" height="8" fill="#ff9800" opacity="0.8" rx="1"/>
<text x="461" y="380" font-family="sans-serif" font-size="9" fill="#888888">前高/量</text>
<rect x="550" y="373" width="8" height="8" fill="#4caf50" opacity="0.8" rx="1"/>
<text x="561" y="380" font-family="sans-serif" font-size="9" fill="#888888">前低</text>
</svg>