<svg xmlns="http://www.w3.org/2000/svg" width="800" height="400" viewBox="0 0 800 400">
<rect width="800" height="400" fill="#1a1a2e"/>
<text x="400.0" y="20" text-anchor="middle" font-family="sans-serif" font-size="14" fill="#ffffff" font-weight="bold">世运电路(603920) K线图</text>
<line x1="60" y1="30.0" x2="780" y2="30.0" stroke="#2a2a4e" stroke-width="0.5"/>
<text x="55" y="33.0" text-anchor="end" font-family="sans-serif" font-size="8" fill="#666666">70.58</text>
<line x1="60" y1="84.00000000000007" x2="780" y2="84.00000000000007" stroke="#2a2a4e" stroke-width="0.5"/>
<text x="55" y="87.00000000000007" text-anchor="end" font-family="sans-serif" font-size="8" fill="#666666">66.20</text>
<line x1="60" y1="137.99999999999994" x2="780" y2="137.99999999999994" stroke="#2a2a4e" stroke-width="0.5"/>
<text x="55" y="140.99999999999994" text-anchor="end" font-family="sans-serif" font-size="8" fill="#666666">61.83</text>
<line x1="60" y1="192.00000000000003" x2="780" y2="192.00000000000003" stroke="#2a2a4e" stroke-width="0.5"/>
<text x="55" y="195.00000000000003" text-anchor="end" font-family="sans-serif" font-size="8" fill="#666666">57.45</text>
<line x1="60" y1="246.0" x2="780" y2="246.0" stroke="#2a2a4e" stroke-width="0.5"/>
<text x="55" y="249.0" text-anchor="end" font-family="sans-serif" font-size="8" fill="#666666">53.08</text>
<line x1="60" y1="300.0" x2="780" y2="300.0" stroke="#2a2a4e" stroke-width="0.5"/>
<text x="55" y="303.0" text-anchor="end" font-family="sans-serif" font-size="8" fill="#666666">48.70</text>
<line x1="60" y1="300" x2="780" y2="300" stroke="#2a2a4e" stroke-width="0.5"/>
<line x1="60" y1="345" x2="780" y2="345" stroke="#2a2a4e" stroke-width="0.5"/>
<rect x="61.8" y="323.626514816224" width="7.199999999999999" height="21.373485183775983" fill="#ff4444" opacity="0.3"/>
<rect x="73.8" y="325.49757155656096" width="7.199999999999999" height="19.502428443439044" fill="#44aa44" opacity="0.3"/>
<rect x="85.8" y="321.9972185468046" width="7.199999999999999" height="23.002781453195382" fill="#44aa44" opacity="0.3"/>
<rect x="97.8" y="328.9938965174847" width="7.199999999999999" height="16.0061034825153" fill="#ff4444" opacity="0.3"/>
<rect x="109.8" y="331.17311072668883" width="7.199999999999999" height="13.826889273311167" fill="#44aa44" opacity="0.3"/>
<rect x="121.8" y="327.2002700375279" width="7.199999999999999" height="17.7997299624721" fill="#ff4444" opacity="0.3"/>
<rect x="133.8" y="328.6173989354193" width="7.199999999999999" height="16.382601064580683" fill="#ff4444" opacity="0.3"/>
<rect x="145.8" y="330.78114525345654" width="7.199999999999999" height="14.218854746543457" fill="#ff4444" opacity="0.3"/>
<rect x="157.8" y="330.83128721746453" width="7.199999999999999" height="14.168712782535465" fill="#ff4444" opacity="0.3"/>
<rect x="169.8" y="333.3548720544114" width="7.199999999999999" height="11.645127945588627" fill="#44aa44" opacity="0.3"/>
<rect x="181.8" y="334.02816174314256" width="7.199999999999999" height="10.971838256857438" fill="#44aa44" opacity="0.3"/>
<rect x="193.8" y="333.2200747469917" width="7.199999999999999" height="11.779925253008287" fill="#44aa44" opacity="0.3"/>
<rect x="205.8" y="334.21588687762426" width="7.199999999999999" height="10.784113122375743" fill="#44aa44" opacity="0.3"/>
<rect x="217.8" y="335.6375896718978" width="7.199999999999999" height="9.362410328102214" fill="#ff4444" opacity="0.3"/>
<rect x="229.8" y="336.1018830062671" width="7.199999999999999" height="8.898116993732913" fill="#44aa44" opacity="0.3"/>
<rect x="241.8" y="336.5723847188397" width="7.199999999999999" height="8.427615281160286" fill="#44aa44" opacity="0.3"/>
<rect x="253.8" y="329.79197460810155" width="7.199999999999999" height="15.208025391898445" fill="#44aa44" opacity="0.3"/>
<rect x="265.8" y="334.32572313775665" width="7.199999999999999" height="10.674276862243346" fill="#44aa44" opacity="0.3"/>
<rect x="277.8" y="334.32808150525324" width="7.199999999999999" height="10.671918494746762" fill="#ff4444" opacity="0.3"/>
<rect x="289.8" y="337.33133931388016" width="7.199999999999999" height="7.668660686119836" fill="#44aa44" opacity="0.3"/>
<rect x="301.8" y="336.81308971444895" width="7.199999999999999" height="8.18691028555105" fill="#ff4444" opacity="0.3"/>
<rect x="313.8" y="336.13140723704066" width="7.199999999999999" height="8.868592762959338" fill="#ff4444" opacity="0.3"/>
<rect x="325.8" y="336.1369621285982" width="7.199999999999999" height="8.863037871401787" fill="#44aa44" opacity="0.3"/>
<rect x="337.8" y="333.1075077186981" width="7.199999999999999" height="11.892492281301884" fill="#ff4444" opacity="0.3"/>
<rect x="349.8" y="334.81355066371606" width="7.199999999999999" height="10.186449336283943" fill="#44aa44" opacity="0.3"/>
<rect x="361.8" y="337.43731638082375" width="7.199999999999999" height="7.562683619176255" fill="#44aa44" opacity="0.3"/>
<rect x="373.8" y="337.8239947848943" width="7.199999999999999" height="7.176005215105704" fill="#ff4444" opacity="0.3"/>
<rect x="385.8" y="333.1114480238125" width="7.199999999999999" height="11.8885519761875" fill="#ff4444" opacity="0.3"/>
<rect x="397.8" y="315.27841370875205" width="7.199999999999999" height="29.721586291247945" fill="#ff4444" opacity="0.3"/>
<rect x="409.8" y="324.5573960852222" width="7.199999999999999" height="20.442603914777806" fill="#44aa44" opacity="0.3"/>
<rect x="421.8" y="328.0817255761251" width="7.199999999999999" height="16.91827442387489" fill="#44aa44" opacity="0.3"/>
<rect x="433.8" y="323.2600526668632" width="7.199999999999999" height="21.739947333136797" fill="#ff4444" opacity="0.3"/>
<rect x="445.8" y="330.304912651752" width="7.199999999999999" height="14.695087348248023" fill="#44aa44" opacity="0.3"/>
<rect x="457.8" y="338.11822906014584" width="7.199999999999999" height="6.881770939854164" fill="#ff4444" opacity="0.3"/>
<rect x="469.8" y="300.0" width="7.199999999999999" height="45.0" fill="#44aa44" opacity="0.3"/>
<rect x="481.8" y="316.3680912123839" width="7.199999999999999" height="28.631908787616112" fill="#44aa44" opacity="0.3"/>
<rect x="493.8" y="312.9888097397976" width="7.199999999999999" height="32.0111902602024" fill="#ff4444" opacity="0.3"/>
<rect x="505.8" y="313.37978656578605" width="7.199999999999999" height="31.62021343421395" fill="#ff4444" opacity="0.3"/>
<rect x="517.8" y="315.9409604035159" width="7.199999999999999" height="29.059039596484126" fill="#44aa44" opacity="0.3"/>
<rect x="529.8" y="323.13838120752655" width="7.199999999999999" height="21.86161879247345" fill="#44aa44" opacity="0.3"/>
<rect x="541.8" y="331.18382923403715" width="7.199999999999999" height="13.816170765962852" fill="#ff4444" opacity="0.3"/>
<rect x="553.8" y="328.8883306216859" width="7.199999999999999" height="16.111669378314105" fill="#44aa44" opacity="0.3"/>
<rect x="565.8" y="320.69073957899093" width="7.199999999999999" height="24.30926042100907" fill="#ff4444" opacity="0.3"/>
<rect x="577.8" y="326.2801853269762" width="7.199999999999999" height="18.71981467302379" fill="#44aa44" opacity="0.3"/>
<rect x="589.8" y="329.31328875325164" width="7.199999999999999" height="15.68671124674836" fill="#ff4444" opacity="0.3"/>
<rect x="601.8" y="321.1902416107171" width="7.199999999999999" height="23.809758389282877" fill="#ff4444" opacity="0.3"/>
<rect x="613.8" y="323.8030760929736" width="7.199999999999999" height="21.196923907026417" fill="#ff4444" opacity="0.3"/>
<rect x="625.8" y="312.13905468024143" width="7.199999999999999" height="32.86094531975857" fill="#ff4444" opacity="0.3"/>
<rect x="637.8" y="306.7792444456441" width="7.199999999999999" height="38.22075555435589" fill="#ff4444" opacity="0.3"/>
<rect x="649.8" y="315.28805582513826" width="7.199999999999999" height="29.711944174861742" fill="#44aa44" opacity="0.3"/>
<rect x="661.8" y="319.39013995043706" width="7.199999999999999" height="25.60986004956294" fill="#44aa44" opacity="0.3"/>
<rect x="673.8" y="316.41194113557356" width="7.199999999999999" height="28.588058864426444" fill="#ff4444" opacity="0.3"/>
<rect x="685.8" y="320.81501784297984" width="7.199999999999999" height="24.18498215702016" fill="#ff4444" opacity="0.3"/>
<rect x="697.8" y="323.907685480216" width="7.199999999999999" height="21.092314519783997" fill="#ff4444" opacity="0.3"/>
<rect x="709.8" y="325.0349371906318" width="7.199999999999999" height="19.96506280936819" fill="#ff4444" opacity="0.3"/>
<rect x="721.8" y="316.8942076483206" width="7.199999999999999" height="28.105792351679384" fill="#44aa44" opacity="0.3"/>
<rect x="733.8" y="317.6918082498662" width="7.199999999999999" height="27.3081917501338" fill="#ff4444" opacity="0.3"/>
<rect x="745.8" y="317.4455136733224" width="7.199999999999999" height="27.55448632667759" fill="#ff4444" opacity="0.3"/>
<rect x="757.8" y="319.1052983341402" width="7.199999999999999" height="25.894701665859827" fill="#44aa44" opacity="0.3"/>
<rect x="769.8" y="316.41498410812756" width="7.199999999999999" height="28.585015891872445" fill="#ff4444" opacity="0.3"/>
<polyline points="66.0,67.51 78.0,82.90 90.0,119.40 102.0,145.50 114.0,165.16 126.0,173.95 138.0,188.82 150.0,188.04 162.0,187.02 174.0,190.66 186.0,201.07 198.0,206.16 210.0,219.46 222.0,222.74 234.0,231.71 246.0,242.05 258.0,256.43 270.0,262.32 282.0,262.70 294.0,264.44 306.0,266.42 318.0,268.98 330.0,275.45 342.0,271.25 354.0,278.37 366.0,284.18 378.0,287.56 390.0,269.58 402.0,245.25 414.0,234.71 426.0,232.86 438.0,227.35 450.0,231.78 462.0,212.73 474.0,199.04 486.0,193.74 498.0,182.64 510.0,164.79 522.0,168.56 534.0,185.39 546.0,192.95 558.0,210.53 570.0,215.63 582.0,227.51 594.0,226.25 606.0,208.34 618.0,193.20 630.0,169.24 642.0,139.36 654.0,126.44 666.0,124.24 678.0,120.22 690.0,117.29 702.0,109.59 714.0,108.07 726.0,111.82 738.0,100.72 750.0,85.78 762.0,77.80 774.0,69.19" fill="none" stroke="#ffd700" stroke-width="0.8" opacity="0.7"/>
<polyline points="66.0,67.51 78.0,75.90 90.0,97.08 102.0,115.38 114.0,131.58 126.0,142.48 138.0,156.31 150.0,161.80 162.0,166.01 174.0,171.82 186.0,180.92 198.0,187.36 210.0,198.04 222.0,203.72 234.0,212.07 246.0,221.28 258.0,232.90 270.0,240.39 282.0,244.59 294.0,248.83 306.0,252.75 318.0,256.63 330.0,262.40 342.0,262.49 354.0,267.96 366.0,273.02 378.0,276.90 390.0,269.03 402.0,255.86 414.0,248.18 426.0,244.72 438.0,239.56 450.0,239.76 462.0,227.91 474.0,217.69 486.0,211.41 498.0,202.14 510.0,188.86 522.0,186.54 534.0,192.45 546.0,195.29 558.0,204.46 570.0,208.34 582.0,216.15 594.0,217.53 606.0,209.34 618.0,200.90 630.0,186.43 642.0,167.01 654.0,154.93 666.0,148.55 678.0,141.94 690.0,136.39 702.0,128.72 714.0,124.41 726.0,123.49 738.0,115.31 750.0,104.51 762.0,96.75 774.0,88.61" fill="none" stroke="#ff6b6b" stroke-width="0.8" opacity="0.7"/>
<polyline points="66.0,67.51 78.0,71.91 90.0,83.38 102.0,94.27 114.0,104.77 126.0,113.03 138.0,123.08 150.0,129.12 162.0,134.44 174.0,140.49 186.0,148.24 198.0,154.73 210.0,163.43 222.0,169.70 234.0,177.31 246.0,185.45 258.0,194.95 270.0,202.48 282.0,208.29 294.0,213.97 306.0,219.34 318.0,224.56 330.0,230.64 342.0,233.71 354.0,239.31 366.0,244.69 378.0,249.42 390.0,247.92 402.0,243.03 414.0,240.23 426.0,239.17 438.0,237.00 450.0,237.35 462.0,231.37 474.0,225.69 486.0,221.63 498.0,215.81 510.0,207.55 522.0,204.55 534.0,205.93 546.0,206.14 558.0,209.90 570.0,211.42 582.0,215.22 594.0,216.03 606.0,211.88 618.0,207.22 630.0,199.04 642.0,187.66 654.0,179.37 666.0,173.70 678.0,167.84 690.0,162.47 702.0,155.97 714.0,151.11 726.0,148.09 738.0,141.46 750.0,133.31 762.0,126.51 774.0,119.41" fill="none" stroke="#4ecdc4" stroke-width="0.8" opacity="0.7"/>
<line x1="66.0" y1="57.14808043875689" x2="66.0" y2="107.00182815356484" stroke="#ff4444" stroke-width="0.5" opacity="0.6"/>
<rect x="63.0" y="67.51371115173666" width="6.0" height="33.19469835466195" fill="#ff4444" opacity="0.85"/>
<line x1="78.0" y1="67.51371115173666" x2="78.0" y2="116.87385740402195" stroke="#44aa44" stroke-width="0.5" opacity="0.6"/>
<rect x="75.0" y="87.7513711151736" width="6.0" height="25.914076782449825" fill="#44aa44" opacity="0.85"/>
<line x1="90.0" y1="109.22303473491777" x2="90.0" y2="192.39488117001827" stroke="#44aa44" stroke-width="0.5" opacity="0.6"/>
<rect x="87.0" y="110.45703839122483" width="6.0" height="81.93784277879344" fill="#44aa44" opacity="0.85"/>
<line x1="102.0" y1="180.79524680073126" x2="102.0" y2="213.86654478976237" stroke="#ff4444" stroke-width="0.5" opacity="0.6"/>
<rect x="99.0" y="197.7010968921389" width="6.0" height="8.144424131627119" fill="#ff4444" opacity="0.85"/>
<line x1="114.0" y1="175.3656307129799" x2="114.0" y2="211.1517367458867" stroke="#44aa44" stroke-width="0.5" opacity="0.6"/>
<rect x="111.0" y="179.0676416819013" width="6.0" height="25.420475319926908" fill="#44aa44" opacity="0.85"/>
<line x1="126.0" y1="164.8765996343693" x2="126.0" y2="220.65356489945154" stroke="#ff4444" stroke-width="0.5" opacity="0.6"/>
<rect x="123.0" y="191.5310786106033" width="6.0" height="21.101462522851904" fill="#ff4444" opacity="0.85"/>
<line x1="138.0" y1="213.86654478976237" x2="138.0" y2="250.88665447897625" stroke="#ff4444" stroke-width="0.5" opacity="0.6"/>
<rect x="135.0" y="218.5557586837295" width="6.0" height="3.7020109689213427" fill="#ff4444" opacity="0.85"/>
<line x1="150.0" y1="183.8802559414991" x2="150.0" y2="208.6837294332724" stroke="#ff4444" stroke-width="0.5" opacity="0.6"/>
<rect x="147.0" y="186.4716636197441" width="6.0" height="16.042047531992637" fill="#ff4444" opacity="0.85"/>
<line x1="162.0" y1="163.02559414990864" x2="162.0" y2="194.12248628884825" stroke="#ff4444" stroke-width="0.5" opacity="0.6"/>
<rect x="159.0" y="184.99085923217547" width="6.0" height="4.442413162705748" fill="#ff4444" opacity="0.85"/>
<line x1="174.0" y1="168.45521023765997" x2="174.0" y2="207.69652650822673" stroke="#44aa44" stroke-width="0.5" opacity="0.6"/>
<rect x="171.0" y="184.99085923217547" width="6.0" height="12.957038391224927" fill="#44aa44" opacity="0.85"/>
<line x1="186.0" y1="191.65447897623406" x2="186.0" y2="222.25776965265084" stroke="#44aa44" stroke-width="0.5" opacity="0.6"/>
<rect x="183.0" y="203.7477148080439" width="6.0" height="18.139853747714795" fill="#44aa44" opacity="0.85"/>
<line x1="198.0" y1="208.93053016453385" x2="198.0" y2="241.13802559414995" stroke="#44aa44" stroke-width="0.5" opacity="0.6"/>
<rect x="195.0" y="209.9177330895795" width="6.0" height="6.416819012797134" fill="#44aa44" opacity="0.85"/>
<line x1="210.0" y1="205.72212065813525" x2="210.0" y2="246.93784277879345" stroke="#44aa44" stroke-width="0.5" opacity="0.6"/>
<rect x="207.0" y="209.9177330895795" width="6.0" height="36.15630712979893" fill="#44aa44" opacity="0.85"/>
<line x1="222.0" y1="223.73857404021936" x2="222.0" y2="243.1124314442413" stroke="#ff4444" stroke-width="0.5" opacity="0.6"/>
<rect x="219.0" y="229.2915904936015" width="6.0" height="2.714808043875678" fill="#ff4444" opacity="0.85"/>
<line x1="234.0" y1="238.05301645338213" x2="234.0" y2="253.1078610603291" stroke="#44aa44" stroke-width="0.5" opacity="0.6"/>
<rect x="231.0" y="243.9762340036563" width="6.0" height="5.676416819012843" fill="#44aa44" opacity="0.85"/>
<line x1="246.0" y1="236.6956124314443" x2="246.0" y2="264.2138939670932" stroke="#44aa44" stroke-width="0.5" opacity="0.6"/>
<rect x="243.0" y="243.23583180987208" width="6.0" height="19.497257769652663" fill="#44aa44" opacity="0.85"/>
<line x1="258.0" y1="243.1124314442413" x2="258.0" y2="288.77056672760517" stroke="#44aa44" stroke-width="0.5" opacity="0.6"/>
<rect x="255.0" y="269.89031078610606" width="6.0" height="15.30164533820846" fill="#44aa44" opacity="0.85"/>
<line x1="270.0" y1="271.617915904936" x2="270.0" y2="293.0895795246801" stroke="#44aa44" stroke-width="0.5" opacity="0.6"/>
<rect x="267.0" y="271.617915904936" width="6.0" height="2.4680073126143043" fill="#44aa44" opacity="0.85"/>
<line x1="282.0" y1="258.6608775137112" x2="282.0" y2="272.8519195612432" stroke="#ff4444" stroke-width="0.5" opacity="0.6"/>
<rect x="279.0" y="263.47349177330904" width="6.0" height="4.442413162705634" fill="#ff4444" opacity="0.85"/>
<line x1="294.0" y1="246.93784277879345" x2="294.0" y2="274.0859232175503" stroke="#44aa44" stroke-width="0.5" opacity="0.6"/>
<rect x="291.0" y="263.59689213893967" width="6.0" height="4.319012797075004" fill="#44aa44" opacity="0.85"/>
<line x1="306.0" y1="263.47349177330904" x2="306.0" y2="283.9579524680073" stroke="#ff4444" stroke-width="0.5" opacity="0.6"/>
<rect x="303.0" y="270.3839122486289" width="6.0" height="7.404021937842799" fill="#ff4444" opacity="0.85"/>
<line x1="318.0" y1="269.76691042047537" x2="318.0" y2="293.82998171846435" stroke="#ff4444" stroke-width="0.5" opacity="0.6"/>
<rect x="315.0" y="274.0859232175503" width="6.0" height="9.87202925045699" fill="#ff4444" opacity="0.85"/>
<line x1="330.0" y1="267.91590493601467" x2="330.0" y2="292.5959780621573" stroke="#44aa44" stroke-width="0.5" opacity="0.6"/>
<rect x="327.0" y="272.8519195612432" width="6.0" height="15.548446069469776" fill="#44aa44" opacity="0.85"/>
<line x1="342.0" y1="261.49908592321754" x2="342.0" y2="280.7495429616088" stroke="#ff4444" stroke-width="0.5" opacity="0.6"/>
<rect x="339.0" y="262.85648994515543" width="6.0" height="9.625228519195616" fill="#ff4444" opacity="0.85"/>
<line x1="354.0" y1="267.91590493601467" x2="354.0" y2="298.7659963436929" stroke="#44aa44" stroke-width="0.5" opacity="0.6"/>
<rect x="351.0" y="267.91590493601467" width="6.0" height="24.680073126142645" fill="#44aa44" opacity="0.85"/>
<line x1="366.0" y1="282.7239488117002" x2="366.0" y2="296.17458866544797" stroke="#44aa44" stroke-width="0.5" opacity="0.6"/>
<rect x="363.0" y="291.36197440585016" width="6.0" height="4.442413162705634" fill="#44aa44" opacity="0.85"/>
<line x1="378.0" y1="281.983546617916" x2="378.0" y2="300.0" stroke="#ff4444" stroke-width="0.5" opacity="0.6"/>
<rect x="375.0" y="294.32358318098727" width="6.0" height="1.4808043875685257" fill="#ff4444" opacity="0.85"/>
<line x1="390.0" y1="233.61060329067647" x2="390.0" y2="273.0987202925046" stroke="#ff4444" stroke-width="0.5" opacity="0.6"/>
<rect x="387.0" y="233.61060329067647" width="6.0" height="34.18190127970746" fill="#ff4444" opacity="0.85"/>
<line x1="402.0" y1="180.05484460694697" x2="402.0" y2="234.59780621572213" stroke="#ff4444" stroke-width="0.5" opacity="0.6"/>
<rect x="399.0" y="196.59049360146258" width="6.0" height="30.356489945155374" fill="#ff4444" opacity="0.85"/>
<line x1="414.0" y1="193.13528336380259" x2="414.0" y2="218.5557586837295" stroke="#44aa44" stroke-width="0.5" opacity="0.6"/>
<rect x="411.0" y="197.08409506398542" width="6.0" height="16.535648994515498" fill="#44aa44" opacity="0.85"/>
<line x1="426.0" y1="210.04113345521023" x2="426.0" y2="236.07861060329066" stroke="#44aa44" stroke-width="0.5" opacity="0.6"/>
<rect x="423.0" y="222.25776965265084" width="6.0" height="6.910420475319967" fill="#44aa44" opacity="0.85"/>
<line x1="438.0" y1="206.46252285191957" x2="438.0" y2="227.81078610603296" stroke="#ff4444" stroke-width="0.5" opacity="0.6"/>
<rect x="435.0" y="216.33455210237665" width="6.0" height="6.293418647166362" fill="#ff4444" opacity="0.85"/>
<line x1="450.0" y1="211.02833638025598" x2="450.0" y2="245.95063985374776" stroke="#44aa44" stroke-width="0.5" opacity="0.6"/>
<rect x="447.0" y="214.23674588665452" width="6.0" height="26.4076782449726" fill="#44aa44" opacity="0.85"/>
<line x1="462.0" y1="174.62522851919564" x2="462.0" y2="174.62522851919564" stroke="#ff4444" stroke-width="0.5" opacity="0.6"/>
<rect x="459.0" y="174.62522851919564" width="6.0" height="0.5" fill="#ff4444" opacity="0.85"/>
<line x1="474.0" y1="130.94149908592323" x2="474.0" y2="190.79067641681905" stroke="#44aa44" stroke-width="0.5" opacity="0.6"/>
<rect x="471.0" y="132.42230347349175" width="6.0" height="39.24131627056673" fill="#44aa44" opacity="0.85"/>
<line x1="486.0" y1="162.77879341864715" x2="486.0" y2="186.4716636197441" stroke="#44aa44" stroke-width="0.5" opacity="0.6"/>
<rect x="483.0" y="171.66361974405848" width="6.0" height="11.476234003656316" fill="#44aa44" opacity="0.85"/>
<line x1="498.0" y1="160.43418647166365" x2="498.0" y2="189.43327239488121" stroke="#ff4444" stroke-width="0.5" opacity="0.6"/>
<rect x="495.0" y="160.43418647166365" width="6.0" height="19.62065813528332" fill="#ff4444" opacity="0.85"/>
<line x1="510.0" y1="127.85648994515542" x2="510.0" y2="172.2806215722121" stroke="#ff4444" stroke-width="0.5" opacity="0.6"/>
<rect x="507.0" y="129.09049360146255" width="6.0" height="42.9433272394881" fill="#ff4444" opacity="0.85"/>
<line x1="522.0" y1="148.4643510054845" x2="522.0" y2="185.11425959780624" stroke="#44aa44" stroke-width="0.5" opacity="0.6"/>
<rect x="519.0" y="160.55758683729434" width="6.0" height="15.548446069469804" fill="#44aa44" opacity="0.85"/>
<line x1="534.0" y1="182.89305301645342" x2="534.0" y2="221.8875685557587" stroke="#44aa44" stroke-width="0.5" opacity="0.6"/>
<rect x="531.0" y="186.4716636197441" width="6.0" height="32.57769652650822" fill="#44aa44" opacity="0.85"/>
<line x1="546.0" y1="197.57769652650825" x2="546.0" y2="223.12157221206584" stroke="#ff4444" stroke-width="0.5" opacity="0.6"/>
<rect x="543.0" y="208.06672760511887" width="6.0" height="15.054844606946972" fill="#ff4444" opacity="0.85"/>
<line x1="558.0" y1="210.53473491773306" x2="558.0" y2="246.81444241316277" stroke="#44aa44" stroke-width="0.5" opacity="0.6"/>
<rect x="555.0" y="210.53473491773306" width="6.0" height="35.16910420475324" fill="#44aa44" opacity="0.85"/>
<line x1="570.0" y1="217.93875685557586" x2="570.0" y2="275.5667276051189" stroke="#ff4444" stroke-width="0.5" opacity="0.6"/>
<rect x="567.0" y="225.83638025594152" width="6.0" height="46.151736745886666" fill="#ff4444" opacity="0.85"/>
<line x1="582.0" y1="223.491773308958" x2="582.0" y2="263.10329067641686" stroke="#44aa44" stroke-width="0.5" opacity="0.6"/>
<rect x="579.0" y="223.491773308958" width="6.0" height="27.76508226691044" fill="#44aa44" opacity="0.85"/>
<line x1="594.0" y1="203.99451553930535" x2="594.0" y2="240.76782449725778" stroke="#ff4444" stroke-width="0.5" opacity="0.6"/>
<rect x="591.0" y="223.73857404021936" width="6.0" height="17.029250457038415" fill="#ff4444" opacity="0.85"/>
<line x1="606.0" y1="169.93601462522852" x2="606.0" y2="216.58135283363802" stroke="#ff4444" stroke-width="0.5" opacity="0.6"/>
<rect x="603.0" y="172.5274223034735" width="6.0" height="28.135283363802586" fill="#ff4444" opacity="0.85"/>
<line x1="618.0" y1="151.9195612431444" x2="618.0" y2="189.55667276051193" stroke="#ff4444" stroke-width="0.5" opacity="0.6"/>
<rect x="615.0" y="162.90219378427787" width="6.0" height="21.101462522851904" fill="#ff4444" opacity="0.85"/>
<line x1="630.0" y1="112.67824497257766" x2="630.0" y2="182.76965265082265" stroke="#ff4444" stroke-width="0.5" opacity="0.6"/>
<rect x="627.0" y="121.3162705667276" width="6.0" height="32.94789762340038" fill="#ff4444" opacity="0.85"/>
<line x1="642.0" y1="45.178244972577744" x2="642.0" y2="129.09049360146255" stroke="#ff4444" stroke-width="0.5" opacity="0.6"/>
<rect x="639.0" y="79.60694698354658" width="6.0" height="49.48354661791598" fill="#ff4444" opacity="0.85"/>
<line x1="654.0" y1="86.64076782449732" x2="654.0" y2="122.79707495429614" stroke="#44aa44" stroke-width="0.5" opacity="0.6"/>
<rect x="651.0" y="88.73857404021945" width="6.0" height="11.846435100548376" fill="#44aa44" opacity="0.85"/>
<line x1="666.0" y1="84.04936014625224" x2="666.0" y2="119.83546617915908" stroke="#44aa44" stroke-width="0.5" opacity="0.6"/>
<rect x="663.0" y="86.51736745886654" width="6.0" height="33.31809872029254" fill="#44aa44" opacity="0.85"/>
<line x1="678.0" y1="78.12614259597797" x2="678.0" y2="156.60877513711154" stroke="#ff4444" stroke-width="0.5" opacity="0.6"/>
<rect x="675.0" y="112.18464351005483" width="6.0" height="7.033820840950639" fill="#ff4444" opacity="0.85"/>
<line x1="690.0" y1="86.51736745886654" x2="690.0" y2="135.6307129798903" stroke="#ff4444" stroke-width="0.5" opacity="0.6"/>
<rect x="687.0" y="111.44424131627059" width="6.0" height="24.1864716636197" fill="#ff4444" opacity="0.85"/>
<line x1="702.0" y1="82.81535648994517" x2="702.0" y2="128.8436928702011" stroke="#ff4444" stroke-width="0.5" opacity="0.6"/>
<rect x="699.0" y="94.1681901279708" width="6.0" height="17.39945155393049" fill="#ff4444" opacity="0.85"/>
<line x1="714.0" y1="91.45338208409513" x2="714.0" y2="137.23491773308956" stroke="#ff4444" stroke-width="0.5" opacity="0.6"/>
<rect x="711.0" y="105.02742230347349" width="6.0" height="1.6042047531992125" fill="#ff4444" opacity="0.85"/>
<line x1="726.0" y1="70.10511882998173" x2="726.0" y2="125.01828153564897" stroke="#44aa44" stroke-width="0.5" opacity="0.6"/>
<rect x="723.0" y="92.93418647166357" width="6.0" height="26.407678244972587" fill="#44aa44" opacity="0.85"/>
<line x1="738.0" y1="60.109689213893944" x2="738.0" y2="118.72486288848262" stroke="#ff4444" stroke-width="0.5" opacity="0.6"/>
<rect x="735.0" y="78.49634369287011" width="6.0" height="38.00731261425969" fill="#ff4444" opacity="0.85"/>
<line x1="750.0" y1="49.497257769652634" x2="750.0" y2="86.51736745886654" stroke="#ff4444" stroke-width="0.5" opacity="0.6"/>
<rect x="747.0" y="55.914076782449655" width="6.0" height="10.242230347349164" fill="#ff4444" opacity="0.85"/>
<line x1="762.0" y1="32.4680073126143" x2="762.0" y2="75.90493601462524" stroke="#44aa44" stroke-width="0.5" opacity="0.6"/>
<rect x="759.0" y="49.497257769652634" width="6.0" height="12.340036563071301" fill="#44aa44" opacity="0.85"/>
<line x1="774.0" y1="30.0" x2="774.0" y2="96.7595978062157" stroke="#ff4444" stroke-width="0.5" opacity="0.6"/>
<rect x="771.0" y="51.965265082266924" width="6.0" height="15.918647166361879" fill="#ff4444" opacity="0.85"/>
<rect x="122.0" y="216.65356489945154" width="8" height="8" fill="#4caf50" opacity="0.85" rx="1"/>
<text x="126.0" y="214.65356489945154" text-anchor="middle" font-family="sans-serif" font-size="8" fill="#4caf50">前低</text>
<rect x="134.0" y="246.88665447897625" width="8" height="8" fill="#4caf50" opacity="0.85" rx="1"/>
<text x="138.0" y="244.88665447897625" text-anchor="middle" font-family="sans-serif" font-size="8" fill="#4caf50">前低</text>
<rect x="230.0" y="249.1078610603291" width="8" height="8" fill="#4caf50" opacity="0.85" rx="1"/>
<text x="234.0" y="247.1078610603291" text-anchor="middle" font-family="sans-serif" font-size="8" fill="#4caf50">前低</text>
<rect x="242.0" y="260.2138939670932" width="8" height="8" fill="#4caf50" opacity="0.85" rx="1"/>
<text x="246.0" y="258.2138939670932" text-anchor="middle" font-family="sans-serif" font-size="8" fill="#4caf50">前低</text>
<rect x="254.0" y="284.77056672760517" width="8" height="8" fill="#4caf50" opacity="0.85" rx="1"/>
<text x="258.0" y="282.77056672760517" text-anchor="middle" font-family="sans-serif" font-size="8" fill="#4caf50">前低</text>
<rect x="266.0" y="289.0895795246801" width="8" height="8" fill="#4caf50" opacity="0.85" rx="1"/>
<text x="270.0" y="287.0895795246801" text-anchor="middle" font-family="sans-serif" font-size="8" fill="#4caf50">前低</text>
<rect x="314.0" y="289.82998171846435" width="8" height="8" fill="#4caf50" opacity="0.85" rx="1"/>
<text x="318.0" y="287.82998171846435" text-anchor="middle" font-family="sans-serif" font-size="8" fill="#4caf50">前低</text>
<rect x="350.0" y="294.7659963436929" width="8" height="8" fill="#4caf50" opacity="0.85" rx="1"/>
<text x="354.0" y="292.7659963436929" text-anchor="middle" font-family="sans-serif" font-size="8" fill="#4caf50">前低</text>
<rect x="374.0" y="296.0" width="8" height="8" fill="#4caf50" opacity="0.85" rx="1"/>
<text x="378.0" y="294.0" text-anchor="middle" font-family="sans-serif" font-size="8" fill="#4caf50">前低</text>
<rect x="386.0" y="229.61060329067647" width="8" height="8" fill="#ff9800" opacity="0.85" rx="1"/>
<text x="390.0" y="227.61060329067647" text-anchor="middle" font-family="sans-serif" font-size="8" fill="#ff9800">前高</text>
<rect x="386.0" y="229.61060329067647" width="8" height="8" fill="#2196f3" opacity="0.85" rx="1"/>
<text x="390.0" y="227.61060329067647" text-anchor="middle" font-family="sans-serif" font-size="8" fill="#2196f3">突</text>
<rect x="398.0" y="176.05484460694697" width="8" height="8" fill="#ff9800" opacity="0.85" rx="1"/>
<text x="402.0" y="174.05484460694697" text-anchor="middle" font-family="sans-serif" font-size="8" fill="#ff9800">前高</text>
<rect x="398.0" y="148.7833638025594" width="8" height="8" fill="#ff9800" opacity="0.85" rx="1"/>
<text x="402.0" y="146.7833638025594" text-anchor="middle" font-family="sans-serif" font-size="8" fill="#ff9800">量</text>
<rect x="458.0" y="170.62522851919564" width="8" height="8" fill="#ff9800" opacity="0.85" rx="1"/>
<text x="462.0" y="168.62522851919564" text-anchor="middle" font-family="sans-serif" font-size="8" fill="#ff9800">前高</text>
<rect x="470.0" y="126.94149908592323" width="8" height="8" fill="#ff9800" opacity="0.85" rx="1"/>
<text x="474.0" y="124.94149908592323" text-anchor="middle" font-family="sans-serif" font-size="8" fill="#ff9800">前高</text>
<rect x="470.0" y="97.01691042047528" width="8" height="8" fill="#ff9800" opacity="0.85" rx="1"/>
<text x="474.0" y="95.01691042047528" text-anchor="middle" font-family="sans-serif" font-size="8" fill="#ff9800">量</text>
<rect x="506.0" y="123.85648994515542" width="8" height="8" fill="#ff9800" opacity="0.85" rx="1"/>
<text x="510.0" y="121.85648994515542" text-anchor="middle" font-family="sans-serif" font-size="8" fill="#ff9800">前高</text>
<rect x="506.0" y="123.85648994515542" width="8" height="8" fill="#2196f3" opacity="0.85" rx="1"/>
<text x="510.0" y="121.85648994515542" text-anchor="middle" font-family="sans-serif" font-size="8" fill="#2196f3">突</text>
<rect x="554.0" y="242.81444241316277" width="8" height="8" fill="#4caf50" opacity="0.85" rx="1"/>
<text x="558.0" y="240.81444241316277" text-anchor="middle" font-family="sans-serif" font-size="8" fill="#4caf50">前低</text>
<rect x="566.0" y="271.5667276051189" width="8" height="8" fill="#4caf50" opacity="0.85" rx="1"/>
<text x="570.0" y="269.5667276051189" text-anchor="middle" font-family="sans-serif" font-size="8" fill="#4caf50">前低</text>
<rect x="626.0" y="108.67824497257766" width="8" height="8" fill="#ff9800" opacity="0.85" rx="1"/>
<text x="630.0" y="106.67824497257766" text-anchor="middle" font-family="sans-serif" font-size="8" fill="#ff9800">前高</text>
<rect x="626.0" y="108.67824497257766" width="8" height="8" fill="#2196f3" opacity="0.85" rx="1"/>
<text x="630.0" y="106.67824497257766" text-anchor="middle" font-family="sans-serif" font-size="8" fill="#2196f3">突</text>
<rect x="638.0" y="41.178244972577744" width="8" height="8" fill="#ff9800" opacity="0.85" rx="1"/>
<text x="642.0" y="39.178244972577744" text-anchor="middle" font-family="sans-serif" font-size="8" fill="#ff9800">前高</text>
<rect x="758.0" y="28.468007312614297" width="8" height="8" fill="#ff9800" opacity="0.85" rx="1"/>
<text x="762.0" y="26.468007312614297" text-anchor="middle" font-family="sans-serif" font-size="8" fill="#ff9800">前高</text>
<rect x="770.0" y="26.0" width="8" height="8" fill="#ff9800" opacity="0.85" rx="1"/>
<text x="774.0" y="24.0" text-anchor="middle" font-family="sans-serif" font-size="8" fill="#ff9800">前高</text>
<text x="66.0" y="359" text-anchor="middle" font-family="sans-serif" font-size="8" fill="#666666" transform="rotate(-40,66.0,359)">02/27</text>
<text x="138.0" y="359" text-anchor="middle" font-family="sans-serif" font-size="8" fill="#666666" transform="rotate(-40,138.0,359)">03/09</text>
<text x="210.0" y="359" text-anchor="middle" font-family="sans-serif" font-size="8" fill="#666666" transform="rotate(-40,210.0,359)">03/17</text>
<text x="282.0" y="359" text-anchor="middle" font-family="sans-serif" font-size="8" fill="#666666" transform="rotate(-40,282.0,359)">03/25</text>
<text x="354.0" y="359" text-anchor="middle" font-family="sans-serif" font-size="8" fill="#666666" transform="rotate(-40,354.0,359)">04/02</text>
<text x="426.0" y="359" text-anchor="middle" font-family="sans-serif" font-size="8" fill="#666666" transform="rotate(-40,426.0,359)">04/13</text>
<text x="498.0" y="359" text-anchor="middle" font-family="sans-serif" font-size="8" fill="#666666" transform="rotate(-40,498.0,359)">04/21</text>
<text x="570.0" y="359" text-anchor="middle" font-family="sans-serif" font-size="8" fill="#666666" transform="rotate(-40,570.0,359)">04/29</text>
<text x="642.0" y="359" text-anchor="middle" font-family="sans-serif" font-size="8" fill="#666666" transform="rotate(-40,642.0,359)">05/12</text>
<text x="714.0" y="359" text-anchor="middle" font-family="sans-serif" font-size="8" fill="#666666" transform="rotate(-40,714.0,359)">05/20</text>
<text x="774.0" y="359" text-anchor="middle" font-family="sans-serif" font-size="8" fill="#666666" transform="rotate(-40,774.0,359)">05/27</text>
<text x="400.0" y="396" text-anchor="middle" font-family="sans-serif" font-size="9" fill="#555555">数据截至: 2026-05-27 20:56  |  最新K线: 20260527</text>
<rect x="50" y="373" width="8" height="8" fill="#ffd700" opacity="0.8" rx="1"/>
<text x="61" y="380" font-family="sans-serif" font-size="9" fill="#888888">EMA5</text>
<rect x="150" y="373" width="8" height="8" fill="#ff6b6b" opacity="0.8" rx="1"/>
<text x="161" y="380" font-family="sans-serif" font-size="9" fill="#888888">EMA10</text>
<rect x="250" y="373" width="8" height="8" fill="#4ecdc4" opacity="0.8" rx="1"/>
<text x="261" y="380" font-family="sans-serif" font-size="9" fill="#888888">EMA20</text>
<rect x="350" y="373" width="8" height="8" fill="#2196f3" opacity="0.8" rx="1"/>
<text x="361" y="380" font-family="sans-serif" font-size="9" fill="#888888">突破</text>
<rect x="450" y="373" width="8" height="8" fill="#ff9800" opacity="0.8" rx="1"/>
<text x="461" y="380" font-family="sans-serif" font-size="9" fill="#888888">前高/量</text>
<rect x="550" y="373" width="8" height="8" fill="#4caf50" opacity="0.8" rx="1"/>
<text x="561" y="380" font-family="sans-serif" font-size="9" fill="#888888">前低</text>
</svg>