<svg xmlns="http://www.w3.org/2000/svg" width="750" height="540" viewBox="0 0 750 540">
<rect width="750" height="540" fill="#1a1a2e"/>
<text x="375.0" y="22" text-anchor="middle" font-family="sans-serif" font-size="15" fill="#ffffff" font-weight="bold">中恒电气(002364) 趋势交易分析图</text>
<text x="60" y="31" font-family="sans-serif" font-size="10" fill="#888888">最新: 53.70</text>
<line x1="60" y1="72.5444257743485" x2="725" y2="72.5444257743485" stroke="#4ecdc4" stroke-width="0.5" stroke-dasharray="4,3" opacity="0.4"/>
<text x="62" y="70.5444257743485" font-family="sans-serif" font-size="7" fill="#4ecdc4" opacity="0.6">买入↑2%</text>
<line x1="60" y1="34.29560873802306" x2="725" y2="34.29560873802306" stroke="#e94560" stroke-width="0.5" stroke-dasharray="4,3" opacity="0.4"/>
<text x="62" y="32.29560873802306" font-family="sans-serif" font-size="7" fill="#e94560" opacity="0.6">警戒↑8%</text>
<rect x="60" y="72.5444257743485" width="3" height="310.4555742256515" fill="#4ecdc4" opacity="0.3" rx="1"/>
<rect x="60" y="34.29560873802306" width="3" height="348.7043912619769" fill="#e94560" opacity="0.3" rx="1"/>
<rect x="60" y="34.29560873802306" width="3" height="38.248817036325434" fill="#ffd700" opacity="0.2" rx="1"/>
<line x1="60" y1="32.0" x2="725" y2="32.0" stroke="#2a2a4e" stroke-width="0.5"/>
<text x="56" y="35.0" text-anchor="end" font-family="sans-serif" font-size="8" fill="#666666">57.3</text>
<line x1="60" y1="127.74999999999996" x2="725" y2="127.74999999999996" stroke="#2a2a4e" stroke-width="0.5"/>
<text x="56" y="130.74999999999994" text-anchor="end" font-family="sans-serif" font-size="8" fill="#666666">49.4</text>
<line x1="60" y1="223.5" x2="725" y2="223.5" stroke="#2a2a4e" stroke-width="0.5"/>
<text x="56" y="226.5" text-anchor="end" font-family="sans-serif" font-size="8" fill="#666666">41.4</text>
<line x1="60" y1="319.25000000000006" x2="725" y2="319.25000000000006" stroke="#2a2a4e" stroke-width="0.5"/>
<text x="56" y="322.25000000000006" text-anchor="end" font-family="sans-serif" font-size="8" fill="#666666">33.5</text>
<line x1="60" y1="415.0" x2="725" y2="415.0" stroke="#2a2a4e" stroke-width="0.5"/>
<text x="56" y="418.0" text-anchor="end" font-family="sans-serif" font-size="8" fill="#666666">25.5</text>
<rect x="61.66250000000001" y="466.34259993937064" width="6.095833333333334" height="8.657400060629328" fill="#ff4444" opacity="0.35"/>
<rect x="72.74583333333334" y="469.1390426569302" width="6.095833333333334" height="5.860957343069783" fill="#44aa44" opacity="0.35"/>
<rect x="83.82916666666668" y="464.7272275914396" width="6.095833333333334" height="10.27277240856039" fill="#ff4444" opacity="0.35"/>
<rect x="94.91250000000001" y="463.57043886535894" width="6.095833333333334" height="11.429561134641048" fill="#44aa44" opacity="0.35"/>
<rect x="105.99583333333335" y="467.79309555937107" width="6.095833333333334" height="7.206904440628953" fill="#ff4444" opacity="0.35"/>
<rect x="117.07916666666668" y="467.9292064278021" width="6.095833333333334" height="7.0707935721978945" fill="#44aa44" opacity="0.35"/>
<rect x="128.1625" y="456.23302374951237" width="6.095833333333334" height="18.766976250487623" fill="#ff4444" opacity="0.35"/>
<rect x="139.24583333333334" y="458.4935110541251" width="6.095833333333334" height="16.506488945874864" fill="#ff4444" opacity="0.35"/>
<rect x="150.32916666666668" y="461.94871993262905" width="6.095833333333334" height="13.051280067370962" fill="#ff4444" opacity="0.35"/>
<rect x="161.4125" y="462.72584128091887" width="6.095833333333334" height="12.274158719081157" fill="#44aa44" opacity="0.35"/>
<rect x="172.49583333333334" y="465.1152878131853" width="6.095833333333334" height="9.884712186814658" fill="#44aa44" opacity="0.35"/>
<rect x="183.57916666666668" y="466.8907049737503" width="6.095833333333334" height="8.109295026249672" fill="#44aa44" opacity="0.35"/>
<rect x="194.6625" y="467.50896991463003" width="6.095833333333334" height="7.491030085369972" fill="#ff4444" opacity="0.35"/>
<rect x="205.74583333333334" y="466.99211066415006" width="6.095833333333334" height="8.007889335849963" fill="#44aa44" opacity="0.35"/>
<rect x="216.82916666666668" y="469.04277732115537" width="6.095833333333334" height="5.957222678844656" fill="#ff4444" opacity="0.35"/>
<rect x="227.9125" y="470.34297341236874" width="6.095833333333334" height="4.657026587631246" fill="#ff4444" opacity="0.35"/>
<rect x="238.99583333333334" y="469.19777135517995" width="6.095833333333334" height="5.802228644820029" fill="#44aa44" opacity="0.35"/>
<rect x="250.07916666666668" y="467.44669224623306" width="6.095833333333334" height="7.55330775376695" fill="#ff4444" opacity="0.35"/>
<rect x="261.1625" y="468.8969902123553" width="6.095833333333334" height="6.103009787644695" fill="#44aa44" opacity="0.35"/>
<rect x="272.2458333333334" y="469.1498955696444" width="6.095833333333334" height="5.850104430355592" fill="#ff4444" opacity="0.35"/>
<rect x="283.3291666666667" y="470.76875686953593" width="6.095833333333334" height="4.2312431304640405" fill="#44aa44" opacity="0.35"/>
<rect x="294.4125" y="469.3680648372797" width="6.095833333333334" height="5.631935162720328" fill="#44aa44" opacity="0.35"/>
<rect x="305.4958333333334" y="468.7945382650688" width="6.095833333333334" height="6.205461734931219" fill="#ff4444" opacity="0.35"/>
<rect x="316.5791666666667" y="468.4598491030614" width="6.095833333333334" height="6.5401508969386" fill="#44aa44" opacity="0.35"/>
<rect x="327.6625" y="469.64119948235054" width="6.095833333333334" height="5.358800517649447" fill="#ff4444" opacity="0.35"/>
<rect x="338.7458333333334" y="470.0730858414532" width="6.095833333333334" height="4.926914158546827" fill="#44aa44" opacity="0.35"/>
<rect x="349.8291666666667" y="465.0218839459976" width="6.095833333333334" height="9.978116054002392" fill="#ff4444" opacity="0.35"/>
<rect x="360.9125" y="467.9548820275817" width="6.095833333333334" height="7.045117972418297" fill="#ff4444" opacity="0.35"/>
<rect x="371.9958333333334" y="467.77743036136854" width="6.095833333333334" height="7.222569638631465" fill="#ff4444" opacity="0.35"/>
<rect x="383.0791666666667" y="473.31971189104297" width="6.095833333333334" height="1.680288108957029" fill="#ff4444" opacity="0.35"/>
<rect x="394.1625" y="474.2352983549834" width="6.095833333333334" height="0.7647016450166262" fill="#ff4444" opacity="0.35"/>
<rect x="405.2458333333334" y="471.6133968728449" width="6.095833333333334" height="3.3866031271551105" fill="#ff4444" opacity="0.35"/>
<rect x="416.3291666666667" y="455.4717677350583" width="6.095833333333334" height="19.528232264941707" fill="#ff4444" opacity="0.35"/>
<rect x="427.4125" y="440.0" width="6.095833333333334" height="35.0" fill="#ff4444" opacity="0.35"/>
<rect x="438.4958333333334" y="448.54149162973863" width="6.095833333333334" height="26.458508370261388" fill="#44aa44" opacity="0.35"/>
<rect x="449.5791666666667" y="451.5328174610092" width="6.095833333333334" height="23.467182538990805" fill="#44aa44" opacity="0.35"/>
<rect x="460.6625" y="448.0553176925724" width="6.095833333333334" height="26.944682307427616" fill="#ff4444" opacity="0.35"/>
<rect x="471.7458333333334" y="449.01484468943613" width="6.095833333333334" height="25.985155310563883" fill="#ff4444" opacity="0.35"/>
<rect x="482.8291666666667" y="453.6099855319424" width="6.095833333333334" height="21.390014468057583" fill="#44aa44" opacity="0.35"/>
<rect x="493.9125" y="457.0629480154571" width="6.095833333333334" height="17.937051984542926" fill="#44aa44" opacity="0.35"/>
<rect x="504.9958333333334" y="459.4560524982625" width="6.095833333333334" height="15.543947501737497" fill="#44aa44" opacity="0.35"/>
<rect x="516.0791666666667" y="463.9175975953736" width="6.095833333333334" height="11.082402404626395" fill="#44aa44" opacity="0.35"/>
<rect x="527.1624999999999" y="463.0483731499958" width="6.095833333333334" height="11.951626850004198" fill="#44aa44" opacity="0.35"/>
<rect x="538.2458333333333" y="465.76473490966146" width="6.095833333333334" height="9.235265090338522" fill="#ff4444" opacity="0.35"/>
<rect x="549.3291666666667" y="463.12232209939003" width="6.095833333333334" height="11.877677900609985" fill="#ff4444" opacity="0.35"/>
<rect x="560.4124999999999" y="458.59949234155044" width="6.095833333333334" height="16.40050765844956" fill="#ff4444" opacity="0.35"/>
<rect x="571.4958333333333" y="456.71633147981356" width="6.095833333333334" height="18.28366852018643" fill="#ff4444" opacity="0.35"/>
<rect x="582.5791666666667" y="464.6817220730155" width="6.095833333333334" height="10.318277926984464" fill="#44aa44" opacity="0.35"/>
<rect x="593.6624999999999" y="465.04984271882824" width="6.095833333333334" height="9.950157281171757" fill="#44aa44" opacity="0.35"/>
<rect x="604.7458333333333" y="467.13926104319165" width="6.095833333333334" height="7.86073895680836" fill="#44aa44" opacity="0.35"/>
<rect x="615.8291666666667" y="455.5309070840594" width="6.095833333333334" height="19.469092915940603" fill="#ff4444" opacity="0.35"/>
<rect x="626.9124999999999" y="454.8716738642934" width="6.095833333333334" height="20.128326135706548" fill="#44aa44" opacity="0.35"/>
<rect x="637.9958333333333" y="461.6580231989696" width="6.095833333333334" height="13.341976801030388" fill="#44aa44" opacity="0.35"/>
<rect x="649.0791666666667" y="463.6225384871941" width="6.095833333333334" height="11.37746151280591" fill="#ff4444" opacity="0.35"/>
<rect x="660.1624999999999" y="460.1976875295643" width="6.095833333333334" height="14.802312470435725" fill="#ff4444" opacity="0.35"/>
<rect x="671.2458333333333" y="463.9010578466501" width="6.095833333333334" height="11.09894215334991" fill="#44aa44" opacity="0.35"/>
<rect x="682.3291666666667" y="460.71323472833046" width="6.095833333333334" height="14.286765271669518" fill="#44aa44" opacity="0.35"/>
<rect x="693.4124999999999" y="464.70173655886583" width="6.095833333333334" height="10.298263441134162" fill="#ff4444" opacity="0.35"/>
<rect x="704.4958333333333" y="460.5663029869691" width="6.095833333333334" height="14.43369701303087" fill="#ff4444" opacity="0.35"/>
<rect x="715.5791666666667" y="463.03754054418687" width="6.095833333333334" height="11.962459455813104" fill="#44aa44" opacity="0.25" stroke-dasharray="3,2"/>
<polyline points="65.54166666666667,295.0487881649355 76.625,298.2635610114364 87.70833333333334,296.46864617214004 98.79166666666667,309.61796010678603 109.87500000000001,317.9421381301562 120.95833333333334,321.0001411896981 132.04166666666666,311.6263662909812 143.125,307.547154696558 154.20833333333334,299.24201247948065 165.29166666666666,294.5893135342168 176.375,298.1581678938635 187.45833333333334,307.6500890565113 198.54166666666666,314.982653012808 209.625,328.95276227503746 220.70833333333334,334.7299183187061 231.79166666666666,342.2381597940466 242.875,352.1059980412729 253.95833333333334,359.0462188179885 265.0416666666667,363.5926633479697 276.12500000000006,363.1677455579687 287.20833333333337,366.6618251259399 298.2916666666667,372.16579969050696 309.37500000000006,378.92933493164213 320.45833333333337,388.98384158594627 331.5416666666667,391.66837996402296 342.62500000000006,399.0035553762881 353.70833333333337,397.3837573036339 364.7916666666667,395.0581674438453 375.87500000000006,387.6408137591221 386.95833333333337,371.0423597340743 398.0416666666667,347.15781699195344 409.12500000000006,317.12997263318346 420.20833333333337,281.60013074297007 431.2916666666667,254.25676536993302 442.37500000000006,238.43893475611736 453.45833333333337,235.48861519676527 464.5416666666667,222.31021518835863 475.62500000000006,211.67612079601628 486.70833333333337,206.2744802788676 497.7916666666667,203.51726447297497 508.87500000000006,209.073098149332 519.9583333333334,214.9469589382914 531.0416666666666,223.484102097776 542.125,230.18014738529735 553.2083333333334,230.46497287652704 564.2916666666666,214.25951502019228 575.375,197.70946998618214 586.4583333333334,191.29734259702042 597.5416666666666,188.71034674865885 608.625,189.91916307218327 619.7083333333334,173.04378996544463 630.7916666666666,160.42726276785592 641.875,155.59267942786238 652.9583333333334,147.10543333172149 664.0416666666666,126.53876019197966 675.125,118.21238928337414 686.2083333333334,122.14505524148136 697.2916666666666,113.03291165715794 708.375,90.24133046580437 719.4583333333334,85.29403145312358" fill="none" stroke="#ffd700" stroke-width="1" opacity="0.7"/>
<polyline points="65.54166666666667,295.0487881649355 76.625,296.8023006266633 87.70833333333334,296.0889398751877 98.79166666666667,303.3303304389859 109.87500000000001,309.0139965731515 120.95833333333334,312.3052967069025 132.04166666666666,308.7732093953834 143.125,307.066940688534 154.20833333333334,302.6241747534052 165.29166666666666,299.4714003698205 176.375,300.5303960504271 187.45833333333334,305.27649338340524 198.54166666666666,309.7076365728591 209.625,318.28679006861125 220.70833333333334,323.37723376632624 231.79166666666666,329.5367626714902 242.875,337.22856482862386 253.95833333333334,343.7191276545867 265.0416666666667,348.98575033701314 276.12500000000006,351.4097793626411 287.20833333333337,355.4534529806849 298.2916666666667,360.4935067695861 309.37500000000006,366.30494288673634 320.45833333333337,374.08456325179424 331.5416666666667,378.25781660968187 342.62500000000006,384.69710562625215 353.70833333333337,386.41475208662905 364.7916666666667,387.1406131116544 375.87500000000006,384.5343391622037 386.95833333333337,376.0454505297991 398.0416666666667,362.10786525305593 409.12500000000006,343.0108504644355 420.20833333333337,318.9253225550006 431.2916666666667,297.22436111297486 442.37500000000006,280.7841633703405 453.45833333333337,271.47576568083514 464.5416666666667,257.7444292246007 475.62500000000006,245.50142973127902 486.70833333333337,236.40502418824104 497.7916666666667,229.4228075833226 508.87500000000006,227.743163568545 519.9583333333334,227.55253028630224 531.0416666666666,229.91723176456466 542.125,232.39996016379655 553.2083333333334,232.15171719928563 564.2916666666666,223.00569576441967 575.375,212.38818379237279 586.4583333333334,206.22180270624986 597.5416666666666,202.09717586001094 608.625,200.32256128896026 619.7083333333334,189.22628537314336 630.7916666666666,179.40227137305888 641.875,173.31522435029822 652.9583333333334,165.46353649377852 664.0416666666666,150.9075142062726 675.125,141.93517479897997 686.2083333333334,139.76703159147374 697.2916666666666,131.59277575457145 708.375,115.786483450667 719.4583333333334,108.44338344650248" fill="none" stroke="#ff6b6b" stroke-width="1" opacity="0.7"/>
<polyline points="65.54166666666667,295.0487881649355 76.625,295.96729469250715 87.70833333333334,295.6731539116539 98.79166666666667,299.50586191778956 109.87500000000001,302.84725546627595 120.95833333333334,305.1585784988955 132.04166666666666,303.98907735552905 143.125,303.5509491795465 154.20833333333334,301.5586424048588 165.29166666666666,300.00866842760456 176.375,300.5122120643238 187.45833333333334,302.9999948564651 198.54166666666666,305.53787924398284 209.625,310.4288412968889 220.70833333333334,313.84364025966556 231.79166666666666,317.97802144871906 242.875,323.1078931712911 253.95833333333334,327.85253766654137 265.0416666666667,332.1223485942929 276.12500000000006,334.99811634511894 287.20833333333337,338.67924662290596 298.2916666666667,342.91681826069026 309.37500000000006,347.63487418004473 320.45833333333337,353.48801520047425 331.5416666666667,357.6355810594935 342.62500000000006,362.9725644062863 353.70833333333337,365.94128790648057 364.7916666666667,368.2713545557936 375.87500000000006,368.70323568283004 386.95833333333337,365.76439911151084 398.0416666666667,359.4429069587681 409.12500000000006,349.6935142879944 420.20833333333337,336.44084120938 431.2916666666667,323.4055262964733 442.37500000000006,312.30054984237927 453.45833333333337,304.42316186482515 464.5416666666667,294.09270979879847 475.62500000000006,284.21796905713495 486.70833333333337,275.7658957416527 497.7916666666667,268.3598897530372 508.87500000000006,263.7717826815141 519.9583333333334,260.24063009434235 531.0416666666666,258.36613088695213 542.125,256.95718870346525 553.2083333333334,254.48837300399111 564.2916666666666,247.57029931861317 575.375,239.669259375713 586.4583333333334,233.84105256075912 597.5416666666666,229.0501289884902 608.625,225.55362105808467 619.7083333333334,217.33832798131164 630.7916666666666,209.5150784947751 641.875,203.45873889983233 652.9583333333334,196.47513911312828 664.0416666666666,185.89707004640138 675.125,177.86493456256912 686.2083333333334,173.3073586192479 697.2916666666666,165.83128870203484 708.375,154.2909915002313 719.4583333333334,146.77750977904378" fill="none" stroke="#4ecdc4" stroke-width="1" opacity="0.7"/>
<line x1="65.54166666666667" y1="291.1910607491344" x2="65.54166666666667" y2="310.4796978281397" stroke="#ff4444" stroke-width="0.5" opacity="0.6"/>
<rect x="63.04791666666667" y="295.0487881649355" width="4.987500000000001" height="0.6027699087189262" fill="#ff4444" opacity="0.8" rx="1"/>
<line x1="76.625" y1="298.42429965376135" x2="76.625" y2="308.671388101983" stroke="#44aa44" stroke-width="0.5" opacity="0.6"/>
<rect x="74.13125" y="303.8492288322317" width="4.987500000000001" height="0.8438778722064626" fill="#44aa44" opacity="0.8" rx="1"/>
<line x1="87.70833333333334" y1="276.8451369216241" x2="87.70833333333334" y2="312.1674535725527" stroke="#ff4444" stroke-width="0.5" opacity="0.6"/>
<rect x="85.21458333333334" y="292.8788164935474" width="4.987500000000001" height="18.80642115203017" fill="#ff4444" opacity="0.8" rx="1"/>
<line x1="98.79166666666667" y1="289.5033050047215" x2="98.79166666666667" y2="335.916587976078" stroke="#44aa44" stroke-width="0.5" opacity="0.6"/>
<rect x="96.29791666666667" y="291.9143846395971" width="4.987500000000001" height="44.00220333648093" fill="#44aa44" opacity="0.8" rx="1"/>
<line x1="109.87500000000001" y1="319.6418004406673" x2="109.87500000000001" y2="345.440352533837" stroke="#ff4444" stroke-width="0.5" opacity="0.6"/>
<rect x="107.38125000000001" y="334.5904941768964" width="4.987500000000001" height="8.07711677683352" fill="#ff4444" opacity="0.8" rx="1"/>
<line x1="120.95833333333334" y1="315.3018570978911" x2="120.95833333333334" y2="331.57664463330184" stroke="#44aa44" stroke-width="0.5" opacity="0.6"/>
<rect x="118.46458333333334" y="322.4145420207743" width="4.987500000000001" height="4.701605288007556" fill="#44aa44" opacity="0.8" rx="1"/>
<line x1="132.04166666666666" y1="287.57444129682085" x2="132.04166666666666" y2="322.53509600251806" stroke="#ff4444" stroke-width="0.5" opacity="0.6"/>
<rect x="129.54791666666665" y="292.8788164935474" width="4.987500000000001" height="28.450739691532874" fill="#ff4444" opacity="0.8" rx="1"/>
<line x1="143.125" y1="294.9282341831917" x2="143.125" y2="324.82562165565" stroke="#ff4444" stroke-width="0.5" opacity="0.6"/>
<rect x="140.63125" y="299.3887315077117" width="4.987500000000001" height="12.296506137865833" fill="#ff4444" opacity="0.8" rx="1"/>
<line x1="154.20833333333334" y1="280.34120239219385" x2="154.20833333333334" y2="297.09820585457976" stroke="#ff4444" stroke-width="0.5" opacity="0.6"/>
<rect x="151.71458333333334" y="282.63172804532576" width="4.987500000000001" height="10.247088448221632" fill="#ff4444" opacity="0.8" rx="1"/>
<line x1="165.29166666666666" y1="272.2640856153604" x2="165.29166666666666" y2="288.5388731507711" stroke="#44aa44" stroke-width="0.5" opacity="0.6"/>
<rect x="162.79791666666665" y="278.5328926660371" width="4.987500000000001" height="6.751022977651871" fill="#44aa44" opacity="0.8" rx="1"/>
<line x1="176.375" y1="282.8728360088133" x2="176.375" y2="312.1674535725527" stroke="#44aa44" stroke-width="0.5" opacity="0.6"/>
<rect x="173.88125" y="285.16336166194526" width="4.987500000000001" height="20.13251495121176" fill="#44aa44" opacity="0.8" rx="1"/>
<line x1="187.45833333333334" y1="309.51526597418945" x2="187.45833333333334" y2="329.1655649984262" stroke="#44aa44" stroke-width="0.5" opacity="0.6"/>
<rect x="184.96458333333334" y="314.81964117091593" width="4.987500000000001" height="11.814290210890817" fill="#44aa44" opacity="0.8" rx="1"/>
<line x1="198.54166666666666" y1="329.1655649984262" x2="198.54166666666666" y2="347.2486622599937" stroke="#ff4444" stroke-width="0.5" opacity="0.6"/>
<rect x="196.04791666666665" y="329.6477809254013" width="4.987500000000001" height="3.6166194523135005" fill="#ff4444" opacity="0.8" rx="1"/>
<line x1="209.625" y1="326.27226943657536" x2="209.625" y2="359.7862763613472" stroke="#44aa44" stroke-width="0.5" opacity="0.6"/>
<rect x="207.13125" y="328.68334907145106" width="4.987500000000001" height="28.20963172804528" fill="#44aa44" opacity="0.8" rx="1"/>
<line x1="220.70833333333334" y1="344.3553666981429" x2="220.70833333333334" y2="359.906830343091" stroke="#ff4444" stroke-width="0.5" opacity="0.6"/>
<rect x="218.21458333333334" y="346.28423040604343" width="4.987500000000001" height="7.594900849858334" fill="#ff4444" opacity="0.8" rx="1"/>
<line x1="231.79166666666666" y1="350.50361976707586" x2="231.79166666666666" y2="360.991816178785" stroke="#ff4444" stroke-width="0.5" opacity="0.6"/>
<rect x="229.29791666666665" y="357.25464274472773" width="4.987500000000001" height="3.7371734340572402" fill="#ff4444" opacity="0.8" rx="1"/>
<line x1="242.875" y1="350.74472773056345" x2="242.875" y2="371.9622285174693" stroke="#44aa44" stroke-width="0.5" opacity="0.6"/>
<rect x="240.38125" y="352.91469940195157" width="4.987500000000001" height="18.926975133773965" fill="#44aa44" opacity="0.8" rx="1"/>
<line x1="253.95833333333334" y1="355.0846710733396" x2="253.95833333333334" y2="380.1598992760466" stroke="#ff4444" stroke-width="0.5" opacity="0.6"/>
<rect x="251.46458333333334" y="372.9266603714196" width="4.987500000000001" height="1.8083097261567787" fill="#ff4444" opacity="0.8" rx="1"/>
<line x1="265.0416666666667" y1="366.53729933899905" x2="265.0416666666667" y2="387.754800125905" stroke="#44aa44" stroke-width="0.5" opacity="0.6"/>
<rect x="262.5479166666667" y="369.4305949008499" width="4.987500000000001" height="3.2549575070821675" fill="#44aa44" opacity="0.8" rx="1"/>
<line x1="276.12500000000006" y1="359.18350645262825" x2="276.12500000000006" y2="369.4305949008499" stroke="#ff4444" stroke-width="0.5" opacity="0.6"/>
<rect x="273.6312500000001" y="362.3179099779667" width="4.987500000000001" height="4.822159269751296" fill="#ff4444" opacity="0.8" rx="1"/>
<line x1="287.20833333333337" y1="361.1123701605288" x2="287.20833333333337" y2="377.0254957507082" stroke="#44aa44" stroke-width="0.5" opacity="0.6"/>
<rect x="284.7145833333334" y="361.23292414227257" width="4.987500000000001" height="12.417060119609687" fill="#44aa44" opacity="0.8" rx="1"/>
<line x1="298.2916666666667" y1="378.47214353163366" x2="298.2916666666667" y2="387.15203021718605" stroke="#44aa44" stroke-width="0.5" opacity="0.6"/>
<rect x="295.7979166666667" y="380.521561221278" width="4.987500000000001" height="2.6521875983631844" fill="#44aa44" opacity="0.8" rx="1"/>
<line x1="309.37500000000006" y1="390.2864337425244" x2="309.37500000000006" y2="402.94460182562165" stroke="#ff4444" stroke-width="0.5" opacity="0.6"/>
<rect x="306.8812500000001" y="392.45640541391253" width="4.987500000000001" height="1.2055398174377956" fill="#ff4444" opacity="0.8" rx="1"/>
<line x1="320.45833333333337" y1="391.8536355051936" x2="320.45833333333337" y2="409.0928548945546" stroke="#44aa44" stroke-width="0.5" opacity="0.6"/>
<rect x="317.9645833333334" y="395.7113629209947" width="4.987500000000001" height="13.38149197355989" fill="#44aa44" opacity="0.8" rx="1"/>
<line x1="331.5416666666667" y1="396.43468681145737" x2="331.5416666666667" y2="404.7529115517784" stroke="#ff4444" stroke-width="0.5" opacity="0.6"/>
<rect x="329.0479166666667" y="397.0374567201763" width="4.987500000000001" height="3.3755114888259072" fill="#ff4444" opacity="0.8" rx="1"/>
<line x1="342.62500000000006" y1="398.2429965376141" x2="342.62500000000006" y2="415.0" stroke="#44aa44" stroke-width="0.5" opacity="0.6"/>
<rect x="340.1312500000001" y="399.6896443185395" width="4.987500000000001" height="13.984261882278872" fill="#44aa44" opacity="0.8" rx="1"/>
<line x1="353.70833333333337" y1="385.34372049102933" x2="353.70833333333337" y2="415.0" stroke="#ff4444" stroke-width="0.5" opacity="0.6"/>
<rect x="351.2145833333334" y="394.14416115832546" width="4.987500000000001" height="15.189801699716725" fill="#ff4444" opacity="0.8" rx="1"/>
<line x1="364.7916666666667" y1="379.79823733081525" x2="364.7916666666667" y2="398.4841045011017" stroke="#ff4444" stroke-width="0.5" opacity="0.6"/>
<rect x="362.2979166666667" y="390.4069877242682" width="4.987500000000001" height="5.063267233238889" fill="#ff4444" opacity="0.8" rx="1"/>
<line x1="375.87500000000006" y1="371.9622285174693" x2="375.87500000000006" y2="382.81208687440983" stroke="#ff4444" stroke-width="0.5" opacity="0.6"/>
<rect x="373.3812500000001" y="372.8061063896758" width="4.987500000000001" height="7.715454831602187" fill="#ff4444" opacity="0.8" rx="1"/>
<line x1="386.95833333333337" y1="337.8454516839786" x2="386.95833333333337" y2="337.8454516839786" stroke="#ff4444" stroke-width="0.5" opacity="0.6"/>
<rect x="384.4645833333334" y="337.8454516839786" width="4.987500000000001" height="0.5" fill="#ff4444" opacity="0.8" rx="1"/>
<line x1="398.0416666666667" y1="299.3887315077117" x2="398.0416666666667" y2="299.3887315077117" stroke="#ff4444" stroke-width="0.5" opacity="0.6"/>
<rect x="395.5479166666667" y="299.3887315077117" width="4.987500000000001" height="0.5" fill="#ff4444" opacity="0.8" rx="1"/>
<line x1="409.12500000000006" y1="257.0742839156436" x2="409.12500000000006" y2="257.0742839156436" stroke="#ff4444" stroke-width="0.5" opacity="0.6"/>
<rect x="406.6312500000001" y="257.0742839156436" width="4.987500000000001" height="0.5" fill="#ff4444" opacity="0.8" rx="1"/>
<line x1="420.20833333333337" y1="210.54044696254323" x2="420.20833333333337" y2="232.48127163991185" stroke="#ff4444" stroke-width="0.5" opacity="0.6"/>
<rect x="417.7145833333334" y="210.54044696254323" width="4.987500000000001" height="5.907145105445409" fill="#ff4444" opacity="0.8" rx="1"/>
<line x1="431.2916666666667" y1="190.40793201133147" x2="431.2916666666667" y2="217.53257790368275" stroke="#ff4444" stroke-width="0.5" opacity="0.6"/>
<rect x="428.7979166666667" y="199.570034623859" width="4.987500000000001" height="10.970412338684241" fill="#ff4444" opacity="0.8" rx="1"/>
<line x1="442.37500000000006" y1="192.33679571923196" x2="442.37500000000006" y2="222.95750708215294" stroke="#44aa44" stroke-width="0.5" opacity="0.6"/>
<rect x="439.8812500000001" y="192.33679571923196" width="4.987500000000001" height="14.466477809254059" fill="#44aa44" opacity="0.8" rx="1"/>
<line x1="453.45833333333337" y1="196.43563109852064" x2="453.45833333333337" y2="236.21844507396912" stroke="#44aa44" stroke-width="0.5" opacity="0.6"/>
<rect x="450.9645833333334" y="204.03053194837895" width="4.987500000000001" height="25.557444129682153" fill="#44aa44" opacity="0.8" rx="1"/>
<line x1="464.5416666666667" y1="190.28737802958764" x2="464.5416666666667" y2="235.61567516525028" stroke="#ff4444" stroke-width="0.5" opacity="0.6"/>
<rect x="462.0479166666667" y="195.95341517154543" width="4.987500000000001" height="26.762983947120006" fill="#ff4444" opacity="0.8" rx="1"/>
<line x1="475.62500000000006" y1="174.85646836638333" x2="475.62500000000006" y2="218.01479383065785" stroke="#ff4444" stroke-width="0.5" opacity="0.6"/>
<rect x="473.1312500000001" y="190.40793201133147" width="4.987500000000001" height="5.9071451054453235" fill="#ff4444" opacity="0.8" rx="1"/>
<line x1="486.70833333333337" y1="180.76361347182873" x2="486.70833333333337" y2="207.6471514006925" stroke="#44aa44" stroke-width="0.5" opacity="0.6"/>
<rect x="484.2145833333334" y="188.72017626691851" width="4.987500000000001" height="6.7510229776518145" fill="#44aa44" opacity="0.8" rx="1"/>
<line x1="497.7916666666667" y1="181.728045325779" x2="497.7916666666667" y2="203.18665407617246" stroke="#44aa44" stroke-width="0.5" opacity="0.6"/>
<rect x="495.2979166666667" y="189.8051621026125" width="4.987500000000001" height="8.19767075857726" fill="#44aa44" opacity="0.8" rx="1"/>
<line x1="508.87500000000006" y1="197.882278879446" x2="508.87500000000006" y2="222.35473717343407" stroke="#44aa44" stroke-width="0.5" opacity="0.6"/>
<rect x="506.3812500000001" y="199.570034623859" width="4.987500000000001" height="20.614730878186975" fill="#44aa44" opacity="0.8" rx="1"/>
<line x1="519.9583333333334" y1="216.3270380862449" x2="519.9583333333334" y2="234.28958136606855" stroke="#44aa44" stroke-width="0.5" opacity="0.6"/>
<rect x="517.4645833333334" y="216.44759206798864" width="4.987500000000001" height="10.247088448221632" fill="#44aa44" opacity="0.8" rx="1"/>
<line x1="531.0416666666666" y1="217.77368586717026" x2="531.0416666666666" y2="244.05445388731505" stroke="#44aa44" stroke-width="0.5" opacity="0.6"/>
<rect x="528.5479166666667" y="228.502990242367" width="4.987500000000001" height="12.055398174378325" fill="#44aa44" opacity="0.8" rx="1"/>
<line x1="542.125" y1="230.31129996852374" x2="542.125" y2="248.39439723009124" stroke="#ff4444" stroke-width="0.5" opacity="0.6"/>
<rect x="539.63125" y="243.57223796033995" width="4.987500000000001" height="4.0988353792886585" fill="#ff4444" opacity="0.8" rx="1"/>
<line x1="553.2083333333334" y1="222.59584513692158" x2="553.2083333333334" y2="254.42209631728042" stroke="#ff4444" stroke-width="0.5" opacity="0.6"/>
<rect x="550.7145833333334" y="231.03462385898646" width="4.987500000000001" height="12.537614101353483" fill="#ff4444" opacity="0.8" rx="1"/>
<line x1="564.2916666666666" y1="181.84859930752285" x2="564.2916666666666" y2="231.99905571293672" stroke="#ff4444" stroke-width="0.5" opacity="0.6"/>
<rect x="561.7979166666667" y="181.84859930752285" width="4.987500000000001" height="43.88164935473719" fill="#ff4444" opacity="0.8" rx="1"/>
<line x1="575.375" y1="159.1844507396915" x2="575.375" y2="186.67075857727417" stroke="#ff4444" stroke-width="0.5" opacity="0.6"/>
<rect x="572.88125" y="164.6093799181618" width="4.987500000000001" height="14.707585772741567" fill="#ff4444" opacity="0.8" rx="1"/>
<line x1="586.4583333333334" y1="166.65879760780606" x2="586.4583333333334" y2="185.5857727415801" stroke="#44aa44" stroke-width="0.5" opacity="0.6"/>
<rect x="583.9645833333334" y="177.8703179099779" width="4.987500000000001" height="0.6027699087189831" fill="#44aa44" opacity="0.8" rx="1"/>
<line x1="597.5416666666666" y1="170.63707900535098" x2="597.5416666666666" y2="194.3862134088763" stroke="#44aa44" stroke-width="0.5" opacity="0.6"/>
<rect x="595.0479166666667" y="174.49480642115205" width="4.987500000000001" height="9.04154863078378" fill="#44aa44" opacity="0.8" rx="1"/>
<line x1="608.625" y1="180.40195152659737" x2="608.625" y2="198.84671073339626" stroke="#44aa44" stroke-width="0.5" opacity="0.6"/>
<rect x="606.13125" y="183.8980169971671" width="4.987500000000001" height="8.438778722064853" fill="#44aa44" opacity="0.8" rx="1"/>
<line x1="619.7083333333334" y1="139.29304375196728" x2="619.7083333333334" y2="196.5561850802644" stroke="#ff4444" stroke-width="0.5" opacity="0.6"/>
<rect x="617.2145833333334" y="139.29304375196728" width="4.987500000000001" height="47.016052880075534" fill="#ff4444" opacity="0.8" rx="1"/>
<line x1="630.7916666666666" y1="82.27101038715763" x2="630.7916666666666" y2="135.1942083726786" stroke="#44aa44" stroke-width="0.5" opacity="0.6"/>
<rect x="628.2979166666667" y="109.87787220648404" width="4.987500000000001" height="25.316336166194546" fill="#44aa44" opacity="0.8" rx="1"/>
<line x1="641.875" y1="122.4154863078376" x2="641.875" y2="156.7733711048158" stroke="#44aa44" stroke-width="0.5" opacity="0.6"/>
<rect x="639.38125" y="126.03210576015105" width="4.987500000000001" height="19.891406987724267" fill="#44aa44" opacity="0.8" rx="1"/>
<line x1="652.9583333333334" y1="117.11111111111106" x2="652.9583333333334" y2="151.83065785332073" stroke="#ff4444" stroke-width="0.5" opacity="0.6"/>
<rect x="650.4645833333334" y="130.13094113943976" width="4.987500000000001" height="18.20365124331127" fill="#ff4444" opacity="0.8" rx="1"/>
<line x1="664.0416666666666" y1="74.55555555555549" x2="664.0416666666666" y2="141.9452313503305" stroke="#ff4444" stroke-width="0.5" opacity="0.6"/>
<rect x="661.5479166666667" y="85.40541391249607" width="4.987500000000001" height="50.63267233238898" fill="#ff4444" opacity="0.8" rx="1"/>
<line x1="675.125" y1="73.47056971986149" x2="675.125" y2="120.00440667296189" stroke="#44aa44" stroke-width="0.5" opacity="0.6"/>
<rect x="672.63125" y="84.92319798552094" width="4.987500000000001" height="16.636449480642057" fill="#44aa44" opacity="0.8" rx="1"/>
<line x1="686.2083333333334" y1="73.22946175637388" x2="686.2083333333334" y2="132.18035882908399" stroke="#44aa44" stroke-width="0.5" opacity="0.6"/>
<rect x="683.7145833333334" y="94.08530059804846" width="4.987500000000001" height="35.92508655964744" fill="#44aa44" opacity="0.8" rx="1"/>
<line x1="697.2916666666666" y1="89.1425873465533" x2="697.2916666666666" y2="132.05980484734022" stroke="#ff4444" stroke-width="0.5" opacity="0.6"/>
<rect x="694.7979166666667" y="94.8086244885111" width="4.987500000000001" height="29.053509600251857" fill="#ff4444" opacity="0.8" rx="1"/>
<line x1="708.375" y1="32.0" x2="708.375" y2="82.27101038715763" stroke="#ff4444" stroke-width="0.5" opacity="0.6"/>
<rect x="705.88125" y="44.65816808309723" width="4.987500000000001" height="33.63456090651558" fill="#ff4444" opacity="0.8" rx="1"/>
<line x1="719.4583333333334" y1="59.84796978281392" x2="719.4583333333334" y2="94.08530059804846" stroke="#44aa44" stroke-width="0.5" opacity="0.3" stroke-dasharray="4,3"/>
<rect x="716.9645833333334" y="59.84796978281392" width="4.987500000000001" height="15.551463644948058" fill="#44aa44" opacity="0.4" stroke-dasharray="4,3" rx="1"/>
<text x="739.4583333333334" y="69.39943342776198" font-family="sans-serif" font-size="9" fill="#ffd700" opacity="0.8">🕐 盘中</text>
<line x1="497.7916666666667" y1="203.18665407617246" x2="497.7916666666667" y2="168.18665407617246" stroke="#4ecdc4" stroke-width="0.8" stroke-dasharray="2,2" opacity="0.7"/>
<rect x="461.7916666666667" y="159.18665407617246" width="72" height="16" fill="#4ecdc4" opacity="0.85" rx="3"/>
<text x="497.7916666666667" y="171.18665407617246" text-anchor="middle" font-family="sans-serif" font-size="9" fill="#000000" font-weight="bold">B1乖离买入</text>
<polygon points="497.7916666666667,209.18665407617246 493.7916666666667,203.18665407617246 501.7916666666667,203.18665407617246" fill="#4ecdc4" opacity="0.9"/>
<line x1="597.5416666666666" y1="194.3862134088763" x2="597.5416666666666" y2="144.3862134088763" stroke="#4ecdc4" stroke-width="0.8" stroke-dasharray="2,2" opacity="0.7"/>
<rect x="561.5416666666666" y="135.3862134088763" width="72" height="16" fill="#4ecdc4" opacity="0.85" rx="3"/>
<text x="597.5416666666666" y="147.3862134088763" text-anchor="middle" font-family="sans-serif" font-size="9" fill="#000000" font-weight="bold">B2乖离买入</text>
<polygon points="597.5416666666666,200.3862134088763 593.5416666666666,194.3862134088763 601.5416666666666,194.3862134088763" fill="#4ecdc4" opacity="0.9"/>
<line x1="641.875" y1="156.7733711048158" x2="641.875" y2="91.7733711048158" stroke="#4ecdc4" stroke-width="0.8" stroke-dasharray="2,2" opacity="0.7"/>
<rect x="605.875" y="82.7733711048158" width="72" height="16" fill="#4ecdc4" opacity="0.85" rx="3"/>
<text x="641.875" y="94.7733711048158" text-anchor="middle" font-family="sans-serif" font-size="9" fill="#000000" font-weight="bold">B3乖离买入</text>
<polygon points="641.875,162.7733711048158 637.875,156.7733711048158 645.875,156.7733711048158" fill="#4ecdc4" opacity="0.9"/>
<line x1="686.2083333333334" y1="132.18035882908399" x2="686.2083333333334" y2="52.180358829083985" stroke="#4ecdc4" stroke-width="0.8" stroke-dasharray="2,2" opacity="0.7"/>
<rect x="650.2083333333334" y="43.180358829083985" width="72" height="16" fill="#4ecdc4" opacity="0.85" rx="3"/>
<text x="686.2083333333334" y="55.180358829083985" text-anchor="middle" font-family="sans-serif" font-size="9" fill="#000000" font-weight="bold">B4乖离买入</text>
<polygon points="686.2083333333334,138.18035882908399 682.2083333333334,132.18035882908399 690.2083333333334,132.18035882908399" fill="#4ecdc4" opacity="0.9"/>
<line x1="719.4583333333334" y1="94.08530059804846" x2="719.4583333333334" y2="-0.9146994019515375" stroke="#4ecdc4" stroke-width="0.8" stroke-dasharray="2,2" opacity="0.7"/>
<rect x="683.4583333333334" y="-9.914699401951538" width="72" height="16" fill="#4ecdc4" opacity="0.85" rx="3"/>
<text x="719.4583333333334" y="2.0853005980484625" text-anchor="middle" font-family="sans-serif" font-size="9" fill="#000000" font-weight="bold">B5乖离买入</text>
<polygon points="719.4583333333334,100.08530059804846 715.4583333333334,94.08530059804846 723.4583333333334,94.08530059804846" fill="#4ecdc4" opacity="0.9"/>
<line x1="386.95833333333337" y1="337.8454516839786" x2="386.95833333333337" y2="356.8454516839786" stroke="#e94560" stroke-width="0.8" stroke-dasharray="2,2" opacity="0.7"/>
<rect x="352.95833333333337" y="363.8454516839786" width="68" height="16" fill="#e94560" opacity="0.85" rx="3"/>
<text x="386.95833333333337" y="375.8454516839786" text-anchor="middle" font-family="sans-serif" font-size="9" fill="#ffffff" font-weight="bold">W1警戒⚠️</text>
<polygon points="386.95833333333337,331.8454516839786 382.95833333333337,337.8454516839786 390.95833333333337,337.8454516839786" fill="#e94560" opacity="0.9"/>
<text x="375.0" y="435" text-anchor="middle" font-family="sans-serif" font-size="10" fill="#aaaaaa">✅ BIAS5=1.55%，乖离率买入区，趋势健康可持股</text>
<rect x="60" y="443" width="665" height="55" fill="#111122" opacity="0.5" rx="2"/>
<rect x="60" y="443" width="665" height="19.773346959733146" fill="#e94560" opacity="0.18" rx="2"/>
<rect x="60" y="462.77334695973315" width="665" height="7.294989780200126" fill="#ffd700" opacity="0.12"/>
<rect x="60" y="470.0683367399333" width="665" height="29.931663260066728" fill="#4ecdc4" opacity="0.14"/>
<text x="670" y="455.88667347986654" text-anchor="end" font-family="sans-serif" font-size="9" fill="#e94560" font-weight="bold">⚠️ 警戒区</text>
<text x="670" y="469.4208418498332" text-anchor="end" font-family="sans-serif" font-size="9" fill="#ffd700">持有区</text>
<text x="670" y="488.03416836996666" text-anchor="end" font-family="sans-serif" font-size="9" fill="#4ecdc4">买入区</text>
<line x1="60" y1="472.5" x2="725" y2="472.5" stroke="#888888" stroke-width="0.5" stroke-dasharray="3,2" opacity="0.5"/>
<text x="56" y="475.5" text-anchor="end" font-family="sans-serif" font-size="7" fill="#888888">0%</text>
<line x1="60" y1="470.0683367399333" x2="725" y2="470.0683367399333" stroke="#4ecdc4" stroke-width="0.5" stroke-dasharray="3,2" opacity="0.5"/>
<text x="56" y="473.0683367399333" text-anchor="end" font-family="sans-serif" font-size="7" fill="#4ecdc4">2%</text>
<line x1="60" y1="462.77334695973315" x2="725" y2="462.77334695973315" stroke="#e94560" stroke-width="0.5" stroke-dasharray="3,2" opacity="0.5"/>
<text x="56" y="465.77334695973315" text-anchor="end" font-family="sans-serif" font-size="7" fill="#e94560">8%</text>
<text x="60" y="445" font-family="sans-serif" font-size="8" fill="#888888">BIAS5</text>
<polyline points="65.54166666666667,472.5 76.625,474.34147160928944 87.70833333333334,471.4761739557314 98.79166666666667,480.2391290684366 109.87500000000001,477.4999972844544 120.95833333333334,474.350799321242 132.04166666666666,466.9560433587979 143.125,470.11112231974744 154.20833333333334,467.73169565579195 165.29166666666666,469.8577315795124 176.375,474.5437875662565 187.45833333333334,478.0600599758814 198.54166666666666,476.8724107233074 209.625,481.12588681681484 220.70833333333334,476.1202295935773 231.79166666666666,477.2978397518132 242.875,478.9735124635335 253.95833333333334,477.1398065033897 265.0416666666667,475.57794734630124 276.12500000000006,472.2126701609007 287.20833333333337,474.8858823111878 298.2916666666667,476.31730965838807 309.37500000000006,477.28315551735585 320.45833333333337,479.8247070686573 331.5416666666667,474.47154223036586 342.62500000000006,478.00904490426836 353.70833333333337,471.28951513370833 364.7916666666667,470.77440562345186 375.87500000000006,467.11811297462395 386.95833333333337,461.0248268809892 398.0416666666667,457.0376426975605 409.12500000000006,454.49959959760656 420.20833333333337,452.9166666666667 431.2916666666667,458.3084596871387 442.37500000000006,464.55847041215844 453.45833333333337,471.02772538265333 464.5416666666667,466.096857174396 475.62500000000006,467.44059323406776 486.70833333333337,469.95692643120316 497.7916666666667,471.2088051354528 508.87500000000006,475.1299171924017 519.9583333333334,475.31261954357996 531.0416666666666,476.6577937668529 542.125,475.8054648980722 553.2083333333334,472.6406838389487 564.2916666666666,464.7507237836528 575.375,464.8353968916816 586.4583333333334,469.56626337748963 597.5416666666666,471.3221068771242 608.625,473.0516385136348 619.7083333333334,465.0353927268742 630.7916666666666,467.0444462609248 641.875,470.4272815020515 652.9583333333334,468.9149313686589 664.0416666666666,464.1121702203848 675.125,469.1509749698477 686.2083333333334,474.0921500930624 697.2916666666666,468.8660554066471 708.375,463.7381722467297 719.4583333333334,470.6128568916092" fill="none" stroke="#4ecdc4" stroke-width="1.5" opacity="0.9"/>
<circle cx="719.4583333333334" cy="470.6128568916092" r="3" fill="#4ecdc4" opacity="1"/>
<text x="724.4583333333334" y="473.6128568916092" font-family="sans-serif" font-size="9" fill="#4ecdc4" font-weight="bold">BIAS5=1.6%</text>
<text x="65.54166666666667" y="489" text-anchor="middle" font-family="sans-serif" font-size="8" fill="#666666" transform="rotate(-45,65.54166666666667,489)">02/26</text>
<text x="120.95833333333334" y="489" text-anchor="middle" font-family="sans-serif" font-size="8" fill="#666666" transform="rotate(-45,120.95833333333334,489)">03/05</text>
<text x="176.375" y="489" text-anchor="middle" font-family="sans-serif" font-size="8" fill="#666666" transform="rotate(-45,176.375,489)">03/12</text>
<text x="231.79166666666666" y="489" text-anchor="middle" font-family="sans-serif" font-size="8" fill="#666666" transform="rotate(-45,231.79166666666666,489)">03/19</text>
<text x="287.20833333333337" y="489" text-anchor="middle" font-family="sans-serif" font-size="8" fill="#666666" transform="rotate(-45,287.20833333333337,489)">03/26</text>
<text x="342.62500000000006" y="489" text-anchor="middle" font-family="sans-serif" font-size="8" fill="#666666" transform="rotate(-45,342.62500000000006,489)">04/02</text>
<text x="398.0416666666667" y="489" text-anchor="middle" font-family="sans-serif" font-size="8" fill="#666666" transform="rotate(-45,398.0416666666667,489)">04/10</text>
<text x="453.45833333333337" y="489" text-anchor="middle" font-family="sans-serif" font-size="8" fill="#666666" transform="rotate(-45,453.45833333333337,489)">04/17</text>
<text x="508.87500000000006" y="489" text-anchor="middle" font-family="sans-serif" font-size="8" fill="#666666" transform="rotate(-45,508.87500000000006,489)">04/24</text>
<text x="564.2916666666666" y="489" text-anchor="middle" font-family="sans-serif" font-size="8" fill="#666666" transform="rotate(-45,564.2916666666666,489)">05/06</text>
<text x="619.7083333333334" y="489" text-anchor="middle" font-family="sans-serif" font-size="8" fill="#666666" transform="rotate(-45,619.7083333333334,489)">05/13</text>
<text x="675.125" y="489" text-anchor="middle" font-family="sans-serif" font-size="8" fill="#666666" transform="rotate(-45,675.125,489)">05/20</text>
<text x="719.4583333333334" y="489" text-anchor="middle" font-family="sans-serif" font-size="8" fill="#666666" transform="rotate(-45,719.4583333333334,489)">05/26</text>
<rect x="60" y="484" width="8" height="8" fill="#4ecdc4" opacity="0.8" rx="1"/>
<text x="71" y="491" font-family="sans-serif" font-size="9" fill="#888888">买入区(BIAS&lt;2%)</text>
<rect x="230" y="484" width="8" height="8" fill="#ffd700" opacity="0.8" rx="1"/>
<text x="241" y="491" font-family="sans-serif" font-size="9" fill="#888888">持有区(2-8%)</text>
<rect x="400" y="484" width="8" height="8" fill="#e94560" opacity="0.8" rx="1"/>
<text x="411" y="491" font-family="sans-serif" font-size="9" fill="#888888">警戒区(&gt;8%)</text>
<rect x="570" y="484" width="8" height="8" fill="#ffd700" opacity="0.8" rx="1"/>
<text x="581" y="491" font-family="sans-serif" font-size="9" fill="#888888">EMA5</text>
<rect x="60" y="497" width="8" height="8" fill="#ff6b6b" opacity="0.8" rx="1"/>
<text x="71" y="504" font-family="sans-serif" font-size="9" fill="#888888">EMA10</text>
<rect x="230" y="497" width="8" height="8" fill="#4ecdc4" opacity="0.8" rx="1"/>
<text x="241" y="504" font-family="sans-serif" font-size="9" fill="#888888">EMA20</text>
<rect x="400" y="497" width="8" height="8" fill="#4ecdc4" opacity="0.8" rx="1"/>
<text x="411" y="504" font-family="sans-serif" font-size="9" fill="#888888">B乖离买入</text>
<rect x="570" y="497" width="8" height="8" fill="#e94560" opacity="0.8" rx="1"/>
<text x="581" y="504" font-family="sans-serif" font-size="9" fill="#888888">W警戒⚠️</text>
</svg>