<svg xmlns="http://www.w3.org/2000/svg" width="800" height="400" viewBox="0 0 800 400">
<rect width="800" height="400" fill="#1a1a2e"/>
<text x="400.0" y="20" text-anchor="middle" font-family="sans-serif" font-size="14" fill="#ffffff" font-weight="bold">蓝思科技(300433) K线图</text>
<line x1="60" y1="30.0" x2="780" y2="30.0" stroke="#2a2a4e" stroke-width="0.5"/>
<text x="55" y="33.0" text-anchor="end" font-family="sans-serif" font-size="8" fill="#666666">41.00</text>
<line x1="60" y1="84.00000000000006" x2="780" y2="84.00000000000006" stroke="#2a2a4e" stroke-width="0.5"/>
<text x="55" y="87.00000000000006" text-anchor="end" font-family="sans-serif" font-size="8" fill="#666666">37.79</text>
<line x1="60" y1="138.0" x2="780" y2="138.0" stroke="#2a2a4e" stroke-width="0.5"/>
<text x="55" y="141.0" text-anchor="end" font-family="sans-serif" font-size="8" fill="#666666">34.58</text>
<line x1="60" y1="192.0" x2="780" y2="192.0" stroke="#2a2a4e" stroke-width="0.5"/>
<text x="55" y="195.0" text-anchor="end" font-family="sans-serif" font-size="8" fill="#666666">31.36</text>
<line x1="60" y1="246.0" x2="780" y2="246.0" stroke="#2a2a4e" stroke-width="0.5"/>
<text x="55" y="249.0" text-anchor="end" font-family="sans-serif" font-size="8" fill="#666666">28.15</text>
<line x1="60" y1="300.0" x2="780" y2="300.0" stroke="#2a2a4e" stroke-width="0.5"/>
<text x="55" y="303.0" text-anchor="end" font-family="sans-serif" font-size="8" fill="#666666">24.94</text>
<line x1="60" y1="300" x2="780" y2="300" stroke="#2a2a4e" stroke-width="0.5"/>
<line x1="60" y1="345" x2="780" y2="345" stroke="#2a2a4e" stroke-width="0.5"/>
<rect x="61.8" y="336.62267601511337" width="7.199999999999999" height="8.37732398488663" fill="#44aa44" opacity="0.3"/>
<rect x="73.8" y="332.3832005445432" width="7.199999999999999" height="12.616799455456828" fill="#44aa44" opacity="0.3"/>
<rect x="85.8" y="333.97350318131294" width="7.199999999999999" height="11.026496818687065" fill="#44aa44" opacity="0.3"/>
<rect x="97.8" y="336.47167422511075" width="7.199999999999999" height="8.528325774889254" fill="#44aa44" opacity="0.3"/>
<rect x="109.8" y="338.35576759825227" width="7.199999999999999" height="6.644232401747729" fill="#44aa44" opacity="0.3"/>
<rect x="121.8" y="339.2827574048283" width="7.199999999999999" height="5.717242595171683" fill="#ff4444" opacity="0.3"/>
<rect x="133.8" y="336.3706618353874" width="7.199999999999999" height="8.62933816461259" fill="#44aa44" opacity="0.3"/>
<rect x="145.8" y="336.8919958296384" width="7.199999999999999" height="8.108004170361596" fill="#ff4444" opacity="0.3"/>
<rect x="157.8" y="337.393593857811" width="7.199999999999999" height="7.606406142188973" fill="#ff4444" opacity="0.3"/>
<rect x="169.8" y="338.69792751405043" width="7.199999999999999" height="6.302072485949566" fill="#44aa44" opacity="0.3"/>
<rect x="181.8" y="339.96751022648016" width="7.199999999999999" height="5.032489773519842" fill="#44aa44" opacity="0.3"/>
<rect x="193.8" y="339.4365247442177" width="7.199999999999999" height="5.5634752557822935" fill="#44aa44" opacity="0.3"/>
<rect x="205.8" y="338.83276899778787" width="7.199999999999999" height="6.167231002212134" fill="#44aa44" opacity="0.3"/>
<rect x="217.8" y="339.5145886609992" width="7.199999999999999" height="5.485411339000791" fill="#44aa44" opacity="0.3"/>
<rect x="229.8" y="337.8658603015783" width="7.199999999999999" height="7.134139698421677" fill="#44aa44" opacity="0.3"/>
<rect x="241.8" y="338.97779273154026" width="7.199999999999999" height="6.022207268459738" fill="#44aa44" opacity="0.3"/>
<rect x="253.8" y="335.38911528181757" width="7.199999999999999" height="9.610884718182433" fill="#44aa44" opacity="0.3"/>
<rect x="265.8" y="338.5518981259756" width="7.199999999999999" height="6.448101874024417" fill="#44aa44" opacity="0.3"/>
<rect x="277.8" y="334.3564200320133" width="7.199999999999999" height="10.643579967986682" fill="#ff4444" opacity="0.3"/>
<rect x="289.8" y="336.47277765138125" width="7.199999999999999" height="8.52722234861875" fill="#44aa44" opacity="0.3"/>
<rect x="301.8" y="339.083651816401" width="7.199999999999999" height="5.916348183598984" fill="#ff4444" opacity="0.3"/>
<rect x="313.8" y="338.1215060108021" width="7.199999999999999" height="6.878493989197921" fill="#ff4444" opacity="0.3"/>
<rect x="325.8" y="338.3091722813113" width="7.199999999999999" height="6.690827718688695" fill="#44aa44" opacity="0.3"/>
<rect x="337.8" y="336.8643124009283" width="7.199999999999999" height="8.135687599071673" fill="#44aa44" opacity="0.3"/>
<rect x="349.8" y="337.6324088245546" width="7.199999999999999" height="7.367591175445398" fill="#44aa44" opacity="0.3"/>
<rect x="361.8" y="336.793762956723" width="7.199999999999999" height="8.206237043276985" fill="#ff4444" opacity="0.3"/>
<rect x="373.8" y="335.47093643488716" width="7.199999999999999" height="9.529063565112835" fill="#44aa44" opacity="0.3"/>
<rect x="385.8" y="329.8271764423613" width="7.199999999999999" height="15.172823557638708" fill="#ff4444" opacity="0.3"/>
<rect x="397.8" y="334.14795627141865" width="7.199999999999999" height="10.85204372858135" fill="#ff4444" opacity="0.3"/>
<rect x="409.8" y="332.1670686697397" width="7.199999999999999" height="12.832931330260294" fill="#ff4444" opacity="0.3"/>
<rect x="421.8" y="334.34218722986617" width="7.199999999999999" height="10.65781277013383" fill="#44aa44" opacity="0.3"/>
<rect x="433.8" y="334.15281693397725" width="7.199999999999999" height="10.847183066022751" fill="#ff4444" opacity="0.3"/>
<rect x="445.8" y="333.72796988499846" width="7.199999999999999" height="11.272030115001542" fill="#44aa44" opacity="0.3"/>
<rect x="457.8" y="310.7983250268562" width="7.199999999999999" height="34.20167497314378" fill="#44aa44" opacity="0.3"/>
<rect x="469.8" y="325.34029604104313" width="7.199999999999999" height="19.659703958956868" fill="#ff4444" opacity="0.3"/>
<rect x="481.8" y="323.05255816422147" width="7.199999999999999" height="21.947441835778534" fill="#ff4444" opacity="0.3"/>
<rect x="493.8" y="332.74766643191055" width="7.199999999999999" height="12.252333568089455" fill="#44aa44" opacity="0.3"/>
<rect x="505.8" y="333.2207848883677" width="7.199999999999999" height="11.779215111632311" fill="#ff4444" opacity="0.3"/>
<rect x="517.8" y="334.8139927487357" width="7.199999999999999" height="10.1860072512643" fill="#44aa44" opacity="0.3"/>
<rect x="529.8" y="336.7601713088684" width="7.199999999999999" height="8.239828691131606" fill="#44aa44" opacity="0.3"/>
<rect x="541.8" y="335.1195719885542" width="7.199999999999999" height="9.880428011445815" fill="#ff4444" opacity="0.3"/>
<rect x="553.8" y="334.855531859222" width="7.199999999999999" height="10.144468140777974" fill="#44aa44" opacity="0.3"/>
<rect x="565.8" y="337.6248384822938" width="7.199999999999999" height="7.3751615177062035" fill="#ff4444" opacity="0.3"/>
<rect x="577.8" y="338.0302009787748" width="7.199999999999999" height="6.969799021225185" fill="#44aa44" opacity="0.3"/>
<rect x="589.8" y="332.3914692578613" width="7.199999999999999" height="12.608530742138726" fill="#ff4444" opacity="0.3"/>
<rect x="601.8" y="331.43241025233544" width="7.199999999999999" height="13.567589747664556" fill="#ff4444" opacity="0.3"/>
<rect x="613.8" y="327.8094148488585" width="7.199999999999999" height="17.190585151141477" fill="#ff4444" opacity="0.3"/>
<rect x="625.8" y="318.88576915329185" width="7.199999999999999" height="26.114230846708153" fill="#ff4444" opacity="0.3"/>
<rect x="637.8" y="326.94407723921813" width="7.199999999999999" height="18.05592276078187" fill="#ff4444" opacity="0.3"/>
<rect x="649.8" y="319.7172078318124" width="7.199999999999999" height="25.282792168187598" fill="#ff4444" opacity="0.3"/>
<rect x="661.8" y="320.3144407925673" width="7.199999999999999" height="24.685559207432675" fill="#44aa44" opacity="0.3"/>
<rect x="673.8" y="308.3214962025686" width="7.199999999999999" height="36.678503797431404" fill="#ff4444" opacity="0.3"/>
<rect x="685.8" y="300.0" width="7.199999999999999" height="45.0" fill="#ff4444" opacity="0.3"/>
<rect x="697.8" y="311.48149952991866" width="7.199999999999999" height="33.518500470081335" fill="#44aa44" opacity="0.3"/>
<rect x="709.8" y="318.3314441102955" width="7.199999999999999" height="26.66855588970452" fill="#44aa44" opacity="0.3"/>
<rect x="721.8" y="311.9824131544552" width="7.199999999999999" height="33.01758684554483" fill="#44aa44" opacity="0.3"/>
<rect x="733.8" y="313.9800476940874" width="7.199999999999999" height="31.019952305912625" fill="#ff4444" opacity="0.3"/>
<rect x="745.8" y="314.2793276269693" width="7.199999999999999" height="30.72067237303071" fill="#ff4444" opacity="0.3"/>
<rect x="757.8" y="323.04204069609904" width="7.199999999999999" height="21.957959303900964" fill="#44aa44" opacity="0.3"/>
<rect x="769.8" y="314.77595325321414" width="7.199999999999999" height="30.22404674678586" fill="#ff4444" opacity="0.3"/>
<polyline points="66.0,128.01 78.0,134.85 90.0,147.48 102.0,158.42 114.0,163.86 126.0,167.38 138.0,175.10 150.0,174.03 162.0,173.71 174.0,176.13 186.0,180.60 198.0,185.38 210.0,192.09 222.0,196.17 234.0,203.94 246.0,211.25 258.0,224.35 270.0,232.42 282.0,229.95 294.0,230.83 306.0,232.82 318.0,236.38 330.0,240.55 342.0,239.74 354.0,245.60 366.0,247.03 378.0,245.91 390.0,235.75 402.0,230.66 414.0,224.69 426.0,223.06 438.0,219.51 450.0,220.28 462.0,242.93 474.0,256.07 486.0,258.05 498.0,261.38 510.0,261.31 522.0,264.90 534.0,270.89 546.0,270.67 558.0,276.64 570.0,279.49 582.0,282.13 594.0,278.67 606.0,270.76 618.0,260.28 630.0,240.57 642.0,229.33 654.0,209.46 666.0,198.34 678.0,180.28 690.0,143.07 702.0,122.42 714.0,117.89 726.0,113.76 738.0,100.41 750.0,85.23 762.0,80.94 774.0,68.00" fill="none" stroke="#ffd700" stroke-width="0.8" opacity="0.7"/>
<polyline points="66.0,128.01 78.0,131.74 90.0,139.20 102.0,146.67 114.0,151.77 126.0,155.89 138.0,162.19 150.0,163.96 162.0,165.61 174.0,168.41 186.0,172.25 198.0,176.37 210.0,181.67 222.0,185.79 234.0,191.92 246.0,198.09 258.0,207.63 270.0,215.07 282.0,216.88 294.0,219.74 306.0,222.84 318.0,226.59 330.0,230.65 342.0,232.01 354.0,236.61 366.0,239.02 378.0,239.87 390.0,235.43 402.0,232.71 414.0,229.08 426.0,227.39 438.0,224.67 450.0,224.15 462.0,235.80 474.0,244.27 486.0,247.49 498.0,251.23 510.0,253.04 522.0,256.50 534.0,261.29 546.0,262.92 558.0,267.58 570.0,270.79 582.0,273.81 594.0,273.43 606.0,270.07 618.0,264.48 630.0,252.96 642.0,244.58 654.0,230.97 666.0,220.99 678.0,207.02 690.0,181.87 702.0,163.55 714.0,153.60 726.0,144.85 738.0,131.92 750.0,117.91 762.0,109.63 774.0,97.35" fill="none" stroke="#ff6b6b" stroke-width="0.8" opacity="0.7"/>
<polyline points="66.0,128.01 78.0,129.97 90.0,134.04 102.0,138.45 114.0,141.90 126.0,145.00 138.0,149.34 150.0,151.49 162.0,153.54 174.0,156.15 186.0,159.33 198.0,162.72 210.0,166.80 222.0,170.37 234.0,175.05 246.0,179.89 258.0,186.62 270.0,192.52 282.0,195.61 294.0,199.14 306.0,202.72 318.0,206.61 330.0,210.63 342.0,213.25 354.0,217.45 366.0,220.54 378.0,222.74 390.0,222.05 402.0,221.90 414.0,221.03 426.0,220.91 438.0,220.10 450.0,220.26 462.0,226.74 474.0,232.03 486.0,234.89 498.0,238.05 510.0,240.25 522.0,243.28 534.0,247.05 546.0,249.26 558.0,253.00 570.0,256.07 582.0,259.05 594.0,260.26 606.0,259.76 618.0,257.81 630.0,252.41 642.0,248.07 654.0,240.61 666.0,234.47 678.0,225.86 690.0,210.89 702.0,198.53 714.0,189.99 726.0,181.94 738.0,171.64 750.0,160.52 762.0,152.12 774.0,141.64" fill="none" stroke="#4ecdc4" stroke-width="0.8" opacity="0.7"/>
<line x1="66.0" y1="123.81070983810709" x2="66.0" y2="137.93275217932757" stroke="#44aa44" stroke-width="0.5" opacity="0.6"/>
<rect x="63.0" y="126.16438356164383" width="6.0" height="1.8493150684931265" fill="#44aa44" opacity="0.85"/>
<line x1="78.0" y1="134.23412204234128" x2="78.0" y2="154.2403486924035" stroke="#44aa44" stroke-width="0.5" opacity="0.6"/>
<rect x="75.0" y="145.4981320049813" width="6.0" height="3.0261519302615056" fill="#44aa44" opacity="0.85"/>
<line x1="90.0" y1="143.98505603985058" x2="90.0" y2="174.91905354919052" stroke="#44aa44" stroke-width="0.5" opacity="0.6"/>
<rect x="87.0" y="148.86052303860524" width="6.0" height="23.872976338729785" fill="#44aa44" opacity="0.85"/>
<line x1="102.0" y1="168.6986301369863" x2="102.0" y2="187.0236612702366" stroke="#44aa44" stroke-width="0.5" opacity="0.6"/>
<rect x="99.0" y="180.13075965130759" width="6.0" height="0.5" fill="#44aa44" opacity="0.85"/>
<line x1="114.0" y1="165.33623910336237" x2="114.0" y2="178.78580323785806" stroke="#44aa44" stroke-width="0.5" opacity="0.6"/>
<rect x="111.0" y="169.53922789539223" width="6.0" height="5.21170610211712" fill="#44aa44" opacity="0.85"/>
<line x1="126.0" y1="171.55666251556664" x2="126.0" y2="182.14819427148197" stroke="#ff4444" stroke-width="0.5" opacity="0.6"/>
<rect x="123.0" y="174.414694894147" width="6.0" height="3.1942714819426783" fill="#ff4444" opacity="0.85"/>
<line x1="138.0" y1="186.35118306351185" x2="138.0" y2="204.84433374844332" stroke="#44aa44" stroke-width="0.5" opacity="0.6"/>
<rect x="135.0" y="186.35118306351185" width="6.0" height="4.202988792029885" fill="#44aa44" opacity="0.85"/>
<line x1="150.0" y1="166.681195516812" x2="150.0" y2="181.30759651307596" stroke="#ff4444" stroke-width="0.5" opacity="0.6"/>
<rect x="147.0" y="171.892901618929" width="6.0" height="9.246575342465803" fill="#ff4444" opacity="0.85"/>
<line x1="162.0" y1="159.62017434620176" x2="162.0" y2="175.25529265255292" stroke="#ff4444" stroke-width="0.5" opacity="0.6"/>
<rect x="159.0" y="173.06973848069737" width="6.0" height="0.8405977584060338" fill="#ff4444" opacity="0.85"/>
<line x1="174.0" y1="168.02615193026153" x2="174.0" y2="186.01494396014945" stroke="#44aa44" stroke-width="0.5" opacity="0.6"/>
<rect x="171.0" y="175.75965130759656" width="6.0" height="5.211706102117006" fill="#44aa44" opacity="0.85"/>
<line x1="186.0" y1="180.8032378580324" x2="186.0" y2="190.8904109589041" stroke="#44aa44" stroke-width="0.5" opacity="0.6"/>
<rect x="183.0" y="184.66998754669987" width="6.0" height="4.875466998754661" fill="#44aa44" opacity="0.85"/>
<line x1="198.0" y1="187.52801992528023" x2="198.0" y2="204.3399750933998" stroke="#44aa44" stroke-width="0.5" opacity="0.6"/>
<rect x="195.0" y="189.71357409713576" width="6.0" height="5.211706102117034" fill="#44aa44" opacity="0.85"/>
<line x1="210.0" y1="185.17434620174348" x2="210.0" y2="206.18929016189293" stroke="#44aa44" stroke-width="0.5" opacity="0.6"/>
<rect x="207.0" y="189.71357409713576" width="6.0" height="15.80323785803239" fill="#44aa44" opacity="0.85"/>
<line x1="222.0" y1="200.30510585305106" x2="222.0" y2="211.90535491905356" stroke="#44aa44" stroke-width="0.5" opacity="0.6"/>
<rect x="219.0" y="201.8181818181818" width="6.0" height="2.5217932752179877" fill="#44aa44" opacity="0.85"/>
<line x1="234.0" y1="211.40099626400996" x2="234.0" y2="222.6650062266501" stroke="#44aa44" stroke-width="0.5" opacity="0.6"/>
<rect x="231.0" y="212.91407222914074" width="6.0" height="6.5566625155666145" fill="#44aa44" opacity="0.85"/>
<line x1="246.0" y1="211.90535491905356" x2="246.0" y2="226.36363636363637" stroke="#44aa44" stroke-width="0.5" opacity="0.6"/>
<rect x="243.0" y="216.61270236612705" width="6.0" height="9.246575342465718" fill="#44aa44" opacity="0.85"/>
<line x1="258.0" y1="232.079701120797" x2="258.0" y2="255.280199252802" stroke="#44aa44" stroke-width="0.5" opacity="0.6"/>
<rect x="255.0" y="235.10585305105855" width="6.0" height="15.466998754670016" fill="#44aa44" opacity="0.85"/>
<line x1="270.0" y1="240.14943960149444" x2="270.0" y2="260.9962640099626" stroke="#44aa44" stroke-width="0.5" opacity="0.6"/>
<rect x="267.0" y="242.1668742216688" width="6.0" height="6.388542963885385" fill="#44aa44" opacity="0.85"/>
<line x1="282.0" y1="218.29389788293898" x2="282.0" y2="243.51183063511832" stroke="#ff4444" stroke-width="0.5" opacity="0.6"/>
<rect x="279.0" y="225.01867995018682" width="6.0" height="18.493150684931493" fill="#ff4444" opacity="0.85"/>
<line x1="294.0" y1="213.2503113325031" x2="294.0" y2="234.43337484433377" stroke="#44aa44" stroke-width="0.5" opacity="0.6"/>
<rect x="291.0" y="224.68244084682442" width="6.0" height="7.901618929016195" fill="#44aa44" opacity="0.85"/>
<line x1="306.0" y1="229.89414694894148" x2="306.0" y2="243.8480697384807" stroke="#ff4444" stroke-width="0.5" opacity="0.6"/>
<rect x="303.0" y="236.7870485678705" width="6.0" height="3.1942714819427067" fill="#ff4444" opacity="0.85"/>
<line x1="318.0" y1="242.6712328767123" x2="318.0" y2="254.1033623910336" stroke="#ff4444" stroke-width="0.5" opacity="0.6"/>
<rect x="315.0" y="243.51183063511832" width="6.0" height="2.353673723536758" fill="#ff4444" opacity="0.85"/>
<line x1="330.0" y1="233.2565379825654" x2="330.0" y2="249.0597758405978" stroke="#44aa44" stroke-width="0.5" opacity="0.6"/>
<rect x="327.0" y="243.34371108343714" width="6.0" height="5.5479452054794365" fill="#44aa44" opacity="0.85"/>
<line x1="342.0" y1="227.37235367372352" x2="342.0" y2="242.33499377334994" stroke="#44aa44" stroke-width="0.5" opacity="0.6"/>
<rect x="339.0" y="236.11457036114575" width="6.0" height="2.017434620174299" fill="#44aa44" opacity="0.85"/>
<line x1="354.0" y1="240.31755915317564" x2="354.0" y2="263.34993773349936" stroke="#44aa44" stroke-width="0.5" opacity="0.6"/>
<rect x="351.0" y="241.8306351183064" width="6.0" height="15.466998754669959" fill="#44aa44" opacity="0.85"/>
<line x1="366.0" y1="237.6276463262765" x2="366.0" y2="262.8455790784558" stroke="#ff4444" stroke-width="0.5" opacity="0.6"/>
<rect x="363.0" y="249.90037359900373" width="6.0" height="3.6986301369863384" fill="#ff4444" opacity="0.85"/>
<line x1="378.0" y1="228.5491905354919" x2="378.0" y2="247.54669987546703" stroke="#44aa44" stroke-width="0.5" opacity="0.6"/>
<rect x="375.0" y="238.46824408468242" width="6.0" height="5.21170610211712" fill="#44aa44" opacity="0.85"/>
<line x1="390.0" y1="215.43586550435867" x2="390.0" y2="235.10585305105855" stroke="#ff4444" stroke-width="0.5" opacity="0.6"/>
<rect x="387.0" y="215.43586550435867" width="6.0" height="16.811955168119567" fill="#ff4444" opacity="0.85"/>
<line x1="402.0" y1="211.73723536737236" x2="402.0" y2="231.40722291407226" stroke="#ff4444" stroke-width="0.5" opacity="0.6"/>
<rect x="399.0" y="220.4794520547945" width="6.0" height="6.0523038605230965" fill="#ff4444" opacity="0.85"/>
<line x1="414.0" y1="201.65006226650064" x2="414.0" y2="217.78953922789543" stroke="#ff4444" stroke-width="0.5" opacity="0.6"/>
<rect x="411.0" y="212.74595267745957" width="6.0" height="1.0087173100871496" fill="#ff4444" opacity="0.85"/>
<line x1="426.0" y1="212.74595267745957" x2="426.0" y2="224.17808219178085" stroke="#44aa44" stroke-width="0.5" opacity="0.6"/>
<rect x="423.0" y="219.13449564134496" width="6.0" height="0.6724782067248043" fill="#44aa44" opacity="0.85"/>
<line x1="438.0" y1="206.5255292652553" x2="438.0" y2="218.96637608966373" stroke="#ff4444" stroke-width="0.5" opacity="0.6"/>
<rect x="435.0" y="212.40971357409717" width="6.0" height="1.3449564134495517" fill="#ff4444" opacity="0.85"/>
<line x1="450.0" y1="206.18929016189293" x2="450.0" y2="225.69115815691163" stroke="#44aa44" stroke-width="0.5" opacity="0.6"/>
<rect x="447.0" y="208.2067247820673" width="6.0" height="13.617683686176804" fill="#44aa44" opacity="0.85"/>
<line x1="462.0" y1="262.3412204234122" x2="462.0" y2="300.0" stroke="#44aa44" stroke-width="0.5" opacity="0.6"/>
<rect x="459.0" y="265.535491905355" width="6.0" height="22.69613947696132" fill="#44aa44" opacity="0.85"/>
<line x1="474.0" y1="273.77334993773354" x2="474.0" y2="293.7795765877958" stroke="#ff4444" stroke-width="0.5" opacity="0.6"/>
<rect x="471.0" y="282.34744707347454" width="6.0" height="8.910336239103287" fill="#ff4444" opacity="0.85"/>
<line x1="486.0" y1="251.74968866749694" x2="486.0" y2="267.38480697384813" stroke="#ff4444" stroke-width="0.5" opacity="0.6"/>
<rect x="483.0" y="262.00498132004986" width="6.0" height="5.379825653798264" fill="#ff4444" opacity="0.85"/>
<line x1="498.0" y1="263.68617683686176" x2="498.0" y2="276.79950186799505" stroke="#44aa44" stroke-width="0.5" opacity="0.6"/>
<rect x="495.0" y="264.3586550435866" width="6.0" height="3.698630136986253" fill="#44aa44" opacity="0.85"/>
<line x1="510.0" y1="259.6513075965131" x2="510.0" y2="272.59651307596516" stroke="#ff4444" stroke-width="0.5" opacity="0.6"/>
<rect x="507.0" y="261.16438356164383" width="6.0" height="10.927770859277757" fill="#ff4444" opacity="0.85"/>
<line x1="522.0" y1="259.98754669987545" x2="522.0" y2="275.4545454545455" stroke="#44aa44" stroke-width="0.5" opacity="0.6"/>
<rect x="519.0" y="262.00498132004986" width="6.0" height="10.087173100871723" fill="#44aa44" opacity="0.85"/>
<line x1="534.0" y1="271.2515566625156" x2="534.0" y2="288.90410958904107" stroke="#44aa44" stroke-width="0.5" opacity="0.6"/>
<rect x="531.0" y="274.7820672478207" width="6.0" height="8.069738480697367" fill="#44aa44" opacity="0.85"/>
<line x1="546.0" y1="266.71232876712327" x2="546.0" y2="284.0286425902864" stroke="#ff4444" stroke-width="0.5" opacity="0.6"/>
<rect x="543.0" y="270.2428393524284" width="6.0" height="13.113325031133286" fill="#ff4444" opacity="0.85"/>
<line x1="558.0" y1="272.7646326276464" x2="558.0" y2="290.5853051058531" stroke="#44aa44" stroke-width="0.5" opacity="0.6"/>
<rect x="555.0" y="273.77334993773354" width="6.0" height="14.794520547945183" fill="#44aa44" opacity="0.85"/>
<line x1="570.0" y1="283.69240348692404" x2="570.0" y2="293.947696139477" stroke="#ff4444" stroke-width="0.5" opacity="0.6"/>
<rect x="567.0" y="285.20547945205476" width="6.0" height="7.565379825653849" fill="#ff4444" opacity="0.85"/>
<line x1="582.0" y1="284.7011207970112" x2="582.0" y2="293.2752179327522" stroke="#44aa44" stroke-width="0.5" opacity="0.6"/>
<rect x="579.0" y="286.88667496886677" width="6.0" height="0.5043586550435748" fill="#44aa44" opacity="0.85"/>
<line x1="594.0" y1="267.38480697384813" x2="594.0" y2="283.86052303860527" stroke="#ff4444" stroke-width="0.5" opacity="0.6"/>
<rect x="591.0" y="271.75591531755913" width="6.0" height="12.104607721046136" fill="#ff4444" opacity="0.85"/>
<line x1="606.0" y1="251.9178082191781" x2="606.0" y2="271.92403486924036" stroke="#ff4444" stroke-width="0.5" opacity="0.6"/>
<rect x="603.0" y="254.9439601494396" width="6.0" height="10.591531755915412" fill="#ff4444" opacity="0.85"/>
<line x1="618.0" y1="235.94645080946452" x2="618.0" y2="262.6774595267746" stroke="#ff4444" stroke-width="0.5" opacity="0.6"/>
<rect x="615.0" y="239.3088418430884" width="6.0" height="19.333748443337555" fill="#ff4444" opacity="0.85"/>
<line x1="630.0" y1="195.4296388542964" x2="630.0" y2="237.45952677459528" stroke="#ff4444" stroke-width="0.5" opacity="0.6"/>
<rect x="627.0" y="201.14570361145704" width="6.0" height="32.95143212951436" fill="#ff4444" opacity="0.85"/>
<line x1="642.0" y1="204.0037359900374" x2="642.0" y2="220.1432129514321" stroke="#ff4444" stroke-width="0.5" opacity="0.6"/>
<rect x="639.0" y="206.8617683686177" width="6.0" height="3.8667496886674826" fill="#ff4444" opacity="0.85"/>
<line x1="654.0" y1="162.14196762141967" x2="654.0" y2="216.78082191780823" stroke="#ff4444" stroke-width="0.5" opacity="0.6"/>
<rect x="651.0" y="169.70734744707352" width="6.0" height="43.7110834371108" fill="#ff4444" opacity="0.85"/>
<line x1="666.0" y1="156.08966376089666" x2="666.0" y2="188.03237858032378" stroke="#44aa44" stroke-width="0.5" opacity="0.6"/>
<rect x="663.0" y="169.53922789539223" width="6.0" height="6.556662515566671" fill="#44aa44" opacity="0.85"/>
<line x1="678.0" y1="130.87173100871732" x2="678.0" y2="161.80572851805735" stroke="#ff4444" stroke-width="0.5" opacity="0.6"/>
<rect x="675.0" y="144.15317559153175" width="6.0" height="3.5305105853051373" fill="#ff4444" opacity="0.85"/>
<line x1="690.0" y1="38.40597758405978" x2="690.0" y2="140.95890410958907" stroke="#ff4444" stroke-width="0.5" opacity="0.6"/>
<rect x="687.0" y="68.66749688667491" width="6.0" height="56.32004981320054" fill="#ff4444" opacity="0.85"/>
<line x1="702.0" y1="56.56288916562887" x2="702.0" y2="97.07970112079704" stroke="#44aa44" stroke-width="0.5" opacity="0.6"/>
<rect x="699.0" y="80.43586550435866" width="6.0" height="0.6724782067247617" fill="#44aa44" opacity="0.85"/>
<line x1="714.0" y1="89.17808219178087" x2="714.0" y2="112.37858032378578" stroke="#44aa44" stroke-width="0.5" opacity="0.6"/>
<rect x="711.0" y="93.88542963885425" width="6.0" height="14.962640099626427" fill="#44aa44" opacity="0.85"/>
<line x1="726.0" y1="78.41843088418435" x2="726.0" y2="118.26276463262765" stroke="#44aa44" stroke-width="0.5" opacity="0.6"/>
<rect x="723.0" y="97.41594022415937" width="6.0" height="8.069738480697467" fill="#44aa44" opacity="0.85"/>
<line x1="738.0" y1="71.18929016189296" x2="738.0" y2="126.50062266500626" stroke="#ff4444" stroke-width="0.5" opacity="0.6"/>
<rect x="735.0" y="73.71108343711086" width="6.0" height="42.70236612702365" fill="#ff4444" opacity="0.85"/>
<line x1="750.0" y1="38.91033623910339" x2="750.0" y2="70.34869240348691" stroke="#ff4444" stroke-width="0.5" opacity="0.6"/>
<rect x="747.0" y="54.881693648816885" width="6.0" height="15.466998754670023" fill="#ff4444" opacity="0.85"/>
<line x1="762.0" y1="57.57160647571608" x2="762.0" y2="90.52303860523043" stroke="#44aa44" stroke-width="0.5" opacity="0.6"/>
<rect x="759.0" y="63.45579078455794" width="6.0" height="8.910336239103394" fill="#44aa44" opacity="0.85"/>
<line x1="774.0" y1="30.0" x2="774.0" y2="89.68244084682436" stroke="#ff4444" stroke-width="0.5" opacity="0.6"/>
<rect x="771.0" y="42.10460772104606" width="6.0" height="36.65006226650062" fill="#ff4444" opacity="0.85"/>
<rect x="134.0" y="200.84433374844332" width="8" height="8" fill="#4caf50" opacity="0.85" rx="1"/>
<text x="138.0" y="198.84433374844332" text-anchor="middle" font-family="sans-serif" font-size="8" fill="#4caf50">前低</text>
<rect x="206.0" y="202.18929016189293" width="8" height="8" fill="#4caf50" opacity="0.85" rx="1"/>
<text x="210.0" y="200.18929016189293" text-anchor="middle" font-family="sans-serif" font-size="8" fill="#4caf50">前低</text>
<rect x="218.0" y="207.90535491905356" width="8" height="8" fill="#4caf50" opacity="0.85" rx="1"/>
<text x="222.0" y="205.90535491905356" text-anchor="middle" font-family="sans-serif" font-size="8" fill="#4caf50">前低</text>
<rect x="230.0" y="218.6650062266501" width="8" height="8" fill="#4caf50" opacity="0.85" rx="1"/>
<text x="234.0" y="216.6650062266501" text-anchor="middle" font-family="sans-serif" font-size="8" fill="#4caf50">前低</text>
<rect x="242.0" y="222.36363636363637" width="8" height="8" fill="#4caf50" opacity="0.85" rx="1"/>
<text x="246.0" y="220.36363636363637" text-anchor="middle" font-family="sans-serif" font-size="8" fill="#4caf50">前低</text>
<rect x="254.0" y="251.280199252802" width="8" height="8" fill="#4caf50" opacity="0.85" rx="1"/>
<text x="258.0" y="249.280199252802" text-anchor="middle" font-family="sans-serif" font-size="8" fill="#4caf50">前低</text>
<rect x="266.0" y="256.9962640099626" width="8" height="8" fill="#4caf50" opacity="0.85" rx="1"/>
<text x="270.0" y="254.9962640099626" text-anchor="middle" font-family="sans-serif" font-size="8" fill="#4caf50">前低</text>
<rect x="350.0" y="259.34993773349936" width="8" height="8" fill="#4caf50" opacity="0.85" rx="1"/>
<text x="354.0" y="257.34993773349936" text-anchor="middle" font-family="sans-serif" font-size="8" fill="#4caf50">前低</text>
<rect x="398.0" y="207.73723536737236" width="8" height="8" fill="#ff9800" opacity="0.85" rx="1"/>
<text x="402.0" y="205.73723536737236" text-anchor="middle" font-family="sans-serif" font-size="8" fill="#ff9800">前高</text>
<rect x="410.0" y="197.65006226650064" width="8" height="8" fill="#ff9800" opacity="0.85" rx="1"/>
<text x="414.0" y="195.65006226650064" text-anchor="middle" font-family="sans-serif" font-size="8" fill="#ff9800">前高</text>
<rect x="458.0" y="296.0" width="8" height="8" fill="#4caf50" opacity="0.85" rx="1"/>
<text x="462.0" y="294.0" text-anchor="middle" font-family="sans-serif" font-size="8" fill="#4caf50">前低</text>
<rect x="458.0" y="239.51183063511837" width="8" height="8" fill="#ff9800" opacity="0.85" rx="1"/>
<text x="462.0" y="237.51183063511837" text-anchor="middle" font-family="sans-serif" font-size="8" fill="#ff9800">量</text>
<rect x="614.0" y="231.94645080946452" width="8" height="8" fill="#ff9800" opacity="0.85" rx="1"/>
<text x="618.0" y="229.94645080946452" text-anchor="middle" font-family="sans-serif" font-size="8" fill="#ff9800">前高</text>
<rect x="614.0" y="231.94645080946452" width="8" height="8" fill="#2196f3" opacity="0.85" rx="1"/>
<text x="618.0" y="229.94645080946452" text-anchor="middle" font-family="sans-serif" font-size="8" fill="#2196f3">突</text>
<rect x="626.0" y="191.4296388542964" width="8" height="8" fill="#ff9800" opacity="0.85" rx="1"/>
<text x="630.0" y="189.4296388542964" text-anchor="middle" font-family="sans-serif" font-size="8" fill="#ff9800">前高</text>
<rect x="626.0" y="170.414694894147" width="8" height="8" fill="#ff9800" opacity="0.85" rx="1"/>
<text x="630.0" y="168.414694894147" text-anchor="middle" font-family="sans-serif" font-size="8" fill="#ff9800">量</text>
<rect x="626.0" y="191.4296388542964" width="8" height="8" fill="#2196f3" opacity="0.85" rx="1"/>
<text x="630.0" y="189.4296388542964" text-anchor="middle" font-family="sans-serif" font-size="8" fill="#2196f3">突</text>
<rect x="650.0" y="158.14196762141967" width="8" height="8" fill="#ff9800" opacity="0.85" rx="1"/>
<text x="654.0" y="156.14196762141967" text-anchor="middle" font-family="sans-serif" font-size="8" fill="#ff9800">前高</text>
<rect x="650.0" y="158.14196762141967" width="8" height="8" fill="#2196f3" opacity="0.85" rx="1"/>
<text x="654.0" y="156.14196762141967" text-anchor="middle" font-family="sans-serif" font-size="8" fill="#2196f3">突</text>
<rect x="662.0" y="152.08966376089666" width="8" height="8" fill="#ff9800" opacity="0.85" rx="1"/>
<text x="666.0" y="150.08966376089666" text-anchor="middle" font-family="sans-serif" font-size="8" fill="#ff9800">前高</text>
<rect x="674.0" y="126.87173100871732" width="8" height="8" fill="#ff9800" opacity="0.85" rx="1"/>
<text x="678.0" y="124.87173100871732" text-anchor="middle" font-family="sans-serif" font-size="8" fill="#ff9800">前高</text>
<rect x="686.0" y="34.40597758405978" width="8" height="8" fill="#ff9800" opacity="0.85" rx="1"/>
<text x="690.0" y="32.40597758405978" text-anchor="middle" font-family="sans-serif" font-size="8" fill="#ff9800">前高</text>
<rect x="686.0" y="34.40597758405978" width="8" height="8" fill="#2196f3" opacity="0.85" rx="1"/>
<text x="690.0" y="32.40597758405978" text-anchor="middle" font-family="sans-serif" font-size="8" fill="#2196f3">突</text>
<rect x="770.0" y="26.0" width="8" height="8" fill="#ff9800" opacity="0.85" rx="1"/>
<text x="774.0" y="24.0" text-anchor="middle" font-family="sans-serif" font-size="8" fill="#ff9800">前高</text>
<text x="66.0" y="359" text-anchor="middle" font-family="sans-serif" font-size="8" fill="#666666" transform="rotate(-40,66.0,359)">02/27</text>
<text x="138.0" y="359" text-anchor="middle" font-family="sans-serif" font-size="8" fill="#666666" transform="rotate(-40,138.0,359)">03/09</text>
<text x="210.0" y="359" text-anchor="middle" font-family="sans-serif" font-size="8" fill="#666666" transform="rotate(-40,210.0,359)">03/17</text>
<text x="282.0" y="359" text-anchor="middle" font-family="sans-serif" font-size="8" fill="#666666" transform="rotate(-40,282.0,359)">03/25</text>
<text x="354.0" y="359" text-anchor="middle" font-family="sans-serif" font-size="8" fill="#666666" transform="rotate(-40,354.0,359)">04/02</text>
<text x="426.0" y="359" text-anchor="middle" font-family="sans-serif" font-size="8" fill="#666666" transform="rotate(-40,426.0,359)">04/13</text>
<text x="498.0" y="359" text-anchor="middle" font-family="sans-serif" font-size="8" fill="#666666" transform="rotate(-40,498.0,359)">04/21</text>
<text x="570.0" y="359" text-anchor="middle" font-family="sans-serif" font-size="8" fill="#666666" transform="rotate(-40,570.0,359)">04/29</text>
<text x="642.0" y="359" text-anchor="middle" font-family="sans-serif" font-size="8" fill="#666666" transform="rotate(-40,642.0,359)">05/12</text>
<text x="714.0" y="359" text-anchor="middle" font-family="sans-serif" font-size="8" fill="#666666" transform="rotate(-40,714.0,359)">05/20</text>
<text x="774.0" y="359" text-anchor="middle" font-family="sans-serif" font-size="8" fill="#666666" transform="rotate(-40,774.0,359)">05/27</text>
<text x="400.0" y="396" text-anchor="middle" font-family="sans-serif" font-size="9" fill="#555555">数据截至: 2026-05-27 20:58  |  最新K线: 20260527</text>
<rect x="50" y="373" width="8" height="8" fill="#ffd700" opacity="0.8" rx="1"/>
<text x="61" y="380" font-family="sans-serif" font-size="9" fill="#888888">EMA5</text>
<rect x="150" y="373" width="8" height="8" fill="#ff6b6b" opacity="0.8" rx="1"/>
<text x="161" y="380" font-family="sans-serif" font-size="9" fill="#888888">EMA10</text>
<rect x="250" y="373" width="8" height="8" fill="#4ecdc4" opacity="0.8" rx="1"/>
<text x="261" y="380" font-family="sans-serif" font-size="9" fill="#888888">EMA20</text>
<rect x="350" y="373" width="8" height="8" fill="#2196f3" opacity="0.8" rx="1"/>
<text x="361" y="380" font-family="sans-serif" font-size="9" fill="#888888">突破</text>
<rect x="450" y="373" width="8" height="8" fill="#ff9800" opacity="0.8" rx="1"/>
<text x="461" y="380" font-family="sans-serif" font-size="9" fill="#888888">前高/量</text>
<rect x="550" y="373" width="8" height="8" fill="#4caf50" opacity="0.8" rx="1"/>
<text x="561" y="380" font-family="sans-serif" font-size="9" fill="#888888">前低</text>
</svg>