<svg xmlns="http://www.w3.org/2000/svg" width="750" height="540" viewBox="0 0 750 540">
<rect width="750" height="540" fill="#1a1a2e"/>
<text x="375.0" y="22" text-anchor="middle" font-family="sans-serif" font-size="15" fill="#ffffff" font-weight="bold">北方华创(002371) 趋势交易分析图</text>
<text x="60" y="31" font-family="sans-serif" font-size="10" fill="#888888">最新: 670.25</text>
<line x1="60" y1="87.8124557726083" x2="725" y2="87.8124557726083" stroke="#4ecdc4" stroke-width="0.5" stroke-dasharray="4,3" opacity="0.4"/>
<text x="62" y="85.8124557726083" font-family="sans-serif" font-size="7" fill="#4ecdc4" opacity="0.6">买入↑2%</text>
<line x1="60" y1="36.78712807937697" x2="725" y2="36.78712807937697" stroke="#e94560" stroke-width="0.5" stroke-dasharray="4,3" opacity="0.4"/>
<text x="62" y="34.78712807937697" font-family="sans-serif" font-size="7" fill="#e94560" opacity="0.6">警戒↑8%</text>
<rect x="60" y="87.8124557726083" width="3" height="295.1875442273917" fill="#4ecdc4" opacity="0.3" rx="1"/>
<rect x="60" y="36.78712807937697" width="3" height="346.212871920623" fill="#e94560" opacity="0.3" rx="1"/>
<rect x="60" y="36.78712807937697" width="3" height="51.02532769323133" fill="#ffd700" opacity="0.2" rx="1"/>
<line x1="60" y1="32.0" x2="725" y2="32.0" stroke="#2a2a4e" stroke-width="0.5"/>
<text x="56" y="35.0" text-anchor="end" font-family="sans-serif" font-size="8" fill="#666666">721.6</text>
<line x1="60" y1="127.74999999999997" x2="725" y2="127.74999999999997" stroke="#2a2a4e" stroke-width="0.5"/>
<text x="56" y="130.74999999999997" text-anchor="end" font-family="sans-serif" font-size="8" fill="#666666">646.8</text>
<line x1="60" y1="223.50000000000009" x2="725" y2="223.50000000000009" stroke="#2a2a4e" stroke-width="0.5"/>
<text x="56" y="226.50000000000009" text-anchor="end" font-family="sans-serif" font-size="8" fill="#666666">571.9</text>
<line x1="60" y1="319.25000000000006" x2="725" y2="319.25000000000006" stroke="#2a2a4e" stroke-width="0.5"/>
<text x="56" y="322.25000000000006" text-anchor="end" font-family="sans-serif" font-size="8" fill="#666666">497.1</text>
<line x1="60" y1="415.0" x2="725" y2="415.0" stroke="#2a2a4e" stroke-width="0.5"/>
<text x="56" y="418.0" text-anchor="end" font-family="sans-serif" font-size="8" fill="#666666">422.2</text>
<rect x="61.66250000000001" y="464.8016467653761" width="6.095833333333334" height="10.198353234623895" fill="#44aa44" opacity="0.35"/>
<rect x="72.74583333333334" y="461.6449973119588" width="6.095833333333334" height="13.355002688041207" fill="#44aa44" opacity="0.35"/>
<rect x="83.82916666666668" y="462.55299213794086" width="6.095833333333334" height="12.44700786205915" fill="#ff4444" opacity="0.35"/>
<rect x="94.91250000000001" y="463.1428495829137" width="6.095833333333334" height="11.857150417086311" fill="#44aa44" opacity="0.35"/>
<rect x="105.99583333333335" y="465.4656517433383" width="6.095833333333334" height="9.53434825666171" fill="#ff4444" opacity="0.35"/>
<rect x="117.07916666666668" y="463.0099533492015" width="6.095833333333334" height="11.990046650798512" fill="#ff4444" opacity="0.35"/>
<rect x="128.1625" y="468.17366806334934" width="6.095833333333334" height="6.826331936650641" fill="#ff4444" opacity="0.35"/>
<rect x="139.24583333333334" y="460.71521188400055" width="6.095833333333334" height="14.284788115999428" fill="#ff4444" opacity="0.35"/>
<rect x="150.32916666666668" y="466.8297996085237" width="6.095833333333334" height="8.170200391476312" fill="#44aa44" opacity="0.35"/>
<rect x="161.4125" y="464.7950056340279" width="6.095833333333334" height="10.204994365972068" fill="#ff4444" opacity="0.35"/>
<rect x="172.49583333333334" y="464.86365819789904" width="6.095833333333334" height="10.136341802100938" fill="#ff4444" opacity="0.35"/>
<rect x="183.57916666666668" y="465.3156471981752" width="6.095833333333334" height="9.684352801824796" fill="#ff4444" opacity="0.35"/>
<rect x="194.6625" y="463.93575800401504" width="6.095833333333334" height="11.064241995984979" fill="#44aa44" opacity="0.35"/>
<rect x="205.74583333333334" y="466.8888893037763" width="6.095833333333334" height="8.111110696223703" fill="#44aa44" opacity="0.35"/>
<rect x="216.82916666666668" y="465.085949076834" width="6.095833333333334" height="9.914050923165972" fill="#ff4444" opacity="0.35"/>
<rect x="227.9125" y="467.332365458237" width="6.095833333333334" height="7.66763454176301" fill="#ff4444" opacity="0.35"/>
<rect x="238.99583333333334" y="462.7745078927465" width="6.095833333333334" height="12.225492107253487" fill="#ff4444" opacity="0.35"/>
<rect x="250.07916666666668" y="463.37774824637825" width="6.095833333333334" height="11.622251753621773" fill="#44aa44" opacity="0.35"/>
<rect x="261.1625" y="467.89329394878706" width="6.095833333333334" height="7.106706051212957" fill="#44aa44" opacity="0.35"/>
<rect x="272.2458333333334" y="461.88049684684137" width="6.095833333333334" height="13.119503153158606" fill="#ff4444" opacity="0.35"/>
<rect x="283.3291666666667" y="465.8350149149162" width="6.095833333333334" height="9.164985085083822" fill="#44aa44" opacity="0.35"/>
<rect x="294.4125" y="466.27928121529163" width="6.095833333333334" height="8.720718784708371" fill="#ff4444" opacity="0.35"/>
<rect x="305.4958333333334" y="462.8614584934763" width="6.095833333333334" height="12.138541506523703" fill="#ff4444" opacity="0.35"/>
<rect x="316.5791666666667" y="464.5499432305268" width="6.095833333333334" height="10.450056769473191" fill="#44aa44" opacity="0.35"/>
<rect x="327.6625" y="465.4829433205717" width="6.095833333333334" height="9.517056679428318" fill="#44aa44" opacity="0.35"/>
<rect x="338.7458333333334" y="463.74639487879006" width="6.095833333333334" height="11.25360512120993" fill="#44aa44" opacity="0.35"/>
<rect x="349.8291666666667" y="464.9526697875928" width="6.095833333333334" height="10.047330212407187" fill="#44aa44" opacity="0.35"/>
<rect x="360.9125" y="468.1164395673142" width="6.095833333333334" height="6.883560432685791" fill="#44aa44" opacity="0.35"/>
<rect x="371.9958333333334" y="453.6768699783781" width="6.095833333333334" height="21.323130021621928" fill="#ff4444" opacity="0.35"/>
<rect x="383.0791666666667" y="461.0254493080408" width="6.095833333333334" height="13.974550691959234" fill="#ff4444" opacity="0.35"/>
<rect x="394.1625" y="463.3456181494757" width="6.095833333333334" height="11.654381850524308" fill="#ff4444" opacity="0.35"/>
<rect x="405.2458333333334" y="465.222363412699" width="6.095833333333334" height="9.777636587300995" fill="#44aa44" opacity="0.35"/>
<rect x="416.3291666666667" y="463.86681401750616" width="6.095833333333334" height="11.133185982493869" fill="#ff4444" opacity="0.35"/>
<rect x="427.4125" y="465.3933578986737" width="6.095833333333334" height="9.606642101326322" fill="#44aa44" opacity="0.35"/>
<rect x="438.4958333333334" y="465.4990391636831" width="6.095833333333334" height="9.500960836316874" fill="#44aa44" opacity="0.35"/>
<rect x="449.5791666666667" y="460.6594194706546" width="6.095833333333334" height="14.3405805293454" fill="#44aa44" opacity="0.35"/>
<rect x="460.6625" y="446.93368212202375" width="6.095833333333334" height="28.066317877976235" fill="#ff4444" opacity="0.35"/>
<rect x="471.7458333333334" y="450.95671906007914" width="6.095833333333334" height="24.04328093992084" fill="#44aa44" opacity="0.35"/>
<rect x="482.8291666666667" y="448.80458841724203" width="6.095833333333334" height="26.195411582757977" fill="#ff4444" opacity="0.35"/>
<rect x="493.9125" y="460.37586374193364" width="6.095833333333334" height="14.624136258066377" fill="#44aa44" opacity="0.35"/>
<rect x="504.9958333333334" y="455.50270791288426" width="6.095833333333334" height="19.49729208711571" fill="#44aa44" opacity="0.35"/>
<rect x="516.0791666666667" y="444.3060909391423" width="6.095833333333334" height="30.693909060857717" fill="#ff4444" opacity="0.35"/>
<rect x="527.1624999999999" y="454.2318453353536" width="6.095833333333334" height="20.768154664646367" fill="#ff4444" opacity="0.35"/>
<rect x="538.2458333333333" y="461.02587893110467" width="6.095833333333334" height="13.974121068895316" fill="#ff4444" opacity="0.35"/>
<rect x="549.3291666666667" y="450.07496879545965" width="6.095833333333334" height="24.92503120454032" fill="#ff4444" opacity="0.35"/>
<rect x="560.4124999999999" y="450.9234262769827" width="6.095833333333334" height="24.076573723017333" fill="#44aa44" opacity="0.35"/>
<rect x="571.4958333333333" y="460.39557232444616" width="6.095833333333334" height="14.604427675553813" fill="#44aa44" opacity="0.35"/>
<rect x="582.5791666666667" y="462.6134443091339" width="6.095833333333334" height="12.386555690866077" fill="#44aa44" opacity="0.35"/>
<rect x="593.6624999999999" y="453.2740442775281" width="6.095833333333334" height="21.725955722471912" fill="#ff4444" opacity="0.35"/>
<rect x="604.7458333333333" y="458.1551781768308" width="6.095833333333334" height="16.84482182316921" fill="#ff4444" opacity="0.35"/>
<rect x="615.8291666666667" y="454.21169961888444" width="6.095833333333334" height="20.788300381115572" fill="#ff4444" opacity="0.35"/>
<rect x="626.9124999999999" y="459.5715703096385" width="6.095833333333334" height="15.428429690361515" fill="#44aa44" opacity="0.35"/>
<rect x="637.9958333333333" y="440.0" width="6.095833333333334" height="35.0" fill="#ff4444" opacity="0.35"/>
<rect x="649.0791666666667" y="448.67655924201614" width="6.095833333333334" height="26.323440757983843" fill="#44aa44" opacity="0.35"/>
<rect x="660.1624999999999" y="453.2793995440416" width="6.095833333333334" height="21.7206004559584" fill="#ff4444" opacity="0.35"/>
<rect x="671.2458333333333" y="450.35540900587796" width="6.095833333333334" height="24.64459099412202" fill="#ff4444" opacity="0.35"/>
<rect x="682.3291666666667" y="440.20684097259794" width="6.095833333333334" height="34.793159027402055" fill="#ff4444" opacity="0.35"/>
<rect x="693.4124999999999" y="445.17244237149526" width="6.095833333333334" height="29.827557628504724" fill="#ff4444" opacity="0.35"/>
<rect x="704.4958333333333" y="444.33738131823804" width="6.095833333333334" height="30.66261868176193" fill="#ff4444" opacity="0.35"/>
<rect x="715.5791666666667" y="452.6855883651379" width="6.095833333333334" height="22.314411634862115" fill="#44aa44" opacity="0.25" stroke-dasharray="3,2"/>
<polyline points="65.54166666666667,329.75099381994323 76.625,337.00114692945834 87.70833333333334,344.4275782714399 98.79166666666667,357.75459173889107 109.87500000000001,365.51336125391026 120.95833333333334,363.2310109489628 132.04166666666666,362.0932757142075 143.125,366.7681355938935 154.20833333333334,368.0252578142242 165.29166666666666,366.7352061170046 176.375,367.581090030901 187.45833333333334,368.1919253955798 198.54166666666666,369.95108928715956 209.625,373.13258410580977 220.70833333333334,369.9439096978434 231.79166666666666,368.16784002683465 242.875,363.96005325323296 253.95833333333334,371.53111060933196 265.0416666666667,376.7448092219888 276.12500000000006,371.60572048461074 287.20833333333337,375.89467719407213 298.2916666666667,375.8240668516129 309.37500000000006,369.01302691839055 320.45833333333337,373.78664797732915 331.5416666666667,375.46358904741044 342.62500000000006,381.92533908210527 353.70833333333337,391.15901175709195 364.7916666666667,398.3255501798017 375.87500000000006,386.0867066339817 386.95833333333337,374.1488683945937 398.0416666666667,364.46306720989173 409.12500000000006,359.878111840724 420.20833333333337,352.9405106163816 431.2916666666667,351.1302084583572 442.37500000000006,350.5374709693429 453.45833333333337,351.6989631639058 464.5416666666667,351.9103382286403 475.62500000000006,360.9518840793797 486.70833333333337,355.2130092960577 497.7916666666667,352.6452075781413 508.87500000000006,351.9142428339549 519.9583333333334,332.8537466562984 531.0416666666666,319.7373287936372 542.125,313.7651675839325 553.2083333333334,298.57584302934174 564.2916666666666,284.88425724811196 575.375,272.86073694609945 586.4583333333334,269.6856001443458 597.5416666666666,253.75090340896364 608.625,239.6050508000072 619.7083333333334,230.36639821164107 630.7916666666666,231.28685775770785 641.875,220.12966064199068 652.9583333333334,210.14544605128876 664.0416666666666,194.22190139848172 675.125,168.12499567648908 686.2083333333334,147.74596616169924 697.2916666666666,131.59680412116174 708.375,108.38175672550477 719.4583333333334,104.82089833701878" fill="none" stroke="#ffd700" stroke-width="1" opacity="0.7"/>
<polyline points="65.54166666666667,329.75099381994323 76.625,333.7056227887696 87.70833333333334,338.35558972815755 98.79166666666667,346.72886771827314 109.87500000000001,352.9656009120323 120.95833333333334,354.0020935351297 132.04166666666666,355.0594956641419 143.125,358.8882883348916 154.20833333333334,361.00669086579967 165.29166666666666,361.5791293852116 176.375,362.97798910766295 187.45833333333334,364.14809947444013 198.54166666666666,365.84288449187267 209.625,368.32519162846125 220.70833333333334,367.4599860381793 231.79166666666666,366.9428432466589 242.875,364.87041351199906 253.95833333333334,368.834561113732 265.0416666666667,372.16867844710845 276.12500000000006,370.19756291306237 287.20833333333337,372.7930224948683 298.2916666666667,373.3184449806549 309.37500000000006,370.05889990270776 320.45833333333337,372.472534483162 331.5416666666667,373.62615933850947 342.62500000000006,377.4848283954159 353.70833333333337,383.3287427066249 364.7916666666667,388.6614489463697 375.87500000000006,383.7428254183646 386.95833333333337,377.6574375088106 398.0416666666667,371.7363515691155 409.12500000000006,367.91305148425613 420.20833333333337,362.6680072448816 431.2916666666667,359.9119339535047 442.37500000000006,357.9919452331065 453.45833333333337,357.2701274730928 464.5416666666667,356.3724839976413 475.62500000000006,360.4929370491354 486.70833333333337,357.4460866273677 497.7916666666667,355.639453448266 508.87500000000006,354.6963370659598 519.9583333333334,343.79386747232815 531.0416666666666,334.6503448534166 542.125,328.6813449099815 553.2083333333334,317.68422654819574 564.2916666666666,306.7418373004606 575.375,296.20944803529943 586.4583333333334,290.23233503630655 597.5416666666666,277.80491229119616 608.625,265.7155365259049 619.7083333333334,255.92891043663292 630.7916666666666,251.78324978448907 641.875,241.97088917104668 652.9583333333334,232.55382147992626 664.0416666666666,219.79400159137012 675.125,200.9098529806671 686.2083333333334,183.8331355536584 697.2916666666666,168.4631981875545 708.375,149.09746432330647 719.4583333333334,139.75232200271375" fill="none" stroke="#ff6b6b" stroke-width="1" opacity="0.7"/>
<polyline points="65.54166666666667,329.75099381994323 76.625,331.82246613694747 87.70833333333334,334.43751135775284 98.79166666666667,339.19666443547095 109.87500000000001,343.1808773734212 120.95833333333334,344.6556805130066 132.04166666666666,346.09969239221516 143.125,348.9585650551723 154.20833333333334,351.013892407526 165.29166666666666,352.2654362470536 176.375,353.88519068625743 187.45833333333334,355.36408644232216 198.54166666666666,357.08840364498855 209.625,359.2224198448096 220.70833333333334,359.6361475626288 231.79166666666666,360.110390717123 242.875,359.67554204939984 253.95833333333334,362.24674998007885 265.0416666666667,364.62060297695734 276.12500000000006,364.3069782181857 287.20833333333337,366.227512731977 298.2916666666667,367.12802067814056 309.37500000000006,366.0102041423125 320.45833333333337,367.66007899496896 331.5416666666667,368.72268777521697 342.62500000000006,371.21089266819587 353.70833333333337,374.8695083290406 364.7916666666667,378.4684720143911 375.87500000000006,376.86280987419593 386.95833333333337,374.33046530673136 398.0416666666667,371.54579859566053 409.12500000000006,369.5612655010632 420.20833333333337,366.6568886121711 431.2916666666667,364.83333771027947 442.37500000000006,363.3589242132352 453.45833333333337,362.4696883408348 464.5416666666667,361.5042978662895 475.62500000000006,363.17388623910557 486.70833333333337,361.3225884762778 497.7916666666667,360.0070661587569 508.87500000000006,359.0970897003593 519.9583333333334,352.967152995657 531.0416666666666,347.3040425263863 542.125,342.9723094443041 553.2083333333334,335.8508698705761 564.2916666666666,328.3889856624881 575.375,320.81038667959155 586.4583333333334,315.3365714282818 597.5416666666666,306.4360893816073 608.625,297.37678044832035 619.7083333333334,289.23509593275736 630.7916666666666,283.8915417343844 641.875,275.6938012273532 652.9583333333334,267.549345574261 664.0416666666666,257.5327233379378 675.125,244.0468624707536 686.2083333333334,230.99362862897894 697.2916666666666,218.45123352527492 708.375,203.5465124213622 719.4583333333334,193.46581424409408" fill="none" stroke="#4ecdc4" stroke-width="1" opacity="0.7"/>
<line x1="65.54166666666667" y1="317.27646567563056" x2="65.54166666666667" y2="336.89026223484217" stroke="#44aa44" stroke-width="0.5" opacity="0.6"/>
<rect x="63.04791666666667" y="320.6413896776349" width="4.987500000000001" height="9.109604142308342" fill="#44aa44" opacity="0.8" rx="1"/>
<line x1="76.625" y1="338.5535326540838" x2="76.625" y2="359.02455319859695" stroke="#44aa44" stroke-width="0.5" opacity="0.6"/>
<rect x="74.13125" y="339.6794387840321" width="4.987500000000001" height="11.822014364456322" fill="#44aa44" opacity="0.8" rx="1"/>
<line x1="87.70833333333334" y1="352.23073325538667" x2="87.70833333333334" y2="366.66280273926844" stroke="#ff4444" stroke-width="0.5" opacity="0.6"/>
<rect x="85.21458333333334" y="359.2804409554034" width="4.987500000000001" height="1.5865040921997888" fill="#ff4444" opacity="0.8" rx="1"/>
<line x1="98.79166666666667" y1="354.2010689827961" x2="98.79166666666667" y2="384.5109737765158" stroke="#44aa44" stroke-width="0.5" opacity="0.6"/>
<rect x="96.29791666666667" y="359.03734758643725" width="4.987500000000001" height="25.37127108735592" fill="#44aa44" opacity="0.8" rx="1"/>
<line x1="109.87500000000001" y1="372.0108568565225" x2="109.87500000000001" y2="388.45164523133457" stroke="#ff4444" stroke-width="0.5" opacity="0.6"/>
<rect x="107.38125000000001" y="381.03090028394854" width="4.987500000000001" height="7.139268414898936" fill="#ff4444" opacity="0.8" rx="1"/>
<line x1="120.95833333333334" y1="351.0152664105562" x2="120.95833333333334" y2="373.13676298647067" stroke="#ff4444" stroke-width="0.5" opacity="0.6"/>
<rect x="118.46458333333334" y="358.666310339068" width="4.987500000000001" height="12.12907967262396" fill="#ff4444" opacity="0.8" rx="1"/>
<line x1="132.04166666666666" y1="352.16676131618505" x2="132.04166666666666" y2="365.57527977284116" stroke="#ff4444" stroke-width="0.5" opacity="0.6"/>
<rect x="129.54791666666665" y="359.81780524469684" width="4.987500000000001" height="2.418139301820645" fill="#ff4444" opacity="0.8" rx="1"/>
<line x1="143.125" y1="374.95356605979623" x2="143.125" y2="398.04743611157505" stroke="#ff4444" stroke-width="0.5" opacity="0.6"/>
<rect x="140.63125" y="376.11785535326544" width="4.987500000000001" height="5.936595957908764" fill="#ff4444" opacity="0.8" rx="1"/>
<line x1="154.20833333333334" y1="365.9335226323701" x2="154.20833333333334" y2="376.22021045598797" stroke="#44aa44" stroke-width="0.5" opacity="0.6"/>
<rect x="151.71458333333334" y="367.98062468682144" width="4.987500000000001" height="2.5588775680641334" fill="#44aa44" opacity="0.8" rx="1"/>
<line x1="165.29166666666666" y1="363.2722899615834" x2="165.29166666666666" y2="379.41880741606815" stroke="#ff4444" stroke-width="0.5" opacity="0.6"/>
<rect x="162.79791666666665" y="364.1551027225655" width="4.987500000000001" height="6.473960247202285" fill="#ff4444" opacity="0.8" rx="1"/>
<line x1="176.375" y1="364.1423083347252" x2="176.375" y2="378.42084516452314" stroke="#ff4444" stroke-width="0.5" opacity="0.6"/>
<rect x="173.88125" y="369.27285785869384" width="4.987500000000001" height="1.2666443961917366" fill="#ff4444" opacity="0.8" rx="1"/>
<line x1="187.45833333333334" y1="360.68782361783866" x2="187.45833333333334" y2="380.6470686487389" stroke="#ff4444" stroke-width="0.5" opacity="0.6"/>
<rect x="184.96458333333334" y="369.4135961249374" width="4.987500000000001" height="10.081977618172687" fill="#ff4444" opacity="0.8" rx="1"/>
<line x1="198.54166666666666" y1="369.5159512276599" x2="198.54166666666666" y2="389.6927008518457" stroke="#44aa44" stroke-width="0.5" opacity="0.6"/>
<rect x="196.04791666666665" y="372.39468849173204" width="4.987500000000001" height="1.0747285785870417" fill="#44aa44" opacity="0.8" rx="1"/>
<line x1="209.625" y1="361.12283280440954" x2="209.625" y2="380.77501252714217" stroke="#44aa44" stroke-width="0.5" opacity="0.6"/>
<rect x="207.13125" y="371.80614665107737" width="4.987500000000001" height="7.689427092032702" fill="#44aa44" opacity="0.8" rx="1"/>
<line x1="220.70833333333334" y1="361.58343076666114" x2="220.70833333333334" y2="377.576415567062" stroke="#ff4444" stroke-width="0.5" opacity="0.6"/>
<rect x="218.21458333333334" y="363.56656088191085" width="4.987500000000001" height="11.195089360280576" fill="#ff4444" opacity="0.8" rx="1"/>
<line x1="231.79166666666666" y1="360.06089861366297" x2="231.79166666666666" y2="374.3650242191415" stroke="#ff4444" stroke-width="0.5" opacity="0.6"/>
<rect x="229.29791666666665" y="364.6157006848171" width="4.987500000000001" height="5.168932687489587" fill="#ff4444" opacity="0.8" rx="1"/>
<line x1="242.875" y1="348.7634541506598" x2="242.875" y2="368.6203440788375" stroke="#ff4444" stroke-width="0.5" opacity="0.6"/>
<rect x="240.38125" y="355.54447970602973" width="4.987500000000001" height="9.263136796392132" fill="#ff4444" opacity="0.8" rx="1"/>
<line x1="253.95833333333334" y1="364.1423083347252" x2="253.95833333333334" y2="388.45164523133457" stroke="#44aa44" stroke-width="0.5" opacity="0.6"/>
<rect x="251.46458333333334" y="364.78202772674126" width="4.987500000000001" height="21.891197594788707" fill="#44aa44" opacity="0.8" rx="1"/>
<line x1="265.0416666666667" y1="375.0815099381994" x2="265.0416666666667" y2="395.1175212961416" stroke="#44aa44" stroke-width="0.5" opacity="0.6"/>
<rect x="262.5479166666667" y="380.02014364456323" width="4.987500000000001" height="7.152062802739238" fill="#44aa44" opacity="0.8" rx="1"/>
<line x1="276.12500000000006" y1="356.9774511441456" x2="276.12500000000006" y2="381.5554701854017" stroke="#ff4444" stroke-width="0.5" opacity="0.6"/>
<rect x="273.6312500000001" y="361.3275430098547" width="4.987500000000001" height="18.295974611658608" fill="#ff4444" opacity="0.8" rx="1"/>
<line x1="287.20833333333337" y1="364.6540838483381" x2="287.20833333333337" y2="384.997160514448" stroke="#44aa44" stroke-width="0.5" opacity="0.6"/>
<rect x="284.7145833333334" y="367.2641389677635" width="4.987500000000001" height="17.20845164523132" fill="#44aa44" opacity="0.8" rx="1"/>
<line x1="298.2916666666667" y1="369.29844663437444" x2="298.2916666666667" y2="399.32687489560715" stroke="#ff4444" stroke-width="0.5" opacity="0.6"/>
<rect x="295.7979166666667" y="375.68284616669445" width="4.987500000000001" height="17.24683480875234" fill="#ff4444" opacity="0.8" rx="1"/>
<line x1="309.37500000000006" y1="353.8940036746284" x2="309.37500000000006" y2="389.57755136128276" stroke="#ff4444" stroke-width="0.5" opacity="0.6"/>
<rect x="306.8812500000001" y="355.39094705194594" width="4.987500000000001" height="31.640521129112983" fill="#ff4444" opacity="0.8" rx="1"/>
<line x1="320.45833333333337" y1="357.7579088024052" x2="320.45833333333337" y2="383.3338900952063" stroke="#44aa44" stroke-width="0.5" opacity="0.6"/>
<rect x="317.9645833333334" y="360.4319358610323" width="4.987500000000001" height="22.901954234174013" fill="#44aa44" opacity="0.8" rx="1"/>
<line x1="331.5416666666667" y1="365.1146818105896" x2="331.5416666666667" y2="379.46998496742947" stroke="#44aa44" stroke-width="0.5" opacity="0.6"/>
<rect x="329.0479166666667" y="372.84249206614334" width="4.987500000000001" height="5.974979121429783" fill="#44aa44" opacity="0.8" rx="1"/>
<line x1="342.62500000000006" y1="377.19258393185237" x2="342.62500000000006" y2="398.405678971104" stroke="#44aa44" stroke-width="0.5" opacity="0.6"/>
<rect x="340.1312500000001" y="378.7407048605312" width="4.987500000000001" height="16.108134290963676" fill="#44aa44" opacity="0.8" rx="1"/>
<line x1="353.70833333333337" y1="391.5222983130115" x2="353.70833333333337" y2="412.68421580090194" stroke="#44aa44" stroke-width="0.5" opacity="0.6"/>
<rect x="351.2145833333334" y="393.4414564890596" width="4.987500000000001" height="16.184900618005713" fill="#44aa44" opacity="0.8" rx="1"/>
<line x1="364.7916666666667" y1="403.80491063971937" x2="364.7916666666667" y2="415.0" stroke="#44aa44" stroke-width="0.5" opacity="0.6"/>
<rect x="362.2979166666667" y="411.4047770168699" width="4.987500000000001" height="1.253850008351435" fill="#44aa44" opacity="0.8" rx="1"/>
<line x1="375.87500000000006" y1="359.0629363621179" x2="375.87500000000006" y2="396.12827793552697" stroke="#ff4444" stroke-width="0.5" opacity="0.6"/>
<rect x="373.3812500000001" y="361.60901954234174" width="4.987500000000001" height="34.519258393185225" fill="#ff4444" opacity="0.8" rx="1"/>
<line x1="386.95833333333337" y1="343.67128779021215" x2="386.95833333333337" y2="369.2472690830132" stroke="#ff4444" stroke-width="0.5" opacity="0.6"/>
<rect x="384.4645833333334" y="350.2731919158177" width="4.987500000000001" height="15.148555202939633" fill="#ff4444" opacity="0.8" rx="1"/>
<line x1="398.0416666666667" y1="335.4700851845665" x2="398.0416666666667" y2="347.5096041423083" stroke="#ff4444" stroke-width="0.5" opacity="0.6"/>
<rect x="395.5479166666667" y="345.09146484048773" width="4.987500000000001" height="2.418139301820588" fill="#ff4444" opacity="0.8" rx="1"/>
<line x1="409.12500000000006" y1="340.47269083013197" x2="409.12500000000006" y2="357.4892266577585" stroke="#44aa44" stroke-width="0.5" opacity="0.6"/>
<rect x="406.6312500000001" y="346.35810923667947" width="4.987500000000001" height="4.350091865709089" fill="#44aa44" opacity="0.8" rx="1"/>
<line x1="420.20833333333337" y1="325.75914481376316" x2="420.20833333333337" y2="346.08942709203274" stroke="#ff4444" stroke-width="0.5" opacity="0.6"/>
<rect x="417.7145833333334" y="339.0653081676967" width="4.987500000000001" height="4.605979622515463" fill="#ff4444" opacity="0.8" rx="1"/>
<line x1="431.2916666666667" y1="334.71521630198765" x2="431.2916666666667" y2="348.8018373141807" stroke="#44aa44" stroke-width="0.5" opacity="0.6"/>
<rect x="428.7979166666667" y="337.19732754300986" width="4.987500000000001" height="10.312276599298457" fill="#44aa44" opacity="0.8" rx="1"/>
<line x1="442.37500000000006" y1="343.824820444296" x2="442.37500000000006" y2="356.9262735927844" stroke="#44aa44" stroke-width="0.5" opacity="0.6"/>
<rect x="439.8812500000001" y="347.5096041423083" width="4.987500000000001" height="1.8423918490062192" fill="#44aa44" opacity="0.8" rx="1"/>
<line x1="453.45833333333337" y1="345.59044596626023" x2="453.45833333333337" y2="360.5598797394354" stroke="#44aa44" stroke-width="0.5" opacity="0.6"/>
<rect x="450.9645833333334" y="353.9067980624687" width="4.987500000000001" height="0.5" fill="#44aa44" opacity="0.8" rx="1"/>
<line x1="464.5416666666667" y1="346.06383831635213" x2="464.5416666666667" y2="385.89276766327043" stroke="#ff4444" stroke-width="0.5" opacity="0.6"/>
<rect x="462.0479166666667" y="352.3330883581092" width="4.987500000000001" height="31.000801737097106" fill="#ff4444" opacity="0.8" rx="1"/>
<line x1="475.62500000000006" y1="351.34792049440455" x2="475.62500000000006" y2="383.7049273425756" stroke="#44aa44" stroke-width="0.5" opacity="0.6"/>
<rect x="473.1312500000001" y="351.39909804576587" width="4.987500000000001" height="27.635877735092606" fill="#44aa44" opacity="0.8" rx="1"/>
<line x1="486.70833333333337" y1="343.67128779021215" x2="486.70833333333337" y2="382.0544513111742" stroke="#ff4444" stroke-width="0.5" opacity="0.6"/>
<rect x="484.2145833333334" y="343.73525972941377" width="4.987500000000001" height="37.0397527977284" fill="#ff4444" opacity="0.8" rx="1"/>
<line x1="497.7916666666667" y1="334.7791882411893" x2="497.7916666666667" y2="353.1647235677301" stroke="#44aa44" stroke-width="0.5" opacity="0.6"/>
<rect x="495.2979166666667" y="343.67128779021215" width="4.987500000000001" height="3.8383163520961716" fill="#44aa44" opacity="0.8" rx="1"/>
<line x1="508.87500000000006" y1="334.43373976950056" x2="508.87500000000006" y2="361.8393185234675" stroke="#44aa44" stroke-width="0.5" opacity="0.6"/>
<rect x="506.3812500000001" y="347.4712209787874" width="4.987500000000001" height="2.9810923667947122" fill="#44aa44" opacity="0.8" rx="1"/>
<line x1="519.9583333333334" y1="290.0628027392685" x2="519.9583333333334" y2="346.2813429096376" stroke="#ff4444" stroke-width="0.5" opacity="0.6"/>
<rect x="517.4645833333334" y="294.7327543009855" width="4.987500000000001" height="44.84432938032404" fill="#ff4444" opacity="0.8" rx="1"/>
<line x1="531.0416666666666" y1="267.864539836312" x2="531.0416666666666" y2="310.4058794053783" stroke="#ff4444" stroke-width="0.5" opacity="0.6"/>
<rect x="528.5479166666667" y="293.5044930683146" width="4.987500000000001" height="7.254417905461878" fill="#ff4444" opacity="0.8" rx="1"/>
<line x1="542.125" y1="293.4916986804743" x2="542.125" y2="312.70886921663606" stroke="#ff4444" stroke-width="0.5" opacity="0.6"/>
<rect x="539.63125" y="301.8208451645232" width="4.987500000000001" height="0.6269250041756322" fill="#ff4444" opacity="0.8" rx="1"/>
<line x1="553.2083333333334" y1="262.86193419074664" x2="553.2083333333334" y2="306.45241356271924" stroke="#ff4444" stroke-width="0.5" opacity="0.6"/>
<rect x="550.7145833333334" y="268.1971939201604" width="4.987500000000001" height="22.786804743611185" fill="#ff4444" opacity="0.8" rx="1"/>
<line x1="564.2916666666666" y1="229.80123601135796" x2="564.2916666666666" y2="257.9488892600635" stroke="#44aa44" stroke-width="0.5" opacity="0.6"/>
<rect x="561.7979166666667" y="245.1545014197428" width="4.987500000000001" height="12.346584265909456" fill="#44aa44" opacity="0.8" rx="1"/>
<line x1="575.375" y1="242.96666109904788" x2="575.375" y2="270.74327710038415" stroke="#44aa44" stroke-width="0.5" opacity="0.6"/>
<rect x="572.88125" y="245.1545014197428" width="4.987500000000001" height="3.65919492233175" fill="#44aa44" opacity="0.8" rx="1"/>
<line x1="586.4583333333334" y1="245.41038917654927" x2="586.4583333333334" y2="267.9285117755136" stroke="#44aa44" stroke-width="0.5" opacity="0.6"/>
<rect x="583.9645833333334" y="260.5077668281276" width="4.987500000000001" height="2.827559712710922" fill="#44aa44" opacity="0.8" rx="1"/>
<line x1="597.5416666666666" y1="206.7713378987807" x2="597.5416666666666" y2="254.11057290796728" stroke="#ff4444" stroke-width="0.5" opacity="0.6"/>
<rect x="595.0479166666667" y="221.8815099381994" width="4.987500000000001" height="29.69577417738435" fill="#ff4444" opacity="0.8" rx="1"/>
<line x1="608.625" y1="208.05077668281277" x2="608.625" y2="233.6395523634542" stroke="#ff4444" stroke-width="0.5" opacity="0.6"/>
<rect x="606.13125" y="211.3133455820945" width="4.987500000000001" height="10.568164356104887" fill="#ff4444" opacity="0.8" rx="1"/>
<line x1="619.7083333333334" y1="202.9330215466845" x2="619.7083333333334" y2="250.9119759478871" stroke="#ff4444" stroke-width="0.5" opacity="0.6"/>
<rect x="617.2145833333334" y="211.889093034909" width="4.987500000000001" height="12.807182228160997" fill="#ff4444" opacity="0.8" rx="1"/>
<line x1="630.7916666666666" y1="196.9708368130951" x2="630.7916666666666" y2="234.36883247035252" stroke="#44aa44" stroke-width="0.5" opacity="0.6"/>
<rect x="628.2979166666667" y="211.889093034909" width="4.987500000000001" height="21.238683814932358" fill="#44aa44" opacity="0.8" rx="1"/>
<line x1="641.875" y1="160.9162518790713" x2="641.875" y2="245.1545014197428" stroke="#ff4444" stroke-width="0.5" opacity="0.6"/>
<rect x="639.38125" y="197.81526641055623" width="4.987500000000001" height="28.403541005511983" fill="#ff4444" opacity="0.8" rx="1"/>
<line x1="652.9583333333334" y1="157.80721563387345" x2="652.9583333333334" y2="196.84289293469186" stroke="#44aa44" stroke-width="0.5" opacity="0.6"/>
<rect x="650.4645833333334" y="186.3003173542676" width="4.987500000000001" height="3.8766995156171333" fill="#44aa44" opacity="0.8" rx="1"/>
<line x1="664.0416666666666" y1="152.81740437614837" x2="664.0416666666666" y2="211.24937364289295" stroke="#ff4444" stroke-width="0.5" opacity="0.6"/>
<rect x="661.5479166666667" y="162.37481209286784" width="4.987500000000001" height="37.999331885752525" fill="#ff4444" opacity="0.8" rx="1"/>
<line x1="675.125" y1="110.8134290963755" x2="675.125" y2="169.6676131618507" stroke="#ff4444" stroke-width="0.5" opacity="0.6"/>
<rect x="672.63125" y="115.93118423250378" width="4.987500000000001" height="48.61867379321863" fill="#ff4444" opacity="0.8" rx="1"/>
<line x1="686.2083333333334" y1="32.0" x2="686.2083333333334" y2="115.03557708368128" stroke="#ff4444" stroke-width="0.5" opacity="0.6"/>
<rect x="683.7145833333334" y="106.9879071321196" width="4.987500000000001" height="7.919726073158586" fill="#ff4444" opacity="0.8" rx="1"/>
<line x1="697.2916666666666" y1="94.1807249039586" x2="697.2916666666666" y2="140.24052112911312" stroke="#ff4444" stroke-width="0.5" opacity="0.6"/>
<rect x="694.7979166666667" y="99.29848004008689" width="4.987500000000001" height="7.638249540671481" fill="#ff4444" opacity="0.8" rx="1"/>
<line x1="708.375" y1="35.26256889928187" x2="708.375" y2="154.17360948722234" stroke="#ff4444" stroke-width="0.5" opacity="0.6"/>
<rect x="705.88125" y="61.9516619341907" width="4.987500000000001" height="61.48982796058133" fill="#ff4444" opacity="0.8" rx="1"/>
<line x1="719.4583333333334" y1="58.35643895106065" x2="719.4583333333334" y2="115.08675463504265" stroke="#44aa44" stroke-width="0.5" opacity="0.3" stroke-dasharray="4,3"/>
<rect x="716.9645833333334" y="72.43026557541342" width="4.987500000000001" height="25.268915984633367" fill="#44aa44" opacity="0.4" stroke-dasharray="4,3" rx="1"/>
<text x="739.4583333333334" y="91.69918156004678" font-family="sans-serif" font-size="9" fill="#ffd700" opacity="0.8">🕐 盘中</text>
<line x1="486.70833333333337" y1="382.0544513111742" x2="486.70833333333337" y2="347.0544513111742" stroke="#4ecdc4" stroke-width="0.8" stroke-dasharray="2,2" opacity="0.7"/>
<rect x="450.70833333333337" y="338.0544513111742" width="72" height="16" fill="#4ecdc4" opacity="0.85" rx="3"/>
<text x="486.70833333333337" y="350.0544513111742" text-anchor="middle" font-family="sans-serif" font-size="9" fill="#000000" font-weight="bold">B1乖离买入</text>
<polygon points="486.70833333333337,388.0544513111742 482.70833333333337,382.0544513111742 490.70833333333337,382.0544513111742" fill="#4ecdc4" opacity="0.9"/>
<line x1="542.125" y1="312.70886921663606" x2="542.125" y2="262.70886921663606" stroke="#4ecdc4" stroke-width="0.8" stroke-dasharray="2,2" opacity="0.7"/>
<rect x="506.125" y="253.70886921663606" width="72" height="16" fill="#4ecdc4" opacity="0.85" rx="3"/>
<text x="542.125" y="265.70886921663606" text-anchor="middle" font-family="sans-serif" font-size="9" fill="#000000" font-weight="bold">B2乖离买入</text>
<polygon points="542.125,318.70886921663606 538.125,312.70886921663606 546.125,312.70886921663606" fill="#4ecdc4" opacity="0.9"/>
<line x1="586.4583333333334" y1="267.9285117755136" x2="586.4583333333334" y2="202.92851177551358" stroke="#4ecdc4" stroke-width="0.8" stroke-dasharray="2,2" opacity="0.7"/>
<rect x="550.4583333333334" y="193.92851177551358" width="72" height="16" fill="#4ecdc4" opacity="0.85" rx="3"/>
<text x="586.4583333333334" y="205.92851177551358" text-anchor="middle" font-family="sans-serif" font-size="9" fill="#000000" font-weight="bold">B3乖离买入</text>
<polygon points="586.4583333333334,273.9285117755136 582.4583333333334,267.9285117755136 590.4583333333334,267.9285117755136" fill="#4ecdc4" opacity="0.9"/>
<line x1="630.7916666666666" y1="234.36883247035252" x2="630.7916666666666" y2="154.36883247035252" stroke="#4ecdc4" stroke-width="0.8" stroke-dasharray="2,2" opacity="0.7"/>
<rect x="594.7916666666666" y="145.36883247035252" width="72" height="16" fill="#4ecdc4" opacity="0.85" rx="3"/>
<text x="630.7916666666666" y="157.36883247035252" text-anchor="middle" font-family="sans-serif" font-size="9" fill="#000000" font-weight="bold">B4乖离买入</text>
<polygon points="630.7916666666666,240.36883247035252 626.7916666666666,234.36883247035252 634.7916666666666,234.36883247035252" fill="#4ecdc4" opacity="0.9"/>
<line x1="719.4583333333334" y1="115.08675463504265" x2="719.4583333333334" y2="20.086754635042652" stroke="#4ecdc4" stroke-width="0.8" stroke-dasharray="2,2" opacity="0.7"/>
<rect x="683.4583333333334" y="11.086754635042652" width="72" height="16" fill="#4ecdc4" opacity="0.85" rx="3"/>
<text x="719.4583333333334" y="23.086754635042652" text-anchor="middle" font-family="sans-serif" font-size="9" fill="#000000" font-weight="bold">B5乖离买入</text>
<polygon points="719.4583333333334,121.08675463504265 715.4583333333334,115.08675463504265 723.4583333333334,115.08675463504265" fill="#4ecdc4" opacity="0.9"/>
<text x="375.0" y="435" text-anchor="middle" font-family="sans-serif" font-size="10" fill="#aaaaaa">✅ BIAS5=0.84%，乖离率买入区，趋势健康可持股</text>
<rect x="60" y="443" width="665" height="55" fill="#111122" opacity="0.5" rx="2"/>
<rect x="60" y="443" width="665" height="16.96666666666664" fill="#e94560" opacity="0.18" rx="2"/>
<rect x="60" y="459.96666666666664" width="665" height="9.400000000000034" fill="#ffd700" opacity="0.12"/>
<rect x="60" y="469.3666666666667" width="665" height="30.633333333333326" fill="#4ecdc4" opacity="0.14"/>
<text x="670" y="454.48333333333335" text-anchor="end" font-family="sans-serif" font-size="9" fill="#e94560" font-weight="bold">⚠️ 警戒区</text>
<text x="670" y="467.66666666666663" text-anchor="end" font-family="sans-serif" font-size="9" fill="#ffd700">持有区</text>
<text x="670" y="487.68333333333334" text-anchor="end" font-family="sans-serif" font-size="9" fill="#4ecdc4">买入区</text>
<line x1="60" y1="472.5" x2="725" y2="472.5" stroke="#888888" stroke-width="0.5" stroke-dasharray="3,2" opacity="0.5"/>
<text x="56" y="475.5" text-anchor="end" font-family="sans-serif" font-size="7" fill="#888888">0%</text>
<line x1="60" y1="469.3666666666667" x2="725" y2="469.3666666666667" stroke="#4ecdc4" stroke-width="0.5" stroke-dasharray="3,2" opacity="0.5"/>
<text x="56" y="472.3666666666667" text-anchor="end" font-family="sans-serif" font-size="7" fill="#4ecdc4">2%</text>
<line x1="60" y1="459.96666666666664" x2="725" y2="459.96666666666664" stroke="#e94560" stroke-width="0.5" stroke-dasharray="3,2" opacity="0.5"/>
<text x="56" y="462.96666666666664" text-anchor="end" font-family="sans-serif" font-size="7" fill="#e94560">8%</text>
<text x="60" y="445" font-family="sans-serif" font-size="8" fill="#888888">BIAS5</text>
<polyline points="65.54166666666667,472.5 76.625,476.1744755019637 87.70833333333334,476.3095770067432 98.79166666666667,479.48891779286424 109.87500000000001,476.6223653103059 120.95833333333334,471.29202379338807 132.04166666666666,471.898987569244 143.125,474.9891281709057 154.20833333333334,473.1707874261819 165.29166666666666,471.81315067629936 176.375,472.95101377149035 187.45833333333334,472.82602797363614 198.54166666666666,473.44176025830626 209.625,474.2125072903894 220.70833333333334,470.79297883358623 231.79166666666666,471.5520774118592 242.875,470.2702049352773 253.95833333333334,476.56410178279594 265.0416666666667,475.3239076912342 276.12500000000006,469.7410128899861 287.20833333333337,474.8196287756311 298.2916666666667,472.4618159302523 309.37500000000006,468.8595758540903 320.45833333333337,475.0723934822414 331.5416666666667,473.4062783211986 342.62500000000006,476.03151790319475 353.70833333333337,477.6290541164972 364.7916666666667,476.5320432877312 375.87500000000006,465.76224183037806 386.95833333333337,466.0629663527048 398.0416666666667,467.36291922536134 409.12500000000006,470.0869936009091 420.20833333333337,468.89088056345923 431.2916666666667,471.5610561595116 442.37500000000006,472.1928680222827 453.45833333333337,473.102995279113 464.5416666666667,472.6097750128544 475.62500000000006,477.2670535490144 486.70833333333337,469.5031819847151 497.7916666666667,471.16481781667164 508.87500000000006,472.12038008789915 519.9583333333334,462.9042550294568 531.0416666666666,466.0330069505886 542.125,469.58286552238155 553.2083333333334,465.25230769382983 564.2916666666666,466.1003966713654 575.375,466.97909221563214 586.4583333333334,471.04880691310143 597.5416666666666,465.38249792265225 608.625,466.30641148044936 619.7083333333334,468.5065234581684 630.7916666666666,472.89838138025084 641.875,467.7443773640672 652.9583333333334,468.30137243729286 664.0416666666666,465.9438386010594 675.125,462.11143038432897 686.2083333333334,464.59231889359785 697.2916666666666,466.3564997509078 708.375,463.91057875345365 719.4583333333334,471.18802140564367" fill="none" stroke="#4ecdc4" stroke-width="1.5" opacity="0.9"/>
<circle cx="719.4583333333334" cy="471.18802140564367" r="3" fill="#4ecdc4" opacity="1"/>
<text x="724.4583333333334" y="474.18802140564367" font-family="sans-serif" font-size="9" fill="#4ecdc4" font-weight="bold">BIAS5=0.8%</text>
<text x="65.54166666666667" y="489" text-anchor="middle" font-family="sans-serif" font-size="8" fill="#666666" transform="rotate(-45,65.54166666666667,489)">02/26</text>
<text x="120.95833333333334" y="489" text-anchor="middle" font-family="sans-serif" font-size="8" fill="#666666" transform="rotate(-45,120.95833333333334,489)">03/05</text>
<text x="176.375" y="489" text-anchor="middle" font-family="sans-serif" font-size="8" fill="#666666" transform="rotate(-45,176.375,489)">03/12</text>
<text x="231.79166666666666" y="489" text-anchor="middle" font-family="sans-serif" font-size="8" fill="#666666" transform="rotate(-45,231.79166666666666,489)">03/19</text>
<text x="287.20833333333337" y="489" text-anchor="middle" font-family="sans-serif" font-size="8" fill="#666666" transform="rotate(-45,287.20833333333337,489)">03/26</text>
<text x="342.62500000000006" y="489" text-anchor="middle" font-family="sans-serif" font-size="8" fill="#666666" transform="rotate(-45,342.62500000000006,489)">04/02</text>
<text x="398.0416666666667" y="489" text-anchor="middle" font-family="sans-serif" font-size="8" fill="#666666" transform="rotate(-45,398.0416666666667,489)">04/10</text>
<text x="453.45833333333337" y="489" text-anchor="middle" font-family="sans-serif" font-size="8" fill="#666666" transform="rotate(-45,453.45833333333337,489)">04/17</text>
<text x="508.87500000000006" y="489" text-anchor="middle" font-family="sans-serif" font-size="8" fill="#666666" transform="rotate(-45,508.87500000000006,489)">04/24</text>
<text x="564.2916666666666" y="489" text-anchor="middle" font-family="sans-serif" font-size="8" fill="#666666" transform="rotate(-45,564.2916666666666,489)">05/06</text>
<text x="619.7083333333334" y="489" text-anchor="middle" font-family="sans-serif" font-size="8" fill="#666666" transform="rotate(-45,619.7083333333334,489)">05/13</text>
<text x="675.125" y="489" text-anchor="middle" font-family="sans-serif" font-size="8" fill="#666666" transform="rotate(-45,675.125,489)">05/20</text>
<text x="719.4583333333334" y="489" text-anchor="middle" font-family="sans-serif" font-size="8" fill="#666666" transform="rotate(-45,719.4583333333334,489)">05/26</text>
<rect x="60" y="484" width="8" height="8" fill="#4ecdc4" opacity="0.8" rx="1"/>
<text x="71" y="491" font-family="sans-serif" font-size="9" fill="#888888">买入区(BIAS&lt;2%)</text>
<rect x="230" y="484" width="8" height="8" fill="#ffd700" opacity="0.8" rx="1"/>
<text x="241" y="491" font-family="sans-serif" font-size="9" fill="#888888">持有区(2-8%)</text>
<rect x="400" y="484" width="8" height="8" fill="#e94560" opacity="0.8" rx="1"/>
<text x="411" y="491" font-family="sans-serif" font-size="9" fill="#888888">警戒区(&gt;8%)</text>
<rect x="570" y="484" width="8" height="8" fill="#ffd700" opacity="0.8" rx="1"/>
<text x="581" y="491" font-family="sans-serif" font-size="9" fill="#888888">EMA5</text>
<rect x="60" y="497" width="8" height="8" fill="#ff6b6b" opacity="0.8" rx="1"/>
<text x="71" y="504" font-family="sans-serif" font-size="9" fill="#888888">EMA10</text>
<rect x="230" y="497" width="8" height="8" fill="#4ecdc4" opacity="0.8" rx="1"/>
<text x="241" y="504" font-family="sans-serif" font-size="9" fill="#888888">EMA20</text>
<rect x="400" y="497" width="8" height="8" fill="#4ecdc4" opacity="0.8" rx="1"/>
<text x="411" y="504" font-family="sans-serif" font-size="9" fill="#888888">B乖离买入</text>
<rect x="570" y="497" width="8" height="8" fill="#e94560" opacity="0.8" rx="1"/>
<text x="581" y="504" font-family="sans-serif" font-size="9" fill="#888888">W警戒⚠️</text>
</svg>