<svg xmlns="http://www.w3.org/2000/svg" width="750" height="540" viewBox="0 0 750 540">
<rect width="750" height="540" fill="#1a1a2e"/>
<text x="375.0" y="22" text-anchor="middle" font-family="sans-serif" font-size="15" fill="#ffffff" font-weight="bold">绿的谐波(688017) 趋势交易分析图</text>
<text x="60" y="31" font-family="sans-serif" font-size="10" fill="#888888">最新: 338.47</text>
<line x1="60" y1="108.82949206855524" x2="725" y2="108.82949206855524" stroke="#4ecdc4" stroke-width="0.5" stroke-dasharray="4,3" opacity="0.4"/>
<text x="62" y="106.82949206855524" font-family="sans-serif" font-size="7" fill="#4ecdc4" opacity="0.6">买入↑2%</text>
<line x1="60" y1="71.72508635153673" x2="725" y2="71.72508635153673" stroke="#e94560" stroke-width="0.5" stroke-dasharray="4,3" opacity="0.4"/>
<text x="62" y="69.72508635153673" font-family="sans-serif" font-size="7" fill="#e94560" opacity="0.6">警戒↑8%</text>
<rect x="60" y="108.82949206855524" width="3" height="274.1705079314448" fill="#4ecdc4" opacity="0.3" rx="1"/>
<rect x="60" y="71.72508635153673" width="3" height="311.27491364846327" fill="#e94560" opacity="0.3" rx="1"/>
<rect x="60" y="71.72508635153673" width="3" height="37.10440571701851" fill="#ffd700" opacity="0.2" rx="1"/>
<line x1="60" y1="32.0" x2="725" y2="32.0" stroke="#2a2a4e" stroke-width="0.5"/>
<text x="56" y="35.0" text-anchor="end" font-family="sans-serif" font-size="8" fill="#666666">383.9</text>
<line x1="60" y1="127.74999999999999" x2="725" y2="127.74999999999999" stroke="#2a2a4e" stroke-width="0.5"/>
<text x="56" y="130.75" text-anchor="end" font-family="sans-serif" font-size="8" fill="#666666">331.9</text>
<line x1="60" y1="223.49999999999997" x2="725" y2="223.49999999999997" stroke="#2a2a4e" stroke-width="0.5"/>
<text x="56" y="226.49999999999997" text-anchor="end" font-family="sans-serif" font-size="8" fill="#666666">280.0</text>
<line x1="60" y1="319.25" x2="725" y2="319.25" stroke="#2a2a4e" stroke-width="0.5"/>
<text x="56" y="322.25" text-anchor="end" font-family="sans-serif" font-size="8" fill="#666666">228.0</text>
<line x1="60" y1="415.0" x2="725" y2="415.0" stroke="#2a2a4e" stroke-width="0.5"/>
<text x="56" y="418.0" text-anchor="end" font-family="sans-serif" font-size="8" fill="#666666">176.1</text>
<rect x="61.66250000000001" y="459.73513777412273" width="6.095833333333334" height="15.264862225877263" fill="#ff4444" opacity="0.35"/>
<rect x="72.74583333333334" y="465.0495383097902" width="6.095833333333334" height="9.950461690209782" fill="#44aa44" opacity="0.35"/>
<rect x="83.82916666666668" y="460.363425290412" width="6.095833333333334" height="14.636574709587975" fill="#ff4444" opacity="0.35"/>
<rect x="94.91250000000001" y="456.8574259885686" width="6.095833333333334" height="18.142574011431382" fill="#44aa44" opacity="0.35"/>
<rect x="105.99583333333335" y="464.8374974688718" width="6.095833333333334" height="10.162502531128219" fill="#ff4444" opacity="0.35"/>
<rect x="117.07916666666668" y="467.34304383851963" width="6.095833333333334" height="7.656956161480391" fill="#44aa44" opacity="0.35"/>
<rect x="128.1625" y="468.7698272124545" width="6.095833333333334" height="6.230172787545483" fill="#44aa44" opacity="0.35"/>
<rect x="139.24583333333334" y="464.66490645074333" width="6.095833333333334" height="10.335093549256687" fill="#ff4444" opacity="0.35"/>
<rect x="150.32916666666668" y="465.53651744087097" width="6.095833333333334" height="9.46348255912902" fill="#ff4444" opacity="0.35"/>
<rect x="161.4125" y="466.8752339507837" width="6.095833333333334" height="8.124766049216312" fill="#44aa44" opacity="0.35"/>
<rect x="172.49583333333334" y="468.3685305294437" width="6.095833333333334" height="6.6314694705563015" fill="#44aa44" opacity="0.35"/>
<rect x="183.57916666666668" y="466.99695568941723" width="6.095833333333334" height="8.003044310582787" fill="#44aa44" opacity="0.35"/>
<rect x="194.6625" y="466.21175238547187" width="6.095833333333334" height="8.788247614528116" fill="#ff4444" opacity="0.35"/>
<rect x="205.74583333333334" y="468.8531861158766" width="6.095833333333334" height="6.1468138841233975" fill="#44aa44" opacity="0.35"/>
<rect x="216.82916666666668" y="469.0899859250637" width="6.095833333333334" height="5.910014074936302" fill="#ff4444" opacity="0.35"/>
<rect x="227.9125" y="468.67953593705164" width="6.095833333333334" height="6.320464062948383" fill="#44aa44" opacity="0.35"/>
<rect x="238.99583333333334" y="468.71239948470577" width="6.095833333333334" height="6.287600515294225" fill="#44aa44" opacity="0.35"/>
<rect x="250.07916666666668" y="463.31850276467526" width="6.095833333333334" height="11.681497235324736" fill="#44aa44" opacity="0.35"/>
<rect x="261.1625" y="467.248188954467" width="6.095833333333334" height="7.751811045532978" fill="#44aa44" opacity="0.35"/>
<rect x="272.2458333333334" y="466.45573153021763" width="6.095833333333334" height="8.544268469782367" fill="#ff4444" opacity="0.35"/>
<rect x="283.3291666666667" y="466.104269314527" width="6.095833333333334" height="8.895730685473001" fill="#ff4444" opacity="0.35"/>
<rect x="294.4125" y="468.1157650467032" width="6.095833333333334" height="6.884234953296803" fill="#ff4444" opacity="0.35"/>
<rect x="305.4958333333334" y="467.8131077036984" width="6.095833333333334" height="7.186892296301633" fill="#ff4444" opacity="0.35"/>
<rect x="316.5791666666667" y="467.79460630552177" width="6.095833333333334" height="7.205393694478228" fill="#44aa44" opacity="0.35"/>
<rect x="327.6625" y="458.92547116253013" width="6.095833333333334" height="16.07452883746989" fill="#ff4444" opacity="0.35"/>
<rect x="338.7458333333334" y="467.05837831391455" width="6.095833333333334" height="7.941621686085441" fill="#44aa44" opacity="0.35"/>
<rect x="349.8291666666667" y="467.21500365848965" width="6.095833333333334" height="7.784996341510379" fill="#44aa44" opacity="0.35"/>
<rect x="360.9125" y="469.6971563162674" width="6.095833333333334" height="5.302843683732578" fill="#44aa44" opacity="0.35"/>
<rect x="371.9958333333334" y="462.5323637818223" width="6.095833333333334" height="12.467636218177661" fill="#ff4444" opacity="0.35"/>
<rect x="383.0791666666667" y="468.07810484026254" width="6.095833333333334" height="6.921895159737483" fill="#44aa44" opacity="0.35"/>
<rect x="394.1625" y="466.2280032845659" width="6.095833333333334" height="8.771996715434106" fill="#ff4444" opacity="0.35"/>
<rect x="405.2458333333334" y="468.1242313755548" width="6.095833333333334" height="6.87576862444517" fill="#ff4444" opacity="0.35"/>
<rect x="416.3291666666667" y="467.30547233026533" width="6.095833333333334" height="7.694527669734663" fill="#ff4444" opacity="0.35"/>
<rect x="427.4125" y="464.6079674326099" width="6.095833333333334" height="10.392032567390125" fill="#44aa44" opacity="0.35"/>
<rect x="438.4958333333334" y="466.2945077933904" width="6.095833333333334" height="8.70549220660963" fill="#44aa44" opacity="0.35"/>
<rect x="449.5791666666667" y="464.88651799989316" width="6.095833333333334" height="10.113482000106835" fill="#ff4444" opacity="0.35"/>
<rect x="460.6625" y="464.3962170347724" width="6.095833333333334" height="10.603782965227579" fill="#44aa44" opacity="0.35"/>
<rect x="471.7458333333334" y="466.14375913845987" width="6.095833333333334" height="8.856240861540142" fill="#ff4444" opacity="0.35"/>
<rect x="482.8291666666667" y="463.1724551136244" width="6.095833333333334" height="11.827544886375636" fill="#ff4444" opacity="0.35"/>
<rect x="493.9125" y="457.8403688552592" width="6.095833333333334" height="17.159631144740782" fill="#44aa44" opacity="0.35"/>
<rect x="504.9958333333334" y="465.7842584322285" width="6.095833333333334" height="9.2157415677715" fill="#ff4444" opacity="0.35"/>
<rect x="516.0791666666667" y="462.61705837558094" width="6.095833333333334" height="12.382941624419082" fill="#ff4444" opacity="0.35"/>
<rect x="527.1624999999999" y="464.41210270604006" width="6.095833333333334" height="10.587897293959951" fill="#44aa44" opacity="0.35"/>
<rect x="538.2458333333333" y="463.85129016108533" width="6.095833333333334" height="11.148709838914652" fill="#ff4444" opacity="0.35"/>
<rect x="549.3291666666667" y="460.4882636398307" width="6.095833333333334" height="14.511736360169298" fill="#ff4444" opacity="0.35"/>
<rect x="560.4124999999999" y="461.685784811243" width="6.095833333333334" height="13.314215188756947" fill="#44aa44" opacity="0.35"/>
<rect x="571.4958333333333" y="463.0945137562937" width="6.095833333333334" height="11.905486243706342" fill="#ff4444" opacity="0.35"/>
<rect x="582.5791666666667" y="446.33812891548456" width="6.095833333333334" height="28.661871084515457" fill="#ff4444" opacity="0.35"/>
<rect x="593.6624999999999" y="449.37113731199776" width="6.095833333333334" height="25.628862688002265" fill="#ff4444" opacity="0.35"/>
<rect x="604.7458333333333" y="454.9885708535772" width="6.095833333333334" height="20.011429146422817" fill="#ff4444" opacity="0.35"/>
<rect x="615.8291666666667" y="456.65769506457946" width="6.095833333333334" height="18.342304935420515" fill="#ff4444" opacity="0.35"/>
<rect x="626.9124999999999" y="453.9306588883906" width="6.095833333333334" height="21.0693411116094" fill="#44aa44" opacity="0.35"/>
<rect x="637.9958333333333" y="440.0" width="6.095833333333334" height="35.0" fill="#ff4444" opacity="0.35"/>
<rect x="649.0791666666667" y="446.09787857292815" width="6.095833333333334" height="28.90212142707183" fill="#ff4444" opacity="0.35"/>
<rect x="660.1624999999999" y="450.8213961392686" width="6.095833333333334" height="24.178603860731425" fill="#ff4444" opacity="0.35"/>
<rect x="671.2458333333333" y="457.0800097394087" width="6.095833333333334" height="17.919990260591298" fill="#ff4444" opacity="0.35"/>
<rect x="682.3291666666667" y="442.9916072136223" width="6.095833333333334" height="32.00839278637775" fill="#ff4444" opacity="0.35"/>
<rect x="693.4124999999999" y="451.9857772333868" width="6.095833333333334" height="23.01422276661321" fill="#ff4444" opacity="0.35"/>
<rect x="704.4958333333333" y="453.6882606583791" width="6.095833333333334" height="21.31173934162094" fill="#ff4444" opacity="0.35"/>
<rect x="715.5791666666667" y="442.4359391634792" width="6.095833333333334" height="32.564060836520795" fill="#44aa44" opacity="0.25" stroke-dasharray="3,2"/>
<polyline points="65.54166666666667,302.68798729425356 76.625,305.5512400936888 87.70833333333334,310.42163720174113 98.79166666666667,324.7099104109403 109.87500000000001,333.2400461551807 120.95833333333334,337.82697016114304 132.04166666666666,341.21671274130426 143.125,346.0018563653486 154.20833333333334,344.60828990789014 165.29166666666666,348.04171231450385 176.375,352.78224399110474 187.45833333333334,360.0654367005863 198.54166666666666,365.99615438652364 209.625,373.47680546228986 220.70833333333334,375.82799319457945 231.79166666666666,380.5597761285004 242.875,385.9446859947374 253.95833333333334,392.69280603197785 265.0416666666667,396.50953327982916 276.12500000000006,395.3797151630985 287.20833333333337,394.423740547979 298.2916666666667,394.1796605738732 309.37500000000006,391.8049856387826 320.45833333333337,392.74103993334694 331.5416666666667,384.2530505898894 342.62500000000006,383.81091812355123 353.70833333333337,387.32564111949006 364.7916666666667,390.6764581506325 375.87500000000006,381.9795921151809 386.95833333333337,378.7438625780226 398.0416666666667,373.68659083794245 409.12500000000006,370.9417969143892 420.20833333333337,366.7033611283466 431.2916666666667,364.12351004346857 442.37500000000006,361.4942500620268 453.45833333333337,356.65696177972836 464.5416666666667,354.8022861314594 475.62500000000006,351.99903427469644 486.70833333333337,346.03193872235516 497.7916666666667,352.01996094500896 508.87500000000006,355.09647218260966 519.9583333333334,351.9002309818161 531.0416666666666,353.5481598915576 542.125,350.12456015101816 553.2083333333334,342.2446854306753 564.2916666666666,335.3386137221603 575.375,328.47960072894557 586.4583333333334,303.9317433165217 597.5416666666666,282.64490527258596 608.625,266.6902602673915 619.7083333333334,252.5024137015388 630.7916666666666,252.04527711651986 641.875,226.8560261791975 652.9583333333334,199.38436525656516 664.0416666666666,179.0484435877983 675.125,167.03338662262237 686.2083333333334,152.0556905459251 697.2916666666666,137.76953630966185 708.375,123.94440996702129 719.4583333333334,121.1976273075614" fill="none" stroke="#ffd700" stroke-width="1" opacity="0.7"/>
<polyline points="65.54166666666667,302.68798729425356 76.625,304.24976154849094 87.70833333333334,307.14297425201 98.79166666666667,315.53269835697887 109.87500000000001,321.8540836818303 120.95833333333334,326.42621722569163 132.04166666666666,330.3480318940434 143.125,334.93423402484234 154.20833333333334,336.1864018372297 165.29166666666666,339.5904300718664 176.375,343.7127713941282 187.45833333333334,349.3344169805684 198.54166666666666,354.52044839471927 209.625,360.6872955254653 220.70833333333334,364.29512700431866 231.79166666666666,368.97298427559565 242.875,374.01689726679854 253.95833333333334,379.86637887400946 265.0416666666667,384.28030776519535 276.12500000000006,385.8875388860029 287.20833333333337,387.091948419046 298.2916666666667,388.2918670020671 309.37500000000006,388.0670976868915 320.45833333333337,389.25728874790684 331.5416666666667,385.2608856851918 342.62500000000006,384.8364797771342 353.70833333333337,386.5671356560857 364.7916666666667,388.53276412096426 375.87500000000006,384.17878156156667 386.95833333333337,382.0139855510465 398.0416666666667,378.6609058795439 409.12500000000006,376.259324640951 420.20833333333337,372.9806273528256 431.2916666666667,370.4321147202596 442.37500000000006,367.85095388005664 453.45833333333337,364.05666866825203 464.5416666666667,361.69962615310106 475.62500000000006,358.9165178636591 486.70833333333337,354.4040141825706 497.7916666666667,356.148012583979 508.87500000000006,357.0755547792212 519.9583333333334,354.97231728849533 531.0416666666666,355.31262645623076 542.125,353.12439631326873 553.2083333333334,348.28085807267246 564.2916666666666,343.4164239331194 575.375,338.2064513530097 586.4583333333334,323.04819265094864 597.5416666666666,307.9614720207243 608.625,294.65592624550214 619.7083333333334,281.83243430447146 630.7916666666666,276.2503560575643 641.875,258.10984119338036 652.9583333333334,237.44278705118404 664.0416666666666,219.43075308738054 675.125,205.53484756099695 686.2083333333334,190.36492953036665 697.2916666666666,175.60716558614274 708.375,161.18661862170595 719.4583333333334,152.91706287023976" fill="none" stroke="#ff6b6b" stroke-width="1" opacity="0.7"/>
<polyline points="65.54166666666667,302.68798729425356 76.625,303.50605952266363 87.70833333333334,305.09238065553814 98.79166666666667,309.68229267209057 109.87500000000001,313.55067600271633 120.95833333333334,316.73640382846406 132.04166666666666,319.71352707352713 143.125,323.12863341066145 154.20833333333334,324.908873751834 165.29166666666666,327.7659864543004 176.375,331.0514455866819 187.45833333333334,335.2019576374312 198.54166666666666,339.264398791809 209.625,343.9476091558103 220.70833333333334,347.4316814894625 231.79166666666666,351.4880301091653 242.875,355.7953135013602 253.95833333333334,360.5947166066077 265.0416666666667,364.7421710036481 276.12500000000006,367.4448289013613 287.20833333333337,369.8321586553021 298.2916666666667,372.1044769381935 309.37500000000006,373.52839682680377 320.45833333333337,375.5364684168678 331.5416666666667,374.7498592250684 342.62500000000006,375.5286015075262 353.70833333333337,377.32160013646353 364.7916666666667,379.2317422389829 375.87500000000006,377.83689631567773 386.95833333333337,377.30694461929943 398.0416666666667,375.99885916582156 409.12500000000006,374.9944162992941 420.20833333333337,373.3974708951957 431.2916666666667,372.0228363217211 442.37500000000006,370.5193023957613 453.45833333333337,368.2776912357013 464.5416666666667,366.6410477689604 475.62500000000006,364.71261755869466 486.70833333333337,361.7969156595497 497.7916666666667,362.0063527767656 508.87500000000006,361.9342710511509 519.9583333333334,360.36984033963455 531.0416666666666,360.03404770833987 542.125,358.43817275230174 553.2083333333334,355.3950073463672 564.2916666666666,352.16943239005894 575.375,348.60677928076916 586.4583333333334,339.6762315865696 597.5416666666666,330.19004088163103 608.625,321.1034627269045 619.7083333333334,311.8675825214692 630.7916666666666,306.0831464667085 641.875,293.73975387983654 652.9583333333334,279.5208290733093 664.0416666666666,266.0785215663527 675.125,254.35706929263063 686.2083333333334,241.76118634976393 697.2916666666666,229.13604744379933 708.375,216.48443885693655 719.4583333333334,206.88630772662276" fill="none" stroke="#4ecdc4" stroke-width="1" opacity="0.7"/>
<line x1="65.54166666666667" y1="289.93238040234866" x2="65.54166666666667" y2="313.98739050919244" stroke="#ff4444" stroke-width="0.5" opacity="0.6"/>
<rect x="63.04791666666667" y="302.68798729425356" width="4.987500000000001" height="7.428482048320291" fill="#ff4444" opacity="0.8" rx="1"/>
<line x1="76.625" y1="301.08431995379726" x2="76.625" y2="316.93666377899694" stroke="#44aa44" stroke-width="0.5" opacity="0.6"/>
<rect x="74.13125" y="310.11646934257385" width="4.987500000000001" height="1.1612763499855987" fill="#44aa44" opacity="0.8" rx="1"/>
<line x1="87.70833333333334" y1="306.4298777553181" x2="87.70833333333334" y2="329.74756954471076" stroke="#ff4444" stroke-width="0.5" opacity="0.6"/>
<rect x="85.21458333333334" y="320.16243141784577" width="4.987500000000001" height="6.543700067379007" fill="#ff4444" opacity="0.8" rx="1"/>
<line x1="98.79166666666667" y1="317.48965251708535" x2="98.79166666666667" y2="354.26340359996146" stroke="#44aa44" stroke-width="0.5" opacity="0.6"/>
<rect x="96.29791666666667" y="321.3605736837039" width="4.987500000000001" height="31.92588314563477" fill="#44aa44" opacity="0.8" rx="1"/>
<line x1="109.87500000000001" y1="343.516989123111" x2="109.87500000000001" y2="354.5214650110694" stroke="#ff4444" stroke-width="0.5" opacity="0.6"/>
<rect x="107.38125000000001" y="350.3003176436616" width="4.987500000000001" height="4.221147367407809" fill="#ff4444" opacity="0.8" rx="1"/>
<line x1="120.95833333333334" y1="337.43411300413896" x2="120.95833333333334" y2="349.45240157859274" stroke="#44aa44" stroke-width="0.5" opacity="0.6"/>
<rect x="118.46458333333334" y="337.8580710366734" width="4.987500000000001" height="9.142747136394291" fill="#44aa44" opacity="0.8" rx="1"/>
<line x1="132.04166666666666" y1="339.83039753585524" x2="132.04166666666666" y2="349.3971027047839" stroke="#44aa44" stroke-width="0.5" opacity="0.6"/>
<rect x="129.54791666666665" y="347.60910578496487" width="4.987500000000001" height="0.5" fill="#44aa44" opacity="0.8" rx="1"/>
<line x1="143.125" y1="353.1389931658485" x2="143.125" y2="370.76090095293097" stroke="#ff4444" stroke-width="0.5" opacity="0.6"/>
<rect x="140.63125" y="355.5721436134373" width="4.987500000000001" height="7.944604870536125" fill="#ff4444" opacity="0.8" rx="1"/>
<line x1="154.20833333333334" y1="339.0562133025315" x2="154.20833333333334" y2="350.66897680238714" stroke="#ff4444" stroke-width="0.5" opacity="0.6"/>
<rect x="151.71458333333334" y="341.82115699297333" width="4.987500000000001" height="6.930792184040854" fill="#ff4444" opacity="0.8" rx="1"/>
<line x1="165.29166666666666" y1="342.28198094138025" x2="165.29166666666666" y2="355.553710655501" stroke="#44aa44" stroke-width="0.5" opacity="0.6"/>
<rect x="162.79791666666665" y="343.9225141977091" width="4.987500000000001" height="10.986042930022109" fill="#44aa44" opacity="0.8" rx="1"/>
<line x1="176.375" y1="351.25883145634805" x2="176.375" y2="365.4153431514101" stroke="#44aa44" stroke-width="0.5" opacity="0.6"/>
<rect x="173.88125" y="356.27259601501584" width="4.987500000000001" height="5.990711329290605" fill="#44aa44" opacity="0.8" rx="1"/>
<line x1="187.45833333333334" y1="362.9453267879488" x2="187.45833333333334" y2="375.3691404370007" stroke="#44aa44" stroke-width="0.5" opacity="0.6"/>
<rect x="184.96458333333334" y="366.3185580902878" width="4.987500000000001" height="8.313264029261745" fill="#44aa44" opacity="0.8" rx="1"/>
<line x1="198.54166666666666" y1="374.66868803542206" x2="198.54166666666666" y2="389.9311772066609" stroke="#ff4444" stroke-width="0.5" opacity="0.6"/>
<rect x="196.04791666666665" y="377.85758975839826" width="4.987500000000001" height="1.3640388872846643" fill="#ff4444" opacity="0.8" rx="1"/>
<line x1="209.625" y1="373.7286071806718" x2="209.625" y2="388.4381076138223" stroke="#44aa44" stroke-width="0.5" opacity="0.6"/>
<rect x="207.13125" y="375.6272018481086" width="4.987500000000001" height="12.810905765713699" fill="#44aa44" opacity="0.8" rx="1"/>
<line x1="220.70833333333334" y1="375.5719029742997" x2="220.70833333333334" y2="386.98190393685627" stroke="#ff4444" stroke-width="0.5" opacity="0.6"/>
<rect x="218.21458333333334" y="380.53036865915874" width="4.987500000000001" height="3.686591587255748" fill="#ff4444" opacity="0.8" rx="1"/>
<line x1="231.79166666666666" y1="382.0971700837424" x2="231.79166666666666" y2="391.2214842622004" stroke="#44aa44" stroke-width="0.5" opacity="0.6"/>
<rect x="229.29791666666665" y="389.3413225526999" width="4.987500000000001" height="0.6820194436423321" fill="#44aa44" opacity="0.8" rx="1"/>
<line x1="242.875" y1="383.7930022138801" x2="242.875" y2="396.75137164308404" stroke="#44aa44" stroke-width="0.5" opacity="0.6"/>
<rect x="240.38125" y="384.2169602464145" width="4.987500000000001" height="12.497545480796987" fill="#44aa44" opacity="0.8" rx="1"/>
<line x1="253.95833333333334" y1="382.92665319087496" x2="253.95833333333334" y2="407.75584753104243" stroke="#44aa44" stroke-width="0.5" opacity="0.6"/>
<rect x="251.46458333333334" y="400.97251901049185" width="4.987500000000001" height="5.21652709596691" fill="#44aa44" opacity="0.8" rx="1"/>
<line x1="265.0416666666667" y1="397.67301953989795" x2="265.0416666666667" y2="415.0" stroke="#44aa44" stroke-width="0.5" opacity="0.6"/>
<rect x="262.5479166666667" y="401.175281547791" width="4.987500000000001" height="2.9677062277407913" fill="#44aa44" opacity="0.8" rx="1"/>
<line x1="276.12500000000006" y1="389.6546828376167" x2="276.12500000000006" y2="402.18909423428624" stroke="#ff4444" stroke-width="0.5" opacity="0.6"/>
<rect x="273.6312500000001" y="393.1200789296371" width="4.987500000000001" height="9.069015304649156" fill="#ff4444" opacity="0.8" rx="1"/>
<line x1="287.20833333333337" y1="383.24001347579167" x2="287.20833333333337" y2="395.6453941669073" stroke="#ff4444" stroke-width="0.5" opacity="0.6"/>
<rect x="284.7145833333334" y="392.5117913177399" width="4.987500000000001" height="0.700452401578616" fill="#ff4444" opacity="0.8" rx="1"/>
<line x1="298.2916666666667" y1="388.8620656463567" x2="298.2916666666667" y2="402.64991818269317" stroke="#ff4444" stroke-width="0.5" opacity="0.6"/>
<rect x="295.7979166666667" y="393.6915006256618" width="4.987500000000001" height="4.8847338531138575" fill="#ff4444" opacity="0.8" rx="1"/>
<line x1="309.37500000000006" y1="385.4704013860814" x2="309.37500000000006" y2="402.28125902396766" stroke="#ff4444" stroke-width="0.5" opacity="0.6"/>
<rect x="306.8812500000001" y="387.0556357686014" width="4.987500000000001" height="15.225623255366258" fill="#ff4444" opacity="0.8" rx="1"/>
<line x1="320.45833333333337" y1="380.4382038694773" x2="320.45833333333337" y2="394.7237462700934" stroke="#44aa44" stroke-width="0.5" opacity="0.6"/>
<rect x="317.9645833333334" y="385.710029839253" width="4.987500000000001" height="8.903118683222658" fill="#44aa44" opacity="0.8" rx="1"/>
<line x1="331.5416666666667" y1="360.4753104244874" x2="331.5416666666667" y2="385.4888343440177" stroke="#ff4444" stroke-width="0.5" opacity="0.6"/>
<rect x="329.0479166666667" y="367.2770719029743" width="4.987500000000001" height="18.21176244104339" fill="#ff4444" opacity="0.8" rx="1"/>
<line x1="342.62500000000006" y1="369.5443257291366" x2="342.62500000000006" y2="384.62248532101256" stroke="#44aa44" stroke-width="0.5" opacity="0.6"/>
<rect x="340.1312500000001" y="370.94523053229375" width="4.987500000000001" height="11.98142265858121" fill="#44aa44" opacity="0.8" rx="1"/>
<line x1="353.70833333333337" y1="380.1617095004332" x2="353.70833333333337" y2="395.8112907883338" stroke="#44aa44" stroke-width="0.5" opacity="0.6"/>
<rect x="351.2145833333334" y="382.94508614881124" width="4.987500000000001" height="11.410000962556524" fill="#44aa44" opacity="0.8" rx="1"/>
<line x1="364.7916666666667" y1="390.31826932332274" x2="364.7916666666667" y2="401.52550774858025" stroke="#44aa44" stroke-width="0.5" opacity="0.6"/>
<rect x="362.2979166666667" y="393.249109635191" width="4.987500000000001" height="4.128982577726447" fill="#44aa44" opacity="0.8" rx="1"/>
<line x1="375.87500000000006" y1="364.49369525459616" x2="375.87500000000006" y2="383.8483010876889" stroke="#ff4444" stroke-width="0.5" opacity="0.6"/>
<rect x="373.3812500000001" y="364.58586004427764" width="4.987500000000001" height="15.575849456155538" fill="#ff4444" opacity="0.8" rx="1"/>
<line x1="386.95833333333337" y1="367.03744344980265" x2="386.95833333333337" y2="375.82996438540766" stroke="#44aa44" stroke-width="0.5" opacity="0.6"/>
<rect x="384.4645833333334" y="370.96366349023" width="4.987500000000001" height="1.3087400134758695" fill="#44aa44" opacity="0.8" rx="1"/>
<line x1="398.0416666666667" y1="356.2357300991433" x2="398.0416666666667" y2="368.95447107517566" stroke="#ff4444" stroke-width="0.5" opacity="0.6"/>
<rect x="395.5479166666667" y="363.57204735778225" width="4.987500000000001" height="3.5022620078929663" fill="#ff4444" opacity="0.8" rx="1"/>
<line x1="409.12500000000006" y1="358.96380787371254" x2="409.12500000000006" y2="370.9083646164212" stroke="#ff4444" stroke-width="0.5" opacity="0.6"/>
<rect x="406.6312500000001" y="365.45220906728275" width="4.987500000000001" height="3.6497256713831234" fill="#ff4444" opacity="0.8" rx="1"/>
<line x1="420.20833333333337" y1="356.47535855231496" x2="420.20833333333337" y2="365.9130330156897" stroke="#ff4444" stroke-width="0.5" opacity="0.6"/>
<rect x="417.7145833333334" y="358.2264895562614" width="4.987500000000001" height="1.3087400134758127" fill="#ff4444" opacity="0.8" rx="1"/>
<line x1="431.2916666666667" y1="345.4708826643565" x2="431.2916666666667" y2="360.10665126576185" stroke="#44aa44" stroke-width="0.5" opacity="0.6"/>
<rect x="428.7979166666667" y="354.3555683896429" width="4.987500000000001" height="4.6082394840696566" fill="#44aa44" opacity="0.8" rx="1"/>
<line x1="442.37500000000006" y1="345.56304745403787" x2="442.37500000000006" y2="363.57204735778225" stroke="#44aa44" stroke-width="0.5" opacity="0.6"/>
<rect x="439.8812500000001" y="348.82568100875926" width="4.987500000000001" height="7.410049090384064" fill="#44aa44" opacity="0.8" rx="1"/>
<line x1="453.45833333333337" y1="345.6183463278467" x2="453.45833333333337" y2="366.7425161228222" stroke="#ff4444" stroke-width="0.5" opacity="0.6"/>
<rect x="450.9645833333334" y="346.9823852151314" width="4.987500000000001" height="12.903070555395118" fill="#ff4444" opacity="0.8" rx="1"/>
<line x1="464.5416666666667" y1="340.84421022235057" x2="464.5416666666667" y2="353.69198190393683" stroke="#44aa44" stroke-width="0.5" opacity="0.6"/>
<rect x="462.0479166666667" y="344.5308018096063" width="4.987500000000001" height="6.562133025315177" fill="#44aa44" opacity="0.8" rx="1"/>
<line x1="475.62500000000006" y1="340.9916738858408" x2="475.62500000000006" y2="357.7287996919819" stroke="#ff4444" stroke-width="0.5" opacity="0.6"/>
<rect x="473.1312500000001" y="346.3925305611705" width="4.987500000000001" height="2.1750890364809266" fill="#ff4444" opacity="0.8" rx="1"/>
<line x1="486.70833333333337" y1="334.07931465973627" x2="486.70833333333337" y2="353.2495909134662" stroke="#ff4444" stroke-width="0.5" opacity="0.6"/>
<rect x="484.2145833333334" y="334.0977476176725" width="4.987500000000001" height="16.75555876407742" fill="#ff4444" opacity="0.8" rx="1"/>
<line x1="497.7916666666667" y1="345.1390894215035" x2="497.7916666666667" y2="366.6319183752045" stroke="#44aa44" stroke-width="0.5" opacity="0.6"/>
<rect x="495.2979166666667" y="345.1390894215035" width="4.987500000000001" height="18.856915968813155" fill="#44aa44" opacity="0.8" rx="1"/>
<line x1="508.87500000000006" y1="356.21729714120704" x2="508.87500000000006" y2="369.83925305611706" stroke="#ff4444" stroke-width="0.5" opacity="0.6"/>
<rect x="506.3812500000001" y="361.24949465781117" width="4.987500000000001" height="4.350178072961739" fill="#ff4444" opacity="0.8" rx="1"/>
<line x1="519.9583333333334" y1="339.6276349985562" x2="519.9583333333334" y2="363.57204735778225" stroke="#ff4444" stroke-width="0.5" opacity="0.6"/>
<rect x="517.4645833333334" y="345.5077485802291" width="4.987500000000001" height="17.087352006930416" fill="#ff4444" opacity="0.8" rx="1"/>
<line x1="531.0416666666666" y1="339.6092020406199" x2="531.0416666666666" y2="359.49836365386466" stroke="#44aa44" stroke-width="0.5" opacity="0.6"/>
<rect x="528.5479166666667" y="348.82568100875926" width="4.987500000000001" height="8.01833670228126" fill="#44aa44" opacity="0.8" rx="1"/>
<line x1="542.125" y1="341.1575705072673" x2="542.125" y2="361.7287515641544" stroke="#ff4444" stroke-width="0.5" opacity="0.6"/>
<rect x="539.63125" y="343.27736066993936" width="4.987500000000001" height="18.396092020406172" fill="#ff4444" opacity="0.8" rx="1"/>
<line x1="553.2083333333334" y1="316.3468091250361" x2="553.2083333333334" y2="344.95475984214073" stroke="#ff4444" stroke-width="0.5" opacity="0.6"/>
<rect x="550.7145833333334" y="326.4849359899894" width="4.987500000000001" height="18.469823852151308" fill="#ff4444" opacity="0.8" rx="1"/>
<line x1="564.2916666666666" y1="314.72470882664356" x2="564.2916666666666" y2="330.3927230724805" stroke="#44aa44" stroke-width="0.5" opacity="0.6"/>
<rect x="561.7979166666667" y="319.3329483107132" width="4.987500000000001" height="2.1935219944172104" fill="#44aa44" opacity="0.8" rx="1"/>
<line x1="575.375" y1="310.11646934257385" x2="575.375" y2="326.521801905862" stroke="#ff4444" stroke-width="0.5" opacity="0.6"/>
<rect x="572.88125" y="314.76157474251613" width="4.987500000000001" height="5.382423717393351" fill="#ff4444" opacity="0.8" rx="1"/>
<line x1="586.4583333333334" y1="240.08966214265084" x2="586.4583333333334" y2="318.26383675040904" stroke="#ff4444" stroke-width="0.5" opacity="0.6"/>
<rect x="583.9645833333334" y="254.83602849167386" width="4.987500000000001" height="59.888680334969706" fill="#ff4444" opacity="0.8" rx="1"/>
<line x1="597.5416666666666" y1="227.5921166618539" x2="597.5416666666666" y2="259.96039079795946" stroke="#ff4444" stroke-width="0.5" opacity="0.6"/>
<rect x="595.0479166666667" y="240.0712291847146" width="4.987500000000001" height="9.47454037924723" fill="#ff4444" opacity="0.8" rx="1"/>
<line x1="608.625" y1="224.40321493887765" x2="608.625" y2="249.21397632110882" stroke="#ff4444" stroke-width="0.5" opacity="0.6"/>
<rect x="606.13125" y="234.7809702570026" width="4.987500000000001" height="8.976850514967737" fill="#ff4444" opacity="0.8" rx="1"/>
<line x1="619.7083333333334" y1="219.6290788333815" x2="619.7083333333334" y2="251.13100394648183" stroke="#ff4444" stroke-width="0.5" opacity="0.6"/>
<rect x="617.2145833333334" y="224.12672056983354" width="4.987500000000001" height="19.85229569737217" fill="#ff4444" opacity="0.8" rx="1"/>
<line x1="630.7916666666666" y1="218.4309365675233" x2="630.7916666666666" y2="251.13100394648183" stroke="#44aa44" stroke-width="0.5" opacity="0.6"/>
<rect x="628.2979166666667" y="219.79497545480797" width="4.987500000000001" height="31.336028491673858" fill="#44aa44" opacity="0.8" rx="1"/>
<line x1="641.875" y1="158.96621426508807" x2="641.875" y2="256.66089132736545" stroke="#ff4444" stroke-width="0.5" opacity="0.6"/>
<rect x="639.38125" y="176.4775243045529" width="4.987500000000001" height="73.73183174511502" fill="#ff4444" opacity="0.8" rx="1"/>
<line x1="652.9583333333334" y1="128.07257676388488" x2="652.9583333333334" y2="191.48195206468375" stroke="#ff4444" stroke-width="0.5" opacity="0.6"/>
<rect x="650.4645833333334" y="144.44104341130043" width="4.987500000000001" height="42.17460775820578" fill="#ff4444" opacity="0.8" rx="1"/>
<line x1="664.0416666666666" y1="126.15554913851186" x2="664.0416666666666" y2="158.94778130715179" stroke="#ff4444" stroke-width="0.5" opacity="0.6"/>
<rect x="661.5479166666667" y="138.37660025026466" width="4.987500000000001" height="5.843247665800391" fill="#ff4444" opacity="0.8" rx="1"/>
<line x1="675.125" y1="138.70839349311768" x2="675.125" y2="158.13673115795555" stroke="#ff4444" stroke-width="0.5" opacity="0.6"/>
<rect x="672.63125" y="143.00327269227063" width="4.987500000000001" height="6.746462604678072" fill="#ff4444" opacity="0.8" rx="1"/>
<line x1="686.2083333333334" y1="87.44633747232646" x2="686.2083333333334" y2="147.92487246125708" stroke="#ff4444" stroke-width="0.5" opacity="0.6"/>
<rect x="683.7145833333334" y="122.10029839253055" width="4.987500000000001" height="25.80614111079028" fill="#ff4444" opacity="0.8" rx="1"/>
<line x1="697.2916666666666" y1="105.14197709115412" x2="697.2916666666666" y2="144.7359707382808" stroke="#ff4444" stroke-width="0.5" opacity="0.6"/>
<rect x="694.7979166666667" y="109.19722783713542" width="4.987500000000001" height="12.903070555395132" fill="#ff4444" opacity="0.8" rx="1"/>
<line x1="708.375" y1="76.38656271055922" x2="708.375" y2="130.8928193281355" stroke="#ff4444" stroke-width="0.5" opacity="0.6"/>
<rect x="705.88125" y="96.2941572817403" width="4.987500000000001" height="19.20714216960249" fill="#ff4444" opacity="0.8" rx="1"/>
<line x1="719.4583333333334" y1="32.0" x2="719.4583333333334" y2="140.51482337087305" stroke="#44aa44" stroke-width="0.5" opacity="0.3" stroke-dasharray="4,3"/>
<rect x="716.9645833333334" y="92.05457695639615" width="4.987500000000001" height="23.64948503224562" fill="#44aa44" opacity="0.4" stroke-dasharray="4,3" rx="1"/>
<text x="739.4583333333334" y="109.70406198864177" font-family="sans-serif" font-size="9" fill="#ffd700" opacity="0.8">🕐 盘中</text>
<line x1="497.7916666666667" y1="366.6319183752045" x2="497.7916666666667" y2="331.6319183752045" stroke="#4ecdc4" stroke-width="0.8" stroke-dasharray="2,2" opacity="0.7"/>
<rect x="461.7916666666667" y="322.6319183752045" width="72" height="16" fill="#4ecdc4" opacity="0.85" rx="3"/>
<text x="497.7916666666667" y="334.6319183752045" text-anchor="middle" font-family="sans-serif" font-size="9" fill="#000000" font-weight="bold">B1乖离买入</text>
<polygon points="497.7916666666667,372.6319183752045 493.7916666666667,366.6319183752045 501.7916666666667,366.6319183752045" fill="#4ecdc4" opacity="0.9"/>
<line x1="519.9583333333334" y1="363.57204735778225" x2="519.9583333333334" y2="313.57204735778225" stroke="#4ecdc4" stroke-width="0.8" stroke-dasharray="2,2" opacity="0.7"/>
<rect x="483.95833333333337" y="304.57204735778225" width="72" height="16" fill="#4ecdc4" opacity="0.85" rx="3"/>
<text x="519.9583333333334" y="316.57204735778225" text-anchor="middle" font-family="sans-serif" font-size="9" fill="#000000" font-weight="bold">B2乖离买入</text>
<polygon points="519.9583333333334,369.57204735778225 515.9583333333334,363.57204735778225 523.9583333333334,363.57204735778225" fill="#4ecdc4" opacity="0.9"/>
<line x1="542.125" y1="361.7287515641544" x2="542.125" y2="296.7287515641544" stroke="#4ecdc4" stroke-width="0.8" stroke-dasharray="2,2" opacity="0.7"/>
<rect x="506.125" y="287.7287515641544" width="72" height="16" fill="#4ecdc4" opacity="0.85" rx="3"/>
<text x="542.125" y="299.7287515641544" text-anchor="middle" font-family="sans-serif" font-size="9" fill="#000000" font-weight="bold">B3乖离买入</text>
<polygon points="542.125,367.7287515641544 538.125,361.7287515641544 546.125,361.7287515641544" fill="#4ecdc4" opacity="0.9"/>
<line x1="630.7916666666666" y1="251.13100394648183" x2="630.7916666666666" y2="171.13100394648183" stroke="#4ecdc4" stroke-width="0.8" stroke-dasharray="2,2" opacity="0.7"/>
<rect x="594.7916666666666" y="162.13100394648183" width="72" height="16" fill="#4ecdc4" opacity="0.85" rx="3"/>
<text x="630.7916666666666" y="174.13100394648183" text-anchor="middle" font-family="sans-serif" font-size="9" fill="#000000" font-weight="bold">B4乖离买入</text>
<polygon points="630.7916666666666,257.1310039464818 626.7916666666666,251.13100394648183 634.7916666666666,251.13100394648183" fill="#4ecdc4" opacity="0.9"/>
<line x1="719.4583333333334" y1="140.51482337087305" x2="719.4583333333334" y2="45.514823370873046" stroke="#4ecdc4" stroke-width="0.8" stroke-dasharray="2,2" opacity="0.7"/>
<rect x="683.4583333333334" y="36.514823370873046" width="72" height="16" fill="#4ecdc4" opacity="0.85" rx="3"/>
<text x="719.4583333333334" y="48.514823370873046" text-anchor="middle" font-family="sans-serif" font-size="9" fill="#000000" font-weight="bold">B5乖离买入</text>
<polygon points="719.4583333333334,146.51482337087305 715.4583333333334,140.51482337087305 723.4583333333334,140.51482337087305" fill="#4ecdc4" opacity="0.9"/>
<line x1="586.4583333333334" y1="240.08966214265084" x2="586.4583333333334" y2="259.0896621426508" stroke="#e94560" stroke-width="0.8" stroke-dasharray="2,2" opacity="0.7"/>
<rect x="552.4583333333334" y="266.0896621426508" width="68" height="16" fill="#e94560" opacity="0.85" rx="3"/>
<text x="586.4583333333334" y="278.0896621426508" text-anchor="middle" font-family="sans-serif" font-size="9" fill="#ffffff" font-weight="bold">W1警戒⚠️</text>
<polygon points="586.4583333333334,234.08966214265084 582.4583333333334,240.08966214265084 590.4583333333334,240.08966214265084" fill="#e94560" opacity="0.9"/>
<line x1="641.875" y1="158.96621426508807" x2="641.875" y2="192.96621426508807" stroke="#e94560" stroke-width="0.8" stroke-dasharray="2,2" opacity="0.7"/>
<rect x="607.875" y="199.96621426508807" width="68" height="16" fill="#e94560" opacity="0.85" rx="3"/>
<text x="641.875" y="211.96621426508807" text-anchor="middle" font-family="sans-serif" font-size="9" fill="#ffffff" font-weight="bold">W2警戒⚠️</text>
<polygon points="641.875,152.96621426508807 637.875,158.96621426508807 645.875,158.96621426508807" fill="#e94560" opacity="0.9"/>
<text x="375.0" y="435" text-anchor="middle" font-family="sans-serif" font-size="10" fill="#aaaaaa">✅ BIAS5=0.89%，乖离率买入区，趋势健康可持股</text>
<rect x="60" y="443" width="665" height="55" fill="#111122" opacity="0.5" rx="2"/>
<rect x="60" y="443" width="665" height="16.96666666666664" fill="#e94560" opacity="0.18" rx="2"/>
<rect x="60" y="459.96666666666664" width="665" height="9.400000000000034" fill="#ffd700" opacity="0.12"/>
<rect x="60" y="469.3666666666667" width="665" height="30.633333333333326" fill="#4ecdc4" opacity="0.14"/>
<text x="670" y="454.48333333333335" text-anchor="end" font-family="sans-serif" font-size="9" fill="#e94560" font-weight="bold">⚠️ 警戒区</text>
<text x="670" y="467.66666666666663" text-anchor="end" font-family="sans-serif" font-size="9" fill="#ffd700">持有区</text>
<text x="670" y="487.68333333333334" text-anchor="end" font-family="sans-serif" font-size="9" fill="#4ecdc4">买入区</text>
<line x1="60" y1="472.5" x2="725" y2="472.5" stroke="#888888" stroke-width="0.5" stroke-dasharray="3,2" opacity="0.5"/>
<text x="56" y="475.5" text-anchor="end" font-family="sans-serif" font-size="7" fill="#888888">0%</text>
<line x1="60" y1="469.3666666666667" x2="725" y2="469.3666666666667" stroke="#4ecdc4" stroke-width="0.5" stroke-dasharray="3,2" opacity="0.5"/>
<text x="56" y="472.3666666666667" text-anchor="end" font-family="sans-serif" font-size="7" fill="#4ecdc4">2%</text>
<line x1="60" y1="459.96666666666664" x2="725" y2="459.96666666666664" stroke="#e94560" stroke-width="0.5" stroke-dasharray="3,2" opacity="0.5"/>
<text x="56" y="462.96666666666664" text-anchor="end" font-family="sans-serif" font-size="7" fill="#e94560">8%</text>
<text x="60" y="445" font-family="sans-serif" font-size="8" fill="#888888">BIAS5</text>
<polyline points="65.54166666666667,472.5 76.625,474.5669186378457 87.70833333333334,476.0557294723798 98.79166666666667,483.2906769081579 109.87500000000001,479.07728935103256 120.95833333333334,476.0771950344199 132.04166666666666,475.1660446705351 143.125,476.3092869758284 154.20833333333334,471.3945439611795 165.29166666666666,475.24746739347995 176.375,476.3399212924515 187.45833333333334,478.51273474987124 198.54166666666666,477.4739041277653 209.625,478.90196871476945 220.70833333333334,474.52516022870975 231.79166666666666,476.62936238305576 242.875,477.2708906118496 253.95833333333334,478.5949563152096 265.0416666666667,475.98564791968187 276.12500000000006,471.47157379113924 287.20833333333337,471.63222623036086 298.2916666666667,472.2785960716309 309.37500000000006,470.36064954323507 320.45833333333337,473.34556933693915 331.5416666666667,465.01566068597725 342.62500000000006,472.1106313052599 353.70833333333337,475.6261603996283 364.7916666666667,475.5089957729274 375.87500000000006,464.8802318904797 386.95833333333337,469.6904327387339 398.0416666666667,468.1694869210126 409.12500000000006,470.1671475564878 420.20833333333337,468.93861745401585 431.2916666666667,470.3471517867442 442.37500000000006,470.3211777236728 453.45833333333337,468.54205811808623 464.5416666666667,470.9897907303449 475.62500000000006,470.23390063589153 486.70833333333337,467.7494389859107 497.7916666666667,477.3408729196512 508.87500000000006,475.0070316586647 519.9583333333334,469.9168734376357 531.0416666666666,473.8375022059176 542.125,469.74574204224564 553.2083333333334,466.2864172219942 564.2916666666666,467.14732708129804 575.375,467.272493742762 586.4583333333334,454.8453180710784 597.5416666666666,457.903791464698 608.625,461.9291124008091 619.7083333333334,463.3735224236708 630.7916666666666,472.2062179202363 641.875,457.1072020338171 652.9583333333334,456.5661458171519 664.0416666666666,461.1328524884997 675.125,465.9248890849145 686.2083333333334,464.51255751624774 697.2916666666666,465.06219824186934 708.375,465.4638549420027 719.4583333333334,471.1082646251855" fill="none" stroke="#4ecdc4" stroke-width="1.5" opacity="0.9"/>
<circle cx="719.4583333333334" cy="471.1082646251855" r="3" fill="#4ecdc4" opacity="1"/>
<text x="724.4583333333334" y="474.1082646251855" font-family="sans-serif" font-size="9" fill="#4ecdc4" font-weight="bold">BIAS5=0.9%</text>
<text x="65.54166666666667" y="489" text-anchor="middle" font-family="sans-serif" font-size="8" fill="#666666" transform="rotate(-45,65.54166666666667,489)">02/26</text>
<text x="120.95833333333334" y="489" text-anchor="middle" font-family="sans-serif" font-size="8" fill="#666666" transform="rotate(-45,120.95833333333334,489)">03/05</text>
<text x="176.375" y="489" text-anchor="middle" font-family="sans-serif" font-size="8" fill="#666666" transform="rotate(-45,176.375,489)">03/12</text>
<text x="231.79166666666666" y="489" text-anchor="middle" font-family="sans-serif" font-size="8" fill="#666666" transform="rotate(-45,231.79166666666666,489)">03/19</text>
<text x="287.20833333333337" y="489" text-anchor="middle" font-family="sans-serif" font-size="8" fill="#666666" transform="rotate(-45,287.20833333333337,489)">03/26</text>
<text x="342.62500000000006" y="489" text-anchor="middle" font-family="sans-serif" font-size="8" fill="#666666" transform="rotate(-45,342.62500000000006,489)">04/02</text>
<text x="398.0416666666667" y="489" text-anchor="middle" font-family="sans-serif" font-size="8" fill="#666666" transform="rotate(-45,398.0416666666667,489)">04/10</text>
<text x="453.45833333333337" y="489" text-anchor="middle" font-family="sans-serif" font-size="8" fill="#666666" transform="rotate(-45,453.45833333333337,489)">04/17</text>
<text x="508.87500000000006" y="489" text-anchor="middle" font-family="sans-serif" font-size="8" fill="#666666" transform="rotate(-45,508.87500000000006,489)">04/24</text>
<text x="564.2916666666666" y="489" text-anchor="middle" font-family="sans-serif" font-size="8" fill="#666666" transform="rotate(-45,564.2916666666666,489)">05/06</text>
<text x="619.7083333333334" y="489" text-anchor="middle" font-family="sans-serif" font-size="8" fill="#666666" transform="rotate(-45,619.7083333333334,489)">05/13</text>
<text x="675.125" y="489" text-anchor="middle" font-family="sans-serif" font-size="8" fill="#666666" transform="rotate(-45,675.125,489)">05/20</text>
<text x="719.4583333333334" y="489" text-anchor="middle" font-family="sans-serif" font-size="8" fill="#666666" transform="rotate(-45,719.4583333333334,489)">05/26</text>
<rect x="60" y="484" width="8" height="8" fill="#4ecdc4" opacity="0.8" rx="1"/>
<text x="71" y="491" font-family="sans-serif" font-size="9" fill="#888888">买入区(BIAS&lt;2%)</text>
<rect x="230" y="484" width="8" height="8" fill="#ffd700" opacity="0.8" rx="1"/>
<text x="241" y="491" font-family="sans-serif" font-size="9" fill="#888888">持有区(2-8%)</text>
<rect x="400" y="484" width="8" height="8" fill="#e94560" opacity="0.8" rx="1"/>
<text x="411" y="491" font-family="sans-serif" font-size="9" fill="#888888">警戒区(&gt;8%)</text>
<rect x="570" y="484" width="8" height="8" fill="#ffd700" opacity="0.8" rx="1"/>
<text x="581" y="491" font-family="sans-serif" font-size="9" fill="#888888">EMA5</text>
<rect x="60" y="497" width="8" height="8" fill="#ff6b6b" opacity="0.8" rx="1"/>
<text x="71" y="504" font-family="sans-serif" font-size="9" fill="#888888">EMA10</text>
<rect x="230" y="497" width="8" height="8" fill="#4ecdc4" opacity="0.8" rx="1"/>
<text x="241" y="504" font-family="sans-serif" font-size="9" fill="#888888">EMA20</text>
<rect x="400" y="497" width="8" height="8" fill="#4ecdc4" opacity="0.8" rx="1"/>
<text x="411" y="504" font-family="sans-serif" font-size="9" fill="#888888">B乖离买入</text>
<rect x="570" y="497" width="8" height="8" fill="#e94560" opacity="0.8" rx="1"/>
<text x="581" y="504" font-family="sans-serif" font-size="9" fill="#888888">W警戒⚠️</text>
</svg>