<svg xmlns="http://www.w3.org/2000/svg" width="750" height="540" viewBox="0 0 750 540">
<rect width="750" height="540" fill="#1a1a2e"/>
<text x="375.0" y="22" text-anchor="middle" font-family="sans-serif" font-size="15" fill="#ffffff" font-weight="bold">大族数控(301200) 趋势交易分析图</text>
<text x="60" y="31" font-family="sans-serif" font-size="10" fill="#888888">最新: 303.00</text>
<line x1="60" y1="87.28187763996675" x2="725" y2="87.28187763996675" stroke="#4ecdc4" stroke-width="0.5" stroke-dasharray="4,3" opacity="0.4"/>
<text x="62" y="85.28187763996675" font-family="sans-serif" font-size="7" fill="#4ecdc4" opacity="0.6">买入↑2%</text>
<line x1="60" y1="50.13848226018658" x2="725" y2="50.13848226018658" stroke="#e94560" stroke-width="0.5" stroke-dasharray="4,3" opacity="0.4"/>
<text x="62" y="48.13848226018658" font-family="sans-serif" font-size="7" fill="#e94560" opacity="0.6">警戒↑8%</text>
<rect x="60" y="87.28187763996675" width="3" height="295.71812236003325" fill="#4ecdc4" opacity="0.3" rx="1"/>
<rect x="60" y="50.13848226018658" width="3" height="332.8615177398134" fill="#e94560" opacity="0.3" rx="1"/>
<rect x="60" y="50.13848226018658" width="3" height="37.14339537978017" fill="#ffd700" opacity="0.2" rx="1"/>
<line x1="60" y1="32.0" x2="725" y2="32.0" stroke="#2a2a4e" stroke-width="0.5"/>
<text x="56" y="35.0" text-anchor="end" font-family="sans-serif" font-size="8" fill="#666666">309.5</text>
<line x1="60" y1="127.75000000000006" x2="725" y2="127.75000000000006" stroke="#2a2a4e" stroke-width="0.5"/>
<text x="56" y="130.75000000000006" text-anchor="end" font-family="sans-serif" font-size="8" fill="#666666">266.3</text>
<line x1="60" y1="223.5" x2="725" y2="223.5" stroke="#2a2a4e" stroke-width="0.5"/>
<text x="56" y="226.5" text-anchor="end" font-family="sans-serif" font-size="8" fill="#666666">223.2</text>
<line x1="60" y1="319.25" x2="725" y2="319.25" stroke="#2a2a4e" stroke-width="0.5"/>
<text x="56" y="322.25" text-anchor="end" font-family="sans-serif" font-size="8" fill="#666666">180.0</text>
<line x1="60" y1="415.0" x2="725" y2="415.0" stroke="#2a2a4e" stroke-width="0.5"/>
<text x="56" y="418.0" text-anchor="end" font-family="sans-serif" font-size="8" fill="#666666">136.9</text>
<rect x="61.66250000000001" y="459.9527366443891" width="6.095833333333334" height="15.047263355610886" fill="#44aa44" opacity="0.35"/>
<rect x="72.74583333333334" y="458.73057266413315" width="6.095833333333334" height="16.269427335866858" fill="#ff4444" opacity="0.35"/>
<rect x="83.82916666666668" y="461.2608220853536" width="6.095833333333334" height="13.739177914646397" fill="#44aa44" opacity="0.35"/>
<rect x="94.91250000000001" y="465.45507360328486" width="6.095833333333334" height="9.544926396715152" fill="#ff4444" opacity="0.35"/>
<rect x="105.99583333333335" y="461.6256060804613" width="6.095833333333334" height="13.374393919538724" fill="#44aa44" opacity="0.35"/>
<rect x="117.07916666666668" y="467.2459703839602" width="6.095833333333334" height="7.754029616039837" fill="#ff4444" opacity="0.35"/>
<rect x="128.1625" y="465.4266369632639" width="6.095833333333334" height="9.57336303673612" fill="#44aa44" opacity="0.35"/>
<rect x="139.24583333333334" y="464.0470012667628" width="6.095833333333334" height="10.952998733237234" fill="#ff4444" opacity="0.35"/>
<rect x="150.32916666666668" y="460.29275324334947" width="6.095833333333334" height="14.707246756650505" fill="#ff4444" opacity="0.35"/>
<rect x="161.4125" y="465.34438474642906" width="6.095833333333334" height="9.65561525357096" fill="#44aa44" opacity="0.35"/>
<rect x="172.49583333333334" y="464.5854628052243" width="6.095833333333334" height="10.414537194775695" fill="#ff4444" opacity="0.35"/>
<rect x="183.57916666666668" y="460.8088935482462" width="6.095833333333334" height="14.191106451753813" fill="#ff4444" opacity="0.35"/>
<rect x="194.6625" y="464.26134626304986" width="6.095833333333334" height="10.73865373695016" fill="#44aa44" opacity="0.35"/>
<rect x="205.74583333333334" y="458.1462455772507" width="6.095833333333334" height="16.85375442274931" fill="#ff4444" opacity="0.35"/>
<rect x="216.82916666666668" y="463.5470667889748" width="6.095833333333334" height="11.452933211025204" fill="#44aa44" opacity="0.35"/>
<rect x="227.9125" y="457.97195649325124" width="6.095833333333334" height="17.028043506748787" fill="#ff4444" opacity="0.35"/>
<rect x="238.99583333333334" y="459.24457257677017" width="6.095833333333334" height="15.755427423229808" fill="#44aa44" opacity="0.35"/>
<rect x="250.07916666666668" y="458.5816625169266" width="6.095833333333334" height="16.41833748307343" fill="#ff4444" opacity="0.35"/>
<rect x="261.1625" y="461.1941641549819" width="6.095833333333334" height="13.805835845018128" fill="#ff4444" opacity="0.35"/>
<rect x="272.2458333333334" y="460.6740488358887" width="6.095833333333334" height="14.3259511641113" fill="#ff4444" opacity="0.35"/>
<rect x="283.3291666666667" y="460.81225702179705" width="6.095833333333334" height="14.187742978202943" fill="#ff4444" opacity="0.35"/>
<rect x="294.4125" y="454.82405101996244" width="6.095833333333334" height="20.175948980037564" fill="#ff4444" opacity="0.35"/>
<rect x="305.4958333333334" y="451.40523304066744" width="6.095833333333334" height="23.594766959332546" fill="#44aa44" opacity="0.35"/>
<rect x="316.5791666666667" y="458.98161009915697" width="6.095833333333334" height="16.01838990084305" fill="#44aa44" opacity="0.35"/>
<rect x="327.6625" y="467.13895077097806" width="6.095833333333334" height="7.861049229021972" fill="#44aa44" opacity="0.35"/>
<rect x="338.7458333333334" y="464.2754116978989" width="6.095833333333334" height="10.724588302101079" fill="#44aa44" opacity="0.35"/>
<rect x="349.8291666666667" y="466.38247499235575" width="6.095833333333334" height="8.617525007644257" fill="#44aa44" opacity="0.35"/>
<rect x="360.9125" y="453.30681867819857" width="6.095833333333334" height="21.693181321801422" fill="#ff4444" opacity="0.35"/>
<rect x="371.9958333333334" y="448.55667671340586" width="6.095833333333334" height="26.443323286594154" fill="#ff4444" opacity="0.35"/>
<rect x="383.0791666666667" y="456.568776481894" width="6.095833333333334" height="18.43122351810597" fill="#44aa44" opacity="0.35"/>
<rect x="394.1625" y="463.52505132573276" width="6.095833333333334" height="11.474948674267242" fill="#ff4444" opacity="0.35"/>
<rect x="405.2458333333334" y="457.7245883021011" width="6.095833333333334" height="17.27541169789892" fill="#ff4444" opacity="0.35"/>
<rect x="416.3291666666667" y="462.242650591884" width="6.095833333333334" height="12.757349408116017" fill="#44aa44" opacity="0.35"/>
<rect x="427.4125" y="461.9017166819552" width="6.095833333333334" height="13.098283318044817" fill="#ff4444" opacity="0.35"/>
<rect x="438.4958333333334" y="458.41960424583937" width="6.095833333333334" height="16.58039575416066" fill="#ff4444" opacity="0.35"/>
<rect x="449.5791666666667" y="459.1794434980125" width="6.095833333333334" height="15.820556501987507" fill="#ff4444" opacity="0.35"/>
<rect x="460.6625" y="455.87834709299784" width="6.095833333333334" height="19.12165290700214" fill="#ff4444" opacity="0.35"/>
<rect x="471.7458333333334" y="455.6309789018477" width="6.095833333333334" height="19.369021098152274" fill="#44aa44" opacity="0.35"/>
<rect x="482.8291666666667" y="460.1747258987463" width="6.095833333333334" height="14.825274101253658" fill="#44aa44" opacity="0.35"/>
<rect x="493.9125" y="464.29742716114094" width="6.095833333333334" height="10.702572838859039" fill="#44aa44" opacity="0.35"/>
<rect x="504.9958333333334" y="460.869130301839" width="6.095833333333334" height="14.13086969816101" fill="#44aa44" opacity="0.35"/>
<rect x="516.0791666666667" y="464.4099506399336" width="6.095833333333334" height="10.590049360066397" fill="#44aa44" opacity="0.35"/>
<rect x="527.1624999999999" y="465.11413969335604" width="6.095833333333334" height="9.885860306643952" fill="#ff4444" opacity="0.35"/>
<rect x="538.2458333333333" y="463.6978115581182" width="6.095833333333334" height="11.302188441881798" fill="#44aa44" opacity="0.35"/>
<rect x="549.3291666666667" y="459.8503035862491" width="6.095833333333334" height="15.149696413750927" fill="#ff4444" opacity="0.35"/>
<rect x="560.4124999999999" y="455.9190145459311" width="6.095833333333334" height="19.08098545406893" fill="#ff4444" opacity="0.35"/>
<rect x="571.4958333333333" y="460.2156991220024" width="6.095833333333334" height="14.78430087799764" fill="#ff4444" opacity="0.35"/>
<rect x="582.5791666666667" y="448.263137203512" width="6.095833333333334" height="26.73686279648801" fill="#ff4444" opacity="0.35"/>
<rect x="593.6624999999999" y="443.59952824007337" width="6.095833333333334" height="31.400471759926617" fill="#ff4444" opacity="0.35"/>
<rect x="604.7458333333333" y="443.02743196610317" width="6.095833333333334" height="31.972568033896824" fill="#ff4444" opacity="0.35"/>
<rect x="615.8291666666667" y="451.01354125715284" width="6.095833333333334" height="23.98645874284716" fill="#44aa44" opacity="0.35"/>
<rect x="626.9124999999999" y="453.9963307561263" width="6.095833333333334" height="21.00366924387367" fill="#ff4444" opacity="0.35"/>
<rect x="637.9958333333333" y="460.5939370113135" width="6.095833333333334" height="14.406062988686498" fill="#44aa44" opacity="0.35"/>
<rect x="649.0791666666667" y="461.8157952212467" width="6.095833333333334" height="13.18420477875333" fill="#ff4444" opacity="0.35"/>
<rect x="660.1624999999999" y="461.0843926090945" width="6.095833333333334" height="13.915607390905516" fill="#ff4444" opacity="0.35"/>
<rect x="671.2458333333333" y="440.0" width="6.095833333333334" height="35.0" fill="#ff4444" opacity="0.35"/>
<rect x="682.3291666666667" y="445.97475210763116" width="6.095833333333334" height="29.025247892368846" fill="#ff4444" opacity="0.35"/>
<rect x="693.4124999999999" y="448.38452802166603" width="6.095833333333334" height="26.61547197833399" fill="#ff4444" opacity="0.35"/>
<rect x="704.4958333333333" y="453.7079893417202" width="6.095833333333334" height="21.29201065827982" fill="#ff4444" opacity="0.35"/>
<rect x="715.5791666666667" y="446.28358013366534" width="6.095833333333334" height="28.716419866334686" fill="#ff4444" opacity="0.25" stroke-dasharray="3,2"/>
<polyline points="65.54166666666667,371.66537280574704 76.625,373.90643647529106 87.70833333333334,382.25680242550635 98.79166666666667,387.56484431827687 109.87500000000001,388.75153149789617 120.95833333333334,389.79412877528085 132.04166666666666,393.75833600950597 143.125,391.1867847695221 154.20833333333334,388.2372435705433 165.29166666666666,389.15542016766693 176.375,388.49538294475406 187.45833333333334,383.73594828454895 198.54166666666666,384.83802419093524 209.625,379.2785329378264 220.70833333333334,379.40346279820875 231.79166666666666,374.79752704014373 242.875,382.2665590730518 253.95833333333334,376.4473891493327 265.0416666666667,370.7188800999027 276.12500000000006,365.3096803740386 287.20833333333337,358.34564984401374 298.2916666666667,348.1705680226144 309.37500000000006,351.7197410207345 320.45833333333337,355.89054128802496 331.5416666666667,360.67545847759294 342.62500000000006,366.0990706904479 353.70833333333337,370.321304643911 364.7916666666667,357.2193978509761 375.87500000000006,342.44945353902625 386.95833333333337,333.39422271931454 398.0416666666667,326.299738460811 409.12500000000006,314.77292878249847 420.20833333333337,309.80281264950685 431.2916666666667,300.9496108430619 442.37500000000006,290.21772522882384 453.45833333333337,280.60018365775363 464.5416666666667,278.271219130467 475.62500000000006,278.4049210517348 486.70833333333337,283.8341479741998 497.7916666666667,290.8115299686253 508.87500000000006,294.2057555100493 519.9583333333334,298.8057874537575 531.0416666666666,301.8650791664951 542.125,305.76846190807294 553.2083333333334,306.78052337621415 564.2916666666666,300.64328501619576 575.375,301.11527886235075 586.4583333333334,290.97904055164963 597.5416666666666,278.09005731464094 608.625,251.9165162044693 619.7083333333334,245.9908458839907 630.7916666666666,239.40733409820072 641.875,239.01230109762054 652.9583333333334,237.4472058106339 664.0416666666666,232.1953428537301 675.125,209.8632490585032 686.2083333333334,176.8247896799654 697.2916666666666,146.67067163609227 708.375,126.2942650333348 719.4583333333334,99.66300943322678" fill="none" stroke="#ffd700" stroke-width="1" opacity="0.7"/>
<polyline points="65.54166666666667,371.66537280574704 76.625,372.88777117095293 87.70833333333334,377.6277281082228 98.79166666666667,381.3646735619673 109.87500000000001,383.13926125199777 120.95833333333334,384.72836344800726 132.04166666666666,387.8117065443616 143.125,387.4902475889421 154.20833333333334,386.55350460415 165.29166666666666,387.36046256010707 176.375,387.3267981853473 187.45833333333334,384.9432128724003 198.54166666666666,385.32484253263806 209.625,382.20388033245086 220.70833333333334,381.74014254818223 231.79166666666666,378.80296308924255 242.875,382.1487194619017 253.95833333333334,378.9960521600822 265.0416666666667,375.4080175857114 276.12500000000006,371.60497455600216 287.20833333333337,366.6618135065406 298.2916666666667,359.5997391198634 309.37500000000006,359.45762055570174 320.45833333333337,360.3257153315025 331.5416666666667,362.12927488154367 342.62500000000006,364.82327856056446 353.70833333333337,367.3582774678867 364.7916666666667,360.75051506738123 375.87500000000006,352.052160494244 386.95833333333337,345.36699696436165 398.0416666666667,339.32041023335114 409.12500000000006,330.66566463199155 420.20833333333337,325.06510385954283 431.2916666666667,317.4611226542027 442.37500000000006,308.6052738080473 453.45833333333337,300.01615139124107 464.5416666666667,295.215631152087 475.62500000000006,292.20775728702944 486.70833333333337,292.65954720195674 497.7916666666667,294.8607738847785 508.87500000000006,295.97594346807284 519.9583333333334,298.16319944500026 531.0416666666666,299.9487381989948 542.125,302.42628168849194 553.2083333333334,303.5859843474018 564.2916666666666,300.81922506535767 575.375,301.0446871543219 586.4583333333334,295.5286647499447 597.5416666666666,287.67110585734076 608.625,271.6526200622109 619.7083333333334,264.8320537314513 630.7916666666666,257.8153731487548 641.875,254.252984411974 652.9583333333334,250.6282627437352 664.0416666666666,245.36705441576925 675.125,230.791055698002 686.2083333333334,208.9650221025271 697.2916666666666,186.6736427290396 708.375,168.28597165609057 719.4583333333334,146.1249764882579" fill="none" stroke="#ff6b6b" stroke-width="1" opacity="0.7"/>
<polyline points="65.54166666666667,371.66537280574704 76.625,372.3056767113311 87.70833333333334,374.84394886510313 98.79166666666667,377.06651831640926 109.87500000000001,378.4054123679069 120.95833333333334,379.6886419833491 132.04166666666666,381.7836999352165 143.125,382.1894125403915 154.20833333333334,382.20357907679096 165.29166666666666,383.0405499610884 176.375,383.43433648850174 187.45833333333334,382.55650243856246 198.54166666666666,382.98370944476676 209.625,381.57188477684696 220.70833333333334,381.38916456181136 231.79166666666666,379.8840684629735 242.875,381.533645098773 253.95833333333334,379.9408264514512 265.0416666666667,377.97140126569803 276.12500000000006,375.7351993282325 287.20833333333337,372.7525697525879 298.2916666666667,368.473315907562 309.37500000000006,367.55377029893464 320.45833333333337,367.23742472976045 331.5416666666667,367.52388836090034 342.62500000000006,368.4212604328296 353.70833333333337,369.40645206311603 364.7916666666667,365.7501789394961 375.87500000000006,360.71773950860376 386.95833333333337,356.39069394396444 398.0416666666667,352.17355832490153 409.12500000000006,346.4160108107083 420.20833333333337,341.9823507700241 431.2916666666667,336.3881466233715 442.37500000000006,329.9467949449883 453.45833333333337,323.4152049993335 464.5416666666667,318.67216548281544 475.62500000000006,314.86265685533493 486.70833333333337,312.94169923283926 497.7916666666667,312.16308920661425 508.87500000000006,311.099386100546 519.9583333333334,310.80476374251054 531.0416666666666,310.53608744245906 542.125,310.82552934234195 553.2083333333334,310.63306429188043 564.2916666666666,308.5126589589546 575.375,307.89805015854563 586.4583333333334,304.35600385108864 597.5416666666666,299.39944070723476 608.625,289.8918210193197 619.7083333333334,284.58207665967336 630.7916666666666,279.025717980335 641.875,275.1396719913945 652.9583333333334,271.2517999195151 664.0416666666666,266.53178249288726 675.125,256.8810471571884 686.2083333333334,242.9636018015409 697.2916666666666,228.04920501552235 708.375,214.47703804526498 719.4583333333334,198.46974853933605" fill="none" stroke="#4ecdc4" stroke-width="1" opacity="0.7"/>
<line x1="65.54166666666667" y1="359.3949944962632" x2="65.54166666666667" y2="375.1268176814785" stroke="#44aa44" stroke-width="0.5" opacity="0.6"/>
<rect x="63.04791666666667" y="362.5901743815538" width="4.987500000000001" height="9.075198424193218" fill="#44aa44" opacity="0.8" rx="1"/>
<line x1="76.625" y1="371.02189907884826" x2="76.625" y2="383.4475986327559" stroke="#ff4444" stroke-width="0.5" opacity="0.6"/>
<rect x="74.13125" y="378.3885638143792" width="4.987500000000001" height="3.1064248884769654" fill="#ff4444" opacity="0.8" rx="1"/>
<line x1="87.70833333333334" y1="374.9271189386478" x2="87.70833333333334" y2="398.95753432593705" stroke="#44aa44" stroke-width="0.5" opacity="0.6"/>
<rect x="85.21458333333334" y="376.12531139563174" width="4.987500000000001" height="22.832222930305306" fill="#44aa44" opacity="0.8" rx="1"/>
<line x1="98.79166666666667" y1="390.5923758762528" x2="98.79166666666667" y2="402.7296216905162" stroke="#ff4444" stroke-width="0.5" opacity="0.6"/>
<rect x="96.29791666666667" y="398.18092810381785" width="4.987500000000001" height="3.9274086090029527" fill="#ff4444" opacity="0.8" rx="1"/>
<line x1="109.87500000000001" y1="382.13846242975495" x2="109.87500000000001" y2="394.76386072649325" stroke="#44aa44" stroke-width="0.5" opacity="0.6"/>
<rect x="107.38125000000001" y="391.08052835872775" width="4.987500000000001" height="0.5" fill="#44aa44" opacity="0.8" rx="1"/>
<line x1="120.95833333333334" y1="386.1102485371647" x2="120.95833333333334" y2="396.98273564683393" stroke="#ff4444" stroke-width="0.5" opacity="0.6"/>
<rect x="118.46458333333334" y="391.87932333005034" width="4.987500000000001" height="1.1538149585771862" fill="#ff4444" opacity="0.8" rx="1"/>
<line x1="132.04166666666666" y1="399.20161056717455" x2="132.04166666666666" y2="415.0" stroke="#44aa44" stroke-width="0.5" opacity="0.6"/>
<rect x="129.54791666666665" y="401.3982967383118" width="4.987500000000001" height="0.5" fill="#44aa44" opacity="0.8" rx="1"/>
<line x1="143.125" y1="380.6740049823301" x2="143.125" y2="396.84960315161345" stroke="#ff4444" stroke-width="0.5" opacity="0.6"/>
<rect x="140.63125" y="386.04368228955445" width="4.987500000000001" height="9.274897167023937" fill="#ff4444" opacity="0.8" rx="1"/>
<line x1="154.20833333333334" y1="368.64770291408377" x2="154.20833333333334" y2="385.9549272927408" stroke="#ff4444" stroke-width="0.5" opacity="0.6"/>
<rect x="151.71458333333334" y="382.3381611725856" width="4.987500000000001" height="3.616766120155205" fill="#ff4444" opacity="0.8" rx="1"/>
<line x1="165.29166666666666" y1="382.8263136550606" x2="165.29166666666666" y2="396.3836394183419" stroke="#44aa44" stroke-width="0.5" opacity="0.6"/>
<rect x="162.79791666666665" y="383.6472973755866" width="4.987500000000001" height="7.344475986327552" fill="#44aa44" opacity="0.8" rx="1"/>
<line x1="176.375" y1="381.45061120444933" x2="176.375" y2="399.64538555124267" stroke="#ff4444" stroke-width="0.5" opacity="0.6"/>
<rect x="173.88125" y="387.17530849892825" width="4.987500000000001" height="8.320780951277413" fill="#ff4444" opacity="0.8" rx="1"/>
<line x1="187.45833333333334" y1="374.1283239673252" x2="187.45833333333334" y2="394.14257574879787" stroke="#ff4444" stroke-width="0.5" opacity="0.6"/>
<rect x="184.96458333333334" y="374.2170789641388" width="4.987500000000001" height="14.35612073460402" fill="#ff4444" opacity="0.8" rx="1"/>
<line x1="198.54166666666666" y1="369.24679914257575" x2="198.54166666666666" y2="387.21968599733503" stroke="#44aa44" stroke-width="0.5" opacity="0.6"/>
<rect x="196.04791666666665" y="374.2170789641388" width="4.987500000000001" height="12.82509703956896" fill="#44aa44" opacity="0.8" rx="1"/>
<line x1="209.625" y1="365.40814553038643" x2="209.625" y2="383.2257111407219" stroke="#ff4444" stroke-width="0.5" opacity="0.6"/>
<rect x="207.13125" y="368.1595504316088" width="4.987500000000001" height="13.291060772840524" fill="#ff4444" opacity="0.8" rx="1"/>
<line x1="220.70833333333334" y1="370.4228028503563" x2="220.70833333333334" y2="383.2257111407219" stroke="#44aa44" stroke-width="0.5" opacity="0.6"/>
<rect x="218.21458333333334" y="375.10462893227503" width="4.987500000000001" height="4.548693586698391" fill="#44aa44" opacity="0.8" rx="1"/>
<line x1="231.79166666666666" y1="359.7722032327211" x2="231.79166666666666" y2="379.1873587857018" stroke="#ff4444" stroke-width="0.5" opacity="0.6"/>
<rect x="229.29791666666665" y="365.58565552401365" width="4.987500000000001" height="11.427205839754379" fill="#ff4444" opacity="0.8" rx="1"/>
<line x1="242.875" y1="368.18173918081226" x2="242.875" y2="401.4204854875152" stroke="#44aa44" stroke-width="0.5" opacity="0.6"/>
<rect x="240.38125" y="375.2599501766989" width="4.987500000000001" height="21.944672962169022" fill="#44aa44" opacity="0.8" rx="1"/>
<line x1="253.95833333333334" y1="364.5871618098604" x2="253.95833333333334" y2="399.6675743004461" stroke="#ff4444" stroke-width="0.5" opacity="0.6"/>
<rect x="251.46458333333334" y="364.80904930189445" width="4.987500000000001" height="28.468165227970587" fill="#ff4444" opacity="0.8" rx="1"/>
<line x1="265.0416666666667" y1="353.38184346214007" x2="265.0416666666667" y2="370.35623660274604" stroke="#ff4444" stroke-width="0.5" opacity="0.6"/>
<rect x="262.5479166666667" y="359.2618620010428" width="4.987500000000001" height="6.678813510225325" fill="#ff4444" opacity="0.8" rx="1"/>
<line x1="276.12500000000006" y1="350.8967035513585" x2="276.12500000000006" y2="368.1373616824054" stroke="#ff4444" stroke-width="0.5" opacity="0.6"/>
<rect x="273.6312500000001" y="354.49128092231035" width="4.987500000000001" height="8.254214703667287" fill="#ff4444" opacity="0.8" rx="1"/>
<line x1="287.20833333333337" y1="343.99600254909916" x2="287.20833333333337" y2="367.76015294594754" stroke="#ff4444" stroke-width="0.5" opacity="0.6"/>
<rect x="284.7145833333334" y="344.4175887839638" width="4.987500000000001" height="21.545275476507754" fill="#ff4444" opacity="0.8" rx="1"/>
<line x1="298.2916666666667" y1="311.3785412200915" x2="298.2916666666667" y2="354.15844968425927" stroke="#ff4444" stroke-width="0.5" opacity="0.6"/>
<rect x="295.7979166666667" y="327.8204043798158" width="4.987500000000001" height="26.338045304443483" fill="#ff4444" opacity="0.8" rx="1"/>
<line x1="309.37500000000006" y1="329.08516308440994" x2="309.37500000000006" y2="374.35021145935923" stroke="#44aa44" stroke-width="0.5" opacity="0.6"/>
<rect x="306.8812500000001" y="337.4059440356874" width="4.987500000000001" height="21.412142981287275" fill="#44aa44" opacity="0.8" rx="1"/>
<line x1="320.45833333333337" y1="351.49579977985053" x2="320.45833333333337" y2="374.7939864434274" stroke="#44aa44" stroke-width="0.5" opacity="0.6"/>
<rect x="317.9645833333334" y="351.49579977985053" width="4.987500000000001" height="12.736342042755382" fill="#44aa44" opacity="0.8" rx="1"/>
<line x1="331.5416666666667" y1="364.8534268003013" x2="331.5416666666667" y2="372.8191877643242" stroke="#44aa44" stroke-width="0.5" opacity="0.6"/>
<rect x="329.0479166666667" y="367.91547419037136" width="4.987500000000001" height="2.329818666357653" fill="#44aa44" opacity="0.8" rx="1"/>
<line x1="342.62500000000006" y1="357.9305370488384" x2="342.62500000000006" y2="376.9462951161578" stroke="#44aa44" stroke-width="0.5" opacity="0.6"/>
<rect x="340.1312500000001" y="369.912461618678" width="4.987500000000001" height="7.0338334974798045" fill="#44aa44" opacity="0.8" rx="1"/>
<line x1="353.70833333333337" y1="369.24679914257575" x2="353.70833333333337" y2="383.0925786455014" stroke="#44aa44" stroke-width="0.5" opacity="0.6"/>
<rect x="351.2145833333334" y="373.37390649440937" width="4.987500000000001" height="5.391866056427773" fill="#44aa44" opacity="0.8" rx="1"/>
<line x1="364.7916666666667" y1="321.7628758472858" x2="364.7916666666667" y2="370.35623660274604" stroke="#ff4444" stroke-width="0.5" opacity="0.6"/>
<rect x="362.2979166666667" y="331.0155842651063" width="4.987500000000001" height="38.253403626672764" fill="#ff4444" opacity="0.8" rx="1"/>
<line x1="375.87500000000006" y1="297.48838421875905" x2="375.87500000000006" y2="339.02572272753605" stroke="#ff4444" stroke-width="0.5" opacity="0.6"/>
<rect x="373.3812500000001" y="312.9095649151266" width="4.987500000000001" height="21.966861711372417" fill="#ff4444" opacity="0.8" rx="1"/>
<line x1="386.95833333333337" y1="302.68055153235616" x2="386.95833333333337" y2="319.2999246857077" stroke="#44aa44" stroke-width="0.5" opacity="0.6"/>
<rect x="384.4645833333334" y="308.8490238109032" width="4.987500000000001" height="6.434737268987931" fill="#44aa44" opacity="0.8" rx="1"/>
<line x1="398.0416666666667" y1="304.6775389606628" x2="398.0416666666667" y2="321.43004460923464" stroke="#ff4444" stroke-width="0.5" opacity="0.6"/>
<rect x="395.5479166666667" y="312.110769943804" width="4.987500000000001" height="7.632929725971792" fill="#ff4444" opacity="0.8" rx="1"/>
<line x1="409.12500000000006" y1="277.8735299229477" x2="409.12500000000006" y2="316.8369735241295" stroke="#ff4444" stroke-width="0.5" opacity="0.6"/>
<rect x="406.6312500000001" y="291.71930942587335" width="4.987500000000001" height="23.142865419152997" fill="#ff4444" opacity="0.8" rx="1"/>
<line x1="420.20833333333337" y1="285.7727246393604" x2="420.20833333333337" y2="302.2145877990846" stroke="#44aa44" stroke-width="0.5" opacity="0.6"/>
<rect x="417.7145833333334" y="294.2044493366549" width="4.987500000000001" height="5.658131046868618" fill="#44aa44" opacity="0.8" rx="1"/>
<line x1="431.2916666666667" y1="281.62342853832337" x2="431.2916666666667" y2="305.7425989224263" stroke="#ff4444" stroke-width="0.5" opacity="0.6"/>
<rect x="428.7979166666667" y="283.24320723017206" width="4.987500000000001" height="18.128208099183155" fill="#ff4444" opacity="0.8" rx="1"/>
<line x1="442.37500000000006" y1="267.37825154973643" x2="442.37500000000006" y2="296.46770175540235" stroke="#ff4444" stroke-width="0.5" opacity="0.6"/>
<rect x="439.8812500000001" y="268.7539540003476" width="4.987500000000001" height="18.860436822895565" fill="#ff4444" opacity="0.8" rx="1"/>
<line x1="453.45833333333337" y1="257.3267481605933" x2="453.45833333333337" y2="280.46961357974624" stroke="#ff4444" stroke-width="0.5" opacity="0.6"/>
<rect x="450.9645833333334" y="261.3651005156132" width="4.987500000000001" height="9.896182144719319" fill="#ff4444" opacity="0.8" rx="1"/>
<line x1="464.5416666666667" y1="266.06911534673543" x2="464.5416666666667" y2="290.12171948322805" stroke="#ff4444" stroke-width="0.5" opacity="0.6"/>
<rect x="462.0479166666667" y="273.6132900758937" width="4.987500000000001" height="1.4866461966281577" fill="#ff4444" opacity="0.8" rx="1"/>
<line x1="475.62500000000006" y1="270.50686518741674" x2="475.62500000000006" y2="294.2932043334685" stroke="#44aa44" stroke-width="0.5" opacity="0.6"/>
<rect x="473.1312500000001" y="277.2966224436591" width="4.987500000000001" height="1.375702450611243" fill="#44aa44" opacity="0.8" rx="1"/>
<line x1="486.70833333333337" y1="276.6309599675569" x2="486.70833333333337" y2="300.43948786281214" stroke="#44aa44" stroke-width="0.5" opacity="0.6"/>
<rect x="484.2145833333334" y="277.07473495162503" width="4.987500000000001" height="17.6178668675048" fill="#44aa44" opacity="0.8" rx="1"/>
<line x1="497.7916666666667" y1="294.95886680957074" x2="497.7916666666667" y2="309.31498754417476" stroke="#44aa44" stroke-width="0.5" opacity="0.6"/>
<rect x="495.2979166666667" y="297.1333642315045" width="4.987500000000001" height="7.632929725971849" fill="#44aa44" opacity="0.8" rx="1"/>
<line x1="508.87500000000006" y1="285.5508371473263" x2="508.87500000000006" y2="303.7899889925265" stroke="#44aa44" stroke-width="0.5" opacity="0.6"/>
<rect x="506.3812500000001" y="298.24280169167486" width="4.987500000000001" height="2.751404901222429" fill="#44aa44" opacity="0.8" rx="1"/>
<line x1="519.9583333333334" y1="295.358264295232" x2="519.9583333333334" y2="310.84601123920976" stroke="#44aa44" stroke-width="0.5" opacity="0.6"/>
<rect x="517.4645833333334" y="300.9720178436939" width="4.987500000000001" height="7.033833497479861" fill="#44aa44" opacity="0.8" rx="1"/>
<line x1="531.0416666666666" y1="302.014889056254" x2="531.0416666666666" y2="318.3458084699612" stroke="#ff4444" stroke-width="0.5" opacity="0.6"/>
<rect x="528.5479166666667" y="307.9836625919703" width="4.987500000000001" height="4.681826081918814" fill="#ff4444" opacity="0.8" rx="1"/>
<line x1="542.125" y1="297.57713921557263" x2="542.125" y2="314.7734198482127" stroke="#44aa44" stroke-width="0.5" opacity="0.6"/>
<rect x="539.63125" y="304.78848270667976" width="4.987500000000001" height="8.786744684549035" fill="#44aa44" opacity="0.8" rx="1"/>
<line x1="553.2083333333334" y1="301.5711140721858" x2="553.2083333333334" y2="316.7038410289091" stroke="#ff4444" stroke-width="0.5" opacity="0.6"/>
<rect x="550.7145833333334" y="308.80464631249635" width="4.987500000000001" height="1.5975899426452997" fill="#ff4444" opacity="0.8" rx="1"/>
<line x1="564.2916666666666" y1="286.3052546202422" x2="564.2916666666666" y2="327.3766293957476" stroke="#ff4444" stroke-width="0.5" opacity="0.6"/>
<rect x="561.7979166666667" y="288.368808296159" width="4.987500000000001" height="18.106019349979704" fill="#ff4444" opacity="0.8" rx="1"/>
<line x1="575.375" y1="296.9780429870807" x2="575.375" y2="312.6654886738891" stroke="#ff4444" stroke-width="0.5" opacity="0.6"/>
<rect x="572.88125" y="302.0592665546608" width="4.987500000000001" height="3.172991136087205" fill="#ff4444" opacity="0.8" rx="1"/>
<line x1="586.4583333333334" y1="255.24100573547307" x2="586.4583333333334" y2="301.1051503389143" stroke="#ff4444" stroke-width="0.5" opacity="0.6"/>
<rect x="583.9645833333334" y="270.7065639302474" width="4.987500000000001" height="28.579108973987616" fill="#ff4444" opacity="0.8" rx="1"/>
<line x1="597.5416666666666" y1="230.56711662128498" x2="597.5416666666666" y2="291.36428943861887" stroke="#ff4444" stroke-width="0.5" opacity="0.6"/>
<rect x="595.0479166666667" y="252.3120908406234" width="4.987500000000001" height="30.1766989166328" fill="#ff4444" opacity="0.8" rx="1"/>
<line x1="608.625" y1="186.18961821447195" x2="608.625" y2="262.74080296622446" stroke="#ff4444" stroke-width="0.5" opacity="0.6"/>
<rect x="606.13125" y="199.56943398412608" width="4.987500000000001" height="61.13000405538497" fill="#ff4444" opacity="0.8" rx="1"/>
<line x1="619.7083333333334" y1="201.85487515207694" x2="619.7083333333334" y2="237.93378135681593" stroke="#44aa44" stroke-width="0.5" opacity="0.6"/>
<rect x="617.2145833333334" y="208.08991367823418" width="4.987500000000001" height="26.04959156479927" fill="#44aa44" opacity="0.8" rx="1"/>
<line x1="630.7916666666666" y1="212.81611725855976" x2="630.7916666666666" y2="254.97474074503216" stroke="#ff4444" stroke-width="0.5" opacity="0.6"/>
<rect x="628.2979166666667" y="226.24031052662076" width="4.987500000000001" height="4.326806094664221" fill="#ff4444" opacity="0.8" rx="1"/>
<line x1="641.875" y1="227.2609929899774" x2="641.875" y2="248.18498348878975" stroke="#44aa44" stroke-width="0.5" opacity="0.6"/>
<rect x="639.38125" y="232.32002780835407" width="4.987500000000001" height="5.902207288106155" fill="#44aa44" opacity="0.8" rx="1"/>
<line x1="652.9583333333334" y1="219.29523202595445" x2="652.9583333333334" y2="243.88036614332887" stroke="#ff4444" stroke-width="0.5" opacity="0.6"/>
<rect x="650.4645833333334" y="234.3170152366607" width="4.987500000000001" height="5.791263542089126" fill="#ff4444" opacity="0.8" rx="1"/>
<line x1="664.0416666666666" y1="214.2583859567812" x2="664.0416666666666" y2="236.15868142054342" stroke="#ff4444" stroke-width="0.5" opacity="0.6"/>
<rect x="661.5479166666667" y="221.69161693992237" width="4.987500000000001" height="11.094374601703265" fill="#ff4444" opacity="0.8" rx="1"/>
<line x1="675.125" y1="122.28602050866114" x2="675.125" y2="210.81912983025316" stroke="#ff4444" stroke-width="0.5" opacity="0.6"/>
<rect x="672.63125" y="165.19906146804934" width="4.987500000000001" height="45.620068362203824" fill="#ff4444" opacity="0.8" rx="1"/>
<line x1="686.2083333333334" y1="86.22930305312553" x2="686.2083333333334" y2="167.37355888998323" stroke="#ff4444" stroke-width="0.5" opacity="0.6"/>
<rect x="683.7145833333334" y="110.74787092288976" width="4.987500000000001" height="39.93974856613177" fill="#ff4444" opacity="0.8" rx="1"/>
<line x1="697.2916666666666" y1="58.60431029488444" x2="697.2916666666666" y2="110.74787092288976" stroke="#ff4444" stroke-width="0.5" opacity="0.6"/>
<rect x="694.7979166666667" y="86.36243554834599" width="4.987500000000001" height="13.291060772840524" fill="#ff4444" opacity="0.8" rx="1"/>
<line x1="708.375" y1="78.8404495683912" x2="708.375" y2="119.5789931058456" stroke="#ff4444" stroke-width="0.5" opacity="0.6"/>
<rect x="705.88125" y="85.54145182781993" width="4.987500000000001" height="12.159434563466817" fill="#ff4444" opacity="0.8" rx="1"/>
<line x1="719.4583333333334" y1="32.0" x2="719.4583333333334" y2="117.40449568391173" stroke="#ff4444" stroke-width="0.5" opacity="0.3" stroke-dasharray="4,3"/>
<rect x="716.9645833333334" y="46.40049823301085" width="4.987500000000001" height="51.034123167835006" fill="#ff4444" opacity="0.4" stroke-dasharray="4,3" rx="1"/>
<text x="739.4583333333334" y="40.40049823301085" font-family="sans-serif" font-size="9" fill="#ffd700" opacity="0.8">🕐 盘中</text>
<line x1="242.875" y1="401.4204854875152" x2="242.875" y2="366.4204854875152" stroke="#4ecdc4" stroke-width="0.8" stroke-dasharray="2,2" opacity="0.7"/>
<rect x="206.875" y="357.4204854875152" width="72" height="16" fill="#4ecdc4" opacity="0.85" rx="3"/>
<text x="242.875" y="369.4204854875152" text-anchor="middle" font-family="sans-serif" font-size="9" fill="#000000" font-weight="bold">B1乖离买入</text>
<polygon points="242.875,407.4204854875152 238.875,401.4204854875152 246.875,401.4204854875152" fill="#4ecdc4" opacity="0.9"/>
<line x1="309.37500000000006" y1="374.35021145935923" x2="309.37500000000006" y2="324.35021145935923" stroke="#4ecdc4" stroke-width="0.8" stroke-dasharray="2,2" opacity="0.7"/>
<rect x="273.37500000000006" y="315.35021145935923" width="72" height="16" fill="#4ecdc4" opacity="0.85" rx="3"/>
<text x="309.37500000000006" y="327.35021145935923" text-anchor="middle" font-family="sans-serif" font-size="9" fill="#000000" font-weight="bold">B2乖离买入</text>
<polygon points="309.37500000000006,380.35021145935923 305.37500000000006,374.35021145935923 313.37500000000006,374.35021145935923" fill="#4ecdc4" opacity="0.9"/>
<line x1="464.5416666666667" y1="290.12171948322805" x2="464.5416666666667" y2="225.12171948322805" stroke="#4ecdc4" stroke-width="0.8" stroke-dasharray="2,2" opacity="0.7"/>
<rect x="428.5416666666667" y="216.12171948322805" width="72" height="16" fill="#4ecdc4" opacity="0.85" rx="3"/>
<text x="464.5416666666667" y="228.12171948322805" text-anchor="middle" font-family="sans-serif" font-size="9" fill="#000000" font-weight="bold">B3乖离买入</text>
<polygon points="464.5416666666667,296.12171948322805 460.5416666666667,290.12171948322805 468.5416666666667,290.12171948322805" fill="#4ecdc4" opacity="0.9"/>
<line x1="575.375" y1="312.6654886738891" x2="575.375" y2="232.66548867388912" stroke="#4ecdc4" stroke-width="0.8" stroke-dasharray="2,2" opacity="0.7"/>
<rect x="539.375" y="223.66548867388912" width="72" height="16" fill="#4ecdc4" opacity="0.85" rx="3"/>
<text x="575.375" y="235.66548867388912" text-anchor="middle" font-family="sans-serif" font-size="9" fill="#000000" font-weight="bold">B4乖离买入</text>
<polygon points="575.375,318.6654886738891 571.375,312.6654886738891 579.375,312.6654886738891" fill="#4ecdc4" opacity="0.9"/>
<line x1="641.875" y1="248.18498348878975" x2="641.875" y2="153.18498348878975" stroke="#4ecdc4" stroke-width="0.8" stroke-dasharray="2,2" opacity="0.7"/>
<rect x="605.875" y="144.18498348878975" width="72" height="16" fill="#4ecdc4" opacity="0.85" rx="3"/>
<text x="641.875" y="156.18498348878975" text-anchor="middle" font-family="sans-serif" font-size="9" fill="#000000" font-weight="bold">B5乖离买入</text>
<polygon points="641.875,254.18498348878975 637.875,248.18498348878975 645.875,248.18498348878975" fill="#4ecdc4" opacity="0.9"/>
<line x1="608.625" y1="186.18961821447195" x2="608.625" y2="205.18961821447195" stroke="#e94560" stroke-width="0.8" stroke-dasharray="2,2" opacity="0.7"/>
<rect x="574.625" y="212.18961821447195" width="68" height="16" fill="#e94560" opacity="0.85" rx="3"/>
<text x="608.625" y="224.18961821447195" text-anchor="middle" font-family="sans-serif" font-size="9" fill="#ffffff" font-weight="bold">W1警戒⚠️</text>
<polygon points="608.625,180.18961821447195 604.625,186.18961821447195 612.625,186.18961821447195" fill="#e94560" opacity="0.9"/>
<line x1="675.125" y1="122.28602050866114" x2="675.125" y2="156.28602050866112" stroke="#e94560" stroke-width="0.8" stroke-dasharray="2,2" opacity="0.7"/>
<rect x="641.125" y="163.28602050866112" width="68" height="16" fill="#e94560" opacity="0.85" rx="3"/>
<text x="675.125" y="175.28602050866112" text-anchor="middle" font-family="sans-serif" font-size="9" fill="#ffffff" font-weight="bold">W2警戒⚠️</text>
<polygon points="675.125,116.28602050866114 671.125,122.28602050866114 679.125,122.28602050866114" fill="#e94560" opacity="0.9"/>
<line x1="719.4583333333334" y1="32.0" x2="719.4583333333334" y2="81.0" stroke="#e94560" stroke-width="0.8" stroke-dasharray="2,2" opacity="0.7"/>
<rect x="685.4583333333334" y="88.0" width="68" height="16" fill="#e94560" opacity="0.85" rx="3"/>
<text x="719.4583333333334" y="100.0" text-anchor="middle" font-family="sans-serif" font-size="9" fill="#ffffff" font-weight="bold">W3警戒⚠️</text>
<polygon points="719.4583333333334,26.0 715.4583333333334,32.0 723.4583333333334,32.0" fill="#e94560" opacity="0.9"/>
<rect x="60" y="443" width="665" height="55" fill="#111122" opacity="0.5" rx="2"/>
<rect x="60" y="443" width="665" height="16.96666666666664" fill="#e94560" opacity="0.18" rx="2"/>
<rect x="60" y="459.96666666666664" width="665" height="9.400000000000034" fill="#ffd700" opacity="0.12"/>
<rect x="60" y="469.3666666666667" width="665" height="30.633333333333326" fill="#4ecdc4" opacity="0.14"/>
<text x="670" y="454.48333333333335" text-anchor="end" font-family="sans-serif" font-size="9" fill="#e94560" font-weight="bold">⚠️ 警戒区</text>
<text x="670" y="467.66666666666663" text-anchor="end" font-family="sans-serif" font-size="9" fill="#ffd700">持有区</text>
<text x="670" y="487.68333333333334" text-anchor="end" font-family="sans-serif" font-size="9" fill="#4ecdc4">买入区</text>
<line x1="60" y1="472.5" x2="725" y2="472.5" stroke="#888888" stroke-width="0.5" stroke-dasharray="3,2" opacity="0.5"/>
<text x="56" y="475.5" text-anchor="end" font-family="sans-serif" font-size="7" fill="#888888">0%</text>
<line x1="60" y1="469.3666666666667" x2="725" y2="469.3666666666667" stroke="#4ecdc4" stroke-width="0.5" stroke-dasharray="3,2" opacity="0.5"/>
<text x="56" y="472.3666666666667" text-anchor="end" font-family="sans-serif" font-size="7" fill="#4ecdc4">2%</text>
<line x1="60" y1="459.96666666666664" x2="725" y2="459.96666666666664" stroke="#e94560" stroke-width="0.5" stroke-dasharray="3,2" opacity="0.5"/>
<text x="56" y="462.96666666666664" text-anchor="end" font-family="sans-serif" font-size="7" fill="#e94560">8%</text>
<text x="60" y="445" font-family="sans-serif" font-size="8" fill="#888888">BIAS5</text>
<polyline points="65.54166666666667,472.5 76.625,474.5364650364651 87.70833333333334,480.27633671129087 98.79166666666667,477.5223843557673 109.87500000000001,473.626862524366 120.95833333333334,473.49317477581917 132.04166666666666,476.32235794791444 143.125,470.0399328353773 154.20833333333334,469.70351310674374 165.29166666666666,473.3729569296661 176.375,471.87372350947 187.45833333333334,468.04817220705905 198.54166666666666,473.53425029498055 209.625,467.36811084560645 220.70833333333334,472.61536347788683 231.79166666666666,468.3037203149952 242.875,479.45579003680075 253.95833333333334,467.17283683441644 265.0416666666667,467.34215768098164 276.12500000000006,467.70420200174664 287.20833333333337,466.4450037830547 298.2916666666667,463.8960311951131 309.37500000000006,475.5301761202558 320.45833333333337,476.1018359673621 331.5416666666667,476.68740005112454 342.62500000000006,477.3193407826944 353.70833333333337,476.29728219057864 364.7916666666667,461.14381232897904 375.87500000000006,460.20054988668403 386.95833333333337,465.13659797462276 398.0416666666667,466.8353060739629 409.12500000000006,463.5588848364575 420.20833333333337,468.69163823393944 431.2916666666667,465.8599748409763 442.37500000000006,464.6525255838162 453.45833333333337,465.6217465997954 464.5416666666667,470.84318332920975 475.62500000000006,472.59514392945056 486.70833333333337,476.4117375958427 497.7916666666667,477.6091496421428 508.87500000000006,475.00527519667 519.9583333333334,475.932474242093 531.0416666666666,474.7995506205683 542.125,475.46175458922914 553.2083333333334,473.2698045950038 564.2916666666666,467.90035804937366 575.375,472.8541424213374 586.4583333333334,465.0748885068096 597.5416666666666,463.3345952824669 608.625,454.9314723236549 619.7083333333334,468.57235645994996 630.7916666666666,468.1962634935091 641.875,472.2419738924864 652.9583333333334,471.48104165105354 664.0416666666666,469.11767382533884 675.125,458.74879224037915 686.2083333333334,453.39656806931487 697.2916666666666,455.983422716369 708.375,461.7229331949543 719.4583333333334,459.0206828788038" fill="none" stroke="#4ecdc4" stroke-width="1.5" opacity="0.9"/>
<circle cx="719.4583333333334" cy="459.0206828788038" r="3" fill="#4ecdc4" opacity="1"/>
<text x="724.4583333333334" y="462.0206828788038" font-family="sans-serif" font-size="9" fill="#4ecdc4" font-weight="bold">BIAS5=8.6%</text>
<text x="65.54166666666667" y="489" text-anchor="middle" font-family="sans-serif" font-size="8" fill="#666666" transform="rotate(-45,65.54166666666667,489)">02/27</text>
<text x="120.95833333333334" y="489" text-anchor="middle" font-family="sans-serif" font-size="8" fill="#666666" transform="rotate(-45,120.95833333333334,489)">03/06</text>
<text x="176.375" y="489" text-anchor="middle" font-family="sans-serif" font-size="8" fill="#666666" transform="rotate(-45,176.375,489)">03/13</text>
<text x="231.79166666666666" y="489" text-anchor="middle" font-family="sans-serif" font-size="8" fill="#666666" transform="rotate(-45,231.79166666666666,489)">03/20</text>
<text x="287.20833333333337" y="489" text-anchor="middle" font-family="sans-serif" font-size="8" fill="#666666" transform="rotate(-45,287.20833333333337,489)">03/27</text>
<text x="342.62500000000006" y="489" text-anchor="middle" font-family="sans-serif" font-size="8" fill="#666666" transform="rotate(-45,342.62500000000006,489)">04/03</text>
<text x="398.0416666666667" y="489" text-anchor="middle" font-family="sans-serif" font-size="8" fill="#666666" transform="rotate(-45,398.0416666666667,489)">04/13</text>
<text x="453.45833333333337" y="489" text-anchor="middle" font-family="sans-serif" font-size="8" fill="#666666" transform="rotate(-45,453.45833333333337,489)">04/20</text>
<text x="508.87500000000006" y="489" text-anchor="middle" font-family="sans-serif" font-size="8" fill="#666666" transform="rotate(-45,508.87500000000006,489)">04/27</text>
<text x="564.2916666666666" y="489" text-anchor="middle" font-family="sans-serif" font-size="8" fill="#666666" transform="rotate(-45,564.2916666666666,489)">05/07</text>
<text x="619.7083333333334" y="489" text-anchor="middle" font-family="sans-serif" font-size="8" fill="#666666" transform="rotate(-45,619.7083333333334,489)">05/14</text>
<text x="675.125" y="489" text-anchor="middle" font-family="sans-serif" font-size="8" fill="#666666" transform="rotate(-45,675.125,489)">05/21</text>
<text x="719.4583333333334" y="489" text-anchor="middle" font-family="sans-serif" font-size="8" fill="#666666" transform="rotate(-45,719.4583333333334,489)">05/27</text>
<rect x="60" y="484" width="8" height="8" fill="#4ecdc4" opacity="0.8" rx="1"/>
<text x="71" y="491" font-family="sans-serif" font-size="9" fill="#888888">买入区(BIAS&lt;2%)</text>
<rect x="230" y="484" width="8" height="8" fill="#ffd700" opacity="0.8" rx="1"/>
<text x="241" y="491" font-family="sans-serif" font-size="9" fill="#888888">持有区(2-8%)</text>
<rect x="400" y="484" width="8" height="8" fill="#e94560" opacity="0.8" rx="1"/>
<text x="411" y="491" font-family="sans-serif" font-size="9" fill="#888888">警戒区(&gt;8%)</text>
<rect x="570" y="484" width="8" height="8" fill="#ffd700" opacity="0.8" rx="1"/>
<text x="581" y="491" font-family="sans-serif" font-size="9" fill="#888888">EMA5</text>
<rect x="60" y="497" width="8" height="8" fill="#ff6b6b" opacity="0.8" rx="1"/>
<text x="71" y="504" font-family="sans-serif" font-size="9" fill="#888888">EMA10</text>
<rect x="230" y="497" width="8" height="8" fill="#4ecdc4" opacity="0.8" rx="1"/>
<text x="241" y="504" font-family="sans-serif" font-size="9" fill="#888888">EMA20</text>
<rect x="400" y="497" width="8" height="8" fill="#4ecdc4" opacity="0.8" rx="1"/>
<text x="411" y="504" font-family="sans-serif" font-size="9" fill="#888888">B乖离买入</text>
<rect x="570" y="497" width="8" height="8" fill="#e94560" opacity="0.8" rx="1"/>
<text x="581" y="504" font-family="sans-serif" font-size="9" fill="#888888">W警戒⚠️</text>
</svg>