<svg xmlns="http://www.w3.org/2000/svg" width="800" height="400" viewBox="0 0 800 400">
<rect width="800" height="400" fill="#1a1a2e"/>
<text x="400.0" y="20" text-anchor="middle" font-family="sans-serif" font-size="14" fill="#ffffff" font-weight="bold">深圳华强(000062) K线图</text>
<line x1="60" y1="30.0" x2="780" y2="30.0" stroke="#2a2a4e" stroke-width="0.5"/>
<text x="55" y="33.0" text-anchor="end" font-family="sans-serif" font-size="8" fill="#666666">40.13</text>
<line x1="60" y1="83.99999999999997" x2="780" y2="83.99999999999997" stroke="#2a2a4e" stroke-width="0.5"/>
<text x="55" y="86.99999999999997" text-anchor="end" font-family="sans-serif" font-size="8" fill="#666666">36.65</text>
<line x1="60" y1="137.99999999999994" x2="780" y2="137.99999999999994" stroke="#2a2a4e" stroke-width="0.5"/>
<text x="55" y="140.99999999999994" text-anchor="end" font-family="sans-serif" font-size="8" fill="#666666">33.17</text>
<line x1="60" y1="192.0" x2="780" y2="192.0" stroke="#2a2a4e" stroke-width="0.5"/>
<text x="55" y="195.0" text-anchor="end" font-family="sans-serif" font-size="8" fill="#666666">29.68</text>
<line x1="60" y1="246.0" x2="780" y2="246.0" stroke="#2a2a4e" stroke-width="0.5"/>
<text x="55" y="249.0" text-anchor="end" font-family="sans-serif" font-size="8" fill="#666666">26.20</text>
<line x1="60" y1="300.0" x2="780" y2="300.0" stroke="#2a2a4e" stroke-width="0.5"/>
<text x="55" y="303.0" text-anchor="end" font-family="sans-serif" font-size="8" fill="#666666">22.72</text>
<line x1="60" y1="300" x2="780" y2="300" stroke="#2a2a4e" stroke-width="0.5"/>
<line x1="60" y1="345" x2="780" y2="345" stroke="#2a2a4e" stroke-width="0.5"/>
<rect x="61.8" y="342.79865632206395" width="7.199999999999999" height="2.201343677936052" fill="#ff4444" opacity="0.3"/>
<rect x="73.8" y="340.0952828005367" width="7.199999999999999" height="4.904717199463278" fill="#ff4444" opacity="0.3"/>
<rect x="85.8" y="340.6788301157982" width="7.199999999999999" height="4.321169884201822" fill="#44aa44" opacity="0.3"/>
<rect x="97.8" y="340.96066980017025" width="7.199999999999999" height="4.039330199829749" fill="#44aa44" opacity="0.3"/>
<rect x="109.8" y="342.7922093128976" width="7.199999999999999" height="2.2077906871023742" fill="#ff4444" opacity="0.3"/>
<rect x="121.8" y="342.56696693014914" width="7.199999999999999" height="2.4330330698508646" fill="#44aa44" opacity="0.3"/>
<rect x="133.8" y="343.1647100636711" width="7.199999999999999" height="1.835289936328877" fill="#ff4444" opacity="0.3"/>
<rect x="145.8" y="342.22865392509897" width="7.199999999999999" height="2.7713460749010324" fill="#ff4444" opacity="0.3"/>
<rect x="157.8" y="342.92381508655245" width="7.199999999999999" height="2.0761849134475483" fill="#ff4444" opacity="0.3"/>
<rect x="169.8" y="333.7663964800432" width="7.199999999999999" height="11.233603519956773" fill="#ff4444" opacity="0.3"/>
<rect x="181.8" y="332.4657433759736" width="7.199999999999999" height="12.534256624026398" fill="#ff4444" opacity="0.3"/>
<rect x="193.8" y="329.766864163721" width="7.199999999999999" height="15.233135836279018" fill="#ff4444" opacity="0.3"/>
<rect x="205.8" y="333.8569645607355" width="7.199999999999999" height="11.143035439264509" fill="#ff4444" opacity="0.3"/>
<rect x="217.8" y="328.0169041131368" width="7.199999999999999" height="16.983095886863225" fill="#ff4444" opacity="0.3"/>
<rect x="229.8" y="329.7225409757025" width="7.199999999999999" height="15.277459024297514" fill="#ff4444" opacity="0.3"/>
<rect x="241.8" y="333.8740119407426" width="7.199999999999999" height="11.125988059257395" fill="#44aa44" opacity="0.3"/>
<rect x="253.8" y="334.5937213294064" width="7.199999999999999" height="10.406278670593622" fill="#44aa44" opacity="0.3"/>
<rect x="265.8" y="333.39346179596043" width="7.199999999999999" height="11.606538204039566" fill="#ff4444" opacity="0.3"/>
<rect x="277.8" y="334.59660388638935" width="7.199999999999999" height="10.403396113610654" fill="#ff4444" opacity="0.3"/>
<rect x="289.8" y="333.7479853096355" width="7.199999999999999" height="11.25201469036449" fill="#ff4444" opacity="0.3"/>
<rect x="301.8" y="337.20441909416763" width="7.199999999999999" height="7.795580905832367" fill="#44aa44" opacity="0.3"/>
<rect x="313.8" y="327.35791439253467" width="7.199999999999999" height="17.642085607465333" fill="#ff4444" opacity="0.3"/>
<rect x="325.8" y="331.8548272669916" width="7.199999999999999" height="13.145172733008394" fill="#44aa44" opacity="0.3"/>
<rect x="337.8" y="334.4414727283247" width="7.199999999999999" height="10.558527271675302" fill="#44aa44" opacity="0.3"/>
<rect x="349.8" y="329.4044368647699" width="7.199999999999999" height="15.595563135230122" fill="#ff4444" opacity="0.3"/>
<rect x="361.8" y="332.5449052096793" width="7.199999999999999" height="12.455094790320686" fill="#44aa44" opacity="0.3"/>
<rect x="373.8" y="336.6217706407611" width="7.199999999999999" height="8.378229359238901" fill="#ff4444" opacity="0.3"/>
<rect x="385.8" y="328.25042222399776" width="7.199999999999999" height="16.74957777600224" fill="#ff4444" opacity="0.3"/>
<rect x="397.8" y="317.97788799836894" width="7.199999999999999" height="27.022112001631058" fill="#44aa44" opacity="0.3"/>
<rect x="409.8" y="318.47471064224885" width="7.199999999999999" height="26.52528935775115" fill="#ff4444" opacity="0.3"/>
<rect x="421.8" y="325.0119159464292" width="7.199999999999999" height="19.988084053570788" fill="#44aa44" opacity="0.3"/>
<rect x="433.8" y="331.3448936381244" width="7.199999999999999" height="13.655106361875596" fill="#ff4444" opacity="0.3"/>
<rect x="445.8" y="331.41705054840907" width="7.199999999999999" height="13.582949451590935" fill="#44aa44" opacity="0.3"/>
<rect x="457.8" y="329.444699676823" width="7.199999999999999" height="15.555300323176994" fill="#44aa44" opacity="0.3"/>
<rect x="469.8" y="330.631135334845" width="7.199999999999999" height="14.368864665155002" fill="#ff4444" opacity="0.3"/>
<rect x="481.8" y="318.57401937959935" width="7.199999999999999" height="26.42598062040065" fill="#ff4444" opacity="0.3"/>
<rect x="493.8" y="318.8974236759524" width="7.199999999999999" height="26.102576324047618" fill="#ff4444" opacity="0.3"/>
<rect x="505.8" y="329.0451400846928" width="7.199999999999999" height="15.954859915307225" fill="#44aa44" opacity="0.3"/>
<rect x="517.8" y="322.4686948112597" width="7.199999999999999" height="22.531305188740305" fill="#ff4444" opacity="0.3"/>
<rect x="529.8" y="321.2428332125667" width="7.199999999999999" height="23.757166787433277" fill="#44aa44" opacity="0.3"/>
<rect x="541.8" y="310.24364666532585" width="7.199999999999999" height="34.756353334674145" fill="#ff4444" opacity="0.3"/>
<rect x="553.8" y="311.6765874382506" width="7.199999999999999" height="33.32341256174942" fill="#ff4444" opacity="0.3"/>
<rect x="565.8" y="300.0" width="7.199999999999999" height="45.0" fill="#44aa44" opacity="0.3"/>
<rect x="577.8" y="313.3553514308779" width="7.199999999999999" height="31.644648569122126" fill="#ff4444" opacity="0.3"/>
<rect x="589.8" y="308.7400987439353" width="7.199999999999999" height="36.25990125606472" fill="#ff4444" opacity="0.3"/>
<rect x="601.8" y="305.1745617273576" width="7.199999999999999" height="39.82543827264237" fill="#44aa44" opacity="0.3"/>
<rect x="613.8" y="310.9108191283313" width="7.199999999999999" height="34.0891808716687" fill="#ff4444" opacity="0.3"/>
<rect x="625.8" y="316.7710264795748" width="7.199999999999999" height="28.2289735204252" fill="#44aa44" opacity="0.3"/>
<rect x="637.8" y="318.042668042396" width="7.199999999999999" height="26.957331957604026" fill="#ff4444" opacity="0.3"/>
<rect x="649.8" y="309.6624239927926" width="7.199999999999999" height="35.33757600720742" fill="#44aa44" opacity="0.3"/>
<rect x="661.8" y="318.6876169209194" width="7.199999999999999" height="26.312383079080575" fill="#ff4444" opacity="0.3"/>
<rect x="673.8" y="322.2600348799727" width="7.199999999999999" height="22.739965120027307" fill="#44aa44" opacity="0.3"/>
<rect x="685.8" y="324.44126264950035" width="7.199999999999999" height="20.558737350499655" fill="#44aa44" opacity="0.3"/>
<rect x="697.8" y="330.2083603106687" width="7.199999999999999" height="14.791639689331305" fill="#ff4444" opacity="0.3"/>
<rect x="709.8" y="328.5863795910833" width="7.199999999999999" height="16.4136204089167" fill="#ff4444" opacity="0.3"/>
<rect x="721.8" y="322.09848770797805" width="7.199999999999999" height="22.90151229202195" fill="#ff4444" opacity="0.3"/>
<rect x="733.8" y="325.24500012398096" width="7.199999999999999" height="19.754999876019042" fill="#44aa44" opacity="0.3"/>
<rect x="745.8" y="326.8565974393802" width="7.199999999999999" height="18.14340256061979" fill="#ff4444" opacity="0.3"/>
<rect x="757.8" y="315.2230003939839" width="7.199999999999999" height="29.77699960601609" fill="#ff4444" opacity="0.3"/>
<rect x="769.8" y="323.54004515661546" width="7.199999999999999" height="21.459954843384537" fill="#44aa44" opacity="0.3"/>
<polyline points="66.0,267.12 78.0,264.74 90.0,268.33 102.0,276.04 114.0,282.32 126.0,285.89 138.0,286.56 150.0,286.80 162.0,285.51 174.0,272.35 186.0,265.23 198.0,258.78 210.0,251.48 222.0,243.77 234.0,237.08 246.0,238.05 258.0,243.14 270.0,244.10 282.0,241.75 294.0,237.02 306.0,237.60 318.0,232.24 330.0,235.75 342.0,246.88 354.0,247.22 366.0,256.49 378.0,261.43 390.0,252.01 402.0,239.11 414.0,227.04 426.0,221.07 438.0,216.52 450.0,214.10 462.0,215.44 474.0,213.13 486.0,205.69 498.0,193.45 510.0,193.04 522.0,177.41 534.0,174.33 546.0,156.15 558.0,126.30 570.0,114.52 582.0,109.50 594.0,99.60 606.0,93.20 618.0,85.93 630.0,91.02 642.0,76.05 654.0,74.87 666.0,77.13 678.0,94.86 690.0,114.70 702.0,128.34 714.0,133.92 726.0,128.85 738.0,131.57 750.0,126.14 762.0,114.51 774.0,119.79" fill="none" stroke="#ffd700" stroke-width="0.8" opacity="0.7"/>
<polyline points="66.0,267.12 78.0,265.83 90.0,267.58 102.0,271.93 114.0,276.10 126.0,279.18 138.0,280.76 150.0,281.95 162.0,282.13 174.0,275.57 186.0,271.10 198.0,266.51 210.0,261.12 222.0,255.17 234.0,249.44 246.0,247.72 258.0,248.74 270.0,248.25 282.0,246.21 294.0,242.82 306.0,242.08 318.0,238.34 330.0,239.15 342.0,244.60 354.0,245.20 366.0,250.62 378.0,254.38 390.0,250.53 402.0,243.76 414.0,236.33 426.0,231.39 438.0,227.03 450.0,223.80 462.0,222.77 474.0,220.17 486.0,214.84 498.0,206.49 510.0,203.90 522.0,193.40 534.0,188.81 546.0,176.27 558.0,156.33 570.0,144.44 582.0,136.26 594.0,125.99 606.0,117.71 618.0,109.29 630.0,107.81 642.0,96.60 654.0,92.22 666.0,90.29 678.0,97.57 690.0,107.90 702.0,116.58 714.0,121.76 726.0,121.20 738.0,124.08 750.0,122.48 762.0,116.80 774.0,119.26" fill="none" stroke="#ff6b6b" stroke-width="0.8" opacity="0.7"/>
<polyline points="66.0,267.12 78.0,266.44 90.0,267.31 102.0,269.61 114.0,272.01 126.0,274.01 138.0,275.34 150.0,276.48 162.0,277.09 174.0,274.13 186.0,271.93 198.0,269.45 210.0,266.35 222.0,262.73 234.0,259.01 246.0,257.20 258.0,256.83 270.0,255.80 282.0,254.01 294.0,251.50 306.0,250.28 318.0,247.54 330.0,247.09 342.0,249.19 354.0,249.07 366.0,251.54 378.0,253.42 390.0,251.49 402.0,247.85 414.0,243.58 426.0,240.29 438.0,237.16 450.0,234.51 462.0,232.95 474.0,230.62 486.0,226.83 498.0,221.32 510.0,218.54 522.0,211.65 534.0,207.51 546.0,199.16 558.0,186.53 570.0,177.43 582.0,170.00 594.0,161.41 606.0,153.70 618.0,145.86 630.0,141.60 642.0,132.51 654.0,126.80 666.0,122.50 678.0,123.24 690.0,126.21 702.0,129.01 714.0,130.54 726.0,129.41 738.0,130.14 750.0,128.72 762.0,125.15 774.0,125.65" fill="none" stroke="#4ecdc4" stroke-width="0.8" opacity="0.7"/>
<line x1="66.0" y1="266.0367604824813" x2="66.0" y2="270.84434233199306" stroke="#ff4444" stroke-width="0.5" opacity="0.6"/>
<rect x="63.0" y="267.12234348075816" width="6.0" height="0.5" fill="#ff4444" opacity="0.85"/>
<line x1="78.0" y1="258.2825962090752" x2="78.0" y2="270.5341757610569" stroke="#ff4444" stroke-width="0.5" opacity="0.6"/>
<rect x="75.0" y="259.9885123492246" width="6.0" height="8.529580700746692" fill="#ff4444" opacity="0.85"/>
<line x1="90.0" y1="267.4325100516944" x2="90.0" y2="276.5824238943136" stroke="#44aa44" stroke-width="0.5" opacity="0.6"/>
<rect x="87.0" y="269.2935094773119" width="6.0" height="6.203331418724815" fill="#44aa44" opacity="0.85"/>
<line x1="102.0" y1="273.0155083285468" x2="102.0" y2="291.9356691556577" stroke="#44aa44" stroke-width="0.5" opacity="0.6"/>
<rect x="99.0" y="275.807007466973" width="6.0" height="15.663411832280303" fill="#44aa44" opacity="0.85"/>
<line x1="114.0" y1="289.45433658816773" x2="114.0" y2="297.2085008615738" stroke="#ff4444" stroke-width="0.5" opacity="0.6"/>
<rect x="111.0" y="294.88225157955196" width="6.0" height="1.0855829982768341" fill="#ff4444" opacity="0.85"/>
<line x1="126.0" y1="287.12808730614586" x2="126.0" y2="293.9517518667432" stroke="#44aa44" stroke-width="0.5" opacity="0.6"/>
<rect x="123.0" y="291.16025272831706" width="6.0" height="1.8609994256174218" fill="#44aa44" opacity="0.85"/>
<line x1="138.0" y1="287.74842044801835" x2="138.0" y2="295.50258472142445" stroke="#ff4444" stroke-width="0.5" opacity="0.6"/>
<rect x="135.0" y="287.9035037334865" width="6.0" height="5.117748420447981" fill="#ff4444" opacity="0.85"/>
<line x1="150.0" y1="285.2670878805284" x2="150.0" y2="300.0" stroke="#ff4444" stroke-width="0.5" opacity="0.6"/>
<rect x="147.0" y="287.283170591614" width="6.0" height="4.807581849511735" fill="#ff4444" opacity="0.85"/>
<line x1="162.0" y1="280.61458931648474" x2="162.0" y2="285.7323377369328" stroke="#ff4444" stroke-width="0.5" opacity="0.6"/>
<rect x="159.0" y="282.94083859850656" width="6.0" height="0.9304997128087393" fill="#ff4444" opacity="0.85"/>
<line x1="174.0" y1="246.03101665709363" x2="174.0" y2="284.1815048822516" stroke="#ff4444" stroke-width="0.5" opacity="0.6"/>
<rect x="171.0" y="246.03101665709363" width="6.0" height="36.90982194141293" fill="#ff4444" opacity="0.85"/>
<line x1="186.0" y1="246.49626651349794" x2="186.0" y2="257.1970132107984" stroke="#ff4444" stroke-width="0.5" opacity="0.6"/>
<rect x="183.0" y="250.99368179207352" width="6.0" height="1.2406662837449574" fill="#ff4444" opacity="0.85"/>
<line x1="198.0" y1="230.67777139574955" x2="198.0" y2="255.02584721424466" stroke="#ff4444" stroke-width="0.5" opacity="0.6"/>
<rect x="195.0" y="245.87593337162548" width="6.0" height="7.288914417001763" fill="#ff4444" opacity="0.85"/>
<line x1="210.0" y1="236.88110281447445" x2="210.0" y2="253.0097645031591" stroke="#ff4444" stroke-width="0.5" opacity="0.6"/>
<rect x="207.0" y="236.88110281447445" width="6.0" height="13.182079264790332" fill="#ff4444" opacity="0.85"/>
<line x1="222.0" y1="209.74152785755314" x2="222.0" y2="241.37851809305" stroke="#ff4444" stroke-width="0.5" opacity="0.6"/>
<rect x="219.0" y="228.35152211372775" width="6.0" height="6.203331418724844" fill="#ff4444" opacity="0.85"/>
<line x1="234.0" y1="210.36186099942563" x2="234.0" y2="241.06835152211372" stroke="#ff4444" stroke-width="0.5" opacity="0.6"/>
<rect x="231.0" y="223.69902354968406" width="6.0" height="14.267662263067251" fill="#ff4444" opacity="0.85"/>
<line x1="246.0" y1="223.69902354968406" x2="246.0" y2="250.373348650201" stroke="#44aa44" stroke-width="0.5" opacity="0.6"/>
<rect x="243.0" y="238.27685238368753" width="6.0" height="1.7059161401493554" fill="#44aa44" opacity="0.85"/>
<line x1="258.0" y1="232.53877082136702" x2="258.0" y2="254.4055140723722" stroke="#44aa44" stroke-width="0.5" opacity="0.6"/>
<rect x="255.0" y="241.37851809305" width="6.0" height="11.941412981045318" fill="#44aa44" opacity="0.85"/>
<line x1="270.0" y1="233.93452039058013" x2="270.0" y2="261.5393452039058" stroke="#ff4444" stroke-width="0.5" opacity="0.6"/>
<rect x="267.0" y="246.03101665709363" width="6.0" height="15.508328546812152" fill="#ff4444" opacity="0.85"/>
<line x1="282.0" y1="232.38368753589893" x2="282.0" y2="247.73693279724296" stroke="#ff4444" stroke-width="0.5" opacity="0.6"/>
<rect x="279.0" y="237.03618609994254" width="6.0" height="8.064330844342322" fill="#ff4444" opacity="0.85"/>
<line x1="294.0" y1="223.2337736932797" x2="294.0" y2="239.67260195290064" stroke="#ff4444" stroke-width="0.5" opacity="0.6"/>
<rect x="291.0" y="227.57610568638714" width="6.0" height="10.855829982768483" fill="#ff4444" opacity="0.85"/>
<line x1="306.0" y1="228.81677197013212" x2="306.0" y2="240.9132682366456" stroke="#44aa44" stroke-width="0.5" opacity="0.6"/>
<rect x="303.0" y="235.17518667432512" width="6.0" height="3.566915565766749" fill="#44aa44" opacity="0.85"/>
<line x1="318.0" y1="215.01435956346927" x2="318.0" y2="245.56576680068923" stroke="#ff4444" stroke-width="0.5" opacity="0.6"/>
<rect x="315.0" y="221.52785755313036" width="6.0" height="23.10740953475016" fill="#ff4444" opacity="0.85"/>
<line x1="330.0" y1="233.46927053417573" x2="330.0" y2="259.8334290637565" stroke="#44aa44" stroke-width="0.5" opacity="0.6"/>
<rect x="327.0" y="233.6243538196439" width="6.0" height="9.149913842619156" fill="#44aa44" opacity="0.85"/>
<line x1="342.0" y1="241.37851809305" x2="342.0" y2="269.1384261918438" stroke="#44aa44" stroke-width="0.5" opacity="0.6"/>
<rect x="339.0" y="250.99368179207352" width="6.0" height="18.144744399770275" fill="#44aa44" opacity="0.85"/>
<line x1="354.0" y1="230.8328546812177" x2="354.0" y2="261.8495117748421" stroke="#ff4444" stroke-width="0.5" opacity="0.6"/>
<rect x="351.0" y="247.8920160827111" width="6.0" height="13.957495692130976" fill="#ff4444" opacity="0.85"/>
<line x1="366.0" y1="259.9885123492246" x2="366.0" y2="275.807007466973" stroke="#44aa44" stroke-width="0.5" opacity="0.6"/>
<rect x="363.0" y="263.71051120045956" width="6.0" height="11.321079839172853" fill="#44aa44" opacity="0.85"/>
<line x1="378.0" y1="258.59276278001147" x2="378.0" y2="278.1332567489948" stroke="#ff4444" stroke-width="0.5" opacity="0.6"/>
<rect x="375.0" y="271.30959218839746" width="6.0" height="3.5669155657668057" fill="#ff4444" opacity="0.85"/>
<line x1="390.0" y1="233.15910396323952" x2="390.0" y2="267.74267662263065" stroke="#ff4444" stroke-width="0.5" opacity="0.6"/>
<rect x="387.0" y="233.15910396323952" width="6.0" height="33.34290637564621" fill="#ff4444" opacity="0.85"/>
<line x1="402.0" y1="205.70936243538196" x2="402.0" y2="223.543940264216" stroke="#44aa44" stroke-width="0.5" opacity="0.6"/>
<rect x="399.0" y="212.68811028144745" width="6.0" height="0.6203331418724929" fill="#44aa44" opacity="0.85"/>
<line x1="414.0" y1="200.59161401493398" x2="414.0" y2="224.31935669155655" stroke="#ff4444" stroke-width="0.5" opacity="0.6"/>
<rect x="411.0" y="202.91786329695577" width="6.0" height="16.283744974152796" fill="#ff4444" opacity="0.85"/>
<line x1="426.0" y1="200.9017805858702" x2="426.0" y2="217.96094198736355" stroke="#44aa44" stroke-width="0.5" opacity="0.6"/>
<rect x="423.0" y="208.81102814474437" width="6.0" height="0.5" fill="#44aa44" opacity="0.85"/>
<line x1="438.0" y1="201.0568638713383" x2="438.0" y2="213.30844342331994" stroke="#ff4444" stroke-width="0.5" opacity="0.6"/>
<rect x="435.0" y="207.4152785755313" width="6.0" height="5.427914991384284" fill="#ff4444" opacity="0.85"/>
<line x1="450.0" y1="201.8322802986789" x2="450.0" y2="213.6186099942562" stroke="#44aa44" stroke-width="0.5" opacity="0.6"/>
<rect x="447.0" y="204.468696151637" width="6.0" height="4.807581849511763" fill="#44aa44" opacity="0.85"/>
<line x1="462.0" y1="199.5060310166571" x2="462.0" y2="223.543940264216" stroke="#44aa44" stroke-width="0.5" opacity="0.6"/>
<rect x="459.0" y="201.0568638713383" width="6.0" height="17.059161401493412" fill="#44aa44" opacity="0.85"/>
<line x1="474.0" y1="202.60769672601955" x2="474.0" y2="225.71510626076966" stroke="#ff4444" stroke-width="0.5" opacity="0.6"/>
<rect x="471.0" y="208.50086157380815" width="6.0" height="9.615163699023554" fill="#ff4444" opacity="0.85"/>
<line x1="486.0" y1="164.14704192992534" x2="486.0" y2="195.1636990235497" stroke="#ff4444" stroke-width="0.5" opacity="0.6"/>
<rect x="483.0" y="190.82136703044225" width="6.0" height="4.032165422171204" fill="#ff4444" opacity="0.85"/>
<line x1="498.0" y1="156.23779437105117" x2="498.0" y2="184.46295232624925" stroke="#ff4444" stroke-width="0.5" opacity="0.6"/>
<rect x="495.0" y="168.95462377943707" width="6.0" height="4.032165422171204" fill="#ff4444" opacity="0.85"/>
<line x1="510.0" y1="177.79437105112004" x2="510.0" y2="193.6128661688685" stroke="#44aa44" stroke-width="0.5" opacity="0.6"/>
<rect x="507.0" y="181.67145318782306" width="6.0" height="10.545663411832265" fill="#44aa44" opacity="0.85"/>
<line x1="522.0" y1="146.1573808156232" x2="522.0" y2="189.11545089029292" stroke="#ff4444" stroke-width="0.5" opacity="0.6"/>
<rect x="519.0" y="146.1573808156232" width="6.0" height="34.73865594485929" fill="#ff4444" opacity="0.85"/>
<line x1="534.0" y1="139.0235496840896" x2="534.0" y2="173.29695577254452" stroke="#44aa44" stroke-width="0.5" opacity="0.6"/>
<rect x="531.0" y="139.0235496840896" width="6.0" height="29.15565766800691" fill="#44aa44" opacity="0.85"/>
<line x1="546.0" y1="119.79322228604246" x2="546.0" y2="180.1206203331419" stroke="#ff4444" stroke-width="0.5" opacity="0.6"/>
<rect x="543.0" y="119.79322228604246" width="6.0" height="54.74439977024704" fill="#ff4444" opacity="0.85"/>
<line x1="558.0" y1="66.59965537047671" x2="558.0" y2="119.79322228604246" stroke="#ff4444" stroke-width="0.5" opacity="0.6"/>
<rect x="555.0" y="66.59965537047671" width="6.0" height="37.21998851234932" fill="#ff4444" opacity="0.85"/>
<line x1="570.0" y1="44.42274554853532" x2="570.0" y2="98.08156232050544" stroke="#44aa44" stroke-width="0.5" opacity="0.6"/>
<rect x="567.0" y="58.69040781160254" width="6.0" height="32.2573233773693" fill="#44aa44" opacity="0.85"/>
<line x1="582.0" y1="87.22573233773699" x2="582.0" y2="114.83055715106269" stroke="#ff4444" stroke-width="0.5" opacity="0.6"/>
<rect x="579.0" y="99.47731188971859" width="6.0" height="8.219414129810474" fill="#ff4444" opacity="0.85"/>
<line x1="594.0" y1="67.68523836875357" x2="594.0" y2="106.45605973578401" stroke="#ff4444" stroke-width="0.5" opacity="0.6"/>
<rect x="591.0" y="79.78173463526709" width="6.0" height="18.144744399770275" fill="#ff4444" opacity="0.85"/>
<line x1="606.0" y1="30.0" x2="606.0" y2="90.63756461803567" stroke="#44aa44" stroke-width="0.5" opacity="0.6"/>
<rect x="603.0" y="63.187823090178064" width="6.0" height="17.2142446869615" fill="#44aa44" opacity="0.85"/>
<line x1="618.0" y1="59.93107409534749" x2="618.0" y2="101.33831131533601" stroke="#ff4444" stroke-width="0.5" opacity="0.6"/>
<rect x="615.0" y="71.40723721998853" width="6.0" height="23.41757610568635" fill="#ff4444" opacity="0.85"/>
<line x1="630.0" y1="88.46639862148194" x2="630.0" y2="106.45605973578401" stroke="#44aa44" stroke-width="0.5" opacity="0.6"/>
<rect x="627.0" y="93.27398047099375" width="6.0" height="7.909247558874185" fill="#44aa44" opacity="0.85"/>
<line x1="642.0" y1="46.128661688684645" x2="642.0" y2="91.10281447444004" stroke="#ff4444" stroke-width="0.5" opacity="0.6"/>
<rect x="639.0" y="46.128661688684645" width="6.0" height="44.97415278575539" fill="#ff4444" opacity="0.85"/>
<line x1="654.0" y1="39.770246984491706" x2="654.0" y2="78.54106835152214" stroke="#44aa44" stroke-width="0.5" opacity="0.6"/>
<rect x="651.0" y="39.770246984491706" width="6.0" height="32.72257323377369" fill="#44aa44" opacity="0.85"/>
<line x1="666.0" y1="81.64273406088462" x2="666.0" y2="112.50430786904076" stroke="#ff4444" stroke-width="0.5" opacity="0.6"/>
<rect x="663.0" y="81.64273406088462" width="6.0" height="14.267662263067123" fill="#ff4444" opacity="0.85"/>
<line x1="678.0" y1="81.48765077541643" x2="678.0" y2="132.04480183802417" stroke="#44aa44" stroke-width="0.5" opacity="0.6"/>
<rect x="675.0" y="81.64273406088462" width="6.0" height="48.69615163699022" fill="#44aa44" opacity="0.85"/>
<line x1="690.0" y1="117.31188971855258" x2="690.0" y2="160.58012636415853" stroke="#44aa44" stroke-width="0.5" opacity="0.6"/>
<rect x="687.0" y="134.0608845491097" width="6.0" height="20.315910396324" fill="#44aa44" opacity="0.85"/>
<line x1="702.0" y1="142.74554853532453" x2="702.0" y2="162.59620907524413" stroke="#ff4444" stroke-width="0.5" opacity="0.6"/>
<rect x="699.0" y="155.61746122917862" width="6.0" height="5.272831705916161" fill="#ff4444" opacity="0.85"/>
<line x1="714.0" y1="145.07179781734635" x2="714.0" y2="172.3664560597358" stroke="#ff4444" stroke-width="0.5" opacity="0.6"/>
<rect x="711.0" y="145.07179781734635" width="6.0" height="8.374497415278569" fill="#ff4444" opacity="0.85"/>
<line x1="726.0" y1="117.93222286042504" x2="726.0" y2="156.082711085583" stroke="#ff4444" stroke-width="0.5" opacity="0.6"/>
<rect x="723.0" y="118.70763928776573" width="6.0" height="35.82423894313605" fill="#ff4444" opacity="0.85"/>
<line x1="738.0" y1="109.71280873061457" x2="738.0" y2="140.57438253877083" stroke="#44aa44" stroke-width="0.5" opacity="0.6"/>
<rect x="735.0" y="121.96438828259619" width="6.0" height="15.043078690407896" fill="#44aa44" opacity="0.85"/>
<line x1="750.0" y1="114.055140723722" x2="750.0" y2="140.41929925330277" stroke="#ff4444" stroke-width="0.5" opacity="0.6"/>
<rect x="747.0" y="115.29580700746695" width="6.0" height="24.503159103963327" fill="#ff4444" opacity="0.85"/>
<line x1="762.0" y1="74.35381964388282" x2="762.0" y2="134.0608845491097" stroke="#ff4444" stroke-width="0.5" opacity="0.6"/>
<rect x="759.0" y="91.25789775990813" width="6.0" height="21.86674325100512" fill="#ff4444" opacity="0.85"/>
<line x1="774.0" y1="108.16197587593334" x2="774.0" y2="136.07696726019532" stroke="#44aa44" stroke-width="0.5" opacity="0.6"/>
<rect x="771.0" y="112.34922458357268" width="6.0" height="17.989661114302166" fill="#44aa44" opacity="0.85"/>
<rect x="146.0" y="296.0" width="8" height="8" fill="#4caf50" opacity="0.85" rx="1"/>
<text x="150.0" y="294.0" text-anchor="middle" font-family="sans-serif" font-size="8" fill="#4caf50">前低</text>
<rect x="170.0" y="242.03101665709363" width="8" height="8" fill="#ff9800" opacity="0.85" rx="1"/>
<text x="174.0" y="240.03101665709363" text-anchor="middle" font-family="sans-serif" font-size="8" fill="#ff9800">前高</text>
<rect x="194.0" y="226.67777139574955" width="8" height="8" fill="#ff9800" opacity="0.85" rx="1"/>
<text x="198.0" y="224.67777139574955" text-anchor="middle" font-family="sans-serif" font-size="8" fill="#ff9800">前高</text>
<rect x="218.0" y="205.74152785755314" width="8" height="8" fill="#ff9800" opacity="0.85" rx="1"/>
<text x="222.0" y="203.74152785755314" text-anchor="middle" font-family="sans-serif" font-size="8" fill="#ff9800">前高</text>
<rect x="338.0" y="265.1384261918438" width="8" height="8" fill="#4caf50" opacity="0.85" rx="1"/>
<text x="342.0" y="263.1384261918438" text-anchor="middle" font-family="sans-serif" font-size="8" fill="#4caf50">前低</text>
<rect x="362.0" y="271.807007466973" width="8" height="8" fill="#4caf50" opacity="0.85" rx="1"/>
<text x="366.0" y="269.807007466973" text-anchor="middle" font-family="sans-serif" font-size="8" fill="#4caf50">前低</text>
<rect x="374.0" y="274.1332567489948" width="8" height="8" fill="#4caf50" opacity="0.85" rx="1"/>
<text x="378.0" y="272.1332567489948" text-anchor="middle" font-family="sans-serif" font-size="8" fill="#4caf50">前低</text>
<rect x="398.0" y="201.70936243538196" width="8" height="8" fill="#ff9800" opacity="0.85" rx="1"/>
<text x="402.0" y="199.70936243538196" text-anchor="middle" font-family="sans-serif" font-size="8" fill="#ff9800">前高</text>
<rect x="398.0" y="192.79207352096495" width="8" height="8" fill="#ff9800" opacity="0.85" rx="1"/>
<text x="402.0" y="190.79207352096495" text-anchor="middle" font-family="sans-serif" font-size="8" fill="#ff9800">量</text>
<rect x="410.0" y="196.59161401493398" width="8" height="8" fill="#ff9800" opacity="0.85" rx="1"/>
<text x="414.0" y="194.59161401493398" text-anchor="middle" font-family="sans-serif" font-size="8" fill="#ff9800">前高</text>
<rect x="410.0" y="196.59161401493398" width="8" height="8" fill="#2196f3" opacity="0.85" rx="1"/>
<text x="414.0" y="194.59161401493398" text-anchor="middle" font-family="sans-serif" font-size="8" fill="#2196f3">突</text>
<rect x="458.0" y="195.5060310166571" width="8" height="8" fill="#ff9800" opacity="0.85" rx="1"/>
<text x="462.0" y="193.5060310166571" text-anchor="middle" font-family="sans-serif" font-size="8" fill="#ff9800">前高</text>
<rect x="482.0" y="160.14704192992534" width="8" height="8" fill="#ff9800" opacity="0.85" rx="1"/>
<text x="486.0" y="158.14704192992534" text-anchor="middle" font-family="sans-serif" font-size="8" fill="#ff9800">前高</text>
<rect x="494.0" y="152.23779437105117" width="8" height="8" fill="#ff9800" opacity="0.85" rx="1"/>
<text x="498.0" y="150.23779437105117" text-anchor="middle" font-family="sans-serif" font-size="8" fill="#ff9800">前高</text>
<rect x="518.0" y="142.1573808156232" width="8" height="8" fill="#ff9800" opacity="0.85" rx="1"/>
<text x="522.0" y="140.1573808156232" text-anchor="middle" font-family="sans-serif" font-size="8" fill="#ff9800">前高</text>
<rect x="518.0" y="142.1573808156232" width="8" height="8" fill="#2196f3" opacity="0.85" rx="1"/>
<text x="522.0" y="140.1573808156232" text-anchor="middle" font-family="sans-serif" font-size="8" fill="#2196f3">突</text>
<rect x="530.0" y="135.0235496840896" width="8" height="8" fill="#ff9800" opacity="0.85" rx="1"/>
<text x="534.0" y="133.0235496840896" text-anchor="middle" font-family="sans-serif" font-size="8" fill="#ff9800">前高</text>
<rect x="542.0" y="115.79322228604246" width="8" height="8" fill="#ff9800" opacity="0.85" rx="1"/>
<text x="546.0" y="113.79322228604246" text-anchor="middle" font-family="sans-serif" font-size="8" fill="#ff9800">前高</text>
<rect x="542.0" y="115.79322228604246" width="8" height="8" fill="#2196f3" opacity="0.85" rx="1"/>
<text x="546.0" y="113.79322228604246" text-anchor="middle" font-family="sans-serif" font-size="8" fill="#2196f3">突</text>
<rect x="554.0" y="62.59965537047671" width="8" height="8" fill="#ff9800" opacity="0.85" rx="1"/>
<text x="558.0" y="60.59965537047671" text-anchor="middle" font-family="sans-serif" font-size="8" fill="#ff9800">前高</text>
<rect x="554.0" y="62.59965537047671" width="8" height="8" fill="#2196f3" opacity="0.85" rx="1"/>
<text x="558.0" y="60.59965537047671" text-anchor="middle" font-family="sans-serif" font-size="8" fill="#2196f3">突</text>
<rect x="566.0" y="40.42274554853532" width="8" height="8" fill="#ff9800" opacity="0.85" rx="1"/>
<text x="570.0" y="38.42274554853532" text-anchor="middle" font-family="sans-serif" font-size="8" fill="#ff9800">前高</text>
<rect x="602.0" y="26.0" width="8" height="8" fill="#ff9800" opacity="0.85" rx="1"/>
<text x="606.0" y="24.0" text-anchor="middle" font-family="sans-serif" font-size="8" fill="#ff9800">前高</text>
<rect x="674.0" y="128.04480183802417" width="8" height="8" fill="#4caf50" opacity="0.85" rx="1"/>
<text x="678.0" y="126.04480183802417" text-anchor="middle" font-family="sans-serif" font-size="8" fill="#4caf50">前低</text>
<rect x="686.0" y="156.58012636415853" width="8" height="8" fill="#4caf50" opacity="0.85" rx="1"/>
<text x="690.0" y="154.58012636415853" text-anchor="middle" font-family="sans-serif" font-size="8" fill="#4caf50">前低</text>
<rect x="698.0" y="158.59620907524413" width="8" height="8" fill="#4caf50" opacity="0.85" rx="1"/>
<text x="702.0" y="156.59620907524413" text-anchor="middle" font-family="sans-serif" font-size="8" fill="#4caf50">前低</text>
<rect x="710.0" y="168.3664560597358" width="8" height="8" fill="#4caf50" opacity="0.85" rx="1"/>
<text x="714.0" y="166.3664560597358" text-anchor="middle" font-family="sans-serif" font-size="8" fill="#4caf50">前低</text>
<line x1="60" y1="146.1573808156232" x2="780" y2="146.1573808156232" stroke="#4caf50" stroke-width="1.5" stroke-dasharray="6,3" opacity="0.7"/>
<text x="64" y="142.1573808156232" font-family="sans-serif" font-size="9" fill="#4caf50" font-weight="bold">支撑 32.64</text>
<line x1="60" y1="30.0" x2="780" y2="30.0" stroke="#f44336" stroke-width="1.5" stroke-dasharray="6,3" opacity="0.7"/>
<text x="64" y="26.0" font-family="sans-serif" font-size="9" fill="#f44336" font-weight="bold">压力 40.13</text>
<text x="66.0" y="359" text-anchor="middle" font-family="sans-serif" font-size="8" fill="#666666" transform="rotate(-40,66.0,359)">02/26</text>
<text x="138.0" y="359" text-anchor="middle" font-family="sans-serif" font-size="8" fill="#666666" transform="rotate(-40,138.0,359)">03/06</text>
<text x="210.0" y="359" text-anchor="middle" font-family="sans-serif" font-size="8" fill="#666666" transform="rotate(-40,210.0,359)">03/16</text>
<text x="282.0" y="359" text-anchor="middle" font-family="sans-serif" font-size="8" fill="#666666" transform="rotate(-40,282.0,359)">03/24</text>
<text x="354.0" y="359" text-anchor="middle" font-family="sans-serif" font-size="8" fill="#666666" transform="rotate(-40,354.0,359)">04/01</text>
<text x="426.0" y="359" text-anchor="middle" font-family="sans-serif" font-size="8" fill="#666666" transform="rotate(-40,426.0,359)">04/10</text>
<text x="498.0" y="359" text-anchor="middle" font-family="sans-serif" font-size="8" fill="#666666" transform="rotate(-40,498.0,359)">04/20</text>
<text x="570.0" y="359" text-anchor="middle" font-family="sans-serif" font-size="8" fill="#666666" transform="rotate(-40,570.0,359)">04/28</text>
<text x="642.0" y="359" text-anchor="middle" font-family="sans-serif" font-size="8" fill="#666666" transform="rotate(-40,642.0,359)">05/11</text>
<text x="714.0" y="359" text-anchor="middle" font-family="sans-serif" font-size="8" fill="#666666" transform="rotate(-40,714.0,359)">05/19</text>
<text x="774.0" y="359" text-anchor="middle" font-family="sans-serif" font-size="8" fill="#666666" transform="rotate(-40,774.0,359)">05/26</text>
<text x="400.0" y="396" text-anchor="middle" font-family="sans-serif" font-size="9" fill="#555555">数据截至: 2026-05-26 19:41  |  最新K线: 20260526</text>
<rect x="50" y="373" width="8" height="8" fill="#ffd700" opacity="0.8" rx="1"/>
<text x="61" y="380" font-family="sans-serif" font-size="9" fill="#888888">EMA5</text>
<rect x="150" y="373" width="8" height="8" fill="#ff6b6b" opacity="0.8" rx="1"/>
<text x="161" y="380" font-family="sans-serif" font-size="9" fill="#888888">EMA10</text>
<rect x="250" y="373" width="8" height="8" fill="#4ecdc4" opacity="0.8" rx="1"/>
<text x="261" y="380" font-family="sans-serif" font-size="9" fill="#888888">EMA20</text>
<rect x="350" y="373" width="8" height="8" fill="#2196f3" opacity="0.8" rx="1"/>
<text x="361" y="380" font-family="sans-serif" font-size="9" fill="#888888">突破</text>
<rect x="450" y="373" width="8" height="8" fill="#ff9800" opacity="0.8" rx="1"/>
<text x="461" y="380" font-family="sans-serif" font-size="9" fill="#888888">前高/量</text>
<rect x="550" y="373" width="8" height="8" fill="#4caf50" opacity="0.8" rx="1"/>
<text x="561" y="380" font-family="sans-serif" font-size="9" fill="#888888">前低</text>
</svg>