<svg xmlns="http://www.w3.org/2000/svg" width="800" height="400" viewBox="0 0 800 400">
<rect width="800" height="400" fill="#1a1a2e"/>
<text x="400.0" y="20" text-anchor="middle" font-family="sans-serif" font-size="14" fill="#ffffff" font-weight="bold">奥比中光-W(688322) K线图</text>
<line x1="60" y1="30.0" x2="780" y2="30.0" stroke="#2a2a4e" stroke-width="0.5"/>
<text x="55" y="33.0" text-anchor="end" font-family="sans-serif" font-size="8" fill="#666666">126.96</text>
<line x1="60" y1="84.0" x2="780" y2="84.0" stroke="#2a2a4e" stroke-width="0.5"/>
<text x="55" y="87.0" text-anchor="end" font-family="sans-serif" font-size="8" fill="#666666">116.06</text>
<line x1="60" y1="137.99999999999994" x2="780" y2="137.99999999999994" stroke="#2a2a4e" stroke-width="0.5"/>
<text x="55" y="140.99999999999994" text-anchor="end" font-family="sans-serif" font-size="8" fill="#666666">105.16</text>
<line x1="60" y1="192.00000000000006" x2="780" y2="192.00000000000006" stroke="#2a2a4e" stroke-width="0.5"/>
<text x="55" y="195.00000000000006" text-anchor="end" font-family="sans-serif" font-size="8" fill="#666666">94.25</text>
<line x1="60" y1="245.99999999999997" x2="780" y2="245.99999999999997" stroke="#2a2a4e" stroke-width="0.5"/>
<text x="55" y="248.99999999999997" text-anchor="end" font-family="sans-serif" font-size="8" fill="#666666">83.35</text>
<line x1="60" y1="300.0" x2="780" y2="300.0" stroke="#2a2a4e" stroke-width="0.5"/>
<text x="55" y="303.0" text-anchor="end" font-family="sans-serif" font-size="8" fill="#666666">72.45</text>
<line x1="60" y1="300" x2="780" y2="300" stroke="#2a2a4e" stroke-width="0.5"/>
<line x1="60" y1="345" x2="780" y2="345" stroke="#2a2a4e" stroke-width="0.5"/>
<rect x="61.8" y="337.57822464991375" width="7.199999999999999" height="7.42177535008625" fill="#ff4444" opacity="0.3"/>
<rect x="73.8" y="336.23558552140474" width="7.199999999999999" height="8.764414478595256" fill="#44aa44" opacity="0.3"/>
<rect x="85.8" y="331.8142273942307" width="7.199999999999999" height="13.185772605769273" fill="#44aa44" opacity="0.3"/>
<rect x="97.8" y="337.40973442693024" width="7.199999999999999" height="7.5902655730697575" fill="#ff4444" opacity="0.3"/>
<rect x="109.8" y="337.4115199365648" width="7.199999999999999" height="7.588480063435213" fill="#ff4444" opacity="0.3"/>
<rect x="121.8" y="339.12223469795475" width="7.199999999999999" height="5.877765302045248" fill="#44aa44" opacity="0.3"/>
<rect x="133.8" y="336.8214640590493" width="7.199999999999999" height="8.178535940950724" fill="#ff4444" opacity="0.3"/>
<rect x="145.8" y="337.72337222664464" width="7.199999999999999" height="7.276627773355358" fill="#ff4444" opacity="0.3"/>
<rect x="157.8" y="339.60807451780863" width="7.199999999999999" height="5.391925482191368" fill="#44aa44" opacity="0.3"/>
<rect x="169.8" y="339.63914322175384" width="7.199999999999999" height="5.360856778246159" fill="#44aa44" opacity="0.3"/>
<rect x="181.8" y="340.31686469526" width="7.199999999999999" height="4.683135304740006" fill="#44aa44" opacity="0.3"/>
<rect x="193.8" y="338.3169935480674" width="7.199999999999999" height="6.683006451932613" fill="#44aa44" opacity="0.3"/>
<rect x="205.8" y="339.2105832757729" width="7.199999999999999" height="5.789416724227124" fill="#44aa44" opacity="0.3"/>
<rect x="217.8" y="340.2224292161351" width="7.199999999999999" height="4.777570783864917" fill="#ff4444" opacity="0.3"/>
<rect x="229.8" y="338.12146142623953" width="7.199999999999999" height="6.878538573760466" fill="#44aa44" opacity="0.3"/>
<rect x="241.8" y="338.1820028867985" width="7.199999999999999" height="6.8179971132015" fill="#44aa44" opacity="0.3"/>
<rect x="253.8" y="329.2443005863422" width="7.199999999999999" height="15.755699413657794" fill="#ff4444" opacity="0.3"/>
<rect x="265.8" y="335.19801904295815" width="7.199999999999999" height="9.801980957041849" fill="#44aa44" opacity="0.3"/>
<rect x="277.8" y="336.83957980356143" width="7.199999999999999" height="8.160420196438565" fill="#ff4444" opacity="0.3"/>
<rect x="289.8" y="336.91399415825975" width="7.199999999999999" height="8.086005841740246" fill="#44aa44" opacity="0.3"/>
<rect x="301.8" y="339.13999919466994" width="7.199999999999999" height="5.86000080533006" fill="#ff4444" opacity="0.3"/>
<rect x="313.8" y="339.03044890955215" width="7.199999999999999" height="5.969551090447851" fill="#ff4444" opacity="0.3"/>
<rect x="325.8" y="339.5703167734761" width="7.199999999999999" height="5.429683226523878" fill="#44aa44" opacity="0.3"/>
<rect x="337.8" y="337.6642357572735" width="7.199999999999999" height="7.335764242726498" fill="#ff4444" opacity="0.3"/>
<rect x="349.8" y="338.80219917051005" width="7.199999999999999" height="6.19780082948995" fill="#44aa44" opacity="0.3"/>
<rect x="361.8" y="340.4818912246902" width="7.199999999999999" height="4.518108775309827" fill="#ff4444" opacity="0.3"/>
<rect x="373.8" y="340.01333084506996" width="7.199999999999999" height="4.986669154930041" fill="#44aa44" opacity="0.3"/>
<rect x="385.8" y="335.5390611400376" width="7.199999999999999" height="9.460938859962425" fill="#ff4444" opacity="0.3"/>
<rect x="397.8" y="338.8869307323238" width="7.199999999999999" height="6.113069267676224" fill="#44aa44" opacity="0.3"/>
<rect x="409.8" y="334.7273093613423" width="7.199999999999999" height="10.272690638657707" fill="#ff4444" opacity="0.3"/>
<rect x="421.8" y="332.4223321119161" width="7.199999999999999" height="12.577667888083909" fill="#ff4444" opacity="0.3"/>
<rect x="433.8" y="335.03179799225023" width="7.199999999999999" height="9.968202007749767" fill="#44aa44" opacity="0.3"/>
<rect x="445.8" y="336.62799900262974" width="7.199999999999999" height="8.372000997370264" fill="#44aa44" opacity="0.3"/>
<rect x="457.8" y="335.06361100700326" width="7.199999999999999" height="9.93638899299674" fill="#ff4444" opacity="0.3"/>
<rect x="469.8" y="335.5249066901245" width="7.199999999999999" height="9.47509330987549" fill="#ff4444" opacity="0.3"/>
<rect x="481.8" y="334.61991674126295" width="7.199999999999999" height="10.380083258737045" fill="#44aa44" opacity="0.3"/>
<rect x="493.8" y="335.5408215605438" width="7.199999999999999" height="9.459178439456196" fill="#44aa44" opacity="0.3"/>
<rect x="505.8" y="337.05112854616243" width="7.199999999999999" height="7.948871453837569" fill="#ff4444" opacity="0.3"/>
<rect x="517.8" y="334.56281109744805" width="7.199999999999999" height="10.437188902551952" fill="#44aa44" opacity="0.3"/>
<rect x="529.8" y="335.1524948195596" width="7.199999999999999" height="9.847505180440407" fill="#44aa44" opacity="0.3"/>
<rect x="541.8" y="336.3666567032885" width="7.199999999999999" height="8.633343296711473" fill="#ff4444" opacity="0.3"/>
<rect x="553.8" y="336.29610189283534" width="7.199999999999999" height="8.703898107164662" fill="#44aa44" opacity="0.3"/>
<rect x="565.8" y="338.24116583913843" width="7.199999999999999" height="6.758834160861568" fill="#ff4444" opacity="0.3"/>
<rect x="577.8" y="337.42293409612546" width="7.199999999999999" height="7.577065903874541" fill="#ff4444" opacity="0.3"/>
<rect x="589.8" y="332.06882071804466" width="7.199999999999999" height="12.931179281955338" fill="#ff4444" opacity="0.3"/>
<rect x="601.8" y="327.0195318864237" width="7.199999999999999" height="17.980468113576308" fill="#ff4444" opacity="0.3"/>
<rect x="613.8" y="324.66722678403835" width="7.199999999999999" height="20.33277321596165" fill="#ff4444" opacity="0.3"/>
<rect x="625.8" y="329.4000232306744" width="7.199999999999999" height="15.599976769325622" fill="#44aa44" opacity="0.3"/>
<rect x="637.8" y="332.7515516541789" width="7.199999999999999" height="12.248448345821089" fill="#44aa44" opacity="0.3"/>
<rect x="649.8" y="332.8335958915778" width="7.199999999999999" height="12.166404108422228" fill="#ff4444" opacity="0.3"/>
<rect x="661.8" y="332.61565081508695" width="7.199999999999999" height="12.384349184913049" fill="#44aa44" opacity="0.3"/>
<rect x="673.8" y="319.51310442343015" width="7.199999999999999" height="25.48689557656985" fill="#ff4444" opacity="0.3"/>
<rect x="685.8" y="308.1897967780603" width="7.199999999999999" height="36.81020322193967" fill="#ff4444" opacity="0.3"/>
<rect x="697.8" y="311.9719745144015" width="7.199999999999999" height="33.028025485598505" fill="#ff4444" opacity="0.3"/>
<rect x="709.8" y="312.62694014849046" width="7.199999999999999" height="32.37305985150954" fill="#ff4444" opacity="0.3"/>
<rect x="721.8" y="305.5512484164424" width="7.199999999999999" height="39.44875158355762" fill="#ff4444" opacity="0.3"/>
<rect x="733.8" y="305.4903375881604" width="7.199999999999999" height="39.5096624118396" fill="#ff4444" opacity="0.3"/>
<rect x="745.8" y="300.0" width="7.199999999999999" height="45.0" fill="#ff4444" opacity="0.3"/>
<rect x="757.8" y="304.11503520221527" width="7.199999999999999" height="40.88496479778473" fill="#44aa44" opacity="0.3"/>
<rect x="769.8" y="310.89244507494215" width="7.199999999999999" height="34.107554925057855" fill="#44aa44" opacity="0.3"/>
<polyline points="66.0,207.77 78.0,211.98 90.0,225.11 102.0,234.02 114.0,236.32 126.0,240.13 138.0,244.88 150.0,243.85 162.0,244.88 174.0,247.54 186.0,251.44 198.0,255.16 210.0,260.96 222.0,263.17 234.0,270.17 246.0,277.80 258.0,281.48 270.0,284.01 282.0,282.34 294.0,283.21 306.0,283.52 318.0,283.37 330.0,284.70 342.0,280.67 354.0,282.03 366.0,281.94 378.0,284.41 390.0,277.31 402.0,276.30 414.0,270.61 426.0,263.96 438.0,259.85 450.0,258.62 462.0,254.10 474.0,249.11 486.0,246.74 498.0,248.23 510.0,248.65 522.0,253.61 534.0,261.26 546.0,263.36 558.0,268.62 570.0,269.90 582.0,268.16 594.0,263.97 606.0,252.78 618.0,242.98 630.0,237.66 642.0,234.37 654.0,231.15 666.0,233.53 678.0,228.36 690.0,214.35 702.0,196.24 714.0,180.91 726.0,159.27 738.0,130.73 750.0,111.47 762.0,100.77 774.0,101.06" fill="none" stroke="#ffd700" stroke-width="0.8" opacity="0.7"/>
<polyline points="66.0,207.77 78.0,210.07 90.0,217.58 102.0,223.81 114.0,226.92 126.0,230.70 138.0,235.01 150.0,236.24 162.0,238.19 174.0,240.85 186.0,244.20 198.0,247.54 210.0,252.09 222.0,254.91 234.0,260.23 246.0,266.20 258.0,270.32 270.0,273.72 282.0,274.68 294.0,276.55 306.0,277.93 318.0,278.86 330.0,280.41 342.0,278.99 354.0,280.04 366.0,280.35 378.0,281.99 390.0,278.55 402.0,277.78 414.0,274.41 426.0,270.09 438.0,266.73 450.0,264.81 462.0,261.22 474.0,257.20 486.0,254.44 498.0,253.85 510.0,253.06 522.0,254.96 534.0,258.89 546.0,260.47 558.0,263.86 570.0,265.43 582.0,265.29 594.0,263.52 606.0,257.50 618.0,251.30 630.0,246.89 642.0,243.41 654.0,240.01 666.0,239.70 678.0,235.76 690.0,226.77 702.0,214.63 714.0,202.93 726.0,187.12 738.0,166.49 750.0,149.48 762.0,136.74 774.0,130.35" fill="none" stroke="#ff6b6b" stroke-width="0.8" opacity="0.7"/>
<polyline points="66.0,207.77 78.0,208.97 90.0,213.01 102.0,216.71 114.0,219.01 126.0,221.75 138.0,224.86 150.0,226.47 162.0,228.42 174.0,230.75 186.0,233.46 198.0,236.24 210.0,239.70 222.0,242.35 234.0,246.33 246.0,250.79 258.0,254.41 270.0,257.71 282.0,259.74 294.0,262.14 306.0,264.23 318.0,266.03 330.0,268.06 342.0,268.49 354.0,270.04 366.0,271.16 378.0,272.89 390.0,271.96 402.0,272.18 414.0,270.95 426.0,269.02 438.0,267.36 450.0,266.29 462.0,264.27 474.0,261.88 486.0,259.98 498.0,259.15 510.0,258.23 522.0,258.73 534.0,260.43 546.0,261.11 558.0,262.83 570.0,263.75 582.0,263.83 594.0,263.05 606.0,259.94 618.0,256.46 630.0,253.65 642.0,251.19 654.0,248.67 666.0,247.68 678.0,244.86 690.0,239.28 702.0,231.73 714.0,223.97 726.0,213.69 738.0,200.35 750.0,188.22 762.0,177.85 774.0,170.59" fill="none" stroke="#4ecdc4" stroke-width="0.8" opacity="0.7"/>
<line x1="66.0" y1="198.8057237204183" x2="66.0" y2="211.43643368189325" stroke="#ff4444" stroke-width="0.5" opacity="0.6"/>
<rect x="63.0" y="207.77105118326915" width="6.0" height="1.8326912493120062" fill="#ff4444" opacity="0.85"/>
<line x1="78.0" y1="213.46725371491468" x2="78.0" y2="222.97743533296645" stroke="#44aa44" stroke-width="0.5" opacity="0.6"/>
<rect x="75.0" y="218.02421574023114" width="6.0" height="2.377545404512972" fill="#44aa44" opacity="0.85"/>
<line x1="90.0" y1="213.91304347826087" x2="90.0" y2="251.40891579526692" stroke="#44aa44" stroke-width="0.5" opacity="0.6"/>
<rect x="87.0" y="220.15410016510737" width="6.0" height="31.205283434232257" fill="#44aa44" opacity="0.85"/>
<line x1="102.0" y1="244.12768299394605" x2="102.0" y2="257.05558613098515" stroke="#ff4444" stroke-width="0.5" opacity="0.6"/>
<rect x="99.0" y="251.85470555861312" width="6.0" height="3.3186571271326386" fill="#ff4444" opacity="0.85"/>
<line x1="114.0" y1="236.7473858007705" x2="114.0" y2="246.4061640066043" stroke="#ff4444" stroke-width="0.5" opacity="0.6"/>
<rect x="111.0" y="240.90809025866815" width="6.0" height="2.476609796367626" fill="#ff4444" opacity="0.85"/>
<line x1="126.0" y1="240.06604292790314" x2="126.0" y2="248.63511282333522" stroke="#44aa44" stroke-width="0.5" opacity="0.6"/>
<rect x="123.0" y="242.79031370390754" width="6.0" height="4.95321959273528" fill="#44aa44" opacity="0.85"/>
<line x1="138.0" y1="250.26967528893783" x2="138.0" y2="269.0423775454045" stroke="#ff4444" stroke-width="0.5" opacity="0.6"/>
<rect x="135.0" y="254.3808475509081" width="6.0" height="8.71766648321406" fill="#ff4444" opacity="0.85"/>
<line x1="150.0" y1="240.31370390753992" x2="150.0" y2="250.76499724821133" stroke="#ff4444" stroke-width="0.5" opacity="0.6"/>
<rect x="147.0" y="241.79966978536046" width="6.0" height="5.696202531645611" fill="#ff4444" opacity="0.85"/>
<line x1="162.0" y1="235.5586130985141" x2="162.0" y2="248.2883874518437" stroke="#44aa44" stroke-width="0.5" opacity="0.6"/>
<rect x="159.0" y="242.69124931205286" width="6.0" height="4.259768849752334" fill="#44aa44" opacity="0.85"/>
<line x1="174.0" y1="243.13703907539897" x2="174.0" y2="257.600440286186" stroke="#44aa44" stroke-width="0.5" opacity="0.6"/>
<rect x="171.0" y="247.74353329664282" width="6.0" height="5.101816180517346" fill="#44aa44" opacity="0.85"/>
<line x1="186.0" y1="249.72482113373695" x2="186.0" y2="260.37424325811776" stroke="#44aa44" stroke-width="0.5" opacity="0.6"/>
<rect x="183.0" y="257.74903687396807" width="6.0" height="1.4859658778205471" fill="#44aa44" opacity="0.85"/>
<line x1="198.0" y1="259.2350027517886" x2="198.0" y2="269.9834892680242" stroke="#44aa44" stroke-width="0.5" opacity="0.6"/>
<rect x="195.0" y="259.2350027517886" width="6.0" height="3.368189323060051" fill="#44aa44" opacity="0.85"/>
<line x1="210.0" y1="255.27242707760044" x2="210.0" y2="272.9554210236654" stroke="#44aa44" stroke-width="0.5" opacity="0.6"/>
<rect x="207.0" y="258.1452944413869" width="6.0" height="14.413869014859642" fill="#44aa44" opacity="0.85"/>
<line x1="222.0" y1="266.56576774903687" x2="222.0" y2="272.5096312603192" stroke="#ff4444" stroke-width="0.5" opacity="0.6"/>
<rect x="219.0" y="267.6059438635113" width="6.0" height="2.8233351678590566" fill="#ff4444" opacity="0.85"/>
<line x1="234.0" y1="273.5002751788663" x2="234.0" y2="286.32911392405066" stroke="#44aa44" stroke-width="0.5" opacity="0.6"/>
<rect x="231.0" y="278.05723720418274" width="6.0" height="6.09246009906434" fill="#44aa44" opacity="0.85"/>
<line x1="246.0" y1="278.00770500825536" x2="246.0" y2="294.00660429279037" stroke="#44aa44" stroke-width="0.5" opacity="0.6"/>
<rect x="243.0" y="281.27682993946064" width="6.0" height="11.788662630710007" fill="#44aa44" opacity="0.85"/>
<line x1="258.0" y1="269.6367638965328" x2="258.0" y2="294.1552008805724" stroke="#ff4444" stroke-width="0.5" opacity="0.6"/>
<rect x="255.0" y="288.85525591634564" width="6.0" height="3.4672537149147047" fill="#ff4444" opacity="0.85"/>
<line x1="270.0" y1="279.2955421023666" x2="270.0" y2="300.0" stroke="#44aa44" stroke-width="0.5" opacity="0.6"/>
<rect x="267.0" y="281.3758943313154" width="6.0" height="7.6774903687396545" fill="#44aa44" opacity="0.85"/>
<line x1="282.0" y1="275.97688497523393" x2="282.0" y2="294.7000550357733" stroke="#ff4444" stroke-width="0.5" opacity="0.6"/>
<rect x="279.0" y="278.99834892680246" width="6.0" height="8.470005503577283" fill="#ff4444" opacity="0.85"/>
<line x1="294.0" y1="270.1320858558063" x2="294.0" y2="286.62630709961473" stroke="#44aa44" stroke-width="0.5" opacity="0.6"/>
<rect x="291.0" y="277.2151898734178" width="6.0" height="7.7270225646669815" fill="#44aa44" opacity="0.85"/>
<line x1="306.0" y1="280.5338470005504" x2="306.0" y2="292.8673637864612" stroke="#ff4444" stroke-width="0.5" opacity="0.6"/>
<rect x="303.0" y="284.1496973032471" width="6.0" height="8.172812328013265" fill="#ff4444" opacity="0.85"/>
<line x1="318.0" y1="277.61144744083657" x2="318.0" y2="295.1458447991194" stroke="#ff4444" stroke-width="0.5" opacity="0.6"/>
<rect x="315.0" y="283.0599889928453" width="6.0" height="11.739130434782624" fill="#ff4444" opacity="0.85"/>
<line x1="330.0" y1="275.03577325261426" x2="330.0" y2="287.36929003852504" stroke="#44aa44" stroke-width="0.5" opacity="0.6"/>
<rect x="327.0" y="284.2982938910292" width="6.0" height="3.070996147495862" fill="#44aa44" opacity="0.85"/>
<line x1="342.0" y1="271.56851953769956" x2="342.0" y2="281.42542652724273" stroke="#ff4444" stroke-width="0.5" opacity="0.6"/>
<rect x="339.0" y="272.6086956521739" width="6.0" height="7.330764997248252" fill="#ff4444" opacity="0.85"/>
<line x1="354.0" y1="270.0330214639516" x2="354.0" y2="287.1216290588883" stroke="#44aa44" stroke-width="0.5" opacity="0.6"/>
<rect x="351.0" y="273.5002751788663" width="6.0" height="11.24380847550907" fill="#44aa44" opacity="0.85"/>
<line x1="366.0" y1="281.0291689598239" x2="366.0" y2="290.2916895982389" stroke="#ff4444" stroke-width="0.5" opacity="0.6"/>
<rect x="363.0" y="281.77215189873425" width="6.0" height="2.9223995597137105" fill="#ff4444" opacity="0.85"/>
<line x1="378.0" y1="280.4347826086956" x2="378.0" y2="293.3131535498074" stroke="#44aa44" stroke-width="0.5" opacity="0.6"/>
<rect x="375.0" y="280.484314804623" width="6.0" height="8.866263070996183" fill="#44aa44" opacity="0.85"/>
<line x1="390.0" y1="262.7022564667034" x2="390.0" y2="274.68904788112275" stroke="#ff4444" stroke-width="0.5" opacity="0.6"/>
<rect x="387.0" y="263.09851403412216" width="6.0" height="11.590533847000586" fill="#ff4444" opacity="0.85"/>
<line x1="402.0" y1="267.5564116675839" x2="402.0" y2="277.26472206934505" stroke="#44aa44" stroke-width="0.5" opacity="0.6"/>
<rect x="399.0" y="270.2806824435883" width="6.0" height="4.012107870115585" fill="#44aa44" opacity="0.85"/>
<line x1="414.0" y1="248.7837094111172" x2="414.0" y2="267.5068794716566" stroke="#ff4444" stroke-width="0.5" opacity="0.6"/>
<rect x="411.0" y="259.2350027517886" width="6.0" height="7.132636213538888" fill="#ff4444" opacity="0.85"/>
<line x1="426.0" y1="242.83984589983493" x2="426.0" y2="266.4171711612548" stroke="#ff4444" stroke-width="0.5" opacity="0.6"/>
<rect x="423.0" y="250.66593285635665" width="6.0" height="14.31480462300496" fill="#ff4444" opacity="0.85"/>
<line x1="438.0" y1="246.65382498624106" x2="438.0" y2="260.0770500825536" stroke="#44aa44" stroke-width="0.5" opacity="0.6"/>
<rect x="435.0" y="247.347275729224" width="6.0" height="4.259768849752334" fill="#44aa44" opacity="0.85"/>
<line x1="450.0" y1="245.31645569620258" x2="450.0" y2="258.2443588332416" stroke="#44aa44" stroke-width="0.5" opacity="0.6"/>
<rect x="447.0" y="248.68464501926252" width="6.0" height="7.47936158503029" fill="#44aa44" opacity="0.85"/>
<line x1="462.0" y1="240.36323610346727" x2="462.0" y2="253.58833241607047" stroke="#ff4444" stroke-width="0.5" opacity="0.6"/>
<rect x="459.0" y="245.06879471656575" width="6.0" height="4.210236653825035" fill="#ff4444" opacity="0.85"/>
<line x1="474.0" y1="235.31095211887725" x2="474.0" y2="248.3874518436984" stroke="#ff4444" stroke-width="0.5" opacity="0.6"/>
<rect x="471.0" y="239.12493120528345" width="6.0" height="8.618602091359378" fill="#ff4444" opacity="0.85"/>
<line x1="486.0" y1="231.79416620803525" x2="486.0" y2="246.10897083104018" stroke="#44aa44" stroke-width="0.5" opacity="0.6"/>
<rect x="483.0" y="232.98293891029167" width="6.0" height="9.01485965877825" fill="#44aa44" opacity="0.85"/>
<line x1="498.0" y1="243.7809576224546" x2="498.0" y2="257.600440286186" stroke="#44aa44" stroke-width="0.5" opacity="0.6"/>
<rect x="495.0" y="244.77160154100167" width="6.0" height="6.439185470555856" fill="#44aa44" opacity="0.85"/>
<line x1="510.0" y1="244.6230049532196" x2="510.0" y2="254.18271876719868" stroke="#ff4444" stroke-width="0.5" opacity="0.6"/>
<rect x="507.0" y="249.47716015410012" width="6.0" height="3.6653824986241546" fill="#ff4444" opacity="0.85"/>
<line x1="522.0" y1="248.18932305998902" x2="522.0" y2="266.5162355531096" stroke="#44aa44" stroke-width="0.5" opacity="0.6"/>
<rect x="519.0" y="250.22014309301045" width="6.0" height="13.324160704457938" fill="#44aa44" opacity="0.85"/>
<line x1="534.0" y1="260.2256466703357" x2="534.0" y2="282.3665382498624" stroke="#44aa44" stroke-width="0.5" opacity="0.6"/>
<rect x="531.0" y="266.5162355531096" width="6.0" height="10.055035773252484" fill="#44aa44" opacity="0.85"/>
<line x1="546.0" y1="262.10787011557517" x2="546.0" y2="277.1161254815631" stroke="#ff4444" stroke-width="0.5" opacity="0.6"/>
<rect x="543.0" y="267.5564116675839" width="6.0" height="9.559713813979158" fill="#ff4444" opacity="0.85"/>
<line x1="558.0" y1="268.4479911942763" x2="558.0" y2="281.177765547606" stroke="#44aa44" stroke-width="0.5" opacity="0.6"/>
<rect x="555.0" y="271.0236653824986" width="6.0" height="8.123280132085881" fill="#44aa44" opacity="0.85"/>
<line x1="570.0" y1="269.6862960924601" x2="570.0" y2="282.3665382498624" stroke="#ff4444" stroke-width="0.5" opacity="0.6"/>
<rect x="567.0" y="272.46009906439184" width="6.0" height="9.807374793615907" fill="#ff4444" opacity="0.85"/>
<line x1="582.0" y1="260.7705008255366" x2="582.0" y2="274.7881122729774" stroke="#ff4444" stroke-width="0.5" opacity="0.6"/>
<rect x="579.0" y="264.6835443037975" width="6.0" height="6.389653274628472" fill="#ff4444" opacity="0.85"/>
<line x1="594.0" y1="241.99779856906991" x2="594.0" y2="264.5844799119428" stroke="#ff4444" stroke-width="0.5" opacity="0.6"/>
<rect x="591.0" y="255.56962025316457" width="6.0" height="6.984039625756708" fill="#ff4444" opacity="0.85"/>
<line x1="606.0" y1="227.9306549257017" x2="606.0" y2="255.66868464501925" stroke="#ff4444" stroke-width="0.5" opacity="0.6"/>
<rect x="603.0" y="230.40726472206933" width="6.0" height="21.44744083654379" fill="#ff4444" opacity="0.85"/>
<line x1="618.0" y1="212.97193175564118" x2="618.0" y2="235.60814529444139" stroke="#ff4444" stroke-width="0.5" opacity="0.6"/>
<rect x="615.0" y="223.37369290038524" width="6.0" height="7.033571821684092" fill="#ff4444" opacity="0.85"/>
<line x1="630.0" y1="221.8381948266373" x2="630.0" y2="232.93340671436437" stroke="#44aa44" stroke-width="0.5" opacity="0.6"/>
<rect x="627.0" y="223.5222894881673" width="6.0" height="3.516785910842003" fill="#44aa44" opacity="0.85"/>
<line x1="642.0" y1="220.0550357732526" x2="642.0" y2="231.8436984039626" stroke="#44aa44" stroke-width="0.5" opacity="0.6"/>
<rect x="639.0" y="222.72977435332967" width="6.0" height="5.0522839845899625" fill="#44aa44" opacity="0.85"/>
<line x1="654.0" y1="222.33351678591086" x2="654.0" y2="238.28288387451843" stroke="#ff4444" stroke-width="0.5" opacity="0.6"/>
<rect x="651.0" y="224.71106219042375" width="6.0" height="8.172812328013237" fill="#ff4444" opacity="0.85"/>
<line x1="666.0" y1="220.4512933406714" x2="666.0" y2="238.38194826637314" stroke="#44aa44" stroke-width="0.5" opacity="0.6"/>
<rect x="663.0" y="223.62135388002199" width="6.0" height="14.661529994496448" fill="#44aa44" opacity="0.85"/>
<line x1="678.0" y1="203.1645569620253" x2="678.0" y2="243.7809576224546" stroke="#ff4444" stroke-width="0.5" opacity="0.6"/>
<rect x="675.0" y="218.02421574023114" width="6.0" height="21.79416620803528" fill="#ff4444" opacity="0.85"/>
<line x1="690.0" y1="179.78536048431482" x2="690.0" y2="227.9306549257017" stroke="#ff4444" stroke-width="0.5" opacity="0.6"/>
<rect x="687.0" y="186.32361034672533" width="6.0" height="33.68189323059994" fill="#ff4444" opacity="0.85"/>
<line x1="702.0" y1="150.2641717116125" x2="702.0" y2="193.010456796918" stroke="#ff4444" stroke-width="0.5" opacity="0.6"/>
<rect x="699.0" y="160.02201430930106" width="6.0" height="28.629609246009863" fill="#ff4444" opacity="0.85"/>
<line x1="714.0" y1="127.82608695652175" x2="714.0" y2="178.39845899834893" stroke="#ff4444" stroke-width="0.5" opacity="0.6"/>
<rect x="711.0" y="150.2641717116125" width="6.0" height="18.326912493120545" fill="#ff4444" opacity="0.85"/>
<line x1="726.0" y1="82.55365987892131" x2="726.0" y2="158.5855806274078" stroke="#ff4444" stroke-width="0.5" opacity="0.6"/>
<rect x="723.0" y="115.98789212988443" width="6.0" height="32.59218492019811" fill="#ff4444" opacity="0.85"/>
<line x1="738.0" y1="58.481012658227854" x2="738.0" y2="126.48871766648317" stroke="#ff4444" stroke-width="0.5" opacity="0.6"/>
<rect x="735.0" y="73.63786461199774" width="6.0" height="40.36873968079256" fill="#ff4444" opacity="0.85"/>
<line x1="750.0" y1="30.0" x2="750.0" y2="81.81067694001098" stroke="#ff4444" stroke-width="0.5" opacity="0.6"/>
<rect x="747.0" y="72.94441386901481" width="6.0" height="1.4364336818932628" fill="#ff4444" opacity="0.85"/>
<line x1="762.0" y1="43.670886075949326" x2="762.0" y2="94.1441937259218" stroke="#44aa44" stroke-width="0.5" opacity="0.6"/>
<rect x="759.0" y="69.42762795817279" width="6.0" height="9.95597138139793" fill="#44aa44" opacity="0.85"/>
<line x1="774.0" y1="67.64446890478808" x2="774.0" y2="108.50853054485414" stroke="#44aa44" stroke-width="0.5" opacity="0.6"/>
<rect x="771.0" y="87.9526692350027" width="6.0" height="13.670886075949397" fill="#44aa44" opacity="0.85"/>
<rect x="134.0" y="265.0423775454045" width="8" height="8" fill="#4caf50" opacity="0.85" rx="1"/>
<text x="138.0" y="263.0423775454045" text-anchor="middle" font-family="sans-serif" font-size="8" fill="#4caf50">前低</text>
<rect x="194.0" y="265.9834892680242" width="8" height="8" fill="#4caf50" opacity="0.85" rx="1"/>
<text x="198.0" y="263.9834892680242" text-anchor="middle" font-family="sans-serif" font-size="8" fill="#4caf50">前低</text>
<rect x="206.0" y="268.9554210236654" width="8" height="8" fill="#4caf50" opacity="0.85" rx="1"/>
<text x="210.0" y="266.9554210236654" text-anchor="middle" font-family="sans-serif" font-size="8" fill="#4caf50">前低</text>
<rect x="230.0" y="282.32911392405066" width="8" height="8" fill="#4caf50" opacity="0.85" rx="1"/>
<text x="234.0" y="280.32911392405066" text-anchor="middle" font-family="sans-serif" font-size="8" fill="#4caf50">前低</text>
<rect x="242.0" y="290.00660429279037" width="8" height="8" fill="#4caf50" opacity="0.85" rx="1"/>
<text x="246.0" y="288.00660429279037" text-anchor="middle" font-family="sans-serif" font-size="8" fill="#4caf50">前低</text>
<rect x="254.0" y="290.1552008805724" width="8" height="8" fill="#4caf50" opacity="0.85" rx="1"/>
<text x="258.0" y="288.1552008805724" text-anchor="middle" font-family="sans-serif" font-size="8" fill="#4caf50">前低</text>
<rect x="254.0" y="253.3775454045129" width="8" height="8" fill="#ff9800" opacity="0.85" rx="1"/>
<text x="258.0" y="251.3775454045129" text-anchor="middle" font-family="sans-serif" font-size="8" fill="#ff9800">量</text>
<rect x="266.0" y="296.0" width="8" height="8" fill="#4caf50" opacity="0.85" rx="1"/>
<text x="270.0" y="294.0" text-anchor="middle" font-family="sans-serif" font-size="8" fill="#4caf50">前低</text>
<rect x="386.0" y="258.7022564667034" width="8" height="8" fill="#ff9800" opacity="0.85" rx="1"/>
<text x="390.0" y="256.7022564667034" text-anchor="middle" font-family="sans-serif" font-size="8" fill="#ff9800">前高</text>
<rect x="386.0" y="258.7022564667034" width="8" height="8" fill="#2196f3" opacity="0.85" rx="1"/>
<text x="390.0" y="256.7022564667034" text-anchor="middle" font-family="sans-serif" font-size="8" fill="#2196f3">突</text>
<rect x="410.0" y="244.7837094111172" width="8" height="8" fill="#ff9800" opacity="0.85" rx="1"/>
<text x="414.0" y="242.7837094111172" text-anchor="middle" font-family="sans-serif" font-size="8" fill="#ff9800">前高</text>
<rect x="422.0" y="238.83984589983493" width="8" height="8" fill="#ff9800" opacity="0.85" rx="1"/>
<text x="426.0" y="236.83984589983493" text-anchor="middle" font-family="sans-serif" font-size="8" fill="#ff9800">前高</text>
<rect x="458.0" y="236.36323610346727" width="8" height="8" fill="#ff9800" opacity="0.85" rx="1"/>
<text x="462.0" y="234.36323610346727" text-anchor="middle" font-family="sans-serif" font-size="8" fill="#ff9800">前高</text>
<rect x="470.0" y="231.31095211887725" width="8" height="8" fill="#ff9800" opacity="0.85" rx="1"/>
<text x="474.0" y="229.31095211887725" text-anchor="middle" font-family="sans-serif" font-size="8" fill="#ff9800">前高</text>
<rect x="470.0" y="231.31095211887725" width="8" height="8" fill="#2196f3" opacity="0.85" rx="1"/>
<text x="474.0" y="229.31095211887725" text-anchor="middle" font-family="sans-serif" font-size="8" fill="#2196f3">突</text>
<rect x="482.0" y="227.79416620803525" width="8" height="8" fill="#ff9800" opacity="0.85" rx="1"/>
<text x="486.0" y="225.79416620803525" text-anchor="middle" font-family="sans-serif" font-size="8" fill="#ff9800">前高</text>
<rect x="530.0" y="278.3665382498624" width="8" height="8" fill="#4caf50" opacity="0.85" rx="1"/>
<text x="534.0" y="276.3665382498624" text-anchor="middle" font-family="sans-serif" font-size="8" fill="#4caf50">前低</text>
<rect x="566.0" y="278.3665382498624" width="8" height="8" fill="#4caf50" opacity="0.85" rx="1"/>
<text x="570.0" y="276.3665382498624" text-anchor="middle" font-family="sans-serif" font-size="8" fill="#4caf50">前低</text>
<rect x="602.0" y="223.9306549257017" width="8" height="8" fill="#ff9800" opacity="0.85" rx="1"/>
<text x="606.0" y="221.9306549257017" text-anchor="middle" font-family="sans-serif" font-size="8" fill="#ff9800">前高</text>
<rect x="602.0" y="223.9306549257017" width="8" height="8" fill="#2196f3" opacity="0.85" rx="1"/>
<text x="606.0" y="221.9306549257017" text-anchor="middle" font-family="sans-serif" font-size="8" fill="#2196f3">突</text>
<rect x="614.0" y="208.97193175564118" width="8" height="8" fill="#ff9800" opacity="0.85" rx="1"/>
<text x="618.0" y="206.97193175564118" text-anchor="middle" font-family="sans-serif" font-size="8" fill="#ff9800">前高</text>
<rect x="674.0" y="199.1645569620253" width="8" height="8" fill="#ff9800" opacity="0.85" rx="1"/>
<text x="678.0" y="197.1645569620253" text-anchor="middle" font-family="sans-serif" font-size="8" fill="#ff9800">前高</text>
<rect x="686.0" y="175.78536048431482" width="8" height="8" fill="#ff9800" opacity="0.85" rx="1"/>
<text x="690.0" y="173.78536048431482" text-anchor="middle" font-family="sans-serif" font-size="8" fill="#ff9800">前高</text>
<rect x="686.0" y="175.78536048431482" width="8" height="8" fill="#2196f3" opacity="0.85" rx="1"/>
<text x="690.0" y="173.78536048431482" text-anchor="middle" font-family="sans-serif" font-size="8" fill="#2196f3">突</text>
<rect x="698.0" y="146.2641717116125" width="8" height="8" fill="#ff9800" opacity="0.85" rx="1"/>
<text x="702.0" y="144.2641717116125" text-anchor="middle" font-family="sans-serif" font-size="8" fill="#ff9800">前高</text>
<rect x="698.0" y="146.2641717116125" width="8" height="8" fill="#2196f3" opacity="0.85" rx="1"/>
<text x="702.0" y="144.2641717116125" text-anchor="middle" font-family="sans-serif" font-size="8" fill="#2196f3">突</text>
<rect x="710.0" y="123.82608695652175" width="8" height="8" fill="#ff9800" opacity="0.85" rx="1"/>
<text x="714.0" y="121.82608695652175" text-anchor="middle" font-family="sans-serif" font-size="8" fill="#ff9800">前高</text>
<rect x="722.0" y="78.55365987892131" width="8" height="8" fill="#ff9800" opacity="0.85" rx="1"/>
<text x="726.0" y="76.55365987892131" text-anchor="middle" font-family="sans-serif" font-size="8" fill="#ff9800">前高</text>
<rect x="734.0" y="54.481012658227854" width="8" height="8" fill="#ff9800" opacity="0.85" rx="1"/>
<text x="738.0" y="52.481012658227854" text-anchor="middle" font-family="sans-serif" font-size="8" fill="#ff9800">前高</text>
<rect x="734.0" y="54.481012658227854" width="8" height="8" fill="#2196f3" opacity="0.85" rx="1"/>
<text x="738.0" y="52.481012658227854" text-anchor="middle" font-family="sans-serif" font-size="8" fill="#2196f3">突</text>
<rect x="746.0" y="26.0" width="8" height="8" fill="#ff9800" opacity="0.85" rx="1"/>
<text x="750.0" y="24.0" text-anchor="middle" font-family="sans-serif" font-size="8" fill="#ff9800">前高</text>
<text x="66.0" y="359" text-anchor="middle" font-family="sans-serif" font-size="8" fill="#666666" transform="rotate(-40,66.0,359)">02/27</text>
<text x="138.0" y="359" text-anchor="middle" font-family="sans-serif" font-size="8" fill="#666666" transform="rotate(-40,138.0,359)">03/09</text>
<text x="210.0" y="359" text-anchor="middle" font-family="sans-serif" font-size="8" fill="#666666" transform="rotate(-40,210.0,359)">03/17</text>
<text x="282.0" y="359" text-anchor="middle" font-family="sans-serif" font-size="8" fill="#666666" transform="rotate(-40,282.0,359)">03/25</text>
<text x="354.0" y="359" text-anchor="middle" font-family="sans-serif" font-size="8" fill="#666666" transform="rotate(-40,354.0,359)">04/02</text>
<text x="426.0" y="359" text-anchor="middle" font-family="sans-serif" font-size="8" fill="#666666" transform="rotate(-40,426.0,359)">04/13</text>
<text x="498.0" y="359" text-anchor="middle" font-family="sans-serif" font-size="8" fill="#666666" transform="rotate(-40,498.0,359)">04/21</text>
<text x="570.0" y="359" text-anchor="middle" font-family="sans-serif" font-size="8" fill="#666666" transform="rotate(-40,570.0,359)">04/29</text>
<text x="642.0" y="359" text-anchor="middle" font-family="sans-serif" font-size="8" fill="#666666" transform="rotate(-40,642.0,359)">05/12</text>
<text x="714.0" y="359" text-anchor="middle" font-family="sans-serif" font-size="8" fill="#666666" transform="rotate(-40,714.0,359)">05/20</text>
<text x="774.0" y="359" text-anchor="middle" font-family="sans-serif" font-size="8" fill="#666666" transform="rotate(-40,774.0,359)">05/27</text>
<text x="400.0" y="396" text-anchor="middle" font-family="sans-serif" font-size="9" fill="#555555">数据截至: 2026-05-27 20:58  |  最新K线: 20260527</text>
<rect x="50" y="373" width="8" height="8" fill="#ffd700" opacity="0.8" rx="1"/>
<text x="61" y="380" font-family="sans-serif" font-size="9" fill="#888888">EMA5</text>
<rect x="150" y="373" width="8" height="8" fill="#ff6b6b" opacity="0.8" rx="1"/>
<text x="161" y="380" font-family="sans-serif" font-size="9" fill="#888888">EMA10</text>
<rect x="250" y="373" width="8" height="8" fill="#4ecdc4" opacity="0.8" rx="1"/>
<text x="261" y="380" font-family="sans-serif" font-size="9" fill="#888888">EMA20</text>
<rect x="350" y="373" width="8" height="8" fill="#2196f3" opacity="0.8" rx="1"/>
<text x="361" y="380" font-family="sans-serif" font-size="9" fill="#888888">突破</text>
<rect x="450" y="373" width="8" height="8" fill="#ff9800" opacity="0.8" rx="1"/>
<text x="461" y="380" font-family="sans-serif" font-size="9" fill="#888888">前高/量</text>
<rect x="550" y="373" width="8" height="8" fill="#4caf50" opacity="0.8" rx="1"/>
<text x="561" y="380" font-family="sans-serif" font-size="9" fill="#888888">前低</text>
</svg>