<svg xmlns="http://www.w3.org/2000/svg" width="800" height="400" viewBox="0 0 800 400">
<rect width="800" height="400" fill="#1a1a2e"/>
<text x="400.0" y="20" text-anchor="middle" font-family="sans-serif" font-size="14" fill="#ffffff" font-weight="bold">德龙激光(688170) K线图</text>
<line x1="60" y1="30.0" x2="780" y2="30.0" stroke="#2a2a4e" stroke-width="0.5"/>
<text x="55" y="33.0" text-anchor="end" font-family="sans-serif" font-size="8" fill="#666666">95.65</text>
<line x1="60" y1="84.00000000000004" x2="780" y2="84.00000000000004" stroke="#2a2a4e" stroke-width="0.5"/>
<text x="55" y="87.00000000000004" text-anchor="end" font-family="sans-serif" font-size="8" fill="#666666">85.68</text>
<line x1="60" y1="138.0" x2="780" y2="138.0" stroke="#2a2a4e" stroke-width="0.5"/>
<text x="55" y="141.0" text-anchor="end" font-family="sans-serif" font-size="8" fill="#666666">75.72</text>
<line x1="60" y1="191.99999999999997" x2="780" y2="191.99999999999997" stroke="#2a2a4e" stroke-width="0.5"/>
<text x="55" y="194.99999999999997" text-anchor="end" font-family="sans-serif" font-size="8" fill="#666666">65.75</text>
<line x1="60" y1="246.0" x2="780" y2="246.0" stroke="#2a2a4e" stroke-width="0.5"/>
<text x="55" y="249.0" text-anchor="end" font-family="sans-serif" font-size="8" fill="#666666">55.79</text>
<line x1="60" y1="300.0" x2="780" y2="300.0" stroke="#2a2a4e" stroke-width="0.5"/>
<text x="55" y="303.0" text-anchor="end" font-family="sans-serif" font-size="8" fill="#666666">45.82</text>
<line x1="60" y1="300" x2="780" y2="300" stroke="#2a2a4e" stroke-width="0.5"/>
<line x1="60" y1="345" x2="780" y2="345" stroke="#2a2a4e" stroke-width="0.5"/>
<rect x="61.8" y="313.35784541583774" width="7.199999999999999" height="31.642154584162256" fill="#44aa44" opacity="0.3"/>
<rect x="73.8" y="306.3655802019225" width="7.199999999999999" height="38.63441979807749" fill="#ff4444" opacity="0.3"/>
<rect x="85.8" y="314.93111206143203" width="7.199999999999999" height="30.06888793856797" fill="#44aa44" opacity="0.3"/>
<rect x="97.8" y="322.9262964133648" width="7.199999999999999" height="22.07370358663519" fill="#ff4444" opacity="0.3"/>
<rect x="109.8" y="313.7011695145306" width="7.199999999999999" height="31.29883048546941" fill="#ff4444" opacity="0.3"/>
<rect x="121.8" y="318.74421285536323" width="7.199999999999999" height="26.25578714463677" fill="#44aa44" opacity="0.3"/>
<rect x="133.8" y="314.54734767491584" width="7.199999999999999" height="30.45265232508416" fill="#44aa44" opacity="0.3"/>
<rect x="145.8" y="325.64248926240634" width="7.199999999999999" height="19.357510737593657" fill="#ff4444" opacity="0.3"/>
<rect x="157.8" y="319.05462692672404" width="7.199999999999999" height="25.94537307327596" fill="#ff4444" opacity="0.3"/>
<rect x="169.8" y="325.4715244594017" width="7.199999999999999" height="19.528475540598322" fill="#ff4444" opacity="0.3"/>
<rect x="181.8" y="328.9770001673391" width="7.199999999999999" height="16.0229998326609" fill="#44aa44" opacity="0.3"/>
<rect x="193.8" y="319.66653031627095" width="7.199999999999999" height="25.33346968372905" fill="#ff4444" opacity="0.3"/>
<rect x="205.8" y="324.1498242939219" width="7.199999999999999" height="20.85017570607812" fill="#44aa44" opacity="0.3"/>
<rect x="217.8" y="327.22719074800585" width="7.199999999999999" height="17.772809251994147" fill="#ff4444" opacity="0.3"/>
<rect x="229.8" y="325.05736013238385" width="7.199999999999999" height="19.94263986761615" fill="#44aa44" opacity="0.3"/>
<rect x="241.8" y="324.1378316568432" width="7.199999999999999" height="20.86216834315678" fill="#44aa44" opacity="0.3"/>
<rect x="253.8" y="322.60249521224176" width="7.199999999999999" height="22.397504787758237" fill="#44aa44" opacity="0.3"/>
<rect x="265.8" y="324.3500734432813" width="7.199999999999999" height="20.649926556718697" fill="#44aa44" opacity="0.3"/>
<rect x="277.8" y="320.9818158154064" width="7.199999999999999" height="24.018184184593622" fill="#ff4444" opacity="0.3"/>
<rect x="289.8" y="327.3499061041593" width="7.199999999999999" height="17.650093895840712" fill="#44aa44" opacity="0.3"/>
<rect x="301.8" y="322.42595243850286" width="7.199999999999999" height="22.57404756149714" fill="#ff4444" opacity="0.3"/>
<rect x="313.8" y="322.2655857798933" width="7.199999999999999" height="22.734414220106714" fill="#44aa44" opacity="0.3"/>
<rect x="325.8" y="319.40827027127534" width="7.199999999999999" height="25.59172972872466" fill="#44aa44" opacity="0.3"/>
<rect x="337.8" y="327.66059907405685" width="7.199999999999999" height="17.339400925943153" fill="#ff4444" opacity="0.3"/>
<rect x="349.8" y="330.23371697376496" width="7.199999999999999" height="14.766283026235044" fill="#ff4444" opacity="0.3"/>
<rect x="361.8" y="314.04282022200323" width="7.199999999999999" height="30.95717977799677" fill="#ff4444" opacity="0.3"/>
<rect x="373.8" y="325.8965658293513" width="7.199999999999999" height="19.10343417064871" fill="#44aa44" opacity="0.3"/>
<rect x="385.8" y="324.06280795046763" width="7.199999999999999" height="20.93719204953237" fill="#ff4444" opacity="0.3"/>
<rect x="397.8" y="322.23881152036887" width="7.199999999999999" height="22.76118847963113" fill="#ff4444" opacity="0.3"/>
<rect x="409.8" y="315.6121822880836" width="7.199999999999999" height="29.387817711916398" fill="#44aa44" opacity="0.3"/>
<rect x="421.8" y="324.0759161816931" width="7.199999999999999" height="20.924083818306883" fill="#ff4444" opacity="0.3"/>
<rect x="433.8" y="322.51017979659" width="7.199999999999999" height="22.489820203409977" fill="#ff4444" opacity="0.3"/>
<rect x="445.8" y="324.30517077887066" width="7.199999999999999" height="20.69482922112934" fill="#ff4444" opacity="0.3"/>
<rect x="457.8" y="328.7837234813975" width="7.199999999999999" height="16.216276518602513" fill="#ff4444" opacity="0.3"/>
<rect x="469.8" y="316.0966290463529" width="7.199999999999999" height="28.903370953647084" fill="#ff4444" opacity="0.3"/>
<rect x="481.8" y="318.8638603276128" width="7.199999999999999" height="26.136139672387174" fill="#44aa44" opacity="0.3"/>
<rect x="493.8" y="329.1619098971794" width="7.199999999999999" height="15.838090102820615" fill="#ff4444" opacity="0.3"/>
<rect x="505.8" y="326.08984251529296" width="7.199999999999999" height="18.910157484707042" fill="#ff4444" opacity="0.3"/>
<rect x="517.8" y="323.69047840395666" width="7.199999999999999" height="21.30952159604334" fill="#44aa44" opacity="0.3"/>
<rect x="529.8" y="329.1733447371846" width="7.199999999999999" height="15.826655262815393" fill="#44aa44" opacity="0.3"/>
<rect x="541.8" y="315.1952289756986" width="7.199999999999999" height="29.804771024301374" fill="#ff4444" opacity="0.3"/>
<rect x="553.8" y="316.6920774222338" width="7.199999999999999" height="28.307922577766192" fill="#ff4444" opacity="0.3"/>
<rect x="565.8" y="326.0505178216165" width="7.199999999999999" height="18.949482178383505" fill="#ff4444" opacity="0.3"/>
<rect x="577.8" y="323.35468456575495" width="7.199999999999999" height="21.64531543424505" fill="#ff4444" opacity="0.3"/>
<rect x="589.8" y="321.2225052525891" width="7.199999999999999" height="23.777494747410913" fill="#44aa44" opacity="0.3"/>
<rect x="601.8" y="318.3467824405481" width="7.199999999999999" height="26.65321755945189" fill="#ff4444" opacity="0.3"/>
<rect x="613.8" y="327.79419147314206" width="7.199999999999999" height="17.205808526857936" fill="#ff4444" opacity="0.3"/>
<rect x="625.8" y="320.96312961344665" width="7.199999999999999" height="24.036870386553346" fill="#ff4444" opacity="0.3"/>
<rect x="637.8" y="327.75542457653904" width="7.199999999999999" height="17.244575423460958" fill="#ff4444" opacity="0.3"/>
<rect x="649.8" y="318.13426175557333" width="7.199999999999999" height="26.865738244426666" fill="#ff4444" opacity="0.3"/>
<rect x="661.8" y="309.97787404942085" width="7.199999999999999" height="35.02212595057915" fill="#ff4444" opacity="0.3"/>
<rect x="673.8" y="305.2848483721622" width="7.199999999999999" height="39.71515162783783" fill="#ff4444" opacity="0.3"/>
<rect x="685.8" y="309.98261532454495" width="7.199999999999999" height="35.01738467545505" fill="#44aa44" opacity="0.3"/>
<rect x="697.8" y="312.07798003086475" width="7.199999999999999" height="32.92201996913525" fill="#ff4444" opacity="0.3"/>
<rect x="709.8" y="315.60911440417976" width="7.199999999999999" height="29.390885595820237" fill="#ff4444" opacity="0.3"/>
<rect x="721.8" y="300.0" width="7.199999999999999" height="45.0" fill="#44aa44" opacity="0.3"/>
<rect x="733.8" y="310.1552535187699" width="7.199999999999999" height="34.84474648123012" fill="#ff4444" opacity="0.3"/>
<rect x="745.8" y="302.46992544112453" width="7.199999999999999" height="42.53007455887547" fill="#ff4444" opacity="0.3"/>
<rect x="757.8" y="310.4475391852444" width="7.199999999999999" height="34.55246081475559" fill="#44aa44" opacity="0.3"/>
<rect x="769.8" y="309.8755182864474" width="7.199999999999999" height="35.1244817135526" fill="#44aa44" opacity="0.3"/>
<polyline points="66.0,273.94 78.0,263.43 90.0,263.73 102.0,266.23 114.0,263.63 126.0,260.67 138.0,264.01 150.0,263.04 162.0,262.57 174.0,262.44 186.0,267.41 198.0,264.19 210.0,269.12 222.0,268.77 234.0,274.21 246.0,278.48 258.0,282.47 270.0,284.74 282.0,282.06 294.0,280.92 306.0,278.20 318.0,279.72 330.0,285.34 342.0,285.66 354.0,286.00 366.0,278.91 378.0,275.95 390.0,268.69 402.0,263.07 414.0,262.59 426.0,258.81 438.0,252.78 450.0,247.98 462.0,244.57 474.0,235.72 486.0,231.10 498.0,227.63 510.0,222.64 522.0,225.63 534.0,230.39 546.0,222.38 558.0,224.50 570.0,226.50 582.0,224.56 594.0,223.23 606.0,215.44 618.0,210.66 630.0,203.11 642.0,198.92 654.0,190.77 666.0,178.56 678.0,168.79 690.0,163.83 702.0,157.87 714.0,149.30 726.0,142.35 738.0,135.51 750.0,110.06 762.0,98.22 774.0,87.51" fill="none" stroke="#ffd700" stroke-width="0.8" opacity="0.7"/>
<polyline points="66.0,273.94 78.0,268.20 90.0,267.50 102.0,268.18 114.0,266.41 126.0,264.29 138.0,265.45 150.0,264.66 162.0,264.11 174.0,263.76 186.0,266.23 198.0,264.69 210.0,267.28 222.0,267.43 234.0,270.64 246.0,273.62 258.0,276.68 270.0,278.97 282.0,278.56 294.0,278.57 306.0,277.51 318.0,278.47 330.0,281.76 342.0,282.59 354.0,283.33 366.0,279.95 378.0,278.14 390.0,273.78 402.0,269.79 414.0,268.31 426.0,265.21 438.0,260.75 450.0,256.69 462.0,253.24 474.0,246.84 486.0,242.30 498.0,238.37 510.0,233.69 522.0,233.32 534.0,234.51 546.0,229.40 558.0,229.28 570.0,229.50 582.0,227.89 594.0,226.56 606.0,221.71 618.0,217.96 630.0,212.52 642.0,208.52 654.0,202.33 666.0,193.57 678.0,185.51 690.0,179.77 702.0,173.62 714.0,166.08 726.0,159.24 738.0,152.44 750.0,135.48 762.0,124.40 774.0,113.79" fill="none" stroke="#ff6b6b" stroke-width="0.8" opacity="0.7"/>
<polyline points="66.0,273.94 78.0,270.93 90.0,270.31 102.0,270.39 114.0,269.26 126.0,267.88 138.0,268.14 150.0,267.47 162.0,266.92 174.0,266.46 186.0,267.50 198.0,266.57 210.0,267.75 222.0,267.78 234.0,269.43 246.0,271.11 258.0,272.95 270.0,274.50 282.0,274.71 294.0,275.09 306.0,274.87 318.0,275.62 330.0,277.62 342.0,278.44 354.0,279.23 366.0,277.84 378.0,277.10 390.0,274.92 402.0,272.72 414.0,271.66 426.0,269.72 438.0,266.96 450.0,264.23 462.0,261.71 474.0,257.55 486.0,254.15 498.0,250.96 510.0,247.32 522.0,245.82 534.0,245.26 546.0,241.55 558.0,240.33 570.0,239.40 582.0,237.61 594.0,235.99 606.0,232.55 618.0,229.56 630.0,225.60 642.0,222.26 654.0,217.71 666.0,211.65 678.0,205.71 690.0,200.78 702.0,195.56 714.0,189.52 726.0,183.70 738.0,177.81 750.0,166.51 762.0,157.75 774.0,149.02" fill="none" stroke="#4ecdc4" stroke-width="0.8" opacity="0.7"/>
<line x1="66.0" y1="264.3467790487658" x2="66.0" y2="281.5773630343167" stroke="#44aa44" stroke-width="0.5" opacity="0.6"/>
<rect x="63.0" y="266.78506923540033" width="6.0" height="7.152317880794726" fill="#44aa44" opacity="0.85"/>
<line x1="78.0" y1="226.79711017459363" x2="78.0" y2="274.53341360626126" stroke="#ff4444" stroke-width="0.5" opacity="0.6"/>
<rect x="75.0" y="242.40216736905478" width="6.0" height="31.697772426249287" fill="#ff4444" opacity="0.85"/>
<line x1="90.0" y1="237.25466586393742" x2="90.0" y2="266.5141481035521" stroke="#44aa44" stroke-width="0.5" opacity="0.6"/>
<rect x="87.0" y="240.07224563515953" width="6.0" height="24.274533413606292" fill="#44aa44" opacity="0.85"/>
<line x1="102.0" y1="260.01204093919324" x2="102.0" y2="277.35099337748346" stroke="#ff4444" stroke-width="0.5" opacity="0.6"/>
<rect x="99.0" y="271.2281757977122" width="6.0" height="0.6502107164359359" fill="#ff4444" opacity="0.85"/>
<line x1="114.0" y1="238.93437688139676" x2="114.0" y2="270.3070439494281" stroke="#ff4444" stroke-width="0.5" opacity="0.6"/>
<rect x="111.0" y="258.4406983744732" width="6.0" height="5.364238410596045" fill="#ff4444" opacity="0.85"/>
<line x1="126.0" y1="242.67308850090308" x2="126.0" y2="267.16435881998797" stroke="#44aa44" stroke-width="0.5" opacity="0.6"/>
<rect x="123.0" y="251.3425647200482" width="6.0" height="3.4136062612883507" fill="#44aa44" opacity="0.85"/>
<line x1="138.0" y1="263.80493678506923" x2="138.0" y2="286.3455749548464" stroke="#44aa44" stroke-width="0.5" opacity="0.6"/>
<rect x="135.0" y="266.5141481035521" width="6.0" height="4.172185430463628" fill="#44aa44" opacity="0.85"/>
<line x1="150.0" y1="257.5737507525587" x2="150.0" y2="269.76520168573154" stroke="#ff4444" stroke-width="0.5" opacity="0.6"/>
<rect x="147.0" y="261.0957254665864" width="6.0" height="5.526791089705057" fill="#ff4444" opacity="0.85"/>
<line x1="162.0" y1="254.21432871763994" x2="162.0" y2="271.93257074051775" stroke="#ff4444" stroke-width="0.5" opacity="0.6"/>
<rect x="159.0" y="261.63756773028297" width="6.0" height="1.029500301023461" fill="#ff4444" opacity="0.85"/>
<line x1="174.0" y1="255.02709211318484" x2="174.0" y2="268.13967489464176" stroke="#ff4444" stroke-width="0.5" opacity="0.6"/>
<rect x="171.0" y="262.17940999397956" width="6.0" height="0.5" fill="#ff4444" opacity="0.85"/>
<line x1="186.0" y1="258.00722456351593" x2="186.0" y2="277.35099337748346" stroke="#44aa44" stroke-width="0.5" opacity="0.6"/>
<rect x="183.0" y="262.23359422034923" width="6.0" height="15.11739915713423" fill="#44aa44" opacity="0.85"/>
<line x1="198.0" y1="256.3275135460566" x2="198.0" y2="278.3804936785069" stroke="#ff4444" stroke-width="0.5" opacity="0.6"/>
<rect x="195.0" y="257.7363034316677" width="6.0" height="18.205900060204726" fill="#ff4444" opacity="0.85"/>
<line x1="210.0" y1="254.7019867549669" x2="210.0" y2="278.97652016857313" stroke="#44aa44" stroke-width="0.5" opacity="0.6"/>
<rect x="207.0" y="255.73148705599036" width="6.0" height="23.245033112582774" fill="#44aa44" opacity="0.85"/>
<line x1="222.0" y1="267.16435881998797" x2="222.0" y2="282.2275737507525" stroke="#ff4444" stroke-width="0.5" opacity="0.6"/>
<rect x="219.0" y="268.08549066827214" width="6.0" height="8.452739313666484" fill="#ff4444" opacity="0.85"/>
<line x1="234.0" y1="273.0162552679109" x2="234.0" y2="287.59181216134857" stroke="#44aa44" stroke-width="0.5" opacity="0.6"/>
<rect x="231.0" y="275.45454545454544" width="6.0" height="9.644792293798957" fill="#44aa44" opacity="0.85"/>
<line x1="246.0" y1="269.3859121011439" x2="246.0" y2="287.64599638771824" stroke="#44aa44" stroke-width="0.5" opacity="0.6"/>
<rect x="243.0" y="281.79409993979533" width="6.0" height="5.201685731487032" fill="#44aa44" opacity="0.85"/>
<line x1="258.0" y1="275.7796508127634" x2="258.0" y2="292.8476821192053" stroke="#44aa44" stroke-width="0.5" opacity="0.6"/>
<rect x="255.0" y="290.30102347983143" width="6.0" height="0.5" fill="#44aa44" opacity="0.85"/>
<line x1="270.0" y1="282.7694160144491" x2="270.0" y2="300.0" stroke="#44aa44" stroke-width="0.5" opacity="0.6"/>
<rect x="267.0" y="286.39975918121615" width="6.0" height="2.8717639975918132" fill="#44aa44" opacity="0.85"/>
<line x1="282.0" y1="267.8687537627935" x2="282.0" y2="283.4738109572547" stroke="#ff4444" stroke-width="0.5" opacity="0.6"/>
<rect x="279.0" y="276.7007826610476" width="6.0" height="5.906080674292582" fill="#ff4444" opacity="0.85"/>
<line x1="294.0" y1="270.8488862131246" x2="294.0" y2="282.1192052980133" stroke="#44aa44" stroke-width="0.5" opacity="0.6"/>
<rect x="291.0" y="277.35099337748346" width="6.0" height="1.300421432871758" fill="#44aa44" opacity="0.85"/>
<line x1="306.0" y1="266.24322697170385" x2="306.0" y2="286.5623118603251" stroke="#ff4444" stroke-width="0.5" opacity="0.6"/>
<rect x="303.0" y="272.74533413606264" width="6.0" height="10.024081878386482" fill="#ff4444" opacity="0.85"/>
<line x1="318.0" y1="269.3859121011439" x2="318.0" y2="283.3112582781457" stroke="#44aa44" stroke-width="0.5" opacity="0.6"/>
<rect x="315.0" y="277.45936183022275" width="6.0" height="5.310054184226374" fill="#44aa44" opacity="0.85"/>
<line x1="330.0" y1="278.70559903672483" x2="330.0" y2="297.2366044551475" stroke="#44aa44" stroke-width="0.5" opacity="0.6"/>
<rect x="327.0" y="286.0204695966285" width="6.0" height="10.565924142083077" fill="#44aa44" opacity="0.85"/>
<line x1="342.0" y1="282.87778446718846" x2="342.0" y2="290.51776038531005" stroke="#ff4444" stroke-width="0.5" opacity="0.6"/>
<rect x="339.0" y="286.2913907284768" width="6.0" height="3.0885009030704396" fill="#ff4444" opacity="0.85"/>
<line x1="354.0" y1="280.60204695966286" x2="354.0" y2="291.9807344972908" stroke="#ff4444" stroke-width="0.5" opacity="0.6"/>
<rect x="351.0" y="286.6706803130644" width="6.0" height="2.600842865743573" fill="#ff4444" opacity="0.85"/>
<line x1="366.0" y1="257.46538229981934" x2="366.0" y2="286.2913907284768" stroke="#ff4444" stroke-width="0.5" opacity="0.6"/>
<rect x="363.0" y="264.7260686333534" width="6.0" height="18.043347381095714" fill="#ff4444" opacity="0.85"/>
<line x1="378.0" y1="260.01204093919324" x2="378.0" y2="271.4449127031909" stroke="#44aa44" stroke-width="0.5" opacity="0.6"/>
<rect x="375.0" y="263.1005418422637" width="6.0" height="6.9355809753161" fill="#44aa44" opacity="0.85"/>
<line x1="390.0" y1="253.50993377483445" x2="390.0" y2="264.99698976520165" stroke="#ff4444" stroke-width="0.5" opacity="0.6"/>
<rect x="387.0" y="254.1601444912703" width="6.0" height="6.935580975316071" fill="#ff4444" opacity="0.85"/>
<line x1="402.0" y1="246.08669476219146" x2="402.0" y2="262.9379891631547" stroke="#ff4444" stroke-width="0.5" opacity="0.6"/>
<rect x="399.0" y="251.83022275737508" width="6.0" height="7.31487055990371" fill="#ff4444" opacity="0.85"/>
<line x1="414.0" y1="242.1312462372065" x2="414.0" y2="263.80493678506923" stroke="#44aa44" stroke-width="0.5" opacity="0.6"/>
<rect x="411.0" y="248.09151113786876" width="6.0" height="13.546056592414203" fill="#44aa44" opacity="0.85"/>
<line x1="426.0" y1="249.71703792895846" x2="426.0" y2="266.1890427453341" stroke="#ff4444" stroke-width="0.5" opacity="0.6"/>
<rect x="423.0" y="251.23419626730885" width="6.0" height="14.954846478025274" fill="#ff4444" opacity="0.85"/>
<line x1="438.0" y1="236.27934978928357" x2="438.0" y2="252.20951234196266" stroke="#ff4444" stroke-width="0.5" opacity="0.6"/>
<rect x="435.0" y="240.72245635159544" width="6.0" height="9.536423841059587" fill="#ff4444" opacity="0.85"/>
<line x1="450.0" y1="231.89042745334135" x2="450.0" y2="246.84527393136665" stroke="#ff4444" stroke-width="0.5" opacity="0.6"/>
<rect x="447.0" y="238.3925346177002" width="6.0" height="6.827212522576758" fill="#ff4444" opacity="0.85"/>
<line x1="462.0" y1="234.38290186634558" x2="462.0" y2="245.38229981938593" stroke="#ff4444" stroke-width="0.5" opacity="0.6"/>
<rect x="459.0" y="237.74232390126429" width="6.0" height="4.334738109572584" fill="#ff4444" opacity="0.85"/>
<line x1="474.0" y1="196.0746538229982" x2="474.0" y2="234.22034918723662" stroke="#ff4444" stroke-width="0.5" opacity="0.6"/>
<rect x="471.0" y="218.0192655027092" width="6.0" height="16.20108368452742" fill="#ff4444" opacity="0.85"/>
<line x1="486.0" y1="211.95063214930767" x2="486.0" y2="224.14208308248044" stroke="#44aa44" stroke-width="0.5" opacity="0.6"/>
<rect x="483.0" y="217.15231788079473" width="6.0" height="4.714027694160137" fill="#44aa44" opacity="0.85"/>
<line x1="498.0" y1="218.07344972907887" x2="498.0" y2="227.33895243829022" stroke="#ff4444" stroke-width="0.5" opacity="0.6"/>
<rect x="495.0" y="220.6742925948224" width="6.0" height="5.039133052378105" fill="#ff4444" opacity="0.85"/>
<line x1="510.0" y1="205.0150511739916" x2="510.0" y2="222.62492474413003" stroke="#ff4444" stroke-width="0.5" opacity="0.6"/>
<rect x="507.0" y="212.65502709211322" width="6.0" height="8.561107766405769" fill="#ff4444" opacity="0.85"/>
<line x1="522.0" y1="212.11318482841662" x2="522.0" y2="232.9199277543648" stroke="#44aa44" stroke-width="0.5" opacity="0.6"/>
<rect x="519.0" y="214.1180012040939" width="6.0" height="17.501505117399205" fill="#44aa44" opacity="0.85"/>
<line x1="534.0" y1="227.50150511739915" x2="534.0" y2="242.7814569536424" stroke="#44aa44" stroke-width="0.5" opacity="0.6"/>
<rect x="531.0" y="233.1366646598435" width="6.0" height="6.773028296207116" fill="#44aa44" opacity="0.85"/>
<line x1="546.0" y1="193.3112582781457" x2="546.0" y2="238.66345574954846" stroke="#ff4444" stroke-width="0.5" opacity="0.6"/>
<rect x="543.0" y="206.369656833233" width="6.0" height="32.239614689945824" fill="#ff4444" opacity="0.85"/>
<line x1="558.0" y1="207.18242022877783" x2="558.0" y2="231.5653220951234" stroke="#ff4444" stroke-width="0.5" opacity="0.6"/>
<rect x="555.0" y="228.7477423239013" width="6.0" height="1.7338952438290107" fill="#ff4444" opacity="0.85"/>
<line x1="570.0" y1="223.8169777242625" x2="570.0" y2="244.13606261288382" stroke="#ff4444" stroke-width="0.5" opacity="0.6"/>
<rect x="567.0" y="230.4816375677303" width="6.0" height="4.172185430463571" fill="#ff4444" opacity="0.85"/>
<line x1="582.0" y1="208.97049969897657" x2="582.0" y2="224.846478025286" stroke="#ff4444" stroke-width="0.5" opacity="0.6"/>
<rect x="579.0" y="220.6742925948224" width="6.0" height="2.4924744130042313" fill="#ff4444" opacity="0.85"/>
<line x1="594.0" y1="212.4382901866346" x2="594.0" y2="223.22095123419626" stroke="#44aa44" stroke-width="0.5" opacity="0.6"/>
<rect x="591.0" y="214.17218543046363" width="6.0" height="6.393738711619477" fill="#44aa44" opacity="0.85"/>
<line x1="606.0" y1="187.78446718844071" x2="606.0" y2="225.27995183624324" stroke="#ff4444" stroke-width="0.5" opacity="0.6"/>
<rect x="603.0" y="199.8675496688742" width="6.0" height="21.402769416014422" fill="#ff4444" opacity="0.85"/>
<line x1="618.0" y1="193.36544250451536" x2="618.0" y2="210.9211318482842" stroke="#ff4444" stroke-width="0.5" opacity="0.6"/>
<rect x="615.0" y="201.11378687537632" width="6.0" height="4.172185430463543" fill="#ff4444" opacity="0.85"/>
<line x1="630.0" y1="175.105358217941" x2="630.0" y2="193.36544250451536" stroke="#ff4444" stroke-width="0.5" opacity="0.6"/>
<rect x="627.0" y="188.00120409391937" width="6.0" height="2.221553281155934" fill="#ff4444" opacity="0.85"/>
<line x1="642.0" y1="187.89283564118" x2="642.0" y2="198.2420228777845" stroke="#ff4444" stroke-width="0.5" opacity="0.6"/>
<rect x="639.0" y="190.54786273329324" width="6.0" height="0.5" fill="#ff4444" opacity="0.85"/>
<line x1="654.0" y1="165.40638169777247" x2="654.0" y2="201.00541842263695" stroke="#ff4444" stroke-width="0.5" opacity="0.6"/>
<rect x="651.0" y="174.45514750150517" width="6.0" height="25.14148103552077" fill="#ff4444" opacity="0.85"/>
<line x1="666.0" y1="133.97953040337154" x2="666.0" y2="169.95785671282366" stroke="#ff4444" stroke-width="0.5" opacity="0.6"/>
<rect x="663.0" y="154.13606261288385" width="6.0" height="9.428055388320246" fill="#ff4444" opacity="0.85"/>
<line x1="678.0" y1="130.62010836845278" x2="678.0" y2="160.85490668272126" stroke="#ff4444" stroke-width="0.5" opacity="0.6"/>
<rect x="675.0" y="149.2594822396147" width="6.0" height="4.7140276941601655" fill="#ff4444" opacity="0.85"/>
<line x1="690.0" y1="120.86694762191456" x2="690.0" y2="162.8055388320289" stroke="#44aa44" stroke-width="0.5" opacity="0.6"/>
<rect x="687.0" y="147.36303431667676" width="6.0" height="6.556291390728433" fill="#44aa44" opacity="0.85"/>
<line x1="702.0" y1="138.31426851294407" x2="702.0" y2="175.48464780252863" stroke="#ff4444" stroke-width="0.5" opacity="0.6"/>
<rect x="699.0" y="145.95424443106563" width="6.0" height="17.60987357013846" fill="#ff4444" opacity="0.85"/>
<line x1="714.0" y1="122.38410596026495" x2="714.0" y2="154.84045755568934" stroke="#ff4444" stroke-width="0.5" opacity="0.6"/>
<rect x="711.0" y="132.13726670680316" width="6.0" height="15.1715833835039" fill="#ff4444" opacity="0.85"/>
<line x1="726.0" y1="66.68272125225772" x2="726.0" y2="132.02889825406388" stroke="#44aa44" stroke-width="0.5" opacity="0.6"/>
<rect x="723.0" y="106.67068031306445" width="6.0" height="21.782059000602004" fill="#44aa44" opacity="0.85"/>
<line x1="738.0" y1="111.11378687537626" x2="738.0" y2="138.09753160746538" stroke="#ff4444" stroke-width="0.5" opacity="0.6"/>
<rect x="735.0" y="121.84226369656834" width="6.0" height="3.7928958458759894" fill="#ff4444" opacity="0.85"/>
<line x1="750.0" y1="49.83142685129446" x2="750.0" y2="125.63515954244433" stroke="#ff4444" stroke-width="0.5" opacity="0.6"/>
<rect x="747.0" y="59.15111378687543" width="6.0" height="50.22877784467185" fill="#ff4444" opacity="0.85"/>
<line x1="762.0" y1="55.195665261890454" x2="762.0" y2="94.53341360626133" stroke="#44aa44" stroke-width="0.5" opacity="0.6"/>
<rect x="759.0" y="64.02769416014449" width="6.0" height="10.51173991571342" fill="#44aa44" opacity="0.85"/>
<line x1="774.0" y1="30.0" x2="774.0" y2="84.9969897652017" stroke="#44aa44" stroke-width="0.5" opacity="0.6"/>
<rect x="771.0" y="56.60445514750156" width="6.0" height="9.482239614689952" fill="#44aa44" opacity="0.85"/>
<rect x="134.0" y="282.3455749548464" width="8" height="8" fill="#4caf50" opacity="0.85" rx="1"/>
<text x="138.0" y="280.3455749548464" text-anchor="middle" font-family="sans-serif" font-size="8" fill="#4caf50">前低</text>
<rect x="230.0" y="283.59181216134857" width="8" height="8" fill="#4caf50" opacity="0.85" rx="1"/>
<text x="234.0" y="281.59181216134857" text-anchor="middle" font-family="sans-serif" font-size="8" fill="#4caf50">前低</text>
<rect x="242.0" y="283.64599638771824" width="8" height="8" fill="#4caf50" opacity="0.85" rx="1"/>
<text x="246.0" y="281.64599638771824" text-anchor="middle" font-family="sans-serif" font-size="8" fill="#4caf50">前低</text>
<rect x="254.0" y="288.8476821192053" width="8" height="8" fill="#4caf50" opacity="0.85" rx="1"/>
<text x="258.0" y="286.8476821192053" text-anchor="middle" font-family="sans-serif" font-size="8" fill="#4caf50">前低</text>
<rect x="266.0" y="296.0" width="8" height="8" fill="#4caf50" opacity="0.85" rx="1"/>
<text x="270.0" y="294.0" text-anchor="middle" font-family="sans-serif" font-size="8" fill="#4caf50">前低</text>
<rect x="362.0" y="253.46538229981934" width="8" height="8" fill="#ff9800" opacity="0.85" rx="1"/>
<text x="366.0" y="251.46538229981934" text-anchor="middle" font-family="sans-serif" font-size="8" fill="#ff9800">前高</text>
<rect x="362.0" y="253.46538229981934" width="8" height="8" fill="#2196f3" opacity="0.85" rx="1"/>
<text x="366.0" y="251.46538229981934" text-anchor="middle" font-family="sans-serif" font-size="8" fill="#2196f3">突</text>
<rect x="386.0" y="249.50993377483445" width="8" height="8" fill="#ff9800" opacity="0.85" rx="1"/>
<text x="390.0" y="247.50993377483445" text-anchor="middle" font-family="sans-serif" font-size="8" fill="#ff9800">前高</text>
<rect x="386.0" y="249.50993377483445" width="8" height="8" fill="#2196f3" opacity="0.85" rx="1"/>
<text x="390.0" y="247.50993377483445" text-anchor="middle" font-family="sans-serif" font-size="8" fill="#2196f3">突</text>
<rect x="398.0" y="242.08669476219146" width="8" height="8" fill="#ff9800" opacity="0.85" rx="1"/>
<text x="402.0" y="240.08669476219146" text-anchor="middle" font-family="sans-serif" font-size="8" fill="#ff9800">前高</text>
<rect x="410.0" y="238.1312462372065" width="8" height="8" fill="#ff9800" opacity="0.85" rx="1"/>
<text x="414.0" y="236.1312462372065" text-anchor="middle" font-family="sans-serif" font-size="8" fill="#ff9800">前高</text>
<rect x="434.0" y="232.27934978928357" width="8" height="8" fill="#ff9800" opacity="0.85" rx="1"/>
<text x="438.0" y="230.27934978928357" text-anchor="middle" font-family="sans-serif" font-size="8" fill="#ff9800">前高</text>
<rect x="434.0" y="232.27934978928357" width="8" height="8" fill="#2196f3" opacity="0.85" rx="1"/>
<text x="438.0" y="230.27934978928357" text-anchor="middle" font-family="sans-serif" font-size="8" fill="#2196f3">突</text>
<rect x="446.0" y="227.89042745334135" width="8" height="8" fill="#ff9800" opacity="0.85" rx="1"/>
<text x="450.0" y="225.89042745334135" text-anchor="middle" font-family="sans-serif" font-size="8" fill="#ff9800">前高</text>
<rect x="470.0" y="192.0746538229982" width="8" height="8" fill="#ff9800" opacity="0.85" rx="1"/>
<text x="474.0" y="190.0746538229982" text-anchor="middle" font-family="sans-serif" font-size="8" fill="#ff9800">前高</text>
<rect x="542.0" y="189.3112582781457" width="8" height="8" fill="#ff9800" opacity="0.85" rx="1"/>
<text x="546.0" y="187.3112582781457" text-anchor="middle" font-family="sans-serif" font-size="8" fill="#ff9800">前高</text>
<rect x="602.0" y="183.78446718844071" width="8" height="8" fill="#ff9800" opacity="0.85" rx="1"/>
<text x="606.0" y="181.78446718844071" text-anchor="middle" font-family="sans-serif" font-size="8" fill="#ff9800">前高</text>
<rect x="626.0" y="171.105358217941" width="8" height="8" fill="#ff9800" opacity="0.85" rx="1"/>
<text x="630.0" y="169.105358217941" text-anchor="middle" font-family="sans-serif" font-size="8" fill="#ff9800">前高</text>
<rect x="650.0" y="161.40638169777247" width="8" height="8" fill="#ff9800" opacity="0.85" rx="1"/>
<text x="654.0" y="159.40638169777247" text-anchor="middle" font-family="sans-serif" font-size="8" fill="#ff9800">前高</text>
<rect x="650.0" y="161.40638169777247" width="8" height="8" fill="#2196f3" opacity="0.85" rx="1"/>
<text x="654.0" y="159.40638169777247" text-anchor="middle" font-family="sans-serif" font-size="8" fill="#2196f3">突</text>
<rect x="662.0" y="129.97953040337154" width="8" height="8" fill="#ff9800" opacity="0.85" rx="1"/>
<text x="666.0" y="127.97953040337154" text-anchor="middle" font-family="sans-serif" font-size="8" fill="#ff9800">前高</text>
<rect x="674.0" y="126.62010836845278" width="8" height="8" fill="#ff9800" opacity="0.85" rx="1"/>
<text x="678.0" y="124.62010836845278" text-anchor="middle" font-family="sans-serif" font-size="8" fill="#ff9800">前高</text>
<rect x="686.0" y="116.86694762191456" width="8" height="8" fill="#ff9800" opacity="0.85" rx="1"/>
<text x="690.0" y="114.86694762191456" text-anchor="middle" font-family="sans-serif" font-size="8" fill="#ff9800">前高</text>
<rect x="722.0" y="62.68272125225772" width="8" height="8" fill="#ff9800" opacity="0.85" rx="1"/>
<text x="726.0" y="60.68272125225772" text-anchor="middle" font-family="sans-serif" font-size="8" fill="#ff9800">前高</text>
<rect x="746.0" y="45.83142685129446" width="8" height="8" fill="#ff9800" opacity="0.85" rx="1"/>
<text x="750.0" y="43.83142685129446" text-anchor="middle" font-family="sans-serif" font-size="8" fill="#ff9800">前高</text>
<rect x="746.0" y="45.83142685129446" width="8" height="8" fill="#2196f3" opacity="0.85" rx="1"/>
<text x="750.0" y="43.83142685129446" text-anchor="middle" font-family="sans-serif" font-size="8" fill="#2196f3">突</text>
<rect x="770.0" y="26.0" width="8" height="8" fill="#ff9800" opacity="0.85" rx="1"/>
<text x="774.0" y="24.0" text-anchor="middle" font-family="sans-serif" font-size="8" fill="#ff9800">前高</text>
<text x="66.0" y="359" text-anchor="middle" font-family="sans-serif" font-size="8" fill="#666666" transform="rotate(-40,66.0,359)">02/27</text>
<text x="138.0" y="359" text-anchor="middle" font-family="sans-serif" font-size="8" fill="#666666" transform="rotate(-40,138.0,359)">03/09</text>
<text x="210.0" y="359" text-anchor="middle" font-family="sans-serif" font-size="8" fill="#666666" transform="rotate(-40,210.0,359)">03/17</text>
<text x="282.0" y="359" text-anchor="middle" font-family="sans-serif" font-size="8" fill="#666666" transform="rotate(-40,282.0,359)">03/25</text>
<text x="354.0" y="359" text-anchor="middle" font-family="sans-serif" font-size="8" fill="#666666" transform="rotate(-40,354.0,359)">04/02</text>
<text x="426.0" y="359" text-anchor="middle" font-family="sans-serif" font-size="8" fill="#666666" transform="rotate(-40,426.0,359)">04/13</text>
<text x="498.0" y="359" text-anchor="middle" font-family="sans-serif" font-size="8" fill="#666666" transform="rotate(-40,498.0,359)">04/21</text>
<text x="570.0" y="359" text-anchor="middle" font-family="sans-serif" font-size="8" fill="#666666" transform="rotate(-40,570.0,359)">04/29</text>
<text x="642.0" y="359" text-anchor="middle" font-family="sans-serif" font-size="8" fill="#666666" transform="rotate(-40,642.0,359)">05/12</text>
<text x="714.0" y="359" text-anchor="middle" font-family="sans-serif" font-size="8" fill="#666666" transform="rotate(-40,714.0,359)">05/20</text>
<text x="774.0" y="359" text-anchor="middle" font-family="sans-serif" font-size="8" fill="#666666" transform="rotate(-40,774.0,359)">05/27</text>
<text x="400.0" y="396" text-anchor="middle" font-family="sans-serif" font-size="9" fill="#555555">数据截至: 2026-05-27 20:11  |  最新K线: 20260527</text>
<rect x="50" y="373" width="8" height="8" fill="#ffd700" opacity="0.8" rx="1"/>
<text x="61" y="380" font-family="sans-serif" font-size="9" fill="#888888">EMA5</text>
<rect x="150" y="373" width="8" height="8" fill="#ff6b6b" opacity="0.8" rx="1"/>
<text x="161" y="380" font-family="sans-serif" font-size="9" fill="#888888">EMA10</text>
<rect x="250" y="373" width="8" height="8" fill="#4ecdc4" opacity="0.8" rx="1"/>
<text x="261" y="380" font-family="sans-serif" font-size="9" fill="#888888">EMA20</text>
<rect x="350" y="373" width="8" height="8" fill="#2196f3" opacity="0.8" rx="1"/>
<text x="361" y="380" font-family="sans-serif" font-size="9" fill="#888888">突破</text>
<rect x="450" y="373" width="8" height="8" fill="#ff9800" opacity="0.8" rx="1"/>
<text x="461" y="380" font-family="sans-serif" font-size="9" fill="#888888">前高/量</text>
<rect x="550" y="373" width="8" height="8" fill="#4caf50" opacity="0.8" rx="1"/>
<text x="561" y="380" font-family="sans-serif" font-size="9" fill="#888888">前低</text>
</svg>