<svg xmlns="http://www.w3.org/2000/svg" width="800" height="400" viewBox="0 0 800 400">
<rect width="800" height="400" fill="#1a1a2e"/>
<text x="400.0" y="20" text-anchor="middle" font-family="sans-serif" font-size="14" fill="#ffffff" font-weight="bold">纳芯微(688052) K线图</text>
<line x1="60" y1="30.0" x2="780" y2="30.0" stroke="#2a2a4e" stroke-width="0.5"/>
<text x="55" y="33.0" text-anchor="end" font-family="sans-serif" font-size="8" fill="#666666">272.50</text>
<line x1="60" y1="83.99999999999999" x2="780" y2="83.99999999999999" stroke="#2a2a4e" stroke-width="0.5"/>
<text x="55" y="86.99999999999999" text-anchor="end" font-family="sans-serif" font-size="8" fill="#666666">247.17</text>
<line x1="60" y1="137.99999999999997" x2="780" y2="137.99999999999997" stroke="#2a2a4e" stroke-width="0.5"/>
<text x="55" y="140.99999999999997" text-anchor="end" font-family="sans-serif" font-size="8" fill="#666666">221.85</text>
<line x1="60" y1="192.00000000000003" x2="780" y2="192.00000000000003" stroke="#2a2a4e" stroke-width="0.5"/>
<text x="55" y="195.00000000000003" text-anchor="end" font-family="sans-serif" font-size="8" fill="#666666">196.52</text>
<line x1="60" y1="246.0" x2="780" y2="246.0" stroke="#2a2a4e" stroke-width="0.5"/>
<text x="55" y="249.0" text-anchor="end" font-family="sans-serif" font-size="8" fill="#666666">171.20</text>
<line x1="60" y1="300.0" x2="780" y2="300.0" stroke="#2a2a4e" stroke-width="0.5"/>
<text x="55" y="303.0" text-anchor="end" font-family="sans-serif" font-size="8" fill="#666666">145.87</text>
<line x1="60" y1="300" x2="780" y2="300" stroke="#2a2a4e" stroke-width="0.5"/>
<line x1="60" y1="345" x2="780" y2="345" stroke="#2a2a4e" stroke-width="0.5"/>
<rect x="61.8" y="325.0397548772447" width="7.199999999999999" height="19.960245122755282" fill="#44aa44" opacity="0.3"/>
<rect x="73.8" y="317.7593763332428" width="7.199999999999999" height="27.240623666757187" fill="#ff4444" opacity="0.3"/>
<rect x="85.8" y="317.4487065120428" width="7.199999999999999" height="27.551293487957196" fill="#44aa44" opacity="0.3"/>
<rect x="97.8" y="326.3086142031571" width="7.199999999999999" height="18.691385796842894" fill="#ff4444" opacity="0.3"/>
<rect x="109.8" y="327.7188457510763" width="7.199999999999999" height="17.281154248923713" fill="#44aa44" opacity="0.3"/>
<rect x="121.8" y="322.1512236745142" width="7.199999999999999" height="22.8487763254858" fill="#ff4444" opacity="0.3"/>
<rect x="133.8" y="320.43264942016054" width="7.199999999999999" height="24.567350579839456" fill="#ff4444" opacity="0.3"/>
<rect x="145.8" y="322.05639374781833" width="7.199999999999999" height="22.943606252181667" fill="#ff4444" opacity="0.3"/>
<rect x="157.8" y="331.93150525540085" width="7.199999999999999" height="13.06849474459915" fill="#44aa44" opacity="0.3"/>
<rect x="169.8" y="331.7971143776907" width="7.199999999999999" height="13.202885622309282" fill="#44aa44" opacity="0.3"/>
<rect x="181.8" y="328.44548733661713" width="7.199999999999999" height="16.554512663382866" fill="#44aa44" opacity="0.3"/>
<rect x="193.8" y="331.91521545204205" width="7.199999999999999" height="13.084784547957952" fill="#ff4444" opacity="0.3"/>
<rect x="205.8" y="332.20552301904354" width="7.199999999999999" height="12.79447698095646" fill="#44aa44" opacity="0.3"/>
<rect x="217.8" y="335.8928363650467" width="7.199999999999999" height="9.107163634953281" fill="#44aa44" opacity="0.3"/>
<rect x="229.8" y="332.458014971105" width="7.199999999999999" height="12.541985028894999" fill="#44aa44" opacity="0.3"/>
<rect x="241.8" y="326.0468137920335" width="7.199999999999999" height="18.953186207966496" fill="#ff4444" opacity="0.3"/>
<rect x="253.8" y="328.71892332156847" width="7.199999999999999" height="16.281076678431532" fill="#44aa44" opacity="0.3"/>
<rect x="265.8" y="331.6976302214638" width="7.199999999999999" height="13.302369778536217" fill="#ff4444" opacity="0.3"/>
<rect x="277.8" y="333.5645580421208" width="7.199999999999999" height="11.43544195787922" fill="#ff4444" opacity="0.3"/>
<rect x="289.8" y="336.1895434976535" width="7.199999999999999" height="8.810456502346483" fill="#44aa44" opacity="0.3"/>
<rect x="301.8" y="337.98898499010977" width="7.199999999999999" height="7.0110150098902295" fill="#ff4444" opacity="0.3"/>
<rect x="313.8" y="331.245588178257" width="7.199999999999999" height="13.75441182174302" fill="#44aa44" opacity="0.3"/>
<rect x="325.8" y="327.5082418647946" width="7.199999999999999" height="17.491758135205373" fill="#44aa44" opacity="0.3"/>
<rect x="337.8" y="335.26160648489315" width="7.199999999999999" height="9.73839351510685" fill="#ff4444" opacity="0.3"/>
<rect x="349.8" y="336.3454601869449" width="7.199999999999999" height="8.654539813055123" fill="#44aa44" opacity="0.3"/>
<rect x="361.8" y="334.22662219291783" width="7.199999999999999" height="10.77337780708217" fill="#44aa44" opacity="0.3"/>
<rect x="373.8" y="335.5943838963658" width="7.199999999999999" height="9.405616103634202" fill="#ff4444" opacity="0.3"/>
<rect x="385.8" y="329.3571345460187" width="7.199999999999999" height="15.642865453981301" fill="#ff4444" opacity="0.3"/>
<rect x="397.8" y="328.9347632160726" width="7.199999999999999" height="16.06523678392739" fill="#44aa44" opacity="0.3"/>
<rect x="409.8" y="323.94368382267385" width="7.199999999999999" height="21.056316177326153" fill="#44aa44" opacity="0.3"/>
<rect x="421.8" y="331.3793972772757" width="7.199999999999999" height="13.6206027227243" fill="#44aa44" opacity="0.3"/>
<rect x="433.8" y="329.8720086878951" width="7.199999999999999" height="15.127991312104882" fill="#ff4444" opacity="0.3"/>
<rect x="445.8" y="327.90792382577666" width="7.199999999999999" height="17.092076174223337" fill="#ff4444" opacity="0.3"/>
<rect x="457.8" y="326.6000853275414" width="7.199999999999999" height="18.39991467245858" fill="#ff4444" opacity="0.3"/>
<rect x="469.8" y="320.6397626342939" width="7.199999999999999" height="24.360237365706098" fill="#ff4444" opacity="0.3"/>
<rect x="481.8" y="324.8239149827406" width="7.199999999999999" height="20.176085017259425" fill="#44aa44" opacity="0.3"/>
<rect x="493.8" y="327.0148935344995" width="7.199999999999999" height="17.985106465500508" fill="#ff4444" opacity="0.3"/>
<rect x="505.8" y="327.2732032734748" width="7.199999999999999" height="17.726796726525208" fill="#ff4444" opacity="0.3"/>
<rect x="517.8" y="318.1410231547919" width="7.199999999999999" height="26.858976845208076" fill="#ff4444" opacity="0.3"/>
<rect x="529.8" y="300.0" width="7.199999999999999" height="45.0" fill="#44aa44" opacity="0.3"/>
<rect x="541.8" y="314.60729938331457" width="7.199999999999999" height="30.39270061668543" fill="#ff4444" opacity="0.3"/>
<rect x="553.8" y="315.6766086180817" width="7.199999999999999" height="29.323391381918327" fill="#ff4444" opacity="0.3"/>
<rect x="565.8" y="321.78412132024977" width="7.199999999999999" height="23.215878679750233" fill="#ff4444" opacity="0.3"/>
<rect x="577.8" y="309.6639258426095" width="7.199999999999999" height="35.3360741573905" fill="#ff4444" opacity="0.3"/>
<rect x="589.8" y="313.6019858045999" width="7.199999999999999" height="31.398014195400094" fill="#ff4444" opacity="0.3"/>
<rect x="601.8" y="329.0371562657565" width="7.199999999999999" height="15.962843734243506" fill="#ff4444" opacity="0.3"/>
<rect x="613.8" y="326.28301594073616" width="7.199999999999999" height="18.716984059263837" fill="#ff4444" opacity="0.3"/>
<rect x="625.8" y="306.49846798277935" width="7.199999999999999" height="38.501532017220654" fill="#ff4444" opacity="0.3"/>
<rect x="637.8" y="318.45402009075747" width="7.199999999999999" height="26.545979909242533" fill="#44aa44" opacity="0.3"/>
<rect x="649.8" y="321.63402241787225" width="7.199999999999999" height="23.365977582127755" fill="#ff4444" opacity="0.3"/>
<rect x="661.8" y="314.59624558817825" width="7.199999999999999" height="30.40375441182175" fill="#44aa44" opacity="0.3"/>
<rect x="673.8" y="316.34623589186674" width="7.199999999999999" height="28.65376410813326" fill="#ff4444" opacity="0.3"/>
<rect x="685.8" y="323.0250552689757" width="7.199999999999999" height="21.974944731024323" fill="#ff4444" opacity="0.3"/>
<rect x="697.8" y="323.2862739014079" width="7.199999999999999" height="21.713726098592076" fill="#ff4444" opacity="0.3"/>
<rect x="709.8" y="301.1472675794128" width="7.199999999999999" height="43.85273242058719" fill="#ff4444" opacity="0.3"/>
<rect x="721.8" y="308.72202614125587" width="7.199999999999999" height="36.27797385874413" fill="#44aa44" opacity="0.3"/>
<rect x="733.8" y="320.64674397859056" width="7.199999999999999" height="24.353256021409436" fill="#44aa44" opacity="0.3"/>
<rect x="745.8" y="316.28282201450565" width="7.199999999999999" height="28.717177985494345" fill="#ff4444" opacity="0.3"/>
<rect x="757.8" y="323.17748128611873" width="7.199999999999999" height="21.822518713881266" fill="#44aa44" opacity="0.3"/>
<rect x="769.8" y="312.3947950199744" width="7.199999999999999" height="32.605204980025576" fill="#ff4444" opacity="0.3"/>
<polyline points="66.0,248.55 78.0,248.91 90.0,259.01 102.0,264.85 114.0,271.51 126.0,267.89 138.0,260.52 150.0,251.40 162.0,246.81 174.0,244.68 186.0,250.24 198.0,251.94 210.0,257.76 222.0,262.61 234.0,268.01 246.0,267.46 258.0,273.80 270.0,275.21 282.0,271.23 294.0,271.63 306.0,271.75 318.0,276.89 330.0,283.16 342.0,283.92 354.0,285.57 366.0,288.41 378.0,288.36 390.0,284.40 402.0,284.19 414.0,285.38 426.0,286.87 438.0,285.22 450.0,282.80 462.0,276.88 474.0,267.65 486.0,261.59 498.0,257.10 510.0,251.55 522.0,245.14 534.0,237.17 546.0,228.53 558.0,224.19 570.0,218.81 582.0,208.82 594.0,201.17 606.0,195.52 618.0,191.16 630.0,170.17 642.0,159.27 654.0,154.06 666.0,152.21 678.0,148.49 690.0,146.76 702.0,140.22 714.0,118.41 726.0,113.46 738.0,111.22 750.0,93.03 762.0,86.50 774.0,74.42" fill="none" stroke="#ffd700" stroke-width="0.8" opacity="0.7"/>
<polyline points="66.0,248.55 78.0,248.74 90.0,254.28 102.0,258.33 114.0,263.15 126.0,262.69 138.0,259.62 150.0,254.81 162.0,251.68 174.0,249.64 186.0,251.76 198.0,252.42 210.0,255.51 222.0,258.56 234.0,262.24 246.0,262.99 258.0,267.26 270.0,269.22 282.0,268.14 294.0,268.92 306.0,269.48 318.0,272.69 330.0,276.88 342.0,278.43 354.0,280.33 366.0,282.83 378.0,283.82 390.0,282.49 402.0,282.72 414.0,283.64 426.0,284.77 438.0,284.25 450.0,283.10 462.0,279.82 474.0,274.25 486.0,269.74 498.0,265.81 510.0,261.20 522.0,255.95 534.0,249.64 546.0,242.66 558.0,237.72 570.0,232.33 582.0,224.42 594.0,217.41 606.0,211.38 618.0,206.12 630.0,191.95 642.0,182.04 654.0,175.06 666.0,170.23 678.0,164.93 690.0,160.99 702.0,154.84 714.0,140.28 726.0,133.61 738.0,128.72 750.0,115.62 762.0,107.95 774.0,97.46" fill="none" stroke="#ff6b6b" stroke-width="0.8" opacity="0.7"/>
<polyline points="66.0,248.55 78.0,248.65 90.0,251.56 102.0,253.94 114.0,256.88 126.0,257.24 138.0,256.15 150.0,253.96 162.0,252.40 174.0,251.26 186.0,252.22 198.0,252.52 210.0,254.13 222.0,255.86 234.0,258.05 246.0,258.84 258.0,261.47 270.0,263.05 282.0,263.07 294.0,263.96 306.0,264.73 318.0,266.86 330.0,269.61 342.0,271.12 354.0,272.81 366.0,274.83 378.0,276.11 390.0,276.15 402.0,276.87 414.0,277.91 426.0,279.05 438.0,279.32 450.0,279.19 462.0,277.84 474.0,275.11 486.0,272.67 498.0,270.33 510.0,267.49 522.0,264.14 534.0,260.05 546.0,255.40 558.0,251.60 570.0,247.46 582.0,241.87 594.0,236.54 606.0,231.56 618.0,226.88 630.0,217.48 642.0,209.86 654.0,203.55 666.0,198.31 678.0,192.86 690.0,188.14 702.0,182.33 714.0,172.09 726.0,165.56 738.0,159.96 750.0,150.12 762.0,142.82 774.0,134.00" fill="none" stroke="#4ecdc4" stroke-width="0.8" opacity="0.7"/>
<line x1="66.0" y1="240.0213219616205" x2="66.0" y2="252.17484008528783" stroke="#44aa44" stroke-width="0.5" opacity="0.6"/>
<rect x="63.0" y="240.0213219616205" width="6.0" height="8.528784648187639" fill="#44aa44" opacity="0.85"/>
<line x1="78.0" y1="233.62473347547973" x2="78.0" y2="255.181236673774" stroke="#ff4444" stroke-width="0.5" opacity="0.6"/>
<rect x="75.0" y="249.61620469083155" width="6.0" height="5.5650319829424575" fill="#ff4444" opacity="0.85"/>
<line x1="90.0" y1="246.35394456289978" x2="90.0" y2="280.53304904051174" stroke="#44aa44" stroke-width="0.5" opacity="0.6"/>
<rect x="87.0" y="247.69722814498934" width="6.0" height="31.513859275053306" fill="#44aa44" opacity="0.85"/>
<line x1="102.0" y1="271.4498933901919" x2="102.0" y2="281.7057569296376" stroke="#ff4444" stroke-width="0.5" opacity="0.6"/>
<rect x="99.0" y="276.54584221748405" width="6.0" height="3.987206823027691" fill="#ff4444" opacity="0.85"/>
<line x1="114.0" y1="265.6076759061834" x2="114.0" y2="285.65031982942435" stroke="#44aa44" stroke-width="0.5" opacity="0.6"/>
<rect x="111.0" y="271.5565031982942" width="6.0" height="13.262260127931768" fill="#44aa44" opacity="0.85"/>
<line x1="126.0" y1="260.2771855010661" x2="126.0" y2="284.81876332622596" stroke="#ff4444" stroke-width="0.5" opacity="0.6"/>
<rect x="123.0" y="260.6396588486141" width="6.0" height="21.236673773987206" fill="#ff4444" opacity="0.85"/>
<line x1="138.0" y1="245.15991471215352" x2="138.0" y2="270.6183368869936" stroke="#ff4444" stroke-width="0.5" opacity="0.6"/>
<rect x="135.0" y="245.7782515991471" width="6.0" height="23.71002132196162" fill="#ff4444" opacity="0.85"/>
<line x1="150.0" y1="226.16204690831557" x2="150.0" y2="242.77185501066097" stroke="#ff4444" stroke-width="0.5" opacity="0.6"/>
<rect x="147.0" y="233.15565031982945" width="6.0" height="4.5202558635394325" fill="#ff4444" opacity="0.85"/>
<line x1="162.0" y1="225.9488272921109" x2="162.0" y2="240.0213219616205" stroke="#44aa44" stroke-width="0.5" opacity="0.6"/>
<rect x="159.0" y="233.62473347547973" width="6.0" height="4.008528784648206" fill="#44aa44" opacity="0.85"/>
<line x1="174.0" y1="223.39019189765457" x2="174.0" y2="244.2857142857143" stroke="#44aa44" stroke-width="0.5" opacity="0.6"/>
<rect x="171.0" y="238.31556503198294" width="6.0" height="2.110874200426423" fill="#44aa44" opacity="0.85"/>
<line x1="186.0" y1="243.98720682302778" x2="186.0" y2="263.43283582089555" stroke="#44aa44" stroke-width="0.5" opacity="0.6"/>
<rect x="183.0" y="243.98720682302778" width="6.0" height="17.35607675906178" fill="#44aa44" opacity="0.85"/>
<line x1="198.0" y1="249.89339019189765" x2="198.0" y2="269.8720682302772" stroke="#ff4444" stroke-width="0.5" opacity="0.6"/>
<rect x="195.0" y="255.35181236673776" width="6.0" height="5.991471215351794" fill="#ff4444" opacity="0.85"/>
<line x1="210.0" y1="251.10874200426437" x2="210.0" y2="271.5565031982942" stroke="#44aa44" stroke-width="0.5" opacity="0.6"/>
<rect x="207.0" y="253.9445628997868" width="6.0" height="15.45842217484008" fill="#44aa44" opacity="0.85"/>
<line x1="222.0" y1="264.6695095948827" x2="222.0" y2="273.96588486140723" stroke="#44aa44" stroke-width="0.5" opacity="0.6"/>
<rect x="219.0" y="264.6695095948827" width="6.0" height="7.633262260127935" fill="#44aa44" opacity="0.85"/>
<line x1="234.0" y1="274.66950959488275" x2="234.0" y2="283.091684434968" stroke="#44aa44" stroke-width="0.5" opacity="0.6"/>
<rect x="231.0" y="274.66950959488275" width="6.0" height="4.157782515991414" fill="#44aa44" opacity="0.85"/>
<line x1="246.0" y1="258.14498933901916" x2="246.0" y2="282.9637526652452" stroke="#ff4444" stroke-width="0.5" opacity="0.6"/>
<rect x="243.0" y="266.35394456289976" width="6.0" height="11.27931769722818" fill="#ff4444" opacity="0.85"/>
<line x1="258.0" y1="266.43923240938165" x2="258.0" y2="289.2537313432836" stroke="#44aa44" stroke-width="0.5" opacity="0.6"/>
<rect x="255.0" y="276.2686567164179" width="6.0" height="10.21321961620464" fill="#44aa44" opacity="0.85"/>
<line x1="270.0" y1="274.179104477612" x2="270.0" y2="286.39658848614073" stroke="#ff4444" stroke-width="0.5" opacity="0.6"/>
<rect x="267.0" y="278.01705756929636" width="6.0" height="2.5373134328358447" fill="#ff4444" opacity="0.85"/>
<line x1="282.0" y1="257.97441364605544" x2="282.0" y2="277.18550106609814" stroke="#ff4444" stroke-width="0.5" opacity="0.6"/>
<rect x="279.0" y="263.26226012793177" width="6.0" height="13.923240938166373" fill="#ff4444" opacity="0.85"/>
<line x1="294.0" y1="263.8805970149254" x2="294.0" y2="275.13859275053306" stroke="#44aa44" stroke-width="0.5" opacity="0.6"/>
<rect x="291.0" y="267.3134328358209" width="6.0" height="5.117270788912549" fill="#44aa44" opacity="0.85"/>
<line x1="306.0" y1="266.1833688699361" x2="306.0" y2="279.72281449893393" stroke="#ff4444" stroke-width="0.5" opacity="0.6"/>
<rect x="303.0" y="272.0042643923241" width="6.0" height="4.626865671641781" fill="#ff4444" opacity="0.85"/>
<line x1="318.0" y1="274.0724946695096" x2="318.0" y2="287.9957356076759" stroke="#44aa44" stroke-width="0.5" opacity="0.6"/>
<rect x="315.0" y="275.20255863539444" width="6.0" height="11.961620469083186" fill="#44aa44" opacity="0.85"/>
<line x1="330.0" y1="278.82729211087417" x2="330.0" y2="296.80170575692966" stroke="#44aa44" stroke-width="0.5" opacity="0.6"/>
<rect x="327.0" y="284.79744136460556" width="6.0" height="10.916844349680161" fill="#44aa44" opacity="0.85"/>
<line x1="342.0" y1="284.24307036247336" x2="342.0" y2="289.317697228145" stroke="#ff4444" stroke-width="0.5" opacity="0.6"/>
<rect x="339.0" y="285.43710021321965" width="6.0" height="2.0255863539445045" fill="#ff4444" opacity="0.85"/>
<line x1="354.0" y1="282.4733475479744" x2="354.0" y2="293.30490405117274" stroke="#44aa44" stroke-width="0.5" opacity="0.6"/>
<rect x="351.0" y="285.863539445629" width="6.0" height="3.0063965884861545" fill="#44aa44" opacity="0.85"/>
<line x1="366.0" y1="286.11940298507466" x2="366.0" y2="300.0" stroke="#44aa44" stroke-width="0.5" opacity="0.6"/>
<rect x="363.0" y="288.2942430703625" width="6.0" height="5.778251599147097" fill="#44aa44" opacity="0.85"/>
<line x1="378.0" y1="281.7057569296376" x2="378.0" y2="295.4584221748401" stroke="#ff4444" stroke-width="0.5" opacity="0.6"/>
<rect x="375.0" y="288.272921108742" width="6.0" height="3.1769722814498778" fill="#ff4444" opacity="0.85"/>
<line x1="390.0" y1="273.75266524520254" x2="390.0" y2="282.15351812366737" stroke="#ff4444" stroke-width="0.5" opacity="0.6"/>
<rect x="387.0" y="276.4818763326226" width="6.0" height="1.918976545842213" fill="#ff4444" opacity="0.85"/>
<line x1="402.0" y1="277.07889125799574" x2="402.0" y2="287.07889125799574" stroke="#44aa44" stroke-width="0.5" opacity="0.6"/>
<rect x="399.0" y="281.5565031982942" width="6.0" height="2.1961620469083982" fill="#44aa44" opacity="0.85"/>
<line x1="414.0" y1="273.1130063965885" x2="414.0" y2="289.74413646055433" stroke="#44aa44" stroke-width="0.5" opacity="0.6"/>
<rect x="411.0" y="280.4690831556503" width="6.0" height="7.31343283582089" fill="#44aa44" opacity="0.85"/>
<line x1="426.0" y1="282.06823027718553" x2="426.0" y2="290.9594882729211" stroke="#44aa44" stroke-width="0.5" opacity="0.6"/>
<rect x="423.0" y="289.76545842217485" width="6.0" height="0.5" fill="#44aa44" opacity="0.85"/>
<line x1="438.0" y1="273.81663113006397" x2="438.0" y2="286.97228144989344" stroke="#ff4444" stroke-width="0.5" opacity="0.6"/>
<rect x="435.0" y="281.9189765458422" width="6.0" height="4.264392324093819" fill="#ff4444" opacity="0.85"/>
<line x1="450.0" y1="267.3560767590618" x2="450.0" y2="280.53304904051174" stroke="#ff4444" stroke-width="0.5" opacity="0.6"/>
<rect x="447.0" y="277.953091684435" width="6.0" height="2.5799573560767612" fill="#ff4444" opacity="0.85"/>
<line x1="462.0" y1="261.3859275053305" x2="462.0" y2="280.4690831556503" stroke="#ff4444" stroke-width="0.5" opacity="0.6"/>
<rect x="459.0" y="265.03198294243066" width="6.0" height="12.921108742004321" fill="#ff4444" opacity="0.85"/>
<line x1="474.0" y1="245.99147121535182" x2="474.0" y2="265.03198294243066" stroke="#ff4444" stroke-width="0.5" opacity="0.6"/>
<rect x="471.0" y="249.18976545842222" width="6.0" height="12.985074626865611" fill="#ff4444" opacity="0.85"/>
<line x1="486.0" y1="240.44776119402982" x2="486.0" y2="255.1599147121535" stroke="#44aa44" stroke-width="0.5" opacity="0.6"/>
<rect x="483.0" y="247.2921108742004" width="6.0" height="2.1748400852879115" fill="#44aa44" opacity="0.85"/>
<line x1="498.0" y1="244.2857142857143" x2="498.0" y2="261.2366737739872" stroke="#ff4444" stroke-width="0.5" opacity="0.6"/>
<rect x="495.0" y="248.12366737739876" width="6.0" height="1.3432835820895548" fill="#ff4444" opacity="0.85"/>
<line x1="510.0" y1="234.64818763326224" x2="510.0" y2="250.36247334754796" stroke="#ff4444" stroke-width="0.5" opacity="0.6"/>
<rect x="507.0" y="240.44776119402982" width="6.0" height="9.914712153518138" fill="#ff4444" opacity="0.85"/>
<line x1="522.0" y1="217.84648187633263" x2="522.0" y2="237.76119402985077" stroke="#ff4444" stroke-width="0.5" opacity="0.6"/>
<rect x="519.0" y="232.3240938166311" width="6.0" height="3.4328358208955763" fill="#ff4444" opacity="0.85"/>
<line x1="534.0" y1="205.54371002132197" x2="534.0" y2="222.15351812366737" stroke="#44aa44" stroke-width="0.5" opacity="0.6"/>
<rect x="531.0" y="218.31556503198294" width="6.0" height="2.9211087420042645" fill="#44aa44" opacity="0.85"/>
<line x1="546.0" y1="209.9147121535181" x2="546.0" y2="235.07462686567166" stroke="#ff4444" stroke-width="0.5" opacity="0.6"/>
<rect x="543.0" y="211.2366737739872" width="6.0" height="9.594882729211093" fill="#ff4444" opacity="0.85"/>
<line x1="558.0" y1="199.12579957356076" x2="558.0" y2="220.8315565031983" stroke="#ff4444" stroke-width="0.5" opacity="0.6"/>
<rect x="555.0" y="215.50106609808103" width="6.0" height="0.8955223880596748" fill="#ff4444" opacity="0.85"/>
<line x1="570.0" y1="201.89765458422175" x2="570.0" y2="224.07249466950964" stroke="#ff4444" stroke-width="0.5" opacity="0.6"/>
<rect x="567.0" y="208.0597014925373" width="6.0" height="8.507462686567209" fill="#ff4444" opacity="0.85"/>
<line x1="582.0" y1="180.31982942430704" x2="582.0" y2="211.87633262260132" stroke="#ff4444" stroke-width="0.5" opacity="0.6"/>
<rect x="579.0" y="188.84861407249466" width="6.0" height="17.057569296375277" fill="#ff4444" opacity="0.85"/>
<line x1="594.0" y1="178.18763326226014" x2="594.0" y2="198.16631130063968" stroke="#ff4444" stroke-width="0.5" opacity="0.6"/>
<rect x="591.0" y="185.86353944562902" width="6.0" height="0.8528784648187582" fill="#ff4444" opacity="0.85"/>
<line x1="606.0" y1="180.4264392324094" x2="606.0" y2="193.92324093816632" stroke="#ff4444" stroke-width="0.5" opacity="0.6"/>
<rect x="603.0" y="184.22174840085293" width="6.0" height="1.0447761194029113" fill="#ff4444" opacity="0.85"/>
<line x1="618.0" y1="175.90618336886996" x2="618.0" y2="194.60554371002132" stroke="#ff4444" stroke-width="0.5" opacity="0.6"/>
<rect x="615.0" y="182.45202558635395" width="6.0" height="6.3965884861407005" fill="#ff4444" opacity="0.85"/>
<line x1="630.0" y1="127.01492537313433" x2="630.0" y2="173.68869936034113" stroke="#ff4444" stroke-width="0.5" opacity="0.6"/>
<rect x="627.0" y="128.18763326226016" width="6.0" height="44.45628997867803" fill="#ff4444" opacity="0.85"/>
<line x1="642.0" y1="131.9402985074627" x2="642.0" y2="146.7803837953092" stroke="#44aa44" stroke-width="0.5" opacity="0.6"/>
<rect x="639.0" y="132.8997867803838" width="6.0" height="4.562899786780406" fill="#44aa44" opacity="0.85"/>
<line x1="654.0" y1="137.67590618336885" x2="654.0" y2="154.66950959488273" stroke="#ff4444" stroke-width="0.5" opacity="0.6"/>
<rect x="651.0" y="143.64605543710024" width="6.0" height="2.558635394456246" fill="#ff4444" opacity="0.85"/>
<line x1="666.0" y1="120.63965884861406" x2="666.0" y2="148.50746268656718" stroke="#44aa44" stroke-width="0.5" opacity="0.6"/>
<rect x="663.0" y="135.54371002132194" width="6.0" height="12.963752665245238" fill="#44aa44" opacity="0.85"/>
<line x1="678.0" y1="117.76119402985074" x2="678.0" y2="149.61620469083155" stroke="#ff4444" stroke-width="0.5" opacity="0.6"/>
<rect x="675.0" y="141.04477611940302" width="6.0" height="5.095948827292091" fill="#ff4444" opacity="0.85"/>
<line x1="690.0" y1="129.8081023454158" x2="690.0" y2="153.92324093816632" stroke="#ff4444" stroke-width="0.5" opacity="0.6"/>
<rect x="687.0" y="143.30490405117268" width="6.0" height="0.7675906183368966" fill="#ff4444" opacity="0.85"/>
<line x1="702.0" y1="124.07249466950961" x2="702.0" y2="154.94669509594883" stroke="#ff4444" stroke-width="0.5" opacity="0.6"/>
<rect x="699.0" y="127.14285714285715" width="6.0" height="16.396588486140715" fill="#ff4444" opacity="0.85"/>
<line x1="714.0" y1="61.556503198294266" x2="714.0" y2="131.25799573560772" stroke="#ff4444" stroke-width="0.5" opacity="0.6"/>
<rect x="711.0" y="74.77611940298507" width="6.0" height="56.03411513859274" fill="#ff4444" opacity="0.85"/>
<line x1="726.0" y1="62.62260127931772" x2="726.0" y2="107.78251599147119" stroke="#44aa44" stroke-width="0.5" opacity="0.6"/>
<rect x="723.0" y="64.05117270788918" width="6.0" height="39.50959488272916" fill="#44aa44" opacity="0.85"/>
<line x1="738.0" y1="99.29637526652452" x2="738.0" y2="124.88272921108742" stroke="#44aa44" stroke-width="0.5" opacity="0.6"/>
<rect x="735.0" y="100.70362473347548" width="6.0" height="6.034115138592782" fill="#44aa44" opacity="0.85"/>
<line x1="750.0" y1="41.727078891257996" x2="750.0" y2="104.0085287846482" stroke="#ff4444" stroke-width="0.5" opacity="0.6"/>
<rect x="747.0" y="56.652452025586356" width="6.0" height="47.35607675906185" fill="#ff4444" opacity="0.85"/>
<line x1="762.0" y1="56.652452025586356" x2="762.0" y2="84.13646055437098" stroke="#44aa44" stroke-width="0.5" opacity="0.6"/>
<rect x="759.0" y="65.18123667377398" width="6.0" height="8.272921108741997" fill="#44aa44" opacity="0.85"/>
<line x1="774.0" y1="30.0" x2="774.0" y2="66.99360341151385" stroke="#ff4444" stroke-width="0.5" opacity="0.6"/>
<rect x="771.0" y="50.25586353944563" width="6.0" height="7.462686567164184" fill="#ff4444" opacity="0.85"/>
<rect x="146.0" y="222.16204690831557" width="8" height="8" fill="#ff9800" opacity="0.85" rx="1"/>
<text x="150.0" y="220.16204690831557" text-anchor="middle" font-family="sans-serif" font-size="8" fill="#ff9800">前高</text>
<rect x="158.0" y="221.9488272921109" width="8" height="8" fill="#ff9800" opacity="0.85" rx="1"/>
<text x="162.0" y="219.9488272921109" text-anchor="middle" font-family="sans-serif" font-size="8" fill="#ff9800">前高</text>
<rect x="170.0" y="219.39019189765457" width="8" height="8" fill="#ff9800" opacity="0.85" rx="1"/>
<text x="174.0" y="217.39019189765457" text-anchor="middle" font-family="sans-serif" font-size="8" fill="#ff9800">前高</text>
<rect x="254.0" y="285.2537313432836" width="8" height="8" fill="#4caf50" opacity="0.85" rx="1"/>
<text x="258.0" y="283.2537313432836" text-anchor="middle" font-family="sans-serif" font-size="8" fill="#4caf50">前低</text>
<rect x="326.0" y="292.80170575692966" width="8" height="8" fill="#4caf50" opacity="0.85" rx="1"/>
<text x="330.0" y="290.80170575692966" text-anchor="middle" font-family="sans-serif" font-size="8" fill="#4caf50">前低</text>
<rect x="362.0" y="296.0" width="8" height="8" fill="#4caf50" opacity="0.85" rx="1"/>
<text x="366.0" y="294.0" text-anchor="middle" font-family="sans-serif" font-size="8" fill="#4caf50">前低</text>
<rect x="446.0" y="263.3560767590618" width="8" height="8" fill="#ff9800" opacity="0.85" rx="1"/>
<text x="450.0" y="261.3560767590618" text-anchor="middle" font-family="sans-serif" font-size="8" fill="#ff9800">前高</text>
<rect x="458.0" y="257.3859275053305" width="8" height="8" fill="#ff9800" opacity="0.85" rx="1"/>
<text x="462.0" y="255.38592750533053" text-anchor="middle" font-family="sans-serif" font-size="8" fill="#ff9800">前高</text>
<rect x="458.0" y="257.3859275053305" width="8" height="8" fill="#2196f3" opacity="0.85" rx="1"/>
<text x="462.0" y="255.38592750533053" text-anchor="middle" font-family="sans-serif" font-size="8" fill="#2196f3">突</text>
<rect x="470.0" y="241.99147121535182" width="8" height="8" fill="#ff9800" opacity="0.85" rx="1"/>
<text x="474.0" y="239.99147121535182" text-anchor="middle" font-family="sans-serif" font-size="8" fill="#ff9800">前高</text>
<rect x="470.0" y="241.99147121535182" width="8" height="8" fill="#2196f3" opacity="0.85" rx="1"/>
<text x="474.0" y="239.99147121535182" text-anchor="middle" font-family="sans-serif" font-size="8" fill="#2196f3">突</text>
<rect x="482.0" y="236.44776119402982" width="8" height="8" fill="#ff9800" opacity="0.85" rx="1"/>
<text x="486.0" y="234.44776119402982" text-anchor="middle" font-family="sans-serif" font-size="8" fill="#ff9800">前高</text>
<rect x="506.0" y="230.64818763326224" width="8" height="8" fill="#ff9800" opacity="0.85" rx="1"/>
<text x="510.0" y="228.64818763326224" text-anchor="middle" font-family="sans-serif" font-size="8" fill="#ff9800">前高</text>
<rect x="518.0" y="213.84648187633263" width="8" height="8" fill="#ff9800" opacity="0.85" rx="1"/>
<text x="522.0" y="211.84648187633263" text-anchor="middle" font-family="sans-serif" font-size="8" fill="#ff9800">前高</text>
<rect x="530.0" y="201.54371002132197" width="8" height="8" fill="#ff9800" opacity="0.85" rx="1"/>
<text x="534.0" y="199.54371002132197" text-anchor="middle" font-family="sans-serif" font-size="8" fill="#ff9800">前高</text>
<rect x="530.0" y="193.23880597014926" width="8" height="8" fill="#ff9800" opacity="0.85" rx="1"/>
<text x="534.0" y="191.23880597014926" text-anchor="middle" font-family="sans-serif" font-size="8" fill="#ff9800">量</text>
<rect x="554.0" y="195.12579957356076" width="8" height="8" fill="#ff9800" opacity="0.85" rx="1"/>
<text x="558.0" y="193.12579957356076" text-anchor="middle" font-family="sans-serif" font-size="8" fill="#ff9800">前高</text>
<rect x="578.0" y="176.31982942430704" width="8" height="8" fill="#ff9800" opacity="0.85" rx="1"/>
<text x="582.0" y="174.31982942430704" text-anchor="middle" font-family="sans-serif" font-size="8" fill="#ff9800">前高</text>
<rect x="578.0" y="176.31982942430704" width="8" height="8" fill="#2196f3" opacity="0.85" rx="1"/>
<text x="582.0" y="174.31982942430704" text-anchor="middle" font-family="sans-serif" font-size="8" fill="#2196f3">突</text>
<rect x="590.0" y="174.18763326226014" width="8" height="8" fill="#ff9800" opacity="0.85" rx="1"/>
<text x="594.0" y="172.18763326226014" text-anchor="middle" font-family="sans-serif" font-size="8" fill="#ff9800">前高</text>
<rect x="614.0" y="171.90618336886996" width="8" height="8" fill="#ff9800" opacity="0.85" rx="1"/>
<text x="618.0" y="169.90618336886996" text-anchor="middle" font-family="sans-serif" font-size="8" fill="#ff9800">前高</text>
<rect x="626.0" y="123.01492537313433" width="8" height="8" fill="#ff9800" opacity="0.85" rx="1"/>
<text x="630.0" y="121.01492537313433" text-anchor="middle" font-family="sans-serif" font-size="8" fill="#ff9800">前高</text>
<rect x="626.0" y="123.01492537313433" width="8" height="8" fill="#2196f3" opacity="0.85" rx="1"/>
<text x="630.0" y="121.01492537313433" text-anchor="middle" font-family="sans-serif" font-size="8" fill="#2196f3">突</text>
<rect x="662.0" y="116.63965884861406" width="8" height="8" fill="#ff9800" opacity="0.85" rx="1"/>
<text x="666.0" y="114.63965884861406" text-anchor="middle" font-family="sans-serif" font-size="8" fill="#ff9800">前高</text>
<rect x="674.0" y="113.76119402985074" width="8" height="8" fill="#ff9800" opacity="0.85" rx="1"/>
<text x="678.0" y="111.76119402985074" text-anchor="middle" font-family="sans-serif" font-size="8" fill="#ff9800">前高</text>
<rect x="710.0" y="57.556503198294266" width="8" height="8" fill="#ff9800" opacity="0.85" rx="1"/>
<text x="714.0" y="55.556503198294266" text-anchor="middle" font-family="sans-serif" font-size="8" fill="#ff9800">前高</text>
<rect x="710.0" y="57.556503198294266" width="8" height="8" fill="#2196f3" opacity="0.85" rx="1"/>
<text x="714.0" y="55.556503198294266" text-anchor="middle" font-family="sans-serif" font-size="8" fill="#2196f3">突</text>
<rect x="746.0" y="37.727078891257996" width="8" height="8" fill="#ff9800" opacity="0.85" rx="1"/>
<text x="750.0" y="35.727078891257996" text-anchor="middle" font-family="sans-serif" font-size="8" fill="#ff9800">前高</text>
<rect x="746.0" y="37.727078891257996" width="8" height="8" fill="#2196f3" opacity="0.85" rx="1"/>
<text x="750.0" y="35.727078891257996" text-anchor="middle" font-family="sans-serif" font-size="8" fill="#2196f3">突</text>
<rect x="770.0" y="26.0" width="8" height="8" fill="#ff9800" opacity="0.85" rx="1"/>
<text x="774.0" y="24.0" text-anchor="middle" font-family="sans-serif" font-size="8" fill="#ff9800">前高</text>
<text x="66.0" y="359" text-anchor="middle" font-family="sans-serif" font-size="8" fill="#666666" transform="rotate(-40,66.0,359)">02/27</text>
<text x="138.0" y="359" text-anchor="middle" font-family="sans-serif" font-size="8" fill="#666666" transform="rotate(-40,138.0,359)">03/09</text>
<text x="210.0" y="359" text-anchor="middle" font-family="sans-serif" font-size="8" fill="#666666" transform="rotate(-40,210.0,359)">03/17</text>
<text x="282.0" y="359" text-anchor="middle" font-family="sans-serif" font-size="8" fill="#666666" transform="rotate(-40,282.0,359)">03/25</text>
<text x="354.0" y="359" text-anchor="middle" font-family="sans-serif" font-size="8" fill="#666666" transform="rotate(-40,354.0,359)">04/02</text>
<text x="426.0" y="359" text-anchor="middle" font-family="sans-serif" font-size="8" fill="#666666" transform="rotate(-40,426.0,359)">04/13</text>
<text x="498.0" y="359" text-anchor="middle" font-family="sans-serif" font-size="8" fill="#666666" transform="rotate(-40,498.0,359)">04/21</text>
<text x="570.0" y="359" text-anchor="middle" font-family="sans-serif" font-size="8" fill="#666666" transform="rotate(-40,570.0,359)">04/29</text>
<text x="642.0" y="359" text-anchor="middle" font-family="sans-serif" font-size="8" fill="#666666" transform="rotate(-40,642.0,359)">05/12</text>
<text x="714.0" y="359" text-anchor="middle" font-family="sans-serif" font-size="8" fill="#666666" transform="rotate(-40,714.0,359)">05/20</text>
<text x="774.0" y="359" text-anchor="middle" font-family="sans-serif" font-size="8" fill="#666666" transform="rotate(-40,774.0,359)">05/27</text>
<text x="400.0" y="396" text-anchor="middle" font-family="sans-serif" font-size="9" fill="#555555">数据截至: 2026-05-27 20:57  |  最新K线: 20260527</text>
<rect x="50" y="373" width="8" height="8" fill="#ffd700" opacity="0.8" rx="1"/>
<text x="61" y="380" font-family="sans-serif" font-size="9" fill="#888888">EMA5</text>
<rect x="150" y="373" width="8" height="8" fill="#ff6b6b" opacity="0.8" rx="1"/>
<text x="161" y="380" font-family="sans-serif" font-size="9" fill="#888888">EMA10</text>
<rect x="250" y="373" width="8" height="8" fill="#4ecdc4" opacity="0.8" rx="1"/>
<text x="261" y="380" font-family="sans-serif" font-size="9" fill="#888888">EMA20</text>
<rect x="350" y="373" width="8" height="8" fill="#2196f3" opacity="0.8" rx="1"/>
<text x="361" y="380" font-family="sans-serif" font-size="9" fill="#888888">突破</text>
<rect x="450" y="373" width="8" height="8" fill="#ff9800" opacity="0.8" rx="1"/>
<text x="461" y="380" font-family="sans-serif" font-size="9" fill="#888888">前高/量</text>
<rect x="550" y="373" width="8" height="8" fill="#4caf50" opacity="0.8" rx="1"/>
<text x="561" y="380" font-family="sans-serif" font-size="9" fill="#888888">前低</text>
</svg>