<svg xmlns="http://www.w3.org/2000/svg" width="750" height="540" viewBox="0 0 750 540">
<rect width="750" height="540" fill="#1a1a2e"/>
<text x="375.0" y="22" text-anchor="middle" font-family="sans-serif" font-size="15" fill="#ffffff" font-weight="bold">德龙激光(688170) 趋势交易分析图</text>
<text x="60" y="31" font-family="sans-serif" font-size="10" fill="#888888">最新: 88.99</text>
<line x1="60" y1="100.50438917527937" x2="725" y2="100.50438917527937" stroke="#4ecdc4" stroke-width="0.5" stroke-dasharray="4,3" opacity="0.4"/>
<text x="62" y="98.50438917527937" font-family="sans-serif" font-size="7" fill="#4ecdc4" opacity="0.6">买入↑2%</text>
<line x1="60" y1="61.28825869943113" x2="725" y2="61.28825869943113" stroke="#e94560" stroke-width="0.5" stroke-dasharray="4,3" opacity="0.4"/>
<text x="62" y="59.28825869943113" font-family="sans-serif" font-size="7" fill="#e94560" opacity="0.6">警戒↑8%</text>
<rect x="60" y="100.50438917527937" width="3" height="282.49561082472064" fill="#4ecdc4" opacity="0.3" rx="1"/>
<rect x="60" y="61.28825869943113" width="3" height="321.71174130056886" fill="#e94560" opacity="0.3" rx="1"/>
<rect x="60" y="61.28825869943113" width="3" height="39.21613047584824" fill="#ffd700" opacity="0.2" rx="1"/>
<line x1="60" y1="32.0" x2="725" y2="32.0" stroke="#2a2a4e" stroke-width="0.5"/>
<text x="56" y="35.0" text-anchor="end" font-family="sans-serif" font-size="8" fill="#666666">95.7</text>
<line x1="60" y1="127.74999999999996" x2="725" y2="127.74999999999996" stroke="#2a2a4e" stroke-width="0.5"/>
<text x="56" y="130.74999999999994" text-anchor="end" font-family="sans-serif" font-size="8" fill="#666666">83.2</text>
<line x1="60" y1="223.50000000000003" x2="725" y2="223.50000000000003" stroke="#2a2a4e" stroke-width="0.5"/>
<text x="56" y="226.50000000000003" text-anchor="end" font-family="sans-serif" font-size="8" fill="#666666">70.7</text>
<line x1="60" y1="319.25" x2="725" y2="319.25" stroke="#2a2a4e" stroke-width="0.5"/>
<text x="56" y="322.25" text-anchor="end" font-family="sans-serif" font-size="8" fill="#666666">58.3</text>
<line x1="60" y1="415.0" x2="725" y2="415.0" stroke="#2a2a4e" stroke-width="0.5"/>
<text x="56" y="418.0" text-anchor="end" font-family="sans-serif" font-size="8" fill="#666666">45.8</text>
<rect x="61.66250000000001" y="450.3894353234293" width="6.095833333333334" height="24.61056467657066" fill="#44aa44" opacity="0.35"/>
<rect x="72.74583333333334" y="444.95100682371753" width="6.095833333333334" height="30.04899317628247" fill="#ff4444" opacity="0.35"/>
<rect x="83.82916666666668" y="451.6130871588916" width="6.095833333333334" height="23.386912841108405" fill="#44aa44" opacity="0.35"/>
<rect x="94.91250000000001" y="457.8315638770615" width="6.095833333333334" height="17.168436122938473" fill="#ff4444" opacity="0.35"/>
<rect x="105.99583333333335" y="450.65646517796824" width="6.095833333333334" height="24.343534822031746" fill="#ff4444" opacity="0.35"/>
<rect x="117.07916666666668" y="454.5788322208381" width="6.095833333333334" height="20.42116777916194" fill="#44aa44" opacity="0.35"/>
<rect x="128.1625" y="451.3146037471568" width="6.095833333333334" height="23.685396252843216" fill="#44aa44" opacity="0.35"/>
<rect x="139.24583333333334" y="459.9441583152049" width="6.095833333333334" height="15.055841684795071" fill="#ff4444" opacity="0.35"/>
<rect x="150.32916666666668" y="454.820265387452" width="6.095833333333334" height="20.179734612547957" fill="#ff4444" opacity="0.35"/>
<rect x="161.4125" y="459.81118569064574" width="6.095833333333334" height="15.188814309354257" fill="#ff4444" opacity="0.35"/>
<rect x="172.49583333333334" y="462.53766679681934" width="6.095833333333334" height="12.462333203180684" fill="#44aa44" opacity="0.35"/>
<rect x="183.57916666666668" y="455.2961902459885" width="6.095833333333334" height="19.70380975401149" fill="#ff4444" opacity="0.35"/>
<rect x="194.6625" y="458.7831966730503" width="6.095833333333334" height="16.216803326949655" fill="#44aa44" opacity="0.35"/>
<rect x="205.74583333333334" y="461.1767039151157" width="6.095833333333334" height="13.82329608488432" fill="#ff4444" opacity="0.35"/>
<rect x="216.82916666666668" y="459.48905788074296" width="6.095833333333334" height="15.510942119257013" fill="#44aa44" opacity="0.35"/>
<rect x="227.9125" y="458.77386906643363" width="6.095833333333334" height="16.22613093356637" fill="#44aa44" opacity="0.35"/>
<rect x="238.99583333333334" y="457.5797184984103" width="6.095833333333334" height="17.42028150158972" fill="#44aa44" opacity="0.35"/>
<rect x="250.07916666666668" y="458.93894601144103" width="6.095833333333334" height="16.061053988558964" fill="#44aa44" opacity="0.35"/>
<rect x="261.1625" y="456.3191900786494" width="6.095833333333334" height="18.680809921350612" fill="#ff4444" opacity="0.35"/>
<rect x="272.2458333333334" y="461.2721491921239" width="6.095833333333334" height="13.727850807876095" fill="#44aa44" opacity="0.35"/>
<rect x="283.3291666666667" y="457.4424074521689" width="6.095833333333334" height="17.5575925478311" fill="#ff4444" opacity="0.35"/>
<rect x="294.4125" y="457.31767782880587" width="6.095833333333334" height="17.68232217119412" fill="#44aa44" opacity="0.35"/>
<rect x="305.4958333333334" y="455.095321322103" width="6.095833333333334" height="19.904678677896978" fill="#44aa44" opacity="0.35"/>
<rect x="316.5791666666667" y="461.513799279822" width="6.095833333333334" height="13.486200720178" fill="#ff4444" opacity="0.35"/>
<rect x="327.6625" y="463.5151132018172" width="6.095833333333334" height="11.48488679818282" fill="#ff4444" opacity="0.35"/>
<rect x="338.7458333333334" y="450.9221935060025" width="6.095833333333334" height="24.077806493997485" fill="#ff4444" opacity="0.35"/>
<rect x="349.8291666666667" y="460.14177342282875" width="6.095833333333334" height="14.858226577171225" fill="#44aa44" opacity="0.35"/>
<rect x="360.9125" y="458.71551729480814" width="6.095833333333334" height="16.284482705191852" fill="#ff4444" opacity="0.35"/>
<rect x="371.9958333333334" y="457.29685340473134" width="6.095833333333334" height="17.70314659526864" fill="#ff4444" opacity="0.35"/>
<rect x="383.0791666666667" y="452.14280844628723" width="6.095833333333334" height="22.85719155371276" fill="#44aa44" opacity="0.35"/>
<rect x="394.1625" y="458.7257125857613" width="6.095833333333334" height="16.2742874142387" fill="#ff4444" opacity="0.35"/>
<rect x="405.2458333333334" y="457.50791761957" width="6.095833333333334" height="17.492082380430002" fill="#ff4444" opacity="0.35"/>
<rect x="416.3291666666667" y="458.90402171689936" width="6.095833333333334" height="16.095978283100607" fill="#ff4444" opacity="0.35"/>
<rect x="427.4125" y="462.38734048553135" width="6.095833333333334" height="12.612659514468636" fill="#ff4444" opacity="0.35"/>
<rect x="438.4958333333334" y="452.5196003693856" width="6.095833333333334" height="22.480399630614386" fill="#ff4444" opacity="0.35"/>
<rect x="449.5791666666667" y="454.67189136592106" width="6.095833333333334" height="20.328108634078923" fill="#44aa44" opacity="0.35"/>
<rect x="460.6625" y="462.681485475584" width="6.095833333333334" height="12.318514524416017" fill="#ff4444" opacity="0.35"/>
<rect x="471.7458333333334" y="460.29209973411673" width="6.095833333333334" height="14.707900265883271" fill="#ff4444" opacity="0.35"/>
<rect x="482.8291666666667" y="458.4259276475218" width="6.095833333333334" height="16.57407235247817" fill="#44aa44" opacity="0.35"/>
<rect x="493.9125" y="462.6903792400325" width="6.095833333333334" height="12.309620759967524" fill="#44aa44" opacity="0.35"/>
<rect x="504.9958333333334" y="451.81851142554336" width="6.095833333333334" height="23.181488574456612" fill="#ff4444" opacity="0.35"/>
<rect x="516.0791666666667" y="452.98272688395963" width="6.095833333333334" height="22.017273116040386" fill="#ff4444" opacity="0.35"/>
<rect x="527.1624999999999" y="460.2615138612573" width="6.095833333333334" height="14.738486138742726" fill="#ff4444" opacity="0.35"/>
<rect x="538.2458333333333" y="458.16475466225387" width="6.095833333333334" height="16.835245337746127" fill="#ff4444" opacity="0.35"/>
<rect x="549.3291666666667" y="456.50639297423595" width="6.095833333333334" height="18.493607025764028" fill="#44aa44" opacity="0.35"/>
<rect x="560.4124999999999" y="454.2697196759819" width="6.095833333333334" height="20.730280324018125" fill="#ff4444" opacity="0.35"/>
<rect x="571.4958333333333" y="461.6177044791105" width="6.095833333333334" height="13.3822955208895" fill="#ff4444" opacity="0.35"/>
<rect x="582.5791666666667" y="456.30465636601406" width="6.095833333333334" height="18.695343633985956" fill="#ff4444" opacity="0.35"/>
<rect x="593.6624999999999" y="461.5875524484193" width="6.095833333333334" height="13.412447551580735" fill="#ff4444" opacity="0.35"/>
<rect x="604.7458333333333" y="454.10442580989036" width="6.095833333333334" height="20.895574190109638" fill="#ff4444" opacity="0.35"/>
<rect x="615.8291666666667" y="447.7605687051051" width="6.095833333333334" height="27.239431294894917" fill="#ff4444" opacity="0.35"/>
<rect x="626.9124999999999" y="444.1104376227928" width="6.095833333333334" height="30.889562377207174" fill="#ff4444" opacity="0.35"/>
<rect x="637.9958333333333" y="447.76425636353497" width="6.095833333333334" height="27.235743636465056" fill="#44aa44" opacity="0.35"/>
<rect x="649.0791666666667" y="449.39398446845036" width="6.095833333333334" height="25.60601553154962" fill="#ff4444" opacity="0.35"/>
<rect x="660.1624999999999" y="452.140422314362" width="6.095833333333334" height="22.859577685637966" fill="#ff4444" opacity="0.35"/>
<rect x="671.2458333333333" y="440.0" width="6.095833333333334" height="35.0" fill="#44aa44" opacity="0.35"/>
<rect x="682.3291666666667" y="447.8985305145988" width="6.095833333333334" height="27.10146948540121" fill="#ff4444" opacity="0.35"/>
<rect x="693.4124999999999" y="441.9210531208746" width="6.095833333333334" height="33.078946879125375" fill="#ff4444" opacity="0.35"/>
<rect x="704.4958333333333" y="448.12586381074567" width="6.095833333333334" height="26.87413618925435" fill="#44aa44" opacity="0.35"/>
<rect x="715.5791666666667" y="447.68095866723684" width="6.095833333333334" height="27.319041332763142" fill="#44aa44" opacity="0.25" stroke-dasharray="3,2"/>
<polyline points="65.54166666666667,378.02970098334333 76.625,363.1186032510536 87.70833333333334,363.55415077931633 98.79166666666667,367.09831203870937 109.87500000000001,363.4146617016374 120.95833333333334,359.21670469720505 132.04166666666666,363.95047688891196 143.125,362.5715066342161 154.20833333333334,361.9083975594754 165.29166666666666,361.72252927137146 176.375,368.77234107421816 187.45833333333334,364.1976153017365 198.54166666666666,371.19101171296444 209.625,370.7035669764803 220.70833333333334,378.4234228702657 231.79166666666666,384.46670896548727 242.875,390.13527470399663 253.95833333333334,393.35066878721193 265.0416666666667,389.550322104044 276.12500000000006,387.93909359080226 287.20833333333337,384.0723129791916 298.2916666666667,386.2342411633302 309.37500000000006,394.208739543364 320.45833333333337,394.6571876573126 331.5416666666667,395.13549616648453 342.62500000000006,385.0780891561432 353.70833333333337,380.88395454746967 364.7916666666667,370.58107505653106 375.87500000000006,362.61080968716226 386.95833333333337,361.93459959477286 398.0416666666667,356.564667841428 409.12500000000006,348.01434742843475 420.20833333333337,341.21245477769617 431.2916666666667,336.37041436313604 442.37500000000006,323.8165462267051 453.45833333333337,317.2663522439857 464.5416666666667,312.3359065130485 475.62500000000006,305.2571171522538 486.70833333333337,309.50507923870236 497.7916666666667,316.2569817173662 508.87500000000006,304.8991959191432 519.9583333333334,307.90858161282904 531.0416666666666,310.7346929128005 542.125,307.98146695892495 553.2083333333334,306.09474210399674 564.2916666666666,295.0499163695519 575.375,288.27596939855204 586.4583333333334,277.5598575841843 597.5416666666666,271.6199438547047 608.625,260.0507298452062 619.7083333333334,242.73025444092076 630.7916666666666,228.87743098255513 641.875,221.84557342779746 652.9583333333334,213.39146329396144 664.0416666666666,201.2221769474627 675.125,191.36712927007912 686.2083333333334,181.67140345880048 697.2916666666666,145.5647338865748 708.375,128.76982660469625 719.4583333333334,113.57643266722883" fill="none" stroke="#ffd700" stroke-width="1" opacity="0.7"/>
<polyline points="65.54166666666667,378.02970098334333 76.625,369.89637494754896 87.70833333333334,368.9016241999659 98.79166666666667,369.8625351740622 109.87500000000001,367.3506853292315 120.95833333333334,364.34524993997854 132.04166666666666,365.99484472767807 143.125,364.8709758907956 154.20833333333334,364.091194712468 165.29166666666666,363.59293980023085 176.375,367.098217051082 187.45833333333334,364.90729827029855 198.54166666666666,368.5928448639571 209.625,368.7993598893307 220.70833333333334,373.35640984724085 231.79166666666666,377.57402281245714 242.875,381.9191834249223 253.95833333333334,385.16686952105323 265.0416666666667,384.58191665135416 276.12500000000006,384.6064111809841 287.20833333333337,383.10320037643606 298.2916666666667,384.4586362228309 309.37500000000006,389.1311998738492 320.45833333333337,390.29899696682384 331.5416666666667,391.35229082464286 342.62500000000006,386.5542879720643 353.70833333333337,383.9981784008021 364.7916666666667,377.8122034324115 375.87500000000006,372.1500353444139 386.95833333333337,370.04678881088296 398.0416666666667,365.64279163340206 409.12500000000006,359.328412536865 420.20833333333337,353.56118652583854 431.2916666666667,348.67484961823436 442.37500000000006,339.5901151337996 453.45833333333337,333.1493604328446 464.5416666666667,327.57220672708627 475.62500000000006,320.9408124913732 486.70833333333337,320.40630174959614 497.7916666666667,322.107117190523 508.87500000000006,314.8483003054638 519.9583333333334,314.6808553408705 531.0416666666666,314.9910480993928 542.125,312.7154057269894 553.2083333333334,310.8255669391986 564.2916666666666,303.9409665685556 575.375,298.6295318209186 586.4583333333334,290.90191402719677 597.5416666666666,285.23613263966024 608.625,276.4499815826691 619.7083333333334,264.0207674098838 630.7916666666666,252.5936795291456 641.875,244.44607567262497 652.9583333333334,235.72556064601852 664.0416666666666,225.02702312028157 675.125,215.32338871937804 686.2083333333334,205.67912746789892 697.2916666666666,181.61953969957614 708.375,165.90326194346028 719.4583333333334,150.86442246142997" fill="none" stroke="#ff6b6b" stroke-width="1" opacity="0.7"/>
<polyline points="65.54166666666667,378.02970098334333 76.625,373.7693873455463 87.70833333333334,372.8794691065268 98.79166666666667,373.0039610542381 109.87500000000001,371.38904676597673 120.95833333333334,369.4301652347733 132.04166666666666,369.80996104787357 143.125,368.8579234361546 154.20833333333334,368.06975733842495 165.29166666666666,367.4298559438286 176.375,368.90053296631277 187.45833333333334,367.58125970826137 198.54166666666666,369.2571211203717 209.625,369.30203125209937 220.70833333333334,371.6411839574077 231.79166666666666,374.01376464298124 242.875,376.62887336088926 253.95833333333334,378.83388132210376 265.0416666666667,379.130619171209 276.12500000000006,379.66262082769566 287.20833333333337,379.3460618684837 298.2916666666667,380.4138747887812 309.37500000000006,383.2466235044622 320.45833333333337,384.41876258834293 331.5416666666667,385.53051026419865 342.62500000000006,383.5717259662236 353.70833333333337,382.51686495326163 364.7916666666667,379.41766982196566 375.87500000000006,376.2988706911522 386.95833333333337,374.8020429500895 398.0416666666667,372.04230593910364 409.12500000000006,368.1252964784698 420.20833333333337,364.26657009730303 431.2916666666667,360.6874999484185 442.37500000000006,354.7847675679828 453.45833333333337,349.9639291594651 464.5416666666667,345.44117543486595 475.62500000000006,340.2657814344658 486.70833333333337,338.145326384669 497.7916666666667,337.3467987932428 508.87500000000006,332.09316312938137 519.9583333333334,330.36308597422124 531.0416666666666,329.0320221207472 542.125,326.5027833522164 553.2083333333334,324.19978421335196 564.2916666666666,319.3198299930958 575.375,315.0729962277107 586.4583333333334,309.45915220178097 597.5416666666666,304.72400593453955 608.625,298.26574840041286 619.7083333333334,289.6775155653592 630.7916666666666,281.24839827968924 641.875,274.2515849500313 652.9583333333334,266.84507619538925 664.0416666666666,258.2773169629203 675.125,250.02776619648145 686.2083333333334,241.6708314955064 697.2916666666666,225.64040894756516 708.375,213.2156092421722 719.4583333333334,200.83218405646952" fill="none" stroke="#4ecdc4" stroke-width="1" opacity="0.7"/>
<line x1="65.54166666666667" y1="364.42524583584185" x2="65.54166666666667" y2="388.86714830423443" stroke="#44aa44" stroke-width="0.5" opacity="0.6"/>
<rect x="63.04791666666667" y="367.884005619105" width="4.987500000000001" height="10.14569536423835" fill="#44aa44" opacity="0.8" rx="1"/>
<line x1="76.625" y1="311.16034517359026" x2="76.625" y2="378.87517559702985" stroke="#ff4444" stroke-width="0.5" opacity="0.6"/>
<rect x="74.13125" y="333.296407786474" width="4.987500000000001" height="44.96387718242022" fill="#ff4444" opacity="0.8" rx="1"/>
<line x1="87.70833333333334" y1="325.9945815773631" x2="87.70833333333334" y2="367.49969897652016" stroke="#44aa44" stroke-width="0.5" opacity="0.6"/>
<rect x="85.21458333333334" y="329.9913706602448" width="4.987500000000001" height="34.43387517559705" fill="#44aa44" opacity="0.8" rx="1"/>
<line x1="98.79166666666667" y1="358.2763395544852" x2="98.79166666666667" y2="382.8719646799117" stroke="#ff4444" stroke-width="0.5" opacity="0.6"/>
<rect x="96.29791666666667" y="374.18663455749544" width="4.987500000000001" height="0.9223359422035173" fill="#ff4444" opacity="0.8" rx="1"/>
<line x1="109.87500000000001" y1="328.3772827613887" x2="109.87500000000001" y2="372.8799919727073" stroke="#ff4444" stroke-width="0.5" opacity="0.6"/>
<rect x="107.38125000000001" y="356.0473610274935" width="4.987500000000001" height="7.6092715231788475" fill="#ff4444" opacity="0.8" rx="1"/>
<line x1="120.95833333333334" y1="333.6807144290588" x2="120.95833333333334" y2="368.4220349187237" stroke="#44aa44" stroke-width="0.5" opacity="0.6"/>
<rect x="118.46458333333334" y="345.97852699177207" width="4.987500000000001" height="4.8422636965682955" fill="#44aa44" opacity="0.8" rx="1"/>
<line x1="132.04166666666666" y1="363.6566325506723" x2="132.04166666666666" y2="395.63094521372665" stroke="#44aa44" stroke-width="0.5" opacity="0.6"/>
<rect x="129.54791666666665" y="367.49969897652016" width="4.987500000000001" height="5.918322295805808" fill="#44aa44" opacity="0.8" rx="1"/>
<line x1="143.125" y1="354.8175797712222" x2="143.125" y2="372.11137868753764" stroke="#ff4444" stroke-width="0.5" opacity="0.6"/>
<rect x="140.63125" y="359.8135661248244" width="4.987500000000001" height="7.839855508729727" fill="#ff4444" opacity="0.8" rx="1"/>
<line x1="154.20833333333334" y1="350.05217740317073" x2="154.20833333333334" y2="375.1858318282159" stroke="#ff4444" stroke-width="0.5" opacity="0.6"/>
<rect x="151.71458333333334" y="360.582179409994" width="4.987500000000001" height="1.46036524182216" fill="#ff4444" opacity="0.8" rx="1"/>
<line x1="165.29166666666666" y1="351.2050973309252" x2="165.29166666666666" y2="369.8055388320289" stroke="#ff4444" stroke-width="0.5" opacity="0.6"/>
<rect x="162.79791666666665" y="361.3507926951636" width="4.987500000000001" height="0.5" fill="#ff4444" opacity="0.8" rx="1"/>
<line x1="176.375" y1="355.43247039935784" x2="176.375" y2="382.8719646799117" stroke="#44aa44" stroke-width="0.5" opacity="0.6"/>
<rect x="173.88125" y="361.42765402368053" width="4.987500000000001" height="21.444310656231153" fill="#44aa44" opacity="0.8" rx="1"/>
<line x1="187.45833333333334" y1="353.0497692153321" x2="187.45833333333334" y2="384.3323299217339" stroke="#ff4444" stroke-width="0.5" opacity="0.6"/>
<rect x="184.96458333333334" y="355.048163756773" width="4.987500000000001" height="25.825406381697803" fill="#ff4444" opacity="0.8" rx="1"/>
<line x1="198.54166666666666" y1="350.7439293598234" x2="198.54166666666666" y2="385.1778045354204" stroke="#44aa44" stroke-width="0.5" opacity="0.6"/>
<rect x="196.04791666666665" y="352.2042946016456" width="4.987500000000001" height="32.973509933774835" fill="#44aa44" opacity="0.8" rx="1"/>
<line x1="209.625" y1="368.4220349187237" x2="209.625" y2="389.7894842464379" stroke="#ff4444" stroke-width="0.5" opacity="0.6"/>
<rect x="207.13125" y="369.72867750351196" width="4.987500000000001" height="11.990367248645384" fill="#ff4444" opacity="0.8" rx="1"/>
<line x1="220.70833333333334" y1="376.7230583985551" x2="220.70833333333334" y2="397.3987557696167" stroke="#44aa44" stroke-width="0.5" opacity="0.6"/>
<rect x="218.21458333333334" y="380.1818181818182" width="4.987500000000001" height="13.68131647601848" fill="#44aa44" opacity="0.8" rx="1"/>
<line x1="231.79166666666666" y1="371.57334938791894" x2="231.79166666666666" y2="397.4756170981336" stroke="#44aa44" stroke-width="0.5" opacity="0.6"/>
<rect x="229.29791666666665" y="389.17459361830225" width="4.987500000000001" height="7.378687537627911" fill="#44aa44" opacity="0.8" rx="1"/>
<line x1="242.875" y1="380.64298615291995" x2="242.875" y2="404.8543046357616" stroke="#44aa44" stroke-width="0.5" opacity="0.6"/>
<rect x="240.38125" y="401.2418221954646" width="4.987500000000001" height="0.5" fill="#44aa44" opacity="0.8" rx="1"/>
<line x1="253.95833333333334" y1="390.5580975316075" x2="253.95833333333334" y2="415.0" stroke="#44aa44" stroke-width="0.5" opacity="0.6"/>
<rect x="251.46458333333334" y="395.70780654224365" width="4.987500000000001" height="4.0736504113987735" fill="#44aa44" opacity="0.8" rx="1"/>
<line x1="265.0416666666667" y1="369.42123218944414" x2="265.0416666666667" y2="391.55729480232793" stroke="#ff4444" stroke-width="0.5" opacity="0.6"/>
<rect x="262.5479166666667" y="381.9496287377082" width="4.987500000000001" height="8.37788480834837" fill="#ff4444" opacity="0.8" rx="1"/>
<line x1="276.12500000000006" y1="373.64860525787674" x2="276.12500000000006" y2="389.635761589404" stroke="#44aa44" stroke-width="0.5" opacity="0.6"/>
<rect x="273.6312500000001" y="382.8719646799117" width="4.987500000000001" height="1.8446718844070347" fill="#44aa44" opacity="0.8" rx="1"/>
<line x1="287.20833333333337" y1="367.1153923339354" x2="287.20833333333337" y2="395.9383905277945" stroke="#ff4444" stroke-width="0.5" opacity="0.6"/>
<rect x="284.7145833333334" y="376.3387517559703" width="4.987500000000001" height="14.21934577563718" fill="#ff4444" opacity="0.8" rx="1"/>
<line x1="298.2916666666667" y1="371.57334938791894" x2="298.2916666666667" y2="391.32671081677705" stroke="#44aa44" stroke-width="0.5" opacity="0.6"/>
<rect x="295.7979166666667" y="383.0256873369456" width="4.987500000000001" height="7.53241019466185" fill="#44aa44" opacity="0.8" rx="1"/>
<line x1="309.37500000000006" y1="384.79349789283566" x2="309.37500000000006" y2="411.08007224563517" stroke="#44aa44" stroke-width="0.5" opacity="0.6"/>
<rect x="306.8812500000001" y="395.16977724262495" width="4.987500000000001" height="14.987959060806702" fill="#44aa44" opacity="0.8" rx="1"/>
<line x1="320.45833333333337" y1="390.7118201886414" x2="320.45833333333337" y2="401.5492675095324" stroke="#ff4444" stroke-width="0.5" opacity="0.6"/>
<rect x="317.9645833333334" y="395.5540838852097" width="4.987500000000001" height="4.381095725466594" fill="#ff4444" opacity="0.8" rx="1"/>
<line x1="331.5416666666667" y1="387.48364439092916" x2="331.5416666666667" y2="403.6245233794903" stroke="#ff4444" stroke-width="0.5" opacity="0.6"/>
<rect x="329.0479166666667" y="396.0921131848284" width="4.987500000000001" height="3.6893437688140125" fill="#ff4444" opacity="0.8" rx="1"/>
<line x1="342.62500000000006" y1="354.6638571141882" x2="342.62500000000006" y2="395.5540838852097" stroke="#ff4444" stroke-width="0.5" opacity="0.6"/>
<rect x="340.1312500000001" y="364.9632751354606" width="4.987500000000001" height="25.594822396146867" fill="#ff4444" opacity="0.8" rx="1"/>
<line x1="353.70833333333337" y1="358.2763395544852" x2="353.70833333333337" y2="374.4940798715633" stroke="#44aa44" stroke-width="0.5" opacity="0.6"/>
<rect x="351.2145833333334" y="362.6574352799518" width="4.987500000000001" height="9.838250050170643" fill="#44aa44" opacity="0.8" rx="1"/>
<line x1="364.7916666666667" y1="349.05298013245033" x2="364.7916666666667" y2="365.34758177804537" stroke="#ff4444" stroke-width="0.5" opacity="0.6"/>
<rect x="362.2979166666667" y="349.9753160746538" width="4.987500000000001" height="9.838250050170586" fill="#ff4444" opacity="0.8" rx="1"/>
<line x1="375.87500000000006" y1="338.52297812562716" x2="375.87500000000006" y2="362.426851294401" stroke="#ff4444" stroke-width="0.5" opacity="0.6"/>
<rect x="373.3812500000001" y="346.67027894842465" width="4.987500000000001" height="10.376279349789286" fill="#ff4444" opacity="0.8" rx="1"/>
<line x1="386.95833333333337" y1="332.91210114388923" x2="386.95833333333337" y2="363.6566325506723" stroke="#44aa44" stroke-width="0.5" opacity="0.6"/>
<rect x="384.4645833333334" y="341.3668472807546" width="4.987500000000001" height="19.215332129239414" fill="#44aa44" opacity="0.8" rx="1"/>
<line x1="398.0416666666667" y1="343.6726871362633" x2="398.0416666666667" y2="367.0385310054184" stroke="#ff4444" stroke-width="0.5" opacity="0.6"/>
<rect x="395.5479166666667" y="345.8248043347381" width="4.987500000000001" height="21.21372667068033" fill="#ff4444" opacity="0.8" rx="1"/>
<line x1="409.12500000000006" y1="324.6110776640578" x2="409.12500000000006" y2="347.20830824804335" stroke="#ff4444" stroke-width="0.5" opacity="0.6"/>
<rect x="406.6312500000001" y="330.9137066024483" width="4.987500000000001" height="13.527593818984542" fill="#ff4444" opacity="0.8" rx="1"/>
<line x1="420.20833333333337" y1="318.38531005418423" x2="420.20833333333337" y2="339.59903672486456" stroke="#ff4444" stroke-width="0.5" opacity="0.6"/>
<rect x="417.7145833333334" y="327.6086694762192" width="4.987500000000001" height="9.684527393136648" fill="#ff4444" opacity="0.8" rx="1"/>
<line x1="431.2916666666667" y1="321.9209311659643" x2="431.2916666666667" y2="337.5237808549067" stroke="#ff4444" stroke-width="0.5" opacity="0.6"/>
<rect x="428.7979166666667" y="326.68633353401566" width="4.987500000000001" height="6.148906281356631" fill="#ff4444" opacity="0.8" rx="1"/>
<line x1="442.37500000000006" y1="267.5799719044752" x2="442.37500000000006" y2="321.6903471804134" stroke="#ff4444" stroke-width="0.5" opacity="0.6"/>
<rect x="439.8812500000001" y="298.70880995384306" width="4.987500000000001" height="22.981537226570367" fill="#ff4444" opacity="0.8" rx="1"/>
<line x1="453.45833333333337" y1="290.1003411599438" x2="453.45833333333337" y2="307.3941400762593" stroke="#44aa44" stroke-width="0.5" opacity="0.6"/>
<rect x="450.9645833333334" y="297.4790286975718" width="4.987500000000001" height="6.686935580975273" fill="#44aa44" opacity="0.8" rx="1"/>
<line x1="464.5416666666667" y1="298.78567128236006" x2="464.5416666666667" y2="311.92895845875984" stroke="#ff4444" stroke-width="0.5" opacity="0.6"/>
<rect x="462.0479166666667" y="302.475015051174" width="4.987500000000001" height="7.148103552077089" fill="#ff4444" opacity="0.8" rx="1"/>
<line x1="475.62500000000006" y1="280.2620911097732" x2="475.62500000000006" y2="305.24202287778445" stroke="#ff4444" stroke-width="0.5" opacity="0.6"/>
<rect x="473.1312500000001" y="291.09953843066427" width="4.987500000000001" height="12.144089905679323" fill="#ff4444" opacity="0.8" rx="1"/>
<line x1="486.70833333333337" y1="290.3309251454947" x2="486.70833333333337" y2="319.8456752960064" stroke="#44aa44" stroke-width="0.5" opacity="0.6"/>
<rect x="484.2145833333334" y="293.1747943006221" width="4.987500000000001" height="24.826209110977345" fill="#44aa44" opacity="0.8" rx="1"/>
<line x1="497.7916666666667" y1="312.15954244431066" x2="497.7916666666667" y2="333.83443708609275" stroke="#44aa44" stroke-width="0.5" opacity="0.6"/>
<rect x="495.2979166666667" y="320.15312061007427" width="4.987500000000001" height="9.607666064619707" fill="#44aa44" opacity="0.8" rx="1"/>
<line x1="508.87500000000006" y1="263.66004415011037" x2="508.87500000000006" y2="327.99297611880394" stroke="#ff4444" stroke-width="0.5" opacity="0.6"/>
<rect x="506.3812500000001" y="282.1836243226972" width="4.987500000000001" height="45.7324904675898" fill="#ff4444" opacity="0.8" rx="1"/>
<line x1="519.9583333333334" y1="283.33654425045154" x2="519.9583333333334" y2="317.9241420830825" stroke="#ff4444" stroke-width="0.5" opacity="0.6"/>
<rect x="517.4645833333334" y="313.9273530002007" width="4.987500000000001" height="2.459562512542618" fill="#ff4444" opacity="0.8" rx="1"/>
<line x1="531.0416666666666" y1="306.93297210515755" x2="531.0416666666666" y2="335.75597029901667" stroke="#ff4444" stroke-width="0.5" opacity="0.6"/>
<rect x="528.5479166666667" y="316.3869155127433" width="4.987500000000001" height="5.918322295805751" fill="#ff4444" opacity="0.8" rx="1"/>
<line x1="542.125" y1="285.8729680915112" x2="542.125" y2="308.39333734697976" stroke="#ff4444" stroke-width="0.5" opacity="0.6"/>
<rect x="539.63125" y="302.475015051174" width="4.987500000000001" height="3.535621111780074" fill="#ff4444" opacity="0.8" rx="1"/>
<line x1="553.2083333333334" y1="290.79209311659645" x2="553.2083333333334" y2="306.087497491471" stroke="#44aa44" stroke-width="0.5" opacity="0.6"/>
<rect x="550.7145833333334" y="293.2516556291391" width="4.987500000000001" height="9.069636765001007" fill="#44aa44" opacity="0.8" rx="1"/>
<line x1="564.2916666666666" y1="255.8201886413807" x2="564.2916666666666" y2="309.0082279751154" stroke="#ff4444" stroke-width="0.5" opacity="0.6"/>
<rect x="561.7979166666667" y="272.9602649006623" width="4.987500000000001" height="30.36022476419822" fill="#ff4444" opacity="0.8" rx="1"/>
<line x1="575.375" y1="263.73690547862736" x2="575.375" y2="288.63997591812165" stroke="#ff4444" stroke-width="0.5" opacity="0.6"/>
<rect x="572.88125" y="274.72807545655235" width="4.987500000000001" height="5.9183222958056945" fill="#ff4444" opacity="0.8" rx="1"/>
<line x1="586.4583333333334" y1="237.8346377684126" x2="586.4583333333334" y2="263.73690547862736" stroke="#ff4444" stroke-width="0.5" opacity="0.6"/>
<rect x="583.9645833333334" y="256.1276339554486" width="4.987500000000001" height="3.151314469195256" fill="#ff4444" opacity="0.8" rx="1"/>
<line x1="597.5416666666666" y1="255.97391129841458" x2="597.5416666666666" y2="270.6544250451536" stroke="#ff4444" stroke-width="0.5" opacity="0.6"/>
<rect x="595.0479166666667" y="259.7401163957456" width="4.987500000000001" height="0.5" fill="#ff4444" opacity="0.8" rx="1"/>
<line x1="608.625" y1="224.07645996387723" x2="608.625" y2="274.57435279951835" stroke="#ff4444" stroke-width="0.5" opacity="0.6"/>
<rect x="606.13125" y="236.9123018262092" width="4.987500000000001" height="35.66365643186836" fill="#ff4444" opacity="0.8" rx="1"/>
<line x1="619.7083333333334" y1="179.49688942404183" x2="619.7083333333334" y2="230.5328115593017" stroke="#ff4444" stroke-width="0.5" opacity="0.6"/>
<rect x="617.2145833333334" y="208.08930363235004" width="4.987500000000001" height="13.373871161950603" fill="#ff4444" opacity="0.8" rx="1"/>
<line x1="630.7916666666666" y1="174.7314870559904" x2="630.7916666666666" y2="217.62010836845278" stroke="#ff4444" stroke-width="0.5" opacity="0.6"/>
<rect x="628.2979166666667" y="201.17178406582383" width="4.987500000000001" height="6.68693558097533" fill="#ff4444" opacity="0.8" rx="1"/>
<line x1="641.875" y1="160.89644792293805" x2="641.875" y2="220.38711619506324" stroke="#44aa44" stroke-width="0.5" opacity="0.6"/>
<rect x="639.38125" y="198.48163756773033" width="4.987500000000001" height="9.300220750551858" fill="#44aa44" opacity="0.8" rx="1"/>
<line x1="652.9583333333334" y1="185.6457957053984" x2="652.9583333333334" y2="238.37266706803138" stroke="#ff4444" stroke-width="0.5" opacity="0.6"/>
<rect x="650.4645833333334" y="196.48324302628941" width="4.987500000000001" height="24.979931768011227" fill="#ff4444" opacity="0.8" rx="1"/>
<line x1="664.0416666666666" y1="163.04856512141288" x2="664.0416666666666" y2="209.08850090307047" stroke="#ff4444" stroke-width="0.5" opacity="0.6"/>
<rect x="661.5479166666667" y="176.88360425446524" width="4.987500000000001" height="21.521171984748094" fill="#ff4444" opacity="0.8" rx="1"/>
<line x1="675.125" y1="84.03511940598041" x2="675.125" y2="176.72988159743136" stroke="#44aa44" stroke-width="0.5" opacity="0.6"/>
<rect x="672.63125" y="140.75877985149512" width="4.987500000000001" height="30.89825406381692" fill="#44aa44" opacity="0.8" rx="1"/>
<line x1="686.2083333333334" y1="147.0614087898856" x2="686.2083333333334" y2="185.33835039133052" stroke="#ff4444" stroke-width="0.5" opacity="0.6"/>
<rect x="683.7145833333334" y="162.27995183624324" width="4.987500000000001" height="5.380292996187052" fill="#ff4444" opacity="0.8" rx="1"/>
<line x1="697.2916666666666" y1="60.13124623720658" x2="697.2916666666666" y2="167.6602448324303" stroke="#ff4444" stroke-width="0.5" opacity="0.6"/>
<rect x="694.7979166666667" y="73.35139474212329" width="4.987500000000001" height="71.2504515352197" fill="#ff4444" opacity="0.8" rx="1"/>
<line x1="708.375" y1="67.74051776038536" x2="708.375" y2="123.54184226369664" stroke="#44aa44" stroke-width="0.5" opacity="0.6"/>
<rect x="705.88125" y="80.26891430864941" width="4.987500000000001" height="14.911097732289761" fill="#44aa44" opacity="0.8" rx="1"/>
<line x1="719.4583333333334" y1="32.0" x2="719.4583333333334" y2="110.01424844471205" stroke="#44aa44" stroke-width="0.5" opacity="0.3" stroke-dasharray="4,3"/>
<rect x="716.9645833333334" y="69.73891230182629" width="4.987500000000001" height="13.450732490467587" fill="#44aa44" opacity="0.4" stroke-dasharray="4,3" rx="1"/>
<text x="739.4583333333334" y="77.18964479229388" font-family="sans-serif" font-size="9" fill="#ffd700" opacity="0.8">🕐 盘中</text>
<line x1="298.2916666666667" y1="391.32671081677705" x2="298.2916666666667" y2="356.32671081677705" stroke="#4ecdc4" stroke-width="0.8" stroke-dasharray="2,2" opacity="0.7"/>
<rect x="262.2916666666667" y="347.32671081677705" width="72" height="16" fill="#4ecdc4" opacity="0.85" rx="3"/>
<text x="298.2916666666667" y="359.32671081677705" text-anchor="middle" font-family="sans-serif" font-size="9" fill="#000000" font-weight="bold">B1乖离买入</text>
<polygon points="298.2916666666667,397.32671081677705 294.2916666666667,391.32671081677705 302.2916666666667,391.32671081677705" fill="#4ecdc4" opacity="0.9"/>
<line x1="386.95833333333337" y1="363.6566325506723" x2="386.95833333333337" y2="313.6566325506723" stroke="#4ecdc4" stroke-width="0.8" stroke-dasharray="2,2" opacity="0.7"/>
<rect x="350.95833333333337" y="304.6566325506723" width="72" height="16" fill="#4ecdc4" opacity="0.85" rx="3"/>
<text x="386.95833333333337" y="316.6566325506723" text-anchor="middle" font-family="sans-serif" font-size="9" fill="#000000" font-weight="bold">B2乖离买入</text>
<polygon points="386.95833333333337,369.6566325506723 382.95833333333337,363.6566325506723 390.95833333333337,363.6566325506723" fill="#4ecdc4" opacity="0.9"/>
<line x1="486.70833333333337" y1="319.8456752960064" x2="486.70833333333337" y2="254.8456752960064" stroke="#4ecdc4" stroke-width="0.8" stroke-dasharray="2,2" opacity="0.7"/>
<rect x="450.70833333333337" y="245.8456752960064" width="72" height="16" fill="#4ecdc4" opacity="0.85" rx="3"/>
<text x="486.70833333333337" y="257.8456752960064" text-anchor="middle" font-family="sans-serif" font-size="9" fill="#000000" font-weight="bold">B3乖离买入</text>
<polygon points="486.70833333333337,325.8456752960064 482.70833333333337,319.8456752960064 490.70833333333337,319.8456752960064" fill="#4ecdc4" opacity="0.9"/>
<line x1="519.9583333333334" y1="317.9241420830825" x2="519.9583333333334" y2="237.92414208308247" stroke="#4ecdc4" stroke-width="0.8" stroke-dasharray="2,2" opacity="0.7"/>
<rect x="483.95833333333337" y="228.92414208308247" width="72" height="16" fill="#4ecdc4" opacity="0.85" rx="3"/>
<text x="519.9583333333334" y="240.92414208308247" text-anchor="middle" font-family="sans-serif" font-size="9" fill="#000000" font-weight="bold">B4乖离买入</text>
<polygon points="519.9583333333334,323.9241420830825 515.9583333333334,317.9241420830825 523.9583333333334,317.9241420830825" fill="#4ecdc4" opacity="0.9"/>
<line x1="542.125" y1="308.39333734697976" x2="542.125" y2="213.39333734697976" stroke="#4ecdc4" stroke-width="0.8" stroke-dasharray="2,2" opacity="0.7"/>
<rect x="506.125" y="204.39333734697976" width="72" height="16" fill="#4ecdc4" opacity="0.85" rx="3"/>
<text x="542.125" y="216.39333734697976" text-anchor="middle" font-family="sans-serif" font-size="9" fill="#000000" font-weight="bold">B5乖离买入</text>
<polygon points="542.125,314.39333734697976 538.125,308.39333734697976 546.125,308.39333734697976" fill="#4ecdc4" opacity="0.9"/>
<line x1="697.2916666666666" y1="60.13124623720658" x2="697.2916666666666" y2="79.13124623720658" stroke="#e94560" stroke-width="0.8" stroke-dasharray="2,2" opacity="0.7"/>
<rect x="663.2916666666666" y="86.13124623720658" width="68" height="16" fill="#e94560" opacity="0.85" rx="3"/>
<text x="697.2916666666666" y="98.13124623720658" text-anchor="middle" font-family="sans-serif" font-size="9" fill="#ffffff" font-weight="bold">W1警戒⚠️</text>
<polygon points="697.2916666666666,54.13124623720658 693.2916666666666,60.13124623720658 701.2916666666666,60.13124623720658" fill="#e94560" opacity="0.9"/>
<text x="375.0" y="435" text-anchor="middle" font-family="sans-serif" font-size="10" fill="#aaaaaa">📊 BIAS5=4.65%，持有区，趋势健康</text>
<rect x="60" y="443" width="665" height="55" fill="#111122" opacity="0.5" rx="2"/>
<rect x="60" y="443" width="665" height="16.96666666666664" fill="#e94560" opacity="0.18" rx="2"/>
<rect x="60" y="459.96666666666664" width="665" height="9.400000000000034" fill="#ffd700" opacity="0.12"/>
<rect x="60" y="469.3666666666667" width="665" height="30.633333333333326" fill="#4ecdc4" opacity="0.14"/>
<text x="670" y="454.48333333333335" text-anchor="end" font-family="sans-serif" font-size="9" fill="#e94560" font-weight="bold">⚠️ 警戒区</text>
<text x="670" y="467.66666666666663" text-anchor="end" font-family="sans-serif" font-size="9" fill="#ffd700">持有区</text>
<text x="670" y="487.68333333333334" text-anchor="end" font-family="sans-serif" font-size="9" fill="#4ecdc4">买入区</text>
<line x1="60" y1="472.5" x2="725" y2="472.5" stroke="#888888" stroke-width="0.5" stroke-dasharray="3,2" opacity="0.5"/>
<text x="56" y="475.5" text-anchor="end" font-family="sans-serif" font-size="7" fill="#888888">0%</text>
<line x1="60" y1="469.3666666666667" x2="725" y2="469.3666666666667" stroke="#4ecdc4" stroke-width="0.5" stroke-dasharray="3,2" opacity="0.5"/>
<text x="56" y="472.3666666666667" text-anchor="end" font-family="sans-serif" font-size="7" fill="#4ecdc4">2%</text>
<line x1="60" y1="459.96666666666664" x2="725" y2="459.96666666666664" stroke="#e94560" stroke-width="0.5" stroke-dasharray="3,2" opacity="0.5"/>
<text x="56" y="462.96666666666664" text-anchor="end" font-family="sans-serif" font-size="7" fill="#e94560">8%</text>
<text x="60" y="445" font-family="sans-serif" font-size="8" fill="#888888">BIAS5</text>
<polyline points="65.54166666666667,472.5 76.625,460.937004628749 87.70833333333334,472.8381151876772 98.79166666666667,475.27570246404963 109.87500000000001,469.64137319185437 120.95833333333334,469.27577770593126 132.04166666666666,476.17843537772495 143.125,471.4321063673918 154.20833333333334,471.98731939388483 165.29166666666666,472.35636241893127 176.375,478.0444434965351 187.45833333333334,468.94297348022474 198.54166666666666,478.0336688155555 209.625,472.1147735202011 220.70833333333334,478.72213742003385 231.79166666666666,477.4477504747509 242.875,477.21073334198354 253.95833333333334,475.19506380442664 265.0416666666667,469.34669994051774 276.12500000000006,471.16877901006416 287.20833333333337,469.3374540528908 298.2916666666667,474.2782233434663 309.37500000000006,479.1994048992294 320.45833333333337,472.8771964106618 331.5416666666667,472.902829658902 342.62500000000006,464.25263912532836 353.70833333333337,469.09803166277226 364.7916666666667,464.36017231157916 375.87500000000006,466.3271166645266 386.95833333333337,471.9771565815364 398.0416666666667,468.4022856885683 409.12500000000006,466.1084713016379 420.20833333333337,467.4966454264311 431.2916666666667,468.97831056087756 442.37500000000006,463.6279162222273 453.45833333333337,467.9382346964723 464.5416666666667,469.1035005219592 475.62500000000006,467.6982734861666 486.70833333333337,475.408247995381 497.7916666666667,477.1917157885551 508.87500000000006,464.8016842279766 519.9583333333334,474.5531295273404 531.0416666666666,474.44002997114853 542.125,470.62133528320055 553.2083333333334,471.21786060509515 564.2916666666666,465.1699814474356 575.375,468.0679856062103 586.4583333333334,465.6421845316186 597.5416666666666,468.7442933481108 608.625,465.35186133310464 619.7083333333334,462.151826983302 630.7916666666666,464.4365746508924 641.875,468.4596884280875 652.9583333333334,467.7166558262647 664.0416666666666,465.76265618521387 675.125,467.13728137259824 686.2083333333334,467.31134635443175 697.2916666666666,454.2999185392234 708.375,464.25699889933395 719.4583333333334,465.2163694490383" fill="none" stroke="#4ecdc4" stroke-width="1.5" opacity="0.9"/>
<circle cx="719.4583333333334" cy="465.2163694490383" r="3" fill="#4ecdc4" opacity="1"/>
<text x="724.4583333333334" y="468.2163694490383" font-family="sans-serif" font-size="9" fill="#4ecdc4" font-weight="bold">BIAS5=4.6%</text>
<text x="65.54166666666667" y="489" text-anchor="middle" font-family="sans-serif" font-size="8" fill="#666666" transform="rotate(-45,65.54166666666667,489)">02/27</text>
<text x="120.95833333333334" y="489" text-anchor="middle" font-family="sans-serif" font-size="8" fill="#666666" transform="rotate(-45,120.95833333333334,489)">03/06</text>
<text x="176.375" y="489" text-anchor="middle" font-family="sans-serif" font-size="8" fill="#666666" transform="rotate(-45,176.375,489)">03/13</text>
<text x="231.79166666666666" y="489" text-anchor="middle" font-family="sans-serif" font-size="8" fill="#666666" transform="rotate(-45,231.79166666666666,489)">03/20</text>
<text x="287.20833333333337" y="489" text-anchor="middle" font-family="sans-serif" font-size="8" fill="#666666" transform="rotate(-45,287.20833333333337,489)">03/27</text>
<text x="342.62500000000006" y="489" text-anchor="middle" font-family="sans-serif" font-size="8" fill="#666666" transform="rotate(-45,342.62500000000006,489)">04/03</text>
<text x="398.0416666666667" y="489" text-anchor="middle" font-family="sans-serif" font-size="8" fill="#666666" transform="rotate(-45,398.0416666666667,489)">04/13</text>
<text x="453.45833333333337" y="489" text-anchor="middle" font-family="sans-serif" font-size="8" fill="#666666" transform="rotate(-45,453.45833333333337,489)">04/20</text>
<text x="508.87500000000006" y="489" text-anchor="middle" font-family="sans-serif" font-size="8" fill="#666666" transform="rotate(-45,508.87500000000006,489)">04/27</text>
<text x="564.2916666666666" y="489" text-anchor="middle" font-family="sans-serif" font-size="8" fill="#666666" transform="rotate(-45,564.2916666666666,489)">05/07</text>
<text x="619.7083333333334" y="489" text-anchor="middle" font-family="sans-serif" font-size="8" fill="#666666" transform="rotate(-45,619.7083333333334,489)">05/14</text>
<text x="675.125" y="489" text-anchor="middle" font-family="sans-serif" font-size="8" fill="#666666" transform="rotate(-45,675.125,489)">05/21</text>
<text x="719.4583333333334" y="489" text-anchor="middle" font-family="sans-serif" font-size="8" fill="#666666" transform="rotate(-45,719.4583333333334,489)">05/27</text>
<rect x="60" y="484" width="8" height="8" fill="#4ecdc4" opacity="0.8" rx="1"/>
<text x="71" y="491" font-family="sans-serif" font-size="9" fill="#888888">买入区(BIAS&lt;2%)</text>
<rect x="230" y="484" width="8" height="8" fill="#ffd700" opacity="0.8" rx="1"/>
<text x="241" y="491" font-family="sans-serif" font-size="9" fill="#888888">持有区(2-8%)</text>
<rect x="400" y="484" width="8" height="8" fill="#e94560" opacity="0.8" rx="1"/>
<text x="411" y="491" font-family="sans-serif" font-size="9" fill="#888888">警戒区(&gt;8%)</text>
<rect x="570" y="484" width="8" height="8" fill="#ffd700" opacity="0.8" rx="1"/>
<text x="581" y="491" font-family="sans-serif" font-size="9" fill="#888888">EMA5</text>
<rect x="60" y="497" width="8" height="8" fill="#ff6b6b" opacity="0.8" rx="1"/>
<text x="71" y="504" font-family="sans-serif" font-size="9" fill="#888888">EMA10</text>
<rect x="230" y="497" width="8" height="8" fill="#4ecdc4" opacity="0.8" rx="1"/>
<text x="241" y="504" font-family="sans-serif" font-size="9" fill="#888888">EMA20</text>
<rect x="400" y="497" width="8" height="8" fill="#4ecdc4" opacity="0.8" rx="1"/>
<text x="411" y="504" font-family="sans-serif" font-size="9" fill="#888888">B乖离买入</text>
<rect x="570" y="497" width="8" height="8" fill="#e94560" opacity="0.8" rx="1"/>
<text x="581" y="504" font-family="sans-serif" font-size="9" fill="#888888">W警戒⚠️</text>
</svg>