<svg xmlns="http://www.w3.org/2000/svg" width="800" height="400" viewBox="0 0 800 400">
<rect width="800" height="400" fill="#1a1a2e"/>
<text x="400.0" y="20" text-anchor="middle" font-family="sans-serif" font-size="14" fill="#ffffff" font-weight="bold">江苏北人(688218) K线图</text>
<line x1="60" y1="30.0" x2="780" y2="30.0" stroke="#2a2a4e" stroke-width="0.5"/>
<text x="55" y="33.0" text-anchor="end" font-family="sans-serif" font-size="8" fill="#666666">47.20</text>
<line x1="60" y1="83.99999999999997" x2="780" y2="83.99999999999997" stroke="#2a2a4e" stroke-width="0.5"/>
<text x="55" y="86.99999999999997" text-anchor="end" font-family="sans-serif" font-size="8" fill="#666666">41.80</text>
<line x1="60" y1="137.99999999999994" x2="780" y2="137.99999999999994" stroke="#2a2a4e" stroke-width="0.5"/>
<text x="55" y="140.99999999999994" text-anchor="end" font-family="sans-serif" font-size="8" fill="#666666">36.40</text>
<line x1="60" y1="192.0" x2="780" y2="192.0" stroke="#2a2a4e" stroke-width="0.5"/>
<text x="55" y="195.0" text-anchor="end" font-family="sans-serif" font-size="8" fill="#666666">31.00</text>
<line x1="60" y1="245.99999999999997" x2="780" y2="245.99999999999997" stroke="#2a2a4e" stroke-width="0.5"/>
<text x="55" y="248.99999999999997" text-anchor="end" font-family="sans-serif" font-size="8" fill="#666666">25.60</text>
<line x1="60" y1="300.00000000000006" x2="780" y2="300.00000000000006" stroke="#2a2a4e" stroke-width="0.5"/>
<text x="55" y="303.00000000000006" text-anchor="end" font-family="sans-serif" font-size="8" fill="#666666">20.20</text>
<line x1="60" y1="300" x2="780" y2="300" stroke="#2a2a4e" stroke-width="0.5"/>
<line x1="60" y1="345" x2="780" y2="345" stroke="#2a2a4e" stroke-width="0.5"/>
<rect x="61.8" y="340.4116245100767" width="7.199999999999999" height="4.588375489923294" fill="#44aa44" opacity="0.3"/>
<rect x="73.8" y="340.5053948194105" width="7.199999999999999" height="4.494605180589474" fill="#ff4444" opacity="0.3"/>
<rect x="85.8" y="336.5566522532114" width="7.199999999999999" height="8.443347746788618" fill="#44aa44" opacity="0.3"/>
<rect x="97.8" y="335.83465664053193" width="7.199999999999999" height="9.165343359468068" fill="#44aa44" opacity="0.3"/>
<rect x="109.8" y="338.455206609266" width="7.199999999999999" height="6.544793390734014" fill="#44aa44" opacity="0.3"/>
<rect x="121.8" y="340.48856128794034" width="7.199999999999999" height="4.5114387120596575" fill="#44aa44" opacity="0.3"/>
<rect x="133.8" y="340.5577361514075" width="7.199999999999999" height="4.442263848592518" fill="#ff4444" opacity="0.3"/>
<rect x="145.8" y="338.5563536263264" width="7.199999999999999" height="6.443646373673573" fill="#ff4444" opacity="0.3"/>
<rect x="157.8" y="337.55246377268844" width="7.199999999999999" height="7.447536227311559" fill="#ff4444" opacity="0.3"/>
<rect x="169.8" y="329.2423232437923" width="7.199999999999999" height="15.757676756207672" fill="#ff4444" opacity="0.3"/>
<rect x="181.8" y="337.9863358022635" width="7.199999999999999" height="7.013664197736489" fill="#44aa44" opacity="0.3"/>
<rect x="193.8" y="335.36649021143995" width="7.199999999999999" height="9.633509788560048" fill="#ff4444" opacity="0.3"/>
<rect x="205.8" y="336.1447672700532" width="7.199999999999999" height="8.855232729946806" fill="#44aa44" opacity="0.3"/>
<rect x="217.8" y="318.8876075162259" width="7.199999999999999" height="26.1123924837741" fill="#ff4444" opacity="0.3"/>
<rect x="229.8" y="333.2243559206907" width="7.199999999999999" height="11.775644079309302" fill="#ff4444" opacity="0.3"/>
<rect x="241.8" y="330.07701106772134" width="7.199999999999999" height="14.922988932278656" fill="#ff4444" opacity="0.3"/>
<rect x="253.8" y="328.32234516021754" width="7.199999999999999" height="16.677654839782463" fill="#44aa44" opacity="0.3"/>
<rect x="265.8" y="326.9117596075588" width="7.199999999999999" height="18.088240392441207" fill="#ff4444" opacity="0.3"/>
<rect x="277.8" y="331.371407282864" width="7.199999999999999" height="13.628592717135973" fill="#ff4444" opacity="0.3"/>
<rect x="289.8" y="326.7105551580182" width="7.199999999999999" height="18.289444841981776" fill="#ff4444" opacity="0.3"/>
<rect x="301.8" y="325.84347695611154" width="7.199999999999999" height="19.156523043888456" fill="#44aa44" opacity="0.3"/>
<rect x="313.8" y="334.6566258573829" width="7.199999999999999" height="10.343374142617108" fill="#ff4444" opacity="0.3"/>
<rect x="325.8" y="335.2704444312781" width="7.199999999999999" height="9.729555568721878" fill="#ff4444" opacity="0.3"/>
<rect x="337.8" y="331.9014351516494" width="7.199999999999999" height="13.098564848350577" fill="#ff4444" opacity="0.3"/>
<rect x="349.8" y="335.7161890807116" width="7.199999999999999" height="9.283810919288385" fill="#44aa44" opacity="0.3"/>
<rect x="361.8" y="334.6834059753626" width="7.199999999999999" height="10.316594024637425" fill="#ff4444" opacity="0.3"/>
<rect x="373.8" y="334.7498541259028" width="7.199999999999999" height="10.2501458740972" fill="#44aa44" opacity="0.3"/>
<rect x="385.8" y="336.9068133704868" width="7.199999999999999" height="8.093186629513184" fill="#44aa44" opacity="0.3"/>
<rect x="397.8" y="335.23284275735335" width="7.199999999999999" height="9.767157242646647" fill="#ff4444" opacity="0.3"/>
<rect x="409.8" y="332.9630454732805" width="7.199999999999999" height="12.036954526719512" fill="#44aa44" opacity="0.3"/>
<rect x="421.8" y="336.9836951188262" width="7.199999999999999" height="8.016304881173824" fill="#44aa44" opacity="0.3"/>
<rect x="433.8" y="338.91634026515794" width="7.199999999999999" height="6.083659734842058" fill="#44aa44" opacity="0.3"/>
<rect x="445.8" y="338.97653155879016" width="7.199999999999999" height="6.023468441209843" fill="#44aa44" opacity="0.3"/>
<rect x="457.8" y="339.3743675044056" width="7.199999999999999" height="5.625632495594402" fill="#ff4444" opacity="0.3"/>
<rect x="469.8" y="336.2198302926158" width="7.199999999999999" height="8.780169707384175" fill="#ff4444" opacity="0.3"/>
<rect x="481.8" y="335.50299644931164" width="7.199999999999999" height="9.497003550688362" fill="#ff4444" opacity="0.3"/>
<rect x="493.8" y="300.0" width="7.199999999999999" height="45.0" fill="#ff4444" opacity="0.3"/>
<rect x="505.8" y="310.99151463079136" width="7.199999999999999" height="34.00848536920864" fill="#ff4444" opacity="0.3"/>
<rect x="517.8" y="318.98738154665614" width="7.199999999999999" height="26.012618453343862" fill="#ff4444" opacity="0.3"/>
<rect x="529.8" y="326.21506381865646" width="7.199999999999999" height="18.78493618134354" fill="#44aa44" opacity="0.3"/>
<rect x="541.8" y="328.37285400905677" width="7.199999999999999" height="16.627145990943234" fill="#ff4444" opacity="0.3"/>
<rect x="553.8" y="326.6944782825065" width="7.199999999999999" height="18.30552171749349" fill="#44aa44" opacity="0.3"/>
<rect x="565.8" y="329.4378706582393" width="7.199999999999999" height="15.56212934176068" fill="#ff4444" opacity="0.3"/>
<rect x="577.8" y="326.5439367644731" width="7.199999999999999" height="18.456063235526926" fill="#ff4444" opacity="0.3"/>
<rect x="589.8" y="319.06791450392996" width="7.199999999999999" height="25.932085496070044" fill="#ff4444" opacity="0.3"/>
<rect x="601.8" y="319.0496557077815" width="7.199999999999999" height="25.950344292218517" fill="#ff4444" opacity="0.3"/>
<rect x="613.8" y="324.94298482707615" width="7.199999999999999" height="20.057015172923855" fill="#ff4444" opacity="0.3"/>
<rect x="625.8" y="327.9607021327059" width="7.199999999999999" height="17.039297867294124" fill="#ff4444" opacity="0.3"/>
<rect x="637.8" y="327.1046711077939" width="7.199999999999999" height="17.895328892206123" fill="#44aa44" opacity="0.3"/>
<rect x="649.8" y="321.72264331018" width="7.199999999999999" height="23.27735668982001" fill="#ff4444" opacity="0.3"/>
<rect x="661.8" y="323.7579707972989" width="7.199999999999999" height="21.242029202701076" fill="#ff4444" opacity="0.3"/>
<rect x="673.8" y="330.8876785043122" width="7.199999999999999" height="14.112321495687809" fill="#ff4444" opacity="0.3"/>
<rect x="685.8" y="325.2547903659445" width="7.199999999999999" height="19.745209634055527" fill="#ff4444" opacity="0.3"/>
<rect x="697.8" y="325.3723774533767" width="7.199999999999999" height="19.627622546623286" fill="#ff4444" opacity="0.3"/>
<rect x="709.8" y="320.6876810356703" width="7.199999999999999" height="24.312318964329677" fill="#ff4444" opacity="0.3"/>
<rect x="721.8" y="322.1795314382755" width="7.199999999999999" height="22.82046856172451" fill="#ff4444" opacity="0.3"/>
<rect x="733.8" y="320.55808650604524" width="7.199999999999999" height="24.441913493954758" fill="#44aa44" opacity="0.3"/>
<rect x="745.8" y="324.47949040459355" width="7.199999999999999" height="20.520509595406452" fill="#44aa44" opacity="0.3"/>
<rect x="757.8" y="326.0717696889676" width="7.199999999999999" height="18.928230311032394" fill="#ff4444" opacity="0.3"/>
<rect x="769.8" y="334.7441475642373" width="7.199999999999999" height="10.255852435762677" fill="#44aa44" opacity="0.3"/>
<polyline points="66.0,276.80 78.0,276.87 90.0,279.64 102.0,284.16 114.0,288.11 126.0,290.34 138.0,291.06 150.0,292.37 162.0,290.02 174.0,286.71 186.0,285.11 198.0,283.20 210.0,282.60 222.0,279.20 234.0,276.03 246.0,272.66 258.0,270.97 270.0,271.01 282.0,269.04 294.0,263.20 306.0,263.66 318.0,262.48 330.0,262.25 342.0,262.00 354.0,260.77 366.0,259.98 378.0,261.59 390.0,263.69 402.0,261.46 414.0,262.47 426.0,262.52 438.0,263.64 450.0,264.30 462.0,264.23 474.0,263.15 486.0,261.67 498.0,248.01 510.0,236.54 522.0,225.26 534.0,217.44 546.0,210.59 558.0,205.70 570.0,200.96 582.0,194.64 594.0,183.76 606.0,161.71 618.0,145.51 630.0,133.30 642.0,121.87 654.0,110.38 666.0,102.49 678.0,96.22 690.0,89.35 702.0,81.00 714.0,72.40 726.0,63.37 738.0,64.51 750.0,64.01 762.0,60.50 774.0,58.80" fill="none" stroke="#ffd700" stroke-width="0.8" opacity="0.7"/>
<polyline points="66.0,276.80 78.0,276.84 90.0,278.36 102.0,281.06 114.0,283.77 126.0,285.78 138.0,287.00 150.0,288.45 162.0,287.88 174.0,286.47 186.0,285.64 198.0,284.50 210.0,283.94 222.0,281.84 234.0,279.63 246.0,277.14 258.0,275.40 270.0,274.62 282.0,272.89 294.0,269.00 306.0,268.20 318.0,266.73 330.0,265.83 342.0,265.04 354.0,263.82 366.0,262.83 378.0,263.19 390.0,264.05 402.0,262.77 414.0,263.08 426.0,262.99 438.0,263.52 450.0,263.90 462.0,263.94 474.0,263.40 486.0,262.55 498.0,254.94 510.0,247.42 522.0,239.29 534.0,232.47 546.0,226.01 558.0,220.53 570.0,215.25 582.0,209.21 594.0,200.62 606.0,185.53 618.0,172.36 630.0,160.82 642.0,149.58 654.0,138.28 666.0,128.90 678.0,120.68 690.0,112.48 702.0,103.72 714.0,94.90 726.0,85.88 738.0,82.41 750.0,78.88 762.0,74.27 774.0,70.84" fill="none" stroke="#ff6b6b" stroke-width="0.8" opacity="0.7"/>
<polyline points="66.0,276.80 78.0,276.82 90.0,277.62 102.0,279.10 114.0,280.71 126.0,282.05 138.0,283.05 150.0,284.19 162.0,284.29 174.0,283.89 186.0,283.70 198.0,283.29 210.0,283.11 222.0,282.09 234.0,280.91 246.0,279.48 258.0,278.35 270.0,277.66 282.0,276.46 294.0,274.09 306.0,273.18 318.0,271.94 330.0,270.97 342.0,270.07 354.0,268.95 366.0,267.94 378.0,267.64 390.0,267.67 402.0,266.65 414.0,266.45 426.0,266.08 438.0,266.06 450.0,266.02 462.0,265.84 474.0,265.38 486.0,264.74 498.0,260.55 510.0,256.08 522.0,250.99 534.0,246.31 546.0,241.60 558.0,237.25 570.0,232.89 582.0,228.05 594.0,221.76 606.0,211.84 618.0,202.43 630.0,193.52 642.0,184.52 654.0,175.27 666.0,166.84 678.0,158.92 690.0,150.98 702.0,142.73 714.0,134.39 726.0,125.91 738.0,120.28 750.0,114.82 762.0,108.98 774.0,103.88" fill="none" stroke="#4ecdc4" stroke-width="0.8" opacity="0.7"/>
<line x1="66.0" y1="274.3" x2="66.0" y2="278.0" stroke="#44aa44" stroke-width="0.5" opacity="0.6"/>
<rect x="63.0" y="275.4" width="6.0" height="1.3999999999999773" fill="#44aa44" opacity="0.85"/>
<line x1="78.0" y1="276.79999999999995" x2="78.0" y2="280.2" stroke="#ff4444" stroke-width="0.5" opacity="0.6"/>
<rect x="75.0" y="277.0" width="6.0" height="1.2999999999999545" fill="#ff4444" opacity="0.85"/>
<line x1="90.0" y1="277.20000000000005" x2="90.0" y2="286.0" stroke="#44aa44" stroke-width="0.5" opacity="0.6"/>
<rect x="87.0" y="282.0" width="6.0" height="3.1999999999999886" fill="#44aa44" opacity="0.85"/>
<line x1="102.0" y1="283.0" x2="102.0" y2="293.2" stroke="#44aa44" stroke-width="0.5" opacity="0.6"/>
<rect x="99.0" y="286.0" width="6.0" height="7.199999999999989" fill="#44aa44" opacity="0.85"/>
<line x1="114.0" y1="291.0" x2="114.0" y2="297.5" stroke="#44aa44" stroke-width="0.5" opacity="0.6"/>
<rect x="111.0" y="294.8" width="6.0" height="1.1999999999999318" fill="#44aa44" opacity="0.85"/>
<line x1="126.0" y1="290.59999999999997" x2="126.0" y2="295.79999999999995" stroke="#44aa44" stroke-width="0.5" opacity="0.6"/>
<rect x="123.0" y="292.1" width="6.0" height="2.6999999999999886" fill="#44aa44" opacity="0.85"/>
<line x1="138.0" y1="291.7" x2="138.0" y2="296.5" stroke="#ff4444" stroke-width="0.5" opacity="0.6"/>
<rect x="135.0" y="292.5" width="6.0" height="3.900000000000034" fill="#ff4444" opacity="0.85"/>
<line x1="150.0" y1="293.4" x2="150.0" y2="300.0" stroke="#ff4444" stroke-width="0.5" opacity="0.6"/>
<rect x="147.0" y="295.0" width="6.0" height="0.7999999999999545" fill="#ff4444" opacity="0.85"/>
<line x1="162.0" y1="283.79999999999995" x2="162.0" y2="294.4" stroke="#ff4444" stroke-width="0.5" opacity="0.6"/>
<rect x="159.0" y="285.29999999999995" width="6.0" height="7.7000000000000455" fill="#ff4444" opacity="0.85"/>
<line x1="174.0" y1="272.9" x2="174.0" y2="285.2" stroke="#ff4444" stroke-width="0.5" opacity="0.6"/>
<rect x="171.0" y="280.1" width="6.0" height="3.8999999999999773" fill="#ff4444" opacity="0.85"/>
<line x1="186.0" y1="277.3" x2="186.0" y2="283.6" stroke="#44aa44" stroke-width="0.5" opacity="0.6"/>
<rect x="183.0" y="279.1" width="6.0" height="2.7999999999999545" fill="#44aa44" opacity="0.85"/>
<line x1="198.0" y1="274.1" x2="198.0" y2="283.70000000000005" stroke="#ff4444" stroke-width="0.5" opacity="0.6"/>
<rect x="195.0" y="279.4" width="6.0" height="2.5" fill="#ff4444" opacity="0.85"/>
<line x1="210.0" y1="278.0" x2="210.0" y2="283.70000000000005" stroke="#44aa44" stroke-width="0.5" opacity="0.6"/>
<rect x="207.0" y="280.9" width="6.0" height="0.5" fill="#44aa44" opacity="0.85"/>
<line x1="222.0" y1="265.79999999999995" x2="222.0" y2="281.0" stroke="#ff4444" stroke-width="0.5" opacity="0.6"/>
<rect x="219.0" y="272.4" width="6.0" height="7.400000000000034" fill="#ff4444" opacity="0.85"/>
<line x1="234.0" y1="267.2" x2="234.0" y2="275.2" stroke="#ff4444" stroke-width="0.5" opacity="0.6"/>
<rect x="231.0" y="269.7" width="6.0" height="1.9999999999999432" fill="#ff4444" opacity="0.85"/>
<line x1="246.0" y1="262.70000000000005" x2="246.0" y2="273.0" stroke="#ff4444" stroke-width="0.5" opacity="0.6"/>
<rect x="243.0" y="265.9" width="6.0" height="6.2000000000000455" fill="#ff4444" opacity="0.85"/>
<line x1="258.0" y1="260.1" x2="258.0" y2="269.9" stroke="#44aa44" stroke-width="0.5" opacity="0.6"/>
<rect x="255.0" y="265.79999999999995" width="6.0" height="1.8000000000000114" fill="#44aa44" opacity="0.85"/>
<line x1="270.0" y1="262.4" x2="270.0" y2="276.0" stroke="#ff4444" stroke-width="0.5" opacity="0.6"/>
<rect x="267.0" y="271.1" width="6.0" height="1.3999999999999773" fill="#ff4444" opacity="0.85"/>
<line x1="282.0" y1="263.70000000000005" x2="282.0" y2="273.5" stroke="#ff4444" stroke-width="0.5" opacity="0.6"/>
<rect x="279.0" y="265.1" width="6.0" height="5.199999999999932" fill="#ff4444" opacity="0.85"/>
<line x1="294.0" y1="250.29999999999998" x2="294.0" y2="265.1" stroke="#ff4444" stroke-width="0.5" opacity="0.6"/>
<rect x="291.0" y="251.49999999999997" width="6.0" height="13.600000000000051" fill="#ff4444" opacity="0.85"/>
<line x1="306.0" y1="251.49999999999997" x2="306.0" y2="265.7" stroke="#44aa44" stroke-width="0.5" opacity="0.6"/>
<rect x="303.0" y="251.49999999999997" width="6.0" height="13.100000000000051" fill="#44aa44" opacity="0.85"/>
<line x1="318.0" y1="260.1" x2="318.0" y2="269.9" stroke="#ff4444" stroke-width="0.5" opacity="0.6"/>
<rect x="315.0" y="260.1" width="6.0" height="4.899999999999977" fill="#ff4444" opacity="0.85"/>
<line x1="330.0" y1="259.8" x2="330.0" y2="268.0" stroke="#ff4444" stroke-width="0.5" opacity="0.6"/>
<rect x="327.0" y="261.8" width="6.0" height="2.1999999999999886" fill="#ff4444" opacity="0.85"/>
<line x1="342.0" y1="256.79999999999995" x2="342.0" y2="265.2" stroke="#ff4444" stroke-width="0.5" opacity="0.6"/>
<rect x="339.0" y="261.5" width="6.0" height="1.8999999999999773" fill="#ff4444" opacity="0.85"/>
<line x1="354.0" y1="255.09999999999997" x2="354.0" y2="262.5" stroke="#44aa44" stroke-width="0.5" opacity="0.6"/>
<rect x="351.0" y="258.0" width="6.0" height="0.5" fill="#44aa44" opacity="0.85"/>
<line x1="366.0" y1="254.5" x2="366.0" y2="262.79999999999995" stroke="#ff4444" stroke-width="0.5" opacity="0.6"/>
<rect x="363.0" y="258.4" width="6.0" height="1.5" fill="#ff4444" opacity="0.85"/>
<line x1="378.0" y1="257.4" x2="378.0" y2="269.0" stroke="#44aa44" stroke-width="0.5" opacity="0.6"/>
<rect x="375.0" y="257.4" width="6.0" height="7.400000000000034" fill="#44aa44" opacity="0.85"/>
<line x1="390.0" y1="259.5" x2="390.0" y2="269.5" stroke="#44aa44" stroke-width="0.5" opacity="0.6"/>
<rect x="387.0" y="266.40000000000003" width="6.0" height="1.4999999999999432" fill="#44aa44" opacity="0.85"/>
<line x1="402.0" y1="256.5" x2="402.0" y2="265.9" stroke="#ff4444" stroke-width="0.5" opacity="0.6"/>
<rect x="399.0" y="257.0" width="6.0" height="6.2000000000000455" fill="#ff4444" opacity="0.85"/>
<line x1="414.0" y1="254.39999999999998" x2="414.0" y2="267.0" stroke="#44aa44" stroke-width="0.5" opacity="0.6"/>
<rect x="411.0" y="259.4" width="6.0" height="5.100000000000023" fill="#44aa44" opacity="0.85"/>
<line x1="426.0" y1="258.5" x2="426.0" y2="263.20000000000005" stroke="#44aa44" stroke-width="0.5" opacity="0.6"/>
<rect x="423.0" y="260.0" width="6.0" height="2.599999999999966" fill="#44aa44" opacity="0.85"/>
<line x1="438.0" y1="260.5" x2="438.0" y2="266.8" stroke="#44aa44" stroke-width="0.5" opacity="0.6"/>
<rect x="435.0" y="263.0" width="6.0" height="2.8999999999999773" fill="#44aa44" opacity="0.85"/>
<line x1="450.0" y1="262.1" x2="450.0" y2="268.0" stroke="#44aa44" stroke-width="0.5" opacity="0.6"/>
<rect x="447.0" y="264.8" width="6.0" height="0.8000000000000114" fill="#44aa44" opacity="0.85"/>
<line x1="462.0" y1="262.5" x2="462.0" y2="267.7" stroke="#ff4444" stroke-width="0.5" opacity="0.6"/>
<rect x="459.0" y="264.1" width="6.0" height="0.6999999999999886" fill="#ff4444" opacity="0.85"/>
<line x1="474.0" y1="259.6" x2="474.0" y2="268.0" stroke="#ff4444" stroke-width="0.5" opacity="0.6"/>
<rect x="471.0" y="261.0" width="6.0" height="3.1999999999999886" fill="#ff4444" opacity="0.85"/>
<line x1="486.0" y1="257.1" x2="486.0" y2="265.29999999999995" stroke="#ff4444" stroke-width="0.5" opacity="0.6"/>
<rect x="483.0" y="258.70000000000005" width="6.0" height="3.2999999999999545" fill="#ff4444" opacity="0.85"/>
<line x1="498.0" y1="212.4" x2="498.0" y2="256.5" stroke="#ff4444" stroke-width="0.5" opacity="0.6"/>
<rect x="495.0" y="220.70000000000002" width="6.0" height="34.69999999999999" fill="#ff4444" opacity="0.85"/>
<line x1="510.0" y1="212.0" x2="510.0" y2="228.5" stroke="#ff4444" stroke-width="0.5" opacity="0.6"/>
<rect x="507.0" y="213.60000000000002" width="6.0" height="7.299999999999983" fill="#ff4444" opacity="0.85"/>
<line x1="522.0" y1="199.5" x2="522.0" y2="218.20000000000002" stroke="#ff4444" stroke-width="0.5" opacity="0.6"/>
<rect x="519.0" y="202.70000000000002" width="6.0" height="12.299999999999983" fill="#ff4444" opacity="0.85"/>
<line x1="534.0" y1="199.2" x2="534.0" y2="207.0" stroke="#44aa44" stroke-width="0.5" opacity="0.6"/>
<rect x="531.0" y="201.10000000000002" width="6.0" height="0.6999999999999886" fill="#44aa44" opacity="0.85"/>
<line x1="546.0" y1="193.0" x2="546.0" y2="203.79999999999998" stroke="#ff4444" stroke-width="0.5" opacity="0.6"/>
<rect x="543.0" y="196.89999999999998" width="6.0" height="5.80000000000004" fill="#ff4444" opacity="0.85"/>
<line x1="558.0" y1="190.1" x2="558.0" y2="204.0" stroke="#44aa44" stroke-width="0.5" opacity="0.6"/>
<rect x="555.0" y="191.70000000000002" width="6.0" height="4.199999999999989" fill="#44aa44" opacity="0.85"/>
<line x1="570.0" y1="181.60000000000002" x2="570.0" y2="200.90000000000003" stroke="#ff4444" stroke-width="0.5" opacity="0.6"/>
<rect x="567.0" y="191.5" width="6.0" height="4.400000000000006" fill="#ff4444" opacity="0.85"/>
<line x1="582.0" y1="179.00000000000006" x2="582.0" y2="193.1" stroke="#ff4444" stroke-width="0.5" opacity="0.6"/>
<rect x="579.0" y="182.0" width="6.0" height="8.900000000000006" fill="#ff4444" opacity="0.85"/>
<line x1="594.0" y1="153.5" x2="594.0" y2="187.2" stroke="#ff4444" stroke-width="0.5" opacity="0.6"/>
<rect x="591.0" y="162.0" width="6.0" height="21.400000000000006" fill="#ff4444" opacity="0.85"/>
<line x1="606.0" y1="108.89999999999999" x2="606.0" y2="161.09999999999997" stroke="#ff4444" stroke-width="0.5" opacity="0.6"/>
<rect x="603.0" y="117.60000000000004" width="6.0" height="43.49999999999993" fill="#ff4444" opacity="0.85"/>
<line x1="618.0" y1="109.2" x2="618.0" y2="127.90000000000006" stroke="#ff4444" stroke-width="0.5" opacity="0.6"/>
<rect x="615.0" y="113.10000000000001" width="6.0" height="4.500000000000028" fill="#ff4444" opacity="0.85"/>
<line x1="630.0" y1="96.09999999999998" x2="630.0" y2="117.00000000000001" stroke="#ff4444" stroke-width="0.5" opacity="0.6"/>
<rect x="627.0" y="108.89999999999999" width="6.0" height="5.900000000000034" fill="#ff4444" opacity="0.85"/>
<line x1="642.0" y1="89.20000000000002" x2="642.0" y2="113.40000000000003" stroke="#44aa44" stroke-width="0.5" opacity="0.6"/>
<rect x="639.0" y="94.00000000000004" width="6.0" height="5.000000000000014" fill="#44aa44" opacity="0.85"/>
<line x1="654.0" y1="83.19999999999999" x2="654.0" y2="102.00000000000001" stroke="#ff4444" stroke-width="0.5" opacity="0.6"/>
<rect x="651.0" y="87.4" width="6.0" height="7.199999999999989" fill="#ff4444" opacity="0.85"/>
<line x1="666.0" y1="85.20000000000002" x2="666.0" y2="113.89999999999999" stroke="#ff4444" stroke-width="0.5" opacity="0.6"/>
<rect x="663.0" y="86.70000000000002" width="6.0" height="0.9000000000000341" fill="#ff4444" opacity="0.85"/>
<line x1="678.0" y1="76.4" x2="678.0" y2="97.00000000000003" stroke="#ff4444" stroke-width="0.5" opacity="0.6"/>
<rect x="675.0" y="83.70000000000005" width="6.0" height="7.099999999999994" fill="#ff4444" opacity="0.85"/>
<line x1="690.0" y1="66.20000000000005" x2="690.0" y2="91.79999999999998" stroke="#ff4444" stroke-width="0.5" opacity="0.6"/>
<rect x="687.0" y="75.60000000000002" width="6.0" height="10.200000000000017" fill="#ff4444" opacity="0.85"/>
<line x1="702.0" y1="63.500000000000014" x2="702.0" y2="87.5" stroke="#ff4444" stroke-width="0.5" opacity="0.6"/>
<rect x="699.0" y="64.29999999999998" width="6.0" height="18.700000000000045" fill="#ff4444" opacity="0.85"/>
<line x1="714.0" y1="52.00000000000003" x2="714.0" y2="85.40000000000006" stroke="#ff4444" stroke-width="0.5" opacity="0.6"/>
<rect x="711.0" y="55.20000000000003" width="6.0" height="8.800000000000026" fill="#ff4444" opacity="0.85"/>
<line x1="726.0" y1="30.0" x2="726.0" y2="66.90000000000003" stroke="#ff4444" stroke-width="0.5" opacity="0.6"/>
<rect x="723.0" y="45.30000000000001" width="6.0" height="20.399999999999977" fill="#ff4444" opacity="0.85"/>
<line x1="738.0" y1="45.0" x2="738.0" y2="73.9" stroke="#44aa44" stroke-width="0.5" opacity="0.6"/>
<rect x="735.0" y="49.00000000000006" width="6.0" height="17.79999999999994" fill="#44aa44" opacity="0.85"/>
<line x1="750.0" y1="43.300000000000054" x2="750.0" y2="74.10000000000002" stroke="#44aa44" stroke-width="0.5" opacity="0.6"/>
<rect x="747.0" y="60.600000000000016" width="6.0" height="2.400000000000027" fill="#44aa44" opacity="0.85"/>
<line x1="762.0" y1="52.40000000000002" x2="762.0" y2="75.60000000000002" stroke="#ff4444" stroke-width="0.5" opacity="0.6"/>
<rect x="759.0" y="53.500000000000014" width="6.0" height="9.500000000000028" fill="#ff4444" opacity="0.85"/>
<line x1="774.0" y1="48.500000000000014" x2="774.0" y2="64.00000000000006" stroke="#44aa44" stroke-width="0.5" opacity="0.6"/>
<rect x="771.0" y="51.000000000000014" width="6.0" height="4.400000000000048" fill="#44aa44" opacity="0.85"/>
<rect x="146.0" y="296.0" width="8" height="8" fill="#4caf50" opacity="0.85" rx="1"/>
<text x="150.0" y="294.0" text-anchor="middle" font-family="sans-serif" font-size="8" fill="#4caf50">前低</text>
<rect x="170.0" y="268.9" width="8" height="8" fill="#ff9800" opacity="0.85" rx="1"/>
<text x="174.0" y="266.9" text-anchor="middle" font-family="sans-serif" font-size="8" fill="#ff9800">前高</text>
<rect x="218.0" y="261.79999999999995" width="8" height="8" fill="#ff9800" opacity="0.85" rx="1"/>
<text x="222.0" y="259.79999999999995" text-anchor="middle" font-family="sans-serif" font-size="8" fill="#ff9800">前高</text>
<rect x="218.0" y="254.19999999999993" width="8" height="8" fill="#ff9800" opacity="0.85" rx="1"/>
<text x="222.0" y="252.19999999999993" text-anchor="middle" font-family="sans-serif" font-size="8" fill="#ff9800">量</text>
<rect x="242.0" y="258.70000000000005" width="8" height="8" fill="#ff9800" opacity="0.85" rx="1"/>
<text x="246.0" y="256.70000000000005" text-anchor="middle" font-family="sans-serif" font-size="8" fill="#ff9800">前高</text>
<rect x="254.0" y="256.1" width="8" height="8" fill="#ff9800" opacity="0.85" rx="1"/>
<text x="258.0" y="254.10000000000002" text-anchor="middle" font-family="sans-serif" font-size="8" fill="#ff9800">前高</text>
<rect x="290.0" y="246.29999999999998" width="8" height="8" fill="#ff9800" opacity="0.85" rx="1"/>
<text x="294.0" y="244.29999999999998" text-anchor="middle" font-family="sans-serif" font-size="8" fill="#ff9800">前高</text>
<rect x="290.0" y="246.29999999999998" width="8" height="8" fill="#2196f3" opacity="0.85" rx="1"/>
<text x="294.0" y="244.29999999999998" text-anchor="middle" font-family="sans-serif" font-size="8" fill="#2196f3">突</text>
<rect x="494.0" y="208.4" width="8" height="8" fill="#ff9800" opacity="0.85" rx="1"/>
<text x="498.0" y="206.4" text-anchor="middle" font-family="sans-serif" font-size="8" fill="#ff9800">前高</text>
<rect x="494.0" y="186.35" width="8" height="8" fill="#ff9800" opacity="0.85" rx="1"/>
<text x="498.0" y="184.35" text-anchor="middle" font-family="sans-serif" font-size="8" fill="#ff9800">量</text>
<rect x="494.0" y="208.4" width="8" height="8" fill="#2196f3" opacity="0.85" rx="1"/>
<text x="498.0" y="206.4" text-anchor="middle" font-family="sans-serif" font-size="8" fill="#2196f3">突</text>
<rect x="506.0" y="208.0" width="8" height="8" fill="#ff9800" opacity="0.85" rx="1"/>
<text x="510.0" y="206.0" text-anchor="middle" font-family="sans-serif" font-size="8" fill="#ff9800">前高</text>
<rect x="518.0" y="195.5" width="8" height="8" fill="#ff9800" opacity="0.85" rx="1"/>
<text x="522.0" y="193.5" text-anchor="middle" font-family="sans-serif" font-size="8" fill="#ff9800">前高</text>
<rect x="518.0" y="195.5" width="8" height="8" fill="#2196f3" opacity="0.85" rx="1"/>
<text x="522.0" y="193.5" text-anchor="middle" font-family="sans-serif" font-size="8" fill="#2196f3">突</text>
<rect x="530.0" y="195.2" width="8" height="8" fill="#ff9800" opacity="0.85" rx="1"/>
<text x="534.0" y="193.2" text-anchor="middle" font-family="sans-serif" font-size="8" fill="#ff9800">前高</text>
<rect x="542.0" y="189.0" width="8" height="8" fill="#ff9800" opacity="0.85" rx="1"/>
<text x="546.0" y="187.0" text-anchor="middle" font-family="sans-serif" font-size="8" fill="#ff9800">前高</text>
<rect x="554.0" y="186.1" width="8" height="8" fill="#ff9800" opacity="0.85" rx="1"/>
<text x="558.0" y="184.1" text-anchor="middle" font-family="sans-serif" font-size="8" fill="#ff9800">前高</text>
<rect x="566.0" y="177.60000000000002" width="8" height="8" fill="#ff9800" opacity="0.85" rx="1"/>
<text x="570.0" y="175.60000000000002" text-anchor="middle" font-family="sans-serif" font-size="8" fill="#ff9800">前高</text>
<rect x="578.0" y="175.00000000000006" width="8" height="8" fill="#ff9800" opacity="0.85" rx="1"/>
<text x="582.0" y="173.00000000000006" text-anchor="middle" font-family="sans-serif" font-size="8" fill="#ff9800">前高</text>
<rect x="590.0" y="149.5" width="8" height="8" fill="#ff9800" opacity="0.85" rx="1"/>
<text x="594.0" y="147.5" text-anchor="middle" font-family="sans-serif" font-size="8" fill="#ff9800">前高</text>
<rect x="590.0" y="149.5" width="8" height="8" fill="#2196f3" opacity="0.85" rx="1"/>
<text x="594.0" y="147.5" text-anchor="middle" font-family="sans-serif" font-size="8" fill="#2196f3">突</text>
<rect x="602.0" y="104.89999999999999" width="8" height="8" fill="#ff9800" opacity="0.85" rx="1"/>
<text x="606.0" y="102.89999999999999" text-anchor="middle" font-family="sans-serif" font-size="8" fill="#ff9800">前高</text>
<rect x="602.0" y="104.89999999999999" width="8" height="8" fill="#2196f3" opacity="0.85" rx="1"/>
<text x="606.0" y="102.89999999999999" text-anchor="middle" font-family="sans-serif" font-size="8" fill="#2196f3">突</text>
<rect x="626.0" y="92.09999999999998" width="8" height="8" fill="#ff9800" opacity="0.85" rx="1"/>
<text x="630.0" y="90.09999999999998" text-anchor="middle" font-family="sans-serif" font-size="8" fill="#ff9800">前高</text>
<rect x="638.0" y="85.20000000000002" width="8" height="8" fill="#ff9800" opacity="0.85" rx="1"/>
<text x="642.0" y="83.20000000000002" text-anchor="middle" font-family="sans-serif" font-size="8" fill="#ff9800">前高</text>
<rect x="650.0" y="79.19999999999999" width="8" height="8" fill="#ff9800" opacity="0.85" rx="1"/>
<text x="654.0" y="77.19999999999999" text-anchor="middle" font-family="sans-serif" font-size="8" fill="#ff9800">前高</text>
<rect x="650.0" y="79.19999999999999" width="8" height="8" fill="#2196f3" opacity="0.85" rx="1"/>
<text x="654.0" y="77.19999999999999" text-anchor="middle" font-family="sans-serif" font-size="8" fill="#2196f3">突</text>
<rect x="674.0" y="72.4" width="8" height="8" fill="#ff9800" opacity="0.85" rx="1"/>
<text x="678.0" y="70.4" text-anchor="middle" font-family="sans-serif" font-size="8" fill="#ff9800">前高</text>
<rect x="686.0" y="62.200000000000045" width="8" height="8" fill="#ff9800" opacity="0.85" rx="1"/>
<text x="690.0" y="60.200000000000045" text-anchor="middle" font-family="sans-serif" font-size="8" fill="#ff9800">前高</text>
<rect x="698.0" y="59.500000000000014" width="8" height="8" fill="#ff9800" opacity="0.85" rx="1"/>
<text x="702.0" y="57.500000000000014" text-anchor="middle" font-family="sans-serif" font-size="8" fill="#ff9800">前高</text>
<rect x="698.0" y="59.500000000000014" width="8" height="8" fill="#2196f3" opacity="0.85" rx="1"/>
<text x="702.0" y="57.500000000000014" text-anchor="middle" font-family="sans-serif" font-size="8" fill="#2196f3">突</text>
<rect x="710.0" y="48.00000000000003" width="8" height="8" fill="#ff9800" opacity="0.85" rx="1"/>
<text x="714.0" y="46.00000000000003" text-anchor="middle" font-family="sans-serif" font-size="8" fill="#ff9800">前高</text>
<rect x="710.0" y="48.00000000000003" width="8" height="8" fill="#2196f3" opacity="0.85" rx="1"/>
<text x="714.0" y="46.00000000000003" text-anchor="middle" font-family="sans-serif" font-size="8" fill="#2196f3">突</text>
<rect x="722.0" y="26.0" width="8" height="8" fill="#ff9800" opacity="0.85" rx="1"/>
<text x="726.0" y="24.0" text-anchor="middle" font-family="sans-serif" font-size="8" fill="#ff9800">前高</text>
<text x="66.0" y="359" text-anchor="middle" font-family="sans-serif" font-size="8" fill="#666666" transform="rotate(-40,66.0,359)">02/26</text>
<text x="138.0" y="359" text-anchor="middle" font-family="sans-serif" font-size="8" fill="#666666" transform="rotate(-40,138.0,359)">03/06</text>
<text x="210.0" y="359" text-anchor="middle" font-family="sans-serif" font-size="8" fill="#666666" transform="rotate(-40,210.0,359)">03/16</text>
<text x="282.0" y="359" text-anchor="middle" font-family="sans-serif" font-size="8" fill="#666666" transform="rotate(-40,282.0,359)">03/24</text>
<text x="354.0" y="359" text-anchor="middle" font-family="sans-serif" font-size="8" fill="#666666" transform="rotate(-40,354.0,359)">04/01</text>
<text x="426.0" y="359" text-anchor="middle" font-family="sans-serif" font-size="8" fill="#666666" transform="rotate(-40,426.0,359)">04/10</text>
<text x="498.0" y="359" text-anchor="middle" font-family="sans-serif" font-size="8" fill="#666666" transform="rotate(-40,498.0,359)">04/20</text>
<text x="570.0" y="359" text-anchor="middle" font-family="sans-serif" font-size="8" fill="#666666" transform="rotate(-40,570.0,359)">04/28</text>
<text x="642.0" y="359" text-anchor="middle" font-family="sans-serif" font-size="8" fill="#666666" transform="rotate(-40,642.0,359)">05/11</text>
<text x="714.0" y="359" text-anchor="middle" font-family="sans-serif" font-size="8" fill="#666666" transform="rotate(-40,714.0,359)">05/19</text>
<text x="774.0" y="359" text-anchor="middle" font-family="sans-serif" font-size="8" fill="#666666" transform="rotate(-40,774.0,359)">05/26</text>
<text x="400.0" y="396" text-anchor="middle" font-family="sans-serif" font-size="9" fill="#555555">数据截至: 2026-05-27 20:02  |  最新K线: 20260526</text>
<rect x="50" y="373" width="8" height="8" fill="#ffd700" opacity="0.8" rx="1"/>
<text x="61" y="380" font-family="sans-serif" font-size="9" fill="#888888">EMA5</text>
<rect x="150" y="373" width="8" height="8" fill="#ff6b6b" opacity="0.8" rx="1"/>
<text x="161" y="380" font-family="sans-serif" font-size="9" fill="#888888">EMA10</text>
<rect x="250" y="373" width="8" height="8" fill="#4ecdc4" opacity="0.8" rx="1"/>
<text x="261" y="380" font-family="sans-serif" font-size="9" fill="#888888">EMA20</text>
<rect x="350" y="373" width="8" height="8" fill="#2196f3" opacity="0.8" rx="1"/>
<text x="361" y="380" font-family="sans-serif" font-size="9" fill="#888888">突破</text>
<rect x="450" y="373" width="8" height="8" fill="#ff9800" opacity="0.8" rx="1"/>
<text x="461" y="380" font-family="sans-serif" font-size="9" fill="#888888">前高/量</text>
<rect x="550" y="373" width="8" height="8" fill="#4caf50" opacity="0.8" rx="1"/>
<text x="561" y="380" font-family="sans-serif" font-size="9" fill="#888888">前低</text>
</svg>