<svg xmlns="http://www.w3.org/2000/svg" width="800" height="400" viewBox="0 0 800 400">
<rect width="800" height="400" fill="#1a1a2e"/>
<text x="400.0" y="20" text-anchor="middle" font-family="sans-serif" font-size="14" fill="#ffffff" font-weight="bold">国际复材(301526) K线图</text>
<line x1="60" y1="30.0" x2="780" y2="30.0" stroke="#2a2a4e" stroke-width="0.5"/>
<text x="55" y="33.0" text-anchor="end" font-family="sans-serif" font-size="8" fill="#666666">23.07</text>
<line x1="60" y1="84.00000000000003" x2="780" y2="84.00000000000003" stroke="#2a2a4e" stroke-width="0.5"/>
<text x="55" y="87.00000000000003" text-anchor="end" font-family="sans-serif" font-size="8" fill="#666666">20.49</text>
<line x1="60" y1="138.00000000000006" x2="780" y2="138.00000000000006" stroke="#2a2a4e" stroke-width="0.5"/>
<text x="55" y="141.00000000000006" text-anchor="end" font-family="sans-serif" font-size="8" fill="#666666">17.91</text>
<line x1="60" y1="192.0" x2="780" y2="192.0" stroke="#2a2a4e" stroke-width="0.5"/>
<text x="55" y="195.0" text-anchor="end" font-family="sans-serif" font-size="8" fill="#666666">15.32</text>
<line x1="60" y1="245.99999999999997" x2="780" y2="245.99999999999997" stroke="#2a2a4e" stroke-width="0.5"/>
<text x="55" y="248.99999999999997" text-anchor="end" font-family="sans-serif" font-size="8" fill="#666666">12.74</text>
<line x1="60" y1="300.0" x2="780" y2="300.0" stroke="#2a2a4e" stroke-width="0.5"/>
<text x="55" y="303.0" text-anchor="end" font-family="sans-serif" font-size="8" fill="#666666">10.16</text>
<line x1="60" y1="300" x2="780" y2="300" stroke="#2a2a4e" stroke-width="0.5"/>
<line x1="60" y1="345" x2="780" y2="345" stroke="#2a2a4e" stroke-width="0.5"/>
<rect x="61.8" y="307.95342473856306" width="7.199999999999999" height="37.04657526143694" fill="#ff4444" opacity="0.3"/>
<rect x="73.8" y="302.15301890703927" width="7.199999999999999" height="42.84698109296073" fill="#44aa44" opacity="0.3"/>
<rect x="85.8" y="316.0202159159385" width="7.199999999999999" height="28.97978408406152" fill="#44aa44" opacity="0.3"/>
<rect x="97.8" y="317.73403826019097" width="7.199999999999999" height="27.26596173980903" fill="#44aa44" opacity="0.3"/>
<rect x="109.8" y="324.95782746656545" width="7.199999999999999" height="20.042172533434552" fill="#ff4444" opacity="0.3"/>
<rect x="121.8" y="321.54571379294583" width="7.199999999999999" height="23.454286207054167" fill="#44aa44" opacity="0.3"/>
<rect x="133.8" y="325.4177439813264" width="7.199999999999999" height="19.582256018673604" fill="#44aa44" opacity="0.3"/>
<rect x="145.8" y="325.09013886025144" width="7.199999999999999" height="19.909861139748557" fill="#ff4444" opacity="0.3"/>
<rect x="157.8" y="307.11309435213775" width="7.199999999999999" height="37.88690564786225" fill="#ff4444" opacity="0.3"/>
<rect x="169.8" y="319.5557995568483" width="7.199999999999999" height="25.444200443151715" fill="#44aa44" opacity="0.3"/>
<rect x="181.8" y="323.39615721936997" width="7.199999999999999" height="21.603842780630032" fill="#44aa44" opacity="0.3"/>
<rect x="193.8" y="323.2668058787501" width="7.199999999999999" height="21.73319412124988" fill="#44aa44" opacity="0.3"/>
<rect x="205.8" y="327.65995110922853" width="7.199999999999999" height="17.34004889077147" fill="#44aa44" opacity="0.3"/>
<rect x="217.8" y="329.02242232778866" width="7.199999999999999" height="15.97757767221134" fill="#44aa44" opacity="0.3"/>
<rect x="229.8" y="333.1409173097265" width="7.199999999999999" height="11.85908269027351" fill="#ff4444" opacity="0.3"/>
<rect x="241.8" y="334.4643072702412" width="7.199999999999999" height="10.535692729758807" fill="#44aa44" opacity="0.3"/>
<rect x="253.8" y="334.1797379284816" width="7.199999999999999" height="10.820262071518414" fill="#44aa44" opacity="0.3"/>
<rect x="265.8" y="332.3420830387538" width="7.199999999999999" height="12.657916961246201" fill="#44aa44" opacity="0.3"/>
<rect x="277.8" y="333.98493430388424" width="7.199999999999999" height="11.015065696115755" fill="#ff4444" opacity="0.3"/>
<rect x="289.8" y="325.7496351596825" width="7.199999999999999" height="19.250364840317502" fill="#44aa44" opacity="0.3"/>
<rect x="301.8" y="335.06363153152046" width="7.199999999999999" height="9.936368468479543" fill="#44aa44" opacity="0.3"/>
<rect x="313.8" y="336.1980051354383" width="7.199999999999999" height="8.80199486456172" fill="#ff4444" opacity="0.3"/>
<rect x="325.8" y="320.3763117524701" width="7.199999999999999" height="24.623688247529913" fill="#ff4444" opacity="0.3"/>
<rect x="337.8" y="330.9369556782761" width="7.199999999999999" height="14.063044321723908" fill="#44aa44" opacity="0.3"/>
<rect x="349.8" y="315.5906643803303" width="7.199999999999999" height="29.40933561966972" fill="#44aa44" opacity="0.3"/>
<rect x="361.8" y="329.08412130530854" width="7.199999999999999" height="15.915878694691457" fill="#44aa44" opacity="0.3"/>
<rect x="373.8" y="331.00110880532424" width="7.199999999999999" height="13.998891194675764" fill="#44aa44" opacity="0.3"/>
<rect x="385.8" y="326.5576945495076" width="7.199999999999999" height="18.442305450492427" fill="#ff4444" opacity="0.3"/>
<rect x="397.8" y="323.0610621251036" width="7.199999999999999" height="21.938937874896396" fill="#ff4444" opacity="0.3"/>
<rect x="409.8" y="320.96028635787127" width="7.199999999999999" height="24.03971364212873" fill="#ff4444" opacity="0.3"/>
<rect x="421.8" y="310.10493991795" width="7.199999999999999" height="34.89506008205001" fill="#44aa44" opacity="0.3"/>
<rect x="433.8" y="300.0" width="7.199999999999999" height="45.0" fill="#ff4444" opacity="0.3"/>
<rect x="445.8" y="303.68762890814287" width="7.199999999999999" height="41.31237109185713" fill="#ff4444" opacity="0.3"/>
<rect x="457.8" y="316.51385821458763" width="7.199999999999999" height="28.48614178541237" fill="#44aa44" opacity="0.3"/>
<rect x="469.8" y="319.7745793456051" width="7.199999999999999" height="25.225420654394895" fill="#44aa44" opacity="0.3"/>
<rect x="481.8" y="319.7359488982303" width="7.199999999999999" height="25.264051101769724" fill="#ff4444" opacity="0.3"/>
<rect x="493.8" y="326.0327402057404" width="7.199999999999999" height="18.967259794259576" fill="#44aa44" opacity="0.3"/>
<rect x="505.8" y="322.9108989644542" width="7.199999999999999" height="22.08910103554581" fill="#ff4444" opacity="0.3"/>
<rect x="517.8" y="325.12885991721515" width="7.199999999999999" height="19.871140082784848" fill="#ff4444" opacity="0.3"/>
<rect x="529.8" y="304.0038316234699" width="7.199999999999999" height="40.99616837653008" fill="#ff4444" opacity="0.3"/>
<rect x="541.8" y="317.81433359736064" width="7.199999999999999" height="27.185666402639356" fill="#ff4444" opacity="0.3"/>
<rect x="553.8" y="315.25732610531486" width="7.199999999999999" height="29.74267389468514" fill="#ff4444" opacity="0.3"/>
<rect x="565.8" y="305.77720600137263" width="7.199999999999999" height="39.22279399862737" fill="#ff4444" opacity="0.3"/>
<rect x="577.8" y="307.45222912390807" width="7.199999999999999" height="37.54777087609193" fill="#ff4444" opacity="0.3"/>
<rect x="589.8" y="313.9335049102753" width="7.199999999999999" height="31.066495089724697" fill="#44aa44" opacity="0.3"/>
<rect x="601.8" y="308.71306952337034" width="7.199999999999999" height="36.286930476629664" fill="#ff4444" opacity="0.3"/>
<rect x="613.8" y="318.2104376100094" width="7.199999999999999" height="26.78956238999058" fill="#ff4444" opacity="0.3"/>
<rect x="625.8" y="322.1777472768307" width="7.199999999999999" height="22.8222527231693" fill="#44aa44" opacity="0.3"/>
<rect x="637.8" y="320.77425941855915" width="7.199999999999999" height="24.225740581440846" fill="#44aa44" opacity="0.3"/>
<rect x="649.8" y="318.0345253855441" width="7.199999999999999" height="26.9654746144559" fill="#44aa44" opacity="0.3"/>
<rect x="661.8" y="305.7128859177672" width="7.199999999999999" height="39.28711408223279" fill="#ff4444" opacity="0.3"/>
<rect x="673.8" y="319.0342144075933" width="7.199999999999999" height="25.96578559240669" fill="#44aa44" opacity="0.3"/>
<rect x="685.8" y="314.4189102659434" width="7.199999999999999" height="30.581089734056604" fill="#44aa44" opacity="0.3"/>
<rect x="697.8" y="323.7388928833203" width="7.199999999999999" height="21.261107116679682" fill="#ff4444" opacity="0.3"/>
<rect x="709.8" y="327.1954814626267" width="7.199999999999999" height="17.804518537373326" fill="#ff4444" opacity="0.3"/>
<rect x="721.8" y="325.6250131362153" width="7.199999999999999" height="19.374986863784727" fill="#ff4444" opacity="0.3"/>
<rect x="733.8" y="318.80233482142285" width="7.199999999999999" height="26.197665178577154" fill="#44aa44" opacity="0.3"/>
<rect x="745.8" y="305.08402908301815" width="7.199999999999999" height="39.91597091698185" fill="#ff4444" opacity="0.3"/>
<rect x="757.8" y="314.8299153610734" width="7.199999999999999" height="30.170084638926596" fill="#ff4444" opacity="0.3"/>
<rect x="769.8" y="310.78962260683636" width="7.199999999999999" height="34.21037739316364" fill="#ff4444" opacity="0.3"/>
<polyline points="66.0,186.23 78.0,196.75 90.0,205.24 102.0,218.35 114.0,225.28 126.0,230.67 138.0,237.19 150.0,241.74 162.0,241.43 174.0,243.94 186.0,248.27 198.0,252.27 210.0,254.37 222.0,261.22 234.0,262.71 246.0,267.26 258.0,272.67 270.0,281.15 282.0,282.97 294.0,281.96 306.0,282.53 318.0,282.50 330.0,277.74 342.0,277.35 354.0,273.26 366.0,274.02 378.0,276.40 390.0,275.28 402.0,268.60 414.0,262.61 426.0,256.81 438.0,238.65 450.0,226.34 462.0,222.31 474.0,218.79 486.0,219.09 498.0,220.19 510.0,219.82 522.0,219.84 534.0,212.89 546.0,210.00 558.0,203.26 570.0,195.35 582.0,182.27 594.0,180.24 606.0,158.75 618.0,142.81 630.0,136.37 642.0,133.40 654.0,136.02 666.0,119.85 678.0,117.58 690.0,118.78 702.0,119.65 714.0,120.23 726.0,120.06 738.0,126.71 750.0,112.46 762.0,95.50 774.0,75.55" fill="none" stroke="#ffd700" stroke-width="0.8" opacity="0.7"/>
<polyline points="66.0,186.23 78.0,191.97 90.0,197.47 102.0,206.03 114.0,212.05 126.0,217.39 138.0,223.36 150.0,228.36 162.0,230.63 174.0,233.96 186.0,238.13 198.0,242.16 210.0,245.15 222.0,250.56 234.0,253.31 246.0,257.50 258.0,262.22 270.0,268.75 282.0,272.00 294.0,273.44 306.0,275.30 318.0,276.60 330.0,275.07 342.0,275.35 354.0,273.48 366.0,273.85 378.0,275.18 390.0,274.79 402.0,271.24 414.0,267.49 426.0,263.44 438.0,252.33 450.0,243.12 462.0,237.88 474.0,233.12 486.0,230.68 498.0,229.18 510.0,227.34 522.0,225.99 534.0,221.08 546.0,218.01 558.0,212.88 570.0,206.82 582.0,197.60 594.0,193.70 606.0,179.53 618.0,167.06 630.0,159.14 642.0,153.38 654.0,151.17 666.0,139.60 678.0,134.77 690.0,132.30 702.0,130.32 714.0,128.69 726.0,127.06 738.0,129.42 750.0,121.15 762.0,110.32 774.0,96.74" fill="none" stroke="#ff6b6b" stroke-width="0.8" opacity="0.7"/>
<polyline points="66.0,186.23 78.0,189.24 90.0,192.37 102.0,197.35 114.0,201.33 126.0,205.15 138.0,209.44 150.0,213.38 162.0,216.00 174.0,219.14 186.0,222.74 198.0,226.31 210.0,229.38 222.0,233.72 234.0,236.76 246.0,240.54 258.0,244.63 270.0,249.72 282.0,253.23 294.0,255.78 306.0,258.43 318.0,260.72 330.0,261.43 342.0,262.88 354.0,263.08 366.0,264.27 378.0,265.88 390.0,266.56 402.0,265.48 414.0,264.07 426.0,262.27 438.0,256.56 450.0,251.34 462.0,247.81 474.0,244.37 486.0,242.02 498.0,240.15 510.0,238.15 522.0,236.41 534.0,232.84 546.0,230.12 558.0,226.28 570.0,221.82 582.0,215.57 594.0,211.82 606.0,202.67 618.0,193.93 630.0,187.22 642.0,181.53 654.0,177.69 666.0,169.11 678.0,163.77 690.0,159.71 702.0,156.06 714.0,152.76 726.0,149.61 738.0,148.70 750.0,142.53 762.0,134.82 774.0,125.38" fill="none" stroke="#4ecdc4" stroke-width="0.8" opacity="0.7"/>
<line x1="66.0" y1="185.18202943454685" x2="66.0" y2="209.02401239349342" stroke="#ff4444" stroke-width="0.5" opacity="0.6"/>
<rect x="63.0" y="186.2277304415182" width="6.0" height="9.202168861347815" fill="#ff4444" opacity="0.85"/>
<line x1="78.0" y1="201.91324554608832" x2="78.0" y2="225.75522850503486" stroke="#44aa44" stroke-width="0.5" opacity="0.6"/>
<rect x="75.0" y="207.141750580945" width="6.0" height="10.666150271107682" fill="#44aa44" opacity="0.85"/>
<line x1="90.0" y1="208.18745158791634" x2="90.0" y2="223.45468628969792" stroke="#44aa44" stroke-width="0.5" opacity="0.6"/>
<rect x="87.0" y="219.4810224632068" width="6.0" height="2.718822618125472" fill="#44aa44" opacity="0.85"/>
<line x1="102.0" y1="212.78853601859024" x2="102.0" y2="247.2966692486445" stroke="#44aa44" stroke-width="0.5" opacity="0.6"/>
<rect x="99.0" y="216.55305964368705" width="6.0" height="28.02478698683194" fill="#44aa44" opacity="0.85"/>
<line x1="114.0" y1="233.9116963594113" x2="114.0" y2="248.96979085979862" stroke="#ff4444" stroke-width="0.5" opacity="0.6"/>
<rect x="111.0" y="239.14020139426802" width="6.0" height="9.202168861347758" fill="#ff4444" opacity="0.85"/>
<line x1="126.0" y1="230.56545313710302" x2="126.0" y2="244.577846630519" stroke="#44aa44" stroke-width="0.5" opacity="0.6"/>
<rect x="123.0" y="232.23857474825718" width="6.0" height="9.202168861347786" fill="#44aa44" opacity="0.85"/>
<line x1="138.0" y1="240.81332300542218" x2="138.0" y2="252.3160340821069" stroke="#44aa44" stroke-width="0.5" opacity="0.6"/>
<rect x="135.0" y="243.3230054221534" width="6.0" height="6.901626646010868" fill="#44aa44" opacity="0.85"/>
<line x1="150.0" y1="248.96979085979862" x2="150.0" y2="263.6096049573973" stroke="#ff4444" stroke-width="0.5" opacity="0.6"/>
<rect x="147.0" y="250.85205267234704" width="6.0" height="5.855925639039469" fill="#ff4444" opacity="0.85"/>
<line x1="162.0" y1="234.12083656080557" x2="162.0" y2="247.92408985282728" stroke="#ff4444" stroke-width="0.5" opacity="0.6"/>
<rect x="159.0" y="240.81332300542218" width="6.0" height="6.065065840433789" fill="#ff4444" opacity="0.85"/>
<line x1="174.0" y1="232.23857474825718" x2="174.0" y2="250.0154918667699" stroke="#44aa44" stroke-width="0.5" opacity="0.6"/>
<rect x="171.0" y="236.42137877614255" width="6.0" height="12.548412083656075" fill="#44aa44" opacity="0.85"/>
<line x1="186.0" y1="241.02246320681644" x2="186.0" y2="259.84508133230054" stroke="#44aa44" stroke-width="0.5" opacity="0.6"/>
<rect x="183.0" y="252.73431448489544" width="6.0" height="4.182804027885368" fill="#44aa44" opacity="0.85"/>
<line x1="198.0" y1="254.19829589465533" x2="198.0" y2="266.7467079783114" stroke="#44aa44" stroke-width="0.5" opacity="0.6"/>
<rect x="195.0" y="258.79938032532914" width="6.0" height="1.4639814097599242" fill="#44aa44" opacity="0.85"/>
<line x1="210.0" y1="256.289697908598" x2="210.0" y2="270.9295120061967" stroke="#44aa44" stroke-width="0.5" opacity="0.6"/>
<rect x="207.0" y="256.7079783113865" width="6.0" height="1.8822618125483928" fill="#44aa44" opacity="0.85"/>
<line x1="222.0" y1="258.38109992254067" x2="222.0" y2="275.7397366382649" stroke="#44aa44" stroke-width="0.5" opacity="0.6"/>
<rect x="219.0" y="260.26336173508906" width="6.0" height="14.639814097598787" fill="#44aa44" opacity="0.85"/>
<line x1="234.0" y1="264.6553059643687" x2="234.0" y2="274.275755228505" stroke="#ff4444" stroke-width="0.5" opacity="0.6"/>
<rect x="231.0" y="265.70100697134" width="6.0" height="4.810224632068184" fill="#ff4444" opacity="0.85"/>
<line x1="246.0" y1="268.2106893880713" x2="246.0" y2="277.8311386522076" stroke="#44aa44" stroke-width="0.5" opacity="0.6"/>
<rect x="243.0" y="271.5569326103796" width="6.0" height="4.8102246320681274" fill="#44aa44" opacity="0.85"/>
<line x1="258.0" y1="270.9295120061967" x2="258.0" y2="284.9419054996127" stroke="#44aa44" stroke-width="0.5" opacity="0.6"/>
<rect x="255.0" y="272.18435321456235" width="6.0" height="11.293570875290527" fill="#44aa44" opacity="0.85"/>
<line x1="270.0" y1="287.03330751355537" x2="270.0" y2="300.0" stroke="#44aa44" stroke-width="0.5" opacity="0.6"/>
<rect x="267.0" y="290.5886909372579" width="6.0" height="7.529047250193685" fill="#44aa44" opacity="0.85"/>
<line x1="282.0" y1="286.40588690937255" x2="282.0" y2="298.1177381874516" stroke="#ff4444" stroke-width="0.5" opacity="0.6"/>
<rect x="279.0" y="286.61502711076685" width="6.0" height="5.437645236251001" fill="#ff4444" opacity="0.85"/>
<line x1="294.0" y1="263.8187451587916" x2="294.0" y2="282.6413632842757" stroke="#44aa44" stroke-width="0.5" opacity="0.6"/>
<rect x="291.0" y="273.2300542215337" width="6.0" height="6.692486444616577" fill="#44aa44" opacity="0.85"/>
<line x1="306.0" y1="275.7397366382649" x2="306.0" y2="285.5693261037955" stroke="#44aa44" stroke-width="0.5" opacity="0.6"/>
<rect x="303.0" y="280.9682416731216" width="6.0" height="2.7188226181255004" fill="#44aa44" opacity="0.85"/>
<line x1="318.0" y1="278.6676994577847" x2="318.0" y2="290.7978311386522" stroke="#ff4444" stroke-width="0.5" opacity="0.6"/>
<rect x="315.0" y="282.4322230828815" width="6.0" height="5.437645236250944" fill="#ff4444" opacity="0.85"/>
<line x1="330.0" y1="262.56390395042604" x2="330.0" y2="286.61502711076685" stroke="#ff4444" stroke-width="0.5" opacity="0.6"/>
<rect x="327.0" y="268.2106893880713" width="6.0" height="18.404337722695573" fill="#ff4444" opacity="0.85"/>
<line x1="342.0" y1="268.4198295894655" x2="342.0" y2="277.8311386522076" stroke="#44aa44" stroke-width="0.5" opacity="0.6"/>
<rect x="339.0" y="271.138652207591" width="6.0" height="5.437645236251001" fill="#44aa44" opacity="0.85"/>
<line x1="354.0" y1="244.78698683191325" x2="354.0" y2="268.2106893880713" stroke="#44aa44" stroke-width="0.5" opacity="0.6"/>
<rect x="351.0" y="253.5708752904725" width="6.0" height="11.502711076684704" fill="#44aa44" opacity="0.85"/>
<line x1="366.0" y1="267.1649883810999" x2="366.0" y2="277.6219984508133" stroke="#44aa44" stroke-width="0.5" opacity="0.6"/>
<rect x="363.0" y="270.09295120061967" width="6.0" height="5.437645236250944" fill="#44aa44" opacity="0.85"/>
<line x1="378.0" y1="269.25639039504256" x2="378.0" y2="282.4322230828815" stroke="#44aa44" stroke-width="0.5" opacity="0.6"/>
<rect x="375.0" y="274.06661502711074" width="6.0" height="7.1107668474051025" fill="#44aa44" opacity="0.85"/>
<line x1="390.0" y1="263.4004647560031" x2="390.0" y2="276.78543764523624" stroke="#ff4444" stroke-width="0.5" opacity="0.6"/>
<rect x="387.0" y="273.02091402013946" width="6.0" height="3.5553834237025512" fill="#ff4444" opacity="0.85"/>
<line x1="402.0" y1="255.03485670023235" x2="402.0" y2="266.3284275755228" stroke="#ff4444" stroke-width="0.5" opacity="0.6"/>
<rect x="399.0" y="255.24399690162662" width="6.0" height="2.718822618125472" fill="#ff4444" opacity="0.85"/>
<line x1="414.0" y1="245.2052672347018" x2="414.0" y2="261.72734314484893" stroke="#ff4444" stroke-width="0.5" opacity="0.6"/>
<rect x="411.0" y="250.64291247095278" width="6.0" height="8.993028659953524" fill="#ff4444" opacity="0.85"/>
<line x1="426.0" y1="225.12780790085205" x2="426.0" y2="245.2052672347018" stroke="#44aa44" stroke-width="0.5" opacity="0.6"/>
<rect x="423.0" y="243.7412858249419" width="6.0" height="1.4639814097598958" fill="#44aa44" opacity="0.85"/>
<line x1="438.0" y1="195.63903950426027" x2="438.0" y2="247.50580945003875" stroke="#ff4444" stroke-width="0.5" opacity="0.6"/>
<rect x="435.0" y="202.33152594887684" width="6.0" height="45.17428350116191" fill="#ff4444" opacity="0.85"/>
<line x1="450.0" y1="192.9202168861348" x2="450.0" y2="217.59876065065842" stroke="#ff4444" stroke-width="0.5" opacity="0.6"/>
<rect x="447.0" y="201.70410534469406" width="6.0" height="15.894655305964363" fill="#ff4444" opacity="0.85"/>
<line x1="462.0" y1="192.9202168861348" x2="462.0" y2="215.50735863671574" stroke="#44aa44" stroke-width="0.5" opacity="0.6"/>
<rect x="459.0" y="206.51432997676218" width="6.0" height="7.738187451587947" fill="#44aa44" opacity="0.85"/>
<line x1="474.0" y1="207.56003098373355" x2="474.0" y2="222.82726568551513" stroke="#44aa44" stroke-width="0.5" opacity="0.6"/>
<rect x="471.0" y="211.32455460883037" width="6.0" height="0.5" fill="#44aa44" opacity="0.85"/>
<line x1="486.0" y1="208.18745158791634" x2="486.0" y2="221.78156467854376" stroke="#ff4444" stroke-width="0.5" opacity="0.6"/>
<rect x="483.0" y="219.6901626646011" width="6.0" height="0.5" fill="#ff4444" opacity="0.85"/>
<line x1="498.0" y1="213.62509682416734" x2="498.0" y2="226.38264910921768" stroke="#44aa44" stroke-width="0.5" opacity="0.6"/>
<rect x="495.0" y="221.15414407436097" width="6.0" height="1.2548412083656046" fill="#44aa44" opacity="0.85"/>
<line x1="510.0" y1="216.55305964368705" x2="510.0" y2="226.8009295120062" stroke="#ff4444" stroke-width="0.5" opacity="0.6"/>
<rect x="507.0" y="219.0627420604183" width="6.0" height="3.1371030209139974" fill="#ff4444" opacity="0.85"/>
<line x1="522.0" y1="214.4616576297444" x2="522.0" y2="229.5197521301317" stroke="#ff4444" stroke-width="0.5" opacity="0.6"/>
<rect x="519.0" y="219.89930286599537" width="6.0" height="3.137103020914026" fill="#ff4444" opacity="0.85"/>
<line x1="534.0" y1="188.7374128582494" x2="534.0" y2="208.39659178931063" stroke="#ff4444" stroke-width="0.5" opacity="0.6"/>
<rect x="531.0" y="198.98528272656856" width="6.0" height="1.67312161115413" fill="#ff4444" opacity="0.85"/>
<line x1="546.0" y1="192.50193648334624" x2="546.0" y2="215.50735863671574" stroke="#ff4444" stroke-width="0.5" opacity="0.6"/>
<rect x="543.0" y="204.21378776142524" width="6.0" height="3.137103020914026" fill="#ff4444" opacity="0.85"/>
<line x1="558.0" y1="178.280402788536" x2="558.0" y2="204.84120836560805" stroke="#ff4444" stroke-width="0.5" opacity="0.6"/>
<rect x="555.0" y="189.78311386522077" width="6.0" height="14.848954298993021" fill="#ff4444" opacity="0.85"/>
<line x1="570.0" y1="161.13090627420604" x2="570.0" y2="208.39659178931063" stroke="#ff4444" stroke-width="0.5" opacity="0.6"/>
<rect x="567.0" y="179.5352439969016" width="6.0" height="19.24089852827268" fill="#ff4444" opacity="0.85"/>
<line x1="582.0" y1="149.20991479473275" x2="582.0" y2="192.50193648334624" stroke="#ff4444" stroke-width="0.5" opacity="0.6"/>
<rect x="579.0" y="156.11154144074362" width="6.0" height="30.11618900077457" fill="#ff4444" opacity="0.85"/>
<line x1="594.0" y1="154.856700232378" x2="594.0" y2="183.71804802478698" stroke="#44aa44" stroke-width="0.5" opacity="0.6"/>
<rect x="591.0" y="161.13090627420604" width="6.0" height="15.058094500387341" fill="#44aa44" opacity="0.85"/>
<line x1="606.0" y1="109.26413632842755" x2="606.0" y2="166.98683191324557" stroke="#ff4444" stroke-width="0.5" opacity="0.6"/>
<rect x="603.0" y="115.74748257164991" width="6.0" height="51.239349341595656" fill="#ff4444" opacity="0.85"/>
<line x1="618.0" y1="101.73508907823391" x2="618.0" y2="125.57707203718049" stroke="#ff4444" stroke-width="0.5" opacity="0.6"/>
<rect x="615.0" y="110.93725793958173" width="6.0" height="6.692486444616591" fill="#ff4444" opacity="0.85"/>
<line x1="630.0" y1="108.84585592563903" x2="630.0" y2="129.5507358636716" stroke="#44aa44" stroke-width="0.5" opacity="0.6"/>
<rect x="627.0" y="118.46630518977537" width="6.0" height="5.019364833462419" fill="#44aa44" opacity="0.85"/>
<line x1="642.0" y1="109.47327652982185" x2="642.0" y2="144.39969016266457" stroke="#44aa44" stroke-width="0.5" opacity="0.6"/>
<rect x="639.0" y="117.2114639814098" width="6.0" height="10.247869868319086" fill="#44aa44" opacity="0.85"/>
<line x1="654.0" y1="131.85127807900852" x2="654.0" y2="155.90240123934933" stroke="#44aa44" stroke-width="0.5" opacity="0.6"/>
<rect x="651.0" y="132.06041828040276" width="6.0" height="9.202168861347843" fill="#44aa44" opacity="0.85"/>
<line x1="666.0" y1="82.07591014717278" x2="666.0" y2="151.30131680867544" stroke="#ff4444" stroke-width="0.5" opacity="0.6"/>
<rect x="663.0" y="87.5135553834237" width="6.0" height="61.0689388071263" fill="#ff4444" opacity="0.85"/>
<line x1="678.0" y1="90.02323780015493" x2="678.0" y2="113.02865995352438" stroke="#44aa44" stroke-width="0.5" opacity="0.6"/>
<rect x="675.0" y="94.20604182804028" width="6.0" height="18.822618125484098" fill="#44aa44" opacity="0.85"/>
<line x1="690.0" y1="86.67699457784664" x2="690.0" y2="127.04105344694037" stroke="#44aa44" stroke-width="0.5" opacity="0.6"/>
<rect x="687.0" y="104.66305189775368" width="6.0" height="16.522075910147166" fill="#44aa44" opacity="0.85"/>
<line x1="702.0" y1="105.91789310611927" x2="702.0" y2="138.12548412083657" stroke="#ff4444" stroke-width="0.5" opacity="0.6"/>
<rect x="699.0" y="121.39426800929513" width="6.0" height="6.4833462432223" fill="#ff4444" opacity="0.85"/>
<line x1="714.0" y1="118.46630518977537" x2="714.0" y2="142.9357087529047" stroke="#ff4444" stroke-width="0.5" opacity="0.6"/>
<rect x="711.0" y="121.39426800929513" width="6.0" height="3.764523625096828" fill="#ff4444" opacity="0.85"/>
<line x1="726.0" y1="105.70875290472505" x2="726.0" y2="137.91634391944228" stroke="#ff4444" stroke-width="0.5" opacity="0.6"/>
<rect x="723.0" y="119.72114639814096" width="6.0" height="8.574748257165012" fill="#ff4444" opacity="0.85"/>
<line x1="738.0" y1="99.64368706429129" x2="738.0" y2="141.05344694035628" stroke="#44aa44" stroke-width="0.5" opacity="0.6"/>
<rect x="735.0" y="114.70178156467856" width="6.0" height="25.30596436870647" fill="#44aa44" opacity="0.85"/>
<line x1="750.0" y1="80.82106893880712" x2="750.0" y2="138.12548412083657" stroke="#ff4444" stroke-width="0.5" opacity="0.6"/>
<rect x="747.0" y="83.95817195972118" width="6.0" height="53.539891556932574" fill="#ff4444" opacity="0.85"/>
<line x1="762.0" y1="55.93338497288927" x2="762.0" y2="84.79473276529824" stroke="#ff4444" stroke-width="0.5" opacity="0.6"/>
<rect x="759.0" y="61.58017041053451" width="6.0" height="11.502711076684676" fill="#ff4444" opacity="0.85"/>
<line x1="774.0" y1="30.0" x2="774.0" y2="82.70333075135552" stroke="#ff4444" stroke-width="0.5" opacity="0.6"/>
<rect x="771.0" y="35.64678543764523" width="6.0" height="41.61890007745938" fill="#ff4444" opacity="0.85"/>
<rect x="134.0" y="248.3160340821069" width="8" height="8" fill="#4caf50" opacity="0.85" rx="1"/>
<text x="138.0" y="246.3160340821069" text-anchor="middle" font-family="sans-serif" font-size="8" fill="#4caf50">前低</text>
<rect x="146.0" y="259.6096049573973" width="8" height="8" fill="#4caf50" opacity="0.85" rx="1"/>
<text x="150.0" y="257.6096049573973" text-anchor="middle" font-family="sans-serif" font-size="8" fill="#4caf50">前低</text>
<rect x="194.0" y="262.7467079783114" width="8" height="8" fill="#4caf50" opacity="0.85" rx="1"/>
<text x="198.0" y="260.7467079783114" text-anchor="middle" font-family="sans-serif" font-size="8" fill="#4caf50">前低</text>
<rect x="206.0" y="266.9295120061967" width="8" height="8" fill="#4caf50" opacity="0.85" rx="1"/>
<text x="210.0" y="264.9295120061967" text-anchor="middle" font-family="sans-serif" font-size="8" fill="#4caf50">前低</text>
<rect x="218.0" y="271.7397366382649" width="8" height="8" fill="#4caf50" opacity="0.85" rx="1"/>
<text x="222.0" y="269.7397366382649" text-anchor="middle" font-family="sans-serif" font-size="8" fill="#4caf50">前低</text>
<rect x="242.0" y="273.8311386522076" width="8" height="8" fill="#4caf50" opacity="0.85" rx="1"/>
<text x="246.0" y="271.8311386522076" text-anchor="middle" font-family="sans-serif" font-size="8" fill="#4caf50">前低</text>
<rect x="254.0" y="280.9419054996127" width="8" height="8" fill="#4caf50" opacity="0.85" rx="1"/>
<text x="258.0" y="278.9419054996127" text-anchor="middle" font-family="sans-serif" font-size="8" fill="#4caf50">前低</text>
<rect x="266.0" y="296.0" width="8" height="8" fill="#4caf50" opacity="0.85" rx="1"/>
<text x="270.0" y="294.0" text-anchor="middle" font-family="sans-serif" font-size="8" fill="#4caf50">前低</text>
<rect x="350.0" y="240.78698683191325" width="8" height="8" fill="#ff9800" opacity="0.85" rx="1"/>
<text x="354.0" y="238.78698683191325" text-anchor="middle" font-family="sans-serif" font-size="8" fill="#ff9800">前高</text>
<rect x="422.0" y="221.12780790085205" width="8" height="8" fill="#ff9800" opacity="0.85" rx="1"/>
<text x="426.0" y="219.12780790085205" text-anchor="middle" font-family="sans-serif" font-size="8" fill="#ff9800">前高</text>
<rect x="434.0" y="191.63903950426027" width="8" height="8" fill="#ff9800" opacity="0.85" rx="1"/>
<text x="438.0" y="189.63903950426027" text-anchor="middle" font-family="sans-serif" font-size="8" fill="#ff9800">前高</text>
<rect x="434.0" y="191.63903950426027" width="8" height="8" fill="#2196f3" opacity="0.85" rx="1"/>
<text x="438.0" y="189.63903950426027" text-anchor="middle" font-family="sans-serif" font-size="8" fill="#2196f3">突</text>
<rect x="446.0" y="188.9202168861348" width="8" height="8" fill="#ff9800" opacity="0.85" rx="1"/>
<text x="450.0" y="186.9202168861348" text-anchor="middle" font-family="sans-serif" font-size="8" fill="#ff9800">前高</text>
<rect x="458.0" y="188.9202168861348" width="8" height="8" fill="#ff9800" opacity="0.85" rx="1"/>
<text x="462.0" y="186.9202168861348" text-anchor="middle" font-family="sans-serif" font-size="8" fill="#ff9800">前高</text>
<rect x="530.0" y="184.7374128582494" width="8" height="8" fill="#ff9800" opacity="0.85" rx="1"/>
<text x="534.0" y="182.7374128582494" text-anchor="middle" font-family="sans-serif" font-size="8" fill="#ff9800">前高</text>
<rect x="554.0" y="174.280402788536" width="8" height="8" fill="#ff9800" opacity="0.85" rx="1"/>
<text x="558.0" y="172.280402788536" text-anchor="middle" font-family="sans-serif" font-size="8" fill="#ff9800">前高</text>
<rect x="566.0" y="157.13090627420604" width="8" height="8" fill="#ff9800" opacity="0.85" rx="1"/>
<text x="570.0" y="155.13090627420604" text-anchor="middle" font-family="sans-serif" font-size="8" fill="#ff9800">前高</text>
<rect x="578.0" y="145.20991479473275" width="8" height="8" fill="#ff9800" opacity="0.85" rx="1"/>
<text x="582.0" y="143.20991479473275" text-anchor="middle" font-family="sans-serif" font-size="8" fill="#ff9800">前高</text>
<rect x="578.0" y="145.20991479473275" width="8" height="8" fill="#2196f3" opacity="0.85" rx="1"/>
<text x="582.0" y="143.20991479473275" text-anchor="middle" font-family="sans-serif" font-size="8" fill="#2196f3">突</text>
<rect x="602.0" y="105.26413632842755" width="8" height="8" fill="#ff9800" opacity="0.85" rx="1"/>
<text x="606.0" y="103.26413632842755" text-anchor="middle" font-family="sans-serif" font-size="8" fill="#ff9800">前高</text>
<rect x="602.0" y="105.26413632842755" width="8" height="8" fill="#2196f3" opacity="0.85" rx="1"/>
<text x="606.0" y="103.26413632842755" text-anchor="middle" font-family="sans-serif" font-size="8" fill="#2196f3">突</text>
<rect x="614.0" y="97.73508907823391" width="8" height="8" fill="#ff9800" opacity="0.85" rx="1"/>
<text x="618.0" y="95.73508907823391" text-anchor="middle" font-family="sans-serif" font-size="8" fill="#ff9800">前高</text>
<rect x="662.0" y="78.07591014717278" width="8" height="8" fill="#ff9800" opacity="0.85" rx="1"/>
<text x="666.0" y="76.07591014717278" text-anchor="middle" font-family="sans-serif" font-size="8" fill="#ff9800">前高</text>
<rect x="662.0" y="78.07591014717278" width="8" height="8" fill="#2196f3" opacity="0.85" rx="1"/>
<text x="666.0" y="76.07591014717278" text-anchor="middle" font-family="sans-serif" font-size="8" fill="#2196f3">突</text>
<rect x="746.0" y="76.82106893880712" width="8" height="8" fill="#ff9800" opacity="0.85" rx="1"/>
<text x="750.0" y="74.82106893880712" text-anchor="middle" font-family="sans-serif" font-size="8" fill="#ff9800">前高</text>
<rect x="758.0" y="51.93338497288927" width="8" height="8" fill="#ff9800" opacity="0.85" rx="1"/>
<text x="762.0" y="49.93338497288927" text-anchor="middle" font-family="sans-serif" font-size="8" fill="#ff9800">前高</text>
<rect x="758.0" y="51.93338497288927" width="8" height="8" fill="#2196f3" opacity="0.85" rx="1"/>
<text x="762.0" y="49.93338497288927" text-anchor="middle" font-family="sans-serif" font-size="8" fill="#2196f3">突</text>
<rect x="770.0" y="26.0" width="8" height="8" fill="#ff9800" opacity="0.85" rx="1"/>
<text x="774.0" y="24.0" text-anchor="middle" font-family="sans-serif" font-size="8" fill="#ff9800">前高</text>
<rect x="770.0" y="26.0" width="8" height="8" fill="#2196f3" opacity="0.85" rx="1"/>
<text x="774.0" y="24.0" text-anchor="middle" font-family="sans-serif" font-size="8" fill="#2196f3">突</text>
<text x="66.0" y="359" text-anchor="middle" font-family="sans-serif" font-size="8" fill="#666666" transform="rotate(-40,66.0,359)">02/26</text>
<text x="138.0" y="359" text-anchor="middle" font-family="sans-serif" font-size="8" fill="#666666" transform="rotate(-40,138.0,359)">03/06</text>
<text x="210.0" y="359" text-anchor="middle" font-family="sans-serif" font-size="8" fill="#666666" transform="rotate(-40,210.0,359)">03/16</text>
<text x="282.0" y="359" text-anchor="middle" font-family="sans-serif" font-size="8" fill="#666666" transform="rotate(-40,282.0,359)">03/24</text>
<text x="354.0" y="359" text-anchor="middle" font-family="sans-serif" font-size="8" fill="#666666" transform="rotate(-40,354.0,359)">04/01</text>
<text x="426.0" y="359" text-anchor="middle" font-family="sans-serif" font-size="8" fill="#666666" transform="rotate(-40,426.0,359)">04/10</text>
<text x="498.0" y="359" text-anchor="middle" font-family="sans-serif" font-size="8" fill="#666666" transform="rotate(-40,498.0,359)">04/20</text>
<text x="570.0" y="359" text-anchor="middle" font-family="sans-serif" font-size="8" fill="#666666" transform="rotate(-40,570.0,359)">04/28</text>
<text x="642.0" y="359" text-anchor="middle" font-family="sans-serif" font-size="8" fill="#666666" transform="rotate(-40,642.0,359)">05/11</text>
<text x="714.0" y="359" text-anchor="middle" font-family="sans-serif" font-size="8" fill="#666666" transform="rotate(-40,714.0,359)">05/19</text>
<text x="774.0" y="359" text-anchor="middle" font-family="sans-serif" font-size="8" fill="#666666" transform="rotate(-40,774.0,359)">05/26</text>
<text x="400.0" y="396" text-anchor="middle" font-family="sans-serif" font-size="9" fill="#555555">数据截至: 2026-05-26 20:30  |  最新K线: 20260526</text>
<rect x="50" y="373" width="8" height="8" fill="#ffd700" opacity="0.8" rx="1"/>
<text x="61" y="380" font-family="sans-serif" font-size="9" fill="#888888">EMA5</text>
<rect x="150" y="373" width="8" height="8" fill="#ff6b6b" opacity="0.8" rx="1"/>
<text x="161" y="380" font-family="sans-serif" font-size="9" fill="#888888">EMA10</text>
<rect x="250" y="373" width="8" height="8" fill="#4ecdc4" opacity="0.8" rx="1"/>
<text x="261" y="380" font-family="sans-serif" font-size="9" fill="#888888">EMA20</text>
<rect x="350" y="373" width="8" height="8" fill="#2196f3" opacity="0.8" rx="1"/>
<text x="361" y="380" font-family="sans-serif" font-size="9" fill="#888888">突破</text>
<rect x="450" y="373" width="8" height="8" fill="#ff9800" opacity="0.8" rx="1"/>
<text x="461" y="380" font-family="sans-serif" font-size="9" fill="#888888">前高/量</text>
<rect x="550" y="373" width="8" height="8" fill="#4caf50" opacity="0.8" rx="1"/>
<text x="561" y="380" font-family="sans-serif" font-size="9" fill="#888888">前低</text>
</svg>