<svg xmlns="http://www.w3.org/2000/svg" width="800" height="400" viewBox="0 0 800 400">
<rect width="800" height="400" fill="#1a1a2e"/>
<text x="400.0" y="20" text-anchor="middle" font-family="sans-serif" font-size="14" fill="#ffffff" font-weight="bold">晶升股份(688478) K线图</text>
<line x1="60" y1="30.0" x2="780" y2="30.0" stroke="#2a2a4e" stroke-width="0.5"/>
<text x="55" y="33.0" text-anchor="end" font-family="sans-serif" font-size="8" fill="#666666">79.90</text>
<line x1="60" y1="83.99999999999997" x2="780" y2="83.99999999999997" stroke="#2a2a4e" stroke-width="0.5"/>
<text x="55" y="86.99999999999997" text-anchor="end" font-family="sans-serif" font-size="8" fill="#666666">69.55</text>
<line x1="60" y1="138.0" x2="780" y2="138.0" stroke="#2a2a4e" stroke-width="0.5"/>
<text x="55" y="141.0" text-anchor="end" font-family="sans-serif" font-size="8" fill="#666666">59.20</text>
<line x1="60" y1="192.0" x2="780" y2="192.0" stroke="#2a2a4e" stroke-width="0.5"/>
<text x="55" y="195.0" text-anchor="end" font-family="sans-serif" font-size="8" fill="#666666">48.85</text>
<line x1="60" y1="246.0" x2="780" y2="246.0" stroke="#2a2a4e" stroke-width="0.5"/>
<text x="55" y="249.0" text-anchor="end" font-family="sans-serif" font-size="8" fill="#666666">38.50</text>
<line x1="60" y1="300.00000000000006" x2="780" y2="300.00000000000006" stroke="#2a2a4e" stroke-width="0.5"/>
<text x="55" y="303.00000000000006" text-anchor="end" font-family="sans-serif" font-size="8" fill="#666666">28.15</text>
<line x1="60" y1="300" x2="780" y2="300" stroke="#2a2a4e" stroke-width="0.5"/>
<line x1="60" y1="345" x2="780" y2="345" stroke="#2a2a4e" stroke-width="0.5"/>
<rect x="61.8" y="339.3938877706098" width="7.199999999999999" height="5.606112229390192" fill="#44aa44" opacity="0.3"/>
<rect x="73.8" y="340.3565840734149" width="7.199999999999999" height="4.643415926585078" fill="#ff4444" opacity="0.3"/>
<rect x="85.8" y="334.5644689120913" width="7.199999999999999" height="10.435531087908714" fill="#ff4444" opacity="0.3"/>
<rect x="97.8" y="337.1483361053703" width="7.199999999999999" height="7.8516638946297235" fill="#44aa44" opacity="0.3"/>
<rect x="109.8" y="340.5226148900973" width="7.199999999999999" height="4.477385109902684" fill="#44aa44" opacity="0.3"/>
<rect x="121.8" y="341.15849476152266" width="7.199999999999999" height="3.841505238477339" fill="#ff4444" opacity="0.3"/>
<rect x="133.8" y="342.22064816350684" width="7.199999999999999" height="2.779351836493163" fill="#44aa44" opacity="0.3"/>
<rect x="145.8" y="339.05173921035055" width="7.199999999999999" height="5.948260789649453" fill="#44aa44" opacity="0.3"/>
<rect x="157.8" y="340.72818646020596" width="7.199999999999999" height="4.271813539794039" fill="#ff4444" opacity="0.3"/>
<rect x="169.8" y="340.4532168330636" width="7.199999999999999" height="4.546783166936393" fill="#44aa44" opacity="0.3"/>
<rect x="181.8" y="341.1018062323759" width="7.199999999999999" height="3.898193767624093" fill="#44aa44" opacity="0.3"/>
<rect x="193.8" y="341.4368939438091" width="7.199999999999999" height="3.563106056190918" fill="#44aa44" opacity="0.3"/>
<rect x="205.8" y="341.4875303168192" width="7.199999999999999" height="3.512469683180825" fill="#ff4444" opacity="0.3"/>
<rect x="217.8" y="341.61704645814376" width="7.199999999999999" height="3.3829535418562386" fill="#44aa44" opacity="0.3"/>
<rect x="229.8" y="341.9920784000789" width="7.199999999999999" height="3.007921599921076" fill="#ff4444" opacity="0.3"/>
<rect x="241.8" y="342.25252285249326" width="7.199999999999999" height="2.7474771475067428" fill="#44aa44" opacity="0.3"/>
<rect x="253.8" y="341.7701660084013" width="7.199999999999999" height="3.2298339915986958" fill="#44aa44" opacity="0.3"/>
<rect x="265.8" y="340.35900493586956" width="7.199999999999999" height="4.640995064130436" fill="#44aa44" opacity="0.3"/>
<rect x="277.8" y="342.18998390574774" width="7.199999999999999" height="2.810016094252262" fill="#44aa44" opacity="0.3"/>
<rect x="289.8" y="340.2236383769462" width="7.199999999999999" height="4.776361623053788" fill="#44aa44" opacity="0.3"/>
<rect x="301.8" y="341.7074253231179" width="7.199999999999999" height="3.2925746768821114" fill="#44aa44" opacity="0.3"/>
<rect x="313.8" y="342.1066658895997" width="7.199999999999999" height="2.8933341104003034" fill="#ff4444" opacity="0.3"/>
<rect x="325.8" y="342.2593819627815" width="7.199999999999999" height="2.7406180372184963" fill="#44aa44" opacity="0.3"/>
<rect x="337.8" y="341.9587915413273" width="7.199999999999999" height="3.0412084586727133" fill="#44aa44" opacity="0.3"/>
<rect x="349.8" y="342.29004622054055" width="7.199999999999999" height="2.709953779459454" fill="#ff4444" opacity="0.3"/>
<rect x="361.8" y="341.9527393851906" width="7.199999999999999" height="3.0472606148093746" fill="#44aa44" opacity="0.3"/>
<rect x="373.8" y="341.9957096937609" width="7.199999999999999" height="3.0042903062391133" fill="#ff4444" opacity="0.3"/>
<rect x="385.8" y="341.96948368383534" width="7.199999999999999" height="3.0305163161646647" fill="#44aa44" opacity="0.3"/>
<rect x="397.8" y="341.2789326686422" width="7.199999999999999" height="3.7210673313578013" fill="#ff4444" opacity="0.3"/>
<rect x="409.8" y="342.11332326135005" width="7.199999999999999" height="2.8866767386499532" fill="#44aa44" opacity="0.3"/>
<rect x="421.8" y="323.0895808769798" width="7.199999999999999" height="21.910419123020176" fill="#ff4444" opacity="0.3"/>
<rect x="433.8" y="317.72696706282136" width="7.199999999999999" height="27.27303293717864" fill="#ff4444" opacity="0.3"/>
<rect x="445.8" y="329.8875643882167" width="7.199999999999999" height="15.112435611783326" fill="#44aa44" opacity="0.3"/>
<rect x="457.8" y="334.25237939397744" width="7.199999999999999" height="10.747620606022565" fill="#44aa44" opacity="0.3"/>
<rect x="469.8" y="332.73187603391" width="7.199999999999999" height="12.268123966090002" fill="#ff4444" opacity="0.3"/>
<rect x="481.8" y="325.0811437230175" width="7.199999999999999" height="19.918856276982524" fill="#ff4444" opacity="0.3"/>
<rect x="493.8" y="321.6340373261126" width="7.199999999999999" height="23.365962673887395" fill="#ff4444" opacity="0.3"/>
<rect x="505.8" y="331.8813463581711" width="7.199999999999999" height="13.118653641828928" fill="#ff4444" opacity="0.3"/>
<rect x="517.8" y="322.45370100555454" width="7.199999999999999" height="22.546298994445465" fill="#ff4444" opacity="0.3"/>
<rect x="529.8" y="322.7476340552584" width="7.199999999999999" height="22.252365944741598" fill="#ff4444" opacity="0.3"/>
<rect x="541.8" y="330.6880629065592" width="7.199999999999999" height="14.311937093440804" fill="#44aa44" opacity="0.3"/>
<rect x="553.8" y="327.68780737107784" width="7.199999999999999" height="17.312192628922162" fill="#ff4444" opacity="0.3"/>
<rect x="565.8" y="331.5561438350944" width="7.199999999999999" height="13.443856164905583" fill="#44aa44" opacity="0.3"/>
<rect x="577.8" y="332.3832718404383" width="7.199999999999999" height="12.616728159561717" fill="#ff4444" opacity="0.3"/>
<rect x="589.8" y="329.4984107486293" width="7.199999999999999" height="15.501589251370717" fill="#ff4444" opacity="0.3"/>
<rect x="601.8" y="326.92463048224477" width="7.199999999999999" height="18.075369517755234" fill="#ff4444" opacity="0.3"/>
<rect x="613.8" y="329.2238445985627" width="7.199999999999999" height="15.77615540143728" fill="#44aa44" opacity="0.3"/>
<rect x="625.8" y="330.39312116416585" width="7.199999999999999" height="14.606878835834152" fill="#44aa44" opacity="0.3"/>
<rect x="637.8" y="327.75054805636125" width="7.199999999999999" height="17.249451943638746" fill="#ff4444" opacity="0.3"/>
<rect x="649.8" y="317.3364012534688" width="7.199999999999999" height="27.663598746531193" fill="#ff4444" opacity="0.3"/>
<rect x="661.8" y="317.28132663262517" width="7.199999999999999" height="27.718673367374834" fill="#ff4444" opacity="0.3"/>
<rect x="673.8" y="331.54908298626833" width="7.199999999999999" height="13.450917013731669" fill="#ff4444" opacity="0.3"/>
<rect x="685.8" y="300.0" width="7.199999999999999" height="45.0" fill="#ff4444" opacity="0.3"/>
<rect x="697.8" y="313.7345613980032" width="7.199999999999999" height="31.265438601996777" fill="#ff4444" opacity="0.3"/>
<rect x="709.8" y="320.6917166156343" width="7.199999999999999" height="24.308283384365723" fill="#ff4444" opacity="0.3"/>
<rect x="721.8" y="323.1460676675887" width="7.199999999999999" height="21.85393233241132" fill="#44aa44" opacity="0.3"/>
<rect x="733.8" y="320.91887420929703" width="7.199999999999999" height="24.08112579070297" fill="#44aa44" opacity="0.3"/>
<rect x="745.8" y="324.3371319952838" width="7.199999999999999" height="20.662868004716188" fill="#ff4444" opacity="0.3"/>
<rect x="757.8" y="320.7939980543439" width="7.199999999999999" height="24.206001945656112" fill="#44aa44" opacity="0.3"/>
<rect x="769.8" y="329.57446617741334" width="7.199999999999999" height="15.425533822586658" fill="#44aa44" opacity="0.3"/>
<polyline points="66.0,246.63 78.0,246.37 90.0,244.50 102.0,249.82 114.0,254.60 126.0,256.32 138.0,257.84 150.0,261.75 162.0,262.43 174.0,263.62 186.0,265.73 198.0,268.06 210.0,269.12 222.0,271.88 234.0,272.82 246.0,274.99 258.0,278.32 270.0,284.21 282.0,286.76 294.0,288.18 306.0,291.16 318.0,292.25 330.0,292.82 342.0,294.38 354.0,294.02 366.0,295.30 378.0,295.58 390.0,295.84 402.0,293.03 414.0,292.31 426.0,281.43 438.0,271.41 450.0,265.85 462.0,262.80 474.0,257.88 486.0,253.62 498.0,247.29 510.0,242.55 522.0,237.40 534.0,229.94 546.0,228.25 558.0,223.21 570.0,223.50 582.0,225.45 594.0,226.32 606.0,221.19 618.0,214.70 630.0,210.70 642.0,205.11 654.0,193.82 666.0,178.67 678.0,148.68 690.0,117.64 702.0,102.13 714.0,92.75 726.0,89.26 738.0,99.11 750.0,98.52 762.0,100.83 774.0,105.64" fill="none" stroke="#ffd700" stroke-width="0.8" opacity="0.7"/>
<polyline points="66.0,246.63 78.0,246.48 90.0,245.45 102.0,248.18 114.0,251.08 126.0,252.66 138.0,254.15 150.0,256.96 162.0,258.20 174.0,259.62 186.0,261.49 198.0,263.53 210.0,264.94 222.0,267.21 234.0,268.57 246.0,270.53 258.0,273.15 270.0,277.30 282.0,279.95 294.0,281.96 306.0,284.72 318.0,286.48 330.0,287.84 342.0,289.60 354.0,290.27 366.0,291.65 378.0,292.47 390.0,293.17 402.0,292.13 414.0,291.90 426.0,286.04 438.0,279.74 450.0,275.19 462.0,271.83 474.0,267.50 486.0,263.43 498.0,258.19 510.0,253.62 522.0,248.80 534.0,242.66 546.0,239.42 558.0,234.64 570.0,232.72 582.0,232.11 594.0,231.37 606.0,227.66 618.0,222.94 630.0,219.26 642.0,214.65 654.0,206.76 666.0,196.15 678.0,176.61 690.0,154.60 702.0,139.42 714.0,127.52 726.0,119.30 738.0,119.21 750.0,115.23 762.0,113.45 774.0,113.78" fill="none" stroke="#ff6b6b" stroke-width="0.8" opacity="0.7"/>
<polyline points="66.0,246.63 78.0,246.55 90.0,246.00 102.0,247.38 114.0,248.98 126.0,250.00 138.0,251.04 150.0,252.81 162.0,253.85 174.0,255.01 186.0,256.43 198.0,257.98 210.0,259.24 222.0,260.97 234.0,262.28 246.0,263.91 258.0,265.91 270.0,268.78 282.0,270.97 294.0,272.88 306.0,275.19 318.0,277.02 330.0,278.64 342.0,280.43 354.0,281.66 366.0,283.20 378.0,284.43 390.0,285.57 402.0,285.75 414.0,286.23 426.0,283.70 438.0,280.63 450.0,278.16 462.0,276.11 474.0,273.44 486.0,270.74 498.0,267.30 510.0,264.04 522.0,260.52 534.0,256.19 546.0,253.21 558.0,249.39 570.0,246.98 582.0,245.30 594.0,243.66 606.0,240.54 618.0,236.84 630.0,233.59 642.0,229.81 654.0,224.24 666.0,217.01 678.0,204.79 690.0,190.58 702.0,179.20 714.0,169.18 726.0,160.90 738.0,156.89 750.0,151.22 762.0,146.86 774.0,143.85" fill="none" stroke="#4ecdc4" stroke-width="0.8" opacity="0.7"/>
<line x1="66.0" y1="244.1217391304348" x2="66.0" y2="251.84347826086955" stroke="#44aa44" stroke-width="0.5" opacity="0.6"/>
<rect x="63.0" y="246.05217391304345" width="6.0" height="0.5739130434782851" fill="#44aa44" opacity="0.85"/>
<line x1="78.0" y1="244.59130434782605" x2="78.0" y2="251.7391304347826" stroke="#ff4444" stroke-width="0.5" opacity="0.6"/>
<rect x="75.0" y="245.84347826086955" width="6.0" height="2.86956521739134" fill="#ff4444" opacity="0.85"/>
<line x1="90.0" y1="230.6086956521739" x2="90.0" y2="249.23478260869564" stroke="#ff4444" stroke-width="0.5" opacity="0.6"/>
<rect x="87.0" y="240.78260869565216" width="6.0" height="8.400000000000006" fill="#ff4444" opacity="0.85"/>
<line x1="102.0" y1="239.53043478260867" x2="102.0" y2="260.6086956521739" stroke="#44aa44" stroke-width="0.5" opacity="0.6"/>
<rect x="99.0" y="242.4" width="6.0" height="18.052173913043447" fill="#44aa44" opacity="0.85"/>
<line x1="114.0" y1="257.1652173913044" x2="114.0" y2="264.2086956521739" stroke="#44aa44" stroke-width="0.5" opacity="0.6"/>
<rect x="111.0" y="260.81739130434784" width="6.0" height="3.3391304347825894" fill="#44aa44" opacity="0.85"/>
<line x1="126.0" y1="254.45217391304345" x2="126.0" y2="263.2173913043478" stroke="#ff4444" stroke-width="0.5" opacity="0.6"/>
<rect x="123.0" y="259.7739130434783" width="6.0" height="0.5" fill="#ff4444" opacity="0.85"/>
<line x1="138.0" y1="258.6782608695652" x2="138.0" y2="263.68695652173915" stroke="#44aa44" stroke-width="0.5" opacity="0.6"/>
<rect x="135.0" y="260.0869565217391" width="6.0" height="0.7826086956521863" fill="#44aa44" opacity="0.85"/>
<line x1="150.0" y1="263.37391304347824" x2="150.0" y2="274.0173913043478" stroke="#44aa44" stroke-width="0.5" opacity="0.6"/>
<rect x="147.0" y="263.37391304347824" width="6.0" height="6.208695652173958" fill="#44aa44" opacity="0.85"/>
<line x1="162.0" y1="262.0173913043478" x2="162.0" y2="266.66086956521735" stroke="#ff4444" stroke-width="0.5" opacity="0.6"/>
<rect x="159.0" y="263.7913043478261" width="6.0" height="2.347826086956502" fill="#ff4444" opacity="0.85"/>
<line x1="174.0" y1="260.0869565217391" x2="174.0" y2="266.86956521739125" stroke="#44aa44" stroke-width="0.5" opacity="0.6"/>
<rect x="171.0" y="264.7304347826087" width="6.0" height="1.252173913043464" fill="#44aa44" opacity="0.85"/>
<line x1="186.0" y1="265.2" x2="186.0" y2="274.695652173913" stroke="#44aa44" stroke-width="0.5" opacity="0.6"/>
<rect x="183.0" y="265.2" width="6.0" height="4.747826086956536" fill="#44aa44" opacity="0.85"/>
<line x1="198.0" y1="266.81739130434784" x2="198.0" y2="273.59999999999997" stroke="#44aa44" stroke-width="0.5" opacity="0.6"/>
<rect x="195.0" y="271.2" width="6.0" height="1.5130434782608404" fill="#44aa44" opacity="0.85"/>
<line x1="210.0" y1="270.5739130434782" x2="210.0" y2="275.7391304347826" stroke="#ff4444" stroke-width="0.5" opacity="0.6"/>
<rect x="207.0" y="271.2521739130435" width="6.0" height="1.1999999999999318" fill="#ff4444" opacity="0.85"/>
<line x1="222.0" y1="269.6347826086957" x2="222.0" y2="277.82608695652175" stroke="#44aa44" stroke-width="0.5" opacity="0.6"/>
<rect x="219.0" y="270.2086956521739" width="6.0" height="7.2000000000000455" fill="#44aa44" opacity="0.85"/>
<line x1="234.0" y1="273.39130434782606" x2="234.0" y2="277.82608695652175" stroke="#ff4444" stroke-width="0.5" opacity="0.6"/>
<rect x="231.0" y="274.695652173913" width="6.0" height="1.8782608695652243" fill="#ff4444" opacity="0.85"/>
<line x1="246.0" y1="275.7913043478261" x2="246.0" y2="280.79999999999995" stroke="#44aa44" stroke-width="0.5" opacity="0.6"/>
<rect x="243.0" y="277.304347826087" width="6.0" height="2.0347826086955934" fill="#44aa44" opacity="0.85"/>
<line x1="258.0" y1="277.4608695652174" x2="258.0" y2="286.17391304347825" stroke="#44aa44" stroke-width="0.5" opacity="0.6"/>
<rect x="255.0" y="278.9217391304348" width="6.0" height="6.0521739130434185" fill="#44aa44" opacity="0.85"/>
<line x1="270.0" y1="287.4260869565217" x2="270.0" y2="297.13043478260863" stroke="#44aa44" stroke-width="0.5" opacity="0.6"/>
<rect x="267.0" y="288.10434782608695" width="6.0" height="7.878260869565224" fill="#44aa44" opacity="0.85"/>
<line x1="282.0" y1="291.0782608695652" x2="282.0" y2="296.6608695652174" stroke="#44aa44" stroke-width="0.5" opacity="0.6"/>
<rect x="279.0" y="291.6521739130435" width="6.0" height="0.5" fill="#44aa44" opacity="0.85"/>
<line x1="294.0" y1="287.7391304347826" x2="294.0" y2="292.5391304347826" stroke="#44aa44" stroke-width="0.5" opacity="0.6"/>
<rect x="291.0" y="290.40000000000003" width="6.0" height="0.6260869565216467" fill="#44aa44" opacity="0.85"/>
<line x1="306.0" y1="291.7565217391304" x2="306.0" y2="298.2782608695652" stroke="#44aa44" stroke-width="0.5" opacity="0.6"/>
<rect x="303.0" y="291.7565217391304" width="6.0" height="5.37391304347824" fill="#44aa44" opacity="0.85"/>
<line x1="318.0" y1="293.11304347826086" x2="318.0" y2="300.0" stroke="#ff4444" stroke-width="0.5" opacity="0.6"/>
<rect x="315.0" y="294.41739130434786" width="6.0" height="4.382608695652152" fill="#ff4444" opacity="0.85"/>
<line x1="330.0" y1="291.0782608695652" x2="330.0" y2="297.13043478260863" stroke="#44aa44" stroke-width="0.5" opacity="0.6"/>
<rect x="327.0" y="293.6347826086956" width="6.0" height="0.5" fill="#44aa44" opacity="0.85"/>
<line x1="342.0" y1="290.9217391304348" x2="342.0" y2="297.65217391304344" stroke="#44aa44" stroke-width="0.5" opacity="0.6"/>
<rect x="339.0" y="294.0" width="6.0" height="3.495652173913072" fill="#44aa44" opacity="0.85"/>
<line x1="354.0" y1="292.95652173913044" x2="354.0" y2="295.9304347826087" stroke="#ff4444" stroke-width="0.5" opacity="0.6"/>
<rect x="351.0" y="293.32173913043476" width="6.0" height="0.5" fill="#ff4444" opacity="0.85"/>
<line x1="366.0" y1="290.9217391304348" x2="366.0" y2="299.6347826086957" stroke="#44aa44" stroke-width="0.5" opacity="0.6"/>
<rect x="363.0" y="290.9217391304348" width="6.0" height="6.939130434782612" fill="#44aa44" opacity="0.85"/>
<line x1="378.0" y1="294.62608695652176" x2="378.0" y2="298.95652173913044" stroke="#ff4444" stroke-width="0.5" opacity="0.6"/>
<rect x="375.0" y="296.1391304347826" width="6.0" height="0.5" fill="#ff4444" opacity="0.85"/>
<line x1="390.0" y1="292.12173913043483" x2="390.0" y2="297.44347826086954" stroke="#44aa44" stroke-width="0.5" opacity="0.6"/>
<rect x="387.0" y="295.4608695652174" width="6.0" height="0.88695652173908" fill="#44aa44" opacity="0.85"/>
<line x1="402.0" y1="287.4260869565217" x2="402.0" y2="292.4347826086956" stroke="#ff4444" stroke-width="0.5" opacity="0.6"/>
<rect x="399.0" y="287.4260869565217" width="6.0" height="4.539130434782635" fill="#ff4444" opacity="0.85"/>
<line x1="414.0" y1="287.58260869565214" x2="414.0" y2="291.54782608695655" stroke="#44aa44" stroke-width="0.5" opacity="0.6"/>
<rect x="411.0" y="288.88695652173914" width="6.0" height="1.982608695652175" fill="#44aa44" opacity="0.85"/>
<line x1="426.0" y1="259.6695652173913" x2="426.0" y2="288.88695652173914" stroke="#ff4444" stroke-width="0.5" opacity="0.6"/>
<rect x="423.0" y="259.6695652173913" width="6.0" height="28.121739130434776" fill="#ff4444" opacity="0.85"/>
<line x1="438.0" y1="238.3304347826087" x2="438.0" y2="264.2608695652174" stroke="#ff4444" stroke-width="0.5" opacity="0.6"/>
<rect x="435.0" y="251.37391304347827" width="6.0" height="2.4521739130434526" fill="#ff4444" opacity="0.85"/>
<line x1="450.0" y1="246.52173913043478" x2="450.0" y2="257.0608695652174" stroke="#44aa44" stroke-width="0.5" opacity="0.6"/>
<rect x="447.0" y="253.2" width="6.0" height="1.5130434782608688" fill="#44aa44" opacity="0.85"/>
<line x1="462.0" y1="251.7391304347826" x2="462.0" y2="259.5652173913044" stroke="#44aa44" stroke-width="0.5" opacity="0.6"/>
<rect x="459.0" y="253.82608695652172" width="6.0" height="2.8695652173912833" fill="#44aa44" opacity="0.85"/>
<line x1="474.0" y1="244.43478260869566" x2="474.0" y2="259.61739130434785" stroke="#ff4444" stroke-width="0.5" opacity="0.6"/>
<rect x="471.0" y="248.03478260869565" width="6.0" height="8.399999999999977" fill="#ff4444" opacity="0.85"/>
<line x1="486.0" y1="228.41739130434783" x2="486.0" y2="250.01739130434785" stroke="#ff4444" stroke-width="0.5" opacity="0.6"/>
<rect x="483.0" y="245.11304347826086" width="6.0" height="3.547826086956519" fill="#ff4444" opacity="0.85"/>
<line x1="498.0" y1="225.13043478260872" x2="498.0" y2="244.01739130434783" stroke="#ff4444" stroke-width="0.5" opacity="0.6"/>
<rect x="495.0" y="234.62608695652176" width="6.0" height="5.269565217391289" fill="#ff4444" opacity="0.85"/>
<line x1="510.0" y1="229.8782608695652" x2="510.0" y2="243.8608695652174" stroke="#ff4444" stroke-width="0.5" opacity="0.6"/>
<rect x="507.0" y="233.06086956521742" width="6.0" height="4.173913043478223" fill="#ff4444" opacity="0.85"/>
<line x1="522.0" y1="215.32173913043476" x2="522.0" y2="238.64347826086959" stroke="#ff4444" stroke-width="0.5" opacity="0.6"/>
<rect x="519.0" y="227.11304347826086" width="6.0" height="5.895652173913021" fill="#ff4444" opacity="0.85"/>
<line x1="534.0" y1="209.47826086956522" x2="534.0" y2="231.3913043478261" stroke="#ff4444" stroke-width="0.5" opacity="0.6"/>
<rect x="531.0" y="215.00869565217394" width="6.0" height="11.843478260869546" fill="#ff4444" opacity="0.85"/>
<line x1="546.0" y1="215.32173913043476" x2="546.0" y2="230.08695652173913" stroke="#44aa44" stroke-width="0.5" opacity="0.6"/>
<rect x="543.0" y="219.3913043478261" width="6.0" height="5.478260869565219" fill="#44aa44" opacity="0.85"/>
<line x1="558.0" y1="198.73043478260868" x2="558.0" y2="226.22608695652175" stroke="#ff4444" stroke-width="0.5" opacity="0.6"/>
<rect x="555.0" y="213.13043478260872" width="6.0" height="13.095652173913038" fill="#ff4444" opacity="0.85"/>
<line x1="570.0" y1="213.91304347826087" x2="570.0" y2="227.7391304347826" stroke="#44aa44" stroke-width="0.5" opacity="0.6"/>
<rect x="567.0" y="218.50434782608693" width="6.0" height="5.582608695652198" fill="#44aa44" opacity="0.85"/>
<line x1="582.0" y1="222.62608695652176" x2="582.0" y2="232.17391304347825" stroke="#ff4444" stroke-width="0.5" opacity="0.6"/>
<rect x="579.0" y="229.35652173913044" width="6.0" height="1.1478260869565133" fill="#ff4444" opacity="0.85"/>
<line x1="594.0" y1="222.57391304347826" x2="594.0" y2="237.65217391304347" stroke="#ff4444" stroke-width="0.5" opacity="0.6"/>
<rect x="591.0" y="228.0521739130435" width="6.0" height="1.982608695652118" fill="#ff4444" opacity="0.85"/>
<line x1="606.0" y1="202.43478260869566" x2="606.0" y2="222.52173913043478" stroke="#ff4444" stroke-width="0.5" opacity="0.6"/>
<rect x="603.0" y="210.9391304347826" width="6.0" height="11.58260869565217" fill="#ff4444" opacity="0.85"/>
<line x1="618.0" y1="191.89565217391308" x2="618.0" y2="204.15652173913043" stroke="#44aa44" stroke-width="0.5" opacity="0.6"/>
<rect x="615.0" y="201.65217391304347" width="6.0" height="0.5" fill="#44aa44" opacity="0.85"/>
<line x1="630.0" y1="193.30434782608697" x2="630.0" y2="208.8521739130435" stroke="#44aa44" stroke-width="0.5" opacity="0.6"/>
<rect x="627.0" y="201.65217391304347" width="6.0" height="1.0434782608696196" fill="#44aa44" opacity="0.85"/>
<line x1="642.0" y1="185.11304347826086" x2="642.0" y2="201.18260869565214" stroke="#ff4444" stroke-width="0.5" opacity="0.6"/>
<rect x="639.0" y="193.9304347826087" width="6.0" height="7.095652173913038" fill="#ff4444" opacity="0.85"/>
<line x1="654.0" y1="148.74782608695654" x2="654.0" y2="195.60000000000002" stroke="#ff4444" stroke-width="0.5" opacity="0.6"/>
<rect x="651.0" y="171.23478260869567" width="6.0" height="9.547826086956519" fill="#ff4444" opacity="0.85"/>
<line x1="666.0" y1="134.86956521739134" x2="666.0" y2="170.34782608695653" stroke="#ff4444" stroke-width="0.5" opacity="0.6"/>
<rect x="663.0" y="148.38260869565218" width="6.0" height="21.96521739130435" fill="#ff4444" opacity="0.85"/>
<line x1="678.0" y1="88.69565217391303" x2="678.0" y2="133.7217391304348" stroke="#ff4444" stroke-width="0.5" opacity="0.6"/>
<rect x="675.0" y="88.69565217391303" width="6.0" height="39.9130434782609" fill="#ff4444" opacity="0.85"/>
<line x1="690.0" y1="30.0" x2="690.0" y2="94.95652173913044" stroke="#ff4444" stroke-width="0.5" opacity="0.6"/>
<rect x="687.0" y="55.56521739130437" width="6.0" height="15.65217391304347" fill="#ff4444" opacity="0.85"/>
<line x1="702.0" y1="69.70434782608694" x2="702.0" y2="112.53913043478263" stroke="#ff4444" stroke-width="0.5" opacity="0.6"/>
<rect x="699.0" y="71.11304347826092" width="6.0" height="26.191304347826062" fill="#ff4444" opacity="0.85"/>
<line x1="714.0" y1="70.17391304347828" x2="714.0" y2="110.86956521739128" stroke="#ff4444" stroke-width="0.5" opacity="0.6"/>
<rect x="711.0" y="73.9826086956522" width="6.0" height="23.32173913043478" fill="#ff4444" opacity="0.85"/>
<line x1="726.0" y1="72.73043478260875" x2="726.0" y2="96.78260869565223" stroke="#44aa44" stroke-width="0.5" opacity="0.6"/>
<rect x="723.0" y="79.56521739130434" width="6.0" height="2.7130434782609143" fill="#44aa44" opacity="0.85"/>
<line x1="738.0" y1="76.74782608695656" x2="738.0" y2="120.15652173913047" stroke="#44aa44" stroke-width="0.5" opacity="0.6"/>
<rect x="735.0" y="84.05217391304348" width="6.0" height="34.74782608695652" fill="#44aa44" opacity="0.85"/>
<line x1="750.0" y1="86.08695652173913" x2="750.0" y2="106.33043478260873" stroke="#ff4444" stroke-width="0.5" opacity="0.6"/>
<rect x="747.0" y="97.35652173913049" width="6.0" height="0.5" fill="#ff4444" opacity="0.85"/>
<line x1="762.0" y1="86.86956521739133" x2="762.0" y2="127.14782608695653" stroke="#44aa44" stroke-width="0.5" opacity="0.6"/>
<rect x="759.0" y="103.6173913043478" width="6.0" height="1.8260869565217916" fill="#44aa44" opacity="0.85"/>
<line x1="774.0" y1="93.65217391304348" x2="774.0" y2="119.79130434782611" stroke="#44aa44" stroke-width="0.5" opacity="0.6"/>
<rect x="771.0" y="102.1565217391305" width="6.0" height="13.095652173912995" fill="#44aa44" opacity="0.85"/>
<rect x="146.0" y="270.0173913043478" width="8" height="8" fill="#4caf50" opacity="0.85" rx="1"/>
<text x="150.0" y="268.0173913043478" text-anchor="middle" font-family="sans-serif" font-size="8" fill="#4caf50">前低</text>
<rect x="182.0" y="270.695652173913" width="8" height="8" fill="#4caf50" opacity="0.85" rx="1"/>
<text x="186.0" y="268.695652173913" text-anchor="middle" font-family="sans-serif" font-size="8" fill="#4caf50">前低</text>
<rect x="206.0" y="271.7391304347826" width="8" height="8" fill="#4caf50" opacity="0.85" rx="1"/>
<text x="210.0" y="269.7391304347826" text-anchor="middle" font-family="sans-serif" font-size="8" fill="#4caf50">前低</text>
<rect x="218.0" y="273.82608695652175" width="8" height="8" fill="#4caf50" opacity="0.85" rx="1"/>
<text x="222.0" y="271.82608695652175" text-anchor="middle" font-family="sans-serif" font-size="8" fill="#4caf50">前低</text>
<rect x="230.0" y="273.82608695652175" width="8" height="8" fill="#4caf50" opacity="0.85" rx="1"/>
<text x="234.0" y="271.82608695652175" text-anchor="middle" font-family="sans-serif" font-size="8" fill="#4caf50">前低</text>
<rect x="242.0" y="276.79999999999995" width="8" height="8" fill="#4caf50" opacity="0.85" rx="1"/>
<text x="246.0" y="274.79999999999995" text-anchor="middle" font-family="sans-serif" font-size="8" fill="#4caf50">前低</text>
<rect x="254.0" y="282.17391304347825" width="8" height="8" fill="#4caf50" opacity="0.85" rx="1"/>
<text x="258.0" y="280.17391304347825" text-anchor="middle" font-family="sans-serif" font-size="8" fill="#4caf50">前低</text>
<rect x="266.0" y="293.13043478260863" width="8" height="8" fill="#4caf50" opacity="0.85" rx="1"/>
<text x="270.0" y="291.13043478260863" text-anchor="middle" font-family="sans-serif" font-size="8" fill="#4caf50">前低</text>
<rect x="302.0" y="294.2782608695652" width="8" height="8" fill="#4caf50" opacity="0.85" rx="1"/>
<text x="306.0" y="292.2782608695652" text-anchor="middle" font-family="sans-serif" font-size="8" fill="#4caf50">前低</text>
<rect x="314.0" y="296.0" width="8" height="8" fill="#4caf50" opacity="0.85" rx="1"/>
<text x="318.0" y="294.0" text-anchor="middle" font-family="sans-serif" font-size="8" fill="#4caf50">前低</text>
<rect x="398.0" y="283.4260869565217" width="8" height="8" fill="#ff9800" opacity="0.85" rx="1"/>
<text x="402.0" y="281.4260869565217" text-anchor="middle" font-family="sans-serif" font-size="8" fill="#ff9800">前高</text>
<rect x="398.0" y="283.4260869565217" width="8" height="8" fill="#2196f3" opacity="0.85" rx="1"/>
<text x="402.0" y="281.4260869565217" text-anchor="middle" font-family="sans-serif" font-size="8" fill="#2196f3">突</text>
<rect x="422.0" y="255.66956521739132" width="8" height="8" fill="#ff9800" opacity="0.85" rx="1"/>
<text x="426.0" y="253.66956521739132" text-anchor="middle" font-family="sans-serif" font-size="8" fill="#ff9800">前高</text>
<rect x="422.0" y="241.06086956521736" width="8" height="8" fill="#ff9800" opacity="0.85" rx="1"/>
<text x="426.0" y="239.06086956521736" text-anchor="middle" font-family="sans-serif" font-size="8" fill="#ff9800">量</text>
<rect x="422.0" y="255.66956521739132" width="8" height="8" fill="#2196f3" opacity="0.85" rx="1"/>
<text x="426.0" y="253.66956521739132" text-anchor="middle" font-family="sans-serif" font-size="8" fill="#2196f3">突</text>
<rect x="434.0" y="234.3304347826087" width="8" height="8" fill="#ff9800" opacity="0.85" rx="1"/>
<text x="438.0" y="232.3304347826087" text-anchor="middle" font-family="sans-serif" font-size="8" fill="#ff9800">前高</text>
<rect x="482.0" y="224.41739130434783" width="8" height="8" fill="#ff9800" opacity="0.85" rx="1"/>
<text x="486.0" y="222.41739130434783" text-anchor="middle" font-family="sans-serif" font-size="8" fill="#ff9800">前高</text>
<rect x="494.0" y="221.13043478260872" width="8" height="8" fill="#ff9800" opacity="0.85" rx="1"/>
<text x="498.0" y="219.13043478260872" text-anchor="middle" font-family="sans-serif" font-size="8" fill="#ff9800">前高</text>
<rect x="518.0" y="211.32173913043476" width="8" height="8" fill="#ff9800" opacity="0.85" rx="1"/>
<text x="522.0" y="209.32173913043476" text-anchor="middle" font-family="sans-serif" font-size="8" fill="#ff9800">前高</text>
<rect x="530.0" y="205.47826086956522" width="8" height="8" fill="#ff9800" opacity="0.85" rx="1"/>
<text x="534.0" y="203.47826086956522" text-anchor="middle" font-family="sans-serif" font-size="8" fill="#ff9800">前高</text>
<rect x="530.0" y="205.47826086956522" width="8" height="8" fill="#2196f3" opacity="0.85" rx="1"/>
<text x="534.0" y="203.47826086956522" text-anchor="middle" font-family="sans-serif" font-size="8" fill="#2196f3">突</text>
<rect x="554.0" y="194.73043478260868" width="8" height="8" fill="#ff9800" opacity="0.85" rx="1"/>
<text x="558.0" y="192.73043478260868" text-anchor="middle" font-family="sans-serif" font-size="8" fill="#ff9800">前高</text>
<rect x="614.0" y="187.89565217391308" width="8" height="8" fill="#ff9800" opacity="0.85" rx="1"/>
<text x="618.0" y="185.89565217391308" text-anchor="middle" font-family="sans-serif" font-size="8" fill="#ff9800">前高</text>
<rect x="638.0" y="181.11304347826086" width="8" height="8" fill="#ff9800" opacity="0.85" rx="1"/>
<text x="642.0" y="179.11304347826086" text-anchor="middle" font-family="sans-serif" font-size="8" fill="#ff9800">前高</text>
<rect x="650.0" y="144.74782608695654" width="8" height="8" fill="#ff9800" opacity="0.85" rx="1"/>
<text x="654.0" y="142.74782608695654" text-anchor="middle" font-family="sans-serif" font-size="8" fill="#ff9800">前高</text>
<rect x="662.0" y="130.86956521739134" width="8" height="8" fill="#ff9800" opacity="0.85" rx="1"/>
<text x="666.0" y="128.86956521739134" text-anchor="middle" font-family="sans-serif" font-size="8" fill="#ff9800">前高</text>
<rect x="674.0" y="84.69565217391303" width="8" height="8" fill="#ff9800" opacity="0.85" rx="1"/>
<text x="678.0" y="82.69565217391303" text-anchor="middle" font-family="sans-serif" font-size="8" fill="#ff9800">前高</text>
<rect x="674.0" y="84.69565217391303" width="8" height="8" fill="#2196f3" opacity="0.85" rx="1"/>
<text x="678.0" y="82.69565217391303" text-anchor="middle" font-family="sans-serif" font-size="8" fill="#2196f3">突</text>
<rect x="686.0" y="26.0" width="8" height="8" fill="#ff9800" opacity="0.85" rx="1"/>
<text x="690.0" y="24.0" text-anchor="middle" font-family="sans-serif" font-size="8" fill="#ff9800">前高</text>
<rect x="686.0" y="-6.478260869565183" width="8" height="8" fill="#ff9800" opacity="0.85" rx="1"/>
<text x="690.0" y="-8.478260869565183" text-anchor="middle" font-family="sans-serif" font-size="8" fill="#ff9800">量</text>
<text x="66.0" y="359" text-anchor="middle" font-family="sans-serif" font-size="8" fill="#666666" transform="rotate(-40,66.0,359)">02/26</text>
<text x="138.0" y="359" text-anchor="middle" font-family="sans-serif" font-size="8" fill="#666666" transform="rotate(-40,138.0,359)">03/06</text>
<text x="210.0" y="359" text-anchor="middle" font-family="sans-serif" font-size="8" fill="#666666" transform="rotate(-40,210.0,359)">03/16</text>
<text x="282.0" y="359" text-anchor="middle" font-family="sans-serif" font-size="8" fill="#666666" transform="rotate(-40,282.0,359)">03/24</text>
<text x="354.0" y="359" text-anchor="middle" font-family="sans-serif" font-size="8" fill="#666666" transform="rotate(-40,354.0,359)">04/01</text>
<text x="426.0" y="359" text-anchor="middle" font-family="sans-serif" font-size="8" fill="#666666" transform="rotate(-40,426.0,359)">04/10</text>
<text x="498.0" y="359" text-anchor="middle" font-family="sans-serif" font-size="8" fill="#666666" transform="rotate(-40,498.0,359)">04/20</text>
<text x="570.0" y="359" text-anchor="middle" font-family="sans-serif" font-size="8" fill="#666666" transform="rotate(-40,570.0,359)">04/28</text>
<text x="642.0" y="359" text-anchor="middle" font-family="sans-serif" font-size="8" fill="#666666" transform="rotate(-40,642.0,359)">05/11</text>
<text x="714.0" y="359" text-anchor="middle" font-family="sans-serif" font-size="8" fill="#666666" transform="rotate(-40,714.0,359)">05/19</text>
<text x="774.0" y="359" text-anchor="middle" font-family="sans-serif" font-size="8" fill="#666666" transform="rotate(-40,774.0,359)">05/26</text>
<text x="400.0" y="396" text-anchor="middle" font-family="sans-serif" font-size="9" fill="#555555">数据截至: 2026-05-26 21:28  |  最新K线: 20260526</text>
<rect x="50" y="373" width="8" height="8" fill="#ffd700" opacity="0.8" rx="1"/>
<text x="61" y="380" font-family="sans-serif" font-size="9" fill="#888888">EMA5</text>
<rect x="150" y="373" width="8" height="8" fill="#ff6b6b" opacity="0.8" rx="1"/>
<text x="161" y="380" font-family="sans-serif" font-size="9" fill="#888888">EMA10</text>
<rect x="250" y="373" width="8" height="8" fill="#4ecdc4" opacity="0.8" rx="1"/>
<text x="261" y="380" font-family="sans-serif" font-size="9" fill="#888888">EMA20</text>
<rect x="350" y="373" width="8" height="8" fill="#2196f3" opacity="0.8" rx="1"/>
<text x="361" y="380" font-family="sans-serif" font-size="9" fill="#888888">突破</text>
<rect x="450" y="373" width="8" height="8" fill="#ff9800" opacity="0.8" rx="1"/>
<text x="461" y="380" font-family="sans-serif" font-size="9" fill="#888888">前高/量</text>
<rect x="550" y="373" width="8" height="8" fill="#4caf50" opacity="0.8" rx="1"/>
<text x="561" y="380" font-family="sans-serif" font-size="9" fill="#888888">前低</text>
</svg>