<svg xmlns="http://www.w3.org/2000/svg" width="800" height="400" viewBox="0 0 800 400">
<rect width="800" height="400" fill="#1a1a2e"/>
<text x="400.0" y="20" text-anchor="middle" font-family="sans-serif" font-size="14" fill="#ffffff" font-weight="bold">春秋电子(603890) K线图</text>
<line x1="60" y1="30.0" x2="780" y2="30.0" stroke="#2a2a4e" stroke-width="0.5"/>
<text x="55" y="33.0" text-anchor="end" font-family="sans-serif" font-size="8" fill="#666666">24.73</text>
<line x1="60" y1="84.0" x2="780" y2="84.0" stroke="#2a2a4e" stroke-width="0.5"/>
<text x="55" y="87.0" text-anchor="end" font-family="sans-serif" font-size="8" fill="#666666">22.33</text>
<line x1="60" y1="138.0" x2="780" y2="138.0" stroke="#2a2a4e" stroke-width="0.5"/>
<text x="55" y="141.0" text-anchor="end" font-family="sans-serif" font-size="8" fill="#666666">19.92</text>
<line x1="60" y1="192.0" x2="780" y2="192.0" stroke="#2a2a4e" stroke-width="0.5"/>
<text x="55" y="195.0" text-anchor="end" font-family="sans-serif" font-size="8" fill="#666666">17.52</text>
<line x1="60" y1="246.0" x2="780" y2="246.0" stroke="#2a2a4e" stroke-width="0.5"/>
<text x="55" y="249.0" text-anchor="end" font-family="sans-serif" font-size="8" fill="#666666">15.11</text>
<line x1="60" y1="300.0" x2="780" y2="300.0" stroke="#2a2a4e" stroke-width="0.5"/>
<text x="55" y="303.0" text-anchor="end" font-family="sans-serif" font-size="8" fill="#666666">12.71</text>
<line x1="60" y1="300" x2="780" y2="300" stroke="#2a2a4e" stroke-width="0.5"/>
<line x1="60" y1="345" x2="780" y2="345" stroke="#2a2a4e" stroke-width="0.5"/>
<rect x="61.8" y="339.52021545154327" width="7.199999999999999" height="5.479784548456735" fill="#44aa44" opacity="0.3"/>
<rect x="73.8" y="339.1493623380541" width="7.199999999999999" height="5.850637661945882" fill="#44aa44" opacity="0.3"/>
<rect x="85.8" y="338.27954321732506" width="7.199999999999999" height="6.720456782674944" fill="#44aa44" opacity="0.3"/>
<rect x="97.8" y="340.82885137495236" width="7.199999999999999" height="4.1711486250476355" fill="#ff4444" opacity="0.3"/>
<rect x="109.8" y="338.9068453893052" width="7.199999999999999" height="6.093154610694796" fill="#ff4444" opacity="0.3"/>
<rect x="121.8" y="340.7693719833608" width="7.199999999999999" height="4.230628016639173" fill="#44aa44" opacity="0.3"/>
<rect x="133.8" y="339.41585859107073" width="7.199999999999999" height="5.58414140892927" fill="#44aa44" opacity="0.3"/>
<rect x="145.8" y="339.5979137558745" width="7.199999999999999" height="5.402086244125485" fill="#ff4444" opacity="0.3"/>
<rect x="157.8" y="339.43925739076593" width="7.199999999999999" height="5.560742609234069" fill="#ff4444" opacity="0.3"/>
<rect x="169.8" y="340.91168491204115" width="7.199999999999999" height="4.088315087958847" fill="#44aa44" opacity="0.3"/>
<rect x="181.8" y="342.07497142131336" width="7.199999999999999" height="2.9250285786866357" fill="#44aa44" opacity="0.3"/>
<rect x="193.8" y="342.04697323923534" width="7.199999999999999" height="2.953026760764658" fill="#ff4444" opacity="0.3"/>
<rect x="205.8" y="341.3315236806173" width="7.199999999999999" height="3.6684763193827052" fill="#44aa44" opacity="0.3"/>
<rect x="217.8" y="341.7894971341928" width="7.199999999999999" height="3.2105028658072" fill="#ff4444" opacity="0.3"/>
<rect x="229.8" y="341.6718779769465" width="7.199999999999999" height="3.3281220230534814" fill="#44aa44" opacity="0.3"/>
<rect x="241.8" y="341.41225847040516" width="7.199999999999999" height="3.5877415295948367" fill="#44aa44" opacity="0.3"/>
<rect x="253.8" y="338.3249118823828" width="7.199999999999999" height="6.675088117617179" fill="#44aa44" opacity="0.3"/>
<rect x="265.8" y="338.45923170964056" width="7.199999999999999" height="6.540768290359438" fill="#ff4444" opacity="0.3"/>
<rect x="277.8" y="340.9539724374444" width="7.199999999999999" height="4.046027562555594" fill="#ff4444" opacity="0.3"/>
<rect x="289.8" y="342.14079170900544" width="7.199999999999999" height="2.859208290994559" fill="#44aa44" opacity="0.3"/>
<rect x="301.8" y="342.0162064968881" width="7.199999999999999" height="2.983793503111883" fill="#ff4444" opacity="0.3"/>
<rect x="313.8" y="341.96949820589356" width="7.199999999999999" height="3.030501794106442" fill="#ff4444" opacity="0.3"/>
<rect x="325.8" y="341.7051007001778" width="7.199999999999999" height="3.294899299822191" fill="#ff4444" opacity="0.3"/>
<rect x="337.8" y="334.98258982439984" width="7.199999999999999" height="10.017410175600162" fill="#ff4444" opacity="0.3"/>
<rect x="349.8" y="338.3517490553156" width="7.199999999999999" height="6.648250944684378" fill="#44aa44" opacity="0.3"/>
<rect x="361.8" y="341.61489922043694" width="7.199999999999999" height="3.3851007795630608" fill="#44aa44" opacity="0.3"/>
<rect x="373.8" y="338.76654189953" width="7.199999999999999" height="6.2334581004699885" fill="#ff4444" opacity="0.3"/>
<rect x="385.8" y="322.29003596151404" width="7.199999999999999" height="22.709964038485964" fill="#ff4444" opacity="0.3"/>
<rect x="397.8" y="326.050187349168" width="7.199999999999999" height="18.949812650831973" fill="#ff4444" opacity="0.3"/>
<rect x="409.8" y="332.1474501460688" width="7.199999999999999" height="12.85254985393118" fill="#44aa44" opacity="0.3"/>
<rect x="421.8" y="337.15412346786485" width="7.199999999999999" height="7.845876532135151" fill="#ff4444" opacity="0.3"/>
<rect x="433.8" y="312.33112278515176" width="7.199999999999999" height="32.66887721484824" fill="#ff4444" opacity="0.3"/>
<rect x="445.8" y="314.8421622951861" width="7.199999999999999" height="30.157837704813915" fill="#ff4444" opacity="0.3"/>
<rect x="457.8" y="300.0" width="7.199999999999999" height="45.0" fill="#ff4444" opacity="0.3"/>
<rect x="469.8" y="314.0054765892925" width="7.199999999999999" height="30.994523410707473" fill="#ff4444" opacity="0.3"/>
<rect x="481.8" y="311.5597215165756" width="7.199999999999999" height="33.44027848342438" fill="#ff4444" opacity="0.3"/>
<rect x="493.8" y="314.97965257049407" width="7.199999999999999" height="30.020347429505932" fill="#ff4444" opacity="0.3"/>
<rect x="505.8" y="322.78971643592024" width="7.199999999999999" height="22.21028356407976" fill="#ff4444" opacity="0.3"/>
<rect x="517.8" y="321.9419118347517" width="7.199999999999999" height="23.058088165248307" fill="#44aa44" opacity="0.3"/>
<rect x="529.8" y="325.43753175409626" width="7.199999999999999" height="19.562468245903744" fill="#44aa44" opacity="0.3"/>
<rect x="541.8" y="330.473140996126" width="7.199999999999999" height="14.526859003873994" fill="#44aa44" opacity="0.3"/>
<rect x="553.8" y="321.9308822478725" width="7.199999999999999" height="23.06911775212751" fill="#ff4444" opacity="0.3"/>
<rect x="565.8" y="329.43310007303444" width="7.199999999999999" height="15.566899926965561" fill="#ff4444" opacity="0.3"/>
<rect x="577.8" y="334.18470861647404" width="7.199999999999999" height="10.81529138352596" fill="#44aa44" opacity="0.3"/>
<rect x="589.8" y="333.8753443334815" width="7.199999999999999" height="11.124655666518493" fill="#44aa44" opacity="0.3"/>
<rect x="601.8" y="325.8169584735806" width="7.199999999999999" height="19.1830415264194" fill="#ff4444" opacity="0.3"/>
<rect x="613.8" y="323.0603208751429" width="7.199999999999999" height="21.939679124857093" fill="#ff4444" opacity="0.3"/>
<rect x="625.8" y="324.4344645068589" width="7.199999999999999" height="20.565535493141113" fill="#44aa44" opacity="0.3"/>
<rect x="637.8" y="331.84835632859136" width="7.199999999999999" height="13.151643671408635" fill="#44aa44" opacity="0.3"/>
<rect x="649.8" y="324.60812468245905" width="7.199999999999999" height="20.39187531754095" fill="#ff4444" opacity="0.3"/>
<rect x="661.8" y="318.52390091134254" width="7.199999999999999" height="26.476099088657463" fill="#44aa44" opacity="0.3"/>
<rect x="673.8" y="327.30162124507814" width="7.199999999999999" height="17.698378754921862" fill="#44aa44" opacity="0.3"/>
<rect x="685.8" y="332.7637673853677" width="7.199999999999999" height="12.236232614632286" fill="#ff4444" opacity="0.3"/>
<rect x="697.8" y="332.4857056950972" width="7.199999999999999" height="12.514294304902819" fill="#ff4444" opacity="0.3"/>
<rect x="709.8" y="334.1013838832084" width="7.199999999999999" height="10.898616116791572" fill="#44aa44" opacity="0.3"/>
<rect x="721.8" y="309.2639598945764" width="7.199999999999999" height="35.736040105423626" fill="#ff4444" opacity="0.3"/>
<rect x="733.8" y="322.8980028658072" width="7.199999999999999" height="22.1019971341928" fill="#ff4444" opacity="0.3"/>
<rect x="745.8" y="306.37581568334815" width="7.199999999999999" height="38.62418431665185" fill="#44aa44" opacity="0.3"/>
<rect x="757.8" y="316.11726291597864" width="7.199999999999999" height="28.882737084021358" fill="#ff4444" opacity="0.3"/>
<rect x="769.8" y="316.975025403277" width="7.199999999999999" height="28.024974596722984" fill="#44aa44" opacity="0.3"/>
<polyline points="66.0,240.25 78.0,243.24 90.0,251.16 102.0,257.70 114.0,257.80 126.0,258.91 138.0,261.38 150.0,258.90 162.0,256.65 174.0,256.88 186.0,258.30 198.0,258.35 210.0,261.15 222.0,260.32 234.0,262.77 246.0,266.12 258.0,276.81 270.0,278.33 282.0,277.84 294.0,278.71 306.0,277.87 318.0,277.69 330.0,278.01 342.0,272.69 354.0,274.30 366.0,274.86 378.0,272.16 390.0,259.72 402.0,250.16 414.0,244.84 426.0,241.14 438.0,228.56 450.0,207.45 462.0,192.03 474.0,181.52 486.0,165.61 498.0,157.32 510.0,151.49 522.0,148.21 534.0,152.16 546.0,158.01 558.0,156.37 570.0,153.48 582.0,156.20 594.0,157.41 606.0,151.18 618.0,144.41 630.0,137.57 642.0,137.28 654.0,122.11 666.0,121.58 678.0,126.02 690.0,129.88 702.0,129.91 714.0,133.59 726.0,127.89 738.0,108.44 750.0,88.96 762.0,72.75 774.0,75.57" fill="none" stroke="#ffd700" stroke-width="0.8" opacity="0.7"/>
<polyline points="66.0,240.25 78.0,241.88 90.0,246.45 102.0,250.87 114.0,252.17 126.0,253.80 138.0,256.07 150.0,255.69 162.0,255.05 174.0,255.46 186.0,256.49 198.0,256.85 210.0,258.65 222.0,258.65 234.0,260.29 246.0,262.57 258.0,269.05 270.0,271.28 282.0,272.30 294.0,273.78 306.0,274.22 318.0,274.78 330.0,275.49 342.0,273.04 354.0,273.86 366.0,274.24 378.0,272.88 390.0,265.97 402.0,259.62 414.0,254.99 426.0,251.13 438.0,242.45 450.0,228.41 462.0,216.19 474.0,206.06 486.0,192.92 498.0,183.43 510.0,175.51 522.0,169.35 534.0,167.66 546.0,168.03 558.0,165.32 570.0,162.12 582.0,162.03 594.0,161.63 606.0,157.46 618.0,152.63 630.0,147.40 642.0,145.46 654.0,135.69 666.0,132.94 678.0,133.29 690.0,134.08 702.0,133.33 714.0,134.72 726.0,131.40 738.0,120.15 750.0,107.40 762.0,95.20 774.0,92.66" fill="none" stroke="#ff6b6b" stroke-width="0.8" opacity="0.7"/>
<polyline points="66.0,240.25 78.0,241.11 90.0,243.57 102.0,246.16 114.0,247.29 126.0,248.61 138.0,250.29 150.0,250.64 162.0,250.79 174.0,251.41 186.0,252.34 198.0,252.92 210.0,254.24 222.0,254.66 234.0,255.90 246.0,257.51 258.0,261.38 270.0,263.29 282.0,264.58 294.0,266.09 306.0,267.05 318.0,268.03 330.0,269.04 342.0,268.38 354.0,269.25 366.0,269.89 378.0,269.59 390.0,266.28 402.0,262.93 414.0,260.19 426.0,257.67 438.0,252.50 450.0,244.19 462.0,236.28 474.0,229.07 486.0,219.99 498.0,212.44 510.0,205.53 522.0,199.44 534.0,195.69 546.0,193.22 558.0,189.40 570.0,185.43 582.0,183.16 594.0,180.94 606.0,176.92 618.0,172.53 630.0,167.90 642.0,164.93 654.0,157.96 666.0,154.40 678.0,152.54 690.0,151.12 702.0,149.10 714.0,148.33 726.0,145.29 738.0,138.08 750.0,129.69 762.0,121.18 774.0,117.37" fill="none" stroke="#4ecdc4" stroke-width="0.8" opacity="0.7"/>
<line x1="66.0" y1="236.4309484193012" x2="66.0" y2="243.61896838602328" stroke="#44aa44" stroke-width="0.5" opacity="0.6"/>
<rect x="63.0" y="238.9018302828619" width="6.0" height="1.3477537437604212" fill="#44aa44" opacity="0.85"/>
<line x1="78.0" y1="242.27121464226292" x2="78.0" y2="252.82861896838602" stroke="#44aa44" stroke-width="0.5" opacity="0.6"/>
<rect x="75.0" y="244.51747088186357" width="6.0" height="4.717138103161403" fill="#44aa44" opacity="0.85"/>
<line x1="90.0" y1="246.5391014975042" x2="90.0" y2="268.3277870216307" stroke="#44aa44" stroke-width="0.5" opacity="0.6"/>
<rect x="87.0" y="247.43760399334442" width="6.0" height="19.54242928452581" fill="#44aa44" opacity="0.85"/>
<line x1="102.0" y1="263.16139767054915" x2="102.0" y2="273.26955074875207" stroke="#ff4444" stroke-width="0.5" opacity="0.6"/>
<rect x="99.0" y="270.7986688851914" width="6.0" height="0.898502495840205" fill="#ff4444" opacity="0.85"/>
<line x1="114.0" y1="252.3793677204659" x2="114.0" y2="264.5091514143095" stroke="#ff4444" stroke-width="0.5" opacity="0.6"/>
<rect x="111.0" y="257.99500831946756" width="6.0" height="6.514143094841927" fill="#ff4444" opacity="0.85"/>
<line x1="126.0" y1="256.64725457570717" x2="126.0" y2="263.6106489184692" stroke="#44aa44" stroke-width="0.5" opacity="0.6"/>
<rect x="123.0" y="259.7920133111481" width="6.0" height="1.3477537437604497" fill="#44aa44" opacity="0.85"/>
<line x1="138.0" y1="264.7337770382696" x2="138.0" y2="275.7404326123129" stroke="#44aa44" stroke-width="0.5" opacity="0.6"/>
<rect x="135.0" y="264.7337770382696" width="6.0" height="1.5723793677204299" fill="#44aa44" opacity="0.85"/>
<line x1="150.0" y1="253.0532445923461" x2="150.0" y2="262.03826955074874" stroke="#ff4444" stroke-width="0.5" opacity="0.6"/>
<rect x="147.0" y="253.95174708818638" width="6.0" height="8.086522462562357" fill="#ff4444" opacity="0.85"/>
<line x1="162.0" y1="241.37271214642266" x2="162.0" y2="253.72712146422634" stroke="#ff4444" stroke-width="0.5" opacity="0.6"/>
<rect x="159.0" y="252.15474209650583" width="6.0" height="0.5" fill="#ff4444" opacity="0.85"/>
<line x1="174.0" y1="250.80698835274544" x2="174.0" y2="259.56738768718805" stroke="#44aa44" stroke-width="0.5" opacity="0.6"/>
<rect x="171.0" y="254.62562396006658" width="6.0" height="2.695507487520814" fill="#44aa44" opacity="0.85"/>
<line x1="186.0" y1="254.62562396006658" x2="186.0" y2="262.26289517470883" stroke="#44aa44" stroke-width="0.5" opacity="0.6"/>
<rect x="183.0" y="259.34276206322795" width="6.0" height="1.7970049916805806" fill="#44aa44" opacity="0.85"/>
<line x1="198.0" y1="258.21963394342765" x2="198.0" y2="266.98003327787023" stroke="#ff4444" stroke-width="0.5" opacity="0.6"/>
<rect x="195.0" y="258.4442595673877" width="6.0" height="3.3693843594010104" fill="#ff4444" opacity="0.85"/>
<line x1="210.0" y1="256.64725457570717" x2="210.0" y2="267.6539101497504" stroke="#44aa44" stroke-width="0.5" opacity="0.6"/>
<rect x="207.0" y="257.09650582362735" width="6.0" height="9.658901830282844" fill="#44aa44" opacity="0.85"/>
<line x1="222.0" y1="258.21963394342765" x2="222.0" y2="266.98003327787023" stroke="#ff4444" stroke-width="0.5" opacity="0.6"/>
<rect x="219.0" y="258.6688851913477" width="6.0" height="8.08652246256247" fill="#ff4444" opacity="0.85"/>
<line x1="234.0" y1="261.13976705490853" x2="234.0" y2="268.77703826955076" stroke="#44aa44" stroke-width="0.5" opacity="0.6"/>
<rect x="231.0" y="262.4875207986689" width="6.0" height="5.166389351081477" fill="#44aa44" opacity="0.85"/>
<line x1="246.0" y1="263.16139767054915" x2="246.0" y2="273.04492512479203" stroke="#44aa44" stroke-width="0.5" opacity="0.6"/>
<rect x="243.0" y="265.8569051580699" width="6.0" height="6.963394342762115" fill="#44aa44" opacity="0.85"/>
<line x1="258.0" y1="276.41430948419304" x2="258.0" y2="300.0" stroke="#44aa44" stroke-width="0.5" opacity="0.6"/>
<rect x="255.0" y="282.2545757071548" width="6.0" height="15.948419301164677" fill="#44aa44" opacity="0.85"/>
<line x1="270.0" y1="281.35607321131454" x2="270.0" y2="291.0149750415974" stroke="#ff4444" stroke-width="0.5" opacity="0.6"/>
<rect x="267.0" y="281.35607321131454" width="6.0" height="3.3693843594009536" fill="#ff4444" opacity="0.85"/>
<line x1="282.0" y1="276.41430948419304" x2="282.0" y2="282.7038269550749" stroke="#ff4444" stroke-width="0.5" opacity="0.6"/>
<rect x="279.0" y="276.86356073211317" width="6.0" height="4.492512479201366" fill="#ff4444" opacity="0.85"/>
<line x1="294.0" y1="276.189683860233" x2="294.0" y2="282.92845257903497" stroke="#44aa44" stroke-width="0.5" opacity="0.6"/>
<rect x="291.0" y="277.76206322795343" width="6.0" height="2.6955074875207856" fill="#44aa44" opacity="0.85"/>
<line x1="306.0" y1="276.189683860233" x2="306.0" y2="285.1747088186356" stroke="#ff4444" stroke-width="0.5" opacity="0.6"/>
<rect x="303.0" y="276.189683860233" width="6.0" height="7.188019966722095" fill="#ff4444" opacity="0.85"/>
<line x1="318.0" y1="276.189683860233" x2="318.0" y2="284.0515806988353" stroke="#ff4444" stroke-width="0.5" opacity="0.6"/>
<rect x="315.0" y="277.3128119800333" width="6.0" height="4.941763727121497" fill="#ff4444" opacity="0.85"/>
<line x1="330.0" y1="270.7986688851914" x2="330.0" y2="279.33444259567386" stroke="#ff4444" stroke-width="0.5" opacity="0.6"/>
<rect x="327.0" y="278.6605657237937" width="6.0" height="0.5" fill="#ff4444" opacity="0.85"/>
<line x1="342.0" y1="252.60399334442596" x2="342.0" y2="273.04492512479203" stroke="#ff4444" stroke-width="0.5" opacity="0.6"/>
<rect x="339.0" y="262.03826955074874" width="6.0" height="11.006655574043293" fill="#ff4444" opacity="0.85"/>
<line x1="354.0" y1="261.8136439267887" x2="354.0" y2="279.559068219634" stroke="#44aa44" stroke-width="0.5" opacity="0.6"/>
<rect x="351.0" y="261.8136439267887" width="6.0" height="15.72379367720464" fill="#44aa44" opacity="0.85"/>
<line x1="366.0" y1="267.8785357737105" x2="366.0" y2="278.4359400998336" stroke="#44aa44" stroke-width="0.5" opacity="0.6"/>
<rect x="363.0" y="275.7404326123129" width="6.0" height="0.5" fill="#44aa44" opacity="0.85"/>
<line x1="378.0" y1="261.58901830282866" x2="378.0" y2="275.5158069883528" stroke="#ff4444" stroke-width="0.5" opacity="0.6"/>
<rect x="375.0" y="266.7554076539102" width="6.0" height="8.760399334442582" fill="#ff4444" opacity="0.85"/>
<line x1="390.0" y1="234.85856905158073" x2="390.0" y2="259.7920133111481" stroke="#ff4444" stroke-width="0.5" opacity="0.6"/>
<rect x="387.0" y="234.85856905158073" width="6.0" height="24.933444259567352" fill="#ff4444" opacity="0.85"/>
<line x1="402.0" y1="228.1198003327787" x2="402.0" y2="238.00332778702162" stroke="#ff4444" stroke-width="0.5" opacity="0.6"/>
<rect x="399.0" y="231.0399334442596" width="6.0" height="6.9633943427620295" fill="#ff4444" opacity="0.85"/>
<line x1="414.0" y1="226.99667221297838" x2="414.0" y2="234.40931780366057" stroke="#44aa44" stroke-width="0.5" opacity="0.6"/>
<rect x="411.0" y="228.7936772046589" width="6.0" height="5.3910149750416" fill="#44aa44" opacity="0.85"/>
<line x1="426.0" y1="226.54742096505825" x2="426.0" y2="238.22795341098168" stroke="#ff4444" stroke-width="0.5" opacity="0.6"/>
<rect x="423.0" y="233.73544093178037" width="6.0" height="3.594009983361076" fill="#ff4444" opacity="0.85"/>
<line x1="438.0" y1="198.46921797004993" x2="438.0" y2="232.38768718801995" stroke="#ff4444" stroke-width="0.5" opacity="0.6"/>
<rect x="435.0" y="203.41098169717134" width="6.0" height="23.81031613976714" fill="#ff4444" opacity="0.85"/>
<line x1="450.0" y1="165.22462562396007" x2="450.0" y2="200.49084858569051" stroke="#ff4444" stroke-width="0.5" opacity="0.6"/>
<rect x="447.0" y="165.22462562396007" width="6.0" height="35.26622296173045" fill="#ff4444" opacity="0.85"/>
<line x1="462.0" y1="150.17470881863565" x2="462.0" y2="181.1730449251248" stroke="#ff4444" stroke-width="0.5" opacity="0.6"/>
<rect x="459.0" y="161.18136439267886" width="6.0" height="7.637271214642283" fill="#ff4444" opacity="0.85"/>
<line x1="474.0" y1="154.89184692179697" x2="474.0" y2="171.06489184692182" stroke="#ff4444" stroke-width="0.5" opacity="0.6"/>
<rect x="471.0" y="160.50748752079863" width="6.0" height="2.6955074875208425" fill="#ff4444" opacity="0.85"/>
<line x1="486.0" y1="120.52412645590685" x2="486.0" y2="158.71048252911817" stroke="#ff4444" stroke-width="0.5" opacity="0.6"/>
<rect x="483.0" y="133.77703826955076" width="6.0" height="18.64392678868549" fill="#ff4444" opacity="0.85"/>
<line x1="498.0" y1="118.27787021630616" x2="498.0" y2="158.48585690515804" stroke="#ff4444" stroke-width="0.5" opacity="0.6"/>
<rect x="495.0" y="140.74043261231282" width="6.0" height="17.74542429284523" fill="#ff4444" opacity="0.85"/>
<line x1="510.0" y1="129.50915141430949" x2="510.0" y2="151.29783693843598" stroke="#ff4444" stroke-width="0.5" opacity="0.6"/>
<rect x="507.0" y="139.84193011647255" width="6.0" height="0.5" fill="#ff4444" opacity="0.85"/>
<line x1="522.0" y1="123.8935108153078" x2="522.0" y2="145.90682196339435" stroke="#44aa44" stroke-width="0.5" opacity="0.6"/>
<rect x="519.0" y="132.87853577371052" width="6.0" height="8.760399334442525" fill="#44aa44" opacity="0.85"/>
<line x1="534.0" y1="143.43594009983363" x2="534.0" y2="161.40599001663898" stroke="#44aa44" stroke-width="0.5" opacity="0.6"/>
<rect x="531.0" y="149.0515806988353" width="6.0" height="11.006655574043236" fill="#44aa44" opacity="0.85"/>
<line x1="546.0" y1="157.13810316139768" x2="546.0" y2="173.0865224625624" stroke="#44aa44" stroke-width="0.5" opacity="0.6"/>
<rect x="543.0" y="165.00000000000003" width="6.0" height="4.717138103161346" fill="#44aa44" opacity="0.85"/>
<line x1="558.0" y1="132.87853577371052" x2="558.0" y2="164.1014975041597" stroke="#ff4444" stroke-width="0.5" opacity="0.6"/>
<rect x="555.0" y="153.0948419301165" width="6.0" height="5.391014975041543" fill="#ff4444" opacity="0.85"/>
<line x1="570.0" y1="136.2479201331115" x2="570.0" y2="163.65224625623958" stroke="#ff4444" stroke-width="0.5" opacity="0.6"/>
<rect x="567.0" y="147.70382695507493" width="6.0" height="15.948419301164648" fill="#ff4444" opacity="0.85"/>
<line x1="582.0" y1="144.783693843594" x2="582.0" y2="161.630615640599" stroke="#44aa44" stroke-width="0.5" opacity="0.6"/>
<rect x="579.0" y="146.13144758735444" width="6.0" height="15.499168053244546" fill="#44aa44" opacity="0.85"/>
<line x1="594.0" y1="151.07321131447588" x2="594.0" y2="163.42762063227957" stroke="#44aa44" stroke-width="0.5" opacity="0.6"/>
<rect x="591.0" y="153.76871880199673" width="6.0" height="6.064891846921768" fill="#44aa44" opacity="0.85"/>
<line x1="606.0" y1="129.95840266222962" x2="606.0" y2="164.3261231281198" stroke="#ff4444" stroke-width="0.5" opacity="0.6"/>
<rect x="603.0" y="138.7188019966722" width="6.0" height="17.745424292845257" fill="#ff4444" opacity="0.85"/>
<line x1="618.0" y1="121.87188019966722" x2="618.0" y2="153.3194675540766" stroke="#ff4444" stroke-width="0.5" opacity="0.6"/>
<rect x="615.0" y="130.85690515806994" width="6.0" height="16.846921797004995" fill="#ff4444" opacity="0.85"/>
<line x1="630.0" y1="113.78535773710485" x2="630.0" y2="135.79866888519138" stroke="#44aa44" stroke-width="0.5" opacity="0.6"/>
<rect x="627.0" y="113.78535773710485" width="6.0" height="10.10815307820296" fill="#44aa44" opacity="0.85"/>
<line x1="642.0" y1="125.24126455906827" x2="642.0" y2="141.86356073211317" stroke="#44aa44" stroke-width="0.5" opacity="0.6"/>
<rect x="639.0" y="129.50915141430949" width="6.0" height="7.188019966722152" fill="#44aa44" opacity="0.85"/>
<line x1="654.0" y1="91.77204658901832" x2="654.0" y2="142.98668885191353" stroke="#ff4444" stroke-width="0.5" opacity="0.6"/>
<rect x="651.0" y="91.77204658901832" width="6.0" height="49.41763727121463" fill="#ff4444" opacity="0.85"/>
<line x1="666.0" y1="79.86688851913476" x2="666.0" y2="121.4226289517471" stroke="#44aa44" stroke-width="0.5" opacity="0.6"/>
<rect x="663.0" y="84.80865224625627" width="6.0" height="35.71547420965058" fill="#44aa44" opacity="0.85"/>
<line x1="678.0" y1="118.05324459234613" x2="678.0" y2="138.4941763727122" stroke="#44aa44" stroke-width="0.5" opacity="0.6"/>
<rect x="675.0" y="119.4009983361065" width="6.0" height="15.499168053244617" fill="#44aa44" opacity="0.85"/>
<line x1="690.0" y1="128.38602329450913" x2="690.0" y2="149.50083194675543" stroke="#ff4444" stroke-width="0.5" opacity="0.6"/>
<rect x="687.0" y="137.59567387687184" width="6.0" height="9.434276206322863" fill="#ff4444" opacity="0.85"/>
<line x1="702.0" y1="127.26289517470887" x2="702.0" y2="151.29783693843598" stroke="#ff4444" stroke-width="0.5" opacity="0.6"/>
<rect x="699.0" y="129.95840266222962" width="6.0" height="11.455906821963424" fill="#ff4444" opacity="0.85"/>
<line x1="714.0" y1="132.2046589018303" x2="714.0" y2="147.0299500831947" stroke="#44aa44" stroke-width="0.5" opacity="0.6"/>
<rect x="711.0" y="134.450915141431" width="6.0" height="6.514143094841899" fill="#44aa44" opacity="0.85"/>
<line x1="726.0" y1="96.48918469217972" x2="726.0" y2="143.43594009983363" stroke="#ff4444" stroke-width="0.5" opacity="0.6"/>
<rect x="723.0" y="116.48086522462565" width="6.0" height="20.21630615640599" fill="#ff4444" opacity="0.85"/>
<line x1="738.0" y1="69.53410981697175" x2="738.0" y2="114.00998336106494" stroke="#ff4444" stroke-width="0.5" opacity="0.6"/>
<rect x="735.0" y="69.53410981697175" width="6.0" height="44.47587354409319" fill="#ff4444" opacity="0.85"/>
<line x1="750.0" y1="30.0" x2="750.0" y2="56.73044925124795" stroke="#44aa44" stroke-width="0.5" opacity="0.6"/>
<rect x="747.0" y="46.397670549084864" width="6.0" height="3.594009983361076" fill="#44aa44" opacity="0.85"/>
<line x1="762.0" y1="36.06489184692179" x2="762.0" y2="65.71547420965058" stroke="#ff4444" stroke-width="0.5" opacity="0.6"/>
<rect x="759.0" y="40.33277870216308" width="6.0" height="16.17304492512477" fill="#ff4444" opacity="0.85"/>
<line x1="774.0" y1="36.51414309484191" x2="774.0" y2="91.09816971713808" stroke="#44aa44" stroke-width="0.5" opacity="0.6"/>
<rect x="771.0" y="52.687188019966754" width="6.0" height="28.527454242928457" fill="#44aa44" opacity="0.85"/>
<rect x="134.0" y="271.7404326123129" width="8" height="8" fill="#4caf50" opacity="0.85" rx="1"/>
<text x="138.0" y="269.7404326123129" text-anchor="middle" font-family="sans-serif" font-size="8" fill="#4caf50">前低</text>
<rect x="254.0" y="296.0" width="8" height="8" fill="#4caf50" opacity="0.85" rx="1"/>
<text x="258.0" y="294.0" text-anchor="middle" font-family="sans-serif" font-size="8" fill="#4caf50">前低</text>
<rect x="338.0" y="248.60399334442596" width="8" height="8" fill="#ff9800" opacity="0.85" rx="1"/>
<text x="342.0" y="246.60399334442596" text-anchor="middle" font-family="sans-serif" font-size="8" fill="#ff9800">前高</text>
<rect x="338.0" y="238.38352745424294" width="8" height="8" fill="#ff9800" opacity="0.85" rx="1"/>
<text x="342.0" y="236.38352745424294" text-anchor="middle" font-family="sans-serif" font-size="8" fill="#ff9800">量</text>
<rect x="386.0" y="230.85856905158073" width="8" height="8" fill="#ff9800" opacity="0.85" rx="1"/>
<text x="390.0" y="228.85856905158073" text-anchor="middle" font-family="sans-serif" font-size="8" fill="#ff9800">前高</text>
<rect x="386.0" y="218.39184692179705" width="8" height="8" fill="#ff9800" opacity="0.85" rx="1"/>
<text x="390.0" y="216.39184692179705" text-anchor="middle" font-family="sans-serif" font-size="8" fill="#ff9800">量</text>
<rect x="386.0" y="230.85856905158073" width="8" height="8" fill="#2196f3" opacity="0.85" rx="1"/>
<text x="390.0" y="228.85856905158073" text-anchor="middle" font-family="sans-serif" font-size="8" fill="#2196f3">突</text>
<rect x="398.0" y="224.1198003327787" width="8" height="8" fill="#ff9800" opacity="0.85" rx="1"/>
<text x="402.0" y="222.1198003327787" text-anchor="middle" font-family="sans-serif" font-size="8" fill="#ff9800">前高</text>
<rect x="398.0" y="224.1198003327787" width="8" height="8" fill="#2196f3" opacity="0.85" rx="1"/>
<text x="402.0" y="222.1198003327787" text-anchor="middle" font-family="sans-serif" font-size="8" fill="#2196f3">突</text>
<rect x="410.0" y="222.99667221297838" width="8" height="8" fill="#ff9800" opacity="0.85" rx="1"/>
<text x="414.0" y="220.99667221297838" text-anchor="middle" font-family="sans-serif" font-size="8" fill="#ff9800">前高</text>
<rect x="422.0" y="222.54742096505825" width="8" height="8" fill="#ff9800" opacity="0.85" rx="1"/>
<text x="426.0" y="220.54742096505825" text-anchor="middle" font-family="sans-serif" font-size="8" fill="#ff9800">前高</text>
<rect x="434.0" y="194.46921797004993" width="8" height="8" fill="#ff9800" opacity="0.85" rx="1"/>
<text x="438.0" y="192.46921797004993" text-anchor="middle" font-family="sans-serif" font-size="8" fill="#ff9800">前高</text>
<rect x="434.0" y="194.46921797004993" width="8" height="8" fill="#2196f3" opacity="0.85" rx="1"/>
<text x="438.0" y="192.46921797004993" text-anchor="middle" font-family="sans-serif" font-size="8" fill="#2196f3">突</text>
<rect x="446.0" y="161.22462562396007" width="8" height="8" fill="#ff9800" opacity="0.85" rx="1"/>
<text x="450.0" y="159.22462562396007" text-anchor="middle" font-family="sans-serif" font-size="8" fill="#ff9800">前高</text>
<rect x="446.0" y="161.22462562396007" width="8" height="8" fill="#2196f3" opacity="0.85" rx="1"/>
<text x="450.0" y="159.22462562396007" text-anchor="middle" font-family="sans-serif" font-size="8" fill="#2196f3">突</text>
<rect x="458.0" y="146.17470881863565" width="8" height="8" fill="#ff9800" opacity="0.85" rx="1"/>
<text x="462.0" y="144.17470881863565" text-anchor="middle" font-family="sans-serif" font-size="8" fill="#ff9800">前高</text>
<rect x="482.0" y="116.52412645590685" width="8" height="8" fill="#ff9800" opacity="0.85" rx="1"/>
<text x="486.0" y="114.52412645590685" text-anchor="middle" font-family="sans-serif" font-size="8" fill="#ff9800">前高</text>
<rect x="494.0" y="114.27787021630616" width="8" height="8" fill="#ff9800" opacity="0.85" rx="1"/>
<text x="498.0" y="112.27787021630616" text-anchor="middle" font-family="sans-serif" font-size="8" fill="#ff9800">前高</text>
<rect x="626.0" y="109.78535773710485" width="8" height="8" fill="#ff9800" opacity="0.85" rx="1"/>
<text x="630.0" y="107.78535773710485" text-anchor="middle" font-family="sans-serif" font-size="8" fill="#ff9800">前高</text>
<rect x="650.0" y="87.77204658901832" width="8" height="8" fill="#ff9800" opacity="0.85" rx="1"/>
<text x="654.0" y="85.77204658901832" text-anchor="middle" font-family="sans-serif" font-size="8" fill="#ff9800">前高</text>
<rect x="650.0" y="87.77204658901832" width="8" height="8" fill="#2196f3" opacity="0.85" rx="1"/>
<text x="654.0" y="85.77204658901832" text-anchor="middle" font-family="sans-serif" font-size="8" fill="#2196f3">突</text>
<rect x="662.0" y="75.86688851913476" width="8" height="8" fill="#ff9800" opacity="0.85" rx="1"/>
<text x="666.0" y="73.86688851913476" text-anchor="middle" font-family="sans-serif" font-size="8" fill="#ff9800">前高</text>
<rect x="734.0" y="65.53410981697175" width="8" height="8" fill="#ff9800" opacity="0.85" rx="1"/>
<text x="738.0" y="63.53410981697175" text-anchor="middle" font-family="sans-serif" font-size="8" fill="#ff9800">前高</text>
<rect x="734.0" y="65.53410981697175" width="8" height="8" fill="#2196f3" opacity="0.85" rx="1"/>
<text x="738.0" y="63.53410981697175" text-anchor="middle" font-family="sans-serif" font-size="8" fill="#2196f3">突</text>
<rect x="746.0" y="26.0" width="8" height="8" fill="#ff9800" opacity="0.85" rx="1"/>
<text x="750.0" y="24.0" text-anchor="middle" font-family="sans-serif" font-size="8" fill="#ff9800">前高</text>
<text x="66.0" y="359" text-anchor="middle" font-family="sans-serif" font-size="8" fill="#666666" transform="rotate(-40,66.0,359)">02/27</text>
<text x="138.0" y="359" text-anchor="middle" font-family="sans-serif" font-size="8" fill="#666666" transform="rotate(-40,138.0,359)">03/09</text>
<text x="210.0" y="359" text-anchor="middle" font-family="sans-serif" font-size="8" fill="#666666" transform="rotate(-40,210.0,359)">03/17</text>
<text x="282.0" y="359" text-anchor="middle" font-family="sans-serif" font-size="8" fill="#666666" transform="rotate(-40,282.0,359)">03/25</text>
<text x="354.0" y="359" text-anchor="middle" font-family="sans-serif" font-size="8" fill="#666666" transform="rotate(-40,354.0,359)">04/02</text>
<text x="426.0" y="359" text-anchor="middle" font-family="sans-serif" font-size="8" fill="#666666" transform="rotate(-40,426.0,359)">04/13</text>
<text x="498.0" y="359" text-anchor="middle" font-family="sans-serif" font-size="8" fill="#666666" transform="rotate(-40,498.0,359)">04/21</text>
<text x="570.0" y="359" text-anchor="middle" font-family="sans-serif" font-size="8" fill="#666666" transform="rotate(-40,570.0,359)">04/29</text>
<text x="642.0" y="359" text-anchor="middle" font-family="sans-serif" font-size="8" fill="#666666" transform="rotate(-40,642.0,359)">05/12</text>
<text x="714.0" y="359" text-anchor="middle" font-family="sans-serif" font-size="8" fill="#666666" transform="rotate(-40,714.0,359)">05/20</text>
<text x="774.0" y="359" text-anchor="middle" font-family="sans-serif" font-size="8" fill="#666666" transform="rotate(-40,774.0,359)">05/27</text>
<text x="400.0" y="396" text-anchor="middle" font-family="sans-serif" font-size="9" fill="#555555">数据截至: 2026-05-27 20:58  |  最新K线: 20260527</text>
<rect x="50" y="373" width="8" height="8" fill="#ffd700" opacity="0.8" rx="1"/>
<text x="61" y="380" font-family="sans-serif" font-size="9" fill="#888888">EMA5</text>
<rect x="150" y="373" width="8" height="8" fill="#ff6b6b" opacity="0.8" rx="1"/>
<text x="161" y="380" font-family="sans-serif" font-size="9" fill="#888888">EMA10</text>
<rect x="250" y="373" width="8" height="8" fill="#4ecdc4" opacity="0.8" rx="1"/>
<text x="261" y="380" font-family="sans-serif" font-size="9" fill="#888888">EMA20</text>
<rect x="350" y="373" width="8" height="8" fill="#2196f3" opacity="0.8" rx="1"/>
<text x="361" y="380" font-family="sans-serif" font-size="9" fill="#888888">突破</text>
<rect x="450" y="373" width="8" height="8" fill="#ff9800" opacity="0.8" rx="1"/>
<text x="461" y="380" font-family="sans-serif" font-size="9" fill="#888888">前高/量</text>
<rect x="550" y="373" width="8" height="8" fill="#4caf50" opacity="0.8" rx="1"/>
<text x="561" y="380" font-family="sans-serif" font-size="9" fill="#888888">前低</text>
</svg>