<svg xmlns="http://www.w3.org/2000/svg" width="800" height="400" viewBox="0 0 800 400">
<rect width="800" height="400" fill="#1a1a2e"/>
<text x="400.0" y="20" text-anchor="middle" font-family="sans-serif" font-size="14" fill="#ffffff" font-weight="bold">中国铝业(601600) K线图</text>
<line x1="60" y1="30.0" x2="780" y2="30.0" stroke="#2a2a4e" stroke-width="0.5"/>
<text x="55" y="33.0" text-anchor="end" font-family="sans-serif" font-size="8" fill="#666666">15.20</text>
<line x1="60" y1="83.99999999999997" x2="780" y2="83.99999999999997" stroke="#2a2a4e" stroke-width="0.5"/>
<text x="55" y="86.99999999999997" text-anchor="end" font-family="sans-serif" font-size="8" fill="#666666">14.23</text>
<line x1="60" y1="137.99999999999994" x2="780" y2="137.99999999999994" stroke="#2a2a4e" stroke-width="0.5"/>
<text x="55" y="140.99999999999994" text-anchor="end" font-family="sans-serif" font-size="8" fill="#666666">13.26</text>
<line x1="60" y1="192.00000000000006" x2="780" y2="192.00000000000006" stroke="#2a2a4e" stroke-width="0.5"/>
<text x="55" y="195.00000000000006" text-anchor="end" font-family="sans-serif" font-size="8" fill="#666666">12.28</text>
<line x1="60" y1="246.0" x2="780" y2="246.0" stroke="#2a2a4e" stroke-width="0.5"/>
<text x="55" y="249.0" text-anchor="end" font-family="sans-serif" font-size="8" fill="#666666">11.31</text>
<line x1="60" y1="300.0" x2="780" y2="300.0" stroke="#2a2a4e" stroke-width="0.5"/>
<text x="55" y="303.0" text-anchor="end" font-family="sans-serif" font-size="8" fill="#666666">10.34</text>
<line x1="60" y1="300" x2="780" y2="300" stroke="#2a2a4e" stroke-width="0.5"/>
<line x1="60" y1="345" x2="780" y2="345" stroke="#2a2a4e" stroke-width="0.5"/>
<rect x="61.8" y="328.4430023864768" width="7.199999999999999" height="16.556997613523208" fill="#44aa44" opacity="0.3"/>
<rect x="73.8" y="325.7476105235279" width="7.199999999999999" height="19.252389476472104" fill="#ff4444" opacity="0.3"/>
<rect x="85.8" y="311.4759124177841" width="7.199999999999999" height="33.524087582215884" fill="#ff4444" opacity="0.3"/>
<rect x="97.8" y="313.29094815250573" width="7.199999999999999" height="31.709051847494266" fill="#44aa44" opacity="0.3"/>
<rect x="109.8" y="311.420421460732" width="7.199999999999999" height="33.57957853926803" fill="#ff4444" opacity="0.3"/>
<rect x="121.8" y="307.0665191203581" width="7.199999999999999" height="37.93348087964188" fill="#44aa44" opacity="0.3"/>
<rect x="133.8" y="318.604413933149" width="7.199999999999999" height="26.395586066851024" fill="#44aa44" opacity="0.3"/>
<rect x="145.8" y="319.0979997927982" width="7.199999999999999" height="25.90200020720181" fill="#44aa44" opacity="0.3"/>
<rect x="157.8" y="326.08918376955046" width="7.199999999999999" height="18.91081623044954" fill="#ff4444" opacity="0.3"/>
<rect x="169.8" y="325.57319871226656" width="7.199999999999999" height="19.42680128773344" fill="#ff4444" opacity="0.3"/>
<rect x="181.8" y="309.04497910630585" width="7.199999999999999" height="35.955020893694154" fill="#ff4444" opacity="0.3"/>
<rect x="193.8" y="317.18541356345906" width="7.199999999999999" height="27.814586436540935" fill="#44aa44" opacity="0.3"/>
<rect x="205.8" y="311.78833672898475" width="7.199999999999999" height="33.211663271015254" fill="#44aa44" opacity="0.3"/>
<rect x="217.8" y="322.4195459055433" width="7.199999999999999" height="22.580454094456684" fill="#44aa44" opacity="0.3"/>
<rect x="229.8" y="322.6324620895374" width="7.199999999999999" height="22.3675379104626" fill="#44aa44" opacity="0.3"/>
<rect x="241.8" y="318.3181909646019" width="7.199999999999999" height="26.68180903539809" fill="#44aa44" opacity="0.3"/>
<rect x="253.8" y="324.27589939361593" width="7.199999999999999" height="20.72410060638407" fill="#44aa44" opacity="0.3"/>
<rect x="265.8" y="321.1603784153594" width="7.199999999999999" height="23.83962158464061" fill="#ff4444" opacity="0.3"/>
<rect x="277.8" y="326.02088070655" width="7.199999999999999" height="18.979119293450026" fill="#ff4444" opacity="0.3"/>
<rect x="289.8" y="326.22460800431594" width="7.199999999999999" height="18.77539199568406" fill="#44aa44" opacity="0.3"/>
<rect x="301.8" y="331.2296117024335" width="7.199999999999999" height="13.770388297566512" fill="#44aa44" opacity="0.3"/>
<rect x="313.8" y="331.64169993591406" width="7.199999999999999" height="13.358300064085938" fill="#ff4444" opacity="0.3"/>
<rect x="325.8" y="300.0" width="7.199999999999999" height="45.0" fill="#44aa44" opacity="0.3"/>
<rect x="337.8" y="316.24118061150375" width="7.199999999999999" height="28.75881938849625" fill="#44aa44" opacity="0.3"/>
<rect x="349.8" y="323.80394113822155" width="7.199999999999999" height="21.196058861778454" fill="#44aa44" opacity="0.3"/>
<rect x="361.8" y="320.80939932300197" width="7.199999999999999" height="24.19060067699803" fill="#44aa44" opacity="0.3"/>
<rect x="373.8" y="328.86562647270637" width="7.199999999999999" height="16.134373527293633" fill="#44aa44" opacity="0.3"/>
<rect x="385.8" y="328.6957797523736" width="7.199999999999999" height="16.304220247626404" fill="#ff4444" opacity="0.3"/>
<rect x="397.8" y="311.9871624578343" width="7.199999999999999" height="33.0128375421657" fill="#ff4444" opacity="0.3"/>
<rect x="409.8" y="315.6680382366855" width="7.199999999999999" height="29.331961763314496" fill="#ff4444" opacity="0.3"/>
<rect x="421.8" y="321.9209724241033" width="7.199999999999999" height="23.079027575896703" fill="#44aa44" opacity="0.3"/>
<rect x="433.8" y="327.79383075038163" width="7.199999999999999" height="17.20616924961837" fill="#44aa44" opacity="0.3"/>
<rect x="445.8" y="326.6408211513991" width="7.199999999999999" height="18.35917884860089" fill="#44aa44" opacity="0.3"/>
<rect x="457.8" y="329.7486725266112" width="7.199999999999999" height="15.251327473388812" fill="#44aa44" opacity="0.3"/>
<rect x="469.8" y="323.60187471717614" width="7.199999999999999" height="21.398125282823855" fill="#ff4444" opacity="0.3"/>
<rect x="481.8" y="331.3478683887465" width="7.199999999999999" height="13.65213161125348" fill="#44aa44" opacity="0.3"/>
<rect x="493.8" y="324.8693198048966" width="7.199999999999999" height="20.130680195103423" fill="#44aa44" opacity="0.3"/>
<rect x="505.8" y="332.12653483691264" width="7.199999999999999" height="12.87346516308736" fill="#44aa44" opacity="0.3"/>
<rect x="517.8" y="330.95783549292616" width="7.199999999999999" height="14.042164507073835" fill="#ff4444" opacity="0.3"/>
<rect x="529.8" y="328.76903064474095" width="7.199999999999999" height="16.23096935525905" fill="#44aa44" opacity="0.3"/>
<rect x="541.8" y="330.5039831419607" width="7.199999999999999" height="14.496016858039297" fill="#ff4444" opacity="0.3"/>
<rect x="553.8" y="330.8799089907425" width="7.199999999999999" height="14.120091009257521" fill="#44aa44" opacity="0.3"/>
<rect x="565.8" y="330.41019816364667" width="7.199999999999999" height="14.589801836353331" fill="#44aa44" opacity="0.3"/>
<rect x="577.8" y="330.78701681100085" width="7.199999999999999" height="14.212983188999146" fill="#ff4444" opacity="0.3"/>
<rect x="589.8" y="330.6576227454733" width="7.199999999999999" height="14.342377254526696" fill="#44aa44" opacity="0.3"/>
<rect x="601.8" y="321.2528250043181" width="7.199999999999999" height="23.747174995681917" fill="#ff4444" opacity="0.3"/>
<rect x="613.8" y="327.6429776711164" width="7.199999999999999" height="17.357022328883602" fill="#44aa44" opacity="0.3"/>
<rect x="625.8" y="331.3892652348131" width="7.199999999999999" height="13.610734765186919" fill="#ff4444" opacity="0.3"/>
<rect x="637.8" y="326.6898621502319" width="7.199999999999999" height="18.310137849768125" fill="#44aa44" opacity="0.3"/>
<rect x="649.8" y="332.20752978493397" width="7.199999999999999" height="12.792470215066032" fill="#44aa44" opacity="0.3"/>
<rect x="661.8" y="329.6550066443505" width="7.199999999999999" height="15.344993355649478" fill="#ff4444" opacity="0.3"/>
<rect x="673.8" y="326.8236418189523" width="7.199999999999999" height="18.176358181047704" fill="#44aa44" opacity="0.3"/>
<rect x="685.8" y="321.3917912569492" width="7.199999999999999" height="23.608208743050795" fill="#44aa44" opacity="0.3"/>
<rect x="697.8" y="328.3761321319577" width="7.199999999999999" height="16.623867868042282" fill="#44aa44" opacity="0.3"/>
<rect x="709.8" y="330.58075819481616" width="7.199999999999999" height="14.419241805183844" fill="#ff4444" opacity="0.3"/>
<rect x="721.8" y="327.7656480824767" width="7.199999999999999" height="17.234351917523327" fill="#ff4444" opacity="0.3"/>
<rect x="733.8" y="325.6494222955574" width="7.199999999999999" height="19.350577704442628" fill="#44aa44" opacity="0.3"/>
<rect x="745.8" y="330.69916526274557" width="7.199999999999999" height="14.300834737254434" fill="#ff4444" opacity="0.3"/>
<rect x="757.8" y="331.5383846720595" width="7.199999999999999" height="13.461615327940478" fill="#44aa44" opacity="0.3"/>
<rect x="769.8" y="306.6428662663902" width="7.199999999999999" height="38.35713373360983" fill="#ff4444" opacity="0.3"/>
<polyline points="66.0,126.67 78.0,121.85 90.0,108.46 102.0,105.08 114.0,93.94 126.0,80.22 138.0,86.26 150.0,89.36 162.0,97.35 174.0,97.86 186.0,83.39 198.0,86.33 210.0,98.30 222.0,115.90 234.0,134.68 246.0,162.19 258.0,186.09 270.0,210.91 282.0,222.83 294.0,226.89 306.0,233.29 318.0,235.16 330.0,226.59 342.0,231.43 354.0,231.69 366.0,229.65 378.0,236.99 390.0,238.55 402.0,224.03 414.0,204.35 426.0,199.01 438.0,198.97 450.0,193.39 462.0,192.63 474.0,182.86 486.0,178.39 498.0,182.45 510.0,188.11 522.0,193.19 534.0,199.90 546.0,201.23 558.0,203.78 570.0,211.41 582.0,211.87 594.0,216.99 606.0,211.32 618.0,211.25 630.0,211.95 642.0,214.63 654.0,218.27 666.0,217.18 678.0,221.27 690.0,236.59 702.0,254.39 714.0,262.93 726.0,263.06 738.0,266.12 750.0,262.41 762.0,262.90 774.0,242.86" fill="none" stroke="#ffd700" stroke-width="0.8" opacity="0.7"/>
<polyline points="66.0,126.67 78.0,124.04 90.0,116.34 102.0,113.06 114.0,105.54 126.0,95.94 138.0,96.38 150.0,96.23 162.0,99.34 174.0,99.26 186.0,91.11 198.0,91.31 210.0,96.93 222.0,106.78 234.0,118.68 246.0,136.60 258.0,154.29 270.0,173.61 282.0,186.89 294.0,195.64 306.0,204.82 318.0,211.01 330.0,210.73 342.0,216.25 354.0,219.15 366.0,220.32 378.0,226.02 390.0,228.86 402.0,222.71 414.0,212.21 426.0,207.87 438.0,206.24 450.0,201.87 462.0,199.92 474.0,193.26 486.0,188.93 498.0,189.23 510.0,191.09 522.0,193.31 534.0,196.95 546.0,198.21 558.0,200.15 570.0,204.98 582.0,206.39 594.0,210.18 606.0,208.33 618.0,208.84 630.0,209.65 642.0,211.53 654.0,214.08 666.0,214.25 678.0,217.01 690.0,226.14 702.0,237.75 714.0,245.43 726.0,248.69 738.0,252.97 750.0,253.34 762.0,255.26 774.0,245.71" fill="none" stroke="#ff6b6b" stroke-width="0.8" opacity="0.7"/>
<polyline points="66.0,126.67 78.0,125.29 90.0,121.14 102.0,118.96 114.0,114.46 126.0,108.59 138.0,107.61 150.0,106.46 162.0,107.12 174.0,106.33 186.0,101.39 198.0,100.52 210.0,102.58 222.0,107.21 234.0,113.40 246.0,123.29 258.0,133.82 270.0,145.89 282.0,155.49 294.0,163.06 306.0,170.97 318.0,177.44 330.0,180.49 342.0,186.26 354.0,190.64 366.0,193.96 378.0,199.46 390.0,203.48 402.0,202.67 414.0,199.08 426.0,198.06 438.0,198.14 450.0,196.62 462.0,196.10 474.0,192.98 486.0,190.74 498.0,190.72 510.0,191.55 522.0,192.67 534.0,194.64 546.0,195.52 558.0,196.79 570.0,199.64 582.0,200.89 594.0,203.40 606.0,203.07 618.0,203.84 630.0,204.74 642.0,206.20 654.0,208.04 666.0,208.70 678.0,210.68 690.0,216.06 702.0,223.11 714.0,228.52 726.0,231.84 738.0,235.69 750.0,237.52 762.0,240.04 774.0,236.49" fill="none" stroke="#4ecdc4" stroke-width="0.8" opacity="0.7"/>
<line x1="66.0" y1="108.88888888888889" x2="66.0" y2="133.33333333333331" stroke="#44aa44" stroke-width="0.5" opacity="0.6"/>
<rect x="63.0" y="110.55555555555551" width="6.0" height="16.11111111111107" fill="#44aa44" opacity="0.85"/>
<line x1="78.0" y1="101.11111111111109" x2="78.0" y2="134.4444444444444" stroke="#ff4444" stroke-width="0.5" opacity="0.6"/>
<rect x="75.0" y="112.22222222222216" width="6.0" height="20.555555555555614" fill="#ff4444" opacity="0.85"/>
<line x1="90.0" y1="79.44444444444439" x2="90.0" y2="126.11111111111104" stroke="#ff4444" stroke-width="0.5" opacity="0.6"/>
<rect x="87.0" y="81.66666666666666" width="6.0" height="21.6666666666666" fill="#ff4444" opacity="0.85"/>
<line x1="102.0" y1="66.11111111111103" x2="102.0" y2="107.77777777777771" stroke="#44aa44" stroke-width="0.5" opacity="0.6"/>
<rect x="99.0" y="80.55555555555557" width="6.0" height="17.777777777777686" fill="#44aa44" opacity="0.85"/>
<line x1="114.0" y1="49.44444444444443" x2="114.0" y2="90.55555555555556" stroke="#ff4444" stroke-width="0.5" opacity="0.6"/>
<rect x="111.0" y="71.66666666666667" width="6.0" height="15.555555555555529" fill="#ff4444" opacity="0.85"/>
<line x1="126.0" y1="30.0" x2="126.0" y2="72.22222222222221" stroke="#44aa44" stroke-width="0.5" opacity="0.6"/>
<rect x="123.0" y="49.44444444444443" width="6.0" height="3.333333333333357" fill="#44aa44" opacity="0.85"/>
<line x1="138.0" y1="74.99999999999994" x2="138.0" y2="112.7777777777777" stroke="#44aa44" stroke-width="0.5" opacity="0.6"/>
<rect x="135.0" y="74.99999999999994" width="6.0" height="23.333333333333314" fill="#44aa44" opacity="0.85"/>
<line x1="150.0" y1="72.22222222222221" x2="150.0" y2="103.33333333333326" stroke="#44aa44" stroke-width="0.5" opacity="0.6"/>
<rect x="147.0" y="79.99999999999993" width="6.0" height="15.555555555555614" fill="#44aa44" opacity="0.85"/>
<line x1="162.0" y1="106.66666666666661" x2="162.0" y2="123.88888888888887" stroke="#ff4444" stroke-width="0.5" opacity="0.6"/>
<rect x="159.0" y="113.33333333333334" width="6.0" height="7.222222222222172" fill="#ff4444" opacity="0.85"/>
<line x1="174.0" y1="93.33333333333329" x2="174.0" y2="114.44444444444443" stroke="#ff4444" stroke-width="0.5" opacity="0.6"/>
<rect x="171.0" y="98.88888888888881" width="6.0" height="11.111111111111171" fill="#ff4444" opacity="0.85"/>
<line x1="186.0" y1="46.666666666666615" x2="186.0" y2="95.0" stroke="#ff4444" stroke-width="0.5" opacity="0.6"/>
<rect x="183.0" y="54.444444444444414" width="6.0" height="31.111111111111157" fill="#ff4444" opacity="0.85"/>
<line x1="198.0" y1="41.11111111111107" x2="198.0" y2="98.33333333333326" stroke="#44aa44" stroke-width="0.5" opacity="0.6"/>
<rect x="195.0" y="57.777777777777786" width="6.0" height="34.4444444444444" fill="#44aa44" opacity="0.85"/>
<line x1="210.0" y1="82.77777777777774" x2="210.0" y2="148.88888888888886" stroke="#44aa44" stroke-width="0.5" opacity="0.6"/>
<rect x="207.0" y="86.66666666666666" width="6.0" height="35.555555555555586" fill="#44aa44" opacity="0.85"/>
<line x1="222.0" y1="101.11111111111109" x2="222.0" y2="152.22222222222217" stroke="#44aa44" stroke-width="0.5" opacity="0.6"/>
<rect x="219.0" y="119.44444444444443" width="6.0" height="31.666666666666686" fill="#44aa44" opacity="0.85"/>
<line x1="234.0" y1="155.0" x2="234.0" y2="182.7777777777778" stroke="#44aa44" stroke-width="0.5" opacity="0.6"/>
<rect x="231.0" y="155.0" width="6.0" height="17.22222222222217" fill="#44aa44" opacity="0.85"/>
<line x1="246.0" y1="180.55555555555551" x2="246.0" y2="222.77777777777771" stroke="#44aa44" stroke-width="0.5" opacity="0.6"/>
<rect x="243.0" y="191.66666666666669" width="6.0" height="25.555555555555515" fill="#44aa44" opacity="0.85"/>
<line x1="258.0" y1="208.33333333333331" x2="258.0" y2="235.55555555555554" stroke="#44aa44" stroke-width="0.5" opacity="0.6"/>
<rect x="255.0" y="226.11111111111111" width="6.0" height="7.7777777777778" fill="#44aa44" opacity="0.85"/>
<line x1="270.0" y1="237.22222222222217" x2="270.0" y2="269.4444444444444" stroke="#ff4444" stroke-width="0.5" opacity="0.6"/>
<rect x="267.0" y="260.55555555555554" width="6.0" height="1.6666666666667425" fill="#ff4444" opacity="0.85"/>
<line x1="282.0" y1="244.44444444444443" x2="282.0" y2="268.88888888888886" stroke="#ff4444" stroke-width="0.5" opacity="0.6"/>
<rect x="279.0" y="246.6666666666666" width="6.0" height="0.5" fill="#ff4444" opacity="0.85"/>
<line x1="294.0" y1="223.3333333333333" x2="294.0" y2="240.55555555555554" stroke="#44aa44" stroke-width="0.5" opacity="0.6"/>
<rect x="291.0" y="232.77777777777771" width="6.0" height="2.2222222222222854" fill="#44aa44" opacity="0.85"/>
<line x1="306.0" y1="231.1111111111111" x2="306.0" y2="251.6666666666666" stroke="#44aa44" stroke-width="0.5" opacity="0.6"/>
<rect x="303.0" y="238.33333333333337" width="6.0" height="7.777777777777715" fill="#44aa44" opacity="0.85"/>
<line x1="318.0" y1="235.0" x2="318.0" y2="260.0" stroke="#ff4444" stroke-width="0.5" opacity="0.6"/>
<rect x="315.0" y="238.88888888888889" width="6.0" height="18.3333333333334" fill="#ff4444" opacity="0.85"/>
<line x1="330.0" y1="195.5555555555555" x2="330.0" y2="226.11111111111111" stroke="#44aa44" stroke-width="0.5" opacity="0.6"/>
<rect x="327.0" y="207.77777777777774" width="6.0" height="1.6666666666666572" fill="#44aa44" opacity="0.85"/>
<line x1="342.0" y1="207.77777777777774" x2="342.0" y2="244.44444444444443" stroke="#44aa44" stroke-width="0.5" opacity="0.6"/>
<rect x="339.0" y="208.88888888888886" width="6.0" height="32.22222222222223" fill="#44aa44" opacity="0.85"/>
<line x1="354.0" y1="225.55555555555557" x2="354.0" y2="239.44444444444443" stroke="#44aa44" stroke-width="0.5" opacity="0.6"/>
<rect x="351.0" y="228.3333333333333" width="6.0" height="3.8888888888888857" fill="#44aa44" opacity="0.85"/>
<line x1="366.0" y1="210.5555555555556" x2="366.0" y2="229.44444444444446" stroke="#44aa44" stroke-width="0.5" opacity="0.6"/>
<rect x="363.0" y="221.66666666666666" width="6.0" height="3.888888888888914" fill="#44aa44" opacity="0.85"/>
<line x1="378.0" y1="227.77777777777771" x2="378.0" y2="253.33333333333334" stroke="#44aa44" stroke-width="0.5" opacity="0.6"/>
<rect x="375.0" y="230.0" width="6.0" height="21.6666666666666" fill="#44aa44" opacity="0.85"/>
<line x1="390.0" y1="239.44444444444443" x2="390.0" y2="260.0" stroke="#ff4444" stroke-width="0.5" opacity="0.6"/>
<rect x="387.0" y="241.66666666666663" width="6.0" height="4.999999999999972" fill="#ff4444" opacity="0.85"/>
<line x1="402.0" y1="189.99999999999997" x2="402.0" y2="221.66666666666666" stroke="#ff4444" stroke-width="0.5" opacity="0.6"/>
<rect x="399.0" y="194.99999999999994" width="6.0" height="26.11111111111117" fill="#ff4444" opacity="0.85"/>
<line x1="414.0" y1="163.33333333333326" x2="414.0" y2="206.11111111111114" stroke="#ff4444" stroke-width="0.5" opacity="0.6"/>
<rect x="411.0" y="165.0" width="6.0" height="34.4444444444444" fill="#ff4444" opacity="0.85"/>
<line x1="426.0" y1="167.77777777777771" x2="426.0" y2="191.11111111111103" stroke="#44aa44" stroke-width="0.5" opacity="0.6"/>
<rect x="423.0" y="169.44444444444446" width="6.0" height="18.888888888888886" fill="#44aa44" opacity="0.85"/>
<line x1="438.0" y1="192.22222222222223" x2="438.0" y2="209.99999999999994" stroke="#44aa44" stroke-width="0.5" opacity="0.6"/>
<rect x="435.0" y="196.11111111111103" width="6.0" height="2.7777777777778283" fill="#44aa44" opacity="0.85"/>
<line x1="450.0" y1="172.22222222222217" x2="450.0" y2="189.99999999999997" stroke="#44aa44" stroke-width="0.5" opacity="0.6"/>
<rect x="447.0" y="179.99999999999997" width="6.0" height="2.2222222222222" fill="#44aa44" opacity="0.85"/>
<line x1="462.0" y1="165.55555555555554" x2="462.0" y2="194.44444444444443" stroke="#44aa44" stroke-width="0.5" opacity="0.6"/>
<rect x="459.0" y="178.33333333333334" width="6.0" height="12.777777777777686" fill="#44aa44" opacity="0.85"/>
<line x1="474.0" y1="163.33333333333326" x2="474.0" y2="177.7777777777778" stroke="#ff4444" stroke-width="0.5" opacity="0.6"/>
<rect x="471.0" y="163.33333333333326" width="6.0" height="14.444444444444542" fill="#ff4444" opacity="0.85"/>
<line x1="486.0" y1="163.33333333333326" x2="486.0" y2="177.22222222222217" stroke="#44aa44" stroke-width="0.5" opacity="0.6"/>
<rect x="483.0" y="168.8888888888889" width="6.0" height="0.5555555555555429" fill="#44aa44" opacity="0.85"/>
<line x1="498.0" y1="174.44444444444446" x2="498.0" y2="194.99999999999994" stroke="#44aa44" stroke-width="0.5" opacity="0.6"/>
<rect x="495.0" y="174.99999999999997" width="6.0" height="15.555555555555515" fill="#44aa44" opacity="0.85"/>
<line x1="510.0" y1="194.44444444444443" x2="510.0" y2="207.77777777777774" stroke="#44aa44" stroke-width="0.5" opacity="0.6"/>
<rect x="507.0" y="194.44444444444443" width="6.0" height="4.999999999999972" fill="#44aa44" opacity="0.85"/>
<line x1="522.0" y1="199.99999999999994" x2="522.0" y2="211.66666666666666" stroke="#ff4444" stroke-width="0.5" opacity="0.6"/>
<rect x="519.0" y="203.33333333333331" width="6.0" height="3.8888888888888857" fill="#ff4444" opacity="0.85"/>
<line x1="534.0" y1="196.66666666666669" x2="534.0" y2="221.11111111111111" stroke="#44aa44" stroke-width="0.5" opacity="0.6"/>
<rect x="531.0" y="198.33333333333334" width="6.0" height="14.999999999999972" fill="#44aa44" opacity="0.85"/>
<line x1="546.0" y1="201.66666666666669" x2="546.0" y2="216.11111111111111" stroke="#ff4444" stroke-width="0.5" opacity="0.6"/>
<rect x="543.0" y="203.88888888888886" width="6.0" height="11.111111111111143" fill="#ff4444" opacity="0.85"/>
<line x1="558.0" y1="203.33333333333331" x2="558.0" y2="216.11111111111111" stroke="#44aa44" stroke-width="0.5" opacity="0.6"/>
<rect x="555.0" y="203.88888888888886" width="6.0" height="5.0" fill="#44aa44" opacity="0.85"/>
<line x1="570.0" y1="213.88888888888886" x2="570.0" y2="230.0" stroke="#44aa44" stroke-width="0.5" opacity="0.6"/>
<rect x="567.0" y="216.11111111111111" width="6.0" height="10.555555555555515" fill="#44aa44" opacity="0.85"/>
<line x1="582.0" y1="212.2222222222222" x2="582.0" y2="234.44444444444446" stroke="#ff4444" stroke-width="0.5" opacity="0.6"/>
<rect x="579.0" y="212.77777777777774" width="6.0" height="18.333333333333343" fill="#ff4444" opacity="0.85"/>
<line x1="594.0" y1="219.44444444444446" x2="594.0" y2="232.77777777777771" stroke="#44aa44" stroke-width="0.5" opacity="0.6"/>
<rect x="591.0" y="220.0" width="6.0" height="7.222222222222172" fill="#44aa44" opacity="0.85"/>
<line x1="606.0" y1="199.4444444444444" x2="606.0" y2="226.66666666666663" stroke="#ff4444" stroke-width="0.5" opacity="0.6"/>
<rect x="603.0" y="199.99999999999994" width="6.0" height="20.555555555555628" fill="#ff4444" opacity="0.85"/>
<line x1="618.0" y1="194.99999999999994" x2="618.0" y2="221.11111111111111" stroke="#44aa44" stroke-width="0.5" opacity="0.6"/>
<rect x="615.0" y="200.5555555555555" width="6.0" height="10.555555555555628" fill="#44aa44" opacity="0.85"/>
<line x1="630.0" y1="210.5555555555556" x2="630.0" y2="227.77777777777771" stroke="#ff4444" stroke-width="0.5" opacity="0.6"/>
<rect x="627.0" y="213.33333333333331" width="6.0" height="4.444444444444429" fill="#ff4444" opacity="0.85"/>
<line x1="642.0" y1="204.4444444444444" x2="642.0" y2="226.11111111111111" stroke="#44aa44" stroke-width="0.5" opacity="0.6"/>
<rect x="639.0" y="213.33333333333331" width="6.0" height="6.666666666666686" fill="#44aa44" opacity="0.85"/>
<line x1="654.0" y1="211.11111111111111" x2="654.0" y2="226.66666666666663" stroke="#44aa44" stroke-width="0.5" opacity="0.6"/>
<rect x="651.0" y="213.33333333333331" width="6.0" height="12.222222222222257" fill="#44aa44" opacity="0.85"/>
<line x1="666.0" y1="213.33333333333331" x2="666.0" y2="227.22222222222217" stroke="#ff4444" stroke-width="0.5" opacity="0.6"/>
<rect x="663.0" y="215.0" width="6.0" height="12.222222222222172" fill="#ff4444" opacity="0.85"/>
<line x1="678.0" y1="197.22222222222223" x2="678.0" y2="229.44444444444446" stroke="#44aa44" stroke-width="0.5" opacity="0.6"/>
<rect x="675.0" y="214.44444444444437" width="6.0" height="15.000000000000085" fill="#44aa44" opacity="0.85"/>
<line x1="690.0" y1="234.44444444444446" x2="690.0" y2="272.22222222222223" stroke="#44aa44" stroke-width="0.5" opacity="0.6"/>
<rect x="687.0" y="235.55555555555554" width="6.0" height="31.666666666666686" fill="#44aa44" opacity="0.85"/>
<line x1="702.0" y1="282.2222222222222" x2="702.0" y2="294.44444444444446" stroke="#44aa44" stroke-width="0.5" opacity="0.6"/>
<rect x="699.0" y="285.55555555555554" width="6.0" height="4.444444444444457" fill="#44aa44" opacity="0.85"/>
<line x1="714.0" y1="280.0" x2="714.0" y2="300.0" stroke="#ff4444" stroke-width="0.5" opacity="0.6"/>
<rect x="711.0" y="280.0" width="6.0" height="6.666666666666686" fill="#ff4444" opacity="0.85"/>
<line x1="726.0" y1="258.88888888888886" x2="726.0" y2="281.1111111111111" stroke="#ff4444" stroke-width="0.5" opacity="0.6"/>
<rect x="723.0" y="263.3333333333333" width="6.0" height="14.999999999999943" fill="#ff4444" opacity="0.85"/>
<line x1="738.0" y1="243.88888888888889" x2="738.0" y2="273.3333333333333" stroke="#44aa44" stroke-width="0.5" opacity="0.6"/>
<rect x="735.0" y="251.6666666666666" width="6.0" height="20.555555555555628" fill="#44aa44" opacity="0.85"/>
<line x1="750.0" y1="249.44444444444443" x2="750.0" y2="273.8888888888888" stroke="#ff4444" stroke-width="0.5" opacity="0.6"/>
<rect x="747.0" y="254.99999999999997" width="6.0" height="8.888888888888886" fill="#ff4444" opacity="0.85"/>
<line x1="762.0" y1="240.0" x2="762.0" y2="267.77777777777777" stroke="#44aa44" stroke-width="0.5" opacity="0.6"/>
<rect x="759.0" y="249.44444444444443" width="6.0" height="14.444444444444429" fill="#44aa44" opacity="0.85"/>
<line x1="774.0" y1="202.77777777777774" x2="774.0" y2="252.22222222222226" stroke="#ff4444" stroke-width="0.5" opacity="0.6"/>
<rect x="771.0" y="202.77777777777774" width="6.0" height="49.444444444444514" fill="#ff4444" opacity="0.85"/>
<rect x="122.0" y="26.0" width="8" height="8" fill="#ff9800" opacity="0.85" rx="1"/>
<text x="126.0" y="24.0" text-anchor="middle" font-family="sans-serif" font-size="8" fill="#ff9800">前高</text>
<rect x="206.0" y="144.88888888888886" width="8" height="8" fill="#4caf50" opacity="0.85" rx="1"/>
<text x="210.0" y="142.88888888888886" text-anchor="middle" font-family="sans-serif" font-size="8" fill="#4caf50">前低</text>
<rect x="218.0" y="148.22222222222217" width="8" height="8" fill="#4caf50" opacity="0.85" rx="1"/>
<text x="222.0" y="146.22222222222217" text-anchor="middle" font-family="sans-serif" font-size="8" fill="#4caf50">前低</text>
<rect x="230.0" y="178.7777777777778" width="8" height="8" fill="#4caf50" opacity="0.85" rx="1"/>
<text x="234.0" y="176.7777777777778" text-anchor="middle" font-family="sans-serif" font-size="8" fill="#4caf50">前低</text>
<rect x="242.0" y="218.77777777777771" width="8" height="8" fill="#4caf50" opacity="0.85" rx="1"/>
<text x="246.0" y="216.77777777777771" text-anchor="middle" font-family="sans-serif" font-size="8" fill="#4caf50">前低</text>
<rect x="254.0" y="231.55555555555554" width="8" height="8" fill="#4caf50" opacity="0.85" rx="1"/>
<text x="258.0" y="229.55555555555554" text-anchor="middle" font-family="sans-serif" font-size="8" fill="#4caf50">前低</text>
<rect x="266.0" y="265.4444444444444" width="8" height="8" fill="#4caf50" opacity="0.85" rx="1"/>
<text x="270.0" y="263.4444444444444" text-anchor="middle" font-family="sans-serif" font-size="8" fill="#4caf50">前低</text>
<rect x="398.0" y="185.99999999999997" width="8" height="8" fill="#ff9800" opacity="0.85" rx="1"/>
<text x="402.0" y="183.99999999999997" text-anchor="middle" font-family="sans-serif" font-size="8" fill="#ff9800">前高</text>
<rect x="398.0" y="185.99999999999997" width="8" height="8" fill="#2196f3" opacity="0.85" rx="1"/>
<text x="402.0" y="183.99999999999997" text-anchor="middle" font-family="sans-serif" font-size="8" fill="#2196f3">突</text>
<rect x="410.0" y="159.33333333333326" width="8" height="8" fill="#ff9800" opacity="0.85" rx="1"/>
<text x="414.0" y="157.33333333333326" text-anchor="middle" font-family="sans-serif" font-size="8" fill="#ff9800">前高</text>
<rect x="410.0" y="159.33333333333326" width="8" height="8" fill="#2196f3" opacity="0.85" rx="1"/>
<text x="414.0" y="157.33333333333326" text-anchor="middle" font-family="sans-serif" font-size="8" fill="#2196f3">突</text>
<rect x="470.0" y="159.33333333333326" width="8" height="8" fill="#ff9800" opacity="0.85" rx="1"/>
<text x="474.0" y="157.33333333333326" text-anchor="middle" font-family="sans-serif" font-size="8" fill="#ff9800">前高</text>
<rect x="482.0" y="159.33333333333326" width="8" height="8" fill="#ff9800" opacity="0.85" rx="1"/>
<text x="486.0" y="157.33333333333326" text-anchor="middle" font-family="sans-serif" font-size="8" fill="#ff9800">前高</text>
<rect x="530.0" y="217.11111111111111" width="8" height="8" fill="#4caf50" opacity="0.85" rx="1"/>
<text x="534.0" y="215.11111111111111" text-anchor="middle" font-family="sans-serif" font-size="8" fill="#4caf50">前低</text>
<rect x="566.0" y="226.0" width="8" height="8" fill="#4caf50" opacity="0.85" rx="1"/>
<text x="570.0" y="224.0" text-anchor="middle" font-family="sans-serif" font-size="8" fill="#4caf50">前低</text>
<rect x="578.0" y="230.44444444444446" width="8" height="8" fill="#4caf50" opacity="0.85" rx="1"/>
<text x="582.0" y="228.44444444444446" text-anchor="middle" font-family="sans-serif" font-size="8" fill="#4caf50">前低</text>
<rect x="686.0" y="268.22222222222223" width="8" height="8" fill="#4caf50" opacity="0.85" rx="1"/>
<text x="690.0" y="266.22222222222223" text-anchor="middle" font-family="sans-serif" font-size="8" fill="#4caf50">前低</text>
<rect x="698.0" y="290.44444444444446" width="8" height="8" fill="#4caf50" opacity="0.85" rx="1"/>
<text x="702.0" y="288.44444444444446" text-anchor="middle" font-family="sans-serif" font-size="8" fill="#4caf50">前低</text>
<rect x="710.0" y="296.0" width="8" height="8" fill="#4caf50" opacity="0.85" rx="1"/>
<text x="714.0" y="294.0" text-anchor="middle" font-family="sans-serif" font-size="8" fill="#4caf50">前低</text>
<rect x="770.0" y="174.05555555555554" width="8" height="8" fill="#ff9800" opacity="0.85" rx="1"/>
<text x="774.0" y="172.05555555555554" text-anchor="middle" font-family="sans-serif" font-size="8" fill="#ff9800">量</text>
<text x="66.0" y="359" text-anchor="middle" font-family="sans-serif" font-size="8" fill="#666666" transform="rotate(-40,66.0,359)">02/26</text>
<text x="138.0" y="359" text-anchor="middle" font-family="sans-serif" font-size="8" fill="#666666" transform="rotate(-40,138.0,359)">03/06</text>
<text x="210.0" y="359" text-anchor="middle" font-family="sans-serif" font-size="8" fill="#666666" transform="rotate(-40,210.0,359)">03/16</text>
<text x="282.0" y="359" text-anchor="middle" font-family="sans-serif" font-size="8" fill="#666666" transform="rotate(-40,282.0,359)">03/24</text>
<text x="354.0" y="359" text-anchor="middle" font-family="sans-serif" font-size="8" fill="#666666" transform="rotate(-40,354.0,359)">04/01</text>
<text x="426.0" y="359" text-anchor="middle" font-family="sans-serif" font-size="8" fill="#666666" transform="rotate(-40,426.0,359)">04/10</text>
<text x="498.0" y="359" text-anchor="middle" font-family="sans-serif" font-size="8" fill="#666666" transform="rotate(-40,498.0,359)">04/20</text>
<text x="570.0" y="359" text-anchor="middle" font-family="sans-serif" font-size="8" fill="#666666" transform="rotate(-40,570.0,359)">04/28</text>
<text x="642.0" y="359" text-anchor="middle" font-family="sans-serif" font-size="8" fill="#666666" transform="rotate(-40,642.0,359)">05/11</text>
<text x="714.0" y="359" text-anchor="middle" font-family="sans-serif" font-size="8" fill="#666666" transform="rotate(-40,714.0,359)">05/19</text>
<text x="774.0" y="359" text-anchor="middle" font-family="sans-serif" font-size="8" fill="#666666" transform="rotate(-40,774.0,359)">05/26</text>
<text x="400.0" y="396" text-anchor="middle" font-family="sans-serif" font-size="9" fill="#555555">数据截至: 2026-05-26 20:15  |  最新K线: 20260526</text>
<rect x="50" y="373" width="8" height="8" fill="#ffd700" opacity="0.8" rx="1"/>
<text x="61" y="380" font-family="sans-serif" font-size="9" fill="#888888">EMA5</text>
<rect x="150" y="373" width="8" height="8" fill="#ff6b6b" opacity="0.8" rx="1"/>
<text x="161" y="380" font-family="sans-serif" font-size="9" fill="#888888">EMA10</text>
<rect x="250" y="373" width="8" height="8" fill="#4ecdc4" opacity="0.8" rx="1"/>
<text x="261" y="380" font-family="sans-serif" font-size="9" fill="#888888">EMA20</text>
<rect x="350" y="373" width="8" height="8" fill="#2196f3" opacity="0.8" rx="1"/>
<text x="361" y="380" font-family="sans-serif" font-size="9" fill="#888888">突破</text>
<rect x="450" y="373" width="8" height="8" fill="#ff9800" opacity="0.8" rx="1"/>
<text x="461" y="380" font-family="sans-serif" font-size="9" fill="#888888">前高/量</text>
<rect x="550" y="373" width="8" height="8" fill="#4caf50" opacity="0.8" rx="1"/>
<text x="561" y="380" font-family="sans-serif" font-size="9" fill="#888888">前低</text>
</svg>