<svg xmlns="http://www.w3.org/2000/svg" width="800" height="400" viewBox="0 0 800 400">
<rect width="800" height="400" fill="#1a1a2e"/>
<text x="400.0" y="20" text-anchor="middle" font-family="sans-serif" font-size="14" fill="#ffffff" font-weight="bold">华工科技(000988) K线图</text>
<line x1="60" y1="30.0" x2="780" y2="30.0" stroke="#2a2a4e" stroke-width="0.5"/>
<text x="55" y="33.0" text-anchor="end" font-family="sans-serif" font-size="8" fill="#666666">175.80</text>
<line x1="60" y1="83.99999999999997" x2="780" y2="83.99999999999997" stroke="#2a2a4e" stroke-width="0.5"/>
<text x="55" y="86.99999999999997" text-anchor="end" font-family="sans-serif" font-size="8" fill="#666666">157.70</text>
<line x1="60" y1="137.99999999999994" x2="780" y2="137.99999999999994" stroke="#2a2a4e" stroke-width="0.5"/>
<text x="55" y="140.99999999999994" text-anchor="end" font-family="sans-serif" font-size="8" fill="#666666">139.60</text>
<line x1="60" y1="192.0" x2="780" y2="192.0" stroke="#2a2a4e" stroke-width="0.5"/>
<text x="55" y="195.0" text-anchor="end" font-family="sans-serif" font-size="8" fill="#666666">121.50</text>
<line x1="60" y1="245.99999999999997" x2="780" y2="245.99999999999997" stroke="#2a2a4e" stroke-width="0.5"/>
<text x="55" y="248.99999999999997" text-anchor="end" font-family="sans-serif" font-size="8" fill="#666666">103.40</text>
<line x1="60" y1="300.0" x2="780" y2="300.0" stroke="#2a2a4e" stroke-width="0.5"/>
<text x="55" y="303.0" text-anchor="end" font-family="sans-serif" font-size="8" fill="#666666">85.30</text>
<line x1="60" y1="300" x2="780" y2="300" stroke="#2a2a4e" stroke-width="0.5"/>
<line x1="60" y1="345" x2="780" y2="345" stroke="#2a2a4e" stroke-width="0.5"/>
<rect x="61.8" y="325.0177413236292" width="7.199999999999999" height="19.982258676370805" fill="#ff4444" opacity="0.3"/>
<rect x="73.8" y="325.6628592440078" width="7.199999999999999" height="19.33714075599221" fill="#ff4444" opacity="0.3"/>
<rect x="85.8" y="316.67335181588555" width="7.199999999999999" height="28.326648184114447" fill="#44aa44" opacity="0.3"/>
<rect x="97.8" y="319.827603836837" width="7.199999999999999" height="25.172396163163" fill="#ff4444" opacity="0.3"/>
<rect x="109.8" y="311.7060820172493" width="7.199999999999999" height="33.29391798275071" fill="#ff4444" opacity="0.3"/>
<rect x="121.8" y="317.1836689255634" width="7.199999999999999" height="27.81633107443662" fill="#ff4444" opacity="0.3"/>
<rect x="133.8" y="315.9041271803635" width="7.199999999999999" height="29.095872819636497" fill="#ff4444" opacity="0.3"/>
<rect x="145.8" y="320.59668069690645" width="7.199999999999999" height="24.403319303093554" fill="#ff4444" opacity="0.3"/>
<rect x="157.8" y="318.0009476074084" width="7.199999999999999" height="26.99905239259158" fill="#ff4444" opacity="0.3"/>
<rect x="169.8" y="300.0" width="7.199999999999999" height="45.0" fill="#44aa44" opacity="0.3"/>
<rect x="181.8" y="310.6384787965842" width="7.199999999999999" height="34.361521203415805" fill="#44aa44" opacity="0.3"/>
<rect x="193.8" y="318.91395990303147" width="7.199999999999999" height="26.08604009696853" fill="#44aa44" opacity="0.3"/>
<rect x="205.8" y="320.74061162841866" width="7.199999999999999" height="24.259388371581338" fill="#44aa44" opacity="0.3"/>
<rect x="217.8" y="323.893199084367" width="7.199999999999999" height="21.106800915633016" fill="#ff4444" opacity="0.3"/>
<rect x="229.8" y="318.3917890143829" width="7.199999999999999" height="26.60821098561712" fill="#ff4444" opacity="0.3"/>
<rect x="241.8" y="313.54588532895605" width="7.199999999999999" height="31.454114671043953" fill="#44aa44" opacity="0.3"/>
<rect x="253.8" y="324.50956148882005" width="7.199999999999999" height="20.490438511179946" fill="#ff4444" opacity="0.3"/>
<rect x="265.8" y="319.9339965862321" width="7.199999999999999" height="25.066003413767874" fill="#44aa44" opacity="0.3"/>
<rect x="277.8" y="322.80679620950553" width="7.199999999999999" height="22.193203790494465" fill="#ff4444" opacity="0.3"/>
<rect x="289.8" y="315.24928503466913" width="7.199999999999999" height="29.75071496533087" fill="#44aa44" opacity="0.3"/>
<rect x="301.8" y="323.97939206613444" width="7.199999999999999" height="21.020607933865563" fill="#ff4444" opacity="0.3"/>
<rect x="313.8" y="332.2684993990703" width="7.199999999999999" height="12.731500600929678" fill="#44aa44" opacity="0.3"/>
<rect x="325.8" y="332.52372304803094" width="7.199999999999999" height="12.476276951969055" fill="#44aa44" opacity="0.3"/>
<rect x="337.8" y="333.91010987706625" width="7.199999999999999" height="11.089890122933753" fill="#44aa44" opacity="0.3"/>
<rect x="349.8" y="332.2510415202456" width="7.199999999999999" height="12.748958479754378" fill="#44aa44" opacity="0.3"/>
<rect x="361.8" y="330.30511677401665" width="7.199999999999999" height="14.694883225983347" fill="#ff4444" opacity="0.3"/>
<rect x="373.8" y="332.7523887242978" width="7.199999999999999" height="12.247611275702184" fill="#44aa44" opacity="0.3"/>
<rect x="385.8" y="325.36168665186875" width="7.199999999999999" height="19.63831334813125" fill="#ff4444" opacity="0.3"/>
<rect x="397.8" y="321.143405903274" width="7.199999999999999" height="23.856594096725985" fill="#ff4444" opacity="0.3"/>
<rect x="409.8" y="323.4600005999669" width="7.199999999999999" height="21.539999400033082" fill="#44aa44" opacity="0.3"/>
<rect x="421.8" y="321.0328998917181" width="7.199999999999999" height="23.967100108281898" fill="#ff4444" opacity="0.3"/>
<rect x="433.8" y="314.7104429730883" width="7.199999999999999" height="30.289557026911723" fill="#ff4444" opacity="0.3"/>
<rect x="445.8" y="316.09065326005947" width="7.199999999999999" height="28.90934673994053" fill="#44aa44" opacity="0.3"/>
<rect x="457.8" y="327.78742156319197" width="7.199999999999999" height="17.21257843680803" fill="#ff4444" opacity="0.3"/>
<rect x="469.8" y="324.5386155583449" width="7.199999999999999" height="20.461384441655127" fill="#ff4444" opacity="0.3"/>
<rect x="481.8" y="325.09648869605724" width="7.199999999999999" height="19.903511303942764" fill="#44aa44" opacity="0.3"/>
<rect x="493.8" y="330.0589449613389" width="7.199999999999999" height="14.94105503866109" fill="#ff4444" opacity="0.3"/>
<rect x="505.8" y="322.2755726266614" width="7.199999999999999" height="22.724427373338585" fill="#ff4444" opacity="0.3"/>
<rect x="517.8" y="323.4174976773922" width="7.199999999999999" height="21.58250232260781" fill="#44aa44" opacity="0.3"/>
<rect x="529.8" y="330.1158535240373" width="7.199999999999999" height="14.884146475962723" fill="#ff4444" opacity="0.3"/>
<rect x="541.8" y="325.6597137073069" width="7.199999999999999" height="19.340286292693122" fill="#ff4444" opacity="0.3"/>
<rect x="553.8" y="330.94014199559973" width="7.199999999999999" height="14.059858004400269" fill="#44aa44" opacity="0.3"/>
<rect x="565.8" y="327.13812217659756" width="7.199999999999999" height="17.861877823402438" fill="#ff4444" opacity="0.3"/>
<rect x="577.8" y="325.26354959582494" width="7.199999999999999" height="19.73645040417506" fill="#ff4444" opacity="0.3"/>
<rect x="589.8" y="321.6463323100215" width="7.199999999999999" height="23.353667689978522" fill="#ff4444" opacity="0.3"/>
<rect x="601.8" y="322.11965408180635" width="7.199999999999999" height="22.880345918193655" fill="#ff4444" opacity="0.3"/>
<rect x="613.8" y="322.3286177942559" width="7.199999999999999" height="22.671382205744123" fill="#ff4444" opacity="0.3"/>
<rect x="625.8" y="322.3972756850609" width="7.199999999999999" height="22.60272431493911" fill="#ff4444" opacity="0.3"/>
<rect x="637.8" y="323.75741381890987" width="7.199999999999999" height="21.242586181090132" fill="#44aa44" opacity="0.3"/>
<rect x="649.8" y="324.0631410692638" width="7.199999999999999" height="20.936858930736207" fill="#ff4444" opacity="0.3"/>
<rect x="661.8" y="325.5782641245355" width="7.199999999999999" height="19.421735875464492" fill="#44aa44" opacity="0.3"/>
<rect x="673.8" y="325.98282998899606" width="7.199999999999999" height="19.01717001100394" fill="#44aa44" opacity="0.3"/>
<rect x="685.8" y="330.4840024982035" width="7.199999999999999" height="14.515997501796505" fill="#ff4444" opacity="0.3"/>
<rect x="697.8" y="314.4854843373463" width="7.199999999999999" height="30.514515662653707" fill="#ff4444" opacity="0.3"/>
<rect x="709.8" y="316.98001547788795" width="7.199999999999999" height="28.019984522112054" fill="#ff4444" opacity="0.3"/>
<rect x="721.8" y="319.00915045810723" width="7.199999999999999" height="25.99084954189277" fill="#44aa44" opacity="0.3"/>
<rect x="733.8" y="325.52300232515296" width="7.199999999999999" height="19.47699767484704" fill="#ff4444" opacity="0.3"/>
<rect x="745.8" y="321.6086257625485" width="7.199999999999999" height="23.391374237451487" fill="#ff4444" opacity="0.3"/>
<rect x="757.8" y="321.0629289789602" width="7.199999999999999" height="23.9370710210398" fill="#44aa44" opacity="0.3"/>
<rect x="769.8" y="322.0446384148916" width="7.199999999999999" height="22.955361585108392" fill="#44aa44" opacity="0.3"/>
<polyline points="66.0,286.40 78.0,281.31 90.0,277.07 102.0,268.55 114.0,257.84 126.0,242.58 138.0,228.60 150.0,214.40 162.0,193.63 174.0,186.72 186.0,191.28 198.0,195.78 210.0,204.84 222.0,207.25 234.0,203.67 246.0,205.17 258.0,208.89 270.0,212.71 282.0,211.53 294.0,221.08 306.0,223.32 318.0,227.35 330.0,233.47 342.0,236.31 354.0,242.59 366.0,243.58 378.0,243.59 390.0,237.42 402.0,228.82 414.0,222.09 426.0,208.42 438.0,203.81 450.0,209.02 462.0,212.48 474.0,210.45 486.0,210.78 498.0,209.71 510.0,204.36 522.0,204.07 534.0,206.19 546.0,204.15 558.0,205.98 570.0,203.77 582.0,201.80 594.0,194.87 606.0,181.98 618.0,170.21 630.0,151.56 642.0,142.50 654.0,138.52 666.0,140.53 678.0,145.28 690.0,135.11 702.0,117.38 714.0,100.57 726.0,98.76 738.0,95.22 750.0,77.32 762.0,67.00 774.0,70.50" fill="none" stroke="#ffd700" stroke-width="0.8" opacity="0.7"/>
<polyline points="66.0,286.40 78.0,283.62 90.0,280.89 102.0,275.55 114.0,268.44 126.0,258.18 138.0,247.72 150.0,236.50 162.0,221.15 174.0,212.38 186.0,210.20 198.0,209.22 210.0,211.72 222.0,211.78 234.0,209.00 246.0,208.85 258.0,210.21 270.0,212.05 282.0,211.53 294.0,216.74 306.0,218.75 318.0,221.78 330.0,226.13 342.0,229.02 354.0,233.76 366.0,235.91 378.0,237.31 390.0,235.09 402.0,230.82 414.0,226.79 426.0,218.48 438.0,214.14 450.0,215.10 462.0,215.88 474.0,214.15 486.0,213.66 498.0,212.56 510.0,209.12 522.0,208.09 534.0,208.52 546.0,206.99 558.0,207.47 570.0,205.99 582.0,204.51 594.0,200.24 606.0,192.23 618.0,183.95 630.0,171.28 642.0,162.75 654.0,156.90 666.0,154.65 678.0,154.67 690.0,147.42 702.0,135.51 714.0,123.04 726.0,117.97 738.0,112.55 750.0,99.63 762.0,89.95 774.0,87.68" fill="none" stroke="#ff6b6b" stroke-width="0.8" opacity="0.7"/>
<polyline points="66.0,286.40 78.0,284.94 90.0,283.39 102.0,280.35 114.0,276.17 126.0,270.06 138.0,263.45 150.0,256.07 162.0,246.17 174.0,239.19 186.0,235.50 198.0,232.57 210.0,231.66 222.0,229.79 234.0,226.62 246.0,224.86 258.0,224.05 270.0,223.70 282.0,222.32 294.0,224.02 306.0,224.38 318.0,225.43 330.0,227.36 342.0,228.75 354.0,231.27 366.0,232.63 378.0,233.68 390.0,232.86 402.0,230.83 414.0,228.72 426.0,224.18 438.0,221.37 450.0,221.18 462.0,221.01 474.0,219.62 486.0,218.84 498.0,217.77 510.0,215.47 522.0,214.33 534.0,213.96 546.0,212.64 558.0,212.35 570.0,211.11 582.0,209.85 594.0,207.10 606.0,202.25 618.0,196.96 630.0,189.08 642.0,182.92 654.0,177.93 666.0,174.76 678.0,172.85 690.0,167.32 702.0,159.19 714.0,150.40 726.0,145.14 738.0,139.71 750.0,130.36 762.0,122.36 774.0,118.09" fill="none" stroke="#4ecdc4" stroke-width="0.8" opacity="0.7"/>
<line x1="66.0" y1="283.35248618784533" x2="66.0" y2="300.0" stroke="#ff4444" stroke-width="0.5" opacity="0.6"/>
<rect x="63.0" y="286.39558011049724" width="6.0" height="9.069613259668529" fill="#ff4444" opacity="0.85"/>
<line x1="78.0" y1="262.55801104972375" x2="78.0" y2="286.57458563535914" stroke="#ff4444" stroke-width="0.5" opacity="0.6"/>
<rect x="75.0" y="271.1502762430939" width="6.0" height="15.275138121546945" fill="#ff4444" opacity="0.85"/>
<line x1="90.0" y1="253.75690607734808" x2="90.0" y2="271.5381215469613" stroke="#44aa44" stroke-width="0.5" opacity="0.6"/>
<rect x="87.0" y="262.67734806629835" width="6.0" height="5.907182320441962" fill="#44aa44" opacity="0.85"/>
<line x1="102.0" y1="245.76132596685082" x2="102.0" y2="274.49171270718233" stroke="#ff4444" stroke-width="0.5" opacity="0.6"/>
<rect x="99.0" y="251.5193370165746" width="6.0" height="22.97237569060772" fill="#ff4444" opacity="0.85"/>
<line x1="114.0" y1="221.20773480662987" x2="114.0" y2="257.4861878453039" stroke="#ff4444" stroke-width="0.5" opacity="0.6"/>
<rect x="111.0" y="236.4232044198895" width="6.0" height="4.803314917127068" fill="#ff4444" opacity="0.85"/>
<line x1="126.0" y1="208.14033149171271" x2="126.0" y2="238.24309392265192" stroke="#ff4444" stroke-width="0.5" opacity="0.6"/>
<rect x="123.0" y="212.0486187845304" width="6.0" height="23.956906077348066" fill="#ff4444" opacity="0.85"/>
<line x1="138.0" y1="197.13149171270717" x2="138.0" y2="230.78453038674036" stroke="#ff4444" stroke-width="0.5" opacity="0.6"/>
<rect x="135.0" y="200.6519337016575" width="6.0" height="19.690607734806605" fill="#ff4444" opacity="0.85"/>
<line x1="150.0" y1="184.5414364640884" x2="150.0" y2="206.767955801105" stroke="#ff4444" stroke-width="0.5" opacity="0.6"/>
<rect x="147.0" y="186.00331491712708" width="6.0" height="11.993370165745858" fill="#ff4444" opacity="0.85"/>
<line x1="162.0" y1="149.66519337016575" x2="162.0" y2="187.8232044198895" stroke="#ff4444" stroke-width="0.5" opacity="0.6"/>
<rect x="159.0" y="152.08176795580113" width="6.0" height="35.47292817679559" fill="#ff4444" opacity="0.85"/>
<line x1="174.0" y1="132.60000000000002" x2="174.0" y2="186.03314917127074" stroke="#44aa44" stroke-width="0.5" opacity="0.6"/>
<rect x="171.0" y="155.4828729281768" width="6.0" height="17.423204419889487" fill="#44aa44" opacity="0.85"/>
<line x1="186.0" y1="176.18784530386742" x2="186.0" y2="200.6817679558011" stroke="#44aa44" stroke-width="0.5" opacity="0.6"/>
<rect x="183.0" y="180.66298342541438" width="6.0" height="19.720441988950284" fill="#44aa44" opacity="0.85"/>
<line x1="198.0" y1="197.10165745856352" x2="198.0" y2="217.71712707182323" stroke="#44aa44" stroke-width="0.5" opacity="0.6"/>
<rect x="195.0" y="200.23425414364644" width="6.0" height="4.564640883977916" fill="#44aa44" opacity="0.85"/>
<line x1="210.0" y1="197.66850828729284" x2="210.0" y2="223.92265193370167" stroke="#44aa44" stroke-width="0.5" opacity="0.6"/>
<rect x="207.0" y="202.4718232044199" width="6.0" height="20.496132596685072" fill="#44aa44" opacity="0.85"/>
<line x1="222.0" y1="207.8121546961326" x2="222.0" y2="221.11823204419892" stroke="#ff4444" stroke-width="0.5" opacity="0.6"/>
<rect x="219.0" y="212.0486187845304" width="6.0" height="1.3127071823204517" fill="#ff4444" opacity="0.85"/>
<line x1="234.0" y1="188.98674033149172" x2="234.0" y2="216.64309392265193" stroke="#ff4444" stroke-width="0.5" opacity="0.6"/>
<rect x="231.0" y="196.5049723756906" width="6.0" height="20.138121546961315" fill="#ff4444" opacity="0.85"/>
<line x1="246.0" y1="179.2906077348066" x2="246.0" y2="208.40883977900555" stroke="#44aa44" stroke-width="0.5" opacity="0.6"/>
<rect x="243.0" y="187.25635359116023" width="6.0" height="20.91381215469613" fill="#44aa44" opacity="0.85"/>
<line x1="258.0" y1="202.2033149171271" x2="258.0" y2="222.43093922651934" stroke="#ff4444" stroke-width="0.5" opacity="0.6"/>
<rect x="255.0" y="216.34475138121547" width="6.0" height="6.0861878453038685" fill="#ff4444" opacity="0.85"/>
<line x1="270.0" y1="210.94475138121547" x2="270.0" y2="239.58563535911605" stroke="#44aa44" stroke-width="0.5" opacity="0.6"/>
<rect x="267.0" y="215.74806629834254" width="6.0" height="4.594475138121567" fill="#44aa44" opacity="0.85"/>
<line x1="282.0" y1="201.1292817679558" x2="282.0" y2="215.8674033149171" stroke="#ff4444" stroke-width="0.5" opacity="0.6"/>
<rect x="279.0" y="209.18453038674036" width="6.0" height="6.205524861878445" fill="#ff4444" opacity="0.85"/>
<line x1="294.0" y1="227.41325966850832" x2="294.0" y2="242.41988950276243" stroke="#44aa44" stroke-width="0.5" opacity="0.6"/>
<rect x="291.0" y="237.73591160220994" width="6.0" height="2.4464088397790533" fill="#44aa44" opacity="0.85"/>
<line x1="306.0" y1="222.60994475138125" x2="306.0" y2="246.6563535911602" stroke="#ff4444" stroke-width="0.5" opacity="0.6"/>
<rect x="303.0" y="227.8011049723757" width="6.0" height="18.855248618784515" fill="#ff4444" opacity="0.85"/>
<line x1="318.0" y1="224.81767955801104" x2="318.0" y2="239.52596685082875" stroke="#44aa44" stroke-width="0.5" opacity="0.6"/>
<rect x="315.0" y="229.292817679558" width="6.0" height="6.11602209944752" fill="#44aa44" opacity="0.85"/>
<line x1="330.0" y1="236.3038674033149" x2="330.0" y2="249.84861878453037" stroke="#44aa44" stroke-width="0.5" opacity="0.6"/>
<rect x="327.0" y="238.83977900552486" width="6.0" height="6.861878453038685" fill="#44aa44" opacity="0.85"/>
<line x1="342.0" y1="235.85635359116023" x2="342.0" y2="246.62651933701656" stroke="#44aa44" stroke-width="0.5" opacity="0.6"/>
<rect x="339.0" y="236.4232044198895" width="6.0" height="5.579005524861884" fill="#44aa44" opacity="0.85"/>
<line x1="354.0" y1="240.0331491712707" x2="354.0" y2="256.5314917127072" stroke="#44aa44" stroke-width="0.5" opacity="0.6"/>
<rect x="351.0" y="244.060773480663" width="6.0" height="11.068508287292815" fill="#44aa44" opacity="0.85"/>
<line x1="366.0" y1="238.72044198895028" x2="366.0" y2="251.19116022099448" stroke="#ff4444" stroke-width="0.5" opacity="0.6"/>
<rect x="363.0" y="245.5823204419889" width="6.0" height="3.401104972375691" fill="#ff4444" opacity="0.85"/>
<line x1="378.0" y1="230.78453038674036" x2="378.0" y2="246.41767955801103" stroke="#44aa44" stroke-width="0.5" opacity="0.6"/>
<rect x="375.0" y="241.58453038674037" width="6.0" height="2.028729281767909" fill="#44aa44" opacity="0.85"/>
<line x1="390.0" y1="224.93701657458567" x2="390.0" y2="237.91491712707182" stroke="#ff4444" stroke-width="0.5" opacity="0.6"/>
<rect x="387.0" y="225.08618784530387" width="6.0" height="7.1900552486187905" fill="#ff4444" opacity="0.85"/>
<line x1="402.0" y1="202.88950276243096" x2="402.0" y2="232.96243093922655" stroke="#ff4444" stroke-width="0.5" opacity="0.6"/>
<rect x="399.0" y="211.60110497237568" width="6.0" height="20.04861878453042" fill="#ff4444" opacity="0.85"/>
<line x1="414.0" y1="203.39668508287292" x2="414.0" y2="214.67403314917127" stroke="#44aa44" stroke-width="0.5" opacity="0.6"/>
<rect x="411.0" y="205.42541436464091" width="6.0" height="3.222099447513756" fill="#44aa44" opacity="0.85"/>
<line x1="426.0" y1="180.96132596685084" x2="426.0" y2="211.80994475138124" stroke="#ff4444" stroke-width="0.5" opacity="0.6"/>
<rect x="423.0" y="181.08066298342544" width="6.0" height="30.729281767955797" fill="#ff4444" opacity="0.85"/>
<line x1="438.0" y1="183.5270718232044" x2="438.0" y2="202.44198895027625" stroke="#ff4444" stroke-width="0.5" opacity="0.6"/>
<rect x="435.0" y="194.59558011049725" width="6.0" height="1.8795580110497099" fill="#ff4444" opacity="0.85"/>
<line x1="450.0" y1="195.31160220994474" x2="450.0" y2="224.5193370165746" stroke="#44aa44" stroke-width="0.5" opacity="0.6"/>
<rect x="447.0" y="195.31160220994474" width="6.0" height="24.135911602209973" fill="#44aa44" opacity="0.85"/>
<line x1="462.0" y1="214.97237569060775" x2="462.0" y2="232.72375690607737" stroke="#ff4444" stroke-width="0.5" opacity="0.6"/>
<rect x="459.0" y="219.38784530386744" width="6.0" height="7.219889502762356" fill="#ff4444" opacity="0.85"/>
<line x1="474.0" y1="203.6950276243094" x2="474.0" y2="217.98563535911603" stroke="#ff4444" stroke-width="0.5" opacity="0.6"/>
<rect x="471.0" y="206.38011049723755" width="6.0" height="10.979005524861918" fill="#ff4444" opacity="0.85"/>
<line x1="486.0" y1="201.8453038674033" x2="486.0" y2="215.27071823204417" stroke="#44aa44" stroke-width="0.5" opacity="0.6"/>
<rect x="483.0" y="210.85524861878451" width="6.0" height="0.5966850828729378" fill="#44aa44" opacity="0.85"/>
<line x1="498.0" y1="205.18674033149173" x2="498.0" y2="218.6718232044199" stroke="#ff4444" stroke-width="0.5" opacity="0.6"/>
<rect x="495.0" y="207.57348066298343" width="6.0" height="9.785635359116043" fill="#ff4444" opacity="0.85"/>
<line x1="510.0" y1="192.50718232044198" x2="510.0" y2="210.7060773480663" stroke="#ff4444" stroke-width="0.5" opacity="0.6"/>
<rect x="507.0" y="193.64088397790056" width="6.0" height="16.319337016574565" fill="#ff4444" opacity="0.85"/>
<line x1="522.0" y1="186.03314917127074" x2="522.0" y2="208.40883977900555" stroke="#44aa44" stroke-width="0.5" opacity="0.6"/>
<rect x="519.0" y="190.7171270718232" width="6.0" height="12.769060773480646" fill="#44aa44" opacity="0.85"/>
<line x1="534.0" y1="204.3812154696133" x2="534.0" y2="217.2696132596685" stroke="#ff4444" stroke-width="0.5" opacity="0.6"/>
<rect x="531.0" y="210.4375690607735" width="6.0" height="0.9546961325966663" fill="#ff4444" opacity="0.85"/>
<line x1="546.0" y1="192.74585635359117" x2="546.0" y2="208.40883977900555" stroke="#ff4444" stroke-width="0.5" opacity="0.6"/>
<rect x="543.0" y="200.08508287292815" width="6.0" height="8.025414364640937" fill="#ff4444" opacity="0.85"/>
<line x1="558.0" y1="198.71270718232046" x2="558.0" y2="213.24198895027624" stroke="#44aa44" stroke-width="0.5" opacity="0.6"/>
<rect x="555.0" y="200.95027624309392" width="6.0" height="8.68176795580112" fill="#44aa44" opacity="0.85"/>
<line x1="570.0" y1="194.98342541436466" x2="570.0" y2="213.21215469613261" stroke="#ff4444" stroke-width="0.5" opacity="0.6"/>
<rect x="567.0" y="199.33922651933702" width="6.0" height="13.872928176795597" fill="#ff4444" opacity="0.85"/>
<line x1="582.0" y1="193.58121546961328" x2="582.0" y2="211.39226519337018" stroke="#ff4444" stroke-width="0.5" opacity="0.6"/>
<rect x="579.0" y="197.87734806629834" width="6.0" height="1.2530386740331494" fill="#ff4444" opacity="0.85"/>
<line x1="594.0" y1="168.31160220994477" x2="594.0" y2="191.52265193370167" stroke="#ff4444" stroke-width="0.5" opacity="0.6"/>
<rect x="591.0" y="180.9911602209945" width="6.0" height="6.503867403314899" fill="#ff4444" opacity="0.85"/>
<line x1="606.0" y1="153.15580110497237" x2="606.0" y2="185.13812154696134" stroke="#ff4444" stroke-width="0.5" opacity="0.6"/>
<rect x="603.0" y="156.1988950276243" width="6.0" height="23.00220994475137" fill="#ff4444" opacity="0.85"/>
<line x1="618.0" y1="146.05524861878453" x2="618.0" y2="168.7889502762431" stroke="#ff4444" stroke-width="0.5" opacity="0.6"/>
<rect x="615.0" y="146.68176795580115" width="6.0" height="17.602209944751365" fill="#ff4444" opacity="0.85"/>
<line x1="630.0" y1="110.61215469613262" x2="630.0" y2="137.01546961325965" stroke="#ff4444" stroke-width="0.5" opacity="0.6"/>
<rect x="627.0" y="114.25193370165746" width="6.0" height="22.61436464088402" fill="#ff4444" opacity="0.85"/>
<line x1="642.0" y1="105.48066298342543" x2="642.0" y2="124.8729281767956" stroke="#44aa44" stroke-width="0.5" opacity="0.6"/>
<rect x="639.0" y="115.982320441989" width="6.0" height="8.41325966850826" fill="#44aa44" opacity="0.85"/>
<line x1="654.0" y1="126.00662983425416" x2="654.0" y2="146.353591160221" stroke="#ff4444" stroke-width="0.5" opacity="0.6"/>
<rect x="651.0" y="130.54143646408843" width="6.0" height="6.2651933701657185" fill="#ff4444" opacity="0.85"/>
<line x1="666.0" y1="118.30939226519342" x2="666.0" y2="144.71270718232046" stroke="#44aa44" stroke-width="0.5" opacity="0.6"/>
<rect x="663.0" y="125.23093922651937" width="6.0" height="19.332596685082862" fill="#44aa44" opacity="0.85"/>
<line x1="678.0" y1="127.91602209944757" x2="678.0" y2="165.8651933701658" stroke="#44aa44" stroke-width="0.5" opacity="0.6"/>
<rect x="675.0" y="142.475138121547" width="6.0" height="12.291712707182342" fill="#44aa44" opacity="0.85"/>
<line x1="690.0" y1="114.78895027624313" x2="690.0" y2="145.66740331491712" stroke="#ff4444" stroke-width="0.5" opacity="0.6"/>
<rect x="687.0" y="114.78895027624313" width="6.0" height="29.386740331491694" fill="#ff4444" opacity="0.85"/>
<line x1="702.0" y1="78.0629834254144" x2="702.0" y2="115.08729281767958" stroke="#ff4444" stroke-width="0.5" opacity="0.6"/>
<rect x="699.0" y="81.91160220994476" width="6.0" height="21.898342541436477" fill="#ff4444" opacity="0.85"/>
<line x1="714.0" y1="44.67845303867408" x2="714.0" y2="81.88176795580114" stroke="#ff4444" stroke-width="0.5" opacity="0.6"/>
<rect x="711.0" y="66.93480662983433" width="6.0" height="14.94696132596681" fill="#ff4444" opacity="0.85"/>
<line x1="726.0" y1="59.834254143646405" x2="726.0" y2="98.05193370165745" stroke="#44aa44" stroke-width="0.5" opacity="0.6"/>
<rect x="723.0" y="65.17458563535916" width="6.0" height="29.98342541436459" fill="#44aa44" opacity="0.85"/>
<line x1="738.0" y1="79.70386740331499" x2="738.0" y2="96.23204419889507" stroke="#ff4444" stroke-width="0.5" opacity="0.6"/>
<rect x="735.0" y="88.14696132596686" width="6.0" height="2.267403314917118" fill="#ff4444" opacity="0.85"/>
<line x1="750.0" y1="41.516022099447554" x2="750.0" y2="90.56353591160223" stroke="#ff4444" stroke-width="0.5" opacity="0.6"/>
<rect x="747.0" y="41.516022099447554" width="6.0" height="44.572375690607714" fill="#ff4444" opacity="0.85"/>
<line x1="762.0" y1="30.0" x2="762.0" y2="59.35690607734807" stroke="#44aa44" stroke-width="0.5" opacity="0.6"/>
<rect x="759.0" y="41.516022099447554" width="6.0" height="4.833149171270733" fill="#44aa44" opacity="0.85"/>
<line x1="774.0" y1="44.35027624309393" x2="774.0" y2="80.12154696132599" stroke="#44aa44" stroke-width="0.5" opacity="0.6"/>
<rect x="771.0" y="56.40331491712713" width="6.0" height="21.092817679557996" fill="#44aa44" opacity="0.85"/>
<rect x="122.0" y="204.14033149171271" width="8" height="8" fill="#ff9800" opacity="0.85" rx="1"/>
<text x="126.0" y="202.14033149171271" text-anchor="middle" font-family="sans-serif" font-size="8" fill="#ff9800">前高</text>
<rect x="134.0" y="193.13149171270717" width="8" height="8" fill="#ff9800" opacity="0.85" rx="1"/>
<text x="138.0" y="191.13149171270717" text-anchor="middle" font-family="sans-serif" font-size="8" fill="#ff9800">前高</text>
<rect x="146.0" y="180.5414364640884" width="8" height="8" fill="#ff9800" opacity="0.85" rx="1"/>
<text x="150.0" y="178.5414364640884" text-anchor="middle" font-family="sans-serif" font-size="8" fill="#ff9800">前高</text>
<rect x="158.0" y="145.66519337016575" width="8" height="8" fill="#ff9800" opacity="0.85" rx="1"/>
<text x="162.0" y="143.66519337016575" text-anchor="middle" font-family="sans-serif" font-size="8" fill="#ff9800">前高</text>
<rect x="170.0" y="128.60000000000002" width="8" height="8" fill="#ff9800" opacity="0.85" rx="1"/>
<text x="174.0" y="126.60000000000002" text-anchor="middle" font-family="sans-serif" font-size="8" fill="#ff9800">前高</text>
<rect x="266.0" y="235.58563535911605" width="8" height="8" fill="#4caf50" opacity="0.85" rx="1"/>
<text x="270.0" y="233.58563535911605" text-anchor="middle" font-family="sans-serif" font-size="8" fill="#4caf50">前低</text>
<rect x="290.0" y="238.41988950276243" width="8" height="8" fill="#4caf50" opacity="0.85" rx="1"/>
<text x="294.0" y="236.41988950276243" text-anchor="middle" font-family="sans-serif" font-size="8" fill="#4caf50">前低</text>
<rect x="302.0" y="242.6563535911602" width="8" height="8" fill="#4caf50" opacity="0.85" rx="1"/>
<text x="306.0" y="240.6563535911602" text-anchor="middle" font-family="sans-serif" font-size="8" fill="#4caf50">前低</text>
<rect x="326.0" y="245.84861878453037" width="8" height="8" fill="#4caf50" opacity="0.85" rx="1"/>
<text x="330.0" y="243.84861878453037" text-anchor="middle" font-family="sans-serif" font-size="8" fill="#4caf50">前低</text>
<rect x="350.0" y="252.53149171270718" width="8" height="8" fill="#4caf50" opacity="0.85" rx="1"/>
<text x="354.0" y="250.53149171270718" text-anchor="middle" font-family="sans-serif" font-size="8" fill="#4caf50">前低</text>
<rect x="422.0" y="176.96132596685084" width="8" height="8" fill="#ff9800" opacity="0.85" rx="1"/>
<text x="426.0" y="174.96132596685084" text-anchor="middle" font-family="sans-serif" font-size="8" fill="#ff9800">前高</text>
<rect x="422.0" y="176.96132596685084" width="8" height="8" fill="#2196f3" opacity="0.85" rx="1"/>
<text x="426.0" y="174.96132596685084" text-anchor="middle" font-family="sans-serif" font-size="8" fill="#2196f3">突</text>
<rect x="590.0" y="164.31160220994477" width="8" height="8" fill="#ff9800" opacity="0.85" rx="1"/>
<text x="594.0" y="162.31160220994477" text-anchor="middle" font-family="sans-serif" font-size="8" fill="#ff9800">前高</text>
<rect x="602.0" y="149.15580110497237" width="8" height="8" fill="#ff9800" opacity="0.85" rx="1"/>
<text x="606.0" y="147.15580110497237" text-anchor="middle" font-family="sans-serif" font-size="8" fill="#ff9800">前高</text>
<rect x="602.0" y="149.15580110497237" width="8" height="8" fill="#2196f3" opacity="0.85" rx="1"/>
<text x="606.0" y="147.15580110497237" text-anchor="middle" font-family="sans-serif" font-size="8" fill="#2196f3">突</text>
<rect x="614.0" y="142.05524861878453" width="8" height="8" fill="#ff9800" opacity="0.85" rx="1"/>
<text x="618.0" y="140.05524861878453" text-anchor="middle" font-family="sans-serif" font-size="8" fill="#ff9800">前高</text>
<rect x="614.0" y="142.05524861878453" width="8" height="8" fill="#2196f3" opacity="0.85" rx="1"/>
<text x="618.0" y="140.05524861878453" text-anchor="middle" font-family="sans-serif" font-size="8" fill="#2196f3">突</text>
<rect x="626.0" y="106.61215469613262" width="8" height="8" fill="#ff9800" opacity="0.85" rx="1"/>
<text x="630.0" y="104.61215469613262" text-anchor="middle" font-family="sans-serif" font-size="8" fill="#ff9800">前高</text>
<rect x="626.0" y="106.61215469613262" width="8" height="8" fill="#2196f3" opacity="0.85" rx="1"/>
<text x="630.0" y="104.61215469613262" text-anchor="middle" font-family="sans-serif" font-size="8" fill="#2196f3">突</text>
<rect x="638.0" y="101.48066298342543" width="8" height="8" fill="#ff9800" opacity="0.85" rx="1"/>
<text x="642.0" y="99.48066298342543" text-anchor="middle" font-family="sans-serif" font-size="8" fill="#ff9800">前高</text>
<rect x="698.0" y="74.0629834254144" width="8" height="8" fill="#ff9800" opacity="0.85" rx="1"/>
<text x="702.0" y="72.0629834254144" text-anchor="middle" font-family="sans-serif" font-size="8" fill="#ff9800">前高</text>
<rect x="698.0" y="74.0629834254144" width="8" height="8" fill="#2196f3" opacity="0.85" rx="1"/>
<text x="702.0" y="72.0629834254144" text-anchor="middle" font-family="sans-serif" font-size="8" fill="#2196f3">突</text>
<rect x="710.0" y="40.67845303867408" width="8" height="8" fill="#ff9800" opacity="0.85" rx="1"/>
<text x="714.0" y="38.67845303867408" text-anchor="middle" font-family="sans-serif" font-size="8" fill="#ff9800">前高</text>
<rect x="746.0" y="37.516022099447554" width="8" height="8" fill="#ff9800" opacity="0.85" rx="1"/>
<text x="750.0" y="35.516022099447554" text-anchor="middle" font-family="sans-serif" font-size="8" fill="#ff9800">前高</text>
<rect x="746.0" y="37.516022099447554" width="8" height="8" fill="#2196f3" opacity="0.85" rx="1"/>
<text x="750.0" y="35.516022099447554" text-anchor="middle" font-family="sans-serif" font-size="8" fill="#2196f3">突</text>
<rect x="758.0" y="26.0" width="8" height="8" fill="#ff9800" opacity="0.85" rx="1"/>
<text x="762.0" y="24.0" text-anchor="middle" font-family="sans-serif" font-size="8" fill="#ff9800">前高</text>
<text x="66.0" y="359" text-anchor="middle" font-family="sans-serif" font-size="8" fill="#666666" transform="rotate(-40,66.0,359)">02/27</text>
<text x="138.0" y="359" text-anchor="middle" font-family="sans-serif" font-size="8" fill="#666666" transform="rotate(-40,138.0,359)">03/09</text>
<text x="210.0" y="359" text-anchor="middle" font-family="sans-serif" font-size="8" fill="#666666" transform="rotate(-40,210.0,359)">03/17</text>
<text x="282.0" y="359" text-anchor="middle" font-family="sans-serif" font-size="8" fill="#666666" transform="rotate(-40,282.0,359)">03/25</text>
<text x="354.0" y="359" text-anchor="middle" font-family="sans-serif" font-size="8" fill="#666666" transform="rotate(-40,354.0,359)">04/02</text>
<text x="426.0" y="359" text-anchor="middle" font-family="sans-serif" font-size="8" fill="#666666" transform="rotate(-40,426.0,359)">04/13</text>
<text x="498.0" y="359" text-anchor="middle" font-family="sans-serif" font-size="8" fill="#666666" transform="rotate(-40,498.0,359)">04/21</text>
<text x="570.0" y="359" text-anchor="middle" font-family="sans-serif" font-size="8" fill="#666666" transform="rotate(-40,570.0,359)">04/29</text>
<text x="642.0" y="359" text-anchor="middle" font-family="sans-serif" font-size="8" fill="#666666" transform="rotate(-40,642.0,359)">05/12</text>
<text x="714.0" y="359" text-anchor="middle" font-family="sans-serif" font-size="8" fill="#666666" transform="rotate(-40,714.0,359)">05/20</text>
<text x="774.0" y="359" text-anchor="middle" font-family="sans-serif" font-size="8" fill="#666666" transform="rotate(-40,774.0,359)">05/27</text>
<text x="400.0" y="396" text-anchor="middle" font-family="sans-serif" font-size="9" fill="#555555">数据截至: 2026-05-27 20:23  |  最新K线: 20260527</text>
<rect x="50" y="373" width="8" height="8" fill="#ffd700" opacity="0.8" rx="1"/>
<text x="61" y="380" font-family="sans-serif" font-size="9" fill="#888888">EMA5</text>
<rect x="150" y="373" width="8" height="8" fill="#ff6b6b" opacity="0.8" rx="1"/>
<text x="161" y="380" font-family="sans-serif" font-size="9" fill="#888888">EMA10</text>
<rect x="250" y="373" width="8" height="8" fill="#4ecdc4" opacity="0.8" rx="1"/>
<text x="261" y="380" font-family="sans-serif" font-size="9" fill="#888888">EMA20</text>
<rect x="350" y="373" width="8" height="8" fill="#2196f3" opacity="0.8" rx="1"/>
<text x="361" y="380" font-family="sans-serif" font-size="9" fill="#888888">突破</text>
<rect x="450" y="373" width="8" height="8" fill="#ff9800" opacity="0.8" rx="1"/>
<text x="461" y="380" font-family="sans-serif" font-size="9" fill="#888888">前高/量</text>
<rect x="550" y="373" width="8" height="8" fill="#4caf50" opacity="0.8" rx="1"/>
<text x="561" y="380" font-family="sans-serif" font-size="9" fill="#888888">前低</text>
</svg>