<svg xmlns="http://www.w3.org/2000/svg" width="800" height="400" viewBox="0 0 800 400">
<rect width="800" height="400" fill="#1a1a2e"/>
<text x="400.0" y="20" text-anchor="middle" font-family="sans-serif" font-size="14" fill="#ffffff" font-weight="bold">新易盛(300502) K线图</text>
<line x1="60" y1="30.0" x2="780" y2="30.0" stroke="#2a2a4e" stroke-width="0.5"/>
<text x="55" y="33.0" text-anchor="end" font-family="sans-serif" font-size="8" fill="#666666">660.06</text>
<line x1="60" y1="84.0" x2="780" y2="84.0" stroke="#2a2a4e" stroke-width="0.5"/>
<text x="55" y="87.0" text-anchor="end" font-family="sans-serif" font-size="8" fill="#666666">597.40</text>
<line x1="60" y1="138.0" x2="780" y2="138.0" stroke="#2a2a4e" stroke-width="0.5"/>
<text x="55" y="141.0" text-anchor="end" font-family="sans-serif" font-size="8" fill="#666666">534.73</text>
<line x1="60" y1="192.0" x2="780" y2="192.0" stroke="#2a2a4e" stroke-width="0.5"/>
<text x="55" y="195.0" text-anchor="end" font-family="sans-serif" font-size="8" fill="#666666">472.07</text>
<line x1="60" y1="246.0" x2="780" y2="246.0" stroke="#2a2a4e" stroke-width="0.5"/>
<text x="55" y="249.0" text-anchor="end" font-family="sans-serif" font-size="8" fill="#666666">409.40</text>
<line x1="60" y1="300.0" x2="780" y2="300.0" stroke="#2a2a4e" stroke-width="0.5"/>
<text x="55" y="303.0" text-anchor="end" font-family="sans-serif" font-size="8" fill="#666666">346.74</text>
<line x1="60" y1="300" x2="780" y2="300" stroke="#2a2a4e" stroke-width="0.5"/>
<line x1="60" y1="345" x2="780" y2="345" stroke="#2a2a4e" stroke-width="0.5"/>
<rect x="61.8" y="328.26858716939665" width="7.199999999999999" height="16.731412830603347" fill="#ff4444" opacity="0.3"/>
<rect x="73.8" y="329.40860086038606" width="7.199999999999999" height="15.59139913961394" fill="#ff4444" opacity="0.3"/>
<rect x="85.8" y="319.9313310181929" width="7.199999999999999" height="25.068668981807093" fill="#44aa44" opacity="0.3"/>
<rect x="97.8" y="317.81531778993826" width="7.199999999999999" height="27.184682210061737" fill="#ff4444" opacity="0.3"/>
<rect x="109.8" y="319.81519199539656" width="7.199999999999999" height="25.18480800460344" fill="#ff4444" opacity="0.3"/>
<rect x="121.8" y="328.9413852585539" width="7.199999999999999" height="16.058614741446092" fill="#44aa44" opacity="0.3"/>
<rect x="133.8" y="310.68986340557666" width="7.199999999999999" height="34.31013659442334" fill="#ff4444" opacity="0.3"/>
<rect x="145.8" y="325.09107219526675" width="7.199999999999999" height="19.908927804733253" fill="#ff4444" opacity="0.3"/>
<rect x="157.8" y="323.2519912845917" width="7.199999999999999" height="21.748008715408275" fill="#ff4444" opacity="0.3"/>
<rect x="169.8" y="324.0783836228638" width="7.199999999999999" height="20.921616377136218" fill="#ff4444" opacity="0.3"/>
<rect x="181.8" y="328.3377201662996" width="7.199999999999999" height="16.66227983370038" fill="#44aa44" opacity="0.3"/>
<rect x="193.8" y="327.95338222359646" width="7.199999999999999" height="17.046617776403536" fill="#44aa44" opacity="0.3"/>
<rect x="205.8" y="324.92259335295995" width="7.199999999999999" height="20.07740664704005" fill="#ff4444" opacity="0.3"/>
<rect x="217.8" y="321.74636652544217" width="7.199999999999999" height="23.25363347455783" fill="#ff4444" opacity="0.3"/>
<rect x="229.8" y="322.6477825708314" width="7.199999999999999" height="22.352217429168604" fill="#44aa44" opacity="0.3"/>
<rect x="241.8" y="314.9763864408322" width="7.199999999999999" height="30.023613559167813" fill="#ff4444" opacity="0.3"/>
<rect x="253.8" y="318.2339122585041" width="7.199999999999999" height="26.76608774149588" fill="#ff4444" opacity="0.3"/>
<rect x="265.8" y="311.91382919602677" width="7.199999999999999" height="33.08617080397323" fill="#ff4444" opacity="0.3"/>
<rect x="277.8" y="321.32333395847616" width="7.199999999999999" height="23.676666041523845" fill="#ff4444" opacity="0.3"/>
<rect x="289.8" y="324.96574084794645" width="7.199999999999999" height="20.03425915205355" fill="#ff4444" opacity="0.3"/>
<rect x="301.8" y="322.4396060634939" width="7.199999999999999" height="22.560393936506102" fill="#44aa44" opacity="0.3"/>
<rect x="313.8" y="327.0221511976202" width="7.199999999999999" height="17.97784880237981" fill="#44aa44" opacity="0.3"/>
<rect x="325.8" y="330.31052704334803" width="7.199999999999999" height="14.689472956651969" fill="#ff4444" opacity="0.3"/>
<rect x="337.8" y="332.4310153008116" width="7.199999999999999" height="12.568984699188377" fill="#ff4444" opacity="0.3"/>
<rect x="349.8" y="331.05049685725385" width="7.199999999999999" height="13.949503142746153" fill="#44aa44" opacity="0.3"/>
<rect x="361.8" y="329.6048354213794" width="7.199999999999999" height="15.395164578620609" fill="#44aa44" opacity="0.3"/>
<rect x="373.8" y="334.2587894750543" width="7.199999999999999" height="10.7412105249457" fill="#44aa44" opacity="0.3"/>
<rect x="385.8" y="328.4372723318221" width="7.199999999999999" height="16.5627276681779" fill="#44aa44" opacity="0.3"/>
<rect x="397.8" y="331.0069603577476" width="7.199999999999999" height="13.993039642252427" fill="#ff4444" opacity="0.3"/>
<rect x="409.8" y="321.8863111476122" width="7.199999999999999" height="23.11368885238778" fill="#ff4444" opacity="0.3"/>
<rect x="421.8" y="330.305672857835" width="7.199999999999999" height="14.69432714216498" fill="#44aa44" opacity="0.3"/>
<rect x="433.8" y="323.0954061323723" width="7.199999999999999" height="21.904593867627682" fill="#ff4444" opacity="0.3"/>
<rect x="445.8" y="326.5290303568294" width="7.199999999999999" height="18.470969643170577" fill="#44aa44" opacity="0.3"/>
<rect x="457.8" y="325.9073651883499" width="7.199999999999999" height="19.0926348116501" fill="#44aa44" opacity="0.3"/>
<rect x="469.8" y="322.31731190589204" width="7.199999999999999" height="22.68268809410796" fill="#44aa44" opacity="0.3"/>
<rect x="481.8" y="324.38751665128103" width="7.199999999999999" height="20.612483348718968" fill="#ff4444" opacity="0.3"/>
<rect x="493.8" y="324.50612412933975" width="7.199999999999999" height="20.493875870660247" fill="#ff4444" opacity="0.3"/>
<rect x="505.8" y="328.13462583066826" width="7.199999999999999" height="16.865374169331744" fill="#44aa44" opacity="0.3"/>
<rect x="517.8" y="330.84103368053655" width="7.199999999999999" height="14.158966319463445" fill="#ff4444" opacity="0.3"/>
<rect x="529.8" y="323.6566293542942" width="7.199999999999999" height="21.343370645705818" fill="#ff4444" opacity="0.3"/>
<rect x="541.8" y="325.21616078407027" width="7.199999999999999" height="19.78383921592973" fill="#44aa44" opacity="0.3"/>
<rect x="553.8" y="300.0" width="7.199999999999999" height="45.0" fill="#44aa44" opacity="0.3"/>
<rect x="565.8" y="321.9511375197945" width="7.199999999999999" height="23.048862480205514" fill="#44aa44" opacity="0.3"/>
<rect x="577.8" y="327.37402646694835" width="7.199999999999999" height="17.62597353305165" fill="#44aa44" opacity="0.3"/>
<rect x="589.8" y="331.42692323588335" width="7.199999999999999" height="13.57307676411665" fill="#ff4444" opacity="0.3"/>
<rect x="601.8" y="330.12437311593374" width="7.199999999999999" height="14.875626884066264" fill="#44aa44" opacity="0.3"/>
<rect x="613.8" y="324.2728203920831" width="7.199999999999999" height="20.727179607916923" fill="#44aa44" opacity="0.3"/>
<rect x="625.8" y="318.70869522927154" width="7.199999999999999" height="26.29130477072846" fill="#ff4444" opacity="0.3"/>
<rect x="637.8" y="330.3259148803617" width="7.199999999999999" height="14.674085119638278" fill="#44aa44" opacity="0.3"/>
<rect x="649.8" y="316.38715958780756" width="7.199999999999999" height="28.61284041219244" fill="#ff4444" opacity="0.3"/>
<rect x="661.8" y="319.14975544746665" width="7.199999999999999" height="25.850244552533354" fill="#ff4444" opacity="0.3"/>
<rect x="673.8" y="324.1346430322183" width="7.199999999999999" height="20.86535696778168" fill="#ff4444" opacity="0.3"/>
<rect x="685.8" y="326.17562516719397" width="7.199999999999999" height="18.82437483280603" fill="#44aa44" opacity="0.3"/>
<rect x="697.8" y="327.4671374069996" width="7.199999999999999" height="17.532862593000402" fill="#44aa44" opacity="0.3"/>
<rect x="709.8" y="330.59021686132047" width="7.199999999999999" height="14.40978313867953" fill="#ff4444" opacity="0.3"/>
<rect x="721.8" y="328.3047138714186" width="7.199999999999999" height="16.695286128581415" fill="#44aa44" opacity="0.3"/>
<rect x="733.8" y="328.91668199432013" width="7.199999999999999" height="16.08331800567987" fill="#ff4444" opacity="0.3"/>
<rect x="745.8" y="328.84419912685064" width="7.199999999999999" height="16.15580087314936" fill="#44aa44" opacity="0.3"/>
<rect x="757.8" y="325.0929152888329" width="7.199999999999999" height="19.9070847111671" fill="#ff4444" opacity="0.3"/>
<rect x="769.8" y="321.5172743776248" width="7.199999999999999" height="23.4827256223752" fill="#ff4444" opacity="0.3"/>
<polyline points="66.0,269.62 78.0,268.49 90.0,275.23 102.0,273.64 114.0,272.24 126.0,275.00 138.0,267.68 150.0,262.58 162.0,264.35 174.0,261.70 186.0,261.11 198.0,264.87 210.0,263.00 222.0,256.23 234.0,258.59 246.0,248.22 258.0,238.58 270.0,221.62 282.0,215.09 294.0,208.56 306.0,201.85 318.0,202.90 330.0,206.35 342.0,205.50 354.0,209.39 366.0,206.89 378.0,208.99 390.0,208.14 402.0,206.60 414.0,193.28 426.0,187.70 438.0,174.65 450.0,168.76 462.0,162.74 474.0,165.33 486.0,155.43 498.0,134.03 510.0,121.49 522.0,114.42 534.0,97.01 546.0,89.55 558.0,104.97 570.0,115.04 582.0,122.48 594.0,127.00 606.0,133.24 618.0,138.34 630.0,129.97 642.0,127.78 654.0,122.87 666.0,111.31 678.0,93.13 690.0,84.20 702.0,80.50 714.0,80.94 726.0,89.11 738.0,90.12 750.0,97.10 762.0,90.04 774.0,70.33" fill="none" stroke="#ffd700" stroke-width="0.8" opacity="0.7"/>
<polyline points="66.0,269.62 78.0,269.00 90.0,272.58 102.0,272.20 114.0,271.70 126.0,273.30 138.0,269.61 150.0,266.48 162.0,266.74 174.0,264.86 186.0,263.96 198.0,265.50 210.0,264.36 222.0,260.42 234.0,260.95 246.0,254.86 258.0,248.39 270.0,237.36 282.0,230.93 294.0,224.49 306.0,217.94 318.0,215.58 330.0,215.16 342.0,213.09 354.0,213.84 366.0,211.66 378.0,211.94 390.0,210.94 402.0,209.59 414.0,201.78 426.0,197.19 438.0,188.35 450.0,182.64 462.0,176.83 474.0,175.69 486.0,168.40 498.0,154.37 510.0,143.83 522.0,135.91 534.0,122.51 546.0,113.80 558.0,117.80 570.0,120.96 582.0,123.95 594.0,126.15 606.0,129.70 618.0,133.13 630.0,129.51 642.0,128.40 654.0,125.61 666.0,118.81 678.0,107.53 690.0,100.04 702.0,95.14 714.0,92.72 726.0,95.03 738.0,94.50 750.0,97.51 762.0,93.59 774.0,82.19" fill="none" stroke="#ff6b6b" stroke-width="0.8" opacity="0.7"/>
<polyline points="66.0,269.62 78.0,269.30 90.0,271.14 102.0,271.08 114.0,270.92 126.0,271.84 138.0,270.04 150.0,268.36 162.0,268.32 174.0,267.18 186.0,266.49 198.0,267.06 210.0,266.31 222.0,264.06 234.0,263.99 246.0,260.51 258.0,256.59 270.0,250.03 282.0,245.45 294.0,240.70 306.0,235.72 318.0,232.79 330.0,230.93 342.0,228.35 354.0,227.28 366.0,224.87 378.0,223.75 390.0,222.10 402.0,220.33 414.0,215.22 426.0,211.54 438.0,205.54 450.0,200.91 462.0,196.13 474.0,193.69 486.0,188.16 498.0,178.93 510.0,171.07 522.0,164.33 534.0,154.60 546.0,146.98 558.0,145.92 570.0,144.90 582.0,144.18 594.0,143.41 606.0,143.62 618.0,144.09 630.0,141.15 642.0,139.46 654.0,136.95 666.0,132.30 678.0,125.11 690.0,119.51 702.0,115.09 714.0,111.92 726.0,111.31 738.0,109.48 750.0,109.63 762.0,106.42 774.0,99.23" fill="none" stroke="#4ecdc4" stroke-width="0.8" opacity="0.7"/>
<line x1="66.0" y1="264.1861355802374" x2="66.0" y2="281.23994638069706" stroke="#ff4444" stroke-width="0.5" opacity="0.6"/>
<rect x="63.0" y="269.61509000382995" width="6.0" height="10.340865568747631" fill="#ff4444" opacity="0.85"/>
<line x1="78.0" y1="263.9448487169667" x2="78.0" y2="275.3801225584067" stroke="#ff4444" stroke-width="0.5" opacity="0.6"/>
<rect x="75.0" y="266.254308693987" width="6.0" height="1.6286863270777303" fill="#ff4444" opacity="0.85"/>
<line x1="90.0" y1="277.5947912677135" x2="90.0" y2="290.27958636537727" stroke="#44aa44" stroke-width="0.5" opacity="0.6"/>
<rect x="87.0" y="279.09421677518196" width="6.0" height="9.599770202987315" fill="#44aa44" opacity="0.85"/>
<line x1="102.0" y1="267.0298736116431" x2="102.0" y2="300.0" stroke="#ff4444" stroke-width="0.5" opacity="0.6"/>
<rect x="99.0" y="270.47682880122557" width="6.0" height="28.661432401378818" fill="#ff4444" opacity="0.85"/>
<line x1="114.0" y1="257.9988510149368" x2="114.0" y2="272.20030639601686" stroke="#ff4444" stroke-width="0.5" opacity="0.6"/>
<rect x="111.0" y="269.4427422443508" width="6.0" height="1.0340865568747404" fill="#ff4444" opacity="0.85"/>
<line x1="126.0" y1="267.9950210647262" x2="126.0" y2="282.842780543853" stroke="#44aa44" stroke-width="0.5" opacity="0.6"/>
<rect x="123.0" y="273.4067407123707" width="6.0" height="7.092110302566084" fill="#44aa44" opacity="0.85"/>
<line x1="138.0" y1="234.62849482956722" x2="138.0" y2="268.52929911911144" stroke="#ff4444" stroke-width="0.5" opacity="0.6"/>
<rect x="135.0" y="253.03523554193794" width="6.0" height="14.04634239754887" fill="#ff4444" opacity="0.85"/>
<line x1="150.0" y1="243.76292608196093" x2="150.0" y2="265.2288395250862" stroke="#ff4444" stroke-width="0.5" opacity="0.6"/>
<rect x="147.0" y="252.3803140559173" width="6.0" height="7.566066641133631" fill="#ff4444" opacity="0.85"/>
<line x1="162.0" y1="265.03063960168515" x2="162.0" y2="280.5419379548066" stroke="#ff4444" stroke-width="0.5" opacity="0.6"/>
<rect x="159.0" y="267.89161240903866" width="6.0" height="3.4469551895825816" fill="#ff4444" opacity="0.85"/>
<line x1="174.0" y1="253.2420528533129" x2="174.0" y2="269.10666411336655" stroke="#ff4444" stroke-width="0.5" opacity="0.6"/>
<rect x="171.0" y="256.4046342397549" width="6.0" height="2.2232860972807202" fill="#ff4444" opacity="0.85"/>
<line x1="186.0" y1="247.20988127154348" x2="186.0" y2="260.8253542703945" stroke="#44aa44" stroke-width="0.5" opacity="0.6"/>
<rect x="183.0" y="254.0951742627346" width="6.0" height="5.842589046342368" fill="#44aa44" opacity="0.85"/>
<line x1="198.0" y1="249.92435848333972" x2="198.0" y2="275.06989659134433" stroke="#44aa44" stroke-width="0.5" opacity="0.6"/>
<rect x="195.0" y="254.0951742627346" width="6.0" height="18.303332056683246" fill="#44aa44" opacity="0.85"/>
<line x1="210.0" y1="254.11240903868247" x2="210.0" y2="278.2152432018384" stroke="#ff4444" stroke-width="0.5" opacity="0.6"/>
<rect x="207.0" y="259.2483722711605" width="6.0" height="17.967253925698913" fill="#ff4444" opacity="0.85"/>
<line x1="222.0" y1="238.56664113366526" x2="222.0" y2="260.9977020298736" stroke="#ff4444" stroke-width="0.5" opacity="0.6"/>
<rect x="219.0" y="242.7029873611643" width="6.0" height="14.813289927230954" fill="#ff4444" opacity="0.85"/>
<line x1="234.0" y1="230.9402527767139" x2="234.0" y2="266.22845653006516" stroke="#44aa44" stroke-width="0.5" opacity="0.6"/>
<rect x="231.0" y="235.13692072003064" width="6.0" height="28.16162389888936" fill="#44aa44" opacity="0.85"/>
<line x1="246.0" y1="227.08828035235538" x2="246.0" y2="255.8272692454998" stroke="#ff4444" stroke-width="0.5" opacity="0.6"/>
<rect x="243.0" y="227.47606281118345" width="6.0" height="27.317119877441627" fill="#ff4444" opacity="0.85"/>
<line x1="258.0" y1="210.31884335503636" x2="258.0" y2="230.82822673305247" stroke="#ff4444" stroke-width="0.5" opacity="0.6"/>
<rect x="255.0" y="219.28954423592495" width="6.0" height="11.538682497127525" fill="#ff4444" opacity="0.85"/>
<line x1="270.0" y1="176.30601302183072" x2="270.0" y2="203.3646112600536" stroke="#ff4444" stroke-width="0.5" opacity="0.6"/>
<rect x="267.0" y="187.70681731137492" width="6.0" height="7.7987361164305185" fill="#ff4444" opacity="0.85"/>
<line x1="282.0" y1="187.0001914975105" x2="282.0" y2="208.43163538873995" stroke="#ff4444" stroke-width="0.5" opacity="0.6"/>
<rect x="279.0" y="202.02029873611644" width="6.0" height="3.714094216775152" fill="#ff4444" opacity="0.85"/>
<line x1="294.0" y1="195.2211796246649" x2="294.0" y2="221.35771734967446" stroke="#ff4444" stroke-width="0.5" opacity="0.6"/>
<rect x="291.0" y="195.50555342780544" width="6.0" height="7.755649176560695" fill="#ff4444" opacity="0.85"/>
<line x1="306.0" y1="174.8238222903102" x2="306.0" y2="199.81424741478358" stroke="#44aa44" stroke-width="0.5" opacity="0.6"/>
<rect x="303.0" y="176.3663347376484" width="6.0" height="12.072960551512836" fill="#44aa44" opacity="0.85"/>
<line x1="318.0" y1="185.1646878590578" x2="318.0" y2="206.60474913826118" stroke="#44aa44" stroke-width="0.5" opacity="0.6"/>
<rect x="315.0" y="194.6265798544619" width="6.0" height="10.358100344695487" fill="#44aa44" opacity="0.85"/>
<line x1="330.0" y1="201.27920337035619" x2="330.0" y2="219.62562236690923" stroke="#ff4444" stroke-width="0.5" opacity="0.6"/>
<rect x="327.0" y="213.24875526618152" width="6.0" height="0.9651474530831194" fill="#ff4444" opacity="0.85"/>
<line x1="342.0" y1="198.95250861738796" x2="342.0" y2="215.15319800842587" stroke="#ff4444" stroke-width="0.5" opacity="0.6"/>
<rect x="339.0" y="203.79548065875142" width="6.0" height="11.35771734967446" fill="#ff4444" opacity="0.85"/>
<line x1="354.0" y1="207.13902719264647" x2="354.0" y2="224.20145538108005" stroke="#44aa44" stroke-width="0.5" opacity="0.6"/>
<rect x="351.0" y="214.76541554959786" width="6.0" height="2.421486020681755" fill="#44aa44" opacity="0.85"/>
<line x1="366.0" y1="199.81424741478358" x2="366.0" y2="216.18728456530064" stroke="#44aa44" stroke-width="0.5" opacity="0.6"/>
<rect x="363.0" y="201.0810034469552" width="6.0" height="0.8014170815778812" fill="#44aa44" opacity="0.85"/>
<line x1="378.0" y1="201.55495978552275" x2="378.0" y2="217.22137112217538" stroke="#44aa44" stroke-width="0.5" opacity="0.6"/>
<rect x="375.0" y="208.33684412102642" width="6.0" height="4.842972041363453" fill="#44aa44" opacity="0.85"/>
<line x1="390.0" y1="194.6438146304098" x2="390.0" y2="207.5268096514745" stroke="#44aa44" stroke-width="0.5" opacity="0.6"/>
<rect x="387.0" y="204.9846801991574" width="6.0" height="1.4649559555725773" fill="#44aa44" opacity="0.85"/>
<line x1="402.0" y1="195.50555342780544" x2="402.0" y2="218.60877058598237" stroke="#ff4444" stroke-width="0.5" opacity="0.6"/>
<rect x="399.0" y="203.51972424358485" width="6.0" height="7.4971275373419815" fill="#ff4444" opacity="0.85"/>
<line x1="414.0" y1="166.2064343163539" x2="414.0" y2="194.56625813864423" stroke="#ff4444" stroke-width="0.5" opacity="0.6"/>
<rect x="411.0" y="166.63730371505167" width="6.0" height="22.749904251244715" fill="#ff4444" opacity="0.85"/>
<line x1="426.0" y1="169.8257372654155" x2="426.0" y2="178.27077747989276" stroke="#44aa44" stroke-width="0.5" opacity="0.6"/>
<rect x="423.0" y="175.42703944848714" width="6.0" height="1.1202604366143305" fill="#44aa44" opacity="0.85"/>
<line x1="438.0" y1="143.80122558406737" x2="438.0" y2="180.85599387207967" stroke="#ff4444" stroke-width="0.5" opacity="0.6"/>
<rect x="435.0" y="148.54078896974337" width="6.0" height="25.421294523171184" fill="#ff4444" opacity="0.85"/>
<line x1="450.0" y1="148.97165836844118" x2="450.0" y2="167.92129452317118" stroke="#44aa44" stroke-width="0.5" opacity="0.6"/>
<rect x="447.0" y="152.4186135580237" width="6.0" height="4.5499808502489145" fill="#44aa44" opacity="0.85"/>
<line x1="462.0" y1="134.408272692455" x2="462.0" y2="155.00382995021062" stroke="#44aa44" stroke-width="0.5" opacity="0.6"/>
<rect x="459.0" y="148.16162389888922" width="6.0" height="2.533512064343256" fill="#44aa44" opacity="0.85"/>
<line x1="474.0" y1="138.63079279969358" x2="474.0" y2="176.53006510915358" stroke="#44aa44" stroke-width="0.5" opacity="0.6"/>
<rect x="471.0" y="146.3692072003064" width="6.0" height="24.163155878973527" fill="#44aa44" opacity="0.85"/>
<line x1="486.0" y1="133.52068173113753" x2="486.0" y2="171.37686710072765" stroke="#ff4444" stroke-width="0.5" opacity="0.6"/>
<rect x="483.0" y="135.61470700880886" width="6.0" height="34.90042129452317" fill="#ff4444" opacity="0.85"/>
<line x1="498.0" y1="90.39065492148598" x2="498.0" y2="131.71103025660665" stroke="#ff4444" stroke-width="0.5" opacity="0.6"/>
<rect x="495.0" y="91.23515894293371" width="6.0" height="33.60781309842973" fill="#ff4444" opacity="0.85"/>
<line x1="510.0" y1="84.37571811566443" x2="510.0" y2="101.57602451168131" stroke="#44aa44" stroke-width="0.5" opacity="0.6"/>
<rect x="507.0" y="91.23515894293371" width="6.0" height="5.170432784373801" fill="#44aa44" opacity="0.85"/>
<line x1="522.0" y1="96.41420911528147" x2="522.0" y2="111.05515128303328" stroke="#ff4444" stroke-width="0.5" opacity="0.6"/>
<rect x="519.0" y="100.28341631558787" width="6.0" height="0.5" fill="#ff4444" opacity="0.85"/>
<line x1="534.0" y1="59.988510149368025" x2="534.0" y2="109.30582152432018" stroke="#ff4444" stroke-width="0.5" opacity="0.6"/>
<rect x="531.0" y="62.185944082726856" width="6.0" height="46.28399080811952" fill="#ff4444" opacity="0.85"/>
<line x1="546.0" y1="57.799693603983144" x2="546.0" y2="80.90291076216005" stroke="#44aa44" stroke-width="0.5" opacity="0.6"/>
<rect x="543.0" y="65.38299502106469" width="6.0" height="9.237839908081213" fill="#44aa44" opacity="0.85"/>
<line x1="558.0" y1="110.4864036767522" x2="558.0" y2="143.79260819609343" stroke="#44aa44" stroke-width="0.5" opacity="0.6"/>
<rect x="555.0" y="122.4645729605515" width="6.0" height="13.348333971658377" fill="#44aa44" opacity="0.85"/>
<line x1="570.0" y1="122.25775564917654" x2="570.0" y2="137.88969743393332" stroke="#44aa44" stroke-width="0.5" opacity="0.6"/>
<rect x="567.0" y="125.36001531980084" width="6.0" height="9.82382229031019" fill="#44aa44" opacity="0.85"/>
<line x1="582.0" y1="126.5664496361547" x2="582.0" y2="153.2717349674454" stroke="#44aa44" stroke-width="0.5" opacity="0.6"/>
<rect x="579.0" y="135.75258521639213" width="6.0" height="1.6200689391037884" fill="#44aa44" opacity="0.85"/>
<line x1="594.0" y1="125.27384144006125" x2="594.0" y2="145.52470317885866" stroke="#ff4444" stroke-width="0.5" opacity="0.6"/>
<rect x="591.0" y="136.0455764075067" width="6.0" height="6.89391037916505" fill="#ff4444" opacity="0.85"/>
<line x1="606.0" y1="125.70471083875907" x2="606.0" y2="152.4186135580237" stroke="#44aa44" stroke-width="0.5" opacity="0.6"/>
<rect x="603.0" y="125.70471083875907" width="6.0" height="20.000957487552682" fill="#44aa44" opacity="0.85"/>
<line x1="618.0" y1="131.23707391803902" x2="618.0" y2="153.28035235541935" stroke="#44aa44" stroke-width="0.5" opacity="0.6"/>
<rect x="615.0" y="133.54653389505935" width="6.0" height="15.011489850631932" fill="#44aa44" opacity="0.85"/>
<line x1="630.0" y1="111.91689008042893" x2="630.0" y2="156.7273075450019" stroke="#ff4444" stroke-width="0.5" opacity="0.6"/>
<rect x="627.0" y="113.20949827652238" width="6.0" height="34.16794331673687" fill="#ff4444" opacity="0.85"/>
<line x1="642.0" y1="115.37246265798541" x2="642.0" y2="127.88490999617" stroke="#44aa44" stroke-width="0.5" opacity="0.6"/>
<rect x="639.0" y="122.25775564917654" width="6.0" height="1.1461126005362132" fill="#44aa44" opacity="0.85"/>
<line x1="654.0" y1="107.61681348142471" x2="654.0" y2="146.17100727690539" stroke="#ff4444" stroke-width="0.5" opacity="0.6"/>
<rect x="651.0" y="113.03715051704322" width="6.0" height="8.358866334737684" fill="#ff4444" opacity="0.85"/>
<line x1="666.0" y1="81.97146687093064" x2="666.0" y2="106.82401378782075" stroke="#ff4444" stroke-width="0.5" opacity="0.6"/>
<rect x="663.0" y="88.20183837610108" width="6.0" height="15.097663730371494" fill="#ff4444" opacity="0.85"/>
<line x1="678.0" y1="55.22309459977019" x2="678.0" y2="97.11221754117197" stroke="#ff4444" stroke-width="0.5" opacity="0.6"/>
<rect x="675.0" y="56.774224435082296" width="6.0" height="37.81309842972042" fill="#ff4444" opacity="0.85"/>
<line x1="690.0" y1="35.480658751436145" x2="690.0" y2="75.81003446955188" stroke="#44aa44" stroke-width="0.5" opacity="0.6"/>
<rect x="687.0" y="45.99387207966292" width="6.0" height="20.337035618536973" fill="#44aa44" opacity="0.85"/>
<line x1="702.0" y1="56.179624664879356" x2="702.0" y2="93.57908847184986" stroke="#44aa44" stroke-width="0.5" opacity="0.6"/>
<rect x="699.0" y="67.10647261585595" width="6.0" height="5.989084641899694" fill="#44aa44" opacity="0.85"/>
<line x1="714.0" y1="66.87380314055915" x2="714.0" y2="87.78820375335117" stroke="#ff4444" stroke-width="0.5" opacity="0.6"/>
<rect x="711.0" y="81.82497127537341" width="6.0" height="0.7927996936039534" fill="#ff4444" opacity="0.85"/>
<line x1="726.0" y1="81.83358866334737" x2="726.0" y2="115.95844504021449" stroke="#44aa44" stroke-width="0.5" opacity="0.6"/>
<rect x="723.0" y="82.1782841823056" width="6.0" height="23.27556491765607" fill="#44aa44" opacity="0.85"/>
<line x1="738.0" y1="80.99770202987358" x2="738.0" y2="106.30697050938336" stroke="#ff4444" stroke-width="0.5" opacity="0.6"/>
<rect x="735.0" y="92.12274990425118" width="6.0" height="10.840674071237117" fill="#ff4444" opacity="0.85"/>
<line x1="750.0" y1="78.71409421677518" x2="750.0" y2="111.68422060513211" stroke="#44aa44" stroke-width="0.5" opacity="0.6"/>
<rect x="747.0" y="91.81252393718874" width="6.0" height="19.24262734584454" fill="#44aa44" opacity="0.85"/>
<line x1="762.0" y1="69.79509766373033" x2="762.0" y2="107.60819609345076" stroke="#ff4444" stroke-width="0.5" opacity="0.6"/>
<rect x="759.0" y="75.92206051321331" width="6.0" height="25.36959019532742" fill="#ff4444" opacity="0.85"/>
<line x1="774.0" y1="30.0" x2="774.0" y2="86.05610877058595" stroke="#ff4444" stroke-width="0.5" opacity="0.6"/>
<rect x="771.0" y="30.904825737265377" width="6.0" height="33.50440444274225" fill="#ff4444" opacity="0.85"/>
<rect x="134.0" y="230.62849482956722" width="8" height="8" fill="#ff9800" opacity="0.85" rx="1"/>
<text x="138.0" y="228.62849482956722" text-anchor="middle" font-family="sans-serif" font-size="8" fill="#ff9800">前高</text>
<rect x="230.0" y="226.9402527767139" width="8" height="8" fill="#ff9800" opacity="0.85" rx="1"/>
<text x="234.0" y="224.9402527767139" text-anchor="middle" font-family="sans-serif" font-size="8" fill="#ff9800">前高</text>
<rect x="242.0" y="223.08828035235538" width="8" height="8" fill="#ff9800" opacity="0.85" rx="1"/>
<text x="246.0" y="221.08828035235538" text-anchor="middle" font-family="sans-serif" font-size="8" fill="#ff9800">前高</text>
<rect x="242.0" y="223.08828035235538" width="8" height="8" fill="#2196f3" opacity="0.85" rx="1"/>
<text x="246.0" y="221.08828035235538" text-anchor="middle" font-family="sans-serif" font-size="8" fill="#2196f3">突</text>
<rect x="254.0" y="206.31884335503636" width="8" height="8" fill="#ff9800" opacity="0.85" rx="1"/>
<text x="258.0" y="204.31884335503636" text-anchor="middle" font-family="sans-serif" font-size="8" fill="#ff9800">前高</text>
<rect x="266.0" y="172.30601302183072" width="8" height="8" fill="#ff9800" opacity="0.85" rx="1"/>
<text x="270.0" y="170.30601302183072" text-anchor="middle" font-family="sans-serif" font-size="8" fill="#ff9800">前高</text>
<rect x="302.0" y="170.8238222903102" width="8" height="8" fill="#ff9800" opacity="0.85" rx="1"/>
<text x="306.0" y="168.8238222903102" text-anchor="middle" font-family="sans-serif" font-size="8" fill="#ff9800">前高</text>
<rect x="410.0" y="162.2064343163539" width="8" height="8" fill="#ff9800" opacity="0.85" rx="1"/>
<text x="414.0" y="160.2064343163539" text-anchor="middle" font-family="sans-serif" font-size="8" fill="#ff9800">前高</text>
<rect x="410.0" y="162.2064343163539" width="8" height="8" fill="#2196f3" opacity="0.85" rx="1"/>
<text x="414.0" y="160.2064343163539" text-anchor="middle" font-family="sans-serif" font-size="8" fill="#2196f3">突</text>
<rect x="434.0" y="139.80122558406737" width="8" height="8" fill="#ff9800" opacity="0.85" rx="1"/>
<text x="438.0" y="137.80122558406737" text-anchor="middle" font-family="sans-serif" font-size="8" fill="#ff9800">前高</text>
<rect x="434.0" y="139.80122558406737" width="8" height="8" fill="#2196f3" opacity="0.85" rx="1"/>
<text x="438.0" y="137.80122558406737" text-anchor="middle" font-family="sans-serif" font-size="8" fill="#2196f3">突</text>
<rect x="458.0" y="130.408272692455" width="8" height="8" fill="#ff9800" opacity="0.85" rx="1"/>
<text x="462.0" y="128.408272692455" text-anchor="middle" font-family="sans-serif" font-size="8" fill="#ff9800">前高</text>
<rect x="482.0" y="129.52068173113753" width="8" height="8" fill="#ff9800" opacity="0.85" rx="1"/>
<text x="486.0" y="127.52068173113753" text-anchor="middle" font-family="sans-serif" font-size="8" fill="#ff9800">前高</text>
<rect x="494.0" y="86.39065492148598" width="8" height="8" fill="#ff9800" opacity="0.85" rx="1"/>
<text x="498.0" y="84.39065492148598" text-anchor="middle" font-family="sans-serif" font-size="8" fill="#ff9800">前高</text>
<rect x="494.0" y="86.39065492148598" width="8" height="8" fill="#2196f3" opacity="0.85" rx="1"/>
<text x="498.0" y="84.39065492148598" text-anchor="middle" font-family="sans-serif" font-size="8" fill="#2196f3">突</text>
<rect x="506.0" y="80.37571811566443" width="8" height="8" fill="#ff9800" opacity="0.85" rx="1"/>
<text x="510.0" y="78.37571811566443" text-anchor="middle" font-family="sans-serif" font-size="8" fill="#ff9800">前高</text>
<rect x="530.0" y="55.988510149368025" width="8" height="8" fill="#ff9800" opacity="0.85" rx="1"/>
<text x="534.0" y="53.988510149368025" text-anchor="middle" font-family="sans-serif" font-size="8" fill="#ff9800">前高</text>
<rect x="530.0" y="55.988510149368025" width="8" height="8" fill="#2196f3" opacity="0.85" rx="1"/>
<text x="534.0" y="53.988510149368025" text-anchor="middle" font-family="sans-serif" font-size="8" fill="#2196f3">突</text>
<rect x="542.0" y="53.799693603983144" width="8" height="8" fill="#ff9800" opacity="0.85" rx="1"/>
<text x="546.0" y="51.799693603983144" text-anchor="middle" font-family="sans-serif" font-size="8" fill="#ff9800">前高</text>
<rect x="554.0" y="89.83330141708163" width="8" height="8" fill="#ff9800" opacity="0.85" rx="1"/>
<text x="558.0" y="87.83330141708163" text-anchor="middle" font-family="sans-serif" font-size="8" fill="#ff9800">量</text>
<rect x="614.0" y="149.28035235541935" width="8" height="8" fill="#4caf50" opacity="0.85" rx="1"/>
<text x="618.0" y="147.28035235541935" text-anchor="middle" font-family="sans-serif" font-size="8" fill="#4caf50">前低</text>
<rect x="626.0" y="152.7273075450019" width="8" height="8" fill="#4caf50" opacity="0.85" rx="1"/>
<text x="630.0" y="150.7273075450019" text-anchor="middle" font-family="sans-serif" font-size="8" fill="#4caf50">前低</text>
<rect x="674.0" y="51.22309459977019" width="8" height="8" fill="#ff9800" opacity="0.85" rx="1"/>
<text x="678.0" y="49.22309459977019" text-anchor="middle" font-family="sans-serif" font-size="8" fill="#ff9800">前高</text>
<rect x="674.0" y="51.22309459977019" width="8" height="8" fill="#2196f3" opacity="0.85" rx="1"/>
<text x="678.0" y="49.22309459977019" text-anchor="middle" font-family="sans-serif" font-size="8" fill="#2196f3">突</text>
<rect x="686.0" y="31.480658751436145" width="8" height="8" fill="#ff9800" opacity="0.85" rx="1"/>
<text x="690.0" y="29.480658751436145" text-anchor="middle" font-family="sans-serif" font-size="8" fill="#ff9800">前高</text>
<rect x="770.0" y="26.0" width="8" height="8" fill="#ff9800" opacity="0.85" rx="1"/>
<text x="774.0" y="24.0" text-anchor="middle" font-family="sans-serif" font-size="8" fill="#ff9800">前高</text>
<rect x="770.0" y="26.0" width="8" height="8" fill="#2196f3" opacity="0.85" rx="1"/>
<text x="774.0" y="24.0" text-anchor="middle" font-family="sans-serif" font-size="8" fill="#2196f3">突</text>
<text x="66.0" y="359" text-anchor="middle" font-family="sans-serif" font-size="8" fill="#666666" transform="rotate(-40,66.0,359)">02/25</text>
<text x="138.0" y="359" text-anchor="middle" font-family="sans-serif" font-size="8" fill="#666666" transform="rotate(-40,138.0,359)">03/05</text>
<text x="210.0" y="359" text-anchor="middle" font-family="sans-serif" font-size="8" fill="#666666" transform="rotate(-40,210.0,359)">03/13</text>
<text x="282.0" y="359" text-anchor="middle" font-family="sans-serif" font-size="8" fill="#666666" transform="rotate(-40,282.0,359)">03/23</text>
<text x="354.0" y="359" text-anchor="middle" font-family="sans-serif" font-size="8" fill="#666666" transform="rotate(-40,354.0,359)">03/31</text>
<text x="426.0" y="359" text-anchor="middle" font-family="sans-serif" font-size="8" fill="#666666" transform="rotate(-40,426.0,359)">04/09</text>
<text x="498.0" y="359" text-anchor="middle" font-family="sans-serif" font-size="8" fill="#666666" transform="rotate(-40,498.0,359)">04/17</text>
<text x="570.0" y="359" text-anchor="middle" font-family="sans-serif" font-size="8" fill="#666666" transform="rotate(-40,570.0,359)">04/27</text>
<text x="642.0" y="359" text-anchor="middle" font-family="sans-serif" font-size="8" fill="#666666" transform="rotate(-40,642.0,359)">05/08</text>
<text x="714.0" y="359" text-anchor="middle" font-family="sans-serif" font-size="8" fill="#666666" transform="rotate(-40,714.0,359)">05/18</text>
<text x="774.0" y="359" text-anchor="middle" font-family="sans-serif" font-size="8" fill="#666666" transform="rotate(-40,774.0,359)">05/25</text>
<text x="400.0" y="396" text-anchor="middle" font-family="sans-serif" font-size="9" fill="#555555">数据截至: 2026-05-26 17:33  |  最新K线: 20260525</text>
<rect x="50" y="373" width="8" height="8" fill="#ffd700" opacity="0.8" rx="1"/>
<text x="61" y="380" font-family="sans-serif" font-size="9" fill="#888888">EMA5</text>
<rect x="150" y="373" width="8" height="8" fill="#ff6b6b" opacity="0.8" rx="1"/>
<text x="161" y="380" font-family="sans-serif" font-size="9" fill="#888888">EMA10</text>
<rect x="250" y="373" width="8" height="8" fill="#4ecdc4" opacity="0.8" rx="1"/>
<text x="261" y="380" font-family="sans-serif" font-size="9" fill="#888888">EMA20</text>
<rect x="350" y="373" width="8" height="8" fill="#2196f3" opacity="0.8" rx="1"/>
<text x="361" y="380" font-family="sans-serif" font-size="9" fill="#888888">突破</text>
<rect x="450" y="373" width="8" height="8" fill="#ff9800" opacity="0.8" rx="1"/>
<text x="461" y="380" font-family="sans-serif" font-size="9" fill="#888888">前高/量</text>
<rect x="550" y="373" width="8" height="8" fill="#4caf50" opacity="0.8" rx="1"/>
<text x="561" y="380" font-family="sans-serif" font-size="9" fill="#888888">前低</text>
</svg>