<svg xmlns="http://www.w3.org/2000/svg" width="750" height="540" viewBox="0 0 750 540">
<rect width="750" height="540" fill="#1a1a2e"/>
<text x="375.0" y="22" text-anchor="middle" font-family="sans-serif" font-size="15" fill="#ffffff" font-weight="bold">兆易创新(603986) 趋势交易分析图</text>
<text x="60" y="31" font-family="sans-serif" font-size="10" fill="#888888">最新: 514.18</text>
<line x1="60" y1="92.92884474240824" x2="725" y2="92.92884474240824" stroke="#4ecdc4" stroke-width="0.5" stroke-dasharray="4,3" opacity="0.4"/>
<text x="62" y="90.92884474240824" font-family="sans-serif" font-size="7" fill="#4ecdc4" opacity="0.6">买入↑2%</text>
<line x1="60" y1="57.094267354505675" x2="725" y2="57.094267354505675" stroke="#e94560" stroke-width="0.5" stroke-dasharray="4,3" opacity="0.4"/>
<text x="62" y="55.094267354505675" font-family="sans-serif" font-size="7" fill="#e94560" opacity="0.6">警戒↑8%</text>
<rect x="60" y="92.92884474240824" width="3" height="290.0711552575917" fill="#4ecdc4" opacity="0.3" rx="1"/>
<rect x="60" y="57.094267354505675" width="3" height="325.9057326454943" fill="#e94560" opacity="0.3" rx="1"/>
<rect x="60" y="57.094267354505675" width="3" height="35.83457738790257" fill="#ffd700" opacity="0.2" rx="1"/>
<line x1="60" y1="32.0" x2="725" y2="32.0" stroke="#2a2a4e" stroke-width="0.5"/>
<text x="56" y="35.0" text-anchor="end" font-family="sans-serif" font-size="8" fill="#666666">552.8</text>
<line x1="60" y1="127.75" x2="725" y2="127.75" stroke="#2a2a4e" stroke-width="0.5"/>
<text x="56" y="130.75" text-anchor="end" font-family="sans-serif" font-size="8" fill="#666666">473.8</text>
<line x1="60" y1="223.5" x2="725" y2="223.5" stroke="#2a2a4e" stroke-width="0.5"/>
<text x="56" y="226.5" text-anchor="end" font-family="sans-serif" font-size="8" fill="#666666">394.8</text>
<line x1="60" y1="319.25" x2="725" y2="319.25" stroke="#2a2a4e" stroke-width="0.5"/>
<text x="56" y="322.25" text-anchor="end" font-family="sans-serif" font-size="8" fill="#666666">315.9</text>
<line x1="60" y1="415.0" x2="725" y2="415.0" stroke="#2a2a4e" stroke-width="0.5"/>
<text x="56" y="418.0" text-anchor="end" font-family="sans-serif" font-size="8" fill="#666666">236.9</text>
<rect x="61.66250000000001" y="464.733636343616" width="6.095833333333334" height="10.26636365638396" fill="#44aa44" opacity="0.35"/>
<rect x="72.74583333333334" y="466.3986305810994" width="6.095833333333334" height="8.601369418900628" fill="#ff4444" opacity="0.35"/>
<rect x="83.82916666666668" y="459.5149543417076" width="6.095833333333334" height="15.485045658292378" fill="#44aa44" opacity="0.35"/>
<rect x="94.91250000000001" y="459.81124935431285" width="6.095833333333334" height="15.188750645687136" fill="#ff4444" opacity="0.35"/>
<rect x="105.99583333333335" y="463.13860397400396" width="6.095833333333334" height="11.861396025996045" fill="#44aa44" opacity="0.35"/>
<rect x="117.07916666666668" y="465.3094303726954" width="6.095833333333334" height="9.690569627304601" fill="#ff4444" opacity="0.35"/>
<rect x="128.1625" y="461.82627965921284" width="6.095833333333334" height="13.173720340787142" fill="#ff4444" opacity="0.35"/>
<rect x="139.24583333333334" y="464.1496954363823" width="6.095833333333334" height="10.850304563617708" fill="#ff4444" opacity="0.35"/>
<rect x="150.32916666666668" y="464.94132621605456" width="6.095833333333334" height="10.05867378394544" fill="#44aa44" opacity="0.35"/>
<rect x="161.4125" y="466.99355060881595" width="6.095833333333334" height="8.00644939118405" fill="#44aa44" opacity="0.35"/>
<rect x="172.49583333333334" y="464.4935011282044" width="6.095833333333334" height="10.506498871795596" fill="#ff4444" opacity="0.35"/>
<rect x="183.57916666666668" y="453.50099300385966" width="6.095833333333334" height="21.499006996140327" fill="#ff4444" opacity="0.35"/>
<rect x="194.6625" y="456.8802999426397" width="6.095833333333334" height="18.11970005736034" fill="#44aa44" opacity="0.35"/>
<rect x="205.74583333333334" y="455.4626609083934" width="6.095833333333334" height="19.53733909160659" fill="#ff4444" opacity="0.35"/>
<rect x="216.82916666666668" y="460.49750362184136" width="6.095833333333334" height="14.502496378158616" fill="#ff4444" opacity="0.35"/>
<rect x="227.9125" y="460.47934818656114" width="6.095833333333334" height="14.52065181343886" fill="#44aa44" opacity="0.35"/>
<rect x="238.99583333333334" y="461.891498357476" width="6.095833333333334" height="13.108501642524" fill="#44aa44" opacity="0.35"/>
<rect x="250.07916666666668" y="459.3467188686344" width="6.095833333333334" height="15.653281131365587" fill="#44aa44" opacity="0.35"/>
<rect x="261.1625" y="461.81619304816456" width="6.095833333333334" height="13.183806951835434" fill="#ff4444" opacity="0.35"/>
<rect x="272.2458333333334" y="458.7028488102027" width="6.095833333333334" height="16.29715118979731" fill="#44aa44" opacity="0.35"/>
<rect x="283.3291666666667" y="461.5369328395246" width="6.095833333333334" height="13.463067160475427" fill="#ff4444" opacity="0.35"/>
<rect x="294.4125" y="465.0250594905625" width="6.095833333333334" height="9.97494050943751" fill="#ff4444" opacity="0.35"/>
<rect x="305.4958333333334" y="455.13233392099886" width="6.095833333333334" height="19.86766607900116" fill="#44aa44" opacity="0.35"/>
<rect x="316.5791666666667" y="456.97522001681693" width="6.095833333333334" height="18.024779983183095" fill="#ff4444" opacity="0.35"/>
<rect x="327.6625" y="463.2466445408576" width="6.095833333333334" height="11.753355459142442" fill="#44aa44" opacity="0.35"/>
<rect x="338.7458333333334" y="465.82532033933757" width="6.095833333333334" height="9.17467966066243" fill="#44aa44" opacity="0.35"/>
<rect x="349.8291666666667" y="465.7788777908807" width="6.095833333333334" height="9.221122209119281" fill="#44aa44" opacity="0.35"/>
<rect x="360.9125" y="440.0" width="6.095833333333334" height="35.0" fill="#ff4444" opacity="0.35"/>
<rect x="371.9958333333334" y="454.33975069763017" width="6.095833333333334" height="20.660249302369838" fill="#ff4444" opacity="0.35"/>
<rect x="383.0791666666667" y="450.1543762557738" width="6.095833333333334" height="24.845623744226216" fill="#ff4444" opacity="0.35"/>
<rect x="394.1625" y="455.8386485112004" width="6.095833333333334" height="19.16135148879959" fill="#ff4444" opacity="0.35"/>
<rect x="405.2458333333334" y="453.33979446357955" width="6.095833333333334" height="21.66020553642047" fill="#ff4444" opacity="0.35"/>
<rect x="416.3291666666667" y="456.55638777969205" width="6.095833333333334" height="18.44361222030794" fill="#44aa44" opacity="0.35"/>
<rect x="427.4125" y="455.98194250380817" width="6.095833333333334" height="19.01805749619185" fill="#ff4444" opacity="0.35"/>
<rect x="438.4958333333334" y="456.122049294583" width="6.095833333333334" height="18.877950705416968" fill="#ff4444" opacity="0.35"/>
<rect x="449.5791666666667" y="459.87041794437374" width="6.095833333333334" height="15.129582055626242" fill="#44aa44" opacity="0.35"/>
<rect x="460.6625" y="455.21546506524794" width="6.095833333333334" height="19.78453493475203" fill="#ff4444" opacity="0.35"/>
<rect x="471.7458333333334" y="459.12615753270063" width="6.095833333333334" height="15.873842467299356" fill="#ff4444" opacity="0.35"/>
<rect x="482.8291666666667" y="454.4645101359058" width="6.095833333333334" height="20.53548986409418" fill="#44aa44" opacity="0.35"/>
<rect x="493.9125" y="458.7803312664221" width="6.095833333333334" height="16.219668733577894" fill="#44aa44" opacity="0.35"/>
<rect x="504.9958333333334" y="460.30194555906166" width="6.095833333333334" height="14.698054440938316" fill="#ff4444" opacity="0.35"/>
<rect x="516.0791666666667" y="457.9051251785135" width="6.095833333333334" height="17.0948748214865" fill="#ff4444" opacity="0.35"/>
<rect x="527.1624999999999" y="455.52369721731264" width="6.095833333333334" height="19.47630278268738" fill="#ff4444" opacity="0.35"/>
<rect x="538.2458333333333" y="447.6827467658497" width="6.095833333333334" height="27.31725323415034" fill="#44aa44" opacity="0.35"/>
<rect x="549.3291666666667" y="455.32736837204885" width="6.095833333333334" height="19.672631627951148" fill="#ff4444" opacity="0.35"/>
<rect x="560.4124999999999" y="450.66024001023624" width="6.095833333333334" height="24.339759989763785" fill="#ff4444" opacity="0.35"/>
<rect x="571.4958333333333" y="454.51861683617534" width="6.095833333333334" height="20.481383163824685" fill="#44aa44" opacity="0.35"/>
<rect x="582.5791666666667" y="448.28144218745746" width="6.095833333333334" height="26.718557812542542" fill="#ff4444" opacity="0.35"/>
<rect x="593.6624999999999" y="456.1557616199757" width="6.095833333333334" height="18.844238380024294" fill="#44aa44" opacity="0.35"/>
<rect x="604.7458333333333" y="452.4673732281179" width="6.095833333333334" height="22.532626771882114" fill="#ff4444" opacity="0.35"/>
<rect x="615.8291666666667" y="456.02710599007173" width="6.095833333333334" height="18.97289400992827" fill="#44aa44" opacity="0.35"/>
<rect x="626.9124999999999" y="445.9914404581914" width="6.095833333333334" height="29.00855954180861" fill="#ff4444" opacity="0.35"/>
<rect x="637.9958333333333" y="443.03578790928015" width="6.095833333333334" height="31.964212090719844" fill="#44aa44" opacity="0.35"/>
<rect x="649.0791666666667" y="449.3025580035888" width="6.095833333333334" height="25.697441996411193" fill="#ff4444" opacity="0.35"/>
<rect x="660.1624999999999" y="446.65318486486126" width="6.095833333333334" height="28.34681513513875" fill="#ff4444" opacity="0.35"/>
<rect x="671.2458333333333" y="445.6184128645501" width="6.095833333333334" height="29.381587135449852" fill="#44aa44" opacity="0.35"/>
<rect x="682.3291666666667" y="445.359580482468" width="6.095833333333334" height="29.640419517531978" fill="#ff4444" opacity="0.35"/>
<rect x="693.4124999999999" y="447.4202969561479" width="6.095833333333334" height="27.57970304385209" fill="#ff4444" opacity="0.35"/>
<rect x="704.4958333333333" y="445.1079959646122" width="6.095833333333334" height="29.89200403538779" fill="#ff4444" opacity="0.35"/>
<rect x="715.5791666666667" y="443.99865459197264" width="6.095833333333334" height="31.001345408027344" fill="#44aa44" opacity="0.25" stroke-dasharray="3,2"/>
<polyline points="65.54166666666667,338.4630332953539 76.625,341.23084145672453 87.70833333333334,351.2622941019258 98.79166666666667,355.45284095970896 109.87500000000001,356.73939661060393 120.95833333333334,356.7122098853999 132.04166666666666,360.2902157137844 143.125,358.8975958073328 154.20833333333334,359.5490555160672 165.29166666666666,362.7107641913673 176.375,363.38415844601514 187.45833333333334,352.58810968182246 198.54166666666666,349.4959892287391 209.625,341.2726669129266 220.70833333333334,338.849183098722 231.79166666666666,342.68025043649453 242.875,352.04269934572903 253.95833333333334,358.13887050106877 265.0416666666667,360.3079451481574 276.12500000000006,368.38057211674857 287.20833333333337,375.11188244505183 298.2916666666667,380.734830099461 309.37500000000006,391.6555195134948 320.45833333333337,392.10737212618443 331.5416666666667,395.6451244819792 342.62500000000006,397.15106032688976 353.70833333333337,397.92874418889335 364.7916666666667,395.9016247076059 375.87500000000006,396.76041765332144 386.95833333333337,391.43367633401584 398.0416666666667,389.07449123200325 409.12500000000006,380.2811563692952 420.20833333333337,376.8473312369552 431.2916666666667,369.414435957354 442.37500000000006,363.55811956172846 453.45833333333337,359.01549448606096 464.5416666666667,349.63122048743685 475.62500000000006,340.25973841669946 486.70833333333337,337.72135069869677 497.7916666666667,338.89791527779937 508.87500000000006,337.37107083422694 519.9583333333334,334.70461142925757 531.0416666666666,332.36532900195857 542.125,329.1491630827928 553.2083333333334,314.35798744068705 564.2916666666666,302.1253739118021 575.375,300.45949517063974 586.4583333333334,288.02311915878664 597.5416666666666,283.1990330620125 608.625,275.35649340902546 619.7083333333334,273.687898589517 630.7916666666666,264.8377609789083 641.875,248.9735598575682 652.9583333333334,236.55491406633175 664.0416666666666,211.92756603873525 675.125,200.81059578343 686.2083333333334,178.51372714633192 697.2916666666666,144.7149158736444 708.375,117.89126222609758 719.4583333333334,104.87370387170908" fill="none" stroke="#ffd700" stroke-width="1" opacity="0.7"/>
<polyline points="65.54166666666667,338.4630332953539 76.625,339.97274683791966 87.70833333333334,345.673192756903 98.79166666666667,348.9751458329707 109.87500000000001,350.8546662110477 120.95833333333334,351.90978806994656 132.04166666666666,354.73459521551143 143.125,354.98509717531476 154.20833333333334,356.05180222226403 165.29166666666666,358.41223482584644 176.375,359.56109157665816 187.45833333333334,354.3674407724361 198.54166666666666,352.3573148724609 209.625,347.3516253104319 220.70833333333334,344.92445988495564 231.79166666666666,345.9095371989709 242.875,350.42918446537584 253.95833333333334,354.0477350738072 265.0416666666667,355.9747095044485 276.12500000000006,361.16582160435445 287.20833333333337,366.14921824022787 298.2916666666667,370.84585590714636 309.37500000000006,378.600590895222 320.45833333333337,381.22067934182957 331.5416666666667,385.1297611330549 342.62500000000006,387.8630649300832 353.70833333333337,389.9759825633227 364.7916666666667,390.3162376872697 375.87500000000006,391.8001951159029 386.95833333333337,389.7965584939941 398.0416666666667,388.8073880456276 409.12500000000006,384.05958779076417 420.20833333333337,381.49960473285705 431.2916666666667,376.5994303083651 442.37500000000006,372.09871330147644 453.45833333333337,368.06808258024904 464.5416666666667,361.30346256387446 475.62500000000006,354.0695192386654 486.70833333333337,350.17407487939744 497.7916666666667,348.55170570787146 508.87500000000006,345.9636468422733 519.9583333333334,342.9469278926452 531.0416666666666,340.1723526662298 542.125,336.99862149863554 553.2083333333334,327.5035332546065 564.2916666666666,318.44109936359297 575.375,314.5659426953606 586.4583333333334,305.21765622985515 597.5416666666666,299.4600570732386 608.625,292.2257583513864 619.7083333333334,288.2484766421343 630.7916666666666,280.773751026781 641.875,269.2230976791641 652.9583333333334,258.76755673456313 664.0416666666666,241.2957955071048 675.125,229.89231546450742 686.2083333333334,212.44280172043986 697.2916666666666,187.83816383095433 708.375,165.3664894855088 719.4583333333334,149.63414360867662" fill="none" stroke="#ff6b6b" stroke-width="1" opacity="0.7"/>
<polyline points="65.54166666666667,338.4630332953539 76.625,339.25383562717406 87.70833333333334,342.30825122385534 98.79166666666667,344.35831631446683 109.87500000000001,345.7825250380789 120.95833333333334,346.8182689806421 132.04166666666666,348.7828364463479 143.125,349.4808859271176 154.20833333333334,350.56384678487177 165.29166666666666,352.32292628554757 176.375,353.50464253981073 187.45833333333334,351.36096345539426 198.54166666666666,350.5943715379826 209.625,348.14024303734635 220.70833333333334,346.79376422143844 231.79166666666666,347.1317281157814 242.875,349.3827632632496 253.95833333333334,351.37785369643996 265.0416666666667,352.6414956722395 276.12500000000006,355.67809856573393 287.20833333333337,358.81108947391715 298.2916666666667,361.9701024200469 309.37500000000006,366.87741631733405 320.45833333333337,369.3663364158321 331.5416666666667,372.54293572799753 342.62500000000006,375.17341156501783 353.70833333333337,377.48871636005424 364.7916666666667,378.85620868243296 375.87500000000006,380.7249510502729 386.95833333333337,380.7302122545712 398.0416666666667,381.07553689965755 409.12500000000006,379.3249606848215 420.20833333333337,378.43493404553135 431.2916666666667,376.16004941244756 442.37500000000006,373.8443767798789 453.45833333333337,371.56684035653103 464.5416666666667,367.69025294068894 475.62500000000006,363.29277878207324 486.70833333333337,360.37390225641786 497.7916666666667,358.55267770209275 508.87500000000006,356.24455429685366 519.9583333333334,353.6852341370884 531.0416666666666,351.20918937616193 542.125,348.4956314588571 553.2083333333334,342.42706047767786 564.2916666666666,336.2587829897116 575.375,332.532016770531 586.4583333333334,325.9242406147738 597.5416666666666,320.9362996865538 608.625,315.1015486786012 619.7083333333334,310.8395639425915 630.7916666666666,304.77269935355343 641.875,296.43674299749 652.9583333333334,288.36825532952514 664.0416666666666,276.39726624895536 675.125,267.0810175845615 686.2083333333334,254.39901494528283 697.2916666666666,237.5150414579482 708.375,221.01303321728682 719.4583333333334,207.47260978353876" fill="none" stroke="#4ecdc4" stroke-width="1" opacity="0.7"/>
<line x1="65.54166666666667" y1="331.18996075452594" x2="65.54166666666667" y2="342.47534498037726" stroke="#44aa44" stroke-width="0.5" opacity="0.6"/>
<rect x="63.04791666666667" y="334.2204076465376" width="4.987500000000001" height="4.242625648816329" fill="#44aa44" opacity="0.8" rx="1"/>
<line x1="76.625" y1="338.48727687048995" x2="76.625" y2="349.91812254715785" stroke="#ff4444" stroke-width="0.5" opacity="0.6"/>
<rect x="74.13125" y="346.7664577794658" width="4.987500000000001" height="2.76376756551457" fill="#ff4444" opacity="0.8" rx="1"/>
<line x1="87.70833333333334" y1="343.190530446892" x2="87.70833333333334" y2="371.6888530193696" stroke="#44aa44" stroke-width="0.5" opacity="0.6"/>
<rect x="85.21458333333334" y="344.5239270793772" width="4.987500000000001" height="26.801272312951028" fill="#44aa44" opacity="0.8" rx="1"/>
<line x1="98.79166666666667" y1="350.58482086340047" x2="98.79166666666667" y2="371.3251993923282" stroke="#ff4444" stroke-width="0.5" opacity="0.6"/>
<rect x="96.29791666666667" y="363.8339346752754" width="4.987500000000001" height="7.491264717052843" fill="#ff4444" opacity="0.8" rx="1"/>
<line x1="109.87500000000001" y1="350.73028231421705" x2="109.87500000000001" y2="362.42780731738196" stroke="#44aa44" stroke-width="0.5" opacity="0.6"/>
<rect x="107.38125000000001" y="352.815229775921" width="4.987500000000001" height="6.497278136472971" fill="#44aa44" opacity="0.8" rx="1"/>
<line x1="120.95833333333334" y1="351.9424610710217" x2="120.95833333333334" y2="365.6643245980504" stroke="#ff4444" stroke-width="0.5" opacity="0.6"/>
<rect x="118.46458333333334" y="356.6578364349918" width="4.987500000000001" height="8.594347385745039" fill="#ff4444" opacity="0.8" rx="1"/>
<line x1="132.04166666666666" y1="365.49461957209775" x2="132.04166666666666" y2="382.10146854032155" stroke="#ff4444" stroke-width="0.5" opacity="0.6"/>
<rect x="129.54791666666665" y="367.4462273705533" width="4.987500000000001" height="3.7456323585263362" fill="#ff4444" opacity="0.8" rx="1"/>
<line x1="143.125" y1="354.82744651221674" x2="143.125" y2="361.2762374984175" stroke="#ff4444" stroke-width="0.5" opacity="0.6"/>
<rect x="140.63125" y="356.1123559944297" width="4.987500000000001" height="1.6243195341181718" fill="#ff4444" opacity="0.8" rx="1"/>
<line x1="154.20833333333334" y1="349.5787124952526" x2="154.20833333333334" y2="361.1065324724649" stroke="#44aa44" stroke-width="0.5" opacity="0.6"/>
<rect x="151.71458333333334" y="352.96069122673754" width="4.987500000000001" height="7.89128370679839" fill="#44aa44" opacity="0.8" rx="1"/>
<line x1="165.29166666666666" y1="358.0639637928852" x2="165.29166666666666" y2="371.88280162045834" stroke="#44aa44" stroke-width="0.5" opacity="0.6"/>
<rect x="162.79791666666665" y="362.91267882010385" width="4.987500000000001" height="6.121502721863521" fill="#44aa44" opacity="0.8" rx="1"/>
<line x1="176.375" y1="355.8335548803646" x2="176.375" y2="373.882896569186" stroke="#ff4444" stroke-width="0.5" opacity="0.6"/>
<rect x="173.88125" y="364.73094695531086" width="4.987500000000001" height="9.15194961387516" fill="#ff4444" opacity="0.8" rx="1"/>
<line x1="187.45833333333334" y1="330.99601215343716" x2="187.45833333333334" y2="366.34314470186104" stroke="#ff4444" stroke-width="0.5" opacity="0.6"/>
<rect x="184.96458333333334" y="330.99601215343716" width="4.987500000000001" height="31.71059627800986" fill="#ff4444" opacity="0.8" rx="1"/>
<line x1="198.54166666666666" y1="322.7047094568933" x2="198.54166666666666" y2="343.4572097733891" stroke="#44aa44" stroke-width="0.5" opacity="0.6"/>
<rect x="196.04791666666665" y="330.58387137612357" width="4.987500000000001" height="12.72787694644893" fill="#44aa44" opacity="0.8" rx="1"/>
<line x1="209.625" y1="321.8804279022661" x2="209.625" y2="336.0386757817446" stroke="#ff4444" stroke-width="0.5" opacity="0.6"/>
<rect x="207.13125" y="324.82602228130145" width="4.987500000000001" height="7.45489935434864" fill="#ff4444" opacity="0.8" rx="1"/>
<line x1="220.70833333333334" y1="326.69277756678065" x2="220.70833333333334" y2="342.09956956576787" stroke="#ff4444" stroke-width="0.5" opacity="0.6"/>
<rect x="218.21458333333334" y="334.00221547031276" width="4.987500000000001" height="4.460817825041147" fill="#ff4444" opacity="0.8" rx="1"/>
<line x1="231.79166666666666" y1="330.34143562476265" x2="231.79166666666666" y2="350.58482086340047" stroke="#44aa44" stroke-width="0.5" opacity="0.6"/>
<rect x="229.29791666666665" y="331.735441195088" width="4.987500000000001" height="18.606943916951536" fill="#44aa44" opacity="0.8" rx="1"/>
<line x1="242.875" y1="359.21553361184965" x2="242.875" y2="373.61621724268895" stroke="#44aa44" stroke-width="0.5" opacity="0.6"/>
<rect x="240.38125" y="366.34314470186104" width="4.987500000000001" height="4.424452462336944" fill="#44aa44" opacity="0.8" rx="1"/>
<line x1="253.95833333333334" y1="365.13096594505635" x2="253.95833333333334" y2="390.73218128877073" stroke="#44aa44" stroke-width="0.5" opacity="0.6"/>
<rect x="251.46458333333334" y="365.1430877326244" width="4.987500000000001" height="5.188125079124006" fill="#44aa44" opacity="0.8" rx="1"/>
<line x1="265.0416666666667" y1="355.67597164198" x2="265.0416666666667" y2="368.5977971895177" stroke="#ff4444" stroke-width="0.5" opacity="0.6"/>
<rect x="262.5479166666667" y="364.6460944423345" width="4.987500000000001" height="3.9395809596151707" fill="#ff4444" opacity="0.8" rx="1"/>
<line x1="276.12500000000006" y1="376.40422838333967" x2="276.12500000000006" y2="386.9501835675402" stroke="#44aa44" stroke-width="0.5" opacity="0.6"/>
<rect x="273.6312500000001" y="377.2527535131029" width="4.987500000000001" height="7.273072540827968" fill="#44aa44" opacity="0.8" rx="1"/>
<line x1="287.20833333333337" y1="386.7319913913154" x2="287.20833333333337" y2="410.8907140144322" stroke="#ff4444" stroke-width="0.5" opacity="0.6"/>
<rect x="284.7145833333334" y="388.5745031016584" width="4.987500000000001" height="11.733890365869115" fill="#ff4444" opacity="0.8" rx="1"/>
<line x1="298.2916666666667" y1="387.5077857956704" x2="298.2916666666667" y2="399.0356057728827" stroke="#ff4444" stroke-width="0.5" opacity="0.6"/>
<rect x="295.7979166666667" y="391.9807254082795" width="4.987500000000001" height="4.666888213697973" fill="#ff4444" opacity="0.8" rx="1"/>
<line x1="309.37500000000006" y1="396.6476136219775" x2="309.37500000000006" y2="415.0" stroke="#44aa44" stroke-width="0.5" opacity="0.6"/>
<rect x="306.8812500000001" y="399.1931890112673" width="4.987500000000001" height="14.303709330294907" fill="#44aa44" opacity="0.8" rx="1"/>
<line x1="320.45833333333337" y1="391.67768071907835" x2="320.45833333333337" y2="406.7086973034562" stroke="#ff4444" stroke-width="0.5" opacity="0.6"/>
<rect x="317.9645833333334" y="393.01107735156353" width="4.987500000000001" height="6.060893784023278" fill="#ff4444" opacity="0.8" rx="1"/>
<line x1="331.5416666666667" y1="387.19261931890117" x2="331.5416666666667" y2="404.4055576655273" stroke="#44aa44" stroke-width="0.5" opacity="0.6"/>
<rect x="329.0479166666667" y="389.5442461071022" width="4.987500000000001" height="13.176383086466615" fill="#44aa44" opacity="0.8" rx="1"/>
<line x1="342.62500000000006" y1="393.49594885428536" x2="342.62500000000006" y2="402.10241802759845" stroke="#44aa44" stroke-width="0.5" opacity="0.6"/>
<rect x="340.1312500000001" y="397.87191416635017" width="4.987500000000001" height="2.291017850360788" fill="#44aa44" opacity="0.8" rx="1"/>
<line x1="353.70833333333337" y1="391.847385745031" x2="353.70833333333337" y2="400.5144638561843" stroke="#44aa44" stroke-width="0.5" opacity="0.6"/>
<rect x="351.2145833333334" y="395.31421698949237" width="4.987500000000001" height="4.169894923408037" fill="#44aa44" opacity="0.8" rx="1"/>
<line x1="364.7916666666667" y1="390.6352069882264" x2="364.7916666666667" y2="407.46024813267496" stroke="#ff4444" stroke-width="0.5" opacity="0.6"/>
<rect x="362.2979166666667" y="391.847385745031" width="4.987500000000001" height="7.091245727307296" fill="#ff4444" opacity="0.8" rx="1"/>
<line x1="375.87500000000006" y1="394.8414672743385" x2="375.87500000000006" y2="406.46626155209526" stroke="#ff4444" stroke-width="0.5" opacity="0.6"/>
<rect x="373.3812500000001" y="398.4780035447525" width="4.987500000000001" height="0.5939675908343247" fill="#ff4444" opacity="0.8" rx="1"/>
<line x1="386.95833333333337" y1="376.86485631092546" x2="386.95833333333337" y2="392.7201544499304" stroke="#ff4444" stroke-width="0.5" opacity="0.6"/>
<rect x="384.4645833333334" y="380.78019369540453" width="4.987500000000001" height="11.63691606532467" fill="#ff4444" opacity="0.8" rx="1"/>
<line x1="398.0416666666667" y1="375.0223446005824" x2="398.0416666666667" y2="385.85922268641605" stroke="#ff4444" stroke-width="0.5" opacity="0.6"/>
<rect x="395.5479166666667" y="384.35612102797825" width="4.987500000000001" height="1.3818837827573134" fill="#ff4444" opacity="0.8" rx="1"/>
<line x1="409.12500000000006" y1="361.21562856057733" x2="409.12500000000006" y2="379.2043613115585" stroke="#ff4444" stroke-width="0.5" opacity="0.6"/>
<rect x="406.6312500000001" y="362.694486643879" width="4.987500000000001" height="12.739998734016979" fill="#ff4444" opacity="0.8" rx="1"/>
<line x1="420.20833333333337" y1="353.43344094189143" x2="420.20833333333337" y2="372.42828206102035" stroke="#44aa44" stroke-width="0.5" opacity="0.6"/>
<rect x="417.7145833333334" y="356.64571464742374" width="4.987500000000001" height="13.333966324851247" fill="#44aa44" opacity="0.8" rx="1"/>
<line x1="431.2916666666667" y1="354.2213571338144" x2="431.2916666666667" y2="376.53756804658826" stroke="#ff4444" stroke-width="0.5" opacity="0.6"/>
<rect x="428.7979166666667" y="354.5486453981517" width="4.987500000000001" height="20.158532725661416" fill="#ff4444" opacity="0.8" rx="1"/>
<line x1="442.37500000000006" y1="343.72388909988604" x2="442.37500000000006" y2="359.19129003671355" stroke="#ff4444" stroke-width="0.5" opacity="0.6"/>
<rect x="439.8812500000001" y="351.84548677047735" width="4.987500000000001" height="6.012406633751084" fill="#ff4444" opacity="0.8" rx="1"/>
<line x1="453.45833333333337" y1="343.36023547284475" x2="453.45833333333337" y2="354.0758956829979" stroke="#44aa44" stroke-width="0.5" opacity="0.6"/>
<rect x="450.9645833333334" y="346.9482845929865" width="4.987500000000001" height="2.981959741739388" fill="#44aa44" opacity="0.8" rx="1"/>
<line x1="464.5416666666667" y1="327.55342448411193" x2="464.5416666666667" y2="352.7061336878086" stroke="#ff4444" stroke-width="0.5" opacity="0.6"/>
<rect x="462.0479166666667" y="330.8626724901887" width="4.987500000000001" height="18.752405367768006" fill="#ff4444" opacity="0.8" rx="1"/>
<line x1="475.62500000000006" y1="320.78946702114195" x2="475.62500000000006" y2="335.42046461577416" stroke="#ff4444" stroke-width="0.5" opacity="0.6"/>
<rect x="473.1312500000001" y="321.5167742752247" width="4.987500000000001" height="12.70363337131289" fill="#ff4444" opacity="0.8" rx="1"/>
<line x1="486.70833333333337" y1="306.9221420432967" x2="486.70833333333337" y2="336.159893657425" stroke="#44aa44" stroke-width="0.5" opacity="0.6"/>
<rect x="484.2145833333334" y="306.9342638308647" width="4.987500000000001" height="25.710311431826767" fill="#44aa44" opacity="0.8" rx="1"/>
<line x1="497.7916666666667" y1="326.3412457273073" x2="497.7916666666667" y2="347.1785985567793" stroke="#44aa44" stroke-width="0.5" opacity="0.6"/>
<rect x="495.2979166666667" y="332.4021395113306" width="4.987500000000001" height="8.84890492467406" fill="#44aa44" opacity="0.8" rx="1"/>
<line x1="508.87500000000006" y1="326.8503608051652" x2="508.87500000000006" y2="341.19043549816433" stroke="#ff4444" stroke-width="0.5" opacity="0.6"/>
<rect x="506.3812500000001" y="334.3173819470819" width="4.987500000000001" height="2.2182871249525533" fill="#ff4444" opacity="0.8" rx="1"/>
<line x1="519.9583333333334" y1="315.0316179263199" x2="519.9583333333334" y2="336.0144322066085" stroke="#ff4444" stroke-width="0.5" opacity="0.6"/>
<rect x="517.4645833333334" y="329.37169261931894" width="4.987500000000001" height="3.030446892011639" fill="#ff4444" opacity="0.8" rx="1"/>
<line x1="531.0416666666666" y1="324.3290289910115" x2="531.0416666666666" y2="342.09956956576787" stroke="#ff4444" stroke-width="0.5" opacity="0.6"/>
<rect x="528.5479166666667" y="327.68676414736046" width="4.987500000000001" height="7.127611090011385" fill="#ff4444" opacity="0.8" rx="1"/>
<line x1="542.125" y1="313.00727940245605" x2="542.125" y2="330.60811495125967" stroke="#44aa44" stroke-width="0.5" opacity="0.6"/>
<rect x="539.63125" y="314.2194581592607" width="4.987500000000001" height="8.49737308520065" fill="#44aa44" opacity="0.8" rx="1"/>
<line x1="553.2083333333334" y1="284.77563615647557" x2="553.2083333333334" y2="302.0976705912141" stroke="#ff4444" stroke-width="0.5" opacity="0.6"/>
<rect x="550.7145833333334" y="284.77563615647557" width="4.987500000000001" height="17.322034434738555" fill="#ff4444" opacity="0.8" rx="1"/>
<line x1="564.2916666666666" y1="268.93245980503866" x2="564.2916666666666" y2="291.1880617799722" stroke="#ff4444" stroke-width="0.5" opacity="0.6"/>
<rect x="561.7979166666667" y="277.6601468540322" width="4.987500000000001" height="3.8304848715027333" fill="#ff4444" opacity="0.8" rx="1"/>
<line x1="575.375" y1="285.97569312571216" x2="575.375" y2="299.9157488289657" stroke="#44aa44" stroke-width="0.5" opacity="0.6"/>
<rect x="572.88125" y="288.7637042663629" width="4.987500000000001" height="8.364033421952115" fill="#44aa44" opacity="0.8" rx="1"/>
<line x1="586.4583333333334" y1="256.6288454234714" x2="586.4583333333334" y2="281.47850993796686" stroke="#ff4444" stroke-width="0.5" opacity="0.6"/>
<rect x="583.9645833333334" y="263.15036713508044" width="4.987500000000001" height="14.582510444360025" fill="#ff4444" opacity="0.8" rx="1"/>
<line x1="597.5416666666666" y1="263.06551462210416" x2="597.5416666666666" y2="278.8238384605646" stroke="#44aa44" stroke-width="0.5" opacity="0.6"/>
<rect x="595.0479166666667" y="263.1382453475124" width="4.987500000000001" height="10.412615520951988" fill="#44aa44" opacity="0.8" rx="1"/>
<line x1="608.625" y1="257.59858842891515" x2="608.625" y2="290.78804279022665" stroke="#ff4444" stroke-width="0.5" opacity="0.6"/>
<rect x="606.13125" y="259.671414103051" width="4.987500000000001" height="25.45575389289786" fill="#ff4444" opacity="0.8" rx="1"/>
<line x1="619.7083333333334" y1="249.36789467021146" x2="619.7083333333334" y2="271.80532345866567" stroke="#44aa44" stroke-width="0.5" opacity="0.6"/>
<rect x="617.2145833333334" y="259.6108051652108" width="4.987500000000001" height="10.7399037852893" fill="#44aa44" opacity="0.8" rx="1"/>
<line x1="630.7916666666666" y1="236.64001772376253" x2="630.7916666666666" y2="283.33314343587796" stroke="#ff4444" stroke-width="0.5" opacity="0.6"/>
<rect x="628.2979166666667" y="247.1374857576909" width="4.987500000000001" height="27.080073427016032" fill="#ff4444" opacity="0.8" rx="1"/>
<line x1="641.875" y1="201.64441701481203" x2="641.875" y2="221.68173186479308" stroke="#44aa44" stroke-width="0.5" opacity="0.6"/>
<rect x="639.38125" y="206.84466388150406" width="4.987500000000001" height="10.40049373338394" fill="#44aa44" opacity="0.8" rx="1"/>
<line x1="652.9583333333334" y1="205.12337004684142" x2="652.9583333333334" y2="241.46448917584513" stroke="#ff4444" stroke-width="0.5" opacity="0.6"/>
<rect x="650.4645833333334" y="211.71762248385875" width="4.987500000000001" height="17.649322699075867" fill="#ff4444" opacity="0.8" rx="1"/>
<line x1="664.0416666666666" y1="162.67286998354228" x2="664.0416666666666" y2="207.79016331181165" stroke="#ff4444" stroke-width="0.5" opacity="0.6"/>
<rect x="661.5479166666667" y="162.67286998354228" width="4.987500000000001" height="44.874857576908454" fill="#ff4444" opacity="0.8" rx="1"/>
<line x1="675.125" y1="138.65960881124198" x2="675.125" y2="184.1163121914167" stroke="#44aa44" stroke-width="0.5" opacity="0.6"/>
<rect x="672.63125" y="162.67286998354228" width="4.987500000000001" height="15.903785289277124" fill="#44aa44" opacity="0.8" rx="1"/>
<line x1="686.2083333333334" y1="128.76823015571597" x2="686.2083333333334" y2="169.97018609950632" stroke="#ff4444" stroke-width="0.5" opacity="0.6"/>
<rect x="683.7145833333334" y="133.91998987213577" width="4.987500000000001" height="25.140587416128596" fill="#ff4444" opacity="0.8" rx="1"/>
<line x1="697.2916666666666" y1="77.10517154070139" x2="697.2916666666666" y2="143.30225344980383" stroke="#ff4444" stroke-width="0.5" opacity="0.6"/>
<rect x="694.7979166666667" y="77.11729332826943" width="4.987500000000001" height="45.44458159260667" fill="#ff4444" opacity="0.8" rx="1"/>
<line x1="708.375" y1="49.940245600709034" x2="708.375" y2="106.69445499430314" stroke="#ff4444" stroke-width="0.5" opacity="0.6"/>
<rect x="705.88125" y="64.24395493100394" width="4.987500000000001" height="19.66153943537161" fill="#ff4444" opacity="0.8" rx="1"/>
<line x1="719.4583333333334" y1="32.0" x2="719.4583333333334" y2="96.02728193442213" stroke="#44aa44" stroke-width="0.5" opacity="0.3" stroke-dasharray="4,3"/>
<rect x="716.9645833333334" y="46.327952905431125" width="4.987500000000001" height="32.510634257501" fill="#44aa44" opacity="0.4" stroke-dasharray="4,3" rx="1"/>
<text x="739.4583333333334" y="72.83858716293213" font-family="sans-serif" font-size="9" fill="#ffd700" opacity="0.8">🕐 盘中</text>
<line x1="398.0416666666667" y1="385.85922268641605" x2="398.0416666666667" y2="350.85922268641605" stroke="#4ecdc4" stroke-width="0.8" stroke-dasharray="2,2" opacity="0.7"/>
<rect x="362.0416666666667" y="341.85922268641605" width="72" height="16" fill="#4ecdc4" opacity="0.85" rx="3"/>
<text x="398.0416666666667" y="353.85922268641605" text-anchor="middle" font-family="sans-serif" font-size="9" fill="#000000" font-weight="bold">B1乖离买入</text>
<polygon points="398.0416666666667,391.85922268641605 394.0416666666667,385.85922268641605 402.0416666666667,385.85922268641605" fill="#4ecdc4" opacity="0.9"/>
<line x1="486.70833333333337" y1="336.159893657425" x2="486.70833333333337" y2="286.159893657425" stroke="#4ecdc4" stroke-width="0.8" stroke-dasharray="2,2" opacity="0.7"/>
<rect x="450.70833333333337" y="277.159893657425" width="72" height="16" fill="#4ecdc4" opacity="0.85" rx="3"/>
<text x="486.70833333333337" y="289.159893657425" text-anchor="middle" font-family="sans-serif" font-size="9" fill="#000000" font-weight="bold">B2乖离买入</text>
<polygon points="486.70833333333337,342.159893657425 482.70833333333337,336.159893657425 490.70833333333337,336.159893657425" fill="#4ecdc4" opacity="0.9"/>
<line x1="508.87500000000006" y1="341.19043549816433" x2="508.87500000000006" y2="276.19043549816433" stroke="#4ecdc4" stroke-width="0.8" stroke-dasharray="2,2" opacity="0.7"/>
<rect x="472.87500000000006" y="267.19043549816433" width="72" height="16" fill="#4ecdc4" opacity="0.85" rx="3"/>
<text x="508.87500000000006" y="279.19043549816433" text-anchor="middle" font-family="sans-serif" font-size="9" fill="#000000" font-weight="bold">B3乖离买入</text>
<polygon points="508.87500000000006,347.19043549816433 504.87500000000006,341.19043549816433 512.875,341.19043549816433" fill="#4ecdc4" opacity="0.9"/>
<line x1="575.375" y1="299.9157488289657" x2="575.375" y2="219.91574882896572" stroke="#4ecdc4" stroke-width="0.8" stroke-dasharray="2,2" opacity="0.7"/>
<rect x="539.375" y="210.91574882896572" width="72" height="16" fill="#4ecdc4" opacity="0.85" rx="3"/>
<text x="575.375" y="222.91574882896572" text-anchor="middle" font-family="sans-serif" font-size="9" fill="#000000" font-weight="bold">B4乖离买入</text>
<polygon points="575.375,305.9157488289657 571.375,299.9157488289657 579.375,299.9157488289657" fill="#4ecdc4" opacity="0.9"/>
<line x1="619.7083333333334" y1="271.80532345866567" x2="619.7083333333334" y2="176.80532345866567" stroke="#4ecdc4" stroke-width="0.8" stroke-dasharray="2,2" opacity="0.7"/>
<rect x="583.7083333333334" y="167.80532345866567" width="72" height="16" fill="#4ecdc4" opacity="0.85" rx="3"/>
<text x="619.7083333333334" y="179.80532345866567" text-anchor="middle" font-family="sans-serif" font-size="9" fill="#000000" font-weight="bold">B5乖离买入</text>
<polygon points="619.7083333333334,277.80532345866567 615.7083333333334,271.80532345866567 623.7083333333334,271.80532345866567" fill="#4ecdc4" opacity="0.9"/>
<line x1="664.0416666666666" y1="162.67286998354228" x2="664.0416666666666" y2="181.67286998354228" stroke="#e94560" stroke-width="0.8" stroke-dasharray="2,2" opacity="0.7"/>
<rect x="630.0416666666666" y="188.67286998354228" width="68" height="16" fill="#e94560" opacity="0.85" rx="3"/>
<text x="664.0416666666666" y="200.67286998354228" text-anchor="middle" font-family="sans-serif" font-size="9" fill="#ffffff" font-weight="bold">W1警戒⚠️</text>
<polygon points="664.0416666666666,156.67286998354228 660.0416666666666,162.67286998354228 668.0416666666666,162.67286998354228" fill="#e94560" opacity="0.9"/>
<line x1="686.2083333333334" y1="128.76823015571597" x2="686.2083333333334" y2="162.76823015571597" stroke="#e94560" stroke-width="0.8" stroke-dasharray="2,2" opacity="0.7"/>
<rect x="652.2083333333334" y="169.76823015571597" width="68" height="16" fill="#e94560" opacity="0.85" rx="3"/>
<text x="686.2083333333334" y="181.76823015571597" text-anchor="middle" font-family="sans-serif" font-size="9" fill="#ffffff" font-weight="bold">W2警戒⚠️</text>
<polygon points="686.2083333333334,122.76823015571597 682.2083333333334,128.76823015571597 690.2083333333334,128.76823015571597" fill="#e94560" opacity="0.9"/>
<text x="375.0" y="435" text-anchor="middle" font-family="sans-serif" font-size="10" fill="#aaaaaa">📊 BIAS5=4.36%，持有区，趋势健康</text>
<rect x="60" y="443" width="665" height="55" fill="#111122" opacity="0.5" rx="2"/>
<rect x="60" y="443" width="665" height="16.96666666666664" fill="#e94560" opacity="0.18" rx="2"/>
<rect x="60" y="459.96666666666664" width="665" height="9.400000000000034" fill="#ffd700" opacity="0.12"/>
<rect x="60" y="469.3666666666667" width="665" height="30.633333333333326" fill="#4ecdc4" opacity="0.14"/>
<text x="670" y="454.48333333333335" text-anchor="end" font-family="sans-serif" font-size="9" fill="#e94560" font-weight="bold">⚠️ 警戒区</text>
<text x="670" y="467.66666666666663" text-anchor="end" font-family="sans-serif" font-size="9" fill="#ffd700">持有区</text>
<text x="670" y="487.68333333333334" text-anchor="end" font-family="sans-serif" font-size="9" fill="#4ecdc4">买入区</text>
<line x1="60" y1="472.5" x2="725" y2="472.5" stroke="#888888" stroke-width="0.5" stroke-dasharray="3,2" opacity="0.5"/>
<text x="56" y="475.5" text-anchor="end" font-family="sans-serif" font-size="7" fill="#888888">0%</text>
<line x1="60" y1="469.3666666666667" x2="725" y2="469.3666666666667" stroke="#4ecdc4" stroke-width="0.5" stroke-dasharray="3,2" opacity="0.5"/>
<text x="56" y="472.3666666666667" text-anchor="end" font-family="sans-serif" font-size="7" fill="#4ecdc4">2%</text>
<line x1="60" y1="459.96666666666664" x2="725" y2="459.96666666666664" stroke="#e94560" stroke-width="0.5" stroke-dasharray="3,2" opacity="0.5"/>
<text x="56" y="462.96666666666664" text-anchor="end" font-family="sans-serif" font-size="7" fill="#e94560">8%</text>
<text x="60" y="445" font-family="sans-serif" font-size="8" fill="#888888">BIAS5</text>
<polyline points="65.54166666666667,472.5 76.625,474.90310511485563 87.70833333333334,481.4586700294693 98.79166666666667,476.2876407690836 109.87500000000001,473.6671896588231 120.95833333333334,472.47533758693766 132.04166666666666,475.7797593940702 143.125,471.228642192551 154.20833333333334,473.0958649889763 165.29166666666666,475.4188317866945 176.375,473.1229011543876 187.45833333333334,462.8219295254272 198.54166666666666,469.7523890741051 209.625,465.35940450930116 220.70833333333334,470.40964424462766 231.79166666666666,475.8396758539343 242.875,480.8798501224966 253.95833333333334,478.053072567812 265.0416666666667,474.4883734943566 276.12500000000006,480.0791117775606 287.20833333333337,478.949887113169 298.2916666666667,477.98212987154267 309.37500000000006,483.5217208096431 320.45833333333337,472.95669755937513 331.5416666666667,476.1169614742764 342.62500000000006,474.04725614317397 353.70833333333337,473.3010649464546 364.7916666666667,470.42575794708534 375.87500000000006,473.3812279518489 386.95833333333337,467.1278177456679 398.0416666666667,470.13862059198624 409.12500000000006,463.9389652798308 420.20833333333337,469.1921815906295 431.2916666666667,465.49982481746446 442.37500000000006,467.0800240835886 453.45833333333337,468.3514980457341 464.5416666666667,464.1580785459983 475.62500000000006,464.3851967791113 486.70833333333337,470.3173114089636 497.7916666666667,473.51497212483434 508.87500000000006,471.1883699960881 519.9583333333334,470.22601193662155 531.0416666666666,470.51765376230645 542.125,469.79807021945646 553.2083333333334,460.547802172301 564.2916666666666,462.9175773261423 575.375,471.200445593491 586.4583333333334,463.08973211874866 597.5416666666666,468.8917799620356 608.625,466.7418967801991 619.7083333333334,471.2796655512877 630.7916666666666,466.15841086303726 641.875,461.53043428717444 652.9583333333334,464.1419772190778 664.0416666666666,456.75797485417837 675.125,465.5515156449064 686.2083333333334,459.1571561576477 697.2916666666666,453.50060808210054 708.375,458.11386609218795 719.4583333333334,465.67055997582037" fill="none" stroke="#4ecdc4" stroke-width="1.5" opacity="0.9"/>
<circle cx="719.4583333333334" cy="465.67055997582037" r="3" fill="#4ecdc4" opacity="1"/>
<text x="724.4583333333334" y="468.67055997582037" font-family="sans-serif" font-size="9" fill="#4ecdc4" font-weight="bold">BIAS5=4.4%</text>
<text x="65.54166666666667" y="489" text-anchor="middle" font-family="sans-serif" font-size="8" fill="#666666" transform="rotate(-45,65.54166666666667,489)">02/27</text>
<text x="120.95833333333334" y="489" text-anchor="middle" font-family="sans-serif" font-size="8" fill="#666666" transform="rotate(-45,120.95833333333334,489)">03/06</text>
<text x="176.375" y="489" text-anchor="middle" font-family="sans-serif" font-size="8" fill="#666666" transform="rotate(-45,176.375,489)">03/13</text>
<text x="231.79166666666666" y="489" text-anchor="middle" font-family="sans-serif" font-size="8" fill="#666666" transform="rotate(-45,231.79166666666666,489)">03/20</text>
<text x="287.20833333333337" y="489" text-anchor="middle" font-family="sans-serif" font-size="8" fill="#666666" transform="rotate(-45,287.20833333333337,489)">03/27</text>
<text x="342.62500000000006" y="489" text-anchor="middle" font-family="sans-serif" font-size="8" fill="#666666" transform="rotate(-45,342.62500000000006,489)">04/03</text>
<text x="398.0416666666667" y="489" text-anchor="middle" font-family="sans-serif" font-size="8" fill="#666666" transform="rotate(-45,398.0416666666667,489)">04/13</text>
<text x="453.45833333333337" y="489" text-anchor="middle" font-family="sans-serif" font-size="8" fill="#666666" transform="rotate(-45,453.45833333333337,489)">04/20</text>
<text x="508.87500000000006" y="489" text-anchor="middle" font-family="sans-serif" font-size="8" fill="#666666" transform="rotate(-45,508.87500000000006,489)">04/27</text>
<text x="564.2916666666666" y="489" text-anchor="middle" font-family="sans-serif" font-size="8" fill="#666666" transform="rotate(-45,564.2916666666666,489)">05/07</text>
<text x="619.7083333333334" y="489" text-anchor="middle" font-family="sans-serif" font-size="8" fill="#666666" transform="rotate(-45,619.7083333333334,489)">05/14</text>
<text x="675.125" y="489" text-anchor="middle" font-family="sans-serif" font-size="8" fill="#666666" transform="rotate(-45,675.125,489)">05/21</text>
<text x="719.4583333333334" y="489" text-anchor="middle" font-family="sans-serif" font-size="8" fill="#666666" transform="rotate(-45,719.4583333333334,489)">05/27</text>
<rect x="60" y="484" width="8" height="8" fill="#4ecdc4" opacity="0.8" rx="1"/>
<text x="71" y="491" font-family="sans-serif" font-size="9" fill="#888888">买入区(BIAS&lt;2%)</text>
<rect x="230" y="484" width="8" height="8" fill="#ffd700" opacity="0.8" rx="1"/>
<text x="241" y="491" font-family="sans-serif" font-size="9" fill="#888888">持有区(2-8%)</text>
<rect x="400" y="484" width="8" height="8" fill="#e94560" opacity="0.8" rx="1"/>
<text x="411" y="491" font-family="sans-serif" font-size="9" fill="#888888">警戒区(&gt;8%)</text>
<rect x="570" y="484" width="8" height="8" fill="#ffd700" opacity="0.8" rx="1"/>
<text x="581" y="491" font-family="sans-serif" font-size="9" fill="#888888">EMA5</text>
<rect x="60" y="497" width="8" height="8" fill="#ff6b6b" opacity="0.8" rx="1"/>
<text x="71" y="504" font-family="sans-serif" font-size="9" fill="#888888">EMA10</text>
<rect x="230" y="497" width="8" height="8" fill="#4ecdc4" opacity="0.8" rx="1"/>
<text x="241" y="504" font-family="sans-serif" font-size="9" fill="#888888">EMA20</text>
<rect x="400" y="497" width="8" height="8" fill="#4ecdc4" opacity="0.8" rx="1"/>
<text x="411" y="504" font-family="sans-serif" font-size="9" fill="#888888">B乖离买入</text>
<rect x="570" y="497" width="8" height="8" fill="#e94560" opacity="0.8" rx="1"/>
<text x="581" y="504" font-family="sans-serif" font-size="9" fill="#888888">W警戒⚠️</text>
</svg>