<svg xmlns="http://www.w3.org/2000/svg" width="800" height="400" viewBox="0 0 800 400">
<rect width="800" height="400" fill="#1a1a2e"/>
<text x="400.0" y="20" text-anchor="middle" font-family="sans-serif" font-size="14" fill="#ffffff" font-weight="bold">宏发股份(600885) K线图</text>
<line x1="60" y1="30.0" x2="780" y2="30.0" stroke="#2a2a4e" stroke-width="0.5"/>
<text x="55" y="33.0" text-anchor="end" font-family="sans-serif" font-size="8" fill="#666666">34.96</text>
<line x1="60" y1="84.00000000000006" x2="780" y2="84.00000000000006" stroke="#2a2a4e" stroke-width="0.5"/>
<text x="55" y="87.00000000000006" text-anchor="end" font-family="sans-serif" font-size="8" fill="#666666">32.91</text>
<line x1="60" y1="138.0" x2="780" y2="138.0" stroke="#2a2a4e" stroke-width="0.5"/>
<text x="55" y="141.0" text-anchor="end" font-family="sans-serif" font-size="8" fill="#666666">30.85</text>
<line x1="60" y1="192.0" x2="780" y2="192.0" stroke="#2a2a4e" stroke-width="0.5"/>
<text x="55" y="195.0" text-anchor="end" font-family="sans-serif" font-size="8" fill="#666666">28.80</text>
<line x1="60" y1="246.00000000000003" x2="780" y2="246.00000000000003" stroke="#2a2a4e" stroke-width="0.5"/>
<text x="55" y="249.00000000000003" text-anchor="end" font-family="sans-serif" font-size="8" fill="#666666">26.74</text>
<line x1="60" y1="300.0" x2="780" y2="300.0" stroke="#2a2a4e" stroke-width="0.5"/>
<text x="55" y="303.0" text-anchor="end" font-family="sans-serif" font-size="8" fill="#666666">24.69</text>
<line x1="60" y1="300" x2="780" y2="300" stroke="#2a2a4e" stroke-width="0.5"/>
<line x1="60" y1="345" x2="780" y2="345" stroke="#2a2a4e" stroke-width="0.5"/>
<rect x="61.8" y="328.33873130629974" width="7.199999999999999" height="16.661268693700265" fill="#ff4444" opacity="0.3"/>
<rect x="73.8" y="331.43506398857244" width="7.199999999999999" height="13.564936011427562" fill="#ff4444" opacity="0.3"/>
<rect x="85.8" y="328.5336049325132" width="7.199999999999999" height="16.466395067486815" fill="#ff4444" opacity="0.3"/>
<rect x="97.8" y="328.4261653499694" width="7.199999999999999" height="16.57383465003062" fill="#44aa44" opacity="0.3"/>
<rect x="109.8" y="326.8255254642451" width="7.199999999999999" height="18.174474535754882" fill="#ff4444" opacity="0.3"/>
<rect x="121.8" y="323.8399775529837" width="7.199999999999999" height="21.160022447016274" fill="#ff4444" opacity="0.3"/>
<rect x="133.8" y="318.9884048042445" width="7.199999999999999" height="26.01159519575549" fill="#ff4444" opacity="0.3"/>
<rect x="145.8" y="318.6082339737049" width="7.199999999999999" height="26.3917660262951" fill="#ff4444" opacity="0.3"/>
<rect x="157.8" y="322.4133530594992" width="7.199999999999999" height="22.586646940500827" fill="#44aa44" opacity="0.3"/>
<rect x="169.8" y="324.1344853219835" width="7.199999999999999" height="20.865514678016496" fill="#44aa44" opacity="0.3"/>
<rect x="181.8" y="326.3632991283561" width="7.199999999999999" height="18.636700871643882" fill="#44aa44" opacity="0.3"/>
<rect x="193.8" y="326.1528802145585" width="7.199999999999999" height="18.84711978544152" fill="#44aa44" opacity="0.3"/>
<rect x="205.8" y="328.82391481794593" width="7.199999999999999" height="16.176085182054067" fill="#44aa44" opacity="0.3"/>
<rect x="217.8" y="328.860777483019" width="7.199999999999999" height="16.13922251698102" fill="#44aa44" opacity="0.3"/>
<rect x="229.8" y="330.89773489199195" width="7.199999999999999" height="14.102265108008055" fill="#ff4444" opacity="0.3"/>
<rect x="241.8" y="329.4589758913215" width="7.199999999999999" height="15.541024108678528" fill="#44aa44" opacity="0.3"/>
<rect x="253.8" y="333.12182607935165" width="7.199999999999999" height="11.87817392064835" fill="#44aa44" opacity="0.3"/>
<rect x="265.8" y="329.7446943416028" width="7.199999999999999" height="15.25530565839722" fill="#44aa44" opacity="0.3"/>
<rect x="277.8" y="333.81887152727165" width="7.199999999999999" height="11.181128472728346" fill="#44aa44" opacity="0.3"/>
<rect x="289.8" y="333.53105413520683" width="7.199999999999999" height="11.46894586479317" fill="#ff4444" opacity="0.3"/>
<rect x="301.8" y="337.26343176981607" width="7.199999999999999" height="7.736568230183934" fill="#44aa44" opacity="0.3"/>
<rect x="313.8" y="338.3380243710463" width="7.199999999999999" height="6.661975628953712" fill="#ff4444" opacity="0.3"/>
<rect x="325.8" y="334.457933708422" width="7.199999999999999" height="10.54206629157801" fill="#ff4444" opacity="0.3"/>
<rect x="337.8" y="335.5413156283707" width="7.199999999999999" height="9.458684371629317" fill="#44aa44" opacity="0.3"/>
<rect x="349.8" y="334.0235183511646" width="7.199999999999999" height="10.976481648835374" fill="#ff4444" opacity="0.3"/>
<rect x="361.8" y="300.0" width="7.199999999999999" height="45.0" fill="#44aa44" opacity="0.3"/>
<rect x="373.8" y="329.9586552196601" width="7.199999999999999" height="15.041344780339898" fill="#ff4444" opacity="0.3"/>
<rect x="385.8" y="327.82895082062794" width="7.199999999999999" height="17.171049179372062" fill="#44aa44" opacity="0.3"/>
<rect x="397.8" y="323.94262892458386" width="7.199999999999999" height="21.057371075416143" fill="#ff4444" opacity="0.3"/>
<rect x="409.8" y="330.03015042416115" width="7.199999999999999" height="14.96984957583885" fill="#ff4444" opacity="0.3"/>
<rect x="421.8" y="330.90711453808706" width="7.199999999999999" height="14.092885461912942" fill="#44aa44" opacity="0.3"/>
<rect x="433.8" y="332.9581086202373" width="7.199999999999999" height="12.041891379762717" fill="#44aa44" opacity="0.3"/>
<rect x="445.8" y="331.7944421770691" width="7.199999999999999" height="13.205557822930928" fill="#ff4444" opacity="0.3"/>
<rect x="457.8" y="327.9302903536134" width="7.199999999999999" height="17.069709646386627" fill="#ff4444" opacity="0.3"/>
<rect x="469.8" y="331.4036454537504" width="7.199999999999999" height="13.596354546249586" fill="#44aa44" opacity="0.3"/>
<rect x="481.8" y="326.5593534093228" width="7.199999999999999" height="18.440646590677204" fill="#ff4444" opacity="0.3"/>
<rect x="493.8" y="331.63098708567765" width="7.199999999999999" height="13.369012914322354" fill="#ff4444" opacity="0.3"/>
<rect x="505.8" y="332.6442512316707" width="7.199999999999999" height="12.355748768329306" fill="#ff4444" opacity="0.3"/>
<rect x="517.8" y="335.6135979360406" width="7.199999999999999" height="9.386402063959395" fill="#ff4444" opacity="0.3"/>
<rect x="529.8" y="327.1389893012273" width="7.199999999999999" height="17.861010698772702" fill="#44aa44" opacity="0.3"/>
<rect x="541.8" y="329.9151677695828" width="7.199999999999999" height="15.084832230417192" fill="#44aa44" opacity="0.3"/>
<rect x="553.8" y="333.6489884266682" width="7.199999999999999" height="11.351011573331789" fill="#ff4444" opacity="0.3"/>
<rect x="565.8" y="334.35836515756637" width="7.199999999999999" height="10.641634842433632" fill="#44aa44" opacity="0.3"/>
<rect x="577.8" y="331.9297583301752" width="7.199999999999999" height="13.070241669824782" fill="#ff4444" opacity="0.3"/>
<rect x="589.8" y="300.3822697723231" width="7.199999999999999" height="44.61773022767687" fill="#ff4444" opacity="0.3"/>
<rect x="601.8" y="306.10287001136925" width="7.199999999999999" height="38.89712998863075" fill="#ff4444" opacity="0.3"/>
<rect x="613.8" y="327.0085925429263" width="7.199999999999999" height="17.991407457073706" fill="#44aa44" opacity="0.3"/>
<rect x="625.8" y="332.89946943416027" width="7.199999999999999" height="12.100530565839733" fill="#44aa44" opacity="0.3"/>
<rect x="637.8" y="329.69267994052996" width="7.199999999999999" height="15.307320059470044" fill="#ff4444" opacity="0.3"/>
<rect x="649.8" y="332.5638355245897" width="7.199999999999999" height="12.436164475410294" fill="#44aa44" opacity="0.3"/>
<rect x="661.8" y="335.25986065358717" width="7.199999999999999" height="9.740139346412832" fill="#ff4444" opacity="0.3"/>
<rect x="673.8" y="336.0142334489695" width="7.199999999999999" height="8.985766551030508" fill="#44aa44" opacity="0.3"/>
<rect x="685.8" y="333.8001778270122" width="7.199999999999999" height="11.199822172987808" fill="#44aa44" opacity="0.3"/>
<rect x="697.8" y="335.2143398536571" width="7.199999999999999" height="9.785660146342877" fill="#ff4444" opacity="0.3"/>
<rect x="709.8" y="329.9867285660146" width="7.199999999999999" height="15.01327143398538" fill="#ff4444" opacity="0.3"/>
<rect x="721.8" y="329.4252616389237" width="7.199999999999999" height="15.5747383610763" fill="#ff4444" opacity="0.3"/>
<rect x="733.8" y="326.0447191207766" width="7.199999999999999" height="18.95528087922338" fill="#ff4444" opacity="0.3"/>
<rect x="745.8" y="329.670903419526" width="7.199999999999999" height="15.329096580474015" fill="#ff4444" opacity="0.3"/>
<rect x="757.8" y="328.00670495291956" width="7.199999999999999" height="16.993295047080437" fill="#ff4444" opacity="0.3"/>
<rect x="769.8" y="332.53648368947324" width="7.199999999999999" height="12.463516310526757" fill="#44aa44" opacity="0.3"/>
<polyline points="66.0,127.54 78.0,127.97 90.0,126.43 102.0,133.37 114.0,133.97 126.0,128.05 138.0,112.28 150.0,108.43 162.0,107.70 174.0,112.30 186.0,119.39 198.0,133.67 210.0,147.32 222.0,163.86 234.0,170.42 246.0,183.82 258.0,193.19 270.0,207.67 282.0,214.96 294.0,214.04 306.0,213.86 318.0,211.81 330.0,213.34 342.0,215.32 354.0,213.23 366.0,236.37 378.0,249.87 390.0,265.61 402.0,262.53 414.0,259.42 426.0,256.30 438.0,257.72 450.0,252.45 462.0,245.16 474.0,239.69 486.0,225.97 498.0,214.63 510.0,206.72 522.0,199.34 534.0,195.82 546.0,195.41 558.0,193.20 570.0,195.50 582.0,192.56 594.0,171.85 606.0,137.98 618.0,117.23 630.0,110.33 642.0,105.11 654.0,103.56 666.0,99.11 678.0,105.69 690.0,116.04 702.0,121.10 714.0,114.22 726.0,103.32 738.0,90.27 750.0,81.57 762.0,67.71 774.0,62.24" fill="none" stroke="#ffd700" stroke-width="0.8" opacity="0.7"/>
<polyline points="66.0,127.54 78.0,127.78 90.0,126.97 102.0,130.66 114.0,131.47 126.0,128.70 138.0,119.98 150.0,116.48 162.0,114.62 174.0,115.87 186.0,119.09 198.0,126.93 210.0,135.60 222.0,146.75 234.0,153.44 246.0,163.84 258.0,172.58 270.0,184.23 282.0,192.47 294.0,196.05 306.0,199.23 318.0,200.77 330.0,203.61 342.0,206.46 354.0,206.93 366.0,220.70 378.0,230.91 390.0,242.95 402.0,245.38 414.0,246.81 426.0,247.40 438.0,249.79 450.0,248.36 462.0,245.13 474.0,242.15 486.0,234.22 498.0,226.53 510.0,220.05 522.0,213.60 534.0,209.09 546.0,206.45 558.0,203.24 570.0,202.67 582.0,199.76 594.0,187.16 606.0,165.90 618.0,149.51 630.0,139.87 642.0,131.65 654.0,125.98 666.0,119.48 678.0,119.36 690.0,122.52 702.0,124.10 714.0,119.80 726.0,112.85 738.0,104.00 750.0,96.76 762.0,86.44 774.0,80.05" fill="none" stroke="#ff6b6b" stroke-width="0.8" opacity="0.7"/>
<polyline points="66.0,127.54 78.0,127.66 90.0,127.25 102.0,129.15 114.0,129.73 126.0,128.44 138.0,123.90 150.0,121.69 162.0,120.22 174.0,120.34 186.0,121.60 198.0,125.47 210.0,130.15 222.0,136.51 234.0,140.99 246.0,147.62 258.0,153.75 270.0,161.64 282.0,168.11 294.0,172.31 306.0,176.23 318.0,179.23 330.0,182.77 342.0,186.25 354.0,188.42 366.0,197.39 378.0,204.96 390.0,213.74 402.0,217.80 414.0,221.17 426.0,223.92 438.0,227.41 450.0,228.79 462.0,228.96 474.0,228.94 486.0,226.04 498.0,222.80 510.0,219.76 522.0,216.41 534.0,213.78 546.0,211.95 558.0,209.74 570.0,208.83 582.0,206.72 594.0,199.45 606.0,187.14 618.0,176.53 630.0,168.91 642.0,161.84 654.0,156.00 666.0,149.73 678.0,146.79 690.0,145.83 702.0,144.44 714.0,140.25 726.0,134.66 738.0,127.95 750.0,121.87 762.0,114.08 774.0,108.10" fill="none" stroke="#4ecdc4" stroke-width="0.8" opacity="0.7"/>
<line x1="66.0" y1="111.76241480038948" x2="66.0" y2="141.47030185004874" stroke="#ff4444" stroke-width="0.5" opacity="0.6"/>
<rect x="63.0" y="127.53651411879262" width="6.0" height="6.046738072054538" fill="#ff4444" opacity="0.85"/>
<line x1="78.0" y1="121.4897760467381" x2="78.0" y2="137.78967867575466" stroke="#ff4444" stroke-width="0.5" opacity="0.6"/>
<rect x="75.0" y="128.85102239532625" width="6.0" height="2.6290165530671175" fill="#ff4444" opacity="0.85"/>
<line x1="90.0" y1="112.02531645569624" x2="90.0" y2="147.25413826679653" stroke="#ff4444" stroke-width="0.5" opacity="0.6"/>
<rect x="87.0" y="123.33008763388513" width="6.0" height="23.924050632911403" fill="#ff4444" opacity="0.85"/>
<line x1="102.0" y1="113.86562804284327" x2="102.0" y2="151.46056475170403" stroke="#44aa44" stroke-width="0.5" opacity="0.6"/>
<rect x="99.0" y="123.33008763388513" width="6.0" height="23.924050632911403" fill="#44aa44" opacity="0.85"/>
<line x1="114.0" y1="121.4897760467381" x2="114.0" y2="160.39922103213246" stroke="#ff4444" stroke-width="0.5" opacity="0.6"/>
<rect x="111.0" y="135.16066212268743" width="6.0" height="22.872444011684564" fill="#ff4444" opacity="0.85"/>
<line x1="126.0" y1="104.13826679649465" x2="126.0" y2="129.63972736124634" stroke="#ff4444" stroke-width="0.5" opacity="0.6"/>
<rect x="123.0" y="116.23174294060372" width="6.0" height="8.675754625121684" fill="#ff4444" opacity="0.85"/>
<line x1="138.0" y1="67.33203505355408" x2="138.0" y2="115.44303797468355" stroke="#ff4444" stroke-width="0.5" opacity="0.6"/>
<rect x="135.0" y="80.74001947419669" width="6.0" height="32.59980525803316" fill="#ff4444" opacity="0.85"/>
<line x1="150.0" y1="89.6786757546252" x2="150.0" y2="124.64459591041874" stroke="#ff4444" stroke-width="0.5" opacity="0.6"/>
<rect x="147.0" y="100.72054527750724" width="6.0" height="4.995131450827785" fill="#ff4444" opacity="0.85"/>
<line x1="162.0" y1="91.51898734177225" x2="162.0" y2="112.02531645569624" stroke="#44aa44" stroke-width="0.5" opacity="0.6"/>
<rect x="159.0" y="93.35929892891929" width="6.0" height="12.88218111002908" fill="#44aa44" opacity="0.85"/>
<line x1="174.0" y1="102.82375851996113" x2="174.0" y2="128.85102239532625" stroke="#44aa44" stroke-width="0.5" opacity="0.6"/>
<rect x="171.0" y="105.45277507302816" width="6.0" height="16.037000973709937" fill="#44aa44" opacity="0.85"/>
<line x1="186.0" y1="109.65920155793577" x2="186.0" y2="144.36222005842262" stroke="#44aa44" stroke-width="0.5" opacity="0.6"/>
<rect x="183.0" y="120.96397273612466" width="6.0" height="12.619279454722502" fill="#44aa44" opacity="0.85"/>
<line x1="198.0" y1="131.74294060370013" x2="198.0" y2="168.28627069133404" stroke="#44aa44" stroke-width="0.5" opacity="0.6"/>
<rect x="195.0" y="139.36708860759495" width="6.0" height="22.872444011684536" fill="#44aa44" opacity="0.85"/>
<line x1="210.0" y1="158.82181110029217" x2="210.0" y2="183.7974683544304" stroke="#44aa44" stroke-width="0.5" opacity="0.6"/>
<rect x="207.0" y="163.5540408958131" width="6.0" height="11.041869522882138" fill="#44aa44" opacity="0.85"/>
<line x1="222.0" y1="166.18305744888022" x2="222.0" y2="198.25705939629998" stroke="#44aa44" stroke-width="0.5" opacity="0.6"/>
<rect x="219.0" y="169.3378773125609" width="6.0" height="27.604673807205444" fill="#44aa44" opacity="0.85"/>
<line x1="234.0" y1="181.43135345666994" x2="234.0" y2="201.14897760467383" stroke="#ff4444" stroke-width="0.5" opacity="0.6"/>
<rect x="231.0" y="183.53456669912367" width="6.0" height="12.88218111002928" fill="#ff4444" opacity="0.85"/>
<line x1="246.0" y1="193.26192794547225" x2="246.0" y2="212.7166504381694" stroke="#44aa44" stroke-width="0.5" opacity="0.6"/>
<rect x="243.0" y="198.78286270691336" width="6.0" height="11.83057448880237" fill="#44aa44" opacity="0.85"/>
<line x1="258.0" y1="198.51996105160663" x2="258.0" y2="212.19084712755597" stroke="#44aa44" stroke-width="0.5" opacity="0.6"/>
<rect x="255.0" y="211.13924050632914" width="6.0" height="0.788704965920175" fill="#44aa44" opacity="0.85"/>
<line x1="270.0" y1="212.45374878286276" x2="270.0" y2="241.6358325219085" stroke="#44aa44" stroke-width="0.5" opacity="0.6"/>
<rect x="267.0" y="223.23271665043822" width="6.0" height="13.407984420642578" fill="#44aa44" opacity="0.85"/>
<line x1="282.0" y1="224.8101265822785" x2="282.0" y2="244.5277507302824" stroke="#44aa44" stroke-width="0.5" opacity="0.6"/>
<rect x="279.0" y="226.1246348588121" width="6.0" height="3.4177215189872925" fill="#44aa44" opacity="0.85"/>
<line x1="294.0" y1="207.72151898734182" x2="294.0" y2="225.86173320350534" stroke="#ff4444" stroke-width="0.5" opacity="0.6"/>
<rect x="291.0" y="212.19084712755597" width="6.0" height="9.990262901655399" fill="#ff4444" opacity="0.85"/>
<line x1="306.0" y1="202.9892891918209" x2="306.0" y2="218.23758519961052" stroke="#44aa44" stroke-width="0.5" opacity="0.6"/>
<rect x="303.0" y="211.4021421616359" width="6.0" height="2.103213242453677" fill="#44aa44" opacity="0.85"/>
<line x1="318.0" y1="204.56669912366118" x2="318.0" y2="223.4956183057449" stroke="#ff4444" stroke-width="0.5" opacity="0.6"/>
<rect x="315.0" y="207.72151898734182" width="6.0" height="14.196689386562781" fill="#ff4444" opacity="0.85"/>
<line x1="330.0" y1="212.45374878286276" x2="330.0" y2="230.85686465433304" stroke="#ff4444" stroke-width="0.5" opacity="0.6"/>
<rect x="327.0" y="216.3972736124635" width="6.0" height="1.8403115871470277" fill="#ff4444" opacity="0.85"/>
<line x1="342.0" y1="205.35540408958136" x2="342.0" y2="221.9182083739046" stroke="#44aa44" stroke-width="0.5" opacity="0.6"/>
<rect x="339.0" y="216.13437195715684" width="6.0" height="3.1548198636805296" fill="#44aa44" opacity="0.85"/>
<line x1="354.0" y1="205.0925024342746" x2="354.0" y2="215.6085686465434" stroke="#ff4444" stroke-width="0.5" opacity="0.6"/>
<rect x="351.0" y="209.03602726387544" width="6.0" height="0.5" fill="#ff4444" opacity="0.85"/>
<line x1="366.0" y1="236.6407010710808" x2="366.0" y2="282.91139240506334" stroke="#44aa44" stroke-width="0.5" opacity="0.6"/>
<rect x="363.0" y="240.58422590068164" width="6.0" height="42.0642648490749" fill="#44aa44" opacity="0.85"/>
<line x1="378.0" y1="271.86952288218106" x2="378.0" y2="291.32424537487833" stroke="#ff4444" stroke-width="0.5" opacity="0.6"/>
<rect x="375.0" y="276.8646543330088" width="6.0" height="1.8403115871470277" fill="#ff4444" opacity="0.85"/>
<line x1="390.0" y1="277.1275559883155" x2="390.0" y2="300.0" stroke="#44aa44" stroke-width="0.5" opacity="0.6"/>
<rect x="387.0" y="277.1275559883155" width="6.0" height="19.98052580331057" fill="#44aa44" opacity="0.85"/>
<line x1="402.0" y1="255.56962025316463" x2="402.0" y2="285.01460564751704" stroke="#ff4444" stroke-width="0.5" opacity="0.6"/>
<rect x="399.0" y="256.3583252190847" width="6.0" height="24.975657254138355" fill="#ff4444" opacity="0.85"/>
<line x1="414.0" y1="247.1567672833496" x2="414.0" y2="268.71470301850053" stroke="#ff4444" stroke-width="0.5" opacity="0.6"/>
<rect x="411.0" y="253.20350535540416" width="6.0" height="5.520934761441026" fill="#ff4444" opacity="0.85"/>
<line x1="426.0" y1="239.79552093476147" x2="426.0" y2="253.99221032132425" stroke="#44aa44" stroke-width="0.5" opacity="0.6"/>
<rect x="423.0" y="249.78578383641673" width="6.0" height="0.5" fill="#44aa44" opacity="0.85"/>
<line x1="438.0" y1="249.78578383641673" x2="438.0" y2="261.61635832521915" stroke="#44aa44" stroke-width="0.5" opacity="0.6"/>
<rect x="435.0" y="260.30185004868554" width="6.0" height="0.5" fill="#44aa44" opacity="0.85"/>
<line x1="450.0" y1="239.26971762414803" x2="450.0" y2="257.6728334956183" stroke="#ff4444" stroke-width="0.5" opacity="0.6"/>
<rect x="447.0" y="241.89873417721526" width="6.0" height="15.774099318403046" fill="#ff4444" opacity="0.85"/>
<line x1="462.0" y1="220.07789678675755" x2="462.0" y2="241.37293086660176" stroke="#ff4444" stroke-width="0.5" opacity="0.6"/>
<rect x="459.0" y="230.59396299902636" width="6.0" height="7.8870496592014945" fill="#ff4444" opacity="0.85"/>
<line x1="474.0" y1="220.603700097371" x2="474.0" y2="233.74878286270692" stroke="#44aa44" stroke-width="0.5" opacity="0.6"/>
<rect x="471.0" y="226.65043816942554" width="6.0" height="2.1032132424537906" fill="#44aa44" opacity="0.85"/>
<line x1="486.0" y1="198.25705939629998" x2="486.0" y2="230.33106134371963" stroke="#ff4444" stroke-width="0.5" opacity="0.6"/>
<rect x="483.0" y="198.51996105160663" width="6.0" height="30.233690360272703" fill="#ff4444" opacity="0.85"/>
<line x1="498.0" y1="188.79259980525802" x2="498.0" y2="212.7166504381694" stroke="#ff4444" stroke-width="0.5" opacity="0.6"/>
<rect x="495.0" y="191.94741966893866" width="6.0" height="5.258033106134349" fill="#ff4444" opacity="0.85"/>
<line x1="510.0" y1="184.58617332035058" x2="510.0" y2="199.83446932814024" stroke="#ff4444" stroke-width="0.5" opacity="0.6"/>
<rect x="507.0" y="190.8958130477118" width="6.0" height="5.783836416747789" fill="#ff4444" opacity="0.85"/>
<line x1="522.0" y1="178.80233690360274" x2="522.0" y2="197.205452775073" stroke="#ff4444" stroke-width="0.5" opacity="0.6"/>
<rect x="519.0" y="184.58617332035058" width="6.0" height="10.253164556961963" fill="#ff4444" opacity="0.85"/>
<line x1="534.0" y1="174.0701071080818" x2="534.0" y2="202.2005842259007" stroke="#44aa44" stroke-width="0.5" opacity="0.6"/>
<rect x="531.0" y="184.32327166504385" width="6.0" height="4.469328140214174" fill="#44aa44" opacity="0.85"/>
<line x1="546.0" y1="182.74586173320355" x2="546.0" y2="203.777994157741" stroke="#44aa44" stroke-width="0.5" opacity="0.6"/>
<rect x="543.0" y="188.79259980525802" width="6.0" height="5.783836416747874" fill="#44aa44" opacity="0.85"/>
<line x1="558.0" y1="182.22005842259003" x2="558.0" y2="202.72638753651412" stroke="#ff4444" stroke-width="0.5" opacity="0.6"/>
<rect x="555.0" y="188.79259980525802" width="6.0" height="5.783836416747874" fill="#ff4444" opacity="0.85"/>
<line x1="570.0" y1="189.31840311587155" x2="570.0" y2="204.04089581304774" stroke="#44aa44" stroke-width="0.5" opacity="0.6"/>
<rect x="567.0" y="199.04576436222007" width="6.0" height="1.051606621226938" fill="#44aa44" opacity="0.85"/>
<line x1="582.0" y1="184.58617332035058" x2="582.0" y2="199.83446932814024" stroke="#ff4444" stroke-width="0.5" opacity="0.6"/>
<rect x="579.0" y="186.68938656280432" width="6.0" height="12.882181110029165" fill="#ff4444" opacity="0.85"/>
<line x1="594.0" y1="113.07692307692308" x2="594.0" y2="144.88802336903606" stroke="#ff4444" stroke-width="0.5" opacity="0.6"/>
<rect x="591.0" y="130.42843232716652" width="6.0" height="8.41285296981502" fill="#ff4444" opacity="0.85"/>
<line x1="606.0" y1="66.28042843232723" x2="606.0" y2="132.0058422590069" stroke="#ff4444" stroke-width="0.5" opacity="0.6"/>
<rect x="603.0" y="70.22395326192799" width="6.0" height="53.3690360272639" fill="#ff4444" opacity="0.85"/>
<line x1="618.0" y1="67.33203505355408" x2="618.0" y2="94.14800389483928" stroke="#44aa44" stroke-width="0.5" opacity="0.6"/>
<rect x="615.0" y="70.22395326192799" width="6.0" height="5.5209347614411115" fill="#44aa44" opacity="0.85"/>
<line x1="630.0" y1="81.00292112950335" x2="630.0" y2="104.66407010710817" stroke="#44aa44" stroke-width="0.5" opacity="0.6"/>
<rect x="627.0" y="81.52872444011686" width="6.0" height="14.985394352482984" fill="#44aa44" opacity="0.85"/>
<line x1="642.0" y1="83.89483933787743" x2="642.0" y2="104.40116845180133" stroke="#ff4444" stroke-width="0.5" opacity="0.6"/>
<rect x="639.0" y="94.6738072054528" width="6.0" height="2.629016553067217" fill="#ff4444" opacity="0.85"/>
<line x1="654.0" y1="90.73028237585206" x2="654.0" y2="114.65433300876344" stroke="#44aa44" stroke-width="0.5" opacity="0.6"/>
<rect x="651.0" y="94.6738072054528" width="6.0" height="5.783836416747775" fill="#44aa44" opacity="0.85"/>
<line x1="666.0" y1="84.15774099318409" x2="666.0" y2="106.50438169425522" stroke="#ff4444" stroke-width="0.5" opacity="0.6"/>
<rect x="663.0" y="90.20447906523853" width="6.0" height="10.253164556962048" fill="#ff4444" opacity="0.85"/>
<line x1="678.0" y1="98.61733203505354" x2="678.0" y2="123.33008763388513" stroke="#44aa44" stroke-width="0.5" opacity="0.6"/>
<rect x="675.0" y="98.61733203505354" width="6.0" height="20.24342745861742" fill="#44aa44" opacity="0.85"/>
<line x1="690.0" y1="109.13339824732233" x2="690.0" y2="143.3106134371958" stroke="#44aa44" stroke-width="0.5" opacity="0.6"/>
<rect x="687.0" y="120.96397273612466" width="6.0" height="15.774099318403145" fill="#44aa44" opacity="0.85"/>
<line x1="702.0" y1="123.59298928919189" x2="702.0" y2="141.7332035053554" stroke="#ff4444" stroke-width="0.5" opacity="0.6"/>
<rect x="699.0" y="131.2171372930867" width="6.0" height="10.516066212268697" fill="#ff4444" opacity="0.85"/>
<line x1="714.0" y1="84.68354430379742" x2="714.0" y2="147.25413826679653" stroke="#ff4444" stroke-width="0.5" opacity="0.6"/>
<rect x="711.0" y="100.45764362220058" width="6.0" height="31.022395326192793" fill="#ff4444" opacity="0.85"/>
<line x1="726.0" y1="70.7497565725415" x2="726.0" y2="106.24148003894837" stroke="#ff4444" stroke-width="0.5" opacity="0.6"/>
<rect x="723.0" y="81.52872444011686" width="6.0" height="21.032132424537423" fill="#ff4444" opacity="0.85"/>
<line x1="738.0" y1="40.51606621226871" x2="738.0" y2="84.68354430379742" stroke="#ff4444" stroke-width="0.5" opacity="0.6"/>
<rect x="735.0" y="64.17721518987354" width="6.0" height="19.980525803310556" fill="#ff4444" opacity="0.85"/>
<line x1="750.0" y1="38.93865628042852" x2="750.0" y2="86.78675754625132" stroke="#ff4444" stroke-width="0.5" opacity="0.6"/>
<rect x="747.0" y="64.17721518987354" width="6.0" height="8.938656280428333" fill="#ff4444" opacity="0.85"/>
<line x1="762.0" y1="30.0" x2="762.0" y2="69.69814995131446" stroke="#ff4444" stroke-width="0.5" opacity="0.6"/>
<rect x="759.0" y="39.99026290165537" width="6.0" height="17.877312560856865" fill="#ff4444" opacity="0.85"/>
<line x1="774.0" y1="43.93378773125612" x2="774.0" y2="69.69814995131446" stroke="#44aa44" stroke-width="0.5" opacity="0.6"/>
<rect x="771.0" y="46.03700097370982" width="6.0" height="5.258033106134448" fill="#44aa44" opacity="0.85"/>
<rect x="122.0" y="100.13826679649465" width="8" height="8" fill="#ff9800" opacity="0.85" rx="1"/>
<text x="126.0" y="98.13826679649465" text-anchor="middle" font-family="sans-serif" font-size="8" fill="#ff9800">前高</text>
<rect x="134.0" y="63.33203505355408" width="8" height="8" fill="#ff9800" opacity="0.85" rx="1"/>
<text x="138.0" y="61.33203505355408" text-anchor="middle" font-family="sans-serif" font-size="8" fill="#ff9800">前高</text>
<rect x="194.0" y="164.28627069133404" width="8" height="8" fill="#4caf50" opacity="0.85" rx="1"/>
<text x="198.0" y="162.28627069133404" text-anchor="middle" font-family="sans-serif" font-size="8" fill="#4caf50">前低</text>
<rect x="206.0" y="179.7974683544304" width="8" height="8" fill="#4caf50" opacity="0.85" rx="1"/>
<text x="210.0" y="177.7974683544304" text-anchor="middle" font-family="sans-serif" font-size="8" fill="#4caf50">前低</text>
<rect x="218.0" y="194.25705939629998" width="8" height="8" fill="#4caf50" opacity="0.85" rx="1"/>
<text x="222.0" y="192.25705939629998" text-anchor="middle" font-family="sans-serif" font-size="8" fill="#4caf50">前低</text>
<rect x="230.0" y="197.14897760467383" width="8" height="8" fill="#4caf50" opacity="0.85" rx="1"/>
<text x="234.0" y="195.14897760467383" text-anchor="middle" font-family="sans-serif" font-size="8" fill="#4caf50">前低</text>
<rect x="242.0" y="208.7166504381694" width="8" height="8" fill="#4caf50" opacity="0.85" rx="1"/>
<text x="246.0" y="206.7166504381694" text-anchor="middle" font-family="sans-serif" font-size="8" fill="#4caf50">前低</text>
<rect x="266.0" y="237.6358325219085" width="8" height="8" fill="#4caf50" opacity="0.85" rx="1"/>
<text x="270.0" y="235.6358325219085" text-anchor="middle" font-family="sans-serif" font-size="8" fill="#4caf50">前低</text>
<rect x="278.0" y="240.5277507302824" width="8" height="8" fill="#4caf50" opacity="0.85" rx="1"/>
<text x="282.0" y="238.5277507302824" text-anchor="middle" font-family="sans-serif" font-size="8" fill="#4caf50">前低</text>
<rect x="362.0" y="278.91139240506334" width="8" height="8" fill="#4caf50" opacity="0.85" rx="1"/>
<text x="366.0" y="276.91139240506334" text-anchor="middle" font-family="sans-serif" font-size="8" fill="#4caf50">前低</text>
<rect x="362.0" y="209.5053554040895" width="8" height="8" fill="#ff9800" opacity="0.85" rx="1"/>
<text x="366.0" y="207.5053554040895" text-anchor="middle" font-family="sans-serif" font-size="8" fill="#ff9800">量</text>
<rect x="374.0" y="287.32424537487833" width="8" height="8" fill="#4caf50" opacity="0.85" rx="1"/>
<text x="378.0" y="285.32424537487833" text-anchor="middle" font-family="sans-serif" font-size="8" fill="#4caf50">前低</text>
<rect x="386.0" y="296.0" width="8" height="8" fill="#4caf50" opacity="0.85" rx="1"/>
<text x="390.0" y="294.0" text-anchor="middle" font-family="sans-serif" font-size="8" fill="#4caf50">前低</text>
<rect x="482.0" y="194.25705939629998" width="8" height="8" fill="#ff9800" opacity="0.85" rx="1"/>
<text x="486.0" y="192.25705939629998" text-anchor="middle" font-family="sans-serif" font-size="8" fill="#ff9800">前高</text>
<rect x="482.0" y="194.25705939629998" width="8" height="8" fill="#2196f3" opacity="0.85" rx="1"/>
<text x="486.0" y="192.25705939629998" text-anchor="middle" font-family="sans-serif" font-size="8" fill="#2196f3">突</text>
<rect x="494.0" y="184.79259980525802" width="8" height="8" fill="#ff9800" opacity="0.85" rx="1"/>
<text x="498.0" y="182.79259980525802" text-anchor="middle" font-family="sans-serif" font-size="8" fill="#ff9800">前高</text>
<rect x="494.0" y="184.79259980525802" width="8" height="8" fill="#2196f3" opacity="0.85" rx="1"/>
<text x="498.0" y="182.79259980525802" text-anchor="middle" font-family="sans-serif" font-size="8" fill="#2196f3">突</text>
<rect x="506.0" y="180.58617332035058" width="8" height="8" fill="#ff9800" opacity="0.85" rx="1"/>
<text x="510.0" y="178.58617332035058" text-anchor="middle" font-family="sans-serif" font-size="8" fill="#ff9800">前高</text>
<rect x="518.0" y="174.80233690360274" width="8" height="8" fill="#ff9800" opacity="0.85" rx="1"/>
<text x="522.0" y="172.80233690360274" text-anchor="middle" font-family="sans-serif" font-size="8" fill="#ff9800">前高</text>
<rect x="530.0" y="170.0701071080818" width="8" height="8" fill="#ff9800" opacity="0.85" rx="1"/>
<text x="534.0" y="168.0701071080818" text-anchor="middle" font-family="sans-serif" font-size="8" fill="#ff9800">前高</text>
<rect x="590.0" y="109.07692307692308" width="8" height="8" fill="#ff9800" opacity="0.85" rx="1"/>
<text x="594.0" y="107.07692307692308" text-anchor="middle" font-family="sans-serif" font-size="8" fill="#ff9800">前高</text>
<rect x="590.0" y="93.1713729308666" width="8" height="8" fill="#ff9800" opacity="0.85" rx="1"/>
<text x="594.0" y="91.1713729308666" text-anchor="middle" font-family="sans-serif" font-size="8" fill="#ff9800">量</text>
<rect x="602.0" y="62.28042843232723" width="8" height="8" fill="#ff9800" opacity="0.85" rx="1"/>
<text x="606.0" y="60.28042843232723" text-anchor="middle" font-family="sans-serif" font-size="8" fill="#ff9800">前高</text>
<rect x="602.0" y="62.28042843232723" width="8" height="8" fill="#2196f3" opacity="0.85" rx="1"/>
<text x="606.0" y="60.28042843232723" text-anchor="middle" font-family="sans-serif" font-size="8" fill="#2196f3">突</text>
<rect x="710.0" y="143.25413826679653" width="8" height="8" fill="#4caf50" opacity="0.85" rx="1"/>
<text x="714.0" y="141.25413826679653" text-anchor="middle" font-family="sans-serif" font-size="8" fill="#4caf50">前低</text>
<rect x="734.0" y="36.51606621226871" width="8" height="8" fill="#ff9800" opacity="0.85" rx="1"/>
<text x="738.0" y="34.51606621226871" text-anchor="middle" font-family="sans-serif" font-size="8" fill="#ff9800">前高</text>
<rect x="746.0" y="34.93865628042852" width="8" height="8" fill="#ff9800" opacity="0.85" rx="1"/>
<text x="750.0" y="32.93865628042852" text-anchor="middle" font-family="sans-serif" font-size="8" fill="#ff9800">前高</text>
<rect x="758.0" y="26.0" width="8" height="8" fill="#ff9800" opacity="0.85" rx="1"/>
<text x="762.0" y="24.0" text-anchor="middle" font-family="sans-serif" font-size="8" fill="#ff9800">前高</text>
<text x="66.0" y="359" text-anchor="middle" font-family="sans-serif" font-size="8" fill="#666666" transform="rotate(-40,66.0,359)">02/26</text>
<text x="138.0" y="359" text-anchor="middle" font-family="sans-serif" font-size="8" fill="#666666" transform="rotate(-40,138.0,359)">03/06</text>
<text x="210.0" y="359" text-anchor="middle" font-family="sans-serif" font-size="8" fill="#666666" transform="rotate(-40,210.0,359)">03/16</text>
<text x="282.0" y="359" text-anchor="middle" font-family="sans-serif" font-size="8" fill="#666666" transform="rotate(-40,282.0,359)">03/24</text>
<text x="354.0" y="359" text-anchor="middle" font-family="sans-serif" font-size="8" fill="#666666" transform="rotate(-40,354.0,359)">04/01</text>
<text x="426.0" y="359" text-anchor="middle" font-family="sans-serif" font-size="8" fill="#666666" transform="rotate(-40,426.0,359)">04/10</text>
<text x="498.0" y="359" text-anchor="middle" font-family="sans-serif" font-size="8" fill="#666666" transform="rotate(-40,498.0,359)">04/20</text>
<text x="570.0" y="359" text-anchor="middle" font-family="sans-serif" font-size="8" fill="#666666" transform="rotate(-40,570.0,359)">04/28</text>
<text x="642.0" y="359" text-anchor="middle" font-family="sans-serif" font-size="8" fill="#666666" transform="rotate(-40,642.0,359)">05/11</text>
<text x="714.0" y="359" text-anchor="middle" font-family="sans-serif" font-size="8" fill="#666666" transform="rotate(-40,714.0,359)">05/19</text>
<text x="774.0" y="359" text-anchor="middle" font-family="sans-serif" font-size="8" fill="#666666" transform="rotate(-40,774.0,359)">05/26</text>
<text x="400.0" y="396" text-anchor="middle" font-family="sans-serif" font-size="9" fill="#555555">数据截至: 2026-05-26 19:41  |  最新K线: 20260526</text>
<rect x="50" y="373" width="8" height="8" fill="#ffd700" opacity="0.8" rx="1"/>
<text x="61" y="380" font-family="sans-serif" font-size="9" fill="#888888">EMA5</text>
<rect x="150" y="373" width="8" height="8" fill="#ff6b6b" opacity="0.8" rx="1"/>
<text x="161" y="380" font-family="sans-serif" font-size="9" fill="#888888">EMA10</text>
<rect x="250" y="373" width="8" height="8" fill="#4ecdc4" opacity="0.8" rx="1"/>
<text x="261" y="380" font-family="sans-serif" font-size="9" fill="#888888">EMA20</text>
<rect x="350" y="373" width="8" height="8" fill="#2196f3" opacity="0.8" rx="1"/>
<text x="361" y="380" font-family="sans-serif" font-size="9" fill="#888888">突破</text>
<rect x="450" y="373" width="8" height="8" fill="#ff9800" opacity="0.8" rx="1"/>
<text x="461" y="380" font-family="sans-serif" font-size="9" fill="#888888">前高/量</text>
<rect x="550" y="373" width="8" height="8" fill="#4caf50" opacity="0.8" rx="1"/>
<text x="561" y="380" font-family="sans-serif" font-size="9" fill="#888888">前低</text>
</svg>