<svg xmlns="http://www.w3.org/2000/svg" width="1000" height="550" viewBox="0 0 1000 550">
<rect width="1000" height="550" fill="#1a1a2e"/>
<text x="500.0" y="24" text-anchor="middle" font-family="sans-serif" font-size="18" fill="#ffffff" font-weight="bold">中证全指(000985) K线图</text>
<line x1="70" y1="36.0" x2="970" y2="36.0" stroke="#2a2a4e" stroke-width="0.5"/>
<text x="65" y="39.0" text-anchor="end" font-family="sans-serif" font-size="9" fill="#666666">6721</text>
<line x1="70" y1="124.79999999999984" x2="970" y2="124.79999999999984" stroke="#2a2a4e" stroke-width="0.5"/>
<text x="65" y="127.79999999999984" text-anchor="end" font-family="sans-serif" font-size="9" fill="#666666">6515</text>
<line x1="70" y1="213.60000000000008" x2="970" y2="213.60000000000008" stroke="#2a2a4e" stroke-width="0.5"/>
<text x="65" y="216.60000000000008" text-anchor="end" font-family="sans-serif" font-size="9" fill="#666666">6310</text>
<line x1="70" y1="302.3999999999999" x2="970" y2="302.3999999999999" stroke="#2a2a4e" stroke-width="0.5"/>
<text x="65" y="305.3999999999999" text-anchor="end" font-family="sans-serif" font-size="9" fill="#666666">6104</text>
<line x1="70" y1="391.20000000000016" x2="970" y2="391.20000000000016" stroke="#2a2a4e" stroke-width="0.5"/>
<text x="65" y="394.20000000000016" text-anchor="end" font-family="sans-serif" font-size="9" fill="#666666">5898</text>
<line x1="70" y1="480.0" x2="970" y2="480.0" stroke="#2a2a4e" stroke-width="0.5"/>
<text x="65" y="483.0" text-anchor="end" font-family="sans-serif" font-size="9" fill="#666666">5692</text>
<line x1="70" y1="480" x2="970" y2="480" stroke="#2a2a4e" stroke-width="0.5"/>
<rect x="72.25" y="441.47620526133494" width="9.0" height="38.52379473866503" fill="#ff4444" opacity="0.35"/>
<rect x="87.25" y="432.5943474620649" width="9.0" height="47.40565253793514" fill="#ff4444" opacity="0.35"/>
<rect x="102.25" y="430.0" width="9.0" height="50.0" fill="#44aa44" opacity="0.35"/>
<rect x="117.25" y="440.18559764898583" width="9.0" height="39.81440235101418" fill="#ff4444" opacity="0.35"/>
<rect x="132.25" y="441.7008950119858" width="9.0" height="38.29910498801424" fill="#44aa44" opacity="0.35"/>
<rect x="147.25" y="443.75008296308636" width="9.0" height="36.24991703691365" fill="#ff4444" opacity="0.35"/>
<rect x="162.25" y="436.86122189227336" width="9.0" height="43.13877810772666" fill="#ff4444" opacity="0.35"/>
<rect x="177.25" y="442.75135642248597" width="9.0" height="37.24864357751406" fill="#ff4444" opacity="0.35"/>
<rect x="192.25" y="440.96294338546943" width="9.0" height="39.03705661453055" fill="#ff4444" opacity="0.35"/>
<rect x="207.25" y="438.97163560182565" width="9.0" height="41.028364398174325" fill="#44aa44" opacity="0.35"/>
<rect x="222.25" y="438.6547707873008" width="9.0" height="41.3452292126992" fill="#44aa44" opacity="0.35"/>
<rect x="237.25" y="440.78297345114976" width="9.0" height="39.21702654885024" fill="#44aa44" opacity="0.35"/>
<rect x="252.25" y="442.3383475143865" width="9.0" height="37.66165248561351" fill="#44aa44" opacity="0.35"/>
<rect x="267.25" y="446.0875882986982" width="9.0" height="33.91241170130176" fill="#ff4444" opacity="0.35"/>
<rect x="282.25" y="444.5453906285987" width="9.0" height="35.454609371401325" fill="#44aa44" opacity="0.35"/>
<rect x="297.25" y="443.2285351737022" width="9.0" height="36.77146482629779" fill="#44aa44" opacity="0.35"/>
<rect x="312.25" y="436.465902172182" width="9.0" height="43.53409782781803" fill="#44aa44" opacity="0.35"/>
<rect x="327.25" y="442.9764456138564" width="9.0" height="37.023554386143594" fill="#ff4444" opacity="0.35"/>
<rect x="342.25" y="442.91482607499336" width="9.0" height="37.08517392500664" fill="#ff4444" opacity="0.35"/>
<rect x="357.25" y="446.23803942970284" width="9.0" height="33.761960570297155" fill="#44aa44" opacity="0.35"/>
<rect x="372.25" y="448.8227042502094" width="9.0" height="31.177295749790595" fill="#ff4444" opacity="0.35"/>
<rect x="387.25" y="447.2269187774102" width="9.0" height="32.77308122258981" fill="#ff4444" opacity="0.35"/>
<rect x="402.25" y="446.7821753101109" width="9.0" height="33.21782468988908" fill="#44aa44" opacity="0.35"/>
<rect x="417.25" y="448.0997572964386" width="9.0" height="31.90024270356137" fill="#ff4444" opacity="0.35"/>
<rect x="432.25" y="449.01325268390025" width="9.0" height="30.986747316099727" fill="#44aa44" opacity="0.35"/>
<rect x="447.25" y="451.6870421717574" width="9.0" height="28.31295782824258" fill="#44aa44" opacity="0.35"/>
<rect x="462.25" y="453.355730699685" width="9.0" height="26.64426930031498" fill="#ff4444" opacity="0.35"/>
<rect x="477.25" y="443.3596471233914" width="9.0" height="36.64035287660856" fill="#ff4444" opacity="0.35"/>
<rect x="492.25" y="448.58787358763" width="9.0" height="31.41212641237001" fill="#ff4444" opacity="0.35"/>
<rect x="507.25" y="448.07865974434736" width="9.0" height="31.921340255652638" fill="#ff4444" opacity="0.35"/>
<rect x="522.25" y="449.4107368415354" width="9.0" height="30.589263158464586" fill="#ff4444" opacity="0.35"/>
<rect x="537.25" y="447.26229946047147" width="9.0" height="32.737700539528525" fill="#ff4444" opacity="0.35"/>
<rect x="552.25" y="446.8789325411663" width="9.0" height="33.121067458833714" fill="#44aa44" opacity="0.35"/>
<rect x="567.25" y="447.7806555334052" width="9.0" height="32.21934446659479" fill="#ff4444" opacity="0.35"/>
<rect x="582.25" y="447.30226692480426" width="9.0" height="32.69773307519573" fill="#ff4444" opacity="0.35"/>
<rect x="597.25" y="445.4115779633614" width="9.0" height="34.58842203663857" fill="#ff4444" opacity="0.35"/>
<rect x="612.25" y="446.5154479781726" width="9.0" height="33.48455202182742" fill="#ff4444" opacity="0.35"/>
<rect x="627.25" y="446.34888135902145" width="9.0" height="33.651118640978524" fill="#ff4444" opacity="0.35"/>
<rect x="642.25" y="442.3447319398532" width="9.0" height="37.65526806014678" fill="#44aa44" opacity="0.35"/>
<rect x="657.25" y="445.4800866072251" width="9.0" height="34.519913392774924" fill="#44aa44" opacity="0.35"/>
<rect x="672.25" y="445.93532267670383" width="9.0" height="34.06467732329618" fill="#ff4444" opacity="0.35"/>
<rect x="687.25" y="445.2945009226826" width="9.0" height="34.70549907731743" fill="#44aa44" opacity="0.35"/>
<rect x="702.25" y="444.4617255298813" width="9.0" height="35.53827447011875" fill="#ff4444" opacity="0.35"/>
<rect x="717.25" y="443.4153011264344" width="9.0" height="36.58469887356564" fill="#ff4444" opacity="0.35"/>
<rect x="732.25" y="439.88807515443074" width="9.0" height="40.111924845569284" fill="#ff4444" opacity="0.35"/>
<rect x="747.25" y="439.77705780920434" width="9.0" height="40.22294219079565" fill="#ff4444" opacity="0.35"/>
<rect x="762.25" y="440.0236858957635" width="9.0" height="39.97631410423653" fill="#ff4444" opacity="0.35"/>
<rect x="777.25" y="436.921138053878" width="9.0" height="43.078861946122025" fill="#ff4444" opacity="0.35"/>
<rect x="792.25" y="439.779682153511" width="9.0" height="40.22031784648905" fill="#44aa44" opacity="0.35"/>
<rect x="807.25" y="440.7963839825409" width="9.0" height="39.20361601745912" fill="#ff4444" opacity="0.35"/>
<rect x="822.25" y="437.8392050926873" width="9.0" height="42.160794907312706" fill="#44aa44" opacity="0.35"/>
<rect x="837.25" y="439.2593002803497" width="9.0" height="40.740699719650294" fill="#44aa44" opacity="0.35"/>
<rect x="852.25" y="444.9607224897028" width="9.0" height="35.039277510297204" fill="#ff4444" opacity="0.35"/>
<rect x="867.25" y="445.29880554697024" width="9.0" height="34.70119445302977" fill="#ff4444" opacity="0.35"/>
<rect x="882.25" y="445.7056491720636" width="9.0" height="34.29435082793639" fill="#ff4444" opacity="0.35"/>
<rect x="897.25" y="438.7554292316604" width="9.0" height="41.24457076833958" fill="#44aa44" opacity="0.35"/>
<rect x="912.25" y="445.11650466546627" width="9.0" height="34.883495334533734" fill="#ff4444" opacity="0.35"/>
<rect x="927.25" y="443.9973511473629" width="9.0" height="36.00264885263712" fill="#ff4444" opacity="0.35"/>
<rect x="942.25" y="442.0455188104401" width="9.0" height="37.95448118955989" fill="#ff4444" opacity="0.35"/>
<rect x="957.25" y="442.1562443949366" width="9.0" height="37.84375560506338" fill="#44aa44" opacity="0.35"/>
<polyline points="77.5,175.22 92.5,178.49 107.5,207.67 122.5,233.59 137.5,241.42 152.5,240.38 167.5,247.30 182.5,237.99 197.5,229.36 212.5,228.40 227.5,236.26 242.5,242.02 257.5,259.80 272.5,264.56 287.5,286.48 302.5,311.64 317.5,363.31 332.5,380.44 347.5,376.77 362.5,386.80 377.5,384.81 392.5,383.05 407.5,393.80 422.5,385.96 437.5,393.14 452.5,407.84 467.5,413.15 482.5,382.58 497.5,367.91 512.5,348.06 527.5,332.84 542.5,311.53 557.5,301.28 572.5,282.13 587.5,267.27 602.5,250.72 617.5,240.02 632.5,224.37 647.5,221.71 662.5,224.53 677.5,222.77 692.5,228.76 707.5,221.00 722.5,213.83 737.5,191.29 752.5,166.53 767.5,150.16 782.5,124.69 797.5,111.71 812.5,91.37 827.5,97.09 842.5,111.21 857.5,121.21 872.5,120.86 887.5,120.76 902.5,143.23 917.5,142.25 932.5,130.02 947.5,125.80 962.5,135.74" fill="none" stroke="#ffd700" stroke-width="1" opacity="0.7"/>
<polyline points="77.5,175.22 92.5,177.00 107.5,193.19 122.5,209.96 137.5,218.53 152.5,222.12 167.5,229.22 182.5,227.42 197.5,224.64 212.5,224.98 227.5,229.89 242.5,234.18 257.5,245.31 272.5,250.54 287.5,265.05 302.5,282.67 317.5,316.12 332.5,334.04 347.5,340.48 362.5,352.55 377.5,357.69 392.5,361.66 407.5,371.41 422.5,371.21 437.5,377.80 452.5,388.61 467.5,395.00 482.5,381.63 497.5,373.80 512.5,361.90 527.5,351.08 542.5,336.14 557.5,326.08 572.5,311.13 587.5,297.75 602.5,283.18 617.5,271.44 632.5,257.19 647.5,249.77 662.5,246.21 677.5,241.31 692.5,241.20 707.5,234.71 722.5,228.30 737.5,213.38 752.5,195.86 767.5,181.60 782.5,161.99 797.5,148.13 812.5,130.41 827.5,126.43 842.5,128.80 857.5,131.06 872.5,129.07 887.5,127.53 902.5,138.55 917.5,138.87 932.5,132.81 947.5,130.00 962.5,134.66" fill="none" stroke="#ff6b6b" stroke-width="1" opacity="0.7"/>
<polyline points="77.5,175.22 92.5,176.15 107.5,184.71 122.5,194.31 137.5,200.28 152.5,203.90 167.5,209.35 182.5,210.31 197.5,210.48 212.5,212.00 227.5,215.81 242.5,219.40 257.5,226.64 272.5,231.16 287.5,240.60 302.5,252.16 317.5,272.59 332.5,286.12 347.5,294.05 362.5,304.80 377.5,312.04 392.5,318.47 407.5,327.69 422.5,331.75 437.5,338.96 452.5,348.32 467.5,355.50 482.5,352.26 497.5,350.96 512.5,346.90 527.5,342.66 542.5,335.64 557.5,330.41 572.5,322.17 587.5,314.11 602.5,304.92 617.5,296.70 632.5,286.83 647.5,280.12 662.5,275.37 677.5,270.02 692.5,267.23 707.5,261.35 722.5,255.46 737.5,245.06 752.5,232.86 767.5,221.87 782.5,207.76 797.5,196.14 812.5,182.29 827.5,175.26 842.5,171.85 857.5,168.93 872.5,164.29 887.5,160.12 902.5,162.80 917.5,160.65 932.5,155.40 947.5,151.78 962.5,152.15" fill="none" stroke="#4ecdc4" stroke-width="1" opacity="0.7"/>
<line x1="77.5" y1="174.37576205431367" x2="77.5" y2="203.1189631199743" stroke="#ff4444" stroke-width="0.5" opacity="0.6"/>
<rect x="73.75" y="175.2175950684025" width="7.5" height="27.48261009071723" fill="#ff4444" opacity="0.8" rx="1"/>
<line x1="92.5" y1="176.56021079856464" x2="92.5" y2="215.58240882086977" stroke="#ff4444" stroke-width="0.5" opacity="0.6"/>
<rect x="88.75" y="185.04761441753294" width="7.5" height="15.00621311268165" fill="#ff4444" opacity="0.8" rx="1"/>
<line x1="107.5" y1="177.751728295429" x2="107.5" y2="269.2179645492818" stroke="#44aa44" stroke-width="0.5" opacity="0.6"/>
<rect x="103.75" y="180.7952784232889" width="7.5" height="85.2409890419749" fill="#44aa44" opacity="0.8" rx="1"/>
<line x1="122.5" y1="255.7659046933794" x2="122.5" y2="299.2649275136854" stroke="#ff4444" stroke-width="0.5" opacity="0.6"/>
<rect x="118.75" y="285.4200122512083" width="7.5" height="12.515250809454699" fill="#ff4444" opacity="0.8" rx="1"/>
<line x1="137.5" y1="241.45474345386842" x2="137.5" y2="270.3878965842464" stroke="#44aa44" stroke-width="0.5" opacity="0.6"/>
<rect x="133.75" y="248.13328536564" width="7.5" height="8.95796668838176" fill="#44aa44" opacity="0.8" rx="1"/>
<line x1="152.5" y1="234.24519917936365" x2="152.5" y2="271.8600250858069" stroke="#ff4444" stroke-width="0.5" opacity="0.6"/>
<rect x="148.75" y="238.28168055461018" width="7.5" height="32.9350977665853" fill="#ff4444" opacity="0.8" rx="1"/>
<line x1="167.5" y1="254.15131214328082" x2="167.5" y2="314.81941135862" stroke="#ff4444" stroke-width="0.5" opacity="0.6"/>
<rect x="163.75" y="261.14068470640836" width="7.5" height="14.777407216545214" fill="#ff4444" opacity="0.8" rx="1"/>
<line x1="182.5" y1="218.82022810582703" x2="182.5" y2="241.51949983956743" stroke="#ff4444" stroke-width="0.5" opacity="0.6"/>
<rect x="178.75" y="219.36418174569997" width="7.5" height="22.155318093867464" fill="#ff4444" opacity="0.8" rx="1"/>
<line x1="197.5" y1="205.12641107664766" x2="197.5" y2="220.84494443202016" stroke="#ff4444" stroke-width="0.5" opacity="0.6"/>
<rect x="193.75" y="212.10283236263552" width="7.5" height="3.9156027886085667" fill="#ff4444" opacity="0.8" rx="1"/>
<line x1="212.5" y1="209.6377726136884" x2="212.5" y2="245.87976314331004" stroke="#44aa44" stroke-width="0.5" opacity="0.6"/>
<rect x="208.75" y="214.3908913240054" width="7.5" height="12.105127033360247" fill="#44aa44" opacity="0.8" rx="1"/>
<line x1="227.5" y1="219.21740060478183" x2="227.5" y2="257.9546705300104" stroke="#44aa44" stroke-width="0.5" opacity="0.6"/>
<rect x="223.75" y="238.03992338133355" width="7.5" height="13.935574202455996" fill="#44aa44" opacity="0.8" rx="1"/>
<line x1="242.5" y1="250.74512625550562" x2="242.5" y2="286.91804330704826" stroke="#44aa44" stroke-width="0.5" opacity="0.6"/>
<rect x="238.75" y="253.29221075967226" width="7.5" height="0.5" fill="#44aa44" opacity="0.8" rx="1"/>
<line x1="257.5" y1="240.4661292988615" x2="257.5" y2="295.3579589098369" stroke="#44aa44" stroke-width="0.5" opacity="0.6"/>
<rect x="253.75" y="247.64977101908644" width="7.5" height="47.70818789075045" fill="#44aa44" opacity="0.8" rx="1"/>
<line x1="272.5" y1="272.1104164438436" x2="272.5" y2="312.08237478973604" stroke="#ff4444" stroke-width="0.5" opacity="0.6"/>
<rect x="268.75" y="274.0962789386175" width="7.5" height="13.581572627300773" fill="#ff4444" opacity="0.8" rx="1"/>
<line x1="287.5" y1="298.1554347720402" x2="287.5" y2="339.32754479955673" stroke="#44aa44" stroke-width="0.5" opacity="0.6"/>
<rect x="283.75" y="305.3347593998851" width="7.5" height="24.987330695110245" fill="#44aa44" opacity="0.8" rx="1"/>
<line x1="302.5" y1="308.74957947242035" x2="302.5" y2="363.006796503544" stroke="#44aa44" stroke-width="0.5" opacity="0.6"/>
<rect x="298.75" y="319.3394070804205" width="7.5" height="42.62265306717728" fill="#44aa44" opacity="0.8" rx="1"/>
<line x1="317.5" y1="387.8516631501162" x2="317.5" y2="480.0" stroke="#44aa44" stroke-width="0.5" opacity="0.6"/>
<rect x="313.75" y="406.00071951539667" width="7.5" height="60.64219666105976" fill="#44aa44" opacity="0.8" rx="1"/>
<line x1="332.5" y1="414.69966066098215" x2="332.5" y2="478.2990656023026" stroke="#ff4444" stroke-width="0.5" opacity="0.6"/>
<rect x="328.75" y="414.69966066098215" width="7.5" height="17.812323159644563" fill="#ff4444" opacity="0.8" rx="1"/>
<line x1="347.5" y1="365.9683218761852" x2="347.5" y2="397.34926638599086" stroke="#ff4444" stroke-width="0.5" opacity="0.6"/>
<rect x="343.75" y="369.42631287251925" width="7.5" height="27.92295351347161" fill="#ff4444" opacity="0.8" rx="1"/>
<line x1="362.5" y1="364.8760975040593" x2="362.5" y2="413.32250819178006" stroke="#44aa44" stroke-width="0.5" opacity="0.6"/>
<rect x="358.75" y="374.7320194074692" width="7.5" height="32.12780149153605" fill="#44aa44" opacity="0.8" rx="1"/>
<line x1="377.5" y1="370.2163407780488" x2="377.5" y2="438.0983013602732" stroke="#ff4444" stroke-width="0.5" opacity="0.6"/>
<rect x="373.75" y="380.81911966318904" width="7.5" height="56.821569904810076" fill="#ff4444" opacity="0.8" rx="1"/>
<line x1="392.5" y1="378.3799624685214" x2="392.5" y2="417.5403074469846" stroke="#ff4444" stroke-width="0.5" opacity="0.6"/>
<rect x="388.75" y="379.52399194920616" width="7.5" height="26.80482658706626" fill="#ff4444" opacity="0.8" rx="1"/>
<line x1="407.5" y1="365.2603187258744" x2="407.5" y2="415.2997365017939" stroke="#44aa44" stroke-width="0.5" opacity="0.6"/>
<rect x="403.75" y="382.5114198761267" width="7.5" height="32.78831662566722" fill="#44aa44" opacity="0.8" rx="1"/>
<line x1="422.5" y1="365.70929633338847" x2="422.5" y2="388.90935078320217" stroke="#ff4444" stroke-width="0.5" opacity="0.6"/>
<rect x="418.75" y="370.29836553326794" width="7.5" height="2.158546189971503" fill="#ff4444" opacity="0.8" rx="1"/>
<line x1="437.5" y1="372.9922311783523" x2="437.5" y2="420.26007564634835" stroke="#44aa44" stroke-width="0.5" opacity="0.6"/>
<rect x="433.75" y="378.09503437144485" width="7.5" height="29.390764922652465" fill="#44aa44" opacity="0.8" rx="1"/>
<line x1="452.5" y1="397.5780722821278" x2="452.5" y2="440.30865265880396" stroke="#44aa44" stroke-width="0.5" opacity="0.6"/>
<rect x="448.75" y="398.9422734741901" width="7.5" height="38.30987777961428" fill="#44aa44" opacity="0.8" rx="1"/>
<line x1="467.5" y1="414.33702490106685" x2="467.5" y2="437.97742277363454" stroke="#ff4444" stroke-width="0.5" opacity="0.6"/>
<rect x="463.75" y="423.7569204741024" width="7.5" height="8.595330928466524" fill="#ff4444" opacity="0.8" rx="1"/>
<line x1="482.5" y1="321.4418310694527" x2="482.5" y2="376.08326932239146" stroke="#ff4444" stroke-width="0.5" opacity="0.6"/>
<rect x="478.75" y="321.4418310694527" width="7.5" height="54.490340019640996" fill="#ff4444" opacity="0.8" rx="1"/>
<line x1="497.5" y1="328.31895923070203" x2="497.5" y2="347.8278996956644" stroke="#ff4444" stroke-width="0.5" opacity="0.6"/>
<rect x="493.75" y="338.58068781782646" width="7.5" height="4.235067624724252" fill="#ff4444" opacity="0.8" rx="1"/>
<line x1="512.5" y1="292.2928233200772" x2="512.5" y2="322.6549340282168" stroke="#ff4444" stroke-width="0.5" opacity="0.6"/>
<rect x="508.75" y="308.3567240658452" width="7.5" height="12.731105428452281" fill="#ff4444" opacity="0.8" rx="1"/>
<line x1="527.5" y1="298.7684618899918" x2="527.5" y2="322.22322479022256" stroke="#ff4444" stroke-width="0.5" opacity="0.6"/>
<rect x="523.75" y="302.4077707662838" width="7.5" height="19.81545402393874" fill="#ff4444" opacity="0.8" rx="1"/>
<line x1="542.5" y1="268.9114509903058" x2="542.5" y2="296.76964811807846" stroke="#ff4444" stroke-width="0.5" opacity="0.6"/>
<rect x="538.75" y="268.9114509903058" width="7.5" height="15.114140422180697" fill="#ff4444" opacity="0.8" rx="1"/>
<line x1="557.5" y1="254.23333689849954" x2="557.5" y2="287.90234036967547" stroke="#44aa44" stroke-width="0.5" opacity="0.6"/>
<rect x="553.75" y="254.87226657073134" width="7.5" height="25.898237187278113" fill="#44aa44" opacity="0.8" rx="1"/>
<line x1="572.5" y1="242.25340554415766" x2="572.5" y2="278.90120275749416" stroke="#ff4444" stroke-width="0.5" opacity="0.6"/>
<rect x="568.75" y="243.84641263235685" width="7.5" height="31.950800703958436" fill="#ff4444" opacity="0.8" rx="1"/>
<line x1="587.5" y1="232.01326241893307" x2="587.5" y2="253.27925948253213" stroke="#ff4444" stroke-width="0.5" opacity="0.6"/>
<rect x="583.75" y="237.5348235728802" width="7.5" height="11.401440975429438" fill="#ff4444" opacity="0.8" rx="1"/>
<line x1="602.5" y1="215.254309799994" x2="602.5" y2="239.10192810679956" stroke="#ff4444" stroke-width="0.5" opacity="0.6"/>
<rect x="598.75" y="217.63302770134268" width="7.5" height="19.58233103542142" fill="#ff4444" opacity="0.8" rx="1"/>
<line x1="617.5" y1="216.36380254163964" x2="617.5" y2="243.33699573152344" stroke="#ff4444" stroke-width="0.5" opacity="0.6"/>
<rect x="613.75" y="218.62595894872968" width="7.5" height="5.517244061567084" fill="#ff4444" opacity="0.8" rx="1"/>
<line x1="632.5" y1="192.59389189767316" x2="632.5" y2="229.8892529680011" stroke="#ff4444" stroke-width="0.5" opacity="0.6"/>
<rect x="628.75" y="193.0730891518467" width="7.5" height="36.816163816154415" fill="#ff4444" opacity="0.8" rx="1"/>
<line x1="647.5" y1="185.83332523068245" x2="647.5" y2="233.32565850243574" stroke="#44aa44" stroke-width="0.5" opacity="0.6"/>
<rect x="643.75" y="187.97028595875415" width="7.5" height="28.415102044784874" fill="#44aa44" opacity="0.8" rx="1"/>
<line x1="662.5" y1="216.77824341011416" x2="662.5" y2="248.11601699612027" stroke="#44aa44" stroke-width="0.5" opacity="0.6"/>
<rect x="658.75" y="228.34805098836114" width="7.5" height="1.8218129843361055" fill="#44aa44" opacity="0.8" rx="1"/>
<line x1="677.5" y1="212.86695771388563" x2="677.5" y2="239.879004735189" stroke="#ff4444" stroke-width="0.5" opacity="0.6"/>
<rect x="673.75" y="219.25625443620137" width="7.5" height="11.487782823028255" fill="#ff4444" opacity="0.8" rx="1"/>
<line x1="692.5" y1="223.49132206092526" x2="692.5" y2="250.44292978890968" stroke="#44aa44" stroke-width="0.5" opacity="0.6"/>
<rect x="688.75" y="228.10197672270453" width="7.5" height="12.627495211333354" fill="#44aa44" opacity="0.8" rx="1"/>
<line x1="707.5" y1="201.3273697822981" x2="707.5" y2="255.7011483076804" stroke="#ff4444" stroke-width="0.5" opacity="0.6"/>
<rect x="703.75" y="205.48041265180325" width="7.5" height="50.112808346378586" fill="#ff4444" opacity="0.8" rx="1"/>
<line x1="722.5" y1="193.59977442219986" x2="722.5" y2="209.04201386525625" stroke="#ff4444" stroke-width="0.5" opacity="0.6"/>
<rect x="718.75" y="199.4796542436822" width="7.5" height="3.0478672202399366" fill="#ff4444" opacity="0.8" rx="1"/>
<line x1="737.5" y1="137.46893929818083" x2="737.5" y2="174.3239569457544" stroke="#ff4444" stroke-width="0.5" opacity="0.6"/>
<rect x="733.75" y="146.23263682946487" width="7.5" height="26.269507131953446" fill="#ff4444" opacity="0.8" rx="1"/>
<line x1="752.5" y1="116.66918821161522" x2="752.5" y2="143.90572403667582" stroke="#ff4444" stroke-width="0.5" opacity="0.6"/>
<rect x="748.75" y="116.99297014011094" width="7.5" height="18.766400575612437" fill="#ff4444" opacity="0.8" rx="1"/>
<line x1="767.5" y1="113.88466362655204" x2="767.5" y2="136.73071650121057" stroke="#ff4444" stroke-width="0.5" opacity="0.6"/>
<rect x="763.75" y="117.4203622857252" width="7.5" height="16.01209563720876" fill="#ff4444" opacity="0.8" rx="1"/>
<line x1="782.5" y1="71.09796104893647" x2="782.5" y2="107.39175668711775" stroke="#ff4444" stroke-width="0.5" opacity="0.6"/>
<rect x="778.75" y="73.7572899549817" width="7.5" height="23.23027409647321" fill="#ff4444" opacity="0.8" rx="1"/>
<line x1="797.5" y1="68.44726632765172" x2="797.5" y2="101.61980417513398" stroke="#44aa44" stroke-width="0.5" opacity="0.6"/>
<rect x="793.75" y="68.44726632765172" width="7.5" height="17.294272074051534" fill="#44aa44" opacity="0.8" rx="1"/>
<line x1="812.5" y1="49.46932822542216" x2="812.5" y2="102.2630509397454" stroke="#ff4444" stroke-width="0.5" opacity="0.6"/>
<rect x="808.75" y="50.70833373846576" width="7.5" height="51.55471720127964" fill="#ff4444" opacity="0.8" rx="1"/>
<line x1="827.5" y1="36.0" x2="827.5" y2="108.52283489066278" stroke="#44aa44" stroke-width="0.5" opacity="0.6"/>
<rect x="823.75" y="37.18720040448433" width="7.5" height="71.33563448617845" fill="#44aa44" opacity="0.8" rx="1"/>
<line x1="842.5" y1="91.57393020700637" x2="842.5" y2="158.08737250478845" stroke="#44aa44" stroke-width="0.5" opacity="0.6"/>
<rect x="838.75" y="108.63507929254139" width="7.5" height="30.802454130893253" fill="#44aa44" opacity="0.8" rx="1"/>
<line x1="857.5" y1="124.65149202212977" x2="857.5" y2="160.20274777096074" stroke="#ff4444" stroke-width="0.5" opacity="0.6"/>
<rect x="853.75" y="141.22049257635115" width="7.5" height="10.831584781277115" fill="#ff4444" opacity="0.8" rx="1"/>
<line x1="872.5" y1="119.47529825857819" x2="872.5" y2="174.86791058562693" stroke="#ff4444" stroke-width="0.5" opacity="0.6"/>
<rect x="868.75" y="120.14444757746944" width="7.5" height="28.950421499897715" fill="#ff4444" opacity="0.8" rx="1"/>
<line x1="887.5" y1="114.95098544439769" x2="887.5" y2="143.11137903876624" stroke="#ff4444" stroke-width="0.5" opacity="0.6"/>
<rect x="883.75" y="120.56320553832363" width="7.5" height="13.076472818847392" fill="#ff4444" opacity="0.8" rx="1"/>
<line x1="902.5" y1="81.15678629420381" x2="902.5" y2="190.98793353233424" stroke="#44aa44" stroke-width="0.5" opacity="0.6"/>
<rect x="898.75" y="104.11508357074094" width="7.5" height="84.0624228222507" fill="#44aa44" opacity="0.8" rx="1"/>
<line x1="917.5" y1="135.32766147772907" x2="917.5" y2="185.496592025047" stroke="#ff4444" stroke-width="0.5" opacity="0.6"/>
<rect x="913.75" y="140.28800062228353" width="7.5" height="28.203564518167752" fill="#ff4444" opacity="0.8" rx="1"/>
<line x1="932.5" y1="105.08211226384807" x2="932.5" y2="144.65258101840578" stroke="#ff4444" stroke-width="0.5" opacity="0.6"/>
<rect x="928.75" y="105.5483582408819" width="7.5" height="18.472838293776192" fill="#ff4444" opacity="0.8" rx="1"/>
<line x1="947.5" y1="114.52359329878342" x2="947.5" y2="153.02342314311545" stroke="#ff4444" stroke-width="0.5" opacity="0.6"/>
<rect x="943.75" y="117.37719136192602" width="7.5" height="1.2001516816240496" fill="#ff4444" opacity="0.8" rx="1"/>
<line x1="962.5" y1="105.73831030559961" x2="962.5" y2="168.51315060235106" stroke="#44aa44" stroke-width="0.5" opacity="0.6"/>
<rect x="958.75" y="120.80927980398064" width="7.5" height="34.81735004424036" fill="#44aa44" opacity="0.8" rx="1"/>
<rect x="162.5" y="309.81941135862" width="10" height="10" fill="#ff9800" opacity="0.85"/>
<text x="167.5" y="306.81941135862" text-anchor="middle" font-family="sans-serif" font-size="9" fill="#ff9800">前低</text>
<rect x="282.5" y="334.32754479955673" width="10" height="10" fill="#ff9800" opacity="0.85"/>
<text x="287.5" y="331.32754479955673" text-anchor="middle" font-family="sans-serif" font-size="9" fill="#ff9800">前低</text>
<rect x="297.5" y="358.006796503544" width="10" height="10" fill="#ff9800" opacity="0.85"/>
<text x="302.5" y="355.006796503544" text-anchor="middle" font-family="sans-serif" font-size="9" fill="#ff9800">前低</text>
<rect x="312.5" y="475.0" width="10" height="10" fill="#ff9800" opacity="0.85"/>
<text x="317.5" y="472.0" text-anchor="middle" font-family="sans-serif" font-size="9" fill="#ff9800">前低</text>
<rect x="477.5" y="316.4418310694527" width="10" height="10" fill="#ff9800" opacity="0.85"/>
<text x="482.5" y="313.4418310694527" text-anchor="middle" font-family="sans-serif" font-size="9" fill="#ff9800">前高</text>
<rect x="477.5" y="316.4418310694527" width="10" height="10" fill="#2196f3" opacity="0.85"/>
<text x="482.5" y="313.4418310694527" text-anchor="middle" font-family="sans-serif" font-size="9" fill="#2196f3">突</text>
<rect x="507.5" y="287.2928233200772" width="10" height="10" fill="#ff9800" opacity="0.85"/>
<text x="512.5" y="284.2928233200772" text-anchor="middle" font-family="sans-serif" font-size="9" fill="#ff9800">前高</text>
<rect x="507.5" y="287.2928233200772" width="10" height="10" fill="#2196f3" opacity="0.85"/>
<text x="512.5" y="284.2928233200772" text-anchor="middle" font-family="sans-serif" font-size="9" fill="#2196f3">突</text>
<rect x="537.5" y="263.9114509903058" width="10" height="10" fill="#ff9800" opacity="0.85"/>
<text x="542.5" y="260.9114509903058" text-anchor="middle" font-family="sans-serif" font-size="9" fill="#ff9800">前高</text>
<rect x="537.5" y="263.9114509903058" width="10" height="10" fill="#2196f3" opacity="0.85"/>
<text x="542.5" y="260.9114509903058" text-anchor="middle" font-family="sans-serif" font-size="9" fill="#2196f3">突</text>
<rect x="552.5" y="249.23333689849954" width="10" height="10" fill="#ff9800" opacity="0.85"/>
<text x="557.5" y="246.23333689849954" text-anchor="middle" font-family="sans-serif" font-size="9" fill="#ff9800">前高</text>
<rect x="567.5" y="237.25340554415766" width="10" height="10" fill="#ff9800" opacity="0.85"/>
<text x="572.5" y="234.25340554415766" text-anchor="middle" font-family="sans-serif" font-size="9" fill="#ff9800">前高</text>
<rect x="567.5" y="237.25340554415766" width="10" height="10" fill="#2196f3" opacity="0.85"/>
<text x="572.5" y="234.25340554415766" text-anchor="middle" font-family="sans-serif" font-size="9" fill="#2196f3">突</text>
<rect x="582.5" y="227.01326241893307" width="10" height="10" fill="#ff9800" opacity="0.85"/>
<text x="587.5" y="224.01326241893307" text-anchor="middle" font-family="sans-serif" font-size="9" fill="#ff9800">前高</text>
<rect x="582.5" y="227.01326241893307" width="10" height="10" fill="#2196f3" opacity="0.85"/>
<text x="587.5" y="224.01326241893307" text-anchor="middle" font-family="sans-serif" font-size="9" fill="#2196f3">突</text>
<rect x="597.5" y="210.254309799994" width="10" height="10" fill="#ff9800" opacity="0.85"/>
<text x="602.5" y="207.254309799994" text-anchor="middle" font-family="sans-serif" font-size="9" fill="#ff9800">前高</text>
<rect x="597.5" y="210.254309799994" width="10" height="10" fill="#2196f3" opacity="0.85"/>
<text x="602.5" y="207.254309799994" text-anchor="middle" font-family="sans-serif" font-size="9" fill="#2196f3">突</text>
<rect x="627.5" y="187.59389189767316" width="10" height="10" fill="#ff9800" opacity="0.85"/>
<text x="632.5" y="184.59389189767316" text-anchor="middle" font-family="sans-serif" font-size="9" fill="#ff9800">前高</text>
<rect x="627.5" y="187.59389189767316" width="10" height="10" fill="#2196f3" opacity="0.85"/>
<text x="632.5" y="184.59389189767316" text-anchor="middle" font-family="sans-serif" font-size="9" fill="#2196f3">突</text>
<rect x="642.5" y="180.83332523068245" width="10" height="10" fill="#ff9800" opacity="0.85"/>
<text x="647.5" y="177.83332523068245" text-anchor="middle" font-family="sans-serif" font-size="9" fill="#ff9800">前高</text>
<rect x="672.5" y="234.879004735189" width="10" height="10" fill="#2196f3" opacity="0.85"/>
<text x="677.5" y="231.879004735189" text-anchor="middle" font-family="sans-serif" font-size="9" fill="#2196f3">反</text>
<rect x="702.5" y="250.7011483076804" width="10" height="10" fill="#2196f3" opacity="0.85"/>
<text x="707.5" y="247.7011483076804" text-anchor="middle" font-family="sans-serif" font-size="9" fill="#2196f3">反</text>
<rect x="732.5" y="132.46893929818083" width="10" height="10" fill="#ff9800" opacity="0.85"/>
<text x="737.5" y="129.46893929818083" text-anchor="middle" font-family="sans-serif" font-size="9" fill="#ff9800">前高</text>
<rect x="732.5" y="132.46893929818083" width="10" height="10" fill="#2196f3" opacity="0.85"/>
<text x="737.5" y="129.46893929818083" text-anchor="middle" font-family="sans-serif" font-size="9" fill="#2196f3">突</text>
<rect x="747.5" y="111.66918821161522" width="10" height="10" fill="#ff9800" opacity="0.85"/>
<text x="752.5" y="108.66918821161522" text-anchor="middle" font-family="sans-serif" font-size="9" fill="#ff9800">前高</text>
<rect x="747.5" y="111.66918821161522" width="10" height="10" fill="#2196f3" opacity="0.85"/>
<text x="752.5" y="108.66918821161522" text-anchor="middle" font-family="sans-serif" font-size="9" fill="#2196f3">突</text>
<rect x="762.5" y="108.88466362655204" width="10" height="10" fill="#ff9800" opacity="0.85"/>
<text x="767.5" y="105.88466362655204" text-anchor="middle" font-family="sans-serif" font-size="9" fill="#ff9800">前高</text>
<rect x="777.5" y="66.09796104893647" width="10" height="10" fill="#ff9800" opacity="0.85"/>
<text x="782.5" y="63.09796104893647" text-anchor="middle" font-family="sans-serif" font-size="9" fill="#ff9800">前高</text>
<rect x="777.5" y="66.09796104893647" width="10" height="10" fill="#2196f3" opacity="0.85"/>
<text x="782.5" y="63.09796104893647" text-anchor="middle" font-family="sans-serif" font-size="9" fill="#2196f3">突</text>
<rect x="792.5" y="63.44726632765172" width="10" height="10" fill="#ff9800" opacity="0.85"/>
<text x="797.5" y="60.44726632765172" text-anchor="middle" font-family="sans-serif" font-size="9" fill="#ff9800">前高</text>
<rect x="807.5" y="44.46932822542216" width="10" height="10" fill="#ff9800" opacity="0.85"/>
<text x="812.5" y="41.46932822542216" text-anchor="middle" font-family="sans-serif" font-size="9" fill="#ff9800">前高</text>
<rect x="807.5" y="44.46932822542216" width="10" height="10" fill="#2196f3" opacity="0.85"/>
<text x="812.5" y="41.46932822542216" text-anchor="middle" font-family="sans-serif" font-size="9" fill="#2196f3">突</text>
<rect x="807.5" y="97.2630509397454" width="10" height="10" fill="#2196f3" opacity="0.85"/>
<text x="812.5" y="94.2630509397454" text-anchor="middle" font-family="sans-serif" font-size="9" fill="#2196f3">反</text>
<rect x="822.5" y="31.0" width="10" height="10" fill="#ff9800" opacity="0.85"/>
<text x="827.5" y="28.0" text-anchor="middle" font-family="sans-serif" font-size="9" fill="#ff9800">前高</text>
<rect x="897.5" y="185.98793353233424" width="10" height="10" fill="#ff9800" opacity="0.85"/>
<text x="902.5" y="182.98793353233424" text-anchor="middle" font-family="sans-serif" font-size="9" fill="#ff9800">前低</text>
<line x1="70" y1="192.59389189767316" x2="970" y2="192.59389189767316" stroke="#4caf50" stroke-width="1.5" stroke-dasharray="6,3" opacity="0.7"/>
<text x="74" y="188.59389189767316" font-family="sans-serif" font-size="10" fill="#4caf50" font-weight="bold">支撑 6358</text>
<line x1="70" y1="36.0" x2="970" y2="36.0" stroke="#f44336" stroke-width="1.5" stroke-dasharray="6,3" opacity="0.7"/>
<text x="74" y="32.0" font-family="sans-serif" font-size="10" fill="#f44336" font-weight="bold">压力 6721</text>
<text x="77.5" y="496" text-anchor="middle" font-family="sans-serif" font-size="9" fill="#666666" transform="rotate(-45,77.5,496)">02/27</text>
<text x="182.5" y="496" text-anchor="middle" font-family="sans-serif" font-size="9" fill="#666666" transform="rotate(-45,182.5,496)">03/10</text>
<text x="287.5" y="496" text-anchor="middle" font-family="sans-serif" font-size="9" fill="#666666" transform="rotate(-45,287.5,496)">03/19</text>
<text x="392.5" y="496" text-anchor="middle" font-family="sans-serif" font-size="9" fill="#666666" transform="rotate(-45,392.5,496)">03/30</text>
<text x="497.5" y="496" text-anchor="middle" font-family="sans-serif" font-size="9" fill="#666666" transform="rotate(-45,497.5,496)">04/09</text>
<text x="602.5" y="496" text-anchor="middle" font-family="sans-serif" font-size="9" fill="#666666" transform="rotate(-45,602.5,496)">04/20</text>
<text x="707.5" y="496" text-anchor="middle" font-family="sans-serif" font-size="9" fill="#666666" transform="rotate(-45,707.5,496)">04/29</text>
<text x="812.5" y="496" text-anchor="middle" font-family="sans-serif" font-size="9" fill="#666666" transform="rotate(-45,812.5,496)">05/13</text>
<text x="917.5" y="496" text-anchor="middle" font-family="sans-serif" font-size="9" fill="#666666" transform="rotate(-45,917.5,496)">05/22</text>
<text x="962.5" y="496" text-anchor="middle" font-family="sans-serif" font-size="9" fill="#666666" transform="rotate(-45,962.5,496)">05/27</text>
<rect x="80" y="490" width="10" height="10" fill="#ff9800" opacity="0.8" rx="1"/>
<text x="94" y="499" font-family="sans-serif" font-size="11" fill="#888888">第1类参考点</text>
<rect x="240" y="490" width="10" height="10" fill="#2196f3" opacity="0.8" rx="1"/>
<text x="254" y="499" font-family="sans-serif" font-size="11" fill="#888888">第2类供需改变</text>
<rect x="400" y="490" width="10" height="10" fill="#ffd700" opacity="0.8" rx="1"/>
<text x="414" y="499" font-family="sans-serif" font-size="11" fill="#888888">EMA5</text>
<rect x="560" y="490" width="10" height="10" fill="#ff6b6b" opacity="0.8" rx="1"/>
<text x="574" y="499" font-family="sans-serif" font-size="11" fill="#888888">EMA10</text>
<rect x="720" y="490" width="10" height="10" fill="#4ecdc4" opacity="0.8" rx="1"/>
<text x="734" y="499" font-family="sans-serif" font-size="11" fill="#888888">EMA20</text>
<text x="500.0" y="542" text-anchor="middle" font-family="sans-serif" font-size="9" fill="#555">数据截至: 2026-05-27 (已收盘)</text>
</svg>