<svg xmlns="http://www.w3.org/2000/svg" width="750" height="540" viewBox="0 0 750 540">
<rect width="750" height="540" fill="#1a1a2e"/>
<text x="375.0" y="22" text-anchor="middle" font-family="sans-serif" font-size="15" fill="#ffffff" font-weight="bold">兴森科技(002436) 趋势交易分析图</text>
<text x="60" y="31" font-family="sans-serif" font-size="10" fill="#888888">最新: 37.02</text>
<line x1="60" y1="75.55398129649734" x2="725" y2="75.55398129649734" stroke="#4ecdc4" stroke-width="0.5" stroke-dasharray="4,3" opacity="0.4"/>
<text x="62" y="73.55398129649734" font-family="sans-serif" font-size="7" fill="#4ecdc4" opacity="0.6">买入↑2%</text>
<line x1="60" y1="33.59813303741775" x2="725" y2="33.59813303741775" stroke="#e94560" stroke-width="0.5" stroke-dasharray="4,3" opacity="0.4"/>
<text x="62" y="31.598133037417753" font-family="sans-serif" font-size="7" fill="#e94560" opacity="0.6">警戒↑8%</text>
<rect x="60" y="75.55398129649734" width="3" height="307.44601870350266" fill="#4ecdc4" opacity="0.3" rx="1"/>
<rect x="60" y="33.59813303741775" width="3" height="349.40186696258223" fill="#e94560" opacity="0.3" rx="1"/>
<rect x="60" y="33.59813303741775" width="3" height="41.95584825907959" fill="#ffd700" opacity="0.2" rx="1"/>
<line x1="60" y1="32.0" x2="725" y2="32.0" stroke="#2a2a4e" stroke-width="0.5"/>
<text x="56" y="35.0" text-anchor="end" font-family="sans-serif" font-size="8" fill="#666666">39.5</text>
<line x1="60" y1="127.75000000000004" x2="725" y2="127.75000000000004" stroke="#2a2a4e" stroke-width="0.5"/>
<text x="56" y="130.75000000000006" text-anchor="end" font-family="sans-serif" font-size="8" fill="#666666">34.5</text>
<line x1="60" y1="223.49999999999997" x2="725" y2="223.49999999999997" stroke="#2a2a4e" stroke-width="0.5"/>
<text x="56" y="226.49999999999997" text-anchor="end" font-family="sans-serif" font-size="8" fill="#666666">29.5</text>
<line x1="60" y1="319.25" x2="725" y2="319.25" stroke="#2a2a4e" stroke-width="0.5"/>
<text x="56" y="322.25" text-anchor="end" font-family="sans-serif" font-size="8" fill="#666666">24.5</text>
<line x1="60" y1="415.0" x2="725" y2="415.0" stroke="#2a2a4e" stroke-width="0.5"/>
<text x="56" y="418.0" text-anchor="end" font-family="sans-serif" font-size="8" fill="#666666">19.5</text>
<rect x="61.66250000000001" y="457.7447888865165" width="6.095833333333334" height="17.255211113483508" fill="#44aa44" opacity="0.35"/>
<rect x="72.74583333333334" y="455.43829383587655" width="6.095833333333334" height="19.561706164123443" fill="#ff4444" opacity="0.35"/>
<rect x="83.82916666666668" y="455.56561551102845" width="6.095833333333334" height="19.434384488971574" fill="#44aa44" opacity="0.35"/>
<rect x="94.91250000000001" y="457.70641266339624" width="6.095833333333334" height="17.29358733660374" fill="#ff4444" opacity="0.35"/>
<rect x="105.99583333333335" y="459.2152411587943" width="6.095833333333334" height="15.784758841205699" fill="#44aa44" opacity="0.35"/>
<rect x="117.07916666666668" y="462.90522828660784" width="6.095833333333334" height="12.094771713392149" fill="#44aa44" opacity="0.35"/>
<rect x="128.1625" y="452.2916484361737" width="6.095833333333334" height="22.70835156382627" fill="#44aa44" opacity="0.35"/>
<rect x="139.24583333333334" y="462.41942639139495" width="6.095833333333334" height="12.580573608605025" fill="#ff4444" opacity="0.35"/>
<rect x="150.32916666666668" y="465.14630572186627" width="6.095833333333334" height="9.853694278133734" fill="#44aa44" opacity="0.35"/>
<rect x="161.4125" y="465.15003596511644" width="6.095833333333334" height="9.849964034883538" fill="#44aa44" opacity="0.35"/>
<rect x="172.49583333333334" y="461.11945323397276" width="6.095833333333334" height="13.880546766027228" fill="#ff4444" opacity="0.35"/>
<rect x="183.57916666666668" y="462.1453718101742" width="6.095833333333334" height="12.854628189825808" fill="#ff4444" opacity="0.35"/>
<rect x="194.6625" y="460.3258798546344" width="6.095833333333334" height="14.674120145365576" fill="#44aa44" opacity="0.35"/>
<rect x="205.74583333333334" y="464.4423681322816" width="6.095833333333334" height="10.557631867718376" fill="#ff4444" opacity="0.35"/>
<rect x="216.82916666666668" y="465.71605669624967" width="6.095833333333334" height="9.283943303750348" fill="#44aa44" opacity="0.35"/>
<rect x="227.9125" y="464.86196513921385" width="6.095833333333334" height="10.138034860786123" fill="#44aa44" opacity="0.35"/>
<rect x="238.99583333333334" y="464.42561595731087" width="6.095833333333334" height="10.574384042689106" fill="#44aa44" opacity="0.35"/>
<rect x="250.07916666666668" y="466.30046969041996" width="6.095833333333334" height="8.699530309580021" fill="#ff4444" opacity="0.35"/>
<rect x="261.1625" y="467.3830304154627" width="6.095833333333334" height="7.616969584537275" fill="#ff4444" opacity="0.35"/>
<rect x="272.2458333333334" y="468.19565469637917" width="6.095833333333334" height="6.804345303620839" fill="#44aa44" opacity="0.35"/>
<rect x="283.3291666666667" y="469.6119318430416" width="6.095833333333334" height="5.388068156958418" fill="#ff4444" opacity="0.35"/>
<rect x="294.4125" y="469.09410152401085" width="6.095833333333334" height="5.905898475989129" fill="#ff4444" opacity="0.35"/>
<rect x="305.4958333333334" y="467.82956391639993" width="6.095833333333334" height="7.170436083600082" fill="#44aa44" opacity="0.35"/>
<rect x="316.5791666666667" y="468.61082729393564" width="6.095833333333334" height="6.389172706064366" fill="#ff4444" opacity="0.35"/>
<rect x="327.6625" y="467.14728789331923" width="6.095833333333334" height="7.852712106680761" fill="#44aa44" opacity="0.35"/>
<rect x="338.7458333333334" y="469.5040655020153" width="6.095833333333334" height="5.495934497984728" fill="#44aa44" opacity="0.35"/>
<rect x="349.8291666666667" y="467.2151190874136" width="6.095833333333334" height="7.784880912586391" fill="#ff4444" opacity="0.35"/>
<rect x="360.9125" y="462.6781247867032" width="6.095833333333334" height="12.321875213296767" fill="#ff4444" opacity="0.35"/>
<rect x="371.9958333333334" y="462.95998839228054" width="6.095833333333334" height="12.040011607719462" fill="#ff4444" opacity="0.35"/>
<rect x="383.0791666666667" y="458.4974222374678" width="6.095833333333334" height="16.502577762532223" fill="#ff4444" opacity="0.35"/>
<rect x="394.1625" y="443.7263007602553" width="6.095833333333334" height="31.273699239744694" fill="#ff4444" opacity="0.35"/>
<rect x="405.2458333333334" y="440.0292955562517" width="6.095833333333334" height="34.97070444374828" fill="#ff4444" opacity="0.35"/>
<rect x="416.3291666666667" y="455.76007666432736" width="6.095833333333334" height="19.23992333567267" fill="#44aa44" opacity="0.35"/>
<rect x="427.4125" y="460.8166900673274" width="6.095833333333334" height="14.183309932672602" fill="#ff4444" opacity="0.35"/>
<rect x="438.4958333333334" y="453.0466155819086" width="6.095833333333334" height="21.953384418091414" fill="#ff4444" opacity="0.35"/>
<rect x="449.5791666666667" y="455.42008671443347" width="6.095833333333334" height="19.579913285566526" fill="#44aa44" opacity="0.35"/>
<rect x="460.6625" y="450.2863228643634" width="6.095833333333334" height="24.713677135636615" fill="#ff4444" opacity="0.35"/>
<rect x="471.7458333333334" y="449.2547541771164" width="6.095833333333334" height="25.745245822883618" fill="#44aa44" opacity="0.35"/>
<rect x="482.8291666666667" y="456.9775466540191" width="6.095833333333334" height="18.02245334598092" fill="#44aa44" opacity="0.35"/>
<rect x="493.9125" y="451.0574787972075" width="6.095833333333334" height="23.942521202792506" fill="#ff4444" opacity="0.35"/>
<rect x="504.9958333333334" y="444.5974265690329" width="6.095833333333334" height="30.402573430967102" fill="#ff4444" opacity="0.35"/>
<rect x="516.0791666666667" y="452.1719512563289" width="6.095833333333334" height="22.828048743671104" fill="#44aa44" opacity="0.35"/>
<rect x="527.1624999999999" y="458.4910160932958" width="6.095833333333334" height="16.508983906704213" fill="#44aa44" opacity="0.35"/>
<rect x="538.2458333333333" y="453.83012148508806" width="6.095833333333334" height="21.16987851491196" fill="#ff4444" opacity="0.35"/>
<rect x="549.3291666666667" y="442.72817409654056" width="6.095833333333334" height="32.27182590345947" fill="#44aa44" opacity="0.35"/>
<rect x="560.4124999999999" y="447.5371671257834" width="6.095833333333334" height="27.4628328742166" fill="#ff4444" opacity="0.35"/>
<rect x="571.4958333333333" y="453.26302497256677" width="6.095833333333334" height="21.736975027433246" fill="#44aa44" opacity="0.35"/>
<rect x="582.5791666666667" y="452.0239908109565" width="6.095833333333334" height="22.976009189043506" fill="#44aa44" opacity="0.35"/>
<rect x="593.6624999999999" y="453.3993910213218" width="6.095833333333334" height="21.6006089786782" fill="#44aa44" opacity="0.35"/>
<rect x="604.7458333333333" y="451.3418654738382" width="6.095833333333334" height="23.65813452616178" fill="#ff4444" opacity="0.35"/>
<rect x="615.8291666666667" y="454.2266025915885" width="6.095833333333334" height="20.773397408411462" fill="#44aa44" opacity="0.35"/>
<rect x="626.9124999999999" y="454.01360920881996" width="6.095833333333334" height="20.98639079118006" fill="#44aa44" opacity="0.35"/>
<rect x="637.9958333333333" y="452.95462915239585" width="6.095833333333334" height="22.04537084760416" fill="#ff4444" opacity="0.35"/>
<rect x="649.0791666666667" y="456.3619075162718" width="6.095833333333334" height="18.63809248372819" fill="#ff4444" opacity="0.35"/>
<rect x="660.1624999999999" y="454.9323050751942" width="6.095833333333334" height="20.067694924805778" fill="#ff4444" opacity="0.35"/>
<rect x="671.2458333333333" y="440.0" width="6.095833333333334" height="35.0" fill="#44aa44" opacity="0.35"/>
<rect x="682.3291666666667" y="446.05633528589203" width="6.095833333333334" height="28.94366471410795" fill="#44aa44" opacity="0.35"/>
<rect x="693.4124999999999" y="444.5459994714615" width="6.095833333333334" height="30.45400052853845" fill="#ff4444" opacity="0.35"/>
<rect x="704.4958333333333" y="444.3978861962208" width="6.095833333333334" height="30.602113803779226" fill="#ff4444" opacity="0.35"/>
<rect x="715.5791666666667" y="449.7889368326546" width="6.095833333333334" height="25.211063167345422" fill="#44aa44" opacity="0.25" stroke-dasharray="3,2"/>
<polyline points="65.54166666666667,291.22911455727865 76.625,288.67450391862604 87.70833333333334,298.53104329942755 98.79166666666667,303.82476423396884 109.87500000000001,302.4362860442567 120.95833333333334,304.3207056202999 132.04166666666666,314.13493097714843 143.125,315.3130655405435 154.20833333333334,317.18419810423427 165.29166666666666,323.28538002680153 176.375,325.56460719478946 187.45833333333334,327.21182250538067 198.54166666666666,336.804046419295 209.625,339.3030811379592 220.70833333333334,346.01446029507434 231.79166666666666,355.2147427479919 242.875,369.20369209712715 253.95833333333334,375.65572136139974 265.0416666666667,378.61590361895554 276.12500000000006,383.5271606917766 287.20833333333337,386.41814047785937 298.2916666666667,389.2395740587764 309.37500000000006,394.37765834366985 320.45833333333337,394.1627277068521 331.5416666666667,399.57571875470984 342.62500000000006,403.8230321129448 353.70833333333337,402.69492786185646 364.7916666666667,392.4907989981161 375.87500000000006,383.5804926454008 386.95833333333337,372.14787553715394 398.0416666666667,349.90098489203626 409.12500000000006,333.8562844085978 420.20833333333337,327.7581165692136 431.2916666666667,322.2237702257322 442.37500000000006,310.74264354885395 453.45833333333337,300.53394845894917 464.5416666666667,283.1265175819374 475.62500000000006,268.8392224933443 486.70833333333337,260.7832602181743 497.7916666666667,254.64623550979834 508.87500000000006,246.02045182060593 519.9583333333334,248.89174026659703 531.0416666666666,253.4882737345097 542.125,254.9559977306269 553.2083333333334,244.6941935846334 564.2916666666666,219.01273736057433 575.375,204.510242449154 586.4583333333334,187.43354165611433 597.5416666666666,174.26084701369768 608.625,160.75302090391259 619.7083333333334,161.19986286040395 630.7916666666666,169.2893199459555 641.875,161.1428549514641 652.9583333333334,160.6933690338425 664.0416666666666,155.8592778718196 675.125,154.233182079629 686.2083333333334,139.54581656734308 697.2916666666666,112.51061774824714 708.375,94.55101713481605 719.4583333333334,89.53926404952388" fill="none" stroke="#ffd700" stroke-width="1" opacity="0.7"/>
<polyline points="65.54166666666667,291.22911455727865 76.625,289.83569057255903 87.70833333333334,295.0008599340993 98.79166666666667,298.5301956011815 109.87500000000001,298.7354927036635 120.95833333333334,300.4362294434312 132.04166666666666,306.49571167023385 143.125,308.5272794878883 154.20833333333334,310.78167653220237 165.29166666666666,315.27368877579033 176.375,317.9735747312403 187.45833333333334,320.25224353038993 198.54166666666666,326.7497436607051 209.625,329.9409085542656 220.70833333333334,335.30387401881814 231.79166666666666,342.2695892251833 242.875,352.2535895106769 253.95833333333334,358.8547150341802 265.0416666666667,363.52408832506865 276.12500000000006,368.946922236405 287.20833333333337,373.1747727479723 298.2916666666667,377.12162156117927 309.37500000000006,382.1274770797751 320.45833333333337,384.2375478713099 331.5416666666667,388.9946665947854 342.62500000000006,393.23521063744533 353.70833333333337,394.5449394960334 364.7916666666667,390.4608670914156 375.87500000000006,385.96977851842547 386.95833333333337,379.29938993701364 398.0416666666667,365.8644469669749 409.12500000000006,354.2103445078378 420.20833333333337,347.1833329410391 431.2916666666667,340.6327410497173 442.37500000000006,331.02322271251376 453.45833333333337,321.7674655428093 464.5416666666667,308.4118637764647 475.62500000000006,296.02145805640896 486.70833333333337,286.6850721675771 497.7916666666667,278.62818379038976 508.87500000000006,269.5628566361773 519.9583333333334,266.8485767311595 531.0416666666666,266.0908974473732 542.125,264.60008804291647 553.2083333333334,257.2492693610492 564.2916666666666,240.9584612794868 575.375,229.05787788800072 586.4583333333334,215.28010737564335 597.5416666666666,203.03198925804716 608.625,190.43296733555533 619.7083333333334,185.28034541516104 630.7916666666666,185.31450699732423 641.875,177.95731026371644 652.9583333333334,174.65496243369512 664.0416666666666,169.4797139089822 675.125,166.11630965193962 686.2083333333334,155.94445072299987 697.2916666666666,138.2164087933736 708.375,123.74648281420639 719.4583333333334,115.70453282597603" fill="none" stroke="#ff6b6b" stroke-width="1" opacity="0.7"/>
<polyline points="65.54166666666667,291.22911455727865 76.625,290.4992258033779 87.70833333333334,293.1415968755353 98.79166666666667,295.16736918291787 109.87500000000001,295.5951749431002 120.95833333333334,296.78511492684174 132.04166666666666,300.30685461865164 143.125,301.9604241470975 154.20833333333334,303.7667135837183 165.29166666666666,306.78776408735814 176.375,309.01017336768257 187.45833333333334,311.05741905900453 198.54166666666666,315.3365690769206 209.625,318.0951006481937 220.70833333333334,322.0324452159186 231.79166666666666,326.9450987814336 242.875,333.6342884970492 253.95833333333334,338.86528767732506 265.0416666666667,343.2149048636814 276.12500000000006,347.9896448611802 287.20833333333337,352.2001644029749 298.2916666666667,356.26514314751165 309.37500000000006,360.8735892204588 320.45833333333337,364.0030441931024 331.5416666666667,368.4219638747522 342.62500000000006,372.6025062513867 353.70833333333337,375.2535741664623 364.7916666666667,374.9515710335264 375.87500000000006,374.0761718817591 386.95833333333337,371.71488325689256 398.0416666666667,365.3998661468838 409.12500000000006,359.3395820797254 420.20833333333337,355.17026768074635 431.2916666666667,350.97834481008186 442.37500000000006,344.95949198960716 453.45833333333337,338.78397449337217 464.5416666666667,330.1675631919 475.62500000000006,321.6053792989722 486.70833333333337,314.2783275245781 497.7916666666667,307.43012357871794 508.87500000000006,299.9385769942897 519.9583333333334,295.62388558136496 531.0416666666666,292.486500351743 542.125,289.1917332442305 553.2083333333334,282.9992429631272 564.2916666666666,272.0135841011586 575.375,262.8223144368876 586.4583333333334,252.3897264019493 597.5416666666666,242.43979605213167 608.625,232.087183921866 619.7083333333334,225.42112324105844 630.7916666666666,221.61608618162984 641.875,214.30502320837758 652.9583333333334,209.11353501697016 664.0416666666666,203.12092173418958 675.125,198.15521399714748 686.2083333333334,189.77577319196877 697.2916666666666,177.26762527940556 708.375,165.9689767678387 719.4583333333334,157.73533687365784" fill="none" stroke="#4ecdc4" stroke-width="1" opacity="0.7"/>
<line x1="65.54166666666667" y1="283.37368684342175" x2="65.54166666666667" y2="302.15007503751883" stroke="#44aa44" stroke-width="0.5" opacity="0.6"/>
<rect x="63.04791666666667" y="288.7383691845923" width="4.987500000000001" height="2.4907453726863764" fill="#44aa44" opacity="0.8" rx="1"/>
<line x1="76.625" y1="271.4947473736869" x2="76.625" y2="300.2341170585293" stroke="#ff4444" stroke-width="0.5" opacity="0.6"/>
<rect x="74.13125" y="283.56528264132066" width="4.987500000000001" height="16.668834417208643" fill="#ff4444" opacity="0.8" rx="1"/>
<line x1="87.70833333333334" y1="271.6863431715858" x2="87.70833333333334" y2="319.3936968484242" stroke="#44aa44" stroke-width="0.5" opacity="0.6"/>
<rect x="85.21458333333334" y="281.07453726863434" width="4.987500000000001" height="37.16958479239622" fill="#44aa44" opacity="0.8" rx="1"/>
<line x1="98.79166666666667" y1="295.0610305152577" x2="98.79166666666667" y2="326.6743371685843" stroke="#ff4444" stroke-width="0.5" opacity="0.6"/>
<rect x="96.29791666666667" y="314.4122061030515" width="4.987500000000001" height="12.262131065532799" fill="#ff4444" opacity="0.8" rx="1"/>
<line x1="109.87500000000001" y1="284.1400700350175" x2="109.87500000000001" y2="304.83241620810406" stroke="#44aa44" stroke-width="0.5" opacity="0.6"/>
<rect x="107.38125000000001" y="296.7853926963482" width="4.987500000000001" height="2.8739369684842586" fill="#44aa44" opacity="0.8" rx="1"/>
<line x1="120.95833333333334" y1="296.5937968984492" x2="120.95833333333334" y2="314.4122061030515" stroke="#44aa44" stroke-width="0.5" opacity="0.6"/>
<rect x="118.46458333333334" y="304.4492246123062" width="4.987500000000001" height="3.640320160080023" fill="#44aa44" opacity="0.8" rx="1"/>
<line x1="132.04166666666666" y1="327.8239119559781" x2="132.04166666666666" y2="356.18009004502255" stroke="#44aa44" stroke-width="0.5" opacity="0.6"/>
<rect x="129.54791666666665" y="331.46423211605804" width="4.987500000000001" height="2.299149574787407" fill="#44aa44" opacity="0.8" rx="1"/>
<line x1="143.125" y1="313.64582291145575" x2="143.125" y2="326.6743371685843" stroke="#ff4444" stroke-width="0.5" opacity="0.6"/>
<rect x="140.63125" y="317.66933466733366" width="4.987500000000001" height="5.556278139069548" fill="#ff4444" opacity="0.8" rx="1"/>
<line x1="154.20833333333334" y1="308.0895447723862" x2="154.20833333333334" y2="325.14157078539273" stroke="#44aa44" stroke-width="0.5" opacity="0.6"/>
<rect x="151.71458333333334" y="319.3936968484242" width="4.987500000000001" height="1.5327663831915856" fill="#44aa44" opacity="0.8" rx="1"/>
<line x1="165.29166666666666" y1="319.3936968484242" x2="165.29166666666666" y2="341.8104052026014" stroke="#44aa44" stroke-width="0.5" opacity="0.6"/>
<rect x="162.79791666666665" y="322.07603801900956" width="4.987500000000001" height="13.411705852926445" fill="#44aa44" opacity="0.8" rx="1"/>
<line x1="176.375" y1="314.79539769884946" x2="176.375" y2="345.2591295647824" stroke="#ff4444" stroke-width="0.5" opacity="0.6"/>
<rect x="173.88125" y="330.12306153076537" width="4.987500000000001" height="9.388194097048597" fill="#ff4444" opacity="0.8" rx="1"/>
<line x1="187.45833333333334" y1="327.63231615807905" x2="187.45833333333334" y2="349.0910455227614" stroke="#ff4444" stroke-width="0.5" opacity="0.6"/>
<rect x="184.96458333333334" y="330.5062531265633" width="4.987500000000001" height="1.5327663831915856" fill="#ff4444" opacity="0.8" rx="1"/>
<line x1="198.54166666666666" y1="320.9264632316158" x2="198.54166666666666" y2="355.9884942471236" stroke="#44aa44" stroke-width="0.5" opacity="0.6"/>
<rect x="196.04791666666665" y="322.6508254127064" width="4.987500000000001" height="33.33766883441717" fill="#44aa44" opacity="0.8" rx="1"/>
<line x1="209.625" y1="343.3431715857929" x2="209.625" y2="356.75487743871935" stroke="#ff4444" stroke-width="0.5" opacity="0.6"/>
<rect x="207.13125" y="344.3011505752877" width="4.987500000000001" height="7.4722361180590156" fill="#ff4444" opacity="0.8" rx="1"/>
<line x1="220.70833333333334" y1="350.24062031015507" x2="220.70833333333334" y2="362.3111555777889" stroke="#44aa44" stroke-width="0.5" opacity="0.6"/>
<rect x="218.21458333333334" y="355.7968984492246" width="4.987500000000001" height="3.64032016008008" fill="#44aa44" opacity="0.8" rx="1"/>
<line x1="231.79166666666666" y1="350.623811905953" x2="231.79166666666666" y2="373.8069034517259" stroke="#44aa44" stroke-width="0.5" opacity="0.6"/>
<rect x="229.29791666666665" y="358.4792396198099" width="4.987500000000001" height="15.136068034017" fill="#44aa44" opacity="0.8" rx="1"/>
<line x1="242.875" y1="376.29764882441225" x2="242.875" y2="399.863931965983" stroke="#44aa44" stroke-width="0.5" opacity="0.6"/>
<rect x="240.38125" y="381.6623311655828" width="4.987500000000001" height="15.519259629814883" fill="#44aa44" opacity="0.8" rx="1"/>
<line x1="253.95833333333334" y1="387.41020510255134" x2="253.95833333333334" y2="405.6118059029515" stroke="#ff4444" stroke-width="0.5" opacity="0.6"/>
<rect x="251.46458333333334" y="388.559779889945" width="4.987500000000001" height="0.7663831915957644" fill="#ff4444" opacity="0.8" rx="1"/>
<line x1="265.0416666666667" y1="376.4892446223112" x2="265.0416666666667" y2="386.2606303151576" stroke="#ff4444" stroke-width="0.5" opacity="0.6"/>
<rect x="262.5479166666667" y="384.53626813406703" width="4.987500000000001" height="0.9579789894947339" fill="#ff4444" opacity="0.8" rx="1"/>
<line x1="276.12500000000006" y1="381.8539269634818" x2="276.12500000000006" y2="395.6488244122062" stroke="#44aa44" stroke-width="0.5" opacity="0.6"/>
<rect x="273.6312500000001" y="384.53626813406703" width="4.987500000000001" height="8.813406703351689" fill="#44aa44" opacity="0.8" rx="1"/>
<line x1="287.20833333333337" y1="388.9429714857429" x2="287.20833333333337" y2="405.03701850925466" stroke="#ff4444" stroke-width="0.5" opacity="0.6"/>
<rect x="284.7145833333334" y="392.20010005002507" width="4.987500000000001" height="10.7293646823411" fill="#ff4444" opacity="0.8" rx="1"/>
<line x1="298.2916666666667" y1="393.1580790395198" x2="298.2916666666667" y2="404.6538269134567" stroke="#ff4444" stroke-width="0.5" opacity="0.6"/>
<rect x="295.7979166666667" y="394.88244122061036" width="4.987500000000001" height="5.7478739369684035" fill="#ff4444" opacity="0.8" rx="1"/>
<line x1="309.37500000000006" y1="387.6018009004502" x2="309.37500000000006" y2="405.9949974987494" stroke="#44aa44" stroke-width="0.5" opacity="0.6"/>
<rect x="306.8812500000001" y="394.88244122061036" width="4.987500000000001" height="9.771385692846366" fill="#44aa44" opacity="0.8" rx="1"/>
<line x1="320.45833333333337" y1="392.58329164582295" x2="320.45833333333337" y2="400.24712356178094" stroke="#ff4444" stroke-width="0.5" opacity="0.6"/>
<rect x="317.9645833333334" y="393.73286643321666" width="4.987500000000001" height="0.5" fill="#ff4444" opacity="0.8" rx="1"/>
<line x1="331.5416666666667" y1="395.0740370185093" x2="331.5416666666667" y2="413.27563781890944" stroke="#44aa44" stroke-width="0.5" opacity="0.6"/>
<rect x="329.0479166666667" y="397.75637818909456" width="4.987500000000001" height="12.645322661330681" fill="#44aa44" opacity="0.8" rx="1"/>
<line x1="342.62500000000006" y1="406.56978489244625" x2="342.62500000000006" y2="415.0" stroke="#44aa44" stroke-width="0.5" opacity="0.6"/>
<rect x="340.1312500000001" y="407.52776388194104" width="4.987500000000001" height="4.7898949474737265" fill="#44aa44" opacity="0.8" rx="1"/>
<line x1="353.70833333333337" y1="397.3731865932967" x2="353.70833333333337" y2="406.76138069034516" stroke="#ff4444" stroke-width="0.5" opacity="0.6"/>
<rect x="351.2145833333334" y="400.4387193596799" width="4.987500000000001" height="5.173086543271609" fill="#ff4444" opacity="0.8" rx="1"/>
<line x1="364.7916666666667" y1="371.89094547273635" x2="364.7916666666667" y2="390.09254627313663" stroke="#ff4444" stroke-width="0.5" opacity="0.6"/>
<rect x="362.2979166666667" y="372.0825412706353" width="4.987500000000001" height="13.411705852926445" fill="#ff4444" opacity="0.8" rx="1"/>
<line x1="375.87500000000006" y1="364.2271135567784" x2="375.87500000000006" y2="380.32116058029015" stroke="#ff4444" stroke-width="0.5" opacity="0.6"/>
<rect x="373.3812500000001" y="365.75987993997" width="4.987500000000001" height="11.304152076038065" fill="#ff4444" opacity="0.8" rx="1"/>
<line x1="386.95833333333337" y1="337.40370185092553" x2="386.95833333333337" y2="364.9934967483742" stroke="#ff4444" stroke-width="0.5" opacity="0.6"/>
<rect x="384.4645833333334" y="349.28264132066033" width="4.987500000000001" height="15.710855427713852" fill="#ff4444" opacity="0.8" rx="1"/>
<line x1="398.0416666666667" y1="305.4072036018009" x2="398.0416666666667" y2="356.75487743871935" stroke="#ff4444" stroke-width="0.5" opacity="0.6"/>
<rect x="395.5479166666667" y="305.4072036018009" width="4.987500000000001" height="50.198099049524785" fill="#ff4444" opacity="0.8" rx="1"/>
<line x1="409.12500000000006" y1="290.6543271635818" x2="409.12500000000006" y2="313.0710355177589" stroke="#ff4444" stroke-width="0.5" opacity="0.6"/>
<rect x="406.6312500000001" y="301.76688344172084" width="4.987500000000001" height="8.430215107553806" fill="#ff4444" opacity="0.8" rx="1"/>
<line x1="420.20833333333337" y1="297.1685842921461" x2="420.20833333333337" y2="318.0525262631316" stroke="#44aa44" stroke-width="0.5" opacity="0.6"/>
<rect x="417.7145833333334" y="302.3416708354177" width="4.987500000000001" height="13.22011005502759" fill="#44aa44" opacity="0.8" rx="1"/>
<line x1="431.2916666666667" y1="301.00050025012507" x2="431.2916666666667" y2="317.4777388694347" stroke="#ff4444" stroke-width="0.5" opacity="0.6"/>
<rect x="428.7979166666667" y="311.1550775387694" width="4.987500000000001" height="4.215107553776932" fill="#ff4444" opacity="0.8" rx="1"/>
<line x1="442.37500000000006" y1="283.37368684342175" x2="442.37500000000006" y2="313.0710355177589" stroke="#ff4444" stroke-width="0.5" opacity="0.6"/>
<rect x="439.8812500000001" y="287.7803901950976" width="4.987500000000001" height="22.416708354177047" fill="#ff4444" opacity="0.8" rx="1"/>
<line x1="453.45833333333337" y1="266.1300650325163" x2="453.45833333333337" y2="283.7568784392197" stroke="#44aa44" stroke-width="0.5" opacity="0.6"/>
<rect x="450.9645833333334" y="279.1585792896448" width="4.987500000000001" height="0.9579789894947339" fill="#44aa44" opacity="0.8" rx="1"/>
<line x1="464.5416666666667" y1="240.83941970985492" x2="464.5416666666667" y2="291.4207103551776" stroke="#ff4444" stroke-width="0.5" opacity="0.6"/>
<rect x="462.0479166666667" y="248.31165582791397" width="4.987500000000001" height="36.59479739869931" fill="#ff4444" opacity="0.8" rx="1"/>
<line x1="475.62500000000006" y1="223.97898949474737" x2="475.62500000000006" y2="257.12506253126566" stroke="#44aa44" stroke-width="0.5" opacity="0.6"/>
<rect x="473.1312500000001" y="233.17558779389697" width="4.987500000000001" height="7.089044522261133" fill="#44aa44" opacity="0.8" rx="1"/>
<line x1="486.70833333333337" y1="223.78739369684845" x2="486.70833333333337" y2="252.3351675837919" stroke="#44aa44" stroke-width="0.5" opacity="0.6"/>
<rect x="484.2145833333334" y="232.2176088044022" width="4.987500000000001" height="12.453726863431768" fill="#44aa44" opacity="0.8" rx="1"/>
<line x1="497.7916666666667" y1="228.38569284642324" x2="497.7916666666667" y2="271.8779389694847" stroke="#ff4444" stroke-width="0.5" opacity="0.6"/>
<rect x="495.2979166666667" y="242.37218609304657" width="4.987500000000001" height="2.299149574787407" fill="#ff4444" opacity="0.8" rx="1"/>
<line x1="508.87500000000006" y1="206.73536768384196" x2="508.87500000000006" y2="248.88644322161082" stroke="#ff4444" stroke-width="0.5" opacity="0.6"/>
<rect x="506.3812500000001" y="228.7688844422211" width="4.987500000000001" height="17.818409204602318" fill="#ff4444" opacity="0.8" rx="1"/>
<line x1="519.9583333333334" y1="229.9184592296148" x2="519.9583333333334" y2="259.80740370185094" stroke="#44aa44" stroke-width="0.5" opacity="0.6"/>
<rect x="517.4645833333334" y="233.36718359179594" width="4.987500000000001" height="21.26713356678337" fill="#44aa44" opacity="0.8" rx="1"/>
<line x1="531.0416666666666" y1="252.3351675837919" x2="531.0416666666666" y2="271.4947473736869" stroke="#44aa44" stroke-width="0.5" opacity="0.6"/>
<rect x="528.5479166666667" y="262.48974487243623" width="4.987500000000001" height="0.5" fill="#44aa44" opacity="0.8" rx="1"/>
<line x1="542.125" y1="252.5267633816909" x2="542.125" y2="285.2896448224112" stroke="#ff4444" stroke-width="0.5" opacity="0.6"/>
<rect x="539.63125" y="257.8914457228615" width="4.987500000000001" height="4.598299149574757" fill="#ff4444" opacity="0.8" rx="1"/>
<line x1="553.2083333333334" y1="204.81940970485243" x2="553.2083333333334" y2="226.2781390695348" stroke="#44aa44" stroke-width="0.5" opacity="0.6"/>
<rect x="550.7145833333334" y="220.72186093046528" width="4.987500000000001" height="3.4487243621810535" fill="#44aa44" opacity="0.8" rx="1"/>
<line x1="564.2916666666666" y1="167.6498249124562" x2="564.2916666666666" y2="229.343671835918" stroke="#ff4444" stroke-width="0.5" opacity="0.6"/>
<rect x="561.7979166666667" y="167.6498249124562" width="4.987500000000001" height="54.22161080540272" fill="#ff4444" opacity="0.8" rx="1"/>
<line x1="575.375" y1="161.5187593796898" x2="575.375" y2="183.93546773386694" stroke="#44aa44" stroke-width="0.5" opacity="0.6"/>
<rect x="572.88125" y="171.48174087043526" width="4.987500000000001" height="4.023511755877934" fill="#44aa44" opacity="0.8" rx="1"/>
<line x1="586.4583333333334" y1="144.84992496248125" x2="586.4583333333334" y2="169.94897448724367" stroke="#44aa44" stroke-width="0.5" opacity="0.6"/>
<rect x="583.9645833333334" y="152.70535267633812" width="4.987500000000001" height="0.5747873936968801" fill="#44aa44" opacity="0.8" rx="1"/>
<line x1="597.5416666666666" y1="132.58779389694848" x2="597.5416666666666" y2="165.15907953976995" stroke="#44aa44" stroke-width="0.5" opacity="0.6"/>
<rect x="595.0479166666667" y="143.12556278139067" width="4.987500000000001" height="4.7898949474737265" fill="#44aa44" opacity="0.8" rx="1"/>
<line x1="608.625" y1="127.79789894947474" x2="608.625" y2="171.29014507253635" stroke="#ff4444" stroke-width="0.5" opacity="0.6"/>
<rect x="606.13125" y="133.73736868434224" width="4.987500000000001" height="30.463731865932857" fill="#ff4444" opacity="0.8" rx="1"/>
<line x1="619.7083333333334" y1="123.19959979989993" x2="619.7083333333334" y2="166.11705852926465" stroke="#44aa44" stroke-width="0.5" opacity="0.6"/>
<rect x="617.2145833333334" y="131.43821910955472" width="4.987500000000001" height="30.65532766383197" fill="#44aa44" opacity="0.8" rx="1"/>
<line x1="630.7916666666666" y1="139.86843421710861" x2="630.7916666666666" y2="192.17408704352178" stroke="#44aa44" stroke-width="0.5" opacity="0.6"/>
<rect x="628.2979166666667" y="156.34567283641826" width="4.987500000000001" height="29.122561280640298" fill="#44aa44" opacity="0.8" rx="1"/>
<line x1="641.875" y1="139.10205102551282" x2="641.875" y2="194.85642821410707" stroke="#ff4444" stroke-width="0.5" opacity="0.6"/>
<rect x="639.38125" y="144.84992496248125" width="4.987500000000001" height="40.235117558779365" fill="#ff4444" opacity="0.8" rx="1"/>
<line x1="652.9583333333334" y1="156.53726863431717" x2="652.9583333333334" y2="187.95897948974488" stroke="#ff4444" stroke-width="0.5" opacity="0.6"/>
<rect x="650.4645833333334" y="159.7943971985993" width="4.987500000000001" height="9.962981490745335" fill="#ff4444" opacity="0.8" rx="1"/>
<line x1="664.0416666666666" y1="141.20960480240126" x2="664.0416666666666" y2="175.5052526263132" stroke="#ff4444" stroke-width="0.5" opacity="0.6"/>
<rect x="661.5479166666667" y="146.1910955477739" width="4.987500000000001" height="18.010005002501202" fill="#ff4444" opacity="0.8" rx="1"/>
<line x1="675.125" y1="91.20310155077547" x2="675.125" y2="160.75237618809405" stroke="#44aa44" stroke-width="0.5" opacity="0.6"/>
<rect x="672.63125" y="146.1910955477739" width="4.987500000000001" height="4.7898949474737265" fill="#44aa44" opacity="0.8" rx="1"/>
<line x1="686.2083333333334" y1="99.25012506253124" x2="686.2083333333334" y2="127.60630315157583" stroke="#44aa44" stroke-width="0.5" opacity="0.6"/>
<rect x="683.7145833333334" y="107.29714857428715" width="4.987500000000001" height="2.8739369684842018" fill="#44aa44" opacity="0.8" rx="1"/>
<line x1="697.2916666666666" y1="56.90745372686338" x2="697.2916666666666" y2="109.97948974487244" stroke="#ff4444" stroke-width="0.5" opacity="0.6"/>
<rect x="694.7979166666667" y="58.44022011005508" width="4.987500000000001" height="40.61830915457725" fill="#ff4444" opacity="0.8" rx="1"/>
<line x1="708.375" y1="32.0" x2="708.375" y2="78.94097048524267" stroke="#ff4444" stroke-width="0.5" opacity="0.6"/>
<rect x="705.88125" y="58.63181590795399" width="4.987500000000001" height="11.687343671835905" fill="#ff4444" opacity="0.8" rx="1"/>
<line x1="719.4583333333334" y1="52.11755877938964" x2="719.4583333333334" y2="95.41820910455232" stroke="#44aa44" stroke-width="0.5" opacity="0.3" stroke-dasharray="4,3"/>
<rect x="716.9645833333334" y="63.9964982491246" width="4.987500000000001" height="15.519259629814812" fill="#44aa44" opacity="0.4" stroke-dasharray="4,3" rx="1"/>
<text x="739.4583333333334" y="73.51575787893941" font-family="sans-serif" font-size="9" fill="#ffd700" opacity="0.8">🕐 盘中</text>
<line x1="353.70833333333337" y1="406.76138069034516" x2="353.70833333333337" y2="371.76138069034516" stroke="#4ecdc4" stroke-width="0.8" stroke-dasharray="2,2" opacity="0.7"/>
<rect x="317.70833333333337" y="362.76138069034516" width="72" height="16" fill="#4ecdc4" opacity="0.85" rx="3"/>
<text x="353.70833333333337" y="374.76138069034516" text-anchor="middle" font-family="sans-serif" font-size="9" fill="#000000" font-weight="bold">B1乖离买入</text>
<polygon points="353.70833333333337,412.76138069034516 349.70833333333337,406.76138069034516 357.70833333333337,406.76138069034516" fill="#4ecdc4" opacity="0.9"/>
<line x1="519.9583333333334" y1="259.80740370185094" x2="519.9583333333334" y2="209.80740370185094" stroke="#4ecdc4" stroke-width="0.8" stroke-dasharray="2,2" opacity="0.7"/>
<rect x="483.95833333333337" y="200.80740370185094" width="72" height="16" fill="#4ecdc4" opacity="0.85" rx="3"/>
<text x="519.9583333333334" y="212.80740370185094" text-anchor="middle" font-family="sans-serif" font-size="9" fill="#000000" font-weight="bold">B2乖离买入</text>
<polygon points="519.9583333333334,265.80740370185094 515.9583333333334,259.80740370185094 523.9583333333334,259.80740370185094" fill="#4ecdc4" opacity="0.9"/>
<line x1="619.7083333333334" y1="166.11705852926465" x2="619.7083333333334" y2="101.11705852926465" stroke="#4ecdc4" stroke-width="0.8" stroke-dasharray="2,2" opacity="0.7"/>
<rect x="583.7083333333334" y="92.11705852926465" width="72" height="16" fill="#4ecdc4" opacity="0.85" rx="3"/>
<text x="619.7083333333334" y="104.11705852926465" text-anchor="middle" font-family="sans-serif" font-size="9" fill="#000000" font-weight="bold">B3乖离买入</text>
<polygon points="619.7083333333334,172.11705852926465 615.7083333333334,166.11705852926465 623.7083333333334,166.11705852926465" fill="#4ecdc4" opacity="0.9"/>
<line x1="652.9583333333334" y1="187.95897948974488" x2="652.9583333333334" y2="107.95897948974488" stroke="#4ecdc4" stroke-width="0.8" stroke-dasharray="2,2" opacity="0.7"/>
<rect x="616.9583333333334" y="98.95897948974488" width="72" height="16" fill="#4ecdc4" opacity="0.85" rx="3"/>
<text x="652.9583333333334" y="110.95897948974488" text-anchor="middle" font-family="sans-serif" font-size="9" fill="#000000" font-weight="bold">B4乖离买入</text>
<polygon points="652.9583333333334,193.95897948974488 648.9583333333334,187.95897948974488 656.9583333333334,187.95897948974488" fill="#4ecdc4" opacity="0.9"/>
<line x1="719.4583333333334" y1="95.41820910455232" x2="719.4583333333334" y2="0.41820910455231797" stroke="#4ecdc4" stroke-width="0.8" stroke-dasharray="2,2" opacity="0.7"/>
<rect x="683.4583333333334" y="-8.581790895447682" width="72" height="16" fill="#4ecdc4" opacity="0.85" rx="3"/>
<text x="719.4583333333334" y="3.418209104552318" text-anchor="middle" font-family="sans-serif" font-size="9" fill="#000000" font-weight="bold">B5乖离买入</text>
<polygon points="719.4583333333334,101.41820910455232 715.4583333333334,95.41820910455232 723.4583333333334,95.41820910455232" fill="#4ecdc4" opacity="0.9"/>
<line x1="398.0416666666667" y1="305.4072036018009" x2="398.0416666666667" y2="324.4072036018009" stroke="#e94560" stroke-width="0.8" stroke-dasharray="2,2" opacity="0.7"/>
<rect x="364.0416666666667" y="331.4072036018009" width="68" height="16" fill="#e94560" opacity="0.85" rx="3"/>
<text x="398.0416666666667" y="343.4072036018009" text-anchor="middle" font-family="sans-serif" font-size="9" fill="#ffffff" font-weight="bold">W1警戒⚠️</text>
<polygon points="398.0416666666667,299.4072036018009 394.0416666666667,305.4072036018009 402.0416666666667,305.4072036018009" fill="#e94560" opacity="0.9"/>
<line x1="564.2916666666666" y1="167.6498249124562" x2="564.2916666666666" y2="201.6498249124562" stroke="#e94560" stroke-width="0.8" stroke-dasharray="2,2" opacity="0.7"/>
<rect x="530.2916666666666" y="208.6498249124562" width="68" height="16" fill="#e94560" opacity="0.85" rx="3"/>
<text x="564.2916666666666" y="220.6498249124562" text-anchor="middle" font-family="sans-serif" font-size="9" fill="#ffffff" font-weight="bold">W2警戒⚠️</text>
<polygon points="564.2916666666666,161.6498249124562 560.2916666666666,167.6498249124562 568.2916666666666,167.6498249124562" fill="#e94560" opacity="0.9"/>
<text x="375.0" y="435" text-anchor="middle" font-family="sans-serif" font-size="10" fill="#aaaaaa">✅ BIAS5=1.43%，乖离率买入区，趋势健康可持股</text>
<rect x="60" y="443" width="665" height="55" fill="#111122" opacity="0.5" rx="2"/>
<rect x="60" y="443" width="665" height="16.96666666666664" fill="#e94560" opacity="0.18" rx="2"/>
<rect x="60" y="459.96666666666664" width="665" height="9.400000000000034" fill="#ffd700" opacity="0.12"/>
<rect x="60" y="469.3666666666667" width="665" height="30.633333333333326" fill="#4ecdc4" opacity="0.14"/>
<text x="670" y="454.48333333333335" text-anchor="end" font-family="sans-serif" font-size="9" fill="#e94560" font-weight="bold">⚠️ 警戒区</text>
<text x="670" y="467.66666666666663" text-anchor="end" font-family="sans-serif" font-size="9" fill="#ffd700">持有区</text>
<text x="670" y="487.68333333333334" text-anchor="end" font-family="sans-serif" font-size="9" fill="#4ecdc4">买入区</text>
<line x1="60" y1="472.5" x2="725" y2="472.5" stroke="#888888" stroke-width="0.5" stroke-dasharray="3,2" opacity="0.5"/>
<text x="56" y="475.5" text-anchor="end" font-family="sans-serif" font-size="7" fill="#888888">0%</text>
<line x1="60" y1="469.3666666666667" x2="725" y2="469.3666666666667" stroke="#4ecdc4" stroke-width="0.5" stroke-dasharray="3,2" opacity="0.5"/>
<text x="56" y="472.3666666666667" text-anchor="end" font-family="sans-serif" font-size="7" fill="#4ecdc4">2%</text>
<line x1="60" y1="459.96666666666664" x2="725" y2="459.96666666666664" stroke="#e94560" stroke-width="0.5" stroke-dasharray="3,2" opacity="0.5"/>
<text x="56" y="462.96666666666664" text-anchor="end" font-family="sans-serif" font-size="7" fill="#e94560">8%</text>
<text x="60" y="445" font-family="sans-serif" font-size="8" fill="#888888">BIAS5</text>
<polyline points="65.54166666666667,472.5 76.625,470.8995232622483 87.70833333333334,478.79931972789115 98.79166666666667,475.9201490499044 109.87500000000001,471.6054977085451 120.95833333333334,473.7187256055519 132.04166666666666,478.97846683487825 143.125,473.2796332927454 154.20833333333334,473.74313895367 165.29166666666666,476.60661581306005 176.375,474.04166243077947 187.45833333333334,473.618147486323 198.54166666666666,479.14948623909936 209.625,474.2420029368038 220.70833333333334,477.2492125613761 231.79166666666666,479.14859448940115 242.875,482.9461562510024 253.95833333333334,477.3932522977685 265.0416666666667,474.7612190239132 276.12500000000006,476.2970657881459 287.20833333333337,474.7511767210843 298.2916666666667,474.7125355888803 309.37500000000006,476.5817139931847 320.45833333333337,472.32935126228125 331.5416666666667,476.8575280038944 342.62500000000006,475.9568641867935 353.70833333333337,471.5845249734447 364.7916666666667,464.43239455713984 375.87500000000006,465.6102217369072 386.95833333333337,463.902442059911 398.0416666666667,456.61789925236775 409.12500000000006,461.4496178924435 420.20833333333337,468.35559310991584 431.2916666666667,468.783388577976 442.37500000000006,464.9749738799002 453.45833333333337,465.94885402872256 464.5416666666667,461.7138072497278 475.62500000000006,463.8903957744764 486.70833333333337,467.71949767711754 497.7916666666667,468.9000587648455 508.87500000000006,467.52057764241994 519.9583333333334,474.1663288534164 531.0416666666666,475.19046600411014 542.125,473.3614575039544 553.2083333333334,466.590588339407 564.2916666666666,458.37752171605786 575.375,464.7228850358873 586.4583333333334,463.60248128926673 597.5416666666666,465.7837127554304 608.625,465.760967096787 619.7083333333334,472.7230874605317 630.7916666666666,476.5914268587613 641.875,468.43321733407197 652.9583333333334,472.27577348946846 664.0416666666666,470.10692636141295 675.125,471.69707859093904 686.2083333333334,465.41184069431665 697.2916666666666,459.97431709413235 708.375,464.39438646428374 719.4583333333334,470.2542830877432" fill="none" stroke="#4ecdc4" stroke-width="1.5" opacity="0.9"/>
<circle cx="719.4583333333334" cy="470.2542830877432" r="3" fill="#4ecdc4" opacity="1"/>
<text x="724.4583333333334" y="473.2542830877432" font-family="sans-serif" font-size="9" fill="#4ecdc4" font-weight="bold">BIAS5=1.4%</text>
<text x="65.54166666666667" y="489" text-anchor="middle" font-family="sans-serif" font-size="8" fill="#666666" transform="rotate(-45,65.54166666666667,489)">02/27</text>
<text x="120.95833333333334" y="489" text-anchor="middle" font-family="sans-serif" font-size="8" fill="#666666" transform="rotate(-45,120.95833333333334,489)">03/06</text>
<text x="176.375" y="489" text-anchor="middle" font-family="sans-serif" font-size="8" fill="#666666" transform="rotate(-45,176.375,489)">03/13</text>
<text x="231.79166666666666" y="489" text-anchor="middle" font-family="sans-serif" font-size="8" fill="#666666" transform="rotate(-45,231.79166666666666,489)">03/20</text>
<text x="287.20833333333337" y="489" text-anchor="middle" font-family="sans-serif" font-size="8" fill="#666666" transform="rotate(-45,287.20833333333337,489)">03/27</text>
<text x="342.62500000000006" y="489" text-anchor="middle" font-family="sans-serif" font-size="8" fill="#666666" transform="rotate(-45,342.62500000000006,489)">04/03</text>
<text x="398.0416666666667" y="489" text-anchor="middle" font-family="sans-serif" font-size="8" fill="#666666" transform="rotate(-45,398.0416666666667,489)">04/13</text>
<text x="453.45833333333337" y="489" text-anchor="middle" font-family="sans-serif" font-size="8" fill="#666666" transform="rotate(-45,453.45833333333337,489)">04/20</text>
<text x="508.87500000000006" y="489" text-anchor="middle" font-family="sans-serif" font-size="8" fill="#666666" transform="rotate(-45,508.87500000000006,489)">04/27</text>
<text x="564.2916666666666" y="489" text-anchor="middle" font-family="sans-serif" font-size="8" fill="#666666" transform="rotate(-45,564.2916666666666,489)">05/07</text>
<text x="619.7083333333334" y="489" text-anchor="middle" font-family="sans-serif" font-size="8" fill="#666666" transform="rotate(-45,619.7083333333334,489)">05/14</text>
<text x="675.125" y="489" text-anchor="middle" font-family="sans-serif" font-size="8" fill="#666666" transform="rotate(-45,675.125,489)">05/21</text>
<text x="719.4583333333334" y="489" text-anchor="middle" font-family="sans-serif" font-size="8" fill="#666666" transform="rotate(-45,719.4583333333334,489)">05/27</text>
<rect x="60" y="484" width="8" height="8" fill="#4ecdc4" opacity="0.8" rx="1"/>
<text x="71" y="491" font-family="sans-serif" font-size="9" fill="#888888">买入区(BIAS&lt;2%)</text>
<rect x="230" y="484" width="8" height="8" fill="#ffd700" opacity="0.8" rx="1"/>
<text x="241" y="491" font-family="sans-serif" font-size="9" fill="#888888">持有区(2-8%)</text>
<rect x="400" y="484" width="8" height="8" fill="#e94560" opacity="0.8" rx="1"/>
<text x="411" y="491" font-family="sans-serif" font-size="9" fill="#888888">警戒区(&gt;8%)</text>
<rect x="570" y="484" width="8" height="8" fill="#ffd700" opacity="0.8" rx="1"/>
<text x="581" y="491" font-family="sans-serif" font-size="9" fill="#888888">EMA5</text>
<rect x="60" y="497" width="8" height="8" fill="#ff6b6b" opacity="0.8" rx="1"/>
<text x="71" y="504" font-family="sans-serif" font-size="9" fill="#888888">EMA10</text>
<rect x="230" y="497" width="8" height="8" fill="#4ecdc4" opacity="0.8" rx="1"/>
<text x="241" y="504" font-family="sans-serif" font-size="9" fill="#888888">EMA20</text>
<rect x="400" y="497" width="8" height="8" fill="#4ecdc4" opacity="0.8" rx="1"/>
<text x="411" y="504" font-family="sans-serif" font-size="9" fill="#888888">B乖离买入</text>
<rect x="570" y="497" width="8" height="8" fill="#e94560" opacity="0.8" rx="1"/>
<text x="581" y="504" font-family="sans-serif" font-size="9" fill="#888888">W警戒⚠️</text>
</svg>