<svg xmlns="http://www.w3.org/2000/svg" width="750" height="540" viewBox="0 0 750 540">
<rect width="750" height="540" fill="#1a1a2e"/>
<text x="375.0" y="22" text-anchor="middle" font-family="sans-serif" font-size="15" fill="#ffffff" font-weight="bold">奥比中光-W(688322) 趋势交易分析图</text>
<text x="60" y="31" font-family="sans-serif" font-size="10" fill="#888888">最新: 112.50</text>
<line x1="60" y1="116.96903154007278" x2="725" y2="116.96903154007278" stroke="#4ecdc4" stroke-width="0.5" stroke-dasharray="4,3" opacity="0.4"/>
<text x="62" y="114.96903154007278" font-family="sans-serif" font-size="7" fill="#4ecdc4" opacity="0.6">买入↑2%</text>
<line x1="60" y1="69.49364322411282" x2="725" y2="69.49364322411282" stroke="#e94560" stroke-width="0.5" stroke-dasharray="4,3" opacity="0.4"/>
<text x="62" y="67.49364322411282" font-family="sans-serif" font-size="7" fill="#e94560" opacity="0.6">警戒↑8%</text>
<rect x="60" y="116.96903154007278" width="3" height="266.03096845992724" fill="#4ecdc4" opacity="0.3" rx="1"/>
<rect x="60" y="69.49364322411282" width="3" height="313.5063567758872" fill="#e94560" opacity="0.3" rx="1"/>
<rect x="60" y="69.49364322411282" width="3" height="47.47538831595996" fill="#ffd700" opacity="0.2" rx="1"/>
<line x1="60" y1="32.0" x2="725" y2="32.0" stroke="#2a2a4e" stroke-width="0.5"/>
<text x="56" y="35.0" text-anchor="end" font-family="sans-serif" font-size="8" fill="#666666">127.0</text>
<line x1="60" y1="127.75" x2="725" y2="127.75" stroke="#2a2a4e" stroke-width="0.5"/>
<text x="56" y="130.75" text-anchor="end" font-family="sans-serif" font-size="8" fill="#666666">113.3</text>
<line x1="60" y1="223.5" x2="725" y2="223.5" stroke="#2a2a4e" stroke-width="0.5"/>
<text x="56" y="226.5" text-anchor="end" font-family="sans-serif" font-size="8" fill="#666666">99.7</text>
<line x1="60" y1="319.25" x2="725" y2="319.25" stroke="#2a2a4e" stroke-width="0.5"/>
<text x="56" y="322.25" text-anchor="end" font-family="sans-serif" font-size="8" fill="#666666">86.1</text>
<line x1="60" y1="415.0" x2="725" y2="415.0" stroke="#2a2a4e" stroke-width="0.5"/>
<text x="56" y="418.0" text-anchor="end" font-family="sans-serif" font-size="8" fill="#666666">72.5</text>
<rect x="61.66250000000001" y="469.22750806104403" width="6.095833333333334" height="5.772491938955982" fill="#ff4444" opacity="0.35"/>
<rect x="72.74583333333334" y="468.1832331833148" width="6.095833333333334" height="6.816766816685199" fill="#44aa44" opacity="0.35"/>
<rect x="83.82916666666668" y="464.74439908440166" width="6.095833333333334" height="10.255600915598313" fill="#44aa44" opacity="0.35"/>
<rect x="94.91250000000001" y="469.09646010983465" width="6.095833333333334" height="5.903539890165372" fill="#ff4444" opacity="0.35"/>
<rect x="105.99583333333335" y="469.09784883955035" width="6.095833333333334" height="5.902151160449622" fill="#ff4444" opacity="0.35"/>
<rect x="117.07916666666668" y="470.4284047650759" width="6.095833333333334" height="4.571595234924066" fill="#44aa44" opacity="0.35"/>
<rect x="128.1625" y="468.6389164903717" width="6.095833333333334" height="6.36108350962834" fill="#ff4444" opacity="0.35"/>
<rect x="139.24583333333334" y="469.34040062072364" width="6.095833333333334" height="5.65959937927638" fill="#ff4444" opacity="0.35"/>
<rect x="150.32916666666668" y="470.80628018051783" width="6.095833333333334" height="4.1937198194821725" fill="#44aa44" opacity="0.35"/>
<rect x="161.4125" y="470.8304447280307" width="6.095833333333334" height="4.169555271969249" fill="#44aa44" opacity="0.35"/>
<rect x="172.49583333333334" y="471.3575614296467" width="6.095833333333334" height="3.642438570353323" fill="#44aa44" opacity="0.35"/>
<rect x="183.57916666666668" y="469.8021060929413" width="6.095833333333334" height="5.197893907058718" fill="#44aa44" opacity="0.35"/>
<rect x="194.6625" y="470.49712032560114" width="6.095833333333334" height="4.502879674398868" fill="#44aa44" opacity="0.35"/>
<rect x="205.74583333333334" y="471.2841116125495" width="6.095833333333334" height="3.7158883874504802" fill="#ff4444" opacity="0.35"/>
<rect x="216.82916666666668" y="469.65002555374184" width="6.095833333333334" height="5.349974446258158" fill="#44aa44" opacity="0.35"/>
<rect x="227.9125" y="469.6971133563988" width="6.095833333333334" height="5.302886643601188" fill="#44aa44" opacity="0.35"/>
<rect x="238.99583333333334" y="462.7455671227106" width="6.095833333333334" height="12.254432877289384" fill="#ff4444" opacity="0.35"/>
<rect x="250.07916666666668" y="467.3762370334119" width="6.095833333333334" height="7.623762966588096" fill="#44aa44" opacity="0.35"/>
<rect x="261.1625" y="468.6530065138811" width="6.095833333333334" height="6.3469934861188975" fill="#ff4444" opacity="0.35"/>
<rect x="272.2458333333334" y="468.71088434531316" width="6.095833333333334" height="6.289115654686865" fill="#44aa44" opacity="0.35"/>
<rect x="283.3291666666667" y="470.4422215958544" width="6.095833333333334" height="4.5577784041455915" fill="#ff4444" opacity="0.35"/>
<rect x="294.4125" y="470.35701581854056" width="6.095833333333334" height="4.642984181459443" fill="#ff4444" opacity="0.35"/>
<rect x="305.4958333333334" y="470.776913046037" width="6.095833333333334" height="4.223086953962998" fill="#44aa44" opacity="0.35"/>
<rect x="316.5791666666667" y="469.2944055889905" width="6.095833333333334" height="5.705594411009481" fill="#ff4444" opacity="0.35"/>
<rect x="327.6625" y="470.17948824373" width="6.095833333333334" height="4.820511756269959" fill="#44aa44" opacity="0.35"/>
<rect x="338.7458333333334" y="471.4859153969812" width="6.095833333333334" height="3.5140846030187487" fill="#ff4444" opacity="0.35"/>
<rect x="349.8291666666667" y="471.1214795461655" width="6.095833333333334" height="3.8785204538344553" fill="#44aa44" opacity="0.35"/>
<rect x="360.9125" y="467.641491997807" width="6.095833333333334" height="7.358508002192976" fill="#ff4444" opacity="0.35"/>
<rect x="371.9958333333334" y="470.24539056958514" width="6.095833333333334" height="4.754609430414838" fill="#44aa44" opacity="0.35"/>
<rect x="383.0791666666667" y="467.0101295032662" width="6.095833333333334" height="7.989870496733768" fill="#ff4444" opacity="0.35"/>
<rect x="394.1625" y="465.2173694203792" width="6.095833333333334" height="9.782630579620815" fill="#ff4444" opacity="0.35"/>
<rect x="405.2458333333334" y="467.2469539939724" width="6.095833333333334" height="7.753046006027585" fill="#44aa44" opacity="0.35"/>
<rect x="416.3291666666667" y="468.488443668712" width="6.095833333333334" height="6.511556331288002" fill="#44aa44" opacity="0.35"/>
<rect x="427.4125" y="467.27169744989146" width="6.095833333333334" height="7.728302550108565" fill="#ff4444" opacity="0.35"/>
<rect x="438.4958333333334" y="467.63048298120793" width="6.095833333333334" height="7.369517018792067" fill="#ff4444" opacity="0.35"/>
<rect x="449.5791666666667" y="466.9266019098712" width="6.095833333333334" height="8.073398090128823" fill="#44aa44" opacity="0.35"/>
<rect x="460.6625" y="467.6428612137563" width="6.095833333333334" height="7.357138786243723" fill="#44aa44" opacity="0.35"/>
<rect x="471.7458333333334" y="468.817544424793" width="6.095833333333334" height="6.182455575206985" fill="#ff4444" opacity="0.35"/>
<rect x="482.8291666666667" y="466.88218640912623" width="6.095833333333334" height="8.117813590873752" fill="#44aa44" opacity="0.35"/>
<rect x="493.9125" y="467.34082930410193" width="6.095833333333334" height="7.659170695898082" fill="#44aa44" opacity="0.35"/>
<rect x="504.9958333333334" y="468.28517743589106" width="6.095833333333334" height="6.714822564108918" fill="#ff4444" opacity="0.35"/>
<rect x="516.0791666666667" y="468.23030147220527" width="6.095833333333334" height="6.769698527794727" fill="#44aa44" opacity="0.35"/>
<rect x="527.1624999999999" y="469.7431289859966" width="6.095833333333334" height="5.25687101400345" fill="#ff4444" opacity="0.35"/>
<rect x="538.2458333333333" y="469.1067265192087" width="6.095833333333334" height="5.89327348079133" fill="#ff4444" opacity="0.35"/>
<rect x="549.3291666666667" y="464.94241611403476" width="6.095833333333334" height="10.057583885965265" fill="#ff4444" opacity="0.35"/>
<rect x="560.4124999999999" y="461.0151914672184" width="6.095833333333334" height="13.98480853278158" fill="#ff4444" opacity="0.35"/>
<rect x="571.4958333333333" y="459.1856208320298" width="6.095833333333334" height="15.814379167970165" fill="#ff4444" opacity="0.35"/>
<rect x="582.5791666666667" y="462.866684734969" width="6.095833333333334" height="12.13331526503102" fill="#44aa44" opacity="0.35"/>
<rect x="593.6624999999999" y="465.47342906436137" width="6.095833333333334" height="9.526570935638643" fill="#44aa44" opacity="0.35"/>
<rect x="604.7458333333333" y="465.537241249005" width="6.095833333333334" height="9.462758750995047" fill="#ff4444" opacity="0.35"/>
<rect x="615.8291666666667" y="465.3677284117343" width="6.095833333333334" height="9.632271588265722" fill="#44aa44" opacity="0.35"/>
<rect x="626.9124999999999" y="455.1768589960012" width="6.095833333333334" height="19.823141003998774" fill="#ff4444" opacity="0.35"/>
<rect x="637.9958333333333" y="446.3698419384914" width="6.095833333333334" height="28.63015806150863" fill="#ff4444" opacity="0.35"/>
<rect x="649.0791666666667" y="449.31153573342334" width="6.095833333333334" height="25.688464266576638" fill="#ff4444" opacity="0.35"/>
<rect x="660.1624999999999" y="449.82095344882595" width="6.095833333333334" height="25.17904655117408" fill="#ff4444" opacity="0.35"/>
<rect x="671.2458333333333" y="444.3176376572329" width="6.095833333333334" height="30.682362342767053" fill="#ff4444" opacity="0.35"/>
<rect x="682.3291666666667" y="444.2702625685692" width="6.095833333333334" height="30.72973743143079" fill="#ff4444" opacity="0.35"/>
<rect x="693.4124999999999" y="440.0" width="6.095833333333334" height="35.0" fill="#ff4444" opacity="0.35"/>
<rect x="704.4958333333333" y="443.20058293505633" width="6.095833333333334" height="31.799417064943672" fill="#44aa44" opacity="0.35"/>
<rect x="715.5791666666667" y="448.471901724955" width="6.095833333333334" height="26.52809827504499" fill="#44aa44" opacity="0.25" stroke-dasharray="3,2"/>
<polyline points="65.54166666666667,284.17152815997065 76.625,290.14382682076683 87.70833333333334,308.7633461750138 98.79166666666667,321.4105668684645 109.87500000000001,324.66605515807504 120.95833333333334,330.0684481950305 132.04166666666666,336.80842794730154 143.125,335.3528699004147 154.20833333333334,336.81825889159916 165.29166666666666,340.58225759409373 176.375,346.1128705614144 187.45833333333334,351.39255884917384 198.54166666666666,359.6199276324646 209.625,362.7627622484639 220.70833333333334,372.68052553248657 231.79166666666666,383.5081079529853 242.875,388.73573001305243 253.95833333333334,392.31449450267826 265.0416666666667,389.9459193461871 276.12500000000006,391.17736272929324 287.20833333333337,391.6235925197062 298.2916666666667,391.4058219072853 309.37500000000006,393.29824927739406 320.45833333333337,387.58047536367326 331.5416666666667,389.5067169580362 342.62500000000006,389.385631277228 353.70833333333337,392.8882866865004 364.7916666666667,382.8103773898506 375.87500000000006,381.38486726008387 386.95833333333337,373.31461033874115 398.0416666666667,363.88264428012934 409.12500000000006,358.0396617098985 420.20833333333337,356.2990516701103 431.2916666666667,349.8923904670423 442.37500000000006,342.8107895108968 453.45833333333337,339.4481273923927 464.5416666666667,341.5626175522452 475.62500000000006,342.1525503916454 486.70833333333337,349.19734020483816 497.7916666666667,360.05353164025837 508.87500000000006,363.0284108079311 519.9583333333334,370.49212588687493 531.0416666666666,372.30613076614134 542.125,369.8384050395935 553.2083333333334,363.8838312078303 564.2916666666666,348.0163595565197 575.375,334.1122944955163 586.4583333333334,326.5760554387647 597.5416666666666,321.9032077535261 608.625,317.33588766152644 619.7083333333334,320.7083010631665 630.7916666666666,313.37747802792404 641.875,293.50096407145037 652.9583333333334,267.81352108524135 664.0416666666666,246.07466561923195 675.125,215.3749161976926 686.2083333333334,174.8836504853693 697.2916666666666,147.56158243695324 708.375,132.39157168272877 719.4583333333334,132.79416097872615" fill="none" stroke="#ffd700" stroke-width="1" opacity="0.7"/>
<polyline points="65.54166666666667,284.17152815997065 76.625,287.4291456113141 87.70833333333334,298.07882547898566 98.79166666666667,306.91994962014576 109.87500000000001,311.33032818690026 120.95833333333334,316.7017656563623 132.04166666666666,322.8084241646317 143.125,324.55993864499703 154.20833333333334,327.3215928684464 165.29166666666666,331.10134961947114 176.375,335.84184905157747 187.45833333333334,340.589137483053 198.54166666666666,347.0410516132336 209.625,351.0423934072752 220.70833333333334,358.58305862423094 231.79166666666666,367.0521884732768 242.875,372.89560404780576 253.95833333333334,377.72768030855565 265.0416666666667,379.08787825849186 276.12500000000006,381.7337639379489 287.20833333333337,383.6941799675094 298.2916666666667,385.0171073702247 309.37500000000006,387.2109249424769 320.45833333333337,385.1989254140687 331.5416666666667,386.6826117291039 342.62500000000006,387.13003867210534 353.70833333333337,389.45068573263984 364.7916666666667,384.57866265335093 375.87500000000006,383.4796052619326 386.95833333333337,378.6967854863187 398.0416666666667,372.5734994275163 409.12500000000006,367.8062625442292 420.20833333333337,365.08109327992094 431.2916666666667,359.9898159673728 442.37500000000006,354.29122899123337 453.45833333333337,350.369697021079 464.5416666666667,349.537315357601 475.62500000000006,348.40915185084555 486.70833333333337,351.1142005745506 497.7916666666667,356.6872394721048 508.87500000000006,358.92195395777236 519.9583333333334,363.7396997917706 531.0416666666666,365.95687083411667 542.125,365.7652495163679 553.2083333333334,363.2578738850835 564.2916666666666,354.71669977032263 575.375,345.9144206072657 586.4583333333334,339.6579036469012 597.5416666666666,334.73055978074626 608.625,329.90704845288826 619.7083333333334,329.4608810735352 630.7916666666666,323.8708721433358 641.875,311.12124741882076 652.9583333333334,293.9062269995485 664.0416666666666,277.30454112457846 675.125,254.88106407549395 686.2083333333334,225.61198316371738 697.2916666666666,201.48570374124535 708.375,183.4067667290699 719.4583333333334,174.35087088209735" fill="none" stroke="#ff6b6b" stroke-width="1" opacity="0.7"/>
<polyline points="65.54166666666667,284.17152815997065 76.625,285.8778992059125 87.70833333333334,291.60404069901676 98.79166666666667,296.8517518948595 109.87500000000001,300.1208261655677 120.95833333333334,304.0020078896986 132.04166666666666,308.41023451466475 143.125,310.6989506377101 154.20833333333334,313.4656255173537 165.29166666666666,316.7651140394231 176.375,320.6135885591024 187.45833333333334,324.5505739748729 198.54166666666666,329.4576302819371 209.625,333.2281827770347 220.70833333333334,338.87464652212964 231.79166666666666,345.1878490242109 242.875,350.3310037964943 253.95833333333334,355.0111009093929 265.0416666666667,357.8870693021369 276.12500000000006,361.2921340824577 287.20833333333337,364.26584056036955 298.2916666666667,366.8091205719956 309.37500000000006,369.6923570906257 320.45833333333337,370.3068876092549 331.5416666666667,372.50234594616035 342.62500000000006,374.087213943251 353.70833333333337,376.54496475865994 364.7916666666667,375.22206895274485 375.87500000000006,375.5374763858691 386.95833333333337,373.7885830630298 398.0416666666667,371.0485953582561 409.12500000000006,368.69670023551134 420.20833333333337,367.18442703122776 431.2916666666667,364.31724998643523 442.37500000000006,360.92013928283245 453.45833333333337,358.234678699266 464.5416666666667,357.0496233823788 475.62500000000006,355.74322268600423 486.70833333333337,356.461670033168 497.7916666666667,358.8715980786852 508.87500000000006,359.8341286562653 519.9583333333334,362.27083602659843 531.0416666666666,363.5721031216532 542.125,363.6988507849718 553.2083333333334,362.58226342871774 564.2916666666666,358.1726589358778 575.375,353.2328023108904 586.4583333333334,349.25859040749714 597.5416666666666,345.76324964326403 608.625,342.18591610366997 619.7083333333334,340.7827934144106 630.7916666666666,336.7764161327943 641.875,328.86894184952837 652.9583333333334,318.1612935888898 664.0416666666666,307.1551660744445 675.125,292.5666185773178 686.2083333333334,273.6460948138325 697.2916666666666,256.433842578241 708.375,241.73076711119708 719.4583333333334,231.432535916866" fill="none" stroke="#4ecdc4" stroke-width="1" opacity="0.7"/>
<line x1="65.54166666666667" y1="271.4540451293341" x2="65.54166666666667" y2="289.37094111172263" stroke="#ff4444" stroke-width="0.5" opacity="0.6"/>
<rect x="63.04791666666667" y="284.17152815997065" width="4.987500000000001" height="2.599706475875905" fill="#ff4444" opacity="0.8" rx="1"/>
<line x1="76.625" y1="292.25169693634194" x2="76.625" y2="305.7420656760228" stroke="#44aa44" stroke-width="0.5" opacity="0.6"/>
<rect x="74.13125" y="298.715831957439" width="4.987500000000001" height="3.372592184920279" fill="#44aa44" opacity="0.8" rx="1"/>
<line x1="87.70833333333334" y1="292.8840579710145" x2="87.70833333333334" y2="346.07264722069345" stroke="#44aa44" stroke-width="0.5" opacity="0.6"/>
<rect x="85.21458333333334" y="301.73711245643005" width="4.987500000000001" height="44.265272427077605" fill="#44aa44" opacity="0.8" rx="1"/>
<line x1="98.79166666666667" y1="335.74408365437534" x2="98.79166666666667" y2="354.0825536598789" stroke="#ff4444" stroke-width="0.5" opacity="0.6"/>
<rect x="96.29791666666667" y="346.705008255366" width="4.987500000000001" height="4.707576591451129" fill="#ff4444" opacity="0.8" rx="1"/>
<line x1="109.87500000000001" y1="325.2749954136856" x2="109.87500000000001" y2="338.9761511649239" stroke="#ff4444" stroke-width="0.5" opacity="0.6"/>
<rect x="107.38125000000001" y="331.1770317372959" width="4.987500000000001" height="3.51311685929187" fill="#ff4444" opacity="0.8" rx="1"/>
<line x1="120.95833333333334" y1="329.98257200513666" x2="120.95833333333334" y2="342.13795633828664" stroke="#44aa44" stroke-width="0.5" opacity="0.6"/>
<rect x="118.46458333333334" y="333.84700055035773" width="4.987500000000001" height="7.02623371858374" fill="#44aa44" opacity="0.8" rx="1"/>
<line x1="132.04166666666666" y1="344.45661346541925" x2="132.04166666666666" y2="371.0860392588516" stroke="#ff4444" stroke-width="0.5" opacity="0.6"/>
<rect x="129.54791666666665" y="350.28838745184373" width="4.987500000000001" height="12.366171344707311" fill="#ff4444" opacity="0.8" rx="1"/>
<line x1="143.125" y1="330.33388369106586" x2="143.125" y2="345.15923683727755" stroke="#ff4444" stroke-width="0.5" opacity="0.6"/>
<rect x="140.63125" y="332.441753806641" width="4.987500000000001" height="8.080168776371352" fill="#ff4444" opacity="0.8" rx="1"/>
<line x1="154.20833333333334" y1="323.58869932122553" x2="154.20833333333334" y2="341.6461199779857" stroke="#44aa44" stroke-width="0.5" opacity="0.6"/>
<rect x="151.71458333333334" y="333.7064758759861" width="4.987500000000001" height="6.0425609979820365" fill="#44aa44" opacity="0.8" rx="1"/>
<line x1="165.29166666666666" y1="334.33883691065853" x2="165.29166666666666" y2="354.8554393689231" stroke="#44aa44" stroke-width="0.5" opacity="0.6"/>
<rect x="162.79791666666665" y="340.8732342689415" width="4.987500000000001" height="7.237020730141296" fill="#44aa44" opacity="0.8" rx="1"/>
<line x1="176.375" y1="343.683727756375" x2="176.375" y2="358.79013025133" stroke="#44aa44" stroke-width="0.5" opacity="0.6"/>
<rect x="173.88125" y="355.06622638048066" width="4.987500000000001" height="2.1078701155750537" fill="#44aa44" opacity="0.8" rx="1"/>
<line x1="187.45833333333334" y1="357.1740964960557" x2="187.45833333333334" y2="372.42102366538245" stroke="#44aa44" stroke-width="0.5" opacity="0.6"/>
<rect x="184.96458333333334" y="357.1740964960557" width="4.987500000000001" height="4.777838928637038" fill="#44aa44" opacity="0.8" rx="1"/>
<line x1="198.54166666666666" y1="351.5531095211888" x2="198.54166666666666" y2="376.6367638965328" stroke="#44aa44" stroke-width="0.5" opacity="0.6"/>
<rect x="196.04791666666665" y="355.6283250779673" width="4.987500000000001" height="20.446340121078777" fill="#44aa44" opacity="0.8" rx="1"/>
<line x1="209.625" y1="367.57292239955973" x2="209.625" y2="376.0044028618602" stroke="#ff4444" stroke-width="0.5" opacity="0.6"/>
<rect x="207.13125" y="369.04843148046234" width="4.987500000000001" height="4.004953219592721" fill="#ff4444" opacity="0.8" rx="1"/>
<line x1="220.70833333333334" y1="377.409649605577" x2="220.70833333333334" y2="395.60759493670895" stroke="#44aa44" stroke-width="0.5" opacity="0.6"/>
<rect x="218.21458333333334" y="383.873784626674" width="4.987500000000001" height="8.642267473857999" fill="#44aa44" opacity="0.8" rx="1"/>
<line x1="231.79166666666666" y1="383.80352228948817" x2="231.79166666666666" y2="406.4982572005137" stroke="#44aa44" stroke-width="0.5" opacity="0.6"/>
<rect x="229.29791666666665" y="388.4408365437534" width="4.987500000000001" height="16.722436250229407" fill="#44aa44" opacity="0.8" rx="1"/>
<line x1="242.875" y1="371.92918730508165" x2="242.875" y2="406.7090442120712" stroke="#ff4444" stroke-width="0.5" opacity="0.6"/>
<rect x="240.38125" y="399.19097413318656" width="4.987500000000001" height="4.918363603008629" fill="#ff4444" opacity="0.8" rx="1"/>
<line x1="253.95833333333334" y1="385.63034305632" x2="253.95833333333334" y2="415.0" stroke="#44aa44" stroke-width="0.5" opacity="0.6"/>
<rect x="251.46458333333334" y="388.5813612181252" width="4.987500000000001" height="10.890662263804757" fill="#44aa44" opacity="0.8" rx="1"/>
<line x1="265.0416666666667" y1="380.92276646486886" x2="265.0416666666667" y2="407.4819299211154" stroke="#ff4444" stroke-width="0.5" opacity="0.6"/>
<rect x="262.5479166666667" y="385.20876903320493" width="4.987500000000001" height="12.01485965877822" fill="#ff4444" opacity="0.8" rx="1"/>
<line x1="276.12500000000006" y1="372.63181067694" x2="276.12500000000006" y2="396.0291689598239" stroke="#44aa44" stroke-width="0.5" opacity="0.6"/>
<rect x="273.6312500000001" y="382.6793248945148" width="4.987500000000001" height="10.960924600990609" fill="#44aa44" opacity="0.8" rx="1"/>
<line x1="287.20833333333337" y1="387.38690148596595" x2="287.20833333333337" y2="404.88222344523945" stroke="#ff4444" stroke-width="0.5" opacity="0.6"/>
<rect x="284.7145833333334" y="392.516052100532" width="4.987500000000001" height="11.593285635663165" fill="#ff4444" opacity="0.8" rx="1"/>
<line x1="298.2916666666667" y1="383.2414235920015" x2="298.2916666666667" y2="408.1142909557879" stroke="#ff4444" stroke-width="0.5" opacity="0.6"/>
<rect x="295.7979166666667" y="390.97028068244356" width="4.987500000000001" height="16.652173913043498" fill="#ff4444" opacity="0.8" rx="1"/>
<line x1="309.37500000000006" y1="379.587782058338" x2="309.37500000000006" y2="397.0831040176115" stroke="#44aa44" stroke-width="0.5" opacity="0.6"/>
<rect x="306.8812500000001" y="392.7268391120895" width="4.987500000000001" height="4.356264905521982" fill="#44aa44" opacity="0.8" rx="1"/>
<line x1="320.45833333333337" y1="374.6694184553293" x2="320.45833333333337" y2="388.65162355531095" stroke="#ff4444" stroke-width="0.5" opacity="0.6"/>
<rect x="317.9645833333334" y="376.1449275362319" width="4.987500000000001" height="10.398825903503962" fill="#ff4444" opacity="0.8" rx="1"/>
<line x1="331.5416666666667" y1="372.49128600256836" x2="331.5416666666667" y2="396.7317923316823" stroke="#44aa44" stroke-width="0.5" opacity="0.6"/>
<rect x="329.0479166666667" y="377.409649605577" width="4.987500000000001" height="15.94955054118509" fill="#44aa44" opacity="0.8" rx="1"/>
<line x1="342.62500000000006" y1="388.08952485782424" x2="342.62500000000006" y2="401.22858191157593" stroke="#ff4444" stroke-width="0.5" opacity="0.6"/>
<rect x="340.1312500000001" y="389.14345991561186" width="4.987500000000001" height="4.145477893964312" fill="#ff4444" opacity="0.8" rx="1"/>
<line x1="353.70833333333337" y1="387.2463768115942" x2="353.70833333333337" y2="405.514584479912" stroke="#44aa44" stroke-width="0.5" opacity="0.6"/>
<rect x="351.2145833333334" y="387.31663914878004" width="4.987500000000001" height="12.576958356264981" fill="#44aa44" opacity="0.8" rx="1"/>
<line x1="364.7916666666667" y1="362.0924600990644" x2="364.7916666666667" y2="379.09594569803704" stroke="#ff4444" stroke-width="0.5" opacity="0.6"/>
<rect x="362.2979166666667" y="362.65455879655104" width="4.987500000000001" height="16.441386901486" fill="#ff4444" opacity="0.8" rx="1"/>
<line x1="375.87500000000006" y1="368.97816914327643" x2="375.87500000000006" y2="382.74958723170056" stroke="#44aa44" stroke-width="0.5" opacity="0.6"/>
<rect x="373.3812500000001" y="372.8425976884975" width="4.987500000000001" height="5.691249312052889" fill="#44aa44" opacity="0.8" rx="1"/>
<line x1="386.95833333333337" y1="342.348743349844" x2="386.95833333333337" y2="368.90790680609064" stroke="#ff4444" stroke-width="0.5" opacity="0.6"/>
<rect x="384.4645833333334" y="357.1740964960557" width="4.987500000000001" height="10.117776554760724" fill="#ff4444" opacity="0.8" rx="1"/>
<line x1="398.0416666666667" y1="333.91726288754364" x2="398.0416666666667" y2="367.3621353880022" stroke="#ff4444" stroke-width="0.5" opacity="0.6"/>
<rect x="395.5479166666667" y="345.0187121629059" width="4.987500000000001" height="20.305815446707015" fill="#ff4444" opacity="0.8" rx="1"/>
<line x1="409.12500000000006" y1="339.32746285085307" x2="409.12500000000006" y2="358.36855622821497" stroke="#44aa44" stroke-width="0.5" opacity="0.6"/>
<rect x="406.6312500000001" y="340.31113557145477" width="4.987500000000001" height="6.0425609979820365" fill="#44aa44" opacity="0.8" rx="1"/>
<line x1="420.20833333333337" y1="337.4303797468355" x2="420.20833333333337" y2="355.76884975233907" stroke="#44aa44" stroke-width="0.5" opacity="0.6"/>
<rect x="417.7145833333334" y="342.2082186754724" width="4.987500000000001" height="10.609612915061462" fill="#44aa44" opacity="0.8" rx="1"/>
<line x1="431.2916666666667" y1="330.4041460282517" x2="431.2916666666667" y2="349.1641900568703" stroke="#ff4444" stroke-width="0.5" opacity="0.6"/>
<rect x="428.7979166666667" y="337.07906806090625" width="4.987500000000001" height="5.972298660796241" fill="#ff4444" opacity="0.8" rx="1"/>
<line x1="442.37500000000006" y1="323.2373876352963" x2="442.37500000000006" y2="341.7866446523573" stroke="#ff4444" stroke-width="0.5" opacity="0.6"/>
<rect x="439.8812500000001" y="328.6475875986058" width="4.987500000000001" height="12.225646670335664" fill="#ff4444" opacity="0.8" rx="1"/>
<line x1="453.45833333333337" y1="318.24876169510185" x2="453.45833333333337" y2="338.55457714180886" stroke="#44aa44" stroke-width="0.5" opacity="0.6"/>
<rect x="450.9645833333334" y="319.9350577875619" width="4.987500000000001" height="12.787745367822481" fill="#44aa44" opacity="0.8" rx="1"/>
<line x1="464.5416666666667" y1="335.2522472940745" x2="464.5416666666667" y2="354.8554393689231" stroke="#44aa44" stroke-width="0.5" opacity="0.6"/>
<rect x="462.0479166666667" y="336.65749403779125" width="4.987500000000001" height="9.134103834158907" fill="#44aa44" opacity="0.8" rx="1"/>
<line x1="475.62500000000006" y1="336.44670702623375" x2="475.62500000000006" y2="350.0073381031003" stroke="#ff4444" stroke-width="0.5" opacity="0.6"/>
<rect x="473.1312500000001" y="343.33241607044573" width="4.987500000000001" height="5.199412951752038" fill="#ff4444" opacity="0.8" rx="1"/>
<line x1="486.70833333333337" y1="341.50559530361403" x2="486.70833333333337" y2="367.50266006237393" stroke="#44aa44" stroke-width="0.5" opacity="0.6"/>
<rect x="484.2145833333334" y="344.38635112823334" width="4.987500000000001" height="18.900568702990256" fill="#44aa44" opacity="0.8" rx="1"/>
<line x1="497.7916666666667" y1="358.5793432397725" x2="497.7916666666667" y2="389.98660796184186" stroke="#44aa44" stroke-width="0.5" opacity="0.6"/>
<rect x="495.2979166666667" y="367.50266006237393" width="4.987500000000001" height="14.263254448724865" fill="#44aa44" opacity="0.8" rx="1"/>
<line x1="508.87500000000006" y1="361.2493120528344" x2="508.87500000000006" y2="382.5388002201432" stroke="#ff4444" stroke-width="0.5" opacity="0.6"/>
<rect x="506.3812500000001" y="368.97816914327643" width="4.987500000000001" height="13.560631076866741" fill="#ff4444" opacity="0.8" rx="1"/>
<line x1="519.9583333333334" y1="370.2428912126216" x2="519.9583333333334" y2="388.30031186938174" stroke="#44aa44" stroke-width="0.5" opacity="0.6"/>
<rect x="517.4645833333334" y="373.8965327462851" width="4.987500000000001" height="11.52302329847737" fill="#44aa44" opacity="0.8" rx="1"/>
<line x1="531.0416666666666" y1="371.9994496422675" x2="531.0416666666666" y2="389.98660796184186" stroke="#ff4444" stroke-width="0.5" opacity="0.6"/>
<rect x="528.5479166666667" y="375.9341405246743" width="4.987500000000001" height="13.911942762795888" fill="#ff4444" opacity="0.8" rx="1"/>
<line x1="542.125" y1="359.35222894881673" x2="542.125" y2="379.2364703724087" stroke="#ff4444" stroke-width="0.5" opacity="0.6"/>
<rect x="539.63125" y="364.9029535864979" width="4.987500000000001" height="9.063841496972941" fill="#ff4444" opacity="0.8" rx="1"/>
<line x1="553.2083333333334" y1="332.7228031553844" x2="553.2083333333334" y2="364.76242891212627" stroke="#ff4444" stroke-width="0.5" opacity="0.6"/>
<rect x="550.7145833333334" y="351.9746835443038" width="4.987500000000001" height="9.90698954320311" fill="#ff4444" opacity="0.8" rx="1"/>
<line x1="564.2916666666666" y1="312.7682993946065" x2="564.2916666666666" y2="352.11520821867543" stroke="#ff4444" stroke-width="0.5" opacity="0.6"/>
<rect x="561.7979166666667" y="316.2814162538984" width="4.987500000000001" height="30.423592001467625" fill="#ff4444" opacity="0.8" rx="1"/>
<line x1="575.375" y1="291.5490735644836" x2="575.375" y2="323.6589616584113" stroke="#ff4444" stroke-width="0.5" opacity="0.6"/>
<rect x="572.88125" y="306.3041643735094" width="4.987500000000001" height="9.977251880388962" fill="#ff4444" opacity="0.8" rx="1"/>
<line x1="586.4583333333334" y1="304.12603192074846" x2="586.4583333333334" y2="319.8647954503761" stroke="#44aa44" stroke-width="0.5" opacity="0.6"/>
<rect x="583.9645833333334" y="306.5149513850669" width="4.987500000000001" height="4.988625940194424" fill="#44aa44" opacity="0.8" rx="1"/>
<line x1="597.5416666666666" y1="301.59658778205835" x2="597.5416666666666" y2="318.3190240322877" stroke="#44aa44" stroke-width="0.5" opacity="0.6"/>
<rect x="595.0479166666667" y="305.3907539900936" width="4.987500000000001" height="7.166758392955387" fill="#44aa44" opacity="0.8" rx="1"/>
<line x1="608.625" y1="304.82865529260687" x2="608.625" y2="327.45312786644655" stroke="#ff4444" stroke-width="0.5" opacity="0.6"/>
<rect x="606.13125" y="308.20124747752703" width="4.987500000000001" height="11.593285635663221" fill="#ff4444" opacity="0.8" rx="1"/>
<line x1="619.7083333333334" y1="302.158686479545" x2="619.7083333333334" y2="327.5936525408182" stroke="#44aa44" stroke-width="0.5" opacity="0.6"/>
<rect x="617.2145833333334" y="306.65547605943857" width="4.987500000000001" height="20.79765180700798" fill="#44aa44" opacity="0.8" rx="1"/>
<line x1="630.7916666666666" y1="277.6371308016877" x2="630.7916666666666" y2="335.2522472940745" stroke="#ff4444" stroke-width="0.5" opacity="0.6"/>
<rect x="628.2979166666667" y="298.715831957439" width="4.987500000000001" height="30.91542836176859" fill="#ff4444" opacity="0.8" rx="1"/>
<line x1="641.875" y1="244.4733076499725" x2="641.875" y2="312.7682993946065" stroke="#ff4444" stroke-width="0.5" opacity="0.6"/>
<rect x="639.38125" y="253.74793615850297" width="4.987500000000001" height="47.77838928636953" fill="#ff4444" opacity="0.8" rx="1"/>
<line x1="652.9583333333334" y1="202.5969546872133" x2="652.9583333333334" y2="263.2333516785911" stroke="#ff4444" stroke-width="0.5" opacity="0.6"/>
<rect x="650.4645833333334" y="216.43863511282336" width="4.987500000000001" height="40.611630893413974" fill="#ff4444" opacity="0.8" rx="1"/>
<line x1="664.0416666666666" y1="170.768115942029" x2="664.0416666666666" y2="242.50596220876903" stroke="#ff4444" stroke-width="0.5" opacity="0.6"/>
<rect x="661.5479166666667" y="202.5969546872133" width="4.987500000000001" height="25.997064758759876" fill="#ff4444" opacity="0.8" rx="1"/>
<line x1="675.125" y1="106.54833975417355" x2="675.125" y2="214.40102733443402" stroke="#ff4444" stroke-width="0.5" opacity="0.6"/>
<rect x="672.63125" y="153.97541735461385" width="4.987500000000001" height="46.23261786828104" fill="#ff4444" opacity="0.8" rx="1"/>
<line x1="686.2083333333334" y1="72.40084388185655" x2="686.2083333333334" y2="168.87103283801133" stroke="#ff4444" stroke-width="0.5" opacity="0.6"/>
<rect x="683.7145833333334" y="93.90111906072272" width="4.987500000000001" height="57.263804806457586" fill="#ff4444" opacity="0.8" rx="1"/>
<line x1="697.2916666666666" y1="32.0" x2="697.2916666666666" y2="105.49440469638596" stroke="#ff4444" stroke-width="0.5" opacity="0.6"/>
<rect x="694.7979166666667" y="92.917446340121" width="4.987500000000001" height="2.0376077783893294" fill="#ff4444" opacity="0.8" rx="1"/>
<line x1="708.375" y1="51.39240506329108" x2="708.375" y2="122.98972665565944" stroke="#44aa44" stroke-width="0.5" opacity="0.6"/>
<rect x="705.88125" y="87.9288203999266" width="4.987500000000001" height="14.12272977435336" fill="#44aa44" opacity="0.8" rx="1"/>
<line x1="719.4583333333334" y1="85.39937626123644" x2="719.4583333333334" y2="143.36580443955236" stroke="#44aa44" stroke-width="0.5" opacity="0.3" stroke-dasharray="4,3"/>
<rect x="716.9645833333334" y="114.20693450742976" width="4.987500000000001" height="19.392405063291164" fill="#44aa44" opacity="0.4" stroke-dasharray="4,3" rx="1"/>
<text x="739.4583333333334" y="127.59933957072093" font-family="sans-serif" font-size="9" fill="#ffd700" opacity="0.8">🕐 盘中</text>
<line x1="420.20833333333337" y1="355.76884975233907" x2="420.20833333333337" y2="320.76884975233907" stroke="#4ecdc4" stroke-width="0.8" stroke-dasharray="2,2" opacity="0.7"/>
<rect x="384.20833333333337" y="311.76884975233907" width="72" height="16" fill="#4ecdc4" opacity="0.85" rx="3"/>
<text x="420.20833333333337" y="323.76884975233907" text-anchor="middle" font-family="sans-serif" font-size="9" fill="#000000" font-weight="bold">B1乖离买入</text>
<polygon points="420.20833333333337,361.76884975233907 416.20833333333337,355.76884975233907 424.20833333333337,355.76884975233907" fill="#4ecdc4" opacity="0.9"/>
<line x1="453.45833333333337" y1="338.55457714180886" x2="453.45833333333337" y2="288.55457714180886" stroke="#4ecdc4" stroke-width="0.8" stroke-dasharray="2,2" opacity="0.7"/>
<rect x="417.45833333333337" y="279.55457714180886" width="72" height="16" fill="#4ecdc4" opacity="0.85" rx="3"/>
<text x="453.45833333333337" y="291.55457714180886" text-anchor="middle" font-family="sans-serif" font-size="9" fill="#000000" font-weight="bold">B2乖离买入</text>
<polygon points="453.45833333333337,344.55457714180886 449.45833333333337,338.55457714180886 457.45833333333337,338.55457714180886" fill="#4ecdc4" opacity="0.9"/>
<line x1="542.125" y1="379.2364703724087" x2="542.125" y2="314.2364703724087" stroke="#4ecdc4" stroke-width="0.8" stroke-dasharray="2,2" opacity="0.7"/>
<rect x="506.125" y="305.2364703724087" width="72" height="16" fill="#4ecdc4" opacity="0.85" rx="3"/>
<text x="542.125" y="317.2364703724087" text-anchor="middle" font-family="sans-serif" font-size="9" fill="#000000" font-weight="bold">B3乖离买入</text>
<polygon points="542.125,385.2364703724087 538.125,379.2364703724087 546.125,379.2364703724087" fill="#4ecdc4" opacity="0.9"/>
<line x1="597.5416666666666" y1="318.3190240322877" x2="597.5416666666666" y2="238.3190240322877" stroke="#4ecdc4" stroke-width="0.8" stroke-dasharray="2,2" opacity="0.7"/>
<rect x="561.5416666666666" y="229.3190240322877" width="72" height="16" fill="#4ecdc4" opacity="0.85" rx="3"/>
<text x="597.5416666666666" y="241.3190240322877" text-anchor="middle" font-family="sans-serif" font-size="9" fill="#000000" font-weight="bold">B4乖离买入</text>
<polygon points="597.5416666666666,324.3190240322877 593.5416666666666,318.3190240322877 601.5416666666666,318.3190240322877" fill="#4ecdc4" opacity="0.9"/>
<line x1="719.4583333333334" y1="143.36580443955236" x2="719.4583333333334" y2="48.36580443955236" stroke="#4ecdc4" stroke-width="0.8" stroke-dasharray="2,2" opacity="0.7"/>
<rect x="683.4583333333334" y="39.36580443955236" width="72" height="16" fill="#4ecdc4" opacity="0.85" rx="3"/>
<text x="719.4583333333334" y="51.36580443955236" text-anchor="middle" font-family="sans-serif" font-size="9" fill="#000000" font-weight="bold">B5乖离买入</text>
<polygon points="719.4583333333334,149.36580443955236 715.4583333333334,143.36580443955236 723.4583333333334,143.36580443955236" fill="#4ecdc4" opacity="0.9"/>
<line x1="675.125" y1="106.54833975417355" x2="675.125" y2="125.54833975417355" stroke="#e94560" stroke-width="0.8" stroke-dasharray="2,2" opacity="0.7"/>
<rect x="641.125" y="132.54833975417355" width="68" height="16" fill="#e94560" opacity="0.85" rx="3"/>
<text x="675.125" y="144.54833975417355" text-anchor="middle" font-family="sans-serif" font-size="9" fill="#ffffff" font-weight="bold">W1警戒⚠️</text>
<polygon points="675.125,100.54833975417355 671.125,106.54833975417355 679.125,106.54833975417355" fill="#e94560" opacity="0.9"/>
<text x="375.0" y="435" text-anchor="middle" font-family="sans-serif" font-size="10" fill="#aaaaaa">✅ BIAS5=-0.10%，乖离率买入区，可逢低吸纳</text>
<rect x="60" y="443" width="665" height="55" fill="#111122" opacity="0.5" rx="2"/>
<rect x="60" y="443" width="665" height="16.96666666666664" fill="#e94560" opacity="0.18" rx="2"/>
<rect x="60" y="459.96666666666664" width="665" height="9.400000000000034" fill="#ffd700" opacity="0.12"/>
<rect x="60" y="469.3666666666667" width="665" height="30.633333333333326" fill="#4ecdc4" opacity="0.14"/>
<text x="670" y="454.48333333333335" text-anchor="end" font-family="sans-serif" font-size="9" fill="#e94560" font-weight="bold">⚠️ 警戒区</text>
<text x="670" y="467.66666666666663" text-anchor="end" font-family="sans-serif" font-size="9" fill="#ffd700">持有区</text>
<text x="670" y="487.68333333333334" text-anchor="end" font-family="sans-serif" font-size="9" fill="#4ecdc4">买入区</text>
<line x1="60" y1="472.5" x2="725" y2="472.5" stroke="#888888" stroke-width="0.5" stroke-dasharray="3,2" opacity="0.5"/>
<text x="56" y="475.5" text-anchor="end" font-family="sans-serif" font-size="7" fill="#888888">0%</text>
<line x1="60" y1="469.3666666666667" x2="725" y2="469.3666666666667" stroke="#4ecdc4" stroke-width="0.5" stroke-dasharray="3,2" opacity="0.5"/>
<text x="56" y="472.3666666666667" text-anchor="end" font-family="sans-serif" font-size="7" fill="#4ecdc4">2%</text>
<line x1="60" y1="459.96666666666664" x2="725" y2="459.96666666666664" stroke="#e94560" stroke-width="0.5" stroke-dasharray="3,2" opacity="0.5"/>
<text x="56" y="462.96666666666664" text-anchor="end" font-family="sans-serif" font-size="7" fill="#e94560">8%</text>
<text x="60" y="445" font-family="sans-serif" font-size="8" fill="#888888">BIAS5</text>
<polyline points="65.54166666666667,472.5 76.625,475.45204315377225 87.70833333333334,481.98193825891667 98.79166666666667,479.07572577824413 109.87500000000001,474.2018339064291 120.95833333333334,475.34983264111594 132.04166666666666,476.0962338955311 143.125,471.72528182821935 154.20833333333334,473.2818969756295 165.29166666666666,474.52133707670714 176.375,475.498463691628 187.45833333333334,475.3888134212963 198.54166666666666,477.06727258336724 209.625,474.2544559535615 220.70833333333334,478.13607962674376 231.79166666666666,478.77636556812496 242.875,475.5598592279407 253.95833333333334,474.6088395648737 265.0416666666667,471.11047182287547 276.12500000000006,473.22409760750065 287.20833333333337,472.76260624847276 298.2916666666667,472.371894383495 309.37500000000006,473.6172075609109 320.45833333333337,469.1604495433222 331.5416666666667,473.6291040484309 342.62500000000006,472.42903934263404 353.70833333333337,474.5662208131008 364.7916666666667,466.66572422184777 375.87500000000006,471.6769153889334 386.95833333333337,467.90854347930883 398.0416666666667,467.2241730605619 409.12500000000006,469.2654315932204 420.20833333333337,471.53938418875396 431.2916666666667,469.0037155928503 442.37500000000006,468.6824681185927 453.45833333333337,470.69769138770755 464.5416666666667,473.63743155673103 475.62500000000006,472.8176597905455 486.70833333333337,476.33987967505163 497.7916666666667,478.53124846226774 508.87500000000006,474.1614828595843 519.9583333333334,476.72472185877206 531.0416666666666,473.53016558079605 542.125,471.1048291813754 553.2083333333334,469.1692662585292 564.2916666666666,463.86890283433814 575.375,465.1151484506902 586.4583333333334,468.54777342253186 597.5416666666666,470.0684377609173 608.625,470.14124139056946 619.7083333333334,474.25139299322313 630.7916666666666,468.73859146363225 641.875,462.62294402677844 652.9583333333334,460.2350244437089 664.0416666666666,462.45317183111746 675.125,458.92643653241595 686.2083333333334,455.56483927596105 697.2916666666666,461.474841757344 708.375,466.49581174635136 719.4583333333334,472.6594232092296" fill="none" stroke="#4ecdc4" stroke-width="1.5" opacity="0.9"/>
<circle cx="719.4583333333334" cy="472.6594232092296" r="3" fill="#4ecdc4" opacity="1"/>
<text x="724.4583333333334" y="475.6594232092296" font-family="sans-serif" font-size="9" fill="#4ecdc4" font-weight="bold">BIAS5=-0.1%</text>
<text x="65.54166666666667" y="489" text-anchor="middle" font-family="sans-serif" font-size="8" fill="#666666" transform="rotate(-45,65.54166666666667,489)">02/27</text>
<text x="120.95833333333334" y="489" text-anchor="middle" font-family="sans-serif" font-size="8" fill="#666666" transform="rotate(-45,120.95833333333334,489)">03/06</text>
<text x="176.375" y="489" text-anchor="middle" font-family="sans-serif" font-size="8" fill="#666666" transform="rotate(-45,176.375,489)">03/13</text>
<text x="231.79166666666666" y="489" text-anchor="middle" font-family="sans-serif" font-size="8" fill="#666666" transform="rotate(-45,231.79166666666666,489)">03/20</text>
<text x="287.20833333333337" y="489" text-anchor="middle" font-family="sans-serif" font-size="8" fill="#666666" transform="rotate(-45,287.20833333333337,489)">03/27</text>
<text x="342.62500000000006" y="489" text-anchor="middle" font-family="sans-serif" font-size="8" fill="#666666" transform="rotate(-45,342.62500000000006,489)">04/03</text>
<text x="398.0416666666667" y="489" text-anchor="middle" font-family="sans-serif" font-size="8" fill="#666666" transform="rotate(-45,398.0416666666667,489)">04/13</text>
<text x="453.45833333333337" y="489" text-anchor="middle" font-family="sans-serif" font-size="8" fill="#666666" transform="rotate(-45,453.45833333333337,489)">04/20</text>
<text x="508.87500000000006" y="489" text-anchor="middle" font-family="sans-serif" font-size="8" fill="#666666" transform="rotate(-45,508.87500000000006,489)">04/27</text>
<text x="564.2916666666666" y="489" text-anchor="middle" font-family="sans-serif" font-size="8" fill="#666666" transform="rotate(-45,564.2916666666666,489)">05/07</text>
<text x="619.7083333333334" y="489" text-anchor="middle" font-family="sans-serif" font-size="8" fill="#666666" transform="rotate(-45,619.7083333333334,489)">05/14</text>
<text x="675.125" y="489" text-anchor="middle" font-family="sans-serif" font-size="8" fill="#666666" transform="rotate(-45,675.125,489)">05/21</text>
<text x="719.4583333333334" y="489" text-anchor="middle" font-family="sans-serif" font-size="8" fill="#666666" transform="rotate(-45,719.4583333333334,489)">05/27</text>
<rect x="60" y="484" width="8" height="8" fill="#4ecdc4" opacity="0.8" rx="1"/>
<text x="71" y="491" font-family="sans-serif" font-size="9" fill="#888888">买入区(BIAS&lt;2%)</text>
<rect x="230" y="484" width="8" height="8" fill="#ffd700" opacity="0.8" rx="1"/>
<text x="241" y="491" font-family="sans-serif" font-size="9" fill="#888888">持有区(2-8%)</text>
<rect x="400" y="484" width="8" height="8" fill="#e94560" opacity="0.8" rx="1"/>
<text x="411" y="491" font-family="sans-serif" font-size="9" fill="#888888">警戒区(&gt;8%)</text>
<rect x="570" y="484" width="8" height="8" fill="#ffd700" opacity="0.8" rx="1"/>
<text x="581" y="491" font-family="sans-serif" font-size="9" fill="#888888">EMA5</text>
<rect x="60" y="497" width="8" height="8" fill="#ff6b6b" opacity="0.8" rx="1"/>
<text x="71" y="504" font-family="sans-serif" font-size="9" fill="#888888">EMA10</text>
<rect x="230" y="497" width="8" height="8" fill="#4ecdc4" opacity="0.8" rx="1"/>
<text x="241" y="504" font-family="sans-serif" font-size="9" fill="#888888">EMA20</text>
<rect x="400" y="497" width="8" height="8" fill="#4ecdc4" opacity="0.8" rx="1"/>
<text x="411" y="504" font-family="sans-serif" font-size="9" fill="#888888">B乖离买入</text>
<rect x="570" y="497" width="8" height="8" fill="#e94560" opacity="0.8" rx="1"/>
<text x="581" y="504" font-family="sans-serif" font-size="9" fill="#888888">W警戒⚠️</text>
</svg>