<svg xmlns="http://www.w3.org/2000/svg" width="800" height="400" viewBox="0 0 800 400">
<rect width="800" height="400" fill="#1a1a2e"/>
<text x="400.0" y="20" text-anchor="middle" font-family="sans-serif" font-size="14" fill="#ffffff" font-weight="bold">北方华创(002371) K线图</text>
<line x1="60" y1="30.0" x2="780" y2="30.0" stroke="#2a2a4e" stroke-width="0.5"/>
<text x="55" y="33.0" text-anchor="end" font-family="sans-serif" font-size="8" fill="#666666">721.60</text>
<line x1="60" y1="84.0" x2="780" y2="84.0" stroke="#2a2a4e" stroke-width="0.5"/>
<text x="55" y="87.0" text-anchor="end" font-family="sans-serif" font-size="8" fill="#666666">661.73</text>
<line x1="60" y1="138.0" x2="780" y2="138.0" stroke="#2a2a4e" stroke-width="0.5"/>
<text x="55" y="141.0" text-anchor="end" font-family="sans-serif" font-size="8" fill="#666666">601.86</text>
<line x1="60" y1="192.0" x2="780" y2="192.0" stroke="#2a2a4e" stroke-width="0.5"/>
<text x="55" y="195.0" text-anchor="end" font-family="sans-serif" font-size="8" fill="#666666">541.99</text>
<line x1="60" y1="246.0" x2="780" y2="246.0" stroke="#2a2a4e" stroke-width="0.5"/>
<text x="55" y="249.0" text-anchor="end" font-family="sans-serif" font-size="8" fill="#666666">482.12</text>
<line x1="60" y1="300.0" x2="780" y2="300.0" stroke="#2a2a4e" stroke-width="0.5"/>
<text x="55" y="303.0" text-anchor="end" font-family="sans-serif" font-size="8" fill="#666666">422.25</text>
<line x1="60" y1="300" x2="780" y2="300" stroke="#2a2a4e" stroke-width="0.5"/>
<line x1="60" y1="345" x2="780" y2="345" stroke="#2a2a4e" stroke-width="0.5"/>
<rect x="61.8" y="327.82928225823275" width="7.199999999999999" height="17.17071774176725" fill="#44aa44" opacity="0.3"/>
<rect x="73.8" y="328.9967041773525" width="7.199999999999999" height="16.003295822647488" fill="#ff4444" opacity="0.3"/>
<rect x="85.8" y="329.75509232088905" width="7.199999999999999" height="15.244907679110952" fill="#44aa44" opacity="0.3"/>
<rect x="97.8" y="332.74155224143493" width="7.199999999999999" height="12.258447758565069" fill="#ff4444" opacity="0.3"/>
<rect x="109.8" y="329.5842257346876" width="7.199999999999999" height="15.415774265312393" fill="#ff4444" opacity="0.3"/>
<rect x="121.8" y="336.2232875100206" width="7.199999999999999" height="8.776712489979388" fill="#ff4444" opacity="0.3"/>
<rect x="133.8" y="326.6338438508579" width="7.199999999999999" height="18.366156149142114" fill="#ff4444" opacity="0.3"/>
<rect x="145.8" y="334.49545663953046" width="7.199999999999999" height="10.50454336046954" fill="#44aa44" opacity="0.3"/>
<rect x="157.8" y="331.87929295803593" width="7.199999999999999" height="13.120707041964067" fill="#ff4444" opacity="0.3"/>
<rect x="169.8" y="331.96756054015594" width="7.199999999999999" height="13.032439459844056" fill="#ff4444" opacity="0.3"/>
<rect x="181.8" y="332.54868925479667" width="7.199999999999999" height="12.45131074520333" fill="#ff4444" opacity="0.3"/>
<rect x="193.8" y="330.77454600516216" width="7.199999999999999" height="14.225453994837835" fill="#44aa44" opacity="0.3"/>
<rect x="205.8" y="334.5714291048552" width="7.199999999999999" height="10.428570895144787" fill="#44aa44" opacity="0.3"/>
<rect x="217.8" y="332.2533630987866" width="7.199999999999999" height="12.746636901213378" fill="#ff4444" opacity="0.3"/>
<rect x="229.8" y="335.141612732019" width="7.199999999999999" height="9.858387267981016" fill="#ff4444" opacity="0.3"/>
<rect x="241.8" y="329.28151014781696" width="7.199999999999999" height="15.71848985218304" fill="#ff4444" opacity="0.3"/>
<rect x="253.8" y="330.05710488820057" width="7.199999999999999" height="14.94289511179943" fill="#44aa44" opacity="0.3"/>
<rect x="265.8" y="335.86280650558336" width="7.199999999999999" height="9.137193494416636" fill="#44aa44" opacity="0.3"/>
<rect x="277.8" y="328.13206737451037" width="7.199999999999999" height="16.86793262548963" fill="#ff4444" opacity="0.3"/>
<rect x="289.8" y="333.2164477477494" width="7.199999999999999" height="11.783552252250615" fill="#44aa44" opacity="0.3"/>
<rect x="301.8" y="333.7876472768035" width="7.199999999999999" height="11.212352723196489" fill="#ff4444" opacity="0.3"/>
<rect x="313.8" y="329.39330377732665" width="7.199999999999999" height="15.60669622267335" fill="#ff4444" opacity="0.3"/>
<rect x="325.8" y="331.56421272496306" width="7.199999999999999" height="13.435787275036944" fill="#44aa44" opacity="0.3"/>
<rect x="337.8" y="332.7637842693064" width="7.199999999999999" height="12.236215730693573" fill="#44aa44" opacity="0.3"/>
<rect x="349.8" y="330.531079129873" width="7.199999999999999" height="14.468920870127022" fill="#44aa44" opacity="0.3"/>
<rect x="361.8" y="332.08200401261934" width="7.199999999999999" height="12.917995987380664" fill="#44aa44" opacity="0.3"/>
<rect x="373.8" y="336.1497080151183" width="7.199999999999999" height="8.850291984881721" fill="#44aa44" opacity="0.3"/>
<rect x="385.8" y="317.58454711505755" width="7.199999999999999" height="27.415452884942454" fill="#ff4444" opacity="0.3"/>
<rect x="397.8" y="327.03272053890953" width="7.199999999999999" height="17.96727946109047" fill="#ff4444" opacity="0.3"/>
<rect x="409.8" y="330.0157947636116" width="7.199999999999999" height="14.98420523638839" fill="#ff4444" opacity="0.3"/>
<rect x="421.8" y="332.4287529591844" width="7.199999999999999" height="12.571247040815592" fill="#44aa44" opacity="0.3"/>
<rect x="433.8" y="330.6859037367936" width="7.199999999999999" height="14.314096263206409" fill="#ff4444" opacity="0.3"/>
<rect x="445.8" y="332.64860301258045" width="7.199999999999999" height="12.351396987419548" fill="#44aa44" opacity="0.3"/>
<rect x="457.8" y="332.7844789247354" width="7.199999999999999" height="12.215521075264576" fill="#44aa44" opacity="0.3"/>
<rect x="469.8" y="326.5621107479845" width="7.199999999999999" height="18.43788925201551" fill="#44aa44" opacity="0.3"/>
<rect x="481.8" y="308.9147341568877" width="7.199999999999999" height="36.085265843112325" fill="#ff4444" opacity="0.3"/>
<rect x="493.8" y="314.0872102201018" width="7.199999999999999" height="30.91278977989822" fill="#44aa44" opacity="0.3"/>
<rect x="505.8" y="311.3201851078826" width="7.199999999999999" height="33.679814892117406" fill="#ff4444" opacity="0.3"/>
<rect x="517.8" y="326.1975390967718" width="7.199999999999999" height="18.802460903228223" fill="#44aa44" opacity="0.3"/>
<rect x="529.8" y="319.93205303085125" width="7.199999999999999" height="25.06794696914875" fill="#44aa44" opacity="0.3"/>
<rect x="541.8" y="305.53640263604007" width="7.199999999999999" height="39.463597363959934" fill="#ff4444" opacity="0.3"/>
<rect x="553.8" y="318.2980868597404" width="7.199999999999999" height="26.70191314025959" fill="#ff4444" opacity="0.3"/>
<rect x="565.8" y="327.0332729114203" width="7.199999999999999" height="17.966727088579717" fill="#ff4444" opacity="0.3"/>
<rect x="577.8" y="312.95353130844813" width="7.199999999999999" height="32.046468691551866" fill="#ff4444" opacity="0.3"/>
<rect x="589.8" y="314.0444052132634" width="7.199999999999999" height="30.955594786736583" fill="#44aa44" opacity="0.3"/>
<rect x="601.8" y="326.22287870285936" width="7.199999999999999" height="18.77712129714064" fill="#44aa44" opacity="0.3"/>
<rect x="613.8" y="329.0744283974579" width="7.199999999999999" height="15.925571602542107" fill="#44aa44" opacity="0.3"/>
<rect x="625.8" y="317.0666283568218" width="7.199999999999999" height="27.93337164317819" fill="#ff4444" opacity="0.3"/>
<rect x="637.8" y="323.3423719416396" width="7.199999999999999" height="21.657628058360388" fill="#ff4444" opacity="0.3"/>
<rect x="649.8" y="318.27218522427995" width="7.199999999999999" height="26.72781477572005" fill="#ff4444" opacity="0.3"/>
<rect x="661.8" y="325.1634475409638" width="7.199999999999999" height="19.836552459036227" fill="#44aa44" opacity="0.3"/>
<rect x="673.8" y="300.0" width="7.199999999999999" height="45.0" fill="#ff4444" opacity="0.3"/>
<rect x="685.8" y="311.1555761683065" width="7.199999999999999" height="33.84442383169352" fill="#44aa44" opacity="0.3"/>
<rect x="697.8" y="317.0735136994821" width="7.199999999999999" height="27.926486300517922" fill="#ff4444" opacity="0.3"/>
<rect x="709.8" y="313.3140972932717" width="7.199999999999999" height="31.685902706728314" fill="#ff4444" opacity="0.3"/>
<rect x="721.8" y="300.2659383933402" width="7.199999999999999" height="44.73406160665979" fill="#ff4444" opacity="0.3"/>
<rect x="733.8" y="306.65028304906537" width="7.199999999999999" height="38.349716950934635" fill="#ff4444" opacity="0.3"/>
<rect x="745.8" y="305.5766331234489" width="7.199999999999999" height="39.423366876551086" fill="#ff4444" opacity="0.3"/>
<rect x="757.8" y="316.3100421837487" width="7.199999999999999" height="28.689957816251308" fill="#44aa44" opacity="0.3"/>
<rect x="769.8" y="318.2176587182537" width="7.199999999999999" height="26.782341281746312" fill="#44aa44" opacity="0.3"/>
<polyline points="66.0,255.24 78.0,257.06 90.0,264.19 102.0,268.14 114.0,265.52 126.0,264.05 138.0,266.90 150.0,267.48 162.0,266.37 174.0,266.84 186.0,267.18 198.0,268.36 210.0,270.56 222.0,268.29 234.0,267.02 246.0,264.04 258.0,269.37 270.0,273.04 282.0,269.42 294.0,272.44 306.0,272.39 318.0,267.58 330.0,270.95 342.0,272.13 354.0,276.68 366.0,283.19 378.0,288.25 390.0,279.62 402.0,271.20 414.0,264.37 426.0,261.14 438.0,256.25 450.0,254.97 462.0,254.56 474.0,255.38 486.0,255.52 498.0,261.90 510.0,257.85 522.0,256.04 534.0,255.53 546.0,242.09 558.0,232.84 570.0,228.63 582.0,217.93 594.0,208.27 606.0,199.80 618.0,197.56 630.0,186.33 642.0,176.35 654.0,169.84 666.0,170.49 678.0,162.62 690.0,155.59 702.0,144.36 714.0,125.96 726.0,111.60 738.0,100.21 750.0,83.85 762.0,81.34 774.0,84.32" fill="none" stroke="#ffd700" stroke-width="0.8" opacity="0.7"/>
<polyline points="66.0,255.24 78.0,256.23 90.0,260.27 102.0,263.14 114.0,262.62 126.0,262.34 138.0,264.21 150.0,265.02 162.0,264.86 174.0,265.39 186.0,265.84 198.0,266.73 210.0,268.23 222.0,267.41 234.0,266.88 246.0,265.28 258.0,267.96 270.0,270.22 282.0,268.75 294.0,270.52 306.0,270.84 318.0,268.50 330.0,270.17 342.0,270.96 354.0,273.65 366.0,277.76 378.0,281.50 390.0,278.02 402.0,273.72 414.0,269.54 426.0,266.84 438.0,263.13 450.0,261.19 462.0,259.83 474.0,259.32 486.0,258.68 498.0,261.58 510.0,259.43 522.0,258.16 534.0,257.49 546.0,249.81 558.0,243.36 570.0,239.15 582.0,231.40 594.0,223.68 606.0,216.26 618.0,212.04 630.0,203.28 642.0,194.76 654.0,187.86 666.0,184.94 678.0,178.02 690.0,171.38 702.0,162.39 714.0,149.08 726.0,137.04 738.0,126.20 750.0,112.55 762.0,105.96 774.0,103.11" fill="none" stroke="#ff6b6b" stroke-width="0.8" opacity="0.7"/>
<polyline points="66.0,255.24 78.0,255.76 90.0,257.92 102.0,259.65 114.0,259.71 126.0,259.84 138.0,261.05 150.0,261.78 162.0,262.00 174.0,262.55 186.0,263.06 198.0,263.79 210.0,264.85 222.0,264.75 234.0,264.72 246.0,264.09 258.0,265.61 270.0,267.02 282.0,266.55 294.0,267.69 306.0,268.13 318.0,267.16 330.0,268.16 342.0,268.76 354.0,270.39 366.0,272.85 378.0,275.27 390.0,274.05 402.0,272.17 414.0,270.13 426.0,268.66 438.0,266.54 450.0,265.20 462.0,264.11 474.0,263.43 486.0,262.71 498.0,263.84 510.0,262.50 522.0,261.54 534.0,260.87 546.0,256.52 558.0,252.51 570.0,249.43 582.0,244.39 594.0,239.11 606.0,233.75 618.0,229.88 630.0,223.59 642.0,217.19 654.0,211.44 666.0,207.67 678.0,201.88 690.0,196.13 702.0,189.06 714.0,179.55 726.0,170.34 738.0,161.49 750.0,150.98 762.0,143.87 774.0,138.76" fill="none" stroke="#4ecdc4" stroke-width="0.8" opacity="0.7"/>
<line x1="66.0" y1="246.10823450810088" x2="66.0" y2="260.5395022548856" stroke="#44aa44" stroke-width="0.5" opacity="0.6"/>
<rect x="63.0" y="246.90195423417404" width="6.0" height="8.334057123768162" fill="#44aa44" opacity="0.85"/>
<line x1="78.0" y1="255.7501252714214" x2="78.0" y2="265.9241690329046" stroke="#ff4444" stroke-width="0.5" opacity="0.6"/>
<rect x="75.0" y="260.7198931017204" width="6.0" height="1.1184232503758267" fill="#ff4444" opacity="0.85"/>
<line x1="90.0" y1="257.13913479204945" x2="90.0" y2="278.50643059963255" stroke="#44aa44" stroke-width="0.5" opacity="0.6"/>
<rect x="87.0" y="260.5485217972273" width="6.0" height="17.88575246367128" fill="#44aa44" opacity="0.85"/>
<line x1="102.0" y1="269.6943377317521" x2="102.0" y2="281.2844496408886" stroke="#ff4444" stroke-width="0.5" opacity="0.6"/>
<rect x="99.0" y="276.05311508267914" width="6.0" height="5.032904626691106" fill="#ff4444" opacity="0.85"/>
<line x1="114.0" y1="254.89326874895607" x2="114.0" y2="270.4880574578253" stroke="#ff4444" stroke-width="0.5" opacity="0.6"/>
<rect x="111.0" y="260.28695506931683" width="6.0" height="8.550526139969975" fill="#ff4444" opacity="0.85"/>
<line x1="126.0" y1="255.7050275597127" x2="126.0" y2="265.15750793385666" stroke="#ff4444" stroke-width="0.5" opacity="0.6"/>
<rect x="123.0" y="261.0987138800735" width="6.0" height="1.7046935025889525" fill="#ff4444" opacity="0.85"/>
<line x1="138.0" y1="271.76883247035244" x2="138.0" y2="288.0491063971939" stroke="#ff4444" stroke-width="0.5" opacity="0.6"/>
<rect x="135.0" y="272.5896108234508" width="6.0" height="4.185067646567518" fill="#ff4444" opacity="0.85"/>
<line x1="150.0" y1="265.4100551194254" x2="150.0" y2="272.66176716218473" stroke="#44aa44" stroke-width="0.5" opacity="0.6"/>
<rect x="147.0" y="266.8531818941039" width="6.0" height="1.8039084683480837" fill="#44aa44" opacity="0.85"/>
<line x1="162.0" y1="263.5339903123434" x2="162.0" y2="274.9166527476198" stroke="#ff4444" stroke-width="0.5" opacity="0.6"/>
<rect x="159.0" y="264.15633873392346" width="6.0" height="4.5638884249207194" fill="#ff4444" opacity="0.85"/>
<line x1="174.0" y1="264.14731919158174" x2="174.0" y2="274.2131284449641" stroke="#ff4444" stroke-width="0.5" opacity="0.6"/>
<rect x="171.0" y="267.7641556706197" width="6.0" height="0.8929346918322949" fill="#ff4444" opacity="0.85"/>
<line x1="186.0" y1="261.7120427593119" x2="186.0" y2="275.7825288124269" stroke="#ff4444" stroke-width="0.5" opacity="0.6"/>
<rect x="183.0" y="267.8633706363788" width="6.0" height="7.107399365291485" fill="#ff4444" opacity="0.85"/>
<line x1="198.0" y1="267.93552697511274" x2="198.0" y2="282.1593452480374" stroke="#44aa44" stroke-width="0.5" opacity="0.6"/>
<rect x="195.0" y="269.9649240020043" width="6.0" height="0.7576415567062895" fill="#44aa44" opacity="0.85"/>
<line x1="210.0" y1="262.018707198931" x2="210.0" y2="275.8727242358443" stroke="#44aa44" stroke-width="0.5" opacity="0.6"/>
<rect x="207.0" y="269.55002505428433" width="6.0" height="5.42074494738597" fill="#44aa44" opacity="0.85"/>
<line x1="222.0" y1="262.34341072323366" x2="222.0" y2="273.6178386504092" stroke="#ff4444" stroke-width="0.5" opacity="0.6"/>
<rect x="219.0" y="263.7414397862035" width="6.0" height="7.8920995490228165" fill="#ff4444" opacity="0.85"/>
<line x1="234.0" y1="261.2700851845666" x2="234.0" y2="271.35393352263236" stroke="#ff4444" stroke-width="0.5" opacity="0.6"/>
<rect x="231.0" y="264.4810422582262" width="6.0" height="3.6438951060631553" fill="#ff4444" opacity="0.85"/>
<line x1="246.0" y1="253.30582929680978" x2="246.0" y2="267.3041590111909" stroke="#ff4444" stroke-width="0.5" opacity="0.6"/>
<rect x="243.0" y="258.08618673793217" width="6.0" height="6.530148655420078" fill="#ff4444" opacity="0.85"/>
<line x1="258.0" y1="264.14731919158174" x2="258.0" y2="281.2844496408886" stroke="#44aa44" stroke-width="0.5" opacity="0.6"/>
<rect x="255.0" y="264.59829630866875" width="6.0" height="15.432436946717928" fill="#44aa44" opacity="0.85"/>
<line x1="270.0" y1="271.85902789376985" x2="270.0" y2="285.98363120093535" stroke="#44aa44" stroke-width="0.5" opacity="0.6"/>
<rect x="267.0" y="275.3405712376817" width="6.0" height="5.041924169032825" fill="#44aa44" opacity="0.85"/>
<line x1="282.0" y1="259.09637548020714" x2="282.0" y2="276.4229163186905" stroke="#ff4444" stroke-width="0.5" opacity="0.6"/>
<rect x="279.0" y="262.1630198763989" width="6.0" height="12.897945548688824" fill="#ff4444" opacity="0.85"/>
<line x1="294.0" y1="264.50810088525134" x2="294.0" y2="278.8491732086187" stroke="#44aa44" stroke-width="0.5" opacity="0.6"/>
<rect x="291.0" y="266.34808752296647" width="6.0" height="12.131284449640816" fill="#44aa44" opacity="0.85"/>
<line x1="306.0" y1="267.7821947553031" x2="306.0" y2="288.95106063136797" stroke="#ff4444" stroke-width="0.5" opacity="0.6"/>
<rect x="303.0" y="272.2829463838316" width="6.0" height="12.158343076666142" fill="#ff4444" opacity="0.85"/>
<line x1="318.0" y1="256.9226657758477" x2="318.0" y2="282.07816936696173" stroke="#ff4444" stroke-width="0.5" opacity="0.6"/>
<rect x="315.0" y="257.9779522298313" width="6.0" height="22.305328211124106" fill="#ff4444" opacity="0.85"/>
<line x1="330.0" y1="259.6465675630533" x2="330.0" y2="277.67663270419246" stroke="#44aa44" stroke-width="0.5" opacity="0.6"/>
<rect x="327.0" y="261.53165191247706" width="6.0" height="16.144980791715398" fill="#44aa44" opacity="0.85"/>
<line x1="342.0" y1="264.832804409554" x2="342.0" y2="274.9527309169868" stroke="#44aa44" stroke-width="0.5" opacity="0.6"/>
<rect x="339.0" y="270.2806079839653" width="6.0" height="4.21212627359273" fill="#44aa44" opacity="0.85"/>
<line x1="354.0" y1="273.347252380157" x2="354.0" y2="288.30165358276264" stroke="#44aa44" stroke-width="0.5" opacity="0.6"/>
<rect x="351.0" y="274.4386170035076" width="6.0" height="11.355603808251203" fill="#44aa44" opacity="0.85"/>
<line x1="366.0" y1="283.4491398029063" x2="366.0" y2="298.36746283614497" stroke="#44aa44" stroke-width="0.5" opacity="0.6"/>
<rect x="363.0" y="284.8020711541674" width="6.0" height="11.409721062301628" fill="#44aa44" opacity="0.85"/>
<line x1="378.0" y1="292.1079004509771" x2="378.0" y2="300.0" stroke="#44aa44" stroke-width="0.5" opacity="0.6"/>
<rect x="375.0" y="297.46550860197095" width="6.0" height="0.8839151494905764" fill="#44aa44" opacity="0.85"/>
<line x1="390.0" y1="260.5665608819108" x2="390.0" y2="286.6961750459328" stroke="#ff4444" stroke-width="0.5" opacity="0.6"/>
<rect x="387.0" y="262.3614498079171" width="6.0" height="24.33472523801572" fill="#ff4444" opacity="0.85"/>
<line x1="402.0" y1="249.71605144479707" x2="402.0" y2="267.7461165859362" stroke="#ff4444" stroke-width="0.5" opacity="0.6"/>
<rect x="399.0" y="254.37013529313518" width="6.0" height="10.679138132620636" fill="#ff4444" opacity="0.85"/>
<line x1="414.0" y1="243.9345248037414" x2="414.0" y2="252.42191414731917" stroke="#ff4444" stroke-width="0.5" opacity="0.6"/>
<rect x="411.0" y="250.71722064473025" width="6.0" height="1.704693502588924" fill="#ff4444" opacity="0.85"/>
<line x1="426.0" y1="247.46116585936196" x2="426.0" y2="259.45715717387674" stroke="#44aa44" stroke-width="0.5" opacity="0.6"/>
<rect x="423.0" y="251.61015533656257" width="6.0" height="3.066644396191748" fill="#44aa44" opacity="0.85"/>
<line x1="438.0" y1="237.08869216636043" x2="438.0" y2="251.420744947386" stroke="#ff4444" stroke-width="0.5" opacity="0.6"/>
<rect x="435.0" y="246.4690162017705" width="6.0" height="3.2470352430265734" fill="#ff4444" opacity="0.85"/>
<line x1="450.0" y1="243.40237180557875" x2="450.0" y2="253.33288792383496" stroke="#44aa44" stroke-width="0.5" opacity="0.6"/>
<rect x="447.0" y="245.1521630198764" width="6.0" height="7.26975112744276" fill="#44aa44" opacity="0.85"/>
<line x1="462.0" y1="249.82428595289795" x2="462.0" y2="259.06029731084016" stroke="#44aa44" stroke-width="0.5" opacity="0.6"/>
<rect x="459.0" y="252.42191414731917" width="6.0" height="1.298814097210652" fill="#44aa44" opacity="0.85"/>
<line x1="474.0" y1="251.06898279605812" x2="474.0" y2="261.6218473358945" stroke="#44aa44" stroke-width="0.5" opacity="0.6"/>
<rect x="471.0" y="256.9316853181894" width="6.0" height="0.5" fill="#44aa44" opacity="0.85"/>
<line x1="486.0" y1="251.40270586270253" x2="486.0" y2="279.4805411725405" stroke="#ff4444" stroke-width="0.5" opacity="0.6"/>
<rect x="483.0" y="255.8222816101553" width="6.0" height="21.854351094037156" fill="#ff4444" opacity="0.85"/>
<line x1="498.0" y1="255.12777684984133" x2="498.0" y2="277.9381994321029" stroke="#44aa44" stroke-width="0.5" opacity="0.6"/>
<rect x="495.0" y="255.1638550192083" width="6.0" height="19.482211458159327" fill="#44aa44" opacity="0.85"/>
<line x1="510.0" y1="249.71605144479707" x2="510.0" y2="276.77467847001833" stroke="#ff4444" stroke-width="0.5" opacity="0.6"/>
<rect x="507.0" y="249.76114915650578" width="6.0" height="26.111575079338536" fill="#ff4444" opacity="0.85"/>
<line x1="522.0" y1="243.4474695172875" x2="522.0" y2="256.4085518623685" stroke="#44aa44" stroke-width="0.5" opacity="0.6"/>
<rect x="519.0" y="249.71605144479707" width="6.0" height="2.705862702522097" fill="#44aa44" opacity="0.85"/>
<line x1="534.0" y1="243.20394187406046" x2="534.0" y2="262.5238015700685" stroke="#44aa44" stroke-width="0.5" opacity="0.6"/>
<rect x="531.0" y="252.39485552029402" width="6.0" height="2.101553365625506" fill="#44aa44" opacity="0.85"/>
<line x1="546.0" y1="211.92416903290467" x2="546.0" y2="251.55603808251215" stroke="#ff4444" stroke-width="0.5" opacity="0.6"/>
<rect x="543.0" y="215.2163019876399" width="6.0" height="31.61349590780023" fill="#ff4444" opacity="0.85"/>
<line x1="558.0" y1="196.275263069985" x2="558.0" y2="226.26524135627193" stroke="#ff4444" stroke-width="0.5" opacity="0.6"/>
<rect x="555.0" y="214.35042592283276" width="6.0" height="5.114080507766857" fill="#ff4444" opacity="0.85"/>
<line x1="570.0" y1="214.34140638049104" x2="570.0" y2="227.88875897778522" stroke="#ff4444" stroke-width="0.5" opacity="0.6"/>
<rect x="567.0" y="220.21312844496413" width="6.0" height="0.5" fill="#ff4444" opacity="0.85"/>
<line x1="582.0" y1="192.74862201436449" x2="582.0" y2="223.47820277267417" stroke="#ff4444" stroke-width="0.5" opacity="0.6"/>
<rect x="579.0" y="196.50977117087024" width="6.0" height="16.06380491063976" fill="#ff4444" opacity="0.85"/>
<line x1="594.0" y1="169.44212460330718" x2="594.0" y2="189.28511775513613" stroke="#44aa44" stroke-width="0.5" opacity="0.6"/>
<rect x="591.0" y="180.2655754133957" width="6.0" height="8.703858359779503" fill="#44aa44" opacity="0.85"/>
<line x1="606.0" y1="178.72323367295803" x2="606.0" y2="198.30466009687657" stroke="#44aa44" stroke-width="0.5" opacity="0.6"/>
<rect x="603.0" y="180.2655754133957" width="6.0" height="2.579589109737782" fill="#44aa44" opacity="0.85"/>
<line x1="618.0" y1="180.44596626023056" x2="618.0" y2="196.32036078169364" stroke="#44aa44" stroke-width="0.5" opacity="0.6"/>
<rect x="615.0" y="191.08902622348424" width="6.0" height="1.993318857524656" fill="#44aa44" opacity="0.85"/>
<line x1="630.0" y1="153.2069483881744" x2="630.0" y2="186.579255052614" stroke="#ff4444" stroke-width="0.5" opacity="0.6"/>
<rect x="627.0" y="163.8590278937698" width="6.0" height="20.934357775179592" fill="#ff4444" opacity="0.85"/>
<line x1="642.0" y1="154.1089026223484" x2="642.0" y2="172.14798730582933" stroke="#ff4444" stroke-width="0.5" opacity="0.6"/>
<rect x="639.0" y="156.4088859194922" width="6.0" height="7.450141974277585" fill="#ff4444" opacity="0.85"/>
<line x1="654.0" y1="150.50108568565224" x2="654.0" y2="184.3243694671789" stroke="#ff4444" stroke-width="0.5" opacity="0.6"/>
<rect x="651.0" y="156.81476532487056" width="6.0" height="9.028561884082166" fill="#ff4444" opacity="0.85"/>
<line x1="666.0" y1="146.29797895440123" x2="666.0" y2="172.66210121930857" stroke="#44aa44" stroke-width="0.5" opacity="0.6"/>
<rect x="663.0" y="156.81476532487056" width="6.0" height="14.972440287289146" fill="#44aa44" opacity="0.85"/>
<line x1="678.0" y1="120.88090863537664" x2="678.0" y2="180.2655754133957" stroke="#ff4444" stroke-width="0.5" opacity="0.6"/>
<rect x="675.0" y="146.89326874895607" width="6.0" height="20.023383998663803" fill="#ff4444" opacity="0.85"/>
<line x1="690.0" y1="118.68915984633375" x2="690.0" y2="146.20778353098382" stroke="#44aa44" stroke-width="0.5" opacity="0.6"/>
<rect x="687.0" y="138.7756806413897" width="6.0" height="2.732921329547338" fill="#44aa44" opacity="0.85"/>
<line x1="702.0" y1="115.171538333055" x2="702.0" y2="156.36378820778356" stroke="#ff4444" stroke-width="0.5" opacity="0.6"/>
<rect x="699.0" y="121.90913646233503" width="6.0" height="26.78804075496913" fill="#ff4444" opacity="0.85"/>
<line x1="714.0" y1="85.56038082512111" x2="714.0" y2="127.05027559712713" stroke="#ff4444" stroke-width="0.5" opacity="0.6"/>
<rect x="711.0" y="89.16819776181728" width="6.0" height="34.274260898613676" fill="#ff4444" opacity="0.85"/>
<line x1="726.0" y1="30.0" x2="726.0" y2="88.53682979789542" stroke="#ff4444" stroke-width="0.5" opacity="0.6"/>
<rect x="723.0" y="82.86353766494071" width="6.0" height="5.5830967095373865" fill="#ff4444" opacity="0.85"/>
<line x1="738.0" y1="73.83497578085854" x2="738.0" y2="106.30532821112412" stroke="#ff4444" stroke-width="0.5" opacity="0.6"/>
<rect x="735.0" y="77.44279271755471" width="6.0" height="5.384666778019081" fill="#ff4444" opacity="0.85"/>
<line x1="750.0" y1="32.299983297143875" x2="750.0" y2="116.12760982127944" stroke="#ff4444" stroke-width="0.5" opacity="0.6"/>
<rect x="747.0" y="51.11474862201433" width="6.0" height="43.34792049440459" fill="#ff4444" opacity="0.85"/>
<line x1="762.0" y1="48.58025722398532" x2="762.0" y2="88.57290796726244" stroke="#44aa44" stroke-width="0.5" opacity="0.6"/>
<rect x="759.0" y="58.5017537998998" width="6.0" height="17.813596124937362" fill="#44aa44" opacity="0.85"/>
<line x1="774.0" y1="56.69784533155171" x2="774.0" y2="94.0387506263571" stroke="#44aa44" stroke-width="0.5" opacity="0.6"/>
<rect x="771.0" y="72.03106731251046" width="6.0" height="18.246534157340918" fill="#44aa44" opacity="0.85"/>
<rect x="134.0" y="284.0491063971939" width="8" height="8" fill="#4caf50" opacity="0.85" rx="1"/>
<text x="138.0" y="282.0491063971939" text-anchor="middle" font-family="sans-serif" font-size="8" fill="#4caf50">前低</text>
<rect x="242.0" y="249.30582929680978" width="8" height="8" fill="#ff9800" opacity="0.85" rx="1"/>
<text x="246.0" y="247.30582929680978" text-anchor="middle" font-family="sans-serif" font-size="8" fill="#ff9800">前高</text>
<rect x="266.0" y="281.98363120093535" width="8" height="8" fill="#4caf50" opacity="0.85" rx="1"/>
<text x="270.0" y="279.98363120093535" text-anchor="middle" font-family="sans-serif" font-size="8" fill="#4caf50">前低</text>
<rect x="302.0" y="284.95106063136797" width="8" height="8" fill="#4caf50" opacity="0.85" rx="1"/>
<text x="306.0" y="282.95106063136797" text-anchor="middle" font-family="sans-serif" font-size="8" fill="#4caf50">前低</text>
<rect x="362.0" y="294.36746283614497" width="8" height="8" fill="#4caf50" opacity="0.85" rx="1"/>
<text x="366.0" y="292.36746283614497" text-anchor="middle" font-family="sans-serif" font-size="8" fill="#4caf50">前低</text>
<rect x="374.0" y="296.0" width="8" height="8" fill="#4caf50" opacity="0.85" rx="1"/>
<text x="378.0" y="294.0" text-anchor="middle" font-family="sans-serif" font-size="8" fill="#4caf50">前低</text>
<rect x="386.0" y="243.50175379989977" width="8" height="8" fill="#ff9800" opacity="0.85" rx="1"/>
<text x="390.0" y="241.50175379989977" text-anchor="middle" font-family="sans-serif" font-size="8" fill="#ff9800">量</text>
<rect x="398.0" y="245.71605144479707" width="8" height="8" fill="#ff9800" opacity="0.85" rx="1"/>
<text x="402.0" y="243.71605144479707" text-anchor="middle" font-family="sans-serif" font-size="8" fill="#ff9800">前高</text>
<rect x="398.0" y="245.71605144479707" width="8" height="8" fill="#2196f3" opacity="0.85" rx="1"/>
<text x="402.0" y="243.71605144479707" text-anchor="middle" font-family="sans-serif" font-size="8" fill="#2196f3">突</text>
<rect x="410.0" y="239.9345248037414" width="8" height="8" fill="#ff9800" opacity="0.85" rx="1"/>
<text x="414.0" y="237.9345248037414" text-anchor="middle" font-family="sans-serif" font-size="8" fill="#ff9800">前高</text>
<rect x="434.0" y="233.08869216636043" width="8" height="8" fill="#ff9800" opacity="0.85" rx="1"/>
<text x="438.0" y="231.08869216636043" text-anchor="middle" font-family="sans-serif" font-size="8" fill="#ff9800">前高</text>
<rect x="542.0" y="207.92416903290467" width="8" height="8" fill="#ff9800" opacity="0.85" rx="1"/>
<text x="546.0" y="205.92416903290467" text-anchor="middle" font-family="sans-serif" font-size="8" fill="#ff9800">前高</text>
<rect x="542.0" y="207.92416903290467" width="8" height="8" fill="#2196f3" opacity="0.85" rx="1"/>
<text x="546.0" y="205.92416903290467" text-anchor="middle" font-family="sans-serif" font-size="8" fill="#2196f3">突</text>
<rect x="554.0" y="192.275263069985" width="8" height="8" fill="#ff9800" opacity="0.85" rx="1"/>
<text x="558.0" y="190.275263069985" text-anchor="middle" font-family="sans-serif" font-size="8" fill="#ff9800">前高</text>
<rect x="578.0" y="188.74862201436449" width="8" height="8" fill="#ff9800" opacity="0.85" rx="1"/>
<text x="582.0" y="186.74862201436449" text-anchor="middle" font-family="sans-serif" font-size="8" fill="#ff9800">前高</text>
<rect x="590.0" y="165.44212460330718" width="8" height="8" fill="#ff9800" opacity="0.85" rx="1"/>
<text x="594.0" y="163.44212460330718" text-anchor="middle" font-family="sans-serif" font-size="8" fill="#ff9800">前高</text>
<rect x="626.0" y="149.2069483881744" width="8" height="8" fill="#ff9800" opacity="0.85" rx="1"/>
<text x="630.0" y="147.2069483881744" text-anchor="middle" font-family="sans-serif" font-size="8" fill="#ff9800">前高</text>
<rect x="650.0" y="146.50108568565224" width="8" height="8" fill="#ff9800" opacity="0.85" rx="1"/>
<text x="654.0" y="144.50108568565224" text-anchor="middle" font-family="sans-serif" font-size="8" fill="#ff9800">前高</text>
<rect x="662.0" y="142.29797895440123" width="8" height="8" fill="#ff9800" opacity="0.85" rx="1"/>
<text x="666.0" y="140.29797895440123" text-anchor="middle" font-family="sans-serif" font-size="8" fill="#ff9800">前高</text>
<rect x="674.0" y="116.88090863537664" width="8" height="8" fill="#ff9800" opacity="0.85" rx="1"/>
<text x="678.0" y="114.88090863537664" text-anchor="middle" font-family="sans-serif" font-size="8" fill="#ff9800">前高</text>
<rect x="686.0" y="114.68915984633375" width="8" height="8" fill="#ff9800" opacity="0.85" rx="1"/>
<text x="690.0" y="112.68915984633375" text-anchor="middle" font-family="sans-serif" font-size="8" fill="#ff9800">前高</text>
<rect x="698.0" y="111.171538333055" width="8" height="8" fill="#ff9800" opacity="0.85" rx="1"/>
<text x="702.0" y="109.171538333055" text-anchor="middle" font-family="sans-serif" font-size="8" fill="#ff9800">前高</text>
<rect x="710.0" y="81.56038082512111" width="8" height="8" fill="#ff9800" opacity="0.85" rx="1"/>
<text x="714.0" y="79.56038082512111" text-anchor="middle" font-family="sans-serif" font-size="8" fill="#ff9800">前高</text>
<rect x="710.0" y="81.56038082512111" width="8" height="8" fill="#2196f3" opacity="0.85" rx="1"/>
<text x="714.0" y="79.56038082512111" text-anchor="middle" font-family="sans-serif" font-size="8" fill="#2196f3">突</text>
<rect x="722.0" y="26.0" width="8" height="8" fill="#ff9800" opacity="0.85" rx="1"/>
<text x="726.0" y="24.0" text-anchor="middle" font-family="sans-serif" font-size="8" fill="#ff9800">前高</text>
<text x="66.0" y="359" text-anchor="middle" font-family="sans-serif" font-size="8" fill="#666666" transform="rotate(-40,66.0,359)">02/27</text>
<text x="138.0" y="359" text-anchor="middle" font-family="sans-serif" font-size="8" fill="#666666" transform="rotate(-40,138.0,359)">03/09</text>
<text x="210.0" y="359" text-anchor="middle" font-family="sans-serif" font-size="8" fill="#666666" transform="rotate(-40,210.0,359)">03/17</text>
<text x="282.0" y="359" text-anchor="middle" font-family="sans-serif" font-size="8" fill="#666666" transform="rotate(-40,282.0,359)">03/25</text>
<text x="354.0" y="359" text-anchor="middle" font-family="sans-serif" font-size="8" fill="#666666" transform="rotate(-40,354.0,359)">04/02</text>
<text x="426.0" y="359" text-anchor="middle" font-family="sans-serif" font-size="8" fill="#666666" transform="rotate(-40,426.0,359)">04/13</text>
<text x="498.0" y="359" text-anchor="middle" font-family="sans-serif" font-size="8" fill="#666666" transform="rotate(-40,498.0,359)">04/21</text>
<text x="570.0" y="359" text-anchor="middle" font-family="sans-serif" font-size="8" fill="#666666" transform="rotate(-40,570.0,359)">04/29</text>
<text x="642.0" y="359" text-anchor="middle" font-family="sans-serif" font-size="8" fill="#666666" transform="rotate(-40,642.0,359)">05/12</text>
<text x="714.0" y="359" text-anchor="middle" font-family="sans-serif" font-size="8" fill="#666666" transform="rotate(-40,714.0,359)">05/20</text>
<text x="774.0" y="359" text-anchor="middle" font-family="sans-serif" font-size="8" fill="#666666" transform="rotate(-40,774.0,359)">05/27</text>
<text x="400.0" y="396" text-anchor="middle" font-family="sans-serif" font-size="9" fill="#555555">数据截至: 2026-05-27 20:57  |  最新K线: 20260527</text>
<rect x="50" y="373" width="8" height="8" fill="#ffd700" opacity="0.8" rx="1"/>
<text x="61" y="380" font-family="sans-serif" font-size="9" fill="#888888">EMA5</text>
<rect x="150" y="373" width="8" height="8" fill="#ff6b6b" opacity="0.8" rx="1"/>
<text x="161" y="380" font-family="sans-serif" font-size="9" fill="#888888">EMA10</text>
<rect x="250" y="373" width="8" height="8" fill="#4ecdc4" opacity="0.8" rx="1"/>
<text x="261" y="380" font-family="sans-serif" font-size="9" fill="#888888">EMA20</text>
<rect x="350" y="373" width="8" height="8" fill="#2196f3" opacity="0.8" rx="1"/>
<text x="361" y="380" font-family="sans-serif" font-size="9" fill="#888888">突破</text>
<rect x="450" y="373" width="8" height="8" fill="#ff9800" opacity="0.8" rx="1"/>
<text x="461" y="380" font-family="sans-serif" font-size="9" fill="#888888">前高/量</text>
<rect x="550" y="373" width="8" height="8" fill="#4caf50" opacity="0.8" rx="1"/>
<text x="561" y="380" font-family="sans-serif" font-size="9" fill="#888888">前低</text>
</svg>