<svg xmlns="http://www.w3.org/2000/svg" width="800" height="400" viewBox="0 0 800 400">
<rect width="800" height="400" fill="#1a1a2e"/>
<text x="400.0" y="20" text-anchor="middle" font-family="sans-serif" font-size="14" fill="#ffffff" font-weight="bold">生益科技(600183) K线图</text>
<line x1="60" y1="30.0" x2="780" y2="30.0" stroke="#2a2a4e" stroke-width="0.5"/>
<text x="55" y="33.0" text-anchor="end" font-family="sans-serif" font-size="8" fill="#666666">140.00</text>
<line x1="60" y1="83.99999999999997" x2="780" y2="83.99999999999997" stroke="#2a2a4e" stroke-width="0.5"/>
<text x="55" y="86.99999999999997" text-anchor="end" font-family="sans-serif" font-size="8" fill="#666666">122.24</text>
<line x1="60" y1="138.0" x2="780" y2="138.0" stroke="#2a2a4e" stroke-width="0.5"/>
<text x="55" y="141.0" text-anchor="end" font-family="sans-serif" font-size="8" fill="#666666">104.48</text>
<line x1="60" y1="192.0" x2="780" y2="192.0" stroke="#2a2a4e" stroke-width="0.5"/>
<text x="55" y="195.0" text-anchor="end" font-family="sans-serif" font-size="8" fill="#666666">86.72</text>
<line x1="60" y1="245.99999999999997" x2="780" y2="245.99999999999997" stroke="#2a2a4e" stroke-width="0.5"/>
<text x="55" y="248.99999999999997" text-anchor="end" font-family="sans-serif" font-size="8" fill="#666666">68.96</text>
<line x1="60" y1="300.0" x2="780" y2="300.0" stroke="#2a2a4e" stroke-width="0.5"/>
<text x="55" y="303.0" text-anchor="end" font-family="sans-serif" font-size="8" fill="#666666">51.20</text>
<line x1="60" y1="300" x2="780" y2="300" stroke="#2a2a4e" stroke-width="0.5"/>
<line x1="60" y1="345" x2="780" y2="345" stroke="#2a2a4e" stroke-width="0.5"/>
<rect x="61.8" y="324.42154020224876" width="7.199999999999999" height="20.578459797751236" fill="#44aa44" opacity="0.3"/>
<rect x="73.8" y="329.2386704236998" width="7.199999999999999" height="15.761329576300227" fill="#ff4444" opacity="0.3"/>
<rect x="85.8" y="318.21242649578693" width="7.199999999999999" height="26.78757350421307" fill="#44aa44" opacity="0.3"/>
<rect x="97.8" y="327.3750224388439" width="7.199999999999999" height="17.624977561156072" fill="#44aa44" opacity="0.3"/>
<rect x="109.8" y="324.32109577714556" width="7.199999999999999" height="20.67890422285444" fill="#44aa44" opacity="0.3"/>
<rect x="121.8" y="328.9033524992792" width="7.199999999999999" height="16.096647500720792" fill="#44aa44" opacity="0.3"/>
<rect x="133.8" y="322.080923990796" width="7.199999999999999" height="22.91907600920399" fill="#44aa44" opacity="0.3"/>
<rect x="145.8" y="322.9276027699053" width="7.199999999999999" height="22.07239723009468" fill="#ff4444" opacity="0.3"/>
<rect x="157.8" y="328.2870594506971" width="7.199999999999999" height="16.712940549302914" fill="#44aa44" opacity="0.3"/>
<rect x="169.8" y="329.3088428084185" width="7.199999999999999" height="15.69115719158151" fill="#44aa44" opacity="0.3"/>
<rect x="181.8" y="326.9093960279166" width="7.199999999999999" height="18.090603972083386" fill="#ff4444" opacity="0.3"/>
<rect x="193.8" y="325.9215157235099" width="7.199999999999999" height="19.078484276490087" fill="#ff4444" opacity="0.3"/>
<rect x="205.8" y="325.36168696588754" width="7.199999999999999" height="19.638313034112457" fill="#44aa44" opacity="0.3"/>
<rect x="217.8" y="327.00478151365644" width="7.199999999999999" height="17.99521848634356" fill="#ff4444" opacity="0.3"/>
<rect x="229.8" y="328.03097104437177" width="7.199999999999999" height="16.969028955628232" fill="#44aa44" opacity="0.3"/>
<rect x="241.8" y="323.47600811606185" width="7.199999999999999" height="21.52399188393815" fill="#44aa44" opacity="0.3"/>
<rect x="253.8" y="319.95755658668463" width="7.199999999999999" height="25.042443413315368" fill="#44aa44" opacity="0.3"/>
<rect x="265.8" y="328.35617109006546" width="7.199999999999999" height="16.64382890993454" fill="#ff4444" opacity="0.3"/>
<rect x="277.8" y="327.97879053271174" width="7.199999999999999" height="17.02120946728826" fill="#ff4444" opacity="0.3"/>
<rect x="289.8" y="325.59541812405826" width="7.199999999999999" height="19.404581875941744" fill="#44aa44" opacity="0.3"/>
<rect x="301.8" y="329.75631415469473" width="7.199999999999999" height="15.243685845305265" fill="#ff4444" opacity="0.3"/>
<rect x="313.8" y="332.37415208368463" width="7.199999999999999" height="12.625847916315365" fill="#ff4444" opacity="0.3"/>
<rect x="325.8" y="331.8009008175899" width="7.199999999999999" height="13.199099182410123" fill="#44aa44" opacity="0.3"/>
<rect x="337.8" y="331.46713321329685" width="7.199999999999999" height="13.532866786703153" fill="#44aa44" opacity="0.3"/>
<rect x="349.8" y="319.46002621944916" width="7.199999999999999" height="25.539973780550838" fill="#44aa44" opacity="0.3"/>
<rect x="361.8" y="328.91832532787913" width="7.199999999999999" height="16.08167467212087" fill="#ff4444" opacity="0.3"/>
<rect x="373.8" y="320.7461391589105" width="7.199999999999999" height="24.253860841089477" fill="#ff4444" opacity="0.3"/>
<rect x="385.8" y="316.9728639580489" width="7.199999999999999" height="28.02713604195111" fill="#ff4444" opacity="0.3"/>
<rect x="397.8" y="327.8986226629604" width="7.199999999999999" height="17.101377337039594" fill="#ff4444" opacity="0.3"/>
<rect x="409.8" y="320.4033960170372" width="7.199999999999999" height="24.59660398296279" fill="#ff4444" opacity="0.3"/>
<rect x="421.8" y="317.7184047477874" width="7.199999999999999" height="27.281595252212583" fill="#ff4444" opacity="0.3"/>
<rect x="433.8" y="312.37559360941725" width="7.199999999999999" height="32.62440639058275" fill="#ff4444" opacity="0.3"/>
<rect x="445.8" y="307.02409251875343" width="7.199999999999999" height="37.975907481246566" fill="#44aa44" opacity="0.3"/>
<rect x="457.8" y="323.3669553344612" width="7.199999999999999" height="21.63304466553882" fill="#ff4444" opacity="0.3"/>
<rect x="469.8" y="321.79664423688894" width="7.199999999999999" height="23.203355763111063" fill="#ff4444" opacity="0.3"/>
<rect x="481.8" y="321.98484494078866" width="7.199999999999999" height="23.015155059211338" fill="#ff4444" opacity="0.3"/>
<rect x="493.8" y="314.99763372191063" width="7.199999999999999" height="30.00236627808937" fill="#ff4444" opacity="0.3"/>
<rect x="505.8" y="317.3118128953996" width="7.199999999999999" height="27.688187104600388" fill="#ff4444" opacity="0.3"/>
<rect x="517.8" y="315.39239418385165" width="7.199999999999999" height="29.60760581614835" fill="#44aa44" opacity="0.3"/>
<rect x="529.8" y="321.56372903668" width="7.199999999999999" height="23.43627096332" fill="#44aa44" opacity="0.3"/>
<rect x="541.8" y="322.23999499545783" width="7.199999999999999" height="22.760005004542165" fill="#ff4444" opacity="0.3"/>
<rect x="553.8" y="319.4752846333357" width="7.199999999999999" height="25.52471536666428" fill="#44aa44" opacity="0.3"/>
<rect x="565.8" y="314.9560198658565" width="7.199999999999999" height="30.04398013414351" fill="#ff4444" opacity="0.3"/>
<rect x="577.8" y="325.8693352118499" width="7.199999999999999" height="19.130664788150114" fill="#44aa44" opacity="0.3"/>
<rect x="589.8" y="320.39205420136756" width="7.199999999999999" height="24.607945798632443" fill="#ff4444" opacity="0.3"/>
<rect x="601.8" y="326.59929120451716" width="7.199999999999999" height="18.400708795482842" fill="#44aa44" opacity="0.3"/>
<rect x="613.8" y="329.48366180174395" width="7.199999999999999" height="15.51633819825605" fill="#ff4444" opacity="0.3"/>
<rect x="625.8" y="325.3971403393297" width="7.199999999999999" height="19.602859660670276" fill="#ff4444" opacity="0.3"/>
<rect x="637.8" y="324.2446405161206" width="7.199999999999999" height="20.755359483879374" fill="#ff4444" opacity="0.3"/>
<rect x="649.8" y="315.7923767767485" width="7.199999999999999" height="29.207623223251517" fill="#ff4444" opacity="0.3"/>
<rect x="661.8" y="306.8707332198245" width="7.199999999999999" height="38.1292667801755" fill="#44aa44" opacity="0.3"/>
<rect x="673.8" y="320.59261666838927" width="7.199999999999999" height="24.40738333161073" fill="#44aa44" opacity="0.3"/>
<rect x="685.8" y="314.2686160808995" width="7.199999999999999" height="30.731383919100494" fill="#ff4444" opacity="0.3"/>
<rect x="697.8" y="311.89291367708734" width="7.199999999999999" height="33.107086322912664" fill="#ff4444" opacity="0.3"/>
<rect x="709.8" y="323.76616276729425" width="7.199999999999999" height="21.233837232705753" fill="#ff4444" opacity="0.3"/>
<rect x="721.8" y="315.3519226689441" width="7.199999999999999" height="29.6480773310559" fill="#44aa44" opacity="0.3"/>
<rect x="733.8" y="317.7103267639651" width="7.199999999999999" height="27.2896732360349" fill="#ff4444" opacity="0.3"/>
<rect x="745.8" y="312.5897417765037" width="7.199999999999999" height="32.41025822349633" fill="#ff4444" opacity="0.3"/>
<rect x="757.8" y="313.1048152399188" width="7.199999999999999" height="31.89518476008118" fill="#ff4444" opacity="0.3"/>
<rect x="769.8" y="300.0" width="7.199999999999999" height="45.0" fill="#44aa44" opacity="0.3"/>
<polyline points="66.0,245.54 78.0,246.21 90.0,247.48 102.0,250.12 114.0,251.77 126.0,254.87 138.0,260.06 150.0,259.99 162.0,260.86 174.0,262.19 186.0,262.39 198.0,261.56 210.0,263.55 222.0,263.23 234.0,265.96 246.0,268.17 258.0,274.06 270.0,276.95 282.0,277.95 294.0,281.03 306.0,283.76 318.0,285.22 330.0,287.13 342.0,287.47 354.0,291.21 366.0,292.82 378.0,291.16 390.0,286.22 402.0,282.71 414.0,278.33 426.0,273.11 438.0,266.25 450.0,261.58 462.0,257.81 474.0,253.58 486.0,250.20 498.0,245.16 510.0,238.31 522.0,234.80 534.0,234.81 546.0,230.73 558.0,228.06 570.0,224.87 582.0,224.26 594.0,219.50 606.0,215.12 618.0,212.19 630.0,208.56 642.0,204.16 654.0,192.54 666.0,185.67 678.0,184.51 690.0,174.61 702.0,166.16 714.0,160.74 726.0,159.54 738.0,148.78 750.0,132.98 762.0,110.65 774.0,92.12" fill="none" stroke="#ffd700" stroke-width="0.8" opacity="0.7"/>
<polyline points="66.0,245.54 78.0,245.91 90.0,246.66 102.0,248.24 114.0,249.48 126.0,251.59 138.0,255.02 150.0,255.90 162.0,257.11 174.0,258.52 186.0,259.30 198.0,259.41 210.0,260.88 222.0,261.19 234.0,263.05 246.0,264.78 258.0,268.62 270.0,271.18 282.0,272.77 294.0,275.40 306.0,277.91 318.0,279.77 330.0,281.80 342.0,282.96 354.0,285.82 366.0,287.68 378.0,287.71 390.0,285.64 402.0,283.83 414.0,281.24 426.0,277.86 438.0,273.25 450.0,269.44 462.0,265.95 474.0,262.16 486.0,258.76 498.0,254.45 510.0,249.03 522.0,245.16 534.0,243.29 546.0,239.52 558.0,236.46 570.0,233.20 582.0,231.35 594.0,227.46 606.0,223.63 618.0,220.49 630.0,217.00 642.0,213.06 654.0,205.11 666.0,199.08 678.0,196.00 690.0,188.51 702.0,181.38 714.0,175.66 726.0,172.29 738.0,164.10 750.0,152.70 762.0,136.93 774.0,122.04" fill="none" stroke="#ff6b6b" stroke-width="0.8" opacity="0.7"/>
<polyline points="66.0,245.54 78.0,245.74 90.0,246.14 102.0,247.02 114.0,247.79 126.0,249.06 138.0,251.09 150.0,251.92 162.0,252.94 174.0,254.08 186.0,254.91 198.0,255.38 210.0,256.54 222.0,257.11 234.0,258.48 246.0,259.82 258.0,262.30 270.0,264.25 282.0,265.74 294.0,267.78 306.0,269.82 318.0,271.57 330.0,273.42 342.0,274.82 354.0,277.09 366.0,278.90 378.0,279.75 390.0,279.42 402.0,279.07 414.0,278.16 426.0,276.69 438.0,274.39 450.0,272.28 462.0,270.18 474.0,267.79 486.0,265.48 498.0,262.58 510.0,258.96 522.0,255.99 534.0,253.98 546.0,250.99 558.0,248.29 570.0,245.46 582.0,243.32 594.0,240.15 606.0,236.93 618.0,234.02 630.0,230.90 642.0,227.51 654.0,221.97 666.0,217.21 678.0,213.87 690.0,208.25 702.0,202.63 714.0,197.61 726.0,193.75 738.0,187.42 750.0,179.23 762.0,168.44 774.0,157.64" fill="none" stroke="#4ecdc4" stroke-width="0.8" opacity="0.7"/>
<line x1="66.0" y1="236.75675675675677" x2="66.0" y2="246.18243243243242" stroke="#44aa44" stroke-width="0.5" opacity="0.6"/>
<rect x="63.0" y="241.31756756756758" width="6.0" height="4.226351351351326" fill="#44aa44" opacity="0.85"/>
<line x1="78.0" y1="245.33108108108107" x2="78.0" y2="251.89864864864867" stroke="#ff4444" stroke-width="0.5" opacity="0.6"/>
<rect x="75.0" y="247.55067567567568" width="6.0" height="4.347972972972997" fill="#ff4444" opacity="0.85"/>
<line x1="90.0" y1="234.93243243243248" x2="90.0" y2="250.4391891891892" stroke="#44aa44" stroke-width="0.5" opacity="0.6"/>
<rect x="87.0" y="238.58108108108107" width="6.0" height="11.43243243243245" fill="#44aa44" opacity="0.85"/>
<line x1="102.0" y1="248.43243243243245" x2="102.0" y2="257.7364864864865" stroke="#44aa44" stroke-width="0.5" opacity="0.6"/>
<rect x="99.0" y="253.08445945945945" width="6.0" height="2.310810810810807" fill="#44aa44" opacity="0.85"/>
<line x1="114.0" y1="245.17905405405406" x2="114.0" y2="257.4932432432432" stroke="#44aa44" stroke-width="0.5" opacity="0.6"/>
<rect x="111.0" y="250.8952702702703" width="6.0" height="4.165540540540519" fill="#44aa44" opacity="0.85"/>
<line x1="126.0" y1="255.03040540540542" x2="126.0" y2="263.2702702702703" stroke="#44aa44" stroke-width="0.5" opacity="0.6"/>
<rect x="123.0" y="256.5202702702703" width="6.0" height="4.5608108108107785" fill="#44aa44" opacity="0.85"/>
<line x1="138.0" y1="268.01351351351354" x2="138.0" y2="279.11148648648657" stroke="#44aa44" stroke-width="0.5" opacity="0.6"/>
<rect x="135.0" y="269.0472972972973" width="6.0" height="1.3986486486486456" fill="#44aa44" opacity="0.85"/>
<line x1="150.0" y1="259.59121621621625" x2="150.0" y2="266.0675675675676" stroke="#ff4444" stroke-width="0.5" opacity="0.6"/>
<rect x="147.0" y="259.8344594594595" width="6.0" height="6.111486486486456" fill="#ff4444" opacity="0.85"/>
<line x1="162.0" y1="255.54729729729732" x2="162.0" y2="263.6655405405405" stroke="#44aa44" stroke-width="0.5" opacity="0.6"/>
<rect x="159.0" y="258.0405405405405" width="6.0" height="4.560810810810835" fill="#44aa44" opacity="0.85"/>
<line x1="174.0" y1="255.4256756756757" x2="174.0" y2="267.8310810810811" stroke="#44aa44" stroke-width="0.5" opacity="0.6"/>
<rect x="171.0" y="263.93918918918916" width="6.0" height="0.9121621621621898" fill="#44aa44" opacity="0.85"/>
<line x1="186.0" y1="259.01351351351354" x2="186.0" y2="267.86148648648646" stroke="#ff4444" stroke-width="0.5" opacity="0.6"/>
<rect x="183.0" y="262.7837837837838" width="6.0" height="5.01689189189193" fill="#ff4444" opacity="0.85"/>
<line x1="198.0" y1="258.31418918918916" x2="198.0" y2="267.9831081081081" stroke="#ff4444" stroke-width="0.5" opacity="0.6"/>
<rect x="195.0" y="259.89527027027026" width="6.0" height="1.9459459459459936" fill="#ff4444" opacity="0.85"/>
<line x1="210.0" y1="253.87499999999997" x2="210.0" y2="267.7702702702703" stroke="#44aa44" stroke-width="0.5" opacity="0.6"/>
<rect x="207.0" y="255.30405405405403" width="6.0" height="12.222972972973054" fill="#44aa44" opacity="0.85"/>
<line x1="222.0" y1="260.22972972972974" x2="222.0" y2="268.01351351351354" stroke="#ff4444" stroke-width="0.5" opacity="0.6"/>
<rect x="219.0" y="262.60135135135135" width="6.0" height="3.8614864864865694" fill="#ff4444" opacity="0.85"/>
<line x1="234.0" y1="266.0675675675676" x2="234.0" y2="272.3310810810811" stroke="#44aa44" stroke-width="0.5" opacity="0.6"/>
<rect x="231.0" y="267.1621621621622" width="6.0" height="4.256756756756772" fill="#44aa44" opacity="0.85"/>
<line x1="246.0" y1="263.51351351351354" x2="246.0" y2="272.63513513513516" stroke="#44aa44" stroke-width="0.5" opacity="0.6"/>
<rect x="243.0" y="270.2027027027027" width="6.0" height="2.371621621621671" fill="#44aa44" opacity="0.85"/>
<line x1="258.0" y1="276.83108108108115" x2="258.0" y2="287.26013513513516" stroke="#44aa44" stroke-width="0.5" opacity="0.6"/>
<rect x="255.0" y="278.1081081081081" width="6.0" height="7.753378378378386" fill="#44aa44" opacity="0.85"/>
<line x1="270.0" y1="282.39527027027026" x2="270.0" y2="288.26351351351354" stroke="#ff4444" stroke-width="0.5" opacity="0.6"/>
<rect x="267.0" y="282.7297297297298" width="6.0" height="0.5" fill="#ff4444" opacity="0.85"/>
<line x1="282.0" y1="276.89189189189193" x2="282.0" y2="282.3648648648649" stroke="#ff4444" stroke-width="0.5" opacity="0.6"/>
<rect x="279.0" y="279.93243243243245" width="6.0" height="0.5" fill="#ff4444" opacity="0.85"/>
<line x1="294.0" y1="279.3547297297297" x2="294.0" y2="287.83783783783787" stroke="#44aa44" stroke-width="0.5" opacity="0.6"/>
<rect x="291.0" y="279.6891891891892" width="6.0" height="7.510135135135158" fill="#44aa44" opacity="0.85"/>
<line x1="306.0" y1="286.43918918918916" x2="306.0" y2="292.7635135135135" stroke="#ff4444" stroke-width="0.5" opacity="0.6"/>
<rect x="303.0" y="289.2060810810811" width="6.0" height="0.5" fill="#ff4444" opacity="0.85"/>
<line x1="318.0" y1="287.44256756756755" x2="318.0" y2="294.49662162162167" stroke="#ff4444" stroke-width="0.5" opacity="0.6"/>
<rect x="315.0" y="288.14189189189193" width="6.0" height="5.0168918918918735" fill="#ff4444" opacity="0.85"/>
<line x1="330.0" y1="286.6216216216216" x2="330.0" y2="293.2804054054054" stroke="#44aa44" stroke-width="0.5" opacity="0.6"/>
<rect x="327.0" y="289.6621621621622" width="6.0" height="1.3074324324323925" fill="#44aa44" opacity="0.85"/>
<line x1="342.0" y1="285.46621621621625" x2="342.0" y2="289.8141891891892" stroke="#44aa44" stroke-width="0.5" opacity="0.6"/>
<rect x="339.0" y="286.77364864864865" width="6.0" height="1.3682432432432847" fill="#44aa44" opacity="0.85"/>
<line x1="354.0" y1="289.9966216216216" x2="354.0" y2="300.0" stroke="#44aa44" stroke-width="0.5" opacity="0.6"/>
<rect x="351.0" y="291.06081081081084" width="6.0" height="7.631756756756772" fill="#44aa44" opacity="0.85"/>
<line x1="366.0" y1="293.6148648648649" x2="366.0" y2="297.47635135135135" stroke="#ff4444" stroke-width="0.5" opacity="0.6"/>
<rect x="363.0" y="296.0472972972973" width="6.0" height="1.3986486486487024" fill="#ff4444" opacity="0.85"/>
<line x1="378.0" y1="285.4358108108108" x2="378.0" y2="294.52702702702703" stroke="#ff4444" stroke-width="0.5" opacity="0.6"/>
<rect x="375.0" y="287.83783783783787" width="6.0" height="5.594594594594582" fill="#ff4444" opacity="0.85"/>
<line x1="390.0" y1="275.9493243243244" x2="390.0" y2="283.3378378378378" stroke="#ff4444" stroke-width="0.5" opacity="0.6"/>
<rect x="387.0" y="276.34459459459464" width="6.0" height="6.0202702702702595" fill="#ff4444" opacity="0.85"/>
<line x1="402.0" y1="274.0033783783784" x2="402.0" y2="280.7533783783784" stroke="#ff4444" stroke-width="0.5" opacity="0.6"/>
<rect x="399.0" y="275.6756756756757" width="6.0" height="4.226351351351298" fill="#ff4444" opacity="0.85"/>
<line x1="414.0" y1="266.37162162162167" x2="414.0" y2="275.6756756756757" stroke="#ff4444" stroke-width="0.5" opacity="0.6"/>
<rect x="411.0" y="269.56418918918916" width="6.0" height="3.253378378378386" fill="#ff4444" opacity="0.85"/>
<line x1="426.0" y1="259.56081081081084" x2="426.0" y2="272.3918918918919" stroke="#ff4444" stroke-width="0.5" opacity="0.6"/>
<rect x="423.0" y="262.6925675675676" width="6.0" height="9.456081081081038" fill="#ff4444" opacity="0.85"/>
<line x1="438.0" y1="249.9527027027027" x2="438.0" y2="263.2702702702703" stroke="#ff4444" stroke-width="0.5" opacity="0.6"/>
<rect x="435.0" y="252.50675675675677" width="6.0" height="7.054054054054063" fill="#ff4444" opacity="0.85"/>
<line x1="450.0" y1="239.79729729729732" x2="450.0" y2="253.3581081081081" stroke="#44aa44" stroke-width="0.5" opacity="0.6"/>
<rect x="447.0" y="247.39864864864867" width="6.0" height="4.864864864864842" fill="#44aa44" opacity="0.85"/>
<line x1="462.0" y1="248.49324324324326" x2="462.0" y2="254.9695945945946" stroke="#ff4444" stroke-width="0.5" opacity="0.6"/>
<rect x="459.0" y="250.25675675675674" width="6.0" height="0.7297297297297689" fill="#ff4444" opacity="0.85"/>
<line x1="474.0" y1="241.71283783783784" x2="474.0" y2="252.8716216216216" stroke="#ff4444" stroke-width="0.5" opacity="0.6"/>
<rect x="471.0" y="245.11824324324326" width="6.0" height="6.689189189189193" fill="#ff4444" opacity="0.85"/>
<line x1="486.0" y1="238.30743243243245" x2="486.0" y2="246.66891891891893" stroke="#ff4444" stroke-width="0.5" opacity="0.6"/>
<rect x="483.0" y="243.44594594594597" width="6.0" height="1.5810810810810665" fill="#ff4444" opacity="0.85"/>
<line x1="498.0" y1="230.6756756756757" x2="498.0" y2="245.66554054054058" stroke="#ff4444" stroke-width="0.5" opacity="0.6"/>
<rect x="495.0" y="235.08445945945948" width="6.0" height="9.2432432432432" fill="#ff4444" opacity="0.85"/>
<line x1="510.0" y1="223.25675675675677" x2="510.0" y2="236.75675675675677" stroke="#ff4444" stroke-width="0.5" opacity="0.6"/>
<rect x="507.0" y="224.5945945945946" width="6.0" height="10.520270270270231" fill="#ff4444" opacity="0.85"/>
<line x1="522.0" y1="216.99324324324323" x2="522.0" y2="232.16554054054052" stroke="#44aa44" stroke-width="0.5" opacity="0.6"/>
<rect x="519.0" y="224.56418918918916" width="6.0" height="3.222972972972997" fill="#44aa44" opacity="0.85"/>
<line x1="534.0" y1="225.50675675675674" x2="534.0" y2="238.125" stroke="#44aa44" stroke-width="0.5" opacity="0.6"/>
<rect x="531.0" y="230.06756756756755" width="6.0" height="4.773648648648674" fill="#44aa44" opacity="0.85"/>
<line x1="546.0" y1="219.63851351351354" x2="546.0" y2="230.6756756756757" stroke="#ff4444" stroke-width="0.5" opacity="0.6"/>
<rect x="543.0" y="222.55743243243242" width="6.0" height="8.118243243243285" fill="#ff4444" opacity="0.85"/>
<line x1="558.0" y1="218.20945945945948" x2="558.0" y2="230.402027027027" stroke="#44aa44" stroke-width="0.5" opacity="0.6"/>
<rect x="555.0" y="220.52027027027026" width="6.0" height="2.189189189189193" fill="#44aa44" opacity="0.85"/>
<line x1="570.0" y1="209.78716216216216" x2="570.0" y2="224.65540540540542" stroke="#ff4444" stroke-width="0.5" opacity="0.6"/>
<rect x="567.0" y="218.51351351351352" width="6.0" height="4.074324324324351" fill="#ff4444" opacity="0.85"/>
<line x1="582.0" y1="211.0641891891892" x2="582.0" y2="223.62162162162164" stroke="#44aa44" stroke-width="0.5" opacity="0.6"/>
<rect x="579.0" y="215.47297297297297" width="6.0" height="7.570945945945937" fill="#44aa44" opacity="0.85"/>
<line x1="594.0" y1="204.01013513513516" x2="594.0" y2="216.0810810810811" stroke="#ff4444" stroke-width="0.5" opacity="0.6"/>
<rect x="591.0" y="209.9695945945946" width="6.0" height="6.111486486486484" fill="#ff4444" opacity="0.85"/>
<line x1="606.0" y1="203.3108108108108" x2="606.0" y2="212.43243243243242" stroke="#44aa44" stroke-width="0.5" opacity="0.6"/>
<rect x="603.0" y="205.07432432432432" width="6.0" height="1.2770270270270316" fill="#44aa44" opacity="0.85"/>
<line x1="618.0" y1="199.81418918918916" x2="618.0" y2="212.1283783783784" stroke="#ff4444" stroke-width="0.5" opacity="0.6"/>
<rect x="615.0" y="206.35135135135135" width="6.0" height="4.469594594594582" fill="#ff4444" opacity="0.85"/>
<line x1="630.0" y1="199.41891891891893" x2="630.0" y2="209.3918918918919" stroke="#ff4444" stroke-width="0.5" opacity="0.6"/>
<rect x="627.0" y="201.30405405405406" width="6.0" height="3.1621621621621614" fill="#ff4444" opacity="0.85"/>
<line x1="642.0" y1="193.1858108108108" x2="642.0" y2="204.83108108108107" stroke="#ff4444" stroke-width="0.5" opacity="0.6"/>
<rect x="639.0" y="195.3445945945946" width="6.0" height="5.837837837837839" fill="#ff4444" opacity="0.85"/>
<line x1="654.0" y1="169.31756756756755" x2="654.0" y2="197.16891891891893" stroke="#ff4444" stroke-width="0.5" opacity="0.6"/>
<rect x="651.0" y="169.31756756756755" width="6.0" height="27.851351351351383" fill="#ff4444" opacity="0.85"/>
<line x1="666.0" y1="150.10135135135135" x2="666.0" y2="172.60135135135138" stroke="#44aa44" stroke-width="0.5" opacity="0.6"/>
<rect x="663.0" y="157.36824324324326" width="6.0" height="14.564189189189193" fill="#44aa44" opacity="0.85"/>
<line x1="678.0" y1="170.35135135135135" x2="678.0" y2="189.1722972972973" stroke="#44aa44" stroke-width="0.5" opacity="0.6"/>
<rect x="675.0" y="171.75" width="6.0" height="10.429054054054035" fill="#44aa44" opacity="0.85"/>
<line x1="690.0" y1="154.81418918918916" x2="690.0" y2="181.32770270270268" stroke="#ff4444" stroke-width="0.5" opacity="0.6"/>
<rect x="687.0" y="154.81418918918916" width="6.0" height="26.513513513513516" fill="#ff4444" opacity="0.85"/>
<line x1="702.0" y1="145.9358108108108" x2="702.0" y2="169.8040540540541" stroke="#ff4444" stroke-width="0.5" opacity="0.6"/>
<rect x="699.0" y="149.25" width="6.0" height="8.908783783783804" fill="#ff4444" opacity="0.85"/>
<line x1="714.0" y1="144.41554054054052" x2="714.0" y2="157.7939189189189" stroke="#ff4444" stroke-width="0.5" opacity="0.6"/>
<rect x="711.0" y="149.9189189189189" width="6.0" height="3.192567567567579" fill="#ff4444" opacity="0.85"/>
<line x1="726.0" y1="128.81756756756758" x2="726.0" y2="158.7364864864865" stroke="#44aa44" stroke-width="0.5" opacity="0.6"/>
<rect x="723.0" y="145.08445945945945" width="6.0" height="12.040540540540547" fill="#44aa44" opacity="0.85"/>
<line x1="738.0" y1="127.26689189189187" x2="738.0" y2="145.54054054054055" stroke="#ff4444" stroke-width="0.5" opacity="0.6"/>
<rect x="735.0" y="127.26689189189187" width="6.0" height="17.96959459459464" fill="#ff4444" opacity="0.85"/>
<line x1="750.0" y1="97.46959459459458" x2="750.0" y2="120.15202702702705" stroke="#ff4444" stroke-width="0.5" opacity="0.6"/>
<rect x="747.0" y="101.39189189189192" width="6.0" height="7.662162162162133" fill="#ff4444" opacity="0.85"/>
<line x1="762.0" y1="65.96959459459464" x2="762.0" y2="104.18918918918921" stroke="#ff4444" stroke-width="0.5" opacity="0.6"/>
<rect x="759.0" y="65.96959459459464" width="6.0" height="37.97635135135128" fill="#ff4444" opacity="0.85"/>
<line x1="774.0" y1="30.0" x2="774.0" y2="63.476351351351326" stroke="#44aa44" stroke-width="0.5" opacity="0.6"/>
<rect x="771.0" y="51.28378378378378" width="6.0" height="3.770270270270302" fill="#44aa44" opacity="0.85"/>
<rect x="122.0" y="259.2702702702703" width="8" height="8" fill="#4caf50" opacity="0.85" rx="1"/>
<text x="126.0" y="257.2702702702703" text-anchor="middle" font-family="sans-serif" font-size="8" fill="#4caf50">前低</text>
<rect x="134.0" y="275.11148648648657" width="8" height="8" fill="#4caf50" opacity="0.85" rx="1"/>
<text x="138.0" y="273.11148648648657" text-anchor="middle" font-family="sans-serif" font-size="8" fill="#4caf50">前低</text>
<rect x="254.0" y="283.26013513513516" width="8" height="8" fill="#4caf50" opacity="0.85" rx="1"/>
<text x="258.0" y="281.26013513513516" text-anchor="middle" font-family="sans-serif" font-size="8" fill="#4caf50">前低</text>
<rect x="266.0" y="284.26351351351354" width="8" height="8" fill="#4caf50" opacity="0.85" rx="1"/>
<text x="270.0" y="282.26351351351354" text-anchor="middle" font-family="sans-serif" font-size="8" fill="#4caf50">前低</text>
<rect x="302.0" y="288.7635135135135" width="8" height="8" fill="#4caf50" opacity="0.85" rx="1"/>
<text x="306.0" y="286.7635135135135" text-anchor="middle" font-family="sans-serif" font-size="8" fill="#4caf50">前低</text>
<rect x="314.0" y="290.49662162162167" width="8" height="8" fill="#4caf50" opacity="0.85" rx="1"/>
<text x="318.0" y="288.49662162162167" text-anchor="middle" font-family="sans-serif" font-size="8" fill="#4caf50">前低</text>
<rect x="350.0" y="296.0" width="8" height="8" fill="#4caf50" opacity="0.85" rx="1"/>
<text x="354.0" y="294.0" text-anchor="middle" font-family="sans-serif" font-size="8" fill="#4caf50">前低</text>
<rect x="386.0" y="271.9493243243244" width="8" height="8" fill="#ff9800" opacity="0.85" rx="1"/>
<text x="390.0" y="269.9493243243244" text-anchor="middle" font-family="sans-serif" font-size="8" fill="#ff9800">前高</text>
<rect x="386.0" y="271.9493243243244" width="8" height="8" fill="#2196f3" opacity="0.85" rx="1"/>
<text x="390.0" y="269.9493243243244" text-anchor="middle" font-family="sans-serif" font-size="8" fill="#2196f3">突</text>
<rect x="398.0" y="270.0033783783784" width="8" height="8" fill="#ff9800" opacity="0.85" rx="1"/>
<text x="402.0" y="268.0033783783784" text-anchor="middle" font-family="sans-serif" font-size="8" fill="#ff9800">前高</text>
<rect x="398.0" y="270.0033783783784" width="8" height="8" fill="#2196f3" opacity="0.85" rx="1"/>
<text x="402.0" y="268.0033783783784" text-anchor="middle" font-family="sans-serif" font-size="8" fill="#2196f3">突</text>
<rect x="410.0" y="262.37162162162167" width="8" height="8" fill="#ff9800" opacity="0.85" rx="1"/>
<text x="414.0" y="260.37162162162167" text-anchor="middle" font-family="sans-serif" font-size="8" fill="#ff9800">前高</text>
<rect x="422.0" y="255.56081081081084" width="8" height="8" fill="#ff9800" opacity="0.85" rx="1"/>
<text x="426.0" y="253.56081081081084" text-anchor="middle" font-family="sans-serif" font-size="8" fill="#ff9800">前高</text>
<rect x="422.0" y="255.56081081081084" width="8" height="8" fill="#2196f3" opacity="0.85" rx="1"/>
<text x="426.0" y="253.56081081081084" text-anchor="middle" font-family="sans-serif" font-size="8" fill="#2196f3">突</text>
<rect x="434.0" y="245.9527027027027" width="8" height="8" fill="#ff9800" opacity="0.85" rx="1"/>
<text x="438.0" y="243.9527027027027" text-anchor="middle" font-family="sans-serif" font-size="8" fill="#ff9800">前高</text>
<rect x="434.0" y="245.9527027027027" width="8" height="8" fill="#2196f3" opacity="0.85" rx="1"/>
<text x="438.0" y="243.9527027027027" text-anchor="middle" font-family="sans-serif" font-size="8" fill="#2196f3">突</text>
<rect x="446.0" y="235.79729729729732" width="8" height="8" fill="#ff9800" opacity="0.85" rx="1"/>
<text x="450.0" y="233.79729729729732" text-anchor="middle" font-family="sans-serif" font-size="8" fill="#ff9800">前高</text>
<rect x="482.0" y="234.30743243243245" width="8" height="8" fill="#ff9800" opacity="0.85" rx="1"/>
<text x="486.0" y="232.30743243243245" text-anchor="middle" font-family="sans-serif" font-size="8" fill="#ff9800">前高</text>
<rect x="494.0" y="226.6756756756757" width="8" height="8" fill="#ff9800" opacity="0.85" rx="1"/>
<text x="498.0" y="224.6756756756757" text-anchor="middle" font-family="sans-serif" font-size="8" fill="#ff9800">前高</text>
<rect x="494.0" y="226.6756756756757" width="8" height="8" fill="#2196f3" opacity="0.85" rx="1"/>
<text x="498.0" y="224.6756756756757" text-anchor="middle" font-family="sans-serif" font-size="8" fill="#2196f3">突</text>
<rect x="506.0" y="219.25675675675677" width="8" height="8" fill="#ff9800" opacity="0.85" rx="1"/>
<text x="510.0" y="217.25675675675677" text-anchor="middle" font-family="sans-serif" font-size="8" fill="#ff9800">前高</text>
<rect x="506.0" y="219.25675675675677" width="8" height="8" fill="#2196f3" opacity="0.85" rx="1"/>
<text x="510.0" y="217.25675675675677" text-anchor="middle" font-family="sans-serif" font-size="8" fill="#2196f3">突</text>
<rect x="518.0" y="212.99324324324323" width="8" height="8" fill="#ff9800" opacity="0.85" rx="1"/>
<text x="522.0" y="210.99324324324323" text-anchor="middle" font-family="sans-serif" font-size="8" fill="#ff9800">前高</text>
<rect x="566.0" y="205.78716216216216" width="8" height="8" fill="#ff9800" opacity="0.85" rx="1"/>
<text x="570.0" y="203.78716216216216" text-anchor="middle" font-family="sans-serif" font-size="8" fill="#ff9800">前高</text>
<rect x="590.0" y="200.01013513513516" width="8" height="8" fill="#ff9800" opacity="0.85" rx="1"/>
<text x="594.0" y="198.01013513513516" text-anchor="middle" font-family="sans-serif" font-size="8" fill="#ff9800">前高</text>
<rect x="602.0" y="199.3108108108108" width="8" height="8" fill="#ff9800" opacity="0.85" rx="1"/>
<text x="606.0" y="197.3108108108108" text-anchor="middle" font-family="sans-serif" font-size="8" fill="#ff9800">前高</text>
<rect x="614.0" y="195.81418918918916" width="8" height="8" fill="#ff9800" opacity="0.85" rx="1"/>
<text x="618.0" y="193.81418918918916" text-anchor="middle" font-family="sans-serif" font-size="8" fill="#ff9800">前高</text>
<rect x="626.0" y="195.41891891891893" width="8" height="8" fill="#ff9800" opacity="0.85" rx="1"/>
<text x="630.0" y="193.41891891891893" text-anchor="middle" font-family="sans-serif" font-size="8" fill="#ff9800">前高</text>
<rect x="638.0" y="189.1858108108108" width="8" height="8" fill="#ff9800" opacity="0.85" rx="1"/>
<text x="642.0" y="187.1858108108108" text-anchor="middle" font-family="sans-serif" font-size="8" fill="#ff9800">前高</text>
<rect x="638.0" y="189.1858108108108" width="8" height="8" fill="#2196f3" opacity="0.85" rx="1"/>
<text x="642.0" y="187.1858108108108" text-anchor="middle" font-family="sans-serif" font-size="8" fill="#2196f3">突</text>
<rect x="650.0" y="165.31756756756755" width="8" height="8" fill="#ff9800" opacity="0.85" rx="1"/>
<text x="654.0" y="163.31756756756755" text-anchor="middle" font-family="sans-serif" font-size="8" fill="#ff9800">前高</text>
<rect x="650.0" y="165.31756756756755" width="8" height="8" fill="#2196f3" opacity="0.85" rx="1"/>
<text x="654.0" y="163.31756756756755" text-anchor="middle" font-family="sans-serif" font-size="8" fill="#2196f3">突</text>
<rect x="662.0" y="146.10135135135135" width="8" height="8" fill="#ff9800" opacity="0.85" rx="1"/>
<text x="666.0" y="144.10135135135135" text-anchor="middle" font-family="sans-serif" font-size="8" fill="#ff9800">前高</text>
<rect x="698.0" y="141.9358108108108" width="8" height="8" fill="#ff9800" opacity="0.85" rx="1"/>
<text x="702.0" y="139.9358108108108" text-anchor="middle" font-family="sans-serif" font-size="8" fill="#ff9800">前高</text>
<rect x="698.0" y="141.9358108108108" width="8" height="8" fill="#2196f3" opacity="0.85" rx="1"/>
<text x="702.0" y="139.9358108108108" text-anchor="middle" font-family="sans-serif" font-size="8" fill="#2196f3">突</text>
<rect x="710.0" y="140.41554054054052" width="8" height="8" fill="#ff9800" opacity="0.85" rx="1"/>
<text x="714.0" y="138.41554054054052" text-anchor="middle" font-family="sans-serif" font-size="8" fill="#ff9800">前高</text>
<rect x="722.0" y="124.81756756756758" width="8" height="8" fill="#ff9800" opacity="0.85" rx="1"/>
<text x="726.0" y="122.81756756756758" text-anchor="middle" font-family="sans-serif" font-size="8" fill="#ff9800">前高</text>
<rect x="734.0" y="123.26689189189187" width="8" height="8" fill="#ff9800" opacity="0.85" rx="1"/>
<text x="738.0" y="121.26689189189187" text-anchor="middle" font-family="sans-serif" font-size="8" fill="#ff9800">前高</text>
<rect x="734.0" y="123.26689189189187" width="8" height="8" fill="#2196f3" opacity="0.85" rx="1"/>
<text x="738.0" y="121.26689189189187" text-anchor="middle" font-family="sans-serif" font-size="8" fill="#2196f3">突</text>
<rect x="746.0" y="93.46959459459458" width="8" height="8" fill="#ff9800" opacity="0.85" rx="1"/>
<text x="750.0" y="91.46959459459458" text-anchor="middle" font-family="sans-serif" font-size="8" fill="#ff9800">前高</text>
<rect x="746.0" y="93.46959459459458" width="8" height="8" fill="#2196f3" opacity="0.85" rx="1"/>
<text x="750.0" y="91.46959459459458" text-anchor="middle" font-family="sans-serif" font-size="8" fill="#2196f3">突</text>
<rect x="758.0" y="61.96959459459464" width="8" height="8" fill="#ff9800" opacity="0.85" rx="1"/>
<text x="762.0" y="59.96959459459464" text-anchor="middle" font-family="sans-serif" font-size="8" fill="#ff9800">前高</text>
<rect x="758.0" y="61.96959459459464" width="8" height="8" fill="#2196f3" opacity="0.85" rx="1"/>
<text x="762.0" y="59.96959459459464" text-anchor="middle" font-family="sans-serif" font-size="8" fill="#2196f3">突</text>
<rect x="770.0" y="26.0" width="8" height="8" fill="#ff9800" opacity="0.85" rx="1"/>
<text x="774.0" y="24.0" text-anchor="middle" font-family="sans-serif" font-size="8" fill="#ff9800">前高</text>
<text x="66.0" y="359" text-anchor="middle" font-family="sans-serif" font-size="8" fill="#666666" transform="rotate(-40,66.0,359)">02/27</text>
<text x="138.0" y="359" text-anchor="middle" font-family="sans-serif" font-size="8" fill="#666666" transform="rotate(-40,138.0,359)">03/09</text>
<text x="210.0" y="359" text-anchor="middle" font-family="sans-serif" font-size="8" fill="#666666" transform="rotate(-40,210.0,359)">03/17</text>
<text x="282.0" y="359" text-anchor="middle" font-family="sans-serif" font-size="8" fill="#666666" transform="rotate(-40,282.0,359)">03/25</text>
<text x="354.0" y="359" text-anchor="middle" font-family="sans-serif" font-size="8" fill="#666666" transform="rotate(-40,354.0,359)">04/02</text>
<text x="426.0" y="359" text-anchor="middle" font-family="sans-serif" font-size="8" fill="#666666" transform="rotate(-40,426.0,359)">04/13</text>
<text x="498.0" y="359" text-anchor="middle" font-family="sans-serif" font-size="8" fill="#666666" transform="rotate(-40,498.0,359)">04/21</text>
<text x="570.0" y="359" text-anchor="middle" font-family="sans-serif" font-size="8" fill="#666666" transform="rotate(-40,570.0,359)">04/29</text>
<text x="642.0" y="359" text-anchor="middle" font-family="sans-serif" font-size="8" fill="#666666" transform="rotate(-40,642.0,359)">05/12</text>
<text x="714.0" y="359" text-anchor="middle" font-family="sans-serif" font-size="8" fill="#666666" transform="rotate(-40,714.0,359)">05/20</text>
<text x="774.0" y="359" text-anchor="middle" font-family="sans-serif" font-size="8" fill="#666666" transform="rotate(-40,774.0,359)">05/27</text>
<text x="400.0" y="396" text-anchor="middle" font-family="sans-serif" font-size="9" fill="#555555">数据截至: 2026-05-27 20:55  |  最新K线: 20260527</text>
<rect x="50" y="373" width="8" height="8" fill="#ffd700" opacity="0.8" rx="1"/>
<text x="61" y="380" font-family="sans-serif" font-size="9" fill="#888888">EMA5</text>
<rect x="150" y="373" width="8" height="8" fill="#ff6b6b" opacity="0.8" rx="1"/>
<text x="161" y="380" font-family="sans-serif" font-size="9" fill="#888888">EMA10</text>
<rect x="250" y="373" width="8" height="8" fill="#4ecdc4" opacity="0.8" rx="1"/>
<text x="261" y="380" font-family="sans-serif" font-size="9" fill="#888888">EMA20</text>
<rect x="350" y="373" width="8" height="8" fill="#2196f3" opacity="0.8" rx="1"/>
<text x="361" y="380" font-family="sans-serif" font-size="9" fill="#888888">突破</text>
<rect x="450" y="373" width="8" height="8" fill="#ff9800" opacity="0.8" rx="1"/>
<text x="461" y="380" font-family="sans-serif" font-size="9" fill="#888888">前高/量</text>
<rect x="550" y="373" width="8" height="8" fill="#4caf50" opacity="0.8" rx="1"/>
<text x="561" y="380" font-family="sans-serif" font-size="9" fill="#888888">前低</text>
</svg>