<svg xmlns="http://www.w3.org/2000/svg" width="750" height="540" viewBox="0 0 750 540">
<rect width="750" height="540" fill="#1a1a2e"/>
<text x="375.0" y="22" text-anchor="middle" font-family="sans-serif" font-size="15" fill="#ffffff" font-weight="bold">生益科技(600183) 趋势交易分析图</text>
<text x="60" y="31" font-family="sans-serif" font-size="10" fill="#888888">最新: 128.17</text>
<line x1="60" y1="93.82201690533239" x2="725" y2="93.82201690533239" stroke="#4ecdc4" stroke-width="0.5" stroke-dasharray="4,3" opacity="0.4"/>
<text x="62" y="91.82201690533239" font-family="sans-serif" font-size="7" fill="#4ecdc4" opacity="0.6">买入↑2%</text>
<line x1="60" y1="59.94275962495836" x2="725" y2="59.94275962495836" stroke="#e94560" stroke-width="0.5" stroke-dasharray="4,3" opacity="0.4"/>
<text x="62" y="57.94275962495836" font-family="sans-serif" font-size="7" fill="#e94560" opacity="0.6">警戒↑8%</text>
<rect x="60" y="93.82201690533239" width="3" height="289.17798309466764" fill="#4ecdc4" opacity="0.3" rx="1"/>
<rect x="60" y="59.94275962495836" width="3" height="323.05724037504166" fill="#e94560" opacity="0.3" rx="1"/>
<rect x="60" y="59.94275962495836" width="3" height="33.87925728037403" fill="#ffd700" opacity="0.2" rx="1"/>
<line x1="60" y1="32.0" x2="725" y2="32.0" stroke="#2a2a4e" stroke-width="0.5"/>
<text x="56" y="35.0" text-anchor="end" font-family="sans-serif" font-size="8" fill="#666666">128.2</text>
<line x1="60" y1="127.74999999999999" x2="725" y2="127.74999999999999" stroke="#2a2a4e" stroke-width="0.5"/>
<text x="56" y="130.75" text-anchor="end" font-family="sans-serif" font-size="8" fill="#666666">108.9</text>
<line x1="60" y1="223.49999999999997" x2="725" y2="223.49999999999997" stroke="#2a2a4e" stroke-width="0.5"/>
<text x="56" y="226.49999999999997" text-anchor="end" font-family="sans-serif" font-size="8" fill="#666666">89.7</text>
<line x1="60" y1="319.25" x2="725" y2="319.25" stroke="#2a2a4e" stroke-width="0.5"/>
<text x="56" y="322.25" text-anchor="end" font-family="sans-serif" font-size="8" fill="#666666">70.4</text>
<line x1="60" y1="415.0" x2="725" y2="415.0" stroke="#2a2a4e" stroke-width="0.5"/>
<text x="56" y="418.0" text-anchor="end" font-family="sans-serif" font-size="8" fill="#666666">51.2</text>
<rect x="61.66250000000001" y="447.00124332728075" width="6.095833333333334" height="27.99875667271924" fill="#ff4444" opacity="0.35"/>
<rect x="72.74583333333334" y="456.11041324047255" width="6.095833333333334" height="18.88958675952745" fill="#44aa44" opacity="0.35"/>
<rect x="83.82916666666668" y="460.532201855575" width="6.095833333333334" height="14.467798144424982" fill="#ff4444" opacity="0.35"/>
<rect x="94.91250000000001" y="450.4108811466859" width="6.095833333333334" height="24.58911885331413" fill="#44aa44" opacity="0.35"/>
<rect x="105.99583333333335" y="458.8215033560207" width="6.095833333333334" height="16.178496643979333" fill="#44aa44" opacity="0.35"/>
<rect x="117.07916666666668" y="456.01821228368834" width="6.095833333333334" height="18.98178771631166" fill="#44aa44" opacity="0.35"/>
<rect x="128.1625" y="460.2244034543527" width="6.095833333333334" height="14.775596545647339" fill="#44aa44" opacity="0.35"/>
<rect x="139.24583333333334" y="453.9618912698523" width="6.095833333333334" height="21.03810873014769" fill="#44aa44" opacity="0.35"/>
<rect x="150.32916666666668" y="454.7390831691792" width="6.095833333333334" height="20.260916830820822" fill="#ff4444" opacity="0.35"/>
<rect x="161.4125" y="459.658689541606" width="6.095833333333334" height="15.34131045839401" fill="#44aa44" opacity="0.35"/>
<rect x="172.49583333333334" y="460.59661519662654" width="6.095833333333334" height="14.403384803373461" fill="#44aa44" opacity="0.35"/>
<rect x="183.57916666666668" y="458.3940908784503" width="6.095833333333334" height="16.605909121549686" fill="#ff4444" opacity="0.35"/>
<rect x="194.6625" y="457.4872858550657" width="6.095833333333334" height="17.512714144934296" fill="#ff4444" opacity="0.35"/>
<rect x="205.74583333333334" y="456.9734022120954" width="6.095833333333334" height="18.026597787904628" fill="#44aa44" opacity="0.35"/>
<rect x="216.82916666666668" y="458.4816480827401" width="6.095833333333334" height="16.518351917259885" fill="#ff4444" opacity="0.35"/>
<rect x="227.9125" y="459.4236182963848" width="6.095833333333334" height="15.576381703615173" fill="#44aa44" opacity="0.35"/>
<rect x="238.99583333333334" y="455.2424809194202" width="6.095833333333334" height="19.757519080579808" fill="#44aa44" opacity="0.35"/>
<rect x="250.07916666666668" y="452.01278850917356" width="6.095833333333334" height="22.98721149082645" fill="#44aa44" opacity="0.35"/>
<rect x="261.1625" y="459.72212919261835" width="6.095833333333334" height="15.277870807381639" fill="#ff4444" opacity="0.35"/>
<rect x="272.2458333333334" y="459.375720236382" width="6.095833333333334" height="15.624279763618018" fill="#ff4444" opacity="0.35"/>
<rect x="283.3291666666667" y="457.1879510672606" width="6.095833333333334" height="17.81204893273942" fill="#44aa44" opacity="0.35"/>
<rect x="294.4125" y="461.00736259468067" width="6.095833333333334" height="13.992637405319345" fill="#ff4444" opacity="0.35"/>
<rect x="305.4958333333334" y="463.4103547120713" width="6.095833333333334" height="11.589645287928704" fill="#ff4444" opacity="0.35"/>
<rect x="316.5791666666667" y="462.884150145144" width="6.095833333333334" height="12.115849854855986" fill="#44aa44" opacity="0.35"/>
<rect x="327.6625" y="462.5777748293635" width="6.095833333333334" height="12.422225170636505" fill="#44aa44" opacity="0.35"/>
<rect x="338.7458333333334" y="451.5560904311949" width="6.095833333333334" height="23.44390956880511" fill="#44aa44" opacity="0.35"/>
<rect x="349.8291666666667" y="460.23814746375143" width="6.095833333333334" height="14.761852536248554" fill="#ff4444" opacity="0.35"/>
<rect x="360.9125" y="452.73665215404844" width="6.095833333333334" height="22.263347845951536" fill="#ff4444" opacity="0.35"/>
<rect x="371.9958333333334" y="449.27304943670424" width="6.095833333333334" height="25.726950563295738" fill="#ff4444" opacity="0.35"/>
<rect x="383.0791666666667" y="459.3021317391923" width="6.095833333333334" height="15.697868260807692" fill="#ff4444" opacity="0.35"/>
<rect x="394.1625" y="452.4220379225521" width="6.095833333333334" height="22.577962077447946" fill="#ff4444" opacity="0.35"/>
<rect x="405.2458333333334" y="449.9574037357598" width="6.095833333333334" height="25.042596264240213" fill="#ff4444" opacity="0.35"/>
<rect x="416.3291666666667" y="445.05307680702424" width="6.095833333333334" height="29.94692319297574" fill="#ff4444" opacity="0.35"/>
<rect x="427.4125" y="440.1407731098911" width="6.095833333333334" height="34.859226890108914" fill="#44aa44" opacity="0.35"/>
<rect x="438.4958333333334" y="455.1423780934721" width="6.095833333333334" height="19.857621906527896" fill="#ff4444" opacity="0.35"/>
<rect x="449.5791666666667" y="453.70094233935987" width="6.095833333333334" height="21.299057660640134" fill="#ff4444" opacity="0.35"/>
<rect x="460.6625" y="453.8736974220754" width="6.095833333333334" height="21.12630257792463" fill="#ff4444" opacity="0.35"/>
<rect x="471.7458333333334" y="447.4599262349546" width="6.095833333333334" height="27.540073765045385" fill="#ff4444" opacity="0.35"/>
<rect x="482.8291666666667" y="449.5841808538299" width="6.095833333333334" height="25.415819146170136" fill="#ff4444" opacity="0.35"/>
<rect x="493.9125" y="447.8222887279863" width="6.095833333333334" height="27.17771127201369" fill="#44aa44" opacity="0.35"/>
<rect x="504.9958333333334" y="453.4871424765325" width="6.095833333333334" height="21.512857523467535" fill="#44aa44" opacity="0.35"/>
<rect x="516.0791666666667" y="454.10790732610803" width="6.095833333333334" height="20.89209267389195" fill="#ff4444" opacity="0.35"/>
<rect x="527.1624999999999" y="451.5700965879119" width="6.095833333333334" height="23.429903412088095" fill="#44aa44" opacity="0.35"/>
<rect x="538.2458333333333" y="447.42172762572636" width="6.095833333333334" height="27.578272374273613" fill="#ff4444" opacity="0.35"/>
<rect x="549.3291666666667" y="457.4393877950629" width="6.095833333333334" height="17.560612204937144" fill="#44aa44" opacity="0.35"/>
<rect x="560.4124999999999" y="452.4116269290565" width="6.095833333333334" height="22.588373070943483" fill="#ff4444" opacity="0.35"/>
<rect x="571.4958333333333" y="458.10943634046623" width="6.095833333333334" height="16.89056365953376" fill="#44aa44" opacity="0.35"/>
<rect x="582.5791666666667" y="460.75708680500196" width="6.095833333333334" height="14.242913194998016" fill="#ff4444" opacity="0.35"/>
<rect x="593.6624999999999" y="457.00594592917315" width="6.095833333333334" height="17.994054070826856" fill="#ff4444" opacity="0.35"/>
<rect x="604.7458333333333" y="455.94803170163567" width="6.095833333333334" height="19.051968298364308" fill="#ff4444" opacity="0.35"/>
<rect x="615.8291666666667" y="448.18944477198" width="6.095833333333334" height="26.810555228020018" fill="#ff4444" opacity="0.35"/>
<rect x="626.9124999999999" y="440.0" width="6.095833333333334" height="35.0" fill="#44aa44" opacity="0.35"/>
<rect x="637.9958333333333" y="452.5957292456898" width="6.095833333333334" height="22.404270754310183" fill="#44aa44" opacity="0.35"/>
<rect x="649.0791666666667" y="446.7907390307397" width="6.095833333333334" height="28.209260969260285" fill="#ff4444" opacity="0.35"/>
<rect x="660.1624999999999" y="444.6100103895937" width="6.095833333333334" height="30.389989610406285" fill="#ff4444" opacity="0.35"/>
<rect x="671.2458333333333" y="455.50882259474486" width="6.095833333333334" height="19.491177405255144" fill="#ff4444" opacity="0.35"/>
<rect x="682.3291666666667" y="447.785138708031" width="6.095833333333334" height="27.214861291968983" fill="#44aa44" opacity="0.35"/>
<rect x="693.4124999999999" y="449.9499887116155" width="6.095833333333334" height="25.050011288384518" fill="#ff4444" opacity="0.35"/>
<rect x="704.4958333333333" y="445.2496498460821" width="6.095833333333334" height="29.75035015391793" fill="#ff4444" opacity="0.35"/>
<rect x="715.5791666666667" y="445.72245125932363" width="6.095833333333334" height="29.277548740676384" fill="#ff4444" opacity="0.25" stroke-dasharray="3,2"/>
<polyline points="65.54166666666667,306.52397037806935 76.625,312.97613788922087 87.70833333333334,318.37229512219767 98.79166666666667,323.3132437361358 109.87500000000001,329.54302862907946 120.95833333333334,333.51376652011817 132.04166666666666,339.44506179077126 143.125,348.50791569040456 154.20833333333334,348.76111273388284 165.29166666666666,350.4392867102071 176.375,352.7854739776072 187.45833333333334,353.22171349925446 198.54166666666666,351.9368177041931 209.625,355.2434442743211 220.70833333333334,354.76084107049934 231.79166666666666,359.24920477412263 242.875,362.8717361003354 253.95833333333334,372.53507884147774 265.0416666666667,377.26889280177164 276.12500000000006,378.89880627909025 287.20833333333337,383.9496004443426 298.2916666666667,388.4115087800533 309.37500000000006,390.8055851266788 320.45833333333337,393.94418506951166 331.5416666666667,394.4940359863177 342.62500000000006,400.61613572272205 353.70833333333337,403.2545057951402 364.7916666666667,400.5350509813516 375.87500000000006,392.45236563193134 386.95833333333337,386.69900465713704 398.0416666666667,379.52953435069793 409.12500000000006,371.0013274346995 420.20833333333337,359.7593622852957 431.2916666666667,352.132026461385 442.37500000000006,345.9524236865688 453.45833333333337,339.0295617440146 464.5416666666667,333.50206026102643 475.62500000000006,325.25575833260757 486.70833333333337,314.0358643528717 497.7916666666667,308.2975226645926 508.87500000000006,308.32004087734344 519.9583333333334,301.63408727494806 531.0416666666666,297.25971761771035 542.125,292.0545274352359 553.2083333333334,291.05579642882606 564.2916666666666,283.2577597429886 575.375,276.0852693033462 586.4583333333334,271.3036090102512 597.5416666666666,265.3624683687933 608.625,258.1507443622712 619.7083333333334,239.14484252361538 630.7916666666666,227.90068450082435 641.875,225.99424612211212 652.9583333333334,209.7953932183012 664.0416666666666,195.96081950554452 675.125,187.10267443888753 686.2083333333334,185.12825647707913 697.2916666666666,167.52398684371207 708.375,141.67265399818558 719.4583333333334,105.11510266545704" fill="none" stroke="#ffd700" stroke-width="1" opacity="0.7"/>
<polyline points="65.54166666666667,306.52397037806935 76.625,310.0433344750611 87.70833333333334,313.5199299501684 98.79166666666667,317.09724104359447 109.87500000000001,321.62548783838946 120.95833333333334,325.2308977408997 132.04166666666666,329.9721258483865 143.125,336.6378526922565 154.20833333333334,338.9341534429079 165.29166666666666,341.6362409374438 176.375,344.5165332238009 187.45833333333334,346.2579258272096 198.54166666666666,346.82321678845705 209.625,349.556576902297 220.70833333333334,350.32731467694407 231.79166666666666,353.58160876865776 242.875,356.5880069475856 253.95833333333334,363.00141737961775 265.0416666666667,367.3168907146617 276.12500000000006,370.01538935449184 287.20833333333337,374.3855347036474 298.2916666666667,378.55822393052506 309.37500000000006,381.655590092235 320.45833333333337,385.03118915822455 331.5416666666667,386.9516525512619 342.62500000000006,391.6623221229471 353.70833333333337,394.72939918058887 364.7916666666667,394.79607957571346 375.87500000000006,391.430791458873 386.95833333333337,388.4783353222685 398.0416666666667,384.24420048873236 409.12500000000006,378.73523923672695 420.20833333333337,371.1970924639562 431.2916666666667,364.9571401638849 442.37500000000006,359.25460888625787 453.45833333333337,353.0599232449212 464.5416666666667,347.4939476176719 475.62500000000006,340.4519852282351 486.70833333333337,331.5690927128106 497.7916666666667,325.25122845376035 508.87500000000006,322.181019153594 519.9583333333334,316.01395750206007 531.0416666666666,311.01341582954643 542.125,305.6735487824084 553.2083333333334,302.6526007157898 564.2916666666666,296.2906162895214 575.375,290.0087384958013 586.4583333333334,284.8690203009395 597.5416666666666,279.16195971638285 608.625,272.71929364962716 619.7083333333334,259.7036109581138 630.7916666666666,249.83247595759173 641.875,244.80500203160915 652.9583333333334,232.54912664598558 664.0416666666666,220.8659530885393 675.125,211.50603149163643 686.2083333333334,205.9921022301502 697.2916666666666,192.59634683866435 708.375,173.93700892384044 719.4583333333334,148.1302800285967" fill="none" stroke="#ff6b6b" stroke-width="1" opacity="0.7"/>
<polyline points="65.54166666666667,306.52397037806935 76.625,308.367446809827 87.70833333333334,310.3481289791912 98.79166666666667,312.52403488250735 109.87500000000001,315.33151712369397 120.95833333333334,317.8194909502179 132.04166666666666,321.00883965325215 143.125,325.3540571614826 154.20833333333334,327.63152855761183 165.29166666666666,330.1233481866827 176.375,332.7285386938945 187.45833333333334,334.76336286995684 198.54166666666666,336.1541879408248 209.625,338.6020459859441 220.70833333333334,340.04905443136425 231.79166666666666,342.7325665980314 242.875,345.3405887080056 253.95833333333334,349.77117686188717 265.0416666666667,353.2916858009798 276.12500000000006,356.040918889813 287.20833333333337,359.6609445931495 298.2916666666667,363.24898086537104 309.37500000000006,366.3294339086623 320.45833333333337,369.55723877023513 331.5416666666667,372.03690534639657 342.62500000000006,375.9248510463141 353.70833333333337,379.03022198856763 364.7916666666667,380.5603095471588 375.87500000000006,380.1533272029618 386.95833333333337,379.6808467748272 398.0416666666667,378.3008226760646 409.12500000000006,375.98121228812533 420.20833333333337,372.29494749749324 431.2916666666667,368.9218434323571 442.37500000000006,365.5572124518409 453.45833333333337,361.7121291572756 464.5416666666667,357.9725985037303 475.62500000000006,353.2859847867816 486.70833333333337,347.41075541598343 497.7916666666667,342.5926681657026 508.87500000000006,339.33289760733527 519.9583333333334,334.4690197466516 531.0416666666666,330.09206341870714 542.125,325.47797614742905 553.2083333333334,322.0094388396745 564.2916666666666,316.83346241411635 575.375,311.5864934626825 586.4583333333334,306.8392358399567 597.5416666666666,301.75742167290156 608.625,296.23074307064684 619.7083333333334,287.1738188588047 630.7916666666666,279.3870140584654 641.875,273.93885742096273 652.9583333333334,264.7444602771262 664.0416666666666,255.55848044883143 675.125,247.35161414947353 686.2083333333334,241.0495004736629 697.2916666666666,230.69387638826436 708.375,217.29160133291848 719.4583333333334,199.64478215835484" fill="none" stroke="#4ecdc4" stroke-width="1" opacity="0.7"/>
<line x1="65.54166666666667" y1="299.06002338573467" x2="65.54166666666667" y2="332.2497076783162" stroke="#ff4444" stroke-width="0.5" opacity="0.6"/>
<rect x="63.04791666666667" y="306.52397037806935" width="4.987500000000001" height="18.36130960114332" fill="#ff4444" opacity="0.8" rx="1"/>
<line x1="76.625" y1="311.4999350396258" x2="76.625" y2="326.9254254904508" stroke="#44aa44" stroke-width="0.5" opacity="0.6"/>
<rect x="74.13125" y="318.9638820319605" width="4.987500000000001" height="6.9165908795635005" fill="#44aa44" opacity="0.8" rx="1"/>
<line x1="87.70833333333334" y1="325.532155385215" x2="87.70833333333334" y2="336.28023905417695" stroke="#ff4444" stroke-width="0.5" opacity="0.6"/>
<rect x="85.21458333333334" y="329.1646095881512" width="4.987500000000001" height="7.115629466025723" fill="#ff4444" opacity="0.8" rx="1"/>
<line x1="98.79166666666667" y1="308.514356242692" x2="98.79166666666667" y2="333.8917760166298" stroke="#44aa44" stroke-width="0.5" opacity="0.6"/>
<rect x="96.29791666666667" y="314.4855138365597" width="4.987500000000001" height="18.70962712745228" fill="#44aa44" opacity="0.8" rx="1"/>
<line x1="109.87500000000001" y1="330.6076393400026" x2="109.87500000000001" y2="345.83409120436534" stroke="#44aa44" stroke-width="0.5" opacity="0.6"/>
<rect x="107.38125000000001" y="338.22086527218397" width="4.987500000000001" height="3.781733142782855" fill="#44aa44" opacity="0.8" rx="1"/>
<line x1="120.95833333333334" y1="325.28335715213717" x2="120.95833333333334" y2="345.4360140314408" stroke="#44aa44" stroke-width="0.5" opacity="0.6"/>
<rect x="118.46458333333334" y="334.63817071586334" width="4.987500000000001" height="6.817071586332304" fill="#44aa44" opacity="0.8" rx="1"/>
<line x1="132.04166666666666" y1="341.40548265558016" x2="132.04166666666666" y2="354.8903468883981" stroke="#44aa44" stroke-width="0.5" opacity="0.6"/>
<rect x="129.54791666666665" y="343.84370533974277" width="4.987500000000001" height="7.463946992334684" fill="#44aa44" opacity="0.8" rx="1"/>
<line x1="143.125" y1="362.6528517604262" x2="143.125" y2="380.8151227751072" stroke="#44aa44" stroke-width="0.5" opacity="0.6"/>
<rect x="140.63125" y="364.34467974535534" width="4.987500000000001" height="2.2889437443159295" fill="#44aa44" opacity="0.8" rx="1"/>
<line x1="154.20833333333334" y1="348.8694296479148" x2="154.20833333333334" y2="359.46823437703" stroke="#ff4444" stroke-width="0.5" opacity="0.6"/>
<rect x="151.71458333333334" y="349.2675068208393" width="4.987500000000001" height="10.001688969728434" fill="#ff4444" opacity="0.8" rx="1"/>
<line x1="165.29166666666666" y1="342.2513966480447" x2="165.29166666666666" y2="355.53722229440035" stroke="#44aa44" stroke-width="0.5" opacity="0.6"/>
<rect x="162.79791666666665" y="346.331687670521" width="4.987500000000001" height="7.463946992334684" fill="#44aa44" opacity="0.8" rx="1"/>
<line x1="176.375" y1="342.0523580615824" x2="176.375" y2="362.35429388073277" stroke="#44aa44" stroke-width="0.5" opacity="0.6"/>
<rect x="173.88125" y="355.98505911394045" width="4.987500000000001" height="1.4927893984669822" fill="#44aa44" opacity="0.8" rx="1"/>
<line x1="187.45833333333334" y1="347.923996362219" x2="187.45833333333334" y2="362.40405352734825" stroke="#ff4444" stroke-width="0.5" opacity="0.6"/>
<rect x="184.96458333333334" y="354.0941925425491" width="4.987500000000001" height="8.210341691568146" fill="#ff4444" opacity="0.8" rx="1"/>
<line x1="198.54166666666666" y1="346.7795244900611" x2="198.54166666666666" y2="362.60309211381065" stroke="#ff4444" stroke-width="0.5" opacity="0.6"/>
<rect x="196.04791666666665" y="349.3670261140704" width="4.987500000000001" height="3.18461738339613" fill="#ff4444" opacity="0.8" rx="1"/>
<line x1="209.625" y1="339.5146160841886" x2="209.625" y2="362.25477458750163" stroke="#44aa44" stroke-width="0.5" opacity="0.6"/>
<rect x="207.13125" y="341.85331947512014" width="4.987500000000001" height="20.003377939456982" fill="#44aa44" opacity="0.8" rx="1"/>
<line x1="220.70833333333334" y1="349.9143822268416" x2="220.70833333333334" y2="362.6528517604262" stroke="#ff4444" stroke-width="0.5" opacity="0.6"/>
<rect x="218.21458333333334" y="353.79563466285566" width="4.987500000000001" height="6.319475120176776" fill="#ff4444" opacity="0.8" rx="1"/>
<line x1="231.79166666666666" y1="359.46823437703" x2="231.79166666666666" y2="369.7187215798363" stroke="#44aa44" stroke-width="0.5" opacity="0.6"/>
<rect x="229.29791666666665" y="361.25958165519035" width="4.987500000000001" height="6.966350526179042" fill="#44aa44" opacity="0.8" rx="1"/>
<line x1="242.875" y1="355.2884240613226" x2="242.875" y2="370.2163180459919" stroke="#44aa44" stroke-width="0.5" opacity="0.6"/>
<rect x="240.38125" y="366.2355463167468" width="4.987500000000001" height="3.8812524360139946" fill="#44aa44" opacity="0.8" rx="1"/>
<line x1="253.95833333333334" y1="377.0831492789399" x2="253.95833333333334" y2="394.1507080680785" stroke="#44aa44" stroke-width="0.5" opacity="0.6"/>
<rect x="251.46458333333334" y="379.17305443679356" width="4.987500000000001" height="12.68870988696898" fill="#44aa44" opacity="0.8" rx="1"/>
<line x1="265.0416666666667" y1="386.18916460958815" x2="265.0416666666667" y2="395.7927764063921" stroke="#ff4444" stroke-width="0.5" opacity="0.6"/>
<rect x="262.5479166666667" y="386.7365207223594" width="4.987500000000001" height="0.5" fill="#ff4444" opacity="0.8" rx="1"/>
<line x1="276.12500000000006" y1="377.182668572171" x2="276.12500000000006" y2="386.1394049629726" stroke="#ff4444" stroke-width="0.5" opacity="0.6"/>
<rect x="273.6312500000001" y="382.1586332337274" width="4.987500000000001" height="0.7463946992334627" fill="#ff4444" opacity="0.8" rx="1"/>
<line x1="287.20833333333337" y1="381.2131999480317" x2="287.20833333333337" y2="395.0961413537742" stroke="#44aa44" stroke-width="0.5" opacity="0.6"/>
<rect x="284.7145833333334" y="381.7605560608029" width="4.987500000000001" height="12.290632714044477" fill="#44aa44" opacity="0.8" rx="1"/>
<line x1="298.2916666666667" y1="392.8071976094582" x2="298.2916666666667" y2="403.1572041054957" stroke="#ff4444" stroke-width="0.5" opacity="0.6"/>
<rect x="295.7979166666667" y="397.3353254514746" width="4.987500000000001" height="0.5" fill="#ff4444" opacity="0.8" rx="1"/>
<line x1="309.37500000000006" y1="394.4492659477719" x2="309.37500000000006" y2="405.9935039625829" stroke="#ff4444" stroke-width="0.5" opacity="0.6"/>
<rect x="306.8812500000001" y="395.5937378199299" width="4.987500000000001" height="8.21034169156809" fill="#ff4444" opacity="0.8" rx="1"/>
<line x1="320.45833333333337" y1="393.10575548915165" x2="320.45833333333337" y2="404.0031180979603" stroke="#44aa44" stroke-width="0.5" opacity="0.6"/>
<rect x="317.9645833333334" y="398.0817201507081" width="4.987500000000001" height="2.1396648044691915" fill="#44aa44" opacity="0.8" rx="1"/>
<line x1="331.5416666666667" y1="391.2148889177602" x2="331.5416666666667" y2="398.33051838378594" stroke="#44aa44" stroke-width="0.5" opacity="0.6"/>
<rect x="329.0479166666667" y="393.35455372222947" width="4.987500000000001" height="2.239184097700445" fill="#44aa44" opacity="0.8" rx="1"/>
<line x1="342.62500000000006" y1="398.62907626347925" x2="342.62500000000006" y2="415.0" stroke="#44aa44" stroke-width="0.5" opacity="0.6"/>
<rect x="340.1312500000001" y="400.37066389502405" width="4.987500000000001" height="12.4896713005067" fill="#44aa44" opacity="0.8" rx="1"/>
<line x1="353.70833333333337" y1="404.55047421073147" x2="353.70833333333337" y2="410.8699493309081" stroke="#ff4444" stroke-width="0.5" opacity="0.6"/>
<rect x="351.2145833333334" y="408.53124593997666" width="4.987500000000001" height="2.2889437443159864" fill="#ff4444" opacity="0.8" rx="1"/>
<line x1="364.7916666666667" y1="391.16512927114456" x2="364.7916666666667" y2="406.0432636091984" stroke="#ff4444" stroke-width="0.5" opacity="0.6"/>
<rect x="362.2979166666667" y="395.0961413537742" width="4.987500000000001" height="9.155774977263889" fill="#ff4444" opacity="0.8" rx="1"/>
<line x1="375.87500000000006" y1="375.6401195270885" x2="375.87500000000006" y2="387.7317136546706" stroke="#ff4444" stroke-width="0.5" opacity="0.6"/>
<rect x="373.3812500000001" y="376.28699493309085" width="4.987500000000001" height="9.852410029881753" fill="#ff4444" opacity="0.8" rx="1"/>
<line x1="386.95833333333337" y1="372.45550214369234" x2="386.95833333333337" y2="383.50214369234766" stroke="#ff4444" stroke-width="0.5" opacity="0.6"/>
<rect x="384.4645833333334" y="375.1922827075484" width="4.987500000000001" height="6.9165908795635005" fill="#ff4444" opacity="0.8" rx="1"/>
<line x1="398.0416666666667" y1="359.9658308431857" x2="398.0416666666667" y2="375.1922827075484" stroke="#ff4444" stroke-width="0.5" opacity="0.6"/>
<rect x="395.5479166666667" y="365.1905937378199" width="4.987500000000001" height="5.324282187865435" fill="#ff4444" opacity="0.8" rx="1"/>
<line x1="409.12500000000006" y1="348.8196700012992" x2="409.12500000000006" y2="369.81824087306745" stroke="#ff4444" stroke-width="0.5" opacity="0.6"/>
<rect x="406.6312500000001" y="353.94491360270234" width="4.987500000000001" height="15.475250097440608" fill="#ff4444" opacity="0.8" rx="1"/>
<line x1="420.20833333333337" y1="333.0956216707809" x2="420.20833333333337" y2="354.8903468883981" stroke="#ff4444" stroke-width="0.5" opacity="0.6"/>
<rect x="417.7145833333334" y="337.2754319864883" width="4.987500000000001" height="11.544238014810901" fill="#ff4444" opacity="0.8" rx="1"/>
<line x1="431.2916666666667" y1="316.47589970118224" x2="431.2916666666667" y2="338.668702091724" stroke="#44aa44" stroke-width="0.5" opacity="0.6"/>
<rect x="428.7979166666667" y="328.9158113550734" width="4.987500000000001" height="7.961543458490269" fill="#44aa44" opacity="0.8" rx="1"/>
<line x1="442.37500000000006" y1="330.7071586332337" x2="442.37500000000006" y2="341.3059633623489" stroke="#ff4444" stroke-width="0.5" opacity="0.6"/>
<rect x="439.8812500000001" y="333.59321813693646" width="4.987500000000001" height="1.194231518773563" fill="#ff4444" opacity="0.8" rx="1"/>
<line x1="453.45833333333337" y1="319.61075743796283" x2="453.45833333333337" y2="337.872547745875" stroke="#ff4444" stroke-width="0.5" opacity="0.6"/>
<rect x="450.9645833333334" y="325.1838378589061" width="4.987500000000001" height="10.947122255424176" fill="#ff4444" opacity="0.8" rx="1"/>
<line x1="464.5416666666667" y1="314.03767701701963" x2="464.5416666666667" y2="327.72157983629984" stroke="#ff4444" stroke-width="0.5" opacity="0.6"/>
<rect x="462.0479166666667" y="322.44705729505006" width="4.987500000000001" height="2.587501624009292" fill="#ff4444" opacity="0.8" rx="1"/>
<line x1="475.62500000000006" y1="301.5480057165129" x2="475.62500000000006" y2="326.0795114979863" stroke="#ff4444" stroke-width="0.5" opacity="0.6"/>
<rect x="473.1312500000001" y="308.7631544757698" width="4.987500000000001" height="15.12693257113159" fill="#ff4444" opacity="0.8" rx="1"/>
<line x1="486.70833333333337" y1="289.4066519423152" x2="486.70833333333337" y2="311.4999350396258" stroke="#ff4444" stroke-width="0.5" opacity="0.6"/>
<rect x="484.2145833333334" y="291.59607639340004" width="4.987500000000001" height="17.21683772898524" fill="#ff4444" opacity="0.8" rx="1"/>
<line x1="497.7916666666667" y1="279.1561647395089" x2="497.7916666666667" y2="303.98622840067554" stroke="#44aa44" stroke-width="0.5" opacity="0.6"/>
<rect x="495.2979166666667" y="291.54631674678444" width="4.987500000000001" height="5.274522541249837" fill="#44aa44" opacity="0.8" rx="1"/>
<line x1="508.87500000000006" y1="293.08886579186697" x2="508.87500000000006" y2="313.7391191373262" stroke="#44aa44" stroke-width="0.5" opacity="0.6"/>
<rect x="506.3812500000001" y="300.5528127842016" width="4.987500000000001" height="7.812264518643701" fill="#44aa44" opacity="0.8" rx="1"/>
<line x1="519.9583333333334" y1="283.485253995063" x2="519.9583333333334" y2="301.5480057165129" stroke="#ff4444" stroke-width="0.5" opacity="0.6"/>
<rect x="517.4645833333334" y="288.26218007015717" width="4.987500000000001" height="13.285825646355704" fill="#ff4444" opacity="0.8" rx="1"/>
<line x1="531.0416666666666" y1="281.1465506041315" x2="531.0416666666666" y2="301.1001688969728" stroke="#44aa44" stroke-width="0.5" opacity="0.6"/>
<rect x="528.5479166666667" y="284.92828374691436" width="4.987500000000001" height="3.5826945563206323" fill="#44aa44" opacity="0.8" rx="1"/>
<line x1="542.125" y1="267.36312849162005" x2="542.125" y2="291.6955956866311" stroke="#ff4444" stroke-width="0.5" opacity="0.6"/>
<rect x="539.63125" y="281.6441470702871" width="4.987500000000001" height="6.66779264648568" fill="#ff4444" opacity="0.8" rx="1"/>
<line x1="553.2083333333334" y1="269.4530336494738" x2="553.2083333333334" y2="290.003767701702" stroke="#44aa44" stroke-width="0.5" opacity="0.6"/>
<rect x="550.7145833333334" y="276.6681824087307" width="4.987500000000001" height="12.39015200727556" fill="#44aa44" opacity="0.8" rx="1"/>
<line x1="564.2916666666666" y1="257.90879563466285" x2="564.2916666666666" y2="277.66337534104196" stroke="#ff4444" stroke-width="0.5" opacity="0.6"/>
<rect x="561.7979166666667" y="267.6616863713135" width="4.987500000000001" height="10.001688969728434" fill="#ff4444" opacity="0.8" rx="1"/>
<line x1="575.375" y1="256.7643237625049" x2="575.375" y2="271.69221774717425" stroke="#44aa44" stroke-width="0.5" opacity="0.6"/>
<rect x="572.88125" y="259.6503832662076" width="4.987500000000001" height="2.089905157853707" fill="#44aa44" opacity="0.8" rx="1"/>
<line x1="586.4583333333334" y1="251.0419644017149" x2="586.4583333333334" y2="271.1946212810186" stroke="#ff4444" stroke-width="0.5" opacity="0.6"/>
<rect x="583.9645833333334" y="261.7402884240613" width="4.987500000000001" height="7.314668052487946" fill="#ff4444" opacity="0.8" rx="1"/>
<line x1="597.5416666666666" y1="250.3950889957126" x2="597.5416666666666" y2="266.7162530856178" stroke="#ff4444" stroke-width="0.5" opacity="0.6"/>
<rect x="595.0479166666667" y="253.48018708587762" width="4.987500000000001" height="5.175003248018697" fill="#ff4444" opacity="0.8" rx="1"/>
<line x1="608.625" y1="240.19436143952188" x2="608.625" y2="259.2523060932831" stroke="#ff4444" stroke-width="0.5" opacity="0.6"/>
<rect x="606.13125" y="243.72729634922695" width="4.987500000000001" height="9.553852150188362" fill="#ff4444" opacity="0.8" rx="1"/>
<line x1="619.7083333333334" y1="201.1330388463037" x2="619.7083333333334" y2="246.71287514616083" stroke="#ff4444" stroke-width="0.5" opacity="0.6"/>
<rect x="617.2145833333334" y="201.1330388463037" width="4.987500000000001" height="45.579836299857135" fill="#ff4444" opacity="0.8" rx="1"/>
<line x1="630.7916666666666" y1="169.68494218526695" x2="630.7916666666666" y2="206.50708068078472" stroke="#44aa44" stroke-width="0.5" opacity="0.6"/>
<rect x="628.2979166666667" y="181.5774977263869" width="4.987500000000001" height="23.834870728855407" fill="#44aa44" opacity="0.8" rx="1"/>
<line x1="641.875" y1="202.82486683123292" x2="641.875" y2="233.62608808626732" stroke="#44aa44" stroke-width="0.5" opacity="0.6"/>
<rect x="639.38125" y="205.1138105755489" width="4.987500000000001" height="17.067558789138587" fill="#44aa44" opacity="0.8" rx="1"/>
<line x1="652.9583333333334" y1="177.39768741067945" x2="652.9583333333334" y2="220.78809925945168" stroke="#ff4444" stroke-width="0.5" opacity="0.6"/>
<rect x="650.4645833333334" y="177.39768741067945" width="4.987500000000001" height="43.39041184877223" fill="#ff4444" opacity="0.8" rx="1"/>
<line x1="664.0416666666666" y1="162.8678705989346" x2="664.0416666666666" y2="201.92919319215278" stroke="#ff4444" stroke-width="0.5" opacity="0.6"/>
<rect x="661.5479166666667" y="168.29167208003113" width="4.987500000000001" height="14.579576458360435" fill="#ff4444" opacity="0.8" rx="1"/>
<line x1="675.125" y1="160.37988826815638" x2="675.125" y2="182.27413277900476" stroke="#ff4444" stroke-width="0.5" opacity="0.6"/>
<rect x="672.63125" y="169.38638430557356" width="4.987500000000001" height="5.224762894634267" fill="#ff4444" opacity="0.8" rx="1"/>
<line x1="686.2083333333334" y1="134.8531895543718" x2="686.2083333333334" y2="183.8166818240873" stroke="#44aa44" stroke-width="0.5" opacity="0.6"/>
<rect x="683.7145833333334" y="161.47460049369877" width="4.987500000000001" height="19.70482005976359" fill="#44aa44" opacity="0.8" rx="1"/>
<line x1="697.2916666666666" y1="132.315447576978" x2="697.2916666666666" y2="162.22099519293226" stroke="#ff4444" stroke-width="0.5" opacity="0.6"/>
<rect x="694.7979166666667" y="132.315447576978" width="4.987500000000001" height="29.407951149798663" fill="#ff4444" opacity="0.8" rx="1"/>
<line x1="708.375" y1="83.55099389372477" x2="708.375" y2="120.67169026893593" stroke="#ff4444" stroke-width="0.5" opacity="0.6"/>
<rect x="705.88125" y="89.96998830713262" width="4.987500000000001" height="12.539430947122227" fill="#ff4444" opacity="0.8" rx="1"/>
<line x1="719.4583333333334" y1="32.0" x2="719.4583333333334" y2="94.54787579576457" stroke="#ff4444" stroke-width="0.5" opacity="0.3" stroke-dasharray="4,3"/>
<rect x="716.9645833333334" y="32.0" width="4.987500000000001" height="62.149798622839995" fill="#ff4444" opacity="0.4" stroke-dasharray="4,3" rx="1"/>
<text x="739.4583333333334" y="26.0" font-family="sans-serif" font-size="9" fill="#ffd700" opacity="0.8">🕐 盘中</text>
<line x1="220.70833333333334" y1="362.6528517604262" x2="220.70833333333334" y2="327.6528517604262" stroke="#4ecdc4" stroke-width="0.8" stroke-dasharray="2,2" opacity="0.7"/>
<rect x="184.70833333333334" y="318.6528517604262" width="72" height="16" fill="#4ecdc4" opacity="0.85" rx="3"/>
<text x="220.70833333333334" y="330.6528517604262" text-anchor="middle" font-family="sans-serif" font-size="9" fill="#000000" font-weight="bold">B1乖离买入</text>
<polygon points="220.70833333333334,368.6528517604262 216.70833333333334,362.6528517604262 224.70833333333334,362.6528517604262" fill="#4ecdc4" opacity="0.9"/>
<line x1="508.87500000000006" y1="313.7391191373262" x2="508.87500000000006" y2="263.7391191373262" stroke="#4ecdc4" stroke-width="0.8" stroke-dasharray="2,2" opacity="0.7"/>
<rect x="472.87500000000006" y="254.7391191373262" width="72" height="16" fill="#4ecdc4" opacity="0.85" rx="3"/>
<text x="508.87500000000006" y="266.7391191373262" text-anchor="middle" font-family="sans-serif" font-size="9" fill="#000000" font-weight="bold">B2乖离买入</text>
<polygon points="508.87500000000006,319.7391191373262 504.87500000000006,313.7391191373262 512.875,313.7391191373262" fill="#4ecdc4" opacity="0.9"/>
<line x1="553.2083333333334" y1="290.003767701702" x2="553.2083333333334" y2="225.00376770170197" stroke="#4ecdc4" stroke-width="0.8" stroke-dasharray="2,2" opacity="0.7"/>
<rect x="517.2083333333334" y="216.00376770170197" width="72" height="16" fill="#4ecdc4" opacity="0.85" rx="3"/>
<text x="553.2083333333334" y="228.00376770170197" text-anchor="middle" font-family="sans-serif" font-size="9" fill="#000000" font-weight="bold">B3乖离买入</text>
<polygon points="553.2083333333334,296.003767701702 549.2083333333334,290.003767701702 557.2083333333334,290.003767701702" fill="#4ecdc4" opacity="0.9"/>
<line x1="641.875" y1="233.62608808626732" x2="641.875" y2="153.62608808626732" stroke="#4ecdc4" stroke-width="0.8" stroke-dasharray="2,2" opacity="0.7"/>
<rect x="605.875" y="144.62608808626732" width="72" height="16" fill="#4ecdc4" opacity="0.85" rx="3"/>
<text x="641.875" y="156.62608808626732" text-anchor="middle" font-family="sans-serif" font-size="9" fill="#000000" font-weight="bold">B4乖离买入</text>
<polygon points="641.875,239.62608808626732 637.875,233.62608808626732 645.875,233.62608808626732" fill="#4ecdc4" opacity="0.9"/>
<line x1="686.2083333333334" y1="183.8166818240873" x2="686.2083333333334" y2="88.81668182408731" stroke="#4ecdc4" stroke-width="0.8" stroke-dasharray="2,2" opacity="0.7"/>
<rect x="650.2083333333334" y="79.81668182408731" width="72" height="16" fill="#4ecdc4" opacity="0.85" rx="3"/>
<text x="686.2083333333334" y="91.81668182408731" text-anchor="middle" font-family="sans-serif" font-size="9" fill="#000000" font-weight="bold">B5乖离买入</text>
<polygon points="686.2083333333334,189.8166818240873 682.2083333333334,183.8166818240873 690.2083333333334,183.8166818240873" fill="#4ecdc4" opacity="0.9"/>
<line x1="619.7083333333334" y1="201.1330388463037" x2="619.7083333333334" y2="220.1330388463037" stroke="#e94560" stroke-width="0.8" stroke-dasharray="2,2" opacity="0.7"/>
<rect x="585.7083333333334" y="227.1330388463037" width="68" height="16" fill="#e94560" opacity="0.85" rx="3"/>
<text x="619.7083333333334" y="239.1330388463037" text-anchor="middle" font-family="sans-serif" font-size="9" fill="#ffffff" font-weight="bold">W1警戒⚠️</text>
<polygon points="619.7083333333334,195.1330388463037 615.7083333333334,201.1330388463037 623.7083333333334,201.1330388463037" fill="#e94560" opacity="0.9"/>
<line x1="708.375" y1="83.55099389372477" x2="708.375" y2="117.55099389372477" stroke="#e94560" stroke-width="0.8" stroke-dasharray="2,2" opacity="0.7"/>
<rect x="674.375" y="124.55099389372477" width="68" height="16" fill="#e94560" opacity="0.85" rx="3"/>
<text x="708.375" y="136.55099389372475" text-anchor="middle" font-family="sans-serif" font-size="9" fill="#ffffff" font-weight="bold">W2警戒⚠️</text>
<polygon points="708.375,77.55099389372477 704.375,83.55099389372477 712.375,83.55099389372477" fill="#e94560" opacity="0.9"/>
<rect x="60" y="443" width="665" height="55" fill="#111122" opacity="0.5" rx="2"/>
<rect x="60" y="443" width="665" height="17.40092581477421" fill="#e94560" opacity="0.18" rx="2"/>
<rect x="60" y="460.4009258147742" width="665" height="9.074305638919327" fill="#ffd700" opacity="0.12"/>
<rect x="60" y="469.47523145369354" width="665" height="30.52476854630646" fill="#4ecdc4" opacity="0.14"/>
<text x="670" y="454.7004629073871" text-anchor="end" font-family="sans-serif" font-size="9" fill="#e94560" font-weight="bold">⚠️ 警戒区</text>
<text x="670" y="467.9380786342339" text-anchor="end" font-family="sans-serif" font-size="9" fill="#ffd700">持有区</text>
<text x="670" y="487.7376157268468" text-anchor="end" font-family="sans-serif" font-size="9" fill="#4ecdc4">买入区</text>
<line x1="60" y1="472.5" x2="725" y2="472.5" stroke="#888888" stroke-width="0.5" stroke-dasharray="3,2" opacity="0.5"/>
<text x="56" y="475.5" text-anchor="end" font-family="sans-serif" font-size="7" fill="#888888">0%</text>
<line x1="60" y1="469.47523145369354" x2="725" y2="469.47523145369354" stroke="#4ecdc4" stroke-width="0.5" stroke-dasharray="3,2" opacity="0.5"/>
<text x="56" y="472.47523145369354" text-anchor="end" font-family="sans-serif" font-size="7" fill="#4ecdc4">2%</text>
<line x1="60" y1="460.4009258147742" x2="725" y2="460.4009258147742" stroke="#e94560" stroke-width="0.5" stroke-dasharray="3,2" opacity="0.5"/>
<text x="56" y="463.4009258147742" text-anchor="end" font-family="sans-serif" font-size="7" fill="#e94560">8%</text>
<text x="60" y="445" font-family="sans-serif" font-size="8" fill="#888888">BIAS5</text>
<polyline points="65.54166666666667,472.5 76.625,477.96992220033104 87.70833333333334,477.1449236137563 98.79166666666667,476.81374247175256 109.87500000000001,478.0385647606199 120.95833333333334,476.07185492696095 132.04166666666666,477.9312667293711 143.125,481.0329358015861 154.20833333333334,472.7385802814964 165.29166666666666,474.0896051752853 176.375,474.73881183758147 187.45833333333334,472.91684829139206 198.54166666666666,471.27718248010393 209.625,475.6799538824273 220.70833333333334,472.0365957549041 231.79166666666666,476.87210267534164 242.875,476.0703494798102 253.95833333333334,482.33378230985755 265.0416666666667,477.3952708372931 276.12500000000006,474.1949500169257 287.20833333333337,477.8451453843597 298.2916666666667,477.2968231419791 309.37500000000006,475.09586608971773 320.45833333333337,475.94186760082124 331.5416666666667,473.1041847662729 342.62500000000006,479.38007088137863 353.70833333333337,475.49437639749965 364.7916666666667,469.4447725749581 375.87500000000006,463.68400595451607 386.95833333333337,466.3522056096641 398.0416666666667,465.0282528211387 409.12500000000006,463.8659272157735 420.20833333333337,461.5312120676926 431.2916666666667,465.23670918733404 442.37500000000006,466.72764400643933 453.45833333333337,466.1687228985538 464.5416666666667,467.52794023880153 475.62500000000006,465.25989326544914 486.70833333333337,462.9598302122409 497.7916666666667,467.69820019677854 508.87500000000006,472.5188442396388 519.9583333333334,467.00651378121296 531.0416666666666,468.94802357999106 542.125,468.33164522397004 553.2083333333334,471.7023180101445 564.2916666666666,466.39740069824285 575.375,466.98920535450924 586.4583333333334,468.8702239139909 597.5416666666666,468.0563136162133 608.625,467.2004840195763 619.7083333333334,459.14998214268405 630.7916666666666,464.8029227817989 641.875,471.2005728206672 652.9583333333334,461.84770638754264 664.0416666666666,463.6680822246606 675.125,466.948790920292 686.2083333333334,471.26771554728526 697.2916666666666,461.89784402965995 708.375,457.6931865809671 719.4583333333334,452.9166666666667" fill="none" stroke="#4ecdc4" stroke-width="1.5" opacity="0.9"/>
<circle cx="719.4583333333334" cy="452.9166666666667" r="3" fill="#4ecdc4" opacity="1"/>
<text x="724.4583333333334" y="455.9166666666667" font-family="sans-serif" font-size="9" fill="#4ecdc4" font-weight="bold">BIAS5=12.9%</text>
<text x="65.54166666666667" y="489" text-anchor="middle" font-family="sans-serif" font-size="8" fill="#666666" transform="rotate(-45,65.54166666666667,489)">02/26</text>
<text x="120.95833333333334" y="489" text-anchor="middle" font-family="sans-serif" font-size="8" fill="#666666" transform="rotate(-45,120.95833333333334,489)">03/05</text>
<text x="176.375" y="489" text-anchor="middle" font-family="sans-serif" font-size="8" fill="#666666" transform="rotate(-45,176.375,489)">03/12</text>
<text x="231.79166666666666" y="489" text-anchor="middle" font-family="sans-serif" font-size="8" fill="#666666" transform="rotate(-45,231.79166666666666,489)">03/19</text>
<text x="287.20833333333337" y="489" text-anchor="middle" font-family="sans-serif" font-size="8" fill="#666666" transform="rotate(-45,287.20833333333337,489)">03/26</text>
<text x="342.62500000000006" y="489" text-anchor="middle" font-family="sans-serif" font-size="8" fill="#666666" transform="rotate(-45,342.62500000000006,489)">04/02</text>
<text x="398.0416666666667" y="489" text-anchor="middle" font-family="sans-serif" font-size="8" fill="#666666" transform="rotate(-45,398.0416666666667,489)">04/10</text>
<text x="453.45833333333337" y="489" text-anchor="middle" font-family="sans-serif" font-size="8" fill="#666666" transform="rotate(-45,453.45833333333337,489)">04/17</text>
<text x="508.87500000000006" y="489" text-anchor="middle" font-family="sans-serif" font-size="8" fill="#666666" transform="rotate(-45,508.87500000000006,489)">04/24</text>
<text x="564.2916666666666" y="489" text-anchor="middle" font-family="sans-serif" font-size="8" fill="#666666" transform="rotate(-45,564.2916666666666,489)">05/06</text>
<text x="619.7083333333334" y="489" text-anchor="middle" font-family="sans-serif" font-size="8" fill="#666666" transform="rotate(-45,619.7083333333334,489)">05/13</text>
<text x="675.125" y="489" text-anchor="middle" font-family="sans-serif" font-size="8" fill="#666666" transform="rotate(-45,675.125,489)">05/20</text>
<text x="719.4583333333334" y="489" text-anchor="middle" font-family="sans-serif" font-size="8" fill="#666666" transform="rotate(-45,719.4583333333334,489)">05/26</text>
<rect x="60" y="484" width="8" height="8" fill="#4ecdc4" opacity="0.8" rx="1"/>
<text x="71" y="491" font-family="sans-serif" font-size="9" fill="#888888">买入区(BIAS&lt;2%)</text>
<rect x="230" y="484" width="8" height="8" fill="#ffd700" opacity="0.8" rx="1"/>
<text x="241" y="491" font-family="sans-serif" font-size="9" fill="#888888">持有区(2-8%)</text>
<rect x="400" y="484" width="8" height="8" fill="#e94560" opacity="0.8" rx="1"/>
<text x="411" y="491" font-family="sans-serif" font-size="9" fill="#888888">警戒区(&gt;8%)</text>
<rect x="570" y="484" width="8" height="8" fill="#ffd700" opacity="0.8" rx="1"/>
<text x="581" y="491" font-family="sans-serif" font-size="9" fill="#888888">EMA5</text>
<rect x="60" y="497" width="8" height="8" fill="#ff6b6b" opacity="0.8" rx="1"/>
<text x="71" y="504" font-family="sans-serif" font-size="9" fill="#888888">EMA10</text>
<rect x="230" y="497" width="8" height="8" fill="#4ecdc4" opacity="0.8" rx="1"/>
<text x="241" y="504" font-family="sans-serif" font-size="9" fill="#888888">EMA20</text>
<rect x="400" y="497" width="8" height="8" fill="#4ecdc4" opacity="0.8" rx="1"/>
<text x="411" y="504" font-family="sans-serif" font-size="9" fill="#888888">B乖离买入</text>
<rect x="570" y="497" width="8" height="8" fill="#e94560" opacity="0.8" rx="1"/>
<text x="581" y="504" font-family="sans-serif" font-size="9" fill="#888888">W警戒⚠️</text>
</svg>