<svg xmlns="http://www.w3.org/2000/svg" width="750" height="540" viewBox="0 0 750 540">
<rect width="750" height="540" fill="#1a1a2e"/>
<text x="375.0" y="22" text-anchor="middle" font-family="sans-serif" font-size="15" fill="#ffffff" font-weight="bold">长电科技(600584) 趋势交易分析图</text>
<text x="60" y="31" font-family="sans-serif" font-size="10" fill="#888888">最新: 88.19</text>
<line x1="60" y1="108.85386251565646" x2="725" y2="108.85386251565646" stroke="#4ecdc4" stroke-width="0.5" stroke-dasharray="4,3" opacity="0.4"/>
<text x="62" y="106.85386251565646" font-family="sans-serif" font-size="7" fill="#4ecdc4" opacity="0.6">买入↑2%</text>
<line x1="60" y1="73.77195075963928" x2="725" y2="73.77195075963928" stroke="#e94560" stroke-width="0.5" stroke-dasharray="4,3" opacity="0.4"/>
<text x="62" y="71.77195075963928" font-family="sans-serif" font-size="7" fill="#e94560" opacity="0.6">警戒↑8%</text>
<rect x="60" y="108.85386251565646" width="3" height="274.1461374843435" fill="#4ecdc4" opacity="0.3" rx="1"/>
<rect x="60" y="73.77195075963928" width="3" height="309.22804924036075" fill="#e94560" opacity="0.3" rx="1"/>
<rect x="60" y="73.77195075963928" width="3" height="35.08191175601718" fill="#ffd700" opacity="0.2" rx="1"/>
<line x1="60" y1="32.0" x2="725" y2="32.0" stroke="#2a2a4e" stroke-width="0.5"/>
<text x="56" y="35.0" text-anchor="end" font-family="sans-serif" font-size="8" fill="#666666">88.2</text>
<line x1="60" y1="127.75000000000004" x2="725" y2="127.75000000000004" stroke="#2a2a4e" stroke-width="0.5"/>
<text x="56" y="130.75000000000006" text-anchor="end" font-family="sans-serif" font-size="8" fill="#666666">75.6</text>
<line x1="60" y1="223.49999999999997" x2="725" y2="223.49999999999997" stroke="#2a2a4e" stroke-width="0.5"/>
<text x="56" y="226.49999999999997" text-anchor="end" font-family="sans-serif" font-size="8" fill="#666666">63.1</text>
<line x1="60" y1="319.25" x2="725" y2="319.25" stroke="#2a2a4e" stroke-width="0.5"/>
<text x="56" y="322.25" text-anchor="end" font-family="sans-serif" font-size="8" fill="#666666">50.6</text>
<line x1="60" y1="415.0" x2="725" y2="415.0" stroke="#2a2a4e" stroke-width="0.5"/>
<text x="56" y="418.0" text-anchor="end" font-family="sans-serif" font-size="8" fill="#666666">38.0</text>
<rect x="61.66250000000001" y="464.60414643390385" width="6.095833333333334" height="10.395853566096177" fill="#ff4444" opacity="0.35"/>
<rect x="72.74583333333334" y="466.5800256799886" width="6.095833333333334" height="8.419974320011441" fill="#ff4444" opacity="0.35"/>
<rect x="83.82916666666668" y="468.4470705627352" width="6.095833333333334" height="6.55292943726485" fill="#44aa44" opacity="0.35"/>
<rect x="94.91250000000001" y="458.95837717302965" width="6.095833333333334" height="16.04162282697037" fill="#ff4444" opacity="0.35"/>
<rect x="105.99583333333335" y="464.7497007826703" width="6.095833333333334" height="10.25029921732974" fill="#ff4444" opacity="0.35"/>
<rect x="117.07916666666668" y="463.1844934447908" width="6.095833333333334" height="11.815506555209181" fill="#44aa44" opacity="0.35"/>
<rect x="128.1625" y="465.5222520470132" width="6.095833333333334" height="9.477747952986817" fill="#44aa44" opacity="0.35"/>
<rect x="139.24583333333334" y="463.9200724995483" width="6.095833333333334" height="11.079927500451689" fill="#44aa44" opacity="0.35"/>
<rect x="150.32916666666668" y="467.65453797501505" width="6.095833333333334" height="7.345462024984949" fill="#ff4444" opacity="0.35"/>
<rect x="161.4125" y="465.54670100277605" width="6.095833333333334" height="9.45329899722396" fill="#ff4444" opacity="0.35"/>
<rect x="172.49583333333334" y="468.26879721018867" width="6.095833333333334" height="6.731202789811339" fill="#44aa44" opacity="0.35"/>
<rect x="183.57916666666668" y="469.4069510464735" width="6.095833333333334" height="5.593048953526489" fill="#ff4444" opacity="0.35"/>
<rect x="194.6625" y="467.73636808101304" width="6.095833333333334" height="7.263631918986948" fill="#ff4444" opacity="0.35"/>
<rect x="205.74583333333334" y="468.60310153467873" width="6.095833333333334" height="6.396898465321275" fill="#44aa44" opacity="0.35"/>
<rect x="216.82916666666668" y="466.8510394554324" width="6.095833333333334" height="8.148960544567595" fill="#ff4444" opacity="0.35"/>
<rect x="227.9125" y="469.5214984054101" width="6.095833333333334" height="5.47850159458987" fill="#44aa44" opacity="0.35"/>
<rect x="238.99583333333334" y="467.04063622046596" width="6.095833333333334" height="7.959363779534047" fill="#44aa44" opacity="0.35"/>
<rect x="250.07916666666668" y="467.2025360128956" width="6.095833333333334" height="7.797463987104391" fill="#44aa44" opacity="0.35"/>
<rect x="261.1625" y="470.2502690557756" width="6.095833333333334" height="4.749730944224371" fill="#44aa44" opacity="0.35"/>
<rect x="272.2458333333334" y="469.50762504686077" width="6.095833333333334" height="5.492374953139244" fill="#ff4444" opacity="0.35"/>
<rect x="283.3291666666667" y="471.1095343468008" width="6.095833333333334" height="3.8904656531992137" fill="#44aa44" opacity="0.35"/>
<rect x="294.4125" y="471.21056119323225" width="6.095833333333334" height="3.789438806767723" fill="#ff4444" opacity="0.35"/>
<rect x="305.4958333333334" y="471.5097426086537" width="6.095833333333334" height="3.490257391346312" fill="#ff4444" opacity="0.35"/>
<rect x="316.5791666666667" y="470.8391249206236" width="6.095833333333334" height="4.160875079376383" fill="#44aa44" opacity="0.35"/>
<rect x="327.6625" y="471.2195261193173" width="6.095833333333334" height="3.7804738806826577" fill="#44aa44" opacity="0.35"/>
<rect x="338.7458333333334" y="471.61247951221264" width="6.095833333333334" height="3.387520487787366" fill="#44aa44" opacity="0.35"/>
<rect x="349.8291666666667" y="472.30467106838995" width="6.095833333333334" height="2.695328931610074" fill="#44aa44" opacity="0.35"/>
<rect x="360.9125" y="472.17989714762916" width="6.095833333333334" height="2.820102852370816" fill="#ff4444" opacity="0.35"/>
<rect x="371.9958333333334" y="467.6494295346646" width="6.095833333333334" height="7.3505704653354" fill="#ff4444" opacity="0.35"/>
<rect x="383.0791666666667" y="469.8758699474983" width="6.095833333333334" height="5.124130052501702" fill="#ff4444" opacity="0.35"/>
<rect x="394.1625" y="468.12363010635113" width="6.095833333333334" height="6.876369893648889" fill="#ff4444" opacity="0.35"/>
<rect x="405.2458333333334" y="470.4353421614976" width="6.095833333333334" height="4.564657838502386" fill="#ff4444" opacity="0.35"/>
<rect x="416.3291666666667" y="466.4981204937902" width="6.095833333333334" height="8.501879506209749" fill="#ff4444" opacity="0.35"/>
<rect x="427.4125" y="467.9897798235976" width="6.095833333333334" height="7.010220176402424" fill="#44aa44" opacity="0.35"/>
<rect x="438.4958333333334" y="470.44335565974944" width="6.095833333333334" height="4.556644340250579" fill="#ff4444" opacity="0.35"/>
<rect x="449.5791666666667" y="468.67697324243477" width="6.095833333333334" height="6.323026757565254" fill="#ff4444" opacity="0.35"/>
<rect x="460.6625" y="468.69894743532626" width="6.095833333333334" height="6.3010525646737285" fill="#ff4444" opacity="0.35"/>
<rect x="471.7458333333334" y="470.20973656162994" width="6.095833333333334" height="4.790263438370088" fill="#44aa44" opacity="0.35"/>
<rect x="482.8291666666667" y="467.08398798128275" width="6.095833333333334" height="7.916012018717231" fill="#ff4444" opacity="0.35"/>
<rect x="493.9125" y="468.1701122686609" width="6.095833333333334" height="6.829887731339119" fill="#44aa44" opacity="0.35"/>
<rect x="504.9958333333334" y="467.78767144268744" width="6.095833333333334" height="7.212328557312544" fill="#ff4444" opacity="0.35"/>
<rect x="516.0791666666667" y="464.4814310907065" width="6.095833333333334" height="10.518568909293467" fill="#ff4444" opacity="0.35"/>
<rect x="527.1624999999999" y="466.71543050395394" width="6.095833333333334" height="8.284569496046041" fill="#44aa44" opacity="0.35"/>
<rect x="538.2458333333333" y="466.11318626363374" width="6.095833333333334" height="8.886813736366243" fill="#ff4444" opacity="0.35"/>
<rect x="549.3291666666667" y="464.5564345629635" width="6.095833333333334" height="10.443565437036504" fill="#ff4444" opacity="0.35"/>
<rect x="560.4124999999999" y="459.5515756395868" width="6.095833333333334" height="15.44842436041321" fill="#ff4444" opacity="0.35"/>
<rect x="571.4958333333333" y="461.38811221334015" width="6.095833333333334" height="13.611887786659825" fill="#44aa44" opacity="0.35"/>
<rect x="582.5791666666667" y="457.6301177977887" width="6.095833333333334" height="17.369882202211297" fill="#ff4444" opacity="0.35"/>
<rect x="593.6624999999999" y="458.2131120514977" width="6.095833333333334" height="16.786887948502308" fill="#ff4444" opacity="0.35"/>
<rect x="604.7458333333333" y="451.8890372608483" width="6.095833333333334" height="23.110962739151695" fill="#44aa44" opacity="0.35"/>
<rect x="615.8291666666667" y="452.52616753169025" width="6.095833333333334" height="22.47383246830977" fill="#ff4444" opacity="0.35"/>
<rect x="626.9124999999999" y="457.0331253608352" width="6.095833333333334" height="17.966874639164825" fill="#44aa44" opacity="0.35"/>
<rect x="637.9958333333333" y="449.1411192320074" width="6.095833333333334" height="25.85888076799262" fill="#ff4444" opacity="0.35"/>
<rect x="649.0791666666667" y="450.2519304865927" width="6.095833333333334" height="24.748069513407327" fill="#ff4444" opacity="0.35"/>
<rect x="660.1624999999999" y="451.11134439315833" width="6.095833333333334" height="23.888655606841642" fill="#ff4444" opacity="0.35"/>
<rect x="671.2458333333333" y="445.54794274660236" width="6.095833333333334" height="29.452057253397662" fill="#ff4444" opacity="0.35"/>
<rect x="682.3291666666667" y="442.81482777311214" width="6.095833333333334" height="32.185172226887865" fill="#44aa44" opacity="0.35"/>
<rect x="693.4124999999999" y="445.449102598131" width="6.095833333333334" height="29.550897401869015" fill="#ff4444" opacity="0.35"/>
<rect x="704.4958333333333" y="446.66324933806425" width="6.095833333333334" height="28.336750661935763" fill="#ff4444" opacity="0.35"/>
<rect x="715.5791666666667" y="440.0" width="6.095833333333334" height="35.0" fill="#ff4444" opacity="0.25" stroke-dasharray="3,2"/>
<polyline points="65.54166666666667,333.31572652979867 76.625,334.7407481230483 87.70833333333334,339.22786968750694 98.79166666666667,340.18353893059896 109.87500000000001,340.082694148537 120.95833333333334,337.87793190395456 132.04166666666666,340.6322615589848 143.125,347.6596314187 154.20833333333334,349.79986324199297 165.29166666666666,349.16549251014266 176.375,351.4908346187477 187.45833333333334,353.6772330452804 198.54166666666666,354.4477680138425 209.625,360.0508208259183 220.70833333333334,358.6459329059374 231.79166666666666,361.7299375973806 242.875,369.28245258468655 253.95833333333334,381.82427275494945 265.0416666666667,389.2439540776801 276.12500000000006,391.1622374071784 287.20833333333337,395.52015747416306 298.2916666666667,398.17096937716775 309.37500000000006,399.1493260733839 320.45833333333337,402.5752666148651 331.5416666666667,402.9761627276298 342.62500000000006,405.8135550334887 353.70833333333337,408.18863937319946 364.7916666666667,408.42334778225256 375.87500000000006,400.5386267787604 386.95833333333337,395.4602738089218 398.0416666666667,389.25010879002866 409.12500000000006,385.54259461824114 420.20833333333337,379.2793431931056 431.2916666666667,377.012353305403 442.37500000000006,375.14477131528895 453.45833333333337,373.26354630108364 464.5416666666667,370.7116087691896 475.62500000000006,370.1808705328582 486.70833333333337,366.06091654552523 497.7916666666667,366.1134301121387 508.87500000000006,364.92699207661946 519.9583333333334,360.4971389606538 531.0416666666666,360.64841487816096 542.125,362.6323297380551 553.2083333333334,360.90132194483056 564.2916666666666,353.0293578097422 575.375,346.3563601264337 586.4583333333334,336.84377898535877 597.5416666666666,317.57507662873496 608.625,306.2306370933976 619.7083333333334,292.942144216009 630.7916666666666,292.17523586894123 641.875,282.1468551397885 652.9583333333334,274.74875719039517 664.0416666666666,263.505881977837 675.125,242.24390537277367 686.2083333333334,226.4915518244908 697.2916666666666,200.62010703653849 708.375,164.82174965149338 719.4583333333334,120.54783310099559" fill="none" stroke="#ffd700" stroke-width="1" opacity="0.7"/>
<polyline points="65.54166666666667,333.31572652979867 76.625,334.09301103520755 87.70833333333334,336.65830226815604 98.79166666666667,337.6467704769973 109.87500000000001,338.05299486016384 120.95833333333334,337.21943350645944 132.04166666666666,338.8415221178387 143.125,343.0002219397099 154.20833333333334,345.0147864758679 165.29166666666666,345.53878003415406 176.375,347.46655072539113 187.45833333333334,349.39081966592835 198.54166666666666,350.5904593541171 209.625,354.3479988261085 220.70833333333334,354.61857305153893 231.79166666666666,357.03300467494404 242.875,362.00654610846306 253.95833333333334,370.17043101519255 265.0416666666667,376.3364102348196 276.12500000000006,379.72957274961146 287.20833333333337,384.18528636025167 298.2916666666667,387.69206941896533 309.37500000000006,390.1309730638473 320.45833333333337,393.6393684518437 331.5416666666667,395.4827478157193 342.62500000000006,398.3928554210806 353.70833333333337,401.0375740813607 364.7916666666667,402.46579053936034 375.87500000000006,399.248225854345 386.95833333333337,396.7128334934177 398.0416666666667,393.0977326313858 409.12500000000006,390.3758842028913 420.20833333333337,386.08078531924457 431.2916666666667,383.6076195393816 442.37500000000006,381.389799138596 453.45833333333337,379.22821679933725 464.5416666666667,376.7517653277126 475.62500000000006,375.36406146089126 486.70833333333337,372.17441548088544 497.7916666666667,371.0915139835182 508.87500000000006,369.5392598057115 519.9583333333334,366.2843821553498 531.0416666666666,365.3146702567726 542.125,365.5483955660582 553.2083333333334,364.07401571011695 564.2916666666666,359.20336367910767 575.375,354.44100023923653 586.4583333333334,347.7823850508679 597.5416666666666,335.2833462989805 608.625,325.87578479420637 619.7083333333334,315.05567091548374 630.7916666666666,310.61671605354223 641.875,301.79369380407695 652.9583333333334,294.18621516544636 664.0416666666666,284.51965450858717 675.125,269.1015268093253 686.2083333333334,255.62613006725255 697.2916666666666,236.21723686604918 708.375,210.21865468702265 719.4583333333334,177.8152629257458" fill="none" stroke="#ff6b6b" stroke-width="1" opacity="0.7"/>
<polyline points="65.54166666666667,333.31572652979867 76.625,333.72287555644147 87.70833333333334,335.1018505335827 98.79166666666667,335.7678530938875 109.87500000000001,336.15958180727085 120.95833333333334,335.9032794841774 132.04166666666666,336.87829294940286 143.125,339.24363372928167 154.20833333333334,340.65665212540523 165.29166666666666,341.3461853559802 176.375,342.75526473502566 187.45833333333334,344.2119090362943 198.54166666666666,345.3335213138821 209.625,347.802417041138 220.70833333333334,348.5675351387416 231.79166666666666,350.40852674269644 242.875,353.644617772849 253.95833333333334,358.7173125654801 265.0416666666667,363.03788439001926 276.12500000000006,366.08178150203406 287.20833333333337,369.7155163692815 298.2916666666667,372.93047606584304 309.37500000000006,375.6138630563167 320.45833333333337,378.8341758793177 331.5416666666667,381.2097738863502 342.62500000000006,384.09344681576505 353.70833333333337,386.840624076418 364.7916666666667,388.94082793584096 375.87500000000006,388.5435285868824 386.95833333333337,388.2349608994883 398.0416666666667,387.1487530759411 409.12500000000006,386.2895924282006 420.20833333333337,384.4289493724514 431.2916666666667,383.2907992922178 442.37500000000006,382.15925720106 453.45833333333337,380.9537180650231 464.5416666666667,379.4921957450592 475.62500000000006,378.5043098703103 486.70833333333337,376.5344716513149 497.7916666666667,375.55199408884357 508.87500000000006,374.31410093805664 519.9583333333334,372.15441825145336 531.0416666666666,371.0874228668555 542.125,370.6600644469495 553.2083333333334,369.40094462899066 564.2916666666666,366.3423241442835 575.375,363.1678518219533 586.4583333333334,358.8488770487396 597.5416666666666,351.24780989319174 608.625,344.79961447695666 619.7083333333334,337.32966628498286 630.7916666666666,332.8831665602041 641.875,326.140969143183 652.9583333333334,319.83731125255684 664.0416666666666,312.3309131859058 675.125,301.6060597551192 686.2083333333334,291.45184880014835 697.2916666666666,277.8733124820993 708.375,260.287762234414 719.4583333333334,238.5460705930412" fill="none" stroke="#4ecdc4" stroke-width="1" opacity="0.7"/>
<line x1="65.54166666666667" y1="323.6968307753638" x2="65.54166666666667" y2="349.49990033884797" stroke="#ff4444" stroke-width="0.5" opacity="0.6"/>
<rect x="63.04791666666667" y="333.31572652979867" width="4.987500000000001" height="13.893960534183805" fill="#ff4444" opacity="0.8" rx="1"/>
<line x1="76.625" y1="336.9800677695834" x2="76.625" y2="351.71377317121784" stroke="#ff4444" stroke-width="0.5" opacity="0.6"/>
<rect x="74.13125" y="337.59079130954757" width="4.987500000000001" height="3.05361769982062" fill="#ff4444" opacity="0.8" rx="1"/>
<line x1="87.70833333333334" y1="341.2551325493323" x2="87.70833333333334" y2="348.7364959138928" stroke="#44aa44" stroke-width="0.5" opacity="0.6"/>
<rect x="85.21458333333334" y="348.12577237392867" width="4.987500000000001" height="0.5" fill="#44aa44" opacity="0.8" rx="1"/>
<line x1="98.79166666666667" y1="324.3838947578234" x2="98.79166666666667" y2="346.90432529400044" stroke="#ff4444" stroke-width="0.5" opacity="0.6"/>
<rect x="96.29791666666667" y="342.094877416783" width="4.987500000000001" height="2.0611919473789158" fill="#ff4444" opacity="0.8" rx="1"/>
<line x1="109.87500000000001" y1="327.7428742276261" x2="109.87500000000001" y2="354.7673908710385" stroke="#ff4444" stroke-width="0.5" opacity="0.6"/>
<rect x="107.38125000000001" y="339.881004584413" width="4.987500000000001" height="14.886386286625509" fill="#ff4444" opacity="0.8" rx="1"/>
<line x1="120.95833333333334" y1="321.02491528802074" x2="120.95833333333334" y2="337.13274865457447" stroke="#44aa44" stroke-width="0.5" opacity="0.6"/>
<rect x="118.46458333333334" y="328.88798086505886" width="4.987500000000001" height="4.5804265497308165" fill="#44aa44" opacity="0.8" rx="1"/>
<line x1="132.04166666666666" y1="330.4911301574646" x2="132.04166666666666" y2="347.51504883396456" stroke="#44aa44" stroke-width="0.5" opacity="0.6"/>
<rect x="129.54791666666665" y="338.0488339645206" width="4.987500000000001" height="8.092086904524649" fill="#44aa44" opacity="0.8" rx="1"/>
<line x1="143.125" y1="356.9049232609129" x2="143.125" y2="379.27267291209887" stroke="#44aa44" stroke-width="0.5" opacity="0.6"/>
<rect x="140.63125" y="356.9049232609129" width="4.987500000000001" height="4.809447877217508" fill="#44aa44" opacity="0.8" rx="1"/>
<line x1="154.20833333333334" y1="349.49990033884797" x2="154.20833333333334" y2="359.04245565078736" stroke="#ff4444" stroke-width="0.5" opacity="0.6"/>
<rect x="151.71458333333334" y="354.0803268885789" width="4.987500000000001" height="0.5" fill="#ff4444" opacity="0.8" rx="1"/>
<line x1="165.29166666666666" y1="336.8273868845924" x2="165.29166666666666" y2="351.5610922862268" stroke="#ff4444" stroke-width="0.5" opacity="0.6"/>
<rect x="162.79791666666665" y="347.8967510464421" width="4.987500000000001" height="2.6719154873430853" fill="#ff4444" opacity="0.8" rx="1"/>
<line x1="176.375" y1="341.2551325493323" x2="176.375" y2="358.3553916683277" stroke="#44aa44" stroke-width="0.5" opacity="0.6"/>
<rect x="173.88125" y="349.49990033884797" width="4.987500000000001" height="6.641618497109789" fill="#44aa44" opacity="0.8" rx="1"/>
<line x1="187.45833333333334" y1="347.97309148893765" x2="187.45833333333334" y2="363.3175204305362" stroke="#ff4444" stroke-width="0.5" opacity="0.6"/>
<rect x="184.96458333333334" y="358.0500298983457" width="4.987500000000001" height="1.6031492924057602" fill="#ff4444" opacity="0.8" rx="1"/>
<line x1="198.54166666666666" y1="350.5686665337852" x2="198.54166666666666" y2="368.2033087502492" stroke="#ff4444" stroke-width="0.5" opacity="0.6"/>
<rect x="196.04791666666665" y="355.98883795096674" width="4.987500000000001" height="3.358979469802648" fill="#ff4444" opacity="0.8" rx="1"/>
<line x1="209.625" y1="353.7749651185968" x2="209.625" y2="371.7149691050429" stroke="#44aa44" stroke-width="0.5" opacity="0.6"/>
<rect x="207.13125" y="353.8513055610923" width="4.987500000000001" height="17.405620888977467" fill="#44aa44" opacity="0.8" rx="1"/>
<line x1="220.70833333333334" y1="352.78253936615505" x2="220.70833333333334" y2="369.8827984851505" stroke="#ff4444" stroke-width="0.5" opacity="0.6"/>
<rect x="218.21458333333334" y="355.83615706597567" width="4.987500000000001" height="11.603747259318368" fill="#ff4444" opacity="0.8" rx="1"/>
<line x1="231.79166666666666" y1="360.4165836157066" x2="231.79166666666666" y2="369.3484153876819" stroke="#44aa44" stroke-width="0.5" opacity="0.6"/>
<rect x="229.29791666666665" y="363.3175204305362" width="4.987500000000001" height="4.58042654973093" fill="#44aa44" opacity="0.8" rx="1"/>
<line x1="242.875" y1="363.6228822005183" x2="242.875" y2="384.6165038867849" stroke="#44aa44" stroke-width="0.5" opacity="0.6"/>
<rect x="240.38125" y="364.3099461829779" width="4.987500000000001" height="20.077536376320495" fill="#44aa44" opacity="0.8" rx="1"/>
<line x1="253.95833333333334" y1="390.8764201714172" x2="253.95833333333334" y2="410.03787123779153" stroke="#44aa44" stroke-width="0.5" opacity="0.6"/>
<rect x="251.46458333333334" y="396.2202511461033" width="4.987500000000001" height="10.68766194937217" fill="#44aa44" opacity="0.8" rx="1"/>
<line x1="265.0416666666667" y1="400.11361371337455" x2="265.0416666666667" y2="412.17540362766596" stroke="#44aa44" stroke-width="0.5" opacity="0.6"/>
<rect x="262.5479166666667" y="400.64799681084315" width="4.987500000000001" height="3.435319912298155" fill="#44aa44" opacity="0.8" rx="1"/>
<line x1="276.12500000000006" y1="390.26569663145307" x2="276.12500000000006" y2="400.87701813832973" stroke="#ff4444" stroke-width="0.5" opacity="0.6"/>
<rect x="273.6312500000001" y="394.998804066175" width="4.987500000000001" height="5.649192744668142" fill="#ff4444" opacity="0.8" rx="1"/>
<line x1="287.20833333333337" y1="394.08271875622887" x2="287.20833333333337" y2="405.6864660155471" stroke="#44aa44" stroke-width="0.5" opacity="0.6"/>
<rect x="284.7145833333334" y="396.8309746860674" width="4.987500000000001" height="7.405022922064973" fill="#44aa44" opacity="0.8" rx="1"/>
<line x1="298.2916666666667" y1="400.3426350408611" x2="298.2916666666667" y2="410.57225433526014" stroke="#ff4444" stroke-width="0.5" opacity="0.6"/>
<rect x="295.7979166666667" y="403.4725931831772" width="4.987500000000001" height="5.191150089695043" fill="#ff4444" opacity="0.8" rx="1"/>
<line x1="309.37500000000006" y1="400.11361371337455" x2="309.37500000000006" y2="411.71736097269286" stroke="#ff4444" stroke-width="0.5" opacity="0.6"/>
<rect x="306.8812500000001" y="401.10603946581625" width="4.987500000000001" height="9.00817221447079" fill="#ff4444" opacity="0.8" rx="1"/>
<line x1="320.45833333333337" y1="402.93821008570865" x2="320.45833333333337" y2="410.95395654773773" stroke="#44aa44" stroke-width="0.5" opacity="0.6"/>
<rect x="317.9645833333334" y="403.7016145106638" width="4.987500000000001" height="5.725533187163649" fill="#44aa44" opacity="0.8" rx="1"/>
<line x1="331.5416666666667" y1="400.72433725333866" x2="331.5416666666667" y2="405.6864660155471" stroke="#44aa44" stroke-width="0.5" opacity="0.6"/>
<rect x="329.0479166666667" y="400.80067769583417" width="4.987500000000001" height="2.977277257325113" fill="#44aa44" opacity="0.8" rx="1"/>
<line x1="342.62500000000006" y1="403.4725931831772" x2="342.62500000000006" y2="413.0151484951166" stroke="#44aa44" stroke-width="0.5" opacity="0.6"/>
<rect x="340.1312500000001" y="403.4725931831772" width="4.987500000000001" height="8.015746462029142" fill="#44aa44" opacity="0.8" rx="1"/>
<line x1="353.70833333333337" y1="407.6713175204306" x2="353.70833333333337" y2="415.0" stroke="#44aa44" stroke-width="0.5" opacity="0.6"/>
<rect x="351.2145833333334" y="408.43472194538566" width="4.987500000000001" height="4.50408610723548" fill="#44aa44" opacity="0.8" rx="1"/>
<line x1="364.7916666666667" y1="407.0605939804664" x2="364.7916666666667" y2="411.03029699023324" stroke="#ff4444" stroke-width="0.5" opacity="0.6"/>
<rect x="362.2979166666667" y="408.89276460035876" width="4.987500000000001" height="0.9160853099461974" fill="#ff4444" opacity="0.8" rx="1"/>
<line x1="375.87500000000006" y1="384.769184771776" x2="375.87500000000006" y2="399.65557105840145" stroke="#ff4444" stroke-width="0.5" opacity="0.6"/>
<rect x="373.3812500000001" y="384.769184771776" width="4.987500000000001" height="14.733705401634438" fill="#ff4444" opacity="0.8" rx="1"/>
<line x1="386.95833333333337" y1="381.02850308949576" x2="386.95833333333337" y2="391.86884592385894" stroke="#ff4444" stroke-width="0.5" opacity="0.6"/>
<rect x="384.4645833333334" y="385.3035678692446" width="4.987500000000001" height="5.649192744668142" fill="#ff4444" opacity="0.8" rx="1"/>
<line x1="398.0416666666667" y1="370.9515646800877" x2="398.0416666666667" y2="378.9673111421168" stroke="#ff4444" stroke-width="0.5" opacity="0.6"/>
<rect x="395.5479166666667" y="376.8297787522424" width="4.987500000000001" height="2.137532389874366" fill="#ff4444" opacity="0.8" rx="1"/>
<line x1="409.12500000000006" y1="373.1654375124577" x2="409.12500000000006" y2="380.7994817620092" stroke="#ff4444" stroke-width="0.5" opacity="0.6"/>
<rect x="406.6312500000001" y="378.12756627466615" width="4.987500000000001" height="2.6719154873430284" fill="#ff4444" opacity="0.8" rx="1"/>
<line x1="420.20833333333337" y1="361.1036475981663" x2="420.20833333333337" y2="374.692246362368" stroke="#ff4444" stroke-width="0.5" opacity="0.6"/>
<rect x="417.7145833333334" y="366.75284034283436" width="4.987500000000001" height="5.649192744668142" fill="#ff4444" opacity="0.8" rx="1"/>
<line x1="431.2916666666667" y1="364.0045844129958" x2="431.2916666666667" y2="374.2342037073949" stroke="#44aa44" stroke-width="0.5" opacity="0.6"/>
<rect x="428.7979166666667" y="365.53139326290614" width="4.987500000000001" height="6.946980267091874" fill="#44aa44" opacity="0.8" rx="1"/>
<line x1="442.37500000000006" y1="369.19573450269087" x2="442.37500000000006" y2="375.4556507873231" stroke="#ff4444" stroke-width="0.5" opacity="0.6"/>
<rect x="439.8812500000001" y="371.4096073350608" width="4.987500000000001" height="0.9924257524417044" fill="#ff4444" opacity="0.8" rx="1"/>
<line x1="453.45833333333337" y1="364.76798883795095" x2="453.45833333333337" y2="375.07394857484553" stroke="#ff4444" stroke-width="0.5" opacity="0.6"/>
<rect x="450.9645833333334" y="369.50109627267295" width="4.987500000000001" height="2.2902132748654367" fill="#ff4444" opacity="0.8" rx="1"/>
<line x1="464.5416666666667" y1="361.7143711381304" x2="464.5416666666667" y2="373.24177795495314" stroke="#ff4444" stroke-width="0.5" opacity="0.6"/>
<rect x="462.0479166666667" y="365.60773370540164" width="4.987500000000001" height="3.74068168228024" fill="#ff4444" opacity="0.8" rx="1"/>
<line x1="475.62500000000006" y1="364.76798883795095" x2="475.62500000000006" y2="375.9900338847917" stroke="#44aa44" stroke-width="0.5" opacity="0.6"/>
<rect x="473.1312500000001" y="365.53139326290614" width="4.987500000000001" height="3.588000797289169" fill="#44aa44" opacity="0.8" rx="1"/>
<line x1="486.70833333333337" y1="356.52322104843535" x2="486.70833333333337" y2="371.1042455650787" stroke="#ff4444" stroke-width="0.5" opacity="0.6"/>
<rect x="484.2145833333334" y="357.82100857085914" width="4.987500000000001" height="12.748853896750973" fill="#ff4444" opacity="0.8" rx="1"/>
<line x1="497.7916666666667" y1="355.75981662348016" x2="497.7916666666667" y2="369.04305361769985" stroke="#44aa44" stroke-width="0.5" opacity="0.6"/>
<rect x="495.2979166666667" y="357.4393063583815" width="4.987500000000001" height="8.779150886984326" fill="#44aa44" opacity="0.8" rx="1"/>
<line x1="508.87500000000006" y1="355.07275264102054" x2="508.87500000000006" y2="365.45505282041063" stroke="#ff4444" stroke-width="0.5" opacity="0.6"/>
<rect x="506.3812500000001" y="362.5541160055811" width="4.987500000000001" height="0.5343830974685488" fill="#ff4444" opacity="0.8" rx="1"/>
<line x1="519.9583333333334" y1="346.8279848515049" x2="519.9583333333334" y2="357.51564680087705" stroke="#ff4444" stroke-width="0.5" opacity="0.6"/>
<rect x="517.4645833333334" y="351.6374327287224" width="4.987500000000001" height="2.4428941598565075" fill="#ff4444" opacity="0.8" rx="1"/>
<line x1="531.0416666666666" y1="350.3396452062986" x2="531.0416666666666" y2="363.5465417580227" stroke="#44aa44" stroke-width="0.5" opacity="0.6"/>
<rect x="528.5479166666667" y="353.3169224636237" width="4.987500000000001" height="7.6340442495514935" fill="#44aa44" opacity="0.8" rx="1"/>
<line x1="542.125" y1="364.53896751046443" x2="542.125" y2="376.29539565477376" stroke="#ff4444" stroke-width="0.5" opacity="0.6"/>
<rect x="539.63125" y="366.60015945784335" width="4.987500000000001" height="1.2214470799282253" fill="#ff4444" opacity="0.8" rx="1"/>
<line x1="553.2083333333334" y1="355.1490930835161" x2="553.2083333333334" y2="368.5086705202312" stroke="#ff4444" stroke-width="0.5" opacity="0.6"/>
<rect x="550.7145833333334" y="357.4393063583815" width="4.987500000000001" height="6.946980267091931" fill="#ff4444" opacity="0.8" rx="1"/>
<line x1="564.2916666666666" y1="329.804066175005" x2="564.2916666666666" y2="339.9573450269085" stroke="#ff4444" stroke-width="0.5" opacity="0.6"/>
<rect x="561.7979166666667" y="337.2854295395655" width="4.987500000000001" height="2.5955750448475214" fill="#ff4444" opacity="0.8" rx="1"/>
<line x1="575.375" y1="327.3611720151485" x2="575.375" y2="342.8582818417381" stroke="#44aa44" stroke-width="0.5" opacity="0.6"/>
<rect x="572.88125" y="331.9415985648794" width="4.987500000000001" height="1.0687661949372114" fill="#44aa44" opacity="0.8" rx="1"/>
<line x1="586.4583333333334" y1="311.40601953358583" x2="586.4583333333334" y2="345.68287821407216" stroke="#ff4444" stroke-width="0.5" opacity="0.6"/>
<rect x="583.9645833333334" y="317.8186167032091" width="4.987500000000001" height="20.993621686266692" fill="#ff4444" opacity="0.8" rx="1"/>
<line x1="597.5416666666666" y1="279.03767191548735" x2="597.5416666666666" y2="299.1915487343034" stroke="#ff4444" stroke-width="0.5" opacity="0.6"/>
<rect x="595.0479166666667" y="279.03767191548735" width="4.987500000000001" height="15.497109826589622" fill="#ff4444" opacity="0.8" rx="1"/>
<line x1="608.625" y1="270.1821805860076" x2="608.625" y2="288.42754634243573" stroke="#44aa44" stroke-width="0.5" opacity="0.6"/>
<rect x="606.13125" y="271.93801076340446" width="4.987500000000001" height="11.603747259318254" fill="#44aa44" opacity="0.8" rx="1"/>
<line x1="619.7083333333334" y1="262.7008172214471" x2="619.7083333333334" y2="299.11520829180785" stroke="#ff4444" stroke-width="0.5" opacity="0.6"/>
<rect x="617.2145833333334" y="266.3651584612318" width="4.987500000000001" height="30.38349611321513" fill="#ff4444" opacity="0.8" rx="1"/>
<line x1="630.7916666666666" y1="264.0749451863664" x2="630.7916666666666" y2="290.8704405022922" stroke="#44aa44" stroke-width="0.5" opacity="0.6"/>
<rect x="628.2979166666667" y="264.0749451863664" width="4.987500000000001" height="26.566473988439213" fill="#44aa44" opacity="0.8" rx="1"/>
<line x1="641.875" y1="249.26489934223642" x2="641.875" y2="288.19852501494915" stroke="#ff4444" stroke-width="0.5" opacity="0.6"/>
<rect x="639.38125" y="262.090093681483" width="4.987500000000001" height="21.98604743870834" fill="#ff4444" opacity="0.8" rx="1"/>
<line x1="652.9583333333334" y1="232.2409806657365" x2="652.9583333333334" y2="270.02949970101656" stroke="#ff4444" stroke-width="0.5" opacity="0.6"/>
<rect x="650.4645833333334" y="259.95256129160856" width="4.987500000000001" height="6.565278054614339" fill="#ff4444" opacity="0.8" rx="1"/>
<line x1="664.0416666666666" y1="239.56966314530595" x2="664.0416666666666" y2="277.1291608530995" stroke="#ff4444" stroke-width="0.5" opacity="0.6"/>
<rect x="661.5479166666667" y="241.02013155272073" width="4.987500000000001" height="29.772772573251018" fill="#ff4444" opacity="0.8" rx="1"/>
<line x1="675.125" y1="194.60514251544748" x2="675.125" y2="248.9595375722543" stroke="#ff4444" stroke-width="0.5" opacity="0.6"/>
<rect x="672.63125" y="199.71995216264702" width="4.987500000000001" height="49.16324496711181" fill="#ff4444" opacity="0.8" rx="1"/>
<line x1="686.2083333333334" y1="161.09168825991625" x2="686.2083333333334" y2="203.91867649990033" stroke="#44aa44" stroke-width="0.5" opacity="0.6"/>
<rect x="683.7145833333334" y="194.68148295794302" width="4.987500000000001" height="0.5" fill="#44aa44" opacity="0.8" rx="1"/>
<line x1="697.2916666666666" y1="146.89236595575045" x2="697.2916666666666" y2="217.04923260912895" stroke="#ff4444" stroke-width="0.5" opacity="0.6"/>
<rect x="694.7979166666667" y="148.87721746063386" width="4.987500000000001" height="44.5064779748854" fill="#ff4444" opacity="0.8" rx="1"/>
<line x1="708.375" y1="93.22503488140322" x2="708.375" y2="163.2292206497907" stroke="#ff4444" stroke-width="0.5" opacity="0.6"/>
<rect x="705.88125" y="93.22503488140322" width="4.987500000000001" height="47.10205301973289" fill="#ff4444" opacity="0.8" rx="1"/>
<line x1="719.4583333333334" y1="32.0" x2="719.4583333333334" y2="85.74367151684268" stroke="#ff4444" stroke-width="0.5" opacity="0.3" stroke-dasharray="4,3"/>
<rect x="716.9645833333334" y="32.0" width="4.987500000000001" height="39.62068965517241" fill="#ff4444" opacity="0.4" stroke-dasharray="4,3" rx="1"/>
<text x="739.4583333333334" y="26.0" font-family="sans-serif" font-size="9" fill="#ffd700" opacity="0.8">🕐 盘中</text>
<line x1="497.7916666666667" y1="369.04305361769985" x2="497.7916666666667" y2="334.04305361769985" stroke="#4ecdc4" stroke-width="0.8" stroke-dasharray="2,2" opacity="0.7"/>
<rect x="461.7916666666667" y="325.04305361769985" width="72" height="16" fill="#4ecdc4" opacity="0.85" rx="3"/>
<text x="497.7916666666667" y="337.04305361769985" text-anchor="middle" font-family="sans-serif" font-size="9" fill="#000000" font-weight="bold">B1乖离买入</text>
<polygon points="497.7916666666667,375.04305361769985 493.7916666666667,369.04305361769985 501.7916666666667,369.04305361769985" fill="#4ecdc4" opacity="0.9"/>
<line x1="508.87500000000006" y1="365.45505282041063" x2="508.87500000000006" y2="315.45505282041063" stroke="#4ecdc4" stroke-width="0.8" stroke-dasharray="2,2" opacity="0.7"/>
<rect x="472.87500000000006" y="306.45505282041063" width="72" height="16" fill="#4ecdc4" opacity="0.85" rx="3"/>
<text x="508.87500000000006" y="318.45505282041063" text-anchor="middle" font-family="sans-serif" font-size="9" fill="#000000" font-weight="bold">B2乖离买入</text>
<polygon points="508.87500000000006,371.45505282041063 504.87500000000006,365.45505282041063 512.875,365.45505282041063" fill="#4ecdc4" opacity="0.9"/>
<line x1="531.0416666666666" y1="363.5465417580227" x2="531.0416666666666" y2="298.5465417580227" stroke="#4ecdc4" stroke-width="0.8" stroke-dasharray="2,2" opacity="0.7"/>
<rect x="495.04166666666663" y="289.5465417580227" width="72" height="16" fill="#4ecdc4" opacity="0.85" rx="3"/>
<text x="531.0416666666666" y="301.5465417580227" text-anchor="middle" font-family="sans-serif" font-size="9" fill="#000000" font-weight="bold">B3乖离买入</text>
<polygon points="531.0416666666666,369.5465417580227 527.0416666666666,363.5465417580227 535.0416666666666,363.5465417580227" fill="#4ecdc4" opacity="0.9"/>
<line x1="553.2083333333334" y1="368.5086705202312" x2="553.2083333333334" y2="288.5086705202312" stroke="#4ecdc4" stroke-width="0.8" stroke-dasharray="2,2" opacity="0.7"/>
<rect x="517.2083333333334" y="279.5086705202312" width="72" height="16" fill="#4ecdc4" opacity="0.85" rx="3"/>
<text x="553.2083333333334" y="291.5086705202312" text-anchor="middle" font-family="sans-serif" font-size="9" fill="#000000" font-weight="bold">B4乖离买入</text>
<polygon points="553.2083333333334,374.5086705202312 549.2083333333334,368.5086705202312 557.2083333333334,368.5086705202312" fill="#4ecdc4" opacity="0.9"/>
<line x1="630.7916666666666" y1="290.8704405022922" x2="630.7916666666666" y2="195.87044050229218" stroke="#4ecdc4" stroke-width="0.8" stroke-dasharray="2,2" opacity="0.7"/>
<rect x="594.7916666666666" y="186.87044050229218" width="72" height="16" fill="#4ecdc4" opacity="0.85" rx="3"/>
<text x="630.7916666666666" y="198.87044050229218" text-anchor="middle" font-family="sans-serif" font-size="9" fill="#000000" font-weight="bold">B5乖离买入</text>
<polygon points="630.7916666666666,296.8704405022922 626.7916666666666,290.8704405022922 634.7916666666666,290.8704405022922" fill="#4ecdc4" opacity="0.9"/>
<line x1="597.5416666666666" y1="279.03767191548735" x2="597.5416666666666" y2="298.03767191548735" stroke="#e94560" stroke-width="0.8" stroke-dasharray="2,2" opacity="0.7"/>
<rect x="563.5416666666666" y="305.03767191548735" width="68" height="16" fill="#e94560" opacity="0.85" rx="3"/>
<text x="597.5416666666666" y="317.03767191548735" text-anchor="middle" font-family="sans-serif" font-size="9" fill="#ffffff" font-weight="bold">W1警戒⚠️</text>
<polygon points="597.5416666666666,273.03767191548735 593.5416666666666,279.03767191548735 601.5416666666666,279.03767191548735" fill="#e94560" opacity="0.9"/>
<line x1="675.125" y1="194.60514251544748" x2="675.125" y2="228.60514251544748" stroke="#e94560" stroke-width="0.8" stroke-dasharray="2,2" opacity="0.7"/>
<rect x="641.125" y="235.60514251544748" width="68" height="16" fill="#e94560" opacity="0.85" rx="3"/>
<text x="675.125" y="247.60514251544748" text-anchor="middle" font-family="sans-serif" font-size="9" fill="#ffffff" font-weight="bold">W2警戒⚠️</text>
<polygon points="675.125,188.60514251544748 671.125,194.60514251544748 679.125,194.60514251544748" fill="#e94560" opacity="0.9"/>
<line x1="697.2916666666666" y1="146.89236595575045" x2="697.2916666666666" y2="195.89236595575045" stroke="#e94560" stroke-width="0.8" stroke-dasharray="2,2" opacity="0.7"/>
<rect x="663.2916666666666" y="202.89236595575045" width="68" height="16" fill="#e94560" opacity="0.85" rx="3"/>
<text x="697.2916666666666" y="214.89236595575045" text-anchor="middle" font-family="sans-serif" font-size="9" fill="#ffffff" font-weight="bold">W3警戒⚠️</text>
<polygon points="697.2916666666666,140.89236595575045 693.2916666666666,146.89236595575045 701.2916666666666,146.89236595575045" fill="#e94560" opacity="0.9"/>
<rect x="60" y="443" width="665" height="55" fill="#111122" opacity="0.5" rx="2"/>
<rect x="60" y="443" width="665" height="19.154995907051045" fill="#e94560" opacity="0.18" rx="2"/>
<rect x="60" y="462.15499590705105" width="665" height="7.758753069711702" fill="#ffd700" opacity="0.12"/>
<rect x="60" y="469.91374897676275" width="665" height="30.086251023237253" fill="#4ecdc4" opacity="0.14"/>
<text x="670" y="455.5774979535255" text-anchor="end" font-family="sans-serif" font-size="9" fill="#e94560" font-weight="bold">⚠️ 警戒区</text>
<text x="670" y="469.0343724419069" text-anchor="end" font-family="sans-serif" font-size="9" fill="#ffd700">持有区</text>
<text x="670" y="487.95687448838135" text-anchor="end" font-family="sans-serif" font-size="9" fill="#4ecdc4">买入区</text>
<line x1="60" y1="472.5" x2="725" y2="472.5" stroke="#888888" stroke-width="0.5" stroke-dasharray="3,2" opacity="0.5"/>
<text x="56" y="475.5" text-anchor="end" font-family="sans-serif" font-size="7" fill="#888888">0%</text>
<line x1="60" y1="469.91374897676275" x2="725" y2="469.91374897676275" stroke="#4ecdc4" stroke-width="0.5" stroke-dasharray="3,2" opacity="0.5"/>
<text x="56" y="472.91374897676275" text-anchor="end" font-family="sans-serif" font-size="7" fill="#4ecdc4">2%</text>
<line x1="60" y1="462.15499590705105" x2="725" y2="462.15499590705105" stroke="#e94560" stroke-width="0.5" stroke-dasharray="3,2" opacity="0.5"/>
<text x="56" y="465.15499590705105" text-anchor="end" font-family="sans-serif" font-size="7" fill="#e94560">8%</text>
<text x="60" y="445" font-family="sans-serif" font-size="8" fill="#888888">BIAS5</text>
<polyline points="65.54166666666667,472.5 76.625,473.49471193201435 87.70833333333334,475.67055639798036 98.79166666666667,473.17703430728744 109.87500000000001,472.428577253573 120.95833333333334,470.9478610195644 132.04166666666666,474.4536786626875 143.125,477.58255506072857 154.20833333333334,474.0572460993616 165.29166666666666,472.0392501835286 176.375,474.20002104165565 187.45833333333334,474.10838216333684 198.54166666666666,473.06807435461735 209.625,476.69788187406783 220.70833333333334,471.45170562072764 231.79166666666666,474.8218715944196 242.875,478.3139279384311 253.95833333333334,482.5290908661844 265.0416666666667,478.572472205775 276.12500000000006,474.079564782013 287.20833333333337,476.138915614612 298.2916666666667,474.7325673606681 309.37500000000006,473.3266254509714 320.45833333333337,475.42738300923975 331.5416666666667,472.8430103209259 342.62500000000006,474.950702987317 353.70833333333337,474.56780158479853 364.7916666666667,472.7045039748428 375.87500000000006,465.80772888853915 386.95833333333337,468.26033396925686 398.0416666666667,467.4173303630247 409.12500000000006,469.5007978360897 420.20833333333337,467.5306811873012 431.2916666666667,470.71377287092093 442.37500000000006,471.03680322548297 453.45833333333337,471.03446627883653 464.5416666666667,470.52712543850845 475.62500000000006,472.09034208528436 486.70833333333337,469.3585812431914 497.7916666666667,472.540047206411 508.87500000000006,471.5983685175656 519.9583333333334,469.17679827071817 531.0416666666666,472.6135344825162 542.125,473.99757492331304 553.2083333333334,471.19990267002026 564.2916666666666,466.7197920498485 575.375,467.69127114750256 586.4583333333334,465.82200049091875 597.5416666666666,459.6453721182241 608.625,465.1470145165001 619.7083333333334,464.1645581615752 630.7916666666666,472.0198363259752 641.875,466.3700212410794 652.9583333333334,468.0555296564922 664.0416666666666,465.9176515820038 675.125,460.62343046562614 686.2083333333334,463.99052091269937 697.2916666666666,459.2406719629512 708.375,455.3683712327771 719.4583333333334,452.9166666666667" fill="none" stroke="#4ecdc4" stroke-width="1.5" opacity="0.9"/>
<circle cx="719.4583333333334" cy="452.9166666666667" r="3" fill="#4ecdc4" opacity="1"/>
<text x="724.4583333333334" y="455.9166666666667" font-family="sans-serif" font-size="9" fill="#4ecdc4" font-weight="bold">BIAS5=15.1%</text>
<text x="65.54166666666667" y="489" text-anchor="middle" font-family="sans-serif" font-size="8" fill="#666666" transform="rotate(-45,65.54166666666667,489)">02/26</text>
<text x="120.95833333333334" y="489" text-anchor="middle" font-family="sans-serif" font-size="8" fill="#666666" transform="rotate(-45,120.95833333333334,489)">03/05</text>
<text x="176.375" y="489" text-anchor="middle" font-family="sans-serif" font-size="8" fill="#666666" transform="rotate(-45,176.375,489)">03/12</text>
<text x="231.79166666666666" y="489" text-anchor="middle" font-family="sans-serif" font-size="8" fill="#666666" transform="rotate(-45,231.79166666666666,489)">03/19</text>
<text x="287.20833333333337" y="489" text-anchor="middle" font-family="sans-serif" font-size="8" fill="#666666" transform="rotate(-45,287.20833333333337,489)">03/26</text>
<text x="342.62500000000006" y="489" text-anchor="middle" font-family="sans-serif" font-size="8" fill="#666666" transform="rotate(-45,342.62500000000006,489)">04/02</text>
<text x="398.0416666666667" y="489" text-anchor="middle" font-family="sans-serif" font-size="8" fill="#666666" transform="rotate(-45,398.0416666666667,489)">04/10</text>
<text x="453.45833333333337" y="489" text-anchor="middle" font-family="sans-serif" font-size="8" fill="#666666" transform="rotate(-45,453.45833333333337,489)">04/17</text>
<text x="508.87500000000006" y="489" text-anchor="middle" font-family="sans-serif" font-size="8" fill="#666666" transform="rotate(-45,508.87500000000006,489)">04/24</text>
<text x="564.2916666666666" y="489" text-anchor="middle" font-family="sans-serif" font-size="8" fill="#666666" transform="rotate(-45,564.2916666666666,489)">05/06</text>
<text x="619.7083333333334" y="489" text-anchor="middle" font-family="sans-serif" font-size="8" fill="#666666" transform="rotate(-45,619.7083333333334,489)">05/13</text>
<text x="675.125" y="489" text-anchor="middle" font-family="sans-serif" font-size="8" fill="#666666" transform="rotate(-45,675.125,489)">05/20</text>
<text x="719.4583333333334" y="489" text-anchor="middle" font-family="sans-serif" font-size="8" fill="#666666" transform="rotate(-45,719.4583333333334,489)">05/26</text>
<rect x="60" y="484" width="8" height="8" fill="#4ecdc4" opacity="0.8" rx="1"/>
<text x="71" y="491" font-family="sans-serif" font-size="9" fill="#888888">买入区(BIAS&lt;2%)</text>
<rect x="230" y="484" width="8" height="8" fill="#ffd700" opacity="0.8" rx="1"/>
<text x="241" y="491" font-family="sans-serif" font-size="9" fill="#888888">持有区(2-8%)</text>
<rect x="400" y="484" width="8" height="8" fill="#e94560" opacity="0.8" rx="1"/>
<text x="411" y="491" font-family="sans-serif" font-size="9" fill="#888888">警戒区(&gt;8%)</text>
<rect x="570" y="484" width="8" height="8" fill="#ffd700" opacity="0.8" rx="1"/>
<text x="581" y="491" font-family="sans-serif" font-size="9" fill="#888888">EMA5</text>
<rect x="60" y="497" width="8" height="8" fill="#ff6b6b" opacity="0.8" rx="1"/>
<text x="71" y="504" font-family="sans-serif" font-size="9" fill="#888888">EMA10</text>
<rect x="230" y="497" width="8" height="8" fill="#4ecdc4" opacity="0.8" rx="1"/>
<text x="241" y="504" font-family="sans-serif" font-size="9" fill="#888888">EMA20</text>
<rect x="400" y="497" width="8" height="8" fill="#4ecdc4" opacity="0.8" rx="1"/>
<text x="411" y="504" font-family="sans-serif" font-size="9" fill="#888888">B乖离买入</text>
<rect x="570" y="497" width="8" height="8" fill="#e94560" opacity="0.8" rx="1"/>
<text x="581" y="504" font-family="sans-serif" font-size="9" fill="#888888">W警戒⚠️</text>
</svg>