<svg xmlns="http://www.w3.org/2000/svg" width="800" height="400" viewBox="0 0 800 400">
<rect width="800" height="400" fill="#1a1a2e"/>
<text x="400.0" y="20" text-anchor="middle" font-family="sans-serif" font-size="14" fill="#ffffff" font-weight="bold">黄河旋风(600172) K线图</text>
<line x1="60" y1="30.0" x2="780" y2="30.0" stroke="#2a2a4e" stroke-width="0.5"/>
<text x="55" y="33.0" text-anchor="end" font-family="sans-serif" font-size="8" fill="#666666">13.30</text>
<line x1="60" y1="83.99999999999999" x2="780" y2="83.99999999999999" stroke="#2a2a4e" stroke-width="0.5"/>
<text x="55" y="86.99999999999999" text-anchor="end" font-family="sans-serif" font-size="8" fill="#666666">12.15</text>
<line x1="60" y1="137.99999999999997" x2="780" y2="137.99999999999997" stroke="#2a2a4e" stroke-width="0.5"/>
<text x="55" y="140.99999999999997" text-anchor="end" font-family="sans-serif" font-size="8" fill="#666666">10.99</text>
<line x1="60" y1="191.99999999999997" x2="780" y2="191.99999999999997" stroke="#2a2a4e" stroke-width="0.5"/>
<text x="55" y="194.99999999999997" text-anchor="end" font-family="sans-serif" font-size="8" fill="#666666">9.84</text>
<line x1="60" y1="245.99999999999994" x2="780" y2="245.99999999999994" stroke="#2a2a4e" stroke-width="0.5"/>
<text x="55" y="248.99999999999994" text-anchor="end" font-family="sans-serif" font-size="8" fill="#666666">8.68</text>
<line x1="60" y1="300.0" x2="780" y2="300.0" stroke="#2a2a4e" stroke-width="0.5"/>
<text x="55" y="303.0" text-anchor="end" font-family="sans-serif" font-size="8" fill="#666666">7.53</text>
<line x1="60" y1="300" x2="780" y2="300" stroke="#2a2a4e" stroke-width="0.5"/>
<line x1="60" y1="345" x2="780" y2="345" stroke="#2a2a4e" stroke-width="0.5"/>
<rect x="61.8" y="344.55552183362306" width="7.199999999999999" height="0.5" fill="#ff4444" opacity="0.3"/>
<rect x="73.8" y="344.5585370999231" width="7.199999999999999" height="0.5" fill="#ff4444" opacity="0.3"/>
<rect x="85.8" y="344.6192835212934" width="7.199999999999999" height="0.5" fill="#ff4444" opacity="0.3"/>
<rect x="97.8" y="344.66031004290767" width="7.199999999999999" height="0.5" fill="#44aa44" opacity="0.3"/>
<rect x="109.8" y="344.8070841635035" width="7.199999999999999" height="0.5" fill="#ff4444" opacity="0.3"/>
<rect x="121.8" y="344.57750129311086" width="7.199999999999999" height="0.5" fill="#ff4444" opacity="0.3"/>
<rect x="133.8" y="344.6867753288992" width="7.199999999999999" height="0.5" fill="#44aa44" opacity="0.3"/>
<rect x="145.8" y="344.7459283404986" width="7.199999999999999" height="0.5" fill="#ff4444" opacity="0.3"/>
<rect x="157.8" y="344.69410981152083" width="7.199999999999999" height="0.5" fill="#ff4444" opacity="0.3"/>
<rect x="169.8" y="344.6203989081331" width="7.199999999999999" height="0.5" fill="#ff4444" opacity="0.3"/>
<rect x="181.8" y="344.4972546473644" width="7.199999999999999" height="0.5027453526355998" fill="#44aa44" opacity="0.3"/>
<rect x="193.8" y="344.6891240090862" width="7.199999999999999" height="0.5" fill="#44aa44" opacity="0.3"/>
<rect x="205.8" y="344.7349457345758" width="7.199999999999999" height="0.5" fill="#44aa44" opacity="0.3"/>
<rect x="217.8" y="344.66546056553125" width="7.199999999999999" height="0.5" fill="#44aa44" opacity="0.3"/>
<rect x="229.8" y="344.77661616238305" width="7.199999999999999" height="0.5" fill="#ff4444" opacity="0.3"/>
<rect x="241.8" y="344.7830978218554" width="7.199999999999999" height="0.5" fill="#44aa44" opacity="0.3"/>
<rect x="253.8" y="344.8304270351109" width="7.199999999999999" height="0.5" fill="#44aa44" opacity="0.3"/>
<rect x="265.8" y="344.78569438193824" width="7.199999999999999" height="0.5" fill="#44aa44" opacity="0.3"/>
<rect x="277.8" y="344.84819442636115" width="7.199999999999999" height="0.5" fill="#ff4444" opacity="0.3"/>
<rect x="289.8" y="344.826835756994" width="7.199999999999999" height="0.5" fill="#ff4444" opacity="0.3"/>
<rect x="301.8" y="344.8256601811357" width="7.199999999999999" height="0.5" fill="#44aa44" opacity="0.3"/>
<rect x="313.8" y="344.8847452983589" width="7.199999999999999" height="0.5" fill="#ff4444" opacity="0.3"/>
<rect x="325.8" y="344.85475575632205" width="7.199999999999999" height="0.5" fill="#ff4444" opacity="0.3"/>
<rect x="337.8" y="344.8775082230864" width="7.199999999999999" height="0.5" fill="#44aa44" opacity="0.3"/>
<rect x="349.8" y="344.8893436521585" width="7.199999999999999" height="0.5" fill="#44aa44" opacity="0.3"/>
<rect x="361.8" y="344.85953932946916" width="7.199999999999999" height="0.5" fill="#44aa44" opacity="0.3"/>
<rect x="373.8" y="344.8728649455989" width="7.199999999999999" height="0.5" fill="#ff4444" opacity="0.3"/>
<rect x="385.8" y="344.8290043062771" width="7.199999999999999" height="0.5" fill="#ff4444" opacity="0.3"/>
<rect x="397.8" y="344.8188022676043" width="7.199999999999999" height="0.5" fill="#ff4444" opacity="0.3"/>
<rect x="409.8" y="344.82043696646053" width="7.199999999999999" height="0.5" fill="#ff4444" opacity="0.3"/>
<rect x="421.8" y="344.79959179374583" width="7.199999999999999" height="0.5" fill="#44aa44" opacity="0.3"/>
<rect x="433.8" y="344.8695529503442" width="7.199999999999999" height="0.5" fill="#ff4444" opacity="0.3"/>
<rect x="445.8" y="344.7489184553488" width="7.199999999999999" height="0.5" fill="#ff4444" opacity="0.3"/>
<rect x="457.8" y="344.7752129150191" width="7.199999999999999" height="0.5" fill="#44aa44" opacity="0.3"/>
<rect x="469.8" y="344.8461510527909" width="7.199999999999999" height="0.5" fill="#ff4444" opacity="0.3"/>
<rect x="481.8" y="344.83651281367025" width="7.199999999999999" height="0.5" fill="#ff4444" opacity="0.3"/>
<rect x="493.8" y="344.76522706250773" width="7.199999999999999" height="0.5" fill="#ff4444" opacity="0.3"/>
<rect x="505.8" y="344.83788669344534" width="7.199999999999999" height="0.5" fill="#44aa44" opacity="0.3"/>
<rect x="517.8" y="344.78120637467293" width="7.199999999999999" height="0.5" fill="#44aa44" opacity="0.3"/>
<rect x="529.8" y="344.78838573245645" width="7.199999999999999" height="0.5" fill="#ff4444" opacity="0.3"/>
<rect x="541.8" y="344.84682897886404" width="7.199999999999999" height="0.5" fill="#44aa44" opacity="0.3"/>
<rect x="553.8" y="344.8964988761809" width="7.199999999999999" height="0.5" fill="#44aa44" opacity="0.3"/>
<rect x="565.8" y="344.88916788277777" width="7.199999999999999" height="0.5" fill="#44aa44" opacity="0.3"/>
<rect x="577.8" y="344.888682154489" width="7.199999999999999" height="0.5" fill="#ff4444" opacity="0.3"/>
<rect x="589.8" y="344.8230730710195" width="7.199999999999999" height="0.5" fill="#44aa44" opacity="0.3"/>
<rect x="601.8" y="344.7925549123835" width="7.199999999999999" height="0.5" fill="#ff4444" opacity="0.3"/>
<rect x="613.8" y="344.8571415094553" width="7.199999999999999" height="0.5" fill="#ff4444" opacity="0.3"/>
<rect x="625.8" y="344.8772681939321" width="7.199999999999999" height="0.5" fill="#ff4444" opacity="0.3"/>
<rect x="637.8" y="344.89736362082664" width="7.199999999999999" height="0.5" fill="#ff4444" opacity="0.3"/>
<rect x="649.8" y="344.47889539743005" width="7.199999999999999" height="0.5211046025699488" fill="#ff4444" opacity="0.3"/>
<rect x="661.8" y="344.52051188773504" width="7.199999999999999" height="0.5" fill="#ff4444" opacity="0.3"/>
<rect x="673.8" y="344.45568991380014" width="7.199999999999999" height="0.5443100861998573" fill="#44aa44" opacity="0.3"/>
<rect x="685.8" y="344.58902676327494" width="7.199999999999999" height="0.5" fill="#44aa44" opacity="0.3"/>
<rect x="697.8" y="344.68769372027907" width="7.199999999999999" height="0.5" fill="#ff4444" opacity="0.3"/>
<rect x="709.8" y="344.7694086000835" width="7.199999999999999" height="0.5" fill="#44aa44" opacity="0.3"/>
<rect x="721.8" y="344.8188607120138" width="7.199999999999999" height="0.5" fill="#44aa44" opacity="0.3"/>
<rect x="733.8" y="344.7930912343401" width="7.199999999999999" height="0.5" fill="#44aa44" opacity="0.3"/>
<rect x="745.8" y="344.88598905936163" width="7.199999999999999" height="0.5" fill="#ff4444" opacity="0.3"/>
<rect x="757.8" y="344.729369381914" width="7.199999999999999" height="0.5" fill="#ff4444" opacity="0.3"/>
<rect x="769.8" y="300.0" width="7.199999999999999" height="45.0" fill="#ff4444" opacity="0.3"/>
<polyline points="66.0,213.90 78.0,208.60 90.0,206.78 102.0,209.31 114.0,213.49 126.0,205.36 138.0,205.24 150.0,211.40 162.0,201.16 174.0,178.58 186.0,166.64 198.0,167.58 210.0,170.38 222.0,188.16 234.0,201.27 246.0,220.14 258.0,238.02 270.0,252.91 282.0,258.63 294.0,259.47 306.0,268.92 318.0,273.51 330.0,273.61 342.0,276.79 354.0,278.91 366.0,283.29 378.0,284.65 390.0,280.56 402.0,273.78 414.0,268.48 426.0,264.80 438.0,263.90 450.0,256.43 462.0,251.93 474.0,248.61 486.0,246.40 498.0,241.96 510.0,242.43 522.0,247.12 534.0,248.83 546.0,253.88 558.0,256.62 570.0,263.90 582.0,263.61 594.0,261.70 606.0,255.13 618.0,249.65 630.0,245.22 642.0,228.39 654.0,201.88 666.0,167.36 678.0,144.50 690.0,141.27 702.0,139.43 714.0,141.64 726.0,144.98 738.0,158.28 750.0,151.55 762.0,129.91 774.0,96.61" fill="none" stroke="#ffd700" stroke-width="0.8" opacity="0.7"/>
<polyline points="66.0,213.90 78.0,211.01 90.0,209.58 102.0,210.45 114.0,212.52 126.0,208.26 138.0,207.67 150.0,210.59 162.0,205.15 174.0,192.11 186.0,183.14 198.0,180.65 210.0,179.80 222.0,187.79 234.0,195.00 246.0,206.44 258.0,218.68 270.0,230.32 282.0,237.54 294.0,241.84 306.0,250.20 318.0,256.11 330.0,259.32 342.0,263.66 354.0,267.20 366.0,271.72 378.0,274.56 390.0,274.17 402.0,271.63 414.0,269.13 426.0,267.00 438.0,266.11 450.0,261.64 462.0,258.23 474.0,255.28 486.0,252.86 498.0,249.26 510.0,248.19 522.0,249.70 534.0,250.17 546.0,252.68 558.0,254.39 570.0,258.77 582.0,259.54 594.0,259.24 606.0,256.10 618.0,252.94 630.0,249.92 642.0,239.89 654.0,223.34 666.0,200.61 678.0,182.09 690.0,173.50 702.0,166.63 714.0,162.89 726.0,160.85 738.0,165.22 750.0,160.29 762.0,146.89 774.0,125.64" fill="none" stroke="#ff6b6b" stroke-width="0.8" opacity="0.7"/>
<polyline points="66.0,213.90 78.0,212.38 90.0,211.50 102.0,211.78 114.0,212.74 126.0,210.48 138.0,209.96 150.0,211.27 162.0,208.36 174.0,201.22 186.0,195.66 198.0,193.16 210.0,191.52 222.0,194.59 234.0,197.72 246.0,203.45 258.0,210.15 270.0,217.06 282.0,222.11 294.0,225.83 306.0,231.73 318.0,236.58 330.0,240.13 342.0,244.23 354.0,247.93 366.0,252.13 378.0,255.49 390.0,257.10 402.0,257.40 414.0,257.44 426.0,257.44 438.0,257.88 450.0,256.33 462.0,255.05 474.0,253.80 486.0,252.68 498.0,250.81 510.0,250.10 522.0,250.71 534.0,250.86 546.0,252.11 558.0,253.06 570.0,255.48 582.0,256.20 594.0,256.36 606.0,254.99 618.0,253.44 630.0,251.81 642.0,246.37 654.0,237.09 666.0,223.87 678.0,211.96 690.0,204.61 702.0,198.05 714.0,193.10 726.0,189.15 738.0,188.75 750.0,183.92 762.0,174.66 774.0,160.88" fill="none" stroke="#4ecdc4" stroke-width="0.8" opacity="0.7"/>
<line x1="66.0" y1="197.98960138648178" x2="66.0" y2="241.9757365684576" stroke="#ff4444" stroke-width="0.5" opacity="0.6"/>
<rect x="63.0" y="213.89948006932417" width="6.0" height="28.07625649913342" fill="#ff4444" opacity="0.85"/>
<line x1="78.0" y1="191.90641247833622" x2="78.0" y2="236.82842287694973" stroke="#ff4444" stroke-width="0.5" opacity="0.6"/>
<rect x="75.0" y="197.98960138648178" width="6.0" height="28.54419410745237" fill="#ff4444" opacity="0.85"/>
<line x1="90.0" y1="174.59272097053724" x2="90.0" y2="217.1750433275563" stroke="#ff4444" stroke-width="0.5" opacity="0.6"/>
<rect x="87.0" y="203.13691507798964" width="6.0" height="14.038128249566654" fill="#ff4444" opacity="0.85"/>
<line x1="102.0" y1="186.2911611785095" x2="102.0" y2="235.89254766031195" stroke="#44aa44" stroke-width="0.5" opacity="0.6"/>
<rect x="99.0" y="203.13691507798964" width="6.0" height="11.230502599653363" fill="#44aa44" opacity="0.85"/>
<line x1="114.0" y1="201.7331022530329" x2="114.0" y2="227.46967071057193" stroke="#ff4444" stroke-width="0.5" opacity="0.6"/>
<rect x="111.0" y="221.8544194107453" width="6.0" height="5.615251299826639" fill="#ff4444" opacity="0.85"/>
<line x1="126.0" y1="178.80415944540735" x2="126.0" y2="209.68804159445406" stroke="#ff4444" stroke-width="0.5" opacity="0.6"/>
<rect x="123.0" y="189.09878682842287" width="6.0" height="16.377816291161167" fill="#ff4444" opacity="0.85"/>
<line x1="138.0" y1="179.27209705372624" x2="138.0" y2="208.75216637781628" stroke="#44aa44" stroke-width="0.5" opacity="0.6"/>
<rect x="135.0" y="196.11785095320624" width="6.0" height="8.890814558058906" fill="#44aa44" opacity="0.85"/>
<line x1="150.0" y1="218.11091854419416" x2="150.0" y2="246.18717504332758" stroke="#ff4444" stroke-width="0.5" opacity="0.6"/>
<rect x="147.0" y="223.7261698440208" width="6.0" height="0.5" fill="#ff4444" opacity="0.85"/>
<line x1="162.0" y1="180.67590987868286" x2="162.0" y2="222.79029462738305" stroke="#ff4444" stroke-width="0.5" opacity="0.6"/>
<rect x="159.0" y="180.67590987868286" width="6.0" height="31.819757365684552" fill="#ff4444" opacity="0.85"/>
<line x1="174.0" y1="133.4142114384749" x2="174.0" y2="164.76603119584058" stroke="#ff4444" stroke-width="0.5" opacity="0.6"/>
<rect x="171.0" y="133.4142114384749" width="6.0" height="27.60831889081456" fill="#ff4444" opacity="0.85"/>
<line x1="186.0" y1="110.01733102253036" x2="186.0" y2="156.81109185441943" stroke="#44aa44" stroke-width="0.5" opacity="0.6"/>
<rect x="183.0" y="128.26689774696712" width="6.0" height="14.506065857885574" fill="#44aa44" opacity="0.85"/>
<line x1="198.0" y1="136.68977469670716" x2="198.0" y2="171.3171577123051" stroke="#44aa44" stroke-width="0.5" opacity="0.6"/>
<rect x="195.0" y="146.98440207972268" width="6.0" height="22.46100519930681" fill="#44aa44" opacity="0.85"/>
<line x1="210.0" y1="158.21490467937608" x2="210.0" y2="193.3102253032929" stroke="#44aa44" stroke-width="0.5" opacity="0.6"/>
<rect x="207.0" y="159.6187175043328" width="6.0" height="16.377816291161167" fill="#44aa44" opacity="0.85"/>
<line x1="222.0" y1="164.2980935875217" x2="222.0" y2="223.7261698440208" stroke="#44aa44" stroke-width="0.5" opacity="0.6"/>
<rect x="219.0" y="169.91334488734833" width="6.0" height="53.81282495667247" fill="#44aa44" opacity="0.85"/>
<line x1="234.0" y1="221.38648180242632" x2="234.0" y2="239.63604852686308" stroke="#ff4444" stroke-width="0.5" opacity="0.6"/>
<rect x="231.0" y="227.46967071057193" width="6.0" height="0.5" fill="#ff4444" opacity="0.85"/>
<line x1="246.0" y1="240.10398613518197" x2="246.0" y2="261.62911611785097" stroke="#44aa44" stroke-width="0.5" opacity="0.6"/>
<rect x="243.0" y="240.57192374350086" width="6.0" height="17.31369150779898" fill="#44aa44" opacity="0.85"/>
<line x1="258.0" y1="248.52686308492198" x2="258.0" y2="275.66724436741765" stroke="#44aa44" stroke-width="0.5" opacity="0.6"/>
<rect x="255.0" y="255.54592720970535" width="6.0" height="18.249566724436733" fill="#44aa44" opacity="0.85"/>
<line x1="270.0" y1="260.2253032928943" x2="270.0" y2="288.3015597920277" stroke="#44aa44" stroke-width="0.5" opacity="0.6"/>
<rect x="267.0" y="278.00693240901217" width="6.0" height="4.679376083188913" fill="#44aa44" opacity="0.85"/>
<line x1="282.0" y1="268.1802426343154" x2="282.0" y2="284.55805892547664" stroke="#ff4444" stroke-width="0.5" opacity="0.6"/>
<rect x="279.0" y="270.051993067591" width="6.0" height="3.275563258232239" fill="#ff4444" opacity="0.85"/>
<line x1="294.0" y1="249.46273830155982" x2="294.0" y2="269.1161178509533" stroke="#ff4444" stroke-width="0.5" opacity="0.6"/>
<rect x="291.0" y="261.1611785095321" width="6.0" height="7.954939341421209" fill="#ff4444" opacity="0.85"/>
<line x1="306.0" y1="261.1611785095321" x2="306.0" y2="290.1733102253033" stroke="#44aa44" stroke-width="0.5" opacity="0.6"/>
<rect x="303.0" y="262.56499133448875" width="6.0" height="25.268630849220074" fill="#44aa44" opacity="0.85"/>
<line x1="318.0" y1="278.00693240901217" x2="318.0" y2="300.0" stroke="#ff4444" stroke-width="0.5" opacity="0.6"/>
<rect x="315.0" y="282.6863084922011" width="6.0" height="13.570190641247791" fill="#ff4444" opacity="0.85"/>
<line x1="330.0" y1="269.5840554592721" x2="330.0" y2="289.23743500866556" stroke="#ff4444" stroke-width="0.5" opacity="0.6"/>
<rect x="327.0" y="273.7954939341421" width="6.0" height="9.358752166377826" fill="#ff4444" opacity="0.85"/>
<line x1="342.0" y1="267.7123050259965" x2="342.0" y2="287.36568457539" stroke="#44aa44" stroke-width="0.5" opacity="0.6"/>
<rect x="339.0" y="275.66724436741765" width="6.0" height="7.487001733102261" fill="#44aa44" opacity="0.85"/>
<line x1="354.0" y1="269.1161178509533" x2="354.0" y2="285.96187175043326" stroke="#44aa44" stroke-width="0.5" opacity="0.6"/>
<rect x="351.0" y="270.051993067591" width="6.0" height="13.1022530329289" fill="#44aa44" opacity="0.85"/>
<line x1="366.0" y1="274.26343154246103" x2="366.0" y2="297.66031195840554" stroke="#44aa44" stroke-width="0.5" opacity="0.6"/>
<rect x="363.0" y="285.02599653379554" width="6.0" height="7.019064124783313" fill="#44aa44" opacity="0.85"/>
<line x1="378.0" y1="280.81455805892546" x2="378.0" y2="299.0641247833622" stroke="#ff4444" stroke-width="0.5" opacity="0.6"/>
<rect x="375.0" y="287.36568457539" width="6.0" height="7.019064124783313" fill="#ff4444" opacity="0.85"/>
<line x1="390.0" y1="269.1161178509533" x2="390.0" y2="294.8526863084922" stroke="#ff4444" stroke-width="0.5" opacity="0.6"/>
<rect x="387.0" y="272.39168110918547" width="6.0" height="17.31369150779898" fill="#ff4444" opacity="0.85"/>
<line x1="402.0" y1="257.88561525129984" x2="402.0" y2="271.9237435008665" stroke="#ff4444" stroke-width="0.5" opacity="0.6"/>
<rect x="399.0" y="260.2253032928943" width="6.0" height="3.7435008665510736" fill="#ff4444" opacity="0.85"/>
<line x1="414.0" y1="249.46273830155982" x2="414.0" y2="265.840554592721" stroke="#ff4444" stroke-width="0.5" opacity="0.6"/>
<rect x="411.0" y="257.88561525129984" width="6.0" height="3.7435008665511305" fill="#ff4444" opacity="0.85"/>
<line x1="426.0" y1="241.0398613518198" x2="426.0" y2="263.03292894280764" stroke="#44aa44" stroke-width="0.5" opacity="0.6"/>
<rect x="423.0" y="254.6100519930676" width="6.0" height="2.807625649913348" fill="#44aa44" opacity="0.85"/>
<line x1="438.0" y1="251.80242634315422" x2="438.0" y2="269.5840554592721" stroke="#ff4444" stroke-width="0.5" opacity="0.6"/>
<rect x="435.0" y="262.09705372616986" width="6.0" height="6.551126516464478" fill="#ff4444" opacity="0.85"/>
<line x1="450.0" y1="231.68110918544195" x2="450.0" y2="263.96880415944537" stroke="#ff4444" stroke-width="0.5" opacity="0.6"/>
<rect x="447.0" y="241.5077989601387" width="6.0" height="15.909878682842248" fill="#ff4444" opacity="0.85"/>
<line x1="462.0" y1="218.57885615251303" x2="462.0" y2="248.99480069324093" stroke="#44aa44" stroke-width="0.5" opacity="0.6"/>
<rect x="459.0" y="226.53379549393415" width="6.0" height="16.377816291161167" fill="#44aa44" opacity="0.85"/>
<line x1="474.0" y1="238.23223570190646" x2="474.0" y2="257.41767764298095" stroke="#ff4444" stroke-width="0.5" opacity="0.6"/>
<rect x="471.0" y="241.9757365684576" width="6.0" height="7.4870017331022325" fill="#ff4444" opacity="0.85"/>
<line x1="486.0" y1="231.68110918544195" x2="486.0" y2="253.67417677642985" stroke="#ff4444" stroke-width="0.5" opacity="0.6"/>
<rect x="483.0" y="241.9757365684576" width="6.0" height="7.019064124783341" fill="#ff4444" opacity="0.85"/>
<line x1="498.0" y1="223.7261698440208" x2="498.0" y2="253.20623916811095" stroke="#ff4444" stroke-width="0.5" opacity="0.6"/>
<rect x="495.0" y="233.08492201039857" width="6.0" height="15.909878682842361" fill="#ff4444" opacity="0.85"/>
<line x1="510.0" y1="227.93760831889082" x2="510.0" y2="244.315424610052" stroke="#44aa44" stroke-width="0.5" opacity="0.6"/>
<rect x="507.0" y="240.57192374350086" width="6.0" height="2.807625649913348" fill="#44aa44" opacity="0.85"/>
<line x1="522.0" y1="236.36048526863084" x2="522.0" y2="274.26343154246103" stroke="#44aa44" stroke-width="0.5" opacity="0.6"/>
<rect x="519.0" y="248.52686308492198" width="6.0" height="7.954939341421181" fill="#44aa44" opacity="0.85"/>
<line x1="534.0" y1="221.8544194107453" x2="534.0" y2="257.88561525129984" stroke="#ff4444" stroke-width="0.5" opacity="0.6"/>
<rect x="531.0" y="252.27036395147312" width="6.0" height="5.615251299826724" fill="#ff4444" opacity="0.85"/>
<line x1="546.0" y1="252.7383015597921" x2="546.0" y2="274.73136915077987" stroke="#44aa44" stroke-width="0.5" opacity="0.6"/>
<rect x="543.0" y="254.6100519930676" width="6.0" height="9.35875216637777" fill="#44aa44" opacity="0.85"/>
<line x1="558.0" y1="250.3986135181976" x2="558.0" y2="265.3726169844021" stroke="#44aa44" stroke-width="0.5" opacity="0.6"/>
<rect x="555.0" y="257.88561525129984" width="6.0" height="4.211438474870022" fill="#44aa44" opacity="0.85"/>
<line x1="570.0" y1="259.75736568457535" x2="570.0" y2="282.21837088388213" stroke="#44aa44" stroke-width="0.5" opacity="0.6"/>
<rect x="567.0" y="264.9046793760832" width="6.0" height="13.570190641247791" fill="#44aa44" opacity="0.85"/>
<line x1="582.0" y1="260.2253032928943" x2="582.0" y2="282.21837088388213" stroke="#ff4444" stroke-width="0.5" opacity="0.6"/>
<rect x="579.0" y="263.03292894280764" width="6.0" height="15.441941074523356" fill="#ff4444" opacity="0.85"/>
<line x1="594.0" y1="236.82842287694973" x2="594.0" y2="265.840554592721" stroke="#44aa44" stroke-width="0.5" opacity="0.6"/>
<rect x="591.0" y="251.80242634315422" width="6.0" height="6.083188908145615" fill="#44aa44" opacity="0.85"/>
<line x1="606.0" y1="231.68110918544195" x2="606.0" y2="256.0138648180242" stroke="#ff4444" stroke-width="0.5" opacity="0.6"/>
<rect x="603.0" y="241.9757365684576" width="6.0" height="8.422876949740015" fill="#ff4444" opacity="0.85"/>
<line x1="618.0" y1="234.48873483535533" x2="618.0" y2="246.65511265164648" stroke="#ff4444" stroke-width="0.5" opacity="0.6"/>
<rect x="615.0" y="238.70017331022535" width="6.0" height="5.1473136915077475" fill="#ff4444" opacity="0.85"/>
<line x1="630.0" y1="232.6169844020797" x2="630.0" y2="246.18717504332758" stroke="#ff4444" stroke-width="0.5" opacity="0.6"/>
<rect x="627.0" y="236.36048526863084" width="6.0" height="6.551126516464478" fill="#ff4444" opacity="0.85"/>
<line x1="642.0" y1="194.71403812824963" x2="642.0" y2="194.71403812824963" stroke="#ff4444" stroke-width="0.5" opacity="0.6"/>
<rect x="639.0" y="194.71403812824963" width="6.0" height="0.5" fill="#ff4444" opacity="0.85"/>
<line x1="654.0" y1="148.85615251299828" x2="654.0" y2="189.09878682842287" stroke="#ff4444" stroke-width="0.5" opacity="0.6"/>
<rect x="651.0" y="148.85615251299828" width="6.0" height="20.121317157712326" fill="#ff4444" opacity="0.85"/>
<line x1="666.0" y1="98.3188908145581" x2="666.0" y2="141.8370883882149" stroke="#ff4444" stroke-width="0.5" opacity="0.6"/>
<rect x="663.0" y="98.3188908145581" width="6.0" height="43.05025996533794" fill="#ff4444" opacity="0.85"/>
<line x1="678.0" y1="68.37088388214906" x2="678.0" y2="111.8890814558059" stroke="#44aa44" stroke-width="0.5" opacity="0.6"/>
<rect x="675.0" y="91.7677642980936" width="6.0" height="7.01906412478337" fill="#44aa44" opacity="0.85"/>
<line x1="690.0" y1="81.47313691507804" x2="690.0" y2="139.02946273830156" stroke="#44aa44" stroke-width="0.5" opacity="0.6"/>
<rect x="687.0" y="110.01733102253036" width="6.0" height="24.800693240901182" fill="#44aa44" opacity="0.85"/>
<line x1="702.0" y1="91.7677642980936" x2="702.0" y2="148.38821490467944" stroke="#ff4444" stroke-width="0.5" opacity="0.6"/>
<rect x="699.0" y="135.75389948006938" width="6.0" height="12.634315424610065" fill="#ff4444" opacity="0.85"/>
<line x1="714.0" y1="133.88214904679378" x2="714.0" y2="164.2980935875217" stroke="#44aa44" stroke-width="0.5" opacity="0.6"/>
<rect x="711.0" y="137.15771230502605" width="6.0" height="8.890814558058878" fill="#44aa44" opacity="0.85"/>
<line x1="726.0" y1="132.47833622183714" x2="726.0" y2="161.02253032928945" stroke="#44aa44" stroke-width="0.5" opacity="0.6"/>
<rect x="723.0" y="150.25996533795495" width="6.0" height="1.4038128249567308" fill="#44aa44" opacity="0.85"/>
<line x1="738.0" y1="142.3050259965338" x2="738.0" y2="186.75909878682847" stroke="#44aa44" stroke-width="0.5" opacity="0.6"/>
<rect x="735.0" y="151.1958405545927" width="6.0" height="33.691507798960174" fill="#44aa44" opacity="0.85"/>
<line x1="750.0" y1="138.09358752166378" x2="750.0" y2="146.98440207972268" stroke="#ff4444" stroke-width="0.5" opacity="0.6"/>
<rect x="747.0" y="138.09358752166378" width="6.0" height="8.890814558058906" fill="#ff4444" opacity="0.85"/>
<line x1="762.0" y1="86.62045060658582" x2="762.0" y2="130.13864818024265" stroke="#ff4444" stroke-width="0.5" opacity="0.6"/>
<rect x="759.0" y="86.62045060658582" width="6.0" height="27.608318890814544" fill="#ff4444" opacity="0.85"/>
<line x1="774.0" y1="30.0" x2="774.0" y2="62.755632582322406" stroke="#ff4444" stroke-width="0.5" opacity="0.6"/>
<rect x="771.0" y="30.0" width="6.0" height="26.204506065857913" fill="#ff4444" opacity="0.85"/>
<rect x="146.0" y="242.18717504332758" width="8" height="8" fill="#4caf50" opacity="0.85" rx="1"/>
<text x="150.0" y="240.18717504332758" text-anchor="middle" font-family="sans-serif" font-size="8" fill="#4caf50">前低</text>
<rect x="170.0" y="129.4142114384749" width="8" height="8" fill="#ff9800" opacity="0.85" rx="1"/>
<text x="174.0" y="127.4142114384749" text-anchor="middle" font-family="sans-serif" font-size="8" fill="#ff9800">前高</text>
<rect x="182.0" y="106.01733102253036" width="8" height="8" fill="#ff9800" opacity="0.85" rx="1"/>
<text x="186.0" y="104.01733102253036" text-anchor="middle" font-family="sans-serif" font-size="8" fill="#ff9800">前高</text>
<rect x="242.0" y="257.62911611785097" width="8" height="8" fill="#4caf50" opacity="0.85" rx="1"/>
<text x="246.0" y="255.62911611785097" text-anchor="middle" font-family="sans-serif" font-size="8" fill="#4caf50">前低</text>
<rect x="254.0" y="271.66724436741765" width="8" height="8" fill="#4caf50" opacity="0.85" rx="1"/>
<text x="258.0" y="269.66724436741765" text-anchor="middle" font-family="sans-serif" font-size="8" fill="#4caf50">前低</text>
<rect x="266.0" y="284.3015597920277" width="8" height="8" fill="#4caf50" opacity="0.85" rx="1"/>
<text x="270.0" y="282.3015597920277" text-anchor="middle" font-family="sans-serif" font-size="8" fill="#4caf50">前低</text>
<rect x="302.0" y="286.1733102253033" width="8" height="8" fill="#4caf50" opacity="0.85" rx="1"/>
<text x="306.0" y="284.1733102253033" text-anchor="middle" font-family="sans-serif" font-size="8" fill="#4caf50">前低</text>
<rect x="314.0" y="296.0" width="8" height="8" fill="#4caf50" opacity="0.85" rx="1"/>
<text x="318.0" y="294.0" text-anchor="middle" font-family="sans-serif" font-size="8" fill="#4caf50">前低</text>
<rect x="410.0" y="245.46273830155982" width="8" height="8" fill="#ff9800" opacity="0.85" rx="1"/>
<text x="414.0" y="243.46273830155982" text-anchor="middle" font-family="sans-serif" font-size="8" fill="#ff9800">前高</text>
<rect x="422.0" y="237.0398613518198" width="8" height="8" fill="#ff9800" opacity="0.85" rx="1"/>
<text x="426.0" y="235.0398613518198" text-anchor="middle" font-family="sans-serif" font-size="8" fill="#ff9800">前高</text>
<rect x="446.0" y="227.68110918544195" width="8" height="8" fill="#ff9800" opacity="0.85" rx="1"/>
<text x="450.0" y="225.68110918544195" text-anchor="middle" font-family="sans-serif" font-size="8" fill="#ff9800">前高</text>
<rect x="458.0" y="214.57885615251303" width="8" height="8" fill="#ff9800" opacity="0.85" rx="1"/>
<text x="462.0" y="212.57885615251303" text-anchor="middle" font-family="sans-serif" font-size="8" fill="#ff9800">前高</text>
<rect x="518.0" y="270.26343154246103" width="8" height="8" fill="#4caf50" opacity="0.85" rx="1"/>
<text x="522.0" y="268.26343154246103" text-anchor="middle" font-family="sans-serif" font-size="8" fill="#4caf50">前低</text>
<rect x="542.0" y="270.73136915077987" width="8" height="8" fill="#4caf50" opacity="0.85" rx="1"/>
<text x="546.0" y="268.73136915077987" text-anchor="middle" font-family="sans-serif" font-size="8" fill="#4caf50">前低</text>
<rect x="566.0" y="278.21837088388213" width="8" height="8" fill="#4caf50" opacity="0.85" rx="1"/>
<text x="570.0" y="276.21837088388213" text-anchor="middle" font-family="sans-serif" font-size="8" fill="#4caf50">前低</text>
<rect x="578.0" y="278.21837088388213" width="8" height="8" fill="#4caf50" opacity="0.85" rx="1"/>
<text x="582.0" y="276.21837088388213" text-anchor="middle" font-family="sans-serif" font-size="8" fill="#4caf50">前低</text>
<rect x="638.0" y="190.71403812824963" width="8" height="8" fill="#ff9800" opacity="0.85" rx="1"/>
<text x="642.0" y="188.71403812824963" text-anchor="middle" font-family="sans-serif" font-size="8" fill="#ff9800">前高</text>
<rect x="650.0" y="144.85615251299828" width="8" height="8" fill="#ff9800" opacity="0.85" rx="1"/>
<text x="654.0" y="142.85615251299828" text-anchor="middle" font-family="sans-serif" font-size="8" fill="#ff9800">前高</text>
<rect x="650.0" y="124.73483535528601" width="8" height="8" fill="#ff9800" opacity="0.85" rx="1"/>
<text x="654.0" y="122.73483535528601" text-anchor="middle" font-family="sans-serif" font-size="8" fill="#ff9800">量</text>
<rect x="650.0" y="144.85615251299828" width="8" height="8" fill="#2196f3" opacity="0.85" rx="1"/>
<text x="654.0" y="142.85615251299828" text-anchor="middle" font-family="sans-serif" font-size="8" fill="#2196f3">突</text>
<rect x="662.0" y="94.3188908145581" width="8" height="8" fill="#ff9800" opacity="0.85" rx="1"/>
<text x="666.0" y="92.3188908145581" text-anchor="middle" font-family="sans-serif" font-size="8" fill="#ff9800">前高</text>
<rect x="662.0" y="94.3188908145581" width="8" height="8" fill="#2196f3" opacity="0.85" rx="1"/>
<text x="666.0" y="92.3188908145581" text-anchor="middle" font-family="sans-serif" font-size="8" fill="#2196f3">突</text>
<rect x="674.0" y="64.37088388214906" width="8" height="8" fill="#ff9800" opacity="0.85" rx="1"/>
<text x="678.0" y="62.37088388214906" text-anchor="middle" font-family="sans-serif" font-size="8" fill="#ff9800">前高</text>
<rect x="770.0" y="26.0" width="8" height="8" fill="#ff9800" opacity="0.85" rx="1"/>
<text x="774.0" y="24.0" text-anchor="middle" font-family="sans-serif" font-size="8" fill="#ff9800">前高</text>
<rect x="770.0" y="9.622183708838755" width="8" height="8" fill="#ff9800" opacity="0.85" rx="1"/>
<text x="774.0" y="7.6221837088387545" text-anchor="middle" font-family="sans-serif" font-size="8" fill="#ff9800">量</text>
<rect x="770.0" y="26.0" width="8" height="8" fill="#2196f3" opacity="0.85" rx="1"/>
<text x="774.0" y="24.0" text-anchor="middle" font-family="sans-serif" font-size="8" fill="#2196f3">突</text>
<text x="66.0" y="359" text-anchor="middle" font-family="sans-serif" font-size="8" fill="#666666" transform="rotate(-40,66.0,359)">02/26</text>
<text x="138.0" y="359" text-anchor="middle" font-family="sans-serif" font-size="8" fill="#666666" transform="rotate(-40,138.0,359)">03/06</text>
<text x="210.0" y="359" text-anchor="middle" font-family="sans-serif" font-size="8" fill="#666666" transform="rotate(-40,210.0,359)">03/16</text>
<text x="282.0" y="359" text-anchor="middle" font-family="sans-serif" font-size="8" fill="#666666" transform="rotate(-40,282.0,359)">03/24</text>
<text x="354.0" y="359" text-anchor="middle" font-family="sans-serif" font-size="8" fill="#666666" transform="rotate(-40,354.0,359)">04/01</text>
<text x="426.0" y="359" text-anchor="middle" font-family="sans-serif" font-size="8" fill="#666666" transform="rotate(-40,426.0,359)">04/10</text>
<text x="498.0" y="359" text-anchor="middle" font-family="sans-serif" font-size="8" fill="#666666" transform="rotate(-40,498.0,359)">04/20</text>
<text x="570.0" y="359" text-anchor="middle" font-family="sans-serif" font-size="8" fill="#666666" transform="rotate(-40,570.0,359)">04/28</text>
<text x="642.0" y="359" text-anchor="middle" font-family="sans-serif" font-size="8" fill="#666666" transform="rotate(-40,642.0,359)">05/11</text>
<text x="714.0" y="359" text-anchor="middle" font-family="sans-serif" font-size="8" fill="#666666" transform="rotate(-40,714.0,359)">05/19</text>
<text x="774.0" y="359" text-anchor="middle" font-family="sans-serif" font-size="8" fill="#666666" transform="rotate(-40,774.0,359)">05/26</text>
<text x="400.0" y="396" text-anchor="middle" font-family="sans-serif" font-size="9" fill="#555555">数据截至: 2026-05-26 20:18  |  最新K线: 20260526</text>
<rect x="50" y="373" width="8" height="8" fill="#ffd700" opacity="0.8" rx="1"/>
<text x="61" y="380" font-family="sans-serif" font-size="9" fill="#888888">EMA5</text>
<rect x="150" y="373" width="8" height="8" fill="#ff6b6b" opacity="0.8" rx="1"/>
<text x="161" y="380" font-family="sans-serif" font-size="9" fill="#888888">EMA10</text>
<rect x="250" y="373" width="8" height="8" fill="#4ecdc4" opacity="0.8" rx="1"/>
<text x="261" y="380" font-family="sans-serif" font-size="9" fill="#888888">EMA20</text>
<rect x="350" y="373" width="8" height="8" fill="#2196f3" opacity="0.8" rx="1"/>
<text x="361" y="380" font-family="sans-serif" font-size="9" fill="#888888">突破</text>
<rect x="450" y="373" width="8" height="8" fill="#ff9800" opacity="0.8" rx="1"/>
<text x="461" y="380" font-family="sans-serif" font-size="9" fill="#888888">前高/量</text>
<rect x="550" y="373" width="8" height="8" fill="#4caf50" opacity="0.8" rx="1"/>
<text x="561" y="380" font-family="sans-serif" font-size="9" fill="#888888">前低</text>
</svg>