<svg xmlns="http://www.w3.org/2000/svg" width="800" height="400" viewBox="0 0 800 400">
<rect width="800" height="400" fill="#1a1a2e"/>
<text x="400.0" y="20" text-anchor="middle" font-family="sans-serif" font-size="14" fill="#ffffff" font-weight="bold">德明利(001309) K线图</text>
<line x1="60" y1="30.0" x2="780" y2="30.0" stroke="#2a2a4e" stroke-width="0.5"/>
<text x="55" y="33.0" text-anchor="end" font-family="sans-serif" font-size="8" fill="#666666">759.99</text>
<line x1="60" y1="83.99999999999997" x2="780" y2="83.99999999999997" stroke="#2a2a4e" stroke-width="0.5"/>
<text x="55" y="86.99999999999997" text-anchor="end" font-family="sans-serif" font-size="8" fill="#666666">653.39</text>
<line x1="60" y1="138.0" x2="780" y2="138.0" stroke="#2a2a4e" stroke-width="0.5"/>
<text x="55" y="141.0" text-anchor="end" font-family="sans-serif" font-size="8" fill="#666666">546.79</text>
<line x1="60" y1="192.0" x2="780" y2="192.0" stroke="#2a2a4e" stroke-width="0.5"/>
<text x="55" y="195.0" text-anchor="end" font-family="sans-serif" font-size="8" fill="#666666">440.20</text>
<line x1="60" y1="245.99999999999997" x2="780" y2="245.99999999999997" stroke="#2a2a4e" stroke-width="0.5"/>
<text x="55" y="248.99999999999997" text-anchor="end" font-family="sans-serif" font-size="8" fill="#666666">333.60</text>
<line x1="60" y1="300.0" x2="780" y2="300.0" stroke="#2a2a4e" stroke-width="0.5"/>
<text x="55" y="303.0" text-anchor="end" font-family="sans-serif" font-size="8" fill="#666666">227.00</text>
<line x1="60" y1="300" x2="780" y2="300" stroke="#2a2a4e" stroke-width="0.5"/>
<line x1="60" y1="345" x2="780" y2="345" stroke="#2a2a4e" stroke-width="0.5"/>
<rect x="61.8" y="333.0249020420909" width="7.199999999999999" height="11.9750979579091" fill="#ff4444" opacity="0.3"/>
<rect x="73.8" y="331.88683698878793" width="7.199999999999999" height="13.113163011212066" fill="#ff4444" opacity="0.3"/>
<rect x="85.8" y="330.6550355624701" width="7.199999999999999" height="14.344964437529882" fill="#44aa44" opacity="0.3"/>
<rect x="97.8" y="329.7483646794801" width="7.199999999999999" height="15.251635320519881" fill="#44aa44" opacity="0.3"/>
<rect x="109.8" y="316.01323779553013" width="7.199999999999999" height="28.98676220446987" fill="#ff4444" opacity="0.3"/>
<rect x="121.8" y="315.3280763178658" width="7.199999999999999" height="29.671923682134207" fill="#44aa44" opacity="0.3"/>
<rect x="133.8" y="319.2062005961346" width="7.199999999999999" height="25.79379940386542" fill="#ff4444" opacity="0.3"/>
<rect x="145.8" y="317.6258797198856" width="7.199999999999999" height="27.374120280114425" fill="#ff4444" opacity="0.3"/>
<rect x="157.8" y="318.8285424235156" width="7.199999999999999" height="26.171457576484386" fill="#ff4444" opacity="0.3"/>
<rect x="169.8" y="312.72065546816907" width="7.199999999999999" height="32.27934453183093" fill="#ff4444" opacity="0.3"/>
<rect x="181.8" y="326.18614694171976" width="7.199999999999999" height="18.813853058280245" fill="#44aa44" opacity="0.3"/>
<rect x="193.8" y="312.36164827073407" width="7.199999999999999" height="32.638351729265935" fill="#ff4444" opacity="0.3"/>
<rect x="205.8" y="305.552111895645" width="7.199999999999999" height="39.447888104355" fill="#ff4444" opacity="0.3"/>
<rect x="217.8" y="316.2444201071212" width="7.199999999999999" height="28.755579892878814" fill="#ff4444" opacity="0.3"/>
<rect x="229.8" y="316.4831389594033" width="7.199999999999999" height="28.516861040596723" fill="#ff4444" opacity="0.3"/>
<rect x="241.8" y="316.0863675743888" width="7.199999999999999" height="28.913632425611183" fill="#44aa44" opacity="0.3"/>
<rect x="253.8" y="321.4733615229992" width="7.199999999999999" height="23.5266384770008" fill="#44aa44" opacity="0.3"/>
<rect x="265.8" y="323.5650782420434" width="7.199999999999999" height="21.4349217579566" fill="#ff4444" opacity="0.3"/>
<rect x="277.8" y="312.04666620464894" width="7.199999999999999" height="32.95333379535106" fill="#ff4444" opacity="0.3"/>
<rect x="289.8" y="315.04096034060694" width="7.199999999999999" height="29.959039659393056" fill="#ff4444" opacity="0.3"/>
<rect x="301.8" y="320.6233428474965" width="7.199999999999999" height="24.376657152503526" fill="#ff4444" opacity="0.3"/>
<rect x="313.8" y="324.5468982286339" width="7.199999999999999" height="20.453101771366107" fill="#ff4444" opacity="0.3"/>
<rect x="325.8" y="320.8496183333023" width="7.199999999999999" height="24.150381666697683" fill="#ff4444" opacity="0.3"/>
<rect x="337.8" y="313.7810854113294" width="7.199999999999999" height="31.2189145886706" fill="#44aa44" opacity="0.3"/>
<rect x="349.8" y="300.0" width="7.199999999999999" height="45.0" fill="#44aa44" opacity="0.3"/>
<rect x="361.8" y="316.891599612366" width="7.199999999999999" height="28.108400387633992" fill="#44aa44" opacity="0.3"/>
<rect x="373.8" y="327.99855830715825" width="7.199999999999999" height="17.00144169284175" fill="#44aa44" opacity="0.3"/>
<rect x="385.8" y="322.13730009022515" width="7.199999999999999" height="22.862699909774847" fill="#ff4444" opacity="0.3"/>
<rect x="397.8" y="316.07508276400074" width="7.199999999999999" height="28.92491723599926" fill="#ff4444" opacity="0.3"/>
<rect x="409.8" y="318.59685639188626" width="7.199999999999999" height="26.403143608113737" fill="#ff4444" opacity="0.3"/>
<rect x="421.8" y="310.5903745356022" width="7.199999999999999" height="34.40962546439778" fill="#ff4444" opacity="0.3"/>
<rect x="433.8" y="312.9827069289325" width="7.199999999999999" height="32.01729307106751" fill="#ff4444" opacity="0.3"/>
<rect x="445.8" y="314.8092550490938" width="7.199999999999999" height="30.190744950906208" fill="#ff4444" opacity="0.3"/>
<rect x="457.8" y="320.2583665676072" width="7.199999999999999" height="24.741633432392803" fill="#ff4444" opacity="0.3"/>
<rect x="469.8" y="320.2284915247457" width="7.199999999999999" height="24.77150847525428" fill="#ff4444" opacity="0.3"/>
<rect x="481.8" y="322.06689484416205" width="7.199999999999999" height="22.93310515583795" fill="#ff4444" opacity="0.3"/>
<rect x="493.8" y="324.681378145102" width="7.199999999999999" height="20.318621854898026" fill="#44aa44" opacity="0.3"/>
<rect x="505.8" y="328.2434803235595" width="7.199999999999999" height="16.75651967644052" fill="#44aa44" opacity="0.3"/>
<rect x="517.8" y="324.0123683023137" width="7.199999999999999" height="20.98763169768631" fill="#ff4444" opacity="0.3"/>
<rect x="529.8" y="313.51772279693677" width="7.199999999999999" height="31.482277203063234" fill="#44aa44" opacity="0.3"/>
<rect x="541.8" y="325.3585319556865" width="7.199999999999999" height="19.641468044313513" fill="#44aa44" opacity="0.3"/>
<rect x="553.8" y="328.0554282994856" width="7.199999999999999" height="16.944571700514416" fill="#44aa44" opacity="0.3"/>
<rect x="565.8" y="325.4064298052134" width="7.199999999999999" height="19.593570194786594" fill="#44aa44" opacity="0.3"/>
<rect x="577.8" y="318.95277015567416" width="7.199999999999999" height="26.04722984432584" fill="#ff4444" opacity="0.3"/>
<rect x="589.8" y="316.3258449697875" width="7.199999999999999" height="28.67415503021249" fill="#ff4444" opacity="0.3"/>
<rect x="601.8" y="333.3210968322759" width="7.199999999999999" height="11.678903167724116" fill="#ff4444" opacity="0.3"/>
<rect x="613.8" y="307.53014640968604" width="7.199999999999999" height="37.46985359031396" fill="#ff4444" opacity="0.3"/>
<rect x="625.8" y="322.6937122076222" width="7.199999999999999" height="22.306287792377816" fill="#44aa44" opacity="0.3"/>
<rect x="637.8" y="318.25623645737977" width="7.199999999999999" height="26.74376354262023" fill="#ff4444" opacity="0.3"/>
<rect x="649.8" y="322.7524000366761" width="7.199999999999999" height="22.24759996332392" fill="#44aa44" opacity="0.3"/>
<rect x="661.8" y="320.0007656215354" width="7.199999999999999" height="24.99923437846462" fill="#ff4444" opacity="0.3"/>
<rect x="673.8" y="316.73508787033916" width="7.199999999999999" height="28.264912129660843" fill="#ff4444" opacity="0.3"/>
<rect x="685.8" y="313.37300551145444" width="7.199999999999999" height="31.626994488545563" fill="#44aa44" opacity="0.3"/>
<rect x="697.8" y="320.2346813550991" width="7.199999999999999" height="24.7653186449009" fill="#ff4444" opacity="0.3"/>
<rect x="709.8" y="322.69384554527943" width="7.199999999999999" height="22.30615445472057" fill="#44aa44" opacity="0.3"/>
<rect x="721.8" y="325.96749688837644" width="7.199999999999999" height="19.032503111623555" fill="#44aa44" opacity="0.3"/>
<rect x="733.8" y="323.8495141323924" width="7.199999999999999" height="21.150485867607586" fill="#44aa44" opacity="0.3"/>
<rect x="745.8" y="325.4035126735797" width="7.199999999999999" height="19.596487326420288" fill="#ff4444" opacity="0.3"/>
<rect x="757.8" y="325.21165460015743" width="7.199999999999999" height="19.78834539984257" fill="#ff4444" opacity="0.3"/>
<rect x="769.8" y="324.7917891329151" width="7.199999999999999" height="20.208210867084915" fill="#44aa44" opacity="0.3"/>
<polyline points="66.0,285.07 78.0,285.16 90.0,286.80 102.0,290.91 114.0,289.79 126.0,288.28 138.0,284.74 150.0,280.88 162.0,275.80 174.0,271.77 186.0,269.95 198.0,264.25 210.0,255.05 222.0,248.59 234.0,240.90 246.0,240.68 258.0,242.80 270.0,246.00 282.0,243.29 294.0,237.17 306.0,232.47 318.0,228.83 330.0,223.29 342.0,223.01 354.0,224.19 366.0,226.98 378.0,230.21 390.0,227.94 402.0,223.88 414.0,218.93 426.0,208.76 438.0,196.20 450.0,184.60 462.0,176.76 474.0,168.91 486.0,164.19 498.0,160.83 510.0,158.66 522.0,155.45 534.0,158.43 546.0,161.23 558.0,163.39 570.0,163.44 582.0,158.99 594.0,155.70 606.0,144.65 618.0,130.66 630.0,124.51 642.0,113.40 654.0,109.58 666.0,96.59 678.0,80.87 690.0,72.01 702.0,62.22 714.0,61.75 726.0,61.98 738.0,68.86 750.0,70.43 762.0,67.93 774.0,72.32" fill="none" stroke="#ffd700" stroke-width="0.8" opacity="0.7"/>
<polyline points="66.0,285.07 78.0,285.11 90.0,286.02 102.0,288.41 114.0,288.25 126.0,287.71 138.0,285.88 150.0,283.56 162.0,280.31 174.0,277.29 186.0,275.29 198.0,271.21 210.0,264.93 222.0,259.61 234.0,253.41 246.0,251.02 258.0,250.29 270.0,250.67 282.0,248.35 294.0,244.09 306.0,240.27 318.0,236.86 330.0,232.38 342.0,230.57 354.0,229.84 366.0,230.34 378.0,231.49 390.0,230.02 402.0,227.43 414.0,224.08 426.0,217.60 438.0,209.14 450.0,200.46 462.0,193.30 474.0,186.01 486.0,180.33 498.0,175.56 510.0,171.70 522.0,167.58 534.0,167.00 546.0,166.97 558.0,167.10 570.0,166.45 582.0,163.48 594.0,160.87 606.0,153.90 618.0,144.59 630.0,138.70 642.0,130.06 654.0,124.95 666.0,115.07 678.0,103.13 690.0,94.25 702.0,84.87 714.0,80.49 726.0,77.21 738.0,78.20 750.0,77.35 762.0,74.73 774.0,75.89" fill="none" stroke="#ff6b6b" stroke-width="0.8" opacity="0.7"/>
<polyline points="66.0,285.07 78.0,285.09 90.0,285.57 102.0,286.86 114.0,286.93 126.0,286.77 138.0,285.90 150.0,284.68 162.0,282.87 174.0,281.05 186.0,279.64 198.0,277.09 210.0,273.24 222.0,269.66 234.0,265.46 246.0,263.06 258.0,261.53 270.0,260.66 282.0,258.49 294.0,255.30 306.0,252.23 318.0,249.30 330.0,245.77 342.0,243.55 354.0,241.93 366.0,241.04 378.0,240.62 390.0,238.98 402.0,236.77 414.0,234.13 426.0,229.78 438.0,224.19 450.0,218.21 462.0,212.77 474.0,207.09 486.0,202.11 498.0,197.54 510.0,193.42 522.0,189.19 534.0,186.83 546.0,184.93 558.0,183.29 570.0,181.41 582.0,178.42 594.0,175.63 606.0,170.58 618.0,164.11 630.0,159.17 642.0,152.69 654.0,147.86 666.0,140.50 678.0,131.83 690.0,124.44 702.0,116.65 714.0,111.33 726.0,106.68 738.0,104.39 750.0,101.45 762.0,97.78 774.0,96.19" fill="none" stroke="#4ecdc4" stroke-width="0.8" opacity="0.7"/>
<line x1="66.0" y1="285.01547871442244" x2="66.0" y2="290.2382783917147" stroke="#ff4444" stroke-width="0.5" opacity="0.6"/>
<rect x="63.0" y="285.0661363252594" width="6.0" height="2.7608397906152504" fill="#ff4444" opacity="0.85"/>
<line x1="78.0" y1="285.05600480309204" x2="78.0" y2="289.260586502561" stroke="#ff4444" stroke-width="0.5" opacity="0.6"/>
<rect x="75.0" y="285.3346216626954" width="6.0" height="1.7730163792941767" fill="#ff4444" opacity="0.85"/>
<line x1="90.0" y1="286.3224450740164" x2="90.0" y2="290.73978873900074" stroke="#44aa44" stroke-width="0.5" opacity="0.6"/>
<rect x="87.0" y="288.8097337661119" width="6.0" height="1.286703315259274" fill="#44aa44" opacity="0.85"/>
<line x1="102.0" y1="290.10656860353856" x2="102.0" y2="300.0" stroke="#44aa44" stroke-width="0.5" opacity="0.6"/>
<rect x="99.0" y="290.88163004934427" width="6.0" height="8.257190566427141" fill="#44aa44" opacity="0.85"/>
<line x1="114.0" y1="287.5534250173549" x2="114.0" y2="294.0831910542411" stroke="#ff4444" stroke-width="0.5" opacity="0.6"/>
<rect x="111.0" y="287.5534250173549" width="6.0" height="5.861085573838125" fill="#ff4444" opacity="0.85"/>
<line x1="126.0" y1="280.07129589673355" x2="126.0" y2="286.3224450740164" stroke="#44aa44" stroke-width="0.5" opacity="0.6"/>
<rect x="123.0" y="284.8027167489071" width="6.0" height="0.5" fill="#44aa44" opacity="0.85"/>
<line x1="138.0" y1="274.36724891649" x2="138.0" y2="285.273832529691" stroke="#ff4444" stroke-width="0.5" opacity="0.6"/>
<rect x="135.0" y="277.64986209872603" width="6.0" height="7.62397043096496" fill="#ff4444" opacity="0.85"/>
<line x1="150.0" y1="273.15146625640256" x2="150.0" y2="281.6112872661776" stroke="#ff4444" stroke-width="0.5" opacity="0.6"/>
<rect x="147.0" y="273.15146625640256" width="6.0" height="6.170096999943723" fill="#ff4444" opacity="0.85"/>
<line x1="162.0" y1="263.2276402934389" x2="162.0" y2="272.6448901480328" stroke="#ff4444" stroke-width="0.5" opacity="0.6"/>
<rect x="159.0" y="265.6490740914464" width="6.0" height="3.449783297998067" fill="#ff4444" opacity="0.85"/>
<line x1="174.0" y1="258.12641888215535" x2="174.0" y2="266.5659768475956" stroke="#ff4444" stroke-width="0.5" opacity="0.6"/>
<rect x="171.0" y="263.7088875963902" width="6.0" height="2.345447381751967" fill="#ff4444" opacity="0.85"/>
<line x1="186.0" y1="260.0210135274583" x2="186.0" y2="268.46057149289857" stroke="#44aa44" stroke-width="0.5" opacity="0.6"/>
<rect x="183.0" y="263.06047017767685" width="6.0" height="3.2522186157339092" fill="#44aa44" opacity="0.85"/>
<line x1="198.0" y1="251.4446800127582" x2="198.0" y2="265.54269310868875" stroke="#ff4444" stroke-width="0.5" opacity="0.6"/>
<rect x="195.0" y="252.86309311619354" width="6.0" height="12.07170866245147" fill="#ff4444" opacity="0.85"/>
<line x1="210.0" y1="236.64759188727743" x2="210.0" y2="258.20240529841084" stroke="#ff4444" stroke-width="0.5" opacity="0.6"/>
<rect x="207.0" y="236.64759188727743" width="6.0" height="17.25398225107412" fill="#ff4444" opacity="0.85"/>
<line x1="222.0" y1="232.6456406311563" x2="222.0" y2="241.74374753747725" stroke="#ff4444" stroke-width="0.5" opacity="0.6"/>
<rect x="219.0" y="235.66483423704008" width="6.0" height="4.559184975327867" fill="#ff4444" opacity="0.85"/>
<line x1="234.0" y1="225.53331206964484" x2="234.0" y2="235.15825812867033" stroke="#ff4444" stroke-width="0.5" opacity="0.6"/>
<rect x="231.0" y="225.53331206964484" width="6.0" height="7.598641625546463" fill="#ff4444" opacity="0.85"/>
<line x1="246.0" y1="231.61222537008197" x2="246.0" y2="241.69308992664025" stroke="#44aa44" stroke-width="0.5" opacity="0.6"/>
<rect x="243.0" y="234.1451059119308" width="6.0" height="6.0789133004371365" fill="#44aa44" opacity="0.85"/>
<line x1="258.0" y1="237.18456256214938" x2="258.0" y2="247.6554907221524" stroke="#44aa44" stroke-width="0.5" opacity="0.6"/>
<rect x="255.0" y="237.94442672470404" width="6.0" height="9.108238428488306" fill="#44aa44" opacity="0.85"/>
<line x1="270.0" y1="246.91082384284883" x2="270.0" y2="255.42130246346085" stroke="#ff4444" stroke-width="0.5" opacity="0.6"/>
<rect x="267.0" y="252.38184581324228" width="6.0" height="0.5065761083697566" fill="#ff4444" opacity="0.85"/>
<line x1="282.0" y1="236.77930167545355" x2="282.0" y2="259.9298298279517" stroke="#ff4444" stroke-width="0.5" opacity="0.6"/>
<rect x="279.0" y="237.87857183061598" width="6.0" height="16.129383290493223" fill="#ff4444" opacity="0.85"/>
<line x1="294.0" y1="223.50700763616578" x2="294.0" y2="237.47331094392015" stroke="#ff4444" stroke-width="0.5" opacity="0.6"/>
<rect x="291.0" y="224.94061802285222" width="6.0" height="10.248034672320301" fill="#ff4444" opacity="0.85"/>
<line x1="306.0" y1="220.97412709431697" x2="306.0" y2="232.10866995628436" stroke="#ff4444" stroke-width="0.5" opacity="0.6"/>
<rect x="303.0" y="223.0713521829678" width="6.0" height="9.037317773316573" fill="#ff4444" opacity="0.85"/>
<line x1="318.0" y1="221.02478470515396" x2="318.0" y2="234.1451059119308" stroke="#ff4444" stroke-width="0.5" opacity="0.6"/>
<rect x="315.0" y="221.53642657460742" width="6.0" height="11.043359162460831" fill="#ff4444" opacity="0.85"/>
<line x1="330.0" y1="211.5568772397231" x2="330.0" y2="224.58094898590969" stroke="#ff4444" stroke-width="0.5" opacity="0.6"/>
<rect x="327.0" y="212.21036041952007" width="6.0" height="12.370588566389614" fill="#ff4444" opacity="0.85"/>
<line x1="342.0" y1="215.82224807219646" x2="342.0" y2="230.73078294151858" stroke="#44aa44" stroke-width="0.5" opacity="0.6"/>
<rect x="339.0" y="222.34188258691532" width="6.0" height="0.5" fill="#44aa44" opacity="0.85"/>
<line x1="354.0" y1="203.41113341713728" x2="354.0" y2="230.36604814349238" stroke="#44aa44" stroke-width="0.5" opacity="0.6"/>
<rect x="351.0" y="203.41113341713728" width="6.0" height="23.14546239141447" fill="#44aa44" opacity="0.85"/>
<line x1="366.0" y1="222.69648586277415" x2="366.0" y2="233.5372145818871" stroke="#44aa44" stroke-width="0.5" opacity="0.6"/>
<rect x="363.0" y="223.0612206608004" width="6.0" height="9.488170509765666" fill="#44aa44" opacity="0.85"/>
<line x1="378.0" y1="229.25158070507888" x2="378.0" y2="236.66785493161225" stroke="#44aa44" stroke-width="0.5" opacity="0.6"/>
<rect x="375.0" y="230.19381226664663" width="6.0" height="6.474042664965623" fill="#44aa44" opacity="0.85"/>
<line x1="390.0" y1="221.03491622732133" x2="390.0" y2="236.6779864537796" stroke="#ff4444" stroke-width="0.5" opacity="0.6"/>
<rect x="387.0" y="223.41582393665922" width="6.0" height="11.337173305315304" fill="#ff4444" opacity="0.85"/>
<line x1="402.0" y1="214.64192573969493" x2="402.0" y2="225.02167020019138" stroke="#ff4444" stroke-width="0.5" opacity="0.6"/>
<rect x="399.0" y="215.7563931781084" width="6.0" height="1.6514381132854226" fill="#ff4444" opacity="0.85"/>
<line x1="414.0" y1="203.32501547871445" x2="414.0" y2="222.30135649824575" stroke="#ff4444" stroke-width="0.5" opacity="0.6"/>
<rect x="411.0" y="209.02906245895798" width="6.0" height="11.848815174768731" fill="#ff4444" opacity="0.85"/>
<line x1="426.0" y1="188.43167789264336" x2="426.0" y2="200.71108275952645" stroke="#ff4444" stroke-width="0.5" opacity="0.6"/>
<rect x="423.0" y="188.43167789264336" width="6.0" height="9.746524325034272" fill="#ff4444" opacity="0.85"/>
<line x1="438.0" y1="167.53034766130696" x2="438.0" y2="186.9575414172874" stroke="#ff4444" stroke-width="0.5" opacity="0.6"/>
<rect x="435.0" y="171.08144618097901" width="6.0" height="15.876095236308373" fill="#ff4444" opacity="0.85"/>
<line x1="450.0" y1="156.1830428338243" x2="450.0" y2="171.3296684740802" stroke="#ff4444" stroke-width="0.5" opacity="0.6"/>
<rect x="447.0" y="161.38557946678173" width="6.0" height="7.821535113229146" fill="#ff4444" opacity="0.85"/>
<line x1="462.0" y1="151.57320024765943" x2="462.0" y2="163.73102684853376" stroke="#ff4444" stroke-width="0.5" opacity="0.6"/>
<rect x="459.0" y="161.096831085011" width="6.0" height="0.5" fill="#ff4444" opacity="0.85"/>
<line x1="474.0" y1="146.5175706861292" x2="474.0" y2="168.79678793223138" stroke="#ff4444" stroke-width="0.5" opacity="0.6"/>
<rect x="471.0" y="153.19424379444268" width="6.0" height="13.576239704309643" fill="#ff4444" opacity="0.85"/>
<line x1="486.0" y1="151.95819809002046" x2="486.0" y2="166.77048349875233" stroke="#ff4444" stroke-width="0.5" opacity="0.6"/>
<rect x="483.0" y="154.7696954914726" width="6.0" height="1.8692658398844628" fill="#ff4444" opacity="0.85"/>
<line x1="498.0" y1="142.4548302970037" x2="498.0" y2="155.62580911461754" stroke="#44aa44" stroke-width="0.5" opacity="0.6"/>
<rect x="495.0" y="152.14056548903358" width="6.0" height="1.9655153004746637" fill="#44aa44" opacity="0.85"/>
<line x1="510.0" y1="150.7626784742678" x2="510.0" y2="162.26195613426145" stroke="#44aa44" stroke-width="0.5" opacity="0.6"/>
<rect x="507.0" y="154.10608078950824" width="6.0" height="0.5" fill="#44aa44" opacity="0.85"/>
<line x1="522.0" y1="146.5074391639618" x2="522.0" y2="156.65922437569185" stroke="#ff4444" stroke-width="0.5" opacity="0.6"/>
<rect x="519.0" y="149.04031970581062" width="6.0" height="5.212668155124817" fill="#ff4444" opacity="0.85"/>
<line x1="534.0" y1="138.94425786600127" x2="534.0" y2="168.29021182386163" stroke="#44aa44" stroke-width="0.5" opacity="0.6"/>
<rect x="531.0" y="141.94825418863394" width="6.0" height="22.446387361864197" fill="#44aa44" opacity="0.85"/>
<line x1="546.0" y1="161.2893300061915" x2="546.0" y2="170.51914670068857" stroke="#44aa44" stroke-width="0.5" opacity="0.6"/>
<rect x="543.0" y="166.26390739038257" width="6.0" height="0.5673652413741479" fill="#44aa44" opacity="0.85"/>
<line x1="558.0" y1="164.23760295690352" x2="558.0" y2="169.8099401489709" stroke="#44aa44" stroke-width="0.5" opacity="0.6"/>
<rect x="555.0" y="165.65095029925516" width="6.0" height="2.056698999981222" fill="#44aa44" opacity="0.85"/>
<line x1="570.0" y1="156.63896133135705" x2="570.0" y2="168.68534118839003" stroke="#44aa44" stroke-width="0.5" opacity="0.6"/>
<rect x="567.0" y="163.25991106774987" width="6.0" height="0.5" fill="#44aa44" opacity="0.85"/>
<line x1="582.0" y1="149.04031970581062" x2="582.0" y2="169.05007598641623" stroke="#ff4444" stroke-width="0.5" opacity="0.6"/>
<rect x="579.0" y="150.08893225013605" width="6.0" height="16.063528396405133" fill="#ff4444" opacity="0.85"/>
<line x1="594.0" y1="143.97455862211297" x2="594.0" y2="157.14047167864314" stroke="#ff4444" stroke-width="0.5" opacity="0.6"/>
<rect x="591.0" y="149.1365691664009" width="6.0" height="3.5966903694252608" fill="#ff4444" opacity="0.85"/>
<line x1="606.0" y1="122.55145499915574" x2="606.0" y2="131.11765699168842" stroke="#ff4444" stroke-width="0.5" opacity="0.6"/>
<rect x="603.0" y="122.55145499915574" width="6.0" height="3.6929398300155327" fill="#ff4444" opacity="0.85"/>
<line x1="618.0" y1="94.33010000187622" x2="618.0" y2="112.56683990318768" stroke="#ff4444" stroke-width="0.5" opacity="0.6"/>
<rect x="615.0" y="102.68354002889362" width="6.0" height="6.843843224075485" fill="#ff4444" opacity="0.85"/>
<line x1="630.0" y1="105.99148201654815" x2="630.0" y2="114.64380194750372" stroke="#44aa44" stroke-width="0.5" opacity="0.6"/>
<rect x="627.0" y="111.43717518152309" width="6.0" height="0.7699956847220335" fill="#44aa44" opacity="0.85"/>
<line x1="642.0" y1="88.27144974577382" x2="642.0" y2="102.87603895007412" stroke="#ff4444" stroke-width="0.5" opacity="0.6"/>
<rect x="639.0" y="91.18426236889997" width="6.0" height="4.1032664777950885" fill="#ff4444" opacity="0.85"/>
<line x1="654.0" y1="94.07681194769133" x2="654.0" y2="105.98135049438075" stroke="#44aa44" stroke-width="0.5" opacity="0.6"/>
<rect x="651.0" y="95.56614570629847" width="6.0" height="6.362595921124182" fill="#44aa44" opacity="0.85"/>
<line x1="666.0" y1="70.62233813017133" x2="666.0" y2="113.45841385391846" stroke="#ff4444" stroke-width="0.5" opacity="0.6"/>
<rect x="663.0" y="70.62233813017133" width="6.0" height="42.83607572374713" fill="#ff4444" opacity="0.85"/>
<line x1="678.0" y1="40.38987598266384" x2="678.0" y2="65.96183793316948" stroke="#ff4444" stroke-width="0.5" opacity="0.6"/>
<rect x="675.0" y="49.42212799489673" width="6.0" height="11.473948854575127" fill="#ff4444" opacity="0.85"/>
<line x1="690.0" y1="30.0" x2="690.0" y2="61.595151879022126" stroke="#44aa44" stroke-width="0.5" opacity="0.6"/>
<rect x="687.0" y="49.23976059588361" width="6.0" height="5.040432278279162" fill="#44aa44" opacity="0.85"/>
<line x1="702.0" y1="38.32304546051524" x2="702.0" y2="59.08253438150808" stroke="#ff4444" stroke-width="0.5" opacity="0.6"/>
<rect x="699.0" y="42.63907390382561" width="6.0" height="14.204394078688132" fill="#ff4444" opacity="0.85"/>
<line x1="714.0" y1="52.28428300718588" x2="714.0" y2="74.09745023358785" stroke="#44aa44" stroke-width="0.5" opacity="0.6"/>
<rect x="711.0" y="54.31058744066493" width="6.0" height="6.504437231467776" fill="#44aa44" opacity="0.85"/>
<line x1="726.0" y1="51.5497476500497" x2="726.0" y2="67.98814236664853" stroke="#44aa44" stroke-width="0.5" opacity="0.6"/>
<rect x="723.0" y="57.85662019925327" width="6.0" height="4.579448019662642" fill="#44aa44" opacity="0.85"/>
<line x1="738.0" y1="55.42505487907843" x2="738.0" y2="84.25936696748532" stroke="#44aa44" stroke-width="0.5" opacity="0.6"/>
<rect x="735.0" y="56.843467982513744" width="6.0" height="25.784723916020937" fill="#44aa44" opacity="0.85"/>
<line x1="750.0" y1="70.32345822623316" x2="750.0" y2="85.20159852905309" stroke="#ff4444" stroke-width="0.5" opacity="0.6"/>
<rect x="747.0" y="73.56047955871593" width="6.0" height="1.5197283251092841" fill="#ff4444" opacity="0.85"/>
<line x1="762.0" y1="61.14936490365673" x2="762.0" y2="82.16720763991822" stroke="#ff4444" stroke-width="0.5" opacity="0.6"/>
<rect x="759.0" y="62.9223812829509" width="6.0" height="12.669468470327764" fill="#ff4444" opacity="0.85"/>
<line x1="774.0" y1="66.44308523612078" x2="774.0" y2="89.26433891817858" stroke="#44aa44" stroke-width="0.5" opacity="0.6"/>
<rect x="771.0" y="66.44308523612078" width="6.0" height="14.665378337304602" fill="#44aa44" opacity="0.85"/>
<rect x="122.0" y="276.07129589673355" width="8" height="8" fill="#ff9800" opacity="0.85" rx="1"/>
<text x="126.0" y="274.07129589673355" text-anchor="middle" font-family="sans-serif" font-size="8" fill="#ff9800">前高</text>
<rect x="134.0" y="270.36724891649" width="8" height="8" fill="#ff9800" opacity="0.85" rx="1"/>
<text x="138.0" y="268.36724891649" text-anchor="middle" font-family="sans-serif" font-size="8" fill="#ff9800">前高</text>
<rect x="146.0" y="269.15146625640256" width="8" height="8" fill="#ff9800" opacity="0.85" rx="1"/>
<text x="150.0" y="267.15146625640256" text-anchor="middle" font-family="sans-serif" font-size="8" fill="#ff9800">前高</text>
<rect x="158.0" y="259.2276402934389" width="8" height="8" fill="#ff9800" opacity="0.85" rx="1"/>
<text x="162.0" y="257.2276402934389" text-anchor="middle" font-family="sans-serif" font-size="8" fill="#ff9800">前高</text>
<rect x="170.0" y="254.12641888215535" width="8" height="8" fill="#ff9800" opacity="0.85" rx="1"/>
<text x="174.0" y="252.12641888215535" text-anchor="middle" font-family="sans-serif" font-size="8" fill="#ff9800">前高</text>
<rect x="194.0" y="247.4446800127582" width="8" height="8" fill="#ff9800" opacity="0.85" rx="1"/>
<text x="198.0" y="245.4446800127582" text-anchor="middle" font-family="sans-serif" font-size="8" fill="#ff9800">前高</text>
<rect x="194.0" y="247.4446800127582" width="8" height="8" fill="#2196f3" opacity="0.85" rx="1"/>
<text x="198.0" y="245.4446800127582" text-anchor="middle" font-family="sans-serif" font-size="8" fill="#2196f3">突</text>
<rect x="206.0" y="232.64759188727743" width="8" height="8" fill="#ff9800" opacity="0.85" rx="1"/>
<text x="210.0" y="230.64759188727743" text-anchor="middle" font-family="sans-serif" font-size="8" fill="#ff9800">前高</text>
<rect x="206.0" y="232.64759188727743" width="8" height="8" fill="#2196f3" opacity="0.85" rx="1"/>
<text x="210.0" y="230.64759188727743" text-anchor="middle" font-family="sans-serif" font-size="8" fill="#2196f3">突</text>
<rect x="218.0" y="228.6456406311563" width="8" height="8" fill="#ff9800" opacity="0.85" rx="1"/>
<text x="222.0" y="226.6456406311563" text-anchor="middle" font-family="sans-serif" font-size="8" fill="#ff9800">前高</text>
<rect x="230.0" y="221.53331206964484" width="8" height="8" fill="#ff9800" opacity="0.85" rx="1"/>
<text x="234.0" y="219.53331206964484" text-anchor="middle" font-family="sans-serif" font-size="8" fill="#ff9800">前高</text>
<rect x="230.0" y="221.53331206964484" width="8" height="8" fill="#2196f3" opacity="0.85" rx="1"/>
<text x="234.0" y="219.53331206964484" text-anchor="middle" font-family="sans-serif" font-size="8" fill="#2196f3">突</text>
<rect x="290.0" y="219.50700763616578" width="8" height="8" fill="#ff9800" opacity="0.85" rx="1"/>
<text x="294.0" y="217.50700763616578" text-anchor="middle" font-family="sans-serif" font-size="8" fill="#ff9800">前高</text>
<rect x="290.0" y="219.50700763616578" width="8" height="8" fill="#2196f3" opacity="0.85" rx="1"/>
<text x="294.0" y="217.50700763616578" text-anchor="middle" font-family="sans-serif" font-size="8" fill="#2196f3">突</text>
<rect x="302.0" y="216.97412709431697" width="8" height="8" fill="#ff9800" opacity="0.85" rx="1"/>
<text x="306.0" y="214.97412709431697" text-anchor="middle" font-family="sans-serif" font-size="8" fill="#ff9800">前高</text>
<rect x="302.0" y="216.97412709431697" width="8" height="8" fill="#2196f3" opacity="0.85" rx="1"/>
<text x="306.0" y="214.97412709431697" text-anchor="middle" font-family="sans-serif" font-size="8" fill="#2196f3">突</text>
<rect x="326.0" y="207.5568772397231" width="8" height="8" fill="#ff9800" opacity="0.85" rx="1"/>
<text x="330.0" y="205.5568772397231" text-anchor="middle" font-family="sans-serif" font-size="8" fill="#ff9800">前高</text>
<rect x="326.0" y="207.5568772397231" width="8" height="8" fill="#2196f3" opacity="0.85" rx="1"/>
<text x="330.0" y="205.5568772397231" text-anchor="middle" font-family="sans-serif" font-size="8" fill="#2196f3">突</text>
<rect x="350.0" y="199.41113341713728" width="8" height="8" fill="#ff9800" opacity="0.85" rx="1"/>
<text x="354.0" y="197.41113341713728" text-anchor="middle" font-family="sans-serif" font-size="8" fill="#ff9800">前高</text>
<rect x="410.0" y="199.32501547871445" width="8" height="8" fill="#ff9800" opacity="0.85" rx="1"/>
<text x="414.0" y="197.32501547871445" text-anchor="middle" font-family="sans-serif" font-size="8" fill="#ff9800">前高</text>
<rect x="422.0" y="184.43167789264336" width="8" height="8" fill="#ff9800" opacity="0.85" rx="1"/>
<text x="426.0" y="182.43167789264336" text-anchor="middle" font-family="sans-serif" font-size="8" fill="#ff9800">前高</text>
<rect x="422.0" y="184.43167789264336" width="8" height="8" fill="#2196f3" opacity="0.85" rx="1"/>
<text x="426.0" y="182.43167789264336" text-anchor="middle" font-family="sans-serif" font-size="8" fill="#2196f3">突</text>
<rect x="434.0" y="163.53034766130696" width="8" height="8" fill="#ff9800" opacity="0.85" rx="1"/>
<text x="438.0" y="161.53034766130696" text-anchor="middle" font-family="sans-serif" font-size="8" fill="#ff9800">前高</text>
<rect x="434.0" y="163.53034766130696" width="8" height="8" fill="#2196f3" opacity="0.85" rx="1"/>
<text x="438.0" y="161.53034766130696" text-anchor="middle" font-family="sans-serif" font-size="8" fill="#2196f3">突</text>
<rect x="446.0" y="152.1830428338243" width="8" height="8" fill="#ff9800" opacity="0.85" rx="1"/>
<text x="450.0" y="150.1830428338243" text-anchor="middle" font-family="sans-serif" font-size="8" fill="#ff9800">前高</text>
<rect x="458.0" y="147.57320024765943" width="8" height="8" fill="#ff9800" opacity="0.85" rx="1"/>
<text x="462.0" y="145.57320024765943" text-anchor="middle" font-family="sans-serif" font-size="8" fill="#ff9800">前高</text>
<rect x="470.0" y="142.5175706861292" width="8" height="8" fill="#ff9800" opacity="0.85" rx="1"/>
<text x="474.0" y="140.5175706861292" text-anchor="middle" font-family="sans-serif" font-size="8" fill="#ff9800">前高</text>
<rect x="494.0" y="138.4548302970037" width="8" height="8" fill="#ff9800" opacity="0.85" rx="1"/>
<text x="498.0" y="136.4548302970037" text-anchor="middle" font-family="sans-serif" font-size="8" fill="#ff9800">前高</text>
<rect x="530.0" y="134.94425786600127" width="8" height="8" fill="#ff9800" opacity="0.85" rx="1"/>
<text x="534.0" y="132.94425786600127" text-anchor="middle" font-family="sans-serif" font-size="8" fill="#ff9800">前高</text>
<rect x="602.0" y="118.55145499915574" width="8" height="8" fill="#ff9800" opacity="0.85" rx="1"/>
<text x="606.0" y="116.55145499915574" text-anchor="middle" font-family="sans-serif" font-size="8" fill="#ff9800">前高</text>
<rect x="602.0" y="118.55145499915574" width="8" height="8" fill="#2196f3" opacity="0.85" rx="1"/>
<text x="606.0" y="116.55145499915574" text-anchor="middle" font-family="sans-serif" font-size="8" fill="#2196f3">突</text>
<rect x="614.0" y="90.33010000187622" width="8" height="8" fill="#ff9800" opacity="0.85" rx="1"/>
<text x="618.0" y="88.33010000187622" text-anchor="middle" font-family="sans-serif" font-size="8" fill="#ff9800">前高</text>
<rect x="638.0" y="84.27144974577382" width="8" height="8" fill="#ff9800" opacity="0.85" rx="1"/>
<text x="642.0" y="82.27144974577382" text-anchor="middle" font-family="sans-serif" font-size="8" fill="#ff9800">前高</text>
<rect x="638.0" y="84.27144974577382" width="8" height="8" fill="#2196f3" opacity="0.85" rx="1"/>
<text x="642.0" y="82.27144974577382" text-anchor="middle" font-family="sans-serif" font-size="8" fill="#2196f3">突</text>
<rect x="662.0" y="66.62233813017133" width="8" height="8" fill="#ff9800" opacity="0.85" rx="1"/>
<text x="666.0" y="64.62233813017133" text-anchor="middle" font-family="sans-serif" font-size="8" fill="#ff9800">前高</text>
<rect x="662.0" y="66.62233813017133" width="8" height="8" fill="#2196f3" opacity="0.85" rx="1"/>
<text x="666.0" y="64.62233813017133" text-anchor="middle" font-family="sans-serif" font-size="8" fill="#2196f3">突</text>
<rect x="674.0" y="36.38987598266384" width="8" height="8" fill="#ff9800" opacity="0.85" rx="1"/>
<text x="678.0" y="34.38987598266384" text-anchor="middle" font-family="sans-serif" font-size="8" fill="#ff9800">前高</text>
<rect x="686.0" y="26.0" width="8" height="8" fill="#ff9800" opacity="0.85" rx="1"/>
<text x="690.0" y="24.0" text-anchor="middle" font-family="sans-serif" font-size="8" fill="#ff9800">前高</text>
<text x="66.0" y="359" text-anchor="middle" font-family="sans-serif" font-size="8" fill="#666666" transform="rotate(-40,66.0,359)">02/26</text>
<text x="138.0" y="359" text-anchor="middle" font-family="sans-serif" font-size="8" fill="#666666" transform="rotate(-40,138.0,359)">03/06</text>
<text x="210.0" y="359" text-anchor="middle" font-family="sans-serif" font-size="8" fill="#666666" transform="rotate(-40,210.0,359)">03/16</text>
<text x="282.0" y="359" text-anchor="middle" font-family="sans-serif" font-size="8" fill="#666666" transform="rotate(-40,282.0,359)">03/24</text>
<text x="354.0" y="359" text-anchor="middle" font-family="sans-serif" font-size="8" fill="#666666" transform="rotate(-40,354.0,359)">04/01</text>
<text x="426.0" y="359" text-anchor="middle" font-family="sans-serif" font-size="8" fill="#666666" transform="rotate(-40,426.0,359)">04/10</text>
<text x="498.0" y="359" text-anchor="middle" font-family="sans-serif" font-size="8" fill="#666666" transform="rotate(-40,498.0,359)">04/20</text>
<text x="570.0" y="359" text-anchor="middle" font-family="sans-serif" font-size="8" fill="#666666" transform="rotate(-40,570.0,359)">04/28</text>
<text x="642.0" y="359" text-anchor="middle" font-family="sans-serif" font-size="8" fill="#666666" transform="rotate(-40,642.0,359)">05/11</text>
<text x="714.0" y="359" text-anchor="middle" font-family="sans-serif" font-size="8" fill="#666666" transform="rotate(-40,714.0,359)">05/19</text>
<text x="774.0" y="359" text-anchor="middle" font-family="sans-serif" font-size="8" fill="#666666" transform="rotate(-40,774.0,359)">05/26</text>
<text x="400.0" y="396" text-anchor="middle" font-family="sans-serif" font-size="9" fill="#555555">数据截至: 2026-05-26 22:45  |  最新K线: 20260526</text>
<rect x="50" y="373" width="8" height="8" fill="#ffd700" opacity="0.8" rx="1"/>
<text x="61" y="380" font-family="sans-serif" font-size="9" fill="#888888">EMA5</text>
<rect x="150" y="373" width="8" height="8" fill="#ff6b6b" opacity="0.8" rx="1"/>
<text x="161" y="380" font-family="sans-serif" font-size="9" fill="#888888">EMA10</text>
<rect x="250" y="373" width="8" height="8" fill="#4ecdc4" opacity="0.8" rx="1"/>
<text x="261" y="380" font-family="sans-serif" font-size="9" fill="#888888">EMA20</text>
<rect x="350" y="373" width="8" height="8" fill="#2196f3" opacity="0.8" rx="1"/>
<text x="361" y="380" font-family="sans-serif" font-size="9" fill="#888888">突破</text>
<rect x="450" y="373" width="8" height="8" fill="#ff9800" opacity="0.8" rx="1"/>
<text x="461" y="380" font-family="sans-serif" font-size="9" fill="#888888">前高/量</text>
<rect x="550" y="373" width="8" height="8" fill="#4caf50" opacity="0.8" rx="1"/>
<text x="561" y="380" font-family="sans-serif" font-size="9" fill="#888888">前低</text>
</svg>