<svg xmlns="http://www.w3.org/2000/svg" width="800" height="400" viewBox="0 0 800 400">
<rect width="800" height="400" fill="#1a1a2e"/>
<text x="400.0" y="20" text-anchor="middle" font-family="sans-serif" font-size="14" fill="#ffffff" font-weight="bold">红星发展(600367) K线图</text>
<line x1="60" y1="30.0" x2="780" y2="30.0" stroke="#2a2a4e" stroke-width="0.5"/>
<text x="55" y="33.0" text-anchor="end" font-family="sans-serif" font-size="8" fill="#666666">29.78</text>
<line x1="60" y1="84.00000000000004" x2="780" y2="84.00000000000004" stroke="#2a2a4e" stroke-width="0.5"/>
<text x="55" y="87.00000000000004" text-anchor="end" font-family="sans-serif" font-size="8" fill="#666666">27.71</text>
<line x1="60" y1="137.99999999999997" x2="780" y2="137.99999999999997" stroke="#2a2a4e" stroke-width="0.5"/>
<text x="55" y="140.99999999999997" text-anchor="end" font-family="sans-serif" font-size="8" fill="#666666">25.64</text>
<line x1="60" y1="192.00000000000003" x2="780" y2="192.00000000000003" stroke="#2a2a4e" stroke-width="0.5"/>
<text x="55" y="195.00000000000003" text-anchor="end" font-family="sans-serif" font-size="8" fill="#666666">23.58</text>
<line x1="60" y1="245.99999999999994" x2="780" y2="245.99999999999994" stroke="#2a2a4e" stroke-width="0.5"/>
<text x="55" y="248.99999999999994" text-anchor="end" font-family="sans-serif" font-size="8" fill="#666666">21.51</text>
<line x1="60" y1="300.0" x2="780" y2="300.0" stroke="#2a2a4e" stroke-width="0.5"/>
<text x="55" y="303.0" text-anchor="end" font-family="sans-serif" font-size="8" fill="#666666">19.44</text>
<line x1="60" y1="300" x2="780" y2="300" stroke="#2a2a4e" stroke-width="0.5"/>
<line x1="60" y1="345" x2="780" y2="345" stroke="#2a2a4e" stroke-width="0.5"/>
<rect x="61.8" y="336.7085887544195" width="7.199999999999999" height="8.291411245580491" fill="#44aa44" opacity="0.3"/>
<rect x="73.8" y="331.92992071933725" width="7.199999999999999" height="13.070079280662753" fill="#ff4444" opacity="0.3"/>
<rect x="85.8" y="333.9917445096633" width="7.199999999999999" height="11.008255490336694" fill="#ff4444" opacity="0.3"/>
<rect x="97.8" y="300.0" width="7.199999999999999" height="45.0" fill="#ff4444" opacity="0.3"/>
<rect x="109.8" y="311.14426572281735" width="7.199999999999999" height="33.85573427718265" fill="#ff4444" opacity="0.3"/>
<rect x="121.8" y="316.3290688423453" width="7.199999999999999" height="28.670931157654707" fill="#44aa44" opacity="0.3"/>
<rect x="133.8" y="323.24896100302817" width="7.199999999999999" height="21.75103899697183" fill="#44aa44" opacity="0.3"/>
<rect x="145.8" y="322.95880296826186" width="7.199999999999999" height="22.041197031738136" fill="#44aa44" opacity="0.3"/>
<rect x="157.8" y="328.13033679681615" width="7.199999999999999" height="16.869663203183848" fill="#ff4444" opacity="0.3"/>
<rect x="169.8" y="332.31938302583876" width="7.199999999999999" height="12.68061697416124" fill="#ff4444" opacity="0.3"/>
<rect x="181.8" y="320.77453981122375" width="7.199999999999999" height="24.225460188776253" fill="#ff4444" opacity="0.3"/>
<rect x="193.8" y="315.7005008056355" width="7.199999999999999" height="29.2994991943645" fill="#ff4444" opacity="0.3"/>
<rect x="205.8" y="300.8284259614731" width="7.199999999999999" height="44.1715740385269" fill="#ff4444" opacity="0.3"/>
<rect x="217.8" y="304.86771876379225" width="7.199999999999999" height="40.132281236207746" fill="#ff4444" opacity="0.3"/>
<rect x="229.8" y="315.5818095828024" width="7.199999999999999" height="29.418190417197593" fill="#44aa44" opacity="0.3"/>
<rect x="241.8" y="322.97224458768983" width="7.199999999999999" height="22.02775541231017" fill="#44aa44" opacity="0.3"/>
<rect x="253.8" y="327.0519914946334" width="7.199999999999999" height="17.9480085053666" fill="#44aa44" opacity="0.3"/>
<rect x="265.8" y="328.8795778335824" width="7.199999999999999" height="16.120422166417598" fill="#44aa44" opacity="0.3"/>
<rect x="277.8" y="326.5849383016265" width="7.199999999999999" height="18.415061698373506" fill="#ff4444" opacity="0.3"/>
<rect x="289.8" y="330.76907316970426" width="7.199999999999999" height="14.230926830295743" fill="#ff4444" opacity="0.3"/>
<rect x="301.8" y="328.97345375901017" width="7.199999999999999" height="16.02654624098983" fill="#ff4444" opacity="0.3"/>
<rect x="313.8" y="324.4118334119981" width="7.199999999999999" height="20.58816658800191" fill="#ff4444" opacity="0.3"/>
<rect x="325.8" y="327.4654936204964" width="7.199999999999999" height="17.534506379503625" fill="#44aa44" opacity="0.3"/>
<rect x="337.8" y="328.7202170955571" width="7.199999999999999" height="16.279782904442925" fill="#44aa44" opacity="0.3"/>
<rect x="349.8" y="333.81282449208584" width="7.199999999999999" height="11.187175507914162" fill="#44aa44" opacity="0.3"/>
<rect x="361.8" y="335.4771727027899" width="7.199999999999999" height="9.522827297210085" fill="#ff4444" opacity="0.3"/>
<rect x="373.8" y="335.0509182713158" width="7.199999999999999" height="9.949081728684178" fill="#44aa44" opacity="0.3"/>
<rect x="385.8" y="336.5844261031654" width="7.199999999999999" height="8.415573896834587" fill="#ff4444" opacity="0.3"/>
<rect x="397.8" y="333.01334971091904" width="7.199999999999999" height="11.986650289080956" fill="#ff4444" opacity="0.3"/>
<rect x="409.8" y="333.86202426576114" width="7.199999999999999" height="11.137975734238864" fill="#ff4444" opacity="0.3"/>
<rect x="421.8" y="335.448566179392" width="7.199999999999999" height="9.551433820607997" fill="#44aa44" opacity="0.3"/>
<rect x="433.8" y="324.8068533111476" width="7.199999999999999" height="20.19314668885238" fill="#ff4444" opacity="0.3"/>
<rect x="445.8" y="331.09352456685724" width="7.199999999999999" height="13.90647543314276" fill="#ff4444" opacity="0.3"/>
<rect x="457.8" y="333.82088084731987" width="7.199999999999999" height="11.17911915268013" fill="#44aa44" opacity="0.3"/>
<rect x="469.8" y="329.86908781762287" width="7.199999999999999" height="15.13091218237713" fill="#ff4444" opacity="0.3"/>
<rect x="481.8" y="335.0908984726912" width="7.199999999999999" height="9.909101527308792" fill="#ff4444" opacity="0.3"/>
<rect x="493.8" y="318.472016252488" width="7.199999999999999" height="26.527983747511996" fill="#ff4444" opacity="0.3"/>
<rect x="505.8" y="326.5562886961151" width="7.199999999999999" height="18.443711303884925" fill="#ff4444" opacity="0.3"/>
<rect x="517.8" y="324.0416718923675" width="7.199999999999999" height="20.958328107632497" fill="#ff4444" opacity="0.3"/>
<rect x="529.8" y="329.58069614951216" width="7.199999999999999" height="15.419303850487836" fill="#44aa44" opacity="0.3"/>
<rect x="541.8" y="330.9501042108458" width="7.199999999999999" height="14.04989578915422" fill="#ff4444" opacity="0.3"/>
<rect x="553.8" y="329.0930497062279" width="7.199999999999999" height="15.906950293772127" fill="#ff4444" opacity="0.3"/>
<rect x="565.8" y="336.1496414132082" width="7.199999999999999" height="8.850358586791799" fill="#44aa44" opacity="0.3"/>
<rect x="577.8" y="327.34843951797814" width="7.199999999999999" height="17.651560482021864" fill="#ff4444" opacity="0.3"/>
<rect x="589.8" y="324.5312570307616" width="7.199999999999999" height="20.468742969238406" fill="#ff4444" opacity="0.3"/>
<rect x="601.8" y="327.13893119977945" width="7.199999999999999" height="17.86106880022055" fill="#ff4444" opacity="0.3"/>
<rect x="613.8" y="330.6119957836971" width="7.199999999999999" height="14.388004216302875" fill="#44aa44" opacity="0.3"/>
<rect x="625.8" y="329.87835047203635" width="7.199999999999999" height="15.121649527963655" fill="#44aa44" opacity="0.3"/>
<rect x="637.8" y="328.1658795404958" width="7.199999999999999" height="16.83412045950422" fill="#ff4444" opacity="0.3"/>
<rect x="649.8" y="330.30318319376323" width="7.199999999999999" height="14.696816806236768" fill="#44aa44" opacity="0.3"/>
<rect x="661.8" y="325.12553170508477" width="7.199999999999999" height="19.874468294915232" fill="#ff4444" opacity="0.3"/>
<rect x="673.8" y="331.5082329918996" width="7.199999999999999" height="13.491767008100396" fill="#44aa44" opacity="0.3"/>
<rect x="685.8" y="327.4283137565018" width="7.199999999999999" height="17.57168624349822" fill="#ff4444" opacity="0.3"/>
<rect x="697.8" y="327.49806369834096" width="7.199999999999999" height="17.501936301659043" fill="#ff4444" opacity="0.3"/>
<rect x="709.8" y="331.2243218635982" width="7.199999999999999" height="13.77567813640178" fill="#44aa44" opacity="0.3"/>
<rect x="721.8" y="334.02711492488874" width="7.199999999999999" height="10.972885075111265" fill="#44aa44" opacity="0.3"/>
<rect x="733.8" y="324.67782238106224" width="7.199999999999999" height="20.322177618937758" fill="#ff4444" opacity="0.3"/>
<rect x="745.8" y="326.71646799429783" width="7.199999999999999" height="18.28353200570217" fill="#ff4444" opacity="0.3"/>
<rect x="757.8" y="326.41588408805217" width="7.199999999999999" height="18.584115911947833" fill="#44aa44" opacity="0.3"/>
<rect x="769.8" y="330.8748397584721" width="7.199999999999999" height="14.125160241527908" fill="#ff4444" opacity="0.3"/>
<polyline points="66.0,275.98 78.0,266.84 90.0,242.12 102.0,205.10 114.0,188.42 126.0,182.01 138.0,183.22 150.0,189.42 162.0,201.04 174.0,205.74 186.0,200.86 198.0,187.25 210.0,160.69 222.0,127.05 234.0,127.60 246.0,136.85 258.0,153.98 270.0,173.93 282.0,186.71 294.0,197.66 306.0,207.06 318.0,208.18 330.0,214.33 342.0,230.35 354.0,243.30 366.0,251.84 378.0,266.15 390.0,269.69 402.0,271.44 414.0,269.99 426.0,271.81 438.0,263.02 450.0,261.68 462.0,267.58 474.0,262.37 486.0,258.20 498.0,246.63 510.0,236.92 522.0,225.30 534.0,223.92 546.0,221.16 558.0,227.77 570.0,237.31 582.0,225.31 594.0,215.13 606.0,205.38 618.0,200.10 630.0,196.50 642.0,191.05 654.0,194.20 666.0,181.86 678.0,180.33 690.0,172.26 702.0,158.70 714.0,156.53 726.0,161.45 738.0,160.80 750.0,147.75 762.0,132.09 774.0,98.06" fill="none" stroke="#ffd700" stroke-width="0.8" opacity="0.7"/>
<polyline points="66.0,275.98 78.0,270.99 90.0,256.75 102.0,233.90 114.0,219.57 126.0,210.41 138.0,205.90 150.0,205.16 162.0,208.63 174.0,209.82 186.0,206.42 198.0,197.98 210.0,181.54 222.0,159.40 234.0,153.82 246.0,154.10 258.0,160.30 270.0,170.04 282.0,177.71 294.0,185.32 306.0,192.69 318.0,195.92 330.0,201.50 342.0,212.57 354.0,222.87 366.0,231.24 378.0,242.79 390.0,248.97 402.0,253.69 414.0,256.13 426.0,259.64 438.0,257.06 450.0,257.41 462.0,261.40 474.0,259.69 486.0,257.90 498.0,251.64 510.0,245.43 522.0,237.55 534.0,234.57 546.0,231.13 558.0,232.92 570.0,237.19 582.0,230.66 594.0,224.14 606.0,217.18 618.0,212.16 630.0,208.00 642.0,202.93 654.0,202.49 666.0,194.25 678.0,191.17 690.0,184.79 702.0,175.12 714.0,170.95 726.0,171.01 738.0,168.92 750.0,160.33 762.0,149.50 774.0,127.77" fill="none" stroke="#ff6b6b" stroke-width="0.8" opacity="0.7"/>
<polyline points="66.0,275.98 78.0,273.37 90.0,265.68 102.0,252.86 114.0,243.55 126.0,236.46 138.0,231.62 150.0,228.78 162.0,228.35 174.0,227.10 186.0,223.67 198.0,217.61 210.0,207.13 222.0,193.09 234.0,186.96 246.0,183.95 258.0,184.36 270.0,187.16 282.0,189.55 294.0,192.41 306.0,195.60 318.0,197.01 330.0,199.83 342.0,205.79 354.0,211.83 366.0,217.27 378.0,224.65 390.0,229.61 402.0,233.93 414.0,237.09 426.0,240.74 438.0,241.19 450.0,242.88 462.0,246.36 474.0,246.89 486.0,247.17 498.0,244.92 510.0,242.31 522.0,238.48 534.0,236.82 546.0,234.81 558.0,235.40 570.0,237.40 582.0,233.96 594.0,230.23 606.0,226.00 618.0,222.53 630.0,219.36 642.0,215.63 654.0,214.19 666.0,208.76 678.0,205.76 690.0,201.03 702.0,194.42 714.0,190.40 726.0,188.58 738.0,185.81 750.0,179.70 762.0,172.18 774.0,158.64" fill="none" stroke="#4ecdc4" stroke-width="0.8" opacity="0.7"/>
<line x1="66.0" y1="265.79303675048357" x2="66.0" y2="278.84912959381046" stroke="#44aa44" stroke-width="0.5" opacity="0.6"/>
<rect x="63.0" y="267.0986460348163" width="6.0" height="8.878143133462288" fill="#44aa44" opacity="0.85"/>
<line x1="78.0" y1="246.73114119922633" x2="78.0" y2="280.1547388781432" stroke="#ff4444" stroke-width="0.5" opacity="0.6"/>
<rect x="75.0" y="248.5589941972921" width="6.0" height="31.595744680851084" fill="#ff4444" opacity="0.85"/>
<line x1="90.0" y1="192.67891682785302" x2="90.0" y2="203.64603481624764" stroke="#ff4444" stroke-width="0.5" opacity="0.6"/>
<rect x="87.0" y="192.67891682785302" width="6.0" height="0.5" fill="#ff4444" opacity="0.85"/>
<line x1="102.0" y1="131.05415860735013" x2="102.0" y2="163.9555125725339" stroke="#ff4444" stroke-width="0.5" opacity="0.6"/>
<rect x="99.0" y="131.05415860735013" width="6.0" height="19.323017408123746" fill="#ff4444" opacity="0.85"/>
<line x1="114.0" y1="116.17021276595747" x2="114.0" y2="198.6847195357834" stroke="#ff4444" stroke-width="0.5" opacity="0.6"/>
<rect x="111.0" y="155.07736943907165" width="6.0" height="18.539651837524104" fill="#ff4444" opacity="0.85"/>
<line x1="126.0" y1="148.81044487427468" x2="126.0" y2="211.74081237911028" stroke="#44aa44" stroke-width="0.5" opacity="0.6"/>
<rect x="123.0" y="155.33849129593813" width="6.0" height="13.839458413926536" fill="#44aa44" opacity="0.85"/>
<line x1="138.0" y1="162.9110251450677" x2="138.0" y2="200.51257253384918" stroke="#44aa44" stroke-width="0.5" opacity="0.6"/>
<rect x="135.0" y="180.66731141199224" width="6.0" height="4.961315280464248" fill="#44aa44" opacity="0.85"/>
<line x1="150.0" y1="154.81624758220505" x2="150.0" y2="204.95164410058032" stroke="#44aa44" stroke-width="0.5" opacity="0.6"/>
<rect x="147.0" y="165.26112185686654" width="6.0" height="36.55705996131533" fill="#44aa44" opacity="0.85"/>
<line x1="162.0" y1="212.26305609284336" x2="162.0" y2="242.03094777562865" stroke="#ff4444" stroke-width="0.5" opacity="0.6"/>
<rect x="159.0" y="224.2746615087041" width="6.0" height="17.756286266924548" fill="#ff4444" opacity="0.85"/>
<line x1="174.0" y1="205.47388781431343" x2="174.0" y2="227.93036750483563" stroke="#ff4444" stroke-width="0.5" opacity="0.6"/>
<rect x="171.0" y="215.13539651837525" width="6.0" height="9.40038684719542" fill="#ff4444" opacity="0.85"/>
<line x1="186.0" y1="172.57253384912963" x2="186.0" y2="226.62475822050294" stroke="#ff4444" stroke-width="0.5" opacity="0.6"/>
<rect x="183.0" y="191.11218568665382" width="6.0" height="18.01740812379103" fill="#ff4444" opacity="0.85"/>
<line x1="198.0" y1="145.6769825918762" x2="198.0" y2="203.90715667311414" stroke="#ff4444" stroke-width="0.5" opacity="0.6"/>
<rect x="195.0" y="160.03868471953578" width="6.0" height="26.11218568665379" fill="#ff4444" opacity="0.85"/>
<line x1="210.0" y1="95.28046421663443" x2="210.0" y2="161.6054158607351" stroke="#ff4444" stroke-width="0.5" opacity="0.6"/>
<rect x="207.0" y="107.55319148936177" width="6.0" height="10.705996131528053" fill="#ff4444" opacity="0.85"/>
<line x1="222.0" y1="50.36750483558997" x2="222.0" y2="109.64216634429403" stroke="#ff4444" stroke-width="0.5" opacity="0.6"/>
<rect x="219.0" y="59.76789168278532" width="6.0" height="47.78529980657645" fill="#ff4444" opacity="0.85"/>
<line x1="234.0" y1="86.92456479690522" x2="234.0" y2="133.66537717601554" stroke="#44aa44" stroke-width="0.5" opacity="0.6"/>
<rect x="231.0" y="92.14700193423604" width="6.0" height="36.55705996131525" fill="#44aa44" opacity="0.85"/>
<line x1="246.0" y1="102.59187620889752" x2="246.0" y2="163.43326885880074" stroke="#44aa44" stroke-width="0.5" opacity="0.6"/>
<rect x="243.0" y="109.11992263056095" width="6.0" height="46.21856866537718" fill="#44aa44" opacity="0.85"/>
<line x1="258.0" y1="150.1160541586074" x2="258.0" y2="189.02321083172146" stroke="#44aa44" stroke-width="0.5" opacity="0.6"/>
<rect x="255.0" y="167.87234042553195" width="6.0" height="20.367504835589955" fill="#44aa44" opacity="0.85"/>
<line x1="270.0" y1="158.7330754352031" x2="270.0" y2="220.61895551257257" stroke="#44aa44" stroke-width="0.5" opacity="0.6"/>
<rect x="267.0" y="201.03481624758223" width="6.0" height="12.794970986460413" fill="#44aa44" opacity="0.85"/>
<line x1="282.0" y1="201.81818181818187" x2="282.0" y2="252.47582205029013" stroke="#ff4444" stroke-width="0.5" opacity="0.6"/>
<rect x="279.0" y="212.26305609284336" width="6.0" height="1.5667311411992841" fill="#ff4444" opacity="0.85"/>
<line x1="294.0" y1="214.87427466150876" x2="294.0" y2="233.93617021276603" stroke="#ff4444" stroke-width="0.5" opacity="0.6"/>
<rect x="291.0" y="219.57446808510642" width="6.0" height="13.57833655705997" fill="#ff4444" opacity="0.85"/>
<line x1="306.0" y1="203.90715667311414" x2="306.0" y2="238.11411992263064" stroke="#ff4444" stroke-width="0.5" opacity="0.6"/>
<rect x="303.0" y="225.84139264990327" width="6.0" height="6.5280464216634755" fill="#ff4444" opacity="0.85"/>
<line x1="318.0" y1="192.67891682785302" x2="318.0" y2="233.1528046421664" stroke="#ff4444" stroke-width="0.5" opacity="0.6"/>
<rect x="315.0" y="210.43520309477756" width="6.0" height="21.150870406189625" fill="#ff4444" opacity="0.85"/>
<line x1="330.0" y1="172.31141199226312" x2="330.0" y2="227.40812379110258" stroke="#44aa44" stroke-width="0.5" opacity="0.6"/>
<rect x="327.0" y="177.79497098646036" width="6.0" height="48.829787234042584" fill="#44aa44" opacity="0.85"/>
<line x1="342.0" y1="220.0967117988395" x2="342.0" y2="262.6595744680851" stroke="#44aa44" stroke-width="0.5" opacity="0.6"/>
<rect x="339.0" y="222.7079303675049" width="6.0" height="39.69052224371376" fill="#44aa44" opacity="0.85"/>
<line x1="354.0" y1="254.30367504835587" x2="354.0" y2="272.32108317214704" stroke="#44aa44" stroke-width="0.5" opacity="0.6"/>
<rect x="351.0" y="262.39845261121866" width="6.0" height="6.789168278529928" fill="#44aa44" opacity="0.85"/>
<line x1="366.0" y1="257.1760154738879" x2="366.0" y2="276.7601547388782" stroke="#ff4444" stroke-width="0.5" opacity="0.6"/>
<rect x="363.0" y="268.9264990328821" width="6.0" height="0.5" fill="#ff4444" opacity="0.85"/>
<line x1="378.0" y1="268.9264990328821" x2="378.0" y2="295.5609284332689" stroke="#44aa44" stroke-width="0.5" opacity="0.6"/>
<rect x="375.0" y="271.0154738878143" width="6.0" height="23.762088974854976" fill="#44aa44" opacity="0.85"/>
<line x1="390.0" y1="275.715667311412" x2="390.0" y2="293.2108317214701" stroke="#ff4444" stroke-width="0.5" opacity="0.6"/>
<rect x="387.0" y="276.7601547388782" width="6.0" height="13.839458413926423" fill="#ff4444" opacity="0.85"/>
<line x1="402.0" y1="273.3655705996132" x2="402.0" y2="300.0" stroke="#ff4444" stroke-width="0.5" opacity="0.6"/>
<rect x="399.0" y="274.9323017408125" width="6.0" height="13.578336557059913" fill="#ff4444" opacity="0.85"/>
<line x1="414.0" y1="265.531914893617" x2="414.0" y2="283.2882011605417" stroke="#ff4444" stroke-width="0.5" opacity="0.6"/>
<rect x="411.0" y="267.0986460348163" width="6.0" height="10.705996131528082" fill="#ff4444" opacity="0.85"/>
<line x1="426.0" y1="265.27079303675055" x2="426.0" y2="278.84912959381046" stroke="#44aa44" stroke-width="0.5" opacity="0.6"/>
<rect x="423.0" y="267.0986460348163" width="6.0" height="8.355899419729212" fill="#44aa44" opacity="0.85"/>
<line x1="438.0" y1="233.41392649903298" x2="438.0" y2="274.67117988394585" stroke="#ff4444" stroke-width="0.5" opacity="0.6"/>
<rect x="435.0" y="245.4255319148936" width="6.0" height="19.58413926499037" fill="#ff4444" opacity="0.85"/>
<line x1="450.0" y1="256.39264990328826" x2="450.0" y2="265.531914893617" stroke="#ff4444" stroke-width="0.5" opacity="0.6"/>
<rect x="447.0" y="259.0038684719536" width="6.0" height="5.483558994197267" fill="#ff4444" opacity="0.85"/>
<line x1="462.0" y1="259.26499032882015" x2="462.0" y2="280.67698259187625" stroke="#44aa44" stroke-width="0.5" opacity="0.6"/>
<rect x="459.0" y="261.09284332688594" width="6.0" height="18.278529980657595" fill="#44aa44" opacity="0.85"/>
<line x1="474.0" y1="249.8646034816248" x2="474.0" y2="280.1547388781432" stroke="#ff4444" stroke-width="0.5" opacity="0.6"/>
<rect x="471.0" y="251.95357833655706" width="6.0" height="27.417794970986478" fill="#ff4444" opacity="0.85"/>
<line x1="486.0" y1="242.03094777562865" x2="486.0" y2="255.60928433268862" stroke="#ff4444" stroke-width="0.5" opacity="0.6"/>
<rect x="483.0" y="249.8646034816248" width="6.0" height="2.088974854932246" fill="#ff4444" opacity="0.85"/>
<line x1="498.0" y1="193.9845261121857" x2="498.0" y2="244.90328820116056" stroke="#ff4444" stroke-width="0.5" opacity="0.6"/>
<rect x="495.0" y="223.49129593810446" width="6.0" height="20.88974854932303" fill="#ff4444" opacity="0.85"/>
<line x1="510.0" y1="210.17408123791108" x2="510.0" y2="241.5087040618956" stroke="#ff4444" stroke-width="0.5" opacity="0.6"/>
<rect x="507.0" y="217.48549323017406" width="6.0" height="1.8278529980657936" fill="#ff4444" opacity="0.85"/>
<line x1="522.0" y1="193.20116054158606" x2="522.0" y2="222.18568665377177" stroke="#ff4444" stroke-width="0.5" opacity="0.6"/>
<rect x="519.0" y="202.07930367504835" width="6.0" height="18.017408123791142" fill="#ff4444" opacity="0.85"/>
<line x1="534.0" y1="206.77949709864603" x2="534.0" y2="237.5918762088976" stroke="#44aa44" stroke-width="0.5" opacity="0.6"/>
<rect x="531.0" y="209.12959381044485" width="6.0" height="12.011605415860771" fill="#44aa44" opacity="0.85"/>
<line x1="546.0" y1="199.99032882011608" x2="546.0" y2="223.23017408123798" stroke="#ff4444" stroke-width="0.5" opacity="0.6"/>
<rect x="543.0" y="215.65764023210832" width="6.0" height="2.8723404255319736" fill="#ff4444" opacity="0.85"/>
<line x1="558.0" y1="234.98065764023215" x2="558.0" y2="274.1489361702128" stroke="#ff4444" stroke-width="0.5" opacity="0.6"/>
<rect x="555.0" y="240.98646034816252" width="6.0" height="5.222437137330729" fill="#ff4444" opacity="0.85"/>
<line x1="570.0" y1="235.7640232108318" x2="570.0" y2="262.9206963249517" stroke="#44aa44" stroke-width="0.5" opacity="0.6"/>
<rect x="567.0" y="243.59767891682785" width="6.0" height="12.794970986460413" fill="#44aa44" opacity="0.85"/>
<line x1="582.0" y1="201.29593810444882" x2="582.0" y2="256.65377176015477" stroke="#ff4444" stroke-width="0.5" opacity="0.6"/>
<rect x="579.0" y="201.29593810444882" width="6.0" height="54.052224371373285" fill="#ff4444" opacity="0.85"/>
<line x1="594.0" y1="184.3230174081238" x2="594.0" y2="205.73500967117988" stroke="#ff4444" stroke-width="0.5" opacity="0.6"/>
<rect x="591.0" y="194.76789168278538" width="6.0" height="1.8278529980657368" fill="#ff4444" opacity="0.85"/>
<line x1="606.0" y1="183.80077369439076" x2="606.0" y2="205.21276595744683" stroke="#ff4444" stroke-width="0.5" opacity="0.6"/>
<rect x="603.0" y="185.8897485493231" width="6.0" height="8.617021276595693" fill="#ff4444" opacity="0.85"/>
<line x1="618.0" y1="182.7562862669246" x2="618.0" y2="196.07350096711798" stroke="#44aa44" stroke-width="0.5" opacity="0.6"/>
<rect x="615.0" y="188.76208897485498" width="6.0" height="0.7833655705995568" fill="#44aa44" opacity="0.85"/>
<line x1="630.0" y1="168.39458413926502" x2="630.0" y2="192.9400386847196" stroke="#44aa44" stroke-width="0.5" opacity="0.6"/>
<rect x="627.0" y="185.10638297872345" width="6.0" height="4.177949709864606" fill="#44aa44" opacity="0.85"/>
<line x1="642.0" y1="164.73887814313346" x2="642.0" y2="187.45647969052226" stroke="#ff4444" stroke-width="0.5" opacity="0.6"/>
<rect x="639.0" y="180.1450676982592" width="6.0" height="3.6557059961315588" fill="#ff4444" opacity="0.85"/>
<line x1="654.0" y1="170.74468085106383" x2="654.0" y2="206.77949709864603" stroke="#44aa44" stroke-width="0.5" opacity="0.6"/>
<rect x="651.0" y="173.61702127659575" width="6.0" height="26.89555125725343" fill="#44aa44" opacity="0.85"/>
<line x1="666.0" y1="149.59381044487432" x2="666.0" y2="204.95164410058032" stroke="#ff4444" stroke-width="0.5" opacity="0.6"/>
<rect x="663.0" y="157.16634429400392" width="6.0" height="47.785299806576404" fill="#ff4444" opacity="0.85"/>
<line x1="678.0" y1="145.9381044487428" x2="678.0" y2="177.53384912959388" stroke="#44aa44" stroke-width="0.5" opacity="0.6"/>
<rect x="675.0" y="157.68858800773697" width="6.0" height="19.584139264990313" fill="#44aa44" opacity="0.85"/>
<line x1="690.0" y1="129.22630560928434" x2="690.0" y2="171.00580270793043" stroke="#ff4444" stroke-width="0.5" opacity="0.6"/>
<rect x="687.0" y="156.12185686653777" width="6.0" height="11.750483558994176" fill="#ff4444" opacity="0.85"/>
<line x1="702.0" y1="110.94777562862673" x2="702.0" y2="165.78336557059967" stroke="#ff4444" stroke-width="0.5" opacity="0.6"/>
<rect x="699.0" y="131.5764023210832" width="6.0" height="23.500967117988438" fill="#ff4444" opacity="0.85"/>
<line x1="714.0" y1="138.10444874274663" x2="714.0" y2="170.74468085106383" stroke="#44aa44" stroke-width="0.5" opacity="0.6"/>
<rect x="711.0" y="139.6711798839459" width="6.0" height="12.533849129593762" fill="#44aa44" opacity="0.85"/>
<line x1="726.0" y1="158.7330754352031" x2="726.0" y2="188.76208897485498" stroke="#44aa44" stroke-width="0.5" opacity="0.6"/>
<rect x="723.0" y="158.7330754352031" width="6.0" height="12.533849129593847" fill="#44aa44" opacity="0.85"/>
<line x1="738.0" y1="107.55319148936177" x2="738.0" y2="162.64990328820122" stroke="#ff4444" stroke-width="0.5" opacity="0.6"/>
<rect x="735.0" y="159.51644100580273" width="6.0" height="3.133462282398483" fill="#ff4444" opacity="0.85"/>
<line x1="750.0" y1="111.4700193423598" x2="750.0" y2="149.8549323017408" stroke="#ff4444" stroke-width="0.5" opacity="0.6"/>
<rect x="747.0" y="121.65377176015478" width="6.0" height="18.017408123791128" fill="#ff4444" opacity="0.85"/>
<line x1="762.0" y1="74.1295938104449" x2="762.0" y2="113.03675048355899" stroke="#44aa44" stroke-width="0.5" opacity="0.6"/>
<rect x="759.0" y="88.23017408123792" width="6.0" height="12.533849129593818" fill="#44aa44" opacity="0.85"/>
<line x1="774.0" y1="30.0" x2="774.0" y2="85.09671179883944" stroke="#ff4444" stroke-width="0.5" opacity="0.6"/>
<rect x="771.0" y="30.0" width="6.0" height="53.26885880077376" fill="#ff4444" opacity="0.85"/>
<rect x="206.0" y="91.28046421663443" width="8" height="8" fill="#ff9800" opacity="0.85" rx="1"/>
<text x="210.0" y="89.28046421663443" text-anchor="middle" font-family="sans-serif" font-size="8" fill="#ff9800">前高</text>
<rect x="206.0" y="91.28046421663443" width="8" height="8" fill="#2196f3" opacity="0.85" rx="1"/>
<text x="210.0" y="89.28046421663443" text-anchor="middle" font-family="sans-serif" font-size="8" fill="#2196f3">突</text>
<rect x="218.0" y="46.36750483558997" width="8" height="8" fill="#ff9800" opacity="0.85" rx="1"/>
<text x="222.0" y="44.36750483558997" text-anchor="middle" font-family="sans-serif" font-size="8" fill="#ff9800">前高</text>
<rect x="218.0" y="46.36750483558997" width="8" height="8" fill="#2196f3" opacity="0.85" rx="1"/>
<text x="222.0" y="44.36750483558997" text-anchor="middle" font-family="sans-serif" font-size="8" fill="#2196f3">突</text>
<rect x="278.0" y="248.47582205029013" width="8" height="8" fill="#4caf50" opacity="0.85" rx="1"/>
<text x="282.0" y="246.47582205029013" text-anchor="middle" font-family="sans-serif" font-size="8" fill="#4caf50">前低</text>
<rect x="338.0" y="258.6595744680851" width="8" height="8" fill="#4caf50" opacity="0.85" rx="1"/>
<text x="342.0" y="256.6595744680851" text-anchor="middle" font-family="sans-serif" font-size="8" fill="#4caf50">前低</text>
<rect x="350.0" y="268.32108317214704" width="8" height="8" fill="#4caf50" opacity="0.85" rx="1"/>
<text x="354.0" y="266.32108317214704" text-anchor="middle" font-family="sans-serif" font-size="8" fill="#4caf50">前低</text>
<rect x="362.0" y="272.7601547388782" width="8" height="8" fill="#4caf50" opacity="0.85" rx="1"/>
<text x="366.0" y="270.7601547388782" text-anchor="middle" font-family="sans-serif" font-size="8" fill="#4caf50">前低</text>
<rect x="374.0" y="291.5609284332689" width="8" height="8" fill="#4caf50" opacity="0.85" rx="1"/>
<text x="378.0" y="289.5609284332689" text-anchor="middle" font-family="sans-serif" font-size="8" fill="#4caf50">前低</text>
<rect x="398.0" y="296.0" width="8" height="8" fill="#4caf50" opacity="0.85" rx="1"/>
<text x="402.0" y="294.0" text-anchor="middle" font-family="sans-serif" font-size="8" fill="#4caf50">前低</text>
<rect x="494.0" y="189.9845261121857" width="8" height="8" fill="#ff9800" opacity="0.85" rx="1"/>
<text x="498.0" y="187.9845261121857" text-anchor="middle" font-family="sans-serif" font-size="8" fill="#ff9800">前高</text>
<rect x="518.0" y="189.20116054158606" width="8" height="8" fill="#ff9800" opacity="0.85" rx="1"/>
<text x="522.0" y="187.20116054158606" text-anchor="middle" font-family="sans-serif" font-size="8" fill="#ff9800">前高</text>
<rect x="590.0" y="180.3230174081238" width="8" height="8" fill="#ff9800" opacity="0.85" rx="1"/>
<text x="594.0" y="178.3230174081238" text-anchor="middle" font-family="sans-serif" font-size="8" fill="#ff9800">前高</text>
<rect x="602.0" y="179.80077369439076" width="8" height="8" fill="#ff9800" opacity="0.85" rx="1"/>
<text x="606.0" y="177.80077369439076" text-anchor="middle" font-family="sans-serif" font-size="8" fill="#ff9800">前高</text>
<rect x="614.0" y="178.7562862669246" width="8" height="8" fill="#ff9800" opacity="0.85" rx="1"/>
<text x="618.0" y="176.7562862669246" text-anchor="middle" font-family="sans-serif" font-size="8" fill="#ff9800">前高</text>
<rect x="626.0" y="164.39458413926502" width="8" height="8" fill="#ff9800" opacity="0.85" rx="1"/>
<text x="630.0" y="162.39458413926502" text-anchor="middle" font-family="sans-serif" font-size="8" fill="#ff9800">前高</text>
<rect x="638.0" y="160.73887814313346" width="8" height="8" fill="#ff9800" opacity="0.85" rx="1"/>
<text x="642.0" y="158.73887814313346" text-anchor="middle" font-family="sans-serif" font-size="8" fill="#ff9800">前高</text>
<rect x="662.0" y="145.59381044487432" width="8" height="8" fill="#ff9800" opacity="0.85" rx="1"/>
<text x="666.0" y="143.59381044487432" text-anchor="middle" font-family="sans-serif" font-size="8" fill="#ff9800">前高</text>
<rect x="662.0" y="145.59381044487432" width="8" height="8" fill="#2196f3" opacity="0.85" rx="1"/>
<text x="666.0" y="143.59381044487432" text-anchor="middle" font-family="sans-serif" font-size="8" fill="#2196f3">突</text>
<rect x="674.0" y="141.9381044487428" width="8" height="8" fill="#ff9800" opacity="0.85" rx="1"/>
<text x="678.0" y="139.9381044487428" text-anchor="middle" font-family="sans-serif" font-size="8" fill="#ff9800">前高</text>
<rect x="686.0" y="125.22630560928434" width="8" height="8" fill="#ff9800" opacity="0.85" rx="1"/>
<text x="690.0" y="123.22630560928434" text-anchor="middle" font-family="sans-serif" font-size="8" fill="#ff9800">前高</text>
<rect x="698.0" y="106.94777562862673" width="8" height="8" fill="#ff9800" opacity="0.85" rx="1"/>
<text x="702.0" y="104.94777562862673" text-anchor="middle" font-family="sans-serif" font-size="8" fill="#ff9800">前高</text>
<rect x="734.0" y="103.55319148936177" width="8" height="8" fill="#ff9800" opacity="0.85" rx="1"/>
<text x="738.0" y="101.55319148936177" text-anchor="middle" font-family="sans-serif" font-size="8" fill="#ff9800">前高</text>
<rect x="758.0" y="70.1295938104449" width="8" height="8" fill="#ff9800" opacity="0.85" rx="1"/>
<text x="762.0" y="68.1295938104449" text-anchor="middle" font-family="sans-serif" font-size="8" fill="#ff9800">前高</text>
<rect x="770.0" y="26.0" width="8" height="8" fill="#ff9800" opacity="0.85" rx="1"/>
<text x="774.0" y="24.0" text-anchor="middle" font-family="sans-serif" font-size="8" fill="#ff9800">前高</text>
<rect x="770.0" y="26.0" width="8" height="8" fill="#2196f3" opacity="0.85" rx="1"/>
<text x="774.0" y="24.0" text-anchor="middle" font-family="sans-serif" font-size="8" fill="#2196f3">突</text>
<text x="66.0" y="359" text-anchor="middle" font-family="sans-serif" font-size="8" fill="#666666" transform="rotate(-40,66.0,359)">02/26</text>
<text x="138.0" y="359" text-anchor="middle" font-family="sans-serif" font-size="8" fill="#666666" transform="rotate(-40,138.0,359)">03/06</text>
<text x="210.0" y="359" text-anchor="middle" font-family="sans-serif" font-size="8" fill="#666666" transform="rotate(-40,210.0,359)">03/16</text>
<text x="282.0" y="359" text-anchor="middle" font-family="sans-serif" font-size="8" fill="#666666" transform="rotate(-40,282.0,359)">03/24</text>
<text x="354.0" y="359" text-anchor="middle" font-family="sans-serif" font-size="8" fill="#666666" transform="rotate(-40,354.0,359)">04/01</text>
<text x="426.0" y="359" text-anchor="middle" font-family="sans-serif" font-size="8" fill="#666666" transform="rotate(-40,426.0,359)">04/10</text>
<text x="498.0" y="359" text-anchor="middle" font-family="sans-serif" font-size="8" fill="#666666" transform="rotate(-40,498.0,359)">04/20</text>
<text x="570.0" y="359" text-anchor="middle" font-family="sans-serif" font-size="8" fill="#666666" transform="rotate(-40,570.0,359)">04/28</text>
<text x="642.0" y="359" text-anchor="middle" font-family="sans-serif" font-size="8" fill="#666666" transform="rotate(-40,642.0,359)">05/11</text>
<text x="714.0" y="359" text-anchor="middle" font-family="sans-serif" font-size="8" fill="#666666" transform="rotate(-40,714.0,359)">05/19</text>
<text x="774.0" y="359" text-anchor="middle" font-family="sans-serif" font-size="8" fill="#666666" transform="rotate(-40,774.0,359)">05/26</text>
<text x="400.0" y="396" text-anchor="middle" font-family="sans-serif" font-size="9" fill="#555555">数据截至: 2026-05-26 20:18  |  最新K线: 20260526</text>
<rect x="50" y="373" width="8" height="8" fill="#ffd700" opacity="0.8" rx="1"/>
<text x="61" y="380" font-family="sans-serif" font-size="9" fill="#888888">EMA5</text>
<rect x="150" y="373" width="8" height="8" fill="#ff6b6b" opacity="0.8" rx="1"/>
<text x="161" y="380" font-family="sans-serif" font-size="9" fill="#888888">EMA10</text>
<rect x="250" y="373" width="8" height="8" fill="#4ecdc4" opacity="0.8" rx="1"/>
<text x="261" y="380" font-family="sans-serif" font-size="9" fill="#888888">EMA20</text>
<rect x="350" y="373" width="8" height="8" fill="#2196f3" opacity="0.8" rx="1"/>
<text x="361" y="380" font-family="sans-serif" font-size="9" fill="#888888">突破</text>
<rect x="450" y="373" width="8" height="8" fill="#ff9800" opacity="0.8" rx="1"/>
<text x="461" y="380" font-family="sans-serif" font-size="9" fill="#888888">前高/量</text>
<rect x="550" y="373" width="8" height="8" fill="#4caf50" opacity="0.8" rx="1"/>
<text x="561" y="380" font-family="sans-serif" font-size="9" fill="#888888">前低</text>
</svg>