<svg xmlns="http://www.w3.org/2000/svg" width="800" height="400" viewBox="0 0 800 400">
<rect width="800" height="400" fill="#1a1a2e"/>
<text x="400.0" y="20" text-anchor="middle" font-family="sans-serif" font-size="14" fill="#ffffff" font-weight="bold">雷赛智能(002979) K线图</text>
<line x1="60" y1="30.0" x2="780" y2="30.0" stroke="#2a2a4e" stroke-width="0.5"/>
<text x="55" y="33.0" text-anchor="end" font-family="sans-serif" font-size="8" fill="#666666">66.94</text>
<line x1="60" y1="84.0" x2="780" y2="84.0" stroke="#2a2a4e" stroke-width="0.5"/>
<text x="55" y="87.0" text-anchor="end" font-family="sans-serif" font-size="8" fill="#666666">60.42</text>
<line x1="60" y1="138.0" x2="780" y2="138.0" stroke="#2a2a4e" stroke-width="0.5"/>
<text x="55" y="141.0" text-anchor="end" font-family="sans-serif" font-size="8" fill="#666666">53.89</text>
<line x1="60" y1="191.99999999999997" x2="780" y2="191.99999999999997" stroke="#2a2a4e" stroke-width="0.5"/>
<text x="55" y="194.99999999999997" text-anchor="end" font-family="sans-serif" font-size="8" fill="#666666">47.37</text>
<line x1="60" y1="245.99999999999997" x2="780" y2="245.99999999999997" stroke="#2a2a4e" stroke-width="0.5"/>
<text x="55" y="248.99999999999997" text-anchor="end" font-family="sans-serif" font-size="8" fill="#666666">40.84</text>
<line x1="60" y1="300.0" x2="780" y2="300.0" stroke="#2a2a4e" stroke-width="0.5"/>
<text x="55" y="303.0" text-anchor="end" font-family="sans-serif" font-size="8" fill="#666666">34.32</text>
<line x1="60" y1="300" x2="780" y2="300" stroke="#2a2a4e" stroke-width="0.5"/>
<line x1="60" y1="345" x2="780" y2="345" stroke="#2a2a4e" stroke-width="0.5"/>
<rect x="61.8" y="341.72727750300606" width="7.199999999999999" height="3.2727224969939357" fill="#44aa44" opacity="0.3"/>
<rect x="73.8" y="339.6892571824376" width="7.199999999999999" height="5.310742817562414" fill="#44aa44" opacity="0.3"/>
<rect x="85.8" y="338.0419953226114" width="7.199999999999999" height="6.958004677388601" fill="#44aa44" opacity="0.3"/>
<rect x="97.8" y="339.3865791634401" width="7.199999999999999" height="5.6134208365598965" fill="#44aa44" opacity="0.3"/>
<rect x="109.8" y="341.2746175787315" width="7.199999999999999" height="3.7253824212684776" fill="#ff4444" opacity="0.3"/>
<rect x="121.8" y="338.0133648012888" width="7.199999999999999" height="6.9866351987112125" fill="#ff4444" opacity="0.3"/>
<rect x="133.8" y="340.7038458096124" width="7.199999999999999" height="4.296154190387597" fill="#44aa44" opacity="0.3"/>
<rect x="145.8" y="341.371365976473" width="7.199999999999999" height="3.628634023527013" fill="#ff4444" opacity="0.3"/>
<rect x="157.8" y="341.22646226763845" width="7.199999999999999" height="3.7735377323615467" fill="#ff4444" opacity="0.3"/>
<rect x="169.8" y="341.97488335713535" width="7.199999999999999" height="3.0251166428646457" fill="#ff4444" opacity="0.3"/>
<rect x="181.8" y="342.42053887252365" width="7.199999999999999" height="2.5794611274763497" fill="#44aa44" opacity="0.3"/>
<rect x="193.8" y="339.1493923675291" width="7.199999999999999" height="5.850607632470883" fill="#ff4444" opacity="0.3"/>
<rect x="205.8" y="342.19263291838695" width="7.199999999999999" height="2.8073670816130516" fill="#44aa44" opacity="0.3"/>
<rect x="217.8" y="342.73696304396043" width="7.199999999999999" height="2.2630369560395707" fill="#44aa44" opacity="0.3"/>
<rect x="229.8" y="342.8647059510236" width="7.199999999999999" height="2.135294048976391" fill="#ff4444" opacity="0.3"/>
<rect x="241.8" y="342.2505068468097" width="7.199999999999999" height="2.749493153190315" fill="#44aa44" opacity="0.3"/>
<rect x="253.8" y="341.74671473766546" width="7.199999999999999" height="3.2532852623345434" fill="#44aa44" opacity="0.3"/>
<rect x="265.8" y="340.79017514913556" width="7.199999999999999" height="4.209824850864436" fill="#44aa44" opacity="0.3"/>
<rect x="277.8" y="341.65872185103177" width="7.199999999999999" height="3.341278148968229" fill="#44aa44" opacity="0.3"/>
<rect x="289.8" y="342.44864406317976" width="7.199999999999999" height="2.5513559368202436" fill="#ff4444" opacity="0.3"/>
<rect x="301.8" y="341.83917293496404" width="7.199999999999999" height="3.16082706503596" fill="#44aa44" opacity="0.3"/>
<rect x="313.8" y="342.9404411221063" width="7.199999999999999" height="2.0595588778937213" fill="#ff4444" opacity="0.3"/>
<rect x="325.8" y="343.15013561313873" width="7.199999999999999" height="1.8498643868612703" fill="#ff4444" opacity="0.3"/>
<rect x="337.8" y="342.7299586350742" width="7.199999999999999" height="2.2700413649258167" fill="#ff4444" opacity="0.3"/>
<rect x="349.8" y="341.522486098194" width="7.199999999999999" height="3.4775139018059917" fill="#ff4444" opacity="0.3"/>
<rect x="361.8" y="341.99178149357346" width="7.199999999999999" height="3.0082185064265445" fill="#ff4444" opacity="0.3"/>
<rect x="373.8" y="341.4828236328756" width="7.199999999999999" height="3.5171763671244207" fill="#ff4444" opacity="0.3"/>
<rect x="385.8" y="342.0193613535631" width="7.199999999999999" height="2.980638646436887" fill="#44aa44" opacity="0.3"/>
<rect x="397.8" y="339.20805429195156" width="7.199999999999999" height="5.791945708048445" fill="#ff4444" opacity="0.3"/>
<rect x="409.8" y="342.14193850907265" width="7.199999999999999" height="2.858061490927355" fill="#44aa44" opacity="0.3"/>
<rect x="421.8" y="337.80340764492314" width="7.199999999999999" height="7.196592355076859" fill="#ff4444" opacity="0.3"/>
<rect x="433.8" y="341.093903829466" width="7.199999999999999" height="3.906096170533999" fill="#ff4444" opacity="0.3"/>
<rect x="445.8" y="340.2564391920025" width="7.199999999999999" height="4.743560807997483" fill="#ff4444" opacity="0.3"/>
<rect x="457.8" y="341.2860872982828" width="7.199999999999999" height="3.71391270171722" fill="#44aa44" opacity="0.3"/>
<rect x="469.8" y="341.6511921114791" width="7.199999999999999" height="3.3488078885209234" fill="#ff4444" opacity="0.3"/>
<rect x="481.8" y="341.0693883983641" width="7.199999999999999" height="3.930611601635917" fill="#ff4444" opacity="0.3"/>
<rect x="493.8" y="341.48168541643156" width="7.199999999999999" height="3.51831458356844" fill="#44aa44" opacity="0.3"/>
<rect x="505.8" y="340.34810939330146" width="7.199999999999999" height="4.651890606698544" fill="#ff4444" opacity="0.3"/>
<rect x="517.8" y="340.7960413415778" width="7.199999999999999" height="4.203958658422209" fill="#ff4444" opacity="0.3"/>
<rect x="529.8" y="332.60552336554065" width="7.199999999999999" height="12.394476634459352" fill="#44aa44" opacity="0.3"/>
<rect x="541.8" y="337.4584405072749" width="7.199999999999999" height="7.541559492725128" fill="#44aa44" opacity="0.3"/>
<rect x="553.8" y="333.5561092065172" width="7.199999999999999" height="11.443890793482808" fill="#ff4444" opacity="0.3"/>
<rect x="565.8" y="337.79141259470543" width="7.199999999999999" height="7.2085874052945655" fill="#44aa44" opacity="0.3"/>
<rect x="577.8" y="339.4928710682891" width="7.199999999999999" height="5.507128931710895" fill="#ff4444" opacity="0.3"/>
<rect x="589.8" y="338.6139928632856" width="7.199999999999999" height="6.386007136714397" fill="#ff4444" opacity="0.3"/>
<rect x="601.8" y="336.42082488588653" width="7.199999999999999" height="8.579175114113468" fill="#ff4444" opacity="0.3"/>
<rect x="613.8" y="337.4791910686004" width="7.199999999999999" height="7.520808931399586" fill="#ff4444" opacity="0.3"/>
<rect x="625.8" y="316.57190609422486" width="7.199999999999999" height="28.428093905775143" fill="#ff4444" opacity="0.3"/>
<rect x="637.8" y="300.0" width="7.199999999999999" height="45.0" fill="#ff4444" opacity="0.3"/>
<rect x="649.8" y="319.7465668668112" width="7.199999999999999" height="25.25343313318882" fill="#44aa44" opacity="0.3"/>
<rect x="661.8" y="330.2272638833221" width="7.199999999999999" height="14.77273611667789" fill="#44aa44" opacity="0.3"/>
<rect x="673.8" y="324.85759647600406" width="7.199999999999999" height="20.142403523995938" fill="#ff4444" opacity="0.3"/>
<rect x="685.8" y="326.84395928103635" width="7.199999999999999" height="18.156040718963652" fill="#ff4444" opacity="0.3"/>
<rect x="697.8" y="306.99232628093125" width="7.199999999999999" height="38.00767371906875" fill="#ff4444" opacity="0.3"/>
<rect x="709.8" y="313.5866270269008" width="7.199999999999999" height="31.41337297309917" fill="#ff4444" opacity="0.3"/>
<rect x="721.8" y="316.96091345274556" width="7.199999999999999" height="28.039086547254442" fill="#44aa44" opacity="0.3"/>
<rect x="733.8" y="314.54544304831876" width="7.199999999999999" height="30.45455695168124" fill="#44aa44" opacity="0.3"/>
<rect x="745.8" y="319.68002498239167" width="7.199999999999999" height="25.31997501760833" fill="#44aa44" opacity="0.3"/>
<rect x="757.8" y="325.8350617360817" width="7.199999999999999" height="19.164938263918316" fill="#44aa44" opacity="0.3"/>
<rect x="769.8" y="315.14572088987126" width="7.199999999999999" height="29.854279110128743" fill="#44aa44" opacity="0.3"/>
<polyline points="66.0,251.91 78.0,253.79 90.0,259.34 102.0,267.10 114.0,272.60 126.0,270.07 138.0,270.17 150.0,271.12 162.0,269.07 174.0,267.63 186.0,268.62 198.0,267.47 210.0,268.35 222.0,270.71 234.0,271.34 246.0,274.33 258.0,279.41 270.0,284.75 282.0,286.88 294.0,287.78 306.0,288.07 318.0,288.32 330.0,289.48 342.0,289.46 354.0,286.96 366.0,285.46 378.0,282.74 390.0,282.26 402.0,277.22 414.0,275.54 426.0,270.09 438.0,266.32 450.0,262.29 462.0,261.37 474.0,259.54 486.0,257.66 498.0,257.01 510.0,254.37 522.0,250.57 534.0,246.27 546.0,242.25 558.0,233.49 570.0,232.02 582.0,229.43 594.0,226.58 606.0,223.27 618.0,219.35 630.0,204.32 642.0,182.17 654.0,168.22 666.0,160.72 678.0,151.86 690.0,130.94 702.0,102.40 714.0,79.78 726.0,73.64 738.0,70.49 750.0,73.30 762.0,74.98 774.0,81.23" fill="none" stroke="#ffd700" stroke-width="0.8" opacity="0.7"/>
<polyline points="66.0,251.91 78.0,252.93 90.0,256.12 102.0,260.94 114.0,265.06 126.0,265.05 138.0,266.01 150.0,267.29 162.0,266.87 174.0,266.48 186.0,267.23 198.0,266.86 210.0,267.45 222.0,268.90 234.0,269.57 246.0,271.52 258.0,274.80 270.0,278.56 282.0,280.85 294.0,282.43 306.0,283.56 318.0,284.52 330.0,285.85 342.0,286.49 354.0,285.67 366.0,285.08 378.0,283.67 390.0,283.24 402.0,280.31 414.0,278.84 426.0,275.26 438.0,272.27 450.0,268.99 462.0,267.27 474.0,265.20 486.0,263.14 498.0,261.79 510.0,259.48 522.0,256.48 534.0,253.06 546.0,249.63 558.0,243.51 570.0,240.89 582.0,237.86 594.0,234.78 606.0,231.48 618.0,227.85 630.0,218.11 642.0,203.52 654.0,192.03 666.0,183.61 678.0,174.61 690.0,159.06 702.0,138.38 714.0,119.50 726.0,108.93 738.0,100.80 750.0,96.82 762.0,93.46 774.0,93.51" fill="none" stroke="#ff6b6b" stroke-width="0.8" opacity="0.7"/>
<polyline points="66.0,251.91 78.0,252.45 90.0,254.16 102.0,256.87 114.0,259.42 126.0,259.95 138.0,260.94 150.0,262.09 162.0,262.37 174.0,262.59 186.0,263.36 198.0,263.53 210.0,264.16 222.0,265.23 234.0,265.93 246.0,267.30 258.0,269.42 270.0,271.90 282.0,273.73 294.0,275.24 306.0,276.52 318.0,277.69 330.0,279.03 342.0,280.02 354.0,280.21 366.0,280.42 378.0,280.13 390.0,280.24 402.0,278.99 414.0,278.34 426.0,276.52 438.0,274.83 450.0,272.87 462.0,271.60 474.0,270.10 486.0,268.56 498.0,267.33 510.0,265.60 522.0,263.44 534.0,260.99 546.0,258.44 558.0,254.39 570.0,251.98 582.0,249.34 594.0,246.63 606.0,243.77 618.0,240.70 630.0,234.38 642.0,225.18 654.0,217.10 666.0,210.30 678.0,203.05 690.0,192.20 702.0,178.21 714.0,164.53 726.0,154.70 738.0,146.08 750.0,139.68 762.0,133.84 774.0,130.02" fill="none" stroke="#4ecdc4" stroke-width="0.8" opacity="0.7"/>
<line x1="66.0" y1="249.84058859595336" x2="66.0" y2="253.39975475168606" stroke="#44aa44" stroke-width="0.5" opacity="0.6"/>
<rect x="63.0" y="250.66830165542612" width="6.0" height="1.241569589209064" fill="#44aa44" opacity="0.85"/>
<line x1="78.0" y1="252.48927038626607" x2="78.0" y2="257.95217657878607" stroke="#44aa44" stroke-width="0.5" opacity="0.6"/>
<rect x="75.0" y="252.5720416922134" width="6.0" height="4.966278356836227" fill="#44aa44" opacity="0.85"/>
<line x1="90.0" y1="262.00797057020236" x2="90.0" y2="272.8510116492949" stroke="#44aa44" stroke-width="0.5" opacity="0.6"/>
<rect x="87.0" y="262.9184549356223" width="6.0" height="7.532188841201673" fill="#44aa44" opacity="0.85"/>
<line x1="102.0" y1="267.30533415082766" x2="102.0" y2="283.1146535867566" stroke="#44aa44" stroke-width="0.5" opacity="0.6"/>
<rect x="99.0" y="268.71244635193136" width="6.0" height="13.905579399141573" fill="#44aa44" opacity="0.85"/>
<line x1="114.0" y1="280.3832004904966" x2="114.0" y2="285.76333537706927" stroke="#ff4444" stroke-width="0.5" opacity="0.6"/>
<rect x="111.0" y="283.61128142244024" width="6.0" height="0.5" fill="#ff4444" opacity="0.85"/>
<line x1="126.0" y1="262.4218270999387" x2="126.0" y2="281.0453709380748" stroke="#ff4444" stroke-width="0.5" opacity="0.6"/>
<rect x="123.0" y="264.9877375843041" width="6.0" height="11.091354996934399" fill="#ff4444" opacity="0.85"/>
<line x1="138.0" y1="264.5738810545677" x2="138.0" y2="272.3543838136113" stroke="#44aa44" stroke-width="0.5" opacity="0.6"/>
<rect x="135.0" y="268.71244635193136" width="6.0" height="1.6554261189453996" fill="#44aa44" opacity="0.85"/>
<line x1="150.0" y1="272.3543838136113" x2="150.0" y2="280.7142857142857" stroke="#ff4444" stroke-width="0.5" opacity="0.6"/>
<rect x="147.0" y="273.01655426118947" width="6.0" height="3.310852237890856" fill="#ff4444" opacity="0.85"/>
<line x1="162.0" y1="264.4083384426732" x2="162.0" y2="271.6094420600858" stroke="#ff4444" stroke-width="0.5" opacity="0.6"/>
<rect x="159.0" y="264.9877375843041" width="6.0" height="4.63519313304721" fill="#ff4444" opacity="0.85"/>
<line x1="174.0" y1="263.1667688534641" x2="174.0" y2="267.30533415082766" stroke="#ff4444" stroke-width="0.5" opacity="0.6"/>
<rect x="171.0" y="264.7394236664623" width="6.0" height="1.4071122011036437" fill="#ff4444" opacity="0.85"/>
<line x1="186.0" y1="264.4911097486205" x2="186.0" y2="271.7749846719804" stroke="#44aa44" stroke-width="0.5" opacity="0.6"/>
<rect x="183.0" y="266.3948497854077" width="6.0" height="4.221336603310874" fill="#44aa44" opacity="0.85"/>
<line x1="198.0" y1="255.13795217657875" x2="198.0" y2="273.6787247087676" stroke="#ff4444" stroke-width="0.5" opacity="0.6"/>
<rect x="195.0" y="265.15328019619864" width="6.0" height="5.462906192519938" fill="#ff4444" opacity="0.85"/>
<line x1="210.0" y1="265.56713672593503" x2="210.0" y2="273.6787247087676" stroke="#44aa44" stroke-width="0.5" opacity="0.6"/>
<rect x="207.0" y="265.73267933782955" width="6.0" height="4.386879215205397" fill="#44aa44" opacity="0.85"/>
<line x1="222.0" y1="267.0570202329859" x2="222.0" y2="275.41692213366036" stroke="#44aa44" stroke-width="0.5" opacity="0.6"/>
<rect x="219.0" y="268.29858982219497" width="6.0" height="7.1183323114653945" fill="#44aa44" opacity="0.85"/>
<line x1="234.0" y1="271.8577559779277" x2="234.0" y2="277.7345187001839" stroke="#ff4444" stroke-width="0.5" opacity="0.6"/>
<rect x="231.0" y="272.6026977314531" width="6.0" height="1.3243408951564106" fill="#ff4444" opacity="0.85"/>
<line x1="246.0" y1="273.8442673206622" x2="246.0" y2="281.9558553034948" stroke="#44aa44" stroke-width="0.5" opacity="0.6"/>
<rect x="243.0" y="274.4236664622931" width="6.0" height="5.876762722256217" fill="#44aa44" opacity="0.85"/>
<line x1="258.0" y1="277.9828326180258" x2="258.0" y2="289.5708154506438" stroke="#44aa44" stroke-width="0.5" opacity="0.6"/>
<rect x="255.0" y="278.5622317596567" width="6.0" height="11.008583690987109" fill="#44aa44" opacity="0.85"/>
<line x1="270.0" y1="285.26670754138564" x2="270.0" y2="297.59963212752916" stroke="#44aa44" stroke-width="0.5" opacity="0.6"/>
<rect x="267.0" y="294.20600858369096" width="6.0" height="1.2415695892091207" fill="#44aa44" opacity="0.85"/>
<line x1="282.0" y1="287.33599019006743" x2="282.0" y2="300.0" stroke="#44aa44" stroke-width="0.5" opacity="0.6"/>
<rect x="279.0" y="289.98467198038014" width="6.0" height="1.1587982832618309" fill="#44aa44" opacity="0.85"/>
<line x1="294.0" y1="286.3427345187002" x2="294.0" y2="291.3090128755365" stroke="#ff4444" stroke-width="0.5" opacity="0.6"/>
<rect x="291.0" y="289.5708154506438" width="6.0" height="1.4898835070508767" fill="#ff4444" opacity="0.85"/>
<line x1="306.0" y1="281.37645616186387" x2="306.0" y2="289.322501532802" stroke="#44aa44" stroke-width="0.5" opacity="0.6"/>
<rect x="303.0" y="286.9221336603311" width="6.0" height="1.7381974248927463" fill="#44aa44" opacity="0.85"/>
<line x1="318.0" y1="286.6738197424893" x2="318.0" y2="294.2887798896383" stroke="#ff4444" stroke-width="0.5" opacity="0.6"/>
<rect x="315.0" y="288.8258736971183" width="6.0" height="5.462906192519995" fill="#ff4444" opacity="0.85"/>
<line x1="330.0" y1="288.9086450030656" x2="330.0" y2="294.37155119558554" stroke="#ff4444" stroke-width="0.5" opacity="0.6"/>
<rect x="327.0" y="291.8056407112201" width="6.0" height="1.076026977314541" fill="#ff4444" opacity="0.85"/>
<line x1="342.0" y1="286.09442060085837" x2="342.0" y2="291.97118332311464" stroke="#ff4444" stroke-width="0.5" opacity="0.6"/>
<rect x="339.0" y="289.4052728387492" width="6.0" height="2.317596566523605" fill="#ff4444" opacity="0.85"/>
<line x1="354.0" y1="279.0588595953403" x2="354.0" y2="287.2532188841202" stroke="#ff4444" stroke-width="0.5" opacity="0.6"/>
<rect x="351.0" y="281.9558553034948" width="6.0" height="3.310852237890856" fill="#ff4444" opacity="0.85"/>
<line x1="366.0" y1="280.87982832618025" x2="366.0" y2="286.9221336603311" stroke="#ff4444" stroke-width="0.5" opacity="0.6"/>
<rect x="363.0" y="282.4524831391784" width="6.0" height="0.9104843654200181" fill="#ff4444" opacity="0.85"/>
<line x1="378.0" y1="275.58246474555483" x2="378.0" y2="283.61128142244024" stroke="#ff4444" stroke-width="0.5" opacity="0.6"/>
<rect x="375.0" y="277.3206621704476" width="6.0" height="5.214592274678125" fill="#ff4444" opacity="0.85"/>
<line x1="390.0" y1="275.4996934396076" x2="390.0" y2="284.3562231759656" stroke="#44aa44" stroke-width="0.5" opacity="0.6"/>
<rect x="387.0" y="276.16186388718575" width="6.0" height="5.131820968730892" fill="#44aa44" opacity="0.85"/>
<line x1="402.0" y1="264.9877375843041" x2="402.0" y2="278.3139178418148" stroke="#ff4444" stroke-width="0.5" opacity="0.6"/>
<rect x="399.0" y="267.1397915389332" width="6.0" height="9.849785407725278" fill="#ff4444" opacity="0.85"/>
<line x1="414.0" y1="270.03678724708766" x2="414.0" y2="273.3476394849786" stroke="#44aa44" stroke-width="0.5" opacity="0.6"/>
<rect x="411.0" y="270.69895769466586" width="6.0" height="1.4898835070508767" fill="#44aa44" opacity="0.85"/>
<line x1="426.0" y1="254.80686695278968" x2="426.0" y2="270.36787247087676" stroke="#ff4444" stroke-width="0.5" opacity="0.6"/>
<rect x="423.0" y="259.1937461679951" width="6.0" height="11.091354996934456" fill="#ff4444" opacity="0.85"/>
<line x1="438.0" y1="255.46903740036782" x2="438.0" y2="263.33231146535866" stroke="#ff4444" stroke-width="0.5" opacity="0.6"/>
<rect x="435.0" y="258.77988963825874" width="6.0" height="3.559166155732669" fill="#ff4444" opacity="0.85"/>
<line x1="450.0" y1="253.39975475168606" x2="450.0" y2="258.862660944206" stroke="#ff4444" stroke-width="0.5" opacity="0.6"/>
<rect x="447.0" y="254.22746781115876" width="6.0" height="3.3936235438382027" fill="#ff4444" opacity="0.85"/>
<line x1="462.0" y1="252.5720416922134" x2="462.0" y2="260.2697731453096" stroke="#44aa44" stroke-width="0.5" opacity="0.6"/>
<rect x="459.0" y="253.97915389331698" width="6.0" height="5.5456774984671995" fill="#44aa44" opacity="0.85"/>
<line x1="474.0" y1="254.39301042305334" x2="474.0" y2="258.77988963825874" stroke="#ff4444" stroke-width="0.5" opacity="0.6"/>
<rect x="471.0" y="255.88289393010425" width="6.0" height="1.3243408951563254" fill="#ff4444" opacity="0.85"/>
<line x1="486.0" y1="252.98589822194972" x2="486.0" y2="257.95217657878607" stroke="#ff4444" stroke-width="0.5" opacity="0.6"/>
<rect x="483.0" y="253.8963825873697" width="6.0" height="2.648681790312679" fill="#ff4444" opacity="0.85"/>
<line x1="498.0" y1="251.41324340895156" x2="498.0" y2="256.79337829552423" stroke="#44aa44" stroke-width="0.5" opacity="0.6"/>
<rect x="495.0" y="251.74432863274066" width="6.0" height="3.9730226854690045" fill="#44aa44" opacity="0.85"/>
<line x1="510.0" y1="247.274678111588" x2="510.0" y2="258.531575720417" stroke="#ff4444" stroke-width="0.5" opacity="0.6"/>
<rect x="507.0" y="249.09564684242798" width="6.0" height="7.2011036174126275" fill="#ff4444" opacity="0.85"/>
<line x1="522.0" y1="240.73574494175352" x2="522.0" y2="251.49601471489885" stroke="#ff4444" stroke-width="0.5" opacity="0.6"/>
<rect x="519.0" y="242.97057020232987" width="6.0" height="8.359901900674402" fill="#ff4444" opacity="0.85"/>
<line x1="534.0" y1="223.76762722256282" x2="534.0" y2="238.58369098712444" stroke="#44aa44" stroke-width="0.5" opacity="0.6"/>
<rect x="531.0" y="229.64438994481912" width="6.0" height="8.028816676885327" fill="#44aa44" opacity="0.85"/>
<line x1="546.0" y1="229.47884733292457" x2="546.0" y2="237.5904353157572" stroke="#44aa44" stroke-width="0.5" opacity="0.6"/>
<rect x="543.0" y="232.37584304107907" width="6.0" height="1.8209687308399793" fill="#44aa44" opacity="0.85"/>
<line x1="558.0" y1="214.74555487431027" x2="558.0" y2="232.29307173513183" stroke="#ff4444" stroke-width="0.5" opacity="0.6"/>
<rect x="555.0" y="215.98712446351934" width="6.0" height="16.305947271612496" fill="#ff4444" opacity="0.85"/>
<line x1="570.0" y1="218.55303494788475" x2="570.0" y2="231.21704475781726" stroke="#44aa44" stroke-width="0.5" opacity="0.6"/>
<rect x="567.0" y="220.8706315144083" width="6.0" height="8.194359288779907" fill="#44aa44" opacity="0.85"/>
<line x1="582.0" y1="217.55977927651747" x2="582.0" y2="230.55487431023911" stroke="#ff4444" stroke-width="0.5" opacity="0.6"/>
<rect x="579.0" y="224.2642550582465" width="6.0" height="5.5456774984671995" fill="#ff4444" opacity="0.85"/>
<line x1="594.0" y1="217.31146535867563" x2="594.0" y2="228.15450643776822" stroke="#ff4444" stroke-width="0.5" opacity="0.6"/>
<rect x="591.0" y="220.8706315144083" width="6.0" height="3.1453096259963615" fill="#ff4444" opacity="0.85"/>
<line x1="606.0" y1="211.6002452483139" x2="606.0" y2="221.8638871857756" stroke="#ff4444" stroke-width="0.5" opacity="0.6"/>
<rect x="603.0" y="216.64929491109748" width="6.0" height="3.2280809319435946" fill="#ff4444" opacity="0.85"/>
<line x1="618.0" y1="210.02759043531577" x2="618.0" y2="221.45003065603922" stroke="#ff4444" stroke-width="0.5" opacity="0.6"/>
<rect x="615.0" y="211.51747394236665" width="6.0" height="5.214592274678097" fill="#ff4444" opacity="0.85"/>
<line x1="630.0" y1="174.27038626609442" x2="630.0" y2="199.0190067443286" stroke="#ff4444" stroke-width="0.5" opacity="0.6"/>
<rect x="627.0" y="174.27038626609442" width="6.0" height="24.748620478234187" fill="#ff4444" opacity="0.85"/>
<line x1="642.0" y1="133.29858982219497" x2="642.0" y2="177.00183936235436" stroke="#ff4444" stroke-width="0.5" opacity="0.6"/>
<rect x="639.0" y="137.85101164929495" width="6.0" height="31.784181483752263" fill="#ff4444" opacity="0.85"/>
<line x1="654.0" y1="127.17351318209684" x2="654.0" y2="146.79031269160026" stroke="#44aa44" stroke-width="0.5" opacity="0.6"/>
<rect x="651.0" y="137.10606989576945" width="6.0" height="3.228080931943623" fill="#44aa44" opacity="0.85"/>
<line x1="666.0" y1="137.93378295524218" x2="666.0" y2="148.19742489270388" stroke="#44aa44" stroke-width="0.5" opacity="0.6"/>
<rect x="663.0" y="140.25137952176578" width="6.0" height="5.46290619251991" fill="#44aa44" opacity="0.85"/>
<line x1="678.0" y1="116.41324340895156" x2="678.0" y2="143.89331698344574" stroke="#ff4444" stroke-width="0.5" opacity="0.6"/>
<rect x="675.0" y="134.1263028816677" width="6.0" height="3.7247087676272486" fill="#ff4444" opacity="0.85"/>
<line x1="690.0" y1="89.09871244635194" x2="690.0" y2="131.477621091355" stroke="#ff4444" stroke-width="0.5" opacity="0.6"/>
<rect x="687.0" y="89.09871244635194" width="6.0" height="39.73022685469034" fill="#ff4444" opacity="0.85"/>
<line x1="702.0" y1="39.60147148988348" x2="702.0" y2="75.02759043531574" stroke="#ff4444" stroke-width="0.5" opacity="0.6"/>
<rect x="699.0" y="45.3126916002452" width="6.0" height="28.969957081545076" fill="#ff4444" opacity="0.85"/>
<line x1="714.0" y1="30.0" x2="714.0" y2="52.67933782955238" stroke="#ff4444" stroke-width="0.5" opacity="0.6"/>
<rect x="711.0" y="34.55242182709991" width="6.0" height="11.505211526670763" fill="#ff4444" opacity="0.85"/>
<line x1="726.0" y1="30.66217044757816" x2="726.0" y2="62.0324954015941" stroke="#44aa44" stroke-width="0.5" opacity="0.6"/>
<rect x="723.0" y="39.93255671367262" width="6.0" height="21.437768240343324" fill="#44aa44" opacity="0.85"/>
<line x1="738.0" y1="34.88350705088905" x2="738.0" y2="74.44819129368484" stroke="#44aa44" stroke-width="0.5" opacity="0.6"/>
<rect x="735.0" y="62.44635193133043" width="6.0" height="1.7381974248926966" fill="#44aa44" opacity="0.85"/>
<line x1="750.0" y1="62.860208461066826" x2="750.0" y2="88.35377069282646" stroke="#44aa44" stroke-width="0.5" opacity="0.6"/>
<rect x="747.0" y="64.43286327406497" width="6.0" height="14.48497854077253" fill="#44aa44" opacity="0.85"/>
<line x1="762.0" y1="69.97854077253217" x2="762.0" y2="88.51931330472104" stroke="#44aa44" stroke-width="0.5" opacity="0.6"/>
<rect x="759.0" y="75.110361741263" width="6.0" height="3.2280809319435946" fill="#44aa44" opacity="0.85"/>
<line x1="774.0" y1="62.611894543225" x2="774.0" y2="102.34212139791536" stroke="#44aa44" stroke-width="0.5" opacity="0.6"/>
<rect x="771.0" y="77.2624156958921" width="6.0" height="16.471489883507004" fill="#44aa44" opacity="0.85"/>
<rect x="242.0" y="277.9558553034948" width="8" height="8" fill="#4caf50" opacity="0.85" rx="1"/>
<text x="246.0" y="275.9558553034948" text-anchor="middle" font-family="sans-serif" font-size="8" fill="#4caf50">前低</text>
<rect x="254.0" y="285.5708154506438" width="8" height="8" fill="#4caf50" opacity="0.85" rx="1"/>
<text x="258.0" y="283.5708154506438" text-anchor="middle" font-family="sans-serif" font-size="8" fill="#4caf50">前低</text>
<rect x="266.0" y="293.59963212752916" width="8" height="8" fill="#4caf50" opacity="0.85" rx="1"/>
<text x="270.0" y="291.59963212752916" text-anchor="middle" font-family="sans-serif" font-size="8" fill="#4caf50">前低</text>
<rect x="278.0" y="296.0" width="8" height="8" fill="#4caf50" opacity="0.85" rx="1"/>
<text x="282.0" y="294.0" text-anchor="middle" font-family="sans-serif" font-size="8" fill="#4caf50">前低</text>
<rect x="374.0" y="271.58246474555483" width="8" height="8" fill="#ff9800" opacity="0.85" rx="1"/>
<text x="378.0" y="269.58246474555483" text-anchor="middle" font-family="sans-serif" font-size="8" fill="#ff9800">前高</text>
<rect x="374.0" y="271.58246474555483" width="8" height="8" fill="#2196f3" opacity="0.85" rx="1"/>
<text x="378.0" y="269.58246474555483" text-anchor="middle" font-family="sans-serif" font-size="8" fill="#2196f3">突</text>
<rect x="386.0" y="271.4996934396076" width="8" height="8" fill="#ff9800" opacity="0.85" rx="1"/>
<text x="390.0" y="269.4996934396076" text-anchor="middle" font-family="sans-serif" font-size="8" fill="#ff9800">前高</text>
<rect x="398.0" y="260.9877375843041" width="8" height="8" fill="#ff9800" opacity="0.85" rx="1"/>
<text x="402.0" y="258.9877375843041" text-anchor="middle" font-family="sans-serif" font-size="8" fill="#ff9800">前高</text>
<rect x="398.0" y="254.32464745554876" width="8" height="8" fill="#ff9800" opacity="0.85" rx="1"/>
<text x="402.0" y="252.32464745554876" text-anchor="middle" font-family="sans-serif" font-size="8" fill="#ff9800">量</text>
<rect x="398.0" y="260.9877375843041" width="8" height="8" fill="#2196f3" opacity="0.85" rx="1"/>
<text x="402.0" y="258.9877375843041" text-anchor="middle" font-family="sans-serif" font-size="8" fill="#2196f3">突</text>
<rect x="422.0" y="250.80686695278968" width="8" height="8" fill="#ff9800" opacity="0.85" rx="1"/>
<text x="426.0" y="248.80686695278968" text-anchor="middle" font-family="sans-serif" font-size="8" fill="#ff9800">前高</text>
<rect x="422.0" y="250.80686695278968" width="8" height="8" fill="#2196f3" opacity="0.85" rx="1"/>
<text x="426.0" y="248.80686695278968" text-anchor="middle" font-family="sans-serif" font-size="8" fill="#2196f3">突</text>
<rect x="446.0" y="249.39975475168606" width="8" height="8" fill="#ff9800" opacity="0.85" rx="1"/>
<text x="450.0" y="247.39975475168606" text-anchor="middle" font-family="sans-serif" font-size="8" fill="#ff9800">前高</text>
<rect x="446.0" y="249.39975475168606" width="8" height="8" fill="#2196f3" opacity="0.85" rx="1"/>
<text x="450.0" y="247.39975475168606" text-anchor="middle" font-family="sans-serif" font-size="8" fill="#2196f3">突</text>
<rect x="458.0" y="248.5720416922134" width="8" height="8" fill="#ff9800" opacity="0.85" rx="1"/>
<text x="462.0" y="246.5720416922134" text-anchor="middle" font-family="sans-serif" font-size="8" fill="#ff9800">前高</text>
<rect x="494.0" y="247.41324340895156" width="8" height="8" fill="#ff9800" opacity="0.85" rx="1"/>
<text x="498.0" y="245.41324340895156" text-anchor="middle" font-family="sans-serif" font-size="8" fill="#ff9800">前高</text>
<rect x="506.0" y="243.274678111588" width="8" height="8" fill="#ff9800" opacity="0.85" rx="1"/>
<text x="510.0" y="241.274678111588" text-anchor="middle" font-family="sans-serif" font-size="8" fill="#ff9800">前高</text>
<rect x="506.0" y="243.274678111588" width="8" height="8" fill="#2196f3" opacity="0.85" rx="1"/>
<text x="510.0" y="241.274678111588" text-anchor="middle" font-family="sans-serif" font-size="8" fill="#2196f3">突</text>
<rect x="518.0" y="236.73574494175352" width="8" height="8" fill="#ff9800" opacity="0.85" rx="1"/>
<text x="522.0" y="234.73574494175352" text-anchor="middle" font-family="sans-serif" font-size="8" fill="#ff9800">前高</text>
<rect x="518.0" y="236.73574494175352" width="8" height="8" fill="#2196f3" opacity="0.85" rx="1"/>
<text x="522.0" y="234.73574494175352" text-anchor="middle" font-family="sans-serif" font-size="8" fill="#2196f3">突</text>
<rect x="530.0" y="219.76762722256282" width="8" height="8" fill="#ff9800" opacity="0.85" rx="1"/>
<text x="534.0" y="217.76762722256282" text-anchor="middle" font-family="sans-serif" font-size="8" fill="#ff9800">前高</text>
<rect x="530.0" y="212.35959534028206" width="8" height="8" fill="#ff9800" opacity="0.85" rx="1"/>
<text x="534.0" y="210.35959534028206" text-anchor="middle" font-family="sans-serif" font-size="8" fill="#ff9800">量</text>
<rect x="554.0" y="210.74555487431027" width="8" height="8" fill="#ff9800" opacity="0.85" rx="1"/>
<text x="558.0" y="208.74555487431027" text-anchor="middle" font-family="sans-serif" font-size="8" fill="#ff9800">前高</text>
<rect x="554.0" y="210.74555487431027" width="8" height="8" fill="#2196f3" opacity="0.85" rx="1"/>
<text x="558.0" y="208.74555487431027" text-anchor="middle" font-family="sans-serif" font-size="8" fill="#2196f3">突</text>
<rect x="602.0" y="207.6002452483139" width="8" height="8" fill="#ff9800" opacity="0.85" rx="1"/>
<text x="606.0" y="205.6002452483139" text-anchor="middle" font-family="sans-serif" font-size="8" fill="#ff9800">前高</text>
<rect x="614.0" y="206.02759043531577" width="8" height="8" fill="#ff9800" opacity="0.85" rx="1"/>
<text x="618.0" y="204.02759043531577" text-anchor="middle" font-family="sans-serif" font-size="8" fill="#ff9800">前高</text>
<rect x="614.0" y="206.02759043531577" width="8" height="8" fill="#2196f3" opacity="0.85" rx="1"/>
<text x="618.0" y="204.02759043531577" text-anchor="middle" font-family="sans-serif" font-size="8" fill="#2196f3">突</text>
<rect x="626.0" y="170.27038626609442" width="8" height="8" fill="#ff9800" opacity="0.85" rx="1"/>
<text x="630.0" y="168.27038626609442" text-anchor="middle" font-family="sans-serif" font-size="8" fill="#ff9800">前高</text>
<rect x="626.0" y="157.89607602697734" width="8" height="8" fill="#ff9800" opacity="0.85" rx="1"/>
<text x="630.0" y="155.89607602697734" text-anchor="middle" font-family="sans-serif" font-size="8" fill="#ff9800">量</text>
<rect x="626.0" y="170.27038626609442" width="8" height="8" fill="#2196f3" opacity="0.85" rx="1"/>
<text x="630.0" y="168.27038626609442" text-anchor="middle" font-family="sans-serif" font-size="8" fill="#2196f3">突</text>
<rect x="638.0" y="129.29858982219497" width="8" height="8" fill="#ff9800" opacity="0.85" rx="1"/>
<text x="642.0" y="127.29858982219497" text-anchor="middle" font-family="sans-serif" font-size="8" fill="#ff9800">前高</text>
<rect x="638.0" y="107.44696505211525" width="8" height="8" fill="#ff9800" opacity="0.85" rx="1"/>
<text x="642.0" y="105.44696505211525" text-anchor="middle" font-family="sans-serif" font-size="8" fill="#ff9800">量</text>
<rect x="638.0" y="129.29858982219497" width="8" height="8" fill="#2196f3" opacity="0.85" rx="1"/>
<text x="642.0" y="127.29858982219497" text-anchor="middle" font-family="sans-serif" font-size="8" fill="#2196f3">突</text>
<rect x="650.0" y="123.17351318209684" width="8" height="8" fill="#ff9800" opacity="0.85" rx="1"/>
<text x="654.0" y="121.17351318209684" text-anchor="middle" font-family="sans-serif" font-size="8" fill="#ff9800">前高</text>
<rect x="674.0" y="112.41324340895156" width="8" height="8" fill="#ff9800" opacity="0.85" rx="1"/>
<text x="678.0" y="110.41324340895156" text-anchor="middle" font-family="sans-serif" font-size="8" fill="#ff9800">前高</text>
<rect x="686.0" y="85.09871244635194" width="8" height="8" fill="#ff9800" opacity="0.85" rx="1"/>
<text x="690.0" y="83.09871244635194" text-anchor="middle" font-family="sans-serif" font-size="8" fill="#ff9800">前高</text>
<rect x="686.0" y="85.09871244635194" width="8" height="8" fill="#2196f3" opacity="0.85" rx="1"/>
<text x="690.0" y="83.09871244635194" text-anchor="middle" font-family="sans-serif" font-size="8" fill="#2196f3">突</text>
<rect x="698.0" y="35.60147148988348" width="8" height="8" fill="#ff9800" opacity="0.85" rx="1"/>
<text x="702.0" y="33.60147148988348" text-anchor="middle" font-family="sans-serif" font-size="8" fill="#ff9800">前高</text>
<rect x="698.0" y="35.60147148988348" width="8" height="8" fill="#2196f3" opacity="0.85" rx="1"/>
<text x="702.0" y="33.60147148988348" text-anchor="middle" font-family="sans-serif" font-size="8" fill="#2196f3">突</text>
<rect x="710.0" y="26.0" width="8" height="8" fill="#ff9800" opacity="0.85" rx="1"/>
<text x="714.0" y="24.0" text-anchor="middle" font-family="sans-serif" font-size="8" fill="#ff9800">前高</text>
<rect x="710.0" y="26.0" width="8" height="8" fill="#2196f3" opacity="0.85" rx="1"/>
<text x="714.0" y="24.0" text-anchor="middle" font-family="sans-serif" font-size="8" fill="#2196f3">突</text>
<text x="66.0" y="359" text-anchor="middle" font-family="sans-serif" font-size="8" fill="#666666" transform="rotate(-40,66.0,359)">02/26</text>
<text x="138.0" y="359" text-anchor="middle" font-family="sans-serif" font-size="8" fill="#666666" transform="rotate(-40,138.0,359)">03/06</text>
<text x="210.0" y="359" text-anchor="middle" font-family="sans-serif" font-size="8" fill="#666666" transform="rotate(-40,210.0,359)">03/16</text>
<text x="282.0" y="359" text-anchor="middle" font-family="sans-serif" font-size="8" fill="#666666" transform="rotate(-40,282.0,359)">03/24</text>
<text x="354.0" y="359" text-anchor="middle" font-family="sans-serif" font-size="8" fill="#666666" transform="rotate(-40,354.0,359)">04/01</text>
<text x="426.0" y="359" text-anchor="middle" font-family="sans-serif" font-size="8" fill="#666666" transform="rotate(-40,426.0,359)">04/10</text>
<text x="498.0" y="359" text-anchor="middle" font-family="sans-serif" font-size="8" fill="#666666" transform="rotate(-40,498.0,359)">04/20</text>
<text x="570.0" y="359" text-anchor="middle" font-family="sans-serif" font-size="8" fill="#666666" transform="rotate(-40,570.0,359)">04/28</text>
<text x="642.0" y="359" text-anchor="middle" font-family="sans-serif" font-size="8" fill="#666666" transform="rotate(-40,642.0,359)">05/11</text>
<text x="714.0" y="359" text-anchor="middle" font-family="sans-serif" font-size="8" fill="#666666" transform="rotate(-40,714.0,359)">05/19</text>
<text x="774.0" y="359" text-anchor="middle" font-family="sans-serif" font-size="8" fill="#666666" transform="rotate(-40,774.0,359)">05/26</text>
<text x="400.0" y="396" text-anchor="middle" font-family="sans-serif" font-size="9" fill="#555555">数据截至: 2026-05-26 20:53  |  最新K线: 20260526</text>
<rect x="50" y="373" width="8" height="8" fill="#ffd700" opacity="0.8" rx="1"/>
<text x="61" y="380" font-family="sans-serif" font-size="9" fill="#888888">EMA5</text>
<rect x="150" y="373" width="8" height="8" fill="#ff6b6b" opacity="0.8" rx="1"/>
<text x="161" y="380" font-family="sans-serif" font-size="9" fill="#888888">EMA10</text>
<rect x="250" y="373" width="8" height="8" fill="#4ecdc4" opacity="0.8" rx="1"/>
<text x="261" y="380" font-family="sans-serif" font-size="9" fill="#888888">EMA20</text>
<rect x="350" y="373" width="8" height="8" fill="#2196f3" opacity="0.8" rx="1"/>
<text x="361" y="380" font-family="sans-serif" font-size="9" fill="#888888">突破</text>
<rect x="450" y="373" width="8" height="8" fill="#ff9800" opacity="0.8" rx="1"/>
<text x="461" y="380" font-family="sans-serif" font-size="9" fill="#888888">前高/量</text>
<rect x="550" y="373" width="8" height="8" fill="#4caf50" opacity="0.8" rx="1"/>
<text x="561" y="380" font-family="sans-serif" font-size="9" fill="#888888">前低</text>
</svg>