<svg xmlns="http://www.w3.org/2000/svg" width="750" height="540" viewBox="0 0 750 540">
<rect width="750" height="540" fill="#1a1a2e"/>
<text x="375.0" y="22" text-anchor="middle" font-family="sans-serif" font-size="15" fill="#ffffff" font-weight="bold">长川科技(300604) 趋势交易分析图</text>
<text x="60" y="31" font-family="sans-serif" font-size="10" fill="#888888">最新: 235.10</text>
<line x1="60" y1="80.47467185911022" x2="725" y2="80.47467185911022" stroke="#4ecdc4" stroke-width="0.5" stroke-dasharray="4,3" opacity="0.4"/>
<text x="62" y="78.47467185911022" font-family="sans-serif" font-size="7" fill="#4ecdc4" opacity="0.6">买入↑2%</text>
<line x1="60" y1="42.891042070256844" x2="725" y2="42.891042070256844" stroke="#e94560" stroke-width="0.5" stroke-dasharray="4,3" opacity="0.4"/>
<text x="62" y="40.891042070256844" font-family="sans-serif" font-size="7" fill="#e94560" opacity="0.6">警戒↑8%</text>
<rect x="60" y="80.47467185911022" width="3" height="302.52532814088977" fill="#4ecdc4" opacity="0.3" rx="1"/>
<rect x="60" y="42.891042070256844" width="3" height="340.10895792974316" fill="#e94560" opacity="0.3" rx="1"/>
<rect x="60" y="42.891042070256844" width="3" height="37.58362978885337" fill="#ffd700" opacity="0.2" rx="1"/>
<line x1="60" y1="32.0" x2="725" y2="32.0" stroke="#2a2a4e" stroke-width="0.5"/>
<text x="56" y="35.0" text-anchor="end" font-family="sans-serif" font-size="8" fill="#666666">258.7</text>
<line x1="60" y1="127.75" x2="725" y2="127.75" stroke="#2a2a4e" stroke-width="0.5"/>
<text x="56" y="130.75" text-anchor="end" font-family="sans-serif" font-size="8" fill="#666666">222.6</text>
<line x1="60" y1="223.5" x2="725" y2="223.5" stroke="#2a2a4e" stroke-width="0.5"/>
<text x="56" y="226.5" text-anchor="end" font-family="sans-serif" font-size="8" fill="#666666">186.6</text>
<line x1="60" y1="319.25" x2="725" y2="319.25" stroke="#2a2a4e" stroke-width="0.5"/>
<text x="56" y="322.25" text-anchor="end" font-family="sans-serif" font-size="8" fill="#666666">150.6</text>
<line x1="60" y1="415.0" x2="725" y2="415.0" stroke="#2a2a4e" stroke-width="0.5"/>
<text x="56" y="418.0" text-anchor="end" font-family="sans-serif" font-size="8" fill="#666666">114.6</text>
<rect x="61.66250000000001" y="446.35577667607777" width="6.095833333333334" height="28.644223323922212" fill="#ff4444" opacity="0.35"/>
<rect x="72.74583333333334" y="456.45747268112166" width="6.095833333333334" height="18.54252731887836" fill="#ff4444" opacity="0.35"/>
<rect x="83.82916666666668" y="457.95486022509806" width="6.095833333333334" height="17.045139774901923" fill="#44aa44" opacity="0.35"/>
<rect x="94.91250000000001" y="456.4703259303352" width="6.095833333333334" height="18.5296740696648" fill="#44aa44" opacity="0.35"/>
<rect x="105.99583333333335" y="462.8176631762171" width="6.095833333333334" height="12.182336823782899" fill="#ff4444" opacity="0.35"/>
<rect x="117.07916666666668" y="461.2741904533211" width="6.095833333333334" height="13.725809546678848" fill="#44aa44" opacity="0.35"/>
<rect x="128.1625" y="465.36757364724497" width="6.095833333333334" height="9.63242635275505" fill="#44aa44" opacity="0.35"/>
<rect x="139.24583333333334" y="458.85234171664655" width="6.095833333333334" height="16.147658283353433" fill="#ff4444" opacity="0.35"/>
<rect x="150.32916666666668" y="461.68699743207" width="6.095833333333334" height="13.313002567930049" fill="#ff4444" opacity="0.35"/>
<rect x="161.4125" y="461.8335101941955" width="6.095833333333334" height="13.166489805804499" fill="#44aa44" opacity="0.35"/>
<rect x="172.49583333333334" y="461.9616879446847" width="6.095833333333334" height="13.038312055315302" fill="#44aa44" opacity="0.35"/>
<rect x="183.57916666666668" y="464.53543155102165" width="6.095833333333334" height="10.464568448978365" fill="#ff4444" opacity="0.35"/>
<rect x="194.6625" y="461.79633371586783" width="6.095833333333334" height="13.203666284132144" fill="#44aa44" opacity="0.35"/>
<rect x="205.74583333333334" y="463.7233914814281" width="6.095833333333334" height="11.2766085185719" fill="#44aa44" opacity="0.35"/>
<rect x="216.82916666666668" y="459.26109408018317" width="6.095833333333334" height="15.73890591981683" fill="#ff4444" opacity="0.35"/>
<rect x="227.9125" y="463.8742474117193" width="6.095833333333334" height="11.125752588280683" fill="#44aa44" opacity="0.35"/>
<rect x="238.99583333333334" y="461.85446077474256" width="6.095833333333334" height="13.145539225257417" fill="#44aa44" opacity="0.35"/>
<rect x="250.07916666666668" y="461.2474308853525" width="6.095833333333334" height="13.752569114647507" fill="#44aa44" opacity="0.35"/>
<rect x="261.1625" y="463.98360377523306" width="6.095833333333334" height="11.016396224766941" fill="#ff4444" opacity="0.35"/>
<rect x="272.2458333333334" y="462.5058445253313" width="6.095833333333334" height="12.494155474668652" fill="#ff4444" opacity="0.35"/>
<rect x="283.3291666666667" y="466.9365081935121" width="6.095833333333334" height="8.06349180648789" fill="#44aa44" opacity="0.35"/>
<rect x="294.4125" y="466.4602195649994" width="6.095833333333334" height="8.539780435000589" fill="#ff4444" opacity="0.35"/>
<rect x="305.4958333333334" y="462.9285307242707" width="6.095833333333334" height="12.071469275729324" fill="#ff4444" opacity="0.35"/>
<rect x="316.5791666666667" y="465.41751785007057" width="6.095833333333334" height="9.582482149929438" fill="#44aa44" opacity="0.35"/>
<rect x="327.6625" y="463.7803204505914" width="6.095833333333334" height="11.219679549408626" fill="#ff4444" opacity="0.35"/>
<rect x="338.7458333333334" y="459.2404908043507" width="6.095833333333334" height="15.759509195649294" fill="#44aa44" opacity="0.35"/>
<rect x="349.8291666666667" y="467.4290190013395" width="6.095833333333334" height="7.570980998660524" fill="#44aa44" opacity="0.35"/>
<rect x="360.9125" y="463.90440863228895" width="6.095833333333334" height="11.09559136771104" fill="#ff4444" opacity="0.35"/>
<rect x="371.9958333333334" y="456.1631412316481" width="6.095833333333334" height="18.836858768351878" fill="#ff4444" opacity="0.35"/>
<rect x="383.0791666666667" y="458.0953446103142" width="6.095833333333334" height="16.90465538968577" fill="#ff4444" opacity="0.35"/>
<rect x="394.1625" y="460.6954975051325" width="6.095833333333334" height="14.304502494867508" fill="#ff4444" opacity="0.35"/>
<rect x="405.2458333333334" y="463.86564883118314" width="6.095833333333334" height="11.134351168816885" fill="#44aa44" opacity="0.35"/>
<rect x="416.3291666666667" y="458.4407886045976" width="6.095833333333334" height="16.559211395402347" fill="#ff4444" opacity="0.35"/>
<rect x="427.4125" y="457.9877344383849" width="6.095833333333334" height="17.0122655616151" fill="#ff4444" opacity="0.35"/>
<rect x="438.4958333333334" y="452.12964244358113" width="6.095833333333334" height="22.87035755641885" fill="#ff4444" opacity="0.35"/>
<rect x="449.5791666666667" y="459.1125026956222" width="6.095833333333334" height="15.88749730437783" fill="#44aa44" opacity="0.35"/>
<rect x="460.6625" y="460.9224243233226" width="6.095833333333334" height="14.077575676677393" fill="#ff4444" opacity="0.35"/>
<rect x="471.7458333333334" y="463.46479448920803" width="6.095833333333334" height="11.535205510791956" fill="#44aa44" opacity="0.35"/>
<rect x="482.8291666666667" y="461.40951509526104" width="6.095833333333334" height="13.59048490473896" fill="#ff4444" opacity="0.35"/>
<rect x="493.9125" y="459.49782872401863" width="6.095833333333334" height="15.502171275981373" fill="#ff4444" opacity="0.35"/>
<rect x="504.9958333333334" y="461.2185354305736" width="6.095833333333334" height="13.781464569426404" fill="#ff4444" opacity="0.35"/>
<rect x="516.0791666666667" y="442.5551795372014" width="6.095833333333334" height="32.44482046279857" fill="#ff4444" opacity="0.35"/>
<rect x="527.1624999999999" y="445.8794910223378" width="6.095833333333334" height="29.120508977662197" fill="#ff4444" opacity="0.35"/>
<rect x="538.2458333333333" y="454.360884105851" width="6.095833333333334" height="20.639115894149" fill="#44aa44" opacity="0.35"/>
<rect x="549.3291666666667" y="450.6874830424675" width="6.095833333333334" height="24.31251695753251" fill="#44aa44" opacity="0.35"/>
<rect x="560.4124999999999" y="449.55285490106235" width="6.095833333333334" height="25.447145098937646" fill="#44aa44" opacity="0.35"/>
<rect x="571.4958333333333" y="452.30897364200507" width="6.095833333333334" height="22.6910263579949" fill="#ff4444" opacity="0.35"/>
<rect x="582.5791666666667" y="458.6633291204177" width="6.095833333333334" height="16.336670879582286" fill="#ff4444" opacity="0.35"/>
<rect x="593.6624999999999" y="440.0" width="6.095833333333334" height="35.0" fill="#ff4444" opacity="0.35"/>
<rect x="604.7458333333333" y="452.12415770638563" width="6.095833333333334" height="22.87584229361436" fill="#44aa44" opacity="0.35"/>
<rect x="615.8291666666667" y="444.77428710156187" width="6.095833333333334" height="30.225712898438136" fill="#ff4444" opacity="0.35"/>
<rect x="626.9124999999999" y="446.24026996997327" width="6.095833333333334" height="28.75973003002672" fill="#44aa44" opacity="0.35"/>
<rect x="637.9958333333333" y="442.7228340090211" width="6.095833333333334" height="32.277165990978915" fill="#44aa44" opacity="0.35"/>
<rect x="649.0791666666667" y="453.4781359198727" width="6.095833333333334" height="21.52186408012729" fill="#44aa44" opacity="0.35"/>
<rect x="660.1624999999999" y="446.0044441192026" width="6.095833333333334" height="28.995555880797372" fill="#ff4444" opacity="0.35"/>
<rect x="671.2458333333333" y="446.6465488099964" width="6.095833333333334" height="28.353451190003643" fill="#ff4444" opacity="0.35"/>
<rect x="682.3291666666667" y="443.2626704759906" width="6.095833333333334" height="31.73732952400938" fill="#44aa44" opacity="0.35"/>
<rect x="693.4124999999999" y="449.0667495225862" width="6.095833333333334" height="25.93325047741384" fill="#44aa44" opacity="0.35"/>
<rect x="704.4958333333333" y="446.49260432193256" width="6.095833333333334" height="28.50739567806746" fill="#ff4444" opacity="0.35"/>
<rect x="715.5791666666667" y="451.5535107747011" width="6.095833333333334" height="23.44648922529885" fill="#44aa44" opacity="0.25" stroke-dasharray="3,2"/>
<polyline points="65.54166666666667,325.5810726427531 76.625,328.85843798422724 87.70833333333334,334.85217820331957 98.79166666666667,348.85725592379305 109.87500000000001,358.01681952078593 120.95833333333334,362.5730900230388 132.04166666666666,367.29357508277525 143.125,372.2564026766595 154.20833333333334,370.4717515103815 165.29166666666666,372.5416339193381 176.375,377.8012474700812 187.45833333333334,381.65310852638964 198.54166666666666,384.77019603556295 209.625,388.60208771990887 220.70833333333334,384.9119725390063 231.79166666666666,386.2607257431808 242.875,387.8065098700925 253.95833333333334,394.70085925935587 265.0416666666667,395.824856472402 276.12500000000006,393.721994326267 287.20833333333337,395.19885308284125 298.2916666666667,394.23472187067193 309.37500000000006,391.46610912935057 320.45833333333337,393.55320571157193 331.5416666666667,391.9063971840647 342.62500000000006,398.4970467686082 353.70833333333337,403.5994326915955 364.7916666666667,403.47564112879417 375.87500000000006,393.18013439669335 386.95833333333337,383.0479556446514 398.0416666666667,372.8829383059905 409.12500000000006,368.5509974700729 420.20833333333337,361.6504788055302 431.2916666666667,355.81890659007416 442.37500000000006,340.5224172937736 453.45833333333337,333.3275330352302 464.5416666666667,327.5565916712585 475.62500000000006,326.8095078867619 486.70833333333337,322.76835436397226 497.7916666666667,317.1423386964514 508.87500000000006,311.27466072906196 519.9583333333334,292.2869948466879 531.0416666666666,275.82857867782843 542.125,269.2940310591615 553.2083333333334,265.0262434217117 564.2916666666666,260.40950283018253 575.375,248.82824136966263 586.4583333333334,244.46448543495217 597.5416666666666,209.3131260470393 608.625,190.60006409565332 619.7083333333334,164.90893516550574 630.7916666666666,164.72638046857855 641.875,164.04663945482656 652.9583333333334,163.88578433647476 664.0416666666666,150.59822427168115 675.125,126.22994086022993 686.2083333333334,115.9988268747424 697.2916666666666,108.07086619698246 708.375,92.17398156743256 719.4583333333334,93.0025484553947" fill="none" stroke="#ffd700" stroke-width="1" opacity="0.7"/>
<polyline points="65.54166666666667,325.5810726427531 76.625,327.36872646537535 87.70833333333334,330.90889595194426 98.79166666666667,339.26498966336175 109.87500000000001,346.00516367270893 120.95833333333334,350.6743395554063 132.04166666666666,355.41255876392296 143.125,360.2797404185602 154.20833333333334,361.4838692838812 165.29166666666666,364.2470564572212 176.375,368.6240415689205 187.45833333333334,372.3936395816634 198.54166666666666,375.7774089402537 209.625,379.5025838763167 220.70833333333334,379.14424902193207 231.79166666666666,380.92860959094986 242.875,382.7412402333074 253.95833333333334,387.42275256141187 265.0416666666667,389.35913407724513 276.12500000000006,389.3877042512 287.20833333333337,390.981316313889 298.2916666666667,391.22225142887885 309.37500000000006,390.2598209230296 320.45833333333337,391.6175623690269 331.5416666666667,391.07123832539475 342.62500000000006,394.8179851639948 353.70833333333337,398.27002505009943 364.7916666666667,399.1714855870253 375.87500000000006,394.33832837711003 386.95833333333337,388.6011046977387 398.0416666666667,382.04688632154415 409.12500000000006,378.01783713548843 420.20833333333337,372.5326742883896 431.2916666666667,367.3732357194391 442.37500000000006,356.9289089888452 453.45833333333337,350.0214281759903 464.5416666666667,343.8383883155039 475.62500000000006,340.4705614068248 486.70833333333337,335.7824679362008 497.7916666666667,330.3475296498752 508.87500000000006,324.74603422158566 519.9583333333334,311.93978492346827 531.0416666666666,299.3892324537667 542.125,291.54117852068686 553.2083333333334,285.16835845270964 564.2916666666666,278.9879335789668 575.375,269.2929853734497 586.4583333333334,263.1918923174645 597.5416666666666,240.61344049087344 608.625,224.71534952760217 619.7083333333334,204.49922730534914 630.7916666666666,197.20141708159917 641.875,190.92609714445794 652.9583333333334,185.95118386360576 664.0416666666666,174.691533005149 675.125,157.0191404655451 686.2083333333334,145.84049654522192 697.2916666666666,136.09039623544754 708.375,122.32490824869936 719.4583333333334,117.29486715463018" fill="none" stroke="#ff6b6b" stroke-width="1" opacity="0.7"/>
<polyline points="65.54166666666667,325.5810726427531 76.625,326.51746274031717 87.70833333333334,328.45290996900167 98.79166666666667,333.0638148638339 109.87500000000001,337.1849702782089 120.95833333333334,340.4707474924313 132.04166666666666,343.92444251241386 143.125,347.5680249268914 154.20833333333334,349.4093986650756 165.29166666666666,352.0067320052828 176.375,355.46518367826224 187.45833333333334,358.6929595792855 198.54166666666666,361.7702368625831 209.625,365.055535360299 220.70833333333334,366.24374553333735 231.79166666666666,368.40702997316515 242.875,370.54903455895095 253.95833333333334,374.16241774742065 265.0416666666667,376.4396018570467 276.12500000000006,377.6849988262801 287.20833333333337,379.6342913757763 298.2916666666667,380.8411645253531 309.37500000000006,381.32570920357733 320.45833333333337,382.88777488666665 331.5416666666667,383.43301348117933 342.62500000000006,386.1230451437046 353.70833333333337,388.75934603835844 364.7916666666667,390.1373186064378 375.87500000000006,388.46606168510965 386.95833333333337,386.02011277610563 398.0416666666667,382.8327595239687 409.12500000000006,380.64746012151824 420.20833333333337,377.52383929817785 431.2916666666667,374.34592718970015 442.37500000000006,368.2110235241261 453.45833333333337,363.51833219022296 464.5416666666667,358.9941775952793 475.62500000000006,355.78666928313544 486.70833333333337,351.8723243341124 497.7916666666667,347.49308462242647 508.87500000000006,342.926057972127 519.9583333333334,334.4865917921092 531.0416666666666,325.76517793953786 542.125,319.14229773785115 553.2083333333334,313.1754758720379 564.2916666666666,307.27076594585566 575.375,299.4988566604049 586.4583333333334,293.42629636565505 597.5416666666666,278.7200212138034 608.625,266.76325159276325 619.7083333333334,252.1692921368059 630.7916666666666,243.80662346422667 641.875,236.08096003214055 652.9583333333334,229.17458994334345 664.0416666666666,219.1601627241768 675.125,205.6680876111435 686.2083333333334,195.17937440091723 697.2916666666666,185.37323825239778 708.375,173.46914054343918 719.4583333333334,165.96347784704676" fill="none" stroke="#4ecdc4" stroke-width="1" opacity="0.7"/>
<line x1="65.54166666666667" y1="317.8748352182058" x2="65.54166666666667" y2="363.6339415805176" stroke="#ff4444" stroke-width="0.5" opacity="0.6"/>
<rect x="63.04791666666667" y="325.5810726427531" width="4.987500000000001" height="22.215222368694924" fill="#ff4444" opacity="0.8" rx="1"/>
<line x1="76.625" y1="330.25796156247833" x2="76.625" y2="345.51099701658234" stroke="#ff4444" stroke-width="0.5" opacity="0.6"/>
<rect x="74.13125" y="335.4131686671755" width="4.987500000000001" height="1.594393949906305" fill="#ff4444" opacity="0.8" rx="1"/>
<line x1="87.70833333333334" y1="328.4509817525845" x2="87.70833333333334" y2="347.0522445014917" stroke="#44aa44" stroke-width="0.5" opacity="0.6"/>
<rect x="85.21458333333334" y="345.7767293415667" width="4.987500000000001" height="1.0629292999375934" fill="#44aa44" opacity="0.8" rx="1"/>
<line x1="98.79166666666667" y1="343.38513841670715" x2="98.79166666666667" y2="377.71775480469023" stroke="#44aa44" stroke-width="0.5" opacity="0.6"/>
<rect x="96.29791666666667" y="343.9166030666759" width="4.987500000000001" height="32.95080829806426" fill="#44aa44" opacity="0.8" rx="1"/>
<line x1="109.87500000000001" y1="368.9485880802054" x2="109.87500000000001" y2="383.0058280718796" stroke="#ff4444" stroke-width="0.5" opacity="0.6"/>
<rect x="107.38125000000001" y="376.3359467147714" width="4.987500000000001" height="6.669881357108181" fill="#ff4444" opacity="0.8" rx="1"/>
<line x1="120.95833333333334" y1="361.056338028169" x2="120.95833333333334" y2="376.04364115728856" stroke="#44aa44" stroke-width="0.5" opacity="0.6"/>
<rect x="118.46458333333334" y="365.97238604038023" width="4.987500000000001" height="5.713244987164387" fill="#44aa44" opacity="0.8" rx="1"/>
<line x1="132.04166666666666" y1="368.15139110525223" x2="132.04166666666666" y2="378.9666967321168" stroke="#44aa44" stroke-width="0.5" opacity="0.6"/>
<rect x="129.54791666666665" y="369.74578505515854" width="4.987500000000001" height="6.988760147089465" fill="#44aa44" opacity="0.8" rx="1"/>
<line x1="143.125" y1="380.5876639145216" x2="143.125" y2="399.7203913133976" stroke="#ff4444" stroke-width="0.5" opacity="0.6"/>
<rect x="140.63125" y="382.182057864428" width="4.987500000000001" height="11.639075834316316" fill="#ff4444" opacity="0.8" rx="1"/>
<line x1="154.20833333333334" y1="363.9528203704989" x2="154.20833333333334" y2="375.67161590231046" stroke="#ff4444" stroke-width="0.5" opacity="0.6"/>
<rect x="151.71458333333334" y="366.9024491778256" width="4.987500000000001" height="7.041906612086336" fill="#ff4444" opacity="0.8" rx="1"/>
<line x1="165.29166666666666" y1="362.5710122805801" x2="165.29166666666666" y2="379.79046693956843" stroke="#44aa44" stroke-width="0.5" opacity="0.6"/>
<rect x="162.79791666666665" y="368.25768403524603" width="4.987500000000001" height="8.4237147020051" fill="#44aa44" opacity="0.8" rx="1"/>
<line x1="176.375" y1="375.2730174148339" x2="176.375" y2="391.88128772635815" stroke="#44aa44" stroke-width="0.5" opacity="0.6"/>
<rect x="173.88125" y="376.5751058072574" width="4.987500000000001" height="11.745368764310001" fill="#44aa44" opacity="0.8" rx="1"/>
<line x1="187.45833333333334" y1="378.9932699646153" x2="187.45833333333334" y2="393.84770693124267" stroke="#ff4444" stroke-width="0.5" opacity="0.6"/>
<rect x="184.96458333333334" y="389.35683063900655" width="4.987500000000001" height="1.6209671824047405" fill="#ff4444" opacity="0.8" rx="1"/>
<line x1="198.54166666666666" y1="388.719073059044" x2="198.54166666666666" y2="403.918962048151" stroke="#44aa44" stroke-width="0.5" opacity="0.6"/>
<rect x="196.04791666666665" y="389.9414417539721" width="4.987500000000001" height="1.0629292999376503" fill="#44aa44" opacity="0.8" rx="1"/>
<line x1="209.625" y1="382.182057864428" x2="209.625" y2="397.3022271560398" stroke="#44aa44" stroke-width="0.5" opacity="0.6"/>
<rect x="207.13125" y="388.66592659404716" width="4.987500000000001" height="7.5999444945534265" fill="#44aa44" opacity="0.8" rx="1"/>
<line x1="220.70833333333334" y1="377.0002775272324" x2="220.70833333333334" y2="392.54561853881916" stroke="#ff4444" stroke-width="0.5" opacity="0.6"/>
<rect x="218.21458333333334" y="377.5317421772011" width="4.987500000000001" height="12.356553111774133" fill="#ff4444" opacity="0.8" rx="1"/>
<line x1="231.79166666666666" y1="382.3149240269202" x2="231.79166666666666" y2="390.68549226392844" stroke="#44aa44" stroke-width="0.5" opacity="0.6"/>
<rect x="229.29791666666665" y="384.57364878928746" width="4.987500000000001" height="4.384583362242495" fill="#44aa44" opacity="0.8" rx="1"/>
<line x1="242.875" y1="377.9303406646778" x2="242.875" y2="391.084090751405" stroke="#44aa44" stroke-width="0.5" opacity="0.6"/>
<rect x="240.38125" y="384.78623464927495" width="4.987500000000001" height="6.1118434746409775" fill="#44aa44" opacity="0.8" rx="1"/>
<line x1="253.95833333333334" y1="391.6155554013738" x2="253.95833333333334" y2="413.8307777700687" stroke="#44aa44" stroke-width="0.5" opacity="0.6"/>
<rect x="251.46458333333334" y="397.621105946021" width="4.987500000000001" height="10.868452091861514" fill="#44aa44" opacity="0.8" rx="1"/>
<line x1="265.0416666666667" y1="396.531603413585" x2="265.0416666666667" y2="409.6853535003122" stroke="#ff4444" stroke-width="0.5" opacity="0.6"/>
<rect x="262.5479166666667" y="398.0728508984944" width="4.987500000000001" height="5.102060639700312" fill="#ff4444" opacity="0.8" rx="1"/>
<line x1="276.12500000000006" y1="381.75688614445295" x2="276.12500000000006" y2="395.1763685561646" stroke="#ff4444" stroke-width="0.5" opacity="0.6"/>
<rect x="273.6312500000001" y="389.51627003399716" width="4.987500000000001" height="0.6909040449593817" fill="#ff4444" opacity="0.8" rx="1"/>
<line x1="287.20833333333337" y1="387.52327759661426" x2="287.20833333333337" y2="399.3483660584195" stroke="#44aa44" stroke-width="0.5" opacity="0.6"/>
<rect x="284.7145833333334" y="390.95122458891285" width="4.987500000000001" height="7.20134600707695" fill="#44aa44" opacity="0.8" rx="1"/>
<line x1="298.2916666666667" y1="388.6127801290501" x2="298.2916666666667" y2="405.858808020537" stroke="#ff4444" stroke-width="0.5" opacity="0.6"/>
<rect x="295.7979166666667" y="392.30645944633324" width="4.987500000000001" height="11.107611184347434" fill="#ff4444" opacity="0.8" rx="1"/>
<line x1="309.37500000000006" y1="382.23520432942485" x2="309.37500000000006" y2="401.04905293831956" stroke="#ff4444" stroke-width="0.5" opacity="0.6"/>
<rect x="306.8812500000001" y="385.92888364670785" width="4.987500000000001" height="11.29362381183654" fill="#ff4444" opacity="0.8" rx="1"/>
<line x1="320.45833333333337" y1="385.63657808922505" x2="320.45833333333337" y2="398.1259973634913" stroke="#44aa44" stroke-width="0.5" opacity="0.6"/>
<rect x="317.9645833333334" y="386.9386664816485" width="4.987500000000001" height="10.788732394366207" fill="#44aa44" opacity="0.8" rx="1"/>
<line x1="331.5416666666667" y1="379.55130784708257" x2="331.5416666666667" y2="392.54561853881916" stroke="#ff4444" stroke-width="0.5" opacity="0.6"/>
<rect x="329.0479166666667" y="388.6127801290501" width="4.987500000000001" height="1.2755151599251349" fill="#ff4444" opacity="0.8" rx="1"/>
<line x1="342.62500000000006" y1="388.9316589190314" x2="342.62500000000006" y2="415.0" stroke="#44aa44" stroke-width="0.5" opacity="0.6"/>
<rect x="340.1312500000001" y="389.88829528897526" width="4.987500000000001" height="21.790050648719898" fill="#44aa44" opacity="0.8" rx="1"/>
<line x1="353.70833333333337" y1="407.16089641296054" x2="353.70833333333337" y2="414.60140151252347" stroke="#44aa44" stroke-width="0.5" opacity="0.6"/>
<rect x="351.2145833333334" y="408.1706792479012" width="4.987500000000001" height="5.63352528966908" fill="#44aa44" opacity="0.8" rx="1"/>
<line x1="364.7916666666667" y1="395.20294178866305" x2="364.7916666666667" y2="412.47554291264834" stroke="#ff4444" stroke-width="0.5" opacity="0.6"/>
<rect x="362.2979166666667" y="403.22805800319156" width="4.987500000000001" height="6.590161659612875" fill="#ff4444" opacity="0.8" rx="1"/>
<line x1="375.87500000000006" y1="371.101019912579" x2="375.87500000000006" y2="391.6155554013738" stroke="#ff4444" stroke-width="0.5" opacity="0.6"/>
<rect x="373.3812500000001" y="372.58912093249154" width="4.987500000000001" height="14.64185110663982" fill="#ff4444" opacity="0.8" rx="1"/>
<line x1="386.95833333333337" y1="357.57524457087356" x2="386.95833333333337" y2="379.2324290571013" stroke="#ff4444" stroke-width="0.5" opacity="0.6"/>
<rect x="384.4645833333334" y="362.7835981405676" width="4.987500000000001" height="14.349545549156915" fill="#ff4444" opacity="0.8" rx="1"/>
<line x1="398.0416666666667" y1="344.9795323666135" x2="398.0416666666667" y2="360.3920072157081" stroke="#ff4444" stroke-width="0.5" opacity="0.6"/>
<rect x="395.5479166666667" y="352.55290362866856" width="4.987500000000001" height="5.2615000346909255" fill="#ff4444" opacity="0.8" rx="1"/>
<line x1="409.12500000000006" y1="350.0284465413169" x2="409.12500000000006" y2="360.63116630819405" stroke="#44aa44" stroke-width="0.5" opacity="0.6"/>
<rect x="406.6312500000001" y="355.44938597099843" width="4.987500000000001" height="4.437729827239309" fill="#44aa44" opacity="0.8" rx="1"/>
<line x1="420.20833333333337" y1="341.259279816832" x2="420.20833333333337" y2="358.0004162908486" stroke="#ff4444" stroke-width="0.5" opacity="0.6"/>
<rect x="417.7145833333334" y="347.8494414764449" width="4.987500000000001" height="7.015333379587844" fill="#ff4444" opacity="0.8" rx="1"/>
<line x1="431.2916666666667" y1="326.11253729272187" x2="431.2916666666667" y2="349.2312495663637" stroke="#ff4444" stroke-width="0.5" opacity="0.6"/>
<rect x="428.7979166666667" y="344.15576215916184" width="4.987500000000001" height="0.5580378824672607" fill="#ff4444" opacity="0.8" rx="1"/>
<line x1="442.37500000000006" y1="308.81336293623815" x2="442.37500000000006" y2="344.12918892666346" stroke="#ff4444" stroke-width="0.5" opacity="0.6"/>
<rect x="439.8812500000001" y="309.9294387011726" width="4.987500000000001" height="34.199750225490845" fill="#ff4444" opacity="0.8" rx="1"/>
<line x1="453.45833333333337" y1="310.9657947686117" x2="453.45833333333337" y2="324.119544855339" stroke="#44aa44" stroke-width="0.5" opacity="0.6"/>
<rect x="450.9645833333334" y="310.9657947686117" width="4.987500000000001" height="7.971969749531695" fill="#44aa44" opacity="0.8" rx="1"/>
<line x1="464.5416666666667" y1="306.0497467564005" x2="464.5416666666667" y2="319.4692291681121" stroke="#ff4444" stroke-width="0.5" opacity="0.6"/>
<rect x="462.0479166666667" y="316.01470894331504" width="4.987500000000001" height="2.1524318323735656" fill="#ff4444" opacity="0.8" rx="1"/>
<line x1="475.62500000000006" y1="316.9713453132589" x2="475.62500000000006" y2="330.33768125997364" stroke="#44aa44" stroke-width="0.5" opacity="0.6"/>
<rect x="473.1312500000001" y="316.9713453132589" width="4.987500000000001" height="8.343995004509793" fill="#44aa44" opacity="0.8" rx="1"/>
<line x1="486.70833333333337" y1="313.0650801359884" x2="486.70833333333337" y2="328.0789564976064" stroke="#ff4444" stroke-width="0.5" opacity="0.6"/>
<rect x="484.2145833333334" y="314.6860473183931" width="4.987500000000001" height="11.426489974328774" fill="#ff4444" opacity="0.8" rx="1"/>
<line x1="497.7916666666667" y1="295.1015749670437" x2="497.7916666666667" y2="315.6692569208354" stroke="#ff4444" stroke-width="0.5" opacity="0.6"/>
<rect x="495.2979166666667" y="305.89030736140984" width="4.987500000000001" height="5.553805592173717" fill="#ff4444" opacity="0.8" rx="1"/>
<line x1="508.87500000000006" y1="290.77013806979807" x2="508.87500000000006" y2="308.41476444876156" stroke="#ff4444" stroke-width="0.5" opacity="0.6"/>
<rect x="506.3812500000001" y="299.53930479428294" width="4.987500000000001" height="1.3286616249219492" fill="#ff4444" opacity="0.8" rx="1"/>
<line x1="519.9583333333334" y1="243.73551654756125" x2="519.9583333333334" y2="297.99805730937345" stroke="#ff4444" stroke-width="0.5" opacity="0.6"/>
<rect x="517.4645833333334" y="254.3116630819399" width="4.987500000000001" height="37.707416915284796" fill="#ff4444" opacity="0.8" rx="1"/>
<line x1="531.0416666666666" y1="219.81960729896625" x2="531.0416666666666" y2="257.0487060292791" stroke="#ff4444" stroke-width="0.5" opacity="0.6"/>
<rect x="528.5479166666667" y="242.91174634010963" width="4.987500000000001" height="7.573371262055076" fill="#ff4444" opacity="0.8" rx="1"/>
<line x1="542.125" y1="239.5369458128079" x2="542.125" y2="262.5227919239576" stroke="#44aa44" stroke-width="0.5" opacity="0.6"/>
<rect x="539.63125" y="244.16068826753627" width="4.987500000000001" height="12.064247554291228" fill="#44aa44" opacity="0.8" rx="1"/>
<line x1="553.2083333333334" y1="248.27953930479433" x2="553.2083333333334" y2="274.7730521057379" stroke="#44aa44" stroke-width="0.5" opacity="0.6"/>
<rect x="550.7145833333334" y="250.93686255463822" width="4.987500000000001" height="5.553805592173745" fill="#44aa44" opacity="0.8" rx="1"/>
<line x1="564.2916666666666" y1="231.77756192326376" x2="564.2916666666666" y2="253.408173176993" stroke="#44aa44" stroke-width="0.5" opacity="0.6"/>
<rect x="561.7979166666667" y="247.19003677235835" width="4.987500000000001" height="3.9859848747658475" fill="#44aa44" opacity="0.8" rx="1"/>
<line x1="575.375" y1="220.90910983140222" x2="575.375" y2="258.48366058419487" stroke="#ff4444" stroke-width="0.5" opacity="0.6"/>
<rect x="572.88125" y="225.66571844862275" width="4.987500000000001" height="21.31173246374803" fill="#ff4444" opacity="0.8" rx="1"/>
<line x1="586.4583333333334" y1="221.1482689238882" x2="586.4583333333334" y2="242.48657462013463" stroke="#ff4444" stroke-width="0.5" opacity="0.6"/>
<rect x="583.9645833333334" y="235.73697356553117" width="4.987500000000001" height="5.314646499687797" fill="#ff4444" opacity="0.8" rx="1"/>
<line x1="597.5416666666666" y1="139.01040727121352" x2="597.5416666666666" y2="230.50204676333868" stroke="#ff4444" stroke-width="0.5" opacity="0.6"/>
<rect x="595.0479166666667" y="139.01040727121352" width="4.987500000000001" height="86.12384652744052" fill="#ff4444" opacity="0.8" rx="1"/>
<line x1="608.625" y1="134.78526330396173" x2="608.625" y2="164.01581905224452" stroke="#44aa44" stroke-width="0.5" opacity="0.6"/>
<rect x="606.13125" y="134.81183653646013" width="4.987500000000001" height="18.362103656421283" fill="#44aa44" opacity="0.8" rx="1"/>
<line x1="619.7083333333334" y1="113.5266773052106" x2="619.7083333333334" y2="180.4646499687782" stroke="#ff4444" stroke-width="0.5" opacity="0.6"/>
<rect x="617.2145833333334" y="113.5266773052106" width="4.987500000000001" height="47.512939707208744" fill="#ff4444" opacity="0.8" rx="1"/>
<line x1="630.7916666666666" y1="118.20356622493581" x2="630.7916666666666" y2="165.8759453271352" stroke="#44aa44" stroke-width="0.5" opacity="0.6"/>
<rect x="628.2979166666667" y="121.49864705474226" width="4.987500000000001" height="42.86262401998195" fill="#44aa44" opacity="0.8" rx="1"/>
<line x1="641.875" y1="136.61881634635398" x2="641.875" y2="201.2714910150559" stroke="#44aa44" stroke-width="0.5" opacity="0.6"/>
<rect x="639.38125" y="153.28023312287525" width="4.987500000000001" height="9.40692430444733" fill="#44aa44" opacity="0.8" rx="1"/>
<line x1="652.9583333333334" y1="150.7292028030251" x2="652.9583333333334" y2="179.13598834385627" stroke="#44aa44" stroke-width="0.5" opacity="0.6"/>
<rect x="650.4645833333334" y="158.70117255255673" width="4.987500000000001" height="4.8629015472143635" fill="#44aa44" opacity="0.8" rx="1"/>
<line x1="664.0416666666666" y1="114.37702074516062" x2="664.0416666666666" y2="179.56116006383127" stroke="#ff4444" stroke-width="0.5" opacity="0.6"/>
<rect x="661.5479166666667" y="124.02310414209393" width="4.987500000000001" height="41.34794976757095" fill="#ff4444" opacity="0.8" rx="1"/>
<line x1="675.125" y1="55.67675015610906" x2="675.125" y2="113.34066467772153" stroke="#ff4444" stroke-width="0.5" opacity="0.6"/>
<rect x="672.63125" y="77.49337403732743" width="4.987500000000001" height="31.196974953167313" fill="#ff4444" opacity="0.8" rx="1"/>
<line x1="686.2083333333334" y1="33.75383334489703" x2="686.2083333333334" y2="97.58273780614725" stroke="#44aa44" stroke-width="0.5" opacity="0.6"/>
<rect x="683.7145833333334" y="71.00950530770834" width="4.987500000000001" height="24.52709359605909" fill="#44aa44" opacity="0.8" rx="1"/>
<line x1="697.2916666666666" y1="76.93533615486018" x2="697.2916666666666" y2="109.54069243044476" stroke="#44aa44" stroke-width="0.5" opacity="0.6"/>
<rect x="694.7979166666667" y="87.72406854922639" width="4.987500000000001" height="4.49087629223618" fill="#44aa44" opacity="0.8" rx="1"/>
<line x1="708.375" y1="32.0" x2="708.375" y2="118.76160410740306" stroke="#ff4444" stroke-width="0.5" opacity="0.6"/>
<rect x="705.88125" y="60.38021230833277" width="4.987500000000001" height="31.887878998126695" fill="#ff4444" opacity="0.8" rx="1"/>
<line x1="719.4583333333334" y1="60.56622493582183" x2="719.4583333333334" y2="110.8693540553667" stroke="#44aa44" stroke-width="0.5" opacity="0.3" stroke-dasharray="4,3"/>
<rect x="716.9645833333334" y="72.23187400263654" width="4.987500000000001" height="22.427808228682437" fill="#44aa44" opacity="0.4" stroke-dasharray="4,3" rx="1"/>
<text x="739.4583333333334" y="88.65968223131898" font-family="sans-serif" font-size="9" fill="#ffd700" opacity="0.8">🕐 盘中</text>
<line x1="475.62500000000006" y1="330.33768125997364" x2="475.62500000000006" y2="295.33768125997364" stroke="#4ecdc4" stroke-width="0.8" stroke-dasharray="2,2" opacity="0.7"/>
<rect x="439.62500000000006" y="286.33768125997364" width="72" height="16" fill="#4ecdc4" opacity="0.85" rx="3"/>
<text x="475.62500000000006" y="298.33768125997364" text-anchor="middle" font-family="sans-serif" font-size="9" fill="#000000" font-weight="bold">B1乖离买入</text>
<polygon points="475.62500000000006,336.33768125997364 471.62500000000006,330.33768125997364 479.62500000000006,330.33768125997364" fill="#4ecdc4" opacity="0.9"/>
<line x1="553.2083333333334" y1="274.7730521057379" x2="553.2083333333334" y2="224.77305210573792" stroke="#4ecdc4" stroke-width="0.8" stroke-dasharray="2,2" opacity="0.7"/>
<rect x="517.2083333333334" y="215.77305210573792" width="72" height="16" fill="#4ecdc4" opacity="0.85" rx="3"/>
<text x="553.2083333333334" y="227.77305210573792" text-anchor="middle" font-family="sans-serif" font-size="9" fill="#000000" font-weight="bold">B2乖离买入</text>
<polygon points="553.2083333333334,280.7730521057379 549.2083333333334,274.7730521057379 557.2083333333334,274.7730521057379" fill="#4ecdc4" opacity="0.9"/>
<line x1="586.4583333333334" y1="242.48657462013463" x2="586.4583333333334" y2="177.48657462013463" stroke="#4ecdc4" stroke-width="0.8" stroke-dasharray="2,2" opacity="0.7"/>
<rect x="550.4583333333334" y="168.48657462013463" width="72" height="16" fill="#4ecdc4" opacity="0.85" rx="3"/>
<text x="586.4583333333334" y="180.48657462013463" text-anchor="middle" font-family="sans-serif" font-size="9" fill="#000000" font-weight="bold">B3乖离买入</text>
<polygon points="586.4583333333334,248.48657462013463 582.4583333333334,242.48657462013463 590.4583333333334,242.48657462013463" fill="#4ecdc4" opacity="0.9"/>
<line x1="630.7916666666666" y1="165.8759453271352" x2="630.7916666666666" y2="85.87594532713521" stroke="#4ecdc4" stroke-width="0.8" stroke-dasharray="2,2" opacity="0.7"/>
<rect x="594.7916666666666" y="76.87594532713521" width="72" height="16" fill="#4ecdc4" opacity="0.85" rx="3"/>
<text x="630.7916666666666" y="88.87594532713521" text-anchor="middle" font-family="sans-serif" font-size="9" fill="#000000" font-weight="bold">B4乖离买入</text>
<polygon points="630.7916666666666,171.8759453271352 626.7916666666666,165.8759453271352 634.7916666666666,165.8759453271352" fill="#4ecdc4" opacity="0.9"/>
<line x1="719.4583333333334" y1="110.8693540553667" x2="719.4583333333334" y2="15.8693540553667" stroke="#4ecdc4" stroke-width="0.8" stroke-dasharray="2,2" opacity="0.7"/>
<rect x="683.4583333333334" y="6.869354055366699" width="72" height="16" fill="#4ecdc4" opacity="0.85" rx="3"/>
<text x="719.4583333333334" y="18.8693540553667" text-anchor="middle" font-family="sans-serif" font-size="9" fill="#000000" font-weight="bold">B5乖离买入</text>
<polygon points="719.4583333333334,116.8693540553667 715.4583333333334,110.8693540553667 723.4583333333334,110.8693540553667" fill="#4ecdc4" opacity="0.9"/>
<line x1="597.5416666666666" y1="139.01040727121352" x2="597.5416666666666" y2="158.01040727121352" stroke="#e94560" stroke-width="0.8" stroke-dasharray="2,2" opacity="0.7"/>
<rect x="563.5416666666666" y="165.01040727121352" width="68" height="16" fill="#e94560" opacity="0.85" rx="3"/>
<text x="597.5416666666666" y="177.01040727121352" text-anchor="middle" font-family="sans-serif" font-size="9" fill="#ffffff" font-weight="bold">W1警戒⚠️</text>
<polygon points="597.5416666666666,133.01040727121352 593.5416666666666,139.01040727121352 601.5416666666666,139.01040727121352" fill="#e94560" opacity="0.9"/>
<line x1="619.7083333333334" y1="113.5266773052106" x2="619.7083333333334" y2="147.5266773052106" stroke="#e94560" stroke-width="0.8" stroke-dasharray="2,2" opacity="0.7"/>
<rect x="585.7083333333334" y="154.5266773052106" width="68" height="16" fill="#e94560" opacity="0.85" rx="3"/>
<text x="619.7083333333334" y="166.5266773052106" text-anchor="middle" font-family="sans-serif" font-size="9" fill="#ffffff" font-weight="bold">W2警戒⚠️</text>
<polygon points="619.7083333333334,107.5266773052106 615.7083333333334,113.5266773052106 623.7083333333334,113.5266773052106" fill="#e94560" opacity="0.9"/>
<line x1="675.125" y1="55.67675015610906" x2="675.125" y2="104.67675015610905" stroke="#e94560" stroke-width="0.8" stroke-dasharray="2,2" opacity="0.7"/>
<rect x="641.125" y="111.67675015610905" width="68" height="16" fill="#e94560" opacity="0.85" rx="3"/>
<text x="675.125" y="123.67675015610905" text-anchor="middle" font-family="sans-serif" font-size="9" fill="#ffffff" font-weight="bold">W3警戒⚠️</text>
<polygon points="675.125,49.67675015610906 671.125,55.67675015610906 679.125,55.67675015610906" fill="#e94560" opacity="0.9"/>
<text x="375.0" y="435" text-anchor="middle" font-family="sans-serif" font-size="10" fill="#aaaaaa">✅ BIAS5=-0.26%，乖离率买入区，可逢低吸纳</text>
<rect x="60" y="443" width="665" height="55" fill="#111122" opacity="0.5" rx="2"/>
<rect x="60" y="443" width="665" height="18.133008190903297" fill="#e94560" opacity="0.18" rx="2"/>
<rect x="60" y="461.1330081909033" width="665" height="8.525243856822556" fill="#ffd700" opacity="0.12"/>
<rect x="60" y="469.65825204772585" width="665" height="30.341747952274147" fill="#4ecdc4" opacity="0.14"/>
<text x="670" y="455.06650409545165" text-anchor="end" font-family="sans-serif" font-size="9" fill="#e94560" font-weight="bold">⚠️ 警戒区</text>
<text x="670" y="468.39563011931455" text-anchor="end" font-family="sans-serif" font-size="9" fill="#ffd700">持有区</text>
<text x="670" y="487.82912602386295" text-anchor="end" font-family="sans-serif" font-size="9" fill="#4ecdc4">买入区</text>
<line x1="60" y1="472.5" x2="725" y2="472.5" stroke="#888888" stroke-width="0.5" stroke-dasharray="3,2" opacity="0.5"/>
<text x="56" y="475.5" text-anchor="end" font-family="sans-serif" font-size="7" fill="#888888">0%</text>
<line x1="60" y1="469.65825204772585" x2="725" y2="469.65825204772585" stroke="#4ecdc4" stroke-width="0.5" stroke-dasharray="3,2" opacity="0.5"/>
<text x="56" y="472.65825204772585" text-anchor="end" font-family="sans-serif" font-size="7" fill="#4ecdc4">2%</text>
<line x1="60" y1="461.1330081909033" x2="725" y2="461.1330081909033" stroke="#e94560" stroke-width="0.5" stroke-dasharray="3,2" opacity="0.5"/>
<text x="56" y="464.1330081909033" text-anchor="end" font-family="sans-serif" font-size="7" fill="#e94560">8%</text>
<text x="60" y="445" font-family="sans-serif" font-size="8" fill="#888888">BIAS5</text>
<polyline points="65.54166666666667,472.5 76.625,474.88477374085153 87.70833333333334,476.9293215165207 98.79166666666667,483.2408094134934 109.87500000000001,479.70272369184283 120.95833333333334,476.1286231297877 132.04166666666666,476.309804588556 143.125,476.56265660655197 154.20833333333334,471.04652598058277 165.29166666666666,474.1958349836381 176.375,476.8755003189284 187.45833333333334,475.74092861347935 198.54166666666666,475.14712611162537 209.625,475.7918555907452 220.70833333333334,469.36491295877295 231.79166666666666,473.6505273083259 242.875,473.8247476162379 253.95833333333334,478.53396170015594 265.0416666666667,473.4871439738562 276.12500000000006,470.66509848722603 287.20833333333337,473.79453805820236 298.2916666666667,471.6573982220879 309.37500000000006,470.1008010456257 320.45833333333337,474.3202015381094 331.5416666666667,471.07100521203154 342.62500000000006,478.33639887108154 353.70833333333337,477.09146136509406 364.7916666666667,472.38864788576933 375.87500000000006,463.53133711975124 386.95833333333337,463.93950252658215 398.0416666666667,464.16369500415243 409.12500000000006,468.99125094028955 420.20833333333337,467.01858572971224 431.2916666666667,467.94200075839194 442.37500000000006,461.026852829161 453.45833333333337,467.2040410380298 464.5416666666667,468.3147280177624 475.62500000000006,471.9592219009515 486.70833333333337,469.604607073618 497.7916666666667,468.52546725954466 508.87500000000006,468.41434095962404 519.9583333333334,459.86666466859793 531.0416666666666,461.95580123521705 542.125,468.37437447738915 553.2083333333334,469.8308155951923 564.2916666666666,469.6416147554114 575.375,465.50610826372605 586.4583333333334,469.8889530943746 597.5416666666666,452.9166666666667 608.625,462.44361268115114 619.7083333333334,459.3332973204678 630.7916666666666,472.4064715167167 641.875,472.1521736666287 652.9583333333334,472.4177135939114 664.0416666666666,465.86145936138456 675.125,460.8256173785951 686.2083333333334,467.68157686412025 697.2916666666666,468.8146857808451 708.375,465.2976201772954 719.4583333333334,472.87589422901675" fill="none" stroke="#4ecdc4" stroke-width="1.5" opacity="0.9"/>
<circle cx="719.4583333333334" cy="472.87589422901675" r="3" fill="#4ecdc4" opacity="1"/>
<text x="724.4583333333334" y="475.87589422901675" font-family="sans-serif" font-size="9" fill="#4ecdc4" font-weight="bold">BIAS5=-0.3%</text>
<text x="65.54166666666667" y="489" text-anchor="middle" font-family="sans-serif" font-size="8" fill="#666666" transform="rotate(-45,65.54166666666667,489)">02/26</text>
<text x="120.95833333333334" y="489" text-anchor="middle" font-family="sans-serif" font-size="8" fill="#666666" transform="rotate(-45,120.95833333333334,489)">03/05</text>
<text x="176.375" y="489" text-anchor="middle" font-family="sans-serif" font-size="8" fill="#666666" transform="rotate(-45,176.375,489)">03/12</text>
<text x="231.79166666666666" y="489" text-anchor="middle" font-family="sans-serif" font-size="8" fill="#666666" transform="rotate(-45,231.79166666666666,489)">03/19</text>
<text x="287.20833333333337" y="489" text-anchor="middle" font-family="sans-serif" font-size="8" fill="#666666" transform="rotate(-45,287.20833333333337,489)">03/26</text>
<text x="342.62500000000006" y="489" text-anchor="middle" font-family="sans-serif" font-size="8" fill="#666666" transform="rotate(-45,342.62500000000006,489)">04/02</text>
<text x="398.0416666666667" y="489" text-anchor="middle" font-family="sans-serif" font-size="8" fill="#666666" transform="rotate(-45,398.0416666666667,489)">04/10</text>
<text x="453.45833333333337" y="489" text-anchor="middle" font-family="sans-serif" font-size="8" fill="#666666" transform="rotate(-45,453.45833333333337,489)">04/17</text>
<text x="508.87500000000006" y="489" text-anchor="middle" font-family="sans-serif" font-size="8" fill="#666666" transform="rotate(-45,508.87500000000006,489)">04/24</text>
<text x="564.2916666666666" y="489" text-anchor="middle" font-family="sans-serif" font-size="8" fill="#666666" transform="rotate(-45,564.2916666666666,489)">05/06</text>
<text x="619.7083333333334" y="489" text-anchor="middle" font-family="sans-serif" font-size="8" fill="#666666" transform="rotate(-45,619.7083333333334,489)">05/13</text>
<text x="675.125" y="489" text-anchor="middle" font-family="sans-serif" font-size="8" fill="#666666" transform="rotate(-45,675.125,489)">05/20</text>
<text x="719.4583333333334" y="489" text-anchor="middle" font-family="sans-serif" font-size="8" fill="#666666" transform="rotate(-45,719.4583333333334,489)">05/26</text>
<rect x="60" y="484" width="8" height="8" fill="#4ecdc4" opacity="0.8" rx="1"/>
<text x="71" y="491" font-family="sans-serif" font-size="9" fill="#888888">买入区(BIAS&lt;2%)</text>
<rect x="230" y="484" width="8" height="8" fill="#ffd700" opacity="0.8" rx="1"/>
<text x="241" y="491" font-family="sans-serif" font-size="9" fill="#888888">持有区(2-8%)</text>
<rect x="400" y="484" width="8" height="8" fill="#e94560" opacity="0.8" rx="1"/>
<text x="411" y="491" font-family="sans-serif" font-size="9" fill="#888888">警戒区(&gt;8%)</text>
<rect x="570" y="484" width="8" height="8" fill="#ffd700" opacity="0.8" rx="1"/>
<text x="581" y="491" font-family="sans-serif" font-size="9" fill="#888888">EMA5</text>
<rect x="60" y="497" width="8" height="8" fill="#ff6b6b" opacity="0.8" rx="1"/>
<text x="71" y="504" font-family="sans-serif" font-size="9" fill="#888888">EMA10</text>
<rect x="230" y="497" width="8" height="8" fill="#4ecdc4" opacity="0.8" rx="1"/>
<text x="241" y="504" font-family="sans-serif" font-size="9" fill="#888888">EMA20</text>
<rect x="400" y="497" width="8" height="8" fill="#4ecdc4" opacity="0.8" rx="1"/>
<text x="411" y="504" font-family="sans-serif" font-size="9" fill="#888888">B乖离买入</text>
<rect x="570" y="497" width="8" height="8" fill="#e94560" opacity="0.8" rx="1"/>
<text x="581" y="504" font-family="sans-serif" font-size="9" fill="#888888">W警戒⚠️</text>
</svg>