<svg xmlns="http://www.w3.org/2000/svg" width="800" height="400" viewBox="0 0 800 400">
<rect width="800" height="400" fill="#1a1a2e"/>
<text x="400.0" y="20" text-anchor="middle" font-family="sans-serif" font-size="14" fill="#ffffff" font-weight="bold">中国巨石(600176) K线图</text>
<line x1="60" y1="30.0" x2="780" y2="30.0" stroke="#2a2a4e" stroke-width="0.5"/>
<text x="55" y="33.0" text-anchor="end" font-family="sans-serif" font-size="8" fill="#666666">42.95</text>
<line x1="60" y1="83.99999999999997" x2="780" y2="83.99999999999997" stroke="#2a2a4e" stroke-width="0.5"/>
<text x="55" y="86.99999999999997" text-anchor="end" font-family="sans-serif" font-size="8" fill="#666666">38.68</text>
<line x1="60" y1="137.99999999999994" x2="780" y2="137.99999999999994" stroke="#2a2a4e" stroke-width="0.5"/>
<text x="55" y="140.99999999999994" text-anchor="end" font-family="sans-serif" font-size="8" fill="#666666">34.41</text>
<line x1="60" y1="192.0" x2="780" y2="192.0" stroke="#2a2a4e" stroke-width="0.5"/>
<text x="55" y="195.0" text-anchor="end" font-family="sans-serif" font-size="8" fill="#666666">30.13</text>
<line x1="60" y1="245.99999999999997" x2="780" y2="245.99999999999997" stroke="#2a2a4e" stroke-width="0.5"/>
<text x="55" y="248.99999999999997" text-anchor="end" font-family="sans-serif" font-size="8" fill="#666666">25.86</text>
<line x1="60" y1="300.0" x2="780" y2="300.0" stroke="#2a2a4e" stroke-width="0.5"/>
<text x="55" y="303.0" text-anchor="end" font-family="sans-serif" font-size="8" fill="#666666">21.59</text>
<line x1="60" y1="300" x2="780" y2="300" stroke="#2a2a4e" stroke-width="0.5"/>
<line x1="60" y1="345" x2="780" y2="345" stroke="#2a2a4e" stroke-width="0.5"/>
<rect x="61.8" y="315.31091903588015" width="7.199999999999999" height="29.689080964119853" fill="#ff4444" opacity="0.3"/>
<rect x="73.8" y="314.29202112110727" width="7.199999999999999" height="30.70797887889273" fill="#44aa44" opacity="0.3"/>
<rect x="85.8" y="318.9001225678422" width="7.199999999999999" height="26.099877432157825" fill="#ff4444" opacity="0.3"/>
<rect x="97.8" y="316.4087687902542" width="7.199999999999999" height="28.591231209745786" fill="#44aa44" opacity="0.3"/>
<rect x="109.8" y="326.22041814763924" width="7.199999999999999" height="18.779581852360764" fill="#ff4444" opacity="0.3"/>
<rect x="121.8" y="324.33134893606183" width="7.199999999999999" height="20.66865106393817" fill="#ff4444" opacity="0.3"/>
<rect x="133.8" y="326.4965628318072" width="7.199999999999999" height="18.503437168192818" fill="#44aa44" opacity="0.3"/>
<rect x="145.8" y="325.34619949834416" width="7.199999999999999" height="19.653800501655837" fill="#ff4444" opacity="0.3"/>
<rect x="157.8" y="330.64303426895503" width="7.199999999999999" height="14.356965731044966" fill="#ff4444" opacity="0.3"/>
<rect x="169.8" y="332.78735797737266" width="7.199999999999999" height="12.212642022627335" fill="#44aa44" opacity="0.3"/>
<rect x="181.8" y="331.54590872595224" width="7.199999999999999" height="13.454091274047755" fill="#ff4444" opacity="0.3"/>
<rect x="193.8" y="332.307305915009" width="7.199999999999999" height="12.69269408499099" fill="#44aa44" opacity="0.3"/>
<rect x="205.8" y="313.09262525948776" width="7.199999999999999" height="31.90737474051224" fill="#44aa44" opacity="0.3"/>
<rect x="217.8" y="328.9067465756487" width="7.199999999999999" height="16.093253424351303" fill="#44aa44" opacity="0.3"/>
<rect x="229.8" y="331.9980828365619" width="7.199999999999999" height="13.001917163438122" fill="#ff4444" opacity="0.3"/>
<rect x="241.8" y="330.2798771131849" width="7.199999999999999" height="14.72012288681509" fill="#44aa44" opacity="0.3"/>
<rect x="253.8" y="325.6915019811545" width="7.199999999999999" height="19.308498018845512" fill="#44aa44" opacity="0.3"/>
<rect x="265.8" y="317.84466693307166" width="7.199999999999999" height="27.155333066928335" fill="#ff4444" opacity="0.3"/>
<rect x="277.8" y="322.5170904030734" width="7.199999999999999" height="22.482909596926618" fill="#ff4444" opacity="0.3"/>
<rect x="289.8" y="321.8801432648534" width="7.199999999999999" height="23.119856735146584" fill="#ff4444" opacity="0.3"/>
<rect x="301.8" y="332.8020878561301" width="7.199999999999999" height="12.197912143869928" fill="#44aa44" opacity="0.3"/>
<rect x="313.8" y="330.86992624450556" width="7.199999999999999" height="14.130073755494436" fill="#ff4444" opacity="0.3"/>
<rect x="325.8" y="330.1764317607677" width="7.199999999999999" height="14.823568239232316" fill="#ff4444" opacity="0.3"/>
<rect x="337.8" y="333.87418598523976" width="7.199999999999999" height="11.125814014760238" fill="#44aa44" opacity="0.3"/>
<rect x="349.8" y="326.67114286267724" width="7.199999999999999" height="18.328857137322757" fill="#44aa44" opacity="0.3"/>
<rect x="361.8" y="332.50628910060186" width="7.199999999999999" height="12.493710899398138" fill="#44aa44" opacity="0.3"/>
<rect x="373.8" y="329.0216538198432" width="7.199999999999999" height="15.978346180156791" fill="#ff4444" opacity="0.3"/>
<rect x="385.8" y="327.07607953049563" width="7.199999999999999" height="17.923920469504367" fill="#ff4444" opacity="0.3"/>
<rect x="397.8" y="322.6439294442603" width="7.199999999999999" height="22.356070555739677" fill="#ff4444" opacity="0.3"/>
<rect x="409.8" y="324.46841936000476" width="7.199999999999999" height="20.53158063999524" fill="#ff4444" opacity="0.3"/>
<rect x="421.8" y="320.16029858799556" width="7.199999999999999" height="24.839701412004445" fill="#44aa44" opacity="0.3"/>
<rect x="433.8" y="318.91175762799384" width="7.199999999999999" height="26.088242372006164" fill="#ff4444" opacity="0.3"/>
<rect x="445.8" y="307.51370438268907" width="7.199999999999999" height="37.48629561731093" fill="#44aa44" opacity="0.3"/>
<rect x="457.8" y="315.2828866774561" width="7.199999999999999" height="29.717113322543923" fill="#44aa44" opacity="0.3"/>
<rect x="469.8" y="308.2852585546399" width="7.199999999999999" height="36.71474144536012" fill="#ff4444" opacity="0.3"/>
<rect x="481.8" y="311.5295397978687" width="7.199999999999999" height="33.47046020213128" fill="#ff4444" opacity="0.3"/>
<rect x="493.8" y="307.9297494890275" width="7.199999999999999" height="37.07025051097253" fill="#44aa44" opacity="0.3"/>
<rect x="505.8" y="323.32320277177513" width="7.199999999999999" height="21.67679722822487" fill="#ff4444" opacity="0.3"/>
<rect x="517.8" y="315.66942803331784" width="7.199999999999999" height="29.330571966682157" fill="#ff4444" opacity="0.3"/>
<rect x="529.8" y="310.4162008548417" width="7.199999999999999" height="34.58379914515831" fill="#ff4444" opacity="0.3"/>
<rect x="541.8" y="317.31244611880527" width="7.199999999999999" height="27.68755388119473" fill="#44aa44" opacity="0.3"/>
<rect x="553.8" y="315.9510735629318" width="7.199999999999999" height="29.04892643706819" fill="#44aa44" opacity="0.3"/>
<rect x="565.8" y="312.99610728900024" width="7.199999999999999" height="32.003892710999764" fill="#ff4444" opacity="0.3"/>
<rect x="577.8" y="306.7871388368324" width="7.199999999999999" height="38.21286116316759" fill="#ff4444" opacity="0.3"/>
<rect x="589.8" y="304.7228378947246" width="7.199999999999999" height="40.27716210527541" fill="#44aa44" opacity="0.3"/>
<rect x="601.8" y="309.3676467237881" width="7.199999999999999" height="35.632353276211916" fill="#ff4444" opacity="0.3"/>
<rect x="613.8" y="316.2248130828666" width="7.199999999999999" height="28.775186917133396" fill="#ff4444" opacity="0.3"/>
<rect x="625.8" y="320.07055165190167" width="7.199999999999999" height="24.929448348098333" fill="#ff4444" opacity="0.3"/>
<rect x="637.8" y="311.30578318345744" width="7.199999999999999" height="33.694216816542564" fill="#44aa44" opacity="0.3"/>
<rect x="649.8" y="315.6313441457171" width="7.199999999999999" height="29.368655854282906" fill="#44aa44" opacity="0.3"/>
<rect x="661.8" y="316.33972334618596" width="7.199999999999999" height="28.660276653814037" fill="#ff4444" opacity="0.3"/>
<rect x="673.8" y="311.44723263231907" width="7.199999999999999" height="33.55276736768093" fill="#44aa44" opacity="0.3"/>
<rect x="685.8" y="300.0" width="7.199999999999999" height="45.0" fill="#44aa44" opacity="0.3"/>
<rect x="697.8" y="315.238920025118" width="7.199999999999999" height="29.761079974882023" fill="#ff4444" opacity="0.3"/>
<rect x="709.8" y="316.8555242187437" width="7.199999999999999" height="28.14447578125629" fill="#ff4444" opacity="0.3"/>
<rect x="721.8" y="321.990581126036" width="7.199999999999999" height="23.009418873964023" fill="#ff4444" opacity="0.3"/>
<rect x="733.8" y="344.6116898682896" width="7.199999999999999" height="0.5" fill="#ff4444" opacity="0.3"/>
<rect x="745.8" y="308.00685750596267" width="7.199999999999999" height="36.99314249403733" fill="#ff4444" opacity="0.3"/>
<rect x="757.8" y="310.91201037666497" width="7.199999999999999" height="34.087989623335034" fill="#ff4444" opacity="0.3"/>
<rect x="769.8" y="302.9351375246345" width="7.199999999999999" height="42.06486247536549" fill="#ff4444" opacity="0.3"/>
<polyline points="66.0,212.65 78.0,218.81 90.0,217.39 102.0,224.45 114.0,229.28 126.0,228.42 138.0,232.22 150.0,236.23 162.0,235.28 174.0,236.17 186.0,236.76 198.0,238.83 210.0,246.08 222.0,254.23 234.0,256.89 246.0,263.42 258.0,271.15 270.0,273.01 282.0,271.22 294.0,265.23 306.0,264.56 318.0,262.04 330.0,260.96 342.0,262.51 354.0,257.65 366.0,254.74 378.0,251.46 390.0,247.67 402.0,240.84 414.0,233.55 426.0,223.68 438.0,204.79 450.0,190.69 462.0,187.05 474.0,176.63 486.0,167.57 498.0,169.07 510.0,169.91 522.0,168.35 534.0,161.97 546.0,159.90 558.0,156.67 570.0,150.05 582.0,140.58 594.0,139.33 606.0,127.95 618.0,116.45 630.0,108.49 642.0,103.14 654.0,100.38 666.0,97.35 678.0,97.36 690.0,113.21 702.0,122.59 714.0,125.65 726.0,126.80 738.0,125.84 750.0,113.27 762.0,100.39 774.0,83.96" fill="none" stroke="#ffd700" stroke-width="0.8" opacity="0.7"/>
<polyline points="66.0,212.65 78.0,216.01 90.0,215.74 102.0,219.89 114.0,223.36 126.0,223.96 138.0,226.85 150.0,230.01 162.0,230.63 174.0,231.96 186.0,233.04 198.0,234.85 210.0,239.53 222.0,245.17 234.0,248.26 246.0,253.40 258.0,259.43 270.0,262.58 282.0,263.50 294.0,261.63 306.0,261.92 318.0,261.03 330.0,260.62 342.0,261.53 354.0,259.06 366.0,257.22 378.0,254.97 390.0,252.27 402.0,247.71 414.0,242.48 426.0,235.47 438.0,223.03 450.0,212.02 462.0,206.16 474.0,197.00 486.0,188.35 498.0,185.39 510.0,182.88 522.0,179.68 534.0,174.13 546.0,170.80 558.0,167.05 570.0,161.55 582.0,154.30 594.0,151.12 606.0,142.77 618.0,133.81 630.0,126.31 642.0,120.15 654.0,115.55 666.0,111.14 678.0,108.64 690.0,115.23 702.0,119.98 714.0,122.12 726.0,123.39 738.0,123.49 750.0,117.06 762.0,109.35 774.0,98.76" fill="none" stroke="#ff6b6b" stroke-width="0.8" opacity="0.7"/>
<polyline points="66.0,212.65 78.0,214.41 90.0,214.43 102.0,216.72 114.0,218.84 126.0,219.59 138.0,221.52 150.0,223.68 162.0,224.61 174.0,225.88 186.0,227.02 198.0,228.54 210.0,231.59 222.0,235.30 234.0,237.87 246.0,241.54 258.0,245.84 270.0,248.78 282.0,250.58 294.0,250.83 306.0,252.01 318.0,252.49 330.0,253.09 342.0,254.28 354.0,253.67 366.0,253.22 378.0,252.43 390.0,251.25 402.0,248.96 414.0,246.11 426.0,242.09 438.0,234.94 450.0,228.04 462.0,223.44 474.0,217.00 486.0,210.57 498.0,206.90 510.0,203.54 522.0,199.89 534.0,195.06 546.0,191.32 558.0,187.40 570.0,182.59 582.0,176.78 594.0,172.98 606.0,166.52 618.0,159.56 630.0,153.18 642.0,147.40 654.0,142.39 666.0,137.53 678.0,133.70 690.0,134.77 702.0,135.40 714.0,135.05 726.0,134.48 738.0,133.48 750.0,129.16 762.0,123.97 774.0,117.03" fill="none" stroke="#4ecdc4" stroke-width="0.8" opacity="0.7"/>
<line x1="66.0" y1="207.85112359550564" x2="66.0" y2="232.1207865168539" stroke="#ff4444" stroke-width="0.5" opacity="0.6"/>
<rect x="63.0" y="212.65449438202248" width="6.0" height="13.651685393258418" fill="#ff4444" opacity="0.85"/>
<line x1="78.0" y1="219.22752808988764" x2="78.0" y2="234.39606741573033" stroke="#44aa44" stroke-width="0.5" opacity="0.6"/>
<rect x="75.0" y="224.0308988764045" width="6.0" height="7.078651685393254" fill="#44aa44" opacity="0.85"/>
<line x1="90.0" y1="210.12640449438203" x2="90.0" y2="240.33707865168543" stroke="#ff4444" stroke-width="0.5" opacity="0.6"/>
<rect x="87.0" y="214.5505617977528" width="6.0" height="25.786516853932625" fill="#ff4444" opacity="0.85"/>
<line x1="102.0" y1="207.72471910112358" x2="102.0" y2="239.45224719101125" stroke="#44aa44" stroke-width="0.5" opacity="0.6"/>
<rect x="99.0" y="213.91853932584274" width="6.0" height="24.64887640449436" fill="#44aa44" opacity="0.85"/>
<line x1="114.0" y1="228.20224719101125" x2="114.0" y2="241.09550561797755" stroke="#ff4444" stroke-width="0.5" opacity="0.6"/>
<rect x="111.0" y="238.94662921348313" width="6.0" height="2.148876404494416" fill="#ff4444" opacity="0.85"/>
<line x1="126.0" y1="217.07865168539328" x2="126.0" y2="232.87921348314612" stroke="#ff4444" stroke-width="0.5" opacity="0.6"/>
<rect x="123.0" y="226.68539325842696" width="6.0" height="1.1376404494382086" fill="#ff4444" opacity="0.85"/>
<line x1="138.0" y1="228.4550561797753" x2="138.0" y2="244.2556179775281" stroke="#44aa44" stroke-width="0.5" opacity="0.6"/>
<rect x="135.0" y="230.3511235955056" width="6.0" height="9.4803370786517" fill="#44aa44" opacity="0.85"/>
<line x1="150.0" y1="241.72752808988764" x2="150.0" y2="262.96348314606746" stroke="#ff4444" stroke-width="0.5" opacity="0.6"/>
<rect x="147.0" y="244.2556179775281" width="6.0" height="10.99719101123597" fill="#ff4444" opacity="0.85"/>
<line x1="162.0" y1="228.4550561797753" x2="162.0" y2="240.4634831460674" stroke="#ff4444" stroke-width="0.5" opacity="0.6"/>
<rect x="159.0" y="233.38483146067418" width="6.0" height="3.286516853932568" fill="#ff4444" opacity="0.85"/>
<line x1="174.0" y1="224.0308988764045" x2="174.0" y2="238.44101123595505" stroke="#44aa44" stroke-width="0.5" opacity="0.6"/>
<rect x="171.0" y="229.97191011235958" width="6.0" height="7.963483146067404" fill="#44aa44" opacity="0.85"/>
<line x1="186.0" y1="232.24719101123597" x2="186.0" y2="246.65730337078656" stroke="#ff4444" stroke-width="0.5" opacity="0.6"/>
<rect x="183.0" y="237.93539325842698" width="6.0" height="4.803370786516837" fill="#ff4444" opacity="0.85"/>
<line x1="198.0" y1="234.1432584269663" x2="198.0" y2="244.8876404494382" stroke="#44aa44" stroke-width="0.5" opacity="0.6"/>
<rect x="195.0" y="237.93539325842698" width="6.0" height="5.056179775280896" fill="#44aa44" opacity="0.85"/>
<line x1="210.0" y1="243.11797752808988" x2="210.0" y2="270.16853932584274" stroke="#44aa44" stroke-width="0.5" opacity="0.6"/>
<rect x="207.0" y="245.26685393258427" width="6.0" height="15.294943820224688" fill="#44aa44" opacity="0.85"/>
<line x1="222.0" y1="255.6320224719101" x2="222.0" y2="270.9269662921348" stroke="#44aa44" stroke-width="0.5" opacity="0.6"/>
<rect x="219.0" y="260.56179775280896" width="6.0" height="9.985955056179819" fill="#44aa44" opacity="0.85"/>
<line x1="234.0" y1="260.94101123595505" x2="234.0" y2="271.81179775280896" stroke="#ff4444" stroke-width="0.5" opacity="0.6"/>
<rect x="231.0" y="262.2050561797753" width="6.0" height="4.424157303370805" fill="#ff4444" opacity="0.85"/>
<line x1="246.0" y1="263.4691011235955" x2="246.0" y2="278.51123595505624" stroke="#44aa44" stroke-width="0.5" opacity="0.6"/>
<rect x="243.0" y="263.4691011235955" width="6.0" height="13.019662921348356" fill="#44aa44" opacity="0.85"/>
<line x1="258.0" y1="267.2612359550562" x2="258.0" y2="288.24438202247194" stroke="#44aa44" stroke-width="0.5" opacity="0.6"/>
<rect x="255.0" y="271.81179775280896" width="6.0" height="14.789325842696655" fill="#44aa44" opacity="0.85"/>
<line x1="270.0" y1="270.80056179775283" x2="270.0" y2="300.0" stroke="#ff4444" stroke-width="0.5" opacity="0.6"/>
<rect x="267.0" y="276.7415730337079" width="6.0" height="12.76685393258424" fill="#ff4444" opacity="0.85"/>
<line x1="282.0" y1="267.0084269662922" x2="282.0" y2="277.5" stroke="#ff4444" stroke-width="0.5" opacity="0.6"/>
<rect x="279.0" y="267.64044943820227" width="6.0" height="3.412921348314626" fill="#ff4444" opacity="0.85"/>
<line x1="294.0" y1="249.69101123595507" x2="294.0" y2="260.94101123595505" stroke="#ff4444" stroke-width="0.5" opacity="0.6"/>
<rect x="291.0" y="253.2303370786517" width="6.0" height="7.710674157303345" fill="#ff4444" opacity="0.85"/>
<line x1="306.0" y1="251.58707865168537" x2="306.0" y2="265.2387640449438" stroke="#44aa44" stroke-width="0.5" opacity="0.6"/>
<rect x="303.0" y="255.6320224719101" width="6.0" height="7.584269662921372" fill="#44aa44" opacity="0.85"/>
<line x1="318.0" y1="256.1376404494382" x2="318.0" y2="272.3174157303371" stroke="#ff4444" stroke-width="0.5" opacity="0.6"/>
<rect x="315.0" y="257.02247191011236" width="6.0" height="14.283707865168594" fill="#ff4444" opacity="0.85"/>
<line x1="330.0" y1="249.43820224719101" x2="330.0" y2="269.1573033707865" stroke="#ff4444" stroke-width="0.5" opacity="0.6"/>
<rect x="327.0" y="258.79213483146066" width="6.0" height="4.424157303370805" fill="#ff4444" opacity="0.85"/>
<line x1="342.0" y1="256.51685393258424" x2="342.0" y2="270.80056179775283" stroke="#44aa44" stroke-width="0.5" opacity="0.6"/>
<rect x="339.0" y="260.68820224719104" width="6.0" height="4.929775280898866" fill="#44aa44" opacity="0.85"/>
<line x1="354.0" y1="235.66011235955057" x2="354.0" y2="251.33426966292132" stroke="#44aa44" stroke-width="0.5" opacity="0.6"/>
<rect x="351.0" y="246.1516853932584" width="6.0" height="1.7696629213483561" fill="#44aa44" opacity="0.85"/>
<line x1="366.0" y1="243.62359550561797" x2="366.0" y2="253.10393258426967" stroke="#44aa44" stroke-width="0.5" opacity="0.6"/>
<rect x="363.0" y="248.04775280898878" width="6.0" height="0.8848314606741781" fill="#44aa44" opacity="0.85"/>
<line x1="378.0" y1="229.71910112359555" x2="378.0" y2="248.04775280898878" stroke="#ff4444" stroke-width="0.5" opacity="0.6"/>
<rect x="375.0" y="244.8876404494382" width="6.0" height="1.8960674157303288" fill="#ff4444" opacity="0.85"/>
<line x1="390.0" y1="224.41011235955057" x2="390.0" y2="243.11797752808988" stroke="#ff4444" stroke-width="0.5" opacity="0.6"/>
<rect x="387.0" y="240.08426966292137" width="6.0" height="1.5168539325842403" fill="#ff4444" opacity="0.85"/>
<line x1="402.0" y1="225.29494382022474" x2="402.0" y2="237.30337078651684" stroke="#ff4444" stroke-width="0.5" opacity="0.6"/>
<rect x="399.0" y="227.19101123595505" width="6.0" height="2.5280898876405047" fill="#ff4444" opacity="0.85"/>
<line x1="414.0" y1="218.3426966292135" x2="414.0" y2="239.19943820224722" stroke="#ff4444" stroke-width="0.5" opacity="0.6"/>
<rect x="411.0" y="218.9747191011236" width="6.0" height="12.64044943820224" fill="#ff4444" opacity="0.85"/>
<line x1="426.0" y1="195.58988764044943" x2="426.0" y2="217.71067415730337" stroke="#44aa44" stroke-width="0.5" opacity="0.6"/>
<rect x="423.0" y="202.0365168539326" width="6.0" height="1.8960674157303288" fill="#44aa44" opacity="0.85"/>
<line x1="438.0" y1="167.0224719101124" x2="438.0" y2="206.4606741573034" stroke="#ff4444" stroke-width="0.5" opacity="0.6"/>
<rect x="435.0" y="167.0224719101124" width="6.0" height="38.42696629213481" fill="#ff4444" opacity="0.85"/>
<line x1="450.0" y1="151.98033707865173" x2="450.0" y2="169.17134831460675" stroke="#44aa44" stroke-width="0.5" opacity="0.6"/>
<rect x="447.0" y="154.8876404494382" width="6.0" height="7.584269662921372" fill="#44aa44" opacity="0.85"/>
<line x1="462.0" y1="157.0365168539326" x2="462.0" y2="182.57022471910113" stroke="#44aa44" stroke-width="0.5" opacity="0.6"/>
<rect x="459.0" y="170.94101123595507" width="6.0" height="8.848314606741553" fill="#44aa44" opacity="0.85"/>
<line x1="474.0" y1="144.77528089887647" x2="474.0" y2="170.68820224719101" stroke="#ff4444" stroke-width="0.5" opacity="0.6"/>
<rect x="471.0" y="155.77247191011236" width="6.0" height="11.123595505618027" fill="#ff4444" opacity="0.85"/>
<line x1="486.0" y1="136.811797752809" x2="486.0" y2="163.73595505617982" stroke="#ff4444" stroke-width="0.5" opacity="0.6"/>
<rect x="483.0" y="149.45224719101125" width="6.0" height="10.744382022471939" fill="#ff4444" opacity="0.85"/>
<line x1="498.0" y1="152.23314606741573" x2="498.0" y2="174.73314606741576" stroke="#44aa44" stroke-width="0.5" opacity="0.6"/>
<rect x="495.0" y="154.76123595505624" width="6.0" height="17.317415730337046" fill="#44aa44" opacity="0.85"/>
<line x1="510.0" y1="167.78089887640454" x2="510.0" y2="178.52528089887642" stroke="#ff4444" stroke-width="0.5" opacity="0.6"/>
<rect x="507.0" y="171.5730337078652" width="6.0" height="0.5056179775280896" fill="#ff4444" opacity="0.85"/>
<line x1="522.0" y1="164.3679775280899" x2="522.0" y2="180.6741573033708" stroke="#ff4444" stroke-width="0.5" opacity="0.6"/>
<rect x="519.0" y="165.25280898876406" width="6.0" height="9.4803370786517" fill="#ff4444" opacity="0.85"/>
<line x1="534.0" y1="138.07584269662925" x2="534.0" y2="159.18539325842704" stroke="#ff4444" stroke-width="0.5" opacity="0.6"/>
<rect x="531.0" y="149.19943820224717" width="6.0" height="9.101123595505697" fill="#ff4444" opacity="0.85"/>
<line x1="546.0" y1="147.05056179775283" x2="546.0" y2="170.81460674157307" stroke="#44aa44" stroke-width="0.5" opacity="0.6"/>
<rect x="543.0" y="149.45224719101125" width="6.0" height="6.320224719101105" fill="#44aa44" opacity="0.85"/>
<line x1="558.0" y1="127.8370786516854" x2="558.0" y2="153.24438202247188" stroke="#44aa44" stroke-width="0.5" opacity="0.6"/>
<rect x="555.0" y="144.6488764044944" width="6.0" height="5.561797752809014" fill="#44aa44" opacity="0.85"/>
<line x1="570.0" y1="125.81460674157309" x2="570.0" y2="149.95786516853934" stroke="#ff4444" stroke-width="0.5" opacity="0.6"/>
<rect x="567.0" y="136.811797752809" width="6.0" height="11.123595505618027" fill="#ff4444" opacity="0.85"/>
<line x1="582.0" y1="114.56460674157309" x2="582.0" y2="141.23595505617982" stroke="#ff4444" stroke-width="0.5" opacity="0.6"/>
<rect x="579.0" y="121.64325842696628" width="6.0" height="19.213483146067446" fill="#ff4444" opacity="0.85"/>
<line x1="594.0" y1="122.02247191011236" x2="594.0" y2="159.56460674157302" stroke="#44aa44" stroke-width="0.5" opacity="0.6"/>
<rect x="591.0" y="122.27528089887645" width="6.0" height="14.536516853932568" fill="#44aa44" opacity="0.85"/>
<line x1="606.0" y1="95.35112359550563" x2="606.0" y2="127.9634831460674" stroke="#ff4444" stroke-width="0.5" opacity="0.6"/>
<rect x="603.0" y="105.2106741573034" width="6.0" height="22.752808988764002" fill="#ff4444" opacity="0.85"/>
<line x1="618.0" y1="87.13483146067419" x2="618.0" y2="112.79494382022476" stroke="#ff4444" stroke-width="0.5" opacity="0.6"/>
<rect x="615.0" y="93.45505617977531" width="6.0" height="11.629213483146088" fill="#ff4444" opacity="0.85"/>
<line x1="630.0" y1="83.72191011235954" x2="630.0" y2="107.3595505617978" stroke="#ff4444" stroke-width="0.5" opacity="0.6"/>
<rect x="627.0" y="92.57022471910115" width="6.0" height="6.952247191011196" fill="#ff4444" opacity="0.85"/>
<line x1="642.0" y1="68.8061797752809" x2="642.0" y2="105.46348314606749" stroke="#44aa44" stroke-width="0.5" opacity="0.6"/>
<rect x="639.0" y="86.37640449438203" width="6.0" height="6.067415730337132" fill="#44aa44" opacity="0.85"/>
<line x1="654.0" y1="92.44382022471916" x2="654.0" y2="117.59831460674155" stroke="#44aa44" stroke-width="0.5" opacity="0.6"/>
<rect x="651.0" y="93.8342696629214" width="6.0" height="1.0112359550561507" fill="#44aa44" opacity="0.85"/>
<line x1="666.0" y1="87.76685393258427" x2="666.0" y2="111.53089887640452" stroke="#ff4444" stroke-width="0.5" opacity="0.6"/>
<rect x="663.0" y="91.3061797752809" width="6.0" height="13.904494382022506" fill="#ff4444" opacity="0.85"/>
<line x1="678.0" y1="76.13764044943827" x2="678.0" y2="106.47471910112364" stroke="#44aa44" stroke-width="0.5" opacity="0.6"/>
<rect x="675.0" y="76.13764044943827" width="6.0" height="21.235955056179776" fill="#44aa44" opacity="0.85"/>
<line x1="690.0" y1="92.57022471910115" x2="690.0" y2="144.90168539325845" stroke="#44aa44" stroke-width="0.5" opacity="0.6"/>
<rect x="687.0" y="97.62640449438203" width="6.0" height="47.27528089887642" fill="#44aa44" opacity="0.85"/>
<line x1="702.0" y1="132.7668539325843" x2="702.0" y2="157.2893258426966" stroke="#ff4444" stroke-width="0.5" opacity="0.6"/>
<rect x="699.0" y="141.3623595505618" width="6.0" height="4.297752808988832" fill="#ff4444" opacity="0.85"/>
<line x1="714.0" y1="129.73314606741573" x2="714.0" y2="159.43820224719101" stroke="#ff4444" stroke-width="0.5" opacity="0.6"/>
<rect x="711.0" y="131.75561797752812" width="6.0" height="12.26123595505618" fill="#ff4444" opacity="0.85"/>
<line x1="726.0" y1="118.10393258426971" x2="726.0" y2="136.811797752809" stroke="#ff4444" stroke-width="0.5" opacity="0.6"/>
<rect x="723.0" y="129.10112359550567" width="6.0" height="4.29775280898869" fill="#ff4444" opacity="0.85"/>
<line x1="738.0" y1="95.09831460674164" x2="738.0" y2="128.97471910112364" stroke="#ff4444" stroke-width="0.5" opacity="0.6"/>
<rect x="735.0" y="123.91853932584267" width="6.0" height="0.5" fill="#ff4444" opacity="0.85"/>
<line x1="750.0" y1="88.14606741573034" x2="750.0" y2="120.37921348314613" stroke="#ff4444" stroke-width="0.5" opacity="0.6"/>
<rect x="747.0" y="88.14606741573034" width="6.0" height="32.23314606741579" fill="#ff4444" opacity="0.85"/>
<line x1="762.0" y1="73.60955056179779" x2="762.0" y2="95.09831460674164" stroke="#ff4444" stroke-width="0.5" opacity="0.6"/>
<rect x="759.0" y="74.62078651685394" width="6.0" height="5.688202247191043" fill="#ff4444" opacity="0.85"/>
<line x1="774.0" y1="30.0" x2="774.0" y2="80.18258426966298" stroke="#ff4444" stroke-width="0.5" opacity="0.6"/>
<rect x="771.0" y="51.109550561797775" width="6.0" height="28.94662921348312" fill="#ff4444" opacity="0.85"/>
<rect x="134.0" y="240.2556179775281" width="8" height="8" fill="#4caf50" opacity="0.85" rx="1"/>
<text x="138.0" y="238.2556179775281" text-anchor="middle" font-family="sans-serif" font-size="8" fill="#4caf50">前低</text>
<rect x="146.0" y="258.96348314606746" width="8" height="8" fill="#4caf50" opacity="0.85" rx="1"/>
<text x="150.0" y="256.96348314606746" text-anchor="middle" font-family="sans-serif" font-size="8" fill="#4caf50">前低</text>
<rect x="206.0" y="266.16853932584274" width="8" height="8" fill="#4caf50" opacity="0.85" rx="1"/>
<text x="210.0" y="264.16853932584274" text-anchor="middle" font-family="sans-serif" font-size="8" fill="#4caf50">前低</text>
<rect x="218.0" y="266.9269662921348" width="8" height="8" fill="#4caf50" opacity="0.85" rx="1"/>
<text x="222.0" y="264.9269662921348" text-anchor="middle" font-family="sans-serif" font-size="8" fill="#4caf50">前低</text>
<rect x="230.0" y="267.81179775280896" width="8" height="8" fill="#4caf50" opacity="0.85" rx="1"/>
<text x="234.0" y="265.81179775280896" text-anchor="middle" font-family="sans-serif" font-size="8" fill="#4caf50">前低</text>
<rect x="242.0" y="274.51123595505624" width="8" height="8" fill="#4caf50" opacity="0.85" rx="1"/>
<text x="246.0" y="272.51123595505624" text-anchor="middle" font-family="sans-serif" font-size="8" fill="#4caf50">前低</text>
<rect x="254.0" y="284.24438202247194" width="8" height="8" fill="#4caf50" opacity="0.85" rx="1"/>
<text x="258.0" y="282.24438202247194" text-anchor="middle" font-family="sans-serif" font-size="8" fill="#4caf50">前低</text>
<rect x="266.0" y="296.0" width="8" height="8" fill="#4caf50" opacity="0.85" rx="1"/>
<text x="270.0" y="294.0" text-anchor="middle" font-family="sans-serif" font-size="8" fill="#4caf50">前低</text>
<rect x="350.0" y="231.66011235955057" width="8" height="8" fill="#ff9800" opacity="0.85" rx="1"/>
<text x="354.0" y="229.66011235955057" text-anchor="middle" font-family="sans-serif" font-size="8" fill="#ff9800">前高</text>
<rect x="374.0" y="225.71910112359555" width="8" height="8" fill="#ff9800" opacity="0.85" rx="1"/>
<text x="378.0" y="223.71910112359555" text-anchor="middle" font-family="sans-serif" font-size="8" fill="#ff9800">前高</text>
<rect x="386.0" y="220.41011235955057" width="8" height="8" fill="#ff9800" opacity="0.85" rx="1"/>
<text x="390.0" y="218.41011235955057" text-anchor="middle" font-family="sans-serif" font-size="8" fill="#ff9800">前高</text>
<rect x="410.0" y="214.3426966292135" width="8" height="8" fill="#ff9800" opacity="0.85" rx="1"/>
<text x="414.0" y="212.3426966292135" text-anchor="middle" font-family="sans-serif" font-size="8" fill="#ff9800">前高</text>
<rect x="410.0" y="214.3426966292135" width="8" height="8" fill="#2196f3" opacity="0.85" rx="1"/>
<text x="414.0" y="212.3426966292135" text-anchor="middle" font-family="sans-serif" font-size="8" fill="#2196f3">突</text>
<rect x="422.0" y="191.58988764044943" width="8" height="8" fill="#ff9800" opacity="0.85" rx="1"/>
<text x="426.0" y="189.58988764044943" text-anchor="middle" font-family="sans-serif" font-size="8" fill="#ff9800">前高</text>
<rect x="434.0" y="163.0224719101124" width="8" height="8" fill="#ff9800" opacity="0.85" rx="1"/>
<text x="438.0" y="161.0224719101124" text-anchor="middle" font-family="sans-serif" font-size="8" fill="#ff9800">前高</text>
<rect x="434.0" y="163.0224719101124" width="8" height="8" fill="#2196f3" opacity="0.85" rx="1"/>
<text x="438.0" y="161.0224719101124" text-anchor="middle" font-family="sans-serif" font-size="8" fill="#2196f3">突</text>
<rect x="446.0" y="147.98033707865173" width="8" height="8" fill="#ff9800" opacity="0.85" rx="1"/>
<text x="450.0" y="145.98033707865173" text-anchor="middle" font-family="sans-serif" font-size="8" fill="#ff9800">前高</text>
<rect x="470.0" y="140.77528089887647" width="8" height="8" fill="#ff9800" opacity="0.85" rx="1"/>
<text x="474.0" y="138.77528089887647" text-anchor="middle" font-family="sans-serif" font-size="8" fill="#ff9800">前高</text>
<rect x="482.0" y="132.811797752809" width="8" height="8" fill="#ff9800" opacity="0.85" rx="1"/>
<text x="486.0" y="130.811797752809" text-anchor="middle" font-family="sans-serif" font-size="8" fill="#ff9800">前高</text>
<rect x="554.0" y="123.8370786516854" width="8" height="8" fill="#ff9800" opacity="0.85" rx="1"/>
<text x="558.0" y="121.8370786516854" text-anchor="middle" font-family="sans-serif" font-size="8" fill="#ff9800">前高</text>
<rect x="566.0" y="121.81460674157309" width="8" height="8" fill="#ff9800" opacity="0.85" rx="1"/>
<text x="570.0" y="119.81460674157309" text-anchor="middle" font-family="sans-serif" font-size="8" fill="#ff9800">前高</text>
<rect x="578.0" y="110.56460674157309" width="8" height="8" fill="#ff9800" opacity="0.85" rx="1"/>
<text x="582.0" y="108.56460674157309" text-anchor="middle" font-family="sans-serif" font-size="8" fill="#ff9800">前高</text>
<rect x="578.0" y="110.56460674157309" width="8" height="8" fill="#2196f3" opacity="0.85" rx="1"/>
<text x="582.0" y="108.56460674157309" text-anchor="middle" font-family="sans-serif" font-size="8" fill="#2196f3">突</text>
<rect x="602.0" y="91.35112359550563" width="8" height="8" fill="#ff9800" opacity="0.85" rx="1"/>
<text x="606.0" y="89.35112359550563" text-anchor="middle" font-family="sans-serif" font-size="8" fill="#ff9800">前高</text>
<rect x="614.0" y="83.13483146067419" width="8" height="8" fill="#ff9800" opacity="0.85" rx="1"/>
<text x="618.0" y="81.13483146067419" text-anchor="middle" font-family="sans-serif" font-size="8" fill="#ff9800">前高</text>
<rect x="614.0" y="83.13483146067419" width="8" height="8" fill="#2196f3" opacity="0.85" rx="1"/>
<text x="618.0" y="81.13483146067419" text-anchor="middle" font-family="sans-serif" font-size="8" fill="#2196f3">突</text>
<rect x="626.0" y="79.72191011235954" width="8" height="8" fill="#ff9800" opacity="0.85" rx="1"/>
<text x="630.0" y="77.72191011235954" text-anchor="middle" font-family="sans-serif" font-size="8" fill="#ff9800">前高</text>
<rect x="638.0" y="64.8061797752809" width="8" height="8" fill="#ff9800" opacity="0.85" rx="1"/>
<text x="642.0" y="62.806179775280896" text-anchor="middle" font-family="sans-serif" font-size="8" fill="#ff9800">前高</text>
<rect x="734.0" y="74.16011235955058" width="8" height="8" fill="#ff9800" opacity="0.85" rx="1"/>
<text x="738.0" y="72.16011235955058" text-anchor="middle" font-family="sans-serif" font-size="8" fill="#ff9800">量</text>
<rect x="770.0" y="26.0" width="8" height="8" fill="#ff9800" opacity="0.85" rx="1"/>
<text x="774.0" y="24.0" text-anchor="middle" font-family="sans-serif" font-size="8" fill="#ff9800">前高</text>
<text x="66.0" y="359" text-anchor="middle" font-family="sans-serif" font-size="8" fill="#666666" transform="rotate(-40,66.0,359)">02/26</text>
<text x="138.0" y="359" text-anchor="middle" font-family="sans-serif" font-size="8" fill="#666666" transform="rotate(-40,138.0,359)">03/06</text>
<text x="210.0" y="359" text-anchor="middle" font-family="sans-serif" font-size="8" fill="#666666" transform="rotate(-40,210.0,359)">03/16</text>
<text x="282.0" y="359" text-anchor="middle" font-family="sans-serif" font-size="8" fill="#666666" transform="rotate(-40,282.0,359)">03/24</text>
<text x="354.0" y="359" text-anchor="middle" font-family="sans-serif" font-size="8" fill="#666666" transform="rotate(-40,354.0,359)">04/01</text>
<text x="426.0" y="359" text-anchor="middle" font-family="sans-serif" font-size="8" fill="#666666" transform="rotate(-40,426.0,359)">04/10</text>
<text x="498.0" y="359" text-anchor="middle" font-family="sans-serif" font-size="8" fill="#666666" transform="rotate(-40,498.0,359)">04/20</text>
<text x="570.0" y="359" text-anchor="middle" font-family="sans-serif" font-size="8" fill="#666666" transform="rotate(-40,570.0,359)">04/28</text>
<text x="642.0" y="359" text-anchor="middle" font-family="sans-serif" font-size="8" fill="#666666" transform="rotate(-40,642.0,359)">05/11</text>
<text x="714.0" y="359" text-anchor="middle" font-family="sans-serif" font-size="8" fill="#666666" transform="rotate(-40,714.0,359)">05/19</text>
<text x="774.0" y="359" text-anchor="middle" font-family="sans-serif" font-size="8" fill="#666666" transform="rotate(-40,774.0,359)">05/26</text>
<text x="400.0" y="396" text-anchor="middle" font-family="sans-serif" font-size="9" fill="#555555">数据截至: 2026-05-26 21:24  |  最新K线: 20260526</text>
<rect x="50" y="373" width="8" height="8" fill="#ffd700" opacity="0.8" rx="1"/>
<text x="61" y="380" font-family="sans-serif" font-size="9" fill="#888888">EMA5</text>
<rect x="150" y="373" width="8" height="8" fill="#ff6b6b" opacity="0.8" rx="1"/>
<text x="161" y="380" font-family="sans-serif" font-size="9" fill="#888888">EMA10</text>
<rect x="250" y="373" width="8" height="8" fill="#4ecdc4" opacity="0.8" rx="1"/>
<text x="261" y="380" font-family="sans-serif" font-size="9" fill="#888888">EMA20</text>
<rect x="350" y="373" width="8" height="8" fill="#2196f3" opacity="0.8" rx="1"/>
<text x="361" y="380" font-family="sans-serif" font-size="9" fill="#888888">突破</text>
<rect x="450" y="373" width="8" height="8" fill="#ff9800" opacity="0.8" rx="1"/>
<text x="461" y="380" font-family="sans-serif" font-size="9" fill="#888888">前高/量</text>
<rect x="550" y="373" width="8" height="8" fill="#4caf50" opacity="0.8" rx="1"/>
<text x="561" y="380" font-family="sans-serif" font-size="9" fill="#888888">前低</text>
</svg>