<svg xmlns="http://www.w3.org/2000/svg" width="800" height="400" viewBox="0 0 800 400">
<rect width="800" height="400" fill="#1a1a2e"/>
<text x="400.0" y="20" text-anchor="middle" font-family="sans-serif" font-size="14" fill="#ffffff" font-weight="bold">香农芯创(300475) K线图</text>
<line x1="60" y1="30.0" x2="780" y2="30.0" stroke="#2a2a4e" stroke-width="0.5"/>
<text x="55" y="33.0" text-anchor="end" font-family="sans-serif" font-size="8" fill="#666666">209.86</text>
<line x1="60" y1="83.99999999999997" x2="780" y2="83.99999999999997" stroke="#2a2a4e" stroke-width="0.5"/>
<text x="55" y="86.99999999999997" text-anchor="end" font-family="sans-serif" font-size="8" fill="#666666">192.28</text>
<line x1="60" y1="137.99999999999994" x2="780" y2="137.99999999999994" stroke="#2a2a4e" stroke-width="0.5"/>
<text x="55" y="140.99999999999994" text-anchor="end" font-family="sans-serif" font-size="8" fill="#666666">174.70</text>
<line x1="60" y1="192.0" x2="780" y2="192.0" stroke="#2a2a4e" stroke-width="0.5"/>
<text x="55" y="195.0" text-anchor="end" font-family="sans-serif" font-size="8" fill="#666666">157.11</text>
<line x1="60" y1="245.99999999999997" x2="780" y2="245.99999999999997" stroke="#2a2a4e" stroke-width="0.5"/>
<text x="55" y="248.99999999999997" text-anchor="end" font-family="sans-serif" font-size="8" fill="#666666">139.53</text>
<line x1="60" y1="300.0" x2="780" y2="300.0" stroke="#2a2a4e" stroke-width="0.5"/>
<text x="55" y="303.0" text-anchor="end" font-family="sans-serif" font-size="8" fill="#666666">121.95</text>
<line x1="60" y1="300" x2="780" y2="300" stroke="#2a2a4e" stroke-width="0.5"/>
<line x1="60" y1="345" x2="780" y2="345" stroke="#2a2a4e" stroke-width="0.5"/>
<rect x="61.8" y="327.72588127171474" width="7.199999999999999" height="17.27411872828526" fill="#ff4444" opacity="0.3"/>
<rect x="73.8" y="333.5092145288058" width="7.199999999999999" height="11.490785471194215" fill="#ff4444" opacity="0.3"/>
<rect x="85.8" y="333.08218638501114" width="7.199999999999999" height="11.917813614988859" fill="#44aa44" opacity="0.3"/>
<rect x="97.8" y="330.85669214567514" width="7.199999999999999" height="14.14330785432486" fill="#44aa44" opacity="0.3"/>
<rect x="109.8" y="324.2307638001961" width="7.199999999999999" height="20.769236199803913" fill="#ff4444" opacity="0.3"/>
<rect x="121.8" y="328.2484158899774" width="7.199999999999999" height="16.751584110022577" fill="#44aa44" opacity="0.3"/>
<rect x="133.8" y="308.42199610706746" width="7.199999999999999" height="36.57800389293254" fill="#ff4444" opacity="0.3"/>
<rect x="145.8" y="320.0935275465534" width="7.199999999999999" height="24.90647245344661" fill="#ff4444" opacity="0.3"/>
<rect x="157.8" y="320.87501097449467" width="7.199999999999999" height="24.12498902550533" fill="#ff4444" opacity="0.3"/>
<rect x="169.8" y="326.3668480178083" width="7.199999999999999" height="18.63315198219169" fill="#44aa44" opacity="0.3"/>
<rect x="181.8" y="332.59095282893884" width="7.199999999999999" height="12.409047171061161" fill="#44aa44" opacity="0.3"/>
<rect x="193.8" y="328.61580172400295" width="7.199999999999999" height="16.38419827599705" fill="#ff4444" opacity="0.3"/>
<rect x="205.8" y="325.10648558765143" width="7.199999999999999" height="19.893514412348566" fill="#ff4444" opacity="0.3"/>
<rect x="217.8" y="331.60930055652784" width="7.199999999999999" height="13.390699443472158" fill="#44aa44" opacity="0.3"/>
<rect x="229.8" y="312.45497971983764" width="7.199999999999999" height="32.54502028016236" fill="#ff4444" opacity="0.3"/>
<rect x="241.8" y="323.3140493061392" width="7.199999999999999" height="21.685950693860775" fill="#44aa44" opacity="0.3"/>
<rect x="253.8" y="324.2644407635046" width="7.199999999999999" height="20.73555923649542" fill="#44aa44" opacity="0.3"/>
<rect x="265.8" y="326.8894275017405" width="7.199999999999999" height="18.1105724982595" fill="#44aa44" opacity="0.3"/>
<rect x="277.8" y="328.6310791442727" width="7.199999999999999" height="16.36892085572731" fill="#44aa44" opacity="0.3"/>
<rect x="289.8" y="328.1169060352771" width="7.199999999999999" height="16.88309396472289" fill="#ff4444" opacity="0.3"/>
<rect x="301.8" y="325.766842264446" width="7.199999999999999" height="19.233157735554016" fill="#ff4444" opacity="0.3"/>
<rect x="313.8" y="331.8950546243925" width="7.199999999999999" height="13.104945375607485" fill="#ff4444" opacity="0.3"/>
<rect x="325.8" y="327.7674796648552" width="7.199999999999999" height="17.232520335144784" fill="#44aa44" opacity="0.3"/>
<rect x="337.8" y="321.73471439834344" width="7.199999999999999" height="23.265285601656558" fill="#44aa44" opacity="0.3"/>
<rect x="349.8" y="327.4689190874921" width="7.199999999999999" height="17.53108091250789" fill="#44aa44" opacity="0.3"/>
<rect x="361.8" y="333.07059784648305" width="7.199999999999999" height="11.929402153516946" fill="#44aa44" opacity="0.3"/>
<rect x="373.8" y="333.769589143071" width="7.199999999999999" height="11.230410856928984" fill="#44aa44" opacity="0.3"/>
<rect x="385.8" y="333.2686329324923" width="7.199999999999999" height="11.731367067507676" fill="#44aa44" opacity="0.3"/>
<rect x="397.8" y="305.6111876417777" width="7.199999999999999" height="39.38881235822231" fill="#ff4444" opacity="0.3"/>
<rect x="409.8" y="309.92378070505254" width="7.199999999999999" height="35.076219294947464" fill="#44aa44" opacity="0.3"/>
<rect x="421.8" y="315.7350560372213" width="7.199999999999999" height="29.264943962778716" fill="#ff4444" opacity="0.3"/>
<rect x="433.8" y="320.8667688870833" width="7.199999999999999" height="24.13323111291669" fill="#ff4444" opacity="0.3"/>
<rect x="445.8" y="311.206011850167" width="7.199999999999999" height="33.79398814983301" fill="#ff4444" opacity="0.3"/>
<rect x="457.8" y="317.0741986243658" width="7.199999999999999" height="27.925801375634194" fill="#44aa44" opacity="0.3"/>
<rect x="469.8" y="323.18520368046285" width="7.199999999999999" height="21.81479631953715" fill="#ff4444" opacity="0.3"/>
<rect x="481.8" y="321.80250840439555" width="7.199999999999999" height="23.197491595604447" fill="#ff4444" opacity="0.3"/>
<rect x="493.8" y="318.43447492123437" width="7.199999999999999" height="26.56552507876563" fill="#ff4444" opacity="0.3"/>
<rect x="505.8" y="326.9126929905573" width="7.199999999999999" height="18.087307009442725" fill="#44aa44" opacity="0.3"/>
<rect x="517.8" y="328.1459908653497" width="7.199999999999999" height="16.854009134650312" fill="#ff4444" opacity="0.3"/>
<rect x="529.8" y="321.506332305411" width="7.199999999999999" height="23.49366769458902" fill="#44aa44" opacity="0.3"/>
<rect x="541.8" y="301.3949686758452" width="7.199999999999999" height="43.60503132415482" fill="#ff4444" opacity="0.3"/>
<rect x="553.8" y="309.1938683848869" width="7.199999999999999" height="35.80613161511309" fill="#ff4444" opacity="0.3"/>
<rect x="565.8" y="309.9176248712751" width="7.199999999999999" height="35.08237512872489" fill="#ff4444" opacity="0.3"/>
<rect x="577.8" y="312.797690095402" width="7.199999999999999" height="32.202309904597996" fill="#ff4444" opacity="0.3"/>
<rect x="589.8" y="319.12439081657806" width="7.199999999999999" height="25.875609183421943" fill="#ff4444" opacity="0.3"/>
<rect x="601.8" y="300.84026471272864" width="7.199999999999999" height="44.15973528727136" fill="#ff4444" opacity="0.3"/>
<rect x="613.8" y="309.4014869098691" width="7.199999999999999" height="35.59851309013089" fill="#44aa44" opacity="0.3"/>
<rect x="625.8" y="314.43995702220747" width="7.199999999999999" height="30.560042977792534" fill="#44aa44" opacity="0.3"/>
<rect x="637.8" y="300.0" width="7.199999999999999" height="45.0" fill="#ff4444" opacity="0.3"/>
<rect x="649.8" y="316.4456985523168" width="7.199999999999999" height="28.5543014476832" fill="#44aa44" opacity="0.3"/>
<rect x="661.8" y="312.3973365715204" width="7.199999999999999" height="32.602663428479616" fill="#ff4444" opacity="0.3"/>
<rect x="673.8" y="303.23481939280737" width="7.199999999999999" height="41.76518060719263" fill="#ff4444" opacity="0.3"/>
<rect x="685.8" y="311.70858916295265" width="7.199999999999999" height="33.29141083704735" fill="#44aa44" opacity="0.3"/>
<rect x="697.8" y="315.853106850847" width="7.199999999999999" height="29.146893149153016" fill="#ff4444" opacity="0.3"/>
<rect x="709.8" y="318.5518857392798" width="7.199999999999999" height="26.448114260720217" fill="#44aa44" opacity="0.3"/>
<rect x="721.8" y="324.92901283386874" width="7.199999999999999" height="20.07098716613126" fill="#44aa44" opacity="0.3"/>
<rect x="733.8" y="316.30352188468186" width="7.199999999999999" height="28.696478115318143" fill="#44aa44" opacity="0.3"/>
<rect x="745.8" y="321.277739079916" width="7.199999999999999" height="23.72226092008401" fill="#ff4444" opacity="0.3"/>
<rect x="757.8" y="311.78396546715805" width="7.199999999999999" height="33.216034532841945" fill="#ff4444" opacity="0.3"/>
<rect x="769.8" y="318.9783735156721" width="7.199999999999999" height="26.021626484327896" fill="#44aa44" opacity="0.3"/>
<polyline points="66.0,219.29 78.0,218.52 90.0,222.22 102.0,234.60 114.0,237.39 126.0,241.47 138.0,227.10 150.0,214.70 162.0,202.29 174.0,199.15 186.0,201.28 198.0,201.84 210.0,195.72 222.0,198.02 234.0,182.83 246.0,181.21 258.0,184.77 270.0,201.44 282.0,211.93 294.0,214.17 306.0,216.94 318.0,222.09 330.0,232.55 342.0,251.27 354.0,261.24 366.0,270.52 378.0,280.32 390.0,285.31 402.0,263.35 414.0,249.36 426.0,236.24 438.0,226.73 450.0,213.65 462.0,209.69 474.0,204.11 486.0,198.02 498.0,188.96 510.0,186.18 522.0,183.00 534.0,186.74 546.0,183.44 558.0,172.09 570.0,163.88 582.0,155.66 594.0,149.77 606.0,125.41 618.0,114.78 630.0,116.04 642.0,104.03 654.0,105.20 666.0,95.72 678.0,83.39 690.0,85.52 702.0,82.89 714.0,86.74 726.0,91.84 738.0,104.10 750.0,102.10 762.0,83.49 774.0,80.95" fill="none" stroke="#ffd700" stroke-width="0.8" opacity="0.7"/>
<polyline points="66.0,219.29 78.0,218.87 90.0,220.82 102.0,227.83 114.0,230.58 126.0,234.05 138.0,227.56 150.0,220.71 162.0,212.85 174.0,209.21 186.0,208.55 198.0,207.53 210.0,203.16 222.0,203.06 234.0,193.86 246.0,190.97 258.0,191.14 270.0,199.07 282.0,205.23 294.0,207.67 306.0,210.36 318.0,214.37 330.0,221.48 342.0,233.70 354.0,242.33 366.0,250.83 378.0,259.76 390.0,266.22 402.0,257.71 414.0,251.11 426.0,243.63 438.0,237.10 450.0,228.08 462.0,223.29 474.0,217.78 486.0,211.97 498.0,204.50 510.0,200.15 522.0,195.88 534.0,195.58 546.0,192.17 558.0,184.39 570.0,177.68 582.0,170.69 594.0,164.74 606.0,148.73 618.0,138.69 630.0,135.03 642.0,125.03 654.0,121.85 666.0,113.65 678.0,103.67 690.0,101.14 702.0,96.87 714.0,96.42 726.0,97.45 738.0,103.12 750.0,102.20 762.0,92.03 774.0,89.09" fill="none" stroke="#ff6b6b" stroke-width="0.8" opacity="0.7"/>
<polyline points="66.0,219.29 78.0,219.07 90.0,220.07 102.0,223.82 114.0,225.64 126.0,227.92 138.0,225.11 150.0,221.76 162.0,217.54 174.0,215.19 186.0,214.27 198.0,213.19 210.0,210.36 222.0,209.63 234.0,204.18 246.0,201.69 258.0,200.75 270.0,203.99 282.0,206.75 294.0,207.88 306.0,209.27 318.0,211.47 330.0,215.47 342.0,222.45 354.0,228.04 366.0,233.85 378.0,240.15 390.0,245.40 402.0,242.93 414.0,240.87 426.0,237.93 438.0,235.06 450.0,230.53 462.0,227.79 474.0,224.47 486.0,220.79 498.0,216.03 510.0,212.66 522.0,209.23 534.0,207.80 546.0,204.85 558.0,199.57 570.0,194.61 582.0,189.33 594.0,184.44 606.0,174.18 618.0,166.50 630.0,161.93 642.0,154.13 654.0,149.69 666.0,142.75 678.0,134.75 690.0,130.46 702.0,125.43 714.0,122.48 726.0,120.53 738.0,121.30 750.0,119.09 762.0,112.16 774.0,108.70" fill="none" stroke="#4ecdc4" stroke-width="0.8" opacity="0.7"/>
<line x1="66.0" y1="218.21067000341256" x2="66.0" y2="245.45330451598224" stroke="#ff4444" stroke-width="0.5" opacity="0.6"/>
<rect x="63.0" y="219.2856330337846" width="6.0" height="15.233761801842746" fill="#ff4444" opacity="0.85"/>
<line x1="78.0" y1="216.98214082584468" x2="78.0" y2="233.26015242862016" stroke="#ff4444" stroke-width="0.5" opacity="0.6"/>
<rect x="75.0" y="216.98214082584468" width="6.0" height="10.65749061540211" fill="#ff4444" opacity="0.85"/>
<line x1="90.0" y1="220.75986804686613" x2="90.0" y2="233.26015242862016" stroke="#44aa44" stroke-width="0.5" opacity="0.6"/>
<rect x="87.0" y="229.2060061426459" width="6.0" height="0.5" fill="#44aa44" opacity="0.85"/>
<line x1="102.0" y1="226.8718007052668" x2="102.0" y2="261.85416903651463" stroke="#44aa44" stroke-width="0.5" opacity="0.6"/>
<rect x="99.0" y="232.0316232510522" width="6.0" height="27.334774200887267" fill="#44aa44" opacity="0.85"/>
<line x1="114.0" y1="223.80047776134685" x2="114.0" y2="253.77658969400525" stroke="#ff4444" stroke-width="0.5" opacity="0.6"/>
<rect x="111.0" y="242.9655329314071" width="6.0" height="10.811056762598156" fill="#ff4444" opacity="0.85"/>
<line x1="126.0" y1="226.1961096576044" x2="126.0" y2="252.2409282220453" stroke="#44aa44" stroke-width="0.5" opacity="0.6"/>
<rect x="123.0" y="227.6089182118075" width="6.0" height="22.021385507905876" fill="#44aa44" opacity="0.85"/>
<line x1="138.0" y1="196.95711523148677" x2="138.0" y2="256.356500966898" stroke="#ff4444" stroke-width="0.5" opacity="0.6"/>
<rect x="135.0" y="198.36992378568993" width="6.0" height="56.02093049709927" fill="#ff4444" opacity="0.85"/>
<line x1="150.0" y1="187.22102149926067" x2="150.0" y2="229.2060061426459" stroke="#ff4444" stroke-width="0.5" opacity="0.6"/>
<rect x="147.0" y="189.89307246047093" width="6.0" height="26.996928677056133" fill="#ff4444" opacity="0.85"/>
<line x1="162.0" y1="166.7967239221932" x2="162.0" y2="187.49744056421338" stroke="#ff4444" stroke-width="0.5" opacity="0.6"/>
<rect x="159.0" y="177.45421453759533" width="6.0" height="5.067682857467872" fill="#ff4444" opacity="0.85"/>
<line x1="174.0" y1="176.31782504834493" x2="174.0" y2="196.71140939597313" stroke="#44aa44" stroke-width="0.5" opacity="0.6"/>
<rect x="171.0" y="181.569787282448" width="6.0" height="11.302468433625222" fill="#44aa44" opacity="0.85"/>
<line x1="186.0" y1="188.050278694119" x2="186.0" y2="211.8223182800592" stroke="#44aa44" stroke-width="0.5" opacity="0.6"/>
<rect x="183.0" y="194.5000568763508" width="6.0" height="11.05676259811176" fill="#44aa44" opacity="0.85"/>
<line x1="198.0" y1="183.1668752132863" x2="198.0" y2="215.50790581276306" stroke="#ff4444" stroke-width="0.5" opacity="0.6"/>
<rect x="195.0" y="202.94619497213057" width="6.0" height="10.903196450915743" fill="#ff4444" opacity="0.85"/>
<line x1="210.0" y1="177.97633943806164" x2="210.0" y2="215.2621999772495" stroke="#ff4444" stroke-width="0.5" opacity="0.6"/>
<rect x="207.0" y="183.47400750767835" width="6.0" height="18.642930269593904" fill="#ff4444" opacity="0.85"/>
<line x1="222.0" y1="183.2590149016039" x2="222.0" y2="202.88476851325225" stroke="#44aa44" stroke-width="0.5" opacity="0.6"/>
<rect x="219.0" y="188.26527130019335" width="6.0" height="14.373791377545245" fill="#44aa44" opacity="0.85"/>
<line x1="234.0" y1="143.36252986008424" x2="234.0" y2="197.5713798202707" stroke="#ff4444" stroke-width="0.5" opacity="0.6"/>
<rect x="231.0" y="152.45364577408714" width="6.0" height="41.43214651347972" fill="#ff4444" opacity="0.85"/>
<line x1="246.0" y1="161.02263678762375" x2="246.0" y2="182.8904561483335" stroke="#44aa44" stroke-width="0.5" opacity="0.6"/>
<rect x="243.0" y="174.167898987601" width="6.0" height="3.808440450460637" fill="#44aa44" opacity="0.85"/>
<line x1="258.0" y1="166.24388579228759" x2="258.0" y2="201.56409964736665" stroke="#44aa44" stroke-width="0.5" opacity="0.6"/>
<rect x="255.0" y="170.97372312592424" width="6.0" height="20.915709248094657" fill="#44aa44" opacity="0.85"/>
<line x1="270.0" y1="204.0211580025026" x2="270.0" y2="235.9629166192697" stroke="#44aa44" stroke-width="0.5" opacity="0.6"/>
<rect x="267.0" y="214.58650892958713" width="6.0" height="20.178591741553845" fill="#44aa44" opacity="0.85"/>
<line x1="282.0" y1="226.84108747582755" x2="282.0" y2="255.3122511659652" stroke="#44aa44" stroke-width="0.5" opacity="0.6"/>
<rect x="279.0" y="226.93322716414514" width="6.0" height="5.989079740643916" fill="#44aa44" opacity="0.85"/>
<line x1="294.0" y1="205.0654078034353" x2="294.0" y2="233.5058582641338" stroke="#ff4444" stroke-width="0.5" opacity="0.6"/>
<rect x="291.0" y="218.6406552155614" width="6.0" height="12.13172562848365" fill="#ff4444" opacity="0.85"/>
<line x1="306.0" y1="198.4927767034467" x2="306.0" y2="238.60425435104085" stroke="#ff4444" stroke-width="0.5" opacity="0.6"/>
<rect x="303.0" y="222.4798088954613" width="6.0" height="12.868843135024434" fill="#ff4444" opacity="0.85"/>
<line x1="318.0" y1="224.10761005573886" x2="318.0" y2="253.46945739961328" stroke="#ff4444" stroke-width="0.5" opacity="0.6"/>
<rect x="315.0" y="232.40018200432257" width="6.0" height="12.162438857922922" fill="#ff4444" opacity="0.85"/>
<line x1="330.0" y1="232.36946877488344" x2="330.0" y2="259.9192355818451" stroke="#44aa44" stroke-width="0.5" opacity="0.6"/>
<rect x="327.0" y="244.3783414856103" width="6.0" height="9.091115914002984" fill="#44aa44" opacity="0.85"/>
<line x1="342.0" y1="263.7276760323058" x2="342.0" y2="292.44454555795704" stroke="#44aa44" stroke-width="0.5" opacity="0.6"/>
<rect x="339.0" y="265.01763166875213" width="6.0" height="23.67989989762259" fill="#44aa44" opacity="0.85"/>
<line x1="354.0" y1="263.7276760323058" x2="354.0" y2="287.10044363553635" stroke="#44aa44" stroke-width="0.5" opacity="0.6"/>
<rect x="351.0" y="266.61471959959056" width="6.0" height="14.558070754180335" fill="#44aa44" opacity="0.85"/>
<line x1="366.0" y1="272.3580935047208" x2="366.0" y2="291.7995677397338" stroke="#44aa44" stroke-width="0.5" opacity="0.6"/>
<rect x="363.0" y="278.3164600159254" width="6.0" height="10.780343533158941" fill="#44aa44" opacity="0.85"/>
<line x1="378.0" y1="281.1113638948925" x2="378.0" y2="300.0" stroke="#44aa44" stroke-width="0.5" opacity="0.6"/>
<rect x="375.0" y="281.4184961892845" width="6.0" height="18.489364122397944" fill="#44aa44" opacity="0.85"/>
<line x1="390.0" y1="284.6740985098396" x2="390.0" y2="297.3893754976681" stroke="#44aa44" stroke-width="0.5" opacity="0.6"/>
<rect x="387.0" y="295.23944943692413" width="6.0" height="0.5" fill="#44aa44" opacity="0.85"/>
<line x1="402.0" y1="219.43919918098055" x2="402.0" y2="254.79012626549886" stroke="#ff4444" stroke-width="0.5" opacity="0.6"/>
<rect x="399.0" y="219.43919918098055" width="6.0" height="7.586167671482201" fill="#ff4444" opacity="0.85"/>
<line x1="414.0" y1="205.2496871800705" x2="414.0" y2="229.14457968376746" stroke="#44aa44" stroke-width="0.5" opacity="0.6"/>
<rect x="411.0" y="215.1700602889319" width="6.0" height="6.204072346718192" fill="#44aa44" opacity="0.85"/>
<line x1="426.0" y1="203.13047434876577" x2="426.0" y2="217.07428051416227" stroke="#ff4444" stroke-width="0.5" opacity="0.6"/>
<rect x="423.0" y="210.0102377431464" width="6.0" height="3.8391536798999084" fill="#ff4444" opacity="0.85"/>
<line x1="438.0" y1="203.1919008076442" x2="438.0" y2="218.57922875668297" stroke="#ff4444" stroke-width="0.5" opacity="0.6"/>
<rect x="435.0" y="207.70674553520647" width="6.0" height="10.71891707428054" fill="#ff4444" opacity="0.85"/>
<line x1="450.0" y1="173.92219315208737" x2="450.0" y2="199.41417358662272" stroke="#ff4444" stroke-width="0.5" opacity="0.6"/>
<rect x="447.0" y="187.49744056421338" width="6.0" height="10.073939256057315" fill="#ff4444" opacity="0.85"/>
<line x1="462.0" y1="174.04504606984415" x2="462.0" y2="205.9253782277329" stroke="#44aa44" stroke-width="0.5" opacity="0.6"/>
<rect x="459.0" y="183.13616198384713" width="6.0" height="18.612217040154718" fill="#44aa44" opacity="0.85"/>
<line x1="474.0" y1="191.30588101467413" x2="474.0" y2="217.964964167899" stroke="#ff4444" stroke-width="0.5" opacity="0.6"/>
<rect x="471.0" y="192.96439540439084" width="6.0" height="13.483107723808502" fill="#ff4444" opacity="0.85"/>
<line x1="486.0" y1="181.35479467637356" x2="486.0" y2="203.62188601979295" stroke="#ff4444" stroke-width="0.5" opacity="0.6"/>
<rect x="483.0" y="185.83892617449666" width="6.0" height="9.582527585030135" fill="#ff4444" opacity="0.85"/>
<line x1="498.0" y1="159.978386986691" x2="498.0" y2="188.51097713570698" stroke="#ff4444" stroke-width="0.5" opacity="0.6"/>
<rect x="495.0" y="170.85087020816746" width="6.0" height="13.820953247639636" fill="#ff4444" opacity="0.85"/>
<line x1="510.0" y1="174.59788419974976" x2="510.0" y2="192.35013081560692" stroke="#44aa44" stroke-width="0.5" opacity="0.6"/>
<rect x="507.0" y="176.77852348993295" width="6.0" height="3.83915367989988" fill="#44aa44" opacity="0.85"/>
<line x1="522.0" y1="176.34853827778412" x2="522.0" y2="186.82174951655102" stroke="#ff4444" stroke-width="0.5" opacity="0.6"/>
<rect x="519.0" y="176.6249573427369" width="6.0" height="7.125469229894179" fill="#ff4444" opacity="0.85"/>
<line x1="534.0" y1="167.84097372312598" x2="534.0" y2="202.05551131839383" stroke="#44aa44" stroke-width="0.5" opacity="0.6"/>
<rect x="531.0" y="169.4994881128427" width="6.0" height="24.72414969855538" fill="#44aa44" opacity="0.85"/>
<line x1="546.0" y1="145.85030144465938" x2="546.0" y2="187.71243317028785" stroke="#ff4444" stroke-width="0.5" opacity="0.6"/>
<rect x="543.0" y="176.8399499488113" width="6.0" height="6.296212035035836" fill="#ff4444" opacity="0.85"/>
<line x1="558.0" y1="143.63894892503694" x2="558.0" y2="173.92219315208737" stroke="#ff4444" stroke-width="0.5" opacity="0.6"/>
<rect x="555.0" y="149.3823228301672" width="6.0" height="21.86781936070986" fill="#ff4444" opacity="0.85"/>
<line x1="570.0" y1="125.76384939142307" x2="570.0" y2="158.5655784324878" stroke="#ff4444" stroke-width="0.5" opacity="0.6"/>
<rect x="567.0" y="147.47810260493685" width="6.0" height="2.7027641906495887" fill="#ff4444" opacity="0.85"/>
<line x1="582.0" y1="134.14856102832448" x2="582.0" y2="155.30997611193268" stroke="#ff4444" stroke-width="0.5" opacity="0.6"/>
<rect x="579.0" y="139.21624388579227" width="6.0" height="16.093732226140418" fill="#ff4444" opacity="0.85"/>
<line x1="594.0" y1="125.45671709703109" x2="594.0" y2="151.1636901376408" stroke="#ff4444" stroke-width="0.5" opacity="0.6"/>
<rect x="591.0" y="137.9877147082244" width="6.0" height="2.8870435672847066" fill="#ff4444" opacity="0.85"/>
<line x1="606.0" y1="47.997952451370764" x2="606.0" y2="103.28176544192928" stroke="#ff4444" stroke-width="0.5" opacity="0.6"/>
<rect x="603.0" y="76.6841087475828" width="6.0" height="17.414401092025898" fill="#ff4444" opacity="0.85"/>
<line x1="618.0" y1="63.35456717097035" x2="618.0" y2="95.11204641110231" stroke="#44aa44" stroke-width="0.5" opacity="0.6"/>
<rect x="615.0" y="76.34626322375158" width="6.0" height="17.168695256512336" fill="#44aa44" opacity="0.85"/>
<line x1="630.0" y1="106.7216471391196" x2="630.0" y2="121.70970310544878" stroke="#44aa44" stroke-width="0.5" opacity="0.6"/>
<rect x="627.0" y="109.57797747696515" width="6.0" height="8.998976225685297" fill="#44aa44" opacity="0.85"/>
<line x1="642.0" y1="54.44773063360257" x2="642.0" y2="97.13911955408945" stroke="#ff4444" stroke-width="0.5" opacity="0.6"/>
<rect x="639.0" y="80.00113752701625" width="6.0" height="7.924013195313435" fill="#ff4444" opacity="0.85"/>
<line x1="654.0" y1="81.72107837561143" x2="654.0" y2="109.70083039472192" stroke="#44aa44" stroke-width="0.5" opacity="0.6"/>
<rect x="651.0" y="84.85382777840977" width="6.0" height="22.69707655556816" fill="#44aa44" opacity="0.85"/>
<line x1="666.0" y1="74.28847685132527" x2="666.0" y2="124.90387896712548" stroke="#ff4444" stroke-width="0.5" opacity="0.6"/>
<rect x="663.0" y="76.74553520646123" width="6.0" height="40.48003640086445" fill="#ff4444" opacity="0.85"/>
<line x1="678.0" y1="30.0" x2="678.0" y2="90.99647366624961" stroke="#ff4444" stroke-width="0.5" opacity="0.6"/>
<rect x="675.0" y="58.74758275509048" width="6.0" height="17.967239221931507" fill="#ff4444" opacity="0.85"/>
<line x1="690.0" y1="53.28062791491301" x2="690.0" y2="100.51757479240133" stroke="#44aa44" stroke-width="0.5" opacity="0.6"/>
<rect x="687.0" y="59.976111932658455" width="6.0" height="29.791832556023166" fill="#44aa44" opacity="0.85"/>
<line x1="702.0" y1="50.05573882379707" x2="702.0" y2="89.27653281765444" stroke="#ff4444" stroke-width="0.5" opacity="0.6"/>
<rect x="699.0" y="77.63621886019797" width="6.0" height="11.64031395745647" fill="#ff4444" opacity="0.85"/>
<line x1="714.0" y1="88.23228301672167" x2="714.0" y2="123.61392333067916" stroke="#44aa44" stroke-width="0.5" opacity="0.6"/>
<rect x="711.0" y="90.99647366624961" width="6.0" height="3.439881697190316" fill="#44aa44" opacity="0.85"/>
<line x1="726.0" y1="82.4889091115914" x2="726.0" y2="108.77943351154592" stroke="#44aa44" stroke-width="0.5" opacity="0.6"/>
<rect x="723.0" y="97.13911955408945" width="6.0" height="4.914116710271841" fill="#44aa44" opacity="0.85"/>
<line x1="738.0" y1="81.81321806392903" x2="738.0" y2="131.9679217381413" stroke="#44aa44" stroke-width="0.5" opacity="0.6"/>
<rect x="735.0" y="88.4779888522353" width="6.0" height="40.142190877033315" fill="#44aa44" opacity="0.85"/>
<line x1="750.0" y1="97.5691047662382" x2="750.0" y2="124.10533500170632" stroke="#ff4444" stroke-width="0.5" opacity="0.6"/>
<rect x="747.0" y="98.09122966670462" width="6.0" height="19.90217267660104" fill="#ff4444" opacity="0.85"/>
<line x1="762.0" y1="45.35661471959959" x2="762.0" y2="106.78307359799794" stroke="#ff4444" stroke-width="0.5" opacity="0.6"/>
<rect x="759.0" y="46.2780116027756" width="6.0" height="51.81321806392902" fill="#ff4444" opacity="0.85"/>
<line x1="774.0" y1="51.069275395290674" x2="774.0" y2="92.99283357979758" stroke="#44aa44" stroke-width="0.5" opacity="0.6"/>
<rect x="771.0" y="54.1405983392106" width="6.0" height="21.7142532135138" fill="#44aa44" opacity="0.85"/>
<rect x="134.0" y="192.95711523148677" width="8" height="8" fill="#ff9800" opacity="0.85" rx="1"/>
<text x="138.0" y="190.95711523148677" text-anchor="middle" font-family="sans-serif" font-size="8" fill="#ff9800">前高</text>
<rect x="146.0" y="183.22102149926067" width="8" height="8" fill="#ff9800" opacity="0.85" rx="1"/>
<text x="150.0" y="181.22102149926067" text-anchor="middle" font-family="sans-serif" font-size="8" fill="#ff9800">前高</text>
<rect x="158.0" y="162.7967239221932" width="8" height="8" fill="#ff9800" opacity="0.85" rx="1"/>
<text x="162.0" y="160.7967239221932" text-anchor="middle" font-family="sans-serif" font-size="8" fill="#ff9800">前高</text>
<rect x="230.0" y="139.36252986008424" width="8" height="8" fill="#ff9800" opacity="0.85" rx="1"/>
<text x="234.0" y="137.36252986008424" text-anchor="middle" font-family="sans-serif" font-size="8" fill="#ff9800">前高</text>
<rect x="230.0" y="139.36252986008424" width="8" height="8" fill="#2196f3" opacity="0.85" rx="1"/>
<text x="234.0" y="137.36252986008424" text-anchor="middle" font-family="sans-serif" font-size="8" fill="#2196f3">突</text>
<rect x="266.0" y="231.9629166192697" width="8" height="8" fill="#4caf50" opacity="0.85" rx="1"/>
<text x="270.0" y="229.9629166192697" text-anchor="middle" font-family="sans-serif" font-size="8" fill="#4caf50">前低</text>
<rect x="278.0" y="251.3122511659652" width="8" height="8" fill="#4caf50" opacity="0.85" rx="1"/>
<text x="282.0" y="249.3122511659652" text-anchor="middle" font-family="sans-serif" font-size="8" fill="#4caf50">前低</text>
<rect x="326.0" y="255.9192355818451" width="8" height="8" fill="#4caf50" opacity="0.85" rx="1"/>
<text x="330.0" y="253.9192355818451" text-anchor="middle" font-family="sans-serif" font-size="8" fill="#4caf50">前低</text>
<rect x="338.0" y="288.44454555795704" width="8" height="8" fill="#4caf50" opacity="0.85" rx="1"/>
<text x="342.0" y="286.44454555795704" text-anchor="middle" font-family="sans-serif" font-size="8" fill="#4caf50">前低</text>
<rect x="374.0" y="296.0" width="8" height="8" fill="#4caf50" opacity="0.85" rx="1"/>
<text x="378.0" y="294.0" text-anchor="middle" font-family="sans-serif" font-size="8" fill="#4caf50">前低</text>
<rect x="398.0" y="197.76373563872144" width="8" height="8" fill="#ff9800" opacity="0.85" rx="1"/>
<text x="402.0" y="195.76373563872144" text-anchor="middle" font-family="sans-serif" font-size="8" fill="#ff9800">量</text>
<rect x="446.0" y="169.92219315208737" width="8" height="8" fill="#ff9800" opacity="0.85" rx="1"/>
<text x="450.0" y="167.92219315208737" text-anchor="middle" font-family="sans-serif" font-size="8" fill="#ff9800">前高</text>
<rect x="494.0" y="155.978386986691" width="8" height="8" fill="#ff9800" opacity="0.85" rx="1"/>
<text x="498.0" y="153.978386986691" text-anchor="middle" font-family="sans-serif" font-size="8" fill="#ff9800">前高</text>
<rect x="542.0" y="141.85030144465938" width="8" height="8" fill="#ff9800" opacity="0.85" rx="1"/>
<text x="546.0" y="139.85030144465938" text-anchor="middle" font-family="sans-serif" font-size="8" fill="#ff9800">前高</text>
<rect x="554.0" y="139.63894892503694" width="8" height="8" fill="#ff9800" opacity="0.85" rx="1"/>
<text x="558.0" y="137.63894892503694" text-anchor="middle" font-family="sans-serif" font-size="8" fill="#ff9800">前高</text>
<rect x="566.0" y="121.76384939142307" width="8" height="8" fill="#ff9800" opacity="0.85" rx="1"/>
<text x="570.0" y="119.76384939142307" text-anchor="middle" font-family="sans-serif" font-size="8" fill="#ff9800">前高</text>
<rect x="590.0" y="121.45671709703109" width="8" height="8" fill="#ff9800" opacity="0.85" rx="1"/>
<text x="594.0" y="119.45671709703109" text-anchor="middle" font-family="sans-serif" font-size="8" fill="#ff9800">前高</text>
<rect x="602.0" y="43.997952451370764" width="8" height="8" fill="#ff9800" opacity="0.85" rx="1"/>
<text x="606.0" y="41.997952451370764" text-anchor="middle" font-family="sans-serif" font-size="8" fill="#ff9800">前高</text>
<rect x="674.0" y="26.0" width="8" height="8" fill="#ff9800" opacity="0.85" rx="1"/>
<text x="678.0" y="24.0" text-anchor="middle" font-family="sans-serif" font-size="8" fill="#ff9800">前高</text>
<rect x="734.0" y="127.96792173814131" width="8" height="8" fill="#4caf50" opacity="0.85" rx="1"/>
<text x="738.0" y="125.96792173814131" text-anchor="middle" font-family="sans-serif" font-size="8" fill="#4caf50">前低</text>
<text x="66.0" y="359" text-anchor="middle" font-family="sans-serif" font-size="8" fill="#666666" transform="rotate(-40,66.0,359)">02/26</text>
<text x="138.0" y="359" text-anchor="middle" font-family="sans-serif" font-size="8" fill="#666666" transform="rotate(-40,138.0,359)">03/06</text>
<text x="210.0" y="359" text-anchor="middle" font-family="sans-serif" font-size="8" fill="#666666" transform="rotate(-40,210.0,359)">03/16</text>
<text x="282.0" y="359" text-anchor="middle" font-family="sans-serif" font-size="8" fill="#666666" transform="rotate(-40,282.0,359)">03/24</text>
<text x="354.0" y="359" text-anchor="middle" font-family="sans-serif" font-size="8" fill="#666666" transform="rotate(-40,354.0,359)">04/01</text>
<text x="426.0" y="359" text-anchor="middle" font-family="sans-serif" font-size="8" fill="#666666" transform="rotate(-40,426.0,359)">04/10</text>
<text x="498.0" y="359" text-anchor="middle" font-family="sans-serif" font-size="8" fill="#666666" transform="rotate(-40,498.0,359)">04/20</text>
<text x="570.0" y="359" text-anchor="middle" font-family="sans-serif" font-size="8" fill="#666666" transform="rotate(-40,570.0,359)">04/28</text>
<text x="642.0" y="359" text-anchor="middle" font-family="sans-serif" font-size="8" fill="#666666" transform="rotate(-40,642.0,359)">05/11</text>
<text x="714.0" y="359" text-anchor="middle" font-family="sans-serif" font-size="8" fill="#666666" transform="rotate(-40,714.0,359)">05/19</text>
<text x="774.0" y="359" text-anchor="middle" font-family="sans-serif" font-size="8" fill="#666666" transform="rotate(-40,774.0,359)">05/26</text>
<text x="400.0" y="396" text-anchor="middle" font-family="sans-serif" font-size="9" fill="#555555">数据截至: 2026-05-26 22:46  |  最新K线: 20260526</text>
<rect x="50" y="373" width="8" height="8" fill="#ffd700" opacity="0.8" rx="1"/>
<text x="61" y="380" font-family="sans-serif" font-size="9" fill="#888888">EMA5</text>
<rect x="150" y="373" width="8" height="8" fill="#ff6b6b" opacity="0.8" rx="1"/>
<text x="161" y="380" font-family="sans-serif" font-size="9" fill="#888888">EMA10</text>
<rect x="250" y="373" width="8" height="8" fill="#4ecdc4" opacity="0.8" rx="1"/>
<text x="261" y="380" font-family="sans-serif" font-size="9" fill="#888888">EMA20</text>
<rect x="350" y="373" width="8" height="8" fill="#2196f3" opacity="0.8" rx="1"/>
<text x="361" y="380" font-family="sans-serif" font-size="9" fill="#888888">突破</text>
<rect x="450" y="373" width="8" height="8" fill="#ff9800" opacity="0.8" rx="1"/>
<text x="461" y="380" font-family="sans-serif" font-size="9" fill="#888888">前高/量</text>
<rect x="550" y="373" width="8" height="8" fill="#4caf50" opacity="0.8" rx="1"/>
<text x="561" y="380" font-family="sans-serif" font-size="9" fill="#888888">前低</text>
</svg>