<svg xmlns="http://www.w3.org/2000/svg" width="750" height="540" viewBox="0 0 750 540">
<rect width="750" height="540" fill="#1a1a2e"/>
<text x="375.0" y="22" text-anchor="middle" font-family="sans-serif" font-size="15" fill="#ffffff" font-weight="bold">长电科技(600584) 趋势交易分析图</text>
<text x="60" y="31" font-family="sans-serif" font-size="10" fill="#888888">最新: 80.17</text>
<line x1="60" y1="104.35456995597661" x2="725" y2="104.35456995597661" stroke="#4ecdc4" stroke-width="0.5" stroke-dasharray="4,3" opacity="0.4"/>
<text x="62" y="102.35456995597661" font-family="sans-serif" font-size="7" fill="#4ecdc4" opacity="0.6">买入↑2%</text>
<line x1="60" y1="65.75940579945501" x2="725" y2="65.75940579945501" stroke="#e94560" stroke-width="0.5" stroke-dasharray="4,3" opacity="0.4"/>
<text x="62" y="63.75940579945501" font-family="sans-serif" font-size="7" fill="#e94560" opacity="0.6">警戒↑8%</text>
<rect x="60" y="104.35456995597661" width="3" height="278.6454300440234" fill="#4ecdc4" opacity="0.3" rx="1"/>
<rect x="60" y="65.75940579945501" width="3" height="317.240594200545" fill="#e94560" opacity="0.3" rx="1"/>
<rect x="60" y="65.75940579945501" width="3" height="38.595164156521605" fill="#ffd700" opacity="0.2" rx="1"/>
<line x1="60" y1="32.0" x2="725" y2="32.0" stroke="#2a2a4e" stroke-width="0.5"/>
<text x="56" y="35.0" text-anchor="end" font-family="sans-serif" font-size="8" fill="#666666">80.2</text>
<line x1="60" y1="127.74999999999994" x2="725" y2="127.74999999999994" stroke="#2a2a4e" stroke-width="0.5"/>
<text x="56" y="130.74999999999994" text-anchor="end" font-family="sans-serif" font-size="8" fill="#666666">69.6</text>
<line x1="60" y1="223.50000000000003" x2="725" y2="223.50000000000003" stroke="#2a2a4e" stroke-width="0.5"/>
<text x="56" y="226.50000000000003" text-anchor="end" font-family="sans-serif" font-size="8" fill="#666666">59.1</text>
<line x1="60" y1="319.25" x2="725" y2="319.25" stroke="#2a2a4e" stroke-width="0.5"/>
<text x="56" y="322.25" text-anchor="end" font-family="sans-serif" font-size="8" fill="#666666">48.6</text>
<line x1="60" y1="415.0" x2="725" y2="415.0" stroke="#2a2a4e" stroke-width="0.5"/>
<text x="56" y="418.0" text-anchor="end" font-family="sans-serif" font-size="8" fill="#666666">38.0</text>
<rect x="61.66250000000001" y="465.60932834185104" width="6.095833333333334" height="9.390671658148957" fill="#44aa44" opacity="0.35"/>
<rect x="72.74583333333334" y="463.69495330805165" width="6.095833333333334" height="11.30504669194834" fill="#ff4444" opacity="0.35"/>
<rect x="83.82916666666668" y="465.8436375880504" width="6.095833333333334" height="9.156362411949607" fill="#ff4444" opacity="0.35"/>
<rect x="94.91250000000001" y="467.8739691468028" width="6.095833333333334" height="7.126030853197238" fill="#44aa44" opacity="0.35"/>
<rect x="105.99583333333335" y="457.55542039713197" width="6.095833333333334" height="17.444579602868046" fill="#ff4444" opacity="0.35"/>
<rect x="117.07916666666668" y="463.853237444949" width="6.095833333333334" height="11.146762555050996" fill="#ff4444" opacity="0.35"/>
<rect x="128.1625" y="462.1511413231823" width="6.095833333333334" height="12.848858676817736" fill="#44aa44" opacity="0.35"/>
<rect x="139.24583333333334" y="464.69335394522403" width="6.095833333333334" height="10.30664605477596" fill="#44aa44" opacity="0.35"/>
<rect x="150.32916666666668" y="462.9510521248092" width="6.095833333333334" height="12.048947875190757" fill="#44aa44" opacity="0.35"/>
<rect x="161.4125" y="467.0121238108617" width="6.095833333333334" height="7.98787618913831" fill="#ff4444" opacity="0.35"/>
<rect x="172.49583333333334" y="464.7199411402736" width="6.095833333333334" height="10.280058859726399" fill="#ff4444" opacity="0.35"/>
<rect x="183.57916666666668" y="467.6801044908941" width="6.095833333333334" height="7.319895509105914" fill="#44aa44" opacity="0.35"/>
<rect x="194.6625" y="468.91779817136137" width="6.095833333333334" height="6.082201828638646" fill="#ff4444" opacity="0.35"/>
<rect x="205.74583333333334" y="467.10111055574345" width="6.095833333333334" height="7.898889444256537" fill="#ff4444" opacity="0.35"/>
<rect x="216.82916666666668" y="468.043646163894" width="6.095833333333334" height="6.956353836106029" fill="#44aa44" opacity="0.35"/>
<rect x="227.9125" y="466.1383534924323" width="6.095833333333334" height="8.861646507567702" fill="#ff4444" opacity="0.35"/>
<rect x="238.99583333333334" y="469.0423635312892" width="6.095833333333334" height="5.9576364687108105" fill="#44aa44" opacity="0.35"/>
<rect x="250.07916666666668" y="466.3445318757386" width="6.095833333333334" height="8.655468124261413" fill="#44aa44" opacity="0.35"/>
<rect x="261.1625" y="466.52059098442044" width="6.095833333333334" height="8.479409015579556" fill="#44aa44" opacity="0.35"/>
<rect x="272.2458333333334" y="469.8348704839624" width="6.095833333333334" height="5.165129516037628" fill="#44aa44" opacity="0.35"/>
<rect x="283.3291666666667" y="469.02727684647033" width="6.095833333333334" height="5.972723153529679" fill="#ff4444" opacity="0.35"/>
<rect x="294.4125" y="470.76928478424554" width="6.095833333333334" height="4.230715215754465" fill="#44aa44" opacity="0.35"/>
<rect x="305.4958333333334" y="470.87914716435574" width="6.095833333333334" height="4.1208528356442775" fill="#ff4444" opacity="0.35"/>
<rect x="316.5791666666667" y="471.20449417402625" width="6.095833333333334" height="3.795505825973734" fill="#ff4444" opacity="0.35"/>
<rect x="327.6625" y="470.47522608387624" width="6.095833333333334" height="4.52477391612377" fill="#44aa44" opacity="0.35"/>
<rect x="338.7458333333334" y="470.88889613853445" width="6.095833333333334" height="4.111103861465567" fill="#44aa44" opacity="0.35"/>
<rect x="349.8291666666667" y="471.31621616821707" width="6.095833333333334" height="3.6837838317829084" fill="#44aa44" opacity="0.35"/>
<rect x="360.9125" y="472.0689449184447" width="6.095833333333334" height="2.9310550815553125" fill="#44aa44" opacity="0.35"/>
<rect x="371.9958333333334" y="471.93325860936295" width="6.095833333333334" height="3.0667413906370347" fill="#ff4444" opacity="0.35"/>
<rect x="383.0791666666667" y="467.00656860018876" width="6.095833333333334" height="7.993431399811268" fill="#ff4444" opacity="0.35"/>
<rect x="394.1625" y="469.42772744625137" width="6.095833333333334" height="5.57227255374862" fill="#ff4444" opacity="0.35"/>
<rect x="405.2458333333334" y="467.5222414663157" width="6.095833333333334" height="7.477758533684345" fill="#ff4444" opacity="0.35"/>
<rect x="416.3291666666667" y="470.03612958099643" width="6.095833333333334" height="4.963870419003557" fill="#ff4444" opacity="0.35"/>
<rect x="427.4125" y="465.7545691966578" width="6.095833333333334" height="9.245430803342146" fill="#ff4444" opacity="0.35"/>
<rect x="438.4958333333334" y="467.37668500126557" width="6.095833333333334" height="7.623314998734423" fill="#44aa44" opacity="0.35"/>
<rect x="449.5791666666667" y="470.0448439180469" width="6.095833333333334" height="4.955156081953065" fill="#ff4444" opacity="0.35"/>
<rect x="460.6625" y="468.12397849063234" width="6.095833333333334" height="6.8760215093676695" fill="#ff4444" opacity="0.35"/>
<rect x="471.7458333333334" y="468.14787448676935" width="6.095833333333334" height="6.8521255132306385" fill="#ff4444" opacity="0.35"/>
<rect x="482.8291666666667" y="469.79079312793334" width="6.095833333333334" height="5.209206872066653" fill="#44aa44" opacity="0.35"/>
<rect x="493.9125" y="466.39167506384683" width="6.095833333333334" height="8.608324936153164" fill="#ff4444" opacity="0.35"/>
<rect x="504.9958333333334" y="467.5727888323317" width="6.095833333333334" height="7.427211167668302" fill="#44aa44" opacity="0.35"/>
<rect x="516.0791666666667" y="467.15690077012994" width="6.095833333333334" height="7.843099229870047" fill="#ff4444" opacity="0.35"/>
<rect x="527.1624999999999" y="463.5615056141376" width="6.095833333333334" height="11.438494385862402" fill="#ff4444" opacity="0.35"/>
<rect x="538.2458333333333" y="465.9908845502658" width="6.095833333333334" height="9.009115449734198" fill="#44aa44" opacity="0.35"/>
<rect x="549.3291666666667" y="465.3359696639133" width="6.095833333333334" height="9.66403033608667" fill="#ff4444" opacity="0.35"/>
<rect x="560.4124999999999" y="463.64306868642717" width="6.095833333333334" height="11.35693131357284" fill="#ff4444" opacity="0.35"/>
<rect x="571.4958333333333" y="458.20049839090933" width="6.095833333333334" height="16.79950160909065" fill="#ff4444" opacity="0.35"/>
<rect x="582.5791666666667" y="460.1976534668008" width="6.095833333333334" height="14.802346533199234" fill="#44aa44" opacity="0.35"/>
<rect x="593.6624999999999" y="456.11099506345005" width="6.095833333333334" height="18.88900493654996" fill="#ff4444" opacity="0.35"/>
<rect x="604.7458333333333" y="456.74497641163026" width="6.095833333333334" height="18.25502358836975" fill="#ff4444" opacity="0.35"/>
<rect x="615.8291666666667" y="449.8678152110505" width="6.095833333333334" height="25.13218478894945" fill="#44aa44" opacity="0.35"/>
<rect x="626.9124999999999" y="450.5606671654309" width="6.095833333333334" height="24.4393328345691" fill="#ff4444" opacity="0.35"/>
<rect x="637.9958333333333" y="455.46179128892686" width="6.095833333333334" height="19.53820871107311" fill="#44aa44" opacity="0.35"/>
<rect x="649.0791666666667" y="446.8795717326116" width="6.095833333333334" height="28.1204282673884" fill="#ff4444" opacity="0.35"/>
<rect x="660.1624999999999" y="448.087531523425" width="6.095833333333334" height="26.912468476574986" fill="#ff4444" opacity="0.35"/>
<rect x="671.2458333333333" y="449.02210743676034" width="6.095833333333334" height="25.977892563239646" fill="#ff4444" opacity="0.35"/>
<rect x="682.3291666666667" y="442.97214578806086" width="6.095833333333334" height="32.02785421193917" fill="#ff4444" opacity="0.35"/>
<rect x="693.4124999999999" y="440.0" width="6.095833333333334" height="35.0" fill="#44aa44" opacity="0.35"/>
<rect x="704.4958333333333" y="442.864661348577" width="6.095833333333334" height="32.135338651423" fill="#ff4444" opacity="0.35"/>
<rect x="715.5791666666667" y="444.1849940657082" width="6.095833333333334" height="30.815005934291758" fill="#ff4444" opacity="0.35"/>
<polyline points="65.54166666666667,334.129300118624 76.625,328.6773428232503 87.70833333333334,326.7388691182286 98.79166666666667,329.6566758929748 109.87500000000001,329.17878827819516 120.95833333333334,327.98182563742074 132.04166666666666,324.6396038057301 143.125,327.43937209033646 154.20833333333334,335.4847692148309 165.29166666666666,337.8195021337307 176.375,336.9226099634124 187.45833333333334,339.595856227091 198.54166666666666,342.135236693901 209.625,343.0103634108015 220.70833333333334,349.65151155026155 231.79166666666666,347.96063601176 242.875,351.6189926120314 253.95833333333334,360.60024576666075 265.0416666666667,375.5229001038316 276.12500000000006,384.35065621789636 287.20833333333337,386.6314774153315 298.2916666666667,391.81695172884497 309.37500000000006,394.97104808811093 320.45833333333337,396.13483079341836 331.5416666666667,400.2121489591551 342.62500000000006,400.6890008482149 353.70833333333337,404.06605592332556 364.7916666666667,406.8929103545777 375.87500000000006,407.17218143844127 386.95833333333337,397.78714824247214 398.0416666666667,391.7424800066461 409.12500000000006,384.350660850615 420.20833333333337,379.9376884911573 431.2916666666667,372.4826978236818 442.37500000000006,369.78435291843715 453.45833333333337,367.5614151919672 464.5416666666667,365.3222404166298 475.62500000000006,362.2847359993823 486.70833333333337,361.65301103003503 497.7916666666667,356.7491406076074 508.87500000000006,356.8116453398285 519.9583333333334,355.3994598825428 531.0416666666666,350.1267257263611 542.125,350.30678512243765 553.2083333333334,352.6681849412534 564.2916666666666,350.60781329021484 575.375,341.23802815630773 586.4583333333334,333.29534024180896 597.5416666666666,321.9727732889245 608.625,299.0377602867247 619.7083333333334,285.5347820654083 630.7916666666666,269.71784996531375 641.875,268.8050197870775 652.9583333333334,256.8685106211992 664.0416666666666,248.06275559799997 675.125,234.68066664224114 686.2083333333334,209.37311346730672 697.2916666666666,190.6235149489439 708.375,159.82943701222592 719.4583333333334,117.21962467481723" fill="none" stroke="#ffd700" stroke-width="1" opacity="0.7"/>
<polyline points="65.54166666666667,334.129300118624 76.625,331.1555052302383 87.70833333333334,329.6475809535014 98.79166666666667,330.71025522422246 109.87500000000001,330.25802937411584 120.95833333333334,329.40891500716236 132.04166666666666,327.3264141226508 143.125,328.365049492996 154.20833333333334,332.58514294223664 165.29166666666666,334.38583840210816 176.375,334.52092698768416 187.45833333333334,336.4157309452777 198.54166666666666,338.37905216023097 209.625,339.53933664829856 220.70833333333334,343.7928768630045 231.79166666666666,343.9357874215049 242.875,346.6630453107902 253.95833333333334,352.4629919953591 265.0416666666667,362.08212231950716 276.12500000000006,369.3410397970561 287.20833333333337,373.3141452539917 298.2916666666667,378.563918908879 309.37500000000006,382.6939774357452 320.45833333333337,385.560962666343 331.5416666666667,389.70747587075857 342.62500000000006,391.8775174626815 353.70833333333337,395.32163539192976 364.7916666666667,398.4534506328665 375.87500000000006,400.14022753710327 386.95833333333337,396.29965559409067 398.0416666666667,393.2730170378913 409.12500000000006,388.96283621982974 420.20833333333337,385.717183047541 431.2916666666667,380.6000073095755 442.37500000000006,377.65230836382506 453.45833333333337,375.0092595229528 464.5416666666667,372.43373794895314 475.62500000000006,369.4839178063957 486.70833333333337,367.8303984036584 497.7916666666667,364.03239865076637 508.87500000000006,362.74226340594896 519.9583333333334,360.8936862354076 531.0416666666666,357.01869917696945 542.125,355.8638273110824 553.2083333333334,356.1414922688647 564.2916666666666,354.386142763278 575.375,348.58838187695346 586.4583333333334,342.91957870165487 597.5416666666666,334.99377155283685 608.625,320.1163102309256 619.7083333333334,308.91858575671654 630.7916666666666,296.0395675764271 641.875,290.7558933680958 652.9583333333334,280.2540022628861 664.0416666666666,271.1989555881071 675.125,259.69305252312824 686.2083333333334,241.34122608573 697.2916666666666,225.3017882360006 708.375,202.1998778546896 719.4583333333334,171.25444551747339" fill="none" stroke="#ff6b6b" stroke-width="1" opacity="0.7"/>
<polyline points="65.54166666666667,334.129300118624 76.625,332.5715980342315 87.70833333333334,331.6468669555604 98.79166666666667,332.0130976685992 109.87500000000001,331.6521372286026 120.95833333333334,331.07459085977115 132.04166666666666,329.82512126763567 143.125,330.1311962573417 154.20833333333334,332.1735169436729 165.29166666666666,333.1559408510879 176.375,333.3438346388677 187.45833333333334,334.44845503082774 198.54166666666666,335.6642209924176 209.625,336.5305444069114 220.70833333333334,339.04514092331806 231.79166666666666,339.5721641625027 242.875,341.41631098631905 253.95833333333334,344.9540672805666 265.0416666666667,350.70779504224345 276.12500000000006,355.59335441403226 287.20833333333337,358.9838082612865 298.2916666666667,363.09848369886606 309.37500000000006,366.73474628055914 320.45833333333337,369.75642722565186 331.5416666666667,373.4336041842211 342.62500000000006,376.1201851787081 353.70833333333337,379.42494526393085 364.7916666666667,382.57939040232617 375.87500000000006,384.9747554693588 386.95833333333337,384.4073579818517 398.0416666666667,383.9545756535795 409.12500000000006,382.58433249976747 420.20833333333337,381.4917050019079 431.2916666666667,379.21370609589104 442.37500000000006,377.80170200180123 453.45833333333337,376.40301988153703 464.5416666666667,374.9211980705292 475.62500000000006,373.13915322237284 486.70833333333337,371.9249063527507 497.7916666666667,369.54552477275087 508.87500000000006,368.344680013848 519.9583333333334,366.84281419995494 531.0416666666666,364.24647545843527 542.125,362.95318293045005 553.2083333333334,362.4234497541105 564.2916666666666,360.9056993002083 575.375,357.2478667848069 586.4583333333334,353.45378084461686 597.5416666666666,348.29891022923954 608.625,339.23879823429525 619.7083333333334,331.55213417605535 630.7916666666666,322.65040575596674 641.875,317.34840134402754 652.9583333333334,309.31479095787654 664.0416666666666,301.80397710965985 675.125,292.86231154976116 686.2083333333334,280.0904730323971 697.2916666666666,267.9984582590467 708.375,251.83110805711743 719.4583333333334,230.89481205167772" fill="none" stroke="#4ecdc4" stroke-width="1" opacity="0.7"/>
<line x1="65.54166666666667" y1="327.67781731909844" x2="65.54166666666667" y2="347.94092526690395" stroke="#44aa44" stroke-width="0.5" opacity="0.6"/>
<rect x="63.04791666666667" y="329.3134045077106" width="4.987500000000001" height="4.815895610913401" fill="#44aa44" opacity="0.8" rx="1"/>
<line x1="76.625" y1="306.3243179122183" x2="76.625" y2="337.0370106761566" stroke="#ff4444" stroke-width="0.5" opacity="0.6"/>
<rect x="74.13125" y="317.77342823250297" width="4.987500000000001" height="16.53760379596679" fill="#ff4444" opacity="0.8" rx="1"/>
<line x1="87.70833333333334" y1="322.1349940688019" x2="87.70833333333334" y2="339.67212336892055" stroke="#ff4444" stroke-width="0.5" opacity="0.6"/>
<rect x="85.21458333333334" y="322.86192170818515" width="4.987500000000001" height="3.6346381969157164" fill="#ff4444" opacity="0.8" rx="1"/>
<line x1="98.79166666666667" y1="327.22348754448404" x2="98.79166666666667" y2="336.1283511269276" stroke="#44aa44" stroke-width="0.5" opacity="0.6"/>
<rect x="96.29791666666667" y="335.4014234875445" width="4.987500000000001" height="0.5" fill="#44aa44" opacity="0.8" rx="1"/>
<line x1="109.87500000000001" y1="307.1421115065243" x2="109.87500000000001" y2="333.94756820877825" stroke="#ff4444" stroke-width="0.5" opacity="0.6"/>
<rect x="107.38125000000001" y="328.22301304863583" width="4.987500000000001" height="2.4533807829182024" fill="#ff4444" opacity="0.8" rx="1"/>
<line x1="120.95833333333334" y1="311.1402135231317" x2="120.95833333333334" y2="343.3067615658363" stroke="#ff4444" stroke-width="0.5" opacity="0.6"/>
<rect x="118.46458333333334" y="325.5879003558719" width="4.987500000000001" height="17.718861209964416" fill="#ff4444" opacity="0.8" rx="1"/>
<line x1="132.04166666666666" y1="303.144009489917" x2="132.04166666666666" y2="322.31672597864775" stroke="#44aa44" stroke-width="0.5" opacity="0.6"/>
<rect x="129.54791666666665" y="312.50320284697517" width="4.987500000000001" height="5.451957295373575" fill="#44aa44" opacity="0.8" rx="1"/>
<line x1="143.125" y1="314.41138790035586" x2="143.125" y2="334.67449584816137" stroke="#44aa44" stroke-width="0.5" opacity="0.6"/>
<rect x="140.63125" y="323.40711743772243" width="4.987500000000001" height="9.631791221826802" fill="#44aa44" opacity="0.8" rx="1"/>
<line x1="154.20833333333334" y1="345.85100830367736" x2="154.20833333333334" y2="372.4747330960854" stroke="#44aa44" stroke-width="0.5" opacity="0.6"/>
<rect x="151.71458333333334" y="345.85100830367736" width="4.987500000000001" height="5.7245551601423585" fill="#44aa44" opacity="0.8" rx="1"/>
<line x1="165.29166666666666" y1="337.0370106761566" x2="165.29166666666666" y2="348.3952550415184" stroke="#ff4444" stroke-width="0.5" opacity="0.6"/>
<rect x="162.79791666666665" y="342.4889679715303" width="4.987500000000001" height="0.5" fill="#ff4444" opacity="0.8" rx="1"/>
<line x1="176.375" y1="321.95326215895614" x2="176.375" y2="339.4903914590748" stroke="#ff4444" stroke-width="0.5" opacity="0.6"/>
<rect x="173.88125" y="335.1288256227758" width="4.987500000000001" height="3.180308422301323" fill="#ff4444" opacity="0.8" rx="1"/>
<line x1="187.45833333333334" y1="327.22348754448404" x2="187.45833333333334" y2="347.5774614472124" stroke="#44aa44" stroke-width="0.5" opacity="0.6"/>
<rect x="184.96458333333334" y="337.0370106761566" width="4.987500000000001" height="7.905338078291834" fill="#44aa44" opacity="0.8" rx="1"/>
<line x1="198.54166666666666" y1="335.21969157769877" x2="198.54166666666666" y2="353.4837485172005" stroke="#ff4444" stroke-width="0.5" opacity="0.6"/>
<rect x="196.04791666666665" y="347.2139976275208" width="4.987500000000001" height="1.9081850533806914" fill="#ff4444" opacity="0.8" rx="1"/>
<line x1="209.625" y1="338.30913404507714" x2="209.625" y2="359.2991696322658" stroke="#ff4444" stroke-width="0.5" opacity="0.6"/>
<rect x="207.13125" y="344.7606168446026" width="4.987500000000001" height="3.9981020166073336" fill="#ff4444" opacity="0.8" rx="1"/>
<line x1="220.70833333333334" y1="342.1255041518387" x2="220.70833333333334" y2="363.47900355871894" stroke="#44aa44" stroke-width="0.5" opacity="0.6"/>
<rect x="218.21458333333334" y="342.2163701067616" width="4.987500000000001" height="20.717437722419902" fill="#44aa44" opacity="0.8" rx="1"/>
<line x1="231.79166666666666" y1="340.94424673784107" x2="231.79166666666666" y2="361.2982206405694" stroke="#ff4444" stroke-width="0.5" opacity="0.6"/>
<rect x="229.29791666666665" y="344.57888493475684" width="4.987500000000001" height="13.811625148279973" fill="#ff4444" opacity="0.8" rx="1"/>
<line x1="242.875" y1="350.0308422301305" x2="242.875" y2="360.6621589561092" stroke="#44aa44" stroke-width="0.5" opacity="0.6"/>
<rect x="240.38125" y="353.4837485172005" width="4.987500000000001" height="5.4519572953736315" fill="#44aa44" opacity="0.8" rx="1"/>
<line x1="253.95833333333334" y1="353.8472123368921" x2="253.95833333333334" y2="378.83534994068805" stroke="#44aa44" stroke-width="0.5" opacity="0.6"/>
<rect x="251.46458333333334" y="354.66500593119815" width="4.987500000000001" height="23.897746144721168" fill="#44aa44" opacity="0.8" rx="1"/>
<line x1="265.0416666666667" y1="386.2863582443654" x2="265.0416666666667" y2="409.09371293001186" stroke="#44aa44" stroke-width="0.5" opacity="0.6"/>
<rect x="262.5479166666667" y="392.646975088968" width="4.987500000000001" height="12.721233689205235" fill="#44aa44" opacity="0.8" rx="1"/>
<line x1="276.12500000000006" y1="397.28113879003564" x2="276.12500000000006" y2="411.63795966785295" stroke="#44aa44" stroke-width="0.5" opacity="0.6"/>
<rect x="273.6312500000001" y="397.91720047449587" width="4.987500000000001" height="4.088967971530224" fill="#44aa44" opacity="0.8" rx="1"/>
<line x1="287.20833333333337" y1="385.55943060498225" x2="287.20833333333337" y2="398.1897983392646" stroke="#ff4444" stroke-width="0.5" opacity="0.6"/>
<rect x="284.7145833333334" y="391.19311981020167" width="4.987500000000001" height="6.724080664294206" fill="#ff4444" opacity="0.8" rx="1"/>
<line x1="298.2916666666667" y1="390.102728351127" x2="298.2916666666667" y2="403.9143534994069" stroke="#44aa44" stroke-width="0.5" opacity="0.6"/>
<rect x="295.7979166666667" y="393.3739027283512" width="4.987500000000001" height="8.813997627520735" fill="#44aa44" opacity="0.8" rx="1"/>
<line x1="309.37500000000006" y1="397.5537366548043" x2="309.37500000000006" y2="409.72977461447215" stroke="#ff4444" stroke-width="0.5" opacity="0.6"/>
<rect x="306.8812500000001" y="401.279240806643" width="4.987500000000001" height="6.178884934756809" fill="#ff4444" opacity="0.8" rx="1"/>
<line x1="320.45833333333337" y1="397.28113879003564" x2="320.45833333333337" y2="411.09276393831556" stroke="#ff4444" stroke-width="0.5" opacity="0.6"/>
<rect x="317.9645833333334" y="398.4623962040332" width="4.987500000000001" height="10.722182680901597" fill="#ff4444" opacity="0.8" rx="1"/>
<line x1="331.5416666666667" y1="400.6431791221827" x2="331.5416666666667" y2="410.18410438908666" stroke="#44aa44" stroke-width="0.5" opacity="0.6"/>
<rect x="329.0479166666667" y="401.55183867141164" width="4.987500000000001" height="6.814946619217096" fill="#44aa44" opacity="0.8" rx="1"/>
<line x1="342.62500000000006" y1="398.00806642941876" x2="342.62500000000006" y2="403.9143534994069" stroke="#44aa44" stroke-width="0.5" opacity="0.6"/>
<rect x="340.1312500000001" y="398.09893238434165" width="4.987500000000001" height="3.543772241992883" fill="#44aa44" opacity="0.8" rx="1"/>
<line x1="353.70833333333337" y1="401.279240806643" x2="353.70833333333337" y2="412.63748517200474" stroke="#44aa44" stroke-width="0.5" opacity="0.6"/>
<rect x="351.2145833333334" y="401.279240806643" width="4.987500000000001" height="9.540925266903969" fill="#44aa44" opacity="0.8" rx="1"/>
<line x1="364.7916666666667" y1="406.27686832740216" x2="364.7916666666667" y2="415.0" stroke="#44aa44" stroke-width="0.5" opacity="0.6"/>
<rect x="362.2979166666667" y="407.18552787663106" width="4.987500000000001" height="5.361091340450798" fill="#44aa44" opacity="0.8" rx="1"/>
<line x1="375.87500000000006" y1="405.549940688019" x2="375.87500000000006" y2="410.27497034400955" stroke="#ff4444" stroke-width="0.5" opacity="0.6"/>
<rect x="373.3812500000001" y="407.73072360616845" width="4.987500000000001" height="1.0903914590747377" fill="#ff4444" opacity="0.8" rx="1"/>
<line x1="386.95833333333337" y1="379.0170818505338" x2="386.95833333333337" y2="396.73594306049824" stroke="#ff4444" stroke-width="0.5" opacity="0.6"/>
<rect x="384.4645833333334" y="379.0170818505338" width="4.987500000000001" height="17.537129300118636" fill="#ff4444" opacity="0.8" rx="1"/>
<line x1="398.0416666666667" y1="374.56465005931204" x2="398.0416666666667" y2="387.46761565836306" stroke="#ff4444" stroke-width="0.5" opacity="0.6"/>
<rect x="395.5479166666667" y="379.6531435349941" width="4.987500000000001" height="6.724080664294149" fill="#ff4444" opacity="0.8" rx="1"/>
<line x1="409.12500000000006" y1="362.57034400948993" x2="409.12500000000006" y2="372.11126927639384" stroke="#ff4444" stroke-width="0.5" opacity="0.6"/>
<rect x="406.6312500000001" y="369.5670225385528" width="4.987500000000001" height="2.5442467378410356" fill="#ff4444" opacity="0.8" rx="1"/>
<line x1="420.20833333333337" y1="365.20545670225385" x2="420.20833333333337" y2="374.2920521945433" stroke="#ff4444" stroke-width="0.5" opacity="0.6"/>
<rect x="417.7145833333334" y="371.111743772242" width="4.987500000000001" height="3.180308422301323" fill="#ff4444" opacity="0.8" rx="1"/>
<line x1="431.2916666666667" y1="350.8486358244366" x2="431.2916666666667" y2="367.02277580071177" stroke="#ff4444" stroke-width="0.5" opacity="0.6"/>
<rect x="428.7979166666667" y="357.5727164887307" width="4.987500000000001" height="6.724080664294263" fill="#ff4444" opacity="0.8" rx="1"/>
<line x1="442.37500000000006" y1="354.30154211150654" x2="442.37500000000006" y2="366.4775800711744" stroke="#44aa44" stroke-width="0.5" opacity="0.6"/>
<rect x="439.8812500000001" y="356.11886120996445" width="4.987500000000001" height="8.268801897983337" fill="#44aa44" opacity="0.8" rx="1"/>
<line x1="453.45833333333337" y1="360.48042704626334" x2="453.45833333333337" y2="367.93143534994067" stroke="#ff4444" stroke-width="0.5" opacity="0.6"/>
<rect x="450.9645833333334" y="363.1155397390273" width="4.987500000000001" height="1.1812574139976277" fill="#ff4444" opacity="0.8" rx="1"/>
<line x1="464.5416666666667" y1="355.2102016607355" x2="464.5416666666667" y2="367.4771055753262" stroke="#ff4444" stroke-width="0.5" opacity="0.6"/>
<rect x="462.0479166666667" y="360.84389086595496" width="4.987500000000001" height="2.7259786476868157" fill="#ff4444" opacity="0.8" rx="1"/>
<line x1="475.62500000000006" y1="351.5755634638197" x2="475.62500000000006" y2="365.29632265717674" stroke="#ff4444" stroke-width="0.5" opacity="0.6"/>
<rect x="473.1312500000001" y="356.2097271648873" width="4.987500000000001" height="4.452431791221898" fill="#ff4444" opacity="0.8" rx="1"/>
<line x1="486.70833333333337" y1="355.2102016607355" x2="486.70833333333337" y2="368.56749703440096" stroke="#44aa44" stroke-width="0.5" opacity="0.6"/>
<rect x="484.2145833333334" y="356.11886120996445" width="4.987500000000001" height="4.270699881376004" fill="#44aa44" opacity="0.8" rx="1"/>
<line x1="497.7916666666667" y1="345.3966785290629" x2="497.7916666666667" y2="362.7520759193357" stroke="#ff4444" stroke-width="0.5" opacity="0.6"/>
<rect x="495.2979166666667" y="346.9413997627521" width="4.987500000000001" height="15.174614472123324" fill="#ff4444" opacity="0.8" rx="1"/>
<line x1="508.87500000000006" y1="344.48801897983395" x2="508.87500000000006" y2="360.29869513641756" stroke="#44aa44" stroke-width="0.5" opacity="0.6"/>
<rect x="506.3812500000001" y="346.4870699881376" width="4.987500000000001" height="10.449584816132926" fill="#44aa44" opacity="0.8" rx="1"/>
<line x1="519.9583333333334" y1="343.67022538552794" x2="519.9583333333334" y2="356.02799525504156" stroke="#ff4444" stroke-width="0.5" opacity="0.6"/>
<rect x="517.4645833333334" y="352.5750889679715" width="4.987500000000001" height="0.6360616844602873" fill="#ff4444" opacity="0.8" rx="1"/>
<line x1="531.0416666666666" y1="333.85670225385525" x2="531.0416666666666" y2="346.57793594306054" stroke="#ff4444" stroke-width="0.5" opacity="0.6"/>
<rect x="528.5479166666667" y="339.58125741399766" width="4.987500000000001" height="2.9077105575326527" fill="#ff4444" opacity="0.8" rx="1"/>
<line x1="542.125" y1="338.0365361803084" x2="542.125" y2="353.7563463819692" stroke="#44aa44" stroke-width="0.5" opacity="0.6"/>
<rect x="539.63125" y="341.5803084223013" width="4.987500000000001" height="9.086595492289462" fill="#44aa44" opacity="0.8" rx="1"/>
<line x1="553.2083333333334" y1="354.93760379596677" x2="553.2083333333334" y2="368.9309608540925" stroke="#ff4444" stroke-width="0.5" opacity="0.6"/>
<rect x="550.7145833333334" y="357.39098457888497" width="4.987500000000001" height="1.453855278766298" fill="#ff4444" opacity="0.8" rx="1"/>
<line x1="564.2916666666666" y1="343.76109134045083" x2="564.2916666666666" y2="359.66263345195733" stroke="#ff4444" stroke-width="0.5" opacity="0.6"/>
<rect x="561.7979166666667" y="346.4870699881376" width="4.987500000000001" height="8.268801897983451" fill="#ff4444" opacity="0.8" rx="1"/>
<line x1="575.375" y1="313.59359430604985" x2="575.375" y2="325.6787663107948" stroke="#ff4444" stroke-width="0.5" opacity="0.6"/>
<rect x="572.88125" y="322.4984578884935" width="4.987500000000001" height="3.089442467378433" fill="#ff4444" opacity="0.8" rx="1"/>
<line x1="586.4583333333334" y1="310.6858837485172" x2="586.4583333333334" y2="329.1316725978648" stroke="#44aa44" stroke-width="0.5" opacity="0.6"/>
<rect x="583.9645833333334" y="316.1378410438909" width="4.987500000000001" height="1.2721233689205746" fill="#44aa44" opacity="0.8" rx="1"/>
<line x1="597.5416666666666" y1="291.69489916963227" x2="597.5416666666666" y2="332.49371293001184" stroke="#ff4444" stroke-width="0.5" opacity="0.6"/>
<rect x="595.0479166666667" y="299.32763938315543" width="4.987500000000001" height="24.988137603795963" fill="#ff4444" opacity="0.8" rx="1"/>
<line x1="608.625" y1="253.16773428232506" x2="608.625" y2="277.15634638196923" stroke="#ff4444" stroke-width="0.5" opacity="0.6"/>
<rect x="606.13125" y="253.16773428232506" width="4.987500000000001" height="18.445788849347593" fill="#ff4444" opacity="0.8" rx="1"/>
<line x1="619.7083333333334" y1="242.6272835112693" x2="619.7083333333334" y2="264.34424673784105" stroke="#44aa44" stroke-width="0.5" opacity="0.6"/>
<rect x="617.2145833333334" y="244.71720047449588" width="4.987500000000001" height="13.811625148279916" fill="#44aa44" opacity="0.8" rx="1"/>
<line x1="630.7916666666666" y1="233.72241992882564" x2="630.7916666666666" y2="277.0654804270463" stroke="#ff4444" stroke-width="0.5" opacity="0.6"/>
<rect x="628.2979166666667" y="238.08398576512454" width="4.987500000000001" height="36.164650059312095" fill="#ff4444" opacity="0.8" rx="1"/>
<line x1="641.875" y1="235.35800711743775" x2="641.875" y2="267.2519572953737" stroke="#44aa44" stroke-width="0.5" opacity="0.6"/>
<rect x="639.38125" y="235.35800711743775" width="4.987500000000001" height="31.621352313167222" fill="#44aa44" opacity="0.8" rx="1"/>
<line x1="652.9583333333334" y1="217.73001186239625" x2="652.9583333333334" y2="264.0716488730724" stroke="#ff4444" stroke-width="0.5" opacity="0.6"/>
<rect x="650.4645833333334" y="232.99549228944252" width="4.987500000000001" height="26.169395017793562" fill="#ff4444" opacity="0.8" rx="1"/>
<line x1="664.0416666666666" y1="197.46690391459074" x2="664.0416666666666" y2="242.44555160142352" stroke="#ff4444" stroke-width="0.5" opacity="0.6"/>
<rect x="661.5479166666667" y="230.45124555160146" width="4.987500000000001" height="7.814472123368887" fill="#ff4444" opacity="0.8" rx="1"/>
<line x1="675.125" y1="206.19003558718862" x2="675.125" y2="250.8960854092527" stroke="#ff4444" stroke-width="0.5" opacity="0.6"/>
<rect x="672.63125" y="207.91648873072361" width="4.987500000000001" height="35.43772241992886" fill="#ff4444" opacity="0.8" rx="1"/>
<line x1="686.2083333333334" y1="152.6699881376038" x2="686.2083333333334" y2="217.36654804270464" stroke="#ff4444" stroke-width="0.5" opacity="0.6"/>
<rect x="683.7145833333334" y="158.75800711743776" width="4.987500000000001" height="58.51767497034399" fill="#ff4444" opacity="0.8" rx="1"/>
<line x1="697.2916666666666" y1="112.77983392645315" x2="697.2916666666666" y2="163.7556346381969" stroke="#44aa44" stroke-width="0.5" opacity="0.6"/>
<rect x="694.7979166666667" y="152.76085409252676" width="4.987500000000001" height="0.5" fill="#44aa44" opacity="0.8" rx="1"/>
<line x1="708.375" y1="95.87876631079479" x2="708.375" y2="179.38457888493477" stroke="#ff4444" stroke-width="0.5" opacity="0.6"/>
<rect x="705.88125" y="98.2412811387901" width="4.987500000000001" height="52.97485172004741" fill="#ff4444" opacity="0.8" rx="1"/>
<line x1="719.4583333333334" y1="32.0" x2="719.4583333333334" y2="115.32408066429421" stroke="#ff4444" stroke-width="0.5" opacity="0.6"/>
<rect x="716.9645833333334" y="32.0" width="4.987500000000001" height="56.06429418742587" fill="#ff4444" opacity="0.8" rx="1"/>
<line x1="508.87500000000006" y1="360.29869513641756" x2="508.87500000000006" y2="325.29869513641756" stroke="#4ecdc4" stroke-width="0.8" stroke-dasharray="2,2" opacity="0.7"/>
<rect x="472.87500000000006" y="316.29869513641756" width="72" height="16" fill="#4ecdc4" opacity="0.85" rx="3"/>
<text x="508.87500000000006" y="328.29869513641756" text-anchor="middle" font-family="sans-serif" font-size="9" fill="#000000" font-weight="bold">B1乖离买入</text>
<polygon points="508.87500000000006,366.29869513641756 504.87500000000006,360.29869513641756 512.875,360.29869513641756" fill="#4ecdc4" opacity="0.9"/>
<line x1="519.9583333333334" y1="356.02799525504156" x2="519.9583333333334" y2="306.02799525504156" stroke="#4ecdc4" stroke-width="0.8" stroke-dasharray="2,2" opacity="0.7"/>
<rect x="483.95833333333337" y="297.02799525504156" width="72" height="16" fill="#4ecdc4" opacity="0.85" rx="3"/>
<text x="519.9583333333334" y="309.02799525504156" text-anchor="middle" font-family="sans-serif" font-size="9" fill="#000000" font-weight="bold">B2乖离买入</text>
<polygon points="519.9583333333334,362.02799525504156 515.9583333333334,356.02799525504156 523.9583333333334,356.02799525504156" fill="#4ecdc4" opacity="0.9"/>
<line x1="542.125" y1="353.7563463819692" x2="542.125" y2="288.7563463819692" stroke="#4ecdc4" stroke-width="0.8" stroke-dasharray="2,2" opacity="0.7"/>
<rect x="506.125" y="279.7563463819692" width="72" height="16" fill="#4ecdc4" opacity="0.85" rx="3"/>
<text x="542.125" y="291.7563463819692" text-anchor="middle" font-family="sans-serif" font-size="9" fill="#000000" font-weight="bold">B3乖离买入</text>
<polygon points="542.125,359.7563463819692 538.125,353.7563463819692 546.125,353.7563463819692" fill="#4ecdc4" opacity="0.9"/>
<line x1="564.2916666666666" y1="359.66263345195733" x2="564.2916666666666" y2="279.66263345195733" stroke="#4ecdc4" stroke-width="0.8" stroke-dasharray="2,2" opacity="0.7"/>
<rect x="528.2916666666666" y="270.66263345195733" width="72" height="16" fill="#4ecdc4" opacity="0.85" rx="3"/>
<text x="564.2916666666666" y="282.66263345195733" text-anchor="middle" font-family="sans-serif" font-size="9" fill="#000000" font-weight="bold">B4乖离买入</text>
<polygon points="564.2916666666666,365.66263345195733 560.2916666666666,359.66263345195733 568.2916666666666,359.66263345195733" fill="#4ecdc4" opacity="0.9"/>
<line x1="641.875" y1="267.2519572953737" x2="641.875" y2="172.2519572953737" stroke="#4ecdc4" stroke-width="0.8" stroke-dasharray="2,2" opacity="0.7"/>
<rect x="605.875" y="163.2519572953737" width="72" height="16" fill="#4ecdc4" opacity="0.85" rx="3"/>
<text x="641.875" y="175.2519572953737" text-anchor="middle" font-family="sans-serif" font-size="9" fill="#000000" font-weight="bold">B5乖离买入</text>
<polygon points="641.875,273.2519572953737 637.875,267.2519572953737 645.875,267.2519572953737" fill="#4ecdc4" opacity="0.9"/>
<line x1="608.625" y1="253.16773428232506" x2="608.625" y2="272.16773428232506" stroke="#e94560" stroke-width="0.8" stroke-dasharray="2,2" opacity="0.7"/>
<rect x="574.625" y="279.16773428232506" width="68" height="16" fill="#e94560" opacity="0.85" rx="3"/>
<text x="608.625" y="291.16773428232506" text-anchor="middle" font-family="sans-serif" font-size="9" fill="#ffffff" font-weight="bold">W1警戒⚠️</text>
<polygon points="608.625,247.16773428232506 604.625,253.16773428232506 612.625,253.16773428232506" fill="#e94560" opacity="0.9"/>
<line x1="686.2083333333334" y1="152.6699881376038" x2="686.2083333333334" y2="186.6699881376038" stroke="#e94560" stroke-width="0.8" stroke-dasharray="2,2" opacity="0.7"/>
<rect x="652.2083333333334" y="193.6699881376038" width="68" height="16" fill="#e94560" opacity="0.85" rx="3"/>
<text x="686.2083333333334" y="205.6699881376038" text-anchor="middle" font-family="sans-serif" font-size="9" fill="#ffffff" font-weight="bold">W2警戒⚠️</text>
<polygon points="686.2083333333334,146.6699881376038 682.2083333333334,152.6699881376038 690.2083333333334,152.6699881376038" fill="#e94560" opacity="0.9"/>
<line x1="708.375" y1="95.87876631079479" x2="708.375" y2="144.8787663107948" stroke="#e94560" stroke-width="0.8" stroke-dasharray="2,2" opacity="0.7"/>
<rect x="674.375" y="151.8787663107948" width="68" height="16" fill="#e94560" opacity="0.85" rx="3"/>
<text x="708.375" y="163.8787663107948" text-anchor="middle" font-family="sans-serif" font-size="9" fill="#ffffff" font-weight="bold">W3警戒⚠️</text>
<polygon points="708.375,89.87876631079479 704.375,95.87876631079479 712.375,95.87876631079479" fill="#e94560" opacity="0.9"/>
<rect x="60" y="443" width="665" height="55" fill="#111122" opacity="0.5" rx="2"/>
<rect x="60" y="443" width="665" height="17.674524078368677" fill="#e94560" opacity="0.18" rx="2"/>
<rect x="60" y="460.6745240783687" width="665" height="8.869106941223492" fill="#ffd700" opacity="0.12"/>
<rect x="60" y="469.54363101959217" width="665" height="30.45636898040783" fill="#4ecdc4" opacity="0.14"/>
<text x="670" y="454.83726203918434" text-anchor="end" font-family="sans-serif" font-size="9" fill="#e94560" font-weight="bold">⚠️ 警戒区</text>
<text x="670" y="468.1090775489804" text-anchor="end" font-family="sans-serif" font-size="9" fill="#ffd700">持有区</text>
<text x="670" y="487.77181550979606" text-anchor="end" font-family="sans-serif" font-size="9" fill="#4ecdc4">买入区</text>
<line x1="60" y1="472.5" x2="725" y2="472.5" stroke="#888888" stroke-width="0.5" stroke-dasharray="3,2" opacity="0.5"/>
<text x="56" y="475.5" text-anchor="end" font-family="sans-serif" font-size="7" fill="#888888">0%</text>
<line x1="60" y1="469.54363101959217" x2="725" y2="469.54363101959217" stroke="#4ecdc4" stroke-width="0.5" stroke-dasharray="3,2" opacity="0.5"/>
<text x="56" y="472.54363101959217" text-anchor="end" font-family="sans-serif" font-size="7" fill="#4ecdc4">2%</text>
<line x1="60" y1="460.6745240783687" x2="725" y2="460.6745240783687" stroke="#e94560" stroke-width="0.5" stroke-dasharray="3,2" opacity="0.5"/>
<text x="56" y="463.6745240783687" text-anchor="end" font-family="sans-serif" font-size="7" fill="#e94560">8%</text>
<text x="60" y="445" font-family="sans-serif" font-size="8" fill="#888888">BIAS5</text>
<polyline points="65.54166666666667,472.5 76.625,468.76721088332346 87.70833333333334,471.17871777411943 98.79166666666667,474.5022746955494 109.87500000000001,472.1724244897055 120.95833333333334,471.68179406583755 132.04166666666666,470.23288244299306 143.125,474.41143592480216 154.20833333333334,478.09667222646465 165.29166666666666,474.1330971955909 176.375,471.8739710182785 187.45833333333334,474.3777722796358 198.54166666666666,474.29456835461565 209.625,473.1197444311306 220.70833333333334,477.27913533317553 231.79166666666666,471.28819153648493 242.875,475.14531316571794 253.95833333333334,479.1400974825374 265.0416666666667,483.96043231986005 276.12500000000006,479.4387392530118 287.20833333333337,474.3036949250195 298.2916666666667,476.65840241037404 309.37500000000006,475.051200862519 320.45833333333337,473.4443361740893 331.5416666666667,475.84593067965307 342.62500000000006,472.89183305586226 353.70833333333337,475.30124698629317 364.7916666666667,474.86360590144113 375.87500000000006,472.73369033420227 386.95833333333337,464.8499442287652 398.0416666666667,467.65356074759126 409.12500000000006,466.6899271232537 420.20833333333337,469.0715674416683 431.2916666666667,466.8195127932303 442.37500000000006,470.4581397383293 453.45833333333337,470.82740110286124 464.5416666666667,470.8247311568158 475.62500000000006,470.2447858040216 486.70833333333337,472.03171477124613 497.7916666666667,468.9090124911634 508.87500000000006,472.545777814009 519.9583333333334,471.46933582253115 531.0416666666666,468.70121517670515 542.125,472.62978222576334 553.2083333333334,474.21189251878604 564.2916666666666,471.013845884702 575.375,465.89258739607715 586.4583333333334,467.00309472385266 597.5416666666666,464.86631306266975 608.625,457.80574842969185 619.7083333333334,464.0947299688566 630.7916666666666,462.97167445005107 641.875,471.95112017837846 652.9583333333334,465.4927609900795 664.0416666666666,467.419482237516 675.125,464.9756527850791 686.2083333333334,458.92377655869007 697.2916666666666,462.77273076427485 708.375,457.34313171525827 719.4583333333334,452.9166666666667" fill="none" stroke="#4ecdc4" stroke-width="1.5" opacity="0.9"/>
<circle cx="719.4583333333334" cy="452.9166666666667" r="3" fill="#4ecdc4" opacity="1"/>
<text x="724.4583333333334" y="455.9166666666667" font-family="sans-serif" font-size="9" fill="#4ecdc4" font-weight="bold">BIAS5=13.2%</text>
<text x="65.54166666666667" y="489" text-anchor="middle" font-family="sans-serif" font-size="8" fill="#666666" transform="rotate(-45,65.54166666666667,489)">02/25</text>
<text x="120.95833333333334" y="489" text-anchor="middle" font-family="sans-serif" font-size="8" fill="#666666" transform="rotate(-45,120.95833333333334,489)">03/04</text>
<text x="176.375" y="489" text-anchor="middle" font-family="sans-serif" font-size="8" fill="#666666" transform="rotate(-45,176.375,489)">03/11</text>
<text x="231.79166666666666" y="489" text-anchor="middle" font-family="sans-serif" font-size="8" fill="#666666" transform="rotate(-45,231.79166666666666,489)">03/18</text>
<text x="287.20833333333337" y="489" text-anchor="middle" font-family="sans-serif" font-size="8" fill="#666666" transform="rotate(-45,287.20833333333337,489)">03/25</text>
<text x="342.62500000000006" y="489" text-anchor="middle" font-family="sans-serif" font-size="8" fill="#666666" transform="rotate(-45,342.62500000000006,489)">04/01</text>
<text x="398.0416666666667" y="489" text-anchor="middle" font-family="sans-serif" font-size="8" fill="#666666" transform="rotate(-45,398.0416666666667,489)">04/09</text>
<text x="453.45833333333337" y="489" text-anchor="middle" font-family="sans-serif" font-size="8" fill="#666666" transform="rotate(-45,453.45833333333337,489)">04/16</text>
<text x="508.87500000000006" y="489" text-anchor="middle" font-family="sans-serif" font-size="8" fill="#666666" transform="rotate(-45,508.87500000000006,489)">04/23</text>
<text x="564.2916666666666" y="489" text-anchor="middle" font-family="sans-serif" font-size="8" fill="#666666" transform="rotate(-45,564.2916666666666,489)">04/30</text>
<text x="619.7083333333334" y="489" text-anchor="middle" font-family="sans-serif" font-size="8" fill="#666666" transform="rotate(-45,619.7083333333334,489)">05/12</text>
<text x="675.125" y="489" text-anchor="middle" font-family="sans-serif" font-size="8" fill="#666666" transform="rotate(-45,675.125,489)">05/19</text>
<text x="719.4583333333334" y="489" text-anchor="middle" font-family="sans-serif" font-size="8" fill="#666666" transform="rotate(-45,719.4583333333334,489)">05/25</text>
<rect x="60" y="484" width="8" height="8" fill="#4ecdc4" opacity="0.8" rx="1"/>
<text x="71" y="491" font-family="sans-serif" font-size="9" fill="#888888">买入区(BIAS&lt;2%)</text>
<rect x="230" y="484" width="8" height="8" fill="#ffd700" opacity="0.8" rx="1"/>
<text x="241" y="491" font-family="sans-serif" font-size="9" fill="#888888">持有区(2-8%)</text>
<rect x="400" y="484" width="8" height="8" fill="#e94560" opacity="0.8" rx="1"/>
<text x="411" y="491" font-family="sans-serif" font-size="9" fill="#888888">警戒区(&gt;8%)</text>
<rect x="570" y="484" width="8" height="8" fill="#ffd700" opacity="0.8" rx="1"/>
<text x="581" y="491" font-family="sans-serif" font-size="9" fill="#888888">EMA5</text>
<rect x="60" y="497" width="8" height="8" fill="#ff6b6b" opacity="0.8" rx="1"/>
<text x="71" y="504" font-family="sans-serif" font-size="9" fill="#888888">EMA10</text>
<rect x="230" y="497" width="8" height="8" fill="#4ecdc4" opacity="0.8" rx="1"/>
<text x="241" y="504" font-family="sans-serif" font-size="9" fill="#888888">EMA20</text>
<rect x="400" y="497" width="8" height="8" fill="#4ecdc4" opacity="0.8" rx="1"/>
<text x="411" y="504" font-family="sans-serif" font-size="9" fill="#888888">B乖离买入</text>
<rect x="570" y="497" width="8" height="8" fill="#e94560" opacity="0.8" rx="1"/>
<text x="581" y="504" font-family="sans-serif" font-size="9" fill="#888888">W警戒⚠️</text>
</svg>