<svg xmlns="http://www.w3.org/2000/svg" width="750" height="540" viewBox="0 0 750 540">
<rect width="750" height="540" fill="#1a1a2e"/>
<text x="375.0" y="22" text-anchor="middle" font-family="sans-serif" font-size="15" fill="#ffffff" font-weight="bold">奥比中光-W(688322) 趋势交易分析图</text>
<text x="60" y="31" font-family="sans-serif" font-size="10" fill="#888888">最新: 116.99</text>
<line x1="60" y1="116.55839045801515" x2="725" y2="116.55839045801515" stroke="#4ecdc4" stroke-width="0.5" stroke-dasharray="4,3" opacity="0.4"/>
<text x="62" y="114.55839045801515" font-family="sans-serif" font-size="7" fill="#4ecdc4" opacity="0.6">买入↑2%</text>
<line x1="60" y1="69.05884678428703" x2="725" y2="69.05884678428703" stroke="#e94560" stroke-width="0.5" stroke-dasharray="4,3" opacity="0.4"/>
<text x="62" y="67.05884678428703" font-family="sans-serif" font-size="7" fill="#e94560" opacity="0.6">警戒↑8%</text>
<rect x="60" y="116.55839045801515" width="3" height="266.44160954198486" fill="#4ecdc4" opacity="0.3" rx="1"/>
<rect x="60" y="69.05884678428703" width="3" height="313.941153215713" fill="#e94560" opacity="0.3" rx="1"/>
<rect x="60" y="69.05884678428703" width="3" height="47.49954367372813" fill="#ffd700" opacity="0.2" rx="1"/>
<line x1="60" y1="32.0" x2="725" y2="32.0" stroke="#2a2a4e" stroke-width="0.5"/>
<text x="56" y="35.0" text-anchor="end" font-family="sans-serif" font-size="8" fill="#666666">127.0</text>
<line x1="60" y1="127.75" x2="725" y2="127.75" stroke="#2a2a4e" stroke-width="0.5"/>
<text x="56" y="130.75" text-anchor="end" font-family="sans-serif" font-size="8" fill="#666666">113.3</text>
<line x1="60" y1="223.5" x2="725" y2="223.5" stroke="#2a2a4e" stroke-width="0.5"/>
<text x="56" y="226.5" text-anchor="end" font-family="sans-serif" font-size="8" fill="#666666">99.7</text>
<line x1="60" y1="319.25" x2="725" y2="319.25" stroke="#2a2a4e" stroke-width="0.5"/>
<text x="56" y="322.25" text-anchor="end" font-family="sans-serif" font-size="8" fill="#666666">86.1</text>
<line x1="60" y1="415.0" x2="725" y2="415.0" stroke="#2a2a4e" stroke-width="0.5"/>
<text x="56" y="418.0" text-anchor="end" font-family="sans-serif" font-size="8" fill="#666666">72.5</text>
<rect x="61.66250000000001" y="468.6754636068255" width="6.095833333333334" height="6.324536393174518" fill="#ff4444" opacity="0.35"/>
<rect x="72.74583333333334" y="469.22750806104403" width="6.095833333333334" height="5.772491938955982" fill="#ff4444" opacity="0.35"/>
<rect x="83.82916666666668" y="468.1832331833148" width="6.095833333333334" height="6.816766816685199" fill="#44aa44" opacity="0.35"/>
<rect x="94.91250000000001" y="464.74439908440166" width="6.095833333333334" height="10.255600915598313" fill="#44aa44" opacity="0.35"/>
<rect x="105.99583333333335" y="469.09646010983465" width="6.095833333333334" height="5.903539890165372" fill="#ff4444" opacity="0.35"/>
<rect x="117.07916666666668" y="469.09784883955035" width="6.095833333333334" height="5.902151160449622" fill="#ff4444" opacity="0.35"/>
<rect x="128.1625" y="470.4284047650759" width="6.095833333333334" height="4.571595234924066" fill="#44aa44" opacity="0.35"/>
<rect x="139.24583333333334" y="468.6389164903717" width="6.095833333333334" height="6.36108350962834" fill="#ff4444" opacity="0.35"/>
<rect x="150.32916666666668" y="469.34040062072364" width="6.095833333333334" height="5.65959937927638" fill="#ff4444" opacity="0.35"/>
<rect x="161.4125" y="470.80628018051783" width="6.095833333333334" height="4.1937198194821725" fill="#44aa44" opacity="0.35"/>
<rect x="172.49583333333334" y="470.8304447280307" width="6.095833333333334" height="4.169555271969249" fill="#44aa44" opacity="0.35"/>
<rect x="183.57916666666668" y="471.3575614296467" width="6.095833333333334" height="3.642438570353323" fill="#44aa44" opacity="0.35"/>
<rect x="194.6625" y="469.8021060929413" width="6.095833333333334" height="5.197893907058718" fill="#44aa44" opacity="0.35"/>
<rect x="205.74583333333334" y="470.49712032560114" width="6.095833333333334" height="4.502879674398868" fill="#44aa44" opacity="0.35"/>
<rect x="216.82916666666668" y="471.2841116125495" width="6.095833333333334" height="3.7158883874504802" fill="#ff4444" opacity="0.35"/>
<rect x="227.9125" y="469.65002555374184" width="6.095833333333334" height="5.349974446258158" fill="#44aa44" opacity="0.35"/>
<rect x="238.99583333333334" y="469.6971133563988" width="6.095833333333334" height="5.302886643601188" fill="#44aa44" opacity="0.35"/>
<rect x="250.07916666666668" y="462.7455671227106" width="6.095833333333334" height="12.254432877289384" fill="#ff4444" opacity="0.35"/>
<rect x="261.1625" y="467.3762370334119" width="6.095833333333334" height="7.623762966588096" fill="#44aa44" opacity="0.35"/>
<rect x="272.2458333333334" y="468.6530065138811" width="6.095833333333334" height="6.3469934861188975" fill="#ff4444" opacity="0.35"/>
<rect x="283.3291666666667" y="468.71088434531316" width="6.095833333333334" height="6.289115654686865" fill="#44aa44" opacity="0.35"/>
<rect x="294.4125" y="470.4422215958544" width="6.095833333333334" height="4.5577784041455915" fill="#ff4444" opacity="0.35"/>
<rect x="305.4958333333334" y="470.35701581854056" width="6.095833333333334" height="4.642984181459443" fill="#ff4444" opacity="0.35"/>
<rect x="316.5791666666667" y="470.776913046037" width="6.095833333333334" height="4.223086953962998" fill="#44aa44" opacity="0.35"/>
<rect x="327.6625" y="469.2944055889905" width="6.095833333333334" height="5.705594411009481" fill="#ff4444" opacity="0.35"/>
<rect x="338.7458333333334" y="470.17948824373" width="6.095833333333334" height="4.820511756269959" fill="#44aa44" opacity="0.35"/>
<rect x="349.8291666666667" y="471.4859153969812" width="6.095833333333334" height="3.5140846030187487" fill="#ff4444" opacity="0.35"/>
<rect x="360.9125" y="471.1214795461655" width="6.095833333333334" height="3.8785204538344553" fill="#44aa44" opacity="0.35"/>
<rect x="371.9958333333334" y="467.641491997807" width="6.095833333333334" height="7.358508002192976" fill="#ff4444" opacity="0.35"/>
<rect x="383.0791666666667" y="470.24539056958514" width="6.095833333333334" height="4.754609430414838" fill="#44aa44" opacity="0.35"/>
<rect x="394.1625" y="467.0101295032662" width="6.095833333333334" height="7.989870496733768" fill="#ff4444" opacity="0.35"/>
<rect x="405.2458333333334" y="465.2173694203792" width="6.095833333333334" height="9.782630579620815" fill="#ff4444" opacity="0.35"/>
<rect x="416.3291666666667" y="467.2469539939724" width="6.095833333333334" height="7.753046006027585" fill="#44aa44" opacity="0.35"/>
<rect x="427.4125" y="468.488443668712" width="6.095833333333334" height="6.511556331288002" fill="#44aa44" opacity="0.35"/>
<rect x="438.4958333333334" y="467.27169744989146" width="6.095833333333334" height="7.728302550108565" fill="#ff4444" opacity="0.35"/>
<rect x="449.5791666666667" y="467.63048298120793" width="6.095833333333334" height="7.369517018792067" fill="#ff4444" opacity="0.35"/>
<rect x="460.6625" y="466.9266019098712" width="6.095833333333334" height="8.073398090128823" fill="#44aa44" opacity="0.35"/>
<rect x="471.7458333333334" y="467.6428612137563" width="6.095833333333334" height="7.357138786243723" fill="#44aa44" opacity="0.35"/>
<rect x="482.8291666666667" y="468.817544424793" width="6.095833333333334" height="6.182455575206985" fill="#ff4444" opacity="0.35"/>
<rect x="493.9125" y="466.88218640912623" width="6.095833333333334" height="8.117813590873752" fill="#44aa44" opacity="0.35"/>
<rect x="504.9958333333334" y="467.34082930410193" width="6.095833333333334" height="7.659170695898082" fill="#44aa44" opacity="0.35"/>
<rect x="516.0791666666667" y="468.28517743589106" width="6.095833333333334" height="6.714822564108918" fill="#ff4444" opacity="0.35"/>
<rect x="527.1624999999999" y="468.23030147220527" width="6.095833333333334" height="6.769698527794727" fill="#44aa44" opacity="0.35"/>
<rect x="538.2458333333333" y="469.7431289859966" width="6.095833333333334" height="5.25687101400345" fill="#ff4444" opacity="0.35"/>
<rect x="549.3291666666667" y="469.1067265192087" width="6.095833333333334" height="5.89327348079133" fill="#ff4444" opacity="0.35"/>
<rect x="560.4124999999999" y="464.94241611403476" width="6.095833333333334" height="10.057583885965265" fill="#ff4444" opacity="0.35"/>
<rect x="571.4958333333333" y="461.0151914672184" width="6.095833333333334" height="13.98480853278158" fill="#ff4444" opacity="0.35"/>
<rect x="582.5791666666667" y="459.1856208320298" width="6.095833333333334" height="15.814379167970165" fill="#ff4444" opacity="0.35"/>
<rect x="593.6624999999999" y="462.866684734969" width="6.095833333333334" height="12.13331526503102" fill="#44aa44" opacity="0.35"/>
<rect x="604.7458333333333" y="465.47342906436137" width="6.095833333333334" height="9.526570935638643" fill="#44aa44" opacity="0.35"/>
<rect x="615.8291666666667" y="465.537241249005" width="6.095833333333334" height="9.462758750995047" fill="#ff4444" opacity="0.35"/>
<rect x="626.9124999999999" y="465.3677284117343" width="6.095833333333334" height="9.632271588265722" fill="#44aa44" opacity="0.35"/>
<rect x="637.9958333333333" y="455.1768589960012" width="6.095833333333334" height="19.823141003998774" fill="#ff4444" opacity="0.35"/>
<rect x="649.0791666666667" y="446.3698419384914" width="6.095833333333334" height="28.63015806150863" fill="#ff4444" opacity="0.35"/>
<rect x="660.1624999999999" y="449.31153573342334" width="6.095833333333334" height="25.688464266576638" fill="#ff4444" opacity="0.35"/>
<rect x="671.2458333333333" y="449.82095344882595" width="6.095833333333334" height="25.17904655117408" fill="#ff4444" opacity="0.35"/>
<rect x="682.3291666666667" y="444.3176376572329" width="6.095833333333334" height="30.682362342767053" fill="#ff4444" opacity="0.35"/>
<rect x="693.4124999999999" y="444.2702625685692" width="6.095833333333334" height="30.72973743143079" fill="#ff4444" opacity="0.35"/>
<rect x="704.4958333333333" y="440.0" width="6.095833333333334" height="35.0" fill="#ff4444" opacity="0.35"/>
<rect x="715.5791666666667" y="443.20058293505633" width="6.095833333333334" height="31.799417064943672" fill="#44aa44" opacity="0.25" stroke-dasharray="3,2"/>
<polyline points="65.54166666666667,280.7989359750504 76.625,281.92313337002383 87.70833333333334,288.64489696080227 98.79166666666667,307.7640596017041 109.87500000000001,320.74437581959137 120.95833333333334,324.22192779215953 132.04166666666666,329.7723632844202 143.125,336.6110380068947 154.20833333333334,335.22127660681014 165.29166666666666,336.73053002919613 176.375,340.52377168582507 187.45833333333334,346.07387995590193 198.54166666666666,351.3665651121655 209.625,359.6025984744591 220.70833333333334,362.7512094764602 231.79166666666666,372.6728236844842 242.875,383.5029733876504 253.95833333333334,388.7323069694958 265.0416666666667,392.3122124736405 276.12500000000006,389.94439799349533 287.20833333333337,391.1763484941654 298.2916666666667,391.6229163629542 309.37500000000006,391.40537113611737 320.45833333333337,393.297948763282 331.5416666666667,387.580275020932 342.62500000000006,389.50658339620867 353.70833333333337,389.3855422360097 364.7916666666667,392.88822732568815 375.87500000000006,382.81033781597586 386.95833333333337,381.38484087750066 398.0416666666667,373.3145927503523 409.12500000000006,363.8826325545369 420.20833333333337,358.0396538928369 431.2916666666667,356.2990464587358 442.37500000000006,349.89238699279264 453.45833333333337,342.8107871947304 464.5416666666667,339.44812584828173 475.62500000000006,341.5626165228378 486.70833333333337,342.15254970537376 497.7916666666667,349.1973397473237 508.87500000000006,360.0535313352488 519.9583333333334,363.0284106045914 531.0416666666666,370.4921257513151 542.125,372.3061306757682 553.2083333333334,369.8384049793447 564.2916666666666,363.8838311676644 575.375,348.01635952974243 586.4583333333334,334.11229447766476 597.5416666666666,326.57605542686366 608.625,321.9032077455921 619.7083333333334,317.33588765623705 630.7916666666666,320.70830105964023 641.875,313.3774780255732 652.9583333333334,293.5009640698831 664.0416666666666,267.8135210841965 675.125,246.07466561853542 686.2083333333334,215.37491619722823 697.2916666666666,174.88365048505977 708.375,147.56158243674685 719.4583333333334,132.39157168259118" fill="none" stroke="#ffd700" stroke-width="1" opacity="0.7"/>
<polyline points="65.54166666666667,280.7989359750504 76.625,281.41213455412696 87.70833333333334,285.1714599338055 98.79166666666667,296.23162810647864 109.87500000000001,305.4086063153672 120.95833333333334,310.09377457389974 132.04166666666666,315.6900399729983 143.125,321.9806486055156 154.20833333333334,323.88266773299296 165.29166666666666,326.7674621222611 176.375,330.6479699180469 187.45833333333334,335.47090202313944 198.54166666666666,340.2856353688764 209.625,346.7927317016345 220.70833333333334,350.8392225705122 231.79166666666666,358.4168279396067 242.875,366.9161815494933 253.95833333333334,372.78432565561934 265.0416666666667,377.63663435131224 276.12500000000006,379.01338611165636 287.20833333333337,381.6728158178107 298.2916666666667,383.64431332376006 309.37500000000006,384.9763073889753 320.45833333333337,387.1775431396364 331.5416666666667,385.17161302992645 342.62500000000006,386.6602652329874 353.70833333333337,387.1117551752828 364.7916666666667,389.4357265079668 375.87500000000006,384.5664232877094 386.95833333333337,383.4695912354987 398.0416666666667,378.68859219196366 409.12500000000006,372.566795823044 420.20833333333337,367.8007777769336 431.2916666666667,365.07660574304276 442.37500000000006,359.98614434629064 453.45833333333337,354.2882249376207 464.5416666666667,350.36723915903224 475.62500000000006,349.5353043795627 486.70833333333337,348.4075065051778 497.7916666666667,351.11285438264065 508.87500000000006,356.68613804236037 519.9583333333334,358.9210527879815 531.0416666666666,363.7389624710326 542.125,365.95626757169475 553.2083333333334,365.7647559380226 564.2916666666666,363.2574700482555 575.375,354.7163693583724 586.4583333333334,345.9141502702155 597.5416666666666,339.6576824620421 608.625,334.7303788113161 619.7083333333334,329.90690038699074 630.7916666666666,329.46075992870993 641.875,323.8707730248425 652.9583333333334,311.1211663218716 664.0416666666666,293.90616064749923 675.125,277.30448683653816 686.2083333333334,254.8810196580065 697.2916666666666,225.61194682213676 708.375,201.48567400722476 719.4583333333334,183.40674240123485" fill="none" stroke="#ff6b6b" stroke-width="1" opacity="0.7"/>
<polyline points="65.54166666666667,280.7989359750504 76.625,281.1201352307571 87.70833333333334,283.1171151271002 98.79166666666667,289.1061884372342 109.87500000000001,294.5917903246753 120.95833333333334,298.0760990306391 132.04166666666666,302.1520166723823 143.125,306.7364329370929 154.20833333333334,309.1845587341927 165.29166666666666,312.0954614141714 176.375,315.5254417555915 187.45833333333334,319.4919803023024 198.54166666666666,323.5357855520538 209.625,328.5394883755769 220.70833333333334,332.39748295699457 231.79166666666666,338.1230609706649 242.875,344.50784304907603 253.95833333333334,349.7157602951818 265.0416666666667,354.45445202725307 276.12500000000006,357.3834345992484 287.20833333333337,360.8364645893681 298.2916666666667,363.85356816186 309.37500000000006,366.43611221143937 320.45833333333337,369.35487333583666 331.5416666666667,370.00154516444576 342.62500000000006,372.2260837341901 353.70833333333337,373.8372624181351 364.7916666666667,376.3188181406979 375.87500000000006,375.017460107922 386.95833333333337,375.3523540976961 398.0416666666667,373.6210914689684 409.12500000000006,370.8970553445815 420.20833333333337,368.5595926040915 431.2916666666667,367.060377269467 442.37500000000006,364.20501448769926 453.45833333333337,360.8185928792141 464.5416666666667,358.1428033817065 475.62500000000006,356.966498095063 486.70833333333337,355.6680140927186 497.7916666666667,356.39362416305244 508.87500000000006,358.81003276762823 519.9583333333334,359.7784267081662 531.0416666666666,362.2204390259373 542.125,363.52650583534074 553.2083333333334,363.6575960973558 564.2916666666666,362.54493775896987 575.375,358.1388880918202 586.4583333333334,353.2022477376953 597.5416666666666,349.23094579365403 608.625,345.7382378497869 619.7083333333334,342.1632863857621 630.7916666666666,340.76231890773204 641.875,336.7578915791328 652.9583333333334,328.8521815390728 664.0416666666666,318.14612949847753 675.125,307.14144618311906 686.2083333333334,292.5542053423091 697.2916666666666,273.6348637916818 708.375,256.42368117724754 719.4583333333334,241.7215734626792" fill="none" stroke="#4ecdc4" stroke-width="1" opacity="0.7"/>
<line x1="65.54166666666667" y1="277.4263437901302" x2="65.54166666666667" y2="294.1487800403595" stroke="#ff4444" stroke-width="0.5" opacity="0.6"/>
<rect x="63.04791666666667" y="280.7989359750504" width="4.987500000000001" height="3.8644285452211307" fill="#ff4444" opacity="0.8" rx="1"/>
<line x1="76.625" y1="271.4540451293341" x2="76.625" y2="289.37094111172263" stroke="#ff4444" stroke-width="0.5" opacity="0.6"/>
<rect x="74.13125" y="284.17152815997065" width="4.987500000000001" height="2.599706475875905" fill="#ff4444" opacity="0.8" rx="1"/>
<line x1="87.70833333333334" y1="292.25169693634194" x2="87.70833333333334" y2="305.7420656760228" stroke="#44aa44" stroke-width="0.5" opacity="0.6"/>
<rect x="85.21458333333334" y="298.715831957439" width="4.987500000000001" height="3.372592184920279" fill="#44aa44" opacity="0.8" rx="1"/>
<line x1="98.79166666666667" y1="292.8840579710145" x2="98.79166666666667" y2="346.07264722069345" stroke="#44aa44" stroke-width="0.5" opacity="0.6"/>
<rect x="96.29791666666667" y="301.73711245643005" width="4.987500000000001" height="44.265272427077605" fill="#44aa44" opacity="0.8" rx="1"/>
<line x1="109.87500000000001" y1="335.74408365437534" x2="109.87500000000001" y2="354.0825536598789" stroke="#ff4444" stroke-width="0.5" opacity="0.6"/>
<rect x="107.38125000000001" y="346.705008255366" width="4.987500000000001" height="4.707576591451129" fill="#ff4444" opacity="0.8" rx="1"/>
<line x1="120.95833333333334" y1="325.2749954136856" x2="120.95833333333334" y2="338.9761511649239" stroke="#ff4444" stroke-width="0.5" opacity="0.6"/>
<rect x="118.46458333333334" y="331.1770317372959" width="4.987500000000001" height="3.51311685929187" fill="#ff4444" opacity="0.8" rx="1"/>
<line x1="132.04166666666666" y1="329.98257200513666" x2="132.04166666666666" y2="342.13795633828664" stroke="#44aa44" stroke-width="0.5" opacity="0.6"/>
<rect x="129.54791666666665" y="333.84700055035773" width="4.987500000000001" height="7.02623371858374" fill="#44aa44" opacity="0.8" rx="1"/>
<line x1="143.125" y1="344.45661346541925" x2="143.125" y2="371.0860392588516" stroke="#ff4444" stroke-width="0.5" opacity="0.6"/>
<rect x="140.63125" y="350.28838745184373" width="4.987500000000001" height="12.366171344707311" fill="#ff4444" opacity="0.8" rx="1"/>
<line x1="154.20833333333334" y1="330.33388369106586" x2="154.20833333333334" y2="345.15923683727755" stroke="#ff4444" stroke-width="0.5" opacity="0.6"/>
<rect x="151.71458333333334" y="332.441753806641" width="4.987500000000001" height="8.080168776371352" fill="#ff4444" opacity="0.8" rx="1"/>
<line x1="165.29166666666666" y1="323.58869932122553" x2="165.29166666666666" y2="341.6461199779857" stroke="#44aa44" stroke-width="0.5" opacity="0.6"/>
<rect x="162.79791666666665" y="333.7064758759861" width="4.987500000000001" height="6.0425609979820365" fill="#44aa44" opacity="0.8" rx="1"/>
<line x1="176.375" y1="334.33883691065853" x2="176.375" y2="354.8554393689231" stroke="#44aa44" stroke-width="0.5" opacity="0.6"/>
<rect x="173.88125" y="340.8732342689415" width="4.987500000000001" height="7.237020730141296" fill="#44aa44" opacity="0.8" rx="1"/>
<line x1="187.45833333333334" y1="343.683727756375" x2="187.45833333333334" y2="358.79013025133" stroke="#44aa44" stroke-width="0.5" opacity="0.6"/>
<rect x="184.96458333333334" y="355.06622638048066" width="4.987500000000001" height="2.1078701155750537" fill="#44aa44" opacity="0.8" rx="1"/>
<line x1="198.54166666666666" y1="357.1740964960557" x2="198.54166666666666" y2="372.42102366538245" stroke="#44aa44" stroke-width="0.5" opacity="0.6"/>
<rect x="196.04791666666665" y="357.1740964960557" width="4.987500000000001" height="4.777838928637038" fill="#44aa44" opacity="0.8" rx="1"/>
<line x1="209.625" y1="351.5531095211888" x2="209.625" y2="376.6367638965328" stroke="#44aa44" stroke-width="0.5" opacity="0.6"/>
<rect x="207.13125" y="355.6283250779673" width="4.987500000000001" height="20.446340121078777" fill="#44aa44" opacity="0.8" rx="1"/>
<line x1="220.70833333333334" y1="367.57292239955973" x2="220.70833333333334" y2="376.0044028618602" stroke="#ff4444" stroke-width="0.5" opacity="0.6"/>
<rect x="218.21458333333334" y="369.04843148046234" width="4.987500000000001" height="4.004953219592721" fill="#ff4444" opacity="0.8" rx="1"/>
<line x1="231.79166666666666" y1="377.409649605577" x2="231.79166666666666" y2="395.60759493670895" stroke="#44aa44" stroke-width="0.5" opacity="0.6"/>
<rect x="229.29791666666665" y="383.873784626674" width="4.987500000000001" height="8.642267473857999" fill="#44aa44" opacity="0.8" rx="1"/>
<line x1="242.875" y1="383.80352228948817" x2="242.875" y2="406.4982572005137" stroke="#44aa44" stroke-width="0.5" opacity="0.6"/>
<rect x="240.38125" y="388.4408365437534" width="4.987500000000001" height="16.722436250229407" fill="#44aa44" opacity="0.8" rx="1"/>
<line x1="253.95833333333334" y1="371.92918730508165" x2="253.95833333333334" y2="406.7090442120712" stroke="#ff4444" stroke-width="0.5" opacity="0.6"/>
<rect x="251.46458333333334" y="399.19097413318656" width="4.987500000000001" height="4.918363603008629" fill="#ff4444" opacity="0.8" rx="1"/>
<line x1="265.0416666666667" y1="385.63034305632" x2="265.0416666666667" y2="415.0" stroke="#44aa44" stroke-width="0.5" opacity="0.6"/>
<rect x="262.5479166666667" y="388.5813612181252" width="4.987500000000001" height="10.890662263804757" fill="#44aa44" opacity="0.8" rx="1"/>
<line x1="276.12500000000006" y1="380.92276646486886" x2="276.12500000000006" y2="407.4819299211154" stroke="#ff4444" stroke-width="0.5" opacity="0.6"/>
<rect x="273.6312500000001" y="385.20876903320493" width="4.987500000000001" height="12.01485965877822" fill="#ff4444" opacity="0.8" rx="1"/>
<line x1="287.20833333333337" y1="372.63181067694" x2="287.20833333333337" y2="396.0291689598239" stroke="#44aa44" stroke-width="0.5" opacity="0.6"/>
<rect x="284.7145833333334" y="382.6793248945148" width="4.987500000000001" height="10.960924600990609" fill="#44aa44" opacity="0.8" rx="1"/>
<line x1="298.2916666666667" y1="387.38690148596595" x2="298.2916666666667" y2="404.88222344523945" stroke="#ff4444" stroke-width="0.5" opacity="0.6"/>
<rect x="295.7979166666667" y="392.516052100532" width="4.987500000000001" height="11.593285635663165" fill="#ff4444" opacity="0.8" rx="1"/>
<line x1="309.37500000000006" y1="383.2414235920015" x2="309.37500000000006" y2="408.1142909557879" stroke="#ff4444" stroke-width="0.5" opacity="0.6"/>
<rect x="306.8812500000001" y="390.97028068244356" width="4.987500000000001" height="16.652173913043498" fill="#ff4444" opacity="0.8" rx="1"/>
<line x1="320.45833333333337" y1="379.587782058338" x2="320.45833333333337" y2="397.0831040176115" stroke="#44aa44" stroke-width="0.5" opacity="0.6"/>
<rect x="317.9645833333334" y="392.7268391120895" width="4.987500000000001" height="4.356264905521982" fill="#44aa44" opacity="0.8" rx="1"/>
<line x1="331.5416666666667" y1="374.6694184553293" x2="331.5416666666667" y2="388.65162355531095" stroke="#ff4444" stroke-width="0.5" opacity="0.6"/>
<rect x="329.0479166666667" y="376.1449275362319" width="4.987500000000001" height="10.398825903503962" fill="#ff4444" opacity="0.8" rx="1"/>
<line x1="342.62500000000006" y1="372.49128600256836" x2="342.62500000000006" y2="396.7317923316823" stroke="#44aa44" stroke-width="0.5" opacity="0.6"/>
<rect x="340.1312500000001" y="377.409649605577" width="4.987500000000001" height="15.94955054118509" fill="#44aa44" opacity="0.8" rx="1"/>
<line x1="353.70833333333337" y1="388.08952485782424" x2="353.70833333333337" y2="401.22858191157593" stroke="#ff4444" stroke-width="0.5" opacity="0.6"/>
<rect x="351.2145833333334" y="389.14345991561186" width="4.987500000000001" height="4.145477893964312" fill="#ff4444" opacity="0.8" rx="1"/>
<line x1="364.7916666666667" y1="387.2463768115942" x2="364.7916666666667" y2="405.514584479912" stroke="#44aa44" stroke-width="0.5" opacity="0.6"/>
<rect x="362.2979166666667" y="387.31663914878004" width="4.987500000000001" height="12.576958356264981" fill="#44aa44" opacity="0.8" rx="1"/>
<line x1="375.87500000000006" y1="362.0924600990644" x2="375.87500000000006" y2="379.09594569803704" stroke="#ff4444" stroke-width="0.5" opacity="0.6"/>
<rect x="373.3812500000001" y="362.65455879655104" width="4.987500000000001" height="16.441386901486" fill="#ff4444" opacity="0.8" rx="1"/>
<line x1="386.95833333333337" y1="368.97816914327643" x2="386.95833333333337" y2="382.74958723170056" stroke="#44aa44" stroke-width="0.5" opacity="0.6"/>
<rect x="384.4645833333334" y="372.8425976884975" width="4.987500000000001" height="5.691249312052889" fill="#44aa44" opacity="0.8" rx="1"/>
<line x1="398.0416666666667" y1="342.348743349844" x2="398.0416666666667" y2="368.90790680609064" stroke="#ff4444" stroke-width="0.5" opacity="0.6"/>
<rect x="395.5479166666667" y="357.1740964960557" width="4.987500000000001" height="10.117776554760724" fill="#ff4444" opacity="0.8" rx="1"/>
<line x1="409.12500000000006" y1="333.91726288754364" x2="409.12500000000006" y2="367.3621353880022" stroke="#ff4444" stroke-width="0.5" opacity="0.6"/>
<rect x="406.6312500000001" y="345.0187121629059" width="4.987500000000001" height="20.305815446707015" fill="#ff4444" opacity="0.8" rx="1"/>
<line x1="420.20833333333337" y1="339.32746285085307" x2="420.20833333333337" y2="358.36855622821497" stroke="#44aa44" stroke-width="0.5" opacity="0.6"/>
<rect x="417.7145833333334" y="340.31113557145477" width="4.987500000000001" height="6.0425609979820365" fill="#44aa44" opacity="0.8" rx="1"/>
<line x1="431.2916666666667" y1="337.4303797468355" x2="431.2916666666667" y2="355.76884975233907" stroke="#44aa44" stroke-width="0.5" opacity="0.6"/>
<rect x="428.7979166666667" y="342.2082186754724" width="4.987500000000001" height="10.609612915061462" fill="#44aa44" opacity="0.8" rx="1"/>
<line x1="442.37500000000006" y1="330.4041460282517" x2="442.37500000000006" y2="349.1641900568703" stroke="#ff4444" stroke-width="0.5" opacity="0.6"/>
<rect x="439.8812500000001" y="337.07906806090625" width="4.987500000000001" height="5.972298660796241" fill="#ff4444" opacity="0.8" rx="1"/>
<line x1="453.45833333333337" y1="323.2373876352963" x2="453.45833333333337" y2="341.7866446523573" stroke="#ff4444" stroke-width="0.5" opacity="0.6"/>
<rect x="450.9645833333334" y="328.6475875986058" width="4.987500000000001" height="12.225646670335664" fill="#ff4444" opacity="0.8" rx="1"/>
<line x1="464.5416666666667" y1="318.24876169510185" x2="464.5416666666667" y2="338.55457714180886" stroke="#44aa44" stroke-width="0.5" opacity="0.6"/>
<rect x="462.0479166666667" y="319.9350577875619" width="4.987500000000001" height="12.787745367822481" fill="#44aa44" opacity="0.8" rx="1"/>
<line x1="475.62500000000006" y1="335.2522472940745" x2="475.62500000000006" y2="354.8554393689231" stroke="#44aa44" stroke-width="0.5" opacity="0.6"/>
<rect x="473.1312500000001" y="336.65749403779125" width="4.987500000000001" height="9.134103834158907" fill="#44aa44" opacity="0.8" rx="1"/>
<line x1="486.70833333333337" y1="336.44670702623375" x2="486.70833333333337" y2="350.0073381031003" stroke="#ff4444" stroke-width="0.5" opacity="0.6"/>
<rect x="484.2145833333334" y="343.33241607044573" width="4.987500000000001" height="5.199412951752038" fill="#ff4444" opacity="0.8" rx="1"/>
<line x1="497.7916666666667" y1="341.50559530361403" x2="497.7916666666667" y2="367.50266006237393" stroke="#44aa44" stroke-width="0.5" opacity="0.6"/>
<rect x="495.2979166666667" y="344.38635112823334" width="4.987500000000001" height="18.900568702990256" fill="#44aa44" opacity="0.8" rx="1"/>
<line x1="508.87500000000006" y1="358.5793432397725" x2="508.87500000000006" y2="389.98660796184186" stroke="#44aa44" stroke-width="0.5" opacity="0.6"/>
<rect x="506.3812500000001" y="367.50266006237393" width="4.987500000000001" height="14.263254448724865" fill="#44aa44" opacity="0.8" rx="1"/>
<line x1="519.9583333333334" y1="361.2493120528344" x2="519.9583333333334" y2="382.5388002201432" stroke="#ff4444" stroke-width="0.5" opacity="0.6"/>
<rect x="517.4645833333334" y="368.97816914327643" width="4.987500000000001" height="13.560631076866741" fill="#ff4444" opacity="0.8" rx="1"/>
<line x1="531.0416666666666" y1="370.2428912126216" x2="531.0416666666666" y2="388.30031186938174" stroke="#44aa44" stroke-width="0.5" opacity="0.6"/>
<rect x="528.5479166666667" y="373.8965327462851" width="4.987500000000001" height="11.52302329847737" fill="#44aa44" opacity="0.8" rx="1"/>
<line x1="542.125" y1="371.9994496422675" x2="542.125" y2="389.98660796184186" stroke="#ff4444" stroke-width="0.5" opacity="0.6"/>
<rect x="539.63125" y="375.9341405246743" width="4.987500000000001" height="13.911942762795888" fill="#ff4444" opacity="0.8" rx="1"/>
<line x1="553.2083333333334" y1="359.35222894881673" x2="553.2083333333334" y2="379.2364703724087" stroke="#ff4444" stroke-width="0.5" opacity="0.6"/>
<rect x="550.7145833333334" y="364.9029535864979" width="4.987500000000001" height="9.063841496972941" fill="#ff4444" opacity="0.8" rx="1"/>
<line x1="564.2916666666666" y1="332.7228031553844" x2="564.2916666666666" y2="364.76242891212627" stroke="#ff4444" stroke-width="0.5" opacity="0.6"/>
<rect x="561.7979166666667" y="351.9746835443038" width="4.987500000000001" height="9.90698954320311" fill="#ff4444" opacity="0.8" rx="1"/>
<line x1="575.375" y1="312.7682993946065" x2="575.375" y2="352.11520821867543" stroke="#ff4444" stroke-width="0.5" opacity="0.6"/>
<rect x="572.88125" y="316.2814162538984" width="4.987500000000001" height="30.423592001467625" fill="#ff4444" opacity="0.8" rx="1"/>
<line x1="586.4583333333334" y1="291.5490735644836" x2="586.4583333333334" y2="323.6589616584113" stroke="#ff4444" stroke-width="0.5" opacity="0.6"/>
<rect x="583.9645833333334" y="306.3041643735094" width="4.987500000000001" height="9.977251880388962" fill="#ff4444" opacity="0.8" rx="1"/>
<line x1="597.5416666666666" y1="304.12603192074846" x2="597.5416666666666" y2="319.8647954503761" stroke="#44aa44" stroke-width="0.5" opacity="0.6"/>
<rect x="595.0479166666667" y="306.5149513850669" width="4.987500000000001" height="4.988625940194424" fill="#44aa44" opacity="0.8" rx="1"/>
<line x1="608.625" y1="301.59658778205835" x2="608.625" y2="318.3190240322877" stroke="#44aa44" stroke-width="0.5" opacity="0.6"/>
<rect x="606.13125" y="305.3907539900936" width="4.987500000000001" height="7.166758392955387" fill="#44aa44" opacity="0.8" rx="1"/>
<line x1="619.7083333333334" y1="304.82865529260687" x2="619.7083333333334" y2="327.45312786644655" stroke="#ff4444" stroke-width="0.5" opacity="0.6"/>
<rect x="617.2145833333334" y="308.20124747752703" width="4.987500000000001" height="11.593285635663221" fill="#ff4444" opacity="0.8" rx="1"/>
<line x1="630.7916666666666" y1="302.158686479545" x2="630.7916666666666" y2="327.5936525408182" stroke="#44aa44" stroke-width="0.5" opacity="0.6"/>
<rect x="628.2979166666667" y="306.65547605943857" width="4.987500000000001" height="20.79765180700798" fill="#44aa44" opacity="0.8" rx="1"/>
<line x1="641.875" y1="277.6371308016877" x2="641.875" y2="335.2522472940745" stroke="#ff4444" stroke-width="0.5" opacity="0.6"/>
<rect x="639.38125" y="298.715831957439" width="4.987500000000001" height="30.91542836176859" fill="#ff4444" opacity="0.8" rx="1"/>
<line x1="652.9583333333334" y1="244.4733076499725" x2="652.9583333333334" y2="312.7682993946065" stroke="#ff4444" stroke-width="0.5" opacity="0.6"/>
<rect x="650.4645833333334" y="253.74793615850297" width="4.987500000000001" height="47.77838928636953" fill="#ff4444" opacity="0.8" rx="1"/>
<line x1="664.0416666666666" y1="202.5969546872133" x2="664.0416666666666" y2="263.2333516785911" stroke="#ff4444" stroke-width="0.5" opacity="0.6"/>
<rect x="661.5479166666667" y="216.43863511282336" width="4.987500000000001" height="40.611630893413974" fill="#ff4444" opacity="0.8" rx="1"/>
<line x1="675.125" y1="170.768115942029" x2="675.125" y2="242.50596220876903" stroke="#ff4444" stroke-width="0.5" opacity="0.6"/>
<rect x="672.63125" y="202.5969546872133" width="4.987500000000001" height="25.997064758759876" fill="#ff4444" opacity="0.8" rx="1"/>
<line x1="686.2083333333334" y1="106.54833975417355" x2="686.2083333333334" y2="214.40102733443402" stroke="#ff4444" stroke-width="0.5" opacity="0.6"/>
<rect x="683.7145833333334" y="153.97541735461385" width="4.987500000000001" height="46.23261786828104" fill="#ff4444" opacity="0.8" rx="1"/>
<line x1="697.2916666666666" y1="72.40084388185655" x2="697.2916666666666" y2="168.87103283801133" stroke="#ff4444" stroke-width="0.5" opacity="0.6"/>
<rect x="694.7979166666667" y="93.90111906072272" width="4.987500000000001" height="57.263804806457586" fill="#ff4444" opacity="0.8" rx="1"/>
<line x1="708.375" y1="32.0" x2="708.375" y2="105.49440469638596" stroke="#ff4444" stroke-width="0.5" opacity="0.6"/>
<rect x="705.88125" y="92.917446340121" width="4.987500000000001" height="2.0376077783893294" fill="#ff4444" opacity="0.8" rx="1"/>
<line x1="719.4583333333334" y1="51.39240506329108" x2="719.4583333333334" y2="122.98972665565944" stroke="#44aa44" stroke-width="0.5" opacity="0.3" stroke-dasharray="4,3"/>
<rect x="716.9645833333334" y="87.9288203999266" width="4.987500000000001" height="14.12272977435336" fill="#44aa44" opacity="0.4" stroke-dasharray="4,3" rx="1"/>
<text x="739.4583333333334" y="96.05155017427995" font-family="sans-serif" font-size="9" fill="#ffd700" opacity="0.8">🕐 盘中</text>
<line x1="386.95833333333337" y1="382.74958723170056" x2="386.95833333333337" y2="347.74958723170056" stroke="#4ecdc4" stroke-width="0.8" stroke-dasharray="2,2" opacity="0.7"/>
<rect x="350.95833333333337" y="338.74958723170056" width="72" height="16" fill="#4ecdc4" opacity="0.85" rx="3"/>
<text x="386.95833333333337" y="350.74958723170056" text-anchor="middle" font-family="sans-serif" font-size="9" fill="#000000" font-weight="bold">B1乖离买入</text>
<polygon points="386.95833333333337,388.74958723170056 382.95833333333337,382.74958723170056 390.95833333333337,382.74958723170056" fill="#4ecdc4" opacity="0.9"/>
<line x1="431.2916666666667" y1="355.76884975233907" x2="431.2916666666667" y2="305.76884975233907" stroke="#4ecdc4" stroke-width="0.8" stroke-dasharray="2,2" opacity="0.7"/>
<rect x="395.2916666666667" y="296.76884975233907" width="72" height="16" fill="#4ecdc4" opacity="0.85" rx="3"/>
<text x="431.2916666666667" y="308.76884975233907" text-anchor="middle" font-family="sans-serif" font-size="9" fill="#000000" font-weight="bold">B2乖离买入</text>
<polygon points="431.2916666666667,361.76884975233907 427.2916666666667,355.76884975233907 435.2916666666667,355.76884975233907" fill="#4ecdc4" opacity="0.9"/>
<line x1="464.5416666666667" y1="338.55457714180886" x2="464.5416666666667" y2="273.55457714180886" stroke="#4ecdc4" stroke-width="0.8" stroke-dasharray="2,2" opacity="0.7"/>
<rect x="428.5416666666667" y="264.55457714180886" width="72" height="16" fill="#4ecdc4" opacity="0.85" rx="3"/>
<text x="464.5416666666667" y="276.55457714180886" text-anchor="middle" font-family="sans-serif" font-size="9" fill="#000000" font-weight="bold">B3乖离买入</text>
<polygon points="464.5416666666667,344.55457714180886 460.5416666666667,338.55457714180886 468.5416666666667,338.55457714180886" fill="#4ecdc4" opacity="0.9"/>
<line x1="553.2083333333334" y1="379.2364703724087" x2="553.2083333333334" y2="299.2364703724087" stroke="#4ecdc4" stroke-width="0.8" stroke-dasharray="2,2" opacity="0.7"/>
<rect x="517.2083333333334" y="290.2364703724087" width="72" height="16" fill="#4ecdc4" opacity="0.85" rx="3"/>
<text x="553.2083333333334" y="302.2364703724087" text-anchor="middle" font-family="sans-serif" font-size="9" fill="#000000" font-weight="bold">B4乖离买入</text>
<polygon points="553.2083333333334,385.2364703724087 549.2083333333334,379.2364703724087 557.2083333333334,379.2364703724087" fill="#4ecdc4" opacity="0.9"/>
<line x1="608.625" y1="318.3190240322877" x2="608.625" y2="223.3190240322877" stroke="#4ecdc4" stroke-width="0.8" stroke-dasharray="2,2" opacity="0.7"/>
<rect x="572.625" y="214.3190240322877" width="72" height="16" fill="#4ecdc4" opacity="0.85" rx="3"/>
<text x="608.625" y="226.3190240322877" text-anchor="middle" font-family="sans-serif" font-size="9" fill="#000000" font-weight="bold">B5乖离买入</text>
<polygon points="608.625,324.3190240322877 604.625,318.3190240322877 612.625,318.3190240322877" fill="#4ecdc4" opacity="0.9"/>
<line x1="686.2083333333334" y1="106.54833975417355" x2="686.2083333333334" y2="125.54833975417355" stroke="#e94560" stroke-width="0.8" stroke-dasharray="2,2" opacity="0.7"/>
<rect x="652.2083333333334" y="132.54833975417355" width="68" height="16" fill="#e94560" opacity="0.85" rx="3"/>
<text x="686.2083333333334" y="144.54833975417355" text-anchor="middle" font-family="sans-serif" font-size="9" fill="#ffffff" font-weight="bold">W1警戒⚠️</text>
<polygon points="686.2083333333334,100.54833975417355 682.2083333333334,106.54833975417355 690.2083333333334,106.54833975417355" fill="#e94560" opacity="0.9"/>
<text x="375.0" y="435" text-anchor="middle" font-family="sans-serif" font-size="10" fill="#aaaaaa">📊 BIAS5=3.83%，持有区，趋势健康</text>
<rect x="60" y="443" width="665" height="55" fill="#111122" opacity="0.5" rx="2"/>
<rect x="60" y="443" width="665" height="16.96666666666664" fill="#e94560" opacity="0.18" rx="2"/>
<rect x="60" y="459.96666666666664" width="665" height="9.400000000000034" fill="#ffd700" opacity="0.12"/>
<rect x="60" y="469.3666666666667" width="665" height="30.633333333333326" fill="#4ecdc4" opacity="0.14"/>
<text x="670" y="454.48333333333335" text-anchor="end" font-family="sans-serif" font-size="9" fill="#e94560" font-weight="bold">⚠️ 警戒区</text>
<text x="670" y="467.66666666666663" text-anchor="end" font-family="sans-serif" font-size="9" fill="#ffd700">持有区</text>
<text x="670" y="487.68333333333334" text-anchor="end" font-family="sans-serif" font-size="9" fill="#4ecdc4">买入区</text>
<line x1="60" y1="472.5" x2="725" y2="472.5" stroke="#888888" stroke-width="0.5" stroke-dasharray="3,2" opacity="0.5"/>
<text x="56" y="475.5" text-anchor="end" font-family="sans-serif" font-size="7" fill="#888888">0%</text>
<line x1="60" y1="469.3666666666667" x2="725" y2="469.3666666666667" stroke="#4ecdc4" stroke-width="0.5" stroke-dasharray="3,2" opacity="0.5"/>
<text x="56" y="472.3666666666667" text-anchor="end" font-family="sans-serif" font-size="7" fill="#4ecdc4">2%</text>
<line x1="60" y1="459.96666666666664" x2="725" y2="459.96666666666664" stroke="#e94560" stroke-width="0.5" stroke-dasharray="3,2" opacity="0.5"/>
<text x="56" y="462.96666666666664" text-anchor="end" font-family="sans-serif" font-size="7" fill="#e94560">8%</text>
<text x="60" y="445" font-family="sans-serif" font-size="8" fill="#888888">BIAS5</text>
<polyline points="65.54166666666667,472.5 76.625,473.0485647590911 87.70833333333334,475.81465782037105 98.79166666666667,482.22059301672556 109.87500000000001,479.2414612403937 120.95833333333334,474.31657353525304 132.04166666666666,475.42646819365166 143.125,476.14766822829455 154.20833333333334,471.7604672858714 165.29166666666666,473.30518171157473 176.375,474.53683691598036 187.45833333333334,475.5088302267029 198.54166666666666,475.39579329257214 209.625,477.0719421973473 220.70833333333334,474.25764438628784 231.79166666666666,478.1381892775234 242.875,478.77779409864047 253.95833333333334,475.56084145247326 265.0416666666667,474.6095028711835 276.12500000000006,471.11092203147024 287.20833333333337,473.224394417529 298.2916666666667,472.7628048738602 309.37500000000006,472.37202707699237 320.45833333333337,473.61729563358386 331.5416666666667,469.1605092970135 342.62500000000006,473.6291429112358 353.70833333333337,472.4290654451598 364.7916666666667,474.5662380906941 375.87500000000006,466.6657361034316 386.95833333333337,471.67692304555476 398.0416666666667,467.90854862927245 409.12500000000006,467.22417645038723 420.20833333333337,469.2654338015836 431.2916666666667,471.53938563560996 442.37500000000006,469.0037165620014 453.45833333333337,468.68246875810166 464.5416666666667,470.69769180627173 475.62500000000006,473.63743183159147 486.70833333333337,472.8176599749384 497.7916666666667,476.3398797966834 508.87500000000006,478.5312485437314 519.9583333333334,474.16148291576513 531.0416666666666,476.7247218961033 542.125,473.5301656062886 553.2083333333334,471.10482919855843 564.2916666666666,469.1692662700016 575.375,463.86890284202207 586.4583333333334,465.1151484556544 597.5416666666666,468.54777342573124 608.625,470.0684377630136 619.7083333333334,470.1412413919559 630.7916666666666,474.25139299412854 641.875,468.7385914642498 652.9583333333334,462.6229440271924 664.0416666666666,460.23502444397786 675.125,462.4531718312887 686.2083333333334,458.92643653252753 697.2916666666666,455.5648392760328 708.375,461.4748417573886 719.4583333333334,466.4958117463796" fill="none" stroke="#4ecdc4" stroke-width="1.5" opacity="0.9"/>
<circle cx="719.4583333333334" cy="466.4958117463796" r="3" fill="#4ecdc4" opacity="1"/>
<text x="724.4583333333334" y="469.4958117463796" font-family="sans-serif" font-size="9" fill="#4ecdc4" font-weight="bold">BIAS5=3.8%</text>
<text x="65.54166666666667" y="489" text-anchor="middle" font-family="sans-serif" font-size="8" fill="#666666" transform="rotate(-45,65.54166666666667,489)">02/26</text>
<text x="120.95833333333334" y="489" text-anchor="middle" font-family="sans-serif" font-size="8" fill="#666666" transform="rotate(-45,120.95833333333334,489)">03/05</text>
<text x="176.375" y="489" text-anchor="middle" font-family="sans-serif" font-size="8" fill="#666666" transform="rotate(-45,176.375,489)">03/12</text>
<text x="231.79166666666666" y="489" text-anchor="middle" font-family="sans-serif" font-size="8" fill="#666666" transform="rotate(-45,231.79166666666666,489)">03/19</text>
<text x="287.20833333333337" y="489" text-anchor="middle" font-family="sans-serif" font-size="8" fill="#666666" transform="rotate(-45,287.20833333333337,489)">03/26</text>
<text x="342.62500000000006" y="489" text-anchor="middle" font-family="sans-serif" font-size="8" fill="#666666" transform="rotate(-45,342.62500000000006,489)">04/02</text>
<text x="398.0416666666667" y="489" text-anchor="middle" font-family="sans-serif" font-size="8" fill="#666666" transform="rotate(-45,398.0416666666667,489)">04/10</text>
<text x="453.45833333333337" y="489" text-anchor="middle" font-family="sans-serif" font-size="8" fill="#666666" transform="rotate(-45,453.45833333333337,489)">04/17</text>
<text x="508.87500000000006" y="489" text-anchor="middle" font-family="sans-serif" font-size="8" fill="#666666" transform="rotate(-45,508.87500000000006,489)">04/24</text>
<text x="564.2916666666666" y="489" text-anchor="middle" font-family="sans-serif" font-size="8" fill="#666666" transform="rotate(-45,564.2916666666666,489)">05/06</text>
<text x="619.7083333333334" y="489" text-anchor="middle" font-family="sans-serif" font-size="8" fill="#666666" transform="rotate(-45,619.7083333333334,489)">05/13</text>
<text x="675.125" y="489" text-anchor="middle" font-family="sans-serif" font-size="8" fill="#666666" transform="rotate(-45,675.125,489)">05/20</text>
<text x="719.4583333333334" y="489" text-anchor="middle" font-family="sans-serif" font-size="8" fill="#666666" transform="rotate(-45,719.4583333333334,489)">05/26</text>
<rect x="60" y="484" width="8" height="8" fill="#4ecdc4" opacity="0.8" rx="1"/>
<text x="71" y="491" font-family="sans-serif" font-size="9" fill="#888888">买入区(BIAS&lt;2%)</text>
<rect x="230" y="484" width="8" height="8" fill="#ffd700" opacity="0.8" rx="1"/>
<text x="241" y="491" font-family="sans-serif" font-size="9" fill="#888888">持有区(2-8%)</text>
<rect x="400" y="484" width="8" height="8" fill="#e94560" opacity="0.8" rx="1"/>
<text x="411" y="491" font-family="sans-serif" font-size="9" fill="#888888">警戒区(&gt;8%)</text>
<rect x="570" y="484" width="8" height="8" fill="#ffd700" opacity="0.8" rx="1"/>
<text x="581" y="491" font-family="sans-serif" font-size="9" fill="#888888">EMA5</text>
<rect x="60" y="497" width="8" height="8" fill="#ff6b6b" opacity="0.8" rx="1"/>
<text x="71" y="504" font-family="sans-serif" font-size="9" fill="#888888">EMA10</text>
<rect x="230" y="497" width="8" height="8" fill="#4ecdc4" opacity="0.8" rx="1"/>
<text x="241" y="504" font-family="sans-serif" font-size="9" fill="#888888">EMA20</text>
<rect x="400" y="497" width="8" height="8" fill="#4ecdc4" opacity="0.8" rx="1"/>
<text x="411" y="504" font-family="sans-serif" font-size="9" fill="#888888">B乖离买入</text>
<rect x="570" y="497" width="8" height="8" fill="#e94560" opacity="0.8" rx="1"/>
<text x="581" y="504" font-family="sans-serif" font-size="9" fill="#888888">W警戒⚠️</text>
</svg>