<svg xmlns="http://www.w3.org/2000/svg" width="750" height="540" viewBox="0 0 750 540">
<rect width="750" height="540" fill="#1a1a2e"/>
<text x="375.0" y="22" text-anchor="middle" font-family="sans-serif" font-size="15" fill="#ffffff" font-weight="bold">伟创电气(688698) 趋势交易分析图</text>
<text x="60" y="31" font-family="sans-serif" font-size="10" fill="#888888">最新: 75.89</text>
<line x1="60" y1="134.86487394391426" x2="725" y2="134.86487394391426" stroke="#4ecdc4" stroke-width="0.5" stroke-dasharray="4,3" opacity="0.4"/>
<text x="62" y="132.86487394391426" font-family="sans-serif" font-size="7" fill="#4ecdc4" opacity="0.6">买入↑2%</text>
<line x1="60" y1="61.106931323099225" x2="725" y2="61.106931323099225" stroke="#e94560" stroke-width="0.5" stroke-dasharray="4,3" opacity="0.4"/>
<text x="62" y="59.106931323099225" font-family="sans-serif" font-size="7" fill="#e94560" opacity="0.6">警戒↑8%</text>
<rect x="60" y="134.86487394391426" width="3" height="248.13512605608574" fill="#4ecdc4" opacity="0.3" rx="1"/>
<rect x="60" y="61.106931323099225" width="3" height="321.8930686769008" fill="#e94560" opacity="0.3" rx="1"/>
<rect x="60" y="61.106931323099225" width="3" height="73.75794262081504" fill="#ffd700" opacity="0.2" rx="1"/>
<line x1="60" y1="32.0" x2="725" y2="32.0" stroke="#2a2a4e" stroke-width="0.5"/>
<text x="56" y="35.0" text-anchor="end" font-family="sans-serif" font-size="8" fill="#666666">87.2</text>
<line x1="60" y1="127.74999999999997" x2="725" y2="127.74999999999997" stroke="#2a2a4e" stroke-width="0.5"/>
<text x="56" y="130.74999999999997" text-anchor="end" font-family="sans-serif" font-size="8" fill="#666666">81.1</text>
<line x1="60" y1="223.49999999999994" x2="725" y2="223.49999999999994" stroke="#2a2a4e" stroke-width="0.5"/>
<text x="56" y="226.49999999999994" text-anchor="end" font-family="sans-serif" font-size="8" fill="#666666">74.9</text>
<line x1="60" y1="319.24999999999994" x2="725" y2="319.24999999999994" stroke="#2a2a4e" stroke-width="0.5"/>
<text x="56" y="322.24999999999994" text-anchor="end" font-family="sans-serif" font-size="8" fill="#666666">68.8</text>
<line x1="60" y1="415.0" x2="725" y2="415.0" stroke="#2a2a4e" stroke-width="0.5"/>
<text x="56" y="418.0" text-anchor="end" font-family="sans-serif" font-size="8" fill="#666666">62.6</text>
<rect x="61.66250000000001" y="468.5335397247817" width="6.095833333333334" height="6.466460275218315" fill="#ff4444" opacity="0.35"/>
<rect x="72.74583333333334" y="457.9813980234564" width="6.095833333333334" height="17.01860197654359" fill="#44aa44" opacity="0.35"/>
<rect x="83.82916666666668" y="460.50212632226487" width="6.095833333333334" height="14.497873677735132" fill="#44aa44" opacity="0.35"/>
<rect x="94.91250000000001" y="462.9627091217888" width="6.095833333333334" height="12.037290878211214" fill="#44aa44" opacity="0.35"/>
<rect x="105.99583333333335" y="461.36873637615844" width="6.095833333333334" height="13.631263623841555" fill="#44aa44" opacity="0.35"/>
<rect x="117.07916666666668" y="463.07317089479386" width="6.095833333333334" height="11.926829105206146" fill="#ff4444" opacity="0.35"/>
<rect x="128.1625" y="462.5437968894179" width="6.095833333333334" height="12.45620311058213" fill="#ff4444" opacity="0.35"/>
<rect x="139.24583333333334" y="462.5980916592" width="6.095833333333334" height="12.401908340799979" fill="#44aa44" opacity="0.35"/>
<rect x="150.32916666666668" y="464.2884844270297" width="6.095833333333334" height="10.711515572970299" fill="#44aa44" opacity="0.35"/>
<rect x="161.4125" y="467.6147411637268" width="6.095833333333334" height="7.385258836273185" fill="#44aa44" opacity="0.35"/>
<rect x="172.49583333333334" y="467.4556013212619" width="6.095833333333334" height="7.544398678738114" fill="#44aa44" opacity="0.35"/>
<rect x="183.57916666666668" y="467.4396873370154" width="6.095833333333334" height="7.560312662984607" fill="#44aa44" opacity="0.35"/>
<rect x="194.6625" y="469.279390721746" width="6.095833333333334" height="5.720609278254009" fill="#44aa44" opacity="0.35"/>
<rect x="205.74583333333334" y="470.0921740642176" width="6.095833333333334" height="4.907825935782394" fill="#ff4444" opacity="0.35"/>
<rect x="216.82916666666668" y="468.4900102972839" width="6.095833333333334" height="6.509989702716076" fill="#44aa44" opacity="0.35"/>
<rect x="227.9125" y="466.2005028284098" width="6.095833333333334" height="8.799497171590195" fill="#44aa44" opacity="0.35"/>
<rect x="238.99583333333334" y="463.31585915455287" width="6.095833333333334" height="11.684140845447128" fill="#44aa44" opacity="0.35"/>
<rect x="250.07916666666668" y="466.76217286063894" width="6.095833333333334" height="8.237827139361034" fill="#44aa44" opacity="0.35"/>
<rect x="261.1625" y="458.47566765181807" width="6.095833333333334" height="16.52433234818193" fill="#ff4444" opacity="0.35"/>
<rect x="272.2458333333334" y="464.2374660657689" width="6.095833333333334" height="10.762533934231113" fill="#44aa44" opacity="0.35"/>
<rect x="283.3291666666667" y="462.53981839335626" width="6.095833333333334" height="12.460181606643753" fill="#ff4444" opacity="0.35"/>
<rect x="294.4125" y="465.19862390842104" width="6.095833333333334" height="9.80137609157896" fill="#ff4444" opacity="0.35"/>
<rect x="305.4958333333334" y="467.0203070462843" width="6.095833333333334" height="7.979692953715715" fill="#44aa44" opacity="0.35"/>
<rect x="316.5791666666667" y="465.6631718309106" width="6.095833333333334" height="9.336828169089426" fill="#44aa44" opacity="0.35"/>
<rect x="327.6625" y="463.1291038688367" width="6.095833333333334" height="11.870896131163326" fill="#44aa44" opacity="0.35"/>
<rect x="338.7458333333334" y="467.52487395857014" width="6.095833333333334" height="7.475126041429852" fill="#44aa44" opacity="0.35"/>
<rect x="349.8291666666667" y="467.5744881447504" width="6.095833333333334" height="7.425511855249609" fill="#ff4444" opacity="0.35"/>
<rect x="360.9125" y="463.39542907578533" width="6.095833333333334" height="11.604570924214666" fill="#ff4444" opacity="0.35"/>
<rect x="371.9958333333334" y="466.09448760982656" width="6.095833333333334" height="8.905512390173449" fill="#44aa44" opacity="0.35"/>
<rect x="383.0791666666667" y="464.5611284218409" width="6.095833333333334" height="10.438871578159059" fill="#ff4444" opacity="0.35"/>
<rect x="394.1625" y="467.3832863046124" width="6.095833333333334" height="7.616713695387619" fill="#ff4444" opacity="0.35"/>
<rect x="405.2458333333334" y="460.2152065474678" width="6.095833333333334" height="14.784793452532195" fill="#ff4444" opacity="0.35"/>
<rect x="416.3291666666667" y="460.05232223812135" width="6.095833333333334" height="14.947677761878653" fill="#44aa44" opacity="0.35"/>
<rect x="427.4125" y="456.6556227182155" width="6.095833333333334" height="18.344377281784507" fill="#44aa44" opacity="0.35"/>
<rect x="438.4958333333334" y="462.80684568784517" width="6.095833333333334" height="12.193154312154807" fill="#44aa44" opacity="0.35"/>
<rect x="449.5791666666667" y="464.2620391296789" width="6.095833333333334" height="10.737960870321087" fill="#44aa44" opacity="0.35"/>
<rect x="460.6625" y="460.47708519999463" width="6.095833333333334" height="14.52291480000535" fill="#ff4444" opacity="0.35"/>
<rect x="471.7458333333334" y="464.52906642416787" width="6.095833333333334" height="10.470933575832142" fill="#ff4444" opacity="0.35"/>
<rect x="482.8291666666667" y="460.1868890166763" width="6.095833333333334" height="14.81311098332375" fill="#44aa44" opacity="0.35"/>
<rect x="493.9125" y="466.36806772135816" width="6.095833333333334" height="8.631932278641829" fill="#ff4444" opacity="0.35"/>
<rect x="504.9958333333334" y="465.34770049614184" width="6.095833333333334" height="9.652299503858139" fill="#ff4444" opacity="0.35"/>
<rect x="516.0791666666667" y="466.3467710659695" width="6.095833333333334" height="8.653228934030517" fill="#44aa44" opacity="0.35"/>
<rect x="527.1624999999999" y="467.9934003771213" width="6.095833333333334" height="7.006599622878693" fill="#ff4444" opacity="0.35"/>
<rect x="538.2458333333333" y="462.4801409524319" width="6.095833333333334" height="12.519859047568103" fill="#ff4444" opacity="0.35"/>
<rect x="549.3291666666667" y="460.04600345025875" width="6.095833333333334" height="14.953996549741232" fill="#ff4444" opacity="0.35"/>
<rect x="560.4124999999999" y="458.4073311312302" width="6.095833333333334" height="16.59266886876981" fill="#ff4444" opacity="0.35"/>
<rect x="571.4958333333333" y="453.5554381694906" width="6.095833333333334" height="21.44456183050938" fill="#ff4444" opacity="0.35"/>
<rect x="582.5791666666667" y="459.61281543790204" width="6.095833333333334" height="15.387184562097971" fill="#44aa44" opacity="0.35"/>
<rect x="593.6624999999999" y="463.1529748452064" width="6.095833333333334" height="11.847025154793586" fill="#44aa44" opacity="0.35"/>
<rect x="604.7458333333333" y="463.06474584431044" width="6.095833333333334" height="11.935254155689584" fill="#44aa44" opacity="0.35"/>
<rect x="615.8291666666667" y="464.35845915187826" width="6.095833333333334" height="10.641540848121748" fill="#44aa44" opacity="0.35"/>
<rect x="626.9124999999999" y="440.0" width="6.095833333333334" height="35.0" fill="#ff4444" opacity="0.35"/>
<rect x="637.9958333333333" y="449.7194658785455" width="6.095833333333334" height="25.28053412145446" fill="#ff4444" opacity="0.35"/>
<rect x="649.0791666666667" y="452.1177969161641" width="6.095833333333334" height="22.88220308383594" fill="#ff4444" opacity="0.35"/>
<rect x="660.1624999999999" y="447.504847747302" width="6.095833333333334" height="27.495152252698023" fill="#ff4444" opacity="0.35"/>
<rect x="671.2458333333333" y="441.56261283549753" width="6.095833333333334" height="33.437387164502454" fill="#ff4444" opacity="0.35"/>
<rect x="682.3291666666667" y="450.07355202803" width="6.095833333333334" height="24.92644797196999" fill="#ff4444" opacity="0.35"/>
<rect x="693.4124999999999" y="445.0845179667545" width="6.095833333333334" height="29.915482033245514" fill="#44aa44" opacity="0.35"/>
<rect x="704.4958333333333" y="454.8093665164422" width="6.095833333333334" height="20.19063348355778" fill="#44aa44" opacity="0.35"/>
<rect x="715.5791666666667" y="454.9593792208834" width="6.095833333333334" height="20.040620779116573" fill="#44aa44" opacity="0.25" stroke-dasharray="3,2"/>
<polyline points="65.54166666666667,65.12180267965888 76.625,83.31546894031663 87.70833333333334,119.96197049668424 98.79166666666667,154.96706816438854 109.87500000000001,178.5111351708997 120.95833333333334,188.97196533385463 132.04166666666666,201.69940468731454 143.125,200.75061138039135 154.20833333333334,210.3811762971724 165.29166666666666,225.3022972580689 176.375,243.2321175116048 187.45833333333334,257.155015680358 198.54166666666666,271.9313313359647 209.625,278.15384194897314 220.70833333333334,296.45281167149017 231.79166666666666,314.8721816610854 242.875,338.969869652525 253.95833333333334,355.0868287871618 265.0416666666667,345.77178489722013 276.12500000000006,344.17496446118645 287.20833333333337,333.2619941718506 298.2916666666667,332.62140794296056 309.37500000000006,339.08824678942 320.45833333333337,336.1427397056007 331.5416666666667,351.90623031395154 342.62500000000006,369.51645561327996 353.70833333333337,378.6649154623111 364.7916666666667,355.996125804215 375.87500000000006,352.44253832880804 386.95833333333337,341.83190469721325 398.0416666666667,337.8163435564315 409.12500000000006,320.72950444701337 420.20833333333337,312.4483067946931 431.2916666666667,305.21699272846917 442.37500000000006,308.0675201218621 453.45833333333337,312.19672541890554 464.5416666666667,313.13534570490316 475.62500000000006,311.79140789583874 486.70833333333337,325.46074912639085 497.7916666666667,338.2020097708217 508.87500000000006,341.9274732888167 519.9583333333334,358.0434068778875 531.0416666666666,360.9086239383507 542.125,349.8084830857106 553.2083333333334,329.6572726593869 564.2916666666666,304.40502437679515 575.375,281.03913250508765 586.4583333333334,270.6970857653351 597.5416666666666,267.68992346461494 608.625,269.6763517372708 619.7083333333334,285.6696046363238 630.7916666666666,261.70679015273123 641.875,238.5785151295647 652.9583333333334,217.1469435009116 664.0416666666666,184.76923043517255 675.125,149.44812953358502 686.2083333333334,119.88800731931784 697.2916666666666,133.56223089118424 708.375,134.8514750805216 719.4583333333334,159.45085481751914" fill="none" stroke="#ffd700" stroke-width="1" opacity="0.7"/>
<polyline points="65.54166666666667,65.12180267965888 76.625,75.04562064001767 87.70833333333334,96.538230270818 98.79166666666667,119.8907817669959 109.87500000000001,139.11050675189162 120.95833333333334,151.98016473514122 132.04166666666666,165.64818630952192 143.125,171.68542966534423 154.20833333333334,182.2230435681426 165.29166666666666,195.48149731572792 176.375,210.68336289808224 187.45833333333334,224.1956263744062 198.54166666666666,238.24805115127378 209.625,247.76638061013114 220.70833333333334,263.2726297931117 231.79166666666666,279.35231921986883 242.875,298.9546694772389 253.95833333333334,315.02122903709284 265.0416666666667,317.224950506228 276.12500000000006,321.5442910667536 287.20833333333337,319.70642970792187 298.2916666666667,321.821667121969 309.37500000000006,327.3126230056726 320.45833333333337,327.8470052842707 331.5416666666667,337.95358823815855 342.62500000000006,350.0960096879364 353.70833333333337,358.61706886474315 364.7916666666667,349.8973375235212 375.87500000000006,349.06788767888 386.95833333333337,343.8938421798152 398.0416666666667,341.3286383789156 409.12500000000006,331.3699452605994 420.20833333333337,324.9183027568636 431.2916666666667,318.7066776367105 442.37500000000006,317.8088407770627 453.45833333333337,318.28998536541354 464.5416666666667,317.69409462204715 475.62500000000006,316.13217419580394 486.70833333333337,322.7989482670204 497.7916666666667,330.2326905929592 508.87500000000006,333.71372872602245 519.9583333333334,343.99764605875106 531.0416666666666,348.114266422483 542.125,344.38589096029153 553.2083333333334,334.38024747782754 564.2916666666666,319.74757117487917 575.375,304.2129852815688 586.4583333333334,294.35844110052545 597.5416666666666,288.41610614828 608.625,285.7312156272441 619.7083333333334,291.53574195582337 630.7916666666666,277.39854545213655 641.875,261.93007629415376 652.9583333333334,245.99438973950865 664.0416666666666,223.0888287511788 675.125,196.85557402012995 686.2083333333334,172.11233563297614 697.2916666666666,170.07567061514712 708.375,164.14008749588325 719.4583333333334,172.2327287314525" fill="none" stroke="#ff6b6b" stroke-width="1" opacity="0.7"/>
<polyline points="65.54166666666667,65.12180267965888 76.625,70.31999303984678 87.70833333333334,82.02808642742508 98.79166666666667,95.64229376765087 109.87500000000001,108.0191485692006 120.95833333333334,117.72147972068294 132.04166666666666,128.14365149911652 143.125,134.8778775245858 154.20833333333334,143.9030612013618 165.29166666666666,154.4974876755046 176.375,166.36360866056867 187.45833333333334,177.66238993269198 198.54166666666666,189.454920667405 209.625,199.0876770966988 220.70833333333334,211.846065098587 231.79166666666666,225.16652762636681 242.875,240.59497696056079 253.95833333333334,254.5688598268345 265.0416666666667,261.4805586164062 276.12500000000006,269.05206004237874 287.20833333333337,273.0886308567406 298.2916666666667,278.6364027261159 309.37500000000006,285.6255000362323 320.45833333333337,289.87561675068264 331.5416666666667,298.78586387258474 342.62500000000006,308.8764393334753 353.70833333333337,317.2655246503227 364.7916666666667,316.6362886348656 375.87500000000006,319.36953384849687 386.95833333333337,319.48773418997564 398.0416666666667,320.4684472456798 409.12500000000006,317.2386738154413 420.20833333333337,315.20507740349944 431.2916666666667,312.87643808850146 442.37500000000006,312.96140349994397 453.45833333333337,313.6750923107104 464.5416666666667,313.80247268844255 475.62500000000006,313.35495455408704 486.70833333333337,317.1115714144115 497.7916666666667,321.54709138062776 508.87500000000006,324.1976922324544 519.9583333333334,330.4907952632712 531.0416666666666,333.93348695812887 542.125,333.33107880787196 553.2083333333334,329.1428667125261 564.2916666666666,321.9769296743438 575.375,313.627445777899 586.4583333333334,307.5689263977019 597.5416666666666,303.1981332991755 608.625,300.3839499642619 619.7083333333334,302.02891762808736 630.7916666666666,293.62436939546444 641.875,283.97652136572805 652.9583333333334,273.52959554457345 664.0416666666666,258.909043997823 675.125,241.7563662580695 686.2083333333334,224.5193564135661 697.2916666666666,218.46138704417095 708.375,210.74410860750658 719.4583333333334,210.54463295836453" fill="none" stroke="#4ecdc4" stroke-width="1" opacity="0.7"/>
<line x1="65.54166666666667" y1="45.21762078765724" x2="65.54166666666667" y2="79.42793341453508" stroke="#ff4444" stroke-width="0.5" opacity="0.6"/>
<rect x="63.04791666666667" y="65.12180267965888" width="4.987500000000001" height="9.485586682907012" fill="#ff4444" opacity="0.8" rx="1"/>
<line x1="76.625" y1="82.53796183516036" x2="76.625" y2="138.82947624847753" stroke="#44aa44" stroke-width="0.5" opacity="0.6"/>
<rect x="74.13125" y="90.3130328867235" width="4.987500000000001" height="29.389768574908658" fill="#44aa44" opacity="0.8" rx="1"/>
<line x1="87.70833333333334" y1="111.46122614697522" x2="87.70833333333334" y2="194.49898497766955" stroke="#44aa44" stroke-width="0.5" opacity="0.6"/>
<rect x="85.21458333333334" y="111.46122614697522" width="4.987500000000001" height="81.79374746244424" fill="#44aa44" opacity="0.8" rx="1"/>
<line x1="98.79166666666667" y1="187.03491676816887" x2="98.79166666666667" y2="228.553796183516" stroke="#44aa44" stroke-width="0.5" opacity="0.6"/>
<rect x="96.29791666666667" y="210.0491270807958" width="4.987500000000001" height="14.928136419001106" fill="#44aa44" opacity="0.8" rx="1"/>
<line x1="109.87500000000001" y1="199.16402760860737" x2="109.87500000000001" y2="242.7044254973609" stroke="#44aa44" stroke-width="0.5" opacity="0.6"/>
<rect x="107.38125000000001" y="206.93909866017052" width="4.987500000000001" height="18.660170523751532" fill="#44aa44" opacity="0.8" rx="1"/>
<line x1="120.95833333333334" y1="190.61144945188798" x2="120.95833333333334" y2="236.79537149817295" stroke="#ff4444" stroke-width="0.5" opacity="0.6"/>
<rect x="118.46458333333334" y="209.89362565976447" width="4.987500000000001" height="25.035728786033275" fill="#ff4444" opacity="0.8" rx="1"/>
<line x1="132.04166666666666" y1="209.89362565976447" x2="132.04166666666666" y2="269.1396670726756" stroke="#ff4444" stroke-width="0.5" opacity="0.6"/>
<rect x="129.54791666666665" y="227.1542833942346" width="4.987500000000001" height="18.66017052375156" fill="#ff4444" opacity="0.8" rx="1"/>
<line x1="143.125" y1="193.25497360941947" x2="143.125" y2="220.62322371092154" stroke="#44aa44" stroke-width="0.5" opacity="0.6"/>
<rect x="140.63125" y="195.12099066179445" width="4.987500000000001" height="3.732034104750454" fill="#44aa44" opacity="0.8" rx="1"/>
<line x1="154.20833333333334" y1="191.38895655704422" x2="154.20833333333334" y2="232.13032886723514" stroke="#44aa44" stroke-width="0.5" opacity="0.6"/>
<rect x="151.71458333333334" y="192.78846934632566" width="4.987500000000001" height="36.85383678440911" fill="#44aa44" opacity="0.8" rx="1"/>
<line x1="165.29166666666666" y1="217.82419813235893" x2="165.29166666666666" y2="261.05359317905" stroke="#44aa44" stroke-width="0.5" opacity="0.6"/>
<rect x="162.79791666666665" y="224.0442549736093" width="4.987500000000001" height="31.100284206252553" fill="#44aa44" opacity="0.8" rx="1"/>
<line x1="176.375" y1="245.34794965489237" x2="176.375" y2="279.2472594397077" stroke="#44aa44" stroke-width="0.5" opacity="0.6"/>
<rect x="173.88125" y="263.07511165245637" width="4.987500000000001" height="16.016646366220016" fill="#44aa44" opacity="0.8" rx="1"/>
<line x1="187.45833333333334" y1="271.1611855460819" x2="187.45833333333334" y2="315.4790905399919" stroke="#44aa44" stroke-width="0.5" opacity="0.6"/>
<rect x="184.96458333333334" y="276.91473812423874" width="4.987500000000001" height="8.086073893625553" fill="#44aa44" opacity="0.8" rx="1"/>
<line x1="198.54166666666666" y1="272.71619975639464" x2="198.54166666666666" y2="303.19447827852207" stroke="#44aa44" stroke-width="0.5" opacity="0.6"/>
<rect x="196.04791666666665" y="279.2472594397077" width="4.987500000000001" height="22.23670320747044" fill="#44aa44" opacity="0.8" rx="1"/>
<line x1="209.625" y1="288.1108404384896" x2="209.625" y2="308.0150223304912" stroke="#ff4444" stroke-width="0.5" opacity="0.6"/>
<rect x="207.13125" y="290.59886317498973" width="4.987500000000001" height="9.64108810393833" fill="#ff4444" opacity="0.8" rx="1"/>
<line x1="220.70833333333334" y1="301.950466910272" x2="220.70833333333334" y2="336.00527811611846" stroke="#44aa44" stroke-width="0.5" opacity="0.6"/>
<rect x="218.21458333333334" y="311.74705643524146" width="4.987500000000001" height="21.303694681283105" fill="#44aa44" opacity="0.8" rx="1"/>
<line x1="231.79166666666666" y1="313.4575720665853" x2="231.79166666666666" y2="351.7109216402761" stroke="#44aa44" stroke-width="0.5" opacity="0.6"/>
<rect x="229.29791666666665" y="326.05318717011767" width="4.987500000000001" height="25.65773447015846" fill="#44aa44" opacity="0.8" rx="1"/>
<line x1="242.875" y1="323.7206658546488" x2="242.875" y2="398.20584652862357" stroke="#44aa44" stroke-width="0.5" opacity="0.6"/>
<rect x="240.38125" y="365.5505481120585" width="4.987500000000001" height="21.614697523345512" fill="#44aa44" opacity="0.8" rx="1"/>
<line x1="253.95833333333334" y1="362.75152253349563" x2="253.95833333333334" y2="415.0" stroke="#44aa44" stroke-width="0.5" opacity="0.6"/>
<rect x="251.46458333333334" y="367.8830694275273" width="4.987500000000001" height="19.437677628907863" fill="#44aa44" opacity="0.8" rx="1"/>
<line x1="265.0416666666667" y1="321.0771416971174" x2="265.0416666666667" y2="383.4332115306535" stroke="#ff4444" stroke-width="0.5" opacity="0.6"/>
<rect x="262.5479166666667" y="327.1416971173366" width="4.987500000000001" height="56.29151441331692" fill="#ff4444" opacity="0.8" rx="1"/>
<line x1="276.12500000000006" y1="303.3499796995534" x2="276.12500000000006" y2="346.73487616727556" stroke="#44aa44" stroke-width="0.5" opacity="0.6"/>
<rect x="273.6312500000001" y="329.7852212748681" width="4.987500000000001" height="11.196102314250936" fill="#44aa44" opacity="0.8" rx="1"/>
<line x1="287.20833333333337" y1="293.2423873325213" x2="287.20833333333337" y2="369.2825822168087" stroke="#ff4444" stroke-width="0.5" opacity="0.6"/>
<rect x="284.7145833333334" y="311.436053593179" width="4.987500000000001" height="43.69589930978486" fill="#ff4444" opacity="0.8" rx="1"/>
<line x1="298.2916666666667" y1="318.9001218026797" x2="298.2916666666667" y2="345.3353633779944" stroke="#ff4444" stroke-width="0.5" opacity="0.6"/>
<rect x="295.7979166666667" y="331.34023548518064" width="4.987500000000001" height="0.5" fill="#ff4444" opacity="0.8" rx="1"/>
<line x1="309.37500000000006" y1="306.61550954120986" x2="309.37500000000006" y2="352.02192448233853" stroke="#44aa44" stroke-width="0.5" opacity="0.6"/>
<rect x="306.8812500000001" y="331.0292326431182" width="4.987500000000001" height="20.992691839220356" fill="#44aa44" opacity="0.8" rx="1"/>
<line x1="320.45833333333337" y1="314.2350791717418" x2="320.45833333333337" y2="336.3162809581809" stroke="#44aa44" stroke-width="0.5" opacity="0.6"/>
<rect x="317.9645833333334" y="327.29719853836775" width="4.987500000000001" height="2.9545269995941794" fill="#44aa44" opacity="0.8" rx="1"/>
<line x1="331.5416666666667" y1="334.4502639058059" x2="331.5416666666667" y2="390.2752740560293" stroke="#44aa44" stroke-width="0.5" opacity="0.6"/>
<rect x="329.0479166666667" y="335.694275274056" width="4.987500000000001" height="47.738936256597526" fill="#44aa44" opacity="0.8" rx="1"/>
<line x1="342.62500000000006" y1="373.9476248477465" x2="342.62500000000006" y2="409.090946000812" stroke="#44aa44" stroke-width="0.5" opacity="0.6"/>
<rect x="340.1312500000001" y="377.99066179455946" width="4.987500000000001" height="26.74624441737717" fill="#44aa44" opacity="0.8" rx="1"/>
<line x1="353.70833333333337" y1="366.7945594803085" x2="353.70833333333337" y2="413.7559886317498" stroke="#ff4444" stroke-width="0.5" opacity="0.6"/>
<rect x="351.2145833333334" y="396.9618351603735" width="4.987500000000001" height="16.79415347137632" fill="#ff4444" opacity="0.8" rx="1"/>
<line x1="364.7916666666667" y1="309.41453511977267" x2="364.7916666666667" y2="361.35200974421446" stroke="#ff4444" stroke-width="0.5" opacity="0.6"/>
<rect x="362.2979166666667" y="310.65854648802275" width="4.987500000000001" height="48.67194478278515" fill="#ff4444" opacity="0.8" rx="1"/>
<line x1="375.87500000000006" y1="323.7206658546488" x2="375.87500000000006" y2="347.2013804303694" stroke="#44aa44" stroke-width="0.5" opacity="0.6"/>
<rect x="373.3812500000001" y="323.7206658546488" width="4.987500000000001" height="21.61469752334557" fill="#44aa44" opacity="0.8" rx="1"/>
<line x1="386.95833333333337" y1="286.2448233861144" x2="386.95833333333337" y2="334.4502639058059" stroke="#ff4444" stroke-width="0.5" opacity="0.6"/>
<rect x="384.4645833333334" y="320.61063743402354" width="4.987500000000001" height="2.332521315468796" fill="#ff4444" opacity="0.8" rx="1"/>
<line x1="398.0416666666667" y1="308.1705237515226" x2="398.0416666666667" y2="334.2947624847746" stroke="#ff4444" stroke-width="0.5" opacity="0.6"/>
<rect x="395.5479166666667" y="329.7852212748681" width="4.987500000000001" height="1.5550142103125495" fill="#ff4444" opacity="0.8" rx="1"/>
<line x1="409.12500000000006" y1="260.2760860738937" x2="409.12500000000006" y2="329.4742184328054" stroke="#ff4444" stroke-width="0.5" opacity="0.6"/>
<rect x="406.6312500000001" y="286.555826228177" width="4.987500000000001" height="31.25578562728373" fill="#ff4444" opacity="0.8" rx="1"/>
<line x1="420.20833333333337" y1="250.79049939098647" x2="420.20833333333337" y2="298.3739342265529" stroke="#44aa44" stroke-width="0.5" opacity="0.6"/>
<rect x="417.7145833333334" y="272.71619975639464" width="4.987500000000001" height="23.16971173365812" fill="#44aa44" opacity="0.8" rx="1"/>
<line x1="431.2916666666667" y1="253.5895249695493" x2="431.2916666666667" y2="305.83800243605356" stroke="#44aa44" stroke-width="0.5" opacity="0.6"/>
<rect x="428.7979166666667" y="254.52253349573692" width="4.987500000000001" height="36.23183110028418" fill="#44aa44" opacity="0.8" rx="1"/>
<line x1="442.37500000000006" y1="300.39545269995943" x2="442.37500000000006" y2="325.43118148599274" stroke="#44aa44" stroke-width="0.5" opacity="0.6"/>
<rect x="439.8812500000001" y="308.0150223304912" width="4.987500000000001" height="5.753552578156814" fill="#44aa44" opacity="0.8" rx="1"/>
<line x1="453.45833333333337" y1="294.0198944376775" x2="453.45833333333337" y2="332.73974827446204" stroke="#44aa44" stroke-width="0.5" opacity="0.6"/>
<rect x="450.9645833333334" y="311.90255785627284" width="4.987500000000001" height="8.552578156719392" fill="#44aa44" opacity="0.8" rx="1"/>
<line x1="464.5416666666667" y1="286.555826228177" x2="464.5416666666667" y2="342.3808363784002" stroke="#ff4444" stroke-width="0.5" opacity="0.6"/>
<rect x="462.0479166666667" y="315.0125862768981" width="4.987500000000001" height="9.01908241981323" fill="#ff4444" opacity="0.8" rx="1"/>
<line x1="475.62500000000006" y1="305.06049533089725" x2="475.62500000000006" y2="339.1153065367438" stroke="#ff4444" stroke-width="0.5" opacity="0.6"/>
<rect x="473.1312500000001" y="309.10353227771" width="4.987500000000001" height="19.1266747868454" fill="#ff4444" opacity="0.8" rx="1"/>
<line x1="486.70833333333337" y1="311.2805521721477" x2="486.70833333333337" y2="367.10556232237104" stroke="#44aa44" stroke-width="0.5" opacity="0.6"/>
<rect x="484.2145833333334" y="313.4575720665853" width="4.987500000000001" height="39.34185952090951" fill="#44aa44" opacity="0.8" rx="1"/>
<line x1="497.7916666666667" y1="347.04587900933825" x2="497.7916666666667" y2="375.6581404790904" stroke="#ff4444" stroke-width="0.5" opacity="0.6"/>
<rect x="495.2979166666667" y="363.68453105968325" width="4.987500000000001" height="6.53105968331306" fill="#ff4444" opacity="0.8" rx="1"/>
<line x1="508.87500000000006" y1="337.56029232643124" x2="508.87500000000006" y2="385.61023142509123" stroke="#ff4444" stroke-width="0.5" opacity="0.6"/>
<rect x="506.3812500000001" y="349.37840032480705" width="4.987500000000001" height="13.373122208688585" fill="#ff4444" opacity="0.8" rx="1"/>
<line x1="519.9583333333334" y1="358.0864799025578" x2="519.9583333333334" y2="395.7178237921234" stroke="#44aa44" stroke-width="0.5" opacity="0.6"/>
<rect x="517.4645833333334" y="358.0864799025578" width="4.987500000000001" height="32.18879415347146" fill="#44aa44" opacity="0.8" rx="1"/>
<line x1="531.0416666666666" y1="354.6654486398701" x2="531.0416666666666" y2="398.67235079171735" stroke="#ff4444" stroke-width="0.5" opacity="0.6"/>
<rect x="528.5479166666667" y="366.6390580592772" width="4.987500000000001" height="30.011774259033814" fill="#ff4444" opacity="0.8" rx="1"/>
<line x1="542.125" y1="315.79009338205435" x2="542.125" y2="373.32561916362164" stroke="#ff4444" stroke-width="0.5" opacity="0.6"/>
<rect x="539.63125" y="327.60820138043044" width="4.987500000000001" height="36.698335363377964" fill="#ff4444" opacity="0.8" rx="1"/>
<line x1="553.2083333333334" y1="271.00568412505083" x2="553.2083333333334" y2="337.56029232643124" stroke="#ff4444" stroke-width="0.5" opacity="0.6"/>
<rect x="550.7145833333334" y="289.35485180673965" width="4.987500000000001" height="41.985383678440996" fill="#ff4444" opacity="0.8" rx="1"/>
<line x1="564.2916666666666" y1="242.23792123426705" x2="564.2916666666666" y2="301.6394640682095" stroke="#ff4444" stroke-width="0.5" opacity="0.6"/>
<rect x="561.7979166666667" y="253.9005278116118" width="4.987500000000001" height="34.21031262687782" fill="#ff4444" opacity="0.8" rx="1"/>
<line x1="575.375" y1="209.42712139667066" x2="575.375" y2="265.8741372310192" stroke="#ff4444" stroke-width="0.5" opacity="0.6"/>
<rect x="572.88125" y="234.3073487616728" width="4.987500000000001" height="25.968737312220867" fill="#ff4444" opacity="0.8" rx="1"/>
<line x1="586.4583333333334" y1="234.3073487616728" x2="586.4583333333334" y2="265.8741372310192" stroke="#44aa44" stroke-width="0.5" opacity="0.6"/>
<rect x="583.9645833333334" y="238.81688997157931" width="4.987500000000001" height="11.19610231425088" fill="#44aa44" opacity="0.8" rx="1"/>
<line x1="597.5416666666666" y1="232.59683313032892" x2="597.5416666666666" y2="268.9841656516443" stroke="#44aa44" stroke-width="0.5" opacity="0.6"/>
<rect x="595.0479166666667" y="243.32643118148602" width="4.987500000000001" height="18.34916768168884" fill="#44aa44" opacity="0.8" rx="1"/>
<line x1="608.625" y1="260.8980917580186" x2="608.625" y2="289.97685749086486" stroke="#44aa44" stroke-width="0.5" opacity="0.6"/>
<rect x="606.13125" y="272.8717011774258" width="4.987500000000001" height="0.7775071051564737" fill="#44aa44" opacity="0.8" rx="1"/>
<line x1="619.7083333333334" y1="255.14453917986185" x2="619.7083333333334" y2="317.6561104344296" stroke="#44aa44" stroke-width="0.5" opacity="0.6"/>
<rect x="617.2145833333334" y="267.7401542833942" width="4.987500000000001" height="49.9159561510354" fill="#44aa44" opacity="0.8" rx="1"/>
<line x1="630.7916666666666" y1="161.84368656110425" x2="630.7916666666666" y2="323.25416159155503" stroke="#ff4444" stroke-width="0.5" opacity="0.6"/>
<rect x="628.2979166666667" y="213.781161185546" width="4.987500000000001" height="102.00893219650834" fill="#ff4444" opacity="0.8" rx="1"/>
<line x1="641.875" y1="169.46325619163625" x2="641.875" y2="230.26431181485992" stroke="#ff4444" stroke-width="0.5" opacity="0.6"/>
<rect x="639.38125" y="192.32196508323185" width="4.987500000000001" height="21.303694681283048" fill="#ff4444" opacity="0.8" rx="1"/>
<line x1="652.9583333333334" y1="139.14047909054" x2="652.9583333333334" y2="198.8530247665449" stroke="#ff4444" stroke-width="0.5" opacity="0.6"/>
<rect x="650.4645833333334" y="174.28380024360544" width="4.987500000000001" height="23.480714575720498" fill="#ff4444" opacity="0.8" rx="1"/>
<line x1="664.0416666666666" y1="107.10718635809984" x2="664.0416666666666" y2="208.80511571254573" stroke="#ff4444" stroke-width="0.5" opacity="0.6"/>
<rect x="661.5479166666667" y="120.01380430369463" width="4.987500000000001" height="77.59520909460022" fill="#ff4444" opacity="0.8" rx="1"/>
<line x1="675.125" y1="32.0" x2="675.125" y2="157.48964677222887" stroke="#ff4444" stroke-width="0.5" opacity="0.6"/>
<rect x="672.63125" y="78.80592773041013" width="4.987500000000001" height="50.382460414129014" fill="#ff4444" opacity="0.8" rx="1"/>
<line x1="686.2083333333334" y1="56.41372310190813" x2="686.2083333333334" y2="118.30328867235073" stroke="#ff4444" stroke-width="0.5" opacity="0.6"/>
<rect x="683.7145833333334" y="60.7677628907835" width="4.987500000000001" height="28.923264311814847" fill="#ff4444" opacity="0.8" rx="1"/>
<line x1="697.2916666666666" y1="94.04506699147373" x2="697.2916666666666" y2="167.9082419813235" stroke="#44aa44" stroke-width="0.5" opacity="0.6"/>
<rect x="694.7979166666667" y="95.60008120178648" width="4.987500000000001" height="65.31059683313035" fill="#44aa44" opacity="0.8" rx="1"/>
<line x1="708.375" y1="101.97563946406821" x2="708.375" y2="155.62362971985385" stroke="#44aa44" stroke-width="0.5" opacity="0.6"/>
<rect x="705.88125" y="137.27446203816476" width="4.987500000000001" height="0.5" fill="#44aa44" opacity="0.8" rx="1"/>
<line x1="719.4583333333334" y1="141.0064961429152" x2="719.4583333333334" y2="218.13520097442142" stroke="#44aa44" stroke-width="0.5" opacity="0.3" stroke-dasharray="4,3"/>
<rect x="716.9645833333334" y="160.2886723507917" width="4.987500000000001" height="48.36094194072268" fill="#44aa44" opacity="0.4" stroke-dasharray="4,3" rx="1"/>
<text x="739.4583333333334" y="202.64961429151438" font-family="sans-serif" font-size="9" fill="#ffd700" opacity="0.8">🕐 盘中</text>
<line x1="398.0416666666667" y1="334.2947624847746" x2="398.0416666666667" y2="299.2947624847746" stroke="#4ecdc4" stroke-width="0.8" stroke-dasharray="2,2" opacity="0.7"/>
<rect x="362.0416666666667" y="290.2947624847746" width="72" height="16" fill="#4ecdc4" opacity="0.85" rx="3"/>
<text x="398.0416666666667" y="302.2947624847746" text-anchor="middle" font-family="sans-serif" font-size="9" fill="#000000" font-weight="bold">B1乖离买入</text>
<polygon points="398.0416666666667,340.2947624847746 394.0416666666667,334.2947624847746 402.0416666666667,334.2947624847746" fill="#4ecdc4" opacity="0.9"/>
<line x1="420.20833333333337" y1="298.3739342265529" x2="420.20833333333337" y2="248.37393422655288" stroke="#4ecdc4" stroke-width="0.8" stroke-dasharray="2,2" opacity="0.7"/>
<rect x="384.20833333333337" y="239.37393422655288" width="72" height="16" fill="#4ecdc4" opacity="0.85" rx="3"/>
<text x="420.20833333333337" y="251.37393422655288" text-anchor="middle" font-family="sans-serif" font-size="9" fill="#000000" font-weight="bold">B2乖离买入</text>
<polygon points="420.20833333333337,304.3739342265529 416.20833333333337,298.3739342265529 424.20833333333337,298.3739342265529" fill="#4ecdc4" opacity="0.9"/>
<line x1="475.62500000000006" y1="339.1153065367438" x2="475.62500000000006" y2="274.1153065367438" stroke="#4ecdc4" stroke-width="0.8" stroke-dasharray="2,2" opacity="0.7"/>
<rect x="439.62500000000006" y="265.1153065367438" width="72" height="16" fill="#4ecdc4" opacity="0.85" rx="3"/>
<text x="475.62500000000006" y="277.1153065367438" text-anchor="middle" font-family="sans-serif" font-size="9" fill="#000000" font-weight="bold">B3乖离买入</text>
<polygon points="475.62500000000006,345.1153065367438 471.62500000000006,339.1153065367438 479.62500000000006,339.1153065367438" fill="#4ecdc4" opacity="0.9"/>
<line x1="586.4583333333334" y1="265.8741372310192" x2="586.4583333333334" y2="185.87413723101918" stroke="#4ecdc4" stroke-width="0.8" stroke-dasharray="2,2" opacity="0.7"/>
<rect x="550.4583333333334" y="176.87413723101918" width="72" height="16" fill="#4ecdc4" opacity="0.85" rx="3"/>
<text x="586.4583333333334" y="188.87413723101918" text-anchor="middle" font-family="sans-serif" font-size="9" fill="#000000" font-weight="bold">B4乖离买入</text>
<polygon points="586.4583333333334,271.8741372310192 582.4583333333334,265.8741372310192 590.4583333333334,265.8741372310192" fill="#4ecdc4" opacity="0.9"/>
<line x1="697.2916666666666" y1="167.9082419813235" x2="697.2916666666666" y2="72.9082419813235" stroke="#4ecdc4" stroke-width="0.8" stroke-dasharray="2,2" opacity="0.7"/>
<rect x="661.2916666666666" y="63.9082419813235" width="72" height="16" fill="#4ecdc4" opacity="0.85" rx="3"/>
<text x="697.2916666666666" y="75.9082419813235" text-anchor="middle" font-family="sans-serif" font-size="9" fill="#000000" font-weight="bold">B5乖离买入</text>
<polygon points="697.2916666666666,173.9082419813235 693.2916666666666,167.9082419813235 701.2916666666666,167.9082419813235" fill="#4ecdc4" opacity="0.9"/>
<text x="375.0" y="435" text-anchor="middle" font-family="sans-serif" font-size="10" fill="#aaaaaa">✅ BIAS5=-4.00%，乖离率买入区，可逢低吸纳</text>
<rect x="60" y="443" width="665" height="55" fill="#111122" opacity="0.5" rx="2"/>
<rect x="60" y="443" width="665" height="16.96666666666664" fill="#e94560" opacity="0.18" rx="2"/>
<rect x="60" y="459.96666666666664" width="665" height="9.400000000000034" fill="#ffd700" opacity="0.12"/>
<rect x="60" y="469.3666666666667" width="665" height="30.633333333333326" fill="#4ecdc4" opacity="0.14"/>
<text x="670" y="454.48333333333335" text-anchor="end" font-family="sans-serif" font-size="9" fill="#e94560" font-weight="bold">⚠️ 警戒区</text>
<text x="670" y="467.66666666666663" text-anchor="end" font-family="sans-serif" font-size="9" fill="#ffd700">持有区</text>
<text x="670" y="487.68333333333334" text-anchor="end" font-family="sans-serif" font-size="9" fill="#4ecdc4">买入区</text>
<line x1="60" y1="472.5" x2="725" y2="472.5" stroke="#888888" stroke-width="0.5" stroke-dasharray="3,2" opacity="0.5"/>
<text x="56" y="475.5" text-anchor="end" font-family="sans-serif" font-size="7" fill="#888888">0%</text>
<line x1="60" y1="469.3666666666667" x2="725" y2="469.3666666666667" stroke="#4ecdc4" stroke-width="0.5" stroke-dasharray="3,2" opacity="0.5"/>
<text x="56" y="472.3666666666667" text-anchor="end" font-family="sans-serif" font-size="7" fill="#4ecdc4">2%</text>
<line x1="60" y1="459.96666666666664" x2="725" y2="459.96666666666664" stroke="#e94560" stroke-width="0.5" stroke-dasharray="3,2" opacity="0.5"/>
<text x="56" y="462.96666666666664" text-anchor="end" font-family="sans-serif" font-size="7" fill="#e94560">8%</text>
<text x="60" y="445" font-family="sans-serif" font-size="8" fill="#888888">BIAS5</text>
<polyline points="65.54166666666667,472.5 76.625,476.8668850506254 87.70833333333334,481.55003132064166 98.79166666666667,481.3899469713944 109.87500000000001,478.5956079237573 120.95833333333334,475.23194454889574 132.04166666666666,475.85952936982164 143.125,472.24975694621503 154.20833333333334,475.06080881171283 165.29166666666666,476.5184745430442 176.375,477.4043414596947 187.45833333333334,476.3551854193741 198.54166666666666,476.6456261338159 209.625,474.255561781963 220.70833333333334,477.74919204571125 231.79166666666666,477.8743573465149 242.875,479.69256291462324 253.95833333333334,477.3855189634149 265.0416666666667,469.7015580057516 276.12500000000006,472.02101371222477 287.20833333333337,469.2603632942539 298.2916666666667,472.30995019054916 309.37500000000006,474.43040887851123 320.45833333333337,471.62320038371286 331.5416666666667,477.2637143465756 342.62500000000006,477.9137456264913 353.70833333333337,475.3378972735035 364.7916666666667,465.62238055768296 375.87500000000006,471.4255529278695 386.95833333333337,469.3243308222289 398.0416666666667,471.3027700214452 409.12500000000006,467.48710297658425 420.20833333333337,470.0891745544222 431.2916666666667,470.4088667001382 442.37500000000006,473.32648266299304 453.45833333333337,473.70181491457595 464.5416666666667,472.77342603554615 475.62500000000006,472.1089909525933 486.70833333333337,476.5281237279359 497.7916666666667,476.30017104544004 508.87500000000006,473.6151002062954 519.9583333333334,477.399221293645 531.0416666666666,473.3734500496327 542.125,469.15231929131653 553.2083333333334,466.5382495548176 564.2916666666666,465.2030861514796 575.375,465.8905916497008 586.4583333333334,469.60165035000784 597.5416666666666,471.6595059956261 608.625,473.0561870297985 619.7083333333334,477.0429324316555 630.7916666666666,465.83801122370755 641.875,466.1993220210045 652.9583333333334,466.76834342783303 664.0416666666666,464.07377104989297 675.125,463.5697470465587 686.2083333333334,465.2004099567252 697.2916666666666,475.9135055363379 708.375,472.8221657925247 719.4583333333334,478.7700818735289" fill="none" stroke="#4ecdc4" stroke-width="1.5" opacity="0.9"/>
<circle cx="719.4583333333334" cy="478.7700818735289" r="3" fill="#4ecdc4" opacity="1"/>
<text x="724.4583333333334" y="481.7700818735289" font-family="sans-serif" font-size="9" fill="#4ecdc4" font-weight="bold">BIAS5=-4.0%</text>
<text x="65.54166666666667" y="489" text-anchor="middle" font-family="sans-serif" font-size="8" fill="#666666" transform="rotate(-45,65.54166666666667,489)">02/27</text>
<text x="120.95833333333334" y="489" text-anchor="middle" font-family="sans-serif" font-size="8" fill="#666666" transform="rotate(-45,120.95833333333334,489)">03/06</text>
<text x="176.375" y="489" text-anchor="middle" font-family="sans-serif" font-size="8" fill="#666666" transform="rotate(-45,176.375,489)">03/13</text>
<text x="231.79166666666666" y="489" text-anchor="middle" font-family="sans-serif" font-size="8" fill="#666666" transform="rotate(-45,231.79166666666666,489)">03/20</text>
<text x="287.20833333333337" y="489" text-anchor="middle" font-family="sans-serif" font-size="8" fill="#666666" transform="rotate(-45,287.20833333333337,489)">03/27</text>
<text x="342.62500000000006" y="489" text-anchor="middle" font-family="sans-serif" font-size="8" fill="#666666" transform="rotate(-45,342.62500000000006,489)">04/03</text>
<text x="398.0416666666667" y="489" text-anchor="middle" font-family="sans-serif" font-size="8" fill="#666666" transform="rotate(-45,398.0416666666667,489)">04/13</text>
<text x="453.45833333333337" y="489" text-anchor="middle" font-family="sans-serif" font-size="8" fill="#666666" transform="rotate(-45,453.45833333333337,489)">04/20</text>
<text x="508.87500000000006" y="489" text-anchor="middle" font-family="sans-serif" font-size="8" fill="#666666" transform="rotate(-45,508.87500000000006,489)">04/27</text>
<text x="564.2916666666666" y="489" text-anchor="middle" font-family="sans-serif" font-size="8" fill="#666666" transform="rotate(-45,564.2916666666666,489)">05/07</text>
<text x="619.7083333333334" y="489" text-anchor="middle" font-family="sans-serif" font-size="8" fill="#666666" transform="rotate(-45,619.7083333333334,489)">05/14</text>
<text x="675.125" y="489" text-anchor="middle" font-family="sans-serif" font-size="8" fill="#666666" transform="rotate(-45,675.125,489)">05/21</text>
<text x="719.4583333333334" y="489" text-anchor="middle" font-family="sans-serif" font-size="8" fill="#666666" transform="rotate(-45,719.4583333333334,489)">05/27</text>
<rect x="60" y="484" width="8" height="8" fill="#4ecdc4" opacity="0.8" rx="1"/>
<text x="71" y="491" font-family="sans-serif" font-size="9" fill="#888888">买入区(BIAS&lt;2%)</text>
<rect x="230" y="484" width="8" height="8" fill="#ffd700" opacity="0.8" rx="1"/>
<text x="241" y="491" font-family="sans-serif" font-size="9" fill="#888888">持有区(2-8%)</text>
<rect x="400" y="484" width="8" height="8" fill="#e94560" opacity="0.8" rx="1"/>
<text x="411" y="491" font-family="sans-serif" font-size="9" fill="#888888">警戒区(&gt;8%)</text>
<rect x="570" y="484" width="8" height="8" fill="#ffd700" opacity="0.8" rx="1"/>
<text x="581" y="491" font-family="sans-serif" font-size="9" fill="#888888">EMA5</text>
<rect x="60" y="497" width="8" height="8" fill="#ff6b6b" opacity="0.8" rx="1"/>
<text x="71" y="504" font-family="sans-serif" font-size="9" fill="#888888">EMA10</text>
<rect x="230" y="497" width="8" height="8" fill="#4ecdc4" opacity="0.8" rx="1"/>
<text x="241" y="504" font-family="sans-serif" font-size="9" fill="#888888">EMA20</text>
<rect x="400" y="497" width="8" height="8" fill="#4ecdc4" opacity="0.8" rx="1"/>
<text x="411" y="504" font-family="sans-serif" font-size="9" fill="#888888">B乖离买入</text>
<rect x="570" y="497" width="8" height="8" fill="#e94560" opacity="0.8" rx="1"/>
<text x="581" y="504" font-family="sans-serif" font-size="9" fill="#888888">W警戒⚠️</text>
</svg>