<svg xmlns="http://www.w3.org/2000/svg" width="800" height="400" viewBox="0 0 800 400">
<rect width="800" height="400" fill="#1a1a2e"/>
<text x="400.0" y="20" text-anchor="middle" font-family="sans-serif" font-size="14" fill="#ffffff" font-weight="bold">华虹公司(688347) K线图</text>
<line x1="60" y1="30.0" x2="780" y2="30.0" stroke="#2a2a4e" stroke-width="0.5"/>
<text x="55" y="33.0" text-anchor="end" font-family="sans-serif" font-size="8" fill="#666666">214.80</text>
<line x1="60" y1="83.99999999999997" x2="780" y2="83.99999999999997" stroke="#2a2a4e" stroke-width="0.5"/>
<text x="55" y="86.99999999999997" text-anchor="end" font-family="sans-serif" font-size="8" fill="#666666">192.95</text>
<line x1="60" y1="137.99999999999994" x2="780" y2="137.99999999999994" stroke="#2a2a4e" stroke-width="0.5"/>
<text x="55" y="140.99999999999994" text-anchor="end" font-family="sans-serif" font-size="8" fill="#666666">171.10</text>
<line x1="60" y1="192.0" x2="780" y2="192.0" stroke="#2a2a4e" stroke-width="0.5"/>
<text x="55" y="195.0" text-anchor="end" font-family="sans-serif" font-size="8" fill="#666666">149.25</text>
<line x1="60" y1="245.99999999999997" x2="780" y2="245.99999999999997" stroke="#2a2a4e" stroke-width="0.5"/>
<text x="55" y="248.99999999999997" text-anchor="end" font-family="sans-serif" font-size="8" fill="#666666">127.40</text>
<line x1="60" y1="300.00000000000006" x2="780" y2="300.00000000000006" stroke="#2a2a4e" stroke-width="0.5"/>
<text x="55" y="303.00000000000006" text-anchor="end" font-family="sans-serif" font-size="8" fill="#666666">105.55</text>
<line x1="60" y1="300" x2="780" y2="300" stroke="#2a2a4e" stroke-width="0.5"/>
<line x1="60" y1="345" x2="780" y2="345" stroke="#2a2a4e" stroke-width="0.5"/>
<rect x="61.8" y="331.48015479358406" width="7.199999999999999" height="13.519845206415937" fill="#ff4444" opacity="0.3"/>
<rect x="73.8" y="332.09826470566617" width="7.199999999999999" height="12.901735294333832" fill="#44aa44" opacity="0.3"/>
<rect x="85.8" y="334.180570768032" width="7.199999999999999" height="10.819429231968002" fill="#ff4444" opacity="0.3"/>
<rect x="97.8" y="334.3973108221353" width="7.199999999999999" height="10.602689177864704" fill="#ff4444" opacity="0.3"/>
<rect x="109.8" y="330.951514948249" width="7.199999999999999" height="14.048485051751015" fill="#44aa44" opacity="0.3"/>
<rect x="121.8" y="330.26574675086005" width="7.199999999999999" height="14.734253249139954" fill="#ff4444" opacity="0.3"/>
<rect x="133.8" y="334.0768806602664" width="7.199999999999999" height="10.923119339733603" fill="#44aa44" opacity="0.3"/>
<rect x="145.8" y="334.92252942235876" width="7.199999999999999" height="10.077470577641236" fill="#ff4444" opacity="0.3"/>
<rect x="157.8" y="333.437886019142" width="7.199999999999999" height="11.562113980857987" fill="#ff4444" opacity="0.3"/>
<rect x="169.8" y="333.0872741406686" width="7.199999999999999" height="11.912725859331374" fill="#ff4444" opacity="0.3"/>
<rect x="181.8" y="323.79199017171925" width="7.199999999999999" height="21.20800982828075" fill="#ff4444" opacity="0.3"/>
<rect x="193.8" y="328.20964707871445" width="7.199999999999999" height="16.790352921285546" fill="#ff4444" opacity="0.3"/>
<rect x="205.8" y="330.08856892660765" width="7.199999999999999" height="14.91143107339235" fill="#44aa44" opacity="0.3"/>
<rect x="217.8" y="313.5783934032168" width="7.199999999999999" height="31.421606596783192" fill="#ff4444" opacity="0.3"/>
<rect x="229.8" y="320.838268914111" width="7.199999999999999" height="24.161731085889016" fill="#44aa44" opacity="0.3"/>
<rect x="241.8" y="326.66748259651854" width="7.199999999999999" height="18.33251740348146" fill="#44aa44" opacity="0.3"/>
<rect x="253.8" y="327.9447135317122" width="7.199999999999999" height="17.055286468287818" fill="#44aa44" opacity="0.3"/>
<rect x="265.8" y="330.7428429790644" width="7.199999999999999" height="14.257157020935608" fill="#44aa44" opacity="0.3"/>
<rect x="277.8" y="330.59645387985535" width="7.199999999999999" height="14.403546120144654" fill="#44aa44" opacity="0.3"/>
<rect x="289.8" y="331.1909797774119" width="7.199999999999999" height="13.809020222588117" fill="#ff4444" opacity="0.3"/>
<rect x="301.8" y="331.9122629304008" width="7.199999999999999" height="13.0877370695992" fill="#ff4444" opacity="0.3"/>
<rect x="313.8" y="333.9002949586874" width="7.199999999999999" height="11.099705041312575" fill="#44aa44" opacity="0.3"/>
<rect x="325.8" y="334.7385694779323" width="7.199999999999999" height="10.261430522067712" fill="#ff4444" opacity="0.3"/>
<rect x="337.8" y="335.61166262974507" width="7.199999999999999" height="9.38833737025493" fill="#ff4444" opacity="0.3"/>
<rect x="349.8" y="334.2631354935458" width="7.199999999999999" height="10.736864506454197" fill="#44aa44" opacity="0.3"/>
<rect x="361.8" y="329.9469234246817" width="7.199999999999999" height="15.0530765753183" fill="#ff4444" opacity="0.3"/>
<rect x="373.8" y="336.3681977564762" width="7.199999999999999" height="8.631802243523794" fill="#44aa44" opacity="0.3"/>
<rect x="385.8" y="338.53182392895997" width="7.199999999999999" height="6.468176071040034" fill="#44aa44" opacity="0.3"/>
<rect x="397.8" y="333.72537067393927" width="7.199999999999999" height="11.274629326060733" fill="#ff4444" opacity="0.3"/>
<rect x="409.8" y="328.88803689832105" width="7.199999999999999" height="16.111963101678953" fill="#ff4444" opacity="0.3"/>
<rect x="421.8" y="333.8282519884442" width="7.199999999999999" height="11.171748011555792" fill="#ff4444" opacity="0.3"/>
<rect x="433.8" y="332.809962252639" width="7.199999999999999" height="12.190037747360975" fill="#44aa44" opacity="0.3"/>
<rect x="445.8" y="333.2791251948014" width="7.199999999999999" height="11.720874805198605" fill="#44aa44" opacity="0.3"/>
<rect x="457.8" y="332.3162435862566" width="7.199999999999999" height="12.683756413743424" fill="#ff4444" opacity="0.3"/>
<rect x="469.8" y="327.8408315629686" width="7.199999999999999" height="17.159168437031383" fill="#ff4444" opacity="0.3"/>
<rect x="481.8" y="333.1840357515658" width="7.199999999999999" height="11.815964248434227" fill="#ff4444" opacity="0.3"/>
<rect x="493.8" y="334.62674264532916" width="7.199999999999999" height="10.37325735467084" fill="#ff4444" opacity="0.3"/>
<rect x="505.8" y="328.9390264341792" width="7.199999999999999" height="16.060973565820802" fill="#ff4444" opacity="0.3"/>
<rect x="517.8" y="333.1006440390779" width="7.199999999999999" height="11.899355960922094" fill="#44aa44" opacity="0.3"/>
<rect x="529.8" y="332.6855999514834" width="7.199999999999999" height="12.314400048516575" fill="#ff4444" opacity="0.3"/>
<rect x="541.8" y="329.9532788195772" width="7.199999999999999" height="15.046721180422821" fill="#44aa44" opacity="0.3"/>
<rect x="553.8" y="308.03106153885733" width="7.199999999999999" height="36.96893846114267" fill="#ff4444" opacity="0.3"/>
<rect x="565.8" y="319.11768530021465" width="7.199999999999999" height="25.882314699785354" fill="#ff4444" opacity="0.3"/>
<rect x="577.8" y="327.8889985922844" width="7.199999999999999" height="17.111001407715605" fill="#44aa44" opacity="0.3"/>
<rect x="589.8" y="320.63532382972153" width="7.199999999999999" height="24.36467617027847" fill="#44aa44" opacity="0.3"/>
<rect x="601.8" y="314.5750111183804" width="7.199999999999999" height="30.424988881619583" fill="#ff4444" opacity="0.3"/>
<rect x="613.8" y="313.4780294370608" width="7.199999999999999" height="31.521970562939202" fill="#ff4444" opacity="0.3"/>
<rect x="625.8" y="316.1641195161575" width="7.199999999999999" height="28.835880483842516" fill="#ff4444" opacity="0.3"/>
<rect x="637.8" y="319.02265043811934" width="7.199999999999999" height="25.977349561880658" fill="#44aa44" opacity="0.3"/>
<rect x="649.8" y="322.25689394719046" width="7.199999999999999" height="22.743106052809537" fill="#44aa44" opacity="0.3"/>
<rect x="661.8" y="325.3722696565615" width="7.199999999999999" height="19.627730343438486" fill="#44aa44" opacity="0.3"/>
<rect x="673.8" y="326.63431049501605" width="7.199999999999999" height="18.365689504983948" fill="#ff4444" opacity="0.3"/>
<rect x="685.8" y="328.4156363021553" width="7.199999999999999" height="16.584363697844708" fill="#44aa44" opacity="0.3"/>
<rect x="697.8" y="309.3220287276897" width="7.199999999999999" height="35.67797127231029" fill="#44aa44" opacity="0.3"/>
<rect x="709.8" y="324.4858893050369" width="7.199999999999999" height="20.514110694963108" fill="#44aa44" opacity="0.3"/>
<rect x="721.8" y="323.00925857861154" width="7.199999999999999" height="21.990741421388464" fill="#ff4444" opacity="0.3"/>
<rect x="733.8" y="300.0" width="7.199999999999999" height="45.0" fill="#ff4444" opacity="0.3"/>
<rect x="745.8" y="309.2965740686289" width="7.199999999999999" height="35.7034259313711" fill="#44aa44" opacity="0.3"/>
<rect x="757.8" y="312.0083470551913" width="7.199999999999999" height="32.99165294480872" fill="#ff4444" opacity="0.3"/>
<rect x="769.8" y="303.4917871004734" width="7.199999999999999" height="41.5082128995266" fill="#ff4444" opacity="0.3"/>
<polyline points="66.0,235.13 78.0,237.65 90.0,240.95 102.0,245.43 114.0,255.59 126.0,262.86 138.0,266.48 150.0,267.57 162.0,270.83 174.0,269.92 186.0,264.95 198.0,259.30 210.0,261.68 222.0,251.31 234.0,250.05 246.0,248.53 258.0,253.04 270.0,260.09 282.0,269.99 294.0,272.83 306.0,272.58 318.0,276.75 330.0,278.70 342.0,281.48 354.0,287.36 366.0,284.66 378.0,286.94 390.0,289.76 402.0,288.26 414.0,280.04 426.0,275.10 438.0,270.17 450.0,269.02 462.0,265.32 474.0,262.23 486.0,258.69 498.0,256.76 510.0,250.41 522.0,247.99 534.0,245.73 546.0,248.96 558.0,238.58 570.0,228.12 582.0,225.28 594.0,228.27 606.0,222.97 618.0,210.38 630.0,190.52 642.0,183.02 654.0,173.52 666.0,170.28 678.0,168.15 690.0,169.01 702.0,175.98 714.0,182.52 726.0,185.27 738.0,164.00 750.0,157.06 762.0,144.20 774.0,106.13" fill="none" stroke="#ffd700" stroke-width="0.8" opacity="0.7"/>
<polyline points="66.0,235.13 78.0,236.51 90.0,238.51 102.0,241.40 114.0,247.67 126.0,253.08 138.0,256.83 150.0,259.18 162.0,262.49 174.0,263.51 186.0,261.96 198.0,259.42 210.0,260.70 222.0,255.22 234.0,253.82 246.0,252.31 258.0,254.08 270.0,257.74 282.0,263.56 294.0,266.28 306.0,267.34 318.0,270.57 330.0,272.75 342.0,275.35 354.0,279.67 366.0,279.60 378.0,281.76 390.0,284.24 402.0,284.43 414.0,280.64 426.0,277.84 438.0,274.65 450.0,273.21 462.0,270.43 474.0,267.81 486.0,264.87 498.0,262.69 510.0,258.15 522.0,255.42 534.0,252.84 546.0,253.30 558.0,246.85 570.0,239.64 582.0,236.00 594.0,235.68 606.0,231.45 618.0,223.04 630.0,209.90 642.0,202.29 654.0,193.60 666.0,188.18 678.0,183.77 690.0,181.40 702.0,182.95 714.0,185.24 726.0,186.25 738.0,174.47 750.0,168.78 762.0,159.64 774.0,136.07" fill="none" stroke="#ff6b6b" stroke-width="0.8" opacity="0.7"/>
<polyline points="66.0,235.13 78.0,235.85 90.0,236.96 102.0,238.62 114.0,242.17 126.0,245.53 138.0,248.21 150.0,250.26 162.0,252.84 174.0,254.30 186.0,254.37 198.0,253.76 210.0,254.97 222.0,252.64 234.0,252.16 246.0,251.52 258.0,252.53 270.0,254.59 282.0,257.94 294.0,259.90 306.0,261.06 318.0,263.35 330.0,265.18 342.0,267.26 354.0,270.30 366.0,271.15 378.0,273.09 390.0,275.21 402.0,276.17 414.0,274.97 426.0,274.05 438.0,272.74 450.0,272.16 462.0,270.81 474.0,269.40 486.0,267.71 498.0,266.30 510.0,263.57 522.0,261.63 534.0,259.68 546.0,259.28 558.0,255.33 570.0,250.75 582.0,247.78 594.0,246.49 606.0,243.24 618.0,237.71 630.0,229.44 642.0,223.59 654.0,217.01 666.0,211.94 678.0,207.37 690.0,203.88 702.0,202.55 714.0,201.88 726.0,200.83 738.0,193.27 750.0,188.50 762.0,181.83 774.0,167.37" fill="none" stroke="#4ecdc4" stroke-width="0.8" opacity="0.7"/>
<line x1="66.0" y1="228.92265446224255" x2="66.0" y2="242.04576659038904" stroke="#ff4444" stroke-width="0.5" opacity="0.6"/>
<rect x="63.0" y="235.12585812356977" width="6.0" height="2.1254004576659327" fill="#ff4444" opacity="0.85"/>
<line x1="78.0" y1="230.45491990846682" x2="78.0" y2="243.55331807780323" stroke="#44aa44" stroke-width="0.5" opacity="0.6"/>
<rect x="75.0" y="232.16018306636158" width="6.0" height="10.552860411899303" fill="#44aa44" opacity="0.85"/>
<line x1="90.0" y1="244.88787185354693" x2="90.0" y2="251.6100686498856" stroke="#ff4444" stroke-width="0.5" opacity="0.6"/>
<rect x="87.0" y="247.53226544622424" width="6.0" height="0.7414187643020682" fill="#ff4444" opacity="0.85"/>
<line x1="102.0" y1="248.05125858123571" x2="102.0" y2="256.60228832951947" stroke="#ff4444" stroke-width="0.5" opacity="0.6"/>
<rect x="99.0" y="254.40274599542334" width="6.0" height="2.1995423340961224" fill="#ff4444" opacity="0.85"/>
<line x1="114.0" y1="251.53592677345537" x2="114.0" y2="277.36201372997715" stroke="#44aa44" stroke-width="0.5" opacity="0.6"/>
<rect x="111.0" y="253.16704805491992" width="6.0" height="22.73684210526318" fill="#44aa44" opacity="0.85"/>
<line x1="126.0" y1="269.7254004576659" x2="126.0" y2="281.43981693363844" stroke="#ff4444" stroke-width="0.5" opacity="0.6"/>
<rect x="123.0" y="277.3867276887872" width="6.0" height="2.3972540045766664" fill="#ff4444" opacity="0.85"/>
<line x1="138.0" y1="267.25400457665904" x2="138.0" y2="276.69473684210527" stroke="#44aa44" stroke-width="0.5" opacity="0.6"/>
<rect x="135.0" y="270.83752860411903" width="6.0" height="2.8915331807779694" fill="#44aa44" opacity="0.85"/>
<line x1="150.0" y1="265.5487414187643" x2="150.0" y2="276.6205949656751" stroke="#ff4444" stroke-width="0.5" opacity="0.6"/>
<rect x="147.0" y="269.750114416476" width="6.0" height="6.351487414187659" fill="#ff4444" opacity="0.85"/>
<line x1="162.0" y1="275.9038901601831" x2="162.0" y2="288.7304347826087" stroke="#ff4444" stroke-width="0.5" opacity="0.6"/>
<rect x="159.0" y="277.36201372997715" width="6.0" height="5.708924485125806" fill="#ff4444" opacity="0.85"/>
<line x1="174.0" y1="266.24073226544624" x2="174.0" y2="275.58260869565214" stroke="#ff4444" stroke-width="0.5" opacity="0.6"/>
<rect x="171.0" y="268.0942791762014" width="6.0" height="1.013272311212802" fill="#ff4444" opacity="0.85"/>
<line x1="186.0" y1="242.34233409610988" x2="186.0" y2="263.5469107551487" stroke="#ff4444" stroke-width="0.5" opacity="0.6"/>
<rect x="183.0" y="255.02059496567506" width="6.0" height="8.452173913043453" fill="#ff4444" opacity="0.85"/>
<line x1="198.0" y1="237.94324942791764" x2="198.0" y2="258.10983981693363" stroke="#ff4444" stroke-width="0.5" opacity="0.6"/>
<rect x="195.0" y="247.9771167048055" width="6.0" height="8.921739130434787" fill="#ff4444" opacity="0.85"/>
<line x1="210.0" y1="251.9313501144165" x2="210.0" y2="268.66270022883293" stroke="#44aa44" stroke-width="0.5" opacity="0.6"/>
<rect x="207.0" y="252.49977116704807" width="6.0" height="13.963386727688743" fill="#44aa44" opacity="0.85"/>
<line x1="222.0" y1="216.51624713958807" x2="222.0" y2="272.9382151029748" stroke="#ff4444" stroke-width="0.5" opacity="0.6"/>
<rect x="219.0" y="230.5537757437071" width="6.0" height="36.70022883295195" fill="#ff4444" opacity="0.85"/>
<line x1="234.0" y1="233.66773455377577" x2="234.0" y2="251.31350114416477" stroke="#44aa44" stroke-width="0.5" opacity="0.6"/>
<rect x="231.0" y="239.5990846681922" width="6.0" height="7.933180778032039" fill="#44aa44" opacity="0.85"/>
<line x1="246.0" y1="240.11807780320365" x2="246.0" y2="256.8741418764302" stroke="#44aa44" stroke-width="0.5" opacity="0.6"/>
<rect x="243.0" y="242.04576659038904" width="6.0" height="3.4599542334096043" fill="#44aa44" opacity="0.85"/>
<line x1="258.0" y1="254.64988558352402" x2="258.0" y2="265.449885583524" stroke="#44aa44" stroke-width="0.5" opacity="0.6"/>
<rect x="255.0" y="256.8741418764302" width="6.0" height="5.189931350114421" fill="#44aa44" opacity="0.85"/>
<line x1="270.0" y1="256.083295194508" x2="270.0" y2="274.3963386727689" stroke="#44aa44" stroke-width="0.5" opacity="0.6"/>
<rect x="267.0" y="257.29427917620137" width="6.0" height="16.87963386727688" fill="#44aa44" opacity="0.85"/>
<line x1="282.0" y1="277.1395881006865" x2="282.0" y2="292.70938215102973" stroke="#44aa44" stroke-width="0.5" opacity="0.6"/>
<rect x="279.0" y="281.5881006864988" width="6.0" height="8.205034324942801" fill="#44aa44" opacity="0.85"/>
<line x1="294.0" y1="277.9057208237987" x2="294.0" y2="296.0704805491991" stroke="#ff4444" stroke-width="0.5" opacity="0.6"/>
<rect x="291.0" y="278.49885583524025" width="6.0" height="5.535926773455401" fill="#ff4444" opacity="0.85"/>
<line x1="306.0" y1="267.9954233409611" x2="306.0" y2="277.80686498855835" stroke="#ff4444" stroke-width="0.5" opacity="0.6"/>
<rect x="303.0" y="272.0979405034325" width="6.0" height="5.708924485125863" fill="#ff4444" opacity="0.85"/>
<line x1="318.0" y1="272.0979405034325" x2="318.0" y2="286.87688787185357" stroke="#44aa44" stroke-width="0.5" opacity="0.6"/>
<rect x="315.0" y="273.18535469107553" width="6.0" height="11.912128146453028" fill="#44aa44" opacity="0.85"/>
<line x1="330.0" y1="277.2631578947368" x2="330.0" y2="294.1675057208238" stroke="#ff4444" stroke-width="0.5" opacity="0.6"/>
<rect x="327.0" y="282.6013729977117" width="6.0" height="8.798169336384433" fill="#ff4444" opacity="0.85"/>
<line x1="342.0" y1="284.6279176201373" x2="342.0" y2="294.29107551487414" stroke="#ff4444" stroke-width="0.5" opacity="0.6"/>
<rect x="339.0" y="287.02517162471395" width="6.0" height="1.0379862700228841" fill="#ff4444" opacity="0.85"/>
<line x1="354.0" y1="287.02517162471395" x2="354.0" y2="300.0" stroke="#44aa44" stroke-width="0.5" opacity="0.6"/>
<rect x="351.0" y="287.02517162471395" width="6.0" height="12.10983981693363" fill="#44aa44" opacity="0.85"/>
<line x1="366.0" y1="277.75743707093824" x2="366.0" y2="292.70938215102973" stroke="#ff4444" stroke-width="0.5" opacity="0.6"/>
<rect x="363.0" y="279.2402745995423" width="6.0" height="9.762013729977127" fill="#ff4444" opacity="0.85"/>
<line x1="378.0" y1="281.5881006864988" x2="378.0" y2="293.89565217391305" stroke="#44aa44" stroke-width="0.5" opacity="0.6"/>
<rect x="375.0" y="284.03478260869565" width="6.0" height="7.463615560640733" fill="#44aa44" opacity="0.85"/>
<line x1="390.0" y1="286.85217391304343" x2="390.0" y2="295.92219679633865" stroke="#44aa44" stroke-width="0.5" opacity="0.6"/>
<rect x="387.0" y="288.854004576659" width="6.0" height="6.549199084668203" fill="#44aa44" opacity="0.85"/>
<line x1="402.0" y1="280.6736842105263" x2="402.0" y2="293.9945080091533" stroke="#ff4444" stroke-width="0.5" opacity="0.6"/>
<rect x="399.0" y="285.2704805491991" width="6.0" height="8.674599542334079" fill="#ff4444" opacity="0.85"/>
<line x1="414.0" y1="261.89107551487416" x2="414.0" y2="272.91350114416474" stroke="#ff4444" stroke-width="0.5" opacity="0.6"/>
<rect x="411.0" y="263.59633867276887" width="6.0" height="8.106178489702529" fill="#ff4444" opacity="0.85"/>
<line x1="426.0" y1="257.98627002288333" x2="426.0" y2="273.21006864988556" stroke="#ff4444" stroke-width="0.5" opacity="0.6"/>
<rect x="423.0" y="265.2274599542334" width="6.0" height="4.003661327231157" fill="#ff4444" opacity="0.85"/>
<line x1="438.0" y1="255.78672768878718" x2="438.0" y2="262.21235697940506" stroke="#44aa44" stroke-width="0.5" opacity="0.6"/>
<rect x="435.0" y="259.0983981693364" width="6.0" height="1.2109839816933459" fill="#44aa44" opacity="0.85"/>
<line x1="450.0" y1="254.40274599542334" x2="450.0" y2="267.00686498855833" stroke="#44aa44" stroke-width="0.5" opacity="0.6"/>
<rect x="447.0" y="263.3986270022883" width="6.0" height="3.3116704805491963" fill="#44aa44" opacity="0.85"/>
<line x1="462.0" y1="252.30205949656752" x2="462.0" y2="261.6933638443936" stroke="#ff4444" stroke-width="0.5" opacity="0.6"/>
<rect x="459.0" y="257.93684210526317" width="6.0" height="1.6805491990846804" fill="#ff4444" opacity="0.85"/>
<line x1="474.0" y1="240.81006864988558" x2="474.0" y2="257.34370709382154" stroke="#ff4444" stroke-width="0.5" opacity="0.6"/>
<rect x="471.0" y="256.03386727688786" width="6.0" height="0.8402745995423402" fill="#ff4444" opacity="0.85"/>
<line x1="486.0" y1="245.6787185354691" x2="486.0" y2="258.604118993135" stroke="#ff4444" stroke-width="0.5" opacity="0.6"/>
<rect x="483.0" y="251.6100686498856" width="6.0" height="3.8800915331807744" fill="#ff4444" opacity="0.85"/>
<line x1="498.0" y1="244.54187643020595" x2="498.0" y2="257.98627002288333" stroke="#ff4444" stroke-width="0.5" opacity="0.6"/>
<rect x="495.0" y="252.89519450800915" width="6.0" height="2.619679633867264" fill="#ff4444" opacity="0.85"/>
<line x1="510.0" y1="237.59725400457663" x2="510.0" y2="251.9313501144165" stroke="#ff4444" stroke-width="0.5" opacity="0.6"/>
<rect x="507.0" y="237.720823798627" width="6.0" height="10.651716247139575" fill="#ff4444" opacity="0.85"/>
<line x1="522.0" y1="240.58764302059498" x2="522.0" y2="250.44851258581235" stroke="#44aa44" stroke-width="0.5" opacity="0.6"/>
<rect x="519.0" y="240.83478260869563" width="6.0" height="2.2983981693363944" fill="#44aa44" opacity="0.85"/>
<line x1="534.0" y1="239.57437070938215" x2="534.0" y2="248.00183066361555" stroke="#ff4444" stroke-width="0.5" opacity="0.6"/>
<rect x="531.0" y="241.2054919908467" width="6.0" height="5.5853546910755085" fill="#ff4444" opacity="0.85"/>
<line x1="546.0" y1="236.60869565217394" x2="546.0" y2="258.7771167048055" stroke="#44aa44" stroke-width="0.5" opacity="0.6"/>
<rect x="543.0" y="237.1029748283753" width="6.0" height="18.31304347826085" fill="#44aa44" opacity="0.85"/>
<line x1="558.0" y1="210.41189931350112" x2="558.0" y2="263.3986270022883" stroke="#ff4444" stroke-width="0.5" opacity="0.6"/>
<rect x="555.0" y="217.8260869565217" width="6.0" height="38.60320366132726" fill="#ff4444" opacity="0.85"/>
<line x1="570.0" y1="203.64027459954235" x2="570.0" y2="222.1016018306636" stroke="#ff4444" stroke-width="0.5" opacity="0.6"/>
<rect x="567.0" y="207.19908466819226" width="6.0" height="12.60411899313496" fill="#ff4444" opacity="0.85"/>
<line x1="582.0" y1="205.76567505720823" x2="582.0" y2="221.82974828375285" stroke="#44aa44" stroke-width="0.5" opacity="0.6"/>
<rect x="579.0" y="211.3510297482838" width="6.0" height="8.25446224256288" fill="#44aa44" opacity="0.85"/>
<line x1="594.0" y1="222.7441647597254" x2="594.0" y2="249.36109839816933" stroke="#44aa44" stroke-width="0.5" opacity="0.6"/>
<rect x="591.0" y="227.1926773455378" width="6.0" height="7.043478260869563" fill="#44aa44" opacity="0.85"/>
<line x1="606.0" y1="209.91762013729976" x2="606.0" y2="239.57437070938215" stroke="#ff4444" stroke-width="0.5" opacity="0.6"/>
<rect x="603.0" y="212.38901601830665" width="6.0" height="19.771167048054934" fill="#ff4444" opacity="0.85"/>
<line x1="618.0" y1="168.76887871853546" x2="618.0" y2="202.5034324942792" stroke="#ff4444" stroke-width="0.5" opacity="0.6"/>
<rect x="615.0" y="185.20366132723115" width="6.0" height="17.275057208237968" fill="#ff4444" opacity="0.85"/>
<line x1="630.0" y1="140.76796338672773" x2="630.0" y2="190.4430205949657" stroke="#ff4444" stroke-width="0.5" opacity="0.6"/>
<rect x="627.0" y="150.8018306636156" width="6.0" height="27.729061784897027" fill="#ff4444" opacity="0.85"/>
<line x1="642.0" y1="160.48970251716247" x2="642.0" y2="180.58215102974827" stroke="#44aa44" stroke-width="0.5" opacity="0.6"/>
<rect x="639.0" y="164.29565217391306" width="6.0" height="3.707093821510284" fill="#44aa44" opacity="0.85"/>
<line x1="654.0" y1="142.74508009153317" x2="654.0" y2="159.99542334096114" stroke="#44aa44" stroke-width="0.5" opacity="0.6"/>
<rect x="651.0" y="153.0755148741419" width="6.0" height="1.4581235697940542" fill="#44aa44" opacity="0.85"/>
<line x1="666.0" y1="151.61739130434785" x2="666.0" y2="170.37528604118992" stroke="#44aa44" stroke-width="0.5" opacity="0.6"/>
<rect x="663.0" y="156.14004576659042" width="6.0" height="7.661327231121277" fill="#44aa44" opacity="0.85"/>
<line x1="678.0" y1="162.1949656750572" x2="678.0" y2="180.75514874141876" stroke="#ff4444" stroke-width="0.5" opacity="0.6"/>
<rect x="675.0" y="163.90022883295194" width="6.0" height="6.227917620137333" fill="#ff4444" opacity="0.85"/>
<line x1="690.0" y1="155.54691075514876" x2="690.0" y2="179.02517162471398" stroke="#44aa44" stroke-width="0.5" opacity="0.6"/>
<rect x="687.0" y="157.35102974828374" width="6.0" height="13.37025171624714" fill="#44aa44" opacity="0.85"/>
<line x1="702.0" y1="144.03020594965676" x2="702.0" y2="195.80594965675056" stroke="#44aa44" stroke-width="0.5" opacity="0.6"/>
<rect x="699.0" y="160.48970251716247" width="6.0" height="29.43432494279176" fill="#44aa44" opacity="0.85"/>
<line x1="714.0" y1="179.84073226544626" x2="714.0" y2="199.58718535469106" stroke="#44aa44" stroke-width="0.5" opacity="0.6"/>
<rect x="711.0" y="192.84027459954234" width="6.0" height="2.74324942791759" fill="#44aa44" opacity="0.85"/>
<line x1="726.0" y1="188.91075514874143" x2="726.0" y2="214.8604118993135" stroke="#ff4444" stroke-width="0.5" opacity="0.6"/>
<rect x="723.0" y="190.78901601830663" width="6.0" height="8.007322654462257" fill="#ff4444" opacity="0.85"/>
<line x1="738.0" y1="118.97025171624712" x2="738.0" y2="196.32494279176203" stroke="#ff4444" stroke-width="0.5" opacity="0.6"/>
<rect x="735.0" y="121.44164759725399" width="6.0" height="73.15331807780325" fill="#ff4444" opacity="0.85"/>
<line x1="750.0" y1="103.6475972540046" x2="750.0" y2="148.2315789473684" stroke="#44aa44" stroke-width="0.5" opacity="0.6"/>
<rect x="747.0" y="121.63935926773456" width="6.0" height="21.55057208237986" fill="#44aa44" opacity="0.85"/>
<line x1="762.0" y1="109.7272311212815" x2="762.0" y2="156.3871853546911" stroke="#ff4444" stroke-width="0.5" opacity="0.6"/>
<rect x="759.0" y="118.47597254004579" width="6.0" height="24.713958810068632" fill="#ff4444" opacity="0.85"/>
<line x1="774.0" y1="30.0" x2="774.0" y2="118.47597254004579" stroke="#ff4444" stroke-width="0.5" opacity="0.6"/>
<rect x="771.0" y="30.0" width="6.0" height="78.59038901601834" fill="#ff4444" opacity="0.85"/>
<rect x="122.0" y="277.43981693363844" width="8" height="8" fill="#4caf50" opacity="0.85" rx="1"/>
<text x="126.0" y="275.43981693363844" text-anchor="middle" font-family="sans-serif" font-size="8" fill="#4caf50">前低</text>
<rect x="158.0" y="284.7304347826087" width="8" height="8" fill="#4caf50" opacity="0.85" rx="1"/>
<text x="162.0" y="282.7304347826087" text-anchor="middle" font-family="sans-serif" font-size="8" fill="#4caf50">前低</text>
<rect x="218.0" y="212.51624713958807" width="8" height="8" fill="#ff9800" opacity="0.85" rx="1"/>
<text x="222.0" y="210.51624713958807" text-anchor="middle" font-family="sans-serif" font-size="8" fill="#ff9800">前高</text>
<rect x="218.0" y="212.51624713958807" width="8" height="8" fill="#2196f3" opacity="0.85" rx="1"/>
<text x="222.0" y="210.51624713958807" text-anchor="middle" font-family="sans-serif" font-size="8" fill="#2196f3">突</text>
<rect x="278.0" y="288.70938215102973" width="8" height="8" fill="#4caf50" opacity="0.85" rx="1"/>
<text x="282.0" y="286.70938215102973" text-anchor="middle" font-family="sans-serif" font-size="8" fill="#4caf50">前低</text>
<rect x="290.0" y="292.0704805491991" width="8" height="8" fill="#4caf50" opacity="0.85" rx="1"/>
<text x="294.0" y="290.0704805491991" text-anchor="middle" font-family="sans-serif" font-size="8" fill="#4caf50">前低</text>
<rect x="350.0" y="296.0" width="8" height="8" fill="#4caf50" opacity="0.85" rx="1"/>
<text x="354.0" y="294.0" text-anchor="middle" font-family="sans-serif" font-size="8" fill="#4caf50">前低</text>
<rect x="410.0" y="257.89107551487416" width="8" height="8" fill="#ff9800" opacity="0.85" rx="1"/>
<text x="414.0" y="255.89107551487416" text-anchor="middle" font-family="sans-serif" font-size="8" fill="#ff9800">前高</text>
<rect x="410.0" y="257.89107551487416" width="8" height="8" fill="#2196f3" opacity="0.85" rx="1"/>
<text x="414.0" y="255.89107551487416" text-anchor="middle" font-family="sans-serif" font-size="8" fill="#2196f3">突</text>
<rect x="422.0" y="253.98627002288333" width="8" height="8" fill="#ff9800" opacity="0.85" rx="1"/>
<text x="426.0" y="251.98627002288333" text-anchor="middle" font-family="sans-serif" font-size="8" fill="#ff9800">前高</text>
<rect x="434.0" y="251.78672768878718" width="8" height="8" fill="#ff9800" opacity="0.85" rx="1"/>
<text x="438.0" y="249.78672768878718" text-anchor="middle" font-family="sans-serif" font-size="8" fill="#ff9800">前高</text>
<rect x="446.0" y="250.40274599542334" width="8" height="8" fill="#ff9800" opacity="0.85" rx="1"/>
<text x="450.0" y="248.40274599542334" text-anchor="middle" font-family="sans-serif" font-size="8" fill="#ff9800">前高</text>
<rect x="458.0" y="248.30205949656752" width="8" height="8" fill="#ff9800" opacity="0.85" rx="1"/>
<text x="462.0" y="246.30205949656752" text-anchor="middle" font-family="sans-serif" font-size="8" fill="#ff9800">前高</text>
<rect x="470.0" y="236.81006864988558" width="8" height="8" fill="#ff9800" opacity="0.85" rx="1"/>
<text x="474.0" y="234.81006864988558" text-anchor="middle" font-family="sans-serif" font-size="8" fill="#ff9800">前高</text>
<rect x="506.0" y="233.59725400457663" width="8" height="8" fill="#ff9800" opacity="0.85" rx="1"/>
<text x="510.0" y="231.59725400457663" text-anchor="middle" font-family="sans-serif" font-size="8" fill="#ff9800">前高</text>
<rect x="506.0" y="233.59725400457663" width="8" height="8" fill="#2196f3" opacity="0.85" rx="1"/>
<text x="510.0" y="231.59725400457663" text-anchor="middle" font-family="sans-serif" font-size="8" fill="#2196f3">突</text>
<rect x="542.0" y="232.60869565217394" width="8" height="8" fill="#ff9800" opacity="0.85" rx="1"/>
<text x="546.0" y="230.60869565217394" text-anchor="middle" font-family="sans-serif" font-size="8" fill="#ff9800">前高</text>
<rect x="554.0" y="206.41189931350112" width="8" height="8" fill="#ff9800" opacity="0.85" rx="1"/>
<text x="558.0" y="204.41189931350112" text-anchor="middle" font-family="sans-serif" font-size="8" fill="#ff9800">前高</text>
<rect x="554.0" y="179.91853546910755" width="8" height="8" fill="#ff9800" opacity="0.85" rx="1"/>
<text x="558.0" y="177.91853546910755" text-anchor="middle" font-family="sans-serif" font-size="8" fill="#ff9800">量</text>
<rect x="554.0" y="206.41189931350112" width="8" height="8" fill="#2196f3" opacity="0.85" rx="1"/>
<text x="558.0" y="204.41189931350112" text-anchor="middle" font-family="sans-serif" font-size="8" fill="#2196f3">突</text>
<rect x="566.0" y="199.64027459954235" width="8" height="8" fill="#ff9800" opacity="0.85" rx="1"/>
<text x="570.0" y="197.64027459954235" text-anchor="middle" font-family="sans-serif" font-size="8" fill="#ff9800">前高</text>
<rect x="566.0" y="199.64027459954235" width="8" height="8" fill="#2196f3" opacity="0.85" rx="1"/>
<text x="570.0" y="197.64027459954235" text-anchor="middle" font-family="sans-serif" font-size="8" fill="#2196f3">突</text>
<rect x="614.0" y="164.76887871853546" width="8" height="8" fill="#ff9800" opacity="0.85" rx="1"/>
<text x="618.0" y="162.76887871853546" text-anchor="middle" font-family="sans-serif" font-size="8" fill="#ff9800">前高</text>
<rect x="626.0" y="136.76796338672773" width="8" height="8" fill="#ff9800" opacity="0.85" rx="1"/>
<text x="630.0" y="134.76796338672773" text-anchor="middle" font-family="sans-serif" font-size="8" fill="#ff9800">前高</text>
<rect x="626.0" y="136.76796338672773" width="8" height="8" fill="#2196f3" opacity="0.85" rx="1"/>
<text x="630.0" y="134.76796338672773" text-anchor="middle" font-family="sans-serif" font-size="8" fill="#2196f3">突</text>
<rect x="734.0" y="114.97025171624712" width="8" height="8" fill="#ff9800" opacity="0.85" rx="1"/>
<text x="738.0" y="112.97025171624712" text-anchor="middle" font-family="sans-serif" font-size="8" fill="#ff9800">前高</text>
<rect x="734.0" y="114.97025171624712" width="8" height="8" fill="#2196f3" opacity="0.85" rx="1"/>
<text x="738.0" y="112.97025171624712" text-anchor="middle" font-family="sans-serif" font-size="8" fill="#2196f3">突</text>
<rect x="746.0" y="99.6475972540046" width="8" height="8" fill="#ff9800" opacity="0.85" rx="1"/>
<text x="750.0" y="97.6475972540046" text-anchor="middle" font-family="sans-serif" font-size="8" fill="#ff9800">前高</text>
<rect x="770.0" y="26.0" width="8" height="8" fill="#ff9800" opacity="0.85" rx="1"/>
<text x="774.0" y="24.0" text-anchor="middle" font-family="sans-serif" font-size="8" fill="#ff9800">前高</text>
<rect x="770.0" y="26.0" width="8" height="8" fill="#2196f3" opacity="0.85" rx="1"/>
<text x="774.0" y="24.0" text-anchor="middle" font-family="sans-serif" font-size="8" fill="#2196f3">突</text>
<text x="66.0" y="359" text-anchor="middle" font-family="sans-serif" font-size="8" fill="#666666" transform="rotate(-40,66.0,359)">02/25</text>
<text x="138.0" y="359" text-anchor="middle" font-family="sans-serif" font-size="8" fill="#666666" transform="rotate(-40,138.0,359)">03/05</text>
<text x="210.0" y="359" text-anchor="middle" font-family="sans-serif" font-size="8" fill="#666666" transform="rotate(-40,210.0,359)">03/13</text>
<text x="282.0" y="359" text-anchor="middle" font-family="sans-serif" font-size="8" fill="#666666" transform="rotate(-40,282.0,359)">03/23</text>
<text x="354.0" y="359" text-anchor="middle" font-family="sans-serif" font-size="8" fill="#666666" transform="rotate(-40,354.0,359)">03/31</text>
<text x="426.0" y="359" text-anchor="middle" font-family="sans-serif" font-size="8" fill="#666666" transform="rotate(-40,426.0,359)">04/09</text>
<text x="498.0" y="359" text-anchor="middle" font-family="sans-serif" font-size="8" fill="#666666" transform="rotate(-40,498.0,359)">04/17</text>
<text x="570.0" y="359" text-anchor="middle" font-family="sans-serif" font-size="8" fill="#666666" transform="rotate(-40,570.0,359)">04/27</text>
<text x="642.0" y="359" text-anchor="middle" font-family="sans-serif" font-size="8" fill="#666666" transform="rotate(-40,642.0,359)">05/08</text>
<text x="714.0" y="359" text-anchor="middle" font-family="sans-serif" font-size="8" fill="#666666" transform="rotate(-40,714.0,359)">05/18</text>
<text x="774.0" y="359" text-anchor="middle" font-family="sans-serif" font-size="8" fill="#666666" transform="rotate(-40,774.0,359)">05/25</text>
<text x="400.0" y="396" text-anchor="middle" font-family="sans-serif" font-size="9" fill="#555555">数据截至: 2026-05-26 19:10  |  最新K线: 20260525</text>
<rect x="50" y="373" width="8" height="8" fill="#ffd700" opacity="0.8" rx="1"/>
<text x="61" y="380" font-family="sans-serif" font-size="9" fill="#888888">EMA5</text>
<rect x="150" y="373" width="8" height="8" fill="#ff6b6b" opacity="0.8" rx="1"/>
<text x="161" y="380" font-family="sans-serif" font-size="9" fill="#888888">EMA10</text>
<rect x="250" y="373" width="8" height="8" fill="#4ecdc4" opacity="0.8" rx="1"/>
<text x="261" y="380" font-family="sans-serif" font-size="9" fill="#888888">EMA20</text>
<rect x="350" y="373" width="8" height="8" fill="#2196f3" opacity="0.8" rx="1"/>
<text x="361" y="380" font-family="sans-serif" font-size="9" fill="#888888">突破</text>
<rect x="450" y="373" width="8" height="8" fill="#ff9800" opacity="0.8" rx="1"/>
<text x="461" y="380" font-family="sans-serif" font-size="9" fill="#888888">前高/量</text>
<rect x="550" y="373" width="8" height="8" fill="#4caf50" opacity="0.8" rx="1"/>
<text x="561" y="380" font-family="sans-serif" font-size="9" fill="#888888">前低</text>
</svg>