<svg xmlns="http://www.w3.org/2000/svg" width="750" height="540" viewBox="0 0 750 540">
<rect width="750" height="540" fill="#1a1a2e"/>
<text x="375.0" y="22" text-anchor="middle" font-family="sans-serif" font-size="15" fill="#ffffff" font-weight="bold">光迅科技(002281) 趋势交易分析图</text>
<text x="60" y="31" font-family="sans-serif" font-size="10" fill="#888888">最新: 202.70</text>
<line x1="60" y1="101.0162074693577" x2="725" y2="101.0162074693577" stroke="#4ecdc4" stroke-width="0.5" stroke-dasharray="4,3" opacity="0.4"/>
<text x="62" y="99.0162074693577" font-family="sans-serif" font-size="7" fill="#4ecdc4" opacity="0.6">买入↑2%</text>
<line x1="60" y1="73.22846262246435" x2="725" y2="73.22846262246435" stroke="#e94560" stroke-width="0.5" stroke-dasharray="4,3" opacity="0.4"/>
<text x="62" y="71.22846262246435" font-family="sans-serif" font-size="7" fill="#e94560" opacity="0.6">警戒↑8%</text>
<rect x="60" y="101.0162074693577" width="3" height="281.9837925306423" fill="#4ecdc4" opacity="0.3" rx="1"/>
<rect x="60" y="73.22846262246435" width="3" height="309.77153737753565" fill="#e94560" opacity="0.3" rx="1"/>
<rect x="60" y="73.22846262246435" width="3" height="27.787744846893347" fill="#ffd700" opacity="0.2" rx="1"/>
<line x1="60" y1="32.0" x2="725" y2="32.0" stroke="#2a2a4e" stroke-width="0.5"/>
<text x="56" y="35.0" text-anchor="end" font-family="sans-serif" font-size="8" fill="#666666">246.8</text>
<line x1="60" y1="127.75" x2="725" y2="127.75" stroke="#2a2a4e" stroke-width="0.5"/>
<text x="56" y="130.75" text-anchor="end" font-family="sans-serif" font-size="8" fill="#666666">203.2</text>
<line x1="60" y1="223.5" x2="725" y2="223.5" stroke="#2a2a4e" stroke-width="0.5"/>
<text x="56" y="226.5" text-anchor="end" font-family="sans-serif" font-size="8" fill="#666666">159.5</text>
<line x1="60" y1="319.25" x2="725" y2="319.25" stroke="#2a2a4e" stroke-width="0.5"/>
<text x="56" y="322.25" text-anchor="end" font-family="sans-serif" font-size="8" fill="#666666">115.9</text>
<line x1="60" y1="415.0" x2="725" y2="415.0" stroke="#2a2a4e" stroke-width="0.5"/>
<text x="56" y="418.0" text-anchor="end" font-family="sans-serif" font-size="8" fill="#666666">72.2</text>
<rect x="61.66250000000001" y="459.2767966288232" width="6.095833333333334" height="15.723203371176771" fill="#ff4444" opacity="0.35"/>
<rect x="72.74583333333334" y="457.56598547736263" width="6.095833333333334" height="17.43401452263735" fill="#ff4444" opacity="0.35"/>
<rect x="83.82916666666668" y="452.98818339737863" width="6.095833333333334" height="22.01181660262139" fill="#44aa44" opacity="0.35"/>
<rect x="94.91250000000001" y="456.99426170162474" width="6.095833333333334" height="18.00573829837527" fill="#ff4444" opacity="0.35"/>
<rect x="105.99583333333335" y="452.79316435006115" width="6.095833333333334" height="22.20683564993885" fill="#44aa44" opacity="0.35"/>
<rect x="117.07916666666668" y="454.6379035944541" width="6.095833333333334" height="20.362096405545913" fill="#ff4444" opacity="0.35"/>
<rect x="128.1625" y="455.32214832994447" width="6.095833333333334" height="19.677851670055542" fill="#ff4444" opacity="0.35"/>
<rect x="139.24583333333334" y="458.1004973977935" width="6.095833333333334" height="16.899502602206496" fill="#ff4444" opacity="0.35"/>
<rect x="150.32916666666668" y="443.72376149911827" width="6.095833333333334" height="31.276238500881714" fill="#ff4444" opacity="0.35"/>
<rect x="161.4125" y="440.0" width="6.095833333333334" height="35.0" fill="#ff4444" opacity="0.35"/>
<rect x="172.49583333333334" y="447.9752628605796" width="6.095833333333334" height="27.02473713942041" fill="#44aa44" opacity="0.35"/>
<rect x="183.57916666666668" y="451.3704005117185" width="6.095833333333334" height="23.629599488281492" fill="#44aa44" opacity="0.35"/>
<rect x="194.6625" y="457.4828554449067" width="6.095833333333334" height="17.517144555093278" fill="#44aa44" opacity="0.35"/>
<rect x="205.74583333333334" y="458.5169801901659" width="6.095833333333334" height="16.483019809834083" fill="#ff4444" opacity="0.35"/>
<rect x="216.82916666666668" y="456.7318017517422" width="6.095833333333334" height="18.268198248257825" fill="#ff4444" opacity="0.35"/>
<rect x="227.9125" y="456.93165645844454" width="6.095833333333334" height="18.068343541555457" fill="#44aa44" opacity="0.35"/>
<rect x="238.99583333333334" y="461.3904793580848" width="6.095833333333334" height="13.60952064191519" fill="#44aa44" opacity="0.35"/>
<rect x="250.07916666666668" y="462.2270157974546" width="6.095833333333334" height="12.772984202545414" fill="#ff4444" opacity="0.35"/>
<rect x="261.1625" y="452.0678468565735" width="6.095833333333334" height="22.93215314342652" fill="#ff4444" opacity="0.35"/>
<rect x="272.2458333333334" y="458.5280282460195" width="6.095833333333334" height="16.471971753980473" fill="#ff4444" opacity="0.35"/>
<rect x="283.3291666666667" y="461.6137236505689" width="6.095833333333334" height="13.386276349431085" fill="#ff4444" opacity="0.35"/>
<rect x="294.4125" y="456.48577663892144" width="6.095833333333334" height="18.51422336107855" fill="#ff4444" opacity="0.35"/>
<rect x="305.4958333333334" y="461.6487441332692" width="6.095833333333334" height="13.351255866730805" fill="#44aa44" opacity="0.35"/>
<rect x="316.5791666666667" y="461.1724138417821" width="6.095833333333334" height="13.827586158217912" fill="#ff4444" opacity="0.35"/>
<rect x="327.6625" y="461.8734847199786" width="6.095833333333334" height="13.126515280021387" fill="#44aa44" opacity="0.35"/>
<rect x="338.7458333333334" y="449.3627106782879" width="6.095833333333334" height="25.63728932171208" fill="#ff4444" opacity="0.35"/>
<rect x="349.8291666666667" y="455.7639436871224" width="6.095833333333334" height="19.236056312877626" fill="#ff4444" opacity="0.35"/>
<rect x="360.9125" y="453.81077831507423" width="6.095833333333334" height="21.18922168492577" fill="#ff4444" opacity="0.35"/>
<rect x="371.9958333333334" y="447.8245973778191" width="6.095833333333334" height="27.175402622180904" fill="#ff4444" opacity="0.35"/>
<rect x="383.0791666666667" y="444.54556648570025" width="6.095833333333334" height="30.45443351429974" fill="#44aa44" opacity="0.35"/>
<rect x="394.1625" y="453.40971564902424" width="6.095833333333334" height="21.59028435097578" fill="#ff4444" opacity="0.35"/>
<rect x="405.2458333333334" y="455.17547977662196" width="6.095833333333334" height="19.824520223378055" fill="#44aa44" opacity="0.35"/>
<rect x="416.3291666666667" y="456.15774081688306" width="6.095833333333334" height="18.842259183116944" fill="#44aa44" opacity="0.35"/>
<rect x="427.4125" y="461.75750087301986" width="6.095833333333334" height="13.24249912698016" fill="#44aa44" opacity="0.35"/>
<rect x="438.4958333333334" y="455.9803119190052" width="6.095833333333334" height="19.019688080994772" fill="#ff4444" opacity="0.35"/>
<rect x="449.5791666666667" y="451.6767629419429" width="6.095833333333334" height="23.323237058057067" fill="#44aa44" opacity="0.35"/>
<rect x="460.6625" y="457.2316393561963" width="6.095833333333334" height="17.768360643803703" fill="#ff4444" opacity="0.35"/>
<rect x="471.7458333333334" y="450.80134633715346" width="6.095833333333334" height="24.198653662846525" fill="#ff4444" opacity="0.35"/>
<rect x="482.8291666666667" y="441.37697558808736" width="6.095833333333334" height="33.623024411912624" fill="#ff4444" opacity="0.35"/>
<rect x="493.9125" y="448.5263114856367" width="6.095833333333334" height="26.473688514363268" fill="#44aa44" opacity="0.35"/>
<rect x="504.9958333333334" y="451.3389036097734" width="6.095833333333334" height="23.66109639022656" fill="#ff4444" opacity="0.35"/>
<rect x="516.0791666666667" y="455.6096567209474" width="6.095833333333334" height="19.39034327905259" fill="#ff4444" opacity="0.35"/>
<rect x="527.1624999999999" y="457.6588124479759" width="6.095833333333334" height="17.34118755202413" fill="#ff4444" opacity="0.35"/>
<rect x="538.2458333333333" y="450.53607313453256" width="6.095833333333334" height="24.46392686546742" fill="#ff4444" opacity="0.35"/>
<rect x="549.3291666666667" y="453.81314597346625" width="6.095833333333334" height="21.186854026533773" fill="#ff4444" opacity="0.35"/>
<rect x="560.4124999999999" y="453.38203725578296" width="6.095833333333334" height="21.61796274421703" fill="#ff4444" opacity="0.35"/>
<rect x="571.4958333333333" y="449.9349684962575" width="6.095833333333334" height="25.065031503742496" fill="#ff4444" opacity="0.35"/>
<rect x="582.5791666666667" y="451.50584136848244" width="6.095833333333334" height="23.49415863151759" fill="#ff4444" opacity="0.35"/>
<rect x="593.6624999999999" y="448.9911103078281" width="6.095833333333334" height="26.008889692171905" fill="#ff4444" opacity="0.35"/>
<rect x="604.7458333333333" y="450.8384529699763" width="6.095833333333334" height="24.161547030023712" fill="#ff4444" opacity="0.35"/>
<rect x="615.8291666666667" y="449.6752916048352" width="6.095833333333334" height="25.324708395164794" fill="#ff4444" opacity="0.35"/>
<rect x="626.9124999999999" y="447.31096068328543" width="6.095833333333334" height="27.689039316714553" fill="#44aa44" opacity="0.35"/>
<rect x="637.9958333333333" y="454.40933351930335" width="6.095833333333334" height="20.590666480696637" fill="#ff4444" opacity="0.35"/>
<rect x="649.0791666666667" y="449.50770299168744" width="6.095833333333334" height="25.492297008312587" fill="#ff4444" opacity="0.35"/>
<rect x="660.1624999999999" y="451.5931821302646" width="6.095833333333334" height="23.406817869735384" fill="#ff4444" opacity="0.35"/>
<rect x="671.2458333333333" y="447.5766111618861" width="6.095833333333334" height="27.423388838113897" fill="#44aa44" opacity="0.35"/>
<rect x="682.3291666666667" y="454.2503700999371" width="6.095833333333334" height="20.749629900062953" fill="#ff4444" opacity="0.35"/>
<rect x="693.4124999999999" y="452.4457892454029" width="6.095833333333334" height="22.554210754597097" fill="#ff4444" opacity="0.35"/>
<rect x="704.4958333333333" y="454.7237492819818" width="6.095833333333334" height="20.27625071801819" fill="#44aa44" opacity="0.35"/>
<rect x="715.5791666666667" y="457.8315334784134" width="6.095833333333334" height="17.168466521586573" fill="#ff4444" opacity="0.25" stroke-dasharray="3,2"/>
<polyline points="65.54166666666667,406.86133226416166 76.625,406.05697157149126 87.70833333333334,405.96678567564635 98.79166666666667,404.8536804746782 109.87500000000001,403.329186757829 120.95833333333334,401.44268559119223 132.04166666666666,401.4866199949071 143.125,395.79032393955674 154.20833333333334,388.0953000615049 165.29166666666666,377.6053169816451 176.375,377.83661642257266 187.45833333333334,381.9687452936096 198.54166666666666,387.80931798618207 209.625,388.54408930334887 220.70833333333334,388.4343225135906 231.79166666666666,389.34100222482306 242.875,392.9215899285253 253.95833333333334,394.67978458339053 265.0416666666667,391.04037493714475 276.12500000000006,389.67439547998583 287.20833333333337,389.129361005215 298.2916666666667,386.1335515126887 309.37500000000006,386.9150457590176 320.45833333333337,385.47632678109426 331.5416666666667,386.76939073528933 342.62500000000006,382.8857052846637 353.70833333333337,378.85604477403984 364.7916666666667,371.85530617293705 375.87500000000006,360.0000874610347 386.95833333333337,352.2940423079674 398.0416666666667,342.8350682419689 409.12500000000006,338.2328677257779 420.20833333333337,338.60154791700006 431.2916666666667,339.20564083788315 442.37500000000006,331.8426325825688 453.45833333333337,324.57937729381473 464.5416666666667,318.46485473290613 475.62500000000006,312.7944097134928 486.70833333333337,303.3762758152575 497.7916666666667,299.27660612324416 508.87500000000006,292.28769369401533 519.9583333333334,285.81495099772087 531.0416666666666,284.5197979826721 542.125,275.3129485453337 553.2083333333334,264.39275898401894 564.2916666666666,247.26287030956289 575.375,223.82872072606904 586.4583333333334,194.9925018674777 597.5416666666666,173.78670370980745 608.625,162.2307715245061 619.7083333333334,150.26370506315186 630.7916666666666,147.63100317687415 641.875,136.06998050537626 652.9583333333334,113.01396756757218 664.0416666666666,93.61417644241718 675.125,94.6476089317128 686.2083333333334,96.38223282504815 697.2916666666666,91.60831673797719 708.375,101.04685651825588 719.4583333333334,110.27878908498883" fill="none" stroke="#ffd700" stroke-width="1" opacity="0.7"/>
<polyline points="65.54166666666667,406.86133226416166 76.625,406.42259006815965 87.70833333333334,406.30692167103183 98.79166666666667,405.63793047134277 109.87500000000001,404.663797535486 120.95833333333334,403.3921403941101 132.04166666666666,403.06165828651496 143.125,399.66821711239515 154.20833333333334,394.76585987475994 165.29166666666666,387.83122186515374 176.375,386.0981297632034 187.45833333333334,386.84992490365437 198.54166666666666,389.1482046250494 209.625,389.30555504552814 220.70833333333334,389.10723393435467 231.79166666666666,389.4794389730698 242.875,391.4073164935898 253.95833333333334,392.6416542025955 265.0416666666667,391.02709082842415 276.12500000000006,390.28442641701395 287.20833333333337,389.8762201694975 298.2916666666667,388.106349689159 309.37500000000006,388.1739287005257 320.45833333333337,387.1602850868387 331.5416666666667,387.5594184608098 342.62500000000006,385.2974031740103 353.70833333333337,382.66091600651606 364.7916666666667,378.1505365454643 375.87500000000006,370.5394662712399 386.95833333333337,364.4199182222568 398.0416666666667,357.0557731109323 409.12500000000006,351.9598992168348 420.20833333333337,349.66517359549107 431.2916666666667,347.98311051988355 442.37500000000006,342.3710206202574 453.45833333333337,336.49499263772094 464.5416666666667,330.99332299651513 475.62500000000006,325.6224496652699 486.70833333333337,318.1529148204548 497.7916666666667,313.2300697147753 508.87500000000006,306.88094228219023 519.9583333333334,300.69703743181606 531.0416666666666,297.2847564355903 542.125,289.94193702378425 553.2083333333334,281.3256539033488 564.2916666666666,268.9033700955855 575.375,252.18647036167567 586.4583333333334,231.30166923233372 597.5416666666666,213.1332034436307 608.625,199.67605866368032 619.7083333333334,186.34033384127358 630.7916666666666,178.34492758000906 641.875,166.4545653222584 652.9583333333334,148.3540882985685 664.0416666666666,131.34690755193918 675.125,125.05010143527828 686.2083333333334,120.46853401281294 697.2916666666666,113.48525229481703 708.375,114.65592207372543 719.4583333333334,117.21714610003981" fill="none" stroke="#ff6b6b" stroke-width="1" opacity="0.7"/>
<polyline points="65.54166666666667,406.86133226416166 76.625,406.63151492339875 87.70833333333334,406.5510291101185 98.79166666666667,406.1773568208445 109.87500000000001,405.61572277353844 120.95833333333334,404.85895710538415 132.04166666666666,404.546150600332 143.125,402.6272535744772 154.20833333333334,399.7775391678985 165.29166666666666,395.66780694447255 176.375,394.0136553597064 187.45833333333334,393.65359323360894 198.54166666666666,394.20948562767734 209.625,393.8098805143445 220.70833333333334,393.27701464955686 231.79166666666666,393.07485722076933 242.875,393.7422770412608 253.95833333333334,394.1664576938189 265.0416666666667,393.1755146415174 276.12500000000006,392.5818881581032 287.20833333333337,392.1492599578718 298.2916666666667,391.00570496451604 309.37500000000006,390.764974420436 320.45833333333337,389.98725198279897 331.5416666666667,389.9270869028828 342.62500000000006,388.5167295200761 353.70833333333337,386.82910992319194 364.7916666666667,384.06955935629094 375.87500000000006,379.5190918020947 386.95833333333337,375.45841182111735 398.0416666666667,370.5497173724368 409.12500000000006,366.5953125458615 420.20833333333337,363.9994645223932 431.2916666666667,361.75321329927476 442.37500000000006,357.50210880143334 453.45833333333337,352.9831333647546 464.5416666666667,348.53100729297694 475.62500000000006,344.047437043614 486.70833333333337,338.38006285077336 497.7916666666667,333.8750346496728 508.87500000000006,328.58311409594756 519.9583333333334,323.27705233491747 531.0416666666666,319.339189441361 542.125,313.3925285108178 553.2083333333334,306.6458476870627 564.2916666666666,297.7274900940711 575.375,286.2258645193101 586.4583333333334,272.0443597222611 597.5416666666666,258.64728807199504 608.625,247.2636327464625 619.7083333333334,235.7461031649368 630.7916666666666,226.85272185440178 641.875,216.00464693135214 652.9583333333334,201.80438928950568 664.0416666666666,187.8053611849915 675.125,179.13003858740225 686.2083333333334,171.57969973257525 697.2916666666666,163.05406019269526 708.375,158.94642932470646 719.4583333333334,156.06987931458727" fill="none" stroke="#4ecdc4" stroke-width="1" opacity="0.7"/>
<line x1="65.54166666666667" y1="405.08442637035336" x2="65.54166666666667" y2="415.0" stroke="#ff4444" stroke-width="0.5" opacity="0.6"/>
<rect x="63.04791666666667" y="406.86133226416166" width="4.987500000000001" height="5.286843461824901" fill="#ff4444" opacity="0.8" rx="1"/>
<line x1="76.625" y1="400.10470244572997" x2="76.625" y2="410.9416346869809" stroke="#ff4444" stroke-width="0.5" opacity="0.6"/>
<rect x="74.13125" y="404.4482501861504" width="4.987500000000001" height="6.493384500830473" fill="#ff4444" opacity="0.8" rx="1"/>
<line x1="87.70833333333334" y1="396.37539377971245" x2="87.70833333333334" y2="406.1593447505584" stroke="#44aa44" stroke-width="0.5" opacity="0.6"/>
<rect x="85.21458333333334" y="401.85967122973824" width="4.987500000000001" height="3.926742654218458" fill="#44aa44" opacity="0.8" rx="1"/>
<line x1="98.79166666666667" y1="397.45031215991753" x2="98.79166666666667" y2="412.27979838478717" stroke="#ff4444" stroke-width="0.5" opacity="0.6"/>
<rect x="96.29791666666667" y="402.62747007274186" width="4.987500000000001" height="9.652328312045313" fill="#ff4444" opacity="0.8" rx="1"/>
<line x1="109.87500000000001" y1="392.7557706626954" x2="109.87500000000001" y2="408.1556217423678" stroke="#44aa44" stroke-width="0.5" opacity="0.6"/>
<rect x="107.38125000000001" y="399.79758290852857" width="4.987500000000001" height="0.5" fill="#44aa44" opacity="0.8" rx="1"/>
<line x1="120.95833333333334" y1="391.76860072169075" x2="120.95833333333334" y2="403.6585142333467" stroke="#ff4444" stroke-width="0.5" opacity="0.6"/>
<rect x="118.46458333333334" y="397.6696832579185" width="4.987500000000001" height="2.610516066212199" fill="#ff4444" opacity="0.8" rx="1"/>
<line x1="132.04166666666666" y1="400.4118219829314" x2="132.04166666666666" y2="414.7367546823987" stroke="#ff4444" stroke-width="0.5" opacity="0.6"/>
<rect x="129.54791666666665" y="401.5744888023369" width="4.987500000000001" height="0.833610172403894" fill="#ff4444" opacity="0.8" rx="1"/>
<line x1="143.125" y1="384.39773182885614" x2="143.125" y2="400.12663955553" stroke="#ff4444" stroke-width="0.5" opacity="0.6"/>
<rect x="140.63125" y="384.39773182885614" width="4.987500000000001" height="15.728907726673867" fill="#ff4444" opacity="0.8" rx="1"/>
<line x1="154.20833333333334" y1="369.21725184718485" x2="154.20833333333334" y2="378.1675926456269" stroke="#ff4444" stroke-width="0.5" opacity="0.6"/>
<rect x="151.71458333333334" y="372.7052523054012" width="4.987500000000001" height="1.7769058938083049" fill="#ff4444" opacity="0.8" rx="1"/>
<line x1="165.29166666666666" y1="352.6327968383069" x2="165.29166666666666" y2="372.5955667564006" stroke="#ff4444" stroke-width="0.5" opacity="0.6"/>
<rect x="162.79791666666665" y="356.6253508219256" width="4.987500000000001" height="15.970215934474993" fill="#ff4444" opacity="0.8" rx="1"/>
<line x1="176.375" y1="365.02726387536507" x2="176.375" y2="378.2992153044275" stroke="#44aa44" stroke-width="0.5" opacity="0.6"/>
<rect x="173.88125" y="369.1733776275846" width="4.987500000000001" height="9.125837676842877" fill="#44aa44" opacity="0.8" rx="1"/>
<line x1="187.45833333333334" y1="386.28432327166496" x2="187.45833333333334" y2="395.2127269603069" stroke="#44aa44" stroke-width="0.5" opacity="0.6"/>
<rect x="184.96458333333334" y="388.03929205567323" width="4.987500000000001" height="2.193710980010337" fill="#44aa44" opacity="0.8" rx="1"/>
<line x1="198.54166666666666" y1="389.2238959848789" x2="198.54166666666666" y2="401.2015579357351" stroke="#44aa44" stroke-width="0.5" opacity="0.6"/>
<rect x="196.04791666666665" y="390.01363193768253" width="4.987500000000001" height="9.47683143364452" fill="#44aa44" opacity="0.8" rx="1"/>
<line x1="209.625" y1="389.64070107108085" x2="209.625" y2="396.4850793287129" stroke="#ff4444" stroke-width="0.5" opacity="0.6"/>
<rect x="207.13125" y="390.01363193768253" width="4.987500000000001" height="5.70364854802682" fill="#ff4444" opacity="0.8" rx="1"/>
<line x1="220.70833333333334" y1="383.32281344865106" x2="220.70833333333334" y2="393.940374591901" stroke="#ff4444" stroke-width="0.5" opacity="0.6"/>
<rect x="218.21458333333334" y="388.2147889340741" width="4.987500000000001" height="5.2210321324245115" fill="#ff4444" opacity="0.8" rx="1"/>
<line x1="231.79166666666666" y1="381.45815911564233" x2="231.79166666666666" y2="391.30792141588864" stroke="#44aa44" stroke-width="0.5" opacity="0.6"/>
<rect x="229.29791666666665" y="382.7743857036485" width="4.987500000000001" height="8.379975943639465" fill="#44aa44" opacity="0.8" rx="1"/>
<line x1="242.875" y1="391.57116673348986" x2="242.875" y2="401.2015579357351" stroke="#44aa44" stroke-width="0.5" opacity="0.6"/>
<rect x="240.38125" y="397.8232430265192" width="4.987500000000001" height="2.25952230941067" fill="#44aa44" opacity="0.8" rx="1"/>
<line x1="253.95833333333334" y1="396.70445042671395" x2="253.95833333333334" y2="405.2160490291539" stroke="#ff4444" stroke-width="0.5" opacity="0.6"/>
<rect x="251.46458333333334" y="398.196173893121" width="4.987500000000001" height="0.811673062603802" fill="#ff4444" opacity="0.8" rx="1"/>
<line x1="265.0416666666667" y1="380.66842316283856" x2="265.0416666666667" y2="392.42671401569385" stroke="#ff4444" stroke-width="0.5" opacity="0.6"/>
<rect x="262.5479166666667" y="383.7615556446532" width="4.987500000000001" height="7.831548198636767" fill="#ff4444" opacity="0.8" rx="1"/>
<line x1="276.12500000000006" y1="379.3302594650323" x2="276.12500000000006" y2="388.3244744830746" stroke="#ff4444" stroke-width="0.5" opacity="0.6"/>
<rect x="273.6312500000001" y="386.9424365656681" width="4.987500000000001" height="0.5045535254024003" fill="#ff4444" opacity="0.8" rx="1"/>
<line x1="287.20833333333337" y1="383.6518700956526" x2="287.20833333333337" y2="394.88367031330546" stroke="#ff4444" stroke-width="0.5" opacity="0.6"/>
<rect x="284.7145833333334" y="388.03929205567323" width="4.987500000000001" height="2.0620883212097283" fill="#ff4444" opacity="0.8" rx="1"/>
<line x1="298.2916666666667" y1="376.4126238616186" x2="298.2916666666667" y2="390.6717452316856" stroke="#ff4444" stroke-width="0.5" opacity="0.6"/>
<rect x="295.7979166666667" y="380.14193252763613" width="4.987500000000001" height="9.674265421845462" fill="#ff4444" opacity="0.8" rx="1"/>
<line x1="309.37500000000006" y1="382.1601466292456" x2="309.37500000000006" y2="389.48714130248004" stroke="#44aa44" stroke-width="0.5" opacity="0.6"/>
<rect x="306.8812500000001" y="382.1601466292456" width="4.987500000000001" height="6.31788762242968" fill="#44aa44" opacity="0.8" rx="1"/>
<line x1="320.45833333333337" y1="378.1675926456269" x2="320.45833333333337" y2="386.28432327166496" stroke="#ff4444" stroke-width="0.5" opacity="0.6"/>
<rect x="317.9645833333334" y="382.5988888252476" width="4.987500000000001" height="0.8336101724040077" fill="#ff4444" opacity="0.8" rx="1"/>
<line x1="331.5416666666667" y1="379.37413368463257" x2="331.5416666666667" y2="390.4523741336846" stroke="#44aa44" stroke-width="0.5" opacity="0.6"/>
<rect x="329.0479166666667" y="385.1655306718597" width="4.987500000000001" height="4.189987971819733" fill="#44aa44" opacity="0.8" rx="1"/>
<line x1="342.62500000000006" y1="371.69614525459644" x2="342.62500000000006" y2="386.9424365656681" stroke="#ff4444" stroke-width="0.5" opacity="0.6"/>
<rect x="340.1312500000001" y="375.11833438341256" width="4.987500000000001" height="11.780227962655374" fill="#ff4444" opacity="0.8" rx="1"/>
<line x1="353.70833333333337" y1="358.8629360215361" x2="353.70833333333337" y2="371.80583080359696" stroke="#ff4444" stroke-width="0.5" opacity="0.6"/>
<rect x="351.2145833333334" y="370.79672375279216" width="4.987500000000001" height="0.7897359528037668" fill="#ff4444" opacity="0.8" rx="1"/>
<line x1="364.7916666666667" y1="356.05498596712295" x2="364.7916666666667" y2="367.0235408671745" stroke="#ff4444" stroke-width="0.5" opacity="0.6"/>
<rect x="362.2979166666667" y="357.8538289707314" width="4.987500000000001" height="5.835271206827429" fill="#ff4444" opacity="0.8" rx="1"/>
<line x1="375.87500000000006" y1="336.28965003723005" x2="375.87500000000006" y2="362.61418179735375" stroke="#ff4444" stroke-width="0.5" opacity="0.6"/>
<rect x="373.3812500000001" y="336.28965003723005" width="4.987500000000001" height="26.236783320923337" fill="#ff4444" opacity="0.8" rx="1"/>
<line x1="386.95833333333337" y1="327.4928690073887" x2="386.95833333333337" y2="340.742883326651" stroke="#44aa44" stroke-width="0.5" opacity="0.6"/>
<rect x="384.4645833333334" y="328.3264791797926" width="4.987500000000001" height="8.555472822040258" fill="#44aa44" opacity="0.8" rx="1"/>
<line x1="398.0416666666667" y1="319.20064150294974" x2="398.0416666666667" y2="338.04461882123826" stroke="#ff4444" stroke-width="0.5" opacity="0.6"/>
<rect x="395.5479166666667" y="323.91712010997185" width="4.987500000000001" height="14.127498711266412" fill="#ff4444" opacity="0.8" rx="1"/>
<line x1="409.12500000000006" y1="322.53508219256537" x2="409.12500000000006" y2="331.6609198694083" stroke="#44aa44" stroke-width="0.5" opacity="0.6"/>
<rect x="406.6312500000001" y="324.42167363537425" width="4.987500000000001" height="4.606793058021651" fill="#44aa44" opacity="0.8" rx="1"/>
<line x1="420.20833333333337" y1="326.4837619565839" x2="420.20833333333337" y2="341.75199037745574" stroke="#44aa44" stroke-width="0.5" opacity="0.6"/>
<rect x="417.7145833333334" y="328.5897244973939" width="4.987500000000001" height="10.749183802050482" fill="#44aa44" opacity="0.8" rx="1"/>
<line x1="431.2916666666667" y1="335.71928518242737" x2="431.2916666666667" y2="341.07193997365255" stroke="#44aa44" stroke-width="0.5" opacity="0.6"/>
<rect x="428.7979166666667" y="338.24205280943926" width="4.987500000000001" height="2.171773870210245" fill="#44aa44" opacity="0.8" rx="1"/>
<line x1="442.37500000000006" y1="317.11661607194" x2="442.37500000000006" y2="331.8583538576092" stroke="#ff4444" stroke-width="0.5" opacity="0.6"/>
<rect x="439.8812500000001" y="317.11661607194" width="4.987500000000001" height="12.811272123260153" fill="#ff4444" opacity="0.8" rx="1"/>
<line x1="453.45833333333337" y1="297.74614811844896" x2="453.45833333333337" y2="311.52265307291367" stroke="#44aa44" stroke-width="0.5" opacity="0.6"/>
<rect x="450.9645833333334" y="305.77513030528667" width="4.987500000000001" height="4.277736411020101" fill="#44aa44" opacity="0.8" rx="1"/>
<line x1="464.5416666666667" y1="302.90136892147314" x2="464.5416666666667" y2="318.0818489031445" stroke="#ff4444" stroke-width="0.5" opacity="0.6"/>
<rect x="462.0479166666667" y="306.23580961108877" width="4.987500000000001" height="6.120453634228795" fill="#ff4444" opacity="0.8" rx="1"/>
<line x1="475.62500000000006" y1="297.87777077724957" x2="475.62500000000006" y2="309.0656967753021" stroke="#ff4444" stroke-width="0.5" opacity="0.6"/>
<rect x="473.1312500000001" y="301.4535196746663" width="4.987500000000001" height="5.418466120625453" fill="#ff4444" opacity="0.8" rx="1"/>
<line x1="486.70833333333337" y1="277.2788246749527" x2="486.70833333333337" y2="302.46262672547107" stroke="#ff4444" stroke-width="0.5" opacity="0.6"/>
<rect x="484.2145833333334" y="284.5400080187868" width="4.987500000000001" height="14.983045993470455" fill="#ff4444" opacity="0.8" rx="1"/>
<line x1="497.7916666666667" y1="275.7871012085458" x2="497.7916666666667" y2="303.58141932527633" stroke="#44aa44" stroke-width="0.5" opacity="0.6"/>
<rect x="495.2979166666667" y="288.8835557592073" width="4.987500000000001" height="2.1937109800102803" fill="#44aa44" opacity="0.8" rx="1"/>
<line x1="508.87500000000006" y1="263.085514634286" x2="508.87500000000006" y2="287.5673291712011" stroke="#ff4444" stroke-width="0.5" opacity="0.6"/>
<rect x="506.3812500000001" y="278.30986883555755" width="4.987500000000001" height="6.976000916432781" fill="#ff4444" opacity="0.8" rx="1"/>
<line x1="519.9583333333334" y1="264.1165587948908" x2="519.9583333333334" y2="287.128586975199" stroke="#ff4444" stroke-width="0.5" opacity="0.6"/>
<rect x="517.4645833333334" y="272.86946560513206" width="4.987500000000001" height="11.144051778452308" fill="#ff4444" opacity="0.8" rx="1"/>
<line x1="531.0416666666666" y1="272.21135231112885" x2="531.0416666666666" y2="290.6385245432155" stroke="#ff4444" stroke-width="0.5" opacity="0.6"/>
<rect x="528.5479166666667" y="281.92949195257455" width="4.987500000000001" height="0.745861733203526" fill="#ff4444" opacity="0.8" rx="1"/>
<line x1="542.125" y1="252.77507302823756" x2="542.125" y2="277.23495045535253" stroke="#ff4444" stroke-width="0.5" opacity="0.6"/>
<rect x="539.63125" y="256.8992496706569" width="4.987500000000001" height="19.21690818489037" fill="#ff4444" opacity="0.8" rx="1"/>
<line x1="553.2083333333334" y1="226.14342173091242" x2="553.2083333333334" y2="250.58136204822728" stroke="#ff4444" stroke-width="0.5" opacity="0.6"/>
<rect x="550.7145833333334" y="242.55237986138954" width="4.987500000000001" height="8.028982186837737" fill="#ff4444" opacity="0.8" rx="1"/>
<line x1="564.2916666666666" y1="209.47121828283406" x2="564.2916666666666" y2="250.91041869522883" stroke="#ff4444" stroke-width="0.5" opacity="0.6"/>
<rect x="561.7979166666667" y="213.00309296065066" width="4.987500000000001" height="25.425110258319506" fill="#ff4444" opacity="0.8" rx="1"/>
<line x1="575.375" y1="176.96042155908128" x2="575.375" y2="225.39755999770895" stroke="#ff4444" stroke-width="0.5" opacity="0.6"/>
<rect x="572.88125" y="176.96042155908128" width="4.987500000000001" height="45.453691505813595" fill="#ff4444" opacity="0.8" rx="1"/>
<line x1="586.4583333333334" y1="137.320064150295" x2="586.4583333333334" y2="171.91488630505754" stroke="#ff4444" stroke-width="0.5" opacity="0.6"/>
<rect x="583.9645833333334" y="137.320064150295" width="4.987500000000001" height="23.670141474311237" fill="#ff4444" opacity="0.8" rx="1"/>
<line x1="597.5416666666666" y1="115.36101724039176" x2="597.5416666666666" y2="146.07297096053608" stroke="#ff4444" stroke-width="0.5" opacity="0.6"/>
<rect x="595.0479166666667" y="131.37510739446702" width="4.987500000000001" height="3.2905664700155057" fill="#ff4444" opacity="0.8" rx="1"/>
<line x1="608.625" y1="126.5489432384444" x2="608.625" y2="154.01420470817342" stroke="#ff4444" stroke-width="0.5" opacity="0.6"/>
<rect x="606.13125" y="139.11890715390342" width="4.987500000000001" height="4.2996735208202495" fill="#ff4444" opacity="0.8" rx="1"/>
<line x1="619.7083333333334" y1="106.58617332035051" x2="619.7083333333334" y2="143.41858067472367" stroke="#ff4444" stroke-width="0.5" opacity="0.6"/>
<rect x="617.2145833333334" y="126.32957214044332" width="4.987500000000001" height="10.617561143249915" fill="#ff4444" opacity="0.8" rx="1"/>
<line x1="630.7916666666666" y1="126.35150925024345" x2="630.7916666666666" y2="170.8619050346526" stroke="#44aa44" stroke-width="0.5" opacity="0.6"/>
<rect x="628.2979166666667" y="134.66567386448253" width="4.987500000000001" height="7.699925539836158" fill="#44aa44" opacity="0.8" rx="1"/>
<line x1="641.875" y1="102.13294003092959" x2="641.875" y2="145.63422876453404" stroke="#ff4444" stroke-width="0.5" opacity="0.6"/>
<rect x="639.38125" y="112.94793516238043" width="4.987500000000001" height="32.68629360215361" fill="#ff4444" opacity="0.8" rx="1"/>
<line x1="652.9583333333334" y1="66.90194169196408" x2="652.9583333333334" y2="128.0626038146515" stroke="#ff4444" stroke-width="0.5" opacity="0.6"/>
<rect x="650.4645833333334" y="66.90194169196408" width="4.987500000000001" height="46.923477862420484" fill="#ff4444" opacity="0.8" rx="1"/>
<line x1="664.0416666666666" y1="32.0" x2="664.0416666666666" y2="77.10269774901198" stroke="#ff4444" stroke-width="0.5" opacity="0.6"/>
<rect x="661.5479166666667" y="54.814594192107236" width="4.987500000000001" height="16.211524142276218" fill="#ff4444" opacity="0.8" rx="1"/>
<line x1="675.125" y1="65.25665845695634" x2="675.125" y2="106.67392175955098" stroke="#44aa44" stroke-width="0.5" opacity="0.6"/>
<rect x="672.63125" y="68.52528781717166" width="4.987500000000001" height="28.189186093132463" fill="#44aa44" opacity="0.8" rx="1"/>
<line x1="686.2083333333334" y1="92.59029726788475" x2="686.2083333333334" y2="112.72856406437941" stroke="#ff4444" stroke-width="0.5" opacity="0.6"/>
<rect x="683.7145833333334" y="99.85148061171888" width="4.987500000000001" height="6.295950512629602" fill="#ff4444" opacity="0.8" rx="1"/>
<line x1="697.2916666666666" y1="76.97107509021134" x2="697.2916666666666" y2="127.86516982645055" stroke="#ff4444" stroke-width="0.5" opacity="0.6"/>
<rect x="694.7979166666667" y="82.0604845638353" width="4.987500000000001" height="24.086946560513184" fill="#ff4444" opacity="0.8" rx="1"/>
<line x1="708.375" y1="93.86264963629077" x2="708.375" y2="123.25837676842893" stroke="#44aa44" stroke-width="0.5" opacity="0.6"/>
<rect x="705.88125" y="94.78400824789506" width="4.987500000000001" height="25.139927830918168" fill="#44aa44" opacity="0.8" rx="1"/>
<line x1="719.4583333333334" y1="104.56795921874107" x2="719.4583333333334" y2="134.4463027664815" stroke="#ff4444" stroke-width="0.5" opacity="0.3" stroke-dasharray="4,3"/>
<rect x="716.9645833333334" y="128.7426542184547" width="4.987500000000001" height="1.5355976860072076" fill="#ff4444" opacity="0.4" stroke-dasharray="4,3" rx="1"/>
<text x="739.4583333333334" y="122.7426542184547" font-family="sans-serif" font-size="9" fill="#ffd700" opacity="0.8">🕐 盘中</text>
<line x1="420.20833333333337" y1="341.75199037745574" x2="420.20833333333337" y2="306.75199037745574" stroke="#4ecdc4" stroke-width="0.8" stroke-dasharray="2,2" opacity="0.7"/>
<rect x="384.20833333333337" y="297.75199037745574" width="72" height="16" fill="#4ecdc4" opacity="0.85" rx="3"/>
<text x="420.20833333333337" y="309.75199037745574" text-anchor="middle" font-family="sans-serif" font-size="9" fill="#000000" font-weight="bold">B1乖离买入</text>
<polygon points="420.20833333333337,347.75199037745574 416.20833333333337,341.75199037745574 424.20833333333337,341.75199037745574" fill="#4ecdc4" opacity="0.9"/>
<line x1="531.0416666666666" y1="290.6385245432155" x2="531.0416666666666" y2="240.6385245432155" stroke="#4ecdc4" stroke-width="0.8" stroke-dasharray="2,2" opacity="0.7"/>
<rect x="495.04166666666663" y="231.6385245432155" width="72" height="16" fill="#4ecdc4" opacity="0.85" rx="3"/>
<text x="531.0416666666666" y="243.6385245432155" text-anchor="middle" font-family="sans-serif" font-size="9" fill="#000000" font-weight="bold">B2乖离买入</text>
<polygon points="531.0416666666666,296.6385245432155 527.0416666666666,290.6385245432155 535.0416666666666,290.6385245432155" fill="#4ecdc4" opacity="0.9"/>
<line x1="630.7916666666666" y1="170.8619050346526" x2="630.7916666666666" y2="105.86190503465261" stroke="#4ecdc4" stroke-width="0.8" stroke-dasharray="2,2" opacity="0.7"/>
<rect x="594.7916666666666" y="96.86190503465261" width="72" height="16" fill="#4ecdc4" opacity="0.85" rx="3"/>
<text x="630.7916666666666" y="108.86190503465261" text-anchor="middle" font-family="sans-serif" font-size="9" fill="#000000" font-weight="bold">B3乖离买入</text>
<polygon points="630.7916666666666,176.8619050346526 626.7916666666666,170.8619050346526 634.7916666666666,170.8619050346526" fill="#4ecdc4" opacity="0.9"/>
<line x1="675.125" y1="106.67392175955098" x2="675.125" y2="26.67392175955098" stroke="#4ecdc4" stroke-width="0.8" stroke-dasharray="2,2" opacity="0.7"/>
<rect x="639.125" y="17.67392175955098" width="72" height="16" fill="#4ecdc4" opacity="0.85" rx="3"/>
<text x="675.125" y="29.67392175955098" text-anchor="middle" font-family="sans-serif" font-size="9" fill="#000000" font-weight="bold">B4乖离买入</text>
<polygon points="675.125,112.67392175955098 671.125,106.67392175955098 679.125,106.67392175955098" fill="#4ecdc4" opacity="0.9"/>
<line x1="697.2916666666666" y1="127.86516982645055" x2="697.2916666666666" y2="32.865169826450554" stroke="#4ecdc4" stroke-width="0.8" stroke-dasharray="2,2" opacity="0.7"/>
<rect x="661.2916666666666" y="23.865169826450554" width="72" height="16" fill="#4ecdc4" opacity="0.85" rx="3"/>
<text x="697.2916666666666" y="35.865169826450554" text-anchor="middle" font-family="sans-serif" font-size="9" fill="#000000" font-weight="bold">B5乖离买入</text>
<polygon points="697.2916666666666,133.86516982645054 693.2916666666666,127.86516982645055 701.2916666666666,127.86516982645055" fill="#4ecdc4" opacity="0.9"/>
<line x1="398.0416666666667" y1="319.20064150294974" x2="398.0416666666667" y2="338.20064150294974" stroke="#e94560" stroke-width="0.8" stroke-dasharray="2,2" opacity="0.7"/>
<rect x="364.0416666666667" y="345.20064150294974" width="68" height="16" fill="#e94560" opacity="0.85" rx="3"/>
<text x="398.0416666666667" y="357.20064150294974" text-anchor="middle" font-family="sans-serif" font-size="9" fill="#ffffff" font-weight="bold">W1警戒⚠️</text>
<polygon points="398.0416666666667,313.20064150294974 394.0416666666667,319.20064150294974 402.0416666666667,319.20064150294974" fill="#e94560" opacity="0.9"/>
<line x1="564.2916666666666" y1="209.47121828283406" x2="564.2916666666666" y2="243.47121828283406" stroke="#e94560" stroke-width="0.8" stroke-dasharray="2,2" opacity="0.7"/>
<rect x="530.2916666666666" y="250.47121828283406" width="68" height="16" fill="#e94560" opacity="0.85" rx="3"/>
<text x="564.2916666666666" y="262.47121828283406" text-anchor="middle" font-family="sans-serif" font-size="9" fill="#ffffff" font-weight="bold">W2警戒⚠️</text>
<polygon points="564.2916666666666,203.47121828283406 560.2916666666666,209.47121828283406 568.2916666666666,209.47121828283406" fill="#e94560" opacity="0.9"/>
<line x1="652.9583333333334" y1="66.90194169196408" x2="652.9583333333334" y2="115.90194169196408" stroke="#e94560" stroke-width="0.8" stroke-dasharray="2,2" opacity="0.7"/>
<rect x="618.9583333333334" y="122.90194169196408" width="68" height="16" fill="#e94560" opacity="0.85" rx="3"/>
<text x="652.9583333333334" y="134.90194169196408" text-anchor="middle" font-family="sans-serif" font-size="9" fill="#ffffff" font-weight="bold">W3警戒⚠️</text>
<polygon points="652.9583333333334,60.90194169196408 648.9583333333334,66.90194169196408 656.9583333333334,66.90194169196408" fill="#e94560" opacity="0.9"/>
<text x="375.0" y="435" text-anchor="middle" font-family="sans-serif" font-size="10" fill="#aaaaaa">✅ BIAS5=-3.99%，乖离率买入区，可逢低吸纳</text>
<rect x="60" y="443" width="665" height="55" fill="#111122" opacity="0.5" rx="2"/>
<rect x="60" y="443" width="665" height="19.220380017473985" fill="#e94560" opacity="0.18" rx="2"/>
<rect x="60" y="462.220380017474" width="665" height="7.709714986894539" fill="#ffd700" opacity="0.12"/>
<rect x="60" y="469.9300950043685" width="665" height="30.069904995631475" fill="#4ecdc4" opacity="0.14"/>
<text x="670" y="455.610190008737" text-anchor="end" font-family="sans-serif" font-size="9" fill="#e94560" font-weight="bold">⚠️ 警戒区</text>
<text x="670" y="469.0752375109213" text-anchor="end" font-family="sans-serif" font-size="9" fill="#ffd700">持有区</text>
<text x="670" y="487.96504750218423" text-anchor="end" font-family="sans-serif" font-size="9" fill="#4ecdc4">买入区</text>
<line x1="60" y1="472.5" x2="725" y2="472.5" stroke="#888888" stroke-width="0.5" stroke-dasharray="3,2" opacity="0.5"/>
<text x="56" y="475.5" text-anchor="end" font-family="sans-serif" font-size="7" fill="#888888">0%</text>
<line x1="60" y1="469.9300950043685" x2="725" y2="469.9300950043685" stroke="#4ecdc4" stroke-width="0.5" stroke-dasharray="3,2" opacity="0.5"/>
<text x="56" y="472.9300950043685" text-anchor="end" font-family="sans-serif" font-size="7" fill="#4ecdc4">2%</text>
<line x1="60" y1="462.220380017474" x2="725" y2="462.220380017474" stroke="#e94560" stroke-width="0.5" stroke-dasharray="3,2" opacity="0.5"/>
<text x="56" y="465.220380017474" text-anchor="end" font-family="sans-serif" font-size="7" fill="#e94560">8%</text>
<text x="60" y="445" font-family="sans-serif" font-size="8" fill="#888888">BIAS5</text>
<polyline points="65.54166666666667,472.5 76.625,471.2647926701063 87.70833333333334,472.36158165101045 98.79166666666667,470.8028753975488 109.87500000000001,470.1964755681727 120.95833333333334,469.68074981698516 132.04166666666666,472.5656738150003 143.125,464.25816802735335 154.20833333333334,461.82858125786385 165.29166666666666,458.73191601752575 176.375,472.80393914149374 187.45833333333334,478.04702632074844 198.54166666666666,480.5871950712559 209.625,473.52145075302525 220.70833333333334,472.3474969932777 231.79166666666666,473.7658881792183 242.875,477.5983211744412 253.95833333333334,475.0280823770212 265.0416666666667,467.37137933508524 276.12500000000006,470.589386029082 287.20833333333337,471.73990766576094 298.2916666666667,468.3889473749111 309.37500000000006,473.5769132685448 320.45833333333337,470.5325968552316 331.5416666666667,474.280475029064 342.62500000000006,467.2613955242805 353.70833333333337,467.1770765722567 364.7916666666667,463.57367687397215 375.87500000000006,458.2236763117992 386.95833333333337,463.54361579097394 398.0416666666667,461.95727139780416 409.12500000000006,467.47088636555947 420.20833333333337,472.90351258745744 431.2916666666667,473.1628721774519 442.37500000000006,464.666823376178 453.45833333333337,464.99849731510955 464.5416666666667,466.336370819203 475.62500000000006,466.908383598343 486.70833333333337,463.53671204118274 497.7916666666667,468.65667272748215 508.87500000000006,466.1109740643861 519.9583333333334,466.7160141299475 531.0416666666666,471.3478512865637 542.125,464.5626865234153 553.2083333333334,463.41829210982036 564.2916666666666,459.0022653914996 575.375,455.2725600250842 586.4583333333334,452.9166666666667 597.5416666666666,458.86286282184176 608.625,465.2774071143717 619.7083333333334,465.2319749531751 630.7916666666666,470.91095318725127 641.875,465.7064587494372 652.9583333333334,459.6302025217245 664.0416666666666,462.10894634297074 675.125,473.0547292734161 686.2083333333334,473.4345029413244 697.2916666666666,469.95360685346765 708.375,477.635087326718 719.4583333333334,477.62280282260457" fill="none" stroke="#4ecdc4" stroke-width="1.5" opacity="0.9"/>
<circle cx="719.4583333333334" cy="477.62280282260457" r="3" fill="#4ecdc4" opacity="1"/>
<text x="724.4583333333334" y="480.62280282260457" font-family="sans-serif" font-size="9" fill="#4ecdc4" font-weight="bold">BIAS5=-4.0%</text>
<text x="65.54166666666667" y="489" text-anchor="middle" font-family="sans-serif" font-size="8" fill="#666666" transform="rotate(-45,65.54166666666667,489)">02/27</text>
<text x="120.95833333333334" y="489" text-anchor="middle" font-family="sans-serif" font-size="8" fill="#666666" transform="rotate(-45,120.95833333333334,489)">03/06</text>
<text x="176.375" y="489" text-anchor="middle" font-family="sans-serif" font-size="8" fill="#666666" transform="rotate(-45,176.375,489)">03/13</text>
<text x="231.79166666666666" y="489" text-anchor="middle" font-family="sans-serif" font-size="8" fill="#666666" transform="rotate(-45,231.79166666666666,489)">03/20</text>
<text x="287.20833333333337" y="489" text-anchor="middle" font-family="sans-serif" font-size="8" fill="#666666" transform="rotate(-45,287.20833333333337,489)">03/27</text>
<text x="342.62500000000006" y="489" text-anchor="middle" font-family="sans-serif" font-size="8" fill="#666666" transform="rotate(-45,342.62500000000006,489)">04/03</text>
<text x="398.0416666666667" y="489" text-anchor="middle" font-family="sans-serif" font-size="8" fill="#666666" transform="rotate(-45,398.0416666666667,489)">04/13</text>
<text x="453.45833333333337" y="489" text-anchor="middle" font-family="sans-serif" font-size="8" fill="#666666" transform="rotate(-45,453.45833333333337,489)">04/20</text>
<text x="508.87500000000006" y="489" text-anchor="middle" font-family="sans-serif" font-size="8" fill="#666666" transform="rotate(-45,508.87500000000006,489)">04/27</text>
<text x="564.2916666666666" y="489" text-anchor="middle" font-family="sans-serif" font-size="8" fill="#666666" transform="rotate(-45,564.2916666666666,489)">05/07</text>
<text x="619.7083333333334" y="489" text-anchor="middle" font-family="sans-serif" font-size="8" fill="#666666" transform="rotate(-45,619.7083333333334,489)">05/14</text>
<text x="675.125" y="489" text-anchor="middle" font-family="sans-serif" font-size="8" fill="#666666" transform="rotate(-45,675.125,489)">05/21</text>
<text x="719.4583333333334" y="489" text-anchor="middle" font-family="sans-serif" font-size="8" fill="#666666" transform="rotate(-45,719.4583333333334,489)">05/27</text>
<rect x="60" y="484" width="8" height="8" fill="#4ecdc4" opacity="0.8" rx="1"/>
<text x="71" y="491" font-family="sans-serif" font-size="9" fill="#888888">买入区(BIAS&lt;2%)</text>
<rect x="230" y="484" width="8" height="8" fill="#ffd700" opacity="0.8" rx="1"/>
<text x="241" y="491" font-family="sans-serif" font-size="9" fill="#888888">持有区(2-8%)</text>
<rect x="400" y="484" width="8" height="8" fill="#e94560" opacity="0.8" rx="1"/>
<text x="411" y="491" font-family="sans-serif" font-size="9" fill="#888888">警戒区(&gt;8%)</text>
<rect x="570" y="484" width="8" height="8" fill="#ffd700" opacity="0.8" rx="1"/>
<text x="581" y="491" font-family="sans-serif" font-size="9" fill="#888888">EMA5</text>
<rect x="60" y="497" width="8" height="8" fill="#ff6b6b" opacity="0.8" rx="1"/>
<text x="71" y="504" font-family="sans-serif" font-size="9" fill="#888888">EMA10</text>
<rect x="230" y="497" width="8" height="8" fill="#4ecdc4" opacity="0.8" rx="1"/>
<text x="241" y="504" font-family="sans-serif" font-size="9" fill="#888888">EMA20</text>
<rect x="400" y="497" width="8" height="8" fill="#4ecdc4" opacity="0.8" rx="1"/>
<text x="411" y="504" font-family="sans-serif" font-size="9" fill="#888888">B乖离买入</text>
<rect x="570" y="497" width="8" height="8" fill="#e94560" opacity="0.8" rx="1"/>
<text x="581" y="504" font-family="sans-serif" font-size="9" fill="#888888">W警戒⚠️</text>
</svg>