<svg xmlns="http://www.w3.org/2000/svg" width="750" height="540" viewBox="0 0 750 540">
<rect width="750" height="540" fill="#1a1a2e"/>
<text x="375.0" y="22" text-anchor="middle" font-family="sans-serif" font-size="15" fill="#ffffff" font-weight="bold">华工科技(000988) 趋势交易分析图</text>
<text x="60" y="31" font-family="sans-serif" font-size="10" fill="#888888">最新: 171.94</text>
<line x1="60" y1="70.39013060371778" x2="725" y2="70.39013060371778" stroke="#4ecdc4" stroke-width="0.5" stroke-dasharray="4,3" opacity="0.4"/>
<text x="62" y="68.39013060371778" font-family="sans-serif" font-size="7" fill="#4ecdc4" opacity="0.6">买入↑2%</text>
<rect x="60" y="70.39013060371778" width="3" height="312.6098693962822" fill="#4ecdc4" opacity="0.3" rx="1"/>
<rect x="60" y="32" width="3" height="38.39013060371778" fill="#ffd700" opacity="0.2" rx="1"/>
<line x1="60" y1="32.0" x2="725" y2="32.0" stroke="#2a2a4e" stroke-width="0.5"/>
<text x="56" y="35.0" text-anchor="end" font-family="sans-serif" font-size="8" fill="#666666">171.9</text>
<line x1="60" y1="127.74999999999994" x2="725" y2="127.74999999999994" stroke="#2a2a4e" stroke-width="0.5"/>
<text x="56" y="130.74999999999994" text-anchor="end" font-family="sans-serif" font-size="8" fill="#666666">150.0</text>
<line x1="60" y1="223.5" x2="725" y2="223.5" stroke="#2a2a4e" stroke-width="0.5"/>
<text x="56" y="226.5" text-anchor="end" font-family="sans-serif" font-size="8" fill="#666666">128.0</text>
<line x1="60" y1="319.25" x2="725" y2="319.25" stroke="#2a2a4e" stroke-width="0.5"/>
<text x="56" y="322.25" text-anchor="end" font-family="sans-serif" font-size="8" fill="#666666">106.1</text>
<line x1="60" y1="415.0" x2="725" y2="415.0" stroke="#2a2a4e" stroke-width="0.5"/>
<text x="56" y="418.0" text-anchor="end" font-family="sans-serif" font-size="8" fill="#666666">84.1</text>
<rect x="61.66250000000001" y="453.80975716630155" width="6.095833333333334" height="21.19024283369842" fill="#ff4444" opacity="0.35"/>
<rect x="72.74583333333334" y="458.7203983677316" width="6.095833333333334" height="16.279601632268406" fill="#ff4444" opacity="0.35"/>
<rect x="83.82916666666668" y="459.45824325171156" width="6.095833333333334" height="15.54175674828841" fill="#ff4444" opacity="0.35"/>
<rect x="94.91250000000001" y="459.96000163422826" width="6.095833333333334" height="15.03999836577174" fill="#ff4444" opacity="0.35"/>
<rect x="105.99583333333335" y="452.9681625234665" width="6.095833333333334" height="22.031837476533468" fill="#44aa44" opacity="0.35"/>
<rect x="117.07916666666668" y="455.42146965087323" width="6.095833333333334" height="19.578530349126787" fill="#ff4444" opacity="0.35"/>
<rect x="128.1625" y="449.10473045786057" width="6.095833333333334" height="25.89526954213946" fill="#ff4444" opacity="0.35"/>
<rect x="139.24583333333334" y="453.3650758309937" width="6.095833333333334" height="21.634924169006275" fill="#ff4444" opacity="0.35"/>
<rect x="150.32916666666668" y="452.3698766958383" width="6.095833333333334" height="22.6301233041617" fill="#ff4444" opacity="0.35"/>
<rect x="161.4125" y="456.01964054203836" width="6.095833333333334" height="18.98035945796164" fill="#ff4444" opacity="0.35"/>
<rect x="172.49583333333334" y="454.0007370279843" width="6.095833333333334" height="20.99926297201567" fill="#ff4444" opacity="0.35"/>
<rect x="183.57916666666668" y="440.0" width="6.095833333333334" height="35.0" fill="#44aa44" opacity="0.35"/>
<rect x="194.6625" y="448.27437239734326" width="6.095833333333334" height="26.725627602656733" fill="#44aa44" opacity="0.35"/>
<rect x="205.74583333333334" y="454.7108577023578" width="6.095833333333334" height="20.28914229764219" fill="#44aa44" opacity="0.35"/>
<rect x="216.82916666666668" y="456.13158682210343" width="6.095833333333334" height="18.868413177896592" fill="#44aa44" opacity="0.35"/>
<rect x="227.9125" y="458.583599287841" width="6.095833333333334" height="16.416400712159003" fill="#ff4444" opacity="0.35"/>
<rect x="238.99583333333334" y="454.30472478896445" width="6.095833333333334" height="20.695275211035547" fill="#ff4444" opacity="0.35"/>
<rect x="250.07916666666668" y="450.535688589188" width="6.095833333333334" height="24.46431141081198" fill="#44aa44" opacity="0.35"/>
<rect x="261.1625" y="459.06299226908226" width="6.095833333333334" height="15.93700773091772" fill="#ff4444" opacity="0.35"/>
<rect x="272.2458333333334" y="455.50421956706947" width="6.095833333333334" height="19.49578043293055" fill="#44aa44" opacity="0.35"/>
<rect x="283.3291666666667" y="457.7386192740599" width="6.095833333333334" height="17.261380725940132" fill="#ff4444" opacity="0.35"/>
<rect x="294.4125" y="451.86055502696485" width="6.095833333333334" height="23.13944497303514" fill="#44aa44" opacity="0.35"/>
<rect x="305.4958333333334" y="458.65063827366015" width="6.095833333333334" height="16.34936172633986" fill="#ff4444" opacity="0.35"/>
<rect x="316.5791666666667" y="465.0977217548325" width="6.095833333333334" height="9.902278245167526" fill="#44aa44" opacity="0.35"/>
<rect x="327.6625" y="465.29622903735736" width="6.095833333333334" height="9.703770962642613" fill="#44aa44" opacity="0.35"/>
<rect x="338.7458333333334" y="466.3745299043849" width="6.095833333333334" height="8.625470095615126" fill="#44aa44" opacity="0.35"/>
<rect x="349.8291666666667" y="465.0841434046355" width="6.095833333333334" height="9.91585659536453" fill="#44aa44" opacity="0.35"/>
<rect x="360.9125" y="463.57064637979073" width="6.095833333333334" height="11.42935362020928" fill="#ff4444" opacity="0.35"/>
<rect x="371.9958333333334" y="465.4740801188983" width="6.095833333333334" height="9.525919881101697" fill="#44aa44" opacity="0.35"/>
<rect x="383.0791666666667" y="459.7257562847868" width="6.095833333333334" height="15.27424371521319" fill="#ff4444" opacity="0.35"/>
<rect x="394.1625" y="456.444871258102" width="6.095833333333334" height="18.55512874189799" fill="#ff4444" opacity="0.35"/>
<rect x="405.2458333333334" y="458.2466671333076" width="6.095833333333334" height="16.753332866692404" fill="#44aa44" opacity="0.35"/>
<rect x="416.3291666666667" y="456.3589221380029" width="6.095833333333334" height="18.64107786199705" fill="#ff4444" opacity="0.35"/>
<rect x="427.4125" y="451.4414556457353" width="6.095833333333334" height="23.558544354264694" fill="#ff4444" opacity="0.35"/>
<rect x="438.4958333333334" y="452.5149525356018" width="6.095833333333334" height="22.4850474643982" fill="#44aa44" opacity="0.35"/>
<rect x="449.5791666666667" y="461.61243899359374" width="6.095833333333334" height="13.387561006406262" fill="#ff4444" opacity="0.35"/>
<rect x="460.6625" y="459.0855898787127" width="6.095833333333334" height="15.914410121287306" fill="#ff4444" opacity="0.35"/>
<rect x="471.7458333333334" y="459.51949120804454" width="6.095833333333334" height="15.48050879195548" fill="#44aa44" opacity="0.35"/>
<rect x="482.8291666666667" y="463.37917941437473" width="6.095833333333334" height="11.620820585625278" fill="#ff4444" opacity="0.35"/>
<rect x="493.9125" y="457.32544537629224" width="6.095833333333334" height="17.67455462370779" fill="#ff4444" opacity="0.35"/>
<rect x="504.9958333333334" y="458.21360930463834" width="6.095833333333334" height="16.786390695361646" fill="#44aa44" opacity="0.35"/>
<rect x="516.0791666666667" y="463.42344162980675" width="6.095833333333334" height="11.576558370193233" fill="#ff4444" opacity="0.35"/>
<rect x="527.1624999999999" y="459.9575551056831" width="6.095833333333334" height="15.042444894316889" fill="#ff4444" opacity="0.35"/>
<rect x="538.2458333333333" y="464.06455488546646" width="6.095833333333334" height="10.93544511453353" fill="#44aa44" opacity="0.35"/>
<rect x="549.3291666666667" y="461.1074283595759" width="6.095833333333334" height="13.892571640424105" fill="#ff4444" opacity="0.35"/>
<rect x="560.4124999999999" y="459.64942746341944" width="6.095833333333334" height="15.350572536580584" fill="#ff4444" opacity="0.35"/>
<rect x="571.4958333333333" y="456.83603624112783" width="6.095833333333334" height="18.163963758872175" fill="#ff4444" opacity="0.35"/>
<rect x="582.5791666666667" y="457.20417539696047" width="6.095833333333334" height="17.79582460303953" fill="#ff4444" opacity="0.35"/>
<rect x="593.6624999999999" y="457.3667027288657" width="6.095833333333334" height="17.63329727113431" fill="#ff4444" opacity="0.35"/>
<rect x="604.7458333333333" y="457.4201033106029" width="6.095833333333334" height="17.579896689397092" fill="#ff4444" opacity="0.35"/>
<rect x="615.8291666666667" y="458.4779885258188" width="6.095833333333334" height="16.522011474181223" fill="#44aa44" opacity="0.35"/>
<rect x="626.9124999999999" y="458.7157763872052" width="6.095833333333334" height="16.28422361279482" fill="#ff4444" opacity="0.35"/>
<rect x="637.9958333333333" y="459.8942054301943" width="6.095833333333334" height="15.105794569805711" fill="#44aa44" opacity="0.35"/>
<rect x="649.0791666666667" y="460.2088677692191" width="6.095833333333334" height="14.791132230780864" fill="#44aa44" opacity="0.35"/>
<rect x="660.1624999999999" y="463.70977972082494" width="6.095833333333334" height="11.290220279175069" fill="#ff4444" opacity="0.35"/>
<rect x="671.2458333333333" y="451.26648781793597" width="6.095833333333334" height="23.733512182064008" fill="#ff4444" opacity="0.35"/>
<rect x="682.3291666666667" y="453.20667870502393" width="6.095833333333334" height="21.793321294976046" fill="#ff4444" opacity="0.35"/>
<rect x="693.4124999999999" y="454.78489480075007" width="6.095833333333334" height="20.215105199249926" fill="#44aa44" opacity="0.35"/>
<rect x="704.4958333333333" y="459.85122403067453" width="6.095833333333334" height="15.148775969325467" fill="#ff4444" opacity="0.35"/>
<rect x="715.5791666666667" y="456.8067089264266" width="6.095833333333334" height="18.193291073573388" fill="#ff4444" opacity="0.35"/>
<polyline points="65.54166666666667,406.3648371669324 76.625,402.8031959310712 87.70833333333334,398.52438067764876 98.79166666666667,388.2432711691423 109.87500000000001,380.1389894031282 120.95833333333334,366.42079290505364 132.04166666666666,349.919449122613 143.125,327.0415700443929 154.20833333333334,306.2363977932027 165.29166666666666,285.22846317618655 176.375,254.69425063487972 187.45833333333334,244.48515213508793 198.54166666666666,251.06795005316496 209.625,257.60800405123325 220.70833333333334,270.8212625505147 231.79166666666666,274.30944566299405 242.875,269.06096195342093 253.95833333333334,271.2460614799167 265.0416666666667,276.6860177572784 276.12500000000006,282.2606549718682 287.20833333333337,280.54012540521876 298.2916666666667,294.4973719964041 309.37500000000006,297.76921892298043 320.45833333333337,303.65746455489364 331.5416666666667,312.5983339953751 342.62500000000006,316.75628703768194 353.70833333333337,325.92467264593654 364.7916666666667,327.3849901447366 375.87500000000006,327.3990726069291 386.95833333333337,318.3807906804867 398.0416666666667,305.7977380821403 409.12500000000006,295.96984254439815 420.20833333333337,275.9854366677981 431.2916666666667,269.247901375283 442.37500000000006,276.8657913822011 453.45833333333337,281.91531009781295 464.5416666666667,278.94338823950454 475.62500000000006,279.433449898985 486.70833333333337,277.87030722029044 497.7916666666667,270.03928778627426 508.87500000000006,269.61592084863435 519.9583333333334,272.720869725401 531.0416666666666,269.74638866837245 542.125,272.41534087038997 553.2083333333334,269.17926998586233 564.2916666666666,266.309561149005 575.375,256.16830380403565 586.4583333333334,237.3269599944615 597.5416666666666,220.12866185920902 608.625,192.86107253075025 619.7083333333334,179.62536544181654 630.7916666666666,173.7962468162175 641.875,176.74270398087165 652.9583333333334,183.67876917634672 664.0416666666666,168.8228156765108 675.125,142.89872977082803 686.2083333333334,118.31827562798243 697.2916666666666,115.68360256319298 708.375,110.51088572914 719.4583333333334,84.34059048609333" fill="none" stroke="#ffd700" stroke-width="1" opacity="0.7"/>
<polyline points="65.54166666666667,406.3648371669324 76.625,404.4221237655535 87.70833333333334,401.7938740210536 98.79166666666667,395.59154277215833 109.87500000000001,389.83497606287494 120.95833333333334,380.58941676215306 132.04166666666666,369.0125703613492 143.125,353.0622506389135 154.20833333333334,336.98294203016957 165.29166666666666,319.9337878323486 176.375,296.96870378142455 187.45833333333334,283.7138403912573 198.54166666666666,280.17196866363213 209.625,278.447631097039 220.70833333333334,281.8658399065006 231.79166666666666,281.76038026676457 242.875,277.54285558813007 253.95833333333334,277.19256557808967 265.0416666666667,279.0786318933465 276.12500000000006,281.6843223492921 287.20833333333337,280.8506394261335 298.2916666666667,288.40722592661376 309.37500000000006,291.29916899016274 320.45833333333337,295.68731204990047 331.5416666666667,302.0132685637982 342.62500000000006,306.2058003017068 353.70833333333337,313.1250082218412 364.7916666666667,316.2487567528404 375.87500000000006,318.28120780347194 386.95833333333337,315.0199385351319 398.0416666666667,308.76751932609847 409.12500000000006,302.8668888066103 420.20833333333337,290.71229537169893 431.2916666666667,284.35966544779967 442.37500000000006,285.76728471111556 453.45833333333337,286.90311431437397 464.5416666666667,284.3751925341037 475.62500000000006,283.6548981129841 486.70833333333337,282.03473879478724 497.7916666666667,277.0061042717789 508.87500000000006,275.50848294479266 519.9583333333334,276.13071649645474 531.0416666666666,273.88830014333854 542.125,274.5910174398997 553.2083333333334,272.43031030842826 564.2916666666666,270.27391633876687 575.375,264.0215295706451 586.4583333333334,252.31657371694834 597.5416666666666,240.21029951181305 608.625,221.68586212308938 619.7083333333334,209.2255146941548 630.7916666666666,200.66415012522106 641.875,197.38623524975898 652.9583333333334,197.41617421658407 664.0416666666666,186.8152168457213 675.125,169.40346068458334 686.2083333333334,151.17689825871201 697.2916666666666,143.7655088359669 708.375,135.83822578597906 719.4583333333334,116.95854837034645" fill="none" stroke="#ff6b6b" stroke-width="1" opacity="0.7"/>
<polyline points="65.54166666666667,406.3648371669324 76.625,405.34722538525773 87.70833333333334,403.8824182219764 98.79166666666667,400.4346690724672 109.87500000000001,396.9580744818608 120.95833333333334,391.4367721415793 132.04166666666666,384.3396282764509 143.125,374.5249790965939 154.20833333333334,364.0584147341395 165.29166666666666,352.5492889444266 176.375,337.41372100231615 187.45833333333334,326.6187909197626 198.54166666666666,320.67733901210136 209.625,315.9164602535555 220.70833333333334,314.1384906626528 231.79166666666666,311.0096641126813 242.875,306.0148384385474 253.95833333333334,303.1197357808675 265.0416666666667,301.6384209743088 276.12500000000006,300.85475511018876 287.20833333333337,298.59230855416314 298.2916666666667,300.86083775650707 309.37500000000006,301.18960680599525 320.45833333333337,302.5462114738738 331.5416666666667,305.20657922648945 342.62500000000006,307.09854245466147 353.70833333333337,310.63786639826 364.7916666666667,312.5109862786482 375.87500000000006,313.93158163604494 386.95833333333337,312.63754784476464 398.0416666666667,309.5893654676868 409.12500000000006,306.42028794399414 420.20833333333337,299.71517717928975 431.2916666666667,295.5301918089053 442.37500000000006,295.2036565314893 453.45833333333337,294.89991281696996 464.5416666666667,292.8141634556288 475.62500000000006,291.63315486156375 486.70833333333337,290.0246660045483 497.7916666666667,286.62967390109054 508.87500000000006,284.92867514606803 519.9583333333334,284.35744584443626 531.0416666666666,282.39934876918676 542.125,281.95686272206655 553.2083333333334,280.1235546739466 564.2916666666666,278.2613250359793 575.375,274.2255597100858 586.4583333333334,267.122579963917 597.5416666666666,259.3711024043729 608.625,247.84298730622626 619.7083333333334,238.8249838736284 630.7916666666666,231.5214625109037 641.875,226.86566782512045 652.9583333333334,224.07378513389915 664.0416666666666,215.98208261417918 675.125,204.0838421708728 686.2083333333334,191.23370171100782 697.2916666666666,183.5366116845894 708.375,175.59650124425073 719.4583333333334,161.9206439828935" fill="none" stroke="#4ecdc4" stroke-width="1" opacity="0.7"/>
<line x1="65.54166666666667" y1="402.875882486905" x2="65.54166666666667" y2="415.0" stroke="#ff4444" stroke-width="0.5" opacity="0.6"/>
<rect x="63.04791666666667" y="406.3648371669324" width="4.987500000000001" height="1.7444773400136455" fill="#ff4444" opacity="0.8" rx="1"/>
<line x1="76.625" y1="389.87952630380323" x2="76.625" y2="411.16214985196996" stroke="#ff4444" stroke-width="0.5" opacity="0.6"/>
<rect x="74.13125" y="395.6799134593487" width="4.987500000000001" height="10.46686404008193" fill="#ff4444" opacity="0.8" rx="1"/>
<line x1="87.70833333333334" y1="385.5183329537691" x2="87.70833333333334" y2="409.8537918469597" stroke="#ff4444" stroke-width="0.5" opacity="0.6"/>
<rect x="85.21458333333334" y="389.96675017080395" width="4.987500000000001" height="13.258027784103888" fill="#ff4444" opacity="0.8" rx="1"/>
<line x1="98.79166666666667" y1="355.120815304031" x2="98.79166666666667" y2="390.228421771806" stroke="#ff4444" stroke-width="0.5" opacity="0.6"/>
<rect x="96.29791666666667" y="367.6810521521294" width="4.987500000000001" height="22.329309952174924" fill="#ff4444" opacity="0.8" rx="1"/>
<line x1="109.87500000000001" y1="342.2552949214302" x2="109.87500000000001" y2="368.2480072876338" stroke="#44aa44" stroke-width="0.5" opacity="0.6"/>
<rect x="107.38125000000001" y="355.2952630380324" width="4.987500000000001" height="8.635162833067625" fill="#44aa44" opacity="0.8" rx="1"/>
<line x1="120.95833333333334" y1="330.56729674333866" x2="120.95833333333334" y2="372.5655887041676" stroke="#ff4444" stroke-width="0.5" opacity="0.6"/>
<rect x="118.46458333333334" y="338.9843999089046" width="4.987500000000001" height="33.58118879526302" fill="#ff4444" opacity="0.8" rx="1"/>
<line x1="132.04166666666666" y1="294.67467547255757" x2="132.04166666666666" y2="347.7067866089729" stroke="#ff4444" stroke-width="0.5" opacity="0.6"/>
<rect x="129.54791666666665" y="316.9167615577318" width="4.987500000000001" height="7.02152129355494" fill="#ff4444" opacity="0.8" rx="1"/>
<line x1="143.125" y1="275.5726485994079" x2="143.125" y2="319.5770895012526" stroke="#ff4444" stroke-width="0.5" opacity="0.6"/>
<rect x="140.63125" y="281.2858118879526" width="4.987500000000001" height="35.020382600774326" fill="#ff4444" opacity="0.8" rx="1"/>
<line x1="154.20833333333334" y1="259.4798451377818" x2="154.20833333333334" y2="308.6741061261672" stroke="#ff4444" stroke-width="0.5" opacity="0.6"/>
<rect x="151.71458333333334" y="264.62605329082214" width="4.987500000000001" height="28.783876110225492" fill="#ff4444" opacity="0.8" rx="1"/>
<line x1="165.29166666666666" y1="241.07560920063764" x2="165.29166666666666" y2="273.56649965839216" stroke="#ff4444" stroke-width="0.5" opacity="0.6"/>
<rect x="162.79791666666665" y="243.2125939421544" width="4.987500000000001" height="17.5319972671374" fill="#ff4444" opacity="0.8" rx="1"/>
<line x1="176.375" y1="190.09325893873833" x2="176.375" y2="245.87292188567523" stroke="#ff4444" stroke-width="0.5" opacity="0.6"/>
<rect x="173.88125" y="193.62582555226604" width="4.987500000000001" height="51.854588931906136" fill="#ff4444" opacity="0.8" rx="1"/>
<line x1="187.45833333333334" y1="165.14723297654294" x2="187.45833333333334" y2="243.25620587565476" stroke="#44aa44" stroke-width="0.5" opacity="0.6"/>
<rect x="184.96458333333334" y="198.5975859713049" width="4.987500000000001" height="25.46936916419949" fill="#44aa44" opacity="0.8" rx="1"/>
<line x1="198.54166666666666" y1="228.864267820542" x2="198.54166666666666" y2="264.66966522432244" stroke="#44aa44" stroke-width="0.5" opacity="0.6"/>
<rect x="196.04791666666665" y="235.4060578455933" width="4.987500000000001" height="28.827488043725793" fill="#44aa44" opacity="0.8" rx="1"/>
<line x1="209.625" y1="259.4362332042815" x2="209.625" y2="289.5720792530176" stroke="#44aa44" stroke-width="0.5" opacity="0.6"/>
<rect x="207.13125" y="264.01548622181735" width="4.987500000000001" height="6.672625825552302" fill="#44aa44" opacity="0.8" rx="1"/>
<line x1="220.70833333333334" y1="260.264859940788" x2="220.70833333333334" y2="298.6433614210886" stroke="#44aa44" stroke-width="0.5" opacity="0.6"/>
<rect x="218.21458333333334" y="267.286381234343" width="4.987500000000001" height="29.96139831473465" fill="#44aa44" opacity="0.8" rx="1"/>
<line x1="231.79166666666666" y1="275.09291733090413" x2="231.79166666666666" y2="294.54383967205655" stroke="#ff4444" stroke-width="0.5" opacity="0.6"/>
<rect x="229.29791666666665" y="281.2858118879526" width="4.987500000000001" height="1.9189250740150783" fill="#ff4444" opacity="0.8" rx="1"/>
<line x1="242.875" y1="247.57378729218854" x2="242.875" y2="288.00204964700526" stroke="#ff4444" stroke-width="0.5" opacity="0.6"/>
<rect x="240.38125" y="258.5639945342747" width="4.987500000000001" height="29.43805511273058" fill="#ff4444" opacity="0.8" rx="1"/>
<line x1="253.95833333333334" y1="233.39990890457753" x2="253.95833333333334" y2="275.96515600091095" stroke="#44aa44" stroke-width="0.5" opacity="0.6"/>
<rect x="251.46458333333334" y="245.04429514916876" width="4.987500000000001" height="30.571965383739496" fill="#44aa44" opacity="0.8" rx="1"/>
<line x1="265.0416666666667" y1="266.8938738328399" x2="265.0416666666667" y2="296.46276474607157" stroke="#ff4444" stroke-width="0.5" opacity="0.6"/>
<rect x="262.5479166666667" y="287.5659303120018" width="4.987500000000001" height="8.896834434069774" fill="#ff4444" opacity="0.8" rx="1"/>
<line x1="276.12500000000006" y1="279.67217034844" x2="276.12500000000006" y2="321.5396265087679" stroke="#44aa44" stroke-width="0.5" opacity="0.6"/>
<rect x="273.6312500000001" y="286.693691641995" width="4.987500000000001" height="6.71623775905266" fill="#44aa44" opacity="0.8" rx="1"/>
<line x1="287.20833333333337" y1="265.3238442268276" x2="287.20833333333337" y2="286.86813937599635" stroke="#ff4444" stroke-width="0.5" opacity="0.6"/>
<rect x="284.7145833333334" y="277.09906627191987" width="4.987500000000001" height="9.071282168071036" fill="#ff4444" opacity="0.8" rx="1"/>
<line x1="298.2916666666667" y1="303.7459576406286" x2="298.2916666666667" y2="325.6827601913004" stroke="#44aa44" stroke-width="0.5" opacity="0.6"/>
<rect x="295.7979166666667" y="318.8356866317468" width="4.987500000000001" height="3.5761785470280074" fill="#44aa44" opacity="0.8" rx="1"/>
<line x1="309.37500000000006" y1="296.7244363470736" x2="309.37500000000006" y2="331.8756547483489" stroke="#ff4444" stroke-width="0.5" opacity="0.6"/>
<rect x="306.8812500000001" y="304.312912776133" width="4.987500000000001" height="27.562741972215917" fill="#ff4444" opacity="0.8" rx="1"/>
<line x1="320.45833333333337" y1="299.95171942609886" x2="320.45833333333337" y2="321.4524026417673" stroke="#44aa44" stroke-width="0.5" opacity="0.6"/>
<rect x="317.9645833333334" y="306.4935094511501" width="4.987500000000001" height="8.940446367570019" fill="#44aa44" opacity="0.8" rx="1"/>
<line x1="331.5416666666667" y1="316.74231382373034" x2="331.5416666666667" y2="336.54213163288546" stroke="#44aa44" stroke-width="0.5" opacity="0.6"/>
<rect x="329.0479166666667" y="320.4493281712594" width="4.987500000000001" height="10.030744705078575" fill="#44aa44" opacity="0.8" rx="1"/>
<line x1="342.62500000000006" y1="316.08813482122525" x2="342.62500000000006" y2="331.8320428148486" stroke="#44aa44" stroke-width="0.5" opacity="0.6"/>
<rect x="340.1312500000001" y="316.9167615577318" width="4.987500000000001" height="8.155431564563855" fill="#44aa44" opacity="0.8" rx="1"/>
<line x1="353.70833333333337" y1="322.19380551127307" x2="353.70833333333337" y2="346.31120473696194" stroke="#44aa44" stroke-width="0.5" opacity="0.6"/>
<rect x="351.2145833333334" y="328.0814165338192" width="4.987500000000001" height="16.180027328626693" fill="#44aa44" opacity="0.8" rx="1"/>
<line x1="364.7916666666667" y1="320.27488043725805" x2="364.7916666666667" y2="338.50466864040084" stroke="#ff4444" stroke-width="0.5" opacity="0.6"/>
<rect x="362.2979166666667" y="330.30562514233657" width="4.987500000000001" height="4.971760419038958" fill="#ff4444" opacity="0.8" rx="1"/>
<line x1="375.87500000000006" y1="308.6741061261672" x2="375.87500000000006" y2="331.5267592803462" stroke="#44aa44" stroke-width="0.5" opacity="0.6"/>
<rect x="373.3812500000001" y="324.46162605329084" width="4.987500000000001" height="2.96561147802322" fill="#44aa44" opacity="0.8" rx="1"/>
<line x1="386.95833333333337" y1="300.12616716010024" x2="386.95833333333337" y2="319.09735823274883" stroke="#ff4444" stroke-width="0.5" opacity="0.6"/>
<rect x="384.4645833333334" y="300.3442268276019" width="4.987500000000001" height="10.510475973582345" fill="#ff4444" opacity="0.8" rx="1"/>
<line x1="398.0416666666667" y1="267.8969483033478" x2="398.0416666666667" y2="311.8577772716921" stroke="#ff4444" stroke-width="0.5" opacity="0.6"/>
<rect x="395.5479166666667" y="280.6316328854475" width="4.987500000000001" height="29.307219312229563" fill="#ff4444" opacity="0.8" rx="1"/>
<line x1="409.12500000000006" y1="268.6383511728535" x2="409.12500000000006" y2="285.12366203598265" stroke="#44aa44" stroke-width="0.5" opacity="0.6"/>
<rect x="406.6312500000001" y="271.60396265087684" width="4.987500000000001" height="4.710088818036866" fill="#44aa44" opacity="0.8" rx="1"/>
<line x1="420.20833333333337" y1="235.84217718059665" x2="420.20833333333337" y2="280.93691641994985" stroke="#ff4444" stroke-width="0.5" opacity="0.6"/>
<rect x="417.7145833333334" y="236.01662491459808" width="4.987500000000001" height="44.92029150535177" fill="#ff4444" opacity="0.8" rx="1"/>
<line x1="431.2916666666667" y1="239.59280346162606" x2="431.2916666666667" y2="267.24276930084267" stroke="#ff4444" stroke-width="0.5" opacity="0.6"/>
<rect x="428.7979166666667" y="255.7728307902528" width="4.987500000000001" height="2.7475518105215144" fill="#ff4444" opacity="0.8" rx="1"/>
<line x1="442.37500000000006" y1="256.819517194261" x2="442.37500000000006" y2="299.51560009109545" stroke="#44aa44" stroke-width="0.5" opacity="0.6"/>
<rect x="439.8812500000001" y="256.819517194261" width="4.987500000000001" height="35.28205420177636" fill="#44aa44" opacity="0.8" rx="1"/>
<line x1="453.45833333333337" y1="285.5597813709861" x2="453.45833333333337" y2="311.5088818036894" stroke="#ff4444" stroke-width="0.5" opacity="0.6"/>
<rect x="450.9645833333334" y="292.01434752903674" width="4.987500000000001" height="10.55408790708259" fill="#ff4444" opacity="0.8" rx="1"/>
<line x1="464.5416666666667" y1="269.074470507857" x2="464.5416666666667" y2="289.9645866545206" stroke="#ff4444" stroke-width="0.5" opacity="0.6"/>
<rect x="462.0479166666667" y="272.99954452288773" width="4.987500000000001" height="16.049191528125732" fill="#ff4444" opacity="0.8" rx="1"/>
<line x1="475.62500000000006" y1="266.3705306308358" x2="475.62500000000006" y2="285.9959007059895" stroke="#44aa44" stroke-width="0.5" opacity="0.6"/>
<rect x="473.1312500000001" y="279.54133454793896" width="4.987500000000001" height="0.8722386700068228" fill="#44aa44" opacity="0.8" rx="1"/>
<line x1="486.70833333333337" y1="271.2550671828741" x2="486.70833333333337" y2="290.9676611250284" stroke="#ff4444" stroke-width="0.5" opacity="0.6"/>
<rect x="484.2145833333334" y="274.7440218629014" width="4.987500000000001" height="14.304714188112087" fill="#ff4444" opacity="0.8" rx="1"/>
<line x1="497.7916666666667" y1="252.71999544522888" x2="497.7916666666667" y2="279.3232748804373" stroke="#ff4444" stroke-width="0.5" opacity="0.6"/>
<rect x="495.2979166666667" y="254.37724891824186" width="4.987500000000001" height="23.855727624686864" fill="#ff4444" opacity="0.8" rx="1"/>
<line x1="508.87500000000006" y1="243.25620587565476" x2="508.87500000000006" y2="275.96515600091095" stroke="#44aa44" stroke-width="0.5" opacity="0.6"/>
<rect x="506.3812500000001" y="250.10327943520835" width="4.987500000000001" height="18.665907538146172" fill="#44aa44" opacity="0.8" rx="1"/>
<line x1="519.9583333333334" y1="270.07754497836487" x2="519.9583333333334" y2="288.9179002505124" stroke="#ff4444" stroke-width="0.5" opacity="0.6"/>
<rect x="517.4645833333334" y="278.93076747893423" width="4.987500000000001" height="1.3955818720109505" fill="#ff4444" opacity="0.8" rx="1"/>
<line x1="531.0416666666666" y1="253.06889091323163" x2="531.0416666666666" y2="275.96515600091095" stroke="#ff4444" stroke-width="0.5" opacity="0.6"/>
<rect x="528.5479166666667" y="263.7974265543156" width="4.987500000000001" height="11.731610111591976" fill="#ff4444" opacity="0.8" rx="1"/>
<line x1="542.125" y1="261.79127761329994" x2="542.125" y2="283.03028922796636" stroke="#44aa44" stroke-width="0.5" opacity="0.6"/>
<rect x="539.63125" y="265.06217262582555" width="4.987500000000001" height="12.691072648599402" fill="#44aa44" opacity="0.8" rx="1"/>
<line x1="553.2083333333334" y1="256.33978592575727" x2="553.2083333333334" y2="282.98667729446595" stroke="#ff4444" stroke-width="0.5" opacity="0.6"/>
<rect x="550.7145833333334" y="262.70712821680706" width="4.987500000000001" height="20.279549077658885" fill="#ff4444" opacity="0.8" rx="1"/>
<line x1="564.2916666666666" y1="254.2900250512412" x2="564.2916666666666" y2="280.3263493509452" stroke="#ff4444" stroke-width="0.5" opacity="0.6"/>
<rect x="561.7979166666667" y="260.57014347529037" width="4.987500000000001" height="1.831701207014362" fill="#ff4444" opacity="0.8" rx="1"/>
<line x1="575.375" y1="217.35071737645185" x2="575.375" y2="251.28080163971762" stroke="#ff4444" stroke-width="0.5" opacity="0.6"/>
<rect x="572.88125" y="235.88578911409704" width="4.987500000000001" height="9.50740150307442" fill="#ff4444" opacity="0.8" rx="1"/>
<line x1="586.4583333333334" y1="195.19585515827825" x2="586.4583333333334" y2="241.9478478706445" stroke="#ff4444" stroke-width="0.5" opacity="0.6"/>
<rect x="583.9645833333334" y="199.64427237531314" width="4.987500000000001" height="33.624800728763375" fill="#ff4444" opacity="0.8" rx="1"/>
<line x1="597.5416666666666" y1="184.81621498519695" x2="597.5416666666666" y2="218.0485083124573" stroke="#ff4444" stroke-width="0.5" opacity="0.6"/>
<rect x="595.0479166666667" y="185.73206558870416" width="4.987500000000001" height="25.731040765201584" fill="#ff4444" opacity="0.8" rx="1"/>
<line x1="608.625" y1="133.00523798679114" x2="608.625" y2="171.60179913459345" stroke="#ff4444" stroke-width="0.5" opacity="0.6"/>
<rect x="606.13125" y="138.32589387383283" width="4.987500000000001" height="33.057845593259" fill="#ff4444" opacity="0.8" rx="1"/>
<line x1="619.7083333333334" y1="125.5039854247324" x2="619.7083333333334" y2="153.85174219995446" stroke="#44aa44" stroke-width="0.5" opacity="0.6"/>
<rect x="617.2145833333334" y="140.8553860168527" width="4.987500000000001" height="12.29856524709632" fill="#44aa44" opacity="0.8" rx="1"/>
<line x1="630.7916666666666" y1="155.50899567296742" x2="630.7916666666666" y2="185.25233432020036" stroke="#ff4444" stroke-width="0.5" opacity="0.6"/>
<rect x="628.2979166666667" y="162.1380095650194" width="4.987500000000001" height="9.158506035071724" fill="#ff4444" opacity="0.8" rx="1"/>
<line x1="641.875" y1="144.25711682987935" x2="641.875" y2="182.85367797768166" stroke="#44aa44" stroke-width="0.5" opacity="0.6"/>
<rect x="639.38125" y="154.3750854019586" width="4.987500000000001" height="28.260532908221307" fill="#44aa44" opacity="0.8" rx="1"/>
<line x1="652.9583333333334" y1="158.30015941698935" x2="652.9583333333334" y2="213.77453882942385" stroke="#44aa44" stroke-width="0.5" opacity="0.6"/>
<rect x="650.4645833333334" y="179.58278296515604" width="4.987500000000001" height="17.968116602140753" fill="#44aa44" opacity="0.8" rx="1"/>
<line x1="664.0416666666666" y1="139.11090867683902" x2="664.0416666666666" y2="184.24925984969255" stroke="#ff4444" stroke-width="0.5" opacity="0.6"/>
<rect x="661.5479166666667" y="139.11090867683902" width="4.987500000000001" height="42.95775449783645" fill="#ff4444" opacity="0.8" rx="1"/>
<line x1="675.125" y1="85.42461853791848" x2="675.125" y2="139.5470280118424" stroke="#ff4444" stroke-width="0.5" opacity="0.6"/>
<rect x="672.63125" y="91.05055795946251" width="4.987500000000001" height="32.01115918925076" fill="#ff4444" opacity="0.8" rx="1"/>
<line x1="686.2083333333334" y1="36.62286495103622" x2="686.2083333333334" y2="91.00694602596221" stroke="#ff4444" stroke-width="0.5" opacity="0.6"/>
<rect x="683.7145833333334" y="69.15736734229111" width="4.987500000000001" height="21.849578683671098" fill="#ff4444" opacity="0.8" rx="1"/>
<line x1="697.2916666666666" y1="58.7777271692097" x2="697.2916666666666" y2="114.64461398314731" stroke="#44aa44" stroke-width="0.5" opacity="0.6"/>
<rect x="694.7979166666667" y="66.58426326577093" width="4.987500000000001" height="43.82999316784324" fill="#44aa44" opacity="0.8" rx="1"/>
<line x1="708.375" y1="87.82327488043731" x2="708.375" y2="111.98428603962653" stroke="#ff4444" stroke-width="0.5" opacity="0.6"/>
<rect x="705.88125" y="100.16545206103392" width="4.987500000000001" height="3.3145069460259293" fill="#ff4444" opacity="0.8" rx="1"/>
<line x1="719.4583333333334" y1="32.0" x2="719.4583333333334" y2="103.6980186745616" stroke="#ff4444" stroke-width="0.5" opacity="0.6"/>
<rect x="716.9645833333334" y="32.0" width="4.987500000000001" height="65.15622864951035" fill="#ff4444" opacity="0.8" rx="1"/>
<line x1="508.87500000000006" y1="275.96515600091095" x2="508.87500000000006" y2="240.96515600091095" stroke="#4ecdc4" stroke-width="0.8" stroke-dasharray="2,2" opacity="0.7"/>
<rect x="472.87500000000006" y="231.96515600091095" width="72" height="16" fill="#4ecdc4" opacity="0.85" rx="3"/>
<text x="508.87500000000006" y="243.96515600091095" text-anchor="middle" font-family="sans-serif" font-size="9" fill="#000000" font-weight="bold">B1乖离买入</text>
<polygon points="508.87500000000006,281.96515600091095 504.87500000000006,275.96515600091095 512.875,275.96515600091095" fill="#4ecdc4" opacity="0.9"/>
<line x1="531.0416666666666" y1="275.96515600091095" x2="531.0416666666666" y2="225.96515600091095" stroke="#4ecdc4" stroke-width="0.8" stroke-dasharray="2,2" opacity="0.7"/>
<rect x="495.04166666666663" y="216.96515600091095" width="72" height="16" fill="#4ecdc4" opacity="0.85" rx="3"/>
<text x="531.0416666666666" y="228.96515600091095" text-anchor="middle" font-family="sans-serif" font-size="9" fill="#000000" font-weight="bold">B2乖离买入</text>
<polygon points="531.0416666666666,281.96515600091095 527.0416666666666,275.96515600091095 535.0416666666666,275.96515600091095" fill="#4ecdc4" opacity="0.9"/>
<line x1="553.2083333333334" y1="282.98667729446595" x2="553.2083333333334" y2="217.98667729446595" stroke="#4ecdc4" stroke-width="0.8" stroke-dasharray="2,2" opacity="0.7"/>
<rect x="517.2083333333334" y="208.98667729446595" width="72" height="16" fill="#4ecdc4" opacity="0.85" rx="3"/>
<text x="553.2083333333334" y="220.98667729446595" text-anchor="middle" font-family="sans-serif" font-size="9" fill="#000000" font-weight="bold">B3乖离买入</text>
<polygon points="553.2083333333334,288.98667729446595 549.2083333333334,282.98667729446595 557.2083333333334,282.98667729446595" fill="#4ecdc4" opacity="0.9"/>
<line x1="630.7916666666666" y1="185.25233432020036" x2="630.7916666666666" y2="105.25233432020036" stroke="#4ecdc4" stroke-width="0.8" stroke-dasharray="2,2" opacity="0.7"/>
<rect x="594.7916666666666" y="96.25233432020036" width="72" height="16" fill="#4ecdc4" opacity="0.85" rx="3"/>
<text x="630.7916666666666" y="108.25233432020036" text-anchor="middle" font-family="sans-serif" font-size="9" fill="#000000" font-weight="bold">B4乖离买入</text>
<polygon points="630.7916666666666,191.25233432020036 626.7916666666666,185.25233432020036 634.7916666666666,185.25233432020036" fill="#4ecdc4" opacity="0.9"/>
<line x1="697.2916666666666" y1="114.64461398314731" x2="697.2916666666666" y2="19.64461398314731" stroke="#4ecdc4" stroke-width="0.8" stroke-dasharray="2,2" opacity="0.7"/>
<rect x="661.2916666666666" y="10.644613983147309" width="72" height="16" fill="#4ecdc4" opacity="0.85" rx="3"/>
<text x="697.2916666666666" y="22.64461398314731" text-anchor="middle" font-family="sans-serif" font-size="9" fill="#000000" font-weight="bold">B5乖离买入</text>
<polygon points="697.2916666666666,120.64461398314731 693.2916666666666,114.64461398314731 701.2916666666666,114.64461398314731" fill="#4ecdc4" opacity="0.9"/>
<line x1="143.125" y1="275.5726485994079" x2="143.125" y2="294.5726485994079" stroke="#e94560" stroke-width="0.8" stroke-dasharray="2,2" opacity="0.7"/>
<rect x="109.125" y="301.5726485994079" width="68" height="16" fill="#e94560" opacity="0.85" rx="3"/>
<text x="143.125" y="313.5726485994079" text-anchor="middle" font-family="sans-serif" font-size="9" fill="#ffffff" font-weight="bold">W1警戒⚠️</text>
<polygon points="143.125,269.5726485994079 139.125,275.5726485994079 147.125,275.5726485994079" fill="#e94560" opacity="0.9"/>
<line x1="608.625" y1="133.00523798679114" x2="608.625" y2="167.00523798679114" stroke="#e94560" stroke-width="0.8" stroke-dasharray="2,2" opacity="0.7"/>
<rect x="574.625" y="174.00523798679114" width="68" height="16" fill="#e94560" opacity="0.85" rx="3"/>
<text x="608.625" y="186.00523798679114" text-anchor="middle" font-family="sans-serif" font-size="9" fill="#ffffff" font-weight="bold">W2警戒⚠️</text>
<polygon points="608.625,127.00523798679114 604.625,133.00523798679114 612.625,133.00523798679114" fill="#e94560" opacity="0.9"/>
<line x1="675.125" y1="85.42461853791848" x2="675.125" y2="134.4246185379185" stroke="#e94560" stroke-width="0.8" stroke-dasharray="2,2" opacity="0.7"/>
<rect x="641.125" y="141.4246185379185" width="68" height="16" fill="#e94560" opacity="0.85" rx="3"/>
<text x="675.125" y="153.4246185379185" text-anchor="middle" font-family="sans-serif" font-size="9" fill="#ffffff" font-weight="bold">W3警戒⚠️</text>
<polygon points="675.125,79.42461853791848 671.125,85.42461853791848 679.125,85.42461853791848" fill="#e94560" opacity="0.9"/>
<text x="375.0" y="435" text-anchor="middle" font-family="sans-serif" font-size="10" fill="#aaaaaa">📊 BIAS5=7.50%，持有区，趋势健康</text>
<rect x="60" y="443" width="665" height="55" fill="#111122" opacity="0.5" rx="2"/>
<rect x="60" y="443" width="665" height="16.96666666666664" fill="#e94560" opacity="0.18" rx="2"/>
<rect x="60" y="459.96666666666664" width="665" height="9.400000000000034" fill="#ffd700" opacity="0.12"/>
<rect x="60" y="469.3666666666667" width="665" height="30.633333333333326" fill="#4ecdc4" opacity="0.14"/>
<text x="670" y="454.48333333333335" text-anchor="end" font-family="sans-serif" font-size="9" fill="#e94560" font-weight="bold">⚠️ 警戒区</text>
<text x="670" y="467.66666666666663" text-anchor="end" font-family="sans-serif" font-size="9" fill="#ffd700">持有区</text>
<text x="670" y="487.68333333333334" text-anchor="end" font-family="sans-serif" font-size="9" fill="#4ecdc4">买入区</text>
<line x1="60" y1="472.5" x2="725" y2="472.5" stroke="#888888" stroke-width="0.5" stroke-dasharray="3,2" opacity="0.5"/>
<text x="56" y="475.5" text-anchor="end" font-family="sans-serif" font-size="7" fill="#888888">0%</text>
<line x1="60" y1="469.3666666666667" x2="725" y2="469.3666666666667" stroke="#4ecdc4" stroke-width="0.5" stroke-dasharray="3,2" opacity="0.5"/>
<text x="56" y="472.3666666666667" text-anchor="end" font-family="sans-serif" font-size="7" fill="#4ecdc4">2%</text>
<line x1="60" y1="459.96666666666664" x2="725" y2="459.96666666666664" stroke="#e94560" stroke-width="0.5" stroke-dasharray="3,2" opacity="0.5"/>
<text x="56" y="462.96666666666664" text-anchor="end" font-family="sans-serif" font-size="7" fill="#e94560">8%</text>
<text x="60" y="445" font-family="sans-serif" font-size="8" fill="#888888">BIAS5</text>
<polyline points="65.54166666666667,472.5 76.625,469.5559284116331 87.70833333333334,469.00258718039476 98.79166666666667,464.31593479120244 109.87500000000001,466.1788992997989 120.95833333333334,462.1535255348246 132.04166666666666,460.529884822817 143.125,456.7391047889297 154.20833333333334,458.7939837065688 165.29166666666666,459.24583029677336 176.375,454.3513976823608 187.45833333333334,466.5473032224866 198.54166666666666,476.3858835304341 209.625,476.4088127917125 220.70833333333334,480.60139229395264 231.79166666666666,474.6533940087431 242.875,469.2930645768479 253.95833333333334,473.8408558995623 265.0416666666667,475.87410001043764 276.12500000000006,475.99621580853125 287.20833333333337,471.4246478409818 298.2916666666667,481.473274070775 309.37500000000006,474.6177249237688 320.45833333333337,476.3581347121613 331.5416666666667,478.4699123705528 342.62500000000006,475.30112845660364 353.70833333333337,478.80075816862615 364.7916666666667,473.50679362064903 375.87500000000006,472.50970923956396 386.95833333333337,466.4032724105548 398.0416666666667,464.2181838542995 409.12500000000006,466.16238541078127 420.20833333333337,460.12195889754025 431.2916666666667,468.3817210227468 442.37500000000006,477.22663227615703 453.45833333333337,475.66469245233765 464.5416666666667,470.6484096502789 475.62500000000006,472.80561991150023 486.70833333333337,471.52819198594744 497.7916666666667,467.7059340716917 508.87500000000006,472.24103352112706 519.9583333333334,474.4108276578546 531.0416666666666,470.6800961343795 542.125,474.1415243358878 553.2083333333334,470.5222354219955 564.2916666666666,470.7559045325236 575.375,466.4554451330632 586.4583333333334,461.6584499673333 597.5416666666666,462.90686298078185 608.625,457.99438333265516 619.7083333333334,465.61370801580364 630.7916666666666,469.49629127261363 641.875,474.02568399882836 652.9583333333334,476.133158802867 664.0416666666666,464.9069235426453 675.125,459.78743812903923 686.2083333333334,460.89284141229126 697.2916666666666,471.26079900944495 708.375,470.08579266797096 719.4583333333334,460.7440780992735" fill="none" stroke="#4ecdc4" stroke-width="1.5" opacity="0.9"/>
<circle cx="719.4583333333334" cy="460.7440780992735" r="3" fill="#4ecdc4" opacity="1"/>
<text x="724.4583333333334" y="463.7440780992735" font-family="sans-serif" font-size="9" fill="#4ecdc4" font-weight="bold">BIAS5=7.5%</text>
<text x="65.54166666666667" y="489" text-anchor="middle" font-family="sans-serif" font-size="8" fill="#666666" transform="rotate(-45,65.54166666666667,489)">02/25</text>
<text x="120.95833333333334" y="489" text-anchor="middle" font-family="sans-serif" font-size="8" fill="#666666" transform="rotate(-45,120.95833333333334,489)">03/04</text>
<text x="176.375" y="489" text-anchor="middle" font-family="sans-serif" font-size="8" fill="#666666" transform="rotate(-45,176.375,489)">03/11</text>
<text x="231.79166666666666" y="489" text-anchor="middle" font-family="sans-serif" font-size="8" fill="#666666" transform="rotate(-45,231.79166666666666,489)">03/18</text>
<text x="287.20833333333337" y="489" text-anchor="middle" font-family="sans-serif" font-size="8" fill="#666666" transform="rotate(-45,287.20833333333337,489)">03/25</text>
<text x="342.62500000000006" y="489" text-anchor="middle" font-family="sans-serif" font-size="8" fill="#666666" transform="rotate(-45,342.62500000000006,489)">04/01</text>
<text x="398.0416666666667" y="489" text-anchor="middle" font-family="sans-serif" font-size="8" fill="#666666" transform="rotate(-45,398.0416666666667,489)">04/09</text>
<text x="453.45833333333337" y="489" text-anchor="middle" font-family="sans-serif" font-size="8" fill="#666666" transform="rotate(-45,453.45833333333337,489)">04/16</text>
<text x="508.87500000000006" y="489" text-anchor="middle" font-family="sans-serif" font-size="8" fill="#666666" transform="rotate(-45,508.87500000000006,489)">04/23</text>
<text x="564.2916666666666" y="489" text-anchor="middle" font-family="sans-serif" font-size="8" fill="#666666" transform="rotate(-45,564.2916666666666,489)">04/30</text>
<text x="619.7083333333334" y="489" text-anchor="middle" font-family="sans-serif" font-size="8" fill="#666666" transform="rotate(-45,619.7083333333334,489)">05/12</text>
<text x="675.125" y="489" text-anchor="middle" font-family="sans-serif" font-size="8" fill="#666666" transform="rotate(-45,675.125,489)">05/19</text>
<text x="719.4583333333334" y="489" text-anchor="middle" font-family="sans-serif" font-size="8" fill="#666666" transform="rotate(-45,719.4583333333334,489)">05/25</text>
<rect x="60" y="484" width="8" height="8" fill="#4ecdc4" opacity="0.8" rx="1"/>
<text x="71" y="491" font-family="sans-serif" font-size="9" fill="#888888">买入区(BIAS&lt;2%)</text>
<rect x="230" y="484" width="8" height="8" fill="#ffd700" opacity="0.8" rx="1"/>
<text x="241" y="491" font-family="sans-serif" font-size="9" fill="#888888">持有区(2-8%)</text>
<rect x="400" y="484" width="8" height="8" fill="#e94560" opacity="0.8" rx="1"/>
<text x="411" y="491" font-family="sans-serif" font-size="9" fill="#888888">警戒区(&gt;8%)</text>
<rect x="570" y="484" width="8" height="8" fill="#ffd700" opacity="0.8" rx="1"/>
<text x="581" y="491" font-family="sans-serif" font-size="9" fill="#888888">EMA5</text>
<rect x="60" y="497" width="8" height="8" fill="#ff6b6b" opacity="0.8" rx="1"/>
<text x="71" y="504" font-family="sans-serif" font-size="9" fill="#888888">EMA10</text>
<rect x="230" y="497" width="8" height="8" fill="#4ecdc4" opacity="0.8" rx="1"/>
<text x="241" y="504" font-family="sans-serif" font-size="9" fill="#888888">EMA20</text>
<rect x="400" y="497" width="8" height="8" fill="#4ecdc4" opacity="0.8" rx="1"/>
<text x="411" y="504" font-family="sans-serif" font-size="9" fill="#888888">B乖离买入</text>
<rect x="570" y="497" width="8" height="8" fill="#e94560" opacity="0.8" rx="1"/>
<text x="581" y="504" font-family="sans-serif" font-size="9" fill="#888888">W警戒⚠️</text>
</svg>