<svg xmlns="http://www.w3.org/2000/svg" width="750" height="540" viewBox="0 0 750 540">
<rect width="750" height="540" fill="#1a1a2e"/>
<text x="375.0" y="22" text-anchor="middle" font-family="sans-serif" font-size="15" fill="#ffffff" font-weight="bold">海星股份(603115) 趋势交易分析图</text>
<text x="60" y="31" font-family="sans-serif" font-size="10" fill="#888888">最新: 102.80</text>
<line x1="60" y1="94.94610408446368" x2="725" y2="94.94610408446368" stroke="#4ecdc4" stroke-width="0.5" stroke-dasharray="4,3" opacity="0.4"/>
<text x="62" y="92.94610408446368" font-family="sans-serif" font-size="7" fill="#4ecdc4" opacity="0.6">买入↑2%</text>
<line x1="60" y1="69.77102416577046" x2="725" y2="69.77102416577046" stroke="#e94560" stroke-width="0.5" stroke-dasharray="4,3" opacity="0.4"/>
<text x="62" y="67.77102416577046" font-family="sans-serif" font-size="7" fill="#e94560" opacity="0.6">警戒↑8%</text>
<rect x="60" y="94.94610408446368" width="3" height="288.0538959155363" fill="#4ecdc4" opacity="0.3" rx="1"/>
<rect x="60" y="69.77102416577046" width="3" height="313.2289758342296" fill="#e94560" opacity="0.3" rx="1"/>
<rect x="60" y="69.77102416577046" width="3" height="25.17507991869323" fill="#ffd700" opacity="0.2" rx="1"/>
<line x1="60" y1="32.0" x2="725" y2="32.0" stroke="#2a2a4e" stroke-width="0.5"/>
<text x="56" y="35.0" text-anchor="end" font-family="sans-serif" font-size="8" fill="#666666">122.0</text>
<line x1="60" y1="127.75" x2="725" y2="127.75" stroke="#2a2a4e" stroke-width="0.5"/>
<text x="56" y="130.75" text-anchor="end" font-family="sans-serif" font-size="8" fill="#666666">98.2</text>
<line x1="60" y1="223.5" x2="725" y2="223.5" stroke="#2a2a4e" stroke-width="0.5"/>
<text x="56" y="226.5" text-anchor="end" font-family="sans-serif" font-size="8" fill="#666666">74.4</text>
<line x1="60" y1="319.25" x2="725" y2="319.25" stroke="#2a2a4e" stroke-width="0.5"/>
<text x="56" y="322.25" text-anchor="end" font-family="sans-serif" font-size="8" fill="#666666">50.6</text>
<line x1="60" y1="415.0" x2="725" y2="415.0" stroke="#2a2a4e" stroke-width="0.5"/>
<text x="56" y="418.0" text-anchor="end" font-family="sans-serif" font-size="8" fill="#666666">26.8</text>
<rect x="61.66250000000001" y="474.6844332695689" width="6.095833333333334" height="0.5" fill="#44aa44" opacity="0.35"/>
<rect x="72.74583333333334" y="474.72595743241936" width="6.095833333333334" height="0.5" fill="#ff4444" opacity="0.35"/>
<rect x="83.82916666666668" y="474.5089226711495" width="6.095833333333334" height="0.5" fill="#ff4444" opacity="0.35"/>
<rect x="94.91250000000001" y="474.4715441616911" width="6.095833333333334" height="0.5284558383088903" fill="#44aa44" opacity="0.35"/>
<rect x="105.99583333333335" y="474.2968112959635" width="6.095833333333334" height="0.703188704036481" fill="#ff4444" opacity="0.35"/>
<rect x="117.07916666666668" y="474.4551103317682" width="6.095833333333334" height="0.5448896682317933" fill="#44aa44" opacity="0.35"/>
<rect x="128.1625" y="474.6593158850695" width="6.095833333333334" height="0.5" fill="#44aa44" opacity="0.35"/>
<rect x="139.24583333333334" y="474.6176429385736" width="6.095833333333334" height="0.5" fill="#ff4444" opacity="0.35"/>
<rect x="150.32916666666668" y="474.6968330338338" width="6.095833333333334" height="0.5" fill="#ff4444" opacity="0.35"/>
<rect x="161.4125" y="474.4663806929067" width="6.095833333333334" height="0.5336193070933086" fill="#44aa44" opacity="0.35"/>
<rect x="172.49583333333334" y="474.63817170019126" width="6.095833333333334" height="0.5" fill="#44aa44" opacity="0.35"/>
<rect x="183.57916666666668" y="474.64150918787317" width="6.095833333333334" height="0.5" fill="#ff4444" opacity="0.35"/>
<rect x="194.6625" y="474.61574594709487" width="6.095833333333334" height="0.5" fill="#44aa44" opacity="0.35"/>
<rect x="205.74583333333334" y="474.6965456108825" width="6.095833333333334" height="0.5" fill="#44aa44" opacity="0.35"/>
<rect x="216.82916666666668" y="474.6545040867196" width="6.095833333333334" height="0.5" fill="#ff4444" opacity="0.35"/>
<rect x="227.9125" y="474.5319300330416" width="6.095833333333334" height="0.5" fill="#ff4444" opacity="0.35"/>
<rect x="238.99583333333334" y="474.6668260777153" width="6.095833333333334" height="0.5" fill="#44aa44" opacity="0.35"/>
<rect x="250.07916666666668" y="474.62339139760013" width="6.095833333333334" height="0.5" fill="#ff4444" opacity="0.35"/>
<rect x="261.1625" y="474.661642320252" width="6.095833333333334" height="0.5" fill="#ff4444" opacity="0.35"/>
<rect x="272.2458333333334" y="474.5960693099917" width="6.095833333333334" height="0.5" fill="#44aa44" opacity="0.35"/>
<rect x="283.3291666666667" y="474.2116258960833" width="6.095833333333334" height="0.7883741039166812" fill="#ff4444" opacity="0.35"/>
<rect x="294.4125" y="474.2895411860182" width="6.095833333333334" height="0.7104588139817981" fill="#ff4444" opacity="0.35"/>
<rect x="305.4958333333334" y="474.3188109868027" width="6.095833333333334" height="0.6811890131973025" fill="#ff4444" opacity="0.35"/>
<rect x="316.5791666666667" y="474.55434564179853" width="6.095833333333334" height="0.5" fill="#44aa44" opacity="0.35"/>
<rect x="327.6625" y="474.4635504221977" width="6.095833333333334" height="0.536449577802253" fill="#ff4444" opacity="0.35"/>
<rect x="338.7458333333334" y="474.49381774969567" width="6.095833333333334" height="0.5061822503043302" fill="#44aa44" opacity="0.35"/>
<rect x="349.8291666666667" y="474.61776128920064" width="6.095833333333334" height="0.5" fill="#44aa44" opacity="0.35"/>
<rect x="360.9125" y="474.69481092883507" width="6.095833333333334" height="0.5" fill="#44aa44" opacity="0.35"/>
<rect x="371.9958333333334" y="474.6739034452109" width="6.095833333333334" height="0.5" fill="#ff4444" opacity="0.35"/>
<rect x="383.0791666666667" y="474.6474030490986" width="6.095833333333334" height="0.5" fill="#ff4444" opacity="0.35"/>
<rect x="394.1625" y="474.63969673255656" width="6.095833333333334" height="0.5" fill="#44aa44" opacity="0.35"/>
<rect x="405.2458333333334" y="474.5533278264062" width="6.095833333333334" height="0.5" fill="#ff4444" opacity="0.35"/>
<rect x="416.3291666666667" y="474.59085511950997" width="6.095833333333334" height="0.5" fill="#ff4444" opacity="0.35"/>
<rect x="427.4125" y="474.7137064517999" width="6.095833333333334" height="0.5" fill="#ff4444" opacity="0.35"/>
<rect x="438.4958333333334" y="474.64266226112494" width="6.095833333333334" height="0.5" fill="#ff4444" opacity="0.35"/>
<rect x="449.5791666666667" y="474.6439167777713" width="6.095833333333334" height="0.5" fill="#ff4444" opacity="0.35"/>
<rect x="460.6625" y="474.63215610689235" width="6.095833333333334" height="0.5" fill="#44aa44" opacity="0.35"/>
<rect x="471.7458333333334" y="474.70982116978723" width="6.095833333333334" height="0.5" fill="#ff4444" opacity="0.35"/>
<rect x="482.8291666666667" y="474.8854636446196" width="6.095833333333334" height="0.5" fill="#ff4444" opacity="0.35"/>
<rect x="493.9125" y="474.2866297605936" width="6.095833333333334" height="0.7133702394064112" fill="#ff4444" opacity="0.35"/>
<rect x="504.9958333333334" y="474.40755366838636" width="6.095833333333334" height="0.5924463316136264" fill="#ff4444" opacity="0.35"/>
<rect x="516.0791666666667" y="474.58275317372903" width="6.095833333333334" height="0.5" fill="#44aa44" opacity="0.35"/>
<rect x="527.1624999999999" y="474.7019694510463" width="6.095833333333334" height="0.5" fill="#44aa44" opacity="0.35"/>
<rect x="538.2458333333333" y="474.7397334454041" width="6.095833333333334" height="0.5" fill="#44aa44" opacity="0.35"/>
<rect x="549.3291666666667" y="474.8266400015458" width="6.095833333333334" height="0.5" fill="#44aa44" opacity="0.35"/>
<rect x="560.4124999999999" y="474.62701292678685" width="6.095833333333334" height="0.5" fill="#ff4444" opacity="0.35"/>
<rect x="571.4958333333333" y="474.67085676192687" width="6.095833333333334" height="0.5" fill="#44aa44" opacity="0.35"/>
<rect x="582.5791666666667" y="474.7315638706935" width="6.095833333333334" height="0.5" fill="#44aa44" opacity="0.35"/>
<rect x="593.6624999999999" y="474.7300050238633" width="6.095833333333334" height="0.5" fill="#ff4444" opacity="0.35"/>
<rect x="604.7458333333333" y="474.75065213610804" width="6.095833333333334" height="0.5" fill="#ff4444" opacity="0.35"/>
<rect x="615.8291666666667" y="474.67974320329256" width="6.095833333333334" height="0.5" fill="#ff4444" opacity="0.35"/>
<rect x="626.9124999999999" y="474.6759255502096" width="6.095833333333334" height="0.5" fill="#ff4444" opacity="0.35"/>
<rect x="637.9958333333333" y="474.6390204432593" width="6.095833333333334" height="0.5" fill="#ff4444" opacity="0.35"/>
<rect x="649.0791666666667" y="474.78349950727494" width="6.095833333333334" height="0.5" fill="#ff4444" opacity="0.35"/>
<rect x="660.1624999999999" y="474.70386644252505" width="6.095833333333334" height="0.5" fill="#ff4444" opacity="0.35"/>
<rect x="671.2458333333333" y="474.60805315633877" width="6.095833333333334" height="0.5" fill="#ff4444" opacity="0.35"/>
<rect x="682.3291666666667" y="474.6005970668367" width="6.095833333333334" height="0.5" fill="#ff4444" opacity="0.35"/>
<rect x="693.4124999999999" y="474.67396769269413" width="6.095833333333334" height="0.5" fill="#ff4444" opacity="0.35"/>
<rect x="704.4958333333333" y="474.4139412207988" width="6.095833333333334" height="0.5860587792012056" fill="#44aa44" opacity="0.35"/>
<rect x="715.5791666666667" y="440.0" width="6.095833333333334" height="35.0" fill="#44aa44" opacity="0.25" stroke-dasharray="3,2"/>
<polyline points="65.54166666666667,409.00430762765285 76.625,409.28598445051483 87.70833333333334,405.7046648455558 98.79166666666667,405.771730755761 109.87500000000001,404.59584179682935 120.95833333333334,404.06676628298817 132.04166666666666,404.8541697472495 143.125,405.1913208415158 154.20833333333334,401.51285226374915 165.29166666666666,398.8056894197916 176.375,397.05456691865066 187.45833333333334,395.9408046460543 198.54166666666666,394.6751823647226 209.625,397.1981428694705 220.70833333333334,394.8561619269888 231.79166666666666,393.68382357785805 242.875,394.04238515192634 253.95833333333334,394.0668152886485 265.0416666666667,389.79088379332893 276.12500000000006,385.4379864078521 287.20833333333337,378.3109024746051 298.2916666666667,368.2613062795609 309.37500000000006,359.22768180772294 320.45833333333337,354.8416737021718 331.5416666666667,348.027845506568 342.62500000000006,347.64337980888945 353.70833333333337,349.5734180164607 364.7916666666667,352.1343624487408 375.87500000000006,349.77746457849094 386.95833333333337,346.82464158143006 398.0416666666667,347.98136433228626 409.12500000000006,350.83155604921905 420.20833333333337,349.0430587992202 431.2916666666667,347.31420001757914 442.37500000000006,342.86198471438803 453.45833333333337,339.4109666254497 464.5416666666667,341.21472160405057 475.62500000000006,336.47518527893493 486.70833333333337,326.7832747415355 497.7916666666667,313.6288232114544 508.87500000000006,304.91284158623125 519.9583333333334,298.9546421669642 531.0416666666666,296.2835878787676 542.125,294.4358191097647 553.2083333333334,294.2904410090874 564.2916666666666,286.56142169394786 575.375,279.86622621580136 586.4583333333334,277.2269553212858 597.5416666666666,275.36013593528037 608.625,272.7072055636337 619.7083333333334,263.8966647443207 630.7916666666666,255.74272991780092 641.875,243.2648527952391 652.9583333333334,224.79248924179348 664.0416666666666,201.3043995659726 675.125,177.6648298010035 686.2083333333334,150.91972053274156 697.2916666666666,118.911914269849 708.375,100.3767318078324 719.4583333333334,103.33779739069476" fill="none" stroke="#ffd700" stroke-width="1" opacity="0.7"/>
<polyline points="65.54166666666667,409.00430762765285 76.625,409.1579495310321 87.70833333333334,407.2277815500513 98.79166666666667,406.98743264570953 109.87500000000001,406.1250019608471 120.95833333333334,405.55838619620323 132.04166666666666,405.71667537430665 143.125,405.7437567662597 154.20833333333334,403.6368764647972 165.29166666666666,401.7740559679025 176.375,400.27919523126 187.45833333333334,399.08539248027853 198.54166666666666,397.82330981151136 209.625,398.6270832783213 220.70833333333334,397.08983178081303 231.79166666666666,396.04425270786453 242.875,395.810662815537 253.95833333333334,395.5024833149108 265.0416666666667,392.9091264945069 276.12500000000006,389.9678656113054 287.20833333333337,385.2567508834519 298.2916666666667,378.51227143000114 309.37500000000006,371.72102805437305 320.45833333333337,367.0571424974088 331.5416666666667,361.11951460976366 342.62500000000006,358.52950257408514 353.70833333333337,357.6029556390885 364.7916666666667,357.5399184889453 375.87500000000006,355.27150946149914 386.95833333333337,352.66196148437353 398.0416666666667,352.23157027521444 409.12500000000006,353.0134555857363 420.20833333333337,351.64120262455197 431.2916666666667,350.2257989572329 442.37500000000006,347.26793625737344 453.45833333333337,344.5844806555915 464.5416666666667,344.62770809298445 475.62500000000006,341.4219634631151 486.70833333333337,335.23605259104636 497.7916666666667,326.5240285110911 508.87500000000006,319.42527393376264 519.9583333333334,313.53672291461135 531.0416666666666,309.42849680329556 542.125,306.0306394884707 553.2083333333334,303.84319318288186 564.2916666666666,297.8905004339341 575.375,292.17874312949306 586.4583333333334,288.5005013845406 597.5416666666666,285.4325006170368 608.625,282.1541086540011 619.7083333333334,275.6307403724908 630.7916666666666,269.0496712619946 641.875,259.8241125871075 652.9583333333334,246.73750341397925 664.0416666666666,229.93581555949777 675.125,211.83579277978276 686.2083333333334,191.03464900095275 697.2916666666666,166.28222222697295 708.375,147.55933943730497 719.4583333333334,140.59581018623487" fill="none" stroke="#ff6b6b" stroke-width="1" opacity="0.7"/>
<polyline points="65.54166666666667,409.00430762765285 76.625,409.08478671989917 87.70833333333334,408.08071423568373 98.79166666666667,407.8735855062064 109.87500000000001,407.3374405893264 120.95833333333334,406.9251715098958 132.04166666666666,406.87791485902693 143.125,406.7815061134099 154.20833333333334,405.57906887482 165.29166666666666,404.4183350516825 176.375,403.3834766578432 187.45833333333334,402.4625055571782 198.54166666666666,401.4797848185954 209.625,401.5525733005355 220.70833333333334,400.4687282282964 231.79166666666666,399.59924429032503 242.875,399.1383170531572 253.95833333333334,398.65997024448444 265.0416666666667,397.0008322024087 276.12500000000006,395.07048548188396 287.20833333333337,392.116794922477 298.2916666666667,387.9306348240956 309.37500000000006,383.4763298755196 320.45833333333337,379.9137896484291 331.5416666666667,375.579161026232 342.62500000000006,372.84537887264156 353.70833333333337,370.9966279734951 364.7916666666667,369.6880206725242 375.87500000000006,367.3428443073306 386.95833333333337,364.8262872863761 398.0416666666667,363.44233705281636 409.12500000000006,362.7842039509372 420.20833333333337,361.1348573174405 431.2916666666667,359.4892978066649 442.37500000000006,357.0577031686974 453.45833333333337,354.7197248143046 464.5416666666667,353.77710640925204 475.62500000000006,351.22653557300924 486.70833333333337,347.0525277724119 497.7916666666667,341.3637079989719 508.87500000000006,336.2320099358113 519.9583333333334,331.54688930653685 531.0416666666666,327.6797074013785 542.125,324.1616668461766 553.2083333333334,321.28909712822957 564.2916666666666,316.5095053125571 575.375,311.74439387893335 586.4583333333334,307.9543005125831 597.5416666666666,304.4945097174103 608.625,300.9618273462608 619.7083333333334,295.753613609064 630.7916666666666,290.38992281436856 641.875,283.5250824082492 652.9583333333334,274.4129566679304 664.0416666666666,262.97631510092094 675.125,250.34863654569662 686.2083333333334,235.78490944574622 697.2916666666666,218.55742299796697 708.375,203.77160812995098 719.4583333333334,194.77049578961464" fill="none" stroke="#4ecdc4" stroke-width="1" opacity="0.7"/>
<line x1="65.54166666666667" y1="408.1190376129438" x2="65.54166666666667" y2="411.78083631014914" stroke="#44aa44" stroke-width="0.5" opacity="0.6"/>
<rect x="63.04791666666667" y="408.3604748896827" width="4.987500000000001" height="0.6438327379701718" fill="#44aa44" opacity="0.8" rx="1"/>
<line x1="76.625" y1="408.159277159067" x2="76.625" y2="412.46490859424244" stroke="#ff4444" stroke-width="0.5" opacity="0.6"/>
<rect x="74.13125" y="409.8493380962387" width="4.987500000000001" height="0.5" fill="#ff4444" opacity="0.8" rx="1"/>
<line x1="87.70833333333334" y1="398.5420256356377" x2="87.70833333333334" y2="410.6541290187014" stroke="#ff4444" stroke-width="0.5" opacity="0.6"/>
<rect x="85.21458333333334" y="398.5420256356377" width="4.987500000000001" height="12.112103383063697" fill="#ff4444" opacity="0.8" rx="1"/>
<line x1="98.79166666666667" y1="395.4033410380332" x2="98.79166666666667" y2="407.63616305946624" stroke="#44aa44" stroke-width="0.5" opacity="0.6"/>
<rect x="96.29791666666667" y="398.38106745114516" width="4.987500000000001" height="7.524795125026287" fill="#44aa44" opacity="0.8" rx="1"/>
<line x1="109.87500000000001" y1="394.1961546543392" x2="109.87500000000001" y2="410.25173355747006" stroke="#ff4444" stroke-width="0.5" opacity="0.6"/>
<rect x="107.38125000000001" y="402.24406387896613" width="4.987500000000001" height="4.3861105274216925" fill="#ff4444" opacity="0.8" rx="1"/>
<line x1="120.95833333333334" y1="397.3750787980668" x2="120.95833333333334" y2="405.34250893044754" stroke="#44aa44" stroke-width="0.5" opacity="0.6"/>
<rect x="118.46458333333334" y="399.74921201933176" width="4.987500000000001" height="3.2594032359739344" fill="#44aa44" opacity="0.8" rx="1"/>
<line x1="132.04166666666666" y1="401.07711704139524" x2="132.04166666666666" y2="408.0787980668208" stroke="#44aa44" stroke-width="0.5" opacity="0.6"/>
<rect x="129.54791666666665" y="406.18753939903337" width="4.987500000000001" height="0.5" fill="#44aa44" opacity="0.8" rx="1"/>
<line x1="143.125" y1="403.85364572389153" x2="143.125" y2="415.0" stroke="#ff4444" stroke-width="0.5" opacity="0.6"/>
<rect x="140.63125" y="405.8656230300483" width="4.987500000000001" height="4.34587098129856" fill="#ff4444" opacity="0.8" rx="1"/>
<line x1="154.20833333333334" y1="394.155915108216" x2="154.20833333333334" y2="405.7449043916789" stroke="#ff4444" stroke-width="0.5" opacity="0.6"/>
<rect x="151.71458333333334" y="394.155915108216" width="4.987500000000001" height="9.41605379281367" fill="#ff4444" opacity="0.8" rx="1"/>
<line x1="165.29166666666666" y1="387.47615045177554" x2="165.29166666666666" y2="394.35711283883165" stroke="#44aa44" stroke-width="0.5" opacity="0.6"/>
<rect x="162.79791666666665" y="391.3793864257197" width="4.987500000000001" height="2.011977306156723" fill="#44aa44" opacity="0.8" rx="1"/>
<line x1="176.375" y1="389.2064509350704" x2="176.375" y2="394.8399873923093" stroke="#44aa44" stroke-width="0.5" opacity="0.6"/>
<rect x="173.88125" y="392.1439378020592" width="4.987500000000001" height="1.4083841143097402" fill="#44aa44" opacity="0.8" rx="1"/>
<line x1="187.45833333333334" y1="389.3674091195629" x2="187.45833333333334" y2="398.74322336625335" stroke="#ff4444" stroke-width="0.5" opacity="0.6"/>
<rect x="184.96458333333334" y="393.7132801008615" width="4.987500000000001" height="1.2071863836940793" fill="#ff4444" opacity="0.8" rx="1"/>
<line x1="198.54166666666666" y1="390.9769909644883" x2="198.54166666666666" y2="400.63448203404073" stroke="#44aa44" stroke-width="0.5" opacity="0.6"/>
<rect x="196.04791666666665" y="391.58058415633536" width="4.987500000000001" height="0.5633536457238506" fill="#44aa44" opacity="0.8" rx="1"/>
<line x1="209.625" y1="390.61483504938013" x2="209.625" y2="402.56598024795125" stroke="#44aa44" stroke-width="0.5" opacity="0.6"/>
<rect x="207.13125" y="390.9769909644883" width="4.987500000000001" height="11.267072914477808" fill="#44aa44" opacity="0.8" rx="1"/>
<line x1="220.70833333333334" y1="390.17220004202557" x2="220.70833333333334" y2="404.1755620928766" stroke="#ff4444" stroke-width="0.5" opacity="0.6"/>
<rect x="218.21458333333334" y="390.17220004202557" width="4.987500000000001" height="10.01964698466071" fill="#ff4444" opacity="0.8" rx="1"/>
<line x1="231.79166666666666" y1="389.68932548854804" x2="231.79166666666666" y2="396.65076696785036" stroke="#ff4444" stroke-width="0.5" opacity="0.6"/>
<rect x="229.29791666666665" y="391.3391468795965" width="4.987500000000001" height="2.011977306156723" fill="#ff4444" opacity="0.8" rx="1"/>
<line x1="242.875" y1="389.5283673040554" x2="242.875" y2="395.2826223996638" stroke="#44aa44" stroke-width="0.5" opacity="0.6"/>
<rect x="240.38125" y="391.5001050640891" width="4.987500000000001" height="3.2594032359739344" fill="#44aa44" opacity="0.8" rx="1"/>
<line x1="253.95833333333334" y1="391.05747005673453" x2="253.95833333333334" y2="399.3870561042236" stroke="#ff4444" stroke-width="0.5" opacity="0.6"/>
<rect x="251.46458333333334" y="394.1156755620929" width="4.987500000000001" height="5.271380542130657" fill="#ff4444" opacity="0.8" rx="1"/>
<line x1="265.0416666666667" y1="381.2390208026896" x2="265.0416666666667" y2="393.1499264551376" stroke="#ff4444" stroke-width="0.5" opacity="0.6"/>
<rect x="262.5479166666667" y="381.2390208026896" width="4.987500000000001" height="10.74395881487709" fill="#ff4444" opacity="0.8" rx="1"/>
<line x1="276.12500000000006" y1="371.1791342719058" x2="276.12500000000006" y2="379.6696785038874" stroke="#44aa44" stroke-width="0.5" opacity="0.6"/>
<rect x="273.6312500000001" y="376.0481193528052" width="4.987500000000001" height="0.684072284093304" fill="#44aa44" opacity="0.8" rx="1"/>
<line x1="287.20833333333337" y1="362.12523639420044" x2="287.20833333333337" y2="371.5815297331372" stroke="#ff4444" stroke-width="0.5" opacity="0.6"/>
<rect x="284.7145833333334" y="364.05673460811096" width="4.987500000000001" height="5.955452826223961" fill="#ff4444" opacity="0.8" rx="1"/>
<line x1="298.2916666666667" y1="348.16211388947255" x2="298.2916666666667" y2="370.0121874343349" stroke="#ff4444" stroke-width="0.5" opacity="0.6"/>
<rect x="295.7979166666667" y="348.16211388947255" width="4.987500000000001" height="19.83809623870559" fill="#ff4444" opacity="0.8" rx="1"/>
<line x1="309.37500000000006" y1="333.79659592351334" x2="309.37500000000006" y2="355.72714856062197" stroke="#ff4444" stroke-width="0.5" opacity="0.6"/>
<rect x="306.8812500000001" y="341.16043286404704" width="4.987500000000001" height="9.617251523429275" fill="#ff4444" opacity="0.8" rx="1"/>
<line x1="320.45833333333337" y1="341.03971422567764" x2="320.45833333333337" y2="349.08762345030465" stroke="#44aa44" stroke-width="0.5" opacity="0.6"/>
<rect x="317.9645833333334" y="343.45408699306574" width="4.987500000000001" height="2.6155704980037626" fill="#44aa44" opacity="0.8" rx="1"/>
<line x1="331.5416666666667" y1="328.3642571968901" x2="331.5416666666667" y2="347.67923933599496" stroke="#ff4444" stroke-width="0.5" opacity="0.6"/>
<rect x="329.0479166666667" y="334.4001891153604" width="4.987500000000001" height="9.858688800168068" fill="#ff4444" opacity="0.8" rx="1"/>
<line x1="342.62500000000006" y1="332.46869090144986" x2="342.62500000000006" y2="349.89241437276735" stroke="#44aa44" stroke-width="0.5" opacity="0.6"/>
<rect x="340.1312500000001" y="339.7922882958605" width="4.987500000000001" height="7.082160117671776" fill="#44aa44" opacity="0.8" rx="1"/>
<line x1="353.70833333333337" y1="342.64929607060304" x2="353.70833333333337" y2="354.72115990754355" stroke="#44aa44" stroke-width="0.5" opacity="0.6"/>
<rect x="351.2145833333334" y="343.3736079008195" width="4.987500000000001" height="10.059886530783785" fill="#44aa44" opacity="0.8" rx="1"/>
<line x1="364.7916666666667" y1="349.97289346501367" x2="364.7916666666667" y2="358.1817608741332" stroke="#44aa44" stroke-width="0.5" opacity="0.6"/>
<rect x="362.2979166666667" y="353.91636898508085" width="4.987500000000001" height="3.3398823282202557" fill="#44aa44" opacity="0.8" rx="1"/>
<line x1="375.87500000000006" y1="344.13815927715905" x2="375.87500000000006" y2="357.9000840512713" stroke="#ff4444" stroke-width="0.5" opacity="0.6"/>
<rect x="373.3812500000001" y="345.06366883799114" width="4.987500000000001" height="4.868985080899336" fill="#ff4444" opacity="0.8" rx="1"/>
<line x1="386.95833333333337" y1="334.60138684597604" x2="386.95833333333337" y2="350.85816347972263" stroke="#ff4444" stroke-width="0.5" opacity="0.6"/>
<rect x="384.4645833333334" y="340.9189955873083" width="4.987500000000001" height="8.772221054843385" fill="#ff4444" opacity="0.8" rx="1"/>
<line x1="398.0416666666667" y1="336.6133641521328" x2="398.0416666666667" y2="350.6569657491069" stroke="#44aa44" stroke-width="0.5" opacity="0.6"/>
<rect x="395.5479166666667" y="339.5106114729985" width="4.987500000000001" height="10.784198361000165" fill="#44aa44" opacity="0.8" rx="1"/>
<line x1="409.12500000000006" y1="350.85816347972263" x2="409.12500000000006" y2="359.95230090355113" stroke="#ff4444" stroke-width="0.5" opacity="0.6"/>
<rect x="406.6312500000001" y="356.53193948308467" width="4.987500000000001" height="3.420361420466463" fill="#ff4444" opacity="0.8" rx="1"/>
<line x1="420.20833333333337" y1="342.8504938012187" x2="420.20833333333337" y2="358.46343769699513" stroke="#ff4444" stroke-width="0.5" opacity="0.6"/>
<rect x="417.7145833333334" y="345.4660642992225" width="4.987500000000001" height="9.496532885059821" fill="#ff4444" opacity="0.8" rx="1"/>
<line x1="431.2916666666667" y1="341.442109686909" x2="431.2916666666667" y2="348.1218743433494" stroke="#ff4444" stroke-width="0.5" opacity="0.6"/>
<rect x="428.7979166666667" y="343.8564824542971" width="4.987500000000001" height="0.5" fill="#ff4444" opacity="0.8" rx="1"/>
<line x1="442.37500000000006" y1="329.9738390418155" x2="442.37500000000006" y2="345.86845976045385" stroke="#ff4444" stroke-width="0.5" opacity="0.6"/>
<rect x="439.8812500000001" y="333.95755410800587" width="4.987500000000001" height="8.36982559361212" fill="#ff4444" opacity="0.8" rx="1"/>
<line x1="453.45833333333337" y1="325.94988442950194" x2="453.45833333333337" y2="339.14845555789026" stroke="#ff4444" stroke-width="0.5" opacity="0.6"/>
<rect x="450.9645833333334" y="332.50893044757305" width="4.987500000000001" height="3.4203614204664063" fill="#ff4444" opacity="0.8" rx="1"/>
<line x1="464.5416666666667" y1="333.79659592351334" x2="464.5416666666667" y2="347.03540659802474" stroke="#44aa44" stroke-width="0.5" opacity="0.6"/>
<rect x="462.0479166666667" y="335.52689640680813" width="4.987500000000001" height="9.295335154444217" fill="#44aa44" opacity="0.8" rx="1"/>
<line x1="475.62500000000006" y1="326.99611262870354" x2="475.62500000000006" y2="345.86845976045385" stroke="#ff4444" stroke-width="0.5" opacity="0.6"/>
<rect x="473.1312500000001" y="326.99611262870354" width="4.987500000000001" height="18.872347131750303" fill="#ff4444" opacity="0.8" rx="1"/>
<line x1="486.70833333333337" y1="307.3994536667367" x2="486.70833333333337" y2="317.70077747425927" stroke="#ff4444" stroke-width="0.5" opacity="0.6"/>
<rect x="484.2145833333334" y="307.3994536667367" width="4.987500000000001" height="2.293654129018705" fill="#ff4444" opacity="0.8" rx="1"/>
<line x1="497.7916666666667" y1="285.83105694473625" x2="497.7916666666667" y2="302.69142677032994" stroke="#ff4444" stroke-width="0.5" opacity="0.6"/>
<rect x="495.2979166666667" y="287.3199201512923" width="4.987500000000001" height="13.399768859003984" fill="#ff4444" opacity="0.8" rx="1"/>
<line x1="508.87500000000006" y1="273.92015129228827" x2="508.87500000000006" y2="294.6435175457029" stroke="#ff4444" stroke-width="0.5" opacity="0.6"/>
<rect x="506.3812500000001" y="287.48087833578484" width="4.987500000000001" height="7.162639209918041" fill="#ff4444" opacity="0.8" rx="1"/>
<line x1="519.9583333333334" y1="274.3627862996427" x2="519.9583333333334" y2="295.9714225677663" stroke="#44aa44" stroke-width="0.5" opacity="0.6"/>
<rect x="517.4645833333334" y="285.9115360369825" width="4.987500000000001" height="1.126707291447815" fill="#44aa44" opacity="0.8" rx="1"/>
<line x1="531.0416666666666" y1="282.2497373397772" x2="531.0416666666666" y2="292.0681865938222" stroke="#44aa44" stroke-width="0.5" opacity="0.6"/>
<rect x="528.5479166666667" y="290.9012397562513" width="4.987500000000001" height="0.5" fill="#44aa44" opacity="0.8" rx="1"/>
<line x1="542.125" y1="287.19920151292285" x2="542.125" y2="299.5929817188485" stroke="#44aa44" stroke-width="0.5" opacity="0.6"/>
<rect x="539.63125" y="288.2856692582475" width="4.987500000000001" height="2.4546123135112907" fill="#44aa44" opacity="0.8" rx="1"/>
<line x1="553.2083333333334" y1="283.69836100021007" x2="553.2083333333334" y2="294.24112208447156" stroke="#44aa44" stroke-width="0.5" opacity="0.6"/>
<rect x="550.7145833333334" y="287.72231561252363" width="4.987500000000001" height="6.277369195209076" fill="#44aa44" opacity="0.8" rx="1"/>
<line x1="564.2916666666666" y1="271.10338306366884" x2="564.2916666666666" y2="295.7299852910275" stroke="#ff4444" stroke-width="0.5" opacity="0.6"/>
<rect x="561.7979166666667" y="271.10338306366884" width="4.987500000000001" height="23.781571758772827" fill="#ff4444" opacity="0.8" rx="1"/>
<line x1="575.375" y1="259.59487287245213" x2="575.375" y2="275.2078167682286" stroke="#44aa44" stroke-width="0.5" opacity="0.6"/>
<rect x="572.88125" y="265.99296070603066" width="4.987500000000001" height="0.5" fill="#44aa44" opacity="0.8" rx="1"/>
<line x1="586.4583333333334" y1="258.1462492120193" x2="586.4583333333334" y2="277.4612313511242" stroke="#44aa44" stroke-width="0.5" opacity="0.6"/>
<rect x="583.9645833333334" y="271.3045807942845" width="4.987500000000001" height="0.6438327379701718" fill="#44aa44" opacity="0.8" rx="1"/>
<line x1="597.5416666666666" y1="262.9749947467956" x2="597.5416666666666" y2="280.398718218113" stroke="#ff4444" stroke-width="0.5" opacity="0.6"/>
<rect x="595.0479166666667" y="271.62649716326956" width="4.987500000000001" height="2.4143727673881017" fill="#ff4444" opacity="0.8" rx="1"/>
<line x1="608.625" y1="261.3654129018702" x2="608.625" y2="280.680395040975" stroke="#ff4444" stroke-width="0.5" opacity="0.6"/>
<rect x="606.13125" y="267.4013448203404" width="4.987500000000001" height="8.007669678503873" fill="#ff4444" opacity="0.8" rx="1"/>
<line x1="619.7083333333334" y1="242.0906703088884" x2="619.7083333333334" y2="274.04086993065766" stroke="#ff4444" stroke-width="0.5" opacity="0.6"/>
<rect x="617.2145833333334" y="246.27558310569447" width="4.987500000000001" height="24.385164950619867" fill="#ff4444" opacity="0.8" rx="1"/>
<line x1="630.7916666666666" y1="227.16179869720528" x2="630.7916666666666" y2="256.254990544232" stroke="#ff4444" stroke-width="0.5" opacity="0.6"/>
<rect x="628.2979166666667" y="239.43486026476148" width="4.987500000000001" height="6.840722840932983" fill="#ff4444" opacity="0.8" rx="1"/>
<line x1="641.875" y1="214.8887371296491" x2="641.875" y2="245.26959445261605" stroke="#ff4444" stroke-width="0.5" opacity="0.6"/>
<rect x="639.38125" y="218.30909855011555" width="4.987500000000001" height="21.28671989913849" fill="#ff4444" opacity="0.8" rx="1"/>
<line x1="652.9583333333334" y1="187.8477621349023" x2="652.9583333333334" y2="225.1498213910485" stroke="#ff4444" stroke-width="0.5" opacity="0.6"/>
<rect x="650.4645833333334" y="187.8477621349023" width="4.987500000000001" height="37.30205925614621" fill="#ff4444" opacity="0.8" rx="1"/>
<line x1="664.0416666666666" y1="154.32822021433077" x2="664.0416666666666" y2="194.32632906072706" stroke="#ff4444" stroke-width="0.5" opacity="0.6"/>
<rect x="661.5479166666667" y="154.32822021433077" width="4.987500000000001" height="21.568396722000386" fill="#ff4444" opacity="0.8" rx="1"/>
<line x1="675.125" y1="124.55095608321075" x2="675.125" y2="156.86331162008827" stroke="#ff4444" stroke-width="0.5" opacity="0.6"/>
<rect x="672.63125" y="130.38569027106536" width="4.987500000000001" height="26.397142256776647" fill="#ff4444" opacity="0.8" rx="1"/>
<line x1="686.2083333333334" y1="91.11189325488547" x2="686.2083333333334" y2="151.99432653918888" stroke="#ff4444" stroke-width="0.5" opacity="0.6"/>
<rect x="683.7145833333334" y="97.42950199621771" width="4.987500000000001" height="37.22158016389997" fill="#ff4444" opacity="0.8" rx="1"/>
<line x1="697.2916666666666" y1="54.89630174406386" x2="697.2916666666666" y2="108.45513763395671" stroke="#ff4444" stroke-width="0.5" opacity="0.6"/>
<rect x="694.7979166666667" y="54.89630174406386" width="4.987500000000001" height="38.26780836310152" fill="#ff4444" opacity="0.8" rx="1"/>
<line x1="708.375" y1="32.0" x2="708.375" y2="101.69489388526998" stroke="#44aa44" stroke-width="0.5" opacity="0.6"/>
<rect x="705.88125" y="35.58131960495903" width="4.987500000000001" height="27.725047278840087" fill="#44aa44" opacity="0.8" rx="1"/>
<line x1="719.4583333333334" y1="80.36793444000838" x2="719.4583333333334" y2="109.25992855641942" stroke="#44aa44" stroke-width="0.5" opacity="0.3" stroke-dasharray="4,3"/>
<rect x="716.9645833333334" y="85.11620088253835" width="4.987500000000001" height="24.143727673881074" fill="#44aa44" opacity="0.4" stroke-dasharray="4,3" rx="1"/>
<text x="739.4583333333334" y="103.25992855641942" font-family="sans-serif" font-size="9" fill="#ffd700" opacity="0.8">🕐 盘中</text>
<line x1="431.2916666666667" y1="348.1218743433494" x2="431.2916666666667" y2="313.1218743433494" stroke="#4ecdc4" stroke-width="0.8" stroke-dasharray="2,2" opacity="0.7"/>
<rect x="395.2916666666667" y="304.1218743433494" width="72" height="16" fill="#4ecdc4" opacity="0.85" rx="3"/>
<text x="431.2916666666667" y="316.1218743433494" text-anchor="middle" font-family="sans-serif" font-size="9" fill="#000000" font-weight="bold">B1乖离买入</text>
<polygon points="431.2916666666667,354.1218743433494 427.2916666666667,348.1218743433494 435.2916666666667,348.1218743433494" fill="#4ecdc4" opacity="0.9"/>
<line x1="464.5416666666667" y1="347.03540659802474" x2="464.5416666666667" y2="297.03540659802474" stroke="#4ecdc4" stroke-width="0.8" stroke-dasharray="2,2" opacity="0.7"/>
<rect x="428.5416666666667" y="288.03540659802474" width="72" height="16" fill="#4ecdc4" opacity="0.85" rx="3"/>
<text x="464.5416666666667" y="300.03540659802474" text-anchor="middle" font-family="sans-serif" font-size="9" fill="#000000" font-weight="bold">B2乖离买入</text>
<polygon points="464.5416666666667,353.03540659802474 460.5416666666667,347.03540659802474 468.5416666666667,347.03540659802474" fill="#4ecdc4" opacity="0.9"/>
<line x1="542.125" y1="299.5929817188485" x2="542.125" y2="234.59298171884848" stroke="#4ecdc4" stroke-width="0.8" stroke-dasharray="2,2" opacity="0.7"/>
<rect x="506.125" y="225.59298171884848" width="72" height="16" fill="#4ecdc4" opacity="0.85" rx="3"/>
<text x="542.125" y="237.59298171884848" text-anchor="middle" font-family="sans-serif" font-size="9" fill="#000000" font-weight="bold">B3乖离买入</text>
<polygon points="542.125,305.5929817188485 538.125,299.5929817188485 546.125,299.5929817188485" fill="#4ecdc4" opacity="0.9"/>
<line x1="597.5416666666666" y1="280.398718218113" x2="597.5416666666666" y2="200.398718218113" stroke="#4ecdc4" stroke-width="0.8" stroke-dasharray="2,2" opacity="0.7"/>
<rect x="561.5416666666666" y="191.398718218113" width="72" height="16" fill="#4ecdc4" opacity="0.85" rx="3"/>
<text x="597.5416666666666" y="203.398718218113" text-anchor="middle" font-family="sans-serif" font-size="9" fill="#000000" font-weight="bold">B4乖离买入</text>
<polygon points="597.5416666666666,286.398718218113 593.5416666666666,280.398718218113 601.5416666666666,280.398718218113" fill="#4ecdc4" opacity="0.9"/>
<line x1="719.4583333333334" y1="109.25992855641942" x2="719.4583333333334" y2="14.259928556419425" stroke="#4ecdc4" stroke-width="0.8" stroke-dasharray="2,2" opacity="0.7"/>
<rect x="683.4583333333334" y="5.259928556419425" width="72" height="16" fill="#4ecdc4" opacity="0.85" rx="3"/>
<text x="719.4583333333334" y="17.259928556419425" text-anchor="middle" font-family="sans-serif" font-size="9" fill="#000000" font-weight="bold">B5乖离买入</text>
<polygon points="719.4583333333334,115.25992855641942 715.4583333333334,109.25992855641942 723.4583333333334,109.25992855641942" fill="#4ecdc4" opacity="0.9"/>
<line x1="287.20833333333337" y1="362.12523639420044" x2="287.20833333333337" y2="381.12523639420044" stroke="#e94560" stroke-width="0.8" stroke-dasharray="2,2" opacity="0.7"/>
<rect x="253.20833333333337" y="388.12523639420044" width="68" height="16" fill="#e94560" opacity="0.85" rx="3"/>
<text x="287.20833333333337" y="400.12523639420044" text-anchor="middle" font-family="sans-serif" font-size="9" fill="#ffffff" font-weight="bold">W1警戒⚠️</text>
<polygon points="287.20833333333337,356.12523639420044 283.20833333333337,362.12523639420044 291.20833333333337,362.12523639420044" fill="#e94560" opacity="0.9"/>
<line x1="486.70833333333337" y1="307.3994536667367" x2="486.70833333333337" y2="341.3994536667367" stroke="#e94560" stroke-width="0.8" stroke-dasharray="2,2" opacity="0.7"/>
<rect x="452.70833333333337" y="348.3994536667367" width="68" height="16" fill="#e94560" opacity="0.85" rx="3"/>
<text x="486.70833333333337" y="360.3994536667367" text-anchor="middle" font-family="sans-serif" font-size="9" fill="#ffffff" font-weight="bold">W2警戒⚠️</text>
<polygon points="486.70833333333337,301.3994536667367 482.70833333333337,307.3994536667367 490.70833333333337,307.3994536667367" fill="#e94560" opacity="0.9"/>
<line x1="641.875" y1="214.8887371296491" x2="641.875" y2="263.8887371296491" stroke="#e94560" stroke-width="0.8" stroke-dasharray="2,2" opacity="0.7"/>
<rect x="607.875" y="270.8887371296491" width="68" height="16" fill="#e94560" opacity="0.85" rx="3"/>
<text x="641.875" y="282.8887371296491" text-anchor="middle" font-family="sans-serif" font-size="9" fill="#ffffff" font-weight="bold">W3警戒⚠️</text>
<polygon points="641.875,208.8887371296491 637.875,214.8887371296491 645.875,214.8887371296491" fill="#e94560" opacity="0.9"/>
<text x="375.0" y="435" text-anchor="middle" font-family="sans-serif" font-size="10" fill="#aaaaaa">✅ BIAS5=-1.41%，乖离率买入区，可逢低吸纳</text>
<rect x="60" y="443" width="665" height="55" fill="#111122" opacity="0.5" rx="2"/>
<rect x="60" y="443" width="665" height="19.612570445907863" fill="#e94560" opacity="0.18" rx="2"/>
<rect x="60" y="462.61257044590786" width="665" height="7.415572165569074" fill="#ffd700" opacity="0.12"/>
<rect x="60" y="470.02814261147694" width="665" height="29.971857388523063" fill="#4ecdc4" opacity="0.14"/>
<text x="670" y="455.80628522295393" text-anchor="end" font-family="sans-serif" font-size="9" fill="#e94560" font-weight="bold">⚠️ 警戒区</text>
<text x="670" y="469.3203565286924" text-anchor="end" font-family="sans-serif" font-size="9" fill="#ffd700">持有区</text>
<text x="670" y="488.01407130573847" text-anchor="end" font-family="sans-serif" font-size="9" fill="#4ecdc4">买入区</text>
<line x1="60" y1="472.5" x2="725" y2="472.5" stroke="#888888" stroke-width="0.5" stroke-dasharray="3,2" opacity="0.5"/>
<text x="56" y="475.5" text-anchor="end" font-family="sans-serif" font-size="7" fill="#888888">0%</text>
<line x1="60" y1="470.02814261147694" x2="725" y2="470.02814261147694" stroke="#4ecdc4" stroke-width="0.5" stroke-dasharray="3,2" opacity="0.5"/>
<text x="56" y="473.02814261147694" text-anchor="end" font-family="sans-serif" font-size="7" fill="#4ecdc4">2%</text>
<line x1="60" y1="462.61257044590786" x2="725" y2="462.61257044590786" stroke="#e94560" stroke-width="0.5" stroke-dasharray="3,2" opacity="0.5"/>
<text x="56" y="465.61257044590786" text-anchor="end" font-family="sans-serif" font-size="7" fill="#e94560">8%</text>
<text x="60" y="445" font-family="sans-serif" font-size="8" fill="#888888">BIAS5</text>
<polyline points="65.54166666666667,472.5 76.625,473.11271252548374 87.70833333333334,464.9478095578939 98.79166666666667,472.6415077506597 109.87500000000001,470.0435537760002 120.95833333333334,471.3996747674913 132.04166666666666,474.14849429272675 143.125,473.20787508745696 154.20833333333334,465.0107660756328 165.29166666666666,467.1085284842662 176.375,469.06105707837054 187.45833333333334,470.3319219131969 198.54166666666666,470.060620561344 209.625,477.46037566391897 220.70833333333334,467.97965166370165 231.79166666666666,470.25775013588725 242.875,473.1877037110372 253.95833333333334,472.54686470106 265.0416666666667,464.560867191581 276.12500000000006,464.6738498383384 287.20833333333337,460.3176163431968 298.2916666666667,456.4383273855122 309.37500000000006,458.8588617341178 320.45833333333337,466.0497765054973 331.5416666666667,462.86973702250344 342.62500000000006,471.9578107326025 353.70833333333337,475.25212315831584 364.7916666666667,476.2065166760051 375.87500000000006,469.13523897444196 386.95833333333337,468.35516885113645 398.0416666666667,474.13440935538773 409.12500000000006,476.5939219806728 420.20833333333337,469.9574848759958 431.2916666666667,470.0664628259628 442.37500000000006,466.3880306131198 453.45833333333337,467.85155848901206 464.5416666666667,474.95373424598915 475.62500000000006,466.2164768264159 486.70833333333337,460.2857041625085 497.7916666666667,456.9639673304409 508.87500000000006,462.61756294596114 519.9583333333334,465.92413601132114 531.0416666666666,469.5867904799795 542.125,470.50101187004685 553.2083333333334,472.34282432109575 564.2916666666666,464.41701245744053 575.375,465.69105378677034 586.4583333333334,469.8447209798564 597.5416666666666,470.6360203902595 608.625,469.87919037576546 619.7083333333334,464.0921886573475 630.7916666666666,464.9562526369735 641.875,461.47096604353345 652.9583333333334,457.1841805930913 664.0416666666666,454.44777760885006 675.125,455.57535022643265 686.2083333333334,454.7285998307277 697.2916666666666,452.9166666666667 708.375,461.65707239086817 719.4583333333334,474.2444231031334" fill="none" stroke="#4ecdc4" stroke-width="1.5" opacity="0.9"/>
<circle cx="719.4583333333334" cy="474.2444231031334" r="3" fill="#4ecdc4" opacity="1"/>
<text x="724.4583333333334" y="477.2444231031334" font-family="sans-serif" font-size="9" fill="#4ecdc4" font-weight="bold">BIAS5=-1.4%</text>
<text x="65.54166666666667" y="489" text-anchor="middle" font-family="sans-serif" font-size="8" fill="#666666" transform="rotate(-45,65.54166666666667,489)">02/26</text>
<text x="120.95833333333334" y="489" text-anchor="middle" font-family="sans-serif" font-size="8" fill="#666666" transform="rotate(-45,120.95833333333334,489)">03/05</text>
<text x="176.375" y="489" text-anchor="middle" font-family="sans-serif" font-size="8" fill="#666666" transform="rotate(-45,176.375,489)">03/12</text>
<text x="231.79166666666666" y="489" text-anchor="middle" font-family="sans-serif" font-size="8" fill="#666666" transform="rotate(-45,231.79166666666666,489)">03/19</text>
<text x="287.20833333333337" y="489" text-anchor="middle" font-family="sans-serif" font-size="8" fill="#666666" transform="rotate(-45,287.20833333333337,489)">03/26</text>
<text x="342.62500000000006" y="489" text-anchor="middle" font-family="sans-serif" font-size="8" fill="#666666" transform="rotate(-45,342.62500000000006,489)">04/02</text>
<text x="398.0416666666667" y="489" text-anchor="middle" font-family="sans-serif" font-size="8" fill="#666666" transform="rotate(-45,398.0416666666667,489)">04/10</text>
<text x="453.45833333333337" y="489" text-anchor="middle" font-family="sans-serif" font-size="8" fill="#666666" transform="rotate(-45,453.45833333333337,489)">04/17</text>
<text x="508.87500000000006" y="489" text-anchor="middle" font-family="sans-serif" font-size="8" fill="#666666" transform="rotate(-45,508.87500000000006,489)">04/24</text>
<text x="564.2916666666666" y="489" text-anchor="middle" font-family="sans-serif" font-size="8" fill="#666666" transform="rotate(-45,564.2916666666666,489)">05/06</text>
<text x="619.7083333333334" y="489" text-anchor="middle" font-family="sans-serif" font-size="8" fill="#666666" transform="rotate(-45,619.7083333333334,489)">05/13</text>
<text x="675.125" y="489" text-anchor="middle" font-family="sans-serif" font-size="8" fill="#666666" transform="rotate(-45,675.125,489)">05/20</text>
<text x="719.4583333333334" y="489" text-anchor="middle" font-family="sans-serif" font-size="8" fill="#666666" transform="rotate(-45,719.4583333333334,489)">05/26</text>
<rect x="60" y="484" width="8" height="8" fill="#4ecdc4" opacity="0.8" rx="1"/>
<text x="71" y="491" font-family="sans-serif" font-size="9" fill="#888888">买入区(BIAS&lt;2%)</text>
<rect x="230" y="484" width="8" height="8" fill="#ffd700" opacity="0.8" rx="1"/>
<text x="241" y="491" font-family="sans-serif" font-size="9" fill="#888888">持有区(2-8%)</text>
<rect x="400" y="484" width="8" height="8" fill="#e94560" opacity="0.8" rx="1"/>
<text x="411" y="491" font-family="sans-serif" font-size="9" fill="#888888">警戒区(&gt;8%)</text>
<rect x="570" y="484" width="8" height="8" fill="#ffd700" opacity="0.8" rx="1"/>
<text x="581" y="491" font-family="sans-serif" font-size="9" fill="#888888">EMA5</text>
<rect x="60" y="497" width="8" height="8" fill="#ff6b6b" opacity="0.8" rx="1"/>
<text x="71" y="504" font-family="sans-serif" font-size="9" fill="#888888">EMA10</text>
<rect x="230" y="497" width="8" height="8" fill="#4ecdc4" opacity="0.8" rx="1"/>
<text x="241" y="504" font-family="sans-serif" font-size="9" fill="#888888">EMA20</text>
<rect x="400" y="497" width="8" height="8" fill="#4ecdc4" opacity="0.8" rx="1"/>
<text x="411" y="504" font-family="sans-serif" font-size="9" fill="#888888">B乖离买入</text>
<rect x="570" y="497" width="8" height="8" fill="#e94560" opacity="0.8" rx="1"/>
<text x="581" y="504" font-family="sans-serif" font-size="9" fill="#888888">W警戒⚠️</text>
</svg>