<svg xmlns="http://www.w3.org/2000/svg" width="750" height="540" viewBox="0 0 750 540">
<rect width="750" height="540" fill="#1a1a2e"/>
<text x="375.0" y="22" text-anchor="middle" font-family="sans-serif" font-size="15" fill="#ffffff" font-weight="bold">鼎龙股份(300054) 趋势交易分析图</text>
<text x="60" y="31" font-family="sans-serif" font-size="10" fill="#888888">最新: 79.55</text>
<line x1="60" y1="67.30541304928411" x2="725" y2="67.30541304928411" stroke="#4ecdc4" stroke-width="0.5" stroke-dasharray="4,3" opacity="0.4"/>
<text x="62" y="65.30541304928411" font-family="sans-serif" font-size="7" fill="#4ecdc4" opacity="0.6">买入↑2%</text>
<rect x="60" y="67.30541304928411" width="3" height="315.6945869507159" fill="#4ecdc4" opacity="0.3" rx="1"/>
<rect x="60" y="32" width="3" height="35.30541304928411" fill="#ffd700" opacity="0.2" rx="1"/>
<line x1="60" y1="32.0" x2="725" y2="32.0" stroke="#2a2a4e" stroke-width="0.5"/>
<text x="56" y="35.0" text-anchor="end" font-family="sans-serif" font-size="8" fill="#666666">81.6</text>
<line x1="60" y1="127.74999999999994" x2="725" y2="127.74999999999994" stroke="#2a2a4e" stroke-width="0.5"/>
<text x="56" y="130.74999999999994" text-anchor="end" font-family="sans-serif" font-size="8" fill="#666666">71.2</text>
<line x1="60" y1="223.50000000000003" x2="725" y2="223.50000000000003" stroke="#2a2a4e" stroke-width="0.5"/>
<text x="56" y="226.50000000000003" text-anchor="end" font-family="sans-serif" font-size="8" fill="#666666">60.9</text>
<line x1="60" y1="319.25" x2="725" y2="319.25" stroke="#2a2a4e" stroke-width="0.5"/>
<text x="56" y="322.25" text-anchor="end" font-family="sans-serif" font-size="8" fill="#666666">50.6</text>
<line x1="60" y1="415.0" x2="725" y2="415.0" stroke="#2a2a4e" stroke-width="0.5"/>
<text x="56" y="418.0" text-anchor="end" font-family="sans-serif" font-size="8" fill="#666666">40.2</text>
<rect x="61.66250000000001" y="468.150440757101" width="6.095833333333334" height="6.8495592428989935" fill="#ff4444" opacity="0.35"/>
<rect x="72.74583333333334" y="468.90741606004025" width="6.095833333333334" height="6.092583939959743" fill="#44aa44" opacity="0.35"/>
<rect x="83.82916666666668" y="469.14688021123857" width="6.095833333333334" height="5.853119788761408" fill="#ff4444" opacity="0.35"/>
<rect x="94.91250000000001" y="466.9670516022755" width="6.095833333333334" height="8.032948397724514" fill="#44aa44" opacity="0.35"/>
<rect x="105.99583333333335" y="470.533357039548" width="6.095833333333334" height="4.466642960452008" fill="#ff4444" opacity="0.35"/>
<rect x="117.07916666666668" y="470.44048646400984" width="6.095833333333334" height="4.559513535990171" fill="#44aa44" opacity="0.35"/>
<rect x="128.1625" y="471.20630546080986" width="6.095833333333334" height="3.7936945391901347" fill="#ff4444" opacity="0.35"/>
<rect x="139.24583333333334" y="469.02803880297483" width="6.095833333333334" height="5.971961197025175" fill="#ff4444" opacity="0.35"/>
<rect x="150.32916666666668" y="468.5886323711815" width="6.095833333333334" height="6.411367628818498" fill="#ff4444" opacity="0.35"/>
<rect x="161.4125" y="469.6886369754643" width="6.095833333333334" height="5.31136302453571" fill="#ff4444" opacity="0.35"/>
<rect x="172.49583333333334" y="470.09654351229307" width="6.095833333333334" height="4.903456487706919" fill="#ff4444" opacity="0.35"/>
<rect x="183.57916666666668" y="465.75882584256436" width="6.095833333333334" height="9.241174157435651" fill="#ff4444" opacity="0.35"/>
<rect x="194.6625" y="468.2194376274935" width="6.095833333333334" height="6.780562372506501" fill="#ff4444" opacity="0.35"/>
<rect x="205.74583333333334" y="470.1228325257759" width="6.095833333333334" height="4.8771674742240965" fill="#44aa44" opacity="0.35"/>
<rect x="216.82916666666668" y="468.0760285457346" width="6.095833333333334" height="6.923971454265405" fill="#ff4444" opacity="0.35"/>
<rect x="227.9125" y="469.6722008201388" width="6.095833333333334" height="5.327799179861169" fill="#44aa44" opacity="0.35"/>
<rect x="238.99583333333334" y="462.7095671205804" width="6.095833333333334" height="12.290432879419615" fill="#44aa44" opacity="0.35"/>
<rect x="250.07916666666668" y="465.46445312467023" width="6.095833333333334" height="9.535546875329795" fill="#44aa44" opacity="0.35"/>
<rect x="261.1625" y="468.94690479925146" width="6.095833333333334" height="6.053095200748563" fill="#ff4444" opacity="0.35"/>
<rect x="272.2458333333334" y="465.9138688186704" width="6.095833333333334" height="9.086131181329593" fill="#ff4444" opacity="0.35"/>
<rect x="283.3291666666667" y="468.8904071196556" width="6.095833333333334" height="6.109592880344396" fill="#44aa44" opacity="0.35"/>
<rect x="294.4125" y="440.0" width="6.095833333333334" height="35.0" fill="#ff4444" opacity="0.35"/>
<rect x="305.4958333333334" y="454.8185933048782" width="6.095833333333334" height="20.181406695121797" fill="#44aa44" opacity="0.35"/>
<rect x="316.5791666666667" y="459.51841500340896" width="6.095833333333334" height="15.481584996591048" fill="#44aa44" opacity="0.35"/>
<rect x="327.6625" y="458.6904600207243" width="6.095833333333334" height="16.309539979275698" fill="#44aa44" opacity="0.35"/>
<rect x="338.7458333333334" y="463.7157445176863" width="6.095833333333334" height="11.284255482313716" fill="#44aa44" opacity="0.35"/>
<rect x="349.8291666666667" y="459.28219086357984" width="6.095833333333334" height="15.717809136420158" fill="#ff4444" opacity="0.35"/>
<rect x="360.9125" y="464.8587700854588" width="6.095833333333334" height="10.141229914541219" fill="#44aa44" opacity="0.35"/>
<rect x="371.9958333333334" y="459.85778104731037" width="6.095833333333334" height="15.14221895268966" fill="#ff4444" opacity="0.35"/>
<rect x="383.0791666666667" y="461.9367935162352" width="6.095833333333334" height="13.063206483764837" fill="#ff4444" opacity="0.35"/>
<rect x="394.1625" y="463.77944782735716" width="6.095833333333334" height="11.22055217264285" fill="#44aa44" opacity="0.35"/>
<rect x="405.2458333333334" y="466.9381774447605" width="6.095833333333334" height="8.061822555239475" fill="#44aa44" opacity="0.35"/>
<rect x="416.3291666666667" y="462.99696224789153" width="6.095833333333334" height="12.003037752108467" fill="#ff4444" opacity="0.35"/>
<rect x="427.4125" y="466.4754148738938" width="6.095833333333334" height="8.524585126106222" fill="#44aa44" opacity="0.35"/>
<rect x="438.4958333333334" y="467.52914566863416" width="6.095833333333334" height="7.470854331365823" fill="#44aa44" opacity="0.35"/>
<rect x="449.5791666666667" y="465.823856497289" width="6.095833333333334" height="9.176143502710989" fill="#ff4444" opacity="0.35"/>
<rect x="460.6625" y="466.6840581744265" width="6.095833333333334" height="8.31594182557348" fill="#44aa44" opacity="0.35"/>
<rect x="471.7458333333334" y="467.69832679476565" width="6.095833333333334" height="7.301673205234324" fill="#44aa44" opacity="0.35"/>
<rect x="482.8291666666667" y="463.68091506704934" width="6.095833333333334" height="11.319084932950632" fill="#ff4444" opacity="0.35"/>
<rect x="493.9125" y="460.4283012325961" width="6.095833333333334" height="14.571698767403905" fill="#ff4444" opacity="0.35"/>
<rect x="504.9958333333334" y="462.72329187440624" width="6.095833333333334" height="12.276708125593748" fill="#ff4444" opacity="0.35"/>
<rect x="516.0791666666667" y="458.17512300466404" width="6.095833333333334" height="16.824876995335963" fill="#44aa44" opacity="0.35"/>
<rect x="527.1624999999999" y="458.72390422099136" width="6.095833333333334" height="16.276095779008617" fill="#ff4444" opacity="0.35"/>
<rect x="538.2458333333333" y="464.3254504839575" width="6.095833333333334" height="10.674549516042463" fill="#ff4444" opacity="0.35"/>
<rect x="549.3291666666667" y="462.2312545845084" width="6.095833333333334" height="12.768745415491578" fill="#ff4444" opacity="0.35"/>
<rect x="560.4124999999999" y="459.2411365914685" width="6.095833333333334" height="15.75886340853153" fill="#ff4444" opacity="0.35"/>
<rect x="571.4958333333333" y="460.51511652387376" width="6.095833333333334" height="14.484883476126223" fill="#ff4444" opacity="0.35"/>
<rect x="582.5791666666667" y="459.04802355639424" width="6.095833333333334" height="15.951976443605751" fill="#44aa44" opacity="0.35"/>
<rect x="593.6624999999999" y="459.05266016041173" width="6.095833333333334" height="15.947339839588288" fill="#ff4444" opacity="0.35"/>
<rect x="604.7458333333333" y="462.873729587001" width="6.095833333333334" height="12.126270412999048" fill="#44aa44" opacity="0.35"/>
<rect x="615.8291666666667" y="458.771403295082" width="6.095833333333334" height="16.228596704918033" fill="#ff4444" opacity="0.35"/>
<rect x="626.9124999999999" y="462.28239632085143" width="6.095833333333334" height="12.717603679148572" fill="#44aa44" opacity="0.35"/>
<rect x="637.9958333333333" y="459.8673333350901" width="6.095833333333334" height="15.132666664909893" fill="#44aa44" opacity="0.35"/>
<rect x="649.0791666666667" y="462.27347591737094" width="6.095833333333334" height="12.72652408262906" fill="#ff4444" opacity="0.35"/>
<rect x="660.1624999999999" y="460.8953992401407" width="6.095833333333334" height="14.104600759859313" fill="#ff4444" opacity="0.35"/>
<rect x="671.2458333333333" y="460.3952943070094" width="6.095833333333334" height="14.604705692990569" fill="#ff4444" opacity="0.35"/>
<rect x="682.3291666666667" y="459.4206642633487" width="6.095833333333334" height="15.579335736651263" fill="#44aa44" opacity="0.35"/>
<rect x="693.4124999999999" y="461.0705777452166" width="6.095833333333334" height="13.929422254783374" fill="#44aa44" opacity="0.35"/>
<rect x="704.4958333333333" y="459.2738116061714" width="6.095833333333334" height="15.726188393828568" fill="#ff4444" opacity="0.35"/>
<rect x="715.5791666666667" y="458.30837477763487" width="6.095833333333334" height="16.691625222365154" fill="#44aa44" opacity="0.25" stroke-dasharray="3,2"/>
<polyline points="65.54166666666667,351.4446057087567 76.625,354.9034026769876 87.70833333333334,359.6489544697092 98.79166666666667,371.42876596964646 109.87500000000001,379.89961595202686 120.95833333333334,384.52773945261714 132.04166666666666,387.0572770354974 143.125,392.17155027652734 154.20833333333334,387.9531831709666 165.29166666666666,384.2144749602929 176.375,379.4058441357605 187.45833333333334,372.8030575160835 198.54166666666666,366.5791549381534 209.625,365.5489802474321 220.70833333333334,359.9210585942403 231.79166666666666,360.64701761467336 242.875,362.30451069489754 253.95833333333334,374.09471814428423 265.0416666666667,377.7857708125256 276.12500000000006,370.5494882339914 287.20833333333337,369.9561497112273 298.2916666666667,345.3490119184347 309.37500000000006,332.2486397791984 320.45833333333337,331.8532296157404 331.5416666666667,333.4425497873683 342.62500000000006,338.11530411562336 353.70833333333337,334.37464396290716 364.7916666666667,332.6529234224574 375.87500000000006,324.494869444999 386.95833333333337,317.265004077669 398.0416666666667,313.4950857695668 409.12500000000006,312.00091671849526 420.20833333333337,306.77395415485563 431.2916666666667,307.05693057187113 442.37500000000006,307.3999920954871 453.45833333333337,303.861081651789 464.5416666666667,302.98414958047016 475.62500000000006,303.07893474692213 486.70833333333337,296.1318845740648 497.7916666666667,287.23878581344684 508.87500000000006,278.06743114865174 519.9583333333334,274.08406069481146 531.0416666666666,262.50354892958404 542.125,255.4934964158846 553.2083333333334,240.35109082136225 564.2916666666666,223.09150289558315 575.375,198.86167924050005 586.4583333333334,196.94511884860944 597.5416666666666,183.993972152903 608.625,184.87156601840047 619.7083333333334,159.20683017578898 630.7916666666666,154.17191355373512 641.875,150.19766015661043 652.9583333333334,138.37616950289106 664.0416666666666,117.0305732502744 675.125,103.32517171692216 686.2083333333334,106.10873405543559 697.2916666666666,107.90267804953567 708.375,96.74579439715855 719.4583333333334,81.43293243635765" fill="none" stroke="#ffd700" stroke-width="1" opacity="0.7"/>
<polyline points="65.54166666666667,351.4446057087567 76.625,353.33122223688264 87.70833333333334,356.20555602202256 98.79166666666667,363.256980194295 109.87500000000001,369.3632230529301 120.95833333333334,373.80336185308784 132.04166666666666,377.132996461846 143.125,381.72701469761716 154.20833333333334,381.3250936543859 165.29166666666666,380.4909054515785 176.375,378.54502854887255 187.45833333333334,375.100020499392 198.54166666666666,371.2875349144649 209.625,369.8695523601967 220.70833333333334,366.014218347044 231.79166666666666,365.3023487667705 242.875,365.36001205560234 253.95833333333334,371.23548859877604 265.0416666666667,373.7686499715455 276.12500000000006,370.55197235434144 287.20833333333337,370.227881501861 298.2916666666667,356.75640056204077 309.37500000000006,347.5366723690744 320.45833333333337,344.541351809029 331.5416666666667,343.1013224129553 342.62500000000006,343.893957023715 353.70833333333337,340.8029327753076 364.7916666666667,338.695032696444 375.87500000000006,333.1466197498328 386.95833333333337,327.63001131222853 398.0416666666667,323.6891454651619 409.12500000000006,321.02067876537836 420.20833333333337,316.5296515403234 431.2916666666667,314.91023915224685 442.37500000000006,313.66948933233266 453.45833333333337,310.59926595634363 464.5416666666667,308.895814952978 475.62500000000006,307.872667703314 486.70833333333337,303.2117797987751 497.7916666666667,297.0737449793998 508.87500000000006,290.2830134957019 519.9583333333334,285.88925100323445 531.0416666666666,277.4262099843062 542.125,270.88933387597524 553.2083333333334,259.83059674076475 564.2916666666666,246.87454770499386 575.375,229.33409029141936 586.4583333333334,222.74825534113 597.5416666666666,210.99251414483186 608.625,206.56237589111615 619.7083333333334,188.61964545465253 630.7916666666666,180.52554270101166 641.875,173.56619918489332 652.9583333333334,162.86928809590404 664.0416666666666,146.77294130483807 675.125,133.8895644585435 686.2083333333334,129.85070887198333 697.2916666666666,126.51250108393837 708.375,117.04332399456852 719.4583333333334,105.00039390732985" fill="none" stroke="#ff6b6b" stroke-width="1" opacity="0.7"/>
<polyline points="65.54166666666667,351.4446057087567 76.625,352.4328334139655 87.70833333333334,354.0239976655071 98.79166666666667,357.9253682658894 109.87500000000001,361.6316489945463 120.95833333333334,364.69377637161796 132.04166666666666,367.30545026015506 143.125,370.64779754572004 154.20833333333334,371.49243101373196 165.29166666666666,371.99191934946657 176.375,371.78207774348834 187.45833333333334,370.6216402704637 198.54166666666666,369.05113641444746 209.625,368.5213739812609 220.70833333333334,366.63031124855576 231.79166666666666,366.19875166826847 242.875,366.1435845432282 253.95833333333334,369.1465891622596 265.0416666666667,370.6724260181404 276.12500000000006,369.28237811897685 287.20833333333337,369.2335299805695 298.2916666666667,362.27174010935806 309.37500000000006,356.9170882418693 320.45833333333337,354.45473786538884 331.5416666666667,352.7563047477922 342.62500000000006,352.2519721786818 353.70833333333337,349.83686279570975 364.7916666666667,347.87235037150475 375.87500000000006,344.09200857327403 386.95833333333337,340.15993855134406 398.0416666666667,336.9023490848697 409.12500000000006,334.24618046882034 420.20833333333337,330.6341660458448 431.2916666666667,328.4426153182312 442.37500000000006,326.5039010158015 453.45833333333337,323.6733638490007 464.5416666666667,321.5359278098418 475.62500000000006,319.79617326412597 486.70833333333337,316.2191838321473 497.7916666666667,311.7652223521534 508.87500000000006,306.8089842061446 519.9583333333334,302.93358759481 531.0416666666666,296.8772959571261 542.125,291.60073361725557 553.2083333333334,283.83554752345196 564.2916666666666,274.7628598587446 575.375,262.9189714846103 586.4583333333334,256.27068830177393 597.5416666666666,246.92030644079452 608.625,241.17806332732798 619.7083333333334,228.48275810477924 630.7916666666666,220.4465030766695 641.875,212.99913643721155 652.9583333333334,203.64047469990115 664.0416666666666,191.3260847994383 675.125,180.33449278522676 686.2083333333334,173.7955752563921 697.2916666666666,167.86176485461536 708.375,158.9636945915476 719.4583333333334,148.66307686994838" fill="none" stroke="#4ecdc4" stroke-width="1" opacity="0.7"/>
<line x1="65.54166666666667" y1="347.9240445089502" x2="65.54166666666667" y2="364.4150943396226" stroke="#ff4444" stroke-width="0.5" opacity="0.6"/>
<rect x="63.04791666666667" y="351.4446057087567" width="4.987500000000001" height="0.5" fill="#ff4444" opacity="0.8" rx="1"/>
<line x1="76.625" y1="354.03870343492986" x2="76.625" y2="367.28713110788584" stroke="#44aa44" stroke-width="0.5" opacity="0.6"/>
<rect x="74.13125" y="356.91074020319303" width="4.987500000000001" height="4.910256410256466" fill="#44aa44" opacity="0.8" rx="1"/>
<line x1="87.70833333333334" y1="357.55926463473634" x2="87.70833333333334" y2="370.90033865505563" stroke="#ff4444" stroke-width="0.5" opacity="0.6"/>
<rect x="85.21458333333334" y="369.1400580551524" width="4.987500000000001" height="1.4823415578132995" fill="#ff4444" opacity="0.8" rx="1"/>
<line x1="98.79166666666667" y1="364.507740686986" x2="98.79166666666667" y2="397.5824866956943" stroke="#44aa44" stroke-width="0.5" opacity="0.6"/>
<rect x="96.29791666666667" y="369.41799709724245" width="4.987500000000001" height="25.570391872278663" fill="#44aa44" opacity="0.8" rx="1"/>
<line x1="109.87500000000001" y1="386.65021770682154" x2="109.87500000000001" y2="404.25302370585393" stroke="#ff4444" stroke-width="0.5" opacity="0.6"/>
<rect x="107.38125000000001" y="396.8413159167876" width="4.987500000000001" height="6.485244315433022" fill="#ff4444" opacity="0.8" rx="1"/>
<line x1="120.95833333333334" y1="379.2385099177552" x2="120.95833333333334" y2="397.9530720851476" stroke="#44aa44" stroke-width="0.5" opacity="0.6"/>
<rect x="118.46458333333334" y="389.15166908563134" width="4.987500000000001" height="4.632317368166468" fill="#44aa44" opacity="0.8" rx="1"/>
<line x1="132.04166666666666" y1="388.50314465408803" x2="132.04166666666666" y2="396.8413159167876" stroke="#ff4444" stroke-width="0.5" opacity="0.6"/>
<rect x="129.54791666666665" y="392.1163522012579" width="4.987500000000001" height="3.4279148524431093" fill="#ff4444" opacity="0.8" rx="1"/>
<line x1="143.125" y1="399.71335268505084" x2="143.125" y2="415.0" stroke="#ff4444" stroke-width="0.5" opacity="0.6"/>
<rect x="140.63125" y="402.4000967585873" width="4.987500000000001" height="0.5" fill="#ff4444" opacity="0.8" rx="1"/>
<line x1="154.20833333333334" y1="374.1429608127722" x2="154.20833333333334" y2="395.544267053701" stroke="#ff4444" stroke-width="0.5" opacity="0.6"/>
<rect x="151.71458333333334" y="379.5164489598452" width="4.987500000000001" height="15.471940009675905" fill="#ff4444" opacity="0.8" rx="1"/>
<line x1="165.29166666666666" y1="367.1944847605225" x2="165.29166666666666" y2="382.20319303338175" stroke="#ff4444" stroke-width="0.5" opacity="0.6"/>
<rect x="162.79791666666665" y="376.73705853894535" width="4.987500000000001" height="2.4088050314465477" fill="#ff4444" opacity="0.8" rx="1"/>
<line x1="176.375" y1="365.8047895500726" x2="176.375" y2="380.9061441702951" stroke="#ff4444" stroke-width="0.5" opacity="0.6"/>
<rect x="173.88125" y="369.78858248669576" width="4.987500000000001" height="8.152878567972834" fill="#ff4444" opacity="0.8" rx="1"/>
<line x1="187.45833333333334" y1="347.83139816158683" x2="187.45833333333334" y2="374.97677793904205" stroke="#ff4444" stroke-width="0.5" opacity="0.6"/>
<rect x="184.96458333333334" y="359.5974842767296" width="4.987500000000001" height="14.360183841315859" fill="#ff4444" opacity="0.8" rx="1"/>
<line x1="198.54166666666666" y1="352.1857764876633" x2="198.54166666666666" y2="371.36357039187226" stroke="#ff4444" stroke-width="0.5" opacity="0.6"/>
<rect x="196.04791666666665" y="354.13134978229317" width="4.987500000000001" height="6.2073052733430245" fill="#ff4444" opacity="0.8" rx="1"/>
<line x1="209.625" y1="352.2784228350266" x2="209.625" y2="364.4150943396226" stroke="#44aa44" stroke-width="0.5" opacity="0.6"/>
<rect x="207.13125" y="353.29753265602324" width="4.987500000000001" height="10.191098209966185" fill="#44aa44" opacity="0.8" rx="1"/>
<line x1="220.70833333333334" y1="348.20198355104014" x2="220.70833333333334" y2="362.3768746976294" stroke="#ff4444" stroke-width="0.5" opacity="0.6"/>
<rect x="218.21458333333334" y="348.6652152878568" width="4.987500000000001" height="11.67343976777937" fill="#ff4444" opacity="0.8" rx="1"/>
<line x1="231.79166666666666" y1="350.5181422351234" x2="231.79166666666666" y2="364.6003870343493" stroke="#44aa44" stroke-width="0.5" opacity="0.6"/>
<rect x="229.29791666666665" y="356.1695694242864" width="4.987500000000001" height="5.929366231253027" fill="#44aa44" opacity="0.8" rx="1"/>
<line x1="242.875" y1="338.6594097726174" x2="242.875" y2="365.7121432027092" stroke="#44aa44" stroke-width="0.5" opacity="0.6"/>
<rect x="240.38125" y="348.0166908563135" width="4.987500000000001" height="17.602805999032398" fill="#44aa44" opacity="0.8" rx="1"/>
<line x1="253.95833333333334" y1="372.19738751814225" x2="253.95833333333334" y2="400.26923076923083" stroke="#44aa44" stroke-width="0.5" opacity="0.6"/>
<rect x="251.46458333333334" y="376.3664731494921" width="4.987500000000001" height="21.308659893565505" fill="#44aa44" opacity="0.8" rx="1"/>
<line x1="265.0416666666667" y1="384.1487663280116" x2="265.0416666666667" y2="403.69714562167394" stroke="#ff4444" stroke-width="0.5" opacity="0.6"/>
<rect x="262.5479166666667" y="385.16787614900824" width="4.987500000000001" height="5.65142718916303" fill="#ff4444" opacity="0.8" rx="1"/>
<line x1="276.12500000000006" y1="340.5123367198839" x2="276.12500000000006" y2="380.1649733913885" stroke="#ff4444" stroke-width="0.5" opacity="0.6"/>
<rect x="273.6312500000001" y="356.0769230769231" width="4.987500000000001" height="24.08805031446542" fill="#ff4444" opacity="0.8" rx="1"/>
<line x1="287.20833333333337" y1="351.53725205612" x2="287.20833333333337" y2="371.45621673923563" stroke="#44aa44" stroke-width="0.5" opacity="0.6"/>
<rect x="284.7145833333334" y="359.6901306240929" width="4.987500000000001" height="9.079342041606253" fill="#44aa44" opacity="0.8" rx="1"/>
<line x1="298.2916666666667" y1="284.92452830188677" x2="298.2916666666667" y2="343.84760522496373" stroke="#ff4444" stroke-width="0.5" opacity="0.6"/>
<rect x="295.7979166666667" y="296.13473633284957" width="4.987500000000001" height="47.71286889211416" fill="#ff4444" opacity="0.8" rx="1"/>
<line x1="309.37500000000006" y1="302.34204160619254" x2="309.37500000000006" y2="318.55515239477506" stroke="#44aa44" stroke-width="0.5" opacity="0.6"/>
<rect x="306.8812500000001" y="303.5464441219158" width="4.987500000000001" height="2.501451378809918" fill="#44aa44" opacity="0.8" rx="1"/>
<line x1="320.45833333333337" y1="301.9714562167393" x2="320.45833333333337" y2="331.15505563618774" stroke="#44aa44" stroke-width="0.5" opacity="0.6"/>
<rect x="317.9645833333334" y="305.862602805999" width="4.987500000000001" height="25.19980648282541" fill="#44aa44" opacity="0.8" rx="1"/>
<line x1="331.5416666666667" y1="318.6477987421384" x2="331.5416666666667" y2="345.329946782777" stroke="#44aa44" stroke-width="0.5" opacity="0.6"/>
<rect x="329.0479166666667" y="320.500725689405" width="4.987500000000001" height="16.1204644412191" fill="#44aa44" opacity="0.8" rx="1"/>
<line x1="342.62500000000006" y1="333.8417997097242" x2="342.62500000000006" y2="352.1857764876633" stroke="#44aa44" stroke-width="0.5" opacity="0.6"/>
<rect x="340.1312500000001" y="333.8417997097242" width="4.987500000000001" height="13.619013062409294" fill="#44aa44" opacity="0.8" rx="1"/>
<line x1="353.70833333333337" y1="317.35074987905176" x2="353.70833333333337" y2="344.21819061441704" stroke="#ff4444" stroke-width="0.5" opacity="0.6"/>
<rect x="351.2145833333334" y="326.89332365747464" width="4.987500000000001" height="16.58369617803578" fill="#ff4444" opacity="0.8" rx="1"/>
<line x1="364.7916666666667" y1="310.7728592162554" x2="364.7916666666667" y2="332.17416545718436" stroke="#44aa44" stroke-width="0.5" opacity="0.6"/>
<rect x="362.2979166666667" y="319.944847605225" width="4.987500000000001" height="9.264634736332823" fill="#44aa44" opacity="0.8" rx="1"/>
<line x1="375.87500000000006" y1="306.6037735849057" x2="375.87500000000006" y2="325.1330430575714" stroke="#ff4444" stroke-width="0.5" opacity="0.6"/>
<rect x="373.3812500000001" y="308.17876149008225" width="4.987500000000001" height="4.632317368166412" fill="#ff4444" opacity="0.8" rx="1"/>
<line x1="386.95833333333337" y1="291.5950653120464" x2="386.95833333333337" y2="316.1463473633285" stroke="#ff4444" stroke-width="0.5" opacity="0.6"/>
<rect x="384.4645833333334" y="302.8052733430092" width="4.987500000000001" height="7.9675858732462075" fill="#ff4444" opacity="0.8" rx="1"/>
<line x1="398.0416666666667" y1="290.7612481857765" x2="398.0416666666667" y2="308.6419932268989" stroke="#44aa44" stroke-width="0.5" opacity="0.6"/>
<rect x="395.5479166666667" y="299.09941944847606" width="4.987500000000001" height="6.855829704886332" fill="#44aa44" opacity="0.8" rx="1"/>
<line x1="409.12500000000006" y1="294.9303338171262" x2="409.12500000000006" y2="311.5140299951621" stroke="#44aa44" stroke-width="0.5" opacity="0.6"/>
<rect x="406.6312500000001" y="306.0478955007257" width="4.987500000000001" height="2.964683115626542" fill="#44aa44" opacity="0.8" rx="1"/>
<line x1="420.20833333333337" y1="280.0142718916304" x2="420.20833333333337" y2="306.97435897435895" stroke="#ff4444" stroke-width="0.5" opacity="0.6"/>
<rect x="417.7145833333334" y="296.3200290275762" width="4.987500000000001" height="6.948476052249646" fill="#ff4444" opacity="0.8" rx="1"/>
<line x1="431.2916666666667" y1="285.8509917755201" x2="431.2916666666667" y2="309.3831640058055" stroke="#44aa44" stroke-width="0.5" opacity="0.6"/>
<rect x="428.7979166666667" y="292.2435897435897" width="4.987500000000001" height="15.379293662312591" fill="#44aa44" opacity="0.8" rx="1"/>
<line x1="442.37500000000006" y1="302.8052733430092" x2="442.37500000000006" y2="312.81107885824866" stroke="#44aa44" stroke-width="0.5" opacity="0.6"/>
<rect x="439.8812500000001" y="305.0287856797291" width="4.987500000000001" height="3.0573294629898555" fill="#44aa44" opacity="0.8" rx="1"/>
<line x1="453.45833333333337" y1="288.7230285437833" x2="453.45833333333337" y2="318.9257377842284" stroke="#ff4444" stroke-width="0.5" opacity="0.6"/>
<rect x="450.9645833333334" y="296.7832607643929" width="4.987500000000001" height="15.564586357039161" fill="#ff4444" opacity="0.8" rx="1"/>
<line x1="464.5416666666667" y1="288.2597968069666" x2="464.5416666666667" y2="307.9008224479923" stroke="#44aa44" stroke-width="0.5" opacity="0.6"/>
<rect x="462.0479166666667" y="294.37445573294633" width="4.987500000000001" height="6.8558297048862755" fill="#44aa44" opacity="0.8" rx="1"/>
<line x1="475.62500000000006" y1="293.63328495403965" x2="475.62500000000006" y2="309.9390420899855" stroke="#44aa44" stroke-width="0.5" opacity="0.6"/>
<rect x="473.1312500000001" y="299.28471214320274" width="4.987500000000001" height="3.9837929366231037" fill="#44aa44" opacity="0.8" rx="1"/>
<line x1="486.70833333333337" y1="281.9598451862603" x2="486.70833333333337" y2="305.9552491533624" stroke="#ff4444" stroke-width="0.5" opacity="0.6"/>
<rect x="484.2145833333334" y="282.2377842283503" width="4.987500000000001" height="21.957184325108813" fill="#ff4444" opacity="0.8" rx="1"/>
<line x1="497.7916666666667" y1="261.11441702951134" x2="497.7916666666667" y2="290.9465408805031" stroke="#ff4444" stroke-width="0.5" opacity="0.6"/>
<rect x="495.2979166666667" y="269.452588292211" width="4.987500000000001" height="3.983792936623047" fill="#ff4444" opacity="0.8" rx="1"/>
<line x1="508.87500000000006" y1="250.4600870827286" x2="508.87500000000006" y2="276.40106434446056" stroke="#ff4444" stroke-width="0.5" opacity="0.6"/>
<rect x="506.3812500000001" y="259.7247218190615" width="4.987500000000001" height="16.676342525399093" fill="#ff4444" opacity="0.8" rx="1"/>
<line x1="519.9583333333334" y1="232.0234639574262" x2="519.9583333333334" y2="275.65989356555394" stroke="#44aa44" stroke-width="0.5" opacity="0.6"/>
<rect x="517.4645833333334" y="257.8717948717948" width="4.987500000000001" height="8.245524915336318" fill="#44aa44" opacity="0.8" rx="1"/>
<line x1="531.0416666666666" y1="216.18093855829702" x2="531.0416666666666" y2="254.9997581035317" stroke="#ff4444" stroke-width="0.5" opacity="0.6"/>
<rect x="528.5479166666667" y="239.34252539912913" width="4.987500000000001" height="11.210208030962775" fill="#ff4444" opacity="0.8" rx="1"/>
<line x1="542.125" y1="239.0645863570392" x2="542.125" y2="261.76294146105465" stroke="#ff4444" stroke-width="0.5" opacity="0.6"/>
<rect x="539.63125" y="241.47339138848574" width="4.987500000000001" height="4.539671020803098" fill="#ff4444" opacity="0.8" rx="1"/>
<line x1="553.2083333333334" y1="202.46927914852444" x2="553.2083333333334" y2="238.41606192549594" stroke="#ff4444" stroke-width="0.5" opacity="0.6"/>
<rect x="550.7145833333334" y="210.0662796323174" width="4.987500000000001" height="23.71746492501208" fill="#ff4444" opacity="0.8" rx="1"/>
<line x1="564.2916666666666" y1="160.6857764876633" x2="564.2916666666666" y2="200.80164489598454" stroke="#ff4444" stroke-width="0.5" opacity="0.6"/>
<rect x="561.7979166666667" y="188.5723270440251" width="4.987500000000001" height="6.299951620706395" fill="#ff4444" opacity="0.8" rx="1"/>
<line x1="575.375" y1="139.37711659409777" x2="575.375" y2="179.12239961296564" stroke="#ff4444" stroke-width="0.5" opacity="0.6"/>
<rect x="572.88125" y="150.40203193033383" width="4.987500000000001" height="14.267537493952517" fill="#ff4444" opacity="0.8" rx="1"/>
<line x1="586.4583333333334" y1="167.07837445573296" x2="586.4583333333334" y2="196.7252056119981" stroke="#44aa44" stroke-width="0.5" opacity="0.6"/>
<rect x="583.9645833333334" y="176.3430091920658" width="4.987500000000001" height="16.768988872762463" fill="#44aa44" opacity="0.8" rx="1"/>
<line x1="597.5416666666666" y1="157.8137397194001" x2="597.5416666666666" y2="203.76632801161102" stroke="#ff4444" stroke-width="0.5" opacity="0.6"/>
<rect x="595.0479166666667" y="158.0916787614901" width="4.987500000000001" height="23.34687953555874" fill="#ff4444" opacity="0.8" rx="1"/>
<line x1="608.625" y1="167.07837445573296" x2="608.625" y2="194.87227866473148" stroke="#44aa44" stroke-width="0.5" opacity="0.6"/>
<rect x="606.13125" y="167.07837445573296" width="4.987500000000001" height="19.548379293662293" fill="#44aa44" opacity="0.8" rx="1"/>
<line x1="619.7083333333334" y1="102.31857764876636" x2="619.7083333333334" y2="197.65166908563134" stroke="#ff4444" stroke-width="0.5" opacity="0.6"/>
<rect x="617.2145833333334" y="107.87735849056602" width="4.987500000000001" height="86.99492017416546" fill="#ff4444" opacity="0.8" rx="1"/>
<line x1="630.7916666666666" y1="103.15239477503621" x2="630.7916666666666" y2="144.56531204644406" stroke="#44aa44" stroke-width="0.5" opacity="0.6"/>
<rect x="628.2979166666667" y="106.48766328011604" width="4.987500000000001" height="37.6144170295114" fill="#44aa44" opacity="0.8" rx="1"/>
<line x1="641.875" y1="106.1170778906628" x2="641.875" y2="149.47556845670047" stroke="#44aa44" stroke-width="0.5" opacity="0.6"/>
<rect x="639.38125" y="133.81833575229797" width="4.987500000000001" height="8.43081761006286" fill="#44aa44" opacity="0.8" rx="1"/>
<line x1="652.9583333333334" y1="94.81422351233674" x2="652.9583333333334" y2="144.2873730043542" stroke="#ff4444" stroke-width="0.5" opacity="0.6"/>
<rect x="650.4645833333334" y="114.73318819545229" width="4.987500000000001" height="16.768988872762478" fill="#ff4444" opacity="0.8" rx="1"/>
<line x1="664.0416666666666" y1="65.16739235607159" x2="664.0416666666666" y2="141.23004354136424" stroke="#ff4444" stroke-width="0.5" opacity="0.6"/>
<rect x="661.5479166666667" y="74.33938074504107" width="4.987500000000001" height="50.12167392356082" fill="#ff4444" opacity="0.8" rx="1"/>
<line x1="675.125" y1="43.580793420416065" x2="675.125" y2="88.32897919690372" stroke="#ff4444" stroke-width="0.5" opacity="0.6"/>
<rect x="672.63125" y="75.91436865021765" width="4.987500000000001" height="2.038219641993237" fill="#ff4444" opacity="0.8" rx="1"/>
<line x1="686.2083333333334" y1="48.21311078858249" x2="686.2083333333334" y2="116.58611514271888" stroke="#44aa44" stroke-width="0.5" opacity="0.6"/>
<rect x="683.7145833333334" y="68.13207547169804" width="4.987500000000001" height="43.543783260764414" fill="#44aa44" opacity="0.8" rx="1"/>
<line x1="697.2916666666666" y1="88.79221093372033" x2="697.2916666666666" y2="138.35800677310115" stroke="#44aa44" stroke-width="0.5" opacity="0.6"/>
<rect x="694.7979166666667" y="102.225931301403" width="4.987500000000001" height="9.264634736332852" fill="#44aa44" opacity="0.8" rx="1"/>
<line x1="708.375" y1="60.53507498790516" x2="708.375" y2="139.65505563618774" stroke="#ff4444" stroke-width="0.5" opacity="0.6"/>
<rect x="705.88125" y="74.43202709240444" width="4.987500000000001" height="36.317368166424785" fill="#ff4444" opacity="0.8" rx="1"/>
<line x1="719.4583333333334" y1="32.0" x2="719.4583333333334" y2="83.69666182873729" stroke="#44aa44" stroke-width="0.5" opacity="0.3" stroke-dasharray="4,3"/>
<rect x="716.9645833333334" y="37.37348814707304" width="4.987500000000001" height="13.43372036768266" fill="#44aa44" opacity="0.4" stroke-dasharray="4,3" rx="1"/>
<text x="739.4583333333334" y="44.8072085147557" font-family="sans-serif" font-size="9" fill="#ffd700" opacity="0.8">🕐 盘中</text>
<line x1="519.9583333333334" y1="275.65989356555394" x2="519.9583333333334" y2="240.65989356555394" stroke="#4ecdc4" stroke-width="0.8" stroke-dasharray="2,2" opacity="0.7"/>
<rect x="483.95833333333337" y="231.65989356555394" width="72" height="16" fill="#4ecdc4" opacity="0.85" rx="3"/>
<text x="519.9583333333334" y="243.65989356555394" text-anchor="middle" font-family="sans-serif" font-size="9" fill="#000000" font-weight="bold">B1乖离买入</text>
<polygon points="519.9583333333334,281.65989356555394 515.9583333333334,275.65989356555394 523.9583333333334,275.65989356555394" fill="#4ecdc4" opacity="0.9"/>
<line x1="586.4583333333334" y1="196.7252056119981" x2="586.4583333333334" y2="146.7252056119981" stroke="#4ecdc4" stroke-width="0.8" stroke-dasharray="2,2" opacity="0.7"/>
<rect x="550.4583333333334" y="137.7252056119981" width="72" height="16" fill="#4ecdc4" opacity="0.85" rx="3"/>
<text x="586.4583333333334" y="149.7252056119981" text-anchor="middle" font-family="sans-serif" font-size="9" fill="#000000" font-weight="bold">B2乖离买入</text>
<polygon points="586.4583333333334,202.7252056119981 582.4583333333334,196.7252056119981 590.4583333333334,196.7252056119981" fill="#4ecdc4" opacity="0.9"/>
<line x1="608.625" y1="194.87227866473148" x2="608.625" y2="129.87227866473148" stroke="#4ecdc4" stroke-width="0.8" stroke-dasharray="2,2" opacity="0.7"/>
<rect x="572.625" y="120.87227866473148" width="72" height="16" fill="#4ecdc4" opacity="0.85" rx="3"/>
<text x="608.625" y="132.87227866473148" text-anchor="middle" font-family="sans-serif" font-size="9" fill="#000000" font-weight="bold">B3乖离买入</text>
<polygon points="608.625,200.87227866473148 604.625,194.87227866473148 612.625,194.87227866473148" fill="#4ecdc4" opacity="0.9"/>
<line x1="630.7916666666666" y1="144.56531204644406" x2="630.7916666666666" y2="64.56531204644406" stroke="#4ecdc4" stroke-width="0.8" stroke-dasharray="2,2" opacity="0.7"/>
<rect x="594.7916666666666" y="55.56531204644406" width="72" height="16" fill="#4ecdc4" opacity="0.85" rx="3"/>
<text x="630.7916666666666" y="67.56531204644406" text-anchor="middle" font-family="sans-serif" font-size="9" fill="#000000" font-weight="bold">B4乖离买入</text>
<polygon points="630.7916666666666,150.56531204644406 626.7916666666666,144.56531204644406 634.7916666666666,144.56531204644406" fill="#4ecdc4" opacity="0.9"/>
<line x1="686.2083333333334" y1="116.58611514271888" x2="686.2083333333334" y2="21.58611514271888" stroke="#4ecdc4" stroke-width="0.8" stroke-dasharray="2,2" opacity="0.7"/>
<rect x="650.2083333333334" y="12.586115142718882" width="72" height="16" fill="#4ecdc4" opacity="0.85" rx="3"/>
<text x="686.2083333333334" y="24.58611514271888" text-anchor="middle" font-family="sans-serif" font-size="9" fill="#000000" font-weight="bold">B5乖离买入</text>
<polygon points="686.2083333333334,122.58611514271888 682.2083333333334,116.58611514271888 690.2083333333334,116.58611514271888" fill="#4ecdc4" opacity="0.9"/>
<line x1="298.2916666666667" y1="284.92452830188677" x2="298.2916666666667" y2="303.92452830188677" stroke="#e94560" stroke-width="0.8" stroke-dasharray="2,2" opacity="0.7"/>
<rect x="264.2916666666667" y="310.92452830188677" width="68" height="16" fill="#e94560" opacity="0.85" rx="3"/>
<text x="298.2916666666667" y="322.92452830188677" text-anchor="middle" font-family="sans-serif" font-size="9" fill="#ffffff" font-weight="bold">W1警戒⚠️</text>
<polygon points="298.2916666666667,278.92452830188677 294.2916666666667,284.92452830188677 302.2916666666667,284.92452830188677" fill="#e94560" opacity="0.9"/>
<line x1="575.375" y1="139.37711659409777" x2="575.375" y2="173.37711659409777" stroke="#e94560" stroke-width="0.8" stroke-dasharray="2,2" opacity="0.7"/>
<rect x="541.375" y="180.37711659409777" width="68" height="16" fill="#e94560" opacity="0.85" rx="3"/>
<text x="575.375" y="192.37711659409777" text-anchor="middle" font-family="sans-serif" font-size="9" fill="#ffffff" font-weight="bold">W2警戒⚠️</text>
<polygon points="575.375,133.37711659409777 571.375,139.37711659409777 579.375,139.37711659409777" fill="#e94560" opacity="0.9"/>
<line x1="619.7083333333334" y1="102.31857764876636" x2="619.7083333333334" y2="151.31857764876636" stroke="#e94560" stroke-width="0.8" stroke-dasharray="2,2" opacity="0.7"/>
<rect x="585.7083333333334" y="158.31857764876636" width="68" height="16" fill="#e94560" opacity="0.85" rx="3"/>
<text x="619.7083333333334" y="170.31857764876636" text-anchor="middle" font-family="sans-serif" font-size="9" fill="#ffffff" font-weight="bold">W3警戒⚠️</text>
<polygon points="619.7083333333334,96.31857764876636 615.7083333333334,102.31857764876636 623.7083333333334,102.31857764876636" fill="#e94560" opacity="0.9"/>
<text x="375.0" y="435" text-anchor="middle" font-family="sans-serif" font-size="10" fill="#aaaaaa">📊 BIAS5=4.34%，持有区，趋势健康</text>
<rect x="60" y="443" width="665" height="55" fill="#111122" opacity="0.5" rx="2"/>
<rect x="60" y="443" width="665" height="16.96666666666664" fill="#e94560" opacity="0.18" rx="2"/>
<rect x="60" y="459.96666666666664" width="665" height="9.400000000000034" fill="#ffd700" opacity="0.12"/>
<rect x="60" y="469.3666666666667" width="665" height="30.633333333333326" fill="#4ecdc4" opacity="0.14"/>
<text x="670" y="454.48333333333335" text-anchor="end" font-family="sans-serif" font-size="9" fill="#e94560" font-weight="bold">⚠️ 警戒区</text>
<text x="670" y="467.66666666666663" text-anchor="end" font-family="sans-serif" font-size="9" fill="#ffd700">持有区</text>
<text x="670" y="487.68333333333334" text-anchor="end" font-family="sans-serif" font-size="9" fill="#4ecdc4">买入区</text>
<line x1="60" y1="472.5" x2="725" y2="472.5" stroke="#888888" stroke-width="0.5" stroke-dasharray="3,2" opacity="0.5"/>
<text x="56" y="475.5" text-anchor="end" font-family="sans-serif" font-size="7" fill="#888888">0%</text>
<line x1="60" y1="469.3666666666667" x2="725" y2="469.3666666666667" stroke="#4ecdc4" stroke-width="0.5" stroke-dasharray="3,2" opacity="0.5"/>
<text x="56" y="472.3666666666667" text-anchor="end" font-family="sans-serif" font-size="7" fill="#4ecdc4">2%</text>
<line x1="60" y1="459.96666666666664" x2="725" y2="459.96666666666664" stroke="#e94560" stroke-width="0.5" stroke-dasharray="3,2" opacity="0.5"/>
<text x="56" y="462.96666666666664" text-anchor="end" font-family="sans-serif" font-size="7" fill="#e94560">8%</text>
<text x="60" y="445" font-family="sans-serif" font-size="8" fill="#888888">BIAS5</text>
<polyline points="65.54166666666667,472.5 76.625,475.00344794787657 87.70833333333334,475.9728600165092 98.79166666666667,481.36451414412784 109.87500000000001,479.0068380478103 120.95833333333334,476.09586685158627 132.04166666666666,474.4777547829563 143.125,476.55035640861297 154.20833333333334,469.1944200998955 165.29166666666666,469.59742794217203 176.375,468.81074181061683 187.45833333333334,467.51483372010915 198.54166666666666,467.8703266313466 209.625,471.7355701943482 220.70833333333334,468.37879048359287 231.79166666666666,473.0325080915747 242.875,473.7205463508071 253.95833333333334,481.42951014696445 265.0416666666667,475.32064534576807 276.12500000000006,467.0660458036149 287.20833333333337,472.0550759538908 298.2916666666667,455.0741571498247 309.37500000000006,463.4895932270835 320.45833333333337,472.2282736193206 331.5416666666667,473.596003224964 342.62500000000006,475.7558384132922 353.70833333333337,469.9151191836841 364.7916666666667,471.3147526086718 375.87500000000006,466.9828128055343 386.95833333333337,467.68566104860747 398.0416666666667,470.0095790382352 409.12500000000006,471.5160464220344 420.20833333333337,469.09529601471723 431.2916666666667,472.6844317845927 442.37500000000006,472.72375232549564 453.45833333333337,470.2087228011993 464.5416666666667,471.93325490754967 475.62500000000006,472.56126989081383 486.70833333333337,468.07282054829267 497.7916666666667,466.93333872840043 508.87500000000006,466.862453726422 519.9583333333334,470.07044502745407 531.0416666666666,465.59247405657305 542.125,468.3737186660692 553.2083333333334,463.8333588003395 564.2916666666666,462.92352116770024 575.375,459.60918207736773 586.4583333333334,471.48365363817663 597.5416666666666,465.7793547070898 608.625,472.95606631879457 619.7083333333334,459.70714169771327 630.7916666666666,470.0102349807028 641.875,470.5469822626679 652.9583333333334,466.79645768168484 664.0416666666666,462.529065428545 675.125,466.22613407968316 686.2083333333334,473.7794229887987 697.2916666666666,473.32673526415493 708.375,467.4413830560281 719.4583333333334,465.7075406168742" fill="none" stroke="#4ecdc4" stroke-width="1.5" opacity="0.9"/>
<circle cx="719.4583333333334" cy="465.7075406168742" r="3" fill="#4ecdc4" opacity="1"/>
<text x="724.4583333333334" y="468.7075406168742" font-family="sans-serif" font-size="9" fill="#4ecdc4" font-weight="bold">BIAS5=4.3%</text>
<text x="65.54166666666667" y="489" text-anchor="middle" font-family="sans-serif" font-size="8" fill="#666666" transform="rotate(-45,65.54166666666667,489)">02/26</text>
<text x="120.95833333333334" y="489" text-anchor="middle" font-family="sans-serif" font-size="8" fill="#666666" transform="rotate(-45,120.95833333333334,489)">03/05</text>
<text x="176.375" y="489" text-anchor="middle" font-family="sans-serif" font-size="8" fill="#666666" transform="rotate(-45,176.375,489)">03/12</text>
<text x="231.79166666666666" y="489" text-anchor="middle" font-family="sans-serif" font-size="8" fill="#666666" transform="rotate(-45,231.79166666666666,489)">03/19</text>
<text x="287.20833333333337" y="489" text-anchor="middle" font-family="sans-serif" font-size="8" fill="#666666" transform="rotate(-45,287.20833333333337,489)">03/26</text>
<text x="342.62500000000006" y="489" text-anchor="middle" font-family="sans-serif" font-size="8" fill="#666666" transform="rotate(-45,342.62500000000006,489)">04/02</text>
<text x="398.0416666666667" y="489" text-anchor="middle" font-family="sans-serif" font-size="8" fill="#666666" transform="rotate(-45,398.0416666666667,489)">04/10</text>
<text x="453.45833333333337" y="489" text-anchor="middle" font-family="sans-serif" font-size="8" fill="#666666" transform="rotate(-45,453.45833333333337,489)">04/17</text>
<text x="508.87500000000006" y="489" text-anchor="middle" font-family="sans-serif" font-size="8" fill="#666666" transform="rotate(-45,508.87500000000006,489)">04/24</text>
<text x="564.2916666666666" y="489" text-anchor="middle" font-family="sans-serif" font-size="8" fill="#666666" transform="rotate(-45,564.2916666666666,489)">05/06</text>
<text x="619.7083333333334" y="489" text-anchor="middle" font-family="sans-serif" font-size="8" fill="#666666" transform="rotate(-45,619.7083333333334,489)">05/13</text>
<text x="675.125" y="489" text-anchor="middle" font-family="sans-serif" font-size="8" fill="#666666" transform="rotate(-45,675.125,489)">05/20</text>
<text x="719.4583333333334" y="489" text-anchor="middle" font-family="sans-serif" font-size="8" fill="#666666" transform="rotate(-45,719.4583333333334,489)">05/26</text>
<rect x="60" y="484" width="8" height="8" fill="#4ecdc4" opacity="0.8" rx="1"/>
<text x="71" y="491" font-family="sans-serif" font-size="9" fill="#888888">买入区(BIAS&lt;2%)</text>
<rect x="230" y="484" width="8" height="8" fill="#ffd700" opacity="0.8" rx="1"/>
<text x="241" y="491" font-family="sans-serif" font-size="9" fill="#888888">持有区(2-8%)</text>
<rect x="400" y="484" width="8" height="8" fill="#e94560" opacity="0.8" rx="1"/>
<text x="411" y="491" font-family="sans-serif" font-size="9" fill="#888888">警戒区(&gt;8%)</text>
<rect x="570" y="484" width="8" height="8" fill="#ffd700" opacity="0.8" rx="1"/>
<text x="581" y="491" font-family="sans-serif" font-size="9" fill="#888888">EMA5</text>
<rect x="60" y="497" width="8" height="8" fill="#ff6b6b" opacity="0.8" rx="1"/>
<text x="71" y="504" font-family="sans-serif" font-size="9" fill="#888888">EMA10</text>
<rect x="230" y="497" width="8" height="8" fill="#4ecdc4" opacity="0.8" rx="1"/>
<text x="241" y="504" font-family="sans-serif" font-size="9" fill="#888888">EMA20</text>
<rect x="400" y="497" width="8" height="8" fill="#4ecdc4" opacity="0.8" rx="1"/>
<text x="411" y="504" font-family="sans-serif" font-size="9" fill="#888888">B乖离买入</text>
<rect x="570" y="497" width="8" height="8" fill="#e94560" opacity="0.8" rx="1"/>
<text x="581" y="504" font-family="sans-serif" font-size="9" fill="#888888">W警戒⚠️</text>
</svg>