<svg xmlns="http://www.w3.org/2000/svg" width="700" height="380" viewBox="0 0 700 380">
<rect width="700" height="380" fill="#1a1a2e"/>
<text x="350.0" y="20" text-anchor="middle" font-family="sans-serif" font-size="14" font-weight="bold" fill="#ffffff">深圳华强(000062)</text>
<line x1="50" y1="28.005383724039564" x2="680" y2="28.005383724039564" stroke="#2a2a4e" stroke-width="0.5"/>
<text x="46" y="31.005383724039564" text-anchor="end" font-size="9" fill="#666666">43.34</text>
<line x1="50" y1="128.68102326410556" x2="680" y2="128.68102326410556" stroke="#2a2a4e" stroke-width="0.5"/>
<text x="46" y="131.68102326410556" text-anchor="end" font-size="9" fill="#666666">35.86</text>
<line x1="50" y1="229.35666280417152" x2="680" y2="229.35666280417152" stroke="#2a2a4e" stroke-width="0.5"/>
<text x="46" y="232.35666280417152" text-anchor="end" font-size="9" fill="#666666">28.38</text>
<line x1="50" y1="330.03230234423745" x2="680" y2="330.03230234423745" stroke="#2a2a4e" stroke-width="0.5"/>
<text x="46" y="333.03230234423745" text-anchor="end" font-size="9" fill="#666666">20.9</text>
<polyline points="55.25,283.3284963009181 65.75,283.05931009893925 76.25,283.37336066791454 86.75,281.6535599330501 97.25,280.68648357779296 107.75,279.45852923666746 118.25,276.5761321274132 128.75,279.1409707542234 139.25,285.4718929727327 149.75,290.67952385899446 160.25,293.6129053792114 170.75,294.0879689484727 181.25,294.225220526661 191.75,293.06051930288555 202.25,281.60633247521014 212.75,275.4058676673133 223.25,269.79170035116545 233.75,263.4467888546053 244.25,256.749307672093 254.75,250.93838920719088 265.25,251.77520209855152 275.75,256.19141292115455 286.25,257.02692822072277 296.75,254.98180513463993 307.25,250.88166335713373 317.75,251.3784699292084 328.25,246.72972957398395 338.75,249.77698761568325 349.25,259.4354353662151 359.75,259.7279822547207 370.25,267.7742777381057 380.75,272.0617299191139 391.25,263.8833970919891 401.75,252.68853623169184 412.25,242.21938306939717 422.75,237.034522307726 433.25,233.08444042965075 443.75,230.98942491489154 454.25,232.15001682385048 464.75,230.14215400937567 475.25,223.68904096212884 485.75,213.0610898507962 496.25,212.70544415937744 506.75,199.14363003381496 517.25,196.47316073027127 527.75,180.69516535834524 538.25,154.788023897274 548.75,144.5603018750047 559.25,140.20936071163078 569.75,131.6109586608305 580.25,126.05814809494947 590.75,119.75414109856725 601.25,124.16542823096687 611.75,111.17943603548841 622.25,110.14905029456845 632.75,112.10912412007981 643.25,127.50325124064392 653.75,144.71997953880523 664.25,156.55671334021784 674.75,161.39709225206667" fill="none" stroke="#ffd700" stroke-width="1" opacity="0.6"/>
<polyline points="55.25,283.3284963009181 65.75,283.18166746347504 76.25,283.3307209802733 86.75,282.40040052264567 97.25,281.7371151307608 107.75,280.8762979350618 118.25,279.0463052030332 128.75,279.9961857129988 139.25,283.29392238513566 149.75,286.53044297538696 160.25,288.8848476016157 170.75,290.0036200535029 181.25,290.8210934406911 191.75,290.8047340615354 202.25,284.9671385630488 212.75,280.97401119731626 223.25,276.8993483830533 233.75,272.14618792458634 244.25,266.91130744867394 254.75,261.89407923571264 265.25,260.35857898945085 275.75,261.2068072761617 286.25,260.7506530113794 296.75,258.9580904570331 307.25,255.99868851977638 317.75,255.3393057113366 328.25,252.08347719355453 338.75,252.77220928546862 349.25,257.49586775488865 359.75,258.00808744158746 370.25,262.7096840349126 380.75,265.96912953422486 391.25,262.6159662439548 401.75,256.74012047434434 412.25,250.29302161442862 422.75,245.9969814635114 433.25,242.21285331987303 443.75,239.41040614996396 454.25,238.5123687848375 464.75,236.26037962039905 475.25,231.6280951198965 485.75,224.38756648503002 496.25,222.1342185380318 506.75,213.0225427643333 517.25,209.04248446594252 527.75,198.1509735838608 538.25,180.84602220045548 548.75,170.52944686045737 559.25,163.43454350126203 569.75,154.5217455118016 580.25,147.32734213932628 590.75,140.02166667868562 601.25,138.74281864542758 611.75,129.00911555435556 622.25,125.2053270558779 632.75,123.536953367737 643.25,129.85596284301613 653.75,138.8191398052183 664.25,146.34842001209552 674.75,150.84468002367169" fill="none" stroke="#ff6b6b" stroke-width="1" opacity="0.6"/>
<polyline points="55.25,283.3284963009181 65.75,283.25158595749554 76.25,283.3230027049593 86.75,282.8364270628985 97.25,282.44746552045854 107.75,281.92890885702593 118.25,280.8700925762525 128.75,281.1939549983088 139.25,282.8072676089224 149.75,284.54893599202677 160.25,285.9709105089428 170.75,286.8344519925668 181.25,287.56447786784975 191.75,287.8660625333245 202.25,285.0881478939468 212.75,282.9849850518109 223.25,280.65911654391175 233.75,277.8112926693949 244.25,274.5296786348876 254.75,271.17604755322077 265.25,269.48774091779717 275.75,269.0626069795651 286.25,268.0754976310217 296.75,266.438932043541 307.25,264.1763080205486 317.75,263.05209612081615 328.25,260.61211066774183 338.75,260.1606242897742 349.25,261.9312630114413 359.75,261.7771499657547 370.25,263.8809327028138 380.75,265.4767138055106 391.25,263.76719167524664 401.75,260.57972718342296 412.25,256.8369985702215 422.75,253.96345592395122 433.25,251.22258170962255 443.75,248.8965638215988 454.25,247.52271970923397 464.75,245.48497767791892 475.25,242.18000979122525 485.75,237.38240768045438 496.25,234.9644786419863 506.75,228.96976656014854 517.25,225.36619089948528 527.75,218.10647506281933 538.25,207.14145276875388 548.75,199.2332056317741 559.25,192.7831363701654 569.75,185.31942381674298 580.25,178.61781459259487 590.75,171.81098721290041 601.25,168.11356009698287 611.75,160.21774024436849 622.25,155.25302963183134 632.75,151.5174336450953 643.25,152.16258334382644 653.75,154.73314075252188 664.25,157.16143029447628 674.75,158.4868036069799" fill="none" stroke="#4ecdc4" stroke-width="1" opacity="0.6"/>
<line x1="55.25" y1="278.8869239682681" x2="55.25" y2="283.4630894019075" stroke="#44aa44" stroke-width="1" opacity="0.8"/>
<rect x="50.0" y="280.23285497816204" width="6.3" height="3.09564132275608" fill="#44aa44" opacity="0.8"/>
<rect x="50.0" y="328.6884878848225" width="6.3" height="1.3115121151774667" fill="#44aa44" opacity="0.3"/>
<line x1="65.75" y1="279.4252963722257" x2="65.75" y2="285.07820661378025" stroke="#ff4444" stroke-width="1" opacity="0.8"/>
<rect x="60.5" y="282.52093769498174" width="6.3" height="1.749710312862078" fill="#ff4444" opacity="0.8"/>
<rect x="60.5" y="328.7469393942057" width="6.3" height="1.2530606057942768" fill="#ff4444" opacity="0.3"/>
<line x1="76.25" y1="279.69448257420447" x2="76.25" y2="284.674427310812" stroke="#44aa44" stroke-width="1" opacity="0.8"/>
<rect x="71.0" y="282.92471699794993" width="6.3" height="1.0767448079151336" fill="#44aa44" opacity="0.8"/>
<rect x="71.0" y="328.415083524955" width="6.3" height="1.584916475045032" fill="#44aa44" opacity="0.3"/>
<line x1="86.75" y1="275.79128264551207" x2="86.75" y2="281.71337908904536" stroke="#ff4444" stroke-width="1" opacity="0.8"/>
<rect x="81.5" y="278.21395846332115" width="6.3" height="2.691862019787834" fill="#ff4444" opacity="0.8"/>
<rect x="81.5" y="327.59155278586553" width="6.3" height="2.4084472141344597" fill="#ff4444" opacity="0.3"/>
<line x1="97.25" y1="276.7334343524378" x2="97.25" y2="279.69448257420447" stroke="#44aa44" stroke-width="1" opacity="0.8"/>
<rect x="92.0" y="278.61773776628934" width="6.3" height="1" fill="#44aa44" opacity="0.8"/>
<rect x="92.0" y="328.3193217259494" width="6.3" height="1.6806782740505894" fill="#44aa44" opacity="0.3"/>
<line x1="107.75" y1="276.0604688474908" x2="107.75" y2="280.23285497816204" stroke="#ff4444" stroke-width="1" opacity="0.8"/>
<rect x="102.5" y="277.00262055441664" width="6.3" height="1" fill="#ff4444" opacity="0.8"/>
<rect x="102.5" y="328.2878401219156" width="6.3" height="1.7121598780843654" fill="#ff4444" opacity="0.3"/>
<line x1="118.25" y1="269.3308137980212" x2="118.25" y2="279.9636687761832" stroke="#ff4444" stroke-width="1" opacity="0.8"/>
<rect x="113.0" y="270.81133790890453" width="6.3" height="7.402620554416615" fill="#ff4444" opacity="0.8"/>
<rect x="113.0" y="326.18520194377777" width="6.3" height="3.8147980562222434" fill="#ff4444" opacity="0.3"/>
<line x1="128.75" y1="277.27180675639545" x2="128.75" y2="285.2127997147696" stroke="#44aa44" stroke-width="1" opacity="0.8"/>
<rect x="123.5" y="278.8869239682681" width="6.3" height="5.383724039575725" fill="#44aa44" opacity="0.8"/>
<rect x="123.5" y="326.6390834118293" width="6.3" height="3.360916588170698" fill="#44aa44" opacity="0.3"/>
<line x1="139.25" y1="282.11715839201355" x2="139.25" y2="298.53751671271954" stroke="#44aa44" stroke-width="1" opacity="0.8"/>
<rect x="134.0" y="284.53983420982263" width="6.3" height="13.593903199928718" fill="#44aa44" opacity="0.8"/>
<rect x="134.0" y="326.85829145833173" width="6.3" height="3.1417085416682795" fill="#44aa44" opacity="0.3"/>
<line x1="149.75" y1="296.3840270968892" x2="149.75" y2="303.1136821463589" stroke="#ff4444" stroke-width="1" opacity="0.8"/>
<rect x="144.5" y="301.09478563151794" width="6.3" height="1" fill="#ff4444" opacity="0.8"/>
<rect x="144.5" y="328.28282723052143" width="6.3" height="1.7171727694785741" fill="#ff4444" opacity="0.3"/>
<line x1="160.25" y1="294.3651305820483" x2="160.25" y2="300.2872270255816" stroke="#44aa44" stroke-width="1" opacity="0.8"/>
<rect x="155.0" y="297.86455120777254" width="6.3" height="1.6151172118727004" fill="#44aa44" opacity="0.8"/>
<rect x="155.0" y="328.10763132902076" width="6.3" height="1.892368670979236" fill="#44aa44" opacity="0.3"/>
<line x1="170.75" y1="294.9035029860059" x2="170.75" y2="301.6331580354755" stroke="#ff4444" stroke-width="1" opacity="0.8"/>
<rect x="165.5" y="295.03809608699527" width="6.3" height="4.441572332649969" fill="#ff4444" opacity="0.8"/>
<rect x="165.5" y="328.5725373491714" width="6.3" height="1.427462650828596" fill="#ff4444" opacity="0.3"/>
<line x1="181.25" y1="292.75001337017557" x2="181.25" y2="305.53635796416796" stroke="#ff4444" stroke-width="1" opacity="0.8"/>
<rect x="176.0" y="294.4997236830377" width="6.3" height="4.172386130671214" fill="#ff4444" opacity="0.8"/>
<rect x="176.0" y="327.84448683473204" width="6.3" height="2.155513165267974" fill="#ff4444" opacity="0.3"/>
<line x1="191.75" y1="288.7122203404938" x2="191.75" y2="293.1537926731438" stroke="#ff4444" stroke-width="1" opacity="0.8"/>
<rect x="186.5" y="290.73111685533473" width="6.3" height="1" fill="#ff4444" opacity="0.8"/>
<rect x="186.5" y="328.3851896338539" width="6.3" height="1.6148103661461224" fill="#ff4444" opacity="0.3"/>
<line x1="202.25" y1="258.6979588198592" x2="202.25" y2="291.80786166324987" stroke="#ff4444" stroke-width="1" opacity="0.8"/>
<rect x="197.0" y="258.6979588198592" width="6.3" height="32.03315803547554" fill="#ff4444" opacity="0.8"/>
<rect x="197.0" y="321.2627340073687" width="6.3" height="8.737265992631293" fill="#ff4444" opacity="0.3"/>
<line x1="212.75" y1="259.1017381228273" x2="212.75" y2="268.38866209109545" stroke="#ff4444" stroke-width="1" opacity="0.8"/>
<rect x="207.5" y="263.0049380515198" width="6.3" height="1.0767448079150768" fill="#ff4444" opacity="0.8"/>
<rect x="207.5" y="320.25111931316576" width="6.3" height="9.748880686834243" fill="#ff4444" opacity="0.3"/>
<line x1="223.25" y1="245.37324182190923" x2="223.25" y2="266.50435867724394" stroke="#ff4444" stroke-width="1" opacity="0.8"/>
<rect x="218.0" y="258.56336571886976" width="6.3" height="6.325875746501481" fill="#ff4444" opacity="0.8"/>
<rect x="218.0" y="318.15200925205943" width="6.3" height="11.84799074794056" fill="#ff4444" opacity="0.3"/>
<line x1="233.75" y1="250.75696586148499" x2="233.75" y2="264.75464836438186" stroke="#ff4444" stroke-width="1" opacity="0.8"/>
<rect x="228.5" y="250.75696586148499" width="6.3" height="11.440413584098366" fill="#ff4444" opacity="0.8"/>
<rect x="228.5" y="321.3331938915777" width="6.3" height="8.666806108422271" fill="#ff4444" opacity="0.3"/>
<line x1="244.25" y1="227.20317318834122" x2="244.25" y2="254.6601657901774" stroke="#ff4444" stroke-width="1" opacity="0.8"/>
<rect x="239.0" y="243.35434530706837" width="6.3" height="5.383724039575725" fill="#ff4444" opacity="0.8"/>
<rect x="239.0" y="316.7909096749968" width="6.3" height="13.209090325003205" fill="#ff4444" opacity="0.3"/>
<line x1="254.75" y1="227.7415455922988" x2="254.75" y2="254.3909795881986" stroke="#ff4444" stroke-width="1" opacity="0.8"/>
<rect x="249.5" y="239.3165522773866" width="6.3" height="12.382565291024179" fill="#ff4444" opacity="0.8"/>
<rect x="249.5" y="318.1175380901638" width="6.3" height="11.8824619098362" fill="#ff4444" opacity="0.3"/>
<line x1="265.25" y1="239.3165522773866" x2="265.25" y2="262.46656564756216" stroke="#44aa44" stroke-width="1" opacity="0.8"/>
<rect x="260.0" y="251.96830377038955" width="6.3" height="1.480524110883323" fill="#44aa44" opacity="0.8"/>
<rect x="260.0" y="321.3464493418668" width="6.3" height="8.653550658133218" fill="#44aa44" opacity="0.3"/>
<line x1="275.75" y1="246.988359033782" x2="275.75" y2="265.9659862732864" stroke="#44aa44" stroke-width="1" opacity="0.8"/>
<rect x="270.5" y="254.6601657901774" width="6.3" height="10.363668776183232" fill="#44aa44" opacity="0.8"/>
<rect x="270.5" y="321.9062292857222" width="6.3" height="8.093770714277824" fill="#44aa44" opacity="0.3"/>
<line x1="286.25" y1="248.1996969426865" x2="286.25" y2="272.1572689187985" stroke="#ff4444" stroke-width="1" opacity="0.8"/>
<rect x="281.0" y="258.6979588198592" width="6.3" height="13.459310098939284" fill="#ff4444" opacity="0.8"/>
<rect x="281.0" y="320.9726967513896" width="6.3" height="9.027303248610401" fill="#ff4444" opacity="0.3"/>
<line x1="296.75" y1="246.85376593279264" x2="296.75" y2="260.17848293074246" stroke="#ff4444" stroke-width="1" opacity="0.8"/>
<rect x="291.5" y="250.89155896247436" width="6.3" height="6.998841251448454" fill="#ff4444" opacity="0.8"/>
<rect x="291.5" y="321.90845319276804" width="6.3" height="8.091546807231964" fill="#ff4444" opacity="0.3"/>
<line x1="307.25" y1="238.9127729744184" x2="307.25" y2="253.17964167929406" stroke="#ff4444" stroke-width="1" opacity="0.8"/>
<rect x="302.0" y="242.6813798021214" width="6.3" height="9.421517069257504" fill="#ff4444" opacity="0.8"/>
<rect x="302.0" y="321.2484337426475" width="6.3" height="8.751566257352515" fill="#ff4444" opacity="0.3"/>
<line x1="317.75" y1="243.75812461003656" x2="317.75" y2="254.2563864872092" stroke="#44aa44" stroke-width="1" opacity="0.8"/>
<rect x="312.5" y="249.2764417506017" width="6.3" height="3.0956413227559665" fill="#44aa44" opacity="0.8"/>
<rect x="312.5" y="323.936754776756" width="6.3" height="6.063245223243968" fill="#44aa44" opacity="0.3"/>
<line x1="328.25" y1="231.77933862198057" x2="328.25" y2="258.294179516891" stroke="#ff4444" stroke-width="1" opacity="0.8"/>
<rect x="323.0" y="237.43224886353508" width="6.3" height="20.054372047419605" fill="#ff4444" opacity="0.8"/>
<rect x="323.0" y="316.2783804633794" width="6.3" height="13.721619536620633" fill="#ff4444" opacity="0.3"/>
<line x1="338.75" y1="247.7959176397183" x2="338.75" y2="270.67674480791516" stroke="#44aa44" stroke-width="1" opacity="0.8"/>
<rect x="333.5" y="247.93051074070772" width="6.3" height="7.94099295837421" fill="#44aa44" opacity="0.8"/>
<rect x="333.5" y="319.7759799455691" width="6.3" height="10.224020054430913" fill="#44aa44" opacity="0.3"/>
<line x1="349.25" y1="254.6601657901774" x2="349.25" y2="278.7523308672787" stroke="#44aa44" stroke-width="1" opacity="0.8"/>
<rect x="344.0" y="263.0049380515198" width="6.3" height="15.747392815758928" fill="#44aa44" opacity="0.8"/>
<rect x="344.0" y="321.78780123324606" width="6.3" height="8.212198766753916" fill="#44aa44" opacity="0.3"/>
<line x1="359.75" y1="245.50783492289867" x2="359.75" y2="272.4264551207773" stroke="#ff4444" stroke-width="1" opacity="0.8"/>
<rect x="354.5" y="260.3130760317319" width="6.3" height="12.113379089045395" fill="#ff4444" opacity="0.8"/>
<rect x="354.5" y="317.87010583063073" width="6.3" height="12.129894169369289" fill="#ff4444" opacity="0.3"/>
<line x1="370.25" y1="270.81133790890453" x2="370.25" y2="284.53983420982263" stroke="#44aa44" stroke-width="1" opacity="0.8"/>
<rect x="365.0" y="274.04157233265" width="6.3" height="9.825296372225694" fill="#44aa44" opacity="0.8"/>
<rect x="365.0" y="320.3127016497364" width="6.3" height="9.687298350263564" fill="#44aa44" opacity="0.3"/>
<line x1="380.75" y1="269.6" x2="380.75" y2="286.5587307246636" stroke="#ff4444" stroke-width="1" opacity="0.8"/>
<rect x="375.5" y="280.6366342811302" width="6.3" height="3.0956413227560233" fill="#ff4444" opacity="0.8"/>
<rect x="375.5" y="323.483596530508" width="6.3" height="6.5164034694919835" fill="#ff4444" opacity="0.3"/>
<line x1="391.25" y1="247.52673143773953" x2="391.25" y2="277.5409929583742" stroke="#ff4444" stroke-width="1" opacity="0.8"/>
<rect x="386.0" y="247.52673143773953" width="6.3" height="28.937516712719543" fill="#ff4444" opacity="0.8"/>
<rect x="386.0" y="316.97253501833086" width="6.3" height="13.027464981669151" fill="#ff4444" opacity="0.3"/>
<line x1="401.75" y1="223.70375256261698" x2="401.75" y2="239.1819591763972" stroke="#44aa44" stroke-width="1" opacity="0.8"/>
<rect x="396.5" y="229.76044210713968" width="6.3" height="1" fill="#44aa44" opacity="0.8"/>
<rect x="396.5" y="308.9828101266702" width="6.3" height="21.017189873329837" fill="#44aa44" opacity="0.3"/>
<line x1="412.25" y1="219.26218022996704" x2="412.25" y2="239.85492468134413" stroke="#ff4444" stroke-width="1" opacity="0.8"/>
<rect x="407.0" y="221.28107674480793" width="6.3" height="14.132275603886256" fill="#ff4444" opacity="0.8"/>
<rect x="407.0" y="309.36922946488835" width="6.3" height="20.630770535111676" fill="#ff4444" opacity="0.3"/>
<line x1="422.75" y1="219.53136643194583" x2="422.75" y2="234.33660754077903" stroke="#44aa44" stroke-width="1" opacity="0.8"/>
<rect x="417.5" y="226.39561458240482" width="6.3" height="1" fill="#44aa44" opacity="0.8"/>
<rect x="417.5" y="314.4537055942846" width="6.3" height="15.54629440571542" fill="#44aa44" opacity="0.3"/>
<line x1="433.25" y1="219.6659595329352" x2="433.25" y2="230.29881451109728" stroke="#ff4444" stroke-width="1" opacity="0.8"/>
<rect x="428.0" y="225.1842766735003" width="6.3" height="4.710758534628781" fill="#ff4444" opacity="0.8"/>
<rect x="428.0" y="319.3793610102557" width="6.3" height="10.620638989744275" fill="#ff4444" opacity="0.3"/>
<line x1="443.75" y1="220.33892503788218" x2="443.75" y2="230.56800071307606" stroke="#44aa44" stroke-width="1" opacity="0.8"/>
<rect x="438.5" y="222.62700775470185" width="6.3" height="4.172386130671185" fill="#44aa44" opacity="0.8"/>
<rect x="438.5" y="319.4354755489178" width="6.3" height="10.564524451082228" fill="#44aa44" opacity="0.3"/>
<line x1="454.25" y1="218.32002852304132" x2="454.25" y2="239.1819591763972" stroke="#44aa44" stroke-width="1" opacity="0.8"/>
<rect x="449.0" y="219.6659595329352" width="6.3" height="14.805241108833258" fill="#44aa44" opacity="0.8"/>
<rect x="449.0" y="317.9014239865369" width="6.3" height="12.098576013463111" fill="#44aa44" opacity="0.3"/>
<line x1="464.75" y1="221.01189054282915" x2="464.75" y2="241.0662625902487" stroke="#ff4444" stroke-width="1" opacity="0.8"/>
<rect x="459.5" y="226.12642838042606" width="6.3" height="8.3447722613424" fill="#ff4444" opacity="0.8"/>
<rect x="459.5" y="318.8242106502387" width="6.3" height="11.175789349761331" fill="#ff4444" opacity="0.3"/>
<line x1="475.25" y1="187.6328014974597" x2="475.25" y2="214.55142169533826" stroke="#ff4444" stroke-width="1" opacity="0.8"/>
<rect x="470.0" y="210.78281486763527" width="6.3" height="3.4994206257242126" fill="#ff4444" opacity="0.8"/>
<rect x="470.0" y="309.44646208021345" width="6.3" height="20.55353791978652" fill="#ff4444" opacity="0.3"/>
<line x1="485.75" y1="180.76855334700065" x2="485.75" y2="205.26449772707014" stroke="#ff4444" stroke-width="1" opacity="0.8"/>
<rect x="480.5" y="191.80518762813085" width="6.3" height="3.499420625724241" fill="#ff4444" opacity="0.8"/>
<rect x="480.5" y="309.6980065789214" width="6.3" height="20.301993421078553" fill="#ff4444" opacity="0.3"/>
<line x1="496.25" y1="199.47699438452625" x2="496.25" y2="213.20549068544437" stroke="#44aa44" stroke-width="1" opacity="0.8"/>
<rect x="491.0" y="202.84182190926106" width="6.3" height="9.152330867278721" fill="#44aa44" opacity="0.8"/>
<rect x="491.0" y="317.590650273933" width="6.3" height="12.409349726067" fill="#44aa44" opacity="0.3"/>
<line x1="506.75" y1="172.0200017826901" x2="506.75" y2="209.30229075675194" stroke="#ff4444" stroke-width="1" opacity="0.8"/>
<rect x="501.5" y="172.0200017826901" width="6.3" height="30.148854621624082" fill="#ff4444" opacity="0.8"/>
<rect x="501.5" y="312.4756416485831" width="6.3" height="17.524358351416865" fill="#ff4444" opacity="0.3"/>
<line x1="517.25" y1="165.82871913717798" x2="517.25" y2="195.57379445583385" stroke="#44aa44" stroke-width="1" opacity="0.8"/>
<rect x="512.0" y="165.82871913717798" width="6.3" height="25.303502986005924" fill="#44aa44" opacity="0.8"/>
<rect x="512.0" y="311.5221913447074" width="6.3" height="18.477808655292627" fill="#44aa44" opacity="0.3"/>
<line x1="527.75" y1="149.13917461449324" x2="527.75" y2="201.49589089936717" stroke="#ff4444" stroke-width="1" opacity="0.8"/>
<rect x="522.5" y="149.13917461449324" width="6.3" height="47.51136464925577" fill="#ff4444" opacity="0.8"/>
<rect x="522.5" y="302.9672760868791" width="6.3" height="27.03272391312092" fill="#ff4444" opacity="0.3"/>
<line x1="538.25" y1="102.97374097513146" x2="538.25" y2="149.13917461449324" stroke="#ff4444" stroke-width="1" opacity="0.8"/>
<rect x="533.0" y="102.97374097513146" width="6.3" height="32.30234423745439" fill="#ff4444" opacity="0.8"/>
<rect x="533.0" y="304.0817828238486" width="6.3" height="25.9182171761514" fill="#ff4444" opacity="0.3"/>
<line x1="548.75" y1="83.72692753364827" x2="548.75" y2="130.29614047597823" stroke="#44aa44" stroke-width="1" opacity="0.8"/>
<rect x="543.5" y="96.10949282467244" width="6.3" height="27.995365005793715" fill="#44aa44" opacity="0.8"/>
<rect x="543.5" y="295.0" width="6.3" height="35.0" fill="#44aa44" opacity="0.3"/>
<line x1="559.25" y1="120.8746234067208" x2="559.25" y2="144.83219538283277" stroke="#ff4444" stroke-width="1" opacity="0.8"/>
<rect x="554.0" y="131.50747838488283" width="6.3" height="7.133434352437831" fill="#ff4444" opacity="0.8"/>
<rect x="554.0" y="305.3874978341229" width="6.3" height="24.612502165877103" fill="#ff4444" opacity="0.3"/>
<line x1="569.75" y1="103.9158926820572" x2="569.75" y2="137.56416792940547" stroke="#ff4444" stroke-width="1" opacity="0.8"/>
<rect x="564.5" y="114.41415455922989" width="6.3" height="15.747392815758971" fill="#ff4444" opacity="0.8"/>
<rect x="564.5" y="301.7978580112547" width="6.3" height="28.202141988745346" fill="#ff4444" opacity="0.3"/>
<line x1="580.25" y1="71.20976914163472" x2="580.25" y2="123.83567162848743" stroke="#44aa44" stroke-width="1" opacity="0.8"/>
<rect x="575.0" y="100.01269275336483" width="6.3" height="14.939834209822607" fill="#44aa44" opacity="0.8"/>
<rect x="575.0" y="299.0246536394353" width="6.3" height="30.975346360564668" fill="#44aa44" opacity="0.3"/>
<line x1="590.75" y1="97.18623763258756" x2="590.75" y2="133.1225955967555" stroke="#ff4444" stroke-width="1" opacity="0.8"/>
<rect x="585.5" y="107.14612710580266" width="6.3" height="20.323558249398317" fill="#ff4444" opacity="0.8"/>
<rect x="585.5" y="303.48620147212694" width="6.3" height="26.513798527873064" fill="#ff4444" opacity="0.3"/>
<line x1="601.25" y1="121.9513682146359" x2="601.25" y2="137.56416792940547" stroke="#44aa44" stroke-width="1" opacity="0.8"/>
<rect x="596.0" y="126.12375434530713" width="6.3" height="6.864248150459019" fill="#44aa44" opacity="0.8"/>
<rect x="596.0" y="308.04413886034956" width="6.3" height="21.955861139650438" fill="#44aa44" opacity="0.3"/>
<line x1="611.75" y1="85.20745164453157" x2="611.75" y2="124.23945093145562" stroke="#ff4444" stroke-width="1" opacity="0.8"/>
<rect x="606.5" y="85.20745164453157" width="6.3" height="39.03199928692405" fill="#ff4444" opacity="0.8"/>
<rect x="606.5" y="309.0331798734728" width="6.3" height="20.96682012652717" fill="#ff4444" opacity="0.3"/>
<line x1="622.25" y1="79.68913450396651" x2="622.25" y2="113.33740975131475" stroke="#44aa44" stroke-width="1" opacity="0.8"/>
<rect x="617.0" y="79.68913450396651" width="6.3" height="28.39914430876192" fill="#44aa44" opacity="0.8"/>
<rect x="617.0" y="302.51521520918095" width="6.3" height="27.484784790819045" fill="#44aa44" opacity="0.3"/>
<line x1="632.75" y1="116.02927177110266" x2="632.75" y2="142.8132988679918" stroke="#ff4444" stroke-width="1" opacity="0.8"/>
<rect x="627.5" y="116.02927177110266" width="6.3" height="12.382565291024065" fill="#ff4444" opacity="0.8"/>
<rect x="627.5" y="309.5348014538494" width="6.3" height="20.465198546150603" fill="#ff4444" opacity="0.3"/>
<line x1="643.25" y1="115.8946786701132" x2="643.25" y2="159.77202959265537" stroke="#44aa44" stroke-width="1" opacity="0.8"/>
<rect x="638.0" y="116.02927177110266" width="6.3" height="42.26223371066939" fill="#44aa44" opacity="0.8"/>
<rect x="638.0" y="312.3133552562755" width="6.3" height="17.686644743724496" fill="#44aa44" opacity="0.3"/>
<line x1="653.75" y1="146.985684998663" x2="653.75" y2="184.53716017470362" stroke="#44aa44" stroke-width="1" opacity="0.8"/>
<rect x="648.5" y="161.52173990551742" width="6.3" height="17.631696229610526" fill="#44aa44" opacity="0.8"/>
<rect x="648.5" y="314.0098585876831" width="6.3" height="15.990141412316905" fill="#44aa44" opacity="0.3"/>
<line x1="664.25" y1="169.05895356092344" x2="664.25" y2="186.28687048756578" stroke="#ff4444" stroke-width="1" opacity="0.8"/>
<rect x="659.0" y="180.23018094304305" width="6.3" height="4.576165433639375" fill="#ff4444" opacity="0.8"/>
<rect x="659.0" y="318.49537495523947" width="6.3" height="11.504625044760541" fill="#ff4444" opacity="0.3"/>
<line x1="674.75" y1="171.07785007576433" x2="674.75" y2="194.76623584989753" stroke="#ff4444" stroke-width="1" opacity="0.8"/>
<rect x="669.5" y="171.07785007576433" width="6.3" height="7.268027453427209" fill="#ff4444" opacity="0.8"/>
<rect x="669.5" y="317.2338345737988" width="6.3" height="12.766165426201221" fill="#ff4444" opacity="0.3"/>
<rect x="177.25" y="301.53635796416796" width="8" height="8" fill="#ff9800" opacity="0.85"/>
<text x="181.25" y="298.53635796416796" text-anchor="middle" font-size="8" font-weight="bold" fill="#ff9800">前低</text>
<rect x="240.25" y="223.20317318834122" width="8" height="8" fill="#ff9800" opacity="0.85"/>
<text x="244.25" y="220.20317318834122" text-anchor="middle" font-size="8" font-weight="bold" fill="#ff9800">前高</text>
<rect x="282.25" y="268.1572689187985" width="8" height="8" fill="#ff9800" opacity="0.85"/>
<text x="286.25" y="265.1572689187985" text-anchor="middle" font-size="8" font-weight="bold" fill="#ff9800">前低</text>
<rect x="324.25" y="227.77933862198057" width="8" height="8" fill="#ff9800" opacity="0.85"/>
<text x="328.25" y="224.77933862198057" text-anchor="middle" font-size="8" font-weight="bold" fill="#ff9800">前高</text>
<rect x="376.75" y="282.5587307246636" width="8" height="8" fill="#ff9800" opacity="0.85"/>
<text x="380.75" y="279.5587307246636" text-anchor="middle" font-size="8" font-weight="bold" fill="#ff9800">前低</text>
<rect x="408.25" y="215.26218022996704" width="8" height="8" fill="#ff9800" opacity="0.85"/>
<text x="412.25" y="212.26218022996704" text-anchor="middle" font-size="8" font-weight="bold" fill="#ff9800">前高</text>
<rect x="429.25" y="221.1842766735003" width="8" height="8" fill="#2196f3" opacity="0.85"/>
<text x="433.25" y="218.1842766735003" text-anchor="middle" font-size="8" font-weight="bold" fill="#2196f3">中</text>
<rect x="460.75" y="237.0662625902487" width="8" height="8" fill="#ff9800" opacity="0.85"/>
<text x="464.75" y="234.0662625902487" text-anchor="middle" font-size="8" font-weight="bold" fill="#ff9800">前低</text>
<rect x="576.25" y="67.20976914163472" width="8" height="8" fill="#ff9800" opacity="0.85"/>
<text x="580.25" y="64.20976914163472" text-anchor="middle" font-size="8" font-weight="bold" fill="#ff9800">前高</text>
<rect x="607.75" y="81.20745164453157" width="8" height="8" fill="#2196f3" opacity="0.85"/>
<text x="611.75" y="78.20745164453157" text-anchor="middle" font-size="8" font-weight="bold" fill="#2196f3">中</text>
<text x="55.25" y="355" fill="#666666" font-size="8" text-anchor="middle" transform="rotate(-30,55.25,355)">02/11</text>
<text x="107.75" y="355" fill="#666666" font-size="8" text-anchor="middle" transform="rotate(-30,107.75,355)">02/26</text>
<text x="160.25" y="355" fill="#666666" font-size="8" text-anchor="middle" transform="rotate(-30,160.25,355)">03/05</text>
<text x="212.75" y="355" fill="#666666" font-size="8" text-anchor="middle" transform="rotate(-30,212.75,355)">03/12</text>
<text x="265.25" y="355" fill="#666666" font-size="8" text-anchor="middle" transform="rotate(-30,265.25,355)">03/19</text>
<text x="317.75" y="355" fill="#666666" font-size="8" text-anchor="middle" transform="rotate(-30,317.75,355)">03/26</text>
<text x="370.25" y="355" fill="#666666" font-size="8" text-anchor="middle" transform="rotate(-30,370.25,355)">04/02</text>
<text x="422.75" y="355" fill="#666666" font-size="8" text-anchor="middle" transform="rotate(-30,422.75,355)">04/10</text>
<text x="475.25" y="355" fill="#666666" font-size="8" text-anchor="middle" transform="rotate(-30,475.25,355)">04/17</text>
<text x="527.75" y="355" fill="#666666" font-size="8" text-anchor="middle" transform="rotate(-30,527.75,355)">04/24</text>
<text x="580.25" y="355" fill="#666666" font-size="8" text-anchor="middle" transform="rotate(-30,580.25,355)">05/06</text>
<text x="632.75" y="355" fill="#666666" font-size="8" text-anchor="middle" transform="rotate(-30,632.75,355)">05/13</text>
<text x="674.75" y="355" fill="#666666" font-size="8" text-anchor="middle" transform="rotate(-30,674.75,355)">05/19</text>
<rect x="50" y="334" width="7" height="7" fill="#ff9800" opacity="0.8" rx="1"/>
<text x="60" y="340" font-family="sans-serif" font-size="8" fill="#888888">第1类</text>
<rect x="120" y="334" width="7" height="7" fill="#2196f3" opacity="0.8" rx="1"/>
<text x="130" y="340" font-family="sans-serif" font-size="8" fill="#888888">第2类</text>
<rect x="190" y="334" width="7" height="7" fill="#ffd700" opacity="0.8" rx="1"/>
<text x="200" y="340" font-family="sans-serif" font-size="8" fill="#888888">EMA5</text>
<rect x="260" y="334" width="7" height="7" fill="#ff6b6b" opacity="0.8" rx="1"/>
<text x="270" y="340" font-family="sans-serif" font-size="8" fill="#888888">EMA10</text>
<rect x="330" y="334" width="7" height="7" fill="#4ecdc4" opacity="0.8" rx="1"/>
<text x="340" y="340" font-family="sans-serif" font-size="8" fill="#888888">EMA20</text>
</svg>