<svg xmlns="http://www.w3.org/2000/svg" width="700" height="380" viewBox="0 0 700 380">
<rect width="700" height="380" fill="#1a1a2e"/>
<text x="350.0" y="20" text-anchor="middle" font-family="sans-serif" font-size="14" font-weight="bold" fill="#ffffff">方正电机(002196) 关键点图</text>
<line x1="50" y1="28.0" x2="680" y2="28.0" stroke="#2a2a4e" stroke-width="0.5"/>
<text x="46" y="31.0" text-anchor="end" font-size="9" fill="#666666">19.98</text>
<line x1="50" y1="128.80207243561003" x2="680" y2="128.80207243561003" stroke="#2a2a4e" stroke-width="0.5"/>
<text x="46" y="131.80207243561003" text-anchor="end" font-size="9" fill="#666666">17.3</text>
<line x1="50" y1="229.22801773526626" x2="680" y2="229.22801773526626" stroke="#2a2a4e" stroke-width="0.5"/>
<text x="46" y="232.22801773526626" text-anchor="end" font-size="9" fill="#666666">14.63</text>
<line x1="50" y1="330.0300901708764" x2="680" y2="330.0300901708764" stroke="#2a2a4e" stroke-width="0.5"/>
<text x="46" y="333.0300901708764" text-anchor="end" font-size="9" fill="#666666">11.95</text>
<polyline points="55.25,141.21426792208445 65.75,136.44999086666996 76.25,123.49450062826236 86.75,120.87554131125101 97.25,125.02222689651916 107.75,126.28217540954944 118.25,132.01179385230193 128.75,148.7452378152164 139.25,176.4504611057919 149.75,190.03095719877652 160.25,194.571095629321 170.75,200.3561202466783 181.25,205.4665604447624 191.75,204.8614977933116 202.25,209.72390259569718 212.75,216.22527430888687 223.25,223.944666341264 233.75,229.71780625610492 244.25,238.33084325474667 254.75,240.56234798493927 265.25,246.93967057246667 275.75,255.70474459559688 286.25,266.06165290912895 296.75,268.57810853202295 307.25,267.12135281433757 317.75,268.65769657557246 328.25,267.0490357980526 338.75,265.7258438557369 349.25,265.47059445411605 359.75,262.04065967476953 370.25,262.2615507282303 380.75,266.5462099260289 391.25,267.1458865755054 401.75,259.0201225935376 412.25,258.492599372958 422.75,252.2482587626293 433.25,243.94796652691866 443.75,240.42044976153173 454.25,242.33154612541645 464.75,239.96971472045314 475.25,239.77429328230815 485.75,239.64401232354479 496.25,237.80189838325163 506.75,238.32908239084043 517.25,242.8179368913911 527.75,244.05524659064062 538.25,243.8771140275969 548.75,252.66003453647363 559.25,255.63167350007924 569.75,255.10525190279114 580.25,251.9960385076048 590.75,244.7828253861124 601.25,234.0813581751751 611.75,231.20982090869293 622.25,232.17910410668375 632.75,231.57153578549836 643.25,239.1905358050552 653.75,226.71726947358385 664.25,208.3717016271691 674.75,186.6127689520638" fill="none" stroke="#ffd700" stroke-width="1" opacity="0.6"/>
<polyline points="55.25,141.21426792208445 65.75,138.61557134640384 76.25,131.15519840186624 86.75,128.33382099738662 97.25,129.23959864641728 107.75,129.16004842627052 118.25,131.76204521018633 128.75,140.93478712488786 139.25,157.46680904526144 149.75,168.3259254706222 160.25,174.74873401967454 170.75,181.50826773998693 181.25,187.72266284924942 191.75,190.61879187491502 202.25,195.86059557047017 212.75,201.92739960043312 223.25,208.73759065599404 233.75,214.65149891595635 244.25,222.08884770433338 254.75,226.25912220269544 265.25,232.33824830175473 275.75,239.774001818137 286.25,248.3197232214199 296.75,252.9181407771274 307.25,254.9708136138255 317.75,258.01800824731936 328.25,259.0750457010819 338.75,259.8031210229043 349.25,260.74075277344434 359.75,259.72985047210466 370.25,260.27048362902235 380.75,262.9695826640412 391.25,263.946974884117 401.75,260.096360292387 412.25,259.61294077228007 422.75,256.00323836676955 433.25,250.79308267381097 443.75,247.6244160478013 454.25,247.35702019423488 464.75,245.1550259608334 475.25,244.1056485872306 485.75,243.24706709973742 496.25,241.58717680936067 506.75,241.1864992814802 517.25,243.115435028937 527.75,243.73624065806473 538.25,243.69707852050922 548.75,248.52049616300343 559.25,250.8940334837829 569.75,251.46828352458874 580.25,250.4336159232512 590.75,246.7832128723196 601.25,240.58234212340705 611.75,237.83405198746547 622.25,237.1583462629564 632.75,235.92162860480568 643.25,239.28652083014438 653.75,232.46546919023473 664.25,221.4136685982538 674.75,207.1738931443628" fill="none" stroke="#ff6b6b" stroke-width="1" opacity="0.6"/>
<polyline points="55.25,141.21426792208445 65.75,139.85304590625174 76.25,135.82737678674658 86.75,133.90454306203054 97.25,133.84845306250915 107.75,133.36784538375682 118.25,134.33005351271402 128.75,138.89025086779318 139.25,147.74459913628368 149.75,154.35863249328 160.25,159.05317915967333 170.75,164.08870204745617 181.25,169.00286764683463 191.75,172.3027252509847 202.25,176.79281924617368 212.75,181.78664767370628 223.25,187.27205745773597 233.75,192.4141554223122 244.25,198.42775178704727 254.75,202.86561899259752 265.25,208.2778758263998 275.75,214.4642583802529 286.25,221.3510403951043 296.75,226.32818128869536 307.25,229.9357679639593 317.75,233.9162075957767 328.25,236.76530346694207 338.75,239.27141361019574 349.25,241.71795475692704 359.75,243.00012955303652 370.25,244.87662510371416 380.75,247.7565206482772 391.25,249.71735105077062 401.75,249.05556472494507 412.25,249.85384931607402 422.75,248.89249009949282 433.25,246.84057504768373 443.75,245.55722658892887 454.25,245.6140372807629 464.75,244.62661010264515 475.25,244.12726156010922 485.75,243.67547002162436 496.25,242.76520340077113 506.75,242.44313168698517 517.25,243.3338473256049 527.75,243.63823005546533 538.25,243.6270508979457 548.75,246.16027229378204 559.25,247.62833697316378 569.75,248.2401533288829 580.25,248.00562555634474 590.75,246.32474685032406 601.25,243.12033512679795 611.75,241.43904096002947 622.25,240.74176758313763 632.75,239.75268487456523 643.25,241.15038496690846 653.75,237.3999422853592 664.25,231.14095406145256 674.75,222.7556159224431" fill="none" stroke="#4ecdc4" stroke-width="1" opacity="0.6"/>
<line x1="55.25" y1="127.6736910277488" x2="55.25" y2="147.60842923329847" stroke="#ff4444" stroke-width="1" opacity="0.8"/>
<rect x="50.0" y="141.21426792208445" width="6.3" height="2.632889951676418" fill="#ff4444" opacity="0.8"/>
<rect x="50.0" y="315.443032342372" width="6.3" height="14.556967657627961" fill="#ff4444" opacity="0.3"/>
<line x1="65.75" y1="112.62860558959797" x2="65.75" y2="147.60842923329847" stroke="#ff4444" stroke-width="1" opacity="0.8"/>
<rect x="60.5" y="126.92143675584114" width="6.3" height="20.310865341503614" fill="#ff4444" opacity="0.8"/>
<rect x="60.5" y="312.5788377457324" width="6.3" height="17.42116225426759" fill="#ff4444" opacity="0.3"/>
<line x1="76.25" y1="83.6668161211578" x2="76.25" y2="132.18721665919395" stroke="#ff4444" stroke-width="1" opacity="0.8"/>
<rect x="71.0" y="97.58352015144727" width="6.3" height="34.603696507746676" fill="#ff4444" opacity="0.8"/>
<rect x="71.0" y="304.2324428956626" width="6.3" height="25.767557104337403" fill="#ff4444" opacity="0.3"/>
<line x1="86.75" y1="83.6668161211578" x2="86.75" y2="144.59941214566837" stroke="#44aa44" stroke-width="1" opacity="0.8"/>
<rect x="81.5" y="87.42808748069552" width="6.3" height="28.20953519653267" fill="#44aa44" opacity="0.8"/>
<rect x="81.5" y="307.1143466133728" width="6.3" height="22.885653386627233" fill="#44aa44" opacity="0.3"/>
<line x1="97.25" y1="128.80207243561003" x2="97.25" y2="140.0858865142231" stroke="#44aa44" stroke-width="1" opacity="0.8"/>
<rect x="92.0" y="129.17819957156385" width="6.3" height="4.137398495491453" fill="#44aa44" opacity="0.8"/>
<rect x="92.0" y="315.95243467823684" width="6.3" height="14.047565321763132" fill="#44aa44" opacity="0.3"/>
<line x1="107.75" y1="121.27952971653467" x2="107.75" y2="148.36068350520597" stroke="#ff4444" stroke-width="1" opacity="0.8"/>
<rect x="102.5" y="128.80207243561003" width="6.3" height="4.137398495491425" fill="#ff4444" opacity="0.8"/>
<rect x="102.5" y="314.9252998324423" width="6.3" height="15.0747001675577" fill="#ff4444" opacity="0.3"/>
<line x1="118.25" y1="133.3155980670553" x2="118.25" y2="144.22328500971454" stroke="#44aa44" stroke-width="1" opacity="0.8"/>
<rect x="113.0" y="134.44397947491663" width="6.3" height="9.027051262890382" fill="#44aa44" opacity="0.8"/>
<rect x="113.0" y="319.22314830191965" width="6.3" height="10.776851698080371" fill="#44aa44" opacity="0.3"/>
<line x1="128.75" y1="164.53415035121802" x2="128.75" y2="182.588252876999" stroke="#44aa44" stroke-width="1" opacity="0.8"/>
<rect x="123.5" y="177.69860010959997" width="6.3" height="4.513525631445219" fill="#44aa44" opacity="0.8"/>
<rect x="123.5" y="316.28508788264367" width="6.3" height="13.71491211735631" fill="#44aa44" opacity="0.3"/>
<line x1="139.25" y1="177.69860010959997" x2="139.25" y2="232.98928909480404" stroke="#44aa44" stroke-width="1" opacity="0.8"/>
<rect x="134.0" y="184.09276142081404" width="6.3" height="47.76814626612864" fill="#44aa44" opacity="0.8"/>
<rect x="134.0" y="316.5315163539273" width="6.3" height="13.468483646072693" fill="#44aa44" opacity="0.3"/>
<line x1="149.75" y1="213.8068051611618" x2="149.75" y2="244.27310317341707" stroke="#ff4444" stroke-width="1" opacity="0.8"/>
<rect x="144.5" y="217.19194938474573" width="6.3" height="24.448263836994926" fill="#ff4444" opacity="0.8"/>
<rect x="144.5" y="320.0998543683603" width="6.3" height="9.90014563163969" fill="#ff4444" opacity="0.3"/>
<line x1="160.25" y1="197.25721117919593" x2="160.25" y2="209.29327952971656" stroke="#ff4444" stroke-width="1" opacity="0.8"/>
<rect x="155.0" y="203.65137249041" width="6.3" height="3.3851442235839215" fill="#ff4444" opacity="0.8"/>
<rect x="155.0" y="322.0372028417587" width="6.3" height="7.96279715824131" fill="#ff4444" opacity="0.3"/>
<line x1="170.75" y1="199.5139739949186" x2="170.75" y2="213.05455088925424" stroke="#44aa44" stroke-width="1" opacity="0.8"/>
<rect x="165.5" y="202.89911821850248" width="6.3" height="9.027051262890467" fill="#44aa44" opacity="0.8"/>
<rect x="165.5" y="322.9909202900444" width="6.3" height="7.009079709955575" fill="#44aa44" opacity="0.3"/>
<line x1="181.25" y1="214.1829322971156" x2="181.25" y2="234.8699247745728" stroke="#ff4444" stroke-width="1" opacity="0.8"/>
<rect x="176.0" y="215.6874408409306" width="6.3" height="12.788322622428154" fill="#ff4444" opacity="0.8"/>
<rect x="176.0" y="322.9381803296815" width="6.3" height="7.061819670318512" fill="#ff4444" opacity="0.3"/>
<line x1="191.75" y1="196.88108404324217" x2="191.75" y2="211.55004234543918" stroke="#ff4444" stroke-width="1" opacity="0.8"/>
<rect x="186.5" y="203.65137249041" width="6.3" height="4.513525631445248" fill="#ff4444" opacity="0.8"/>
<rect x="186.5" y="321.1862028533627" width="6.3" height="8.813797146637311" fill="#ff4444" opacity="0.3"/>
<line x1="202.25" y1="202.89911821850248" x2="202.25" y2="220.9532207442834" stroke="#44aa44" stroke-width="1" opacity="0.8"/>
<rect x="197.0" y="207.4126438499477" width="6.3" height="12.036068350520594" fill="#44aa44" opacity="0.8"/>
<rect x="197.0" y="321.66477450578753" width="6.3" height="8.335225494212455" fill="#44aa44" opacity="0.3"/>
<line x1="212.75" y1="215.31131370497687" x2="212.75" y2="230.35639914312762" stroke="#44aa44" stroke-width="1" opacity="0.8"/>
<rect x="207.5" y="223.5861106959598" width="6.3" height="5.64190703930646" fill="#44aa44" opacity="0.8"/>
<rect x="207.5" y="324.24905535197433" width="6.3" height="5.7509446480256665" fill="#44aa44" opacity="0.3"/>
<line x1="223.25" y1="228.85189059931253" x2="223.25" y2="242.39246749364824" stroke="#44aa44" stroke-width="1" opacity="0.8"/>
<rect x="218.0" y="234.8699247745728" width="6.3" height="4.513525631445276" fill="#44aa44" opacity="0.8"/>
<rect x="218.0" y="324.6209722149034" width="6.3" height="5.379027785096593" fill="#44aa44" opacity="0.3"/>
<line x1="233.75" y1="241.2640860857869" x2="233.75" y2="254.42853584416878" stroke="#ff4444" stroke-width="1" opacity="0.8"/>
<rect x="228.5" y="241.2640860857869" width="6.3" height="4.13739849549151" fill="#ff4444" opacity="0.8"/>
<rect x="228.5" y="324.4876853785932" width="6.3" height="5.512314621406786" fill="#ff4444" opacity="0.3"/>
<line x1="244.25" y1="232.23703482289642" x2="244.25" y2="256.30917152393766" stroke="#44aa44" stroke-width="1" opacity="0.8"/>
<rect x="239.0" y="234.1176705026653" width="6.3" height="21.439246749364827" fill="#44aa44" opacity="0.8"/>
<rect x="239.0" y="325.35141395601147" width="6.3" height="4.648586043988534" fill="#44aa44" opacity="0.3"/>
<line x1="254.75" y1="244.6492303093708" x2="254.75" y2="256.30917152393766" stroke="#ff4444" stroke-width="1" opacity="0.8"/>
<rect x="249.5" y="245.02535744532457" width="6.3" height="5.641907039306545" fill="#ff4444" opacity="0.8"/>
<rect x="249.5" y="325.48059634776126" width="6.3" height="4.519403652238728" fill="#ff4444" opacity="0.3"/>
<line x1="265.25" y1="251.04339162058486" x2="265.25" y2="261.57495142729044" stroke="#44aa44" stroke-width="1" opacity="0.8"/>
<rect x="260.0" y="251.4195187565387" width="6.3" height="8.274796990982907" fill="#44aa44" opacity="0.8"/>
<rect x="260.0" y="325.17725282750547" width="6.3" height="4.822747172494551" fill="#44aa44" opacity="0.3"/>
<line x1="275.75" y1="255.1807901160764" x2="275.75" y2="274.3632740497186" stroke="#44aa44" stroke-width="1" opacity="0.8"/>
<rect x="270.5" y="259.31818861156785" width="6.3" height="13.916704030289338" fill="#44aa44" opacity="0.8"/>
<rect x="270.5" y="325.2029348511249" width="6.3" height="4.797065148875117" fill="#44aa44" opacity="0.3"/>
<line x1="286.25" y1="258.5659343396603" x2="286.25" y2="290.91286803168435" stroke="#44aa44" stroke-width="1" opacity="0.8"/>
<rect x="281.0" y="277.7484182733025" width="6.3" height="9.027051262890438" fill="#44aa44" opacity="0.8"/>
<rect x="281.0" y="320.7184810127461" width="6.3" height="9.281518987253861" fill="#44aa44" opacity="0.3"/>
<line x1="296.75" y1="271.7303840980422" x2="296.75" y2="288.279978080008" stroke="#ff4444" stroke-width="1" opacity="0.8"/>
<rect x="291.5" y="273.61101977781107" width="6.3" height="3.009017087630127" fill="#ff4444" opacity="0.8"/>
<rect x="291.5" y="322.87534941132566" width="6.3" height="7.124650588674363" fill="#ff4444" opacity="0.3"/>
<line x1="307.25" y1="261.57495142729044" x2="307.25" y2="273.61101977781107" stroke="#ff4444" stroke-width="1" opacity="0.8"/>
<rect x="302.0" y="264.2078413789668" width="6.3" height="9.403178398844261" fill="#ff4444" opacity="0.8"/>
<rect x="302.0" y="325.00008995993323" width="6.3" height="4.999910040066787" fill="#ff4444" opacity="0.3"/>
<line x1="317.75" y1="255.1807901160764" x2="317.75" y2="273.98714691376483" stroke="#44aa44" stroke-width="1" opacity="0.8"/>
<rect x="312.5" y="263.83171424301304" width="6.3" height="7.898669855029141" fill="#44aa44" opacity="0.8"/>
<rect x="312.5" y="324.76427506068154" width="6.3" height="5.2357249393184615" fill="#44aa44" opacity="0.3"/>
<line x1="328.25" y1="262.70333283515174" x2="328.25" y2="282.63807104070145" stroke="#ff4444" stroke-width="1" opacity="0.8"/>
<rect x="323.0" y="263.83171424301304" width="6.3" height="15.04508543815075" fill="#ff4444" opacity="0.8"/>
<rect x="323.0" y="325.10428334871517" width="6.3" height="4.895716651284856" fill="#ff4444" opacity="0.3"/>
<line x1="338.75" y1="261.57495142729044" x2="338.75" y2="272.4826383699497" stroke="#ff4444" stroke-width="1" opacity="0.8"/>
<rect x="333.5" y="263.0794599711055" width="6.3" height="8.274796990982907" fill="#ff4444" opacity="0.8"/>
<rect x="333.5" y="326.26038434963675" width="6.3" height="3.739615650363221" fill="#ff4444" opacity="0.3"/>
<line x1="349.25" y1="250.66726448463112" x2="349.25" y2="265.71234992278187" stroke="#44aa44" stroke-width="1" opacity="0.8"/>
<rect x="344.0" y="262.70333283515174" width="6.3" height="2.2567628157225954" fill="#44aa44" opacity="0.8"/>
<rect x="344.0" y="324.63124472050583" width="6.3" height="5.368755279494191" fill="#44aa44" opacity="0.3"/>
<line x1="359.75" y1="252.54790016439998" x2="359.75" y2="261.1988242913367" stroke="#ff4444" stroke-width="1" opacity="0.8"/>
<rect x="354.5" y="255.1807901160764" width="6.3" height="2.25676281572251" fill="#ff4444" opacity="0.8"/>
<rect x="354.5" y="324.54069550813233" width="6.3" height="5.459304491867665" fill="#ff4444" opacity="0.3"/>
<line x1="370.25" y1="251.4195187565387" x2="370.25" y2="266.4646041946894" stroke="#44aa44" stroke-width="1" opacity="0.8"/>
<rect x="365.0" y="257.4375529317989" width="6.3" height="5.265779903352836" fill="#44aa44" opacity="0.8"/>
<rect x="365.0" y="325.70302128789865" width="6.3" height="4.296978712101331" fill="#44aa44" opacity="0.3"/>
<line x1="380.75" y1="262.327205699198" x2="380.75" y2="275.49165545757984" stroke="#44aa44" stroke-width="1" opacity="0.8"/>
<rect x="375.5" y="264.2078413789668" width="6.3" height="10.907686942659325" fill="#44aa44" opacity="0.8"/>
<rect x="375.5" y="326.4950929985316" width="6.3" height="3.5049070014683834" fill="#44aa44" opacity="0.3"/>
<line x1="391.25" y1="265.71234992278187" x2="391.25" y2="275.49165545757984" stroke="#ff4444" stroke-width="1" opacity="0.8"/>
<rect x="386.0" y="268.34523987445823" width="6.3" height="6.7702884471679" fill="#ff4444" opacity="0.8"/>
<rect x="386.0" y="326.8513162480213" width="6.3" height="3.1486837519787207" fill="#ff4444" opacity="0.3"/>
<line x1="401.75" y1="242.768594629602" x2="401.75" y2="258.5659343396603" stroke="#ff4444" stroke-width="1" opacity="0.8"/>
<rect x="396.5" y="242.768594629602" width="6.3" height="15.79733971005831" fill="#ff4444" opacity="0.8"/>
<rect x="396.5" y="323.0454701560038" width="6.3" height="6.954529843996237" fill="#ff4444" opacity="0.3"/>
<line x1="412.25" y1="249.91501021272356" x2="412.25" y2="259.6943157475216" stroke="#44aa44" stroke-width="1" opacity="0.8"/>
<rect x="407.0" y="252.54790016439998" width="6.3" height="4.889652767398928" fill="#44aa44" opacity="0.8"/>
<rect x="407.0" y="325.10241267404444" width="6.3" height="4.897587325955563" fill="#44aa44" opacity="0.3"/>
<line x1="422.75" y1="225.09061923977484" x2="422.75" y2="254.8046629801226" stroke="#ff4444" stroke-width="1" opacity="0.8"/>
<rect x="417.5" y="239.75957754197185" width="6.3" height="13.916704030289395" fill="#ff4444" opacity="0.8"/>
<rect x="417.5" y="319.9712163662345" width="6.3" height="10.028783633765508" fill="#ff4444" opacity="0.3"/>
<line x1="433.25" y1="225.46674637572863" x2="433.25" y2="242.0163403576945" stroke="#ff4444" stroke-width="1" opacity="0.8"/>
<rect x="428.0" y="227.3473820554975" width="6.3" height="8.650924126936673" fill="#ff4444" opacity="0.8"/>
<rect x="428.0" y="319.14209324458847" width="6.3" height="10.857906755411507" fill="#ff4444" opacity="0.3"/>
<line x1="443.75" y1="224.71449210382107" x2="443.75" y2="241.2640860857869" stroke="#44aa44" stroke-width="1" opacity="0.8"/>
<rect x="438.5" y="226.59512778358996" width="6.3" height="6.770288447167815" fill="#44aa44" opacity="0.8"/>
<rect x="438.5" y="321.06068762204274" width="6.3" height="8.93931237795725" fill="#44aa44" opacity="0.3"/>
<line x1="454.25" y1="222.83385642405221" x2="454.25" y2="247.65824739700096" stroke="#44aa44" stroke-width="1" opacity="0.8"/>
<rect x="449.0" y="226.59512778358996" width="6.3" height="19.55861106959597" fill="#44aa44" opacity="0.8"/>
<rect x="449.0" y="321.59977311866106" width="6.3" height="8.40022688133892" fill="#44aa44" opacity="0.3"/>
<line x1="464.75" y1="223.20998356000607" x2="464.75" y2="242.768594629602" stroke="#44aa44" stroke-width="1" opacity="0.8"/>
<rect x="459.5" y="234.1176705026653" width="6.3" height="1.1283814078612977" fill="#44aa44" opacity="0.8"/>
<rect x="459.5" y="321.7476609910956" width="6.3" height="8.252339008904436" fill="#44aa44" opacity="0.3"/>
<line x1="475.25" y1="235.99830618243416" x2="475.25" y2="246.90599312509343" stroke="#ff4444" stroke-width="1" opacity="0.8"/>
<rect x="470.0" y="239.38345040601808" width="6.3" height="1.880635679768801" fill="#ff4444" opacity="0.8"/>
<rect x="470.0" y="323.6938450346935" width="6.3" height="6.306154965306502" fill="#ff4444" opacity="0.3"/>
<line x1="485.75" y1="234.1176705026653" x2="485.75" y2="246.90599312509343" stroke="#44aa44" stroke-width="1" opacity="0.8"/>
<rect x="480.5" y="236.37443331838793" width="6.3" height="3.0090170876301556" fill="#44aa44" opacity="0.8"/>
<rect x="480.5" y="323.70551396298254" width="6.3" height="6.294486037017453" fill="#44aa44" opacity="0.3"/>
<line x1="496.25" y1="227.3473820554975" x2="496.25" y2="248.7866288048623" stroke="#ff4444" stroke-width="1" opacity="0.8"/>
<rect x="491.0" y="234.1176705026653" width="6.3" height="7.1464155831215805" fill="#ff4444" opacity="0.8"/>
<rect x="491.0" y="320.31142569862226" width="6.3" height="9.688574301377743" fill="#ff4444" opacity="0.3"/>
<line x1="506.75" y1="234.1176705026653" x2="506.75" y2="247.2821202610472" stroke="#ff4444" stroke-width="1" opacity="0.8"/>
<rect x="501.5" y="239.38345040601808" width="6.3" height="1" fill="#ff4444" opacity="0.8"/>
<rect x="501.5" y="323.9821120008186" width="6.3" height="6.017887999181411" fill="#ff4444" opacity="0.3"/>
<line x1="517.25" y1="239.00732327006432" x2="517.25" y2="258.18980720370655" stroke="#44aa44" stroke-width="1" opacity="0.8"/>
<rect x="512.0" y="239.38345040601808" width="6.3" height="12.412195486474388" fill="#44aa44" opacity="0.8"/>
<rect x="512.0" y="321.402502777219" width="6.3" height="8.59749722278096" fill="#44aa44" opacity="0.3"/>
<line x1="527.75" y1="239.75957754197185" x2="527.75" y2="256.6852986598914" stroke="#ff4444" stroke-width="1" opacity="0.8"/>
<rect x="522.5" y="246.5298659891397" width="6.3" height="6.018034175260283" fill="#ff4444" opacity="0.8"/>
<rect x="522.5" y="322.8412258036717" width="6.3" height="7.1587741963282685" fill="#ff4444" opacity="0.3"/>
<line x1="538.25" y1="240.1357046779256" x2="538.25" y2="264.2078413789668" stroke="#ff4444" stroke-width="1" opacity="0.8"/>
<rect x="533.0" y="243.5208489015095" width="6.3" height="6.018034175260311" fill="#ff4444" opacity="0.8"/>
<rect x="533.0" y="322.68579294425325" width="6.3" height="7.314207055746741" fill="#ff4444" opacity="0.3"/>
<line x1="548.75" y1="246.5298659891397" x2="548.75" y2="271.7303840980422" stroke="#44aa44" stroke-width="1" opacity="0.8"/>
<rect x="543.5" y="246.5298659891397" width="6.3" height="23.69600956508748" fill="#44aa44" opacity="0.8"/>
<rect x="543.5" y="321.9588044057926" width="6.3" height="8.041195594207387" fill="#44aa44" opacity="0.3"/>
<line x1="559.25" y1="258.5659343396603" x2="559.25" y2="273.61101977781107" stroke="#ff4444" stroke-width="1" opacity="0.8"/>
<rect x="554.0" y="261.57495142729044" width="6.3" height="8.27479699098285" fill="#ff4444" opacity="0.8"/>
<rect x="554.0" y="325.2018655686216" width="6.3" height="4.798134431378418" fill="#ff4444" opacity="0.3"/>
<line x1="569.75" y1="250.66726448463112" x2="569.75" y2="265.71234992278187" stroke="#ff4444" stroke-width="1" opacity="0.8"/>
<rect x="564.5" y="254.05240870821504" width="6.3" height="11.659941214566828" fill="#ff4444" opacity="0.8"/>
<rect x="564.5" y="324.3214085310694" width="6.3" height="5.67859146893061" fill="#ff4444" opacity="0.3"/>
<line x1="580.25" y1="243.89697603746328" x2="580.25" y2="253.67628157226125" stroke="#ff4444" stroke-width="1" opacity="0.8"/>
<rect x="575.0" y="245.77761171723213" width="6.3" height="7.898669855029112" fill="#ff4444" opacity="0.8"/>
<rect x="575.0" y="324.22429448623956" width="6.3" height="5.7757055137604185" fill="#ff4444" opacity="0.3"/>
<line x1="590.75" y1="227.72350919145126" x2="590.75" y2="249.16275594081606" stroke="#ff4444" stroke-width="1" opacity="0.8"/>
<rect x="585.5" y="230.35639914312762" width="6.3" height="18.43022966173467" fill="#ff4444" opacity="0.8"/>
<rect x="585.5" y="321.1671846651498" width="6.3" height="8.832815334850187" fill="#ff4444" opacity="0.3"/>
<line x1="601.25" y1="201.39460967468744" x2="601.25" y2="237.87894186220296" stroke="#ff4444" stroke-width="1" opacity="0.8"/>
<rect x="596.0" y="212.67842375330048" width="6.3" height="24.82439097294875" fill="#ff4444" opacity="0.8"/>
<rect x="596.0" y="313.2235209031581" width="6.3" height="16.776479096841914" fill="#ff4444" opacity="0.3"/>
<line x1="611.75" y1="214.9351865690231" x2="611.75" y2="228.099636327405" stroke="#44aa44" stroke-width="1" opacity="0.8"/>
<rect x="606.5" y="214.9351865690231" width="6.3" height="10.53155980670553" fill="#44aa44" opacity="0.8"/>
<rect x="606.5" y="318.4839598653832" width="6.3" height="11.516040134616812" fill="#44aa44" opacity="0.3"/>
<line x1="622.25" y1="220.57709360832965" x2="622.25" y2="237.50281472624923" stroke="#44aa44" stroke-width="1" opacity="0.8"/>
<rect x="617.0" y="226.59512778358996" width="6.3" height="7.522542719075346" fill="#44aa44" opacity="0.8"/>
<rect x="617.0" y="322.7774613204119" width="6.3" height="7.22253867958814" fill="#44aa44" opacity="0.3"/>
<line x1="632.75" y1="229.22801773526626" x2="632.75" y2="241.64021322174065" stroke="#ff4444" stroke-width="1" opacity="0.8"/>
<rect x="627.5" y="230.35639914312762" width="6.3" height="6.770288447167843" fill="#ff4444" opacity="0.8"/>
<rect x="627.5" y="324.0419695390096" width="6.3" height="5.958030460990436" fill="#ff4444" opacity="0.3"/>
<line x1="643.25" y1="230.35639914312762" x2="643.25" y2="254.8046629801226" stroke="#44aa44" stroke-width="1" opacity="0.8"/>
<rect x="638.0" y="230.35639914312762" width="6.3" height="24.07213670104116" fill="#44aa44" opacity="0.8"/>
<rect x="638.0" y="321.90193594644404" width="6.3" height="8.098064053555959" fill="#44aa44" opacity="0.3"/>
<line x1="653.75" y1="201.7707368106412" x2="653.75" y2="255.55691725203013" stroke="#ff4444" stroke-width="1" opacity="0.8"/>
<rect x="648.5" y="201.7707368106412" width="6.3" height="52.65779903352757" fill="#ff4444" opacity="0.8"/>
<rect x="648.5" y="303.05284300011596" width="6.3" height="26.947156999884044" fill="#ff4444" opacity="0.3"/>
<line x1="664.25" y1="163.4057689433568" x2="664.25" y2="190.11079559607438" stroke="#ff4444" stroke-width="1" opacity="0.8"/>
<rect x="659.0" y="171.68056593433968" width="6.3" height="18.4302296617347" fill="#ff4444" opacity="0.8"/>
<rect x="659.0" y="295.0" width="6.3" height="35.0" fill="#ff4444" opacity="0.3"/>
<line x1="674.75" y1="111.12409704578293" x2="674.75" y2="179.20310865341503" stroke="#ff4444" stroke-width="1" opacity="0.8"/>
<rect x="669.5" y="143.0949036018532" width="6.3" height="25.576645244856422" fill="#ff4444" opacity="0.8"/>
<rect x="669.5" y="296.73456384487207" width="6.3" height="33.26543615512794" fill="#ff4444" opacity="0.3"/>
<rect x="145.75" y="240.27310317341707" width="8" height="8" fill="#ff9800" opacity="0.85"/>
<text x="149.75" y="237.27310317341707" text-anchor="middle" font-size="8" font-weight="bold" fill="#ff9800">前低</text>
<rect x="282.25" y="286.91286803168435" width="8" height="8" fill="#ff9800" opacity="0.85"/>
<text x="286.25" y="283.91286803168435" text-anchor="middle" font-size="8" font-weight="bold" fill="#ff9800">前低</text>
<rect x="345.25" y="246.66726448463112" width="8" height="8" fill="#ff9800" opacity="0.85"/>
<text x="349.25" y="243.66726448463112" text-anchor="middle" font-size="8" font-weight="bold" fill="#ff9800">前高</text>
<rect x="450.25" y="218.83385642405221" width="8" height="8" fill="#ff9800" opacity="0.85"/>
<text x="454.25" y="215.83385642405221" text-anchor="middle" font-size="8" font-weight="bold" fill="#ff9800">前高</text>
<rect x="555.25" y="269.61101977781107" width="8" height="8" fill="#ff9800" opacity="0.85"/>
<text x="559.25" y="266.61101977781107" text-anchor="middle" font-size="8" font-weight="bold" fill="#ff9800">前低</text>
<rect x="597.25" y="197.39460967468744" width="8" height="8" fill="#ff9800" opacity="0.85"/>
<text x="601.25" y="194.39460967468744" text-anchor="middle" font-size="8" font-weight="bold" fill="#ff9800">前高</text>
<rect x="628.75" y="226.35639914312762" width="8" height="8" fill="#2196f3" opacity="0.85"/>
<text x="632.75" y="223.35639914312762" text-anchor="middle" font-size="8" font-weight="bold" fill="#2196f3">中</text>
<rect x="649.75" y="251.55691725203013" width="8" height="8" fill="#ff9800" opacity="0.85"/>
<text x="653.75" y="248.55691725203013" text-anchor="middle" font-size="8" font-weight="bold" fill="#ff9800">前低</text>
<line x1="674.75" y1="143.0949036018532" x2="674.75" y2="42" stroke="#4caf50" stroke-width="1" stroke-dasharray="3,2"/>
<rect x="654.75" y="28" width="40" height="14" rx="3" fill="#2563eb" opacity="0.9"/>
<text x="674.75" y="38" text-anchor="middle" font-size="9" font-weight="bold" fill="white">关注</text>
<text x="55.25" y="355" fill="#666666" font-size="8" text-anchor="middle" transform="rotate(-30,55.25,355)">02/11</text>
<text x="107.75" y="355" fill="#666666" font-size="8" text-anchor="middle" transform="rotate(-30,107.75,355)">02/26</text>
<text x="160.25" y="355" fill="#666666" font-size="8" text-anchor="middle" transform="rotate(-30,160.25,355)">03/05</text>
<text x="212.75" y="355" fill="#666666" font-size="8" text-anchor="middle" transform="rotate(-30,212.75,355)">03/12</text>
<text x="265.25" y="355" fill="#666666" font-size="8" text-anchor="middle" transform="rotate(-30,265.25,355)">03/19</text>
<text x="317.75" y="355" fill="#666666" font-size="8" text-anchor="middle" transform="rotate(-30,317.75,355)">03/26</text>
<text x="370.25" y="355" fill="#666666" font-size="8" text-anchor="middle" transform="rotate(-30,370.25,355)">04/02</text>
<text x="422.75" y="355" fill="#666666" font-size="8" text-anchor="middle" transform="rotate(-30,422.75,355)">04/10</text>
<text x="475.25" y="355" fill="#666666" font-size="8" text-anchor="middle" transform="rotate(-30,475.25,355)">04/17</text>
<text x="527.75" y="355" fill="#666666" font-size="8" text-anchor="middle" transform="rotate(-30,527.75,355)">04/24</text>
<text x="580.25" y="355" fill="#666666" font-size="8" text-anchor="middle" transform="rotate(-30,580.25,355)">05/06</text>
<text x="632.75" y="355" fill="#666666" font-size="8" text-anchor="middle" transform="rotate(-30,632.75,355)">05/13</text>
<text x="674.75" y="355" fill="#666666" font-size="8" text-anchor="middle" transform="rotate(-30,674.75,355)">05/19</text>
<rect x="50" y="334" width="7" height="7" fill="#ff9800" opacity="0.8" rx="1"/>
<text x="60" y="340" font-family="sans-serif" font-size="8" fill="#888888">第1类</text>
<rect x="120" y="334" width="7" height="7" fill="#2196f3" opacity="0.8" rx="1"/>
<text x="130" y="340" font-family="sans-serif" font-size="8" fill="#888888">第2类</text>
<rect x="190" y="334" width="7" height="7" fill="#ffd700" opacity="0.8" rx="1"/>
<text x="200" y="340" font-family="sans-serif" font-size="8" fill="#888888">EMA5</text>
<rect x="260" y="334" width="7" height="7" fill="#ff6b6b" opacity="0.8" rx="1"/>
<text x="270" y="340" font-family="sans-serif" font-size="8" fill="#888888">EMA10</text>
<rect x="330" y="334" width="7" height="7" fill="#4ecdc4" opacity="0.8" rx="1"/>
<text x="340" y="340" font-family="sans-serif" font-size="8" fill="#888888">EMA20</text>
</svg>