<svg xmlns="http://www.w3.org/2000/svg" width="700" height="380" viewBox="0 0 700 380">
<rect width="700" height="380" fill="#1a1a2e"/>
<text x="350.0" y="20" text-anchor="middle" font-family="sans-serif" font-size="14" font-weight="bold" fill="#ffffff">云南锗业(002428) 关键点图</text>
<line x1="50" y1="28.01326895757158" x2="680" y2="28.01326895757158" stroke="#2a2a4e" stroke-width="0.5"/>
<text x="46" y="31.01326895757158" text-anchor="end" font-size="9" fill="#666666">113.58</text>
<line x1="50" y1="128.67305542401596" x2="680" y2="128.67305542401596" stroke="#2a2a4e" stroke-width="0.5"/>
<text x="46" y="131.67305542401596" text-anchor="end" font-size="9" fill="#666666">86.27</text>
<line x1="50" y1="229.3328418904603" x2="680" y2="229.3328418904603" stroke="#2a2a4e" stroke-width="0.5"/>
<text x="46" y="232.3328418904603" text-anchor="end" font-size="9" fill="#666666">58.96</text>
<line x1="50" y1="329.99262835690473" x2="680" y2="329.99262835690473" stroke="#2a2a4e" stroke-width="0.5"/>
<text x="46" y="332.99262835690473" text-anchor="end" font-size="9" fill="#666666">31.65</text>
<polyline points="55.25,317.31340223297315 65.75,317.19054151471806 76.25,317.3052115184229 86.75,315.3544563363494 97.25,309.5449645216698 107.75,300.70839696104196 118.25,290.0626421241491 128.75,286.1352787638701 139.25,285.7039573086257 149.75,284.7406757213929 160.25,284.41792586403426 170.75,285.4313664750135 181.25,286.68443892479877 191.75,285.18546691114113 202.25,282.4906743234483 212.75,281.71388989317086 223.25,283.41981260673737 233.75,285.06082336062786 244.25,289.60721671285785 254.75,291.88869523298814 265.25,294.93315381943887 275.75,292.1097945059943 286.25,293.7413715057952 296.75,289.8409443445033 307.25,282.60881049208956 317.75,279.92516442145336 328.25,272.3984714985138 338.75,266.164355105828 349.25,266.23468621868136 359.75,265.06525251652425 370.25,267.2342872865431 380.75,263.50787422801386 391.25,259.733561313982 401.75,255.38672800262563 412.25,250.8425055037691 422.75,246.33869521880294 433.25,245.37564295186098 443.75,240.12633117266486 454.25,238.7522804123482 464.75,238.80684624635282 475.25,231.91387895943208 485.75,219.70120290299897 496.25,211.3136974288666 506.75,197.31835398412608 517.25,185.97320924158126 527.75,178.1149136894057 538.25,178.18363301657783 548.75,182.06270031091992 559.25,185.21390447778833 569.75,186.34410758148493 580.25,178.49732603942215 590.75,169.34688143237435 601.25,156.03466086609853 611.75,139.6284851262073 622.25,117.36327640982164 632.75,102.40922928580156 643.25,97.73516149325181 653.75,103.05964764234743 664.25,105.24555110244569 674.75,107.74713618101327" fill="none" stroke="#ffd700" stroke-width="1" opacity="0.6"/>
<polyline points="55.25,317.31340223297315 65.75,317.2463872957431 76.25,317.298780792123 86.75,316.23590173395564 97.25,312.90682521729286 107.75,307.47563187592806 118.25,300.43845016218904 128.75,296.40974141330236 139.25,294.3063910469087 149.75,292.21688586509384 160.25,290.68152955313445 170.75,290.0954783065594 181.25,289.93095203707037 191.75,288.5230558273895 202.25,286.44633461296644 212.75,285.3034230529027 223.25,285.5812839585332 233.75,286.08338594214695 244.25,288.37731639217805 254.75,289.8453774614636 265.25,291.87750355798664 275.75,290.8930621618264 286.25,292.00423731520283 296.75,290.1925741709695 307.25,286.1838411921136 317.75,284.07002866267135 328.25,279.21094811539194 338.75,274.57188887994914 349.25,273.08160880075616 359.75,271.19884085738414 370.25,271.26675285178356 380.75,268.5009883534512 391.25,265.53443328662706 401.75,262.1087293035881 412.25,258.40788043130954 422.75,254.57573392541153 433.25,252.55278928769619 443.75,248.38459261980097 454.25,246.13360830560356 464.75,244.82131187083235 475.25,239.9679723280611 485.75,231.84213204843778 496.25,225.05968739974034 506.75,214.9265927988139 517.25,205.53683406384627 527.75,197.69346834042958 538.25,194.1712144005191 548.75,193.38023630944366 559.25,193.04134112800392 569.75,192.23464524816285 580.25,186.88357574036894 590.75,180.36765146362526 601.25,171.1026638763383 611.75,159.41420383453584 622.25,143.67214113317482 632.75,130.731958206736 643.25,123.0328796069935 653.75,121.33755966763809 664.25,119.20661391400247 674.75,118.03273980930177" fill="none" stroke="#ff6b6b" stroke-width="1" opacity="0.6"/>
<polyline points="55.25,317.31340223297315 65.75,317.2782991706146 76.25,317.3027041568258 86.75,316.7455843297189 97.25,314.9532411452038 107.75,311.9134335923069 118.25,307.80464300735986 128.75,304.9928248203077 139.25,303.07363335152957 149.75,301.1441551796626 160.25,299.4897047958202 170.75,298.34385173878707 181.25,297.4721119374139 191.75,296.01643678945317 202.25,294.2149751093207 212.75,292.8764366258251 223.25,292.3007434265913 233.75,291.9238007067643 244.25,292.5691533458647 254.75,292.9389151484727 265.25,293.70873951455536 275.75,293.0186763111792 286.25,293.39828099634275 296.75,292.31654852258816 307.25,290.0144527382714 317.75,288.5423974565485 328.25,285.5712249037948 338.75,282.5355008482388 349.25,280.99643871453867 359.75,279.2564336095551 370.25,278.52461677308133 380.75,276.38465785287883 391.25,274.0799223893588 401.75,271.47164991226873 412.25,268.6414033021532 422.75,265.6594672399359 433.25,263.5442359235588 443.75,260.31409037029346 454.25,257.9988607056669 464.75,256.1814432969712 475.25,252.5573005435064 485.75,247.1019243765184 496.25,242.09590171976447 506.75,235.16559366022926 517.25,228.31962471701618 527.75,222.04140546635318 538.25,217.8775641525026 548.75,215.2054946998456 559.25,212.94938213905317 569.75,210.63082324856032 580.25,206.07586512539234 590.75,200.8349248485244 601.25,194.0325719804313 611.75,185.72624452004973 622.25,174.97449351595455 632.75,165.2151260418409 643.25,157.89816412434675 653.75,153.68963610684125 664.25,149.4922762892985 674.75,145.99304105585566" fill="none" stroke="#4ecdc4" stroke-width="1" opacity="0.6"/>
<line x1="55.25" y1="314.99133465795086" x2="55.25" y2="318.9351637139412" stroke="#ff4444" stroke-width="1" opacity="0.8"/>
<rect x="50.0" y="317.31340223297315" width="6.3" height="1.6217614809680754" fill="#ff4444" opacity="0.8"/>
<rect x="50.0" y="324.45765244866095" width="6.3" height="5.54234755133905" fill="#ff4444" opacity="0.3"/>
<line x1="65.75" y1="313.3695731769829" x2="65.75" y2="318.6402979901288" stroke="#ff4444" stroke-width="1" opacity="0.8"/>
<rect x="60.5" y="316.9448200782078" width="6.3" height="1.0688882488198033" fill="#ff4444" opacity="0.8"/>
<rect x="60.5" y="323.0468721855712" width="6.3" height="6.953127814428805" fill="#ff4444" opacity="0.3"/>
<line x1="76.25" y1="311.9321027733977" x2="76.25" y2="319.85661910085486" stroke="#ff4444" stroke-width="1" opacity="0.8"/>
<rect x="71.0" y="317.53455152583246" width="6.3" height="1.584903265491448" fill="#ff4444" opacity="0.8"/>
<rect x="71.0" y="322.75026286355796" width="6.3" height="7.24973713644202" fill="#ff4444" opacity="0.3"/>
<line x1="86.75" y1="308.61486338050855" x2="86.75" y2="312.8535581603113" stroke="#44aa44" stroke-width="1" opacity="0.8"/>
<rect x="81.5" y="310.6789234471951" width="6.3" height="1" fill="#44aa44" opacity="0.8"/>
<rect x="81.5" y="320.1373538878032" width="6.3" height="9.862646112196785" fill="#44aa44" opacity="0.3"/>
<line x1="97.25" y1="297.9259808923105" x2="97.25" y2="301.9435263792539" stroke="#ff4444" stroke-width="1" opacity="0.8"/>
<rect x="92.0" y="297.9259808923105" width="6.3" height="1" fill="#ff4444" opacity="0.8"/>
<rect x="92.0" y="322.39210808120913" width="6.3" height="7.607891918790875" fill="#ff4444" opacity="0.3"/>
<line x1="107.75" y1="283.03526183978636" x2="107.75" y2="288.1585537910261" stroke="#ff4444" stroke-width="1" opacity="0.8"/>
<rect x="102.5" y="283.03526183978636" width="6.3" height="1" fill="#ff4444" opacity="0.8"/>
<rect x="102.5" y="321.712020650504" width="6.3" height="8.287979349496029" fill="#ff4444" opacity="0.3"/>
<line x1="118.25" y1="266.67021416820035" x2="118.25" y2="282.99840362430984" stroke="#ff4444" stroke-width="1" opacity="0.8"/>
<rect x="113.0" y="268.77113245036344" width="6.3" height="13.268957571556257" fill="#ff4444" opacity="0.8"/>
<rect x="113.0" y="295.0" width="6.3" height="35.0" fill="#ff4444" opacity="0.3"/>
<line x1="128.75" y1="268.40255029559796" x2="128.75" y2="284.80445618266054" stroke="#44aa44" stroke-width="1" opacity="0.8"/>
<rect x="123.5" y="268.77113245036344" width="6.3" height="9.509419592948689" fill="#44aa44" opacity="0.8"/>
<rect x="123.5" y="300.9279115442698" width="6.3" height="29.07208845573017" fill="#44aa44" opacity="0.3"/>
<line x1="139.25" y1="266.67021416820035" x2="139.25" y2="286.64736695648776" stroke="#44aa44" stroke-width="1" opacity="0.8"/>
<rect x="134.0" y="270.42975214680797" width="6.3" height="14.411562251329144" fill="#44aa44" opacity="0.8"/>
<rect x="134.0" y="303.4975655060629" width="6.3" height="26.502434493937056" fill="#44aa44" opacity="0.3"/>
<line x1="149.75" y1="276.179633761149" x2="149.75" y2="292.8026889410708" stroke="#ff4444" stroke-width="1" opacity="0.8"/>
<rect x="144.5" y="282.81411254692705" width="6.3" height="6.708195216731212" fill="#ff4444" opacity="0.8"/>
<rect x="144.5" y="312.7761644480609" width="6.3" height="17.223835551939064" fill="#ff4444" opacity="0.3"/>
<line x1="160.25" y1="277.5433877337811" x2="160.25" y2="285.91020264695686" stroke="#44aa44" stroke-width="1" opacity="0.8"/>
<rect x="155.0" y="279.6811642314208" width="6.3" height="4.0912619178965315" fill="#44aa44" opacity="0.8"/>
<rect x="155.0" y="315.9753312729656" width="6.3" height="14.02466872703441" fill="#44aa44" opacity="0.3"/>
<line x1="170.75" y1="280.93434355762327" x2="170.75" y2="288.5271359457916" stroke="#44aa44" stroke-width="1" opacity="0.8"/>
<rect x="165.5" y="282.8878289778802" width="6.3" height="4.570418719091549" fill="#44aa44" opacity="0.8"/>
<rect x="165.5" y="320.5538540523906" width="6.3" height="9.446145947609436" fill="#44aa44" opacity="0.3"/>
<line x1="181.25" y1="288.1585537910261" x2="181.25" y2="301.39065314710575" stroke="#ff4444" stroke-width="1" opacity="0.8"/>
<rect x="176.0" y="289.19058382436936" width="6.3" height="4.64413515004469" fill="#ff4444" opacity="0.8"/>
<rect x="176.0" y="318.56305192567197" width="6.3" height="11.436948074328004" fill="#ff4444" opacity="0.3"/>
<line x1="191.75" y1="280.0497463861862" x2="191.75" y2="289.9646063493768" stroke="#ff4444" stroke-width="1" opacity="0.8"/>
<rect x="186.5" y="282.18752288382586" width="6.3" height="4.275552995279213" fill="#ff4444" opacity="0.8"/>
<rect x="186.5" y="319.2477255099678" width="6.3" height="10.752274490032198" fill="#ff4444" opacity="0.3"/>
<line x1="202.25" y1="266.04362450509916" x2="202.25" y2="278.9439999218899" stroke="#44aa44" stroke-width="1" opacity="0.8"/>
<rect x="197.0" y="275.9953426837663" width="6.3" height="1.1057464642963168" fill="#44aa44" opacity="0.8"/>
<rect x="197.0" y="312.3996646346726" width="6.3" height="17.60033536532737" fill="#44aa44" opacity="0.3"/>
<line x1="212.75" y1="272.3095211361118" x2="212.75" y2="284.2884411659889" stroke="#44aa44" stroke-width="1" opacity="0.8"/>
<rect x="207.5" y="277.06423093258604" width="6.3" height="3.096090100029812" fill="#44aa44" opacity="0.8"/>
<rect x="207.5" y="319.1541344759009" width="6.3" height="10.8458655240991" fill="#44aa44" opacity="0.3"/>
<line x1="223.25" y1="275.9953426837663" x2="223.25" y2="287.60568055887796" stroke="#44aa44" stroke-width="1" opacity="0.8"/>
<rect x="218.0" y="281.5977914362011" width="6.3" height="5.233866597669419" fill="#44aa44" opacity="0.8"/>
<rect x="218.0" y="320.42006037052096" width="6.3" height="9.579939629479053" fill="#44aa44" opacity="0.3"/>
<line x1="233.75" y1="280.89748534214675" x2="233.75" y2="293.02383823393006" stroke="#44aa44" stroke-width="1" opacity="0.8"/>
<rect x="228.5" y="285.3204711993322" width="6.3" height="3.0223736690766145" fill="#44aa44" opacity="0.8"/>
<rect x="228.5" y="320.2928435158239" width="6.3" height="9.707156484176101" fill="#44aa44" opacity="0.3"/>
<line x1="244.25" y1="288.7114270231743" x2="244.25" y2="299.21601843398963" stroke="#44aa44" stroke-width="1" opacity="0.8"/>
<rect x="239.0" y="288.895718100557" width="6.3" height="9.804285316760968" fill="#44aa44" opacity="0.8"/>
<rect x="239.0" y="321.0029916801541" width="6.3" height="8.997008319845902" fill="#44aa44" opacity="0.3"/>
<line x1="254.75" y1="294.2033011291795" x2="254.75" y2="299.8057498816143" stroke="#ff4444" stroke-width="1" opacity="0.8"/>
<rect x="249.5" y="296.4516522732487" width="6.3" height="2.3589257904989154" fill="#ff4444" opacity="0.8"/>
<rect x="249.5" y="323.98284856951864" width="6.3" height="6.01715143048134" fill="#ff4444" opacity="0.3"/>
<line x1="265.25" y1="296.5253687042018" x2="265.25" y2="303.41785499831576" stroke="#44aa44" stroke-width="1" opacity="0.8"/>
<rect x="260.0" y="299.25287664946615" width="6.3" height="1.7691943428741297" fill="#44aa44" opacity="0.8"/>
<rect x="260.0" y="322.8055844220008" width="6.3" height="7.194415577999225" fill="#44aa44" opacity="0.3"/>
<line x1="275.75" y1="286.4630758791051" x2="275.75" y2="286.4999340945816" stroke="#ff4444" stroke-width="1" opacity="0.8"/>
<rect x="270.5" y="286.4630758791051" width="6.3" height="1" fill="#ff4444" opacity="0.8"/>
<rect x="270.5" y="325.9703710328645" width="6.3" height="4.0296289671355074" fill="#ff4444" opacity="0.3"/>
<line x1="286.25" y1="282.62982146954437" x2="286.25" y2="298.9948691411303" stroke="#44aa44" stroke-width="1" opacity="0.8"/>
<rect x="281.0" y="288.1585537910261" width="6.3" height="8.845971714370762" fill="#44aa44" opacity="0.8"/>
<rect x="281.0" y="312.8925489550638" width="6.3" height="17.107451044936216" fill="#44aa44" opacity="0.3"/>
<line x1="296.75" y1="282.0400900219197" x2="296.75" y2="294.7561743613277" stroke="#ff4444" stroke-width="1" opacity="0.8"/>
<rect x="291.5" y="282.0400900219197" width="6.3" height="3.5383886857482594" fill="#ff4444" opacity="0.8"/>
<rect x="291.5" y="312.55293337515974" width="6.3" height="17.44706662484025" fill="#ff4444" opacity="0.3"/>
<line x1="307.25" y1="265.56446770390403" x2="307.25" y2="274.11557369446246" stroke="#ff4444" stroke-width="1" opacity="0.8"/>
<rect x="302.0" y="268.1445427872622" width="6.3" height="1.5849032654913913" fill="#ff4444" opacity="0.8"/>
<rect x="302.0" y="303.3044872523675" width="6.3" height="26.695512747632534" fill="#ff4444" opacity="0.3"/>
<line x1="317.75" y1="267.37052026225473" x2="317.75" y2="276.7693652087737" stroke="#44aa44" stroke-width="1" opacity="0.8"/>
<rect x="312.5" y="268.9922817432227" width="6.3" height="5.565590536958325" fill="#44aa44" opacity="0.8"/>
<rect x="312.5" y="314.06523590754296" width="6.3" height="15.934764092457018" fill="#44aa44" opacity="0.3"/>
<line x1="328.25" y1="257.3450856526345" x2="328.25" y2="281.2292092814356" stroke="#ff4444" stroke-width="1" opacity="0.8"/>
<rect x="323.0" y="257.3450856526345" width="6.3" height="23.884123628801092" fill="#ff4444" opacity="0.8"/>
<rect x="323.0" y="313.43520657349376" width="6.3" height="16.56479342650624" fill="#ff4444" opacity="0.3"/>
<line x1="338.75" y1="246.50877030253028" x2="338.75" y2="261.6206386479137" stroke="#ff4444" stroke-width="1" opacity="0.8"/>
<rect x="333.5" y="253.69612232045654" width="6.3" height="3.6489633321779706" fill="#ff4444" opacity="0.8"/>
<rect x="333.5" y="307.6522248162009" width="6.3" height="22.34777518379913" fill="#ff4444" opacity="0.3"/>
<line x1="349.25" y1="252.03750262401203" x2="349.25" y2="269.6925878372771" stroke="#44aa44" stroke-width="1" opacity="0.8"/>
<rect x="344.0" y="254.98615986213562" width="6.3" height="11.389188582252388" fill="#44aa44" opacity="0.8"/>
<rect x="344.0" y="310.76896587952444" width="6.3" height="19.23103412047556" fill="#44aa44" opacity="0.3"/>
<line x1="359.75" y1="256.79221242048635" x2="359.75" y2="269.3240056825116" stroke="#44aa44" stroke-width="1" opacity="0.8"/>
<rect x="354.5" y="257.89795888478267" width="6.3" height="4.828426227427428" fill="#44aa44" opacity="0.8"/>
<rect x="354.5" y="314.344093754669" width="6.3" height="15.655906245330987" fill="#44aa44" opacity="0.3"/>
<line x1="370.25" y1="263.7952733610299" x2="370.25" y2="276.6956487778206" stroke="#44aa44" stroke-width="1" opacity="0.8"/>
<rect x="365.0" y="269.6925878372771" width="6.3" height="1.879768989303784" fill="#44aa44" opacity="0.8"/>
<rect x="365.0" y="315.44490041126005" width="6.3" height="14.555099588739964" fill="#44aa44" opacity="0.3"/>
<line x1="380.75" y1="254.064704475222" x2="380.75" y2="265.82247521223985" stroke="#ff4444" stroke-width="1" opacity="0.8"/>
<rect x="375.5" y="256.05504811095545" width="6.3" height="9.767427101284397" fill="#ff4444" opacity="0.8"/>
<rect x="375.5" y="307.3542358771851" width="6.3" height="22.6457641228149" fill="#ff4444" opacity="0.3"/>
<line x1="391.25" y1="244.85015060608575" x2="391.25" y2="258.37711568597774" stroke="#ff4444" stroke-width="1" opacity="0.8"/>
<rect x="386.0" y="252.1849354859182" width="6.3" height="3.132948315506354" fill="#ff4444" opacity="0.8"/>
<rect x="386.0" y="311.58986966348584" width="6.3" height="18.410130336514165" fill="#ff4444" opacity="0.3"/>
<line x1="401.75" y1="243.8181205727425" x2="401.75" y2="254.87558521570597" stroke="#ff4444" stroke-width="1" opacity="0.8"/>
<rect x="396.5" y="246.69306137991302" width="6.3" height="1" fill="#ff4444" opacity="0.8"/>
<rect x="396.5" y="307.76009807382206" width="6.3" height="22.23990192617796" fill="#ff4444" opacity="0.3"/>
<line x1="412.25" y1="237.66279858815946" x2="412.25" y2="250.01030077280203" stroke="#ff4444" stroke-width="1" opacity="0.8"/>
<rect x="407.0" y="241.75406050605596" width="6.3" height="6.597620570301558" fill="#ff4444" opacity="0.8"/>
<rect x="407.0" y="310.7090677510582" width="6.3" height="19.29093224894179" fill="#ff4444" opacity="0.3"/>
<line x1="422.75" y1="227.3424982547269" x2="422.75" y2="248.9045543085057" stroke="#44aa44" stroke-width="1" opacity="0.8"/>
<rect x="417.5" y="231.80234232738883" width="6.3" height="5.528732321481755" fill="#44aa44" opacity="0.8"/>
<rect x="417.5" y="305.1633207417562" width="6.3" height="24.8366792582438" fill="#44aa44" opacity="0.3"/>
<line x1="433.25" y1="235.11958172027786" x2="433.25" y2="247.02478531920192" stroke="#44aa44" stroke-width="1" opacity="0.8"/>
<rect x="428.0" y="236.15161175362113" width="6.3" height="7.297926664355884" fill="#44aa44" opacity="0.8"/>
<rect x="428.0" y="313.1029645068719" width="6.3" height="16.897035493128108" fill="#44aa44" opacity="0.3"/>
<line x1="443.75" y1="223.14066169040075" x2="443.75" y2="245.5504567001401" stroke="#ff4444" stroke-width="1" opacity="0.8"/>
<rect x="438.5" y="229.62770761427268" width="6.3" height="10.61516605724492" fill="#ff4444" opacity="0.8"/>
<rect x="438.5" y="305.716109857443" width="6.3" height="24.283890142557052" fill="#ff4444" opacity="0.3"/>
<line x1="454.25" y1="226.0524607130478" x2="454.25" y2="237.66279858815946" stroke="#44aa44" stroke-width="1" opacity="0.8"/>
<rect x="449.0" y="226.56847572971944" width="6.3" height="9.43570316199552" fill="#44aa44" opacity="0.8"/>
<rect x="449.0" y="313.46563898285615" width="6.3" height="16.534361017143873" fill="#44aa44" opacity="0.3"/>
<line x1="464.75" y1="235.08272350480132" x2="464.75" y2="242.04892622986833" stroke="#ff4444" stroke-width="1" opacity="0.8"/>
<rect x="459.5" y="238.91597791436203" width="6.3" height="1" fill="#ff4444" opacity="0.8"/>
<rect x="459.5" y="316.5266720199719" width="6.3" height="13.473327980028085" fill="#ff4444" opacity="0.3"/>
<line x1="475.25" y1="218.12794438559064" x2="475.25" y2="228.9274015202183" stroke="#ff4444" stroke-width="1" opacity="0.8"/>
<rect x="470.0" y="218.12794438559064" width="6.3" height="5.4181576750521" fill="#ff4444" opacity="0.8"/>
<rect x="470.0" y="309.0558944890917" width="6.3" height="20.944105510908305" fill="#ff4444" opacity="0.3"/>
<line x1="485.75" y1="195.27585079013272" x2="485.75" y2="211.93576418553107" stroke="#ff4444" stroke-width="1" opacity="0.8"/>
<rect x="480.5" y="195.27585079013272" width="6.3" height="15.996465516820535" fill="#ff4444" opacity="0.8"/>
<rect x="480.5" y="305.87820631336837" width="6.3" height="24.121793686631637" fill="#ff4444" opacity="0.3"/>
<line x1="496.25" y1="186.87217766148046" x2="496.25" y2="200.65715024970834" stroke="#ff4444" stroke-width="1" opacity="0.8"/>
<rect x="491.0" y="194.5386864806018" width="6.3" height="1" fill="#ff4444" opacity="0.8"/>
<rect x="491.0" y="305.3965458085584" width="6.3" height="24.603454191441575" fill="#ff4444" opacity="0.3"/>
<line x1="506.75" y1="169.32766709464508" x2="506.75" y2="194.05952967940675" stroke="#ff4444" stroke-width="1" opacity="0.8"/>
<rect x="501.5" y="169.32766709464508" width="6.3" height="24.73186258476167" fill="#ff4444" opacity="0.8"/>
<rect x="501.5" y="315.1127466801273" width="6.3" height="14.887253319872686" fill="#ff4444" opacity="0.3"/>
<line x1="517.25" y1="141.61028905628322" x2="517.25" y2="171.31801073037846" stroke="#ff4444" stroke-width="1" opacity="0.8"/>
<rect x="512.0" y="163.2829197564917" width="6.3" height="2.17463471311612" fill="#ff4444" opacity="0.8"/>
<rect x="512.0" y="295.25909382312307" width="6.3" height="34.74090617687693" fill="#ff4444" opacity="0.3"/>
<line x1="527.75" y1="146.9915885158588" x2="527.75" y2="176.10957874232932" stroke="#ff4444" stroke-width="1" opacity="0.8"/>
<rect x="522.5" y="162.3983225850546" width="6.3" height="3.8701126250372795" fill="#ff4444" opacity="0.8"/>
<rect x="522.5" y="301.4264562111337" width="6.3" height="28.573543788866274" fill="#ff4444" opacity="0.3"/>
<line x1="538.25" y1="159.33909070050134" x2="538.25" y2="179.3531017042653" stroke="#44aa44" stroke-width="1" opacity="0.8"/>
<rect x="533.0" y="163.09862867910894" width="6.3" height="15.222442991813097" fill="#44aa44" opacity="0.8"/>
<rect x="533.0" y="305.63044672518794" width="6.3" height="24.369553274812066" fill="#44aa44" opacity="0.3"/>
<line x1="548.75" y1="177.58390736139114" x2="548.75" y2="192.73263392225113" stroke="#44aa44" stroke-width="1" opacity="0.8"/>
<rect x="543.5" y="179.05823598045296" width="6.3" height="10.762598919151088" fill="#44aa44" opacity="0.8"/>
<rect x="543.5" y="311.60976994081403" width="6.3" height="18.390230059185967" fill="#44aa44" opacity="0.3"/>
<line x1="559.25" y1="187.42505089362868" x2="559.25" y2="195.5707165139451" stroke="#ff4444" stroke-width="1" opacity="0.8"/>
<rect x="554.0" y="191.51631281152515" width="6.3" height="2.248351144069261" fill="#ff4444" opacity="0.8"/>
<rect x="554.0" y="314.6407672449149" width="6.3" height="15.359232755085095" fill="#ff4444" opacity="0.3"/>
<line x1="569.75" y1="180.82743032332706" x2="569.75" y2="193.35922358535242" stroke="#ff4444" stroke-width="1" opacity="0.8"/>
<rect x="564.5" y="188.60451378887808" width="6.3" height="4.754709796474344" fill="#ff4444" opacity="0.8"/>
<rect x="564.5" y="308.51530233773565" width="6.3" height="21.484697662264377" fill="#ff4444" opacity="0.3"/>
<line x1="580.25" y1="162.80376295529658" x2="580.25" y2="175.9990040958997" stroke="#ff4444" stroke-width="1" opacity="0.8"/>
<rect x="575.0" y="162.80376295529658" width="6.3" height="7.408501310785567" fill="#ff4444" opacity="0.8"/>
<rect x="575.0" y="304.86924668994897" width="6.3" height="25.130753310051016" fill="#ff4444" opacity="0.3"/>
<line x1="590.75" y1="146.29128242180445" x2="590.75" y2="169.43824174107473" stroke="#ff4444" stroke-width="1" opacity="0.8"/>
<rect x="585.5" y="151.04599221827874" width="6.3" height="11.757770737017836" fill="#ff4444" opacity="0.8"/>
<rect x="585.5" y="307.98064199781066" width="6.3" height="22.019358002189342" fill="#ff4444" opacity="0.3"/>
<line x1="601.25" y1="121.48570340608968" x2="601.25" y2="153.6260673016369" stroke="#ff4444" stroke-width="1" opacity="0.8"/>
<rect x="596.0" y="129.41021973354685" width="6.3" height="23.220675750223336" fill="#ff4444" opacity="0.8"/>
<rect x="596.0" y="306.477166347512" width="6.3" height="23.52283365248795" fill="#ff4444" opacity="0.3"/>
<line x1="611.75" y1="106.5212679226124" x2="611.75" y2="127.45673431328999" stroke="#ff4444" stroke-width="1" opacity="0.8"/>
<rect x="606.5" y="106.81613364642475" width="6.3" height="13.637539726321663" fill="#ff4444" opacity="0.8"/>
<rect x="606.5" y="306.8780217552928" width="6.3" height="23.12197824470716" fill="#ff4444" opacity="0.3"/>
<line x1="622.25" y1="72.83285897705028" x2="622.25" y2="118.64762081439574" stroke="#ff4444" stroke-width="1" opacity="0.8"/>
<rect x="617.0" y="72.83285897705028" width="6.3" height="37.37423049321663" fill="#ff4444" opacity="0.8"/>
<rect x="617.0" y="306.51087008671044" width="6.3" height="23.489129913289553" fill="#ff4444" opacity="0.3"/>
<line x1="632.75" y1="59.26903568168174" x2="632.75" y2="88.75560806291773" stroke="#ff4444" stroke-width="1" opacity="0.8"/>
<rect x="627.5" y="72.50113503776134" width="6.3" height="5.565590536958325" fill="#ff4444" opacity="0.8"/>
<rect x="627.5" y="307.52906181043704" width="6.3" height="22.47093818956296" fill="#ff4444" opacity="0.3"/>
<line x1="643.25" y1="59.011028173345906" x2="643.25" y2="89.12419021768318" stroke="#44aa44" stroke-width="1" opacity="0.8"/>
<rect x="638.0" y="78.06672557471967" width="6.3" height="10.320300333432584" fill="#44aa44" opacity="0.8"/>
<rect x="638.0" y="309.14196867304497" width="6.3" height="20.858031326955004" fill="#44aa44" opacity="0.3"/>
<line x1="653.75" y1="88.0921601843399" x2="653.75" y2="119.12677761559078" stroke="#44aa44" stroke-width="1" opacity="0.8"/>
<rect x="648.5" y="92.7362953343846" width="6.3" height="20.97232460615409" fill="#44aa44" opacity="0.8"/>
<rect x="648.5" y="305.289166104649" width="6.3" height="24.710833895351016" fill="#44aa44" opacity="0.3"/>
<line x1="664.25" y1="92.44142961057223" x2="664.25" y2="114.96179926674122" stroke="#ff4444" stroke-width="1" opacity="0.8"/>
<rect x="659.0" y="109.6173580226422" width="6.3" height="5.307583028622474" fill="#ff4444" opacity="0.8"/>
<rect x="659.0" y="311.7773515306028" width="6.3" height="18.22264846939717" fill="#ff4444" opacity="0.3"/>
<line x1="674.75" y1="111.79199273575836" x2="674.75" y2="132.1377276788112" stroke="#ff4444" stroke-width="1" opacity="0.8"/>
<rect x="669.5" y="112.75030633814849" width="6.3" height="1.5849032654914623" fill="#ff4444" opacity="0.8"/>
<rect x="669.5" y="313.4763319521488" width="6.3" height="16.523668047851167" fill="#ff4444" opacity="0.3"/>
<rect x="145.75" y="278.81411254692705" width="8" height="8" fill="#2196f3" opacity="0.85"/>
<text x="149.75" y="275.81411254692705" text-anchor="middle" font-size="8" font-weight="bold" fill="#2196f3">中</text>
<rect x="177.25" y="297.39065314710575" width="8" height="8" fill="#ff9800" opacity="0.85"/>
<text x="181.25" y="294.39065314710575" text-anchor="middle" font-size="8" font-weight="bold" fill="#ff9800">前低</text>
<rect x="198.25" y="262.04362450509916" width="8" height="8" fill="#ff9800" opacity="0.85"/>
<text x="202.25" y="259.04362450509916" text-anchor="middle" font-size="8" font-weight="bold" fill="#ff9800">前高</text>
<rect x="261.25" y="299.41785499831576" width="8" height="8" fill="#ff9800" opacity="0.85"/>
<text x="265.25" y="296.41785499831576" text-anchor="middle" font-size="8" font-weight="bold" fill="#ff9800">前低</text>
<rect x="271.75" y="282.4630758791051" width="8" height="8" fill="#2196f3" opacity="0.85"/>
<text x="275.75" y="279.4630758791051" text-anchor="middle" font-size="8" font-weight="bold" fill="#2196f3">中</text>
<rect x="334.75" y="242.50877030253028" width="8" height="8" fill="#ff9800" opacity="0.85"/>
<text x="338.75" y="239.50877030253028" text-anchor="middle" font-size="8" font-weight="bold" fill="#ff9800">前高</text>
<rect x="502.75" y="165.32766709464508" width="8" height="8" fill="#2196f3" opacity="0.85"/>
<text x="506.75" y="162.32766709464508" text-anchor="middle" font-size="8" font-weight="bold" fill="#2196f3">中</text>
<rect x="513.25" y="137.61028905628322" width="8" height="8" fill="#ff9800" opacity="0.85"/>
<text x="517.25" y="134.61028905628322" text-anchor="middle" font-size="8" font-weight="bold" fill="#ff9800">前高</text>
<rect x="555.25" y="191.5707165139451" width="8" height="8" fill="#ff9800" opacity="0.85"/>
<text x="559.25" y="188.5707165139451" text-anchor="middle" font-size="8" font-weight="bold" fill="#ff9800">前低</text>
<rect x="639.25" y="55.011028173345906" width="8" height="8" fill="#ff9800" opacity="0.85"/>
<text x="643.25" y="52.011028173345906" text-anchor="middle" font-size="8" font-weight="bold" fill="#ff9800">前高</text>
<rect x="660.25" y="105.6173580226422" width="8" height="8" fill="#2196f3" opacity="0.85"/>
<text x="664.25" y="102.6173580226422" text-anchor="middle" font-size="8" font-weight="bold" fill="#2196f3">中</text>
<line x1="674.75" y1="112.75030633814849" x2="674.75" y2="42" stroke="#4caf50" stroke-width="1" stroke-dasharray="3,2"/>
<rect x="654.75" y="28" width="40" height="14" rx="3" fill="#2563eb" opacity="0.9"/>
<text x="674.75" y="38" text-anchor="middle" font-size="9" font-weight="bold" fill="white">关注</text>
<text x="55.25" y="355" fill="#666666" font-size="8" text-anchor="middle" transform="rotate(-30,55.25,355)">02/11</text>
<text x="107.75" y="355" fill="#666666" font-size="8" text-anchor="middle" transform="rotate(-30,107.75,355)">02/26</text>
<text x="160.25" y="355" fill="#666666" font-size="8" text-anchor="middle" transform="rotate(-30,160.25,355)">03/05</text>
<text x="212.75" y="355" fill="#666666" font-size="8" text-anchor="middle" transform="rotate(-30,212.75,355)">03/12</text>
<text x="265.25" y="355" fill="#666666" font-size="8" text-anchor="middle" transform="rotate(-30,265.25,355)">03/19</text>
<text x="317.75" y="355" fill="#666666" font-size="8" text-anchor="middle" transform="rotate(-30,317.75,355)">03/26</text>
<text x="370.25" y="355" fill="#666666" font-size="8" text-anchor="middle" transform="rotate(-30,370.25,355)">04/02</text>
<text x="422.75" y="355" fill="#666666" font-size="8" text-anchor="middle" transform="rotate(-30,422.75,355)">04/10</text>
<text x="475.25" y="355" fill="#666666" font-size="8" text-anchor="middle" transform="rotate(-30,475.25,355)">04/17</text>
<text x="527.75" y="355" fill="#666666" font-size="8" text-anchor="middle" transform="rotate(-30,527.75,355)">04/24</text>
<text x="580.25" y="355" fill="#666666" font-size="8" text-anchor="middle" transform="rotate(-30,580.25,355)">05/06</text>
<text x="632.75" y="355" fill="#666666" font-size="8" text-anchor="middle" transform="rotate(-30,632.75,355)">05/13</text>
<text x="674.75" y="355" fill="#666666" font-size="8" text-anchor="middle" transform="rotate(-30,674.75,355)">05/19</text>
<rect x="50" y="334" width="7" height="7" fill="#ff9800" opacity="0.8" rx="1"/>
<text x="60" y="340" font-family="sans-serif" font-size="8" fill="#888888">第1类</text>
<rect x="120" y="334" width="7" height="7" fill="#2196f3" opacity="0.8" rx="1"/>
<text x="130" y="340" font-family="sans-serif" font-size="8" fill="#888888">第2类</text>
<rect x="190" y="334" width="7" height="7" fill="#ffd700" opacity="0.8" rx="1"/>
<text x="200" y="340" font-family="sans-serif" font-size="8" fill="#888888">EMA5</text>
<rect x="260" y="334" width="7" height="7" fill="#ff6b6b" opacity="0.8" rx="1"/>
<text x="270" y="340" font-family="sans-serif" font-size="8" fill="#888888">EMA10</text>
<rect x="330" y="334" width="7" height="7" fill="#4ecdc4" opacity="0.8" rx="1"/>
<text x="340" y="340" font-family="sans-serif" font-size="8" fill="#888888">EMA20</text>
</svg>