<svg xmlns="http://www.w3.org/2000/svg" width="700" height="380" viewBox="0 0 700 380">
<rect width="700" height="380" fill="#1a1a2e"/>
<text x="350.0" y="20" text-anchor="middle" font-family="sans-serif" font-size="14" font-weight="bold" fill="#ffffff">天赐材料(002709)</text>
<line x1="50" y1="27.985716481619463" x2="680" y2="27.985716481619463" stroke="#2a2a4e" stroke-width="0.5"/>
<text x="46" y="30.985716481619463" text-anchor="end" font-size="9" fill="#666666">70.18</text>
<line x1="50" y1="128.68452106464247" x2="680" y2="128.68452106464247" stroke="#2a2a4e" stroke-width="0.5"/>
<text x="46" y="131.68452106464247" text-anchor="end" font-size="9" fill="#666666">58.9</text>
<line x1="50" y1="229.29405365778678" x2="680" y2="229.29405365778678" stroke="#2a2a4e" stroke-width="0.5"/>
<text x="46" y="232.29405365778678" text-anchor="end" font-size="9" fill="#666666">47.63</text>
<line x1="50" y1="329.9928582408097" x2="680" y2="329.9928582408097" stroke="#2a2a4e" stroke-width="0.5"/>
<text x="46" y="332.9928582408097" text-anchor="end" font-size="9" fill="#666666">36.35</text>
<polyline points="55.25,283.9285114634695 65.75,282.4704022954529 76.25,277.77866327183494 86.75,274.2937492965753 97.25,270.095761525619 107.75,272.08803313513124 118.25,273.7435448376941 128.75,277.49562167246677 139.25,282.2883206358652 149.75,285.6917545878474 160.25,283.08050844247396 170.75,282.20264024771774 181.25,277.2728246104567 191.75,268.65971878952826 202.25,252.08598013697656 212.75,241.51293831462775 223.25,234.0476411469619 233.75,231.80845072479408 244.25,237.07057101082702 254.75,244.2983174464559 265.25,257.9547420681866 275.75,262.7739696351691 286.25,264.52867884514103 296.75,265.1926103758103 307.25,266.23037799544704 317.75,263.26207149018353 328.25,256.462513033232 338.75,245.79946409026942 349.25,245.14810539617727 359.75,245.45779951577063 370.25,248.46145127836124 380.75,254.4216106713715 391.25,257.74038900760206 401.75,256.1439696636037 412.25,258.32323906652596 422.75,251.35476095659615 433.25,246.7388662132691 443.75,235.8056679417372 454.25,232.53410863858477 464.75,226.90121882784524 475.25,224.24698016252123 485.75,219.91835734245296 496.25,207.6888071884508 506.75,201.58902951965638 517.25,205.52723283290496 527.75,197.35079093309744 538.25,185.29370241554517 548.75,180.32064838967443 559.25,161.8587980896972 569.75,146.0097756245292 580.25,125.0584524918773 590.75,114.66178333191876 601.25,120.79413841084326 611.75,121.4602821847812 622.25,124.7908390401468 632.75,129.00495138434522 643.25,138.98587613405564 653.75,139.59908798541295 664.25,144.67979668996279 674.75,152.61980731013625" fill="none" stroke="#ffd700" stroke-width="1" opacity="0.6"/>
<polyline points="55.25,283.9285114634695 65.75,283.1331791900059 76.25,280.4535439235683 86.75,278.06633981856606 97.25,275.0906027576825 107.75,275.2691434115867 118.25,275.5937661081745 128.75,277.30394960523597 139.25,279.95299850658614 149.75,282.2340210493544 160.25,281.4383837952404 170.75,281.25811471577947 181.25,278.74085628308046 191.75,273.775883713006 202.25,263.8054508255273 212.75,255.90752425178235 223.25,249.21834653539102 233.75,245.23865987085782 244.25,245.66705109122782 254.75,248.0464618596798 265.25,254.8139399418558 275.75,258.01366445590645 286.25,259.83628860302974 296.75,261.0515949365059 307.25,262.37056189981763 317.75,261.45327036887926 328.25,258.0732932325974 338.75,251.9642155910968 349.25,250.48806512144162 359.75,249.68608741844446 370.25,250.55566330664416 380.75,253.42589351587102 391.25,255.41717572754231 401.75,254.96880395446317 412.25,256.37116284862816 422.75,252.92509773737507 433.25,250.12182118996412 443.75,243.54317577336582 454.25,240.35186927498654 464.75,235.85797289887373 475.25,232.7817056139645 485.75,228.86887035730118 496.25,220.5708406342367 506.75,214.90150127929684 517.25,214.62916276658868 527.75,208.51438901511483 538.25,199.9080501724468 548.75,194.53832111162612 559.25,181.88318954401095 569.75,169.59746975313502 580.25,153.8808036573966 590.75,142.96946572187022 601.25,141.16753533038332 611.75,137.82663249443308 622.25,136.6675998137867 632.75,136.80679549723308 643.25,140.83241915836828 653.75,140.83116325468814 664.25,143.3784452263925 674.75,147.94596946713625" fill="none" stroke="#ff6b6b" stroke-width="1" opacity="0.6"/>
<polyline points="55.25,283.9285114634695 65.75,283.51190884403616 76.25,282.07222088028027 86.75,280.66762092463983 97.25,278.86116045407476 107.75,278.59558101598725 118.25,278.44881789473317 128.75,279.0727186039978 139.25,280.29186145720394 149.75,281.4544101271665 160.25,281.1118964152199 170.75,281.0485637907424 181.25,279.7499570807607 191.75,277.0531523252284 202.25,271.51842380205176 212.75,266.6468457894687 223.25,262.1201982677698 233.75,258.8068527070735 244.25,257.73903926667526 254.75,257.83568412867896 265.25,260.44824671753315 275.75,261.5876922462571 286.25,262.2020165337645 296.75,262.6132981436107 307.25,263.1554519618116 317.75,262.6002144873207 328.25,260.72051749989294 338.75,257.2684078526978 349.25,255.99002501034497 359.75,255.0459452717366 370.25,254.9909747509562 380.75,256.07201805633105 391.25,256.8630587824008 401.75,256.49049422937276 412.25,257.08014029061064 422.75,255.2075369045274 433.25,253.52177879234526 443.75,249.75201618342408 454.25,247.48906131188653 464.75,244.4553830161227 475.25,242.0252039509561 485.75,239.09529040346658 496.25,233.77475863936942 506.75,229.54758869105498 517.25,228.01006971661184 527.75,223.5327208991709 538.25,217.5943213259585 548.75,213.09719932709893 559.25,204.7008086759222 569.75,196.09232505861468 580.25,185.3364661222298 590.75,176.6252260164938 601.25,172.47604721194125 611.75,167.7442874520094 622.25,164.28787462333023 632.75,161.73028428517895 643.25,161.46527869930253 653.75,159.49958660300015 664.25,159.0559320788156 674.75,159.95535079040297" fill="none" stroke="#4ecdc4" stroke-width="1" opacity="0.6"/>
<line x1="55.25" y1="281.2503517671124" x2="55.25" y2="291.51663060314763" stroke="#ff4444" stroke-width="1" opacity="0.8"/>
<rect x="50.0" y="283.9285114634695" width="6.3" height="5.534863372471079" fill="#ff4444" opacity="0.8"/>
<rect x="50.0" y="320.74665375385985" width="6.3" height="9.253346246140131" fill="#ff4444" opacity="0.3"/>
<line x1="65.75" y1="278.2151041112412" x2="65.75" y2="292.9449824412047" stroke="#ff4444" stroke-width="1" opacity="0.8"/>
<rect x="60.5" y="279.5541839594197" width="6.3" height="8.927198987856684" fill="#ff4444" opacity="0.8"/>
<rect x="60.5" y="320.69161614687346" width="6.3" height="9.308383853126536" fill="#ff4444" opacity="0.3"/>
<line x1="76.25" y1="261.789057973585" x2="76.25" y2="283.6606954938338" stroke="#ff4444" stroke-width="1" opacity="0.8"/>
<rect x="71.0" y="268.3951852245989" width="6.3" height="15.265510269234937" fill="#ff4444" opacity="0.8"/>
<rect x="71.0" y="317.07138116504666" width="6.3" height="12.928618834953362" fill="#ff4444" opacity="0.3"/>
<line x1="86.75" y1="259.0216262873495" x2="86.75" y2="270.09135303229164" stroke="#44aa44" stroke-width="1" opacity="0.8"/>
<rect x="81.5" y="264.55648965982056" width="6.3" height="2.767431686235568" fill="#44aa44" opacity="0.8"/>
<rect x="81.5" y="319.7433560987025" width="6.3" height="10.25664390129746" fill="#44aa44" opacity="0.3"/>
<line x1="97.25" y1="253.0404029654855" x2="97.25" y2="267.4131933359347" stroke="#ff4444" stroke-width="1" opacity="0.8"/>
<rect x="92.0" y="261.6997859837064" width="6.3" height="5.624135362349705" fill="#ff4444" opacity="0.8"/>
<rect x="92.0" y="315.8988061709689" width="6.3" height="14.101193829031084" fill="#ff4444" opacity="0.3"/>
<line x1="107.75" y1="255.62929067196393" x2="107.75" y2="277.6794721719698" stroke="#44aa44" stroke-width="1" opacity="0.8"/>
<rect x="102.5" y="255.62929067196393" width="6.3" height="20.443285682191686" fill="#44aa44" opacity="0.8"/>
<rect x="102.5" y="315.7101910452375" width="6.3" height="14.289808954762526" fill="#44aa44" opacity="0.3"/>
<line x1="118.25" y1="273.93004859707" x2="118.25" y2="282.0537996760196" stroke="#ff4444" stroke-width="1" opacity="0.8"/>
<rect x="113.0" y="277.05456824281987" width="6.3" height="1.606895817814177" fill="#ff4444" opacity="0.8"/>
<rect x="113.0" y="322.052672559491" width="6.3" height="7.94732744050904" fill="#ff4444" opacity="0.3"/>
<line x1="128.75" y1="276.0725763541556" x2="128.75" y2="288.0350229978836" stroke="#ff4444" stroke-width="1" opacity="0.8"/>
<rect x="123.5" y="284.99977534201224" width="6.3" height="2.2317997469642137" fill="#ff4444" opacity="0.8"/>
<rect x="123.5" y="321.7016529518637" width="6.3" height="8.298347048136286" fill="#ff4444" opacity="0.3"/>
<line x1="139.25" y1="279.5541839594197" x2="139.25" y2="293.83770233999036" stroke="#44aa44" stroke-width="1" opacity="0.8"/>
<rect x="134.0" y="284.99977534201224" width="6.3" height="6.8739432206496645" fill="#44aa44" opacity="0.8"/>
<rect x="134.0" y="320.03640134382755" width="6.3" height="9.963598656172469" fill="#44aa44" opacity="0.3"/>
<line x1="149.75" y1="285.3568633015265" x2="149.75" y2="296.60513402622587" stroke="#ff4444" stroke-width="1" opacity="0.8"/>
<rect x="144.5" y="292.4986224918119" width="6.3" height="1.6961678076926887" fill="#ff4444" opacity="0.8"/>
<rect x="144.5" y="323.4981287552284" width="6.3" height="6.501871244771636" fill="#ff4444" opacity="0.3"/>
<line x1="160.25" y1="268.3059132347204" x2="160.25" y2="286.3388551901907" stroke="#ff4444" stroke-width="1" opacity="0.8"/>
<rect x="155.0" y="277.85801615172693" width="6.3" height="8.480839038463785" fill="#ff4444" opacity="0.8"/>
<rect x="155.0" y="316.7054174734541" width="6.3" height="13.294582526545913" fill="#ff4444" opacity="0.3"/>
<line x1="170.75" y1="270.62698497156305" x2="170.75" y2="285.0890473318908" stroke="#44aa44" stroke-width="1" opacity="0.8"/>
<rect x="165.5" y="274.10859257682716" width="6.3" height="6.338311281378253" fill="#44aa44" opacity="0.8"/>
<rect x="165.5" y="322.0339295391532" width="6.3" height="7.966070460846811" fill="#44aa44" opacity="0.3"/>
<line x1="181.25" y1="266.520473437149" x2="181.25" y2="301.7829094391828" stroke="#ff4444" stroke-width="1" opacity="0.8"/>
<rect x="176.0" y="267.4131933359347" width="6.3" height="24.281981246970076" fill="#ff4444" opacity="0.8"/>
<rect x="176.0" y="313.3517767657661" width="6.3" height="16.648223234233928" fill="#ff4444" opacity="0.3"/>
<line x1="191.75" y1="243.84538800799317" x2="191.75" y2="256.0756506213567" stroke="#ff4444" stroke-width="1" opacity="0.8"/>
<rect x="186.5" y="251.4335071476713" width="6.3" height="4.642143473685422" fill="#ff4444" opacity="0.8"/>
<rect x="186.5" y="305.3854627119321" width="6.3" height="24.614537288067858" fill="#ff4444" opacity="0.3"/>
<line x1="202.25" y1="215.0105352772162" x2="202.25" y2="252.95113097560693" stroke="#ff4444" stroke-width="1" opacity="0.8"/>
<rect x="197.0" y="218.93850283187314" width="6.3" height="28.924124720655527" fill="#ff4444" opacity="0.8"/>
<rect x="197.0" y="298.5780203940023" width="6.3" height="31.421979605997727" fill="#ff4444" opacity="0.3"/>
<line x1="212.75" y1="214.65344731770188" x2="212.75" y2="230.00822957681538" stroke="#ff4444" stroke-width="1" opacity="0.8"/>
<rect x="207.5" y="220.36685466993015" width="6.3" height="5.624135362349705" fill="#ff4444" opacity="0.8"/>
<rect x="207.5" y="308.6811793894228" width="6.3" height="21.318820610577184" fill="#ff4444" opacity="0.3"/>
<line x1="223.25" y1="199.20939306870991" x2="223.25" y2="225.3660861031299" stroke="#ff4444" stroke-width="1" opacity="0.8"/>
<rect x="218.0" y="219.11704681163022" width="6.3" height="3.570879595142685" fill="#ff4444" opacity="0.8"/>
<rect x="218.0" y="305.4170510359637" width="6.3" height="24.582948964036294" fill="#ff4444" opacity="0.3"/>
<line x1="233.75" y1="210.2791198136522" x2="233.75" y2="230.4545895262082" stroke="#44aa44" stroke-width="1" opacity="0.8"/>
<rect x="228.5" y="216.79597507478752" width="6.3" height="10.534094805670833" fill="#44aa44" opacity="0.8"/>
<rect x="228.5" y="313.8815674992462" width="6.3" height="16.118432500753762" fill="#44aa44" opacity="0.3"/>
<line x1="244.25" y1="223.04501436628718" x2="244.25" y2="249.55879536022138" stroke="#44aa44" stroke-width="1" opacity="0.8"/>
<rect x="239.0" y="226.43734998167267" width="6.3" height="21.157461601220263" fill="#44aa44" opacity="0.8"/>
<rect x="239.0" y="315.0474509862835" width="6.3" height="14.952549013716531" fill="#44aa44" opacity="0.3"/>
<line x1="254.75" y1="244.02393198775027" x2="254.75" y2="264.1101297104277" stroke="#44aa44" stroke-width="1" opacity="0.8"/>
<rect x="249.5" y="244.64883591690025" width="6.3" height="14.104974400813518" fill="#44aa44" opacity="0.8"/>
<rect x="249.5" y="318.0651325877782" width="6.3" height="11.934867412221845" fill="#44aa44" opacity="0.3"/>
<line x1="265.25" y1="264.1101297104277" x2="265.25" y2="288.21356697764065" stroke="#44aa44" stroke-width="1" opacity="0.8"/>
<rect x="260.0" y="265.80629751812046" width="6.3" height="19.461293793527545" fill="#44aa44" opacity="0.8"/>
<rect x="260.0" y="313.7962934324636" width="6.3" height="16.203706567536432" fill="#44aa44" opacity="0.3"/>
<line x1="275.75" y1="251.34423515779275" x2="275.75" y2="287.4993910586121" stroke="#ff4444" stroke-width="1" opacity="0.8"/>
<rect x="270.5" y="272.4124247691344" width="6.3" height="11.516086694335058" fill="#ff4444" opacity="0.8"/>
<rect x="270.5" y="307.9217940049373" width="6.3" height="22.078205995062724" fill="#ff4444" opacity="0.3"/>
<line x1="286.25" y1="252.86185898572833" x2="286.25" y2="279.19709599990546" stroke="#ff4444" stroke-width="1" opacity="0.8"/>
<rect x="281.0" y="268.0380972650846" width="6.3" height="11.158998734820841" fill="#ff4444" opacity="0.8"/>
<rect x="281.0" y="309.63753025955396" width="6.3" height="20.362469740446073" fill="#ff4444" opacity="0.3"/>
<line x1="296.75" y1="258.84308230759234" x2="296.75" y2="287.5886630484907" stroke="#44aa44" stroke-width="1" opacity="0.8"/>
<rect x="291.5" y="261.6997859837064" width="6.3" height="4.820687453442588" fill="#44aa44" opacity="0.8"/>
<rect x="291.5" y="312.74424356097643" width="6.3" height="17.255756439023568" fill="#44aa44" opacity="0.3"/>
<line x1="307.25" y1="262.8603218521278" x2="307.25" y2="277.94728814160555" stroke="#44aa44" stroke-width="1" opacity="0.8"/>
<rect x="302.0" y="263.5744977711563" width="6.3" height="4.731415463564076" fill="#44aa44" opacity="0.8"/>
<rect x="302.0" y="314.8602328701753" width="6.3" height="15.139767129824683" fill="#44aa44" opacity="0.3"/>
<line x1="317.75" y1="241.70286025090752" x2="317.75" y2="271.4304328804702" stroke="#ff4444" stroke-width="1" opacity="0.8"/>
<rect x="312.5" y="257.3254584796567" width="6.3" height="12.944438532392155" fill="#ff4444" opacity="0.8"/>
<rect x="312.5" y="306.62673342578194" width="6.3" height="23.37326657421806" fill="#ff4444" opacity="0.3"/>
<line x1="328.25" y1="235.98945289867925" x2="328.25" y2="265.0028496092134" stroke="#ff4444" stroke-width="1" opacity="0.8"/>
<rect x="323.0" y="242.8633961193289" width="6.3" height="19.729109763163194" fill="#ff4444" opacity="0.8"/>
<rect x="323.0" y="302.82649283187567" width="6.3" height="27.17350716812433" fill="#ff4444" opacity="0.3"/>
<line x1="338.75" y1="221.08103058895873" x2="338.75" y2="244.82737989665736" stroke="#ff4444" stroke-width="1" opacity="0.8"/>
<rect x="333.5" y="224.4733662043442" width="6.3" height="8.391567048585301" fill="#ff4444" opacity="0.8"/>
<rect x="333.5" y="300.65408485103393" width="6.3" height="29.345915148966085" fill="#ff4444" opacity="0.3"/>
<line x1="349.25" y1="226.16953401203702" x2="349.25" y2="246.5235477043501" stroke="#44aa44" stroke-width="1" opacity="0.8"/>
<rect x="344.0" y="230.4545895262082" width="6.3" height="13.39079848178497" fill="#44aa44" opacity="0.8"/>
<rect x="344.0" y="310.7381431209574" width="6.3" height="19.26185687904263" fill="#44aa44" opacity="0.3"/>
<line x1="359.75" y1="235.00746101001505" x2="359.75" y2="257.2361864897781" stroke="#44aa44" stroke-width="1" opacity="0.8"/>
<rect x="354.5" y="239.29251652418625" width="6.3" height="6.784671230771039" fill="#44aa44" opacity="0.8"/>
<rect x="354.5" y="312.5064879685785" width="6.3" height="17.49351203142154" fill="#44aa44" opacity="0.3"/>
<line x1="370.25" y1="236.70362881770785" x2="370.25" y2="257.7718184290495" stroke="#44aa44" stroke-width="1" opacity="0.8"/>
<rect x="365.0" y="251.70132311730703" width="6.3" height="2.767431686235483" fill="#44aa44" opacity="0.8"/>
<rect x="365.0" y="315.9443903337099" width="6.3" height="14.055609666290067" fill="#44aa44" opacity="0.3"/>
<line x1="380.75" y1="244.11320397762884" x2="380.75" y2="273.2158726780415" stroke="#44aa44" stroke-width="1" opacity="0.8"/>
<rect x="375.5" y="252.14768306669984" width="6.3" height="14.19424639069203" fill="#44aa44" opacity="0.8"/>
<rect x="375.5" y="316.1103908858943" width="6.3" height="13.889609114105712" fill="#44aa44" opacity="0.3"/>
<line x1="391.25" y1="255.80783465172107" x2="391.25" y2="270.62698497156305" stroke="#ff4444" stroke-width="1" opacity="0.8"/>
<rect x="386.0" y="264.37794568006336" width="6.3" height="1" fill="#ff4444" opacity="0.8"/>
<rect x="386.0" y="319.24136589514745" width="6.3" height="10.758634104852554" fill="#ff4444" opacity="0.3"/>
<line x1="401.75" y1="250.09442729949282" x2="401.75" y2="263.39595379139917" stroke="#ff4444" stroke-width="1" opacity="0.8"/>
<rect x="396.5" y="252.95113097560693" width="6.3" height="6.159767301621059" fill="#ff4444" opacity="0.8"/>
<rect x="396.5" y="314.98859849795775" width="6.3" height="15.01140150204222" fill="#ff4444" opacity="0.3"/>
<line x1="412.25" y1="249.20170740070714" x2="412.25" y2="272.68024073877007" stroke="#44aa44" stroke-width="1" opacity="0.8"/>
<rect x="407.0" y="254.4687548035425" width="6.3" height="8.213023068828107" fill="#44aa44" opacity="0.8"/>
<rect x="407.0" y="314.35529937943124" width="6.3" height="15.644700620568777" fill="#44aa44" opacity="0.3"/>
<line x1="422.75" y1="237.23926075697923" x2="422.75" y2="263.0388658318849" stroke="#ff4444" stroke-width="1" opacity="0.8"/>
<rect x="417.5" y="237.41780473673634" width="6.3" height="22.05018150000592" fill="#ff4444" opacity="0.8"/>
<rect x="417.5" y="300.4974240151388" width="6.3" height="29.502575984861185" fill="#ff4444" opacity="0.3"/>
<line x1="433.25" y1="232.59711728329378" x2="433.25" y2="246.5235477043501" stroke="#ff4444" stroke-width="1" opacity="0.8"/>
<rect x="428.0" y="237.5070767266149" width="6.3" height="7.4095751599209905" fill="#ff4444" opacity="0.8"/>
<rect x="428.0" y="308.3349092687203" width="6.3" height="21.665090731279705" fill="#ff4444" opacity="0.3"/>
<line x1="443.75" y1="212.60019155049488" x2="443.75" y2="235.81090891892217" stroke="#ff4444" stroke-width="1" opacity="0.8"/>
<rect x="438.5" y="213.93927139867338" width="6.3" height="20.08619772267744" fill="#ff4444" opacity="0.8"/>
<rect x="438.5" y="305.5446514974467" width="6.3" height="24.455348502553278" fill="#ff4444" opacity="0.3"/>
<line x1="454.25" y1="208.2258640464451" x2="454.25" y2="230.7224054958439" stroke="#44aa44" stroke-width="1" opacity="0.8"/>
<rect x="449.0" y="213.93927139867338" width="6.3" height="12.05171863360647" fill="#44aa44" opacity="0.8"/>
<rect x="449.0" y="306.164972565628" width="6.3" height="23.835027434372012" fill="#44aa44" opacity="0.3"/>
<line x1="464.75" y1="208.31513603632374" x2="464.75" y2="227.59788585009403" stroke="#ff4444" stroke-width="1" opacity="0.8"/>
<rect x="459.5" y="215.6354392063662" width="6.3" height="5.891951331985354" fill="#ff4444" opacity="0.8"/>
<rect x="459.5" y="309.6841842719363" width="6.3" height="20.31581572806368" fill="#ff4444" opacity="0.3"/>
<line x1="475.25" y1="202.24464072458125" x2="475.25" y2="220.18831069017307" stroke="#44aa44" stroke-width="1" opacity="0.8"/>
<rect x="470.0" y="217.06379104442323" width="6.3" height="1.874711787449911" fill="#44aa44" opacity="0.8"/>
<rect x="470.0" y="308.1470564276678" width="6.3" height="21.85294357233221" fill="#44aa44" opacity="0.3"/>
<line x1="485.75" y1="211.2611117023164" x2="485.75" y2="229.74041360717965" stroke="#ff4444" stroke-width="1" opacity="0.8"/>
<rect x="480.5" y="211.2611117023164" width="6.3" height="10.266278836035127" fill="#ff4444" opacity="0.8"/>
<rect x="480.5" y="312.1905762962738" width="6.3" height="17.809423703726203" fill="#ff4444" opacity="0.3"/>
<line x1="496.25" y1="175.82013172052555" x2="496.25" y2="223.49137431568" stroke="#ff4444" stroke-width="1" opacity="0.8"/>
<rect x="491.0" y="183.22970688044654" width="6.3" height="26.69232497369137" fill="#ff4444" opacity="0.8"/>
<rect x="491.0" y="299.3889950462638" width="6.3" height="30.611004953736188" fill="#ff4444" opacity="0.3"/>
<line x1="506.75" y1="172.42779610514" x2="506.75" y2="194.0316176557531" stroke="#44aa44" stroke-width="1" opacity="0.8"/>
<rect x="501.5" y="183.22970688044654" width="6.3" height="6.159767301621059" fill="#44aa44" opacity="0.8"/>
<rect x="501.5" y="305.5313962352084" width="6.3" height="24.468603764791638" fill="#44aa44" opacity="0.3"/>
<line x1="517.25" y1="186.88985846546774" x2="517.25" y2="216.88524706466606" stroke="#44aa44" stroke-width="1" opacity="0.8"/>
<rect x="512.0" y="189.47874617194614" width="6.3" height="23.924893287455888" fill="#44aa44" opacity="0.8"/>
<rect x="512.0" y="305.315902313899" width="6.3" height="24.684097686100994" fill="#44aa44" opacity="0.3"/>
<line x1="527.75" y1="170.46381232781155" x2="527.75" y2="220.63467063956588" stroke="#ff4444" stroke-width="1" opacity="0.8"/>
<rect x="522.5" y="180.99790713348236" width="6.3" height="32.31646033604105" fill="#ff4444" opacity="0.8"/>
<rect x="522.5" y="300.14675442834954" width="6.3" height="29.85324557165047" fill="#ff4444" opacity="0.3"/>
<line x1="538.25" y1="159.92971752214072" x2="538.25" y2="188.05039433388913" stroke="#ff4444" stroke-width="1" opacity="0.8"/>
<rect x="533.0" y="161.17952538044065" width="6.3" height="19.46129379352749" fill="#ff4444" opacity="0.8"/>
<rect x="533.0" y="301.7512466837145" width="6.3" height="28.24875331628552" fill="#ff4444" opacity="0.3"/>
<line x1="548.75" y1="145.64619914157007" x2="548.75" y2="174.57032386222562" stroke="#44aa44" stroke-width="1" opacity="0.8"/>
<rect x="543.5" y="150.1097986354984" width="6.3" height="20.264741702434605" fill="#44aa44" opacity="0.8"/>
<rect x="543.5" y="298.9004919793441" width="6.3" height="31.099508020655872" fill="#44aa44" opacity="0.3"/>
<line x1="559.25" y1="124.93509748974266" x2="559.25" y2="176.17721968003983" stroke="#ff4444" stroke-width="1" opacity="0.8"/>
<rect x="554.0" y="124.93509748974266" width="6.3" height="46.42143473685455" fill="#ff4444" opacity="0.8"/>
<rect x="554.0" y="295.31019953202156" width="6.3" height="34.689800467978465" fill="#ff4444" opacity="0.3"/>
<line x1="569.75" y1="109.9374031901435" x2="569.75" y2="131.9875846901494" stroke="#ff4444" stroke-width="1" opacity="0.8"/>
<rect x="564.5" y="114.31173069419327" width="6.3" height="8.213023068828065" fill="#ff4444" opacity="0.8"/>
<rect x="564.5" y="295.0" width="6.3" height="35.0" fill="#ff4444" opacity="0.3"/>
<line x1="580.25" y1="74.40715121847404" x2="580.25" y2="126.63126529743539" stroke="#ff4444" stroke-width="1" opacity="0.8"/>
<rect x="575.0" y="83.15580622657357" width="6.3" height="30.531020538469733" fill="#ff4444" opacity="0.8"/>
<rect x="575.0" y="296.6036765646526" width="6.3" height="33.39632343534744" fill="#ff4444" opacity="0.3"/>
<line x1="590.75" y1="85.83396592293055" x2="590.75" y2="109.9374031901435" stroke="#44aa44" stroke-width="1" opacity="0.8"/>
<rect x="585.5" y="86.19105388244486" width="6.3" height="7.67739112955671" fill="#44aa44" opacity="0.8"/>
<rect x="585.5" y="301.10622148290025" width="6.3" height="28.893778517099754" fill="#44aa44" opacity="0.3"/>
<line x1="601.25" y1="88.51212561928757" x2="601.25" y2="133.68375249784214" stroke="#44aa44" stroke-width="1" opacity="0.8"/>
<rect x="596.0" y="104.4025398176724" width="6.3" height="28.656308751019807" fill="#44aa44" opacity="0.8"/>
<rect x="596.0" y="296.3190902204809" width="6.3" height="33.68090977951909" fill="#44aa44" opacity="0.3"/>
<line x1="611.75" y1="115.02590661322179" x2="611.75" y2="140.20060775897753" stroke="#ff4444" stroke-width="1" opacity="0.8"/>
<rect x="606.5" y="122.79256973265704" width="6.3" height="12.140990623485024" fill="#ff4444" opacity="0.8"/>
<rect x="606.5" y="305.4498208244044" width="6.3" height="24.5501791755956" fill="#ff4444" opacity="0.3"/>
<line x1="622.25" y1="120.6500419755715" x2="622.25" y2="154.1270381800339" stroke="#44aa44" stroke-width="1" opacity="0.8"/>
<rect x="617.0" y="125.64927340877118" width="6.3" height="5.802679342106799" fill="#44aa44" opacity="0.8"/>
<rect x="617.0" y="303.26016730534997" width="6.3" height="26.739832694650048" fill="#44aa44" opacity="0.3"/>
<line x1="632.75" y1="132.43394463954226" x2="632.75" y2="145.4676551618129" stroke="#ff4444" stroke-width="1" opacity="0.8"/>
<rect x="627.5" y="137.43317607274196" width="6.3" height="1.6961678076928024" fill="#ff4444" opacity="0.8"/>
<rect x="627.5" y="311.2262352687923" width="6.3" height="18.77376473120768" fill="#ff4444" opacity="0.3"/>
<line x1="643.25" y1="127.7918011658568" x2="643.25" y2="158.9477256334765" stroke="#44aa44" stroke-width="1" opacity="0.8"/>
<rect x="638.0" y="137.6117200524991" width="6.3" height="21.3360055809774" fill="#44aa44" opacity="0.8"/>
<rect x="638.0" y="308.76677542927047" width="6.3" height="21.233224570729522" fill="#44aa44" opacity="0.3"/>
<line x1="653.75" y1="129.57724096342815" x2="653.75" y2="155.55539001809095" stroke="#ff4444" stroke-width="1" opacity="0.8"/>
<rect x="648.5" y="140.8255116881275" width="6.3" height="14.72987832996344" fill="#ff4444" opacity="0.8"/>
<rect x="648.5" y="304.1304945031497" width="6.3" height="25.869505496850298" fill="#ff4444" opacity="0.3"/>
<line x1="664.25" y1="143.23585541484874" x2="664.25" y2="167.9641966112117" stroke="#44aa44" stroke-width="1" opacity="0.8"/>
<rect x="659.0" y="152.60941435209827" width="6.3" height="2.231799746964157" fill="#44aa44" opacity="0.8"/>
<rect x="659.0" y="310.8405246002763" width="6.3" height="19.159475399723714" fill="#44aa44" opacity="0.3"/>
<line x1="674.75" y1="155.55539001809095" x2="674.75" y2="180.01591524481816" stroke="#44aa44" stroke-width="1" opacity="0.8"/>
<rect x="669.5" y="157.608645785298" width="6.3" height="10.891182765185107" fill="#44aa44" opacity="0.8"/>
<rect x="669.5" y="311.497297399478" width="6.3" height="18.502702600521996" fill="#44aa44" opacity="0.3"/>
<rect x="177.25" y="297.7829094391828" width="8" height="8" fill="#ff9800" opacity="0.85"/>
<text x="181.25" y="294.7829094391828" text-anchor="middle" font-size="8" font-weight="bold" fill="#ff9800">前低</text>
<rect x="219.25" y="195.20939306870991" width="8" height="8" fill="#ff9800" opacity="0.85"/>
<text x="223.25" y="192.20939306870991" text-anchor="middle" font-size="8" font-weight="bold" fill="#ff9800">前高</text>
<rect x="261.25" y="284.21356697764065" width="8" height="8" fill="#ff9800" opacity="0.85"/>
<text x="265.25" y="281.21356697764065" text-anchor="middle" font-size="8" font-weight="bold" fill="#ff9800">前低</text>
<rect x="334.75" y="217.08103058895873" width="8" height="8" fill="#ff9800" opacity="0.85"/>
<text x="338.75" y="214.08103058895873" text-anchor="middle" font-size="8" font-weight="bold" fill="#ff9800">前高</text>
<rect x="376.75" y="269.2158726780415" width="8" height="8" fill="#ff9800" opacity="0.85"/>
<text x="380.75" y="266.2158726780415" text-anchor="middle" font-size="8" font-weight="bold" fill="#ff9800">前低</text>
<rect x="460.75" y="211.6354392063662" width="8" height="8" fill="#2196f3" opacity="0.85"/>
<text x="464.75" y="208.6354392063662" text-anchor="middle" font-size="8" font-weight="bold" fill="#2196f3">中</text>
<rect x="481.75" y="207.2611117023164" width="8" height="8" fill="#2196f3" opacity="0.85"/>
<text x="485.75" y="204.2611117023164" text-anchor="middle" font-size="8" font-weight="bold" fill="#2196f3">中</text>
<rect x="576.25" y="70.40715121847404" width="8" height="8" fill="#ff9800" opacity="0.85"/>
<text x="580.25" y="67.40715121847404" text-anchor="middle" font-size="8" font-weight="bold" fill="#ff9800">前高</text>
<rect x="607.75" y="118.79256973265704" width="8" height="8" fill="#2196f3" opacity="0.85"/>
<text x="611.75" y="115.79256973265704" text-anchor="middle" font-size="8" font-weight="bold" fill="#2196f3">中</text>
<text x="55.25" y="355" fill="#666666" font-size="8" text-anchor="middle" transform="rotate(-30,55.25,355)">02/11</text>
<text x="107.75" y="355" fill="#666666" font-size="8" text-anchor="middle" transform="rotate(-30,107.75,355)">02/26</text>
<text x="160.25" y="355" fill="#666666" font-size="8" text-anchor="middle" transform="rotate(-30,160.25,355)">03/05</text>
<text x="212.75" y="355" fill="#666666" font-size="8" text-anchor="middle" transform="rotate(-30,212.75,355)">03/12</text>
<text x="265.25" y="355" fill="#666666" font-size="8" text-anchor="middle" transform="rotate(-30,265.25,355)">03/19</text>
<text x="317.75" y="355" fill="#666666" font-size="8" text-anchor="middle" transform="rotate(-30,317.75,355)">03/26</text>
<text x="370.25" y="355" fill="#666666" font-size="8" text-anchor="middle" transform="rotate(-30,370.25,355)">04/02</text>
<text x="422.75" y="355" fill="#666666" font-size="8" text-anchor="middle" transform="rotate(-30,422.75,355)">04/10</text>
<text x="475.25" y="355" fill="#666666" font-size="8" text-anchor="middle" transform="rotate(-30,475.25,355)">04/17</text>
<text x="527.75" y="355" fill="#666666" font-size="8" text-anchor="middle" transform="rotate(-30,527.75,355)">04/24</text>
<text x="580.25" y="355" fill="#666666" font-size="8" text-anchor="middle" transform="rotate(-30,580.25,355)">05/06</text>
<text x="632.75" y="355" fill="#666666" font-size="8" text-anchor="middle" transform="rotate(-30,632.75,355)">05/13</text>
<text x="674.75" y="355" fill="#666666" font-size="8" text-anchor="middle" transform="rotate(-30,674.75,355)">05/19</text>
<rect x="50" y="334" width="7" height="7" fill="#ff9800" opacity="0.8" rx="1"/>
<text x="60" y="340" font-family="sans-serif" font-size="8" fill="#888888">第1类</text>
<rect x="120" y="334" width="7" height="7" fill="#2196f3" opacity="0.8" rx="1"/>
<text x="130" y="340" font-family="sans-serif" font-size="8" fill="#888888">第2类</text>
<rect x="190" y="334" width="7" height="7" fill="#ffd700" opacity="0.8" rx="1"/>
<text x="200" y="340" font-family="sans-serif" font-size="8" fill="#888888">EMA5</text>
<rect x="260" y="334" width="7" height="7" fill="#ff6b6b" opacity="0.8" rx="1"/>
<text x="270" y="340" font-family="sans-serif" font-size="8" fill="#888888">EMA10</text>
<rect x="330" y="334" width="7" height="7" fill="#4ecdc4" opacity="0.8" rx="1"/>
<text x="340" y="340" font-family="sans-serif" font-size="8" fill="#888888">EMA20</text>
</svg>