<svg xmlns="http://www.w3.org/2000/svg" width="700" height="380" viewBox="0 0 700 380">
<rect width="700" height="380" fill="#1a1a2e"/>
<text x="350.0" y="20" text-anchor="middle" font-family="sans-serif" font-size="14" font-weight="bold" fill="#ffffff">汉威科技(300007) 关键点图</text>
<line x1="50" y1="28.0" x2="680" y2="28.0" stroke="#2a2a4e" stroke-width="0.5"/>
<text x="46" y="31.0" text-anchor="end" font-size="9" fill="#666666">62.1</text>
<line x1="50" y1="128.6257618854125" x2="680" y2="128.6257618854125" stroke="#2a2a4e" stroke-width="0.5"/>
<text x="46" y="131.6257618854125" text-anchor="end" font-size="9" fill="#666666">53.9</text>
<line x1="50" y1="229.37423811458763" x2="680" y2="229.37423811458763" stroke="#2a2a4e" stroke-width="0.5"/>
<text x="46" y="232.37423811458763" text-anchor="end" font-size="9" fill="#666666">45.69</text>
<line x1="50" y1="330.0" x2="680" y2="330.0" stroke="#2a2a4e" stroke-width="0.5"/>
<text x="46" y="333.0" text-anchor="end" font-size="9" fill="#666666">37.49</text>
<polyline points="55.25,122.3673303535149 65.75,118.52228091561703 76.25,114.9771998735835 86.75,117.4814814814815 97.25,120.54176511605742 107.75,124.95443151852025 118.25,132.23211593311072 128.75,144.0377183560573 139.25,164.34317347264175 149.75,180.12990651934754 160.25,185.95034537291463 170.75,187.09001759792574 181.25,190.59041942530007 191.75,187.89273254927906 202.25,186.95327503827053 212.75,189.64025731252443 223.25,194.94939001655766 233.75,196.72990622531452 244.25,204.78892028186348 254.75,207.83002378807154 265.25,216.89304850127164 275.75,229.5207347586698 286.25,243.66586163919447 296.75,252.23694581987206 307.25,255.41490550256137 317.75,259.66059391624094 328.25,261.59114767110094 338.75,263.369040882725 349.25,265.9859703677059 359.75,263.5992071176823 370.25,267.98012968078456 380.75,272.8232694418017 391.25,275.92931493871697 401.75,267.81472140435665 412.25,266.61818485063566 422.75,262.9571591270254 433.25,260.8437135613192 443.75,255.7942243192216 454.25,256.0684236894499 464.75,253.10155511302625 475.25,250.91911882247263 485.75,247.13258876394556 496.25,247.06252226684825 506.75,246.1159060811902 517.25,251.37511712469436 527.75,258.3581642269735 538.25,259.78205124274194 548.75,268.8304559415923 559.25,270.2404854590976 569.75,267.82631307458735 580.25,260.3674810988919 590.75,249.9954953228696 601.25,236.5360731381775 611.75,231.2036505466761 622.25,230.67565596515504 632.75,229.50556395238976 643.25,235.63841064251153 653.75,227.98730288262792 664.25,216.95537109417512 674.75,200.76531715095894" fill="none" stroke="#ffd700" stroke-width="1" opacity="0.6"/>
<polyline points="55.25,122.3673303535149 65.75,120.27003066011603 76.25,118.01857741091614 86.75,118.83157146298184 97.25,120.25534617611413 107.75,122.7143312938108 118.25,127.09126828808004 128.75,134.46538736332917 139.25,147.28151397105313 149.75,158.99457917863597 160.25,166.01215079707464 170.75,170.25891647905158 181.25,175.22842677014194 191.75,176.5500507750683 202.25,178.09992518255655 212.75,181.17525185137032 223.25,185.61023431923462 233.75,188.27945328716075 244.25,194.21172512494272 254.75,197.79363524776906 265.25,204.56190118956957 275.75,213.69175684118716 286.25,224.28527657919747 296.75,232.4841561432029 307.25,237.809005002246 317.75,243.32590786431044 328.25,247.34888010367598 338.75,250.9081432313664 349.25,254.60117706887573 359.75,255.36926862319558 370.25,259.2552152020671 380.75,263.483275886025 391.25,266.875663167211 401.75,264.09563974328825 412.25,264.11918010690744 422.75,262.5766214837979 433.25,261.4930216558177 443.75,258.62069877931015 454.25,258.2563576248731 464.75,256.2402595040196 475.25,254.47916618353705 485.75,251.76650481323784 496.25,250.88575653313166 506.75,249.67428692890297 517.25,251.89596916213924 527.75,255.61020357475616 538.25,256.88649842921484 548.75,262.34845604922907 559.25,264.2961084937525 569.75,264.0600830049915 580.25,260.6763983036295 590.75,254.96278475221052 601.25,246.71813820977104 611.75,241.9582595104806 622.25,239.71487901805008 632.75,237.4331519105608 643.25,239.33696138550516 653.75,234.49116610866068 664.25,227.29122818295315 674.75,216.58104292505746" fill="none" stroke="#ff6b6b" stroke-width="1" opacity="0.6"/>
<polyline points="55.25,122.3673303535149 65.75,121.26874479982976 76.25,119.99429651313326 86.75,120.23198681638515 97.25,120.8444006800827 107.75,122.07634007468873 118.25,124.42978242588906 128.75,128.5458910712282 139.25,135.82286179833133 149.75,143.04957711399112 160.25,148.24401958694895 170.75,152.16071886894883 181.25,156.48743355572026 191.75,158.96456929300754 202.25,161.45121602855477 212.75,164.64769277450503 223.25,168.5448320745164 233.75,171.56827079530797 244.25,176.26719247146542 254.75,179.85243421708662 265.25,185.10640218952332 275.75,191.7416121975179 286.25,199.3810886930156 296.75,206.0475673109405 307.25,211.35454422113094 317.75,216.76382293755657 328.25,221.40081648453412 338.75,225.73643656276644 349.25,230.06818825561422 359.75,232.80699705199712 370.25,236.99128064771062 380.75,241.32635382067497 391.25,245.21350164085334 401.75,245.82036189749928 412.25,247.57319521613687 422.75,248.34099640315287 433.25,249.12917031046274 443.75,248.8021298842307 454.25,249.5463863171522 464.75,249.3198559974405 475.25,249.05646459210004 485.75,248.15199450208019 496.25,248.03488924213477 506.75,247.67182109620518 517.25,249.0262704405383 527.75,251.24512643968058 538.25,252.3293834715471 548.75,255.62441983990388 559.25,257.2850031403043 569.75,257.82909506080546 580.25,256.65011621191934 590.75,254.04072645562465 601.25,249.80991715211684 611.75,247.02219221988418 622.25,245.36480884676314 632.75,243.63152990201039 643.25,244.0384417230337 653.75,241.05240797444583 664.25,236.656131740429 674.75,230.15413912367643" fill="none" stroke="#4ecdc4" stroke-width="1" opacity="0.6"/>
<line x1="55.25" y1="107.76432344575376" x2="55.25" y2="122.3673303535149" stroke="#44aa44" stroke-width="1" opacity="0.8"/>
<rect x="50.0" y="114.88175538399022" width="6.3" height="7.485574969524677" fill="#44aa44" opacity="0.8"/>
<rect x="50.0" y="320.525794502777" width="6.3" height="9.47420549722303" fill="#44aa44" opacity="0.3"/>
<line x1="65.75" y1="106.53718000812677" x2="65.75" y2="121.87647297846404" stroke="#ff4444" stroke-width="1" opacity="0.8"/>
<rect x="60.5" y="110.83218203982122" width="6.3" height="11.044290938642817" fill="#ff4444" opacity="0.8"/>
<rect x="60.5" y="317.0591708601666" width="6.3" height="12.940829139833395" fill="#ff4444" opacity="0.3"/>
<line x1="76.25" y1="100.03331978870384" x2="76.25" y2="116.47704185290534" stroke="#ff4444" stroke-width="1" opacity="0.8"/>
<rect x="71.0" y="107.88703778951643" width="6.3" height="7.117431938236564" fill="#ff4444" opacity="0.8"/>
<rect x="71.0" y="314.82073500494744" width="6.3" height="15.17926499505257" fill="#ff4444" opacity="0.3"/>
<line x1="86.75" y1="84.44859813084113" x2="86.75" y2="126.17147501015847" stroke="#44aa44" stroke-width="1" opacity="0.8"/>
<rect x="81.5" y="89.35717188134905" width="6.3" height="33.13287281592851" fill="#44aa44" opacity="0.8"/>
<rect x="81.5" y="310.17121421522893" width="6.3" height="19.828785784771064" fill="#44aa44" opacity="0.3"/>
<line x1="97.25" y1="119.29947175944743" x2="97.25" y2="131.0800487606664" stroke="#ff4444" stroke-width="1" opacity="0.8"/>
<rect x="92.0" y="126.66233238520927" width="6.3" height="3.4360016253555585" fill="#ff4444" opacity="0.8"/>
<rect x="92.0" y="316.6744453084016" width="6.3" height="13.325554691598418" fill="#ff4444" opacity="0.3"/>
<line x1="107.75" y1="127.39861844778547" x2="107.75" y2="138.07476635514018" stroke="#44aa44" stroke-width="1" opacity="0.8"/>
<rect x="102.5" y="127.39861844778547" width="6.3" height="6.381145875660351" fill="#44aa44" opacity="0.8"/>
<rect x="102.5" y="317.372142276753" width="6.3" height="12.627857723247" fill="#44aa44" opacity="0.3"/>
<line x1="118.25" y1="133.77976432344582" x2="118.25" y2="151.69605851279965" stroke="#44aa44" stroke-width="1" opacity="0.8"/>
<rect x="113.0" y="136.11133685493704" width="6.3" height="10.676147907354704" fill="#44aa44" opacity="0.8"/>
<rect x="113.0" y="313.74054828928917" width="6.3" height="16.25945171071082" fill="#44aa44" opacity="0.3"/>
<line x1="128.75" y1="152.80048760666398" x2="128.75" y2="170.96221048354326" stroke="#44aa44" stroke-width="1" opacity="0.8"/>
<rect x="123.5" y="166.54449410808613" width="6.3" height="1.1044290938643258" fill="#44aa44" opacity="0.8"/>
<rect x="123.5" y="315.4622519410022" width="6.3" height="14.537748058997789" fill="#44aa44" opacity="0.3"/>
<line x1="139.25" y1="159.42706216984968" x2="139.25" y2="205.81308411214954" stroke="#44aa44" stroke-width="1" opacity="0.8"/>
<rect x="134.0" y="166.78992279561157" width="6.3" height="38.164160910199115" fill="#44aa44" opacity="0.8"/>
<rect x="134.0" y="312.31536128685997" width="6.3" height="17.68463871314005" fill="#44aa44" opacity="0.3"/>
<line x1="149.75" y1="198.327509142625" x2="149.75" y2="214.40308817553844" stroke="#44aa44" stroke-width="1" opacity="0.8"/>
<rect x="144.5" y="209.49451442503047" width="6.3" height="2.208858187728538" fill="#44aa44" opacity="0.8"/>
<rect x="144.5" y="317.71889329613555" width="6.3" height="12.281106703864479" fill="#44aa44" opacity="0.3"/>
<line x1="160.25" y1="189.9829337667615" x2="160.25" y2="203.35879723689555" stroke="#ff4444" stroke-width="1" opacity="0.8"/>
<rect x="155.0" y="197.59122308004876" width="6.3" height="3.313287281592892" fill="#ff4444" opacity="0.8"/>
<rect x="155.0" y="316.18393524122655" width="6.3" height="13.816064758773466" fill="#ff4444" opacity="0.3"/>
<line x1="170.75" y1="183.35635920357583" x2="170.75" y2="202.377082486794" stroke="#ff4444" stroke-width="1" opacity="0.8"/>
<rect x="165.5" y="189.36936204794796" width="6.3" height="11.535148313693696" fill="#ff4444" opacity="0.8"/>
<rect x="165.5" y="317.9579077391329" width="6.3" height="12.042092260867065" fill="#ff4444" opacity="0.3"/>
<line x1="181.25" y1="193.66436407964244" x2="181.25" y2="216.36651767574162" stroke="#ff4444" stroke-width="1" opacity="0.8"/>
<rect x="176.0" y="197.59122308004876" width="6.3" height="5.890288500609557" fill="#ff4444" opacity="0.8"/>
<rect x="176.0" y="316.7340914851558" width="6.3" height="13.265908514844224" fill="#ff4444" opacity="0.3"/>
<line x1="191.75" y1="181.5156440471353" x2="191.75" y2="191.94636326696465" stroke="#ff4444" stroke-width="1" opacity="0.8"/>
<rect x="186.5" y="182.49735879723693" width="6.3" height="5.154002438033274" fill="#ff4444" opacity="0.8"/>
<rect x="186.5" y="317.06638571520597" width="6.3" height="12.933614284794023" fill="#ff4444" opacity="0.3"/>
<line x1="202.25" y1="172.8029256399838" x2="202.25" y2="185.0743600162536" stroke="#44aa44" stroke-width="1" opacity="0.8"/>
<rect x="197.0" y="180.41121495327104" width="6.3" height="4.663145062982551" fill="#44aa44" opacity="0.8"/>
<rect x="197.0" y="316.3413657799977" width="6.3" height="13.658634220002282" fill="#44aa44" opacity="0.3"/>
<line x1="212.75" y1="184.70621698496552" x2="212.75" y2="199.80008126777733" stroke="#44aa44" stroke-width="1" opacity="0.8"/>
<rect x="207.5" y="190.47379114181228" width="6.3" height="4.540430719219813" fill="#44aa44" opacity="0.8"/>
<rect x="207.5" y="319.73727489529495" width="6.3" height="10.262725104705044" fill="#44aa44" opacity="0.3"/>
<line x1="223.25" y1="191.2100772043885" x2="223.25" y2="206.79479886225113" stroke="#44aa44" stroke-width="1" opacity="0.8"/>
<rect x="218.0" y="200.53636733035356" width="6.3" height="5.031288094270565" fill="#44aa44" opacity="0.8"/>
<rect x="218.0" y="318.39689422826734" width="6.3" height="11.603105771732656" fill="#44aa44" opacity="0.3"/>
<line x1="233.75" y1="197.8366517675742" x2="233.75" y2="209.7399431125559" stroke="#ff4444" stroke-width="1" opacity="0.8"/>
<rect x="228.5" y="200.2909386428281" width="6.3" height="3.5587159691182535" fill="#ff4444" opacity="0.8"/>
<rect x="228.5" y="321.11700642720194" width="6.3" height="8.882993572798032" fill="#ff4444" opacity="0.3"/>
<line x1="244.25" y1="196.11865095489642" x2="244.25" y2="221.27509142624947" stroke="#44aa44" stroke-width="1" opacity="0.8"/>
<rect x="239.0" y="197.34579439252343" width="6.3" height="23.561154002437974" fill="#44aa44" opacity="0.8"/>
<rect x="239.0" y="320.5044595830367" width="6.3" height="9.495540416963319" fill="#44aa44" opacity="0.3"/>
<line x1="254.75" y1="212.31694433157256" x2="254.75" y2="224.83380739536776" stroke="#ff4444" stroke-width="1" opacity="0.8"/>
<rect x="249.5" y="213.9122308004876" width="6.3" height="3.681430312880991" fill="#ff4444" opacity="0.8"/>
<rect x="249.5" y="322.4965130835684" width="6.3" height="7.503486916431573" fill="#ff4444" opacity="0.3"/>
<line x1="265.25" y1="221.15237708248682" x2="265.25" y2="237.10524177163754" stroke="#44aa44" stroke-width="1" opacity="0.8"/>
<rect x="260.0" y="224.34295002031695" width="6.3" height="10.676147907354789" fill="#44aa44" opacity="0.8"/>
<rect x="260.0" y="319.8691402639739" width="6.3" height="10.130859736026053" fill="#44aa44" opacity="0.3"/>
<line x1="275.75" y1="228.14709467696062" x2="275.75" y2="255.02153596099146" stroke="#44aa44" stroke-width="1" opacity="0.8"/>
<rect x="270.5" y="232.93295408370585" width="6.3" height="21.8431531897603" fill="#44aa44" opacity="0.8"/>
<rect x="270.5" y="319.78620004235125" width="6.3" height="10.213799957648721" fill="#44aa44" opacity="0.3"/>
<line x1="286.25" y1="235.87809833401064" x2="286.25" y2="276.12840308817556" stroke="#44aa44" stroke-width="1" opacity="0.8"/>
<rect x="281.0" y="266.0658268996343" width="6.3" height="5.890288500609529" fill="#44aa44" opacity="0.8"/>
<rect x="281.0" y="313.0356988659175" width="6.3" height="16.964301134082504" fill="#44aa44" opacity="0.3"/>
<line x1="296.75" y1="259.31653799268594" x2="296.75" y2="284.472978464039" stroke="#44aa44" stroke-width="1" opacity="0.8"/>
<rect x="291.5" y="262.3843965867534" width="6.3" height="6.994717594473798" fill="#44aa44" opacity="0.8"/>
<rect x="291.5" y="317.70982410090573" width="6.3" height="12.290175899094292" fill="#44aa44" opacity="0.3"/>
<line x1="307.25" y1="256.61682242990656" x2="307.25" y2="269.2563998374645" stroke="#ff4444" stroke-width="1" opacity="0.8"/>
<rect x="302.0" y="261.77082486793995" width="6.3" height="7.485574969524578" fill="#ff4444" opacity="0.8"/>
<rect x="302.0" y="319.6383708650106" width="6.3" height="10.361629134989407" fill="#ff4444" opacity="0.3"/>
<line x1="317.75" y1="250.48110524177167" x2="317.75" y2="269.2563998374645" stroke="#44aa44" stroke-width="1" opacity="0.8"/>
<rect x="312.5" y="259.56196668021136" width="6.3" height="8.59000406338879" fill="#44aa44" opacity="0.8"/>
<rect x="312.5" y="318.98992988155265" width="6.3" height="11.010070118447347" fill="#44aa44" opacity="0.3"/>
<line x1="328.25" y1="259.93010971149937" x2="328.25" y2="280.79154815115805" stroke="#ff4444" stroke-width="1" opacity="0.8"/>
<rect x="323.0" y="265.4522551808208" width="6.3" height="13.130434782608688" fill="#ff4444" opacity="0.8"/>
<rect x="323.0" y="320.6031646396752" width="6.3" height="9.39683536032479" fill="#ff4444" opacity="0.3"/>
<line x1="338.75" y1="266.55668427468515" x2="338.75" y2="275.88297440065014" stroke="#ff4444" stroke-width="1" opacity="0.8"/>
<rect x="333.5" y="266.92482730597317" width="6.3" height="6.503860219423018" fill="#ff4444" opacity="0.8"/>
<rect x="333.5" y="323.0494172830561" width="6.3" height="6.950582716943926" fill="#ff4444" opacity="0.3"/>
<line x1="349.25" y1="255.02153596099146" x2="349.25" y2="271.46525802519307" stroke="#44aa44" stroke-width="1" opacity="0.8"/>
<rect x="344.0" y="267.2929703372613" width="6.3" height="3.9268590004063526" fill="#44aa44" opacity="0.8"/>
<rect x="344.0" y="320.6217539585748" width="6.3" height="9.378246041425202" fill="#44aa44" opacity="0.3"/>
<line x1="359.75" y1="252.56724908573756" x2="359.75" y2="262.9979683055668" stroke="#ff4444" stroke-width="1" opacity="0.8"/>
<rect x="354.5" y="258.82568061763516" width="6.3" height="1" fill="#ff4444" opacity="0.8"/>
<rect x="354.5" y="321.24092109155964" width="6.3" height="8.759078908440333" fill="#ff4444" opacity="0.3"/>
<line x1="370.25" y1="259.93010971149937" x2="370.25" y2="278.82811865095493" stroke="#44aa44" stroke-width="1" opacity="0.8"/>
<rect x="365.0" y="262.2616822429907" width="6.3" height="14.480292563998432" fill="#44aa44" opacity="0.8"/>
<rect x="365.0" y="321.98979667180834" width="6.3" height="8.010203328191638" fill="#44aa44" opacity="0.3"/>
<line x1="380.75" y1="271.71068671271837" x2="380.75" y2="283.1231206826493" stroke="#44aa44" stroke-width="1" opacity="0.8"/>
<rect x="375.5" y="275.0239739943113" width="6.3" height="7.485574969524578" fill="#44aa44" opacity="0.8"/>
<rect x="375.5" y="324.1668991950398" width="6.3" height="5.833100804960246" fill="#44aa44" opacity="0.3"/>
<line x1="391.25" y1="276.12840308817556" x2="391.25" y2="287.54083705810643" stroke="#44aa44" stroke-width="1" opacity="0.8"/>
<rect x="386.0" y="281.650548557497" width="6.3" height="1" fill="#44aa44" opacity="0.8"/>
<rect x="386.0" y="324.5330495562114" width="6.3" height="5.466950443788599" fill="#44aa44" opacity="0.3"/>
<line x1="401.75" y1="251.34010564811058" x2="401.75" y2="268.3973994311256" stroke="#ff4444" stroke-width="1" opacity="0.8"/>
<rect x="396.5" y="251.58553433563588" width="6.3" height="16.811865095489736" fill="#ff4444" opacity="0.8"/>
<rect x="396.5" y="317.9161350470969" width="6.3" height="12.083864952903124" fill="#ff4444" opacity="0.3"/>
<line x1="412.25" y1="257.47582283624547" x2="412.25" y2="265.4522551808208" stroke="#44aa44" stroke-width="1" opacity="0.8"/>
<rect x="407.0" y="259.93010971149937" width="6.3" height="4.29500203169448" fill="#44aa44" opacity="0.8"/>
<rect x="407.0" y="321.56443457929856" width="6.3" height="8.435565420701433" fill="#44aa44" opacity="0.3"/>
<line x1="422.75" y1="243.36367330353522" x2="422.75" y2="257.47582283624547" stroke="#ff4444" stroke-width="1" opacity="0.8"/>
<rect x="417.5" y="255.635107679805" width="6.3" height="1.8407151564404671" fill="#ff4444" opacity="0.8"/>
<rect x="417.5" y="318.84767667573067" width="6.3" height="11.152323324269352" fill="#ff4444" opacity="0.3"/>
<line x1="433.25" y1="251.83096302316136" x2="433.25" y2="261.8935392117026" stroke="#ff4444" stroke-width="1" opacity="0.8"/>
<rect x="428.0" y="256.61682242990656" width="6.3" height="5.27671678179604" fill="#ff4444" opacity="0.8"/>
<rect x="428.0" y="323.1103408941637" width="6.3" height="6.889659105836319" fill="#ff4444" opacity="0.3"/>
<line x1="443.75" y1="245.20438845997563" x2="443.75" y2="254.77610727346615" stroke="#ff4444" stroke-width="1" opacity="0.8"/>
<rect x="438.5" y="245.69524583502644" width="6.3" height="4.417716375457104" fill="#ff4444" opacity="0.8"/>
<rect x="438.5" y="320.38103823203755" width="6.3" height="9.618961767962418" fill="#ff4444" opacity="0.3"/>
<line x1="454.25" y1="239.43681430312887" x2="454.25" y2="257.3531084924828" stroke="#44aa44" stroke-width="1" opacity="0.8"/>
<rect x="449.0" y="240.17310036570498" width="6.3" height="16.44372206420158" fill="#44aa44" opacity="0.8"/>
<rect x="449.0" y="320.45735345540527" width="6.3" height="9.542646544594737" fill="#44aa44" opacity="0.3"/>
<line x1="464.75" y1="243.36367330353522" x2="464.75" y2="254.1625355546526" stroke="#ff4444" stroke-width="1" opacity="0.8"/>
<rect x="459.5" y="247.1678179601788" width="6.3" height="2.6997155627793177" fill="#ff4444" opacity="0.8"/>
<rect x="459.5" y="319.2946103371098" width="6.3" height="10.705389662890205" fill="#ff4444" opacity="0.3"/>
<line x1="475.25" y1="242.75010158472168" x2="475.25" y2="253.180820804551" stroke="#ff4444" stroke-width="1" opacity="0.8"/>
<rect x="470.0" y="246.55424624136532" width="6.3" height="3.3132872815928067" fill="#ff4444" opacity="0.8"/>
<rect x="470.0" y="320.1482166965968" width="6.3" height="9.85178330340319" fill="#ff4444" opacity="0.3"/>
<line x1="485.75" y1="236.24624136529866" x2="485.75" y2="246.06338886631454" stroke="#ff4444" stroke-width="1" opacity="0.8"/>
<rect x="480.5" y="239.55952864689152" width="6.3" height="6.503860219423018" fill="#ff4444" opacity="0.8"/>
<rect x="480.5" y="316.5532856637554" width="6.3" height="13.446714336244606" fill="#ff4444" opacity="0.3"/>
<line x1="496.25" y1="240.9093864282812" x2="496.25" y2="254.28524989841537" stroke="#44aa44" stroke-width="1" opacity="0.8"/>
<rect x="491.0" y="241.6456724908574" width="6.3" height="5.27671678179604" fill="#44aa44" opacity="0.8"/>
<rect x="491.0" y="318.0984537746209" width="6.3" height="11.901546225379114" fill="#44aa44" opacity="0.3"/>
<line x1="506.75" y1="243.97724502234865" x2="506.75" y2="252.32182039821214" stroke="#ff4444" stroke-width="1" opacity="0.8"/>
<rect x="501.5" y="244.22267370987407" width="6.3" height="5.890288500609472" fill="#ff4444" opacity="0.8"/>
<rect x="501.5" y="319.91108720511994" width="6.3" height="10.088912794880038" fill="#ff4444" opacity="0.3"/>
<line x1="517.25" y1="242.9955302722471" x2="517.25" y2="267.04754164973593" stroke="#44aa44" stroke-width="1" opacity="0.8"/>
<rect x="512.0" y="247.0451036164161" width="6.3" height="14.848435595286503" fill="#44aa44" opacity="0.8"/>
<rect x="512.0" y="316.30427779883007" width="6.3" height="13.695722201169923" fill="#44aa44" opacity="0.3"/>
<line x1="527.75" y1="261.0345388053637" x2="527.75" y2="275.6375457131247" stroke="#44aa44" stroke-width="1" opacity="0.8"/>
<rect x="522.5" y="262.50711093051603" width="6.3" height="9.817147501015882" fill="#44aa44" opacity="0.8"/>
<rect x="522.5" y="320.16444187892347" width="6.3" height="9.835558121076556" fill="#44aa44" opacity="0.3"/>
<line x1="538.25" y1="259.56196668021136" x2="538.25" y2="278.09183258837874" stroke="#ff4444" stroke-width="1" opacity="0.8"/>
<rect x="533.0" y="262.6298252742788" width="6.3" height="9.939861844778534" fill="#ff4444" opacity="0.8"/>
<rect x="533.0" y="319.86438020213905" width="6.3" height="10.13561979786094" fill="#ff4444" opacity="0.3"/>
<line x1="548.75" y1="264.83868346200734" x2="548.75" y2="289.99512393336045" stroke="#44aa44" stroke-width="1" opacity="0.8"/>
<rect x="543.5" y="265.4522551808208" width="6.3" height="21.475010158472173" fill="#44aa44" opacity="0.8"/>
<rect x="543.5" y="316.4260426059257" width="6.3" height="13.573957394074286" fill="#44aa44" opacity="0.3"/>
<line x1="559.25" y1="269.86997155627796" x2="559.25" y2="280.79154815115805" stroke="#ff4444" stroke-width="1" opacity="0.8"/>
<rect x="554.0" y="273.06054449410806" width="6.3" height="7.731003657049996" fill="#ff4444" opacity="0.8"/>
<rect x="554.0" y="318.50371952890174" width="6.3" height="11.496280471098279" fill="#ff4444" opacity="0.3"/>
<line x1="569.75" y1="259.0711093051605" x2="569.75" y2="277.35554652580254" stroke="#ff4444" stroke-width="1" opacity="0.8"/>
<rect x="564.5" y="262.9979683055668" width="6.3" height="13.130434782608745" fill="#ff4444" opacity="0.8"/>
<rect x="564.5" y="318.80602760637396" width="6.3" height="11.193972393626048" fill="#ff4444" opacity="0.3"/>
<line x1="580.25" y1="228.6379520520114" x2="580.25" y2="261.4026818366518" stroke="#ff4444" stroke-width="1" opacity="0.8"/>
<rect x="575.0" y="245.449817147501" width="6.3" height="14.480292563998375" fill="#ff4444" opacity="0.8"/>
<rect x="575.0" y="309.64902848552464" width="6.3" height="20.350971514475376" fill="#ff4444" opacity="0.3"/>
<line x1="590.75" y1="226.9199512393336" x2="590.75" y2="249.2539618041447" stroke="#ff4444" stroke-width="1" opacity="0.8"/>
<rect x="585.5" y="229.25152377082486" width="6.3" height="13.253149126371454" fill="#ff4444" opacity="0.8"/>
<rect x="585.5" y="307.70203015350575" width="6.3" height="22.29796984649427" fill="#ff4444" opacity="0.3"/>
<line x1="601.25" y1="202.49979683055668" x2="601.25" y2="235.2645266151971" stroke="#ff4444" stroke-width="1" opacity="0.8"/>
<rect x="596.0" y="209.61722876879324" width="6.3" height="19.757009345794387" fill="#ff4444" opacity="0.8"/>
<rect x="596.0" y="297.94878825386076" width="6.3" height="32.05121174613923" fill="#ff4444" opacity="0.3"/>
<line x1="611.75" y1="209.3718000812678" x2="611.75" y2="223.48394961397807" stroke="#44aa44" stroke-width="1" opacity="0.8"/>
<rect x="606.5" y="209.49451442503047" width="6.3" height="11.044290938642916" fill="#44aa44" opacity="0.8"/>
<rect x="606.5" y="308.67529384774497" width="6.3" height="21.324706152255036" fill="#44aa44" opacity="0.3"/>
<line x1="622.25" y1="209.7399431125559" x2="622.25" y2="231.46038195855343" stroke="#44aa44" stroke-width="1" opacity="0.8"/>
<rect x="617.0" y="220.5388053636734" width="6.3" height="9.08086143843957" fill="#44aa44" opacity="0.8"/>
<rect x="617.0" y="314.62232413664697" width="6.3" height="15.37767586335304" fill="#44aa44" opacity="0.3"/>
<line x1="632.75" y1="225.20195042665583" x2="632.75" y2="237.59609914668832" stroke="#ff4444" stroke-width="1" opacity="0.8"/>
<rect x="627.5" y="227.16537992685906" width="6.3" height="1.9634295002031195" fill="#ff4444" opacity="0.8"/>
<rect x="627.5" y="317.277654519519" width="6.3" height="12.722345480480987" fill="#ff4444" opacity="0.3"/>
<line x1="643.25" y1="223.3612352702154" x2="643.25" y2="247.904104022755" stroke="#44aa44" stroke-width="1" opacity="0.8"/>
<rect x="638.0" y="224.5883787078424" width="6.3" height="23.315725314912612" fill="#44aa44" opacity="0.8"/>
<rect x="638.0" y="316.24397583319586" width="6.3" height="13.756024166804165" fill="#44aa44" opacity="0.3"/>
<line x1="653.75" y1="201.149939049167" x2="653.75" y2="247.6586753352296" stroke="#ff4444" stroke-width="1" opacity="0.8"/>
<rect x="648.5" y="212.68508736286068" width="6.3" height="34.850873628606195" fill="#ff4444" opacity="0.8"/>
<rect x="648.5" y="295.94712279566886" width="6.3" height="34.05287720433113" fill="#ff4444" opacity="0.3"/>
<line x1="664.25" y1="190.96464851686306" x2="664.25" y2="220.17066233238526" stroke="#ff4444" stroke-width="1" opacity="0.8"/>
<rect x="659.0" y="194.89150751726942" width="6.3" height="24.542868752539647" fill="#ff4444" opacity="0.8"/>
<rect x="659.0" y="298.59585172746296" width="6.3" height="31.404148272537043" fill="#ff4444" opacity="0.3"/>
<line x1="674.75" y1="158.69077610727345" x2="674.75" y2="198.2047947988623" stroke="#ff4444" stroke-width="1" opacity="0.8"/>
<rect x="669.5" y="168.38520926452668" width="6.3" height="29.81958553433563" fill="#ff4444" opacity="0.8"/>
<rect x="669.5" y="295.0" width="6.3" height="35.0" fill="#ff4444" opacity="0.3"/>
<rect x="177.25" y="212.36651767574162" width="8" height="8" fill="#ff9800" opacity="0.85"/>
<text x="181.25" y="209.36651767574162" text-anchor="middle" font-size="8" font-weight="bold" fill="#ff9800">前低</text>
<rect x="198.25" y="168.8029256399838" width="8" height="8" fill="#ff9800" opacity="0.85"/>
<text x="202.25" y="165.8029256399838" text-anchor="middle" font-size="8" font-weight="bold" fill="#ff9800">前高</text>
<rect x="292.75" y="280.472978464039" width="8" height="8" fill="#ff9800" opacity="0.85"/>
<text x="296.75" y="277.472978464039" text-anchor="middle" font-size="8" font-weight="bold" fill="#ff9800">前低</text>
<rect x="387.25" y="283.54083705810643" width="8" height="8" fill="#ff9800" opacity="0.85"/>
<text x="391.25" y="280.54083705810643" text-anchor="middle" font-size="8" font-weight="bold" fill="#ff9800">前低</text>
<rect x="481.75" y="232.24624136529866" width="8" height="8" fill="#ff9800" opacity="0.85"/>
<text x="485.75" y="229.24624136529866" text-anchor="middle" font-size="8" font-weight="bold" fill="#ff9800">前高</text>
<rect x="544.75" y="285.99512393336045" width="8" height="8" fill="#ff9800" opacity="0.85"/>
<text x="548.75" y="282.99512393336045" text-anchor="middle" font-size="8" font-weight="bold" fill="#ff9800">前低</text>
<rect x="597.25" y="198.49979683055668" width="8" height="8" fill="#ff9800" opacity="0.85"/>
<text x="601.25" y="195.49979683055668" text-anchor="middle" font-size="8" font-weight="bold" fill="#ff9800">前高</text>
<rect x="628.75" y="223.16537992685906" width="8" height="8" fill="#2196f3" opacity="0.85"/>
<text x="632.75" y="220.16537992685906" text-anchor="middle" font-size="8" font-weight="bold" fill="#2196f3">中</text>
<line x1="674.75" y1="168.38520926452668" x2="674.75" y2="42" stroke="#4caf50" stroke-width="1" stroke-dasharray="3,2"/>
<rect x="654.75" y="28" width="40" height="14" rx="3" fill="#2563eb" opacity="0.9"/>
<text x="674.75" y="38" text-anchor="middle" font-size="9" font-weight="bold" fill="white">关注</text>
<text x="55.25" y="355" fill="#666666" font-size="8" text-anchor="middle" transform="rotate(-30,55.25,355)">02/11</text>
<text x="107.75" y="355" fill="#666666" font-size="8" text-anchor="middle" transform="rotate(-30,107.75,355)">02/26</text>
<text x="160.25" y="355" fill="#666666" font-size="8" text-anchor="middle" transform="rotate(-30,160.25,355)">03/05</text>
<text x="212.75" y="355" fill="#666666" font-size="8" text-anchor="middle" transform="rotate(-30,212.75,355)">03/12</text>
<text x="265.25" y="355" fill="#666666" font-size="8" text-anchor="middle" transform="rotate(-30,265.25,355)">03/19</text>
<text x="317.75" y="355" fill="#666666" font-size="8" text-anchor="middle" transform="rotate(-30,317.75,355)">03/26</text>
<text x="370.25" y="355" fill="#666666" font-size="8" text-anchor="middle" transform="rotate(-30,370.25,355)">04/02</text>
<text x="422.75" y="355" fill="#666666" font-size="8" text-anchor="middle" transform="rotate(-30,422.75,355)">04/10</text>
<text x="475.25" y="355" fill="#666666" font-size="8" text-anchor="middle" transform="rotate(-30,475.25,355)">04/17</text>
<text x="527.75" y="355" fill="#666666" font-size="8" text-anchor="middle" transform="rotate(-30,527.75,355)">04/24</text>
<text x="580.25" y="355" fill="#666666" font-size="8" text-anchor="middle" transform="rotate(-30,580.25,355)">05/06</text>
<text x="632.75" y="355" fill="#666666" font-size="8" text-anchor="middle" transform="rotate(-30,632.75,355)">05/13</text>
<text x="674.75" y="355" fill="#666666" font-size="8" text-anchor="middle" transform="rotate(-30,674.75,355)">05/19</text>
<rect x="50" y="334" width="7" height="7" fill="#ff9800" opacity="0.8" rx="1"/>
<text x="60" y="340" font-family="sans-serif" font-size="8" fill="#888888">第1类</text>
<rect x="120" y="334" width="7" height="7" fill="#2196f3" opacity="0.8" rx="1"/>
<text x="130" y="340" font-family="sans-serif" font-size="8" fill="#888888">第2类</text>
<rect x="190" y="334" width="7" height="7" fill="#ffd700" opacity="0.8" rx="1"/>
<text x="200" y="340" font-family="sans-serif" font-size="8" fill="#888888">EMA5</text>
<rect x="260" y="334" width="7" height="7" fill="#ff6b6b" opacity="0.8" rx="1"/>
<text x="270" y="340" font-family="sans-serif" font-size="8" fill="#888888">EMA10</text>
<rect x="330" y="334" width="7" height="7" fill="#4ecdc4" opacity="0.8" rx="1"/>
<text x="340" y="340" font-family="sans-serif" font-size="8" fill="#888888">EMA20</text>
</svg>