<svg xmlns="http://www.w3.org/2000/svg" width="700" height="380" viewBox="0 0 700 380">
<rect width="700" height="380" fill="#1a1a2e"/>
<text x="350.0" y="20" text-anchor="middle" font-family="sans-serif" font-size="14" font-weight="bold" fill="#ffffff">中际旭创(300308) 关键点图</text>
<line x1="50" y1="27.999832765641024" x2="680" y2="27.999832765641024" stroke="#2a2a4e" stroke-width="0.5"/>
<text x="46" y="30.999832765641024" text-anchor="end" font-size="9" fill="#666666">1187.86</text>
<line x1="50" y1="128.66655517709398" x2="680" y2="128.66655517709398" stroke="#2a2a4e" stroke-width="0.5"/>
<text x="46" y="131.66655517709398" text-anchor="end" font-size="9" fill="#666666">947.08</text>
<line x1="50" y1="229.333277588547" x2="680" y2="229.333277588547" stroke="#2a2a4e" stroke-width="0.5"/>
<text x="46" y="232.333277588547" text-anchor="end" font-size="9" fill="#666666">706.3</text>
<line x1="50" y1="330.0" x2="680" y2="330.0" stroke="#2a2a4e" stroke-width="0.5"/>
<text x="46" y="333.0" text-anchor="end" font-size="9" fill="#666666">465.52</text>
<polyline points="55.25,302.2432772618309 65.75,302.86343800985946 76.25,302.7835371494393 86.75,299.5249446946294 97.25,295.67045079695737 107.75,292.2437121085372 118.25,295.28563398434375 128.75,292.21572119078735 139.25,291.11398679020675 149.75,293.83567394287786 160.25,293.14161665937445 170.75,294.2843616502874 181.25,297.7623563586286 191.75,297.15302459503283 202.25,295.6765035215811 212.75,297.4626720203604 223.25,297.64725762611596 233.75,295.02767120870897 244.25,295.88734902514955 254.75,291.3040748330258 265.25,288.9174961410191 275.75,282.19792333643375 286.25,279.4435092705889 296.75,277.10971100861093 307.25,272.04053034156937 317.75,270.64001647859914 328.25,271.9640044167081 338.75,274.0897717774882 349.25,278.2481998862604 359.75,276.4967958806461 370.25,278.0983154716586 380.75,275.7488397963799 391.25,272.3694235038304 401.75,260.55485483188926 412.25,251.99838932391813 422.75,240.49244034697185 433.25,232.35494511007983 443.75,222.0522794807659 454.25,214.21108920626313 464.75,204.85433397515186 475.25,192.84830538791599 485.75,184.98364829560785 496.25,177.6696247548845 506.75,169.76109268419208 517.25,163.04216076488328 527.75,159.9578860968271 538.25,162.07698748162926 548.75,167.95348550431135 559.25,168.94454956993454 569.75,168.00259633975182 580.25,167.58367046840368 590.75,164.31228514739098 601.25,160.94260403135618 611.75,151.15248674258686 622.25,133.7750192223948 632.75,117.84055392144913 643.25,103.20395243769735 653.75,97.36647021453192 664.25,94.15350817277351 674.75,94.10196296600468" fill="none" stroke="#ffd700" stroke-width="1" opacity="0.6"/>
<polyline points="55.25,302.2432772618309 65.75,302.58154676075554 76.25,302.58921742763613 86.75,300.8471342198859 97.25,298.50428490747265 107.75,296.11991214824064 118.25,297.07437861873456 128.75,295.07465443417817 139.25,293.953902353245 149.75,294.9221106977859 160.25,294.3460000422553 170.75,294.75033669495673 181.25,296.56270198229396 191.75,296.4484581796662 202.25,295.7711860333046 212.75,296.7282447577799 223.25,296.96246004502484 233.75,295.65810337754675 244.25,296.01239451945287 254.75,293.4896912338757 265.25,291.79053623808113 275.75,287.6029437815687 286.25,285.11780511926514 296.75,282.8131340947906 307.25,279.0111404425535 317.75,276.9798401352999 328.25,276.5493201639592 338.75,276.8751358612481 349.25,278.636939541713 359.75,277.6109483285684 370.25,278.2819312967712 380.75,276.96701441478046 391.25,274.90221014277154 401.75,267.9973932964507 412.25,261.9770414803644 422.75,253.8867689190398 433.25,247.01280268581363 443.75,238.72810187423627 454.25,231.41912128933106 464.75,223.18670351180347 475.25,213.3048025484654 485.75,205.29562646892472 496.25,197.61307214247253 506.75,189.67324603344252 517.25,182.38798255941037 527.75,177.18822877782935 538.25,175.21131268208467 548.75,176.02861611255574 559.25,175.10099094685123 569.75,173.46784529822128 580.25,172.24565864867327 590.75,169.61363244079914 601.25,166.81174323325143 611.75,160.4045630390326 622.25,149.2437487013923 632.75,137.7397259046951 643.25,126.13809382569485 653.75,118.78416872433236 664.25,113.1375169725004 674.75,109.65776344158525" fill="none" stroke="#ff6b6b" stroke-width="1" opacity="0.6"/>
<polyline points="55.25,302.2432772618309 65.75,302.4204660469819 76.25,302.4398250357073 86.75,301.5415331070695 97.25,300.248193097026 107.75,298.8331494431851 118.25,299.07470451868716 128.75,297.83672271725743 139.25,296.9866079812372 149.75,297.2049356257118 160.25,296.685751479679 170.75,296.6747133989585 181.25,297.4407736252778 191.75,297.2973057626648 202.25,296.86170153523744 212.75,297.25915939073093 223.25,297.3312802904353 233.75,296.61292010790766 244.25,296.7075662555384 254.75,295.3199434167994 265.25,294.2556001158666 275.75,291.827331316952 286.25,290.1232693952327 296.75,288.4393498799396 307.25,285.9119993206583 317.75,284.1907602189441 328.25,283.2784954640852 338.75,282.8082869912246 349.25,283.166074525756 359.75,282.19730436800944 370.25,282.111975823788 380.75,281.05844369255317 391.25,279.5872196188559 401.75,275.52421941591786 412.25,271.6538612151615 422.75,266.4944975178203 433.25,261.6931124814846 443.75,255.95538255202305 454.25,250.48617551442635 464.75,244.358046752379 475.25,237.16549451057568 485.75,230.69776494871056 496.25,224.2543185415417 506.75,217.55810044642416 517.25,211.08630963498047 527.75,205.6294550755266 538.25,201.8852393779749 548.75,199.77297672766065 559.25,197.0257101537102 569.75,194.08218441329842 580.25,191.47872101448024 590.75,188.26832039456454 601.25,185.02402719501427 611.75,179.93338195406514 622.25,172.22735359482184 632.75,164.0125221400348 643.25,155.43330569528803 653.75,148.79122951175594 664.25,142.9756442334227 674.75,138.31118978761737" fill="none" stroke="#4ecdc4" stroke-width="1" opacity="0.6"/>
<line x1="55.25" y1="293.0077597850097" x2="55.25" y2="306.16492298082505" stroke="#44aa44" stroke-width="1" opacity="0.8"/>
<rect x="50.0" y="294.2578366186763" width="6.3" height="7.985440643154561" fill="#44aa44" opacity="0.8"/>
<rect x="50.0" y="304.1899249455128" width="6.3" height="25.810075054487193" fill="#44aa44" opacity="0.3"/>
<line x1="65.75" y1="296.1935743243206" x2="65.75" y2="305.80954996790985" stroke="#44aa44" stroke-width="1" opacity="0.8"/>
<rect x="60.5" y="300.9513918384095" width="6.3" height="3.1523676675070647" fill="#44aa44" opacity="0.8"/>
<rect x="60.5" y="310.3867396559383" width="6.3" height="19.61326034406172" fill="#44aa44" opacity="0.3"/>
<line x1="76.25" y1="297.27223593999275" x2="76.25" y2="309.3131097893567" stroke="#ff4444" stroke-width="1" opacity="0.8"/>
<rect x="71.0" y="302.62373542859893" width="6.3" height="2.926601282831541" fill="#ff4444" opacity="0.8"/>
<rect x="71.0" y="313.0741016135829" width="6.3" height="16.9258983864171" fill="#ff4444" opacity="0.3"/>
<line x1="86.75" y1="285.4738519112063" x2="86.75" y2="306.38650850652516" stroke="#ff4444" stroke-width="1" opacity="0.8"/>
<rect x="81.5" y="293.0077597850097" width="6.3" height="5.01703077056834" fill="#ff4444" opacity="0.8"/>
<rect x="81.5" y="306.82711221028165" width="6.3" height="23.172887789718345" fill="#ff4444" opacity="0.3"/>
<line x1="97.25" y1="286.3769174499086" x2="97.25" y2="295.51627517029385" stroke="#ff4444" stroke-width="1" opacity="0.8"/>
<rect x="92.0" y="287.9614630016131" width="6.3" height="6.718640373586084" fill="#ff4444" opacity="0.8"/>
<rect x="92.0" y="316.0405332073927" width="6.3" height="13.959466792607309" fill="#ff4444" opacity="0.3"/>
<line x1="107.75" y1="284.64604183406254" x2="107.75" y2="290.9173302972729" stroke="#ff4444" stroke-width="1" opacity="0.8"/>
<rect x="102.5" y="285.3902347316968" width="6.3" height="2.5712282699162756" fill="#ff4444" opacity="0.8"/>
<rect x="102.5" y="313.5703821829793" width="6.3" height="16.42961781702071" fill="#ff4444" opacity="0.3"/>
<line x1="118.25" y1="290.5076061176765" x2="118.25" y2="302.5777459798687" stroke="#44aa44" stroke-width="1" opacity="0.8"/>
<rect x="113.0" y="292.5896738874623" width="6.3" height="8.779803848494566" fill="#44aa44" opacity="0.8"/>
<rect x="113.0" y="307.4401574911638" width="6.3" height="22.559842508836216" fill="#44aa44" opacity="0.3"/>
<line x1="128.75" y1="282.1375264487784" x2="128.75" y2="307.2226803016199" stroke="#ff4444" stroke-width="1" opacity="0.8"/>
<rect x="123.5" y="286.07589560367444" width="6.3" height="21.146784697945463" fill="#ff4444" opacity="0.8"/>
<rect x="123.5" y="297.9529128991152" width="6.3" height="32.04708710088483" fill="#ff4444" opacity="0.3"/>
<line x1="139.25" y1="274.1771709594767" x2="139.25" y2="289.1279226557702" stroke="#44aa44" stroke-width="1" opacity="0.8"/>
<rect x="134.0" y="285.98391670621413" width="6.3" height="2.9266012828314842" fill="#44aa44" opacity="0.8"/>
<rect x="134.0" y="304.45213017089816" width="6.3" height="25.54786982910183" fill="#44aa44" opacity="0.3"/>
<line x1="149.75" y1="289.03594375830977" x2="149.75" y2="300.3242629920885" stroke="#44aa44" stroke-width="1" opacity="0.8"/>
<rect x="144.5" y="292.9993980670588" width="6.3" height="6.279650181161287" fill="#44aa44" opacity="0.8"/>
<rect x="144.5" y="310.01997560364293" width="6.3" height="19.980024396357095" fill="#44aa44" opacity="0.3"/>
<line x1="160.25" y1="280.0470969610416" x2="160.25" y2="293.593080041576" stroke="#ff4444" stroke-width="1" opacity="0.8"/>
<rect x="155.0" y="291.7535020923676" width="6.3" height="1" fill="#ff4444" opacity="0.8"/>
<rect x="155.0" y="305.3683286545672" width="6.3" height="24.631671345432803" fill="#ff4444" opacity="0.3"/>
<line x1="170.75" y1="290.5076061176765" x2="170.75" y2="300.090134889462" stroke="#44aa44" stroke-width="1" opacity="0.8"/>
<rect x="165.5" y="293.42584568255705" width="6.3" height="3.1440059495561172" fill="#44aa44" opacity="0.8"/>
<rect x="165.5" y="315.72366633811134" width="6.3" height="14.27633366188867" fill="#44aa44" opacity="0.3"/>
<line x1="181.25" y1="303.75256735197684" x2="181.25" y2="313.0758828672829" stroke="#ff4444" stroke-width="1" opacity="0.8"/>
<rect x="176.0" y="304.7183457753112" width="6.3" height="2.462525936553959" fill="#ff4444" opacity="0.8"/>
<rect x="176.0" y="309.5446538528229" width="6.3" height="20.455346147177117" fill="#ff4444" opacity="0.3"/>
<line x1="191.75" y1="295.10655099069743" x2="191.75" y2="303.03345960819536" stroke="#ff4444" stroke-width="1" opacity="0.8"/>
<rect x="186.5" y="295.9343610678412" width="6.3" height="2.9266012828314842" fill="#ff4444" opacity="0.8"/>
<rect x="186.5" y="311.601542000398" width="6.3" height="18.39845799960196" fill="#ff4444" opacity="0.3"/>
<line x1="202.25" y1="286.7782799115541" x2="202.25" y2="293.42584568255705" stroke="#44aa44" stroke-width="1" opacity="0.8"/>
<rect x="197.0" y="291.7535020923676" width="6.3" height="1" fill="#44aa44" opacity="0.8"/>
<rect x="197.0" y="314.46908584704903" width="6.3" height="15.530914152950958" fill="#44aa44" opacity="0.3"/>
<line x1="212.75" y1="289.002496886506" x2="212.75" y2="303.66895017246736" stroke="#44aa44" stroke-width="1" opacity="0.8"/>
<rect x="207.5" y="291.6489806179808" width="6.3" height="9.386028399938255" fill="#44aa44" opacity="0.8"/>
<rect x="207.5" y="314.459625815321" width="6.3" height="15.540374184678997" fill="#44aa44" opacity="0.3"/>
<line x1="223.25" y1="295.14835958045217" x2="223.25" y2="305.12806995490763" stroke="#ff4444" stroke-width="1" opacity="0.8"/>
<rect x="218.0" y="298.0164288376271" width="6.3" height="6.488693129934973" fill="#ff4444" opacity="0.8"/>
<rect x="218.0" y="316.223182789479" width="6.3" height="13.776817210521004" fill="#ff4444" opacity="0.3"/>
<line x1="233.75" y1="288.40881491198877" x2="233.75" y2="298.72717486345755" stroke="#ff4444" stroke-width="1" opacity="0.8"/>
<rect x="228.5" y="289.78849837389504" width="6.3" height="5.288786603974131" fill="#ff4444" opacity="0.8"/>
<rect x="228.5" y="312.1717909712162" width="6.3" height="17.828209028783817" fill="#ff4444" opacity="0.3"/>
<line x1="244.25" y1="283.0238685515788" x2="244.25" y2="299.2790482482201" stroke="#44aa44" stroke-width="1" opacity="0.8"/>
<rect x="239.0" y="286.31838542425197" width="6.3" height="11.28831923377868" fill="#44aa44" opacity="0.8"/>
<rect x="239.0" y="310.476184268925" width="6.3" height="19.52381573107499" fill="#44aa44" opacity="0.3"/>
<line x1="254.75" y1="281.2804503588063" x2="254.75" y2="294.68010337519917" stroke="#ff4444" stroke-width="1" opacity="0.8"/>
<rect x="249.5" y="282.1375264487784" width="6.3" height="10.92876536188794" fill="#ff4444" opacity="0.8"/>
<rect x="249.5" y="305.44623483643966" width="6.3" height="24.553765163560357" fill="#ff4444" opacity="0.3"/>
<line x1="265.25" y1="276.7860269601722" x2="265.25" y2="286.3601940140067" stroke="#44aa44" stroke-width="1" opacity="0.8"/>
<rect x="260.0" y="282.1375264487784" width="6.3" height="2.0068123082272677" fill="#44aa44" opacity="0.8"/>
<rect x="260.0" y="308.46162384918824" width="6.3" height="21.538376150811764" fill="#44aa44" opacity="0.3"/>
<line x1="275.75" y1="260.0960379300816" x2="275.75" y2="272.061656317887" stroke="#ff4444" stroke-width="1" opacity="0.8"/>
<rect x="270.5" y="268.7587777272629" width="6.3" height="2.9266012828314842" fill="#ff4444" opacity="0.8"/>
<rect x="270.5" y="295.0" width="6.3" height="35.0" fill="#ff4444" opacity="0.3"/>
<line x1="286.25" y1="266.20845375222405" x2="286.25" y2="280.0470969610416" stroke="#ff4444" stroke-width="1" opacity="0.8"/>
<rect x="281.0" y="273.93468113889924" width="6.3" height="3.8923797061659116" fill="#ff4444" opacity="0.8"/>
<rect x="281.0" y="305.39976395785476" width="6.3" height="24.600236042145255" fill="#ff4444" opacity="0.3"/>
<line x1="296.75" y1="271.6853790100944" x2="296.75" y2="283.39178414142043" stroke="#ff4444" stroke-width="1" opacity="0.8"/>
<rect x="291.5" y="272.4421144846551" width="6.3" height="1.7517799107234282" fill="#ff4444" opacity="0.8"/>
<rect x="291.5" y="311.63133954056696" width="6.3" height="18.368660459433034" fill="#ff4444" opacity="0.3"/>
<line x1="307.25" y1="259.1428020836737" x2="307.25" y2="267.06552984219616" stroke="#ff4444" stroke-width="1" opacity="0.8"/>
<rect x="302.0" y="261.90216900748624" width="6.3" height="1.421492051661005" fill="#ff4444" opacity="0.8"/>
<rect x="302.0" y="308.18712305219924" width="6.3" height="21.812876947800774" fill="#ff4444" opacity="0.3"/>
<line x1="317.75" y1="254.96194310820005" x2="317.75" y2="268.4117664322986" stroke="#44aa44" stroke-width="1" opacity="0.8"/>
<rect x="312.5" y="262.53347871278277" width="6.3" height="5.305510039875912" fill="#44aa44" opacity="0.8"/>
<rect x="312.5" y="312.9224700951325" width="6.3" height="17.0775299048675" fill="#44aa44" opacity="0.3"/>
<line x1="328.25" y1="269.6451198300633" x2="328.25" y2="278.5169025760183" stroke="#44aa44" stroke-width="1" opacity="0.8"/>
<rect x="323.0" y="274.25660728001066" width="6.3" height="1" fill="#44aa44" opacity="0.8"/>
<rect x="323.0" y="315.4209167269501" width="6.3" height="14.57908327304991" fill="#44aa44" opacity="0.3"/>
<line x1="338.75" y1="275.6237481649905" x2="338.75" y2="282.55561234632574" stroke="#ff4444" stroke-width="1" opacity="0.8"/>
<rect x="333.5" y="278.34130649904836" width="6.3" height="1.7057904619932174" fill="#ff4444" opacity="0.8"/>
<rect x="333.5" y="316.40040500656386" width="6.3" height="13.599594993436135" fill="#ff4444" opacity="0.3"/>
<line x1="349.25" y1="279.67081965324894" x2="349.25" y2="292.5896738874623" stroke="#44aa44" stroke-width="1" opacity="0.8"/>
<rect x="344.0" y="285.9002995267046" width="6.3" height="1" fill="#44aa44" opacity="0.8"/>
<rect x="344.0" y="313.0243051659988" width="6.3" height="16.975694834001196" fill="#44aa44" opacity="0.3"/>
<line x1="359.75" y1="272.9396367027365" x2="359.75" y2="281.63582337172153" stroke="#ff4444" stroke-width="1" opacity="0.8"/>
<rect x="354.5" y="272.99398786941765" width="6.3" height="4.5445937063398105" fill="#ff4444" opacity="0.8"/>
<rect x="354.5" y="313.40109401833575" width="6.3" height="16.59890598166426" fill="#ff4444" opacity="0.3"/>
<line x1="370.25" y1="275.1262259469092" x2="370.25" y2="282.6852189745654" stroke="#44aa44" stroke-width="1" opacity="0.8"/>
<rect x="365.0" y="276.69822892168725" width="6.3" height="4.6031257319964425" fill="#44aa44" opacity="0.8"/>
<rect x="365.0" y="318.47650762501286" width="6.3" height="11.523492374987146" fill="#44aa44" opacity="0.3"/>
<line x1="380.75" y1="263.32366105914724" x2="380.75" y2="276.13799381897377" stroke="#ff4444" stroke-width="1" opacity="0.8"/>
<rect x="375.5" y="271.0498884458225" width="6.3" height="2.725920052008746" fill="#ff4444" opacity="0.8"/>
<rect x="375.5" y="311.13510966383853" width="6.3" height="18.864890336161462" fill="#ff4444" opacity="0.3"/>
<line x1="391.25" y1="258.44877949374506" x2="391.25" y2="274.7374060621901" stroke="#ff4444" stroke-width="1" opacity="0.8"/>
<rect x="386.0" y="265.6105909187313" width="6.3" height="4.820530398721019" fill="#ff4444" opacity="0.8"/>
<rect x="386.0" y="314.46525465118225" width="6.3" height="15.534745348817733" fill="#ff4444" opacity="0.3"/>
<line x1="401.75" y1="236.87554718030134" x2="401.75" y2="255.7981149032948" stroke="#ff4444" stroke-width="1" opacity="0.8"/>
<rect x="396.5" y="236.92571748800702" width="6.3" height="14.469952914114089" fill="#ff4444" opacity="0.8"/>
<rect x="396.5" y="304.2227952412471" width="6.3" height="25.77720475875285" fill="#ff4444" opacity="0.3"/>
<line x1="412.25" y1="231.96721874309534" x2="412.25" y2="241.16092763016175" stroke="#ff4444" stroke-width="1" opacity="0.8"/>
<rect x="407.0" y="234.88545830797594" width="6.3" height="4.607306590971859" fill="#ff4444" opacity="0.8"/>
<rect x="407.0" y="313.77709388478934" width="6.3" height="16.222906115210655" fill="#ff4444" opacity="0.3"/>
<line x1="422.75" y1="213.97280171265706" x2="422.75" y2="234.47155326940404" stroke="#ff4444" stroke-width="1" opacity="0.8"/>
<rect x="417.5" y="217.4805423930794" width="6.3" height="14.486676350015955" fill="#ff4444" opacity="0.8"/>
<rect x="417.5" y="308.50106079514103" width="6.3" height="21.49893920485895" fill="#ff4444" opacity="0.3"/>
<line x1="433.25" y1="213.57143925101158" x2="433.25" y2="226.01785642099642" stroke="#44aa44" stroke-width="1" opacity="0.8"/>
<rect x="428.0" y="215.74548591825786" width="6.3" height="1" fill="#44aa44" opacity="0.8"/>
<rect x="428.0" y="315.1251997486089" width="6.3" height="14.874800251391068" fill="#44aa44" opacity="0.3"/>
<line x1="443.75" y1="195.91985265656209" x2="443.75" y2="211.5729886607352" stroke="#ff4444" stroke-width="1" opacity="0.8"/>
<rect x="438.5" y="201.44694822213816" width="6.3" height="9.615975643589252" fill="#ff4444" opacity="0.8"/>
<rect x="438.5" y="310.97930769858965" width="6.3" height="19.02069230141036" fill="#ff4444" opacity="0.3"/>
<line x1="454.25" y1="186.4669305130163" x2="454.25" y2="204.37354950496967" stroke="#44aa44" stroke-width="1" opacity="0.8"/>
<rect x="449.0" y="195.59374565647514" width="6.3" height="2.93496300078246" fill="#44aa44" opacity="0.8"/>
<rect x="449.0" y="308.97862992090717" width="6.3" height="21.02137007909282" fill="#44aa44" opacity="0.3"/>
<line x1="464.75" y1="185.9317805641557" x2="464.75" y2="205.89956303101752" stroke="#ff4444" stroke-width="1" opacity="0.8"/>
<rect x="459.5" y="186.14082351292936" width="6.3" height="15.569518824663618" fill="#ff4444" opacity="0.8"/>
<rect x="459.5" y="311.37563597480016" width="6.3" height="18.624364025199863" fill="#ff4444" opacity="0.3"/>
<line x1="475.25" y1="162.98304564778118" x2="475.25" y2="181.69657042200092" stroke="#ff4444" stroke-width="1" opacity="0.8"/>
<rect x="470.0" y="168.8362482134442" width="6.3" height="4.180858975473569" fill="#ff4444" opacity="0.8"/>
<rect x="470.0" y="304.09659194493133" width="6.3" height="25.903408055068653" fill="#ff4444" opacity="0.3"/>
<line x1="485.75" y1="157.1382048000691" x2="485.75" y2="173.19270326588764" stroke="#ff4444" stroke-width="1" opacity="0.8"/>
<rect x="480.5" y="169.25433411099155" width="6.3" height="1" fill="#ff4444" opacity="0.8"/>
<rect x="480.5" y="312.2815392975318" width="6.3" height="17.71846070246817" fill="#ff4444" opacity="0.3"/>
<line x1="496.25" y1="161.7287879551391" x2="496.25" y2="173.85327898401252" stroke="#ff4444" stroke-width="1" opacity="0.8"/>
<rect x="491.0" y="163.0415776734378" width="6.3" height="6.317277911940579" fill="#ff4444" opacity="0.8"/>
<rect x="491.0" y="313.6783894111224" width="6.3" height="16.321610588877597" fill="#ff4444" opacity="0.3"/>
<line x1="506.75" y1="151.19302333694566" x2="506.75" y2="167.58199052080212" stroke="#ff4444" stroke-width="1" opacity="0.8"/>
<rect x="501.5" y="153.9440285428073" width="6.3" height="11.422106720993838" fill="#ff4444" opacity="0.8"/>
<rect x="501.5" y="310.8678767656414" width="6.3" height="19.13212323435859" fill="#ff4444" opacity="0.3"/>
<line x1="517.25" y1="139.99250214165193" x2="517.25" y2="157.63990787712595" stroke="#ff4444" stroke-width="1" opacity="0.8"/>
<rect x="512.0" y="149.6042969262657" width="6.3" height="2.9266012828315127" fill="#ff4444" opacity="0.8"/>
<rect x="512.0" y="309.86140178930634" width="6.3" height="20.138598210693658" fill="#ff4444" opacity="0.3"/>
<line x1="527.75" y1="142.07875077041325" x2="527.75" y2="167.36040499510204" stroke="#44aa44" stroke-width="1" opacity="0.8"/>
<rect x="522.5" y="148.2455177592368" width="6.3" height="5.543819001477971" fill="#44aa44" opacity="0.8"/>
<rect x="522.5" y="305.0511218844481" width="6.3" height="24.948878115551878" fill="#44aa44" opacity="0.3"/>
<line x1="538.25" y1="148.35003923362365" x2="538.25" y2="167.58199052080212" stroke="#44aa44" stroke-width="1" opacity="0.8"/>
<rect x="533.0" y="148.768125131171" width="6.3" height="17.547065120062655" fill="#44aa44" opacity="0.8"/>
<rect x="533.0" y="309.3233244652731" width="6.3" height="20.676675534726872" fill="#44aa44" opacity="0.3"/>
<line x1="548.75" y1="167.58199052080212" x2="548.75" y2="181.37882513986494" stroke="#44aa44" stroke-width="1" opacity="0.8"/>
<rect x="543.5" y="167.58199052080212" width="6.3" height="12.124491028873393" fill="#44aa44" opacity="0.8"/>
<rect x="543.5" y="310.82068579120914" width="6.3" height="19.17931420879088" fill="#44aa44" opacity="0.3"/>
<line x1="559.25" y1="163.8192174428759" x2="559.25" y2="183.37309487116585" stroke="#ff4444" stroke-width="1" opacity="0.8"/>
<rect x="554.0" y="170.92667770118098" width="6.3" height="12.44641716998487" fill="#ff4444" opacity="0.8"/>
<rect x="554.0" y="313.63985973394483" width="6.3" height="16.360140266055176" fill="#ff4444" opacity="0.3"/>
<line x1="569.75" y1="158.94851673644916" x2="569.75" y2="171.34476359872835" stroke="#44aa44" stroke-width="1" opacity="0.8"/>
<rect x="564.5" y="163.54328075049466" width="6.3" height="2.575409128891721" fill="#44aa44" opacity="0.8"/>
<rect x="564.5" y="316.1758728822488" width="6.3" height="13.824127117751196" fill="#44aa44" opacity="0.3"/>
<line x1="580.25" y1="152.94898410664456" x2="580.25" y2="173.2470544325688" stroke="#44aa44" stroke-width="1" opacity="0.8"/>
<rect x="575.0" y="153.15802705541824" width="6.3" height="13.587791670289164" fill="#44aa44" opacity="0.8"/>
<rect x="575.0" y="309.8928364426879" width="6.3" height="20.107163557312113" fill="#44aa44" opacity="0.3"/>
<line x1="590.75" y1="152.88627122201248" x2="590.75" y2="175.52562257420195" stroke="#ff4444" stroke-width="1" opacity="0.8"/>
<rect x="585.5" y="157.7695145053656" width="6.3" height="8.140132425247089" fill="#ff4444" opacity="0.8"/>
<rect x="585.5" y="311.98524910209915" width="6.3" height="18.014750897900846" fill="#ff4444" opacity="0.3"/>
<line x1="601.25" y1="148.78902942604833" x2="601.25" y2="164.4212611353441" stroke="#ff4444" stroke-width="1" opacity="0.8"/>
<rect x="596.0" y="154.20324179928664" width="6.3" height="8.800708143371878" fill="#ff4444" opacity="0.8"/>
<rect x="596.0" y="317.1552077840467" width="6.3" height="12.84479221595329" fill="#ff4444" opacity="0.3"/>
<line x1="611.75" y1="128.78780008738272" x2="611.75" y2="160.89261616004438" stroke="#ff4444" stroke-width="1" opacity="0.8"/>
<rect x="606.5" y="131.57225216504813" width="6.3" height="21.351646787743647" fill="#ff4444" opacity="0.8"/>
<rect x="606.5" y="309.0304300286876" width="6.3" height="20.969569971312406" fill="#ff4444" opacity="0.3"/>
<line x1="622.25" y1="96.96728242505327" x2="622.25" y2="123.26488538078212" stroke="#ff4444" stroke-width="1" opacity="0.8"/>
<rect x="617.0" y="99.02008418201078" width="6.3" height="23.826715301223985" fill="#ff4444" opacity="0.8"/>
<rect x="617.0" y="307.55085857967464" width="6.3" height="22.449141420325365" fill="#ff4444" opacity="0.3"/>
<line x1="632.75" y1="84.71736562691564" x2="632.75" y2="110.25405224910831" stroke="#ff4444" stroke-width="1" opacity="0.8"/>
<rect x="627.5" y="85.97162331955771" width="6.3" height="20.703613646545236" fill="#ff4444" opacity="0.8"/>
<rect x="627.5" y="313.10209761432134" width="6.3" height="16.897902385678655" fill="#ff4444" opacity="0.3"/>
<line x1="643.25" y1="69.38197490487849" x2="643.25" y2="96.04749345044911" stroke="#ff4444" stroke-width="1" opacity="0.8"/>
<rect x="638.0" y="73.9307494701938" width="6.3" height="5.435116668115654" fill="#ff4444" opacity="0.8"/>
<rect x="638.0" y="310.46568828703386" width="6.3" height="19.534311712966154" fill="#ff4444" opacity="0.3"/>
<line x1="653.75" y1="64.78721089083311" x2="653.75" y2="92.32652896227758" stroke="#44aa44" stroke-width="1" opacity="0.8"/>
<rect x="648.5" y="77.6977034070955" width="6.3" height="7.993802361105537" fill="#44aa44" opacity="0.8"/>
<rect x="648.5" y="312.0461647914279" width="6.3" height="17.953835208572105" fill="#44aa44" opacity="0.3"/>
<line x1="664.25" y1="75.18500716283587" x2="664.25" y2="93.9863299755406" stroke="#ff4444" stroke-width="1" opacity="0.8"/>
<rect x="659.0" y="87.72758408925662" width="6.3" height="6.258745886283975" fill="#ff4444" opacity="0.8"/>
<rect x="659.0" y="314.1987022045666" width="6.3" height="15.801297795433435" fill="#ff4444" opacity="0.3"/>
<line x1="674.75" y1="90.91339862856745" x2="674.75" y2="111.1905646596144" stroke="#ff4444" stroke-width="1" opacity="0.8"/>
<rect x="669.5" y="93.998872552467" width="6.3" height="1.6723435901894277" fill="#ff4444" opacity="0.8"/>
<rect x="669.5" y="312.2738736562683" width="6.3" height="17.72612634373172" fill="#ff4444" opacity="0.3"/>
<rect x="135.25" y="270.1771709594767" width="8" height="8" fill="#ff9800" opacity="0.85"/>
<text x="139.25" y="267.1771709594767" text-anchor="middle" font-size="8" font-weight="bold" fill="#ff9800">前高</text>
<rect x="177.25" y="309.0758828672829" width="8" height="8" fill="#ff9800" opacity="0.85"/>
<text x="181.25" y="306.0758828672829" text-anchor="middle" font-size="8" font-weight="bold" fill="#ff9800">前低</text>
<rect x="198.25" y="288.7234613746775" width="8" height="8" fill="#2196f3" opacity="0.85"/>
<text x="202.25" y="285.7234613746775" text-anchor="middle" font-size="8" font-weight="bold" fill="#2196f3">中</text>
<rect x="292.75" y="268.4421144846551" width="8" height="8" fill="#2196f3" opacity="0.85"/>
<text x="296.75" y="265.4421144846551" text-anchor="middle" font-size="8" font-weight="bold" fill="#2196f3">中</text>
<rect x="313.75" y="250.96194310820005" width="8" height="8" fill="#ff9800" opacity="0.85"/>
<text x="317.75" y="247.96194310820005" text-anchor="middle" font-size="8" font-weight="bold" fill="#ff9800">前高</text>
<rect x="345.25" y="288.5896738874623" width="8" height="8" fill="#ff9800" opacity="0.85"/>
<text x="349.25" y="285.5896738874623" text-anchor="middle" font-size="8" font-weight="bold" fill="#ff9800">前低</text>
<rect x="429.25" y="212.07995463629572" width="8" height="8" fill="#2196f3" opacity="0.85"/>
<text x="433.25" y="209.07995463629572" text-anchor="middle" font-size="8" font-weight="bold" fill="#2196f3">中</text>
<rect x="492.25" y="159.0415776734378" width="8" height="8" fill="#2196f3" opacity="0.85"/>
<text x="496.25" y="156.0415776734378" text-anchor="middle" font-size="8" font-weight="bold" fill="#2196f3">中</text>
<rect x="513.25" y="135.99250214165193" width="8" height="8" fill="#ff9800" opacity="0.85"/>
<text x="517.25" y="132.99250214165193" text-anchor="middle" font-size="8" font-weight="bold" fill="#ff9800">前高</text>
<rect x="555.25" y="179.37309487116585" width="8" height="8" fill="#ff9800" opacity="0.85"/>
<text x="559.25" y="176.37309487116585" text-anchor="middle" font-size="8" font-weight="bold" fill="#ff9800">前低</text>
<rect x="555.25" y="166.92667770118098" width="8" height="8" fill="#2196f3" opacity="0.85"/>
<text x="559.25" y="163.92667770118098" text-anchor="middle" font-size="8" font-weight="bold" fill="#2196f3">中</text>
<rect x="565.75" y="162.11868987938638" width="8" height="8" fill="#2196f3" opacity="0.85"/>
<text x="569.75" y="159.11868987938638" text-anchor="middle" font-size="8" font-weight="bold" fill="#2196f3">中</text>
<rect x="597.25" y="150.20324179928664" width="8" height="8" fill="#2196f3" opacity="0.85"/>
<text x="601.25" y="147.20324179928664" text-anchor="middle" font-size="8" font-weight="bold" fill="#2196f3">中</text>
<rect x="649.75" y="60.78721089083311" width="8" height="8" fill="#ff9800" opacity="0.85"/>
<text x="653.75" y="57.78721089083311" text-anchor="middle" font-size="8" font-weight="bold" fill="#ff9800">前高</text>
<line x1="674.75" y1="93.998872552467" x2="674.75" y2="42" stroke="#4caf50" stroke-width="1" stroke-dasharray="3,2"/>
<rect x="654.75" y="28" width="40" height="14" rx="3" fill="#2563eb" opacity="0.9"/>
<text x="674.75" y="38" text-anchor="middle" font-size="9" font-weight="bold" fill="white">关注</text>
<text x="55.25" y="355" fill="#666666" font-size="8" text-anchor="middle" transform="rotate(-30,55.25,355)">02/11</text>
<text x="107.75" y="355" fill="#666666" font-size="8" text-anchor="middle" transform="rotate(-30,107.75,355)">02/26</text>
<text x="160.25" y="355" fill="#666666" font-size="8" text-anchor="middle" transform="rotate(-30,160.25,355)">03/05</text>
<text x="212.75" y="355" fill="#666666" font-size="8" text-anchor="middle" transform="rotate(-30,212.75,355)">03/12</text>
<text x="265.25" y="355" fill="#666666" font-size="8" text-anchor="middle" transform="rotate(-30,265.25,355)">03/19</text>
<text x="317.75" y="355" fill="#666666" font-size="8" text-anchor="middle" transform="rotate(-30,317.75,355)">03/26</text>
<text x="370.25" y="355" fill="#666666" font-size="8" text-anchor="middle" transform="rotate(-30,370.25,355)">04/02</text>
<text x="422.75" y="355" fill="#666666" font-size="8" text-anchor="middle" transform="rotate(-30,422.75,355)">04/10</text>
<text x="475.25" y="355" fill="#666666" font-size="8" text-anchor="middle" transform="rotate(-30,475.25,355)">04/17</text>
<text x="527.75" y="355" fill="#666666" font-size="8" text-anchor="middle" transform="rotate(-30,527.75,355)">04/24</text>
<text x="580.25" y="355" fill="#666666" font-size="8" text-anchor="middle" transform="rotate(-30,580.25,355)">05/06</text>
<text x="632.75" y="355" fill="#666666" font-size="8" text-anchor="middle" transform="rotate(-30,632.75,355)">05/13</text>
<text x="674.75" y="355" fill="#666666" font-size="8" text-anchor="middle" transform="rotate(-30,674.75,355)">05/19</text>
<rect x="50" y="334" width="7" height="7" fill="#ff9800" opacity="0.8" rx="1"/>
<text x="60" y="340" font-family="sans-serif" font-size="8" fill="#888888">第1类</text>
<rect x="120" y="334" width="7" height="7" fill="#2196f3" opacity="0.8" rx="1"/>
<text x="130" y="340" font-family="sans-serif" font-size="8" fill="#888888">第2类</text>
<rect x="190" y="334" width="7" height="7" fill="#ffd700" opacity="0.8" rx="1"/>
<text x="200" y="340" font-family="sans-serif" font-size="8" fill="#888888">EMA5</text>
<rect x="260" y="334" width="7" height="7" fill="#ff6b6b" opacity="0.8" rx="1"/>
<text x="270" y="340" font-family="sans-serif" font-size="8" fill="#888888">EMA10</text>
<rect x="330" y="334" width="7" height="7" fill="#4ecdc4" opacity="0.8" rx="1"/>
<text x="340" y="340" font-family="sans-serif" font-size="8" fill="#888888">EMA20</text>
</svg>