<svg xmlns="http://www.w3.org/2000/svg" width="700" height="380" viewBox="0 0 700 380">
<rect width="700" height="380" fill="#1a1a2e"/>
<text x="350.0" y="20" text-anchor="middle" font-family="sans-serif" font-size="14" font-weight="bold" fill="#ffffff">润泽科技(300442)</text>
<line x1="50" y1="27.990368439097228" x2="680" y2="27.990368439097228" stroke="#2a2a4e" stroke-width="0.5"/>
<text x="46" y="30.990368439097228" text-anchor="end" font-size="9" fill="#666666">119.86</text>
<line x1="50" y1="128.6401798741838" x2="680" y2="128.6401798741838" stroke="#2a2a4e" stroke-width="0.5"/>
<text x="46" y="131.6401798741838" text-anchor="end" font-size="9" fill="#666666">103.14</text>
<line x1="50" y1="229.35018856491342" x2="680" y2="229.35018856491342" stroke="#2a2a4e" stroke-width="0.5"/>
<text x="46" y="232.35018856491342" text-anchor="end" font-size="9" fill="#666666">86.41</text>
<line x1="50" y1="330.0" x2="680" y2="330.0" stroke="#2a2a4e" stroke-width="0.5"/>
<text x="46" y="333.0" text-anchor="end" font-size="9" fill="#666666">69.69</text>
<polyline points="55.25,217.37093469195747 65.75,229.85183236193834 76.25,249.56977787699918 86.75,242.04735044961166 97.25,237.03239883135333 107.75,202.8480371114203 118.25,177.6104409019832 128.75,170.1962143945466 139.25,169.6879278886228 149.75,173.14149732351555 160.25,175.2432194279674 170.75,179.73449328727568 181.25,176.32770101010945 191.75,175.74202931666915 202.25,184.1604465968004 212.75,194.64870249063722 223.25,211.97473530524238 233.75,223.96687038969446 244.25,236.3158952708391 254.75,232.9907054414806 265.25,225.0752386877048 275.75,227.3831150628716 286.25,230.24603893712867 296.75,233.98063827447086 307.25,229.9490018047079 317.75,234.02340254209562 328.25,238.40512710647695 338.75,242.6305506883294 349.25,249.46065011909732 359.75,246.50945853611603 370.25,253.11007353398134 380.75,256.04568364524533 391.25,260.99255408302344 401.75,249.4418113162702 412.25,240.9788175669567 422.75,235.838465531106 433.25,228.0372302638147 443.75,218.98378239113543 454.25,214.71393664154377 464.75,200.79107777017177 475.25,194.49896888619242 485.75,188.47824620903535 496.25,194.7982933096447 506.75,192.08897364443996 517.25,185.52717733850687 527.75,187.01184601713626 538.25,193.680232918545 548.75,201.75772527661144 559.25,202.86871503133656 569.75,206.3784486273977 580.25,194.3712584298581 590.75,183.8783117315879 601.25,175.61887156423825 611.75,170.45369590131546 622.25,180.11318143765874 632.75,166.00550853574543 643.25,160.51321488459794 653.75,151.25334100903447 664.25,151.2402775861252 674.75,153.3585383369048" fill="none" stroke="#ffd700" stroke-width="1" opacity="0.6"/>
<polyline points="55.25,217.37093469195747 65.75,224.17869705740154 76.25,235.96541921189598 86.75,234.33579673606698 97.25,233.0024692558433 107.75,215.08916824051806 118.25,199.09754646644367 128.75,191.1466764506672 139.25,187.06025434632318 149.75,185.7854146821373 160.25,184.63291449208887 170.75,185.37548294914407 181.25,182.4915981321682 191.75,181.05143227719006 202.25,184.6779502553488 212.75,190.30472553225098 223.25,200.54510287810587 233.75,209.16438245637727 244.25,218.59157565215017 254.75,220.0004393122617 265.25,218.0447785609693 275.75,220.5818856977395 286.25,223.3800676955401 296.75,226.6654802871065 307.25,225.79643457402935 317.75,228.77384720000063 328.25,232.1183433882259 338.75,235.56617147255471 349.25,240.57611283765988 359.75,240.5817423890223 370.25,245.25984441460227 380.75,248.28840067881518 391.25,252.39710872968146 401.75,247.65951183024188 412.25,243.36738787353062 422.75,240.1292739800532 433.25,235.09390775263117 443.75,228.8726311877486 454.25,224.7456519067689 464.75,215.32741701961595 475.25,209.2523868557283 485.75,203.28591667372706 496.25,204.04091137138818 506.75,200.8826246336868 517.25,195.7046173778602 527.75,194.66399301359374 538.25,196.90999550591533 548.75,200.72867086715698 559.25,201.52176608054418 569.75,203.68106603308524 580.25,197.6221227606659 590.75,191.3076310469171 601.25,185.4516965346665 611.75,180.84654163299442 622.25,184.2257436106946 632.75,175.78291072364448 643.25,171.00940469794597 653.75,164.05016625430258 664.25,161.71634525175787 674.75,160.96702063115902" fill="none" stroke="#ff6b6b" stroke-width="1" opacity="0.6"/>
<polyline points="55.25,217.37093469195747 65.75,220.9369054548091 76.25,227.41964483121978 86.75,227.37991633251664 97.25,227.34397150035667 107.75,218.499718373804 118.25,209.79834028897588 128.75,204.61447563094703 139.25,201.19132127340683 149.75,199.17773221815867 160.25,197.29858282946458 170.75,196.4812931319815 181.25,193.91299059139064 191.75,192.07086633790473 202.25,192.92100108258649 212.75,195.0833071012269 223.25,199.99221127581978 233.75,204.55972835037016 244.25,209.9363204153948 254.75,211.49860664085844 265.25,211.28391126364843 275.75,213.25676426836807 286.25,215.42010926048948 296.75,217.89913094512434 307.25,218.27880693751075 317.75,220.55436856411654 328.25,223.08905500898544 338.75,225.75499242260918 349.25,229.31364542813532 359.75,230.38921018451794 370.25,233.8103619316793 380.75,236.48717544940254 391.25,239.76328206932416 401.75,238.48490528012792 412.25,237.11042192662333 422.75,236.01016854879302 433.25,233.7648915183586 443.75,230.63270057811272 454.25,228.30332386994584 464.75,223.0311368373251 475.25,219.11529057836404 485.75,215.05067250944566 496.25,214.32569298577118 506.75,211.69184930274827 517.25,207.95010981930946 527.75,206.23878349122234 538.25,206.3128999893309 548.75,207.4176437991798 559.25,207.1960295840948 569.75,207.7866854160401 580.25,204.22194185591994 590.75,200.28579675869398 601.25,196.36333908925062 611.75,192.9119110403191 622.25,193.53288641841675 632.75,188.2240555911313 643.25,184.53877673314764 653.75,179.60494973550578 664.25,176.9010641169154 674.75,175.06239704277715" fill="none" stroke="#4ecdc4" stroke-width="1" opacity="0.6"/>
<line x1="55.25" y1="216.7689621355276" x2="55.25" y2="249.8774527391745" stroke="#ff4444" stroke-width="1" opacity="0.8"/>
<rect x="50.0" y="217.37093469195747" width="6.3" height="17.45720413646842" fill="#ff4444" opacity="0.8"/>
<rect x="50.0" y="308.8813791347389" width="6.3" height="21.118620865261096" fill="#ff4444" opacity="0.3"/>
<line x1="65.75" y1="227.84525717383855" x2="65.75" y2="267.27445961999985" stroke="#44aa44" stroke-width="1" opacity="0.8"/>
<rect x="60.5" y="231.81827604627617" width="6.3" height="22.995351655623807" fill="#44aa44" opacity="0.8"/>
<rect x="60.5" y="312.50102815554857" width="6.3" height="17.498971844451425" fill="#44aa44" opacity="0.3"/>
<line x1="76.25" y1="266.43169804099796" x2="76.25" y2="293.5204630803454" stroke="#44aa44" stroke-width="1" opacity="0.8"/>
<rect x="71.0" y="278.2303601470248" width="6.3" height="10.775308760096038" fill="#44aa44" opacity="0.8"/>
<rect x="71.0" y="316.8514817129721" width="6.3" height="13.148518287027905" fill="#44aa44" opacity="0.3"/>
<line x1="86.75" y1="196.90386777333947" x2="86.75" y2="237.4166208210747" stroke="#44aa44" stroke-width="1" opacity="0.8"/>
<rect x="81.5" y="196.90386777333947" width="6.3" height="30.09862782149716" fill="#44aa44" opacity="0.8"/>
<rect x="81.5" y="302.39340101696723" width="6.3" height="27.60659898303276" fill="#44aa44" opacity="0.3"/>
<line x1="97.25" y1="212.314365217946" x2="97.25" y2="239.76431379115138" stroke="#44aa44" stroke-width="1" opacity="0.8"/>
<rect x="92.0" y="219.65843040639135" width="6.3" height="7.344065188445285" fill="#44aa44" opacity="0.8"/>
<rect x="92.0" y="309.67636488177027" width="6.3" height="20.323635118229724" fill="#44aa44" opacity="0.3"/>
<line x1="107.75" y1="122.50005979859841" x2="107.75" y2="207.4985847665064" stroke="#ff4444" stroke-width="1" opacity="0.8"/>
<rect x="102.5" y="134.47931367155428" width="6.3" height="73.01927109495213" fill="#ff4444" opacity="0.8"/>
<rect x="102.5" y="295.0" width="6.3" height="35.0" fill="#ff4444" opacity="0.3"/>
<line x1="118.25" y1="109.43725532406862" x2="118.25" y2="161.98945950040275" stroke="#ff4444" stroke-width="1" opacity="0.8"/>
<rect x="113.0" y="127.13524848310895" width="6.3" height="33.1084906036469" fill="#ff4444" opacity="0.8"/>
<rect x="113.0" y="300.6228626874195" width="6.3" height="29.377137312580484" fill="#ff4444" opacity="0.3"/>
<line x1="128.75" y1="128.8809688967558" x2="128.75" y2="160.84571164318575" stroke="#44aa44" stroke-width="1" opacity="0.8"/>
<rect x="123.5" y="132.5530014909785" width="6.3" height="22.814759888694823" fill="#44aa44" opacity="0.8"/>
<rect x="123.5" y="308.5599185560993" width="6.3" height="21.440081443900674" fill="#44aa44" opacity="0.3"/>
<line x1="139.25" y1="133.09477679176536" x2="139.25" y2="182.57692093030673" stroke="#44aa44" stroke-width="1" opacity="0.8"/>
<rect x="134.0" y="141.40199807049865" width="6.3" height="27.26935680627645" fill="#44aa44" opacity="0.8"/>
<rect x="134.0" y="305.01062340377814" width="6.3" height="24.98937659622184" fill="#44aa44" opacity="0.3"/>
<line x1="149.75" y1="157.4144680715351" x2="149.75" y2="191.48611476546992" stroke="#ff4444" stroke-width="1" opacity="0.8"/>
<rect x="144.5" y="180.04863619330106" width="6.3" height="8.848996579520161" fill="#ff4444" opacity="0.8"/>
<rect x="144.5" y="312.832706968422" width="6.3" height="17.167293031578033" fill="#ff4444" opacity="0.3"/>
<line x1="160.25" y1="150.55198092823377" x2="160.25" y2="188.59664649460615" stroke="#44aa44" stroke-width="1" opacity="0.8"/>
<rect x="155.0" y="150.67237543951973" width="6.3" height="28.774288197351325" fill="#44aa44" opacity="0.8"/>
<rect x="155.0" y="310.9140928223971" width="6.3" height="19.085907177602923" fill="#44aa44" opacity="0.3"/>
<line x1="170.75" y1="169.87529998963493" x2="170.75" y2="204.1275384504988" stroke="#ff4444" stroke-width="1" opacity="0.8"/>
<rect x="165.5" y="188.7170410058922" width="6.3" height="5.176963985297533" fill="#ff4444" opacity="0.8"/>
<rect x="165.5" y="316.443523838579" width="6.3" height="13.556476161421008" fill="#ff4444" opacity="0.3"/>
<line x1="181.25" y1="155.3677613796733" x2="181.25" y2="222.547898677255" stroke="#ff4444" stroke-width="1" opacity="0.8"/>
<rect x="176.0" y="169.514116455777" width="6.3" height="32.20553176900194" fill="#ff4444" opacity="0.8"/>
<rect x="176.0" y="310.69993918432743" width="6.3" height="19.300060815672573" fill="#ff4444" opacity="0.3"/>
<line x1="191.75" y1="148.14409070251395" x2="191.75" y2="182.39632916337783" stroke="#44aa44" stroke-width="1" opacity="0.8"/>
<rect x="186.5" y="153.56184371038347" width="6.3" height="21.00884221940501" fill="#44aa44" opacity="0.8"/>
<rect x="186.5" y="314.2573168754216" width="6.3" height="15.742683124578397" fill="#44aa44" opacity="0.3"/>
<line x1="202.25" y1="169.81510273399198" x2="202.25" y2="201.23807017963503" stroke="#44aa44" stroke-width="1" opacity="0.8"/>
<rect x="197.0" y="181.6739620956619" width="6.3" height="19.323319061401122" fill="#44aa44" opacity="0.8"/>
<rect x="197.0" y="315.5185737827176" width="6.3" height="14.481426217282392" fill="#44aa44" opacity="0.3"/>
<line x1="212.75" y1="189.80059160746606" x2="212.75" y2="223.45085751189993" stroke="#44aa44" stroke-width="1" opacity="0.8"/>
<rect x="207.5" y="200.99728115706301" width="6.3" height="14.627933121247679" fill="#44aa44" opacity="0.8"/>
<rect x="207.5" y="316.98285911003484" width="6.3" height="13.017140889965162" fill="#44aa44" opacity="0.3"/>
<line x1="223.25" y1="217.31073743631453" x2="223.25" y2="247.3491680021687" stroke="#44aa44" stroke-width="1" opacity="0.8"/>
<rect x="218.0" y="220.26040296282122" width="6.3" height="26.366397971631528" fill="#44aa44" opacity="0.8"/>
<rect x="218.0" y="315.6000959370178" width="6.3" height="14.399904062982191" fill="#44aa44" opacity="0.3"/>
<line x1="233.75" y1="244.580094242591" x2="233.75" y2="259.8099999202686" stroke="#44aa44" stroke-width="1" opacity="0.8"/>
<rect x="228.5" y="246.5666036788098" width="6.3" height="1.3845368797888966" fill="#44aa44" opacity="0.8"/>
<rect x="228.5" y="321.1810955945443" width="6.3" height="8.818904405455713" fill="#44aa44" opacity="0.3"/>
<line x1="244.25" y1="240.7876671370823" x2="244.25" y2="261.7363121008444" stroke="#44aa44" stroke-width="1" opacity="0.8"/>
<rect x="239.0" y="241.44983694915524" width="6.3" height="19.56410808397314" fill="#44aa44" opacity="0.8"/>
<rect x="239.0" y="321.9635581672113" width="6.3" height="8.036441832788674" fill="#44aa44" opacity="0.3"/>
<line x1="254.75" y1="224.89559164733177" x2="254.75" y2="257.82349048404967" stroke="#ff4444" stroke-width="1" opacity="0.8"/>
<rect x="249.5" y="226.3403257827637" width="6.3" height="27.14896229499041" fill="#ff4444" opacity="0.8"/>
<rect x="249.5" y="315.75893403833834" width="6.3" height="14.241065961661683" fill="#ff4444" opacity="0.3"/>
<line x1="265.25" y1="187.6936876599613" x2="265.25" y2="243.25575461844514" stroke="#ff4444" stroke-width="1" opacity="0.8"/>
<rect x="260.0" y="209.2443051801533" width="6.3" height="32.80750432543192" fill="#ff4444" opacity="0.8"/>
<rect x="260.0" y="311.36728092737485" width="6.3" height="18.632719072625147" fill="#ff4444" opacity="0.3"/>
<line x1="275.75" y1="210.2676585260842" x2="275.75" y2="235.97188668564277" stroke="#44aa44" stroke-width="1" opacity="0.8"/>
<rect x="270.5" y="219.7788249176773" width="6.3" height="12.220042895527882" fill="#44aa44" opacity="0.8"/>
<rect x="270.5" y="317.92662535526995" width="6.3" height="12.07337464473003" fill="#44aa44" opacity="0.3"/>
<line x1="286.25" y1="219.7788249176773" x2="286.25" y2="245.3626585659499" stroke="#ff4444" stroke-width="1" opacity="0.8"/>
<rect x="281.0" y="235.97188668564277" width="6.3" height="5.237161240940509" fill="#ff4444" opacity="0.8"/>
<rect x="281.0" y="319.79062678388254" width="6.3" height="10.209373216117449" fill="#ff4444" opacity="0.3"/>
<line x1="296.75" y1="227.00249559483663" x2="296.75" y2="258.9672383412667" stroke="#44aa44" stroke-width="1" opacity="0.8"/>
<rect x="291.5" y="231.81827604627617" width="6.3" height="9.631560902879073" fill="#44aa44" opacity="0.8"/>
<rect x="291.5" y="321.3278477174973" width="6.3" height="8.672152282502658" fill="#44aa44" opacity="0.3"/>
<line x1="307.25" y1="208.34134634550833" x2="307.25" y2="234.34656078328194" stroke="#ff4444" stroke-width="1" opacity="0.8"/>
<rect x="302.0" y="221.88572886518205" width="6.3" height="12.340437406813919" fill="#ff4444" opacity="0.8"/>
<rect x="302.0" y="317.6846483125362" width="6.3" height="12.315351687463806" fill="#ff4444" opacity="0.3"/>
<line x1="317.75" y1="220.68178375232225" x2="317.75" y2="243.3761491297311" stroke="#44aa44" stroke-width="1" opacity="0.8"/>
<rect x="312.5" y="227.1228901061226" width="6.3" height="15.049313910748594" fill="#44aa44" opacity="0.8"/>
<rect x="312.5" y="321.47195059101244" width="6.3" height="8.52804940898757" fill="#44aa44" opacity="0.3"/>
<line x1="328.25" y1="240.4264836032244" x2="328.25" y2="255.59619202525897" stroke="#44aa44" stroke-width="1" opacity="0.8"/>
<rect x="323.0" y="246.7471954457388" width="6.3" height="1" fill="#44aa44" opacity="0.8"/>
<rect x="323.0" y="323.72619880017004" width="6.3" height="6.273801199829972" fill="#44aa44" opacity="0.3"/>
<line x1="338.75" y1="247.7705487916697" x2="338.75" y2="264.685977627351" stroke="#ff4444" stroke-width="1" opacity="0.8"/>
<rect x="333.5" y="251.0813978520344" width="6.3" height="7.825643233589233" fill="#ff4444" opacity="0.8"/>
<rect x="333.5" y="323.47899193418283" width="6.3" height="6.521008065817173" fill="#ff4444" opacity="0.3"/>
<line x1="349.25" y1="241.9916122499422" x2="349.25" y2="263.12084898063324" stroke="#44aa44" stroke-width="1" opacity="0.8"/>
<rect x="344.0" y="252.16494845360822" width="6.3" height="10.955900527025022" fill="#44aa44" opacity="0.8"/>
<rect x="344.0" y="323.5293639901046" width="6.3" height="6.470636009895383" fill="#44aa44" opacity="0.3"/>
<line x1="359.75" y1="235.91168942999983" x2="359.75" y2="250.47942529560441" stroke="#ff4444" stroke-width="1" opacity="0.8"/>
<rect x="354.5" y="240.6070753701533" width="6.3" height="6.98288165458743" fill="#ff4444" opacity="0.8"/>
<rect x="354.5" y="319.7216210527838" width="6.3" height="10.27837894721621" fill="#ff4444" opacity="0.3"/>
<line x1="370.25" y1="241.02845615965433" x2="370.25" y2="268.5987992441457" stroke="#44aa44" stroke-width="1" opacity="0.8"/>
<rect x="365.0" y="243.85772717487504" width="6.3" height="22.453576354836912" fill="#44aa44" opacity="0.8"/>
<rect x="365.0" y="320.6434741872679" width="6.3" height="9.356525812732094" fill="#44aa44" opacity="0.3"/>
<line x1="380.75" y1="253.00771003261016" x2="380.75" y2="266.43169804099796" stroke="#44aa44" stroke-width="1" opacity="0.8"/>
<rect x="375.5" y="257.16132067197674" width="6.3" height="4.755583195796646" fill="#44aa44" opacity="0.8"/>
<rect x="375.5" y="323.72513840199866" width="6.3" height="6.274861598001321" fill="#44aa44" opacity="0.3"/>
<line x1="391.25" y1="257.0409261606908" x2="391.25" y2="276.9662177785219" stroke="#44aa44" stroke-width="1" opacity="0.8"/>
<rect x="386.0" y="262.1576928903454" width="6.3" height="8.728602068234068" fill="#44aa44" opacity="0.8"/>
<rect x="386.0" y="323.55780687216367" width="6.3" height="6.442193127836315" fill="#44aa44" opacity="0.3"/>
<line x1="401.75" y1="226.28012852712067" x2="401.75" y2="250.17843901738945" stroke="#ff4444" stroke-width="1" opacity="0.8"/>
<rect x="396.5" y="226.3403257827637" width="6.3" height="22.93515439998086" fill="#ff4444" opacity="0.8"/>
<rect x="396.5" y="316.44543977204773" width="6.3" height="13.554560227952251" fill="#ff4444" opacity="0.3"/>
<line x1="412.25" y1="222.78868769982702" x2="412.25" y2="237.83800161057562" stroke="#ff4444" stroke-width="1" opacity="0.8"/>
<rect x="407.0" y="224.05283006832985" width="6.3" height="10.775308760096038" fill="#ff4444" opacity="0.8"/>
<rect x="407.0" y="318.77230418765856" width="6.3" height="11.227695812341457" fill="#ff4444" opacity="0.3"/>
<line x1="422.75" y1="214.4814664210938" x2="422.75" y2="231.81827604627617" stroke="#44aa44" stroke-width="1" opacity="0.8"/>
<rect x="417.5" y="219.7788249176773" width="6.3" height="5.778936541727404" fill="#44aa44" opacity="0.8"/>
<rect x="417.5" y="316.3179757214747" width="6.3" height="13.682024278525338" fill="#44aa44" opacity="0.3"/>
<line x1="433.25" y1="201.599253713493" x2="433.25" y2="237.83800161057562" stroke="#ff4444" stroke-width="1" opacity="0.8"/>
<rect x="428.0" y="212.43475972923198" width="6.3" height="23.59732421205382" fill="#ff4444" opacity="0.8"/>
<rect x="428.0" y="317.22293837760003" width="6.3" height="12.777061622399955" fill="#ff4444" opacity="0.3"/>
<line x1="443.75" y1="179.68745265944307" x2="443.75" y2="208.1005573229364" stroke="#44aa44" stroke-width="1" opacity="0.8"/>
<rect x="438.5" y="195.69992266047953" width="6.3" height="5.176963985297533" fill="#44aa44" opacity="0.8"/>
<rect x="438.5" y="314.5508201901328" width="6.3" height="15.449179809867166" fill="#44aa44" opacity="0.3"/>
<line x1="454.25" y1="189.7403943518231" x2="454.25" y2="208.82292439065236" stroke="#44aa44" stroke-width="1" opacity="0.8"/>
<rect x="449.0" y="195.69992266047953" width="6.3" height="10.474322481881018" fill="#44aa44" opacity="0.8"/>
<rect x="449.0" y="318.17142904006664" width="6.3" height="11.828570959933352" fill="#44aa44" opacity="0.3"/>
<line x1="464.75" y1="159.7019637859689" x2="464.75" y2="206.17424514236055" stroke="#ff4444" stroke-width="1" opacity="0.8"/>
<rect x="459.5" y="172.94536002742765" width="6.3" height="33.22888511493289" fill="#ff4444" opacity="0.8"/>
<rect x="459.5" y="312.1898791634297" width="6.3" height="17.810120836570317" fill="#ff4444" opacity="0.3"/>
<line x1="475.25" y1="173.06575453871363" x2="475.25" y2="183.66047153188066" stroke="#ff4444" stroke-width="1" opacity="0.8"/>
<rect x="470.0" y="181.9147511182338" width="6.3" height="1.7457204136468647" fill="#ff4444" opacity="0.8"/>
<rect x="470.0" y="317.13866361123" width="6.3" height="12.861336388769978" fill="#ff4444" opacity="0.3"/>
<line x1="485.75" y1="168.31017134291713" x2="485.75" y2="187.6936876599613" stroke="#ff4444" stroke-width="1" opacity="0.8"/>
<rect x="480.5" y="176.43680085472133" width="6.3" height="4.213807895009609" fill="#ff4444" opacity="0.8"/>
<rect x="480.5" y="317.55614202209193" width="6.3" height="12.443857977908053" fill="#ff4444" opacity="0.3"/>
<line x1="496.25" y1="184.02165506573866" x2="496.25" y2="209.96667224786924" stroke="#44aa44" stroke-width="1" opacity="0.8"/>
<rect x="491.0" y="184.02165506573866" width="6.3" height="23.416732445124808" fill="#44aa44" opacity="0.8"/>
<rect x="491.0" y="316.46380433190393" width="6.3" height="13.536195668096044" fill="#44aa44" opacity="0.3"/>
<line x1="506.75" y1="184.02165506573866" x2="506.75" y2="212.55515424051794" stroke="#ff4444" stroke-width="1" opacity="0.8"/>
<rect x="501.5" y="186.67033431403038" width="6.3" height="21.189433986334024" fill="#ff4444" opacity="0.8"/>
<rect x="501.5" y="316.6519655272453" width="6.3" height="13.348034472754698" fill="#ff4444" opacity="0.3"/>
<line x1="517.25" y1="149.64902209358883" x2="517.25" y2="191.60650927675587" stroke="#ff4444" stroke-width="1" opacity="0.8"/>
<rect x="512.0" y="172.4035847266407" width="6.3" height="17.99897943725537" fill="#ff4444" opacity="0.8"/>
<rect x="512.0" y="312.6162518822026" width="6.3" height="17.383748117797403" fill="#ff4444" opacity="0.3"/>
<line x1="527.75" y1="176.7377871329363" x2="527.75" y2="207.73937378907843" stroke="#44aa44" stroke-width="1" opacity="0.8"/>
<rect x="522.5" y="178.9650855917271" width="6.3" height="11.016097782667941" fill="#44aa44" opacity="0.8"/>
<rect x="522.5" y="315.9494634950621" width="6.3" height="14.05053650493787" fill="#44aa44" opacity="0.3"/>
<line x1="538.25" y1="183.66047153188066" x2="538.25" y2="210.14726401479822" stroke="#44aa44" stroke-width="1" opacity="0.8"/>
<rect x="533.0" y="189.6199998405371" width="6.3" height="17.39700688082536" fill="#44aa44" opacity="0.8"/>
<rect x="533.0" y="318.8056202453314" width="6.3" height="11.194379754668594" fill="#44aa44" opacity="0.3"/>
<line x1="548.75" y1="198.70978544262925" x2="548.75" y2="219.23704961689032" stroke="#44aa44" stroke-width="1" opacity="0.8"/>
<rect x="543.5" y="204.7295110069287" width="6.3" height="13.18319898581575" fill="#44aa44" opacity="0.8"/>
<rect x="543.5" y="321.0961338391504" width="6.3" height="8.903866160849589" fill="#44aa44" opacity="0.3"/>
<line x1="559.25" y1="189.98118337439504" x2="559.25" y2="228.02584894076756" stroke="#ff4444" stroke-width="1" opacity="0.8"/>
<rect x="554.0" y="205.09069454078667" width="6.3" height="18.420360226756287" fill="#ff4444" opacity="0.8"/>
<rect x="554.0" y="319.30076519808654" width="6.3" height="10.699234801913464" fill="#ff4444" opacity="0.3"/>
<line x1="569.75" y1="201.71964822477895" x2="569.75" y2="225.49756420376178" stroke="#44aa44" stroke-width="1" opacity="0.8"/>
<rect x="564.5" y="207.8597683003644" width="6.3" height="5.538147519155473" fill="#44aa44" opacity="0.8"/>
<rect x="564.5" y="320.9427711637333" width="6.3" height="9.057228836266667" fill="#44aa44" opacity="0.3"/>
<line x1="580.25" y1="148.26448521380001" x2="580.25" y2="189.68019709618008" stroke="#ff4444" stroke-width="1" opacity="0.8"/>
<rect x="575.0" y="170.35687803477896" width="6.3" height="19.323319061401122" fill="#ff4444" opacity="0.8"/>
<rect x="575.0" y="309.46685301738637" width="6.3" height="20.53314698261364" fill="#ff4444" opacity="0.3"/>
<line x1="590.75" y1="158.377624161823" x2="590.75" y2="175.53384202007646" stroke="#ff4444" stroke-width="1" opacity="0.8"/>
<rect x="585.5" y="162.89241833504758" width="6.3" height="6.922684398944398" fill="#ff4444" opacity="0.8"/>
<rect x="585.5" y="315.5897771337368" width="6.3" height="14.410222866263208" fill="#ff4444" opacity="0.3"/>
<line x1="601.25" y1="142.12436513821453" x2="601.25" y2="177.1591679224373" stroke="#ff4444" stroke-width="1" opacity="0.8"/>
<rect x="596.0" y="159.09999122953897" width="6.3" height="12.460831918099785" fill="#ff4444" opacity="0.8"/>
<rect x="596.0" y="314.61745556466064" width="6.3" height="15.382544435339353" fill="#ff4444" opacity="0.3"/>
<line x1="611.75" y1="129.48294145318573" x2="611.75" y2="171.6210204032818" stroke="#44aa44" stroke-width="1" opacity="0.8"/>
<rect x="606.5" y="129.60333596447168" width="6.3" height="30.520008610998218" fill="#44aa44" opacity="0.8"/>
<rect x="606.5" y="312.4829587844698" width="6.3" height="17.517041215530185" fill="#44aa44" opacity="0.3"/>
<line x1="622.25" y1="164.39734972612246" x2="622.25" y2="201.29826743527806" stroke="#44aa44" stroke-width="1" opacity="0.8"/>
<rect x="617.0" y="167.52760701955813" width="6.3" height="31.904545490787086" fill="#44aa44" opacity="0.8"/>
<rect x="617.0" y="311.40314077666534" width="6.3" height="18.596859223334647" fill="#44aa44" opacity="0.3"/>
<line x1="632.75" y1="117.44349032458686" x2="632.75" y2="207.6791765334354" stroke="#ff4444" stroke-width="1" opacity="0.8"/>
<rect x="627.5" y="137.79016273191894" width="6.3" height="64.53145804928994" fill="#ff4444" opacity="0.8"/>
<rect x="627.5" y="303.76097104709584" width="6.3" height="26.239028952904146" fill="#ff4444" opacity="0.3"/>
<line x1="643.25" y1="120.57374761802254" x2="643.25" y2="160.7253171318998" stroke="#44aa44" stroke-width="1" opacity="0.8"/>
<rect x="638.0" y="126.89445946053694" width="6.3" height="22.63416812176594" fill="#44aa44" opacity="0.8"/>
<rect x="638.0" y="310.00115820689086" width="6.3" height="19.99884179310913" fill="#44aa44" opacity="0.3"/>
<line x1="653.75" y1="81.4455314500762" x2="653.75" y2="143.80988829621836" stroke="#ff4444" stroke-width="1" opacity="0.8"/>
<rect x="648.5" y="132.73359325790744" width="6.3" height="2.347692970076821" fill="#ff4444" opacity="0.8"/>
<rect x="648.5" y="300.6794772410284" width="6.3" height="29.3205227589716" fill="#ff4444" opacity="0.3"/>
<line x1="664.25" y1="116.35993972301293" x2="664.25" y2="158.01644062796504" stroke="#44aa44" stroke-width="1" opacity="0.8"/>
<rect x="659.0" y="124.12538570095923" width="6.3" height="27.08876503934748" fill="#44aa44" opacity="0.8"/>
<rect x="659.0" y="309.8690095476675" width="6.3" height="20.130990452332505" fill="#44aa44" opacity="0.3"/>
<line x1="674.75" y1="141.64278709307058" x2="674.75" y2="173.4269380725716" stroke="#44aa44" stroke-width="1" opacity="0.8"/>
<rect x="669.5" y="142.12436513821453" width="6.3" height="15.470694700249595" fill="#44aa44" opacity="0.8"/>
<rect x="669.5" y="314.58333635140247" width="6.3" height="15.416663648597542" fill="#44aa44" opacity="0.3"/>
<rect x="240.25" y="257.7363121008444" width="8" height="8" fill="#ff9800" opacity="0.85"/>
<text x="244.25" y="254.73631210084437" text-anchor="middle" font-size="8" font-weight="bold" fill="#ff9800">前低</text>
<rect x="261.25" y="183.6936876599613" width="8" height="8" fill="#ff9800" opacity="0.85"/>
<text x="265.25" y="180.6936876599613" text-anchor="middle" font-size="8" font-weight="bold" fill="#ff9800">前高</text>
<rect x="387.25" y="272.9662177785219" width="8" height="8" fill="#ff9800" opacity="0.85"/>
<text x="391.25" y="269.9662177785219" text-anchor="middle" font-size="8" font-weight="bold" fill="#ff9800">前低</text>
<rect x="460.75" y="155.7019637859689" width="8" height="8" fill="#ff9800" opacity="0.85"/>
<text x="464.75" y="152.7019637859689" text-anchor="middle" font-size="8" font-weight="bold" fill="#ff9800">前高</text>
<rect x="502.75" y="208.55515424051794" width="8" height="8" fill="#ff9800" opacity="0.85"/>
<text x="506.75" y="205.55515424051794" text-anchor="middle" font-size="8" font-weight="bold" fill="#ff9800">前低</text>
<rect x="513.25" y="145.64902209358883" width="8" height="8" fill="#ff9800" opacity="0.85"/>
<text x="517.25" y="142.64902209358883" text-anchor="middle" font-size="8" font-weight="bold" fill="#ff9800">前高</text>
<rect x="555.25" y="224.02584894076756" width="8" height="8" fill="#ff9800" opacity="0.85"/>
<text x="559.25" y="221.02584894076756" text-anchor="middle" font-size="8" font-weight="bold" fill="#ff9800">前低</text>
<rect x="628.75" y="203.6791765334354" width="8" height="8" fill="#ff9800" opacity="0.85"/>
<text x="632.75" y="200.6791765334354" text-anchor="middle" font-size="8" font-weight="bold" fill="#ff9800">前低</text>
<rect x="649.75" y="77.4455314500762" width="8" height="8" fill="#ff9800" opacity="0.85"/>
<text x="653.75" y="74.4455314500762" text-anchor="middle" font-size="8" font-weight="bold" fill="#ff9800">前高</text>
<text x="55.25" y="355" fill="#666666" font-size="8" text-anchor="middle" transform="rotate(-30,55.25,355)">02/03</text>
<text x="107.75" y="355" fill="#666666" font-size="8" text-anchor="middle" transform="rotate(-30,107.75,355)">02/26</text>
<text x="160.25" y="355" fill="#666666" font-size="8" text-anchor="middle" transform="rotate(-30,160.25,355)">03/05</text>
<text x="212.75" y="355" fill="#666666" font-size="8" text-anchor="middle" transform="rotate(-30,212.75,355)">03/12</text>
<text x="265.25" y="355" fill="#666666" font-size="8" text-anchor="middle" transform="rotate(-30,265.25,355)">03/19</text>
<text x="317.75" y="355" fill="#666666" font-size="8" text-anchor="middle" transform="rotate(-30,317.75,355)">03/26</text>
<text x="370.25" y="355" fill="#666666" font-size="8" text-anchor="middle" transform="rotate(-30,370.25,355)">04/02</text>
<text x="422.75" y="355" fill="#666666" font-size="8" text-anchor="middle" transform="rotate(-30,422.75,355)">04/10</text>
<text x="475.25" y="355" fill="#666666" font-size="8" text-anchor="middle" transform="rotate(-30,475.25,355)">04/17</text>
<text x="527.75" y="355" fill="#666666" font-size="8" text-anchor="middle" transform="rotate(-30,527.75,355)">04/24</text>
<text x="580.25" y="355" fill="#666666" font-size="8" text-anchor="middle" transform="rotate(-30,580.25,355)">05/06</text>
<text x="632.75" y="355" fill="#666666" font-size="8" text-anchor="middle" transform="rotate(-30,632.75,355)">05/13</text>
<text x="674.75" y="355" fill="#666666" font-size="8" text-anchor="middle" transform="rotate(-30,674.75,355)">05/19</text>
<rect x="50" y="334" width="7" height="7" fill="#ff9800" opacity="0.8" rx="1"/>
<text x="60" y="340" font-family="sans-serif" font-size="8" fill="#888888">第1类</text>
<rect x="120" y="334" width="7" height="7" fill="#2196f3" opacity="0.8" rx="1"/>
<text x="130" y="340" font-family="sans-serif" font-size="8" fill="#888888">第2类</text>
<rect x="190" y="334" width="7" height="7" fill="#ffd700" opacity="0.8" rx="1"/>
<text x="200" y="340" font-family="sans-serif" font-size="8" fill="#888888">EMA5</text>
<rect x="260" y="334" width="7" height="7" fill="#ff6b6b" opacity="0.8" rx="1"/>
<text x="270" y="340" font-family="sans-serif" font-size="8" fill="#888888">EMA10</text>
<rect x="330" y="334" width="7" height="7" fill="#4ecdc4" opacity="0.8" rx="1"/>
<text x="340" y="340" font-family="sans-serif" font-size="8" fill="#888888">EMA20</text>
</svg>