<svg xmlns="http://www.w3.org/2000/svg" width="700" height="380" viewBox="0 0 700 380">
<rect width="700" height="380" fill="#1a1a2e"/>
<text x="350.0" y="20" text-anchor="middle" font-family="sans-serif" font-size="14" font-weight="bold" fill="#ffffff">鹏辉能源(300438) 关键点图</text>
<line x1="50" y1="28.002024454335814" x2="680" y2="28.002024454335814" stroke="#2a2a4e" stroke-width="0.5"/>
<text x="46" y="31.002024454335814" text-anchor="end" font-size="9" fill="#666666">99.23</text>
<line x1="50" y1="128.66801630289055" x2="680" y2="128.66801630289055" stroke="#2a2a4e" stroke-width="0.5"/>
<text x="46" y="131.66801630289055" text-anchor="end" font-size="9" fill="#666666">79.34</text>
<line x1="50" y1="229.33400815144526" x2="680" y2="229.33400815144526" stroke="#2a2a4e" stroke-width="0.5"/>
<text x="46" y="232.33400815144526" text-anchor="end" font-size="9" fill="#666666">59.45</text>
<line x1="50" y1="330.0" x2="680" y2="330.0" stroke="#2a2a4e" stroke-width="0.5"/>
<text x="46" y="333.0" text-anchor="end" font-size="9" fill="#666666">39.56</text>
<polyline points="55.25,287.68890438140187 65.75,285.88376593196404 76.25,285.62508565572057 86.75,286.4479888533355 97.25,286.9797205322804 107.75,294.72346664397963 118.25,298.7387732614822 128.75,299.8129513239613 139.25,293.71340710169306 149.75,292.24509401781415 160.25,293.54372975635687 170.75,292.57060756035065 181.25,283.5035034832362 191.75,277.8973992045872 202.25,267.1924993463806 212.75,256.9686065787869 223.25,250.6250507454153 233.75,246.78403393753274 244.25,249.03143511317896 254.75,251.6937638067052 265.25,251.98404975612277 275.75,242.47706336327278 286.25,237.48870865858484 296.75,234.24749111945198 307.25,234.17861557370878 317.75,234.16643944881028 328.25,234.3438970129946 338.75,236.3010814108189 349.25,239.05672995003806 359.75,245.06083081740977 370.25,252.06650532712106 380.75,261.6631272174193 391.25,265.142286810147 401.75,264.93115861885957 412.25,263.2889361922695 422.75,255.800219630584 433.25,246.91066732634383 443.75,230.1534684268902 454.25,224.07687923906337 464.75,210.4265321381747 475.25,200.65148262564284 485.75,196.8171849455806 496.25,194.71648871776483 506.75,192.00012924760588 517.25,189.86868433099545 527.75,186.40639626463852 538.25,184.1994269371915 548.75,185.66357283916307 559.25,163.8645588291905 569.75,140.7279518953153 580.25,122.43557029698951 590.75,107.5413767836815 601.25,105.03491367280915 611.75,97.7123365780688 622.25,91.12670278226163 632.75,96.09938155488223 643.25,98.75655307748839 653.75,102.02947105829091 664.25,100.34808268797309 674.75,97.38827775272644" fill="none" stroke="#ffd700" stroke-width="1" opacity="0.6"/>
<polyline points="55.25,287.68890438140187 65.75,286.7042834089812 76.25,286.4140000806635 86.75,286.71941738391837 97.25,286.9601022032369 107.75,291.1875306876262 118.25,294.0205953801464 128.75,295.4643612108324 139.25,292.9279898374368 149.75,292.2698949306404 160.25,292.9737324402408 170.75,292.5465743908039 181.25,287.60525092502274 191.75,283.80160360179843 202.25,276.8890756069201 212.75,269.54939295904353 223.25,263.80185588988513 233.75,259.3109730593183 244.25,258.2592029511643 254.75,258.0336062679995 265.25,257.03924542926467 275.75,250.93449000168434 286.25,246.6758553194161 296.75,243.23752817791976 307.25,241.56540750597478 317.75,240.21571290470902 328.25,239.21264003864613 338.75,239.3949691600682 349.25,240.33552513614242 359.75,243.37798102996254 370.25,247.50523072388637 380.75,253.5690744100917 391.25,256.9384437892755 401.75,258.3148907796408 412.25,258.6220908813587 422.75,255.3858537224231 433.25,250.61234626704862 443.75,240.79902342358216 454.25,235.54896477627807 464.75,226.01748716902705 475.25,217.8509228838547 485.75,212.6323168296004 496.25,208.61100399915185 506.75,204.60307787335844 517.25,201.14902635052502 527.75,197.2095343107795 538.25,194.04152594196455 548.75,193.0506784330812 559.25,179.81719704692927 569.75,164.29674995249934 580.25,150.0338512521064 590.75,136.8918764348262 601.25,130.18826025596042 611.75,121.62079155280179 622.25,113.6816358505919 632.75,112.29310916868855 643.25,110.79816134214532 653.75,110.39400601082723 664.25,107.95606054473818 674.75,104.95835278791908" fill="none" stroke="#ff6b6b" stroke-width="1" opacity="0.6"/>
<polyline points="55.25,287.68890438140187 65.75,287.17315053870533 76.25,286.9764433543747 86.75,287.0828578204881 97.25,287.1743174461721 107.75,289.3682832958107 118.25,291.0255312196847 128.75,292.06703371770703 139.25,291.0620132357499 149.75,290.8950089133029 160.25,291.3946272295066 170.75,291.3212687474906 181.25,288.84965223144457 191.75,286.7387511281916 202.25,282.8381747950274 212.75,278.4269982472724 223.25,274.5708973740724 233.75,271.19290717861475 244.25,269.5103672058392 254.75,268.32065806183147 265.25,266.82008316593874 275.75,262.69084577657054 286.25,259.3404794406314 296.75,256.3332962597318 307.25,254.21020751901665 317.75,252.29895796473062 328.25,250.62275360060036 338.75,249.63158184877818 349.25,249.14933853255897 359.75,249.90359510585367 370.25,251.44400074782413 380.75,254.24517886688997 391.25,255.94569573629119 401.75,256.7612392124811 412.25,257.07012036739616 422.75,255.52275523785488 433.25,253.009308331189 443.75,247.64071426421705 454.25,244.2390939403306 464.75,238.41878384471792 475.25,232.9599838214666 485.75,228.7874700847037 496.25,225.1424821016018 506.75,221.46866574023858 517.25,218.05315419333724 527.75,214.37969380653607 538.25,211.0850075661324 548.75,208.94280347822516 559.25,200.4974441764176 569.75,190.3981388289078 580.25,180.4412500928535 590.75,170.6614157751594 601.25,163.93385117286468 611.75,156.23226366960026 622.25,148.77732762398568 632.75,144.70755728837972 643.25,140.83739908212453 653.75,137.76481888572184 664.25,133.88105574873282 674.75,129.84178071382811" fill="none" stroke="#4ecdc4" stroke-width="1" opacity="0.6"/>
<line x1="55.25" y1="285.8162841207701" x2="55.25" y2="292.3451493537835" stroke="#ff4444" stroke-width="1" opacity="0.8"/>
<rect x="50.0" y="287.68890438140187" width="6.3" height="4.4031881804043564" fill="#ff4444" opacity="0.8"/>
<rect x="50.0" y="321.6543205747245" width="6.3" height="8.345679425275467" fill="#ff4444" opacity="0.3"/>
<line x1="65.75" y1="277.1617418351477" x2="65.75" y2="288.54929747412456" stroke="#ff4444" stroke-width="1" opacity="0.8"/>
<rect x="60.5" y="282.2734890330884" width="6.3" height="6.2758084410361334" fill="#ff4444" opacity="0.8"/>
<rect x="60.5" y="320.0015269716732" width="6.3" height="9.998473028326805" fill="#ff4444" opacity="0.3"/>
<line x1="76.25" y1="277.414798627125" x2="76.25" y2="285.4113932536065" stroke="#44aa44" stroke-width="1" opacity="0.8"/>
<rect x="71.0" y="281.96982088271574" width="6.3" height="3.13790422051801" fill="#44aa44" opacity="0.8"/>
<rect x="71.0" y="322.24559656947423" width="6.3" height="7.754403430525784" fill="#44aa44" opacity="0.3"/>
<line x1="86.75" y1="281.21065050678396" x2="86.75" y2="289.5615246420336" stroke="#44aa44" stroke-width="1" opacity="0.8"/>
<rect x="81.5" y="282.6783799002521" width="6.3" height="5.415415348313388" fill="#44aa44" opacity="0.8"/>
<rect x="81.5" y="323.60278219196994" width="6.3" height="6.397217808030087" fill="#44aa44" opacity="0.3"/>
<line x1="97.25" y1="285.25955917842015" x2="97.25" y2="297.15322840135144" stroke="#44aa44" stroke-width="1" opacity="0.8"/>
<rect x="92.0" y="287.3346248726337" width="6.3" height="1" fill="#44aa44" opacity="0.8"/>
<rect x="92.0" y="319.69117604276187" width="6.3" height="10.308823957238147" fill="#44aa44" opacity="0.3"/>
<line x1="107.75" y1="283.33632755939294" x2="107.75" y2="312.5896927119644" stroke="#44aa44" stroke-width="1" opacity="0.8"/>
<rect x="102.5" y="284.348554727302" width="6.3" height="25.862404140076137" fill="#44aa44" opacity="0.8"/>
<rect x="102.5" y="307.52453657213744" width="6.3" height="22.475463427862593" fill="#44aa44" opacity="0.3"/>
<line x1="118.25" y1="304.99798895264655" x2="118.25" y2="312.5896927119644" stroke="#ff4444" stroke-width="1" opacity="0.8"/>
<rect x="113.0" y="306.7693864964874" width="6.3" height="3.9476859548452694" fill="#ff4444" opacity="0.8"/>
<rect x="113.0" y="318.2293588237234" width="6.3" height="11.770641176276598" fill="#ff4444" opacity="0.3"/>
<line x1="128.75" y1="286.52484313830644" x2="128.75" y2="310.97012924330994" stroke="#ff4444" stroke-width="1" opacity="0.8"/>
<rect x="123.5" y="301.9613074489194" width="6.3" height="9.008821794390542" fill="#ff4444" opacity="0.8"/>
<rect x="123.5" y="312.7705746568612" width="6.3" height="17.22942534313881" fill="#ff4444" opacity="0.3"/>
<line x1="139.25" y1="271.3920469780662" x2="139.25" y2="289.5109132836381" stroke="#ff4444" stroke-width="1" opacity="0.8"/>
<rect x="134.0" y="281.51431865715665" width="6.3" height="1" fill="#ff4444" opacity="0.8"/>
<rect x="134.0" y="295.0" width="6.3" height="35.0" fill="#ff4444" opacity="0.3"/>
<line x1="149.75" y1="279.540475679734" x2="149.75" y2="290.82680860191994" stroke="#44aa44" stroke-width="1" opacity="0.8"/>
<rect x="144.5" y="286.17056362953826" width="6.3" height="3.1379042205180667" fill="#44aa44" opacity="0.8"/>
<rect x="144.5" y="312.45501909290806" width="6.3" height="17.544980907091926" fill="#44aa44" opacity="0.3"/>
<line x1="160.25" y1="288.1444066069609" x2="160.25" y2="297.65934198530596" stroke="#44aa44" stroke-width="1" opacity="0.8"/>
<rect x="155.0" y="289.7639700756154" width="6.3" height="6.377031157826934" fill="#44aa44" opacity="0.8"/>
<rect x="155.0" y="317.9431400104113" width="6.3" height="12.05685998958872" fill="#44aa44" opacity="0.3"/>
<line x1="170.75" y1="287.3346248726337" x2="170.75" y2="298.7727918700059" stroke="#ff4444" stroke-width="1" opacity="0.8"/>
<rect x="165.5" y="290.62436316833805" width="6.3" height="6.2758084410361334" fill="#ff4444" opacity="0.8"/>
<rect x="165.5" y="320.26263671572366" width="6.3" height="9.737363284276336" fill="#ff4444" opacity="0.3"/>
<line x1="181.25" y1="263.59789778516654" x2="181.25" y2="295.0781627071379" stroke="#ff4444" stroke-width="1" opacity="0.8"/>
<rect x="176.0" y="265.3692953290074" width="6.3" height="29.506421944548663" fill="#ff4444" opacity="0.8"/>
<rect x="176.0" y="304.526146183866" width="6.3" height="25.47385381613404" fill="#ff4444" opacity="0.3"/>
<line x1="191.75" y1="265.0150158202392" x2="191.75" y2="279.9959779052931" stroke="#ff4444" stroke-width="1" opacity="0.8"/>
<rect x="186.5" y="266.6851906472891" width="6.3" height="7.439869684131509" fill="#ff4444" opacity="0.8"/>
<rect x="186.5" y="311.4216464737226" width="6.3" height="18.578353526277425" fill="#ff4444" opacity="0.3"/>
<line x1="202.25" y1="237.12815734434494" x2="202.25" y2="273.72016946425697" stroke="#ff4444" stroke-width="1" opacity="0.8"/>
<rect x="197.0" y="245.7826996299673" width="6.3" height="22.420831769185355" fill="#ff4444" opacity="0.8"/>
<rect x="197.0" y="296.19470411114776" width="6.3" height="33.80529588885222" fill="#ff4444" opacity="0.3"/>
<line x1="212.75" y1="229.68828766021343" x2="212.75" y2="247.45287445701723" stroke="#ff4444" stroke-width="1" opacity="0.8"/>
<rect x="207.5" y="236.5208210435995" width="6.3" height="6.883144741781507" fill="#ff4444" opacity="0.8"/>
<rect x="207.5" y="299.83129475579767" width="6.3" height="30.1687052442023" fill="#ff4444" opacity="0.3"/>
<line x1="223.25" y1="218.14889794605034" x2="223.25" y2="239.2032230385585" stroke="#44aa44" stroke-width="1" opacity="0.8"/>
<rect x="218.0" y="233.73719633184965" width="6.3" height="4.200742746822527" fill="#44aa44" opacity="0.8"/>
<rect x="218.0" y="301.46178351711865" width="6.3" height="28.538216482881325" fill="#44aa44" opacity="0.3"/>
<line x1="233.75" y1="228.2711696251408" x2="233.75" y2="243.7582452941492" stroke="#44aa44" stroke-width="1" opacity="0.8"/>
<rect x="228.5" y="234.2433099158042" width="6.3" height="4.858690405963358" fill="#44aa44" opacity="0.8"/>
<rect x="228.5" y="313.3923965172503" width="6.3" height="16.60760348274969" fill="#44aa44" opacity="0.3"/>
<line x1="244.25" y1="234.69881214136322" x2="244.25" y2="254.38663055719422" stroke="#44aa44" stroke-width="1" opacity="0.8"/>
<rect x="239.0" y="238.74772081299943" width="6.3" height="14.778516651472046" fill="#44aa44" opacity="0.8"/>
<rect x="239.0" y="314.77190011383476" width="6.3" height="15.228099886165234" fill="#44aa44" opacity="0.3"/>
<line x1="254.75" y1="248.9712152088808" x2="254.75" y2="261.32038665737116" stroke="#44aa44" stroke-width="1" opacity="0.8"/>
<rect x="249.5" y="253.47562610607605" width="6.3" height="3.542795087681668" fill="#44aa44" opacity="0.8"/>
<rect x="249.5" y="317.9958650223507" width="6.3" height="12.00413497764933" fill="#44aa44" opacity="0.3"/>
<line x1="265.25" y1="238.3428299458358" x2="265.25" y2="261.978334316512" stroke="#ff4444" stroke-width="1" opacity="0.8"/>
<rect x="260.0" y="252.56462165495793" width="6.3" height="4.352576822008871" fill="#ff4444" opacity="0.8"/>
<rect x="260.0" y="309.7739294652186" width="6.3" height="20.226070534781392" fill="#ff4444" opacity="0.3"/>
<line x1="275.75" y1="206.50828551509628" x2="275.75" y2="252.00789671260796" stroke="#ff4444" stroke-width="1" opacity="0.8"/>
<rect x="270.5" y="223.4630905775728" width="6.3" height="28.392972059848773" fill="#ff4444" opacity="0.8"/>
<rect x="270.5" y="297.2176852827361" width="6.3" height="32.78231471726387" fill="#ff4444" opacity="0.3"/>
<line x1="286.25" y1="212.3285917305733" x2="286.25" y2="229.53645358502712" stroke="#ff4444" stroke-width="1" opacity="0.8"/>
<rect x="281.0" y="227.511999249209" width="6.3" height="1.4677293934681188" fill="#ff4444" opacity="0.8"/>
<rect x="281.0" y="304.6770806000775" width="6.3" height="25.32291939992251" fill="#ff4444" opacity="0.3"/>
<line x1="296.75" y1="217.440338928514" x2="296.75" y2="241.22767737437658" stroke="#44aa44" stroke-width="1" opacity="0.8"/>
<rect x="291.5" y="221.43863624175472" width="6.3" height="6.326419799431534" fill="#44aa44" opacity="0.8"/>
<rect x="291.5" y="309.1651879028091" width="6.3" height="20.83481209719087" fill="#44aa44" opacity="0.3"/>
<line x1="307.25" y1="227.76505604118626" x2="307.25" y2="242.44234997586744" stroke="#44aa44" stroke-width="1" opacity="0.8"/>
<rect x="302.0" y="233.6359736150587" width="6.3" height="1" fill="#44aa44" opacity="0.8"/>
<rect x="302.0" y="307.35525672025324" width="6.3" height="22.644743279746745" fill="#44aa44" opacity="0.3"/>
<line x1="317.75" y1="219.97090684828663" x2="317.75" y2="241.0758432991902" stroke="#44aa44" stroke-width="1" opacity="0.8"/>
<rect x="312.5" y="233.83841904864053" width="6.3" height="1" fill="#44aa44" opacity="0.8"/>
<rect x="312.5" y="302.7013590208696" width="6.3" height="27.29864097913042" fill="#44aa44" opacity="0.3"/>
<line x1="328.25" y1="227.25894245723174" x2="328.25" y2="248.51571298332175" stroke="#ff4444" stroke-width="1" opacity="0.8"/>
<rect x="323.0" y="234.69881214136322" width="6.3" height="1.8726202606317486" fill="#ff4444" opacity="0.8"/>
<rect x="323.0" y="304.8763833683291" width="6.3" height="25.12361663167094" fill="#ff4444" opacity="0.3"/>
<line x1="338.75" y1="229.8401217353998" x2="338.75" y2="251.45117177025796" stroke="#44aa44" stroke-width="1" opacity="0.8"/>
<rect x="333.5" y="233.1298600311042" width="6.3" height="7.0855901753633646" fill="#44aa44" opacity="0.8"/>
<rect x="333.5" y="312.4903864101317" width="6.3" height="17.509613589868326" fill="#44aa44" opacity="0.3"/>
<line x1="349.25" y1="226.90466294846357" x2="349.25" y2="246.64309272269" stroke="#44aa44" stroke-width="1" opacity="0.8"/>
<rect x="344.0" y="242.2905159006811" width="6.3" height="2.27751112779535" fill="#44aa44" opacity="0.8"/>
<rect x="344.0" y="310.9841227240869" width="6.3" height="19.015877275913088" fill="#44aa44" opacity="0.3"/>
<line x1="359.75" y1="243.30274306859013" x2="359.75" y2="264.50890223628465" stroke="#44aa44" stroke-width="1" opacity="0.8"/>
<rect x="354.5" y="246.79492679787634" width="6.3" height="10.27410575427686" fill="#44aa44" opacity="0.8"/>
<rect x="354.5" y="309.25332666423935" width="6.3" height="20.746673335760676" fill="#44aa44" opacity="0.3"/>
<line x1="370.25" y1="252.10911942939885" x2="370.25" y2="268.15292004075724" stroke="#44aa44" stroke-width="1" opacity="0.8"/>
<rect x="365.0" y="258.4355392288304" width="6.3" height="7.642315117713338" fill="#44aa44" opacity="0.8"/>
<rect x="365.0" y="312.89895940666077" width="6.3" height="17.10104059333925" fill="#44aa44" opacity="0.3"/>
<line x1="380.75" y1="265.26807261221643" x2="380.75" y2="281.7167640907385" stroke="#44aa44" stroke-width="1" opacity="0.8"/>
<rect x="375.5" y="265.52112940419374" width="6.3" height="15.335241593822047" fill="#44aa44" opacity="0.8"/>
<rect x="375.5" y="316.18466187708117" width="6.3" height="13.815338122918849" fill="#44aa44" opacity="0.3"/>
<line x1="391.25" y1="261.2191639405803" x2="391.25" y2="278.6800825870113" stroke="#ff4444" stroke-width="1" opacity="0.8"/>
<rect x="386.0" y="272.10060599560256" width="6.3" height="6.27580844103602" fill="#ff4444" opacity="0.8"/>
<rect x="386.0" y="314.6223202065897" width="6.3" height="15.377679793410314" fill="#ff4444" opacity="0.3"/>
<line x1="401.75" y1="260.81427307341664" x2="401.75" y2="272.35366278757976" stroke="#ff4444" stroke-width="1" opacity="0.8"/>
<rect x="396.5" y="264.50890223628465" width="6.3" height="1.9738429774226347" fill="#ff4444" opacity="0.8"/>
<rect x="396.5" y="314.94771284501036" width="6.3" height="15.052287154989662" fill="#ff4444" opacity="0.3"/>
<line x1="412.25" y1="257.5751461361077" x2="412.25" y2="271.594492411648" stroke="#ff4444" stroke-width="1" opacity="0.8"/>
<rect x="407.0" y="260.00449133908944" width="6.3" height="5.921528932267904" fill="#ff4444" opacity="0.8"/>
<rect x="407.0" y="315.81365821287176" width="6.3" height="14.18634178712825" fill="#ff4444" opacity="0.3"/>
<line x1="422.75" y1="232.1682442215906" x2="422.75" y2="251.90667399581702" stroke="#ff4444" stroke-width="1" opacity="0.8"/>
<rect x="417.5" y="240.82278650721298" width="6.3" height="11.033276130208606" fill="#ff4444" opacity="0.8"/>
<rect x="417.5" y="305.4513297444206" width="6.3" height="24.54867025557941" fill="#ff4444" opacity="0.3"/>
<line x1="433.25" y1="227.71444468279077" x2="433.25" y2="243.80885665254462" stroke="#ff4444" stroke-width="1" opacity="0.8"/>
<rect x="428.0" y="229.13156271786346" width="6.3" height="14.67729393468116" fill="#ff4444" opacity="0.8"/>
<rect x="428.0" y="309.8845386298976" width="6.3" height="20.115461370102437" fill="#ff4444" opacity="0.3"/>
<line x1="443.75" y1="196.18356840242402" x2="443.75" y2="233.73719633184965" stroke="#ff4444" stroke-width="1" opacity="0.8"/>
<rect x="438.5" y="196.6390706279831" width="6.3" height="34.97244865125754" fill="#ff4444" opacity="0.8"/>
<rect x="438.5" y="303.24291590671515" width="6.3" height="26.757084093284824" fill="#ff4444" opacity="0.3"/>
<line x1="454.25" y1="198.35985681342848" x2="454.25" y2="213.84693248243687" stroke="#44aa44" stroke-width="1" opacity="0.8"/>
<rect x="449.0" y="198.35985681342848" width="6.3" height="13.563844049981185" fill="#44aa44" opacity="0.8"/>
<rect x="449.0" y="310.0383054144084" width="6.3" height="19.961694585591612" fill="#44aa44" opacity="0.3"/>
<line x1="464.75" y1="176.1414704778249" x2="464.75" y2="211.41758727945515" stroke="#ff4444" stroke-width="1" opacity="0.8"/>
<rect x="459.5" y="183.1258379363973" width="6.3" height="22.623277202767213" fill="#ff4444" opacity="0.8"/>
<rect x="459.5" y="298.7926781044952" width="6.3" height="31.20732189550478" fill="#ff4444" opacity="0.3"/>
<line x1="475.25" y1="179.58304284871562" x2="475.25" y2="196.0823456856331" stroke="#ff4444" stroke-width="1" opacity="0.8"/>
<rect x="470.0" y="181.10138360057917" width="6.3" height="8.502708210436026" fill="#ff4444" opacity="0.8"/>
<rect x="470.0" y="307.97891711081843" width="6.3" height="22.021082889181564" fill="#ff4444" opacity="0.3"/>
<line x1="485.75" y1="184.54295597146998" x2="485.75" y2="194.96889580093318" stroke="#ff4444" stroke-width="1" opacity="0.8"/>
<rect x="480.5" y="189.14858958545614" width="6.3" height="1" fill="#ff4444" opacity="0.8"/>
<rect x="480.5" y="314.61212855844536" width="6.3" height="15.38787144155466" fill="#ff4444" opacity="0.3"/>
<line x1="496.25" y1="184.99845819702907" x2="496.25" y2="201.09287016678286" stroke="#44aa44" stroke-width="1" opacity="0.8"/>
<rect x="491.0" y="184.99845819702907" width="6.3" height="5.516638065104246" fill="#44aa44" opacity="0.8"/>
<rect x="491.0" y="316.8928557276828" width="6.3" height="13.107144272317193" fill="#44aa44" opacity="0.3"/>
<line x1="506.75" y1="178.21653617203842" x2="506.75" y2="191.52732343004237" stroke="#ff4444" stroke-width="1" opacity="0.8"/>
<rect x="501.5" y="186.56741030728801" width="6.3" height="2.7836247117499227" fill="#ff4444" opacity="0.8"/>
<rect x="501.5" y="315.3942407023807" width="6.3" height="14.605759297619295" fill="#ff4444" opacity="0.3"/>
<line x1="517.25" y1="177.05247492894298" x2="517.25" y2="200.83981337480563" stroke="#ff4444" stroke-width="1" opacity="0.8"/>
<rect x="512.0" y="185.60579449777444" width="6.3" height="1" fill="#ff4444" opacity="0.8"/>
<rect x="512.0" y="311.29454259787985" width="6.3" height="18.705457402120146" fill="#ff4444" opacity="0.3"/>
<line x1="527.75" y1="173.2566230492841" x2="527.75" y2="198.05618866305576" stroke="#ff4444" stroke-width="1" opacity="0.8"/>
<rect x="522.5" y="179.48182013192474" width="6.3" height="11.033276130208577" fill="#ff4444" opacity="0.8"/>
<rect x="522.5" y="311.56631722398987" width="6.3" height="18.433682776010112" fill="#ff4444" opacity="0.3"/>
<line x1="538.25" y1="174.926797876334" x2="538.25" y2="187.73147155038345" stroke="#ff4444" stroke-width="1" opacity="0.8"/>
<rect x="533.0" y="179.78548828229748" width="6.3" height="4.4031881804043" fill="#ff4444" opacity="0.8"/>
<rect x="533.0" y="314.88558131235385" width="6.3" height="15.114418687646173" fill="#ff4444" opacity="0.3"/>
<line x1="548.75" y1="181.2532176757655" x2="548.75" y2="196.1329570440285" stroke="#44aa44" stroke-width="1" opacity="0.8"/>
<rect x="543.5" y="184.89723548023812" width="6.3" height="3.6946291628680115" fill="#44aa44" opacity="0.8"/>
<rect x="543.5" y="314.1697341108815" width="6.3" height="15.830265889118486" fill="#44aa44" opacity="0.3"/>
<line x1="559.25" y1="120.26653080924547" x2="559.25" y2="196.84151606156485" stroke="#ff4444" stroke-width="1" opacity="0.8"/>
<rect x="554.0" y="120.26653080924547" width="6.3" height="71.71629484635599" fill="#ff4444" opacity="0.8"/>
<rect x="554.0" y="295.36967166785735" width="6.3" height="34.630328332142646" fill="#ff4444" opacity="0.3"/>
<line x1="569.75" y1="90.91194293988312" x2="569.75" y2="120.26653080924547" stroke="#ff4444" stroke-width="1" opacity="0.8"/>
<rect x="564.5" y="94.4547380275648" width="6.3" height="15.689521102590192" fill="#ff4444" opacity="0.8"/>
<rect x="564.5" y="295.8656705263606" width="6.3" height="34.1343294736394" fill="#ff4444" opacity="0.3"/>
<line x1="580.25" y1="80.78967126079266" x2="580.25" y2="114.09194508500028" stroke="#ff4444" stroke-width="1" opacity="0.8"/>
<rect x="575.0" y="85.85080710033789" width="6.3" height="24.394674746608004" fill="#ff4444" opacity="0.8"/>
<rect x="575.0" y="305.4638279975154" width="6.3" height="24.536172002484587" fill="#ff4444" opacity="0.3"/>
<line x1="590.75" y1="65.20137287499333" x2="590.75" y2="92.63272912532851" stroke="#ff4444" stroke-width="1" opacity="0.8"/>
<rect x="585.5" y="77.75298975706546" width="6.3" height="11.792446506140465" fill="#ff4444" opacity="0.8"/>
<rect x="585.5" y="307.88735127285855" width="6.3" height="22.112648727141472" fill="#ff4444" opacity="0.3"/>
<line x1="601.25" y1="72.18574033356575" x2="601.25" y2="101.18604869415995" stroke="#44aa44" stroke-width="1" opacity="0.8"/>
<rect x="596.0" y="86.86303426824693" width="6.3" height="13.158953182817598" fill="#44aa44" opacity="0.8"/>
<rect x="596.0" y="310.1874496087623" width="6.3" height="19.812550391237746" fill="#44aa44" opacity="0.3"/>
<line x1="611.75" y1="75.77914677964282" x2="611.75" y2="106.75329811765968" stroke="#ff4444" stroke-width="1" opacity="0.8"/>
<rect x="606.5" y="83.06718238858801" width="6.3" height="18.169477663967356" fill="#ff4444" opacity="0.8"/>
<rect x="606.5" y="310.06059853081877" width="6.3" height="19.939401469181256" fill="#ff4444" opacity="0.3"/>
<line x1="622.25" y1="65.3532069501797" x2="622.25" y2="94.35351531077384" stroke="#ff4444" stroke-width="1" opacity="0.8"/>
<rect x="617.0" y="77.95543519064731" width="6.3" height="9.413712661554143" fill="#ff4444" opacity="0.8"/>
<rect x="617.0" y="312.8097541101233" width="6.3" height="17.190245889876678" fill="#ff4444" opacity="0.3"/>
<line x1="632.75" y1="73.80530380222018" x2="632.75" y2="110.59976135571408" stroke="#44aa44" stroke-width="1" opacity="0.8"/>
<rect x="627.5" y="77.29748753150645" width="6.3" height="28.747251568616903" fill="#44aa44" opacity="0.8"/>
<rect x="627.5" y="307.54349266247567" width="6.3" height="22.456507337524354" fill="#44aa44" opacity="0.3"/>
<line x1="643.25" y1="84.83857993242881" x2="643.25" y2="117.73596288947286" stroke="#44aa44" stroke-width="1" opacity="0.8"/>
<rect x="638.0" y="101.69216227811445" width="6.3" height="2.3787338445862503" fill="#44aa44" opacity="0.8"/>
<rect x="638.0" y="306.61963593913225" width="6.3" height="23.38036406086773" fill="#44aa44" opacity="0.3"/>
<line x1="653.75" y1="89.49482490481046" x2="653.75" y2="120.26653080924547" stroke="#ff4444" stroke-width="1" opacity="0.8"/>
<rect x="648.5" y="108.57530701989596" width="6.3" height="6.2758084410361334" fill="#ff4444" opacity="0.8"/>
<rect x="648.5" y="312.65465626728604" width="6.3" height="17.345343732713946" fill="#ff4444" opacity="0.3"/>
<line x1="664.25" y1="89.89971577197406" x2="664.25" y2="120.82325575159544" stroke="#ff4444" stroke-width="1" opacity="0.8"/>
<rect x="659.0" y="96.98530594733742" width="6.3" height="17.359695929640125" fill="#ff4444" opacity="0.8"/>
<rect x="659.0" y="314.5644426200293" width="6.3" height="15.43555737997068" fill="#ff4444" opacity="0.3"/>
<line x1="674.75" y1="79.77744409288358" x2="674.75" y2="110.14425913015499" stroke="#ff4444" stroke-width="1" opacity="0.8"/>
<rect x="669.5" y="91.46866788223309" width="6.3" height="8.654542285622313" fill="#ff4444" opacity="0.8"/>
<rect x="669.5" y="315.2536184706031" width="6.3" height="14.74638152939687" fill="#ff4444" opacity="0.3"/>
<rect x="135.25" y="267.3920469780662" width="8" height="8" fill="#ff9800" opacity="0.85"/>
<text x="139.25" y="264.3920469780662" text-anchor="middle" font-size="8" font-weight="bold" fill="#ff9800">前高</text>
<rect x="166.75" y="286.62436316833805" width="8" height="8" fill="#2196f3" opacity="0.85"/>
<text x="170.75" y="283.62436316833805" text-anchor="middle" font-size="8" font-weight="bold" fill="#2196f3">中</text>
<rect x="219.25" y="214.14889794605034" width="8" height="8" fill="#ff9800" opacity="0.85"/>
<text x="223.25" y="211.14889794605034" text-anchor="middle" font-size="8" font-weight="bold" fill="#ff9800">前高</text>
<rect x="261.25" y="257.978334316512" width="8" height="8" fill="#ff9800" opacity="0.85"/>
<text x="265.25" y="254.97833431651202" text-anchor="middle" font-size="8" font-weight="bold" fill="#ff9800">前低</text>
<rect x="271.75" y="202.50828551509628" width="8" height="8" fill="#ff9800" opacity="0.85"/>
<text x="275.75" y="199.50828551509628" text-anchor="middle" font-size="8" font-weight="bold" fill="#ff9800">前高</text>
<rect x="376.75" y="277.7167640907385" width="8" height="8" fill="#ff9800" opacity="0.85"/>
<text x="380.75" y="274.7167640907385" text-anchor="middle" font-size="8" font-weight="bold" fill="#ff9800">前低</text>
<rect x="460.75" y="172.1414704778249" width="8" height="8" fill="#ff9800" opacity="0.85"/>
<text x="464.75" y="169.1414704778249" text-anchor="middle" font-size="8" font-weight="bold" fill="#ff9800">前高</text>
<rect x="502.75" y="182.56741030728801" width="8" height="8" fill="#2196f3" opacity="0.85"/>
<text x="506.75" y="179.56741030728801" text-anchor="middle" font-size="8" font-weight="bold" fill="#2196f3">中</text>
<rect x="586.75" y="61.201372874993325" width="8" height="8" fill="#ff9800" opacity="0.85"/>
<text x="590.75" y="58.201372874993325" text-anchor="middle" font-size="8" font-weight="bold" fill="#ff9800">前高</text>
<rect x="586.75" y="73.75298975706546" width="8" height="8" fill="#2196f3" opacity="0.85"/>
<text x="590.75" y="70.75298975706546" text-anchor="middle" font-size="8" font-weight="bold" fill="#2196f3">中</text>
<rect x="607.75" y="79.06718238858801" width="8" height="8" fill="#2196f3" opacity="0.85"/>
<text x="611.75" y="76.06718238858801" text-anchor="middle" font-size="8" font-weight="bold" fill="#2196f3">中</text>
<rect x="618.25" y="73.95543519064731" width="8" height="8" fill="#2196f3" opacity="0.85"/>
<text x="622.25" y="70.95543519064731" text-anchor="middle" font-size="8" font-weight="bold" fill="#2196f3">中</text>
<rect x="660.25" y="92.98530594733742" width="8" height="8" fill="#2196f3" opacity="0.85"/>
<text x="664.25" y="89.98530594733742" text-anchor="middle" font-size="8" font-weight="bold" fill="#2196f3">中</text>
<rect x="670.75" y="87.46866788223309" width="8" height="8" fill="#2196f3" opacity="0.85"/>
<text x="674.75" y="84.46866788223309" text-anchor="middle" font-size="8" font-weight="bold" fill="#2196f3">中</text>
<line x1="674.75" y1="91.46866788223309" x2="674.75" y2="42" stroke="#4caf50" stroke-width="1" stroke-dasharray="3,2"/>
<rect x="654.75" y="28" width="40" height="14" rx="3" fill="#2563eb" opacity="0.9"/>
<text x="674.75" y="38" text-anchor="middle" font-size="9" font-weight="bold" fill="white">关注</text>
<text x="55.25" y="355" fill="#666666" font-size="8" text-anchor="middle" transform="rotate(-30,55.25,355)">02/11</text>
<text x="107.75" y="355" fill="#666666" font-size="8" text-anchor="middle" transform="rotate(-30,107.75,355)">02/26</text>
<text x="160.25" y="355" fill="#666666" font-size="8" text-anchor="middle" transform="rotate(-30,160.25,355)">03/05</text>
<text x="212.75" y="355" fill="#666666" font-size="8" text-anchor="middle" transform="rotate(-30,212.75,355)">03/12</text>
<text x="265.25" y="355" fill="#666666" font-size="8" text-anchor="middle" transform="rotate(-30,265.25,355)">03/19</text>
<text x="317.75" y="355" fill="#666666" font-size="8" text-anchor="middle" transform="rotate(-30,317.75,355)">03/26</text>
<text x="370.25" y="355" fill="#666666" font-size="8" text-anchor="middle" transform="rotate(-30,370.25,355)">04/02</text>
<text x="422.75" y="355" fill="#666666" font-size="8" text-anchor="middle" transform="rotate(-30,422.75,355)">04/10</text>
<text x="475.25" y="355" fill="#666666" font-size="8" text-anchor="middle" transform="rotate(-30,475.25,355)">04/17</text>
<text x="527.75" y="355" fill="#666666" font-size="8" text-anchor="middle" transform="rotate(-30,527.75,355)">04/24</text>
<text x="580.25" y="355" fill="#666666" font-size="8" text-anchor="middle" transform="rotate(-30,580.25,355)">05/06</text>
<text x="632.75" y="355" fill="#666666" font-size="8" text-anchor="middle" transform="rotate(-30,632.75,355)">05/13</text>
<text x="674.75" y="355" fill="#666666" font-size="8" text-anchor="middle" transform="rotate(-30,674.75,355)">05/19</text>
<rect x="50" y="334" width="7" height="7" fill="#ff9800" opacity="0.8" rx="1"/>
<text x="60" y="340" font-family="sans-serif" font-size="8" fill="#888888">第1类</text>
<rect x="120" y="334" width="7" height="7" fill="#2196f3" opacity="0.8" rx="1"/>
<text x="130" y="340" font-family="sans-serif" font-size="8" fill="#888888">第2类</text>
<rect x="190" y="334" width="7" height="7" fill="#ffd700" opacity="0.8" rx="1"/>
<text x="200" y="340" font-family="sans-serif" font-size="8" fill="#888888">EMA5</text>
<rect x="260" y="334" width="7" height="7" fill="#ff6b6b" opacity="0.8" rx="1"/>
<text x="270" y="340" font-family="sans-serif" font-size="8" fill="#888888">EMA10</text>
<rect x="330" y="334" width="7" height="7" fill="#4ecdc4" opacity="0.8" rx="1"/>
<text x="340" y="340" font-family="sans-serif" font-size="8" fill="#888888">EMA20</text>
</svg>