<svg xmlns="http://www.w3.org/2000/svg" width="700" height="380" viewBox="0 0 700 380">
<rect width="700" height="380" fill="#1a1a2e"/>
<text x="350.0" y="20" text-anchor="middle" font-family="sans-serif" font-size="14" font-weight="bold" fill="#ffffff">广生堂(300436) 关键点图</text>
<line x1="50" y1="28.0" x2="680" y2="28.0" stroke="#2a2a4e" stroke-width="0.5"/>
<text x="46" y="31.0" text-anchor="end" font-size="9" fill="#666666">153.36</text>
<line x1="50" y1="128.6890017569845" x2="680" y2="128.6890017569845" stroke="#2a2a4e" stroke-width="0.5"/>
<text x="46" y="131.6890017569845" text-anchor="end" font-size="9" fill="#666666">131.12</text>
<line x1="50" y1="229.33272968224372" x2="680" y2="229.33272968224372" stroke="#2a2a4e" stroke-width="0.5"/>
<text x="46" y="232.33272968224372" text-anchor="end" font-size="9" fill="#666666">108.89</text>
<line x1="50" y1="330.0217314392281" x2="680" y2="330.0217314392281" stroke="#2a2a4e" stroke-width="0.5"/>
<text x="46" y="333.0217314392281" text-anchor="end" font-size="9" fill="#666666">86.65</text>
<polyline points="55.25,126.10839334864454 65.75,131.75253103706066 76.25,142.91001534446428 86.75,158.72399708524034 97.25,170.91160079844224 107.75,179.44413442610423 118.25,182.79334220540696 128.75,184.37722247021338 139.25,201.09788842369187 149.75,215.3236196166621 160.25,220.913890883603 170.75,226.5573306045997 181.25,230.90818356435926 191.75,231.90725127173792 202.25,237.91560855357136 212.75,245.07525701832034 223.25,236.3869366951748 233.75,224.81476396281923 244.25,221.88391702688497 254.75,227.37001874978031 265.25,232.08380930529998 275.75,239.78390206932286 286.25,257.86561311876335 296.75,263.9892151957142 307.25,267.2566876092934 317.75,272.10615862347004 328.25,265.8618171917661 338.75,266.69413567098417 349.25,268.878872599239 359.75,240.39426983710172 370.25,209.16550881928083 380.75,186.97302857840057 391.25,183.82850778178138 401.75,186.93865123244052 412.25,195.3504166410834 422.75,201.53172878203196 433.25,203.87183282813734 443.75,199.13883958239603 454.25,184.89142197921245 464.75,187.45107409325178 475.25,189.92716397527408 485.75,191.5024341770802 496.25,193.0506264605955 506.75,192.75472225233133 517.25,189.0864590145517 527.75,195.84662930683544 538.25,201.4852552948228 548.75,213.83127603737253 559.25,207.0461356768602 569.75,201.78323618500605 580.25,195.7091193926717 590.75,188.74709169012357 601.25,191.9230214996535 611.75,188.75836100472614 622.25,191.91544309881345 632.75,190.47371434305947 643.25,180.9105338114235 653.75,176.66295021475358 664.25,173.93686675766588 674.75,166.3847924344075" fill="none" stroke="#ffd700" stroke-width="1" opacity="0.6"/>
<polyline points="55.25,126.10839334864454 65.75,129.18701390596243 76.25,135.73937209747317 86.75,145.66893363734943 97.25,154.69036538053064 107.75,162.29379016251198 118.25,167.23887518096663 128.75,170.93089478439566 139.25,182.4960448837144 149.75,193.63768799623952 160.25,200.629823527375 170.75,207.3960756217783 181.25,213.25313268761468 191.75,217.00808796013843 202.25,222.99431253415653 212.75,229.61253824573143 223.25,227.6848578463046 233.75,222.95495978299616 244.25,221.6944622142726 254.75,224.72132766541776 265.25,227.77406634740348 275.75,232.7577065746699 286.25,243.89794814611975 296.75,249.77767018311906 307.25,254.14384513827045 317.75,259.17316432255274 328.25,258.1186134145174 338.75,259.9804605444997 349.25,262.39280343745406 359.75,248.03503268752192 370.25,229.6119334322705 380.75,213.78941246215587 391.25,207.19851313968084 401.75,204.64586313860406 412.25,206.01460574219774 422.75,207.44728707342162 433.25,207.64815140922641 443.75,204.37991535135137 454.25,195.65567379162303 464.75,195.09471097884253 475.25,195.05555329892908 485.75,194.9823571683406 496.25,195.1941124154834 506.75,194.64298540099603 517.25,192.29879397154085 527.75,195.40209868424307 538.25,198.55853660907113 548.75,205.82486041150764 559.25,203.57958669229455 569.75,201.33919587574962 580.25,198.1067758634321 590.75,193.87336866735848 601.25,194.6736436585139 611.75,192.44735208694257 622.25,193.49867121422355 632.75,192.4244140537377 643.25,186.85346108908573 653.75,183.45606507678173 664.25,180.73399867072882 674.75,175.37884323748548" fill="none" stroke="#ff6b6b" stroke-width="1" opacity="0.6"/>
<polyline points="55.25,126.10839334864454 65.75,127.72100411676344 76.25,131.2928117208118 86.75,136.91749256328615 97.25,142.47647500724418 107.75,147.62244897621412 118.25,151.6100021940997 128.75,155.0323813184546 139.25,162.60446122437787 149.75,170.33499653658978 160.25,176.21684766810358 170.75,182.08612027557876 181.25,187.56457448589302 191.75,191.97798517166467 202.25,197.49744592838599 212.75,203.39240859690335 223.25,204.87982644947292 233.75,204.5741685493429 244.25,205.66445946416894 254.75,208.77662734335007 265.25,211.8942238264919 275.75,216.01706799514682 286.25,223.44677915919416 296.75,228.47436393923437 307.25,232.79029427230267 317.75,237.45837107035229 328.25,238.97406280920998 338.75,241.77260660161093 349.25,244.77029611152884 359.75,238.92789308308107 370.25,230.14504486408657 380.75,221.80628517194882 391.25,217.5903976497197 401.75,215.26359198153295 412.25,214.969340122184 422.75,214.8669604023502 433.25,214.2655394993024 443.75,211.9233788889796 454.25,206.6351129731573 464.75,205.29561443488805 475.25,204.30358865435764 485.75,203.38448255210383 496.25,202.69519954977264 506.75,201.69212471987075 517.25,199.79286832169186 527.75,200.70468751880716 538.25,201.85305130471104 548.75,205.34545761116445 559.25,204.2150192630379 569.75,202.98096382858643 580.25,201.13143258853086 590.75,198.6258710358162 601.25,198.5924434246636 611.75,197.05307167135007 622.25,197.1651226823632 632.75,196.25323069657165 643.25,192.97046327291258 653.75,190.6083032489603 664.25,188.50129340082032 674.75,184.95646962816033" fill="none" stroke="#4ecdc4" stroke-width="1" opacity="0.6"/>
<line x1="55.25" y1="79.4310728398986" x2="55.25" y2="129.95666904529185" stroke="#44aa44" stroke-width="1" opacity="0.8"/>
<rect x="50.0" y="106.3690027164299" width="6.3" height="19.739390632214636" fill="#44aa44" opacity="0.8"/>
<rect x="50.0" y="307.3352395308956" width="6.3" height="22.664760469104387" fill="#44aa44" opacity="0.3"/>
<line x1="65.75" y1="120.63025970988772" x2="65.75" y2="145.07812884152963" stroke="#44aa44" stroke-width="1" opacity="0.8"/>
<rect x="60.5" y="133.75967091021397" width="6.3" height="9.281135503678854" fill="#44aa44" opacity="0.8"/>
<rect x="60.5" y="312.1818613604304" width="6.3" height="17.818138639569618" fill="#44aa44" opacity="0.3"/>
<line x1="76.25" y1="142.99553258216758" x2="76.25" y2="165.4513531178979" stroke="#44aa44" stroke-width="1" opacity="0.8"/>
<rect x="71.0" y="147.29654659606751" width="6.3" height="17.928437363204097" fill="#44aa44" opacity="0.8"/>
<rect x="71.0" y="316.7604518172263" width="6.3" height="13.23954818277369" fill="#44aa44" opacity="0.3"/>
<line x1="86.75" y1="165.90409143515052" x2="86.75" y2="200.49329887325126" stroke="#44aa44" stroke-width="1" opacity="0.8"/>
<rect x="81.5" y="178.89768114030093" width="6.3" height="11.454279426491524" fill="#44aa44" opacity="0.8"/>
<rect x="81.5" y="315.9151598025115" width="6.3" height="14.084840197488521" fill="#44aa44" opacity="0.3"/>
<line x1="97.25" y1="179.938979269982" x2="97.25" y2="201.85151382500922" stroke="#44aa44" stroke-width="1" opacity="0.8"/>
<rect x="92.0" y="189.67285309091346" width="6.3" height="5.61395513393262" fill="#44aa44" opacity="0.8"/>
<rect x="92.0" y="318.8259993275295" width="6.3" height="11.174000672470541" fill="#44aa44" opacity="0.3"/>
<line x1="107.75" y1="189.40121010056197" x2="107.75" y2="203.1191811133165" stroke="#ff4444" stroke-width="1" opacity="0.8"/>
<rect x="102.5" y="196.50920168142818" width="6.3" height="3.033346725592594" fill="#ff4444" opacity="0.8"/>
<rect x="102.5" y="318.1305828884771" width="6.3" height="11.86941711152293" fill="#ff4444" opacity="0.3"/>
<line x1="118.25" y1="181.56883721209147" x2="118.25" y2="215.11674652051119" stroke="#ff4444" stroke-width="1" opacity="0.8"/>
<rect x="113.0" y="189.49175776401248" width="6.3" height="7.017443917415704" fill="#ff4444" opacity="0.8"/>
<rect x="113.0" y="315.26459727830945" width="6.3" height="14.735402721690544" fill="#ff4444" opacity="0.3"/>
<line x1="128.75" y1="182.20267085624516" x2="128.75" y2="203.2097287767671" stroke="#ff4444" stroke-width="1" opacity="0.8"/>
<rect x="123.5" y="187.54498299982612" width="6.3" height="14.034887834831494" fill="#ff4444" opacity="0.8"/>
<rect x="123.5" y="317.188381429095" width="6.3" height="12.811618570905017" fill="#ff4444" opacity="0.3"/>
<line x1="139.25" y1="187.54498299982612" x2="139.25" y2="234.76558948927524" stroke="#44aa44" stroke-width="1" opacity="0.8"/>
<rect x="134.0" y="192.6156521530556" width="6.3" height="41.92356817759335" fill="#44aa44" opacity="0.8"/>
<rect x="134.0" y="315.11490926833824" width="6.3" height="14.88509073166178" fill="#44aa44" opacity="0.3"/>
<line x1="149.75" y1="231.18895678297946" x2="149.75" y2="245.1785707860857" stroke="#44aa44" stroke-width="1" opacity="0.8"/>
<rect x="144.5" y="242.41686705084464" width="6.3" height="1.3582149517579012" fill="#44aa44" opacity="0.8"/>
<rect x="144.5" y="321.7633930114925" width="6.3" height="8.236606988507496" fill="#44aa44" opacity="0.3"/>
<line x1="160.25" y1="219.05556988060908" x2="160.25" y2="245.404939944712" stroke="#ff4444" stroke-width="1" opacity="0.8"/>
<rect x="155.0" y="232.09443341748474" width="6.3" height="1.7204056055599608" fill="#ff4444" opacity="0.8"/>
<rect x="155.0" y="319.6365311843088" width="6.3" height="10.36346881569121" fill="#ff4444" opacity="0.3"/>
<line x1="170.75" y1="218.46701006818063" x2="170.75" y2="240.922830603911" stroke="#44aa44" stroke-width="1" opacity="0.8"/>
<rect x="165.5" y="233.7695651913195" width="6.3" height="4.07464485527359" fill="#44aa44" opacity="0.8"/>
<rect x="165.5" y="320.36843822606073" width="6.3" height="9.63156177393926" fill="#44aa44" opacity="0.3"/>
<line x1="181.25" y1="235.62579229205522" x2="181.25" y2="250.97362124691932" stroke="#ff4444" stroke-width="1" opacity="0.8"/>
<rect x="176.0" y="239.60988948387836" width="6.3" height="8.420932700898874" fill="#ff4444" opacity="0.8"/>
<rect x="176.0" y="322.3731963008934" width="6.3" height="7.6268036991066" fill="#ff4444" opacity="0.3"/>
<line x1="191.75" y1="225.34863249042058" x2="191.75" y2="236.62181659001104" stroke="#ff4444" stroke-width="1" opacity="0.8"/>
<rect x="186.5" y="233.9053866864953" width="6.3" height="1.6751317738346643" fill="#ff4444" opacity="0.8"/>
<rect x="186.5" y="324.06510539117386" width="6.3" height="5.9348946088261325" fill="#ff4444" opacity="0.3"/>
<line x1="202.25" y1="229.87601566294688" x2="202.25" y2="251.3358119007214" stroke="#44aa44" stroke-width="1" opacity="0.8"/>
<rect x="197.0" y="233.7695651913195" width="6.3" height="16.162757925918783" fill="#44aa44" opacity="0.8"/>
<rect x="197.0" y="321.986877532569" width="6.3" height="8.013122467430989" fill="#44aa44" opacity="0.3"/>
<line x1="212.75" y1="251.5169072276225" x2="212.75" y2="266.2761763700581" stroke="#44aa44" stroke-width="1" opacity="0.8"/>
<rect x="207.5" y="253.1014913380067" width="6.3" height="6.293062609811528" fill="#44aa44" opacity="0.8"/>
<rect x="207.5" y="323.39968584907615" width="6.3" height="6.600314150923826" fill="#44aa44" opacity="0.3"/>
<line x1="223.25" y1="185.37183907701356" x2="223.25" y2="267.2722006680139" stroke="#ff4444" stroke-width="1" opacity="0.8"/>
<rect x="218.0" y="219.0102960488838" width="6.3" height="40.384257898934436" fill="#ff4444" opacity="0.8"/>
<rect x="218.0" y="308.4689591746418" width="6.3" height="21.53104082535819" fill="#ff4444" opacity="0.3"/>
<line x1="233.75" y1="180.84445590448726" x2="233.75" y2="224.30733436073953" stroke="#ff4444" stroke-width="1" opacity="0.8"/>
<rect x="228.5" y="201.67041849810815" width="6.3" height="22.636915862631383" fill="#ff4444" opacity="0.8"/>
<rect x="228.5" y="314.4297181847098" width="6.3" height="15.570281815290148" fill="#ff4444" opacity="0.3"/>
<line x1="244.25" y1="181.29719422173991" x2="244.25" y2="218.37646240473012" stroke="#44aa44" stroke-width="1" opacity="0.8"/>
<rect x="239.0" y="199.67836990219658" width="6.3" height="16.343853252819855" fill="#44aa44" opacity="0.8"/>
<rect x="239.0" y="318.61709198843835" width="6.3" height="11.382908011561652" fill="#44aa44" opacity="0.3"/>
<line x1="254.75" y1="208.46149325689757" x2="254.75" y2="247.98554835305202" stroke="#44aa44" stroke-width="1" opacity="0.8"/>
<rect x="249.5" y="209.36696989140282" width="6.3" height="28.97525230416815" fill="#44aa44" opacity="0.8"/>
<rect x="249.5" y="319.39168232595284" width="6.3" height="10.608317674047132" fill="#44aa44" opacity="0.3"/>
<line x1="265.25" y1="224.80534650971742" x2="265.25" y2="246.58205956956883" stroke="#ff4444" stroke-width="1" opacity="0.8"/>
<rect x="260.0" y="241.5113904163394" width="6.3" height="1" fill="#ff4444" opacity="0.8"/>
<rect x="260.0" y="319.1380859483045" width="6.3" height="10.861914051695525" fill="#ff4444" opacity="0.3"/>
<line x1="275.75" y1="230.64567080227636" x2="275.75" y2="255.99901656842349" stroke="#44aa44" stroke-width="1" opacity="0.8"/>
<rect x="270.5" y="240.65118761355942" width="6.3" height="14.53289998380933" fill="#44aa44" opacity="0.8"/>
<rect x="270.5" y="322.3174908032306" width="6.3" height="7.6825091967693755" fill="#44aa44" opacity="0.3"/>
<line x1="286.25" y1="269.5811660860023" x2="286.25" y2="295.88526231838006" stroke="#44aa44" stroke-width="1" opacity="0.8"/>
<rect x="281.0" y="269.5811660860023" width="6.3" height="24.447869131641937" fill="#44aa44" opacity="0.8"/>
<rect x="281.0" y="319.1673870370498" width="6.3" height="10.832612962950158" fill="#44aa44" opacity="0.3"/>
<line x1="296.75" y1="266.9552838459371" x2="296.75" y2="286.6494006464264" stroke="#ff4444" stroke-width="1" opacity="0.8"/>
<rect x="291.5" y="276.23641934961597" width="6.3" height="6.881622422239957" fill="#ff4444" opacity="0.8"/>
<rect x="291.5" y="320.7202691092272" width="6.3" height="9.279730890772806" fill="#ff4444" opacity="0.3"/>
<line x1="307.25" y1="265.95925954798133" x2="307.25" y2="278.5001109358791" stroke="#ff4444" stroke-width="1" opacity="0.8"/>
<rect x="302.0" y="273.7916324364518" width="6.3" height="4.663204667702075" fill="#ff4444" opacity="0.8"/>
<rect x="302.0" y="323.75474316465676" width="6.3" height="6.245256835343254" fill="#ff4444" opacity="0.3"/>
<line x1="317.75" y1="261.06968572165295" x2="317.75" y2="283.6160539208338" stroke="#44aa44" stroke-width="1" opacity="0.8"/>
<rect x="312.5" y="277.36826514274753" width="6.3" height="4.436835509075763" fill="#44aa44" opacity="0.8"/>
<rect x="312.5" y="321.745714945096" width="6.3" height="8.254285054904022" fill="#44aa44" opacity="0.3"/>
<line x1="328.25" y1="243.77508200260255" x2="328.25" y2="287.69069877610747" stroke="#ff4444" stroke-width="1" opacity="0.8"/>
<rect x="323.0" y="253.37313432835825" width="6.3" height="33.18571865461766" fill="#ff4444" opacity="0.8"/>
<rect x="323.0" y="312.2303728062593" width="6.3" height="17.769627193740664" fill="#ff4444" opacity="0.3"/>
<line x1="338.75" y1="248.30246517512882" x2="338.75" y2="273.2483464557487" stroke="#44aa44" stroke-width="1" opacity="0.8"/>
<rect x="333.5" y="265.0537829134761" width="6.3" height="3.3049897159442025" fill="#44aa44" opacity="0.8"/>
<rect x="333.5" y="318.7802862408032" width="6.3" height="11.21971375919677" fill="#44aa44" opacity="0.3"/>
<line x1="349.25" y1="248.84575115583198" x2="349.25" y2="275.46676421028644" stroke="#44aa44" stroke-width="1" opacity="0.8"/>
<rect x="344.0" y="270.03390440325495" width="6.3" height="3.214442052493723" fill="#44aa44" opacity="0.8"/>
<rect x="344.0" y="319.3022966857056" width="6.3" height="10.697703314294408" fill="#44aa44" opacity="0.3"/>
<line x1="359.75" y1="183.4250643128272" x2="359.75" y2="271.70903617708973" stroke="#ff4444" stroke-width="1" opacity="0.8"/>
<rect x="354.5" y="183.4250643128272" width="6.3" height="86.11082794144988" fill="#ff4444" opacity="0.8"/>
<rect x="354.5" y="305.6720975721912" width="6.3" height="24.32790242780882" fill="#ff4444" opacity="0.3"/>
<line x1="370.25" y1="134.30295689091713" x2="370.25" y2="173.1931783429178" stroke="#ff4444" stroke-width="1" opacity="0.8"/>
<rect x="365.0" y="146.70798678363911" width="6.3" height="24.22149997301557" fill="#ff4444" opacity="0.8"/>
<rect x="365.0" y="295.0" width="6.3" height="35.0" fill="#ff4444" opacity="0.3"/>
<line x1="380.75" y1="129.23228773768767" x2="380.75" y2="164.04786433441475" stroke="#ff4444" stroke-width="1" opacity="0.8"/>
<rect x="375.5" y="142.58806809664014" width="6.3" height="17.29460371905043" fill="#ff4444" opacity="0.8"/>
<rect x="375.5" y="304.1427973478038" width="6.3" height="25.85720265219616" fill="#ff4444" opacity="0.3"/>
<line x1="391.25" y1="151.91447743204435" x2="391.25" y2="197.14303532558188" stroke="#44aa44" stroke-width="1" opacity="0.8"/>
<rect x="386.0" y="162.91601854128317" width="6.3" height="14.623447647259923" fill="#44aa44" opacity="0.8"/>
<rect x="386.0" y="306.6920298843143" width="6.3" height="23.307970115685677" fill="#44aa44" opacity="0.3"/>
<line x1="401.75" y1="170.52202227112735" x2="401.75" y2="199.08981008976818" stroke="#44aa44" stroke-width="1" opacity="0.8"/>
<rect x="396.5" y="174.50611946295047" width="6.3" height="18.6528186708083" fill="#44aa44" opacity="0.8"/>
<rect x="396.5" y="308.95544104732534" width="6.3" height="21.04455895267467" fill="#44aa44" opacity="0.3"/>
<line x1="412.25" y1="186.77532786049665" x2="412.25" y2="222.0436427744764" stroke="#44aa44" stroke-width="1" opacity="0.8"/>
<rect x="407.0" y="198.13905962353763" width="6.3" height="14.034887834831437" fill="#44aa44" opacity="0.8"/>
<rect x="407.0" y="311.5252906836035" width="6.3" height="18.474709316396524" fill="#44aa44" opacity="0.3"/>
<line x1="422.75" y1="200.17638205117447" x2="422.75" y2="224.30733436073953" stroke="#ff4444" stroke-width="1" opacity="0.8"/>
<rect x="417.5" y="213.8943530639291" width="6.3" height="1" fill="#ff4444" opacity="0.8"/>
<rect x="417.5" y="314.9670999405322" width="6.3" height="15.032900059467831" fill="#ff4444" opacity="0.3"/>
<line x1="433.25" y1="202.9380857864155" x2="433.25" y2="222.496381091729" stroke="#ff4444" stroke-width="1" opacity="0.8"/>
<rect x="428.0" y="208.55204092034808" width="6.3" height="2.2184177545379384" fill="#ff4444" opacity="0.8"/>
<rect x="428.0" y="315.79121820891186" width="6.3" height="14.208781791088123" fill="#ff4444" opacity="0.3"/>
<line x1="443.75" y1="189.67285309091346" x2="443.75" y2="218.6028315633564" stroke="#ff4444" stroke-width="1" opacity="0.8"/>
<rect x="438.5" y="189.67285309091346" width="6.3" height="19.739390632214594" fill="#ff4444" opacity="0.8"/>
<rect x="438.5" y="311.6303879757427" width="6.3" height="18.369612024257343" fill="#ff4444" opacity="0.3"/>
<line x1="454.25" y1="137.69849427031184" x2="454.25" y2="205.65451568993123" stroke="#ff4444" stroke-width="1" opacity="0.8"/>
<rect x="449.0" y="156.39658677284535" width="6.3" height="22.636915862631383" fill="#ff4444" opacity="0.8"/>
<rect x="449.0" y="301.89002902514244" width="6.3" height="28.109970974857553" fill="#ff4444" opacity="0.3"/>
<line x1="464.75" y1="171.33695124218207" x2="464.75" y2="197.00721383040607" stroke="#44aa44" stroke-width="1" opacity="0.8"/>
<rect x="459.5" y="179.03350263547674" width="6.3" height="13.536875685853573" fill="#44aa44" opacity="0.8"/>
<rect x="459.5" y="312.15519677974777" width="6.3" height="17.844803220252253" fill="#44aa44" opacity="0.3"/>
<line x1="475.25" y1="189.0390194467598" x2="475.25" y2="205.29232503612914" stroke="#ff4444" stroke-width="1" opacity="0.8"/>
<rect x="470.0" y="194.87934373931873" width="6.3" height="2.2636915862631497" fill="#ff4444" opacity="0.8"/>
<rect x="470.0" y="317.30562511236656" width="6.3" height="12.694374887633458" fill="#ff4444" opacity="0.3"/>
<line x1="485.75" y1="192.9325689751324" x2="485.75" y2="200.76494186360287" stroke="#ff4444" stroke-width="1" opacity="0.8"/>
<rect x="480.5" y="194.65297458069244" width="6.3" height="4.255740182174662" fill="#ff4444" opacity="0.8"/>
<rect x="480.5" y="321.050151781269" width="6.3" height="8.949848218730985" fill="#ff4444" opacity="0.3"/>
<line x1="496.25" y1="173.6006428284452" x2="496.25" y2="200.17638205117447" stroke="#ff4444" stroke-width="1" opacity="0.8"/>
<rect x="491.0" y="196.1470110276261" width="6.3" height="4.029371023548379" fill="#ff4444" opacity="0.8"/>
<rect x="491.0" y="317.3963948058998" width="6.3" height="12.603605194100236" fill="#ff4444" opacity="0.3"/>
<line x1="506.75" y1="190.84997271577032" x2="506.75" y2="215.252568015687" stroke="#ff4444" stroke-width="1" opacity="0.8"/>
<rect x="501.5" y="192.16291383580295" width="6.3" height="13.084137368600977" fill="#ff4444" opacity="0.8"/>
<rect x="501.5" y="316.91325129999444" width="6.3" height="13.086748700005531" fill="#ff4444" opacity="0.3"/>
<line x1="517.25" y1="169.9787362904242" x2="517.25" y2="203.4813717671187" stroke="#ff4444" stroke-width="1" opacity="0.8"/>
<rect x="512.0" y="181.7499325389925" width="6.3" height="18.290628017006156" fill="#ff4444" opacity="0.8"/>
<rect x="512.0" y="313.4157410832826" width="6.3" height="16.584258916717374" fill="#ff4444" opacity="0.3"/>
<line x1="527.75" y1="188.08826898052928" x2="527.75" y2="211.35901848731436" stroke="#44aa44" stroke-width="1" opacity="0.8"/>
<rect x="522.5" y="189.22011477366087" width="6.3" height="20.14685511774195" fill="#44aa44" opacity="0.8"/>
<rect x="522.5" y="318.63865750504783" width="6.3" height="11.361342494952149" fill="#44aa44" opacity="0.3"/>
<line x1="538.25" y1="202.89281195469022" x2="538.25" y2="218.96502221715852" stroke="#44aa44" stroke-width="1" opacity="0.8"/>
<rect x="533.0" y="210.72518484316072" width="6.3" height="2.0373224276368376" fill="#44aa44" opacity="0.8"/>
<rect x="533.0" y="320.3436704790618" width="6.3" height="9.65632952093821" fill="#44aa44" opacity="0.3"/>
<line x1="548.75" y1="202.8022642912397" x2="548.75" y2="239.47406798870256" stroke="#44aa44" stroke-width="1" opacity="0.8"/>
<rect x="543.5" y="213.7585315687533" width="6.3" height="24.764785953718757" fill="#44aa44" opacity="0.8"/>
<rect x="543.5" y="315.7959134016983" width="6.3" height="14.204086598301709" fill="#44aa44" opacity="0.3"/>
<line x1="559.25" y1="170.0240101221495" x2="559.25" y2="221.2739876351469" stroke="#ff4444" stroke-width="1" opacity="0.8"/>
<rect x="554.0" y="193.47585495583556" width="6.3" height="27.79813267931135" fill="#ff4444" opacity="0.8"/>
<rect x="554.0" y="309.8322198961387" width="6.3" height="20.16778010386126" fill="#ff4444" opacity="0.3"/>
<line x1="569.75" y1="177.58474002026836" x2="569.75" y2="199.40672691184503" stroke="#ff4444" stroke-width="1" opacity="0.8"/>
<rect x="564.5" y="191.2574372012977" width="6.3" height="6.428884104987333" fill="#ff4444" opacity="0.8"/>
<rect x="564.5" y="316.8767380078968" width="6.3" height="13.123261992103226" fill="#ff4444" opacity="0.3"/>
<line x1="580.25" y1="174.59666712640097" x2="580.25" y2="201.67041849810815" stroke="#ff4444" stroke-width="1" opacity="0.8"/>
<rect x="575.0" y="183.560885808003" width="6.3" height="17.656794372852545" fill="#ff4444" opacity="0.8"/>
<rect x="575.0" y="319.09006005559553" width="6.3" height="10.909939944404492" fill="#ff4444" opacity="0.3"/>
<line x1="590.75" y1="170.52202227112735" x2="590.75" y2="187.54498299982612" stroke="#ff4444" stroke-width="1" opacity="0.8"/>
<rect x="585.5" y="174.82303628502729" width="6.3" height="12.721946714798833" fill="#ff4444" opacity="0.8"/>
<rect x="585.5" y="319.6908980074819" width="6.3" height="10.309101992518118" fill="#ff4444" opacity="0.3"/>
<line x1="601.25" y1="165.4513531178979" x2="601.25" y2="210.67991101143542" stroke="#44aa44" stroke-width="1" opacity="0.8"/>
<rect x="596.0" y="169.3901764779958" width="6.3" height="28.884704640717644" fill="#44aa44" opacity="0.8"/>
<rect x="596.0" y="314.8344183907728" width="6.3" height="15.165581609227194" fill="#44aa44" opacity="0.3"/>
<line x1="611.75" y1="174.55139329467576" x2="611.75" y2="199.6330960704713" stroke="#ff4444" stroke-width="1" opacity="0.8"/>
<rect x="606.5" y="182.42904001487145" width="6.3" height="17.204056055599864" fill="#ff4444" opacity="0.8"/>
<rect x="606.5" y="316.7957262681861" width="6.3" height="13.204273731813906" fill="#ff4444" opacity="0.3"/>
<line x1="622.25" y1="172.7404400256652" x2="622.25" y2="200.08583438772396" stroke="#44aa44" stroke-width="1" opacity="0.8"/>
<rect x="617.0" y="184.42108861078302" width="6.3" height="13.808518676205125" fill="#44aa44" opacity="0.8"/>
<rect x="617.0" y="318.47159697924155" width="6.3" height="11.528403020758423" fill="#44aa44" opacity="0.3"/>
<line x1="632.75" y1="174.59666712640097" x2="632.75" y2="208.00875493964497" stroke="#ff4444" stroke-width="1" opacity="0.8"/>
<rect x="627.5" y="187.59025683155141" width="6.3" height="6.247788778086232" fill="#ff4444" opacity="0.8"/>
<rect x="627.5" y="318.2864121622089" width="6.3" height="11.713587837791117" fill="#ff4444" opacity="0.3"/>
<line x1="643.25" y1="138.2870540827402" x2="643.25" y2="184.46636244250828" stroke="#ff4444" stroke-width="1" opacity="0.8"/>
<rect x="638.0" y="161.7841727481516" width="6.3" height="22.09362988192825" fill="#ff4444" opacity="0.8"/>
<rect x="638.0" y="306.5965014676799" width="6.3" height="23.403498532320075" fill="#ff4444" opacity="0.3"/>
<line x1="653.75" y1="144.71593818772755" x2="653.75" y2="180.75390824103673" stroke="#44aa44" stroke-width="1" opacity="0.8"/>
<rect x="648.5" y="167.08121106000738" width="6.3" height="1.086571961406264" fill="#44aa44" opacity="0.8"/>
<rect x="648.5" y="314.7519499917022" width="6.3" height="15.248050008297836" fill="#44aa44" opacity="0.3"/>
<line x1="664.25" y1="156.48713443629586" x2="664.25" y2="176.9961802078399" stroke="#ff4444" stroke-width="1" opacity="0.8"/>
<rect x="659.0" y="168.48469984349052" width="6.3" height="1.4487626152083806" fill="#ff4444" opacity="0.8"/>
<rect x="659.0" y="320.12356214042705" width="6.3" height="9.876437859572938" fill="#ff4444" opacity="0.3"/>
<line x1="674.75" y1="143.8557353849476" x2="674.75" y2="197.14303532558188" stroke="#ff4444" stroke-width="1" opacity="0.8"/>
<rect x="669.5" y="151.28064378789065" width="6.3" height="14.487626152084061" fill="#ff4444" opacity="0.8"/>
<rect x="669.5" y="316.4616868984068" width="6.3" height="13.538313101593186" fill="#ff4444" opacity="0.3"/>
<rect x="219.25" y="263.2722006680139" width="8" height="8" fill="#ff9800" opacity="0.85"/>
<text x="223.25" y="260.2722006680139" text-anchor="middle" font-size="8" font-weight="bold" fill="#ff9800">前低</text>
<rect x="229.75" y="176.84445590448726" width="8" height="8" fill="#ff9800" opacity="0.85"/>
<text x="233.75" y="173.84445590448726" text-anchor="middle" font-size="8" font-weight="bold" fill="#ff9800">前高</text>
<rect x="282.25" y="291.88526231838006" width="8" height="8" fill="#ff9800" opacity="0.85"/>
<text x="286.25" y="288.88526231838006" text-anchor="middle" font-size="8" font-weight="bold" fill="#ff9800">前低</text>
<rect x="376.75" y="125.23228773768767" width="8" height="8" fill="#ff9800" opacity="0.85"/>
<text x="380.75" y="122.23228773768767" text-anchor="middle" font-size="8" font-weight="bold" fill="#ff9800">前高</text>
<rect x="418.75" y="220.30733436073953" width="8" height="8" fill="#ff9800" opacity="0.85"/>
<text x="422.75" y="217.30733436073953" text-anchor="middle" font-size="8" font-weight="bold" fill="#ff9800">前低</text>
<rect x="429.25" y="204.55204092034808" width="8" height="8" fill="#2196f3" opacity="0.85"/>
<text x="433.25" y="201.55204092034808" text-anchor="middle" font-size="8" font-weight="bold" fill="#2196f3">中</text>
<rect x="450.25" y="133.69849427031184" width="8" height="8" fill="#ff9800" opacity="0.85"/>
<text x="454.25" y="130.69849427031184" text-anchor="middle" font-size="8" font-weight="bold" fill="#ff9800">前高</text>
<rect x="481.75" y="190.65297458069244" width="8" height="8" fill="#2196f3" opacity="0.85"/>
<text x="485.75" y="187.65297458069244" text-anchor="middle" font-size="8" font-weight="bold" fill="#2196f3">中</text>
<rect x="513.25" y="165.9787362904242" width="8" height="8" fill="#ff9800" opacity="0.85"/>
<text x="517.25" y="162.9787362904242" text-anchor="middle" font-size="8" font-weight="bold" fill="#ff9800">前高</text>
<rect x="544.75" y="235.47406798870256" width="8" height="8" fill="#ff9800" opacity="0.85"/>
<text x="548.75" y="232.47406798870256" text-anchor="middle" font-size="8" font-weight="bold" fill="#ff9800">前低</text>
<rect x="576.25" y="179.560885808003" width="8" height="8" fill="#2196f3" opacity="0.85"/>
<text x="580.25" y="176.560885808003" text-anchor="middle" font-size="8" font-weight="bold" fill="#2196f3">中</text>
<rect x="586.75" y="170.82303628502729" width="8" height="8" fill="#2196f3" opacity="0.85"/>
<text x="590.75" y="167.82303628502729" text-anchor="middle" font-size="8" font-weight="bold" fill="#2196f3">中</text>
<rect x="597.25" y="161.4513531178979" width="8" height="8" fill="#ff9800" opacity="0.85"/>
<text x="601.25" y="158.4513531178979" text-anchor="middle" font-size="8" font-weight="bold" fill="#ff9800">前高</text>
<rect x="639.25" y="134.2870540827402" width="8" height="8" fill="#ff9800" opacity="0.85"/>
<text x="643.25" y="131.2870540827402" text-anchor="middle" font-size="8" font-weight="bold" fill="#ff9800">前高</text>
<line x1="674.75" y1="151.28064378789065" x2="674.75" y2="42" stroke="#4caf50" stroke-width="1" stroke-dasharray="3,2"/>
<rect x="654.75" y="28" width="40" height="14" rx="3" fill="#2563eb" opacity="0.9"/>
<text x="674.75" y="38" text-anchor="middle" font-size="9" font-weight="bold" fill="white">关注</text>
<text x="55.25" y="355" fill="#666666" font-size="8" text-anchor="middle" transform="rotate(-30,55.25,355)">02/11</text>
<text x="107.75" y="355" fill="#666666" font-size="8" text-anchor="middle" transform="rotate(-30,107.75,355)">02/26</text>
<text x="160.25" y="355" fill="#666666" font-size="8" text-anchor="middle" transform="rotate(-30,160.25,355)">03/05</text>
<text x="212.75" y="355" fill="#666666" font-size="8" text-anchor="middle" transform="rotate(-30,212.75,355)">03/12</text>
<text x="265.25" y="355" fill="#666666" font-size="8" text-anchor="middle" transform="rotate(-30,265.25,355)">03/19</text>
<text x="317.75" y="355" fill="#666666" font-size="8" text-anchor="middle" transform="rotate(-30,317.75,355)">03/26</text>
<text x="370.25" y="355" fill="#666666" font-size="8" text-anchor="middle" transform="rotate(-30,370.25,355)">04/02</text>
<text x="422.75" y="355" fill="#666666" font-size="8" text-anchor="middle" transform="rotate(-30,422.75,355)">04/10</text>
<text x="475.25" y="355" fill="#666666" font-size="8" text-anchor="middle" transform="rotate(-30,475.25,355)">04/17</text>
<text x="527.75" y="355" fill="#666666" font-size="8" text-anchor="middle" transform="rotate(-30,527.75,355)">04/24</text>
<text x="580.25" y="355" fill="#666666" font-size="8" text-anchor="middle" transform="rotate(-30,580.25,355)">05/06</text>
<text x="632.75" y="355" fill="#666666" font-size="8" text-anchor="middle" transform="rotate(-30,632.75,355)">05/13</text>
<text x="674.75" y="355" fill="#666666" font-size="8" text-anchor="middle" transform="rotate(-30,674.75,355)">05/19</text>
<rect x="50" y="334" width="7" height="7" fill="#ff9800" opacity="0.8" rx="1"/>
<text x="60" y="340" font-family="sans-serif" font-size="8" fill="#888888">第1类</text>
<rect x="120" y="334" width="7" height="7" fill="#2196f3" opacity="0.8" rx="1"/>
<text x="130" y="340" font-family="sans-serif" font-size="8" fill="#888888">第2类</text>
<rect x="190" y="334" width="7" height="7" fill="#ffd700" opacity="0.8" rx="1"/>
<text x="200" y="340" font-family="sans-serif" font-size="8" fill="#888888">EMA5</text>
<rect x="260" y="334" width="7" height="7" fill="#ff6b6b" opacity="0.8" rx="1"/>
<text x="270" y="340" font-family="sans-serif" font-size="8" fill="#888888">EMA10</text>
<rect x="330" y="334" width="7" height="7" fill="#4ecdc4" opacity="0.8" rx="1"/>
<text x="340" y="340" font-family="sans-serif" font-size="8" fill="#888888">EMA20</text>
</svg>