<svg xmlns="http://www.w3.org/2000/svg" width="700" height="380" viewBox="0 0 700 380">
<rect width="700" height="380" fill="#1a1a2e"/>
<text x="350.0" y="20" text-anchor="middle" font-family="sans-serif" font-size="14" font-weight="bold" fill="#ffffff">江苏雷利(300660) 关键点图</text>
<line x1="50" y1="28.037913162000763" x2="680" y2="28.037913162000763" stroke="#2a2a4e" stroke-width="0.5"/>
<text x="46" y="31.037913162000763" text-anchor="end" font-size="9" fill="#666666">59.57</text>
<line x1="50" y1="128.64319661399952" x2="680" y2="128.64319661399952" stroke="#2a2a4e" stroke-width="0.5"/>
<text x="46" y="131.64319661399952" text-anchor="end" font-size="9" fill="#666666">52.14</text>
<line x1="50" y1="229.38388421600095" x2="680" y2="229.38388421600095" stroke="#2a2a4e" stroke-width="0.5"/>
<text x="46" y="232.38388421600095" text-anchor="end" font-size="9" fill="#666666">44.7</text>
<line x1="50" y1="329.9891676679997" x2="680" y2="329.9891676679997" stroke="#2a2a4e" stroke-width="0.5"/>
<text x="46" y="332.9891676679997" text-anchor="end" font-size="9" fill="#666666">37.27</text>
<polyline points="55.25,118.21707706379243 65.75,117.35951744710874 76.25,113.40270728591904 86.75,110.58429497845563 97.25,111.41343644020046 107.75,116.43453436478585 118.25,121.40678278120838 128.75,133.92909725900626 139.25,154.77962342778656 149.75,169.53753382365718 160.25,178.4734464208863 170.75,183.57316186902204 181.25,190.58374950118431 191.75,188.3969976558228 202.25,188.47374345894565 212.75,192.40649296110456 223.25,198.77450744595166 233.75,201.57553950248774 244.25,207.95636587360138 254.75,211.93944182100515 265.25,222.04205403608893 275.75,232.83925334622552 286.25,243.8738371363928 296.75,251.45589991317547 307.25,253.0803699642958 317.75,257.0519718651 328.25,257.7137789322634 338.75,257.47796289369217 349.25,259.1712755846815 359.75,256.5088345119323 370.25,260.42084809687924 380.75,267.5874635369345 391.25,273.0873626303189 401.75,265.2446092756799 412.25,264.4844439893427 422.75,259.50933018169576 433.25,255.83150990992394 443.75,250.89722031202672 454.25,250.49631578015257 464.75,247.6563672421854 475.25,244.72496973352 485.75,242.7707047277431 496.25,243.1378459072583 506.75,242.34450821024785 517.25,248.13447674569971 527.75,253.93524858603956 538.25,253.33409286284402 548.75,261.46378383088313 559.25,261.96389369281144 569.75,260.8981240507359 580.25,256.5316989059462 590.75,249.28781600933368 601.25,238.9521253114826 611.75,234.54407426296447 622.25,234.13291769733596 632.75,233.1817925702369 643.25,236.38416006891367 653.75,226.964584267802 664.25,214.05006371692906 674.75,206.07226938302634" fill="none" stroke="#ffd700" stroke-width="1" opacity="0.6"/>
<polyline points="55.25,118.21707706379243 65.75,117.749317272874 76.25,115.52018448935861 86.75,113.59787283011678 97.25,113.50220856349375 107.75,115.86121249994153 118.25,118.6775883388709 128.75,126.0041588617311 139.25,138.81807102602494 149.75,149.76994076954736 160.25,158.23818274151049 170.75,164.69898456401648 181.25,171.9546100551969 191.75,174.14895258427015 202.25,176.78136758080123 212.75,181.05239019618693 223.25,186.5902349633613 233.75,190.3333929001247 244.25,195.85787030297996 254.75,200.2301836507678 265.25,207.86965543540217 275.75,216.3358366228743 286.25,225.35532173084755 296.75,232.8579951373736 307.25,237.1255069426759 317.75,242.1927194379545 328.25,245.2553873704338 338.75,247.39192254245484 349.25,250.1493731650376 359.75,250.3374784743824 370.25,253.59336880027163 380.75,258.7437916396849 391.25,263.35167694466725 401.75,260.84393614861904 412.25,261.229422924628 422.75,259.10754649585965 433.25,257.1745142904997 443.75,254.23890098608743 454.25,253.41264748250867 464.75,251.33334251591634 475.25,249.0658574614205 485.75,247.21064241683302 496.25,246.60363984400678 506.75,245.54076583895588 517.25,248.11779274398268 527.75,251.28488356629848 538.25,251.43886499359925 548.75,256.21782877057416 559.25,257.44442597895494 569.75,257.68481848579677 580.25,255.88736941862769 590.75,252.05331138180605 601.25,245.91284456980136 611.75,242.24286776909722 622.25,240.61881991400298 632.75,238.92076944164577 643.25,239.6240650097588 653.75,233.89704094718053 664.25,225.5923103413628 674.75,219.14219586388245" fill="none" stroke="#ff6b6b" stroke-width="1" opacity="0.6"/>
<polyline points="55.25,118.21707706379243 65.75,117.97206003045419 76.25,116.78320545265281 86.75,115.65599258702191 97.25,115.409871327657 107.75,116.46385788825698 118.25,117.88170757642807 128.75,121.7952331610161 139.25,128.90813245666664 149.75,135.58862980511728 160.25,141.37497664418655 170.75,146.36522579857763 181.25,151.9118637954282 191.75,154.9701142877779 202.25,158.1755543618173 212.75,162.18473889549398 223.25,166.88243389741316 233.75,170.72006910866526 244.25,175.481778585538 254.75,179.71261812175467 265.25,185.66830005932627 275.75,192.21738119334265 286.25,199.23886914795068 296.75,205.65612213069264 307.25,210.48214002934438 317.75,215.6738577090934 328.25,219.8037182193312 338.75,223.34682418097108 349.25,227.08121244627483 359.75,229.37671148629002 370.25,233.07844137014553 380.75,237.73008451746927 391.25,242.14504416505204 401.75,242.85114496518057 412.25,244.76666577008416 422.75,245.22308832211442 433.25,245.53287699299685 443.75,245.10390214759067 454.25,245.54110258271575 464.75,245.20161378114764 475.25,244.59785767972303 485.75,244.05160215938656 496.25,244.034509407663 506.75,243.72244497038335 517.25,245.24548962240428 527.75,247.17799463614858 538.25,247.64978385332049 548.75,250.5139154641434 559.25,251.69964860247907 569.75,252.37269014191767 580.25,251.93708618710332 590.75,250.30498752319906 601.25,247.25505956058777 611.75,245.20486076109643 622.25,244.07207445680902 632.75,242.8537380624499 643.25,242.847562539004 653.75,239.5406930272492 664.25,234.65310536895723 674.75,230.41154111622038" fill="none" stroke="#4ecdc4" stroke-width="1" opacity="0.6"/>
<line x1="55.25" y1="107.52014921357984" x2="55.25" y2="119.30031026381394" stroke="#44aa44" stroke-width="1" opacity="0.8"/>
<rect x="50.0" y="112.93631521368751" width="6.3" height="5.280761850104923" fill="#44aa44" opacity="0.8"/>
<rect x="50.0" y="322.03818577500783" width="6.3" height="7.961814224992162" fill="#44aa44" opacity="0.3"/>
<line x1="65.75" y1="108.87419071360677" x2="65.75" y2="119.4357144138166" stroke="#ff4444" stroke-width="1" opacity="0.8"/>
<rect x="60.5" y="115.64439821374127" width="6.3" height="3.791316200075329" fill="#ff4444" opacity="0.8"/>
<rect x="60.5" y="322.1115114292454" width="6.3" height="7.88848857075461" fill="#ff4444" opacity="0.3"/>
<line x1="76.25" y1="101.02075001345075" x2="76.25" y2="121.1959683638516" stroke="#ff4444" stroke-width="1" opacity="0.8"/>
<rect x="71.0" y="105.4890869635395" width="6.3" height="13.675819150271678" fill="#ff4444" opacity="0.8"/>
<rect x="71.0" y="317.30108711048814" width="6.3" height="12.698912889511837" fill="#ff4444" opacity="0.3"/>
<line x1="86.75" y1="87.75114331318716" x2="86.75" y2="113.47793181369826" stroke="#44aa44" stroke-width="1" opacity="0.8"/>
<rect x="81.5" y="89.91760971323015" width="6.3" height="15.029860650298602" fill="#44aa44" opacity="0.8"/>
<rect x="81.5" y="314.9575231074276" width="6.3" height="15.042476892572397" fill="#44aa44" opacity="0.3"/>
<line x1="97.25" y1="106.166107713553" x2="97.25" y2="119.30031026381394" stroke="#44aa44" stroke-width="1" opacity="0.8"/>
<rect x="92.0" y="108.87419071360677" width="6.3" height="4.197528650083413" fill="#44aa44" opacity="0.8"/>
<rect x="92.0" y="316.5183354948916" width="6.3" height="13.48166450510841" fill="#44aa44" opacity="0.3"/>
<line x1="107.75" y1="113.20712351369284" x2="107.75" y2="126.74753851396186" stroke="#44aa44" stroke-width="1" opacity="0.8"/>
<rect x="102.5" y="114.29035671371435" width="6.3" height="12.186373500242198" fill="#44aa44" opacity="0.8"/>
<rect x="102.5" y="318.3887709402891" width="6.3" height="11.611229059710917" fill="#44aa44" opacity="0.3"/>
<line x1="118.25" y1="121.1959683638516" x2="118.25" y2="133.51774601409636" stroke="#44aa44" stroke-width="1" opacity="0.8"/>
<rect x="113.0" y="129.59102566401836" width="6.3" height="1.7602539500350076" fill="#44aa44" opacity="0.8"/>
<rect x="113.0" y="320.50969094001925" width="6.3" height="9.490309059980724" fill="#44aa44" opacity="0.3"/>
<line x1="128.75" y1="141.37118671425236" x2="128.75" y2="159.1091303646048" stroke="#44aa44" stroke-width="1" opacity="0.8"/>
<rect x="123.5" y="151.93271041446224" width="6.3" height="7.041015800139917" fill="#44aa44" opacity="0.8"/>
<rect x="123.5" y="317.4579412606849" width="6.3" height="12.542058739315095" fill="#44aa44" opacity="0.3"/>
<line x1="139.25" y1="152.88053946448105" x2="139.25" y2="196.75148406535266" stroke="#44aa44" stroke-width="1" opacity="0.8"/>
<rect x="134.0" y="157.61968471457521" width="6.3" height="38.860991050772014" fill="#44aa44" opacity="0.8"/>
<rect x="134.0" y="316.944133062965" width="6.3" height="13.055866937034967" fill="#44aa44" opacity="0.3"/>
<line x1="149.75" y1="187.4085977151671" x2="149.75" y2="204.469520615506" stroke="#ff4444" stroke-width="1" opacity="0.8"/>
<rect x="144.5" y="199.05335461539843" width="6.3" height="4.603741100091412" fill="#ff4444" opacity="0.8"/>
<rect x="144.5" y="322.30301657861577" width="6.3" height="7.696983421384206" fill="#ff4444" opacity="0.3"/>
<line x1="160.25" y1="184.70051471511326" x2="160.25" y2="200.2719919654226" stroke="#44aa44" stroke-width="1" opacity="0.8"/>
<rect x="155.0" y="188.76263921519393" width="6.3" height="7.582632400150658" fill="#44aa44" opacity="0.8"/>
<rect x="155.0" y="322.6168600273151" width="6.3" height="7.383139972684891" fill="#44aa44" opacity="0.3"/>
<line x1="170.75" y1="186.0545562151402" x2="170.75" y2="200.542800265428" stroke="#ff4444" stroke-width="1" opacity="0.8"/>
<rect x="165.5" y="193.7725927652935" width="6.3" height="4.468336950088769" fill="#ff4444" opacity="0.8"/>
<rect x="165.5" y="324.2671953368604" width="6.3" height="5.732804663139548" fill="#ff4444" opacity="0.3"/>
<line x1="181.25" y1="197.15769651536078" x2="181.25" y2="224.64473896590687" stroke="#44aa44" stroke-width="1" opacity="0.8"/>
<rect x="176.0" y="202.709266665471" width="6.3" height="1.8956581000376502" fill="#44aa44" opacity="0.8"/>
<rect x="176.0" y="319.1074622589191" width="6.3" height="10.892537741080872" fill="#44aa44" opacity="0.3"/>
<line x1="191.75" y1="178.33651966498684" x2="191.75" y2="194.99123011531765" stroke="#ff4444" stroke-width="1" opacity="0.8"/>
<rect x="186.5" y="184.02349396509985" width="6.3" height="10.967736150217803" fill="#ff4444" opacity="0.8"/>
<rect x="186.5" y="319.6272905438319" width="6.3" height="10.372709456168105" fill="#ff4444" opacity="0.3"/>
<line x1="202.25" y1="179.41975286500835" x2="202.25" y2="188.76263921519393" stroke="#44aa44" stroke-width="1" opacity="0.8"/>
<rect x="197.0" y="183.34647321508635" width="6.3" height="5.280761850104881" fill="#44aa44" opacity="0.8"/>
<rect x="197.0" y="322.30102527952727" width="6.3" height="7.698974720472735" fill="#44aa44" opacity="0.3"/>
<line x1="212.75" y1="186.73157696515358" x2="212.75" y2="204.60492476550866" stroke="#44aa44" stroke-width="1" opacity="0.8"/>
<rect x="207.5" y="191.06450976523965" width="6.3" height="9.207482200182938" fill="#44aa44" opacity="0.8"/>
<rect x="207.5" y="322.9685005224594" width="6.3" height="7.0314994775406" fill="#44aa44" opacity="0.3"/>
<line x1="223.25" y1="200.67820441543066" x2="223.25" y2="212.9999820656755" stroke="#44aa44" stroke-width="1" opacity="0.8"/>
<rect x="218.0" y="204.60492476550866" width="6.3" height="6.905611650137217" fill="#44aa44" opacity="0.8"/>
<rect x="218.0" y="324.5865524942903" width="6.3" height="5.41344750570971" fill="#44aa44" opacity="0.3"/>
<line x1="233.75" y1="206.635987015549" x2="233.75" y2="220.3118061658208" stroke="#ff4444" stroke-width="1" opacity="0.8"/>
<rect x="228.5" y="207.17760361555975" width="6.3" height="4.332932800086127" fill="#ff4444" opacity="0.8"/>
<rect x="228.5" y="323.42452169963684" width="6.3" height="6.575478300363175" fill="#ff4444" opacity="0.3"/>
<line x1="244.25" y1="202.98007496547643" x2="244.25" y2="220.71801861582875" stroke="#44aa44" stroke-width="1" opacity="0.8"/>
<rect x="239.0" y="205.01113721551678" width="6.3" height="15.706881400311971" fill="#44aa44" opacity="0.8"/>
<rect x="239.0" y="323.8088509774131" width="6.3" height="6.191149022586924" fill="#44aa44" opacity="0.3"/>
<line x1="254.75" y1="214.48942771570512" x2="254.75" y2="229.38388421600095" stroke="#44aa44" stroke-width="1" opacity="0.8"/>
<rect x="249.5" y="218.1453397657777" width="6.3" height="1.7602539500350076" fill="#44aa44" opacity="0.8"/>
<rect x="249.5" y="323.1523466975864" width="6.3" height="6.847653302413617" fill="#44aa44" opacity="0.3"/>
<line x1="265.25" y1="225.3217597159203" x2="265.25" y2="244.2783407162969" stroke="#44aa44" stroke-width="1" opacity="0.8"/>
<rect x="260.0" y="232.36277551606022" width="6.3" height="9.884502950196321" fill="#44aa44" opacity="0.8"/>
<rect x="260.0" y="320.81738941764814" width="6.3" height="9.18261058235185" fill="#44aa44" opacity="0.3"/>
<line x1="275.75" y1="234.6646460661059" x2="275.75" y2="254.43365196649864" stroke="#44aa44" stroke-width="1" opacity="0.8"/>
<rect x="270.5" y="238.99757886619196" width="6.3" height="15.436073100306686" fill="#44aa44" opacity="0.8"/>
<rect x="270.5" y="322.0685462431557" width="6.3" height="7.931453756844296" fill="#44aa44" opacity="0.3"/>
<line x1="286.25" y1="234.80005021610864" x2="286.25" y2="270.6821499668215" stroke="#44aa44" stroke-width="1" opacity="0.8"/>
<rect x="281.0" y="255.11067271651217" width="6.3" height="10.83233200021516" fill="#44aa44" opacity="0.8"/>
<rect x="281.0" y="315.64928740917327" width="6.3" height="14.350712590826749" fill="#44aa44" opacity="0.3"/>
<line x1="296.75" y1="256.464714216539" x2="296.75" y2="285.84741476712276" stroke="#44aa44" stroke-width="1" opacity="0.8"/>
<rect x="291.5" y="257.5479474165606" width="6.3" height="9.072078050180096" fill="#44aa44" opacity="0.8"/>
<rect x="291.5" y="318.37704040949006" width="6.3" height="11.62295959050992" fill="#44aa44" opacity="0.3"/>
<line x1="307.25" y1="254.02743951649055" x2="307.25" y2="266.21381301673273" stroke="#ff4444" stroke-width="1" opacity="0.8"/>
<rect x="302.0" y="256.3293100665363" width="6.3" height="9.884502950196406" fill="#ff4444" opacity="0.8"/>
<rect x="302.0" y="320.2657345620799" width="6.3" height="9.734265437920103" fill="#ff4444" opacity="0.3"/>
<line x1="317.75" y1="245.76778636632648" x2="317.75" y2="266.48462131673807" stroke="#44aa44" stroke-width="1" opacity="0.8"/>
<rect x="312.5" y="256.058501766531" width="6.3" height="8.936673900177539" fill="#44aa44" opacity="0.8"/>
<rect x="312.5" y="321.65713256059456" width="6.3" height="8.342867439405413" fill="#44aa44" opacity="0.3"/>
<line x1="328.25" y1="255.38148101651748" x2="328.25" y2="276.36912426693453" stroke="#ff4444" stroke-width="1" opacity="0.8"/>
<rect x="323.0" y="259.0373930665902" width="6.3" height="16.79011460033348" fill="#ff4444" opacity="0.8"/>
<rect x="323.0" y="322.9780635481509" width="6.3" height="7.021936451849127" fill="#ff4444" opacity="0.3"/>
<line x1="338.75" y1="246.17399881633455" x2="338.75" y2="268.65108771678115" stroke="#ff4444" stroke-width="1" opacity="0.8"/>
<rect x="333.5" y="257.00633081654985" width="6.3" height="7.853440700155943" fill="#ff4444" opacity="0.8"/>
<rect x="333.5" y="323.08588452439966" width="6.3" height="6.91411547560033" fill="#ff4444" opacity="0.3"/>
<line x1="349.25" y1="245.76778636632648" x2="349.25" y2="263.2349217166735" stroke="#44aa44" stroke-width="1" opacity="0.8"/>
<rect x="344.0" y="259.3082013665955" width="6.3" height="3.2496996000646163" fill="#44aa44" opacity="0.8"/>
<rect x="344.0" y="322.04772142889055" width="6.3" height="7.952278571109467" fill="#44aa44" opacity="0.3"/>
<line x1="359.75" y1="248.61127351638297" x2="359.75" y2="258.22496816657394" stroke="#ff4444" stroke-width="1" opacity="0.8"/>
<rect x="354.5" y="251.18395236643406" width="6.3" height="1" fill="#ff4444" opacity="0.8"/>
<rect x="354.5" y="322.4737448143864" width="6.3" height="7.526255185613612" fill="#ff4444" opacity="0.3"/>
<line x1="370.25" y1="252.94420631646906" x2="370.25" y2="271.08836241682957" stroke="#44aa44" stroke-width="1" opacity="0.8"/>
<rect x="365.0" y="253.0796104664717" width="6.3" height="15.165264800301372" fill="#44aa44" opacity="0.8"/>
<rect x="365.0" y="323.8050582711594" width="6.3" height="6.194941728840591" fill="#44aa44" opacity="0.3"/>
<line x1="380.75" y1="265.13057981671113" x2="380.75" y2="283.545544217077" stroke="#44aa44" stroke-width="1" opacity="0.8"/>
<rect x="375.5" y="266.89083376674614" width="6.3" height="15.029860650298588" fill="#44aa44" opacity="0.8"/>
<rect x="375.5" y="324.8764524532619" width="6.3" height="5.123547546738096" fill="#44aa44" opacity="0.3"/>
<line x1="391.25" y1="275.692103516921" x2="391.25" y2="286.1182230671282" stroke="#44aa44" stroke-width="1" opacity="0.8"/>
<rect x="386.0" y="282.05609856704746" width="6.3" height="2.0310622500404065" fill="#44aa44" opacity="0.8"/>
<rect x="386.0" y="325.90431861645675" width="6.3" height="4.095681383543267" fill="#44aa44" opacity="0.3"/>
<line x1="401.75" y1="249.28829426639646" x2="401.75" y2="271.3591707168349" stroke="#ff4444" stroke-width="1" opacity="0.8"/>
<rect x="396.5" y="249.5591025664018" width="6.3" height="21.800068150433106" fill="#ff4444" opacity="0.8"/>
<rect x="396.5" y="318.7077038346829" width="6.3" height="11.292296165317124" fill="#ff4444" opacity="0.3"/>
<line x1="412.25" y1="253.75663121648523" x2="412.25" y2="263.2349217166735" stroke="#44aa44" stroke-width="1" opacity="0.8"/>
<rect x="407.0" y="254.02743951649055" width="6.3" height="8.936673900177624" fill="#44aa44" opacity="0.8"/>
<rect x="407.0" y="323.14052720840886" width="6.3" height="6.859472791591146" fill="#44aa44" opacity="0.3"/>
<line x1="422.75" y1="237.50813321616238" x2="422.75" y2="258.3603723165767" stroke="#ff4444" stroke-width="1" opacity="0.8"/>
<rect x="417.5" y="249.5591025664018" width="6.3" height="7.311824100145259" fill="#ff4444" opacity="0.8"/>
<rect x="417.5" y="320.1818125963695" width="6.3" height="9.81818740363046" fill="#ff4444" opacity="0.3"/>
<line x1="433.25" y1="244.81995731630764" x2="433.25" y2="255.78769346652555" stroke="#ff4444" stroke-width="1" opacity="0.8"/>
<rect x="428.0" y="248.47586936638032" width="6.3" height="3.3851037500672305" fill="#ff4444" opacity="0.8"/>
<rect x="428.0" y="323.30312943844876" width="6.3" height="6.696870561551231" fill="#ff4444" opacity="0.3"/>
<line x1="443.75" y1="240.8932369662296" x2="443.75" y2="249.9653150164099" stroke="#ff4444" stroke-width="1" opacity="0.8"/>
<rect x="438.5" y="241.02864111623228" width="6.3" height="2.166466400043106" fill="#ff4444" opacity="0.8"/>
<rect x="438.5" y="321.6620115855091" width="6.3" height="8.33798841449091" fill="#ff4444" opacity="0.3"/>
<line x1="454.25" y1="235.6124751161247" x2="454.25" y2="251.72556896644488" stroke="#44aa44" stroke-width="1" opacity="0.8"/>
<rect x="449.0" y="237.7789415161678" width="6.3" height="11.91556520023667" fill="#44aa44" opacity="0.8"/>
<rect x="449.0" y="321.1622707867626" width="6.3" height="8.837729213237436" fill="#44aa44" opacity="0.3"/>
<line x1="464.75" y1="237.7789415161678" x2="464.75" y2="245.6323822163238" stroke="#ff4444" stroke-width="1" opacity="0.8"/>
<rect x="459.5" y="241.97647016625112" width="6.3" height="1" fill="#ff4444" opacity="0.8"/>
<rect x="459.5" y="322.37355544057226" width="6.3" height="7.626444559427765" fill="#ff4444" opacity="0.3"/>
<line x1="475.25" y1="233.44600871608174" x2="475.25" y2="250.50693161642062" stroke="#ff4444" stroke-width="1" opacity="0.8"/>
<rect x="470.0" y="238.86217471618932" width="6.3" height="6.7702075001344895" fill="#ff4444" opacity="0.8"/>
<rect x="470.0" y="320.6086896401516" width="6.3" height="9.39131035984837" fill="#ff4444" opacity="0.3"/>
<line x1="485.75" y1="232.36277551606022" x2="485.75" y2="244.81995731630764" stroke="#44aa44" stroke-width="1" opacity="0.8"/>
<rect x="480.5" y="232.63358381606554" width="6.3" height="6.228590900123777" fill="#44aa44" opacity="0.8"/>
<rect x="480.5" y="321.0892085861845" width="6.3" height="8.91079141381551" fill="#44aa44" opacity="0.3"/>
<line x1="496.25" y1="235.20626266611663" x2="496.25" y2="251.04854821643139" stroke="#44aa44" stroke-width="1" opacity="0.8"/>
<rect x="491.0" y="242.3826826162592" width="6.3" height="1.4894456500296371" fill="#44aa44" opacity="0.8"/>
<rect x="491.0" y="321.2840428317974" width="6.3" height="8.7159571682026" fill="#44aa44" opacity="0.3"/>
<line x1="506.75" y1="240.3516203662189" x2="506.75" y2="250.37152746641797" stroke="#ff4444" stroke-width="1" opacity="0.8"/>
<rect x="501.5" y="240.75783281622697" width="6.3" height="5.6869743001130075" fill="#ff4444" opacity="0.8"/>
<rect x="501.5" y="322.70973257449555" width="6.3" height="7.290267425504446" fill="#ff4444" opacity="0.3"/>
<line x1="517.25" y1="240.75783281622697" x2="517.25" y2="265.67219641672193" stroke="#44aa44" stroke-width="1" opacity="0.8"/>
<rect x="512.0" y="240.75783281622697" width="6.3" height="18.956581000376588" fill="#44aa44" opacity="0.8"/>
<rect x="512.0" y="319.390183961039" width="6.3" height="10.609816038961032" fill="#44aa44" opacity="0.3"/>
<line x1="527.75" y1="257.14173496655246" x2="527.75" y2="269.7343209168027" stroke="#44aa44" stroke-width="1" opacity="0.8"/>
<rect x="522.5" y="261.61007191664123" width="6.3" height="3.9267203500780283" fill="#44aa44" opacity="0.8"/>
<rect x="522.5" y="323.16689994616553" width="6.3" height="6.833100053834483" fill="#44aa44" opacity="0.3"/>
<line x1="538.25" y1="244.41374486629954" x2="538.25" y2="271.62997901684037" stroke="#ff4444" stroke-width="1" opacity="0.8"/>
<rect x="533.0" y="252.1317814164529" width="6.3" height="14.217435750282505" fill="#ff4444" opacity="0.8"/>
<rect x="533.0" y="320.41807578530455" width="6.3" height="9.581924214695475" fill="#ff4444" opacity="0.3"/>
<line x1="548.75" y1="253.48582291647983" x2="548.75" y2="280.9728653670259" stroke="#44aa44" stroke-width="1" opacity="0.8"/>
<rect x="543.5" y="254.02743951649055" width="6.3" height="23.695726250470756" fill="#44aa44" opacity="0.8"/>
<rect x="543.5" y="318.84545930530544" width="6.3" height="11.154540694694552" fill="#44aa44" opacity="0.3"/>
<line x1="559.25" y1="255.2460768665148" x2="559.25" y2="279.75422801700176" stroke="#ff4444" stroke-width="1" opacity="0.8"/>
<rect x="554.0" y="262.96411341666817" width="6.3" height="16.790114600333595" fill="#ff4444" opacity="0.8"/>
<rect x="554.0" y="318.565603089417" width="6.3" height="11.434396910583045" fill="#ff4444" opacity="0.3"/>
<line x1="569.75" y1="252.53799386646097" x2="569.75" y2="266.6200254667407" stroke="#ff4444" stroke-width="1" opacity="0.8"/>
<rect x="564.5" y="258.76658476658474" width="6.3" height="4.468336950088769" fill="#ff4444" opacity="0.8"/>
<rect x="564.5" y="321.59037442972544" width="6.3" height="8.409625570274528" fill="#ff4444" opacity="0.3"/>
<line x1="580.25" y1="240.48702451622154" x2="580.25" y2="256.058501766531" stroke="#ff4444" stroke-width="1" opacity="0.8"/>
<rect x="575.0" y="247.7988486163668" width="6.3" height="8.259653150164183" fill="#ff4444" opacity="0.8"/>
<rect x="575.0" y="319.05951711437007" width="6.3" height="10.940482885629926" fill="#ff4444" opacity="0.3"/>
<line x1="590.75" y1="229.65469251600638" x2="590.75" y2="250.77773991642607" stroke="#ff4444" stroke-width="1" opacity="0.8"/>
<rect x="585.5" y="234.80005021610864" width="6.3" height="10.426119550207062" fill="#ff4444" opacity="0.8"/>
<rect x="585.5" y="315.00325455694184" width="6.3" height="14.996745443058181" fill="#ff4444" opacity="0.3"/>
<line x1="601.25" y1="206.90679531555443" x2="601.25" y2="240.21621621621622" stroke="#ff4444" stroke-width="1" opacity="0.8"/>
<rect x="596.0" y="218.28074391578036" width="6.3" height="20.581430800408953" fill="#ff4444" opacity="0.8"/>
<rect x="596.0" y="303.25882230055555" width="6.3" height="26.741177699444442" fill="#ff4444" opacity="0.3"/>
<line x1="611.75" y1="214.48942771570512" x2="611.75" y2="229.1130759159956" stroke="#44aa44" stroke-width="1" opacity="0.8"/>
<rect x="606.5" y="219.09316881579653" width="6.3" height="6.634803350131847" fill="#44aa44" opacity="0.8"/>
<rect x="606.5" y="312.8259674492495" width="6.3" height="17.17403255075051" fill="#44aa44" opacity="0.3"/>
<line x1="622.25" y1="216.38508581574277" x2="622.25" y2="234.39383776610055" stroke="#44aa44" stroke-width="1" opacity="0.8"/>
<rect x="617.0" y="225.3217597159203" width="6.3" height="7.988844850158756" fill="#44aa44" opacity="0.8"/>
<rect x="617.0" y="316.46447290743254" width="6.3" height="13.535527092567449" fill="#44aa44" opacity="0.3"/>
<line x1="632.75" y1="228.84226761599018" x2="632.75" y2="242.51808676626197" stroke="#ff4444" stroke-width="1" opacity="0.8"/>
<rect x="627.5" y="231.2795423160386" width="6.3" height="3.1142954500619453" fill="#ff4444" opacity="0.8"/>
<rect x="627.5" y="320.2264543057468" width="6.3" height="9.773545694253182" fill="#ff4444" opacity="0.3"/>
<line x1="643.25" y1="223.69690991588803" x2="643.25" y2="243.05970336627274" stroke="#44aa44" stroke-width="1" opacity="0.8"/>
<rect x="638.0" y="228.97767176599294" width="6.3" height="13.811223300274378" fill="#44aa44" opacity="0.8"/>
<rect x="638.0" y="314.5129724288658" width="6.3" height="15.487027571134199" fill="#44aa44" opacity="0.3"/>
<line x1="653.75" y1="195.26203841532308" x2="653.75" y2="243.4659158162808" stroke="#ff4444" stroke-width="1" opacity="0.8"/>
<rect x="648.5" y="208.1254326655786" width="6.3" height="34.66346240068873" fill="#ff4444" opacity="0.8"/>
<rect x="648.5" y="295.0" width="6.3" height="35.0" fill="#ff4444" opacity="0.3"/>
<line x1="664.25" y1="182.26324001506484" x2="664.25" y2="216.24968166574" stroke="#ff4444" stroke-width="1" opacity="0.8"/>
<rect x="659.0" y="188.22102261518316" width="6.3" height="23.560322100468113" fill="#ff4444" opacity="0.8"/>
<rect x="659.0" y="297.5077982771988" width="6.3" height="32.4922017228012" fill="#ff4444" opacity="0.3"/>
<line x1="674.75" y1="180.36758191502716" x2="674.75" y2="200.9490127154361" stroke="#ff4444" stroke-width="1" opacity="0.8"/>
<rect x="669.5" y="190.11668071522084" width="6.3" height="6.634803350131818" fill="#ff4444" opacity="0.8"/>
<rect x="669.5" y="307.34243613790426" width="6.3" height="22.657563862095742" fill="#ff4444" opacity="0.3"/>
<rect x="177.25" y="220.64473896590687" width="8" height="8" fill="#ff9800" opacity="0.85"/>
<text x="181.25" y="217.64473896590687" text-anchor="middle" font-size="8" font-weight="bold" fill="#ff9800">前低</text>
<rect x="292.75" y="281.84741476712276" width="8" height="8" fill="#ff9800" opacity="0.85"/>
<text x="296.75" y="278.84741476712276" text-anchor="middle" font-size="8" font-weight="bold" fill="#ff9800">前低</text>
<rect x="387.25" y="282.1182230671282" width="8" height="8" fill="#ff9800" opacity="0.85"/>
<text x="391.25" y="279.1182230671282" text-anchor="middle" font-size="8" font-weight="bold" fill="#ff9800">前低</text>
<rect x="481.75" y="228.36277551606022" width="8" height="8" fill="#ff9800" opacity="0.85"/>
<text x="485.75" y="225.36277551606022" text-anchor="middle" font-size="8" font-weight="bold" fill="#ff9800">前高</text>
<rect x="544.75" y="276.9728653670259" width="8" height="8" fill="#ff9800" opacity="0.85"/>
<text x="548.75" y="273.9728653670259" text-anchor="middle" font-size="8" font-weight="bold" fill="#ff9800">前低</text>
<rect x="597.25" y="202.90679531555443" width="8" height="8" fill="#ff9800" opacity="0.85"/>
<text x="601.25" y="199.90679531555443" text-anchor="middle" font-size="8" font-weight="bold" fill="#ff9800">前高</text>
<rect x="628.75" y="227.2795423160386" width="8" height="8" fill="#2196f3" opacity="0.85"/>
<text x="632.75" y="224.2795423160386" text-anchor="middle" font-size="8" font-weight="bold" fill="#2196f3">中</text>
<rect x="649.75" y="239.4659158162808" width="8" height="8" fill="#ff9800" opacity="0.85"/>
<text x="653.75" y="236.4659158162808" text-anchor="middle" font-size="8" font-weight="bold" fill="#ff9800">前低</text>
<line x1="674.75" y1="190.11668071522084" x2="674.75" y2="42" stroke="#4caf50" stroke-width="1" stroke-dasharray="3,2"/>
<rect x="654.75" y="28" width="40" height="14" rx="3" fill="#2563eb" opacity="0.9"/>
<text x="674.75" y="38" text-anchor="middle" font-size="9" font-weight="bold" fill="white">关注</text>
<text x="55.25" y="355" fill="#666666" font-size="8" text-anchor="middle" transform="rotate(-30,55.25,355)">02/11</text>
<text x="107.75" y="355" fill="#666666" font-size="8" text-anchor="middle" transform="rotate(-30,107.75,355)">02/26</text>
<text x="160.25" y="355" fill="#666666" font-size="8" text-anchor="middle" transform="rotate(-30,160.25,355)">03/05</text>
<text x="212.75" y="355" fill="#666666" font-size="8" text-anchor="middle" transform="rotate(-30,212.75,355)">03/12</text>
<text x="265.25" y="355" fill="#666666" font-size="8" text-anchor="middle" transform="rotate(-30,265.25,355)">03/19</text>
<text x="317.75" y="355" fill="#666666" font-size="8" text-anchor="middle" transform="rotate(-30,317.75,355)">03/26</text>
<text x="370.25" y="355" fill="#666666" font-size="8" text-anchor="middle" transform="rotate(-30,370.25,355)">04/02</text>
<text x="422.75" y="355" fill="#666666" font-size="8" text-anchor="middle" transform="rotate(-30,422.75,355)">04/10</text>
<text x="475.25" y="355" fill="#666666" font-size="8" text-anchor="middle" transform="rotate(-30,475.25,355)">04/17</text>
<text x="527.75" y="355" fill="#666666" font-size="8" text-anchor="middle" transform="rotate(-30,527.75,355)">04/24</text>
<text x="580.25" y="355" fill="#666666" font-size="8" text-anchor="middle" transform="rotate(-30,580.25,355)">05/06</text>
<text x="632.75" y="355" fill="#666666" font-size="8" text-anchor="middle" transform="rotate(-30,632.75,355)">05/13</text>
<text x="674.75" y="355" fill="#666666" font-size="8" text-anchor="middle" transform="rotate(-30,674.75,355)">05/19</text>
<rect x="50" y="334" width="7" height="7" fill="#ff9800" opacity="0.8" rx="1"/>
<text x="60" y="340" font-family="sans-serif" font-size="8" fill="#888888">第1类</text>
<rect x="120" y="334" width="7" height="7" fill="#2196f3" opacity="0.8" rx="1"/>
<text x="130" y="340" font-family="sans-serif" font-size="8" fill="#888888">第2类</text>
<rect x="190" y="334" width="7" height="7" fill="#ffd700" opacity="0.8" rx="1"/>
<text x="200" y="340" font-family="sans-serif" font-size="8" fill="#888888">EMA5</text>
<rect x="260" y="334" width="7" height="7" fill="#ff6b6b" opacity="0.8" rx="1"/>
<text x="270" y="340" font-family="sans-serif" font-size="8" fill="#888888">EMA10</text>
<rect x="330" y="334" width="7" height="7" fill="#4ecdc4" opacity="0.8" rx="1"/>
<text x="340" y="340" font-family="sans-serif" font-size="8" fill="#888888">EMA20</text>
</svg>