<svg xmlns="http://www.w3.org/2000/svg" width="700" height="380" viewBox="0 0 700 380">
<rect width="700" height="380" fill="#1a1a2e"/>
<text x="350.0" y="20" text-anchor="middle" font-family="sans-serif" font-size="14" font-weight="bold" fill="#ffffff">大族数控(301200)</text>
<line x1="50" y1="28.000000000000128" x2="680" y2="28.000000000000128" stroke="#2a2a4e" stroke-width="0.5"/>
<text x="46" y="31.000000000000128" text-anchor="end" font-size="9" fill="#666666">259.2</text>
<line x1="50" y1="128.6588109587726" x2="680" y2="128.6588109587726" stroke="#2a2a4e" stroke-width="0.5"/>
<text x="46" y="131.6588109587726" text-anchor="end" font-size="9" fill="#666666">214.78</text>
<line x1="50" y1="229.34028261339358" x2="680" y2="229.34028261339358" stroke="#2a2a4e" stroke-width="0.5"/>
<text x="46" y="232.34028261339358" text-anchor="end" font-size="9" fill="#666666">170.35</text>
<line x1="50" y1="329.99909357216603" x2="680" y2="329.99909357216603" stroke="#2a2a4e" stroke-width="0.5"/>
<text x="46" y="332.99909357216603" text-anchor="end" font-size="9" fill="#666666">125.93</text>
<polyline points="55.25,273.86854995557906 65.75,273.1131934272977 76.25,274.6490850348031 86.75,271.9566586539958 97.25,263.8318200264599 107.75,255.68842387434032 118.25,257.43538012493343 128.75,260.88874790602125 139.25,270.19314811058126 149.75,276.1317067953895 160.25,277.6887121586603 170.75,278.9835369537898 181.25,283.18542933887966 191.75,280.6614274045561 202.25,277.7173140461106 212.75,278.7004622674441 223.25,278.05668118635583 233.75,273.2162116738007 244.25,274.35519273223 254.75,268.68642938217533 265.25,268.8200006319696 275.75,264.12008774252865 286.25,271.7506430109106 296.75,265.8094745435909 307.25,259.9603042446744 317.75,254.4368408429251 328.25,247.3252132700283 338.75,236.93406138988595 349.25,240.55895750321483 359.75,244.81862484110724 370.25,249.70541925801126 380.75,255.24445891802364 391.25,259.5565443778893 401.75,246.17599552918503 412.25,231.09192035927308 422.75,221.8441017312595 433.25,214.59872947714143 443.75,202.82675481282382 454.25,197.75093016207128 464.75,188.70942666474232 475.25,177.7492795368458 485.75,167.9271775457379 496.25,165.548677587779 506.75,165.68522383362122 517.25,171.22992879837403 527.75,178.3557174132732 538.25,181.822137058461 548.75,186.52001011795528 559.25,189.64437192566865 569.75,193.63077824874654 580.25,194.66436592832693 590.75,188.3965907559093 601.25,188.8786237537935 611.75,178.52679134110085 622.25,165.36366411318664 632.75,138.6334212839962 643.25,132.5817141084927 653.75,125.85817341747544 664.25,125.45473820951649 674.75,123.85635391443535" fill="none" stroke="#ffd700" stroke-width="1" opacity="0.6"/>
<polyline points="55.25,273.86854995557906 65.75,273.4565373037892 76.25,274.2318702030665 86.75,272.8391312374873 97.25,268.2469515163783 107.75,263.00234788978247 118.25,262.62542875093465 128.75,263.5654386995278 139.25,268.15389503046845 149.75,271.76388214583886 160.25,273.40730773481397 170.75,274.89201297285666 181.25,277.92786772489353 191.75,277.5070596905327 202.25,276.4747010793848 212.75,277.2368933758805 223.25,277.15184349375306 233.75,274.6761033401052 244.25,275.0319308871932 254.75,271.8168348498973 265.25,271.32052726474467 275.75,268.3022972099996 286.25,271.70401654412234 296.75,268.47185673772765 307.25,264.79733072120285 317.75,260.9050731426981 328.25,255.84996132115927 338.75,248.6321061045124 349.25,248.482404945487 359.75,249.36523304937876 370.25,251.20410123891338 380.75,253.95290796602882 391.25,256.5397820263182 401.75,249.78980308185615 412.25,240.90506979778212 422.75,234.07659610277307 433.25,227.90048498752444 443.75,219.06090689600882 454.25,213.34061125320108 464.75,205.57439460172534 475.25,196.52977472523938 485.75,187.75762905947258 496.25,182.85472880717958 506.75,179.78265381047518 517.25,180.24386925000323 527.75,182.49176477601566 538.25,183.63053051652864 548.75,185.86420792024052 559.25,187.6876420331232 569.75,190.2178145534467 580.25,191.40212850509047 590.75,188.57647612436023 601.25,188.8066967834878 611.75,183.17332037116557 622.25,175.14860933229153 632.75,158.7893959310777 643.25,151.8237420813337 653.75,144.6578057093532 664.25,141.01963517921598 674.75,137.3178079328627" fill="none" stroke="#ff6b6b" stroke-width="1" opacity="0.6"/>
<polyline points="55.25,273.86854995557906 65.75,273.6527338046415 76.25,274.0401751803722 86.75,273.3289019148493 97.25,270.87682961547205 107.75,267.87919170638907 118.25,267.2172965558872 128.75,267.27236197610716 139.25,269.32279878978284 149.75,271.1024202540898 160.25,272.02625859990997 170.75,272.9354898326851 181.25,274.7120350018636 191.75,274.7978815289155 202.25,274.5151392241826 212.75,275.101007746652 223.25,275.2598754873689 233.75,274.1432466455899 244.25,274.3803807602089 254.75,272.7583352289572 265.25,272.40869788634774 275.75,270.7240849413286 286.25,272.2752914752663 296.75,270.52784824990295 307.25,268.4072878115162 317.75,266.02468078560287 328.25,262.8891833892821 338.75,258.43799998359816 349.25,257.4256904356243 359.75,257.03638272907835 370.25,257.26901371600604 380.75,258.1312541466768 391.25,259.0883456848619 401.75,255.30992207980617 412.25,250.13028855024834 422.75,245.67487673358016 433.25,241.3351727559921 443.75,235.42542349201085 454.25,230.87055276520658 464.75,225.13301627995685 475.25,218.5326323752993 485.75,211.84218867893955 496.25,206.98023524969398 506.75,203.07338582832367 517.25,201.09680991399568 527.75,200.28828465009815 538.25,199.18987433569234 548.75,198.87805356438298 559.25,198.5937718478794 569.75,198.8804212809292 580.25,198.6757660434586 590.75,196.50293503085058 601.25,195.8686259564421 611.75,192.24524505732526 622.25,187.17783216209028 632.75,177.46308011099745 643.25,172.03595817256775 653.75,166.35739949284135 664.25,162.38506314053254 674.75,158.4112081104126" fill="none" stroke="#4ecdc4" stroke-width="1" opacity="0.6"/>
<line x1="55.25" y1="265.50675318750456" x2="55.25" y2="281.79979350253325" stroke="#ff4444" stroke-width="1" opacity="0.8"/>
<rect x="50.0" y="273.86854995557906" width="6.3" height="6.344994837563263" fill="#ff4444" opacity="0.8"/>
<rect x="50.0" y="316.80401924747775" width="6.3" height="13.195980752522251" fill="#ff4444" opacity="0.3"/>
<line x1="65.75" y1="267.63685859725797" x2="65.75" y2="278.55931399620624" stroke="#ff4444" stroke-width="1" opacity="0.8"/>
<rect x="60.5" y="271.60248037073507" width="6.3" height="1.586248709390759" fill="#ff4444" opacity="0.8"/>
<rect x="60.5" y="317.97614244242897" width="6.3" height="12.023857557571008" fill="#ff4444" opacity="0.3"/>
<line x1="76.25" y1="266.1185919754124" x2="76.25" y2="278.40068912526715" stroke="#44aa44" stroke-width="1" opacity="0.8"/>
<rect x="71.0" y="276.338565803059" width="6.3" height="1.3823024467549203" fill="#44aa44" opacity="0.8"/>
<rect x="71.0" y="321.10168714289335" width="6.3" height="8.898312857106651" fill="#44aa44" opacity="0.3"/>
<line x1="86.75" y1="259.59231157106154" x2="86.75" y2="277.5622433788749" stroke="#ff4444" stroke-width="1" opacity="0.8"/>
<rect x="81.5" y="266.57180589238124" width="6.3" height="6.6169231877445895" fill="#ff4444" opacity="0.8"/>
<rect x="81.5" y="316.73958189382904" width="6.3" height="13.260418106170986" fill="#ff4444" opacity="0.3"/>
<line x1="97.25" y1="241.916968809278" x2="97.25" y2="278.1740821667827" stroke="#ff4444" stroke-width="1" opacity="0.8"/>
<rect x="92.0" y="247.58214277138808" width="6.3" height="18.808377554205606" fill="#ff4444" opacity="0.8"/>
<rect x="92.0" y="308.76964424299484" width="6.3" height="21.23035575700514" fill="#ff4444" opacity="0.3"/>
<line x1="107.75" y1="229.77083583451395" x2="107.75" y2="264.6456467452638" stroke="#ff4444" stroke-width="1" opacity="0.8"/>
<rect x="102.5" y="239.4016315701011" width="6.3" height="13.3698105505799" fill="#ff4444" opacity="0.8"/>
<rect x="102.5" y="306.1559030396115" width="6.3" height="23.84409696038851" fill="#ff4444" opacity="0.3"/>
<line x1="118.25" y1="248.39792782193197" x2="118.25" y2="264.4643611784762" stroke="#44aa44" stroke-width="1" opacity="0.8"/>
<rect x="113.0" y="251.66106802410738" width="6.3" height="9.268224602012168" fill="#44aa44" opacity="0.8"/>
<rect x="113.0" y="313.5279834857674" width="6.3" height="16.472016514232624" fill="#44aa44" opacity="0.3"/>
<line x1="128.75" y1="260.2721324465148" x2="128.75" y2="272.9621221216414" stroke="#ff4444" stroke-width="1" opacity="0.8"/>
<rect x="123.5" y="267.795483468197" width="6.3" height="3.1724974187816883" fill="#ff4444" opacity="0.8"/>
<rect x="123.5" y="312.1898816374797" width="6.3" height="17.810118362520303" fill="#ff4444" opacity="0.3"/>
<line x1="139.25" y1="264.2604149158403" x2="139.25" y2="288.8019485197013" stroke="#44aa44" stroke-width="1" opacity="0.8"/>
<rect x="134.0" y="265.48409249165604" width="6.3" height="23.31785602804524" fill="#44aa44" opacity="0.8"/>
<rect x="134.0" y="314.95973388635804" width="6.3" height="15.040266113641982" fill="#44aa44" opacity="0.3"/>
<line x1="149.75" y1="280.25886618483923" x2="149.75" y2="292.6542668139362" stroke="#ff4444" stroke-width="1" opacity="0.8"/>
<rect x="144.5" y="288.0088241650059" width="6.3" height="4.0109431651739555" fill="#ff4444" opacity="0.8"/>
<rect x="144.5" y="319.5511338233346" width="6.3" height="10.448866176665375" fill="#ff4444" opacity="0.3"/>
<line x1="160.25" y1="271.6251410665834" x2="160.25" y2="284.51907700434606" stroke="#44aa44" stroke-width="1" opacity="0.8"/>
<rect x="155.0" y="280.757401493505" width="6.3" height="1" fill="#44aa44" opacity="0.8"/>
<rect x="155.0" y="315.35906740681696" width="6.3" height="14.640932593183049" fill="#44aa44" opacity="0.3"/>
<line x1="170.75" y1="275.6814056234542" x2="170.75" y2="286.7851465891901" stroke="#ff4444" stroke-width="1" opacity="0.8"/>
<rect x="165.5" y="281.5731865440488" width="6.3" height="1.1783561841189112" fill="#ff4444" opacity="0.8"/>
<rect x="165.5" y="321.5114506043408" width="6.3" height="8.488549395659227" fill="#ff4444" opacity="0.3"/>
<line x1="181.25" y1="289.05121617403415" x2="181.25" y2="305.18563161812375" stroke="#44aa44" stroke-width="1" opacity="0.8"/>
<rect x="176.0" y="291.29462506302974" width="6.3" height="1" fill="#44aa44" opacity="0.8"/>
<rect x="176.0" y="319.52012516694265" width="6.3" height="10.479874833057348" fill="#44aa44" opacity="0.3"/>
<line x1="191.75" y1="270.12953514058637" x2="191.75" y2="286.6491824140994" stroke="#ff4444" stroke-width="1" opacity="0.8"/>
<rect x="186.5" y="275.61342353590896" width="6.3" height="9.472170864648092" fill="#ff4444" opacity="0.8"/>
<rect x="186.5" y="318.0096548202136" width="6.3" height="11.99034517978642" fill="#ff4444" opacity="0.3"/>
<line x1="202.25" y1="257.84743799073163" x2="202.25" y2="275.5227807525152" stroke="#ff4444" stroke-width="1" opacity="0.8"/>
<rect x="197.0" y="271.8290873292194" width="6.3" height="3.6936934232957697" fill="#ff4444" opacity="0.8"/>
<rect x="197.0" y="313.8999534736265" width="6.3" height="16.100046526373472" fill="#ff4444" opacity="0.3"/>
<line x1="212.75" y1="272.3276226378851" x2="212.75" y2="286.1733078012822" stroke="#44aa44" stroke-width="1" opacity="0.8"/>
<rect x="207.5" y="273.1660683842774" width="6.3" height="7.50069032583383" fill="#44aa44" opacity="0.8"/>
<rect x="207.5" y="319.4301317800952" width="6.3" height="10.569868219904777" fill="#44aa44" opacity="0.3"/>
<line x1="223.25" y1="270.9226594952818" x2="223.25" y2="289.5044300910029" stroke="#ff4444" stroke-width="1" opacity="0.8"/>
<rect x="218.0" y="276.7691190241794" width="6.3" height="8.49776094316519" fill="#ff4444" opacity="0.8"/>
<rect x="218.0" y="318.5990770276868" width="6.3" height="11.400922972313221" fill="#ff4444" opacity="0.3"/>
<line x1="233.75" y1="263.4446298652964" x2="233.75" y2="283.88457752058974" stroke="#ff4444" stroke-width="1" opacity="0.8"/>
<rect x="228.5" y="263.53527264869024" width="6.3" height="14.661470213940902" fill="#ff4444" opacity="0.8"/>
<rect x="228.5" y="314.46507485581844" width="6.3" height="15.534925144181548" fill="#ff4444" opacity="0.3"/>
<line x1="244.25" y1="258.45927677863955" x2="244.25" y2="276.81444041587633" stroke="#44aa44" stroke-width="1" opacity="0.8"/>
<rect x="239.0" y="263.53527264869024" width="6.3" height="13.097882200398544" fill="#44aa44" opacity="0.8"/>
<rect x="239.0" y="318.2445192840581" width="6.3" height="11.755480715941905" fill="#44aa44" opacity="0.3"/>
<line x1="254.75" y1="254.53897639685934" x2="254.75" y2="272.73551516315706" stroke="#ff4444" stroke-width="1" opacity="0.8"/>
<rect x="249.5" y="257.34890268206595" width="6.3" height="13.573756813215823" fill="#ff4444" opacity="0.8"/>
<rect x="249.5" y="311.55045194657646" width="6.3" height="18.449548053423563" fill="#ff4444" opacity="0.3"/>
<line x1="265.25" y1="259.66029365860686" x2="265.25" y2="272.73551516315706" stroke="#44aa44" stroke-width="1" opacity="0.8"/>
<rect x="260.0" y="264.44170048262777" width="6.3" height="4.645442648930327" fill="#44aa44" opacity="0.8"/>
<rect x="260.0" y="317.46236408489125" width="6.3" height="12.537635915108735" fill="#44aa44" opacity="0.3"/>
<line x1="275.75" y1="248.78315965135545" x2="275.75" y2="268.61126851874087" stroke="#ff4444" stroke-width="1" opacity="0.8"/>
<rect x="270.5" y="254.72026196364683" width="6.3" height="11.67025836194685" fill="#ff4444" opacity="0.8"/>
<rect x="270.5" y="311.3595800098217" width="6.3" height="18.640419990178298" fill="#ff4444" opacity="0.3"/>
<line x1="286.25" y1="257.3715633779144" x2="286.25" y2="291.3172857588782" stroke="#44aa44" stroke-width="1" opacity="0.8"/>
<rect x="281.0" y="264.6003253535669" width="6.3" height="22.4114281941076" fill="#44aa44" opacity="0.8"/>
<rect x="281.0" y="312.75274364542025" width="6.3" height="17.24725635457974" fill="#44aa44" opacity="0.3"/>
<line x1="296.75" y1="253.70053065046704" x2="296.75" y2="289.52709078685143" stroke="#ff4444" stroke-width="1" opacity="0.8"/>
<rect x="291.5" y="253.92713760895143" width="6.3" height="29.073672773549134" fill="#ff4444" opacity="0.8"/>
<rect x="291.5" y="312.02699246923066" width="6.3" height="17.97300753076933" fill="#ff4444" opacity="0.3"/>
<line x1="307.25" y1="242.2568792470046" x2="307.25" y2="259.59231157106154" stroke="#ff4444" stroke-width="1" opacity="0.8"/>
<rect x="302.0" y="248.2619636468413" width="6.3" height="6.82086945038057" fill="#ff4444" opacity="0.8"/>
<rect x="302.0" y="314.8868280632931" width="6.3" height="15.113171936706918" fill="#ff4444" opacity="0.3"/>
<line x1="317.75" y1="239.71888131197926" x2="317.75" y2="257.3262419862175" stroke="#ff4444" stroke-width="1" opacity="0.8"/>
<rect x="312.5" y="243.3899140394266" width="6.3" height="8.429778855619873" fill="#ff4444" opacity="0.8"/>
<rect x="312.5" y="314.31728500201075" width="6.3" height="15.682714997989278" fill="#ff4444" opacity="0.3"/>
<line x1="328.25" y1="232.6714049031143" x2="328.25" y2="256.94101015679405" stroke="#ff4444" stroke-width="1" opacity="0.8"/>
<rect x="323.0" y="233.10195812423467" width="6.3" height="22.003535668835696" fill="#ff4444" opacity="0.8"/>
<rect x="323.0" y="314.46859613242947" width="6.3" height="15.531403867570544" fill="#ff4444" opacity="0.3"/>
<line x1="338.75" y1="199.36018200590678" x2="338.75" y2="243.05000360169998" stroke="#ff4444" stroke-width="1" opacity="0.8"/>
<rect x="333.5" y="216.1517576296012" width="6.3" height="26.898245972098778" fill="#ff4444" opacity="0.8"/>
<rect x="333.5" y="307.91347529057464" width="6.3" height="22.086524709425344" fill="#ff4444" opacity="0.3"/>
<line x1="349.25" y1="217.44341729296232" x2="349.25" y2="263.6712368237809" stroke="#44aa44" stroke-width="1" opacity="0.8"/>
<rect x="344.0" y="225.9411782361275" width="6.3" height="21.867571493745032" fill="#44aa44" opacity="0.8"/>
<rect x="344.0" y="304.1710109611928" width="6.3" height="25.828989038807205" fill="#44aa44" opacity="0.3"/>
<line x1="359.75" y1="240.33072009988717" x2="359.75" y2="264.1244507407497" stroke="#44aa44" stroke-width="1" opacity="0.8"/>
<rect x="354.5" y="240.33072009988717" width="6.3" height="13.007239417004826" fill="#44aa44" opacity="0.8"/>
<rect x="354.5" y="312.46469183808824" width="6.3" height="17.53530816191178" fill="#44aa44" opacity="0.3"/>
<line x1="370.25" y1="253.97245900064837" x2="370.25" y2="262.1076488102385" stroke="#44aa44" stroke-width="1" opacity="0.8"/>
<rect x="365.0" y="257.09963502773314" width="6.3" height="2.379373064086167" fill="#44aa44" opacity="0.8"/>
<rect x="365.0" y="321.39439828201483" width="6.3" height="8.605601717985145" fill="#44aa44" opacity="0.3"/>
<line x1="380.75" y1="246.90232189593493" x2="380.75" y2="266.32253823804837" stroke="#44aa44" stroke-width="1" opacity="0.8"/>
<rect x="375.5" y="259.1390976540928" width="6.3" height="7.183440583955587" fill="#44aa44" opacity="0.8"/>
<rect x="375.5" y="318.2599432789474" width="6.3" height="11.740056721052634" fill="#44aa44" opacity="0.3"/>
<line x1="391.25" y1="258.45927677863955" x2="391.25" y2="272.5995509880664" stroke="#44aa44" stroke-width="1" opacity="0.8"/>
<rect x="386.0" y="262.6741662064495" width="6.3" height="5.506549091170996" fill="#44aa44" opacity="0.8"/>
<rect x="386.0" y="320.56626230641706" width="6.3" height="9.433737693582946" fill="#44aa44" opacity="0.3"/>
<line x1="401.75" y1="209.96538766297695" x2="401.75" y2="259.59231157106154" stroke="#ff4444" stroke-width="1" opacity="0.8"/>
<rect x="396.5" y="219.41489783177664" width="6.3" height="39.06703964271131" fill="#ff4444" opacity="0.8"/>
<rect x="396.5" y="306.25256743813736" width="6.3" height="23.74743256186262" fill="#ff4444" opacity="0.3"/>
<line x1="412.25" y1="185.1745864047831" x2="412.25" y2="227.59540903306362" stroke="#ff4444" stroke-width="1" opacity="0.8"/>
<rect x="407.0" y="200.92377001944925" width="6.3" height="22.434088889956" fill="#ff4444" opacity="0.8"/>
<rect x="407.0" y="301.05263600835275" width="6.3" height="28.947363991647247" fill="#ff4444" opacity="0.3"/>
<line x1="422.75" y1="190.47718923331817" x2="422.75" y2="207.4500504238001" stroke="#44aa44" stroke-width="1" opacity="0.8"/>
<rect x="417.5" y="196.7768626791846" width="6.3" height="6.571601796047759" fill="#44aa44" opacity="0.8"/>
<rect x="417.5" y="309.8235536298939" width="6.3" height="20.176446370106063" fill="#44aa44" opacity="0.3"/>
<line x1="433.25" y1="192.5166518596778" x2="433.25" y2="209.62547722525034" stroke="#ff4444" stroke-width="1" opacity="0.8"/>
<rect x="428.0" y="200.10798496890536" width="6.3" height="7.795279371863501" fill="#ff4444" opacity="0.8"/>
<rect x="428.0" y="317.43843480115356" width="6.3" height="12.561565198846452" fill="#ff4444" opacity="0.3"/>
<line x1="443.75" y1="165.14253127476172" x2="443.75" y2="204.93471318462318" stroke="#ff4444" stroke-width="1" opacity="0.8"/>
<rect x="438.5" y="179.2828054841886" width="6.3" height="23.6351057699234" fill="#ff4444" opacity="0.8"/>
<rect x="438.5" y="311.08875634955893" width="6.3" height="18.911243650441094" fill="#ff4444" opacity="0.3"/>
<line x1="454.25" y1="173.20973899680652" x2="454.25" y2="190.0013146205009" stroke="#44aa44" stroke-width="1" opacity="0.8"/>
<rect x="449.0" y="181.82080341921392" width="6.3" height="5.778477441352294" fill="#44aa44" opacity="0.8"/>
<rect x="449.0" y="316.03464708574194" width="6.3" height="13.96535291425806" fill="#44aa44" opacity="0.3"/>
<line x1="464.75" y1="168.97218887314816" x2="464.75" y2="193.60436526040294" stroke="#ff4444" stroke-width="1" opacity="0.8"/>
<rect x="459.5" y="170.62641967008435" width="6.3" height="18.51378850817585" fill="#ff4444" opacity="0.8"/>
<rect x="459.5" y="315.6614352788498" width="6.3" height="14.338564721150183" fill="#ff4444" opacity="0.3"/>
<line x1="475.25" y1="154.4240221384494" x2="475.25" y2="184.13219439575482" stroke="#ff4444" stroke-width="1" opacity="0.8"/>
<rect x="470.0" y="155.82898528105272" width="6.3" height="19.2615914711744" fill="#ff4444" opacity="0.8"/>
<rect x="470.0" y="311.84953619469735" width="6.3" height="18.150463805302667" fill="#ff4444" opacity="0.3"/>
<line x1="485.75" y1="144.1587269191059" x2="485.75" y2="167.7938326890293" stroke="#ff4444" stroke-width="1" opacity="0.8"/>
<rect x="480.5" y="148.28297356352203" width="6.3" height="10.106670348404464" fill="#ff4444" opacity="0.8"/>
<rect x="480.5" y="312.68137754406735" width="6.3" height="17.318622455932637" fill="#ff4444" opacity="0.3"/>
<line x1="496.25" y1="153.0870410833914" x2="496.25" y2="177.65123538310087" stroke="#ff4444" stroke-width="1" opacity="0.8"/>
<rect x="491.0" y="160.79167767186118" width="6.3" height="1.5182666218454983" fill="#ff4444" opacity="0.8"/>
<rect x="491.0" y="309.06775110255074" width="6.3" height="20.932248897449274" fill="#ff4444" opacity="0.3"/>
<line x1="506.75" y1="157.6191802530795" x2="506.75" y2="181.9114462026077" stroke="#44aa44" stroke-width="1" opacity="0.8"/>
<rect x="501.5" y="164.5533531827023" width="6.3" height="1.4049631426033216" fill="#44aa44" opacity="0.8"/>
<rect x="501.5" y="308.7967232618" width="6.3" height="21.203276738199968" fill="#44aa44" opacity="0.3"/>
<line x1="517.25" y1="163.87353230724904" x2="517.25" y2="188.1884589526257" stroke="#44aa44" stroke-width="1" opacity="0.8"/>
<rect x="512.0" y="164.32674622421789" width="6.3" height="17.99259250366174" fill="#44aa44" opacity="0.8"/>
<rect x="512.0" y="313.77090805805227" width="6.3" height="16.22909194194771" fill="#44aa44" opacity="0.3"/>
<line x1="527.75" y1="182.5912670780609" x2="527.75" y2="197.25273729200188" stroke="#44aa44" stroke-width="1" opacity="0.8"/>
<rect x="522.5" y="184.81201527120805" width="6.3" height="7.795279371863529" fill="#44aa44" opacity="0.8"/>
<rect x="522.5" y="318.2838625210217" width="6.3" height="11.716137478978256" fill="#44aa44" opacity="0.3"/>
<line x1="538.25" y1="172.98313203832214" x2="538.25" y2="191.6102240257402" stroke="#44aa44" stroke-width="1" opacity="0.8"/>
<rect x="533.0" y="185.94505006363008" width="6.3" height="2.809926285206643" fill="#44aa44" opacity="0.8"/>
<rect x="533.0" y="314.53098498675695" width="6.3" height="15.469015013243041" fill="#44aa44" opacity="0.3"/>
<line x1="548.75" y1="182.99915960333277" x2="548.75" y2="198.81632530554424" stroke="#44aa44" stroke-width="1" opacity="0.8"/>
<rect x="543.5" y="188.73231565298823" width="6.3" height="7.183440583955644" fill="#44aa44" opacity="0.8"/>
<rect x="543.5" y="318.40696661912017" width="6.3" height="11.593033380879813" fill="#44aa44" opacity="0.3"/>
<line x1="559.25" y1="189.79736835786494" x2="559.25" y2="206.4756405023171" stroke="#ff4444" stroke-width="1" opacity="0.8"/>
<rect x="554.0" y="195.8930955410954" width="6.3" height="4.781406824020991" fill="#ff4444" opacity="0.8"/>
<rect x="554.0" y="319.1778751553469" width="6.3" height="10.822124844653079" fill="#ff4444" opacity="0.3"/>
<line x1="569.75" y1="185.26522918817682" x2="569.75" y2="202.82726847071817" stroke="#44aa44" stroke-width="1" opacity="0.8"/>
<rect x="564.5" y="192.62995533891998" width="6.3" height="8.97363555598244" fill="#44aa44" opacity="0.8"/>
<rect x="564.5" y="317.62748584962276" width="6.3" height="12.372514150377256" fill="#44aa44" opacity="0.3"/>
<line x1="580.25" y1="189.34415444089615" x2="580.25" y2="204.79874900953251" stroke="#ff4444" stroke-width="1" opacity="0.8"/>
<rect x="575.0" y="196.73154128748772" width="6.3" height="1.6315701010877035" fill="#ff4444" opacity="0.8"/>
<rect x="575.0" y="313.41554698135644" width="6.3" height="16.584453018643543" fill="#ff4444" opacity="0.3"/>
<line x1="590.75" y1="173.75359569716912" x2="590.75" y2="215.6985437126324" stroke="#ff4444" stroke-width="1" opacity="0.8"/>
<rect x="585.5" y="175.8610404110741" width="6.3" height="18.49112781232739" fill="#ff4444" opacity="0.8"/>
<rect x="585.5" y="309.11231935167194" width="6.3" height="20.88768064832804" fill="#ff4444" opacity="0.3"/>
<line x1="601.25" y1="184.65339040026896" x2="601.25" y2="200.67450236511638" stroke="#ff4444" stroke-width="1" opacity="0.8"/>
<rect x="596.0" y="189.84268974956183" width="6.3" height="3.2404795063270058" fill="#ff4444" opacity="0.8"/>
<rect x="596.0" y="313.8157005709881" width="6.3" height="16.184299429011894" fill="#ff4444" opacity="0.3"/>
<line x1="611.75" y1="142.0286215093525" x2="611.75" y2="188.86827982807887" stroke="#ff4444" stroke-width="1" opacity="0.8"/>
<rect x="606.5" y="157.82312651571547" width="6.3" height="29.18697625279131" fill="#ff4444" opacity="0.8"/>
<rect x="606.5" y="300.7313027814929" width="6.3" height="29.268697218507075" fill="#ff4444" opacity="0.3"/>
<line x1="622.25" y1="116.82992772588668" x2="622.25" y2="178.92023435061355" stroke="#ff4444" stroke-width="1" opacity="0.8"/>
<rect x="617.0" y="139.03740965735835" width="6.3" height="30.818546353879015" fill="#ff4444" opacity="0.8"/>
<rect x="617.0" y="295.6261412230842" width="6.3" height="34.37385877691584" fill="#ff4444" opacity="0.3"/>
<line x1="632.75" y1="71.50853602900577" x2="632.75" y2="149.68793670612536" stroke="#ff4444" stroke-width="1" opacity="0.8"/>
<rect x="627.5" y="85.17293562561538" width="6.3" height="62.43021706245348" fill="#ff4444" opacity="0.8"/>
<rect x="627.5" y="295.0" width="6.3" height="35.0" fill="#ff4444" opacity="0.3"/>
<line x1="643.25" y1="87.50698729800474" x2="643.25" y2="124.35327874756891" stroke="#44aa44" stroke-width="1" opacity="0.8"/>
<rect x="638.0" y="93.87464283141652" width="6.3" height="26.603656926069107" fill="#44aa44" opacity="0.8"/>
<rect x="638.0" y="303.742268756034" width="6.3" height="26.257731243966038" fill="#44aa44" opacity="0.3"/>
<line x1="653.75" y1="98.70137104713432" x2="653.75" y2="141.7566931591712" stroke="#ff4444" stroke-width="1" opacity="0.8"/>
<rect x="648.5" y="112.41109203544082" width="6.3" height="4.41883569044586" fill="#ff4444" opacity="0.8"/>
<rect x="648.5" y="307.00760010462454" width="6.3" height="22.992399895375435" fill="#ff4444" opacity="0.3"/>
<line x1="664.25" y1="113.45348404446904" x2="664.25" y2="134.8225202295484" stroke="#44aa44" stroke-width="1" opacity="0.8"/>
<rect x="659.0" y="118.62012269791346" width="6.3" height="6.027745095685162" fill="#44aa44" opacity="0.8"/>
<rect x="659.0" y="314.22972839213367" width="6.3" height="15.770271607866352" fill="#44aa44" opacity="0.3"/>
<line x1="674.75" y1="105.3182942348789" x2="674.75" y2="130.42634523495096" stroke="#ff4444" stroke-width="1" opacity="0.8"/>
<rect x="669.5" y="120.65958532427311" width="6.3" height="5.914441616443" fill="#ff4444" opacity="0.8"/>
<rect x="669.5" y="315.56735828224436" width="6.3" height="14.43264171775562" fill="#ff4444" opacity="0.3"/>
<rect x="177.25" y="301.18563161812375" width="8" height="8" fill="#ff9800" opacity="0.85"/>
<text x="181.25" y="298.18563161812375" text-anchor="middle" font-size="8" font-weight="bold" fill="#ff9800">前低</text>
<rect x="198.25" y="253.84743799073163" width="8" height="8" fill="#ff9800" opacity="0.85"/>
<text x="202.25" y="250.84743799073163" text-anchor="middle" font-size="8" font-weight="bold" fill="#ff9800">前高</text>
<rect x="282.25" y="287.3172857588782" width="8" height="8" fill="#ff9800" opacity="0.85"/>
<text x="286.25" y="284.3172857588782" text-anchor="middle" font-size="8" font-weight="bold" fill="#ff9800">前低</text>
<rect x="334.75" y="195.36018200590678" width="8" height="8" fill="#ff9800" opacity="0.85"/>
<text x="338.75" y="192.36018200590678" text-anchor="middle" font-size="8" font-weight="bold" fill="#ff9800">前高</text>
<rect x="387.25" y="268.5995509880664" width="8" height="8" fill="#ff9800" opacity="0.85"/>
<text x="391.25" y="265.5995509880664" text-anchor="middle" font-size="8" font-weight="bold" fill="#ff9800">前低</text>
<rect x="429.25" y="196.10798496890536" width="8" height="8" fill="#2196f3" opacity="0.85"/>
<text x="433.25" y="193.10798496890536" text-anchor="middle" font-size="8" font-weight="bold" fill="#2196f3">中</text>
<rect x="481.75" y="140.1587269191059" width="8" height="8" fill="#ff9800" opacity="0.85"/>
<text x="485.75" y="137.1587269191059" text-anchor="middle" font-size="8" font-weight="bold" fill="#ff9800">前高</text>
<rect x="555.25" y="191.8930955410954" width="8" height="8" fill="#2196f3" opacity="0.85"/>
<text x="559.25" y="188.8930955410954" text-anchor="middle" font-size="8" font-weight="bold" fill="#2196f3">中</text>
<rect x="586.75" y="211.6985437126324" width="8" height="8" fill="#ff9800" opacity="0.85"/>
<text x="590.75" y="208.6985437126324" text-anchor="middle" font-size="8" font-weight="bold" fill="#ff9800">前低</text>
<rect x="628.75" y="67.50853602900577" width="8" height="8" fill="#ff9800" opacity="0.85"/>
<text x="632.75" y="64.50853602900577" text-anchor="middle" font-size="8" font-weight="bold" fill="#ff9800">前高</text>
<rect x="649.75" y="108.41109203544082" width="8" height="8" fill="#2196f3" opacity="0.85"/>
<text x="653.75" y="105.41109203544082" text-anchor="middle" font-size="8" font-weight="bold" fill="#2196f3">中</text>
<rect x="670.75" y="116.65958532427311" width="8" height="8" fill="#2196f3" opacity="0.85"/>
<text x="674.75" y="113.65958532427311" text-anchor="middle" font-size="8" font-weight="bold" fill="#2196f3">中</text>
<text x="55.25" y="355" fill="#666666" font-size="8" text-anchor="middle" transform="rotate(-30,55.25,355)">02/11</text>
<text x="107.75" y="355" fill="#666666" font-size="8" text-anchor="middle" transform="rotate(-30,107.75,355)">02/26</text>
<text x="160.25" y="355" fill="#666666" font-size="8" text-anchor="middle" transform="rotate(-30,160.25,355)">03/05</text>
<text x="212.75" y="355" fill="#666666" font-size="8" text-anchor="middle" transform="rotate(-30,212.75,355)">03/12</text>
<text x="265.25" y="355" fill="#666666" font-size="8" text-anchor="middle" transform="rotate(-30,265.25,355)">03/19</text>
<text x="317.75" y="355" fill="#666666" font-size="8" text-anchor="middle" transform="rotate(-30,317.75,355)">03/26</text>
<text x="370.25" y="355" fill="#666666" font-size="8" text-anchor="middle" transform="rotate(-30,370.25,355)">04/02</text>
<text x="422.75" y="355" fill="#666666" font-size="8" text-anchor="middle" transform="rotate(-30,422.75,355)">04/10</text>
<text x="475.25" y="355" fill="#666666" font-size="8" text-anchor="middle" transform="rotate(-30,475.25,355)">04/17</text>
<text x="527.75" y="355" fill="#666666" font-size="8" text-anchor="middle" transform="rotate(-30,527.75,355)">04/24</text>
<text x="580.25" y="355" fill="#666666" font-size="8" text-anchor="middle" transform="rotate(-30,580.25,355)">05/06</text>
<text x="632.75" y="355" fill="#666666" font-size="8" text-anchor="middle" transform="rotate(-30,632.75,355)">05/13</text>
<text x="674.75" y="355" fill="#666666" font-size="8" text-anchor="middle" transform="rotate(-30,674.75,355)">05/19</text>
<rect x="50" y="334" width="7" height="7" fill="#ff9800" opacity="0.8" rx="1"/>
<text x="60" y="340" font-family="sans-serif" font-size="8" fill="#888888">第1类</text>
<rect x="120" y="334" width="7" height="7" fill="#2196f3" opacity="0.8" rx="1"/>
<text x="130" y="340" font-family="sans-serif" font-size="8" fill="#888888">第2类</text>
<rect x="190" y="334" width="7" height="7" fill="#ffd700" opacity="0.8" rx="1"/>
<text x="200" y="340" font-family="sans-serif" font-size="8" fill="#888888">EMA5</text>
<rect x="260" y="334" width="7" height="7" fill="#ff6b6b" opacity="0.8" rx="1"/>
<text x="270" y="340" font-family="sans-serif" font-size="8" fill="#888888">EMA10</text>
<rect x="330" y="334" width="7" height="7" fill="#4ecdc4" opacity="0.8" rx="1"/>
<text x="340" y="340" font-family="sans-serif" font-size="8" fill="#888888">EMA20</text>
</svg>