<svg xmlns="http://www.w3.org/2000/svg" width="700" height="380" viewBox="0 0 700 380">
<rect width="700" height="380" fill="#1a1a2e"/>
<text x="350.0" y="20" text-anchor="middle" font-family="sans-serif" font-size="14" font-weight="bold" fill="#ffffff">亨通光电(600487) 关键点图</text>
<line x1="50" y1="28.01184722570932" x2="680" y2="28.01184722570932" stroke="#2a2a4e" stroke-width="0.5"/>
<text x="46" y="31.01184722570932" text-anchor="end" font-size="9" fill="#666666">86.29</text>
<line x1="50" y1="128.6540296259102" x2="680" y2="128.6540296259102" stroke="#2a2a4e" stroke-width="0.5"/>
<text x="46" y="131.6540296259102" text-anchor="end" font-size="9" fill="#666666">69.3</text>
<line x1="50" y1="229.35544815465735" x2="680" y2="229.35544815465735" stroke="#2a2a4e" stroke-width="0.5"/>
<text x="46" y="232.35544815465735" text-anchor="end" font-size="9" fill="#666666">52.3</text>
<line x1="50" y1="329.9976305548581" x2="680" y2="329.9976305548581" stroke="#2a2a4e" stroke-width="0.5"/>
<text x="46" y="332.9976305548581" text-anchor="end" font-size="9" fill="#666666">35.31</text>
<polyline points="55.25,295.6999121265378 65.75,294.21900891287976 76.25,299.84644112478037 86.75,296.23303728345473 97.25,297.6349589923843 107.75,290.61218686361485 118.25,279.6710545280405 128.75,268.23043730608174 139.25,264.7103974039876 149.75,260.6656017842636 160.25,252.9932365732232 170.75,252.7554343495101 181.25,257.9478964790525 191.75,252.9782622689875 202.25,248.0657973248602 212.75,243.56660737215137 223.25,244.00284285936547 233.75,249.13128368212452 244.25,260.46814007965554 254.75,265.4788908171844 265.25,271.5837439743653 275.75,275.91033596951996 286.25,281.99348157445775 296.75,280.10555374693536 307.25,271.343692246053 317.75,266.07506715474585 328.25,260.4498951757223 338.75,247.02454619380734 349.25,240.42401330486817 359.75,237.40583437832285 370.25,232.57012629991797 380.75,220.14497561345277 391.25,210.57809237063896 401.75,204.47660547531257 412.25,198.47390067924846 422.75,201.5014514027026 433.25,208.43641722101677 443.75,214.6788486134923 454.25,219.90671985564313 464.75,221.39768435601752 475.25,217.43557126789153 485.75,204.44758542305 496.25,197.9411741970053 506.75,181.7958317560754 517.25,163.64749943668062 527.75,151.50912047138655 538.25,139.78371861034947 548.75,138.06810527659587 559.25,138.72119228666526 569.75,142.47380682530553 580.25,132.93087037998026 590.75,118.35483625800681 601.25,106.05083589683508 611.75,102.35011475890778 622.25,99.66576819561973 632.75,97.22460640608477 643.25,98.42075400710284 653.75,107.51124373759991 664.25,109.62249498817651 674.75,103.78344276306088" fill="none" stroke="#ffd700" stroke-width="1" opacity="0.6"/>
<polyline points="55.25,295.6999121265378 65.75,294.8921467372698 76.25,297.8392665211446 86.75,296.23325980835534 97.25,296.99790391778953 107.75,293.2831291338416 118.25,286.8296129016689 128.75,279.2877201672135 139.25,275.3572833367746 149.75,271.2152337382365 160.25,265.1121923587649 170.75,262.7790355484592 181.25,263.7888146738552 191.75,260.0161199784011 202.25,256.0569831526201 212.75,252.14993666427713 223.25,250.8272779678256 233.75,252.38380294233778 244.25,257.97617565731593 254.75,261.1623968636661 265.25,265.27713385004085 275.75,268.78374950636606 286.25,273.39757192054196 296.75,273.9306857698781 307.25,270.27419185613445 317.75,267.5948509681339 328.25,264.250251013505 338.75,256.2363595983182 349.25,250.96119376716757 359.75,247.39906335954294 370.25,242.9444536838276 380.75,234.28085742140846 391.25,226.49239714206348 401.75,220.27080342253552 412.25,214.12492845246007 422.75,212.9306783428511 433.25,214.6353457091773 443.75,216.91323037995295 454.25,219.35854528176964 464.75,220.27146674995083 475.25,218.31508099389424 485.75,211.0708142192529 496.25,206.31763922391895 506.75,195.98809516033648 517.25,183.5085932762555 527.75,173.27655132435422 538.25,162.92316288143076 548.75,157.78020210464132 559.25,154.55241377776184 569.75,153.72089052772986 580.25,146.4707281571117 590.75,136.05837176746593 601.25,126.12827420510693 611.75,120.45925571018805 622.25,115.70249559361633 632.75,111.45518418150697 643.25,109.52025055016729 653.75,112.46060921351763 664.25,112.71231617275618 674.75,108.96559292549684" fill="none" stroke="#ff6b6b" stroke-width="1" opacity="0.6"/>
<polyline points="55.25,295.6999121265378 65.75,295.2767969226355 76.25,296.7838929822494 86.75,296.0431631363974 97.25,296.4617954481923 107.75,294.56701898703835 118.25,291.064330498453 128.75,286.71050881880643 139.25,283.9447763217581 149.75,280.95727481919215 160.25,276.83263018413976 170.75,274.4942682525154 181.25,273.90746372733645 191.75,270.9676094531957 202.25,267.85077688018714 212.75,264.681010269382 223.25,262.79475346599264 233.75,262.4703165004355 244.25,264.4390342503672 254.75,265.49249692102194 265.25,267.23544486080334 275.75,268.8857377273772 286.25,271.29278868518264 296.75,271.7724943429643 307.25,270.0627300478523 317.75,268.67940499302176 328.25,266.8241808239411 338.75,262.3812920054684 349.25,259.03287824561335 359.75,256.398268557958 370.25,253.2078344232104 380.75,247.69229535819247 391.25,242.33534588455618 401.75,237.56756357980416 412.25,232.7009852471676 422.75,230.30627739978124 433.25,229.54437944338733 443.75,229.31764915339267 454.25,229.41715517115955 464.75,228.9373892840745 475.25,227.08728983717592 485.75,222.45722544633693 496.25,218.88304699858253 506.75,212.27562793911903 517.25,204.1875524018592 527.75,196.85848670080577 538.25,189.18938462342194 548.75,183.9939078601521 559.25,179.80661818840468 569.75,176.96589606594574 580.25,170.95438191579183 590.75,163.16851392515068 601.25,155.38511594889746 611.75,149.62926419024558 622.25,144.3595318929883 632.75,139.40550817241942 643.25,135.73003589020223 653.75,134.7740537290967 664.25,132.7808102776903 674.75,128.9069558048464" fill="none" stroke="#4ecdc4" stroke-width="1" opacity="0.6"/>
<line x1="55.25" y1="281.187060632689" x2="55.25" y2="303.99297012302287" stroke="#ff4444" stroke-width="1" opacity="0.8"/>
<rect x="50.0" y="295.6999121265378" width="6.3" height="8.29305799648506" fill="#ff4444" opacity="0.8"/>
<rect x="50.0" y="309.2891709160806" width="6.3" height="20.710829083919382" fill="#ff4444" opacity="0.3"/>
<line x1="65.75" y1="290.07247991463726" x2="65.75" y2="299.84644112478037" stroke="#ff4444" stroke-width="1" opacity="0.8"/>
<rect x="60.5" y="291.25720248556365" width="6.3" height="4.442709640974158" fill="#ff4444" opacity="0.8"/>
<rect x="60.5" y="314.5418341602201" width="6.3" height="15.458165839779875" fill="#ff4444" opacity="0.3"/>
<line x1="76.25" y1="295.10755084107456" x2="76.25" y2="311.81213909113734" stroke="#44aa44" stroke-width="1" opacity="0.8"/>
<rect x="71.0" y="296.46998179764" width="6.3" height="14.631323750941533" fill="#44aa44" opacity="0.8"/>
<rect x="71.0" y="311.63264655975297" width="6.3" height="18.367353440247022" fill="#44aa44" opacity="0.3"/>
<line x1="86.75" y1="288.29539605824755" x2="86.75" y2="299.78720499623404" stroke="#ff4444" stroke-width="1" opacity="0.8"/>
<rect x="81.5" y="289.00622960080347" width="6.3" height="8.115349610846067" fill="#ff4444" opacity="0.8"/>
<rect x="81.5" y="311.0041574482447" width="6.3" height="18.995842551755313" fill="#ff4444" opacity="0.3"/>
<line x1="97.25" y1="285.8667147878484" x2="97.25" y2="307.2509571930706" stroke="#44aa44" stroke-width="1" opacity="0.8"/>
<rect x="92.0" y="289.00622960080347" width="6.3" height="11.432572809440103" fill="#44aa44" opacity="0.8"/>
<rect x="92.0" y="310.5298499574761" width="6.3" height="19.470150042523944" fill="#44aa44" opacity="0.3"/>
<line x1="107.75" y1="276.56664260607585" x2="107.75" y2="295.10755084107456" stroke="#ff4444" stroke-width="1" opacity="0.8"/>
<rect x="102.5" y="276.56664260607585" width="6.3" height="18.422435977906105" fill="#ff4444" opacity="0.8"/>
<rect x="102.5" y="313.2566424477994" width="6.3" height="16.743357552200642" fill="#ff4444" opacity="0.3"/>
<line x1="118.25" y1="257.19642857142856" x2="118.25" y2="288.94699347225713" stroke="#ff4444" stroke-width="1" opacity="0.8"/>
<rect x="113.0" y="257.78878985689187" width="6.3" height="31.158203615365267" fill="#ff4444" opacity="0.8"/>
<rect x="113.0" y="306.0219514611678" width="6.3" height="23.978048538832162" fill="#ff4444" opacity="0.3"/>
<line x1="128.75" y1="230.00704556866688" x2="128.75" y2="266.67420913884007" stroke="#ff4444" stroke-width="1" opacity="0.8"/>
<rect x="123.5" y="245.34920286216425" width="6.3" height="21.325006276675822" fill="#ff4444" opacity="0.8"/>
<rect x="123.5" y="307.1132497535592" width="6.3" height="22.886750246440812" fill="#ff4444" opacity="0.3"/>
<line x1="139.25" y1="237.29308937986448" x2="139.25" y2="258.97351242781826" stroke="#44aa44" stroke-width="1" opacity="0.8"/>
<rect x="134.0" y="242.56510482048714" width="6.3" height="15.105212779312012" fill="#44aa44" opacity="0.8"/>
<rect x="134.0" y="309.1863559477251" width="6.3" height="20.813644052274906" fill="#44aa44" opacity="0.3"/>
<line x1="149.75" y1="249.19955121767515" x2="149.75" y2="266.7334452673864" stroke="#ff4444" stroke-width="1" opacity="0.8"/>
<rect x="144.5" y="252.5760105448155" width="6.3" height="8.766947024855682" fill="#ff4444" opacity="0.8"/>
<rect x="144.5" y="311.10747417406424" width="6.3" height="18.89252582593576" fill="#ff4444" opacity="0.3"/>
<line x1="160.25" y1="231.84336555360284" x2="160.25" y2="254.59003891539044" stroke="#ff4444" stroke-width="1" opacity="0.8"/>
<rect x="155.0" y="237.6485061511424" width="6.3" height="11.847225709264364" fill="#ff4444" opacity="0.8"/>
<rect x="155.0" y="308.26754177556944" width="6.3" height="21.73245822443057" fill="#ff4444" opacity="0.3"/>
<line x1="170.75" y1="241.26190999246802" x2="170.75" y2="258.79580404217927" stroke="#44aa44" stroke-width="1" opacity="0.8"/>
<rect x="165.5" y="246.71163381872967" width="6.3" height="5.5681960833542234" fill="#44aa44" opacity="0.8"/>
<rect x="165.5" y="312.01508865882505" width="6.3" height="17.984911341174953" fill="#44aa44" opacity="0.3"/>
<line x1="181.25" y1="265.726431082099" x2="181.25" y2="280.9501161185037" stroke="#44aa44" stroke-width="1" opacity="0.8"/>
<rect x="176.0" y="267.7996955812202" width="6.3" height="1" fill="#44aa44" opacity="0.8"/>
<rect x="176.0" y="309.49389564136675" width="6.3" height="20.50610435863324" fill="#44aa44" opacity="0.3"/>
<line x1="191.75" y1="241.7950351493849" x2="191.75" y2="262.4092078835049" stroke="#ff4444" stroke-width="1" opacity="0.8"/>
<rect x="186.5" y="243.03899384885767" width="6.3" height="19.370214034647233" fill="#ff4444" opacity="0.8"/>
<rect x="186.5" y="310.3306253643913" width="6.3" height="19.6693746356087" fill="#ff4444" opacity="0.3"/>
<line x1="202.25" y1="217.50822244539296" x2="202.25" y2="239.24788162189307" stroke="#44aa44" stroke-width="1" opacity="0.8"/>
<rect x="197.0" y="237.0561448656792" width="6.3" height="1.184722570926425" fill="#44aa44" opacity="0.8"/>
<rect x="197.0" y="308.4832331014285" width="6.3" height="21.516766898571507" fill="#44aa44" opacity="0.3"/>
<line x1="212.75" y1="217.50822244539296" x2="212.75" y2="243.5721190057746" stroke="#ff4444" stroke-width="1" opacity="0.8"/>
<rect x="207.5" y="234.56822746673365" width="6.3" height="9.00389153904095" fill="#ff4444" opacity="0.8"/>
<rect x="207.5" y="310.7130747594265" width="6.3" height="19.286925240573506" fill="#ff4444" opacity="0.3"/>
<line x1="223.25" y1="225.20891915641482" x2="223.25" y2="246.23774479035905" stroke="#44aa44" stroke-width="1" opacity="0.8"/>
<rect x="218.0" y="236.7599642229476" width="6.3" height="8.115349610846096" fill="#44aa44" opacity="0.8"/>
<rect x="218.0" y="313.259720576242" width="6.3" height="16.74027942375803" fill="#44aa44" opacity="0.3"/>
<line x1="233.75" y1="241.7950351493849" x2="233.75" y2="262.70538852623656" stroke="#44aa44" stroke-width="1" opacity="0.8"/>
<rect x="228.5" y="247.24475897564653" width="6.3" height="12.143406351995992" fill="#44aa44" opacity="0.8"/>
<rect x="228.5" y="313.9424710455041" width="6.3" height="16.057528954495943" fill="#44aa44" opacity="0.3"/>
<line x1="244.25" y1="253.10913570173238" x2="244.25" y2="283.9119225458197" stroke="#44aa44" stroke-width="1" opacity="0.8"/>
<rect x="239.0" y="255.4785808435853" width="6.3" height="27.663272031132294" fill="#44aa44" opacity="0.8"/>
<rect x="239.0" y="309.4281709175508" width="6.3" height="20.571829082449216" fill="#44aa44" opacity="0.3"/>
<line x1="254.75" y1="274.67108649259353" x2="254.75" y2="287.8807431584233" stroke="#ff4444" stroke-width="1" opacity="0.8"/>
<rect x="249.5" y="275.50039229224205" width="6.3" height="8.352294125031392" fill="#ff4444" opacity="0.8"/>
<rect x="249.5" y="312.3500045981025" width="6.3" height="17.649995401897524" fill="#ff4444" opacity="0.3"/>
<line x1="265.25" y1="276.1519897062516" x2="265.25" y2="285.21511737383884" stroke="#ff4444" stroke-width="1" opacity="0.8"/>
<rect x="260.0" y="283.7934502887271" width="6.3" height="1.3624309565653903" fill="#ff4444" opacity="0.8"/>
<rect x="260.0" y="318.41021601675504" width="6.3" height="11.589783983244928" fill="#ff4444" opacity="0.3"/>
<line x1="275.75" y1="270.22837685161943" x2="275.75" y2="285.09664511674623" stroke="#44aa44" stroke-width="1" opacity="0.8"/>
<rect x="270.5" y="275.5596284207884" width="6.3" height="9.003891539040978" fill="#44aa44" opacity="0.8"/>
<rect x="270.5" y="313.53273628437375" width="6.3" height="16.46726371562622" fill="#44aa44" opacity="0.3"/>
<line x1="286.25" y1="284.62275608837564" x2="286.25" y2="296.7661624403716" stroke="#44aa44" stroke-width="1" opacity="0.8"/>
<rect x="281.0" y="290.19095217172986" width="6.3" height="3.9688206126035652" fill="#44aa44" opacity="0.8"/>
<rect x="281.0" y="316.33891550946294" width="6.3" height="13.661084490537085" fill="#44aa44" opacity="0.3"/>
<line x1="296.75" y1="276.1519897062516" x2="296.75" y2="292.7381056992217" stroke="#ff4444" stroke-width="1" opacity="0.8"/>
<rect x="291.5" y="276.3296980918906" width="6.3" height="9.30007218177252" fill="#ff4444" opacity="0.8"/>
<rect x="291.5" y="312.24766015536886" width="6.3" height="17.752339844631166" fill="#ff4444" opacity="0.3"/>
<line x1="307.25" y1="251.2728157167964" x2="307.25" y2="266.67420913884007" stroke="#ff4444" stroke-width="1" opacity="0.8"/>
<rect x="302.0" y="253.81996924428825" width="6.3" height="12.380350866181288" fill="#ff4444" opacity="0.8"/>
<rect x="302.0" y="306.93329136709974" width="6.3" height="23.066708632900276" fill="#ff4444" opacity="0.3"/>
<line x1="317.75" y1="243.6905912628672" x2="317.75" y2="259.74358209892046" stroke="#ff4444" stroke-width="1" opacity="0.8"/>
<rect x="312.5" y="255.5378169721316" width="6.3" height="1" fill="#ff4444" opacity="0.8"/>
<rect x="312.5" y="312.2123009740802" width="6.3" height="17.787699025919803" fill="#ff4444" opacity="0.3"/>
<line x1="328.25" y1="241.73579902083858" x2="328.25" y2="263.59393045443136" stroke="#ff4444" stroke-width="1" opacity="0.8"/>
<rect x="323.0" y="249.19955121767515" width="6.3" height="12.26187860908857" fill="#ff4444" opacity="0.8"/>
<rect x="323.0" y="312.170052355612" width="6.3" height="17.829947644388042" fill="#ff4444" opacity="0.3"/>
<line x1="338.75" y1="220.17384822997744" x2="338.75" y2="254.2346221441125" stroke="#ff4444" stroke-width="1" opacity="0.8"/>
<rect x="333.5" y="220.17384822997744" width="6.3" height="34.06077391413507" fill="#ff4444" opacity="0.8"/>
<rect x="333.5" y="312.7061739339616" width="6.3" height="17.293826066038406" fill="#ff4444" opacity="0.3"/>
<line x1="349.25" y1="215.3757218177254" x2="349.25" y2="235.04211649510424" stroke="#44aa44" stroke-width="1" opacity="0.8"/>
<rect x="344.0" y="223.3725991714788" width="6.3" height="3.8503483555109597" fill="#44aa44" opacity="0.8"/>
<rect x="344.0" y="307.46060390197175" width="6.3" height="22.539396098028224" fill="#44aa44" opacity="0.3"/>
<line x1="359.75" y1="215.13877730354008" x2="359.75" y2="239.54406226462473" stroke="#44aa44" stroke-width="1" opacity="0.8"/>
<rect x="354.5" y="215.3757218177254" width="6.3" height="15.993754707506866" fill="#44aa44" opacity="0.8"/>
<rect x="354.5" y="313.5214094936213" width="6.3" height="16.47859050637868" fill="#44aa44" opacity="0.3"/>
<line x1="370.25" y1="208.6228031634447" x2="370.25" y2="230.95482362540804" stroke="#ff4444" stroke-width="1" opacity="0.8"/>
<rect x="365.0" y="222.89871014310827" width="6.3" height="8.056113482299764" fill="#ff4444" opacity="0.8"/>
<rect x="365.0" y="311.18569137874107" width="6.3" height="18.814308621258917" fill="#ff4444" opacity="0.3"/>
<line x1="380.75" y1="191.2666174993724" x2="380.75" y2="219.2260701732363" stroke="#ff4444" stroke-width="1" opacity="0.8"/>
<rect x="375.5" y="195.29467424052228" width="6.3" height="21.32500627667585" fill="#ff4444" opacity="0.8"/>
<rect x="375.5" y="308.26153207794346" width="6.3" height="21.738467922056525" fill="#ff4444" opacity="0.3"/>
<line x1="391.25" y1="174.85820989204123" x2="391.25" y2="195.5908548832539" stroke="#ff4444" stroke-width="1" opacity="0.8"/>
<rect x="386.0" y="191.44432588501132" width="6.3" height="2.0732644991212794" fill="#ff4444" opacity="0.8"/>
<rect x="386.0" y="308.64005573282003" width="6.3" height="21.35994426717997" fill="#ff4444" opacity="0.3"/>
<line x1="401.75" y1="178.59008599045953" x2="401.75" y2="204.18009352247054" stroke="#44aa44" stroke-width="1" opacity="0.8"/>
<rect x="396.5" y="179.0047388902838" width="6.3" height="13.268892794376058" fill="#44aa44" opacity="0.8"/>
<rect x="396.5" y="305.0263178372709" width="6.3" height="24.973682162729148" fill="#44aa44" opacity="0.3"/>
<line x1="412.25" y1="179.0047388902838" x2="412.25" y2="206.78648317850872" stroke="#ff4444" stroke-width="1" opacity="0.8"/>
<rect x="407.0" y="186.4684910871203" width="6.3" height="13.80201795129301" fill="#ff4444" opacity="0.8"/>
<rect x="407.0" y="305.14484575021044" width="6.3" height="24.85515424978954" fill="#ff4444" opacity="0.3"/>
<line x1="422.75" y1="188.42328332914894" x2="422.75" y2="209.15592832036157" stroke="#44aa44" stroke-width="1" opacity="0.8"/>
<rect x="417.5" y="188.42328332914894" width="6.3" height="19.133269520461965" fill="#44aa44" opacity="0.8"/>
<rect x="417.5" y="303.2574083776425" width="6.3" height="26.742591622357494" fill="#44aa44" opacity="0.3"/>
<line x1="433.25" y1="207.73426123524982" x2="433.25" y2="224.61655787095157" stroke="#44aa44" stroke-width="1" opacity="0.8"/>
<rect x="428.0" y="213.36169344715043" width="6.3" height="8.94465541049459" fill="#44aa44" opacity="0.8"/>
<rect x="428.0" y="303.95061229807106" width="6.3" height="26.049387701928946" fill="#44aa44" opacity="0.3"/>
<line x1="443.75" y1="216.85662503138346" x2="443.75" y2="230.24399008285218" stroke="#44aa44" stroke-width="1" opacity="0.8"/>
<rect x="438.5" y="222.1878766005524" width="6.3" height="4.975834797890997" fill="#44aa44" opacity="0.8"/>
<rect x="438.5" y="309.90968221191014" width="6.3" height="20.090317788089845" fill="#44aa44" opacity="0.3"/>
<line x1="454.25" y1="219.34454243032891" x2="454.25" y2="232.73190748179772" stroke="#44aa44" stroke-width="1" opacity="0.8"/>
<rect x="449.0" y="226.03822495606332" width="6.3" height="4.324237383881467" fill="#44aa44" opacity="0.8"/>
<rect x="449.0" y="313.3405590796703" width="6.3" height="16.659440920329686" fill="#44aa44" opacity="0.3"/>
<line x1="464.75" y1="222.60252950037668" x2="464.75" y2="237.70774227968872" stroke="#ff4444" stroke-width="1" opacity="0.8"/>
<rect x="459.5" y="224.37961335676633" width="6.3" height="7.878405096660771" fill="#ff4444" opacity="0.8"/>
<rect x="459.5" y="311.7165455277132" width="6.3" height="18.28345447228679" fill="#ff4444" opacity="0.3"/>
<line x1="475.25" y1="206.84571930705502" x2="475.25" y2="227.63760042681398" stroke="#ff4444" stroke-width="1" opacity="0.8"/>
<rect x="470.0" y="209.51134509163953" width="6.3" height="18.12625533517445" fill="#ff4444" opacity="0.8"/>
<rect x="470.0" y="302.6827167542325" width="6.3" height="27.317283245767513" fill="#ff4444" opacity="0.3"/>
<line x1="485.75" y1="177.87925244790364" x2="485.75" y2="198.55266131056996" stroke="#ff4444" stroke-width="1" opacity="0.8"/>
<rect x="480.5" y="178.47161373336687" width="6.3" height="15.045976650765738" fill="#ff4444" opacity="0.8"/>
<rect x="480.5" y="301.6004516321859" width="6.3" height="28.399548367814056" fill="#ff4444" opacity="0.3"/>
<line x1="496.25" y1="181.37418403213664" x2="496.25" y2="199.91509226713535" stroke="#ff4444" stroke-width="1" opacity="0.8"/>
<rect x="491.0" y="184.92835174491594" width="6.3" height="1.7770838563896518" fill="#ff4444" opacity="0.8"/>
<rect x="491.0" y="306.5493400276556" width="6.3" height="23.450659972344386" fill="#ff4444" opacity="0.3"/>
<line x1="506.75" y1="149.50514687421548" x2="506.75" y2="186.409254958574" stroke="#ff4444" stroke-width="1" opacity="0.8"/>
<rect x="501.5" y="149.50514687421548" width="6.3" height="36.01556615616366" fill="#ff4444" opacity="0.8"/>
<rect x="501.5" y="303.92699680142783" width="6.3" height="26.073003198572174" fill="#ff4444" opacity="0.3"/>
<line x1="517.25" y1="122.73041677127802" x2="517.25" y2="148.02424366055743" stroke="#ff4444" stroke-width="1" opacity="0.8"/>
<rect x="512.0" y="127.35083479789112" width="6.3" height="16.289935350238537" fill="#ff4444" opacity="0.8"/>
<rect x="512.0" y="295.0" width="6.3" height="35.0" fill="#ff4444" opacity="0.3"/>
<line x1="527.75" y1="116.80680391664583" x2="527.75" y2="144.94396497614872" stroke="#ff4444" stroke-width="1" opacity="0.8"/>
<rect x="522.5" y="127.23236254079843" width="6.3" height="9.12236379613357" fill="#ff4444" opacity="0.8"/>
<rect x="522.5" y="301.6861579510115" width="6.3" height="28.313842048988484" fill="#ff4444" opacity="0.3"/>
<line x1="538.25" y1="97.91047891036918" x2="538.25" y2="131.02347476776305" stroke="#ff4444" stroke-width="1" opacity="0.8"/>
<rect x="533.0" y="116.33291488827527" width="6.3" height="10.899447652523165" fill="#ff4444" opacity="0.8"/>
<rect x="533.0" y="298.0625949531201" width="6.3" height="31.93740504687991" fill="#ff4444" opacity="0.3"/>
<line x1="548.75" y1="115.0297200602562" x2="548.75" y2="138.2502824504143" stroke="#44aa44" stroke-width="1" opacity="0.8"/>
<rect x="543.5" y="124.50750062766767" width="6.3" height="10.129377981421015" fill="#44aa44" opacity="0.8"/>
<rect x="543.5" y="307.39732089381494" width="6.3" height="22.60267910618505" fill="#44aa44" opacity="0.3"/>
<line x1="559.25" y1="135.17000376600558" x2="559.25" y2="152.05230040170733" stroke="#ff4444" stroke-width="1" opacity="0.8"/>
<rect x="554.0" y="140.02736630680403" width="6.3" height="2.2509728847601878" fill="#ff4444" opacity="0.8"/>
<rect x="554.0" y="314.15832211455574" width="6.3" height="15.841677885444252" fill="#ff4444" opacity="0.3"/>
<line x1="569.75" y1="136.354726336932" x2="569.75" y2="164.19570675370332" stroke="#44aa44" stroke-width="1" opacity="0.8"/>
<rect x="564.5" y="138.13181019332166" width="6.3" height="11.847225709264364" fill="#44aa44" opacity="0.8"/>
<rect x="564.5" y="309.4004538096378" width="6.3" height="20.599546190362204" fill="#44aa44" opacity="0.3"/>
<line x1="580.25" y1="111.06089944765262" x2="580.25" y2="139.3165327642481" stroke="#ff4444" stroke-width="1" opacity="0.8"/>
<rect x="575.0" y="113.84499748932974" width="6.3" height="25.471535274918367" fill="#ff4444" opacity="0.8"/>
<rect x="575.0" y="305.478562463549" width="6.3" height="24.521437536451014" fill="#ff4444" opacity="0.3"/>
<line x1="590.75" y1="85.2339474014563" x2="590.75" y2="113.84499748932974" stroke="#ff4444" stroke-width="1" opacity="0.8"/>
<rect x="585.5" y="89.20276801405987" width="6.3" height="8.352294125031364" fill="#ff4444" opacity="0.8"/>
<rect x="585.5" y="305.5661464048847" width="6.3" height="24.43385359511527" fill="#ff4444" opacity="0.3"/>
<line x1="601.25" y1="68.29241463720825" x2="601.25" y2="99.33214599548087" stroke="#ff4444" stroke-width="1" opacity="0.8"/>
<rect x="596.0" y="81.44283517449169" width="6.3" height="17.88931082098918" fill="#ff4444" opacity="0.8"/>
<rect x="596.0" y="309.09741226926167" width="6.3" height="20.902587730738308" fill="#ff4444" opacity="0.3"/>
<line x1="611.75" y1="65.86373336680899" x2="611.75" y2="101.8200633944264" stroke="#44aa44" stroke-width="1" opacity="0.8"/>
<rect x="606.5" y="69.41790107958835" width="6.3" height="25.53077140346474" fill="#44aa44" opacity="0.8"/>
<rect x="606.5" y="299.42132805385006" width="6.3" height="30.578671946149925" fill="#44aa44" opacity="0.3"/>
<line x1="622.25" y1="74.15679136329408" x2="622.25" y2="96.90346472508169" stroke="#44aa44" stroke-width="1" opacity="0.8"/>
<rect x="617.0" y="91.92762992719064" width="6.3" height="2.369445141852907" fill="#44aa44" opacity="0.8"/>
<rect x="617.0" y="307.3438169082333" width="6.3" height="22.656183091766735" fill="#44aa44" opacity="0.3"/>
<line x1="632.75" y1="83.04221064524236" x2="632.75" y2="104.7818698217425" stroke="#ff4444" stroke-width="1" opacity="0.8"/>
<rect x="627.5" y="92.34228282701486" width="6.3" height="12.380350866181288" fill="#ff4444" opacity="0.8"/>
<rect x="627.5" y="310.5014864528301" width="6.3" height="19.49851354716993" fill="#ff4444" opacity="0.3"/>
<line x1="643.25" y1="81.85748807431591" x2="643.25" y2="102.70860532262117" stroke="#44aa44" stroke-width="1" opacity="0.8"/>
<rect x="638.0" y="83.75304418779825" width="6.3" height="17.060005021340658" fill="#44aa44" opacity="0.8"/>
<rect x="638.0" y="311.6837582374258" width="6.3" height="18.316241762574204" fill="#44aa44" opacity="0.3"/>
<line x1="653.75" y1="97.79200665327647" x2="653.75" y2="136.532434722571" stroke="#44aa44" stroke-width="1" opacity="0.8"/>
<rect x="648.5" y="100.93152146623154" width="6.3" height="24.760701732362563" fill="#44aa44" opacity="0.8"/>
<rect x="648.5" y="309.72785503489587" width="6.3" height="20.27214496510412" fill="#44aa44" opacity="0.3"/>
<line x1="664.25" y1="107.03284270650269" x2="664.25" y2="130.3718773537535" stroke="#ff4444" stroke-width="1" opacity="0.8"/>
<rect x="659.0" y="113.84499748932974" width="6.3" height="16.526879864423748" fill="#ff4444" opacity="0.8"/>
<rect x="659.0" y="313.4665055791151" width="6.3" height="16.53349442088488" fill="#ff4444" opacity="0.3"/>
<line x1="674.75" y1="88.31422608586502" x2="674.75" y2="145.12167336178769" stroke="#ff4444" stroke-width="1" opacity="0.8"/>
<rect x="669.5" y="92.1053383128296" width="6.3" height="30.03271717298516" fill="#ff4444" opacity="0.8"/>
<rect x="669.5" y="305.14594193667017" width="6.3" height="24.854058063329852" fill="#ff4444" opacity="0.3"/>
<rect x="177.25" y="276.9501161185037" width="8" height="8" fill="#ff9800" opacity="0.85"/>
<text x="181.25" y="273.9501161185037" text-anchor="middle" font-size="8" font-weight="bold" fill="#ff9800">前低</text>
<rect x="198.25" y="213.50822244539296" width="8" height="8" fill="#ff9800" opacity="0.85"/>
<text x="202.25" y="210.50822244539296" text-anchor="middle" font-size="8" font-weight="bold" fill="#ff9800">前高</text>
<rect x="282.25" y="292.7661624403716" width="8" height="8" fill="#ff9800" opacity="0.85"/>
<text x="286.25" y="289.7661624403716" text-anchor="middle" font-size="8" font-weight="bold" fill="#ff9800">前低</text>
<rect x="387.25" y="170.85820989204123" width="8" height="8" fill="#ff9800" opacity="0.85"/>
<text x="391.25" y="167.85820989204123" text-anchor="middle" font-size="8" font-weight="bold" fill="#ff9800">前高</text>
<rect x="460.75" y="233.70774227968872" width="8" height="8" fill="#ff9800" opacity="0.85"/>
<text x="464.75" y="230.70774227968872" text-anchor="middle" font-size="8" font-weight="bold" fill="#ff9800">前低</text>
<rect x="460.75" y="220.37961335676633" width="8" height="8" fill="#2196f3" opacity="0.85"/>
<text x="464.75" y="217.37961335676633" text-anchor="middle" font-size="8" font-weight="bold" fill="#2196f3">中</text>
<rect x="534.25" y="93.91047891036918" width="8" height="8" fill="#ff9800" opacity="0.85"/>
<text x="538.25" y="90.91047891036918" text-anchor="middle" font-size="8" font-weight="bold" fill="#ff9800">前高</text>
<rect x="565.75" y="160.19570675370332" width="8" height="8" fill="#ff9800" opacity="0.85"/>
<text x="569.75" y="157.19570675370332" text-anchor="middle" font-size="8" font-weight="bold" fill="#ff9800">前低</text>
<rect x="607.75" y="61.86373336680899" width="8" height="8" fill="#ff9800" opacity="0.85"/>
<text x="611.75" y="58.86373336680899" text-anchor="middle" font-size="8" font-weight="bold" fill="#ff9800">前高</text>
<rect x="628.75" y="88.34228282701486" width="8" height="8" fill="#2196f3" opacity="0.85"/>
<text x="632.75" y="85.34228282701486" text-anchor="middle" font-size="8" font-weight="bold" fill="#2196f3">中</text>
<rect x="660.25" y="109.84499748932974" width="8" height="8" fill="#2196f3" opacity="0.85"/>
<text x="664.25" y="106.84499748932974" text-anchor="middle" font-size="8" font-weight="bold" fill="#2196f3">中</text>
<line x1="674.75" y1="92.1053383128296" x2="674.75" y2="42" stroke="#4caf50" stroke-width="1" stroke-dasharray="3,2"/>
<rect x="654.75" y="28" width="40" height="14" rx="3" fill="#2563eb" opacity="0.9"/>
<text x="674.75" y="38" text-anchor="middle" font-size="9" font-weight="bold" fill="white">关注</text>
<text x="55.25" y="355" fill="#666666" font-size="8" text-anchor="middle" transform="rotate(-30,55.25,355)">02/11</text>
<text x="107.75" y="355" fill="#666666" font-size="8" text-anchor="middle" transform="rotate(-30,107.75,355)">02/26</text>
<text x="160.25" y="355" fill="#666666" font-size="8" text-anchor="middle" transform="rotate(-30,160.25,355)">03/05</text>
<text x="212.75" y="355" fill="#666666" font-size="8" text-anchor="middle" transform="rotate(-30,212.75,355)">03/12</text>
<text x="265.25" y="355" fill="#666666" font-size="8" text-anchor="middle" transform="rotate(-30,265.25,355)">03/19</text>
<text x="317.75" y="355" fill="#666666" font-size="8" text-anchor="middle" transform="rotate(-30,317.75,355)">03/26</text>
<text x="370.25" y="355" fill="#666666" font-size="8" text-anchor="middle" transform="rotate(-30,370.25,355)">04/02</text>
<text x="422.75" y="355" fill="#666666" font-size="8" text-anchor="middle" transform="rotate(-30,422.75,355)">04/10</text>
<text x="475.25" y="355" fill="#666666" font-size="8" text-anchor="middle" transform="rotate(-30,475.25,355)">04/17</text>
<text x="527.75" y="355" fill="#666666" font-size="8" text-anchor="middle" transform="rotate(-30,527.75,355)">04/24</text>
<text x="580.25" y="355" fill="#666666" font-size="8" text-anchor="middle" transform="rotate(-30,580.25,355)">05/06</text>
<text x="632.75" y="355" fill="#666666" font-size="8" text-anchor="middle" transform="rotate(-30,632.75,355)">05/13</text>
<text x="674.75" y="355" fill="#666666" font-size="8" text-anchor="middle" transform="rotate(-30,674.75,355)">05/19</text>
<rect x="50" y="334" width="7" height="7" fill="#ff9800" opacity="0.8" rx="1"/>
<text x="60" y="340" font-family="sans-serif" font-size="8" fill="#888888">第1类</text>
<rect x="120" y="334" width="7" height="7" fill="#2196f3" opacity="0.8" rx="1"/>
<text x="130" y="340" font-family="sans-serif" font-size="8" fill="#888888">第2类</text>
<rect x="190" y="334" width="7" height="7" fill="#ffd700" opacity="0.8" rx="1"/>
<text x="200" y="340" font-family="sans-serif" font-size="8" fill="#888888">EMA5</text>
<rect x="260" y="334" width="7" height="7" fill="#ff6b6b" opacity="0.8" rx="1"/>
<text x="270" y="340" font-family="sans-serif" font-size="8" fill="#888888">EMA10</text>
<rect x="330" y="334" width="7" height="7" fill="#4ecdc4" opacity="0.8" rx="1"/>
<text x="340" y="340" font-family="sans-serif" font-size="8" fill="#888888">EMA20</text>
</svg>