<svg xmlns="http://www.w3.org/2000/svg" width="700" height="380" viewBox="0 0 700 380">
<rect width="700" height="380" fill="#1a1a2e"/>
<text x="350.0" y="20" text-anchor="middle" font-family="sans-serif" font-size="14" font-weight="bold" fill="#ffffff">航天电子(600879)</text>
<line x1="50" y1="27.947450843918688" x2="680" y2="27.947450843918688" stroke="#2a2a4e" stroke-width="0.5"/>
<text x="46" y="30.947450843918688" text-anchor="end" font-size="9" fill="#666666">30.08</text>
<line x1="50" y1="128.5790847398643" x2="680" y2="128.5790847398643" stroke="#2a2a4e" stroke-width="0.5"/>
<text x="46" y="131.5790847398643" text-anchor="end" font-size="9" fill="#666666">26.25</text>
<line x1="50" y1="229.21071863580997" x2="680" y2="229.21071863580997" stroke="#2a2a4e" stroke-width="0.5"/>
<text x="46" y="232.21071863580997" text-anchor="end" font-size="9" fill="#666666">22.42</text>
<line x1="50" y1="330.1050983121629" x2="680" y2="330.1050983121629" stroke="#2a2a4e" stroke-width="0.5"/>
<text x="46" y="333.1050983121629" text-anchor="end" font-size="9" fill="#666666">18.58</text>
<polyline points="55.25,164.04976509483217 65.75,170.09291804419706 76.25,176.31123484716665 86.75,179.58096011445593 97.25,168.53590601215456 107.75,157.93200531893189 118.25,152.08888516535023 128.75,136.98298509892328 139.25,147.23139207279303 149.75,149.59698512178431 160.25,143.0289279618229 170.75,139.17571474932964 181.25,135.73108667297697 191.75,131.24511978534872 202.25,133.50939080173998 212.75,142.90127822488256 223.25,163.78871828297667 233.75,183.14375778345416 244.25,204.2798185698638 254.75,208.4737680321336 265.25,215.91157646084008 275.75,227.43875992349032 286.25,240.641210287141 296.75,248.2166968876746 307.25,250.81472733756345 317.75,253.33498497871088 328.25,255.80339408069736 338.75,251.84375683333542 349.25,245.87588544993665 359.75,246.18881894098791 370.25,252.52817614452263 380.75,260.9583467667272 391.25,268.41768097771376 401.75,263.40623079623236 412.25,259.53977244776377 422.75,258.97651786523966 433.25,258.07552324940923 443.75,247.66568437032126 454.25,234.6826388348978 464.75,226.37760285182506 475.25,218.5637820995811 485.75,194.87478170944757 496.25,179.16969670949427 506.75,171.41467977373284 517.25,167.90872509247055 527.75,177.83289172396366 538.25,186.4633871280806 548.75,201.41315304507617 559.25,204.9861829998321 569.75,199.48582955745434 580.25,185.309096046249 590.75,174.63179339687878 601.25,155.7776134391117 611.75,142.0695950855026 622.25,139.58714262007817 632.75,138.72041165101672 643.25,154.17008360981305 653.75,172.9653118155091 664.25,181.729441100137 674.75,188.71075900498667" fill="none" stroke="#ffd700" stroke-width="1" opacity="0.6"/>
<polyline points="55.25,164.04976509483217 65.75,167.34603033994026 76.25,171.2372736332431 86.75,173.94329854520518 97.25,168.94375295654095 107.75,163.08565313398563 118.25,158.96146981111312 128.75,149.47232711201423 139.25,152.79157782265392 149.75,153.07095844031085 160.25,148.85675029514528 170.75,145.69539357318126 181.25,142.63110938174316 191.75,138.92966876871571 202.25,138.76753496249876 212.75,142.93435643680218 223.25,154.32149133904994 233.75,166.60009960184254 244.25,181.1367978819954 254.75,187.63222862284584 265.25,195.47858584019255 275.75,205.48122965993764 286.25,216.6748444516658 296.75,225.16444911295233 307.25,230.77287440829573 317.75,235.79153365424307 328.25,240.32765704159348 338.75,240.9816252774149 349.25,239.70135571481936 359.75,240.99468847995956 370.25,245.3969070384382 380.75,251.29177630620154 391.25,257.11806232319884 401.75,256.43902016139344 412.25,255.59680845038127 422.75,256.006481223074 433.25,256.0550362766512 443.75,250.74430361037741 454.25,243.10289345649988 464.75,237.04191844362342 475.25,230.84086792570878 485.75,215.68739756270358 496.25,203.3368755894098 506.75,194.71283382810074 517.25,188.5644669011635 527.75,190.22205928039733 538.25,192.67702630874595 548.75,199.70169150334982 559.25,201.9617917589851 569.75,199.51148828875128 580.25,191.77405933149444 590.75,184.774628198157 601.25,172.64637825732441 611.75,162.10222918840805 622.25,157.1058670976483 632.75,153.44788211860197 643.25,159.19725401111174 653.75,168.5351656867098 664.25,174.1210809562885 674.75,179.31241074872443" fill="none" stroke="#ff6b6b" stroke-width="1" opacity="0.6"/>
<polyline points="55.25,164.04976509483217 65.75,165.77638022322213 76.25,167.9641410070206 86.75,169.69330954435526 97.25,167.47926080751685 107.75,164.55020777179968 118.25,162.25043987526513 128.75,156.9667013124846 139.25,157.99160652277484 149.75,157.64270792248834 160.25,154.99986084814665 170.75,152.7588539411178 181.25,150.48104218675147 191.75,147.79457969373624 202.25,146.86537523095402 212.75,148.27677312049818 223.25,153.73266124227592 233.75,160.22039224628864 244.25,168.44244442689762 254.75,173.05379895354295 265.25,178.55221746446773 275.75,185.40373264392707 286.25,193.1791972506428 296.75,199.8638137114141 307.25,205.21114461864525 317.75,210.27441658458437 328.25,215.08068284173538 338.75,217.82771136524738 349.25,219.36222863361803 359.75,221.97674837547248 370.25,226.09390477319823 380.75,231.0200746053828 391.25,236.0025769667451 401.75,237.65788682069984 412.25,239.00540767118812 422.75,240.80013157871224 433.25,242.27378895385854 443.75,240.8044763498859 454.25,237.748483151235 464.75,235.08363055451545 475.25,232.02196484409424 485.75,223.97194732838824 496.25,216.7136215551691 506.75,210.92229054060152 517.25,206.15795960625343 527.75,205.35065154727212 538.25,205.1957683462285 548.75,207.68309373030843 559.25,208.1068222235499 569.75,206.2380889329927 580.25,201.54452132259703 590.75,196.94763244407716 601.25,189.4354058802201 611.75,182.31332516574997 622.25,177.77131683465277 632.75,173.88709139448528 643.25,174.95207578809678 653.75,178.34290363941147 664.25,180.33478897560013 674.75,182.46227524598928" fill="none" stroke="#4ecdc4" stroke-width="1" opacity="0.6"/>
<line x1="55.25" y1="143.29284844266573" x2="55.25" y2="167.46546024012534" stroke="#44aa44" stroke-width="1" opacity="0.8"/>
<rect x="50.0" y="158.7948494866887" width="6.3" height="5.254915608143477" fill="#44aa44" opacity="0.8"/>
<rect x="50.0" y="310.50936535399967" width="6.3" height="19.490634646000302" fill="#44aa44" opacity="0.3"/>
<line x1="65.75" y1="168.25369758134687" x2="65.75" y2="184.28119018618418" stroke="#44aa44" stroke-width="1" opacity="0.8"/>
<rect x="60.5" y="168.25369758134687" width="6.3" height="13.92552636157987" fill="#44aa44" opacity="0.8"/>
<rect x="60.5" y="310.33685530265495" width="6.3" height="19.663144697345018" fill="#44aa44" opacity="0.3"/>
<line x1="76.25" y1="174.82234209152608" x2="76.25" y2="188.74786845310598" stroke="#44aa44" stroke-width="1" opacity="0.8"/>
<rect x="71.0" y="182.17922394292674" width="6.3" height="6.56864451017924" fill="#44aa44" opacity="0.8"/>
<rect x="71.0" y="317.4672062930761" width="6.3" height="12.532793706923867" fill="#44aa44" opacity="0.3"/>
<line x1="86.75" y1="177.1870541151906" x2="86.75" y2="190.32434313554904" stroke="#44aa44" stroke-width="1" opacity="0.8"/>
<rect x="81.5" y="185.3321733078128" width="6.3" height="1" fill="#44aa44" opacity="0.8"/>
<rect x="81.5" y="317.0821370848471" width="6.3" height="12.917862915152936" fill="#44aa44" opacity="0.3"/>
<line x1="97.25" y1="138.82617017574393" x2="97.25" y2="190.32434313554904" stroke="#ff4444" stroke-width="1" opacity="0.8"/>
<rect x="92.0" y="146.4457978075518" width="6.3" height="34.68244301374631" fill="#ff4444" opacity="0.8"/>
<rect x="92.0" y="300.77204488071993" width="6.3" height="29.227955119280043" fill="#ff4444" opacity="0.3"/>
<line x1="107.75" y1="129.3673220810859" x2="107.75" y2="163.78701931442495" stroke="#ff4444" stroke-width="1" opacity="0.8"/>
<rect x="102.5" y="136.72420393248655" width="6.3" height="19.705933530537635" fill="#ff4444" opacity="0.8"/>
<rect x="102.5" y="302.7155359056249" width="6.3" height="27.28446409437509" fill="#ff4444" opacity="0.3"/>
<line x1="118.25" y1="125.9516269357926" x2="118.25" y2="144.60657734470163" stroke="#44aa44" stroke-width="1" opacity="0.8"/>
<rect x="113.0" y="136.72420393248655" width="6.3" height="3.6784409257003574" fill="#44aa44" opacity="0.8"/>
<rect x="113.0" y="307.45476269052597" width="6.3" height="22.545237309474008" fill="#44aa44" opacity="0.3"/>
<line x1="128.75" y1="86.53975987471726" x2="128.75" y2="134.88498346963632" stroke="#ff4444" stroke-width="1" opacity="0.8"/>
<rect x="123.5" y="106.77118496606936" width="6.3" height="23.12162867583085" fill="#ff4444" opacity="0.8"/>
<rect x="123.5" y="295.0" width="6.3" height="35.0" fill="#ff4444" opacity="0.3"/>
<line x1="139.25" y1="105.19471028362628" x2="139.25" y2="167.99095180093965" stroke="#44aa44" stroke-width="1" opacity="0.8"/>
<rect x="134.0" y="105.45745606403348" width="6.3" height="62.27074995649896" fill="#44aa44" opacity="0.8"/>
<rect x="134.0" y="303.1739820306016" width="6.3" height="26.826017969398368" fill="#44aa44" opacity="0.3"/>
<line x1="149.75" y1="143.8183400034801" x2="149.75" y2="190.32434313554904" stroke="#ff4444" stroke-width="1" opacity="0.8"/>
<rect x="144.5" y="154.3281712197669" width="6.3" height="33.63145989211765" fill="#ff4444" opacity="0.8"/>
<rect x="144.5" y="314.23437473497796" width="6.3" height="15.765625265022024" fill="#ff4444" opacity="0.3"/>
<line x1="160.25" y1="123.8496606925353" x2="160.25" y2="147.75952670958765" stroke="#ff4444" stroke-width="1" opacity="0.8"/>
<rect x="155.0" y="129.8928136419002" width="6.3" height="13.925526361579898" fill="#ff4444" opacity="0.8"/>
<rect x="155.0" y="306.54640185249855" width="6.3" height="23.453598147501474" fill="#ff4444" opacity="0.3"/>
<line x1="170.75" y1="113.33982947624857" x2="170.75" y2="144.34383156429448" stroke="#ff4444" stroke-width="1" opacity="0.8"/>
<rect x="165.5" y="131.46928832434315" width="6.3" height="3.678440925700386" fill="#ff4444" opacity="0.8"/>
<rect x="165.5" y="309.4147316515129" width="6.3" height="20.585268348487094" fill="#ff4444" opacity="0.3"/>
<line x1="181.25" y1="124.90064381416394" x2="181.25" y2="148.8105098312163" stroke="#ff4444" stroke-width="1" opacity="0.8"/>
<rect x="176.0" y="128.84183052027151" width="6.3" height="17.078475726465967" fill="#ff4444" opacity="0.8"/>
<rect x="176.0" y="311.5802831075388" width="6.3" height="18.41971689246121" fill="#ff4444" opacity="0.3"/>
<line x1="191.75" y1="110.18688011136253" x2="191.75" y2="129.8928136419002" stroke="#ff4444" stroke-width="1" opacity="0.8"/>
<rect x="186.5" y="122.27318601009232" width="6.3" height="1.8392204628500934" fill="#ff4444" opacity="0.8"/>
<rect x="186.5" y="312.1470630769909" width="6.3" height="17.852936923009082" fill="#ff4444" opacity="0.3"/>
<line x1="202.25" y1="119.9084739864278" x2="202.25" y2="141.19088219940843" stroke="#44aa44" stroke-width="1" opacity="0.8"/>
<rect x="197.0" y="122.0104402296851" width="6.3" height="16.027492604837292" fill="#44aa44" opacity="0.8"/>
<rect x="197.0" y="315.31866327510113" width="6.3" height="14.681336724898845" fill="#44aa44" opacity="0.3"/>
<line x1="212.75" y1="140.4026448581869" x2="212.75" y2="163.52427353401774" stroke="#44aa44" stroke-width="1" opacity="0.8"/>
<rect x="207.5" y="141.19088219940843" width="6.3" height="20.494170871759195" fill="#44aa44" opacity="0.8"/>
<rect x="207.5" y="316.38627823984626" width="6.3" height="13.613721760153727" fill="#44aa44" opacity="0.3"/>
<line x1="223.25" y1="162.4732904123891" x2="223.25" y2="214.49695493300854" stroke="#44aa44" stroke-width="1" opacity="0.8"/>
<rect x="218.0" y="169.3046807029755" width="6.3" height="36.258917696189286" fill="#44aa44" opacity="0.8"/>
<rect x="218.0" y="305.60852907774785" width="6.3" height="24.391470922252157" fill="#44aa44" opacity="0.3"/>
<line x1="233.75" y1="208.19105620323654" x2="233.75" y2="234.46563424395342" stroke="#44aa44" stroke-width="1" opacity="0.8"/>
<rect x="228.5" y="214.49695493300854" width="6.3" height="7.356881851400743" fill="#44aa44" opacity="0.8"/>
<rect x="228.5" y="314.6264538348837" width="6.3" height="15.37354616511628" fill="#44aa44" opacity="0.3"/>
<line x1="244.25" y1="213.4459718113799" x2="244.25" y2="247.34017748390465" stroke="#44aa44" stroke-width="1" opacity="0.8"/>
<rect x="239.0" y="216.33617539585873" width="6.3" height="30.215764746824362" fill="#44aa44" opacity="0.8"/>
<rect x="239.0" y="315.4893716498698" width="6.3" height="14.510628350130238" fill="#44aa44" opacity="0.3"/>
<line x1="254.75" y1="213.4459718113799" x2="254.75" y2="247.86566904471897" stroke="#ff4444" stroke-width="1" opacity="0.8"/>
<rect x="249.5" y="216.86166695667305" width="6.3" height="25.486340699495372" fill="#ff4444" opacity="0.8"/>
<rect x="249.5" y="307.5816924187225" width="6.3" height="22.41830758127748" fill="#ff4444" opacity="0.3"/>
<line x1="265.25" y1="216.86166695667305" x2="265.25" y2="235.51661736558205" stroke="#ff4444" stroke-width="1" opacity="0.8"/>
<rect x="260.0" y="230.78719331825303" width="6.3" height="1" fill="#ff4444" opacity="0.8"/>
<rect x="260.0" y="316.6086640241385" width="6.3" height="13.391335975861509" fill="#ff4444" opacity="0.3"/>
<line x1="275.75" y1="225.26953192970248" x2="275.75" y2="250.49312684879072" stroke="#44aa44" stroke-width="1" opacity="0.8"/>
<rect x="270.5" y="227.634243953367" width="6.3" height="22.858882895423733" fill="#44aa44" opacity="0.8"/>
<rect x="270.5" y="319.38520480181535" width="6.3" height="10.614795198184666" fill="#44aa44" opacity="0.3"/>
<line x1="286.25" y1="240.7715329737254" x2="286.25" y2="273.6147555246215" stroke="#44aa44" stroke-width="1" opacity="0.8"/>
<rect x="281.0" y="266.520619453628" width="6.3" height="1" fill="#44aa44" opacity="0.8"/>
<rect x="281.0" y="314.7971467166442" width="6.3" height="15.20285328335583" fill="#44aa44" opacity="0.3"/>
<line x1="296.75" y1="254.6970593353054" x2="296.75" y2="282.2853662780582" stroke="#44aa44" stroke-width="1" opacity="0.8"/>
<rect x="291.5" y="256.0107882373413" width="6.3" height="7.356881851400715" fill="#44aa44" opacity="0.8"/>
<rect x="291.5" y="317.2262495207242" width="6.3" height="12.773750479275826" fill="#44aa44" opacity="0.3"/>
<line x1="307.25" y1="247.86566904471897" x2="307.25" y2="261.2657038454846" stroke="#ff4444" stroke-width="1" opacity="0.8"/>
<rect x="302.0" y="256.0107882373413" width="6.3" height="1" fill="#ff4444" opacity="0.8"/>
<rect x="302.0" y="319.42668952154526" width="6.3" height="10.573310478454742" fill="#ff4444" opacity="0.3"/>
<line x1="317.75" y1="243.39899077779717" x2="317.75" y2="265.9951278928137" stroke="#44aa44" stroke-width="1" opacity="0.8"/>
<rect x="312.5" y="245.76370280146168" width="6.3" height="12.611797459544078" fill="#44aa44" opacity="0.8"/>
<rect x="312.5" y="316.8492439424231" width="6.3" height="13.150756057576915" fill="#44aa44" opacity="0.3"/>
<line x1="328.25" y1="256.0107882373413" x2="328.25" y2="271.77553506177134" stroke="#ff4444" stroke-width="1" opacity="0.8"/>
<rect x="323.0" y="260.7402122846703" width="6.3" height="5.780407168957709" fill="#ff4444" opacity="0.8"/>
<rect x="323.0" y="320.60109479976006" width="6.3" height="9.398905200239941" fill="#ff4444" opacity="0.3"/>
<line x1="338.75" y1="240.7715329737254" x2="338.75" y2="270.4618061597355" stroke="#ff4444" stroke-width="1" opacity="0.8"/>
<rect x="333.5" y="243.92448233861148" width="6.3" height="26.537323821124005" fill="#ff4444" opacity="0.8"/>
<rect x="333.5" y="314.86602018988987" width="6.3" height="15.13397981011012" fill="#ff4444" opacity="0.3"/>
<line x1="349.25" y1="209.24203932486517" x2="349.25" y2="243.13624499738995" stroke="#ff4444" stroke-width="1" opacity="0.8"/>
<rect x="344.0" y="233.9401426831391" width="6.3" height="8.40786497302932" fill="#ff4444" opacity="0.8"/>
<rect x="344.0" y="305.28407920226033" width="6.3" height="24.71592079773966" fill="#ff4444" opacity="0.3"/>
<line x1="359.75" y1="222.90481990603797" x2="359.75" y2="252.8578388724552" stroke="#44aa44" stroke-width="1" opacity="0.8"/>
<rect x="354.5" y="223.16756568644516" width="6.3" height="23.64712023664518" fill="#44aa44" opacity="0.8"/>
<rect x="354.5" y="313.56303020966243" width="6.3" height="16.436969790337564" fill="#44aa44" opacity="0.3"/>
<line x1="370.25" y1="238.66956673046812" x2="370.25" y2="268.35983991647817" stroke="#44aa44" stroke-width="1" opacity="0.8"/>
<rect x="365.0" y="251.28136419001223" width="6.3" height="13.92552636157987" fill="#44aa44" opacity="0.8"/>
<rect x="365.0" y="319.1039877916195" width="6.3" height="10.896012208380526" fill="#44aa44" opacity="0.3"/>
<line x1="380.75" y1="256.0107882373413" x2="380.75" y2="282.2853662780582" stroke="#44aa44" stroke-width="1" opacity="0.8"/>
<rect x="375.5" y="257.324517139377" width="6.3" height="20.494170871759252" fill="#44aa44" opacity="0.8"/>
<rect x="375.5" y="320.3120190947372" width="6.3" height="9.687980905262787" fill="#44aa44" opacity="0.3"/>
<line x1="391.25" y1="269.1480772576997" x2="391.25" y2="287.5402818862015" stroke="#44aa44" stroke-width="1" opacity="0.8"/>
<rect x="386.0" y="269.41082303810686" width="6.3" height="13.925526361579955" fill="#44aa44" opacity="0.8"/>
<rect x="386.0" y="322.06854957931733" width="6.3" height="7.931450420682643" fill="#44aa44" opacity="0.3"/>
<line x1="401.75" y1="253.38333043326955" x2="401.75" y2="274.1402470854358" stroke="#ff4444" stroke-width="1" opacity="0.8"/>
<rect x="396.5" y="253.38333043326955" width="6.3" height="20.756916652166268" fill="#ff4444" opacity="0.8"/>
<rect x="396.5" y="315.72502137241395" width="6.3" height="14.274978627586048" fill="#ff4444" opacity="0.3"/>
<line x1="412.25" y1="237.8813293892466" x2="412.25" y2="265.2068905515921" stroke="#ff4444" stroke-width="1" opacity="0.8"/>
<rect x="407.0" y="251.80685575082654" width="6.3" height="7.094136070993528" fill="#ff4444" opacity="0.8"/>
<rect x="407.0" y="315.85800031893314" width="6.3" height="14.141999681066887" fill="#ff4444" opacity="0.3"/>
<line x1="422.75" y1="241.29702453453973" x2="422.75" y2="258.1127544805986" stroke="#44aa44" stroke-width="1" opacity="0.8"/>
<rect x="417.5" y="245.76370280146168" width="6.3" height="12.086305898729762" fill="#44aa44" opacity="0.8"/>
<rect x="417.5" y="319.326174517469" width="6.3" height="10.673825482531036" fill="#44aa44" opacity="0.3"/>
<line x1="433.25" y1="249.44214372716203" x2="433.25" y2="261.00295806507745" stroke="#ff4444" stroke-width="1" opacity="0.8"/>
<rect x="428.0" y="256.2735340177484" width="6.3" height="4.466678266921917" fill="#ff4444" opacity="0.8"/>
<rect x="428.0" y="322.05094984259654" width="6.3" height="7.949050157403468" fill="#ff4444" opacity="0.3"/>
<line x1="443.75" y1="223.4303114668523" x2="443.75" y2="258.6382460414129" stroke="#ff4444" stroke-width="1" opacity="0.8"/>
<rect x="438.5" y="226.84600661214546" width="6.3" height="25.223594919088214" fill="#ff4444" opacity="0.8"/>
<rect x="438.5" y="307.7251896219033" width="6.3" height="22.27481037809668" fill="#ff4444" opacity="0.3"/>
<line x1="454.25" y1="191.90081781799205" x2="454.25" y2="220.27736210196622" stroke="#ff4444" stroke-width="1" opacity="0.8"/>
<rect x="449.0" y="208.71654776405086" width="6.3" height="11.298068557508259" fill="#ff4444" opacity="0.8"/>
<rect x="449.0" y="303.66688887965176" width="6.3" height="26.333111120348235" fill="#ff4444" opacity="0.3"/>
<line x1="464.75" y1="200.83417435183577" x2="464.75" y2="223.69305724725947" stroke="#44aa44" stroke-width="1" opacity="0.8"/>
<rect x="459.5" y="208.45380198364364" width="6.3" height="1.313728902035848" fill="#44aa44" opacity="0.8"/>
<rect x="459.5" y="313.531259712895" width="6.3" height="16.46874028710501" fill="#44aa44" opacity="0.3"/>
<line x1="475.25" y1="198.9949538889856" x2="475.25" y2="215.2851922742301" stroke="#ff4444" stroke-width="1" opacity="0.8"/>
<rect x="470.0" y="202.9361405950931" width="6.3" height="10.509831216286813" fill="#ff4444" opacity="0.8"/>
<rect x="470.0" y="316.2975061880143" width="6.3" height="13.702493811985693" fill="#ff4444" opacity="0.3"/>
<line x1="485.75" y1="144.08108578388726" x2="485.75" y2="201.09692013224299" stroke="#ff4444" stroke-width="1" opacity="0.8"/>
<rect x="480.5" y="147.49678092918046" width="6.3" height="53.600139203062525" fill="#ff4444" opacity="0.8"/>
<rect x="480.5" y="297.40800613514574" width="6.3" height="32.59199386485425" fill="#ff4444" opacity="0.3"/>
<line x1="496.25" y1="135.41047503045075" x2="496.25" y2="161.15956151035323" stroke="#44aa44" stroke-width="1" opacity="0.8"/>
<rect x="491.0" y="147.23403514877333" width="6.3" height="1" fill="#44aa44" opacity="0.8"/>
<rect x="491.0" y="302.4092169099172" width="6.3" height="27.590783090082827" fill="#44aa44" opacity="0.3"/>
<line x1="506.75" y1="152.7516965373239" x2="506.75" y2="171.66939272664004" stroke="#ff4444" stroke-width="1" opacity="0.8"/>
<rect x="501.5" y="155.90464590220986" width="6.3" height="13.662780581172768" fill="#ff4444" opacity="0.8"/>
<rect x="501.5" y="311.00097046981966" width="6.3" height="18.999029530180316" fill="#ff4444" opacity="0.3"/>
<line x1="517.25" y1="136.98694971289376" x2="517.25" y2="171.93213850704717" stroke="#44aa44" stroke-width="1" opacity="0.8"/>
<rect x="512.0" y="158.7948494866887" width="6.3" height="2.101966243257408" fill="#44aa44" opacity="0.8"/>
<rect x="512.0" y="306.62372766990444" width="6.3" height="23.37627233009555" fill="#44aa44" opacity="0.3"/>
<line x1="527.75" y1="165.36349399686793" x2="527.75" y2="198.20671654776405" stroke="#44aa44" stroke-width="1" opacity="0.8"/>
<rect x="522.5" y="165.36349399686793" width="6.3" height="32.3177309900818" fill="#44aa44" opacity="0.8"/>
<rect x="522.5" y="310.3914375977838" width="6.3" height="19.608562402216222" fill="#44aa44" opacity="0.3"/>
<line x1="538.25" y1="191.1125804767705" x2="538.25" y2="215.54793805463717" stroke="#44aa44" stroke-width="1" opacity="0.8"/>
<rect x="533.0" y="202.67339481468596" width="6.3" height="1.050983121628633" fill="#44aa44" opacity="0.8"/>
<rect x="533.0" y="314.02000823855593" width="6.3" height="15.979991761444088" fill="#44aa44" opacity="0.3"/>
<line x1="548.75" y1="200.83417435183577" x2="548.75" y2="233.15190534191754" stroke="#44aa44" stroke-width="1" opacity="0.8"/>
<rect x="543.5" y="203.4616321559075" width="6.3" height="27.851052723159853" fill="#44aa44" opacity="0.8"/>
<rect x="543.5" y="315.7438968782202" width="6.3" height="14.256103121779782" fill="#44aa44" opacity="0.3"/>
<line x1="559.25" y1="203.9871237167218" x2="559.25" y2="228.68522707499565" stroke="#ff4444" stroke-width="1" opacity="0.8"/>
<rect x="554.0" y="212.13224290934403" width="6.3" height="14.976509483208616" fill="#ff4444" opacity="0.8"/>
<rect x="554.0" y="317.8295955537857" width="6.3" height="12.170404446214313" fill="#ff4444" opacity="0.3"/>
<line x1="569.75" y1="185.59491908822" x2="569.75" y2="216.33617539585873" stroke="#ff4444" stroke-width="1" opacity="0.8"/>
<rect x="564.5" y="188.48512267269885" width="6.3" height="23.64712023664518" fill="#ff4444" opacity="0.8"/>
<rect x="564.5" y="312.86300139480426" width="6.3" height="17.136998605195767" fill="#ff4444" opacity="0.3"/>
<line x1="580.25" y1="148.285018270402" x2="580.25" y2="186.9086479902558" stroke="#ff4444" stroke-width="1" opacity="0.8"/>
<rect x="575.0" y="156.95562902383853" width="6.3" height="28.63929006438147" fill="#ff4444" opacity="0.8"/>
<rect x="575.0" y="308.9170449423257" width="6.3" height="21.082955057674347" fill="#ff4444" opacity="0.3"/>
<line x1="590.75" y1="151.17522185488082" x2="590.75" y2="164.57525665564648" stroke="#ff4444" stroke-width="1" opacity="0.8"/>
<rect x="585.5" y="153.27718809813825" width="6.3" height="1.5764746824429494" fill="#ff4444" opacity="0.8"/>
<rect x="585.5" y="312.5889758116013" width="6.3" height="17.41102418839869" fill="#ff4444" opacity="0.3"/>
<line x1="601.25" y1="109.6613885505482" x2="601.25" y2="164.57525665564648" stroke="#ff4444" stroke-width="1" opacity="0.8"/>
<rect x="596.0" y="118.0692535235776" width="6.3" height="40.72559596311109" fill="#ff4444" opacity="0.8"/>
<rect x="596.0" y="297.2612530495888" width="6.3" height="32.738746950411226" fill="#ff4444" opacity="0.3"/>
<line x1="611.75" y1="99.67704889507571" x2="611.75" y2="124.90064381416394" stroke="#44aa44" stroke-width="1" opacity="0.8"/>
<rect x="606.5" y="105.45745606403348" width="6.3" height="9.196102314250865" fill="#44aa44" opacity="0.8"/>
<rect x="606.5" y="300.86940005907064" width="6.3" height="29.130599940929358" fill="#44aa44" opacity="0.3"/>
<line x1="622.25" y1="114.65355837828434" x2="622.25" y2="140.13989907777977" stroke="#44aa44" stroke-width="1" opacity="0.8"/>
<rect x="617.0" y="114.65355837828434" width="6.3" height="19.96867931094488" fill="#44aa44" opacity="0.8"/>
<rect x="617.0" y="311.3937461140025" width="6.3" height="18.606253885997518" fill="#44aa44" opacity="0.3"/>
<line x1="632.75" y1="130.1555594223073" x2="632.75" y2="149.33600139203065" stroke="#ff4444" stroke-width="1" opacity="0.8"/>
<rect x="627.5" y="136.98694971289376" width="6.3" height="6.568644510179183" fill="#ff4444" opacity="0.8"/>
<rect x="627.5" y="314.1066858493818" width="6.3" height="15.89331415061822" fill="#ff4444" opacity="0.3"/>
<line x1="643.25" y1="135.41047503045075" x2="643.25" y2="186.38315642944147" stroke="#44aa44" stroke-width="1" opacity="0.8"/>
<rect x="638.0" y="136.72420393248655" width="6.3" height="48.34522359491905" fill="#44aa44" opacity="0.8"/>
<rect x="638.0" y="310.1209452752272" width="6.3" height="19.8790547247728" fill="#44aa44" opacity="0.3"/>
<line x1="653.75" y1="176.39881677396906" x2="653.75" y2="212.92048025056556" stroke="#44aa44" stroke-width="1" opacity="0.8"/>
<rect x="648.5" y="187.171393770663" width="6.3" height="23.38437445623805" fill="#44aa44" opacity="0.8"/>
<rect x="648.5" y="312.5623701495116" width="6.3" height="17.43762985048841" fill="#44aa44" opacity="0.3"/>
<line x1="664.25" y1="182.70471550374106" x2="664.25" y2="213.97146337219422" stroke="#ff4444" stroke-width="1" opacity="0.8"/>
<rect x="659.0" y="199.2576996693928" width="6.3" height="13.400034800765553" fill="#ff4444" opacity="0.8"/>
<rect x="659.0" y="315.3450980867078" width="6.3" height="14.654901913292177" fill="#ff4444" opacity="0.3"/>
<line x1="674.75" y1="187.4341395510701" x2="674.75" y2="215.02244649382286" stroke="#44aa44" stroke-width="1" opacity="0.8"/>
<rect x="669.5" y="200.83417435183577" width="6.3" height="1.839220462850193" fill="#44aa44" opacity="0.8"/>
<rect x="669.5" y="316.1044971773052" width="6.3" height="13.895502822694814" fill="#44aa44" opacity="0.3"/>
<rect x="145.75" y="150.3281712197669" width="8" height="8" fill="#2196f3" opacity="0.85"/>
<text x="149.75" y="147.3281712197669" text-anchor="middle" font-size="8" font-weight="bold" fill="#2196f3">中</text>
<rect x="292.75" y="278.2853662780582" width="8" height="8" fill="#ff9800" opacity="0.85"/>
<text x="296.75" y="275.2853662780582" text-anchor="middle" font-size="8" font-weight="bold" fill="#ff9800">前低</text>
<rect x="345.25" y="205.24203932486517" width="8" height="8" fill="#ff9800" opacity="0.85"/>
<text x="349.25" y="202.24203932486517" text-anchor="middle" font-size="8" font-weight="bold" fill="#ff9800">前高</text>
<rect x="387.25" y="283.5402818862015" width="8" height="8" fill="#ff9800" opacity="0.85"/>
<text x="391.25" y="280.5402818862015" text-anchor="middle" font-size="8" font-weight="bold" fill="#ff9800">前低</text>
<rect x="471.25" y="198.9361405950931" width="8" height="8" fill="#2196f3" opacity="0.85"/>
<text x="475.25" y="195.9361405950931" text-anchor="middle" font-size="8" font-weight="bold" fill="#2196f3">中</text>
<rect x="492.25" y="131.41047503045075" width="8" height="8" fill="#ff9800" opacity="0.85"/>
<text x="496.25" y="128.41047503045075" text-anchor="middle" font-size="8" font-weight="bold" fill="#ff9800">前高</text>
<rect x="544.75" y="229.15190534191754" width="8" height="8" fill="#ff9800" opacity="0.85"/>
<text x="548.75" y="226.15190534191754" text-anchor="middle" font-size="8" font-weight="bold" fill="#ff9800">前低</text>
<rect x="607.75" y="95.67704889507571" width="8" height="8" fill="#ff9800" opacity="0.85"/>
<text x="611.75" y="92.67704889507571" text-anchor="middle" font-size="8" font-weight="bold" fill="#ff9800">前高</text>
<text x="55.25" y="355" fill="#666666" font-size="8" text-anchor="middle" transform="rotate(-30,55.25,355)">02/11</text>
<text x="107.75" y="355" fill="#666666" font-size="8" text-anchor="middle" transform="rotate(-30,107.75,355)">02/26</text>
<text x="160.25" y="355" fill="#666666" font-size="8" text-anchor="middle" transform="rotate(-30,160.25,355)">03/05</text>
<text x="212.75" y="355" fill="#666666" font-size="8" text-anchor="middle" transform="rotate(-30,212.75,355)">03/12</text>
<text x="265.25" y="355" fill="#666666" font-size="8" text-anchor="middle" transform="rotate(-30,265.25,355)">03/19</text>
<text x="317.75" y="355" fill="#666666" font-size="8" text-anchor="middle" transform="rotate(-30,317.75,355)">03/26</text>
<text x="370.25" y="355" fill="#666666" font-size="8" text-anchor="middle" transform="rotate(-30,370.25,355)">04/02</text>
<text x="422.75" y="355" fill="#666666" font-size="8" text-anchor="middle" transform="rotate(-30,422.75,355)">04/10</text>
<text x="475.25" y="355" fill="#666666" font-size="8" text-anchor="middle" transform="rotate(-30,475.25,355)">04/17</text>
<text x="527.75" y="355" fill="#666666" font-size="8" text-anchor="middle" transform="rotate(-30,527.75,355)">04/24</text>
<text x="580.25" y="355" fill="#666666" font-size="8" text-anchor="middle" transform="rotate(-30,580.25,355)">05/06</text>
<text x="632.75" y="355" fill="#666666" font-size="8" text-anchor="middle" transform="rotate(-30,632.75,355)">05/13</text>
<text x="674.75" y="355" fill="#666666" font-size="8" text-anchor="middle" transform="rotate(-30,674.75,355)">05/19</text>
<rect x="50" y="334" width="7" height="7" fill="#ff9800" opacity="0.8" rx="1"/>
<text x="60" y="340" font-family="sans-serif" font-size="8" fill="#888888">第1类</text>
<rect x="120" y="334" width="7" height="7" fill="#2196f3" opacity="0.8" rx="1"/>
<text x="130" y="340" font-family="sans-serif" font-size="8" fill="#888888">第2类</text>
<rect x="190" y="334" width="7" height="7" fill="#ffd700" opacity="0.8" rx="1"/>
<text x="200" y="340" font-family="sans-serif" font-size="8" fill="#888888">EMA5</text>
<rect x="260" y="334" width="7" height="7" fill="#ff6b6b" opacity="0.8" rx="1"/>
<text x="270" y="340" font-family="sans-serif" font-size="8" fill="#888888">EMA10</text>
<rect x="330" y="334" width="7" height="7" fill="#4ecdc4" opacity="0.8" rx="1"/>
<text x="340" y="340" font-family="sans-serif" font-size="8" fill="#888888">EMA20</text>
</svg>