<svg xmlns="http://www.w3.org/2000/svg" width="700" height="380" viewBox="0 0 700 380">
<rect width="700" height="380" fill="#1a1a2e"/>
<text x="350.0" y="20" text-anchor="middle" font-family="sans-serif" font-size="14" font-weight="bold" fill="#ffffff">宏发股份(600885)</text>
<line x1="50" y1="27.91977331090043" x2="680" y2="27.91977331090043" stroke="#2a2a4e" stroke-width="0.5"/>
<text x="46" y="30.91977331090043" text-anchor="end" font-size="9" fill="#666666">36.27</text>
<line x1="50" y1="128.64883851353343" x2="680" y2="128.64883851353343" stroke="#2a2a4e" stroke-width="0.5"/>
<text x="46" y="131.64883851353343" text-anchor="end" font-size="9" fill="#666666">31.75</text>
<line x1="50" y1="229.37790371616637" x2="680" y2="229.37790371616637" stroke="#2a2a4e" stroke-width="0.5"/>
<text x="46" y="232.37790371616637" text-anchor="end" font-size="9" fill="#666666">27.23</text>
<line x1="50" y1="330.10696891879934" x2="680" y2="330.10696891879934" stroke="#2a2a4e" stroke-width="0.5"/>
<text x="46" y="333.10696891879934" text-anchor="end" font-size="9" fill="#666666">22.71</text>
<polyline points="55.25,161.85377372413586 65.75,154.94536438501726 76.25,156.95103161250333 86.75,153.60825290002657 97.25,152.5682773005894 107.75,148.30932960765597 118.25,145.84145100264226 128.75,142.63623520014397 139.25,147.25926606148704 149.75,146.9242239518506 160.25,141.35241660546345 170.75,127.60954223710841 181.25,124.0932078170547 191.75,123.30894826950804 202.25,127.09457891166919 212.75,133.03539535697513 223.25,145.09289253517832 233.75,156.6225706425673 244.25,170.62316028217165 254.75,176.16840416776753 265.25,187.51648247783382 275.75,195.4532878748199 286.25,207.72718478331757 296.75,213.90411549482997 307.25,213.11932719087227 317.75,212.96755484517575 328.25,211.23212591083384 338.75,212.52654434375552 349.25,214.20661365097536 359.75,212.42958497164213 370.25,232.04441117416422 380.75,243.48671460530142 391.25,256.83478268963086 401.75,254.2194791806528 412.25,251.5845358513403 422.75,248.93649930847147 433.25,250.14250046876052 443.75,245.6723392737121 454.25,239.4980210406465 464.75,234.86182108555082 475.25,223.22836440582418 485.75,213.61562733463046 496.25,206.9100000682812 506.75,200.65676657739408 517.25,197.67648779234992 527.75,197.3238826395313 538.25,195.45456516710806 548.75,197.40256428852595 559.25,194.91274782866418 569.75,177.3561003116446 580.25,148.64063918569434 590.75,131.05696183421665 601.25,125.2029440062463 611.75,120.78027765454742 622.25,119.46608079062574 632.75,115.69287466386476 643.25,121.27435679402332 653.75,130.04665493520503 664.25,134.334890296837 674.75,128.5024892188187" fill="none" stroke="#ffd700" stroke-width="1" opacity="0.6"/>
<polyline points="55.25,161.85377372413586 65.75,158.085550448253 76.25,158.60860783356614 86.75,156.48389649565834 97.25,155.39379278766867 107.75,152.55700032114515 118.25,150.43858095232147 128.75,147.85443961465347 139.25,149.42732837274792 149.75,148.8503849836261 160.25,145.46100624345578 170.75,137.21787665380896 181.25,133.5529061671068 191.75,131.40518307752643 202.25,131.99802982633832 212.75,134.34693863020175 223.25,140.6852928595441 233.75,147.7755899500534 244.25,157.0208171521128 254.75,162.51864893153942 265.25,171.19028350725344 275.75,178.48784990026044 286.25,188.2673278457245 296.75,195.1747185861118 307.25,198.15199713099275 317.75,200.7905449533182 328.25,202.05794915128763 338.75,204.43202770734422 349.25,206.82015944517528 359.75,207.19386274841176 370.25,218.8448083540111 380.75,227.48599255647738 391.25,237.67597915680687 401.75,239.73286879424143 412.25,240.9295561394185 422.75,241.42244160911224 433.25,243.4464527327897 443.75,242.22564621475803 454.25,239.4845077347139 464.75,236.95812836028583 475.25,230.23145975775586 485.75,223.71485856402626 496.25,218.22101983158197 506.75,212.75361615231608 517.25,208.9285823468516 527.75,206.6904168899503 538.25,203.96778295037052 548.75,203.48247014691435 559.25,201.01895101273735 569.75,190.33237906089522 580.25,172.31007685596768 590.75,158.41544599693017 601.25,150.2480755157257 611.75,143.28205177671182 622.25,138.47398546508828 632.75,132.95989036422546 643.25,132.8648777624282 653.75,135.5424002088173 664.25,136.88221126541433 674.75,133.23775231948116" fill="none" stroke="#ff6b6b" stroke-width="1" opacity="0.6"/>
<polyline points="55.25,161.85377372413586 65.75,159.8799424843877 76.25,159.9830304446818 86.75,158.73918901900478 97.25,157.95339255069146 107.75,156.2236822336532 118.25,154.76482619164955 128.75,152.99920499198265 139.25,153.33312144838175 149.75,152.65893271354327 160.25,150.52082501822386 170.75,145.72110773081192 181.25,142.99152975425338 191.75,140.96761541331642 202.25,140.36744634499976 212.75,140.80073985953186 223.25,143.50618243401306 233.75,146.95149142671136 244.25,151.8727150585846 254.75,155.24282714242983 265.25,160.47804732867138 275.75,165.3207950753495 286.25,171.69738398248887 296.75,176.8936309287142 307.25,180.19421375292782 317.75,183.28657531491405 328.25,185.61749843179365 338.75,188.4268206011084 349.25,191.2020521881852 359.75,192.88524032387951 370.25,200.3508425386728 380.75,206.63850719856833 391.25,213.9615940233037 401.75,217.29752527467443 412.25,220.06106088591645 422.75,222.30671472751808 433.25,225.1874564476915 443.75,226.28693839397 454.25,226.3690761254505 464.75,226.29482327306084 475.25,223.7868830609951 485.75,220.98719450206633 496.25,218.36924698144887 506.75,215.49125199232228 517.25,213.22693563326885 527.75,211.6451962714236 538.25,209.74717093340814 548.75,208.9425415617847 559.25,207.13211997579958 569.75,200.95218524263828 580.25,190.5005215941769 590.75,181.48995831199446 601.25,175.01423926802408 611.75,169.00668742832175 622.25,164.03821120303226 632.75,158.7151875084904 643.25,156.21253356047615 653.75,155.39145905162775 664.25,154.20287828672042 674.75,150.64428864634536" fill="none" stroke="#4ecdc4" stroke-width="1" opacity="0.6"/>
<line x1="55.25" y1="152.9396971575312" x2="55.25" y2="168.98503497741962" stroke="#44aa44" stroke-width="1" opacity="0.8"/>
<rect x="50.0" y="153.83110481419163" width="6.3" height="8.02266890994423" fill="#44aa44" opacity="0.8"/>
<rect x="50.0" y="322.244658858081" width="6.3" height="7.755341141918999" fill="#44aa44" opacity="0.3"/>
<line x1="65.75" y1="135.1115440243218" x2="65.75" y2="163.19088520912663" stroke="#ff4444" stroke-width="1" opacity="0.8"/>
<rect x="60.5" y="141.12854570678" width="6.3" height="19.610968446530364" fill="#ff4444" opacity="0.8"/>
<rect x="60.5" y="317.33161973740437" width="6.3" height="12.668380262595607" fill="#ff4444" opacity="0.3"/>
<line x1="76.25" y1="143.57991676259633" x2="76.25" y2="161.18521798164056" stroke="#44aa44" stroke-width="1" opacity="0.8"/>
<rect x="71.0" y="156.5053277841731" width="6.3" height="4.4570382833023245" fill="#44aa44" opacity="0.8"/>
<rect x="71.0" y="322.0853345789383" width="6.3" height="7.914665421061726" fill="#44aa44" opacity="0.3"/>
<line x1="86.75" y1="141.12854570678" x2="86.75" y2="162.076625638301" stroke="#ff4444" stroke-width="1" opacity="0.8"/>
<rect x="81.5" y="146.92269547507306" width="6.3" height="7.131261253283753" fill="#ff4444" opacity="0.8"/>
<rect x="81.5" y="320.7140881160549" width="6.3" height="9.285911883945115" fill="#ff4444" opacity="0.3"/>
<line x1="97.25" y1="145.5855839900824" x2="97.25" y2="157.61958735499869" stroke="#44aa44" stroke-width="1" opacity="0.8"/>
<rect x="92.0" y="147.5912512175684" width="6.3" height="2.897074884146548" fill="#44aa44" opacity="0.8"/>
<rect x="92.0" y="319.53674248887364" width="6.3" height="10.463257511126356" fill="#44aa44" opacity="0.3"/>
<line x1="107.75" y1="126.42031937188224" x2="107.75" y2="151.60258567254056" stroke="#ff4444" stroke-width="1" opacity="0.8"/>
<rect x="102.5" y="139.7914342217893" width="6.3" height="5.125594025797682" fill="#ff4444" opacity="0.8"/>
<rect x="102.5" y="317.0411972727409" width="6.3" height="12.958802727259132" fill="#ff4444" opacity="0.3"/>
<line x1="118.25" y1="134.66584019599162" x2="118.25" y2="148.4826588742289" stroke="#ff4444" stroke-width="1" opacity="0.8"/>
<rect x="113.0" y="140.9056937926149" width="6.3" height="2.228519141651134" fill="#ff4444" opacity="0.8"/>
<rect x="113.0" y="319.44945474320025" width="6.3" height="10.55054525679976" fill="#ff4444" opacity="0.3"/>
<line x1="128.75" y1="126.64317128604739" x2="128.75" y2="156.5053277841731" stroke="#ff4444" stroke-width="1" opacity="0.8"/>
<rect x="123.5" y="136.22580359514743" width="6.3" height="20.279524189025665" fill="#ff4444" opacity="0.8"/>
<rect x="123.5" y="317.1927987604353" width="6.3" height="12.807201239564655" fill="#ff4444" opacity="0.3"/>
<line x1="139.25" y1="128.20313468520322" x2="139.25" y2="160.07095841081497" stroke="#44aa44" stroke-width="1" opacity="0.8"/>
<rect x="134.0" y="136.22580359514743" width="6.3" height="20.279524189025665" fill="#44aa44" opacity="0.8"/>
<rect x="134.0" y="317.1092372182722" width="6.3" height="12.89076278172782" fill="#44aa44" opacity="0.3"/>
<line x1="149.75" y1="134.66584019599162" x2="149.75" y2="167.64792349242896" stroke="#ff4444" stroke-width="1" opacity="0.8"/>
<rect x="144.5" y="146.2541397325777" width="6.3" height="19.38811653236519" fill="#ff4444" opacity="0.8"/>
<rect x="144.5" y="315.8642715066616" width="6.3" height="14.135728493338384" fill="#ff4444" opacity="0.3"/>
<line x1="160.25" y1="119.95761386109386" x2="160.25" y2="141.5742495351102" stroke="#ff4444" stroke-width="1" opacity="0.8"/>
<rect x="155.0" y="130.20880191268927" width="6.3" height="7.354113167448844" fill="#ff4444" opacity="0.8"/>
<rect x="155.0" y="313.5422013682706" width="6.3" height="16.457798631729442" fill="#ff4444" opacity="0.3"/>
<line x1="170.75" y1="88.75834587797749" x2="170.75" y2="129.54024617019388" stroke="#ff4444" stroke-width="1" opacity="0.8"/>
<rect x="165.5" y="100.12379350039843" width="6.3" height="27.633637356474566" fill="#ff4444" opacity="0.8"/>
<rect x="165.5" y="309.7687535359505" width="6.3" height="20.23124646404947" fill="#ff4444" opacity="0.3"/>
<line x1="181.25" y1="107.70075858201248" x2="181.25" y2="137.34006316597305" stroke="#ff4444" stroke-width="1" opacity="0.8"/>
<rect x="176.0" y="117.06053897694729" width="6.3" height="4.234186369137333" fill="#ff4444" opacity="0.8"/>
<rect x="176.0" y="309.47304531080374" width="6.3" height="20.52695468919623" fill="#ff4444" opacity="0.3"/>
<line x1="191.75" y1="109.2607219811683" x2="191.75" y2="126.64317128604739" stroke="#44aa44" stroke-width="1" opacity="0.8"/>
<rect x="186.5" y="110.82068538032414" width="6.3" height="10.919743794090635" fill="#44aa44" opacity="0.8"/>
<rect x="186.5" y="312.4326003043873" width="6.3" height="17.567399695612725" fill="#44aa44" opacity="0.3"/>
<line x1="202.25" y1="118.84335429026834" x2="202.25" y2="140.9056937926149" stroke="#44aa44" stroke-width="1" opacity="0.8"/>
<rect x="197.0" y="121.07187343191939" width="6.3" height="13.593966764072235" fill="#44aa44" opacity="0.8"/>
<rect x="197.0" y="313.771271565636" width="6.3" height="16.22872843436397" fill="#44aa44" opacity="0.3"/>
<line x1="212.75" y1="124.63750405856135" x2="212.75" y2="154.0539567283568" stroke="#44aa44" stroke-width="1" opacity="0.8"/>
<rect x="207.5" y="134.22013636766138" width="6.3" height="10.696891879925602" fill="#44aa44" opacity="0.8"/>
<rect x="207.5" y="315.50478214580056" width="6.3" height="14.495217854199447" fill="#44aa44" opacity="0.3"/>
<line x1="223.25" y1="143.35706484843118" x2="223.25" y2="174.33348091738247" stroke="#44aa44" stroke-width="1" opacity="0.8"/>
<rect x="218.0" y="149.81977035921955" width="6.3" height="19.388116532365217" fill="#44aa44" opacity="0.8"/>
<rect x="218.0" y="315.34111539071597" width="6.3" height="14.658884609284007" fill="#44aa44" opacity="0.3"/>
<line x1="233.75" y1="166.31081200743827" x2="233.75" y2="187.48174385312439" stroke="#44aa44" stroke-width="1" opacity="0.8"/>
<rect x="228.5" y="170.3221464624104" width="6.3" height="9.359780394934859" fill="#44aa44" opacity="0.8"/>
<rect x="228.5" y="317.4185768998529" width="6.3" height="12.581423100147097" fill="#44aa44" opacity="0.3"/>
<line x1="244.25" y1="172.5506656040615" x2="244.25" y2="199.73859913220582" stroke="#44aa44" stroke-width="1" opacity="0.8"/>
<rect x="239.0" y="175.22488857404292" width="6.3" height="23.39945098733733" fill="#44aa44" opacity="0.8"/>
<rect x="239.0" y="317.44723407808135" width="6.3" height="12.552765921918633" fill="#44aa44" opacity="0.3"/>
<line x1="254.75" y1="185.47607662563834" x2="254.75" y2="202.18997018802213" stroke="#ff4444" stroke-width="1" opacity="0.8"/>
<rect x="249.5" y="187.2588919389592" width="6.3" height="10.919743794090806" fill="#ff4444" opacity="0.8"/>
<rect x="249.5" y="319.03155061227716" width="6.3" height="10.968449387722844" fill="#ff4444" opacity="0.3"/>
<line x1="265.25" y1="195.5044127630686" x2="265.25" y2="211.99545441128723" stroke="#44aa44" stroke-width="1" opacity="0.8"/>
<rect x="260.0" y="200.18430296053606" width="6.3" height="10.028336137430244" fill="#44aa44" opacity="0.8"/>
<rect x="260.0" y="317.91250598963455" width="6.3" height="12.087494010365445" fill="#44aa44" opacity="0.3"/>
<line x1="275.75" y1="199.9614510463709" x2="275.75" y2="211.54975058295702" stroke="#44aa44" stroke-width="1" opacity="0.8"/>
<rect x="270.5" y="210.65834292629657" width="6.3" height="1" fill="#44aa44" opacity="0.8"/>
<rect x="270.5" y="320.7614110026668" width="6.3" height="9.238588997333208" fill="#44aa44" opacity="0.3"/>
<line x1="286.25" y1="211.77260249712216" x2="286.25" y2="236.50916496945013" stroke="#44aa44" stroke-width="1" opacity="0.8"/>
<rect x="281.0" y="220.90953097789196" width="6.3" height="11.36544762242093" fill="#44aa44" opacity="0.8"/>
<rect x="281.0" y="318.1347308695438" width="6.3" height="11.865269130456214" fill="#44aa44" opacity="0.3"/>
<line x1="296.75" y1="222.24664246288262" x2="296.75" y2="238.9605360252664" stroke="#44aa44" stroke-width="1" opacity="0.8"/>
<rect x="291.5" y="223.36090203370821" width="6.3" height="2.8970748841465195" fill="#44aa44" opacity="0.8"/>
<rect x="291.5" y="321.3035322905036" width="6.3" height="8.696467709496405" fill="#44aa44" opacity="0.3"/>
<line x1="307.25" y1="207.76126804215005" x2="307.25" y2="223.13805011954307" stroke="#ff4444" stroke-width="1" opacity="0.8"/>
<rect x="302.0" y="211.54975058295702" width="6.3" height="8.468372738274496" fill="#ff4444" opacity="0.8"/>
<rect x="302.0" y="321.07970602055894" width="6.3" height="8.920293979441047" fill="#ff4444" opacity="0.3"/>
<line x1="317.75" y1="203.74993358717796" x2="317.75" y2="216.6753446087547" stroke="#44aa44" stroke-width="1" opacity="0.8"/>
<rect x="312.5" y="210.88119484046172" width="6.3" height="1.7828153133208673" fill="#44aa44" opacity="0.8"/>
<rect x="312.5" y="323.9826537384721" width="6.3" height="6.017346261527887" fill="#44aa44" opacity="0.3"/>
<line x1="328.25" y1="205.08704507216862" x2="328.25" y2="221.13238289205705" stroke="#ff4444" stroke-width="1" opacity="0.8"/>
<rect x="323.0" y="207.76126804215005" width="6.3" height="12.034003364916288" fill="#ff4444" opacity="0.8"/>
<rect x="323.0" y="324.81844414474284" width="6.3" height="5.1815558552571375" fill="#ff4444" opacity="0.3"/>
<line x1="338.75" y1="211.77260249712216" x2="338.75" y2="227.37223648868036" stroke="#ff4444" stroke-width="1" opacity="0.8"/>
<rect x="333.5" y="215.1153812095989" width="6.3" height="1.559963399155805" fill="#ff4444" opacity="0.8"/>
<rect x="333.5" y="321.8006009006032" width="6.3" height="8.199399099396842" fill="#ff4444" opacity="0.3"/>
<line x1="349.25" y1="205.75560081466398" x2="349.25" y2="219.79527140706634" stroke="#44aa44" stroke-width="1" opacity="0.8"/>
<rect x="344.0" y="214.8925292954338" width="6.3" height="2.674222969981372" fill="#44aa44" opacity="0.8"/>
<rect x="344.0" y="322.64321264684315" width="6.3" height="7.356787353156841" fill="#44aa44" opacity="0.3"/>
<line x1="359.75" y1="205.53274890049886" x2="359.75" y2="214.4468254671036" stroke="#ff4444" stroke-width="1" opacity="0.8"/>
<rect x="354.5" y="208.87552761297565" width="6.3" height="1" fill="#ff4444" opacity="0.8"/>
<rect x="354.5" y="321.46269637962683" width="6.3" height="8.53730362037315" fill="#ff4444" opacity="0.3"/>
<line x1="370.25" y1="232.2749786003129" x2="370.25" y2="271.49691549337354" stroke="#44aa44" stroke-width="1" opacity="0.8"/>
<rect x="365.0" y="235.61775731278968" width="6.3" height="35.65630626641868" fill="#44aa44" opacity="0.8"/>
<rect x="365.0" y="295.0" width="6.3" height="35.0" fill="#44aa44" opacity="0.3"/>
<line x1="380.75" y1="262.1371350984386" x2="380.75" y2="278.6281767466573" stroke="#ff4444" stroke-width="1" opacity="0.8"/>
<rect x="375.5" y="266.37132146757585" width="6.3" height="1.5599633991557766" fill="#ff4444" opacity="0.8"/>
<rect x="375.5" y="318.3011580965881" width="6.3" height="11.69884190341192" fill="#ff4444" opacity="0.3"/>
<line x1="391.25" y1="266.59417338174103" x2="391.25" y2="285.9822899141061" stroke="#44aa44" stroke-width="1" opacity="0.8"/>
<rect x="386.0" y="266.59417338174103" width="6.3" height="16.936745476548822" fill="#44aa44" opacity="0.8"/>
<rect x="386.0" y="316.6447147307273" width="6.3" height="13.355285269272716" fill="#44aa44" opacity="0.3"/>
<line x1="401.75" y1="248.32031642020138" x2="401.75" y2="273.27973080669443" stroke="#ff4444" stroke-width="1" opacity="0.8"/>
<rect x="396.5" y="248.98887216269668" width="6.3" height="21.170931845686198" fill="#ff4444" opacity="0.8"/>
<rect x="396.5" y="313.62204282883505" width="6.3" height="16.377957171164944" fill="#ff4444" opacity="0.3"/>
<line x1="412.25" y1="241.18905516691763" x2="412.25" y2="259.4629121284572" stroke="#ff4444" stroke-width="1" opacity="0.8"/>
<rect x="407.0" y="246.31464919271534" width="6.3" height="4.679890197467387" fill="#ff4444" opacity="0.8"/>
<rect x="407.0" y="318.35677617338024" width="6.3" height="11.643223826619769" fill="#ff4444" opacity="0.3"/>
<line x1="422.75" y1="234.94920157029432" x2="422.75" y2="246.9832049352106" stroke="#44aa44" stroke-width="1" opacity="0.8"/>
<rect x="417.5" y="243.41757430856873" width="6.3" height="1" fill="#44aa44" opacity="0.8"/>
<rect x="417.5" y="319.038840788641" width="6.3" height="10.961159211359025" fill="#44aa44" opacity="0.3"/>
<line x1="433.25" y1="243.41757430856873" x2="433.25" y2="253.4459104459991" stroke="#44aa44" stroke-width="1" opacity="0.8"/>
<rect x="428.0" y="252.33165087517347" width="6.3" height="1" fill="#44aa44" opacity="0.8"/>
<rect x="428.0" y="320.6340487136829" width="6.3" height="9.36595128631711" fill="#44aa44" opacity="0.3"/>
<line x1="443.75" y1="234.50349774196408" x2="443.75" y2="250.10313173352225" stroke="#ff4444" stroke-width="1" opacity="0.8"/>
<rect x="438.5" y="236.7320168836153" width="6.3" height="13.371114849906945" fill="#ff4444" opacity="0.8"/>
<rect x="438.5" y="319.72898122558394" width="6.3" height="10.271018774416042" fill="#ff4444" opacity="0.3"/>
<line x1="454.25" y1="218.23530800791053" x2="454.25" y2="236.28631305528498" stroke="#ff4444" stroke-width="1" opacity="0.8"/>
<rect x="449.0" y="227.14938457451527" width="6.3" height="6.68555742495343" fill="#ff4444" opacity="0.8"/>
<rect x="449.0" y="316.7235134256873" width="6.3" height="13.276486574312674" fill="#ff4444" opacity="0.3"/>
<line x1="464.75" y1="218.68101183624074" x2="464.75" y2="229.8236075444966" stroke="#44aa44" stroke-width="1" opacity="0.8"/>
<rect x="459.5" y="223.80660586203848" width="6.3" height="1.7828153133209526" fill="#44aa44" opacity="0.8"/>
<rect x="459.5" y="319.4250114807706" width="6.3" height="10.574988519229406" fill="#44aa44" opacity="0.3"/>
<line x1="475.25" y1="199.73859913220582" x2="475.25" y2="226.92653266035012" stroke="#ff4444" stroke-width="1" opacity="0.8"/>
<rect x="470.0" y="199.9614510463709" width="6.3" height="25.627970128988522" fill="#ff4444" opacity="0.8"/>
<rect x="470.0" y="315.65724937382316" width="6.3" height="14.34275062617681" fill="#ff4444" opacity="0.3"/>
<line x1="485.75" y1="191.71593022226156" x2="485.75" y2="211.99545441128723" stroke="#ff4444" stroke-width="1" opacity="0.8"/>
<rect x="480.5" y="194.390153192243" width="6.3" height="4.4570382833023245" fill="#ff4444" opacity="0.8"/>
<rect x="480.5" y="319.6018326933458" width="6.3" height="10.398167306654218" fill="#ff4444" opacity="0.3"/>
<line x1="496.25" y1="188.15029959561977" x2="496.25" y2="201.07571061719653" stroke="#ff4444" stroke-width="1" opacity="0.8"/>
<rect x="491.0" y="193.49874553558251" width="6.3" height="4.902742111632591" fill="#ff4444" opacity="0.8"/>
<rect x="491.0" y="320.38997116025763" width="6.3" height="9.610028839742377" fill="#ff4444" opacity="0.3"/>
<line x1="506.75" y1="183.24755748398712" x2="506.75" y2="198.84719147554532" stroke="#ff4444" stroke-width="1" opacity="0.8"/>
<rect x="501.5" y="188.15029959561977" width="6.3" height="8.691224652439473" fill="#ff4444" opacity="0.8"/>
<rect x="501.5" y="322.69943424208446" width="6.3" height="7.300565757915536" fill="#ff4444" opacity="0.3"/>
<line x1="517.25" y1="179.23622302901504" x2="517.25" y2="203.08137784468255" stroke="#44aa44" stroke-width="1" opacity="0.8"/>
<rect x="512.0" y="187.92744768145462" width="6.3" height="3.788482540806939" fill="#44aa44" opacity="0.8"/>
<rect x="512.0" y="316.10806898263246" width="6.3" height="13.891931017367543" fill="#44aa44" opacity="0.3"/>
<line x1="527.75" y1="186.5903361964639" x2="527.75" y2="204.41848932967326" stroke="#44aa44" stroke-width="1" opacity="0.8"/>
<rect x="522.5" y="191.71593022226156" width="6.3" height="4.9027421116326195" fill="#44aa44" opacity="0.8"/>
<rect x="522.5" y="318.2673253522847" width="6.3" height="11.732674647715326" fill="#44aa44" opacity="0.3"/>
<line x1="538.25" y1="186.14463236813364" x2="538.25" y2="203.5270816730128" stroke="#ff4444" stroke-width="1" opacity="0.8"/>
<rect x="533.0" y="191.71593022226156" width="6.3" height="4.9027421116326195" fill="#ff4444" opacity="0.8"/>
<rect x="533.0" y="321.1714290911664" width="6.3" height="8.82857090883363" fill="#ff4444" opacity="0.3"/>
<line x1="548.75" y1="192.16163405059186" x2="548.75" y2="204.6413412438384" stroke="#44aa44" stroke-width="1" opacity="0.8"/>
<rect x="543.5" y="200.40715487470112" width="6.3" height="1" fill="#44aa44" opacity="0.8"/>
<rect x="543.5" y="321.7231454550739" width="6.3" height="8.276854544926099" fill="#44aa44" opacity="0.3"/>
<line x1="559.25" y1="188.15029959561977" x2="559.25" y2="201.07571061719653" stroke="#ff4444" stroke-width="1" opacity="0.8"/>
<rect x="554.0" y="189.93311490894064" width="6.3" height="10.91974379409072" fill="#ff4444" opacity="0.8"/>
<rect x="554.0" y="319.8342347410844" width="6.3" height="10.16576525891561" fill="#ff4444" opacity="0.3"/>
<line x1="569.75" y1="127.53457894270785" x2="569.75" y2="154.49966055668705" stroke="#ff4444" stroke-width="1" opacity="0.8"/>
<rect x="564.5" y="142.24280527760558" width="6.3" height="7.131261253283753" fill="#ff4444" opacity="0.8"/>
<rect x="564.5" y="295.297321348846" width="6.3" height="34.702678651153974" fill="#ff4444" opacity="0.3"/>
<line x1="580.25" y1="87.86693822131704" x2="580.25" y2="143.57991676259633" stroke="#ff4444" stroke-width="1" opacity="0.8"/>
<rect x="575.0" y="91.20971693379377" width="6.3" height="45.2389385755188" fill="#ff4444" opacity="0.8"/>
<rect x="575.0" y="299.74665117589825" width="6.3" height="30.253348824101767" fill="#ff4444" opacity="0.3"/>
<line x1="590.75" y1="88.75834587797749" x2="590.75" y2="111.48924112281935" stroke="#44aa44" stroke-width="1" opacity="0.8"/>
<rect x="585.5" y="91.20971693379377" width="6.3" height="4.679890197467486" fill="#44aa44" opacity="0.8"/>
<rect x="585.5" y="316.006669720626" width="6.3" height="13.993330279374018" fill="#44aa44" opacity="0.3"/>
<line x1="601.25" y1="100.3466454145635" x2="601.25" y2="120.40331768942417" stroke="#44aa44" stroke-width="1" opacity="0.8"/>
<rect x="596.0" y="100.7923492428938" width="6.3" height="12.702559107411673" fill="#44aa44" opacity="0.8"/>
<rect x="596.0" y="320.5884680210726" width="6.3" height="9.411531978927448" fill="#44aa44" opacity="0.3"/>
<line x1="611.75" y1="102.79801647037993" x2="611.75" y2="120.18046577525894" stroke="#ff4444" stroke-width="1" opacity="0.8"/>
<rect x="606.5" y="111.93494495114966" width="6.3" height="2.228519141651205" fill="#ff4444" opacity="0.8"/>
<rect x="606.5" y="318.09426503405194" width="6.3" height="11.905734965948033" fill="#ff4444" opacity="0.3"/>
<line x1="622.25" y1="108.59216623867295" x2="622.25" y2="128.87169042769858" stroke="#44aa44" stroke-width="1" opacity="0.8"/>
<rect x="617.0" y="111.93494495114966" width="6.3" height="4.9027421116325485" fill="#44aa44" opacity="0.8"/>
<rect x="617.0" y="320.3274026731939" width="6.3" height="9.672597326806093" fill="#44aa44" opacity="0.3"/>
<line x1="632.75" y1="103.020868384545" x2="632.75" y2="121.96328108857999" stroke="#ff4444" stroke-width="1" opacity="0.8"/>
<rect x="627.5" y="108.14646241034264" width="6.3" height="8.691224652439573" fill="#ff4444" opacity="0.8"/>
<rect x="627.5" y="322.4243236985814" width="6.3" height="7.575676301418555" fill="#ff4444" opacity="0.3"/>
<line x1="643.25" y1="115.27772366362639" x2="643.25" y2="136.22580359514743" stroke="#44aa44" stroke-width="1" opacity="0.8"/>
<rect x="638.0" y="115.27772366362639" width="6.3" height="17.159597390714097" fill="#44aa44" opacity="0.8"/>
<rect x="638.0" y="323.0110543357258" width="6.3" height="6.988945664274194" fill="#44aa44" opacity="0.3"/>
<line x1="653.75" y1="124.19180023023112" x2="653.75" y2="153.1625490716964" stroke="#44aa44" stroke-width="1" opacity="0.8"/>
<rect x="648.5" y="134.22013636766138" width="6.3" height="13.37111484990703" fill="#44aa44" opacity="0.8"/>
<rect x="648.5" y="321.28899275051975" width="6.3" height="8.711007249480227" fill="#44aa44" opacity="0.3"/>
<line x1="664.25" y1="136.44865550931257" x2="664.25" y2="151.82543758670562" stroke="#ff4444" stroke-width="1" opacity="0.8"/>
<rect x="659.0" y="142.91136102010097" width="6.3" height="8.914076566604649" fill="#ff4444" opacity="0.8"/>
<rect x="659.0" y="322.3889334379422" width="6.3" height="7.611066562057774" fill="#ff4444" opacity="0.3"/>
<line x1="674.75" y1="103.46657221287515" x2="674.75" y2="156.5053277841731" stroke="#ff4444" stroke-width="1" opacity="0.8"/>
<rect x="669.5" y="116.83768706278221" width="6.3" height="26.296525871483823" fill="#ff4444" opacity="0.8"/>
<rect x="669.5" y="318.3230138310599" width="6.3" height="11.676986168940097" fill="#ff4444" opacity="0.3"/>
<rect x="145.75" y="163.64792349242896" width="8" height="8" fill="#ff9800" opacity="0.85"/>
<text x="149.75" y="160.64792349242896" text-anchor="middle" font-size="8" font-weight="bold" fill="#ff9800">前低</text>
<rect x="166.75" y="84.75834587797749" width="8" height="8" fill="#ff9800" opacity="0.85"/>
<text x="170.75" y="81.75834587797749" text-anchor="middle" font-size="8" font-weight="bold" fill="#ff9800">前高</text>
<rect x="292.75" y="234.9605360252664" width="8" height="8" fill="#ff9800" opacity="0.85"/>
<text x="296.75" y="231.9605360252664" text-anchor="middle" font-size="8" font-weight="bold" fill="#ff9800">前低</text>
<rect x="387.25" y="281.9822899141061" width="8" height="8" fill="#ff9800" opacity="0.85"/>
<text x="391.25" y="278.9822899141061" text-anchor="middle" font-size="8" font-weight="bold" fill="#ff9800">前低</text>
<rect x="492.25" y="189.49874553558251" width="8" height="8" fill="#2196f3" opacity="0.85"/>
<text x="496.25" y="186.49874553558251" text-anchor="middle" font-size="8" font-weight="bold" fill="#2196f3">中</text>
<rect x="502.75" y="184.15029959561977" width="8" height="8" fill="#2196f3" opacity="0.85"/>
<text x="506.75" y="181.15029959561977" text-anchor="middle" font-size="8" font-weight="bold" fill="#2196f3">中</text>
<rect x="513.25" y="175.23622302901504" width="8" height="8" fill="#ff9800" opacity="0.85"/>
<text x="517.25" y="172.23622302901504" text-anchor="middle" font-size="8" font-weight="bold" fill="#ff9800">前高</text>
<rect x="544.75" y="200.6413412438384" width="8" height="8" fill="#ff9800" opacity="0.85"/>
<text x="548.75" y="197.6413412438384" text-anchor="middle" font-size="8" font-weight="bold" fill="#ff9800">前低</text>
<rect x="576.25" y="83.86693822131704" width="8" height="8" fill="#ff9800" opacity="0.85"/>
<text x="580.25" y="80.86693822131704" text-anchor="middle" font-size="8" font-weight="bold" fill="#ff9800">前高</text>
<rect x="607.75" y="107.93494495114966" width="8" height="8" fill="#2196f3" opacity="0.85"/>
<text x="611.75" y="104.93494495114966" text-anchor="middle" font-size="8" font-weight="bold" fill="#2196f3">中</text>
<rect x="628.75" y="104.14646241034264" width="8" height="8" fill="#2196f3" opacity="0.85"/>
<text x="632.75" y="101.14646241034264" text-anchor="middle" font-size="8" font-weight="bold" fill="#2196f3">中</text>
<text x="55.25" y="355" fill="#666666" font-size="8" text-anchor="middle" transform="rotate(-30,55.25,355)">02/11</text>
<text x="107.75" y="355" fill="#666666" font-size="8" text-anchor="middle" transform="rotate(-30,107.75,355)">02/26</text>
<text x="160.25" y="355" fill="#666666" font-size="8" text-anchor="middle" transform="rotate(-30,160.25,355)">03/05</text>
<text x="212.75" y="355" fill="#666666" font-size="8" text-anchor="middle" transform="rotate(-30,212.75,355)">03/12</text>
<text x="265.25" y="355" fill="#666666" font-size="8" text-anchor="middle" transform="rotate(-30,265.25,355)">03/19</text>
<text x="317.75" y="355" fill="#666666" font-size="8" text-anchor="middle" transform="rotate(-30,317.75,355)">03/26</text>
<text x="370.25" y="355" fill="#666666" font-size="8" text-anchor="middle" transform="rotate(-30,370.25,355)">04/02</text>
<text x="422.75" y="355" fill="#666666" font-size="8" text-anchor="middle" transform="rotate(-30,422.75,355)">04/10</text>
<text x="475.25" y="355" fill="#666666" font-size="8" text-anchor="middle" transform="rotate(-30,475.25,355)">04/17</text>
<text x="527.75" y="355" fill="#666666" font-size="8" text-anchor="middle" transform="rotate(-30,527.75,355)">04/24</text>
<text x="580.25" y="355" fill="#666666" font-size="8" text-anchor="middle" transform="rotate(-30,580.25,355)">05/06</text>
<text x="632.75" y="355" fill="#666666" font-size="8" text-anchor="middle" transform="rotate(-30,632.75,355)">05/13</text>
<text x="674.75" y="355" fill="#666666" font-size="8" text-anchor="middle" transform="rotate(-30,674.75,355)">05/19</text>
<rect x="50" y="334" width="7" height="7" fill="#ff9800" opacity="0.8" rx="1"/>
<text x="60" y="340" font-family="sans-serif" font-size="8" fill="#888888">第1类</text>
<rect x="120" y="334" width="7" height="7" fill="#2196f3" opacity="0.8" rx="1"/>
<text x="130" y="340" font-family="sans-serif" font-size="8" fill="#888888">第2类</text>
<rect x="190" y="334" width="7" height="7" fill="#ffd700" opacity="0.8" rx="1"/>
<text x="200" y="340" font-family="sans-serif" font-size="8" fill="#888888">EMA5</text>
<rect x="260" y="334" width="7" height="7" fill="#ff6b6b" opacity="0.8" rx="1"/>
<text x="270" y="340" font-family="sans-serif" font-size="8" fill="#888888">EMA10</text>
<rect x="330" y="334" width="7" height="7" fill="#4ecdc4" opacity="0.8" rx="1"/>
<text x="340" y="340" font-family="sans-serif" font-size="8" fill="#888888">EMA20</text>
</svg>