<svg xmlns="http://www.w3.org/2000/svg" width="700" height="380" viewBox="0 0 700 380">
<rect width="700" height="380" fill="#1a1a2e"/>
<text x="350.0" y="20" text-anchor="middle" font-family="sans-serif" font-size="14" font-weight="bold" fill="#ffffff">拓普集团(601689)</text>
<line x1="50" y1="27.983035137488454" x2="680" y2="27.983035137488454" stroke="#2a2a4e" stroke-width="0.5"/>
<text x="46" y="30.983035137488454" text-anchor="end" font-size="9" fill="#666666">79.36</text>
<line x1="50" y1="128.71190630003093" x2="680" y2="128.71190630003093" stroke="#2a2a4e" stroke-width="0.5"/>
<text x="46" y="131.71190630003093" text-anchor="end" font-size="9" fill="#666666">69.86</text>
<line x1="50" y1="229.334747071876" x2="680" y2="229.334747071876" stroke="#2a2a4e" stroke-width="0.5"/>
<text x="46" y="232.334747071876" text-anchor="end" font-size="9" fill="#666666">60.37</text>
<line x1="50" y1="329.957587843721" x2="680" y2="329.957587843721" stroke="#2a2a4e" stroke-width="0.5"/>
<text x="46" y="332.957587843721" text-anchor="end" font-size="9" fill="#666666">50.88</text>
<polyline points="55.25,110.26261831868109 65.75,107.01101967062702 76.25,106.64580388044703 86.75,112.16331124821984 97.25,117.2200445724681 107.75,123.1359294987048 118.25,132.20465499990428 128.75,142.2442833836398 139.25,158.4801041355641 149.75,170.4349754709526 160.25,176.42565573485984 170.75,180.84356414025433 181.25,186.96974813143973 191.75,184.1618953968982 202.25,183.38564094441045 212.75,184.42325037298062 223.25,189.67429679201618 233.75,195.4016326093522 244.25,202.71885938059086 254.75,207.24357592575865 265.25,217.47012018996122 275.75,228.91781009321667 286.25,240.79081898995017 296.75,248.63547132730756 307.25,251.28516671190874 317.75,251.7792656132739 328.25,253.41637303278543 338.75,255.88617305819284 349.25,259.65331422241275 359.75,255.52017051485473 370.25,252.83542830361438 380.75,254.61528998293372 391.25,260.6792624078942 401.75,252.98788078735421 412.25,252.3135694496189 422.75,244.54793159967386 433.25,242.58709488419868 443.75,239.335979911096 454.25,240.4201685770815 464.75,233.93289445364783 475.25,230.27957084577565 485.75,229.257760316493 496.25,231.4040303822356 506.75,233.18831172838867 517.25,240.3862214320108 527.75,249.46138699255457 538.25,248.26608733526047 548.75,255.0327221001466 559.25,256.3275567589159 569.75,248.142853191916 580.25,235.9711260697467 590.75,219.2681796751433 601.25,199.57976389581637 611.75,186.20674913130452 622.25,176.97331478287103 632.75,170.67631802965218 643.25,173.58235637089962 653.75,158.37813543564945 664.25,142.97581207417778 674.75,133.4498092347452" fill="none" stroke="#ffd700" stroke-width="1" opacity="0.6"/>
<polyline points="55.25,110.26261831868109 65.75,108.48901905610614 76.25,108.0210832822845 86.75,110.78058195528104 97.25,113.79020545813259 107.75,117.64065889323174 118.25,123.58637654942655 128.75,130.62949720427832 139.25,141.59717873793903 149.75,151.1876404477192 160.25,157.9547996868019 170.75,163.72290537120952 181.25,170.17730732440972 191.75,171.6989223432107 202.25,173.54150592434237 212.75,175.89731743448388 223.25,180.31169419732095 233.75,185.13798693308516 244.25,190.9953189312639 254.75,195.59489894668758 265.25,203.290955268811 275.75,212.11317974715948 286.25,221.6447537537518 296.75,229.4047577988919 307.25,234.34653955929537 317.75,237.6957984423333 328.25,241.1493965204197 338.75,244.72691953652662 349.25,248.81067899367673 359.75,248.5276251947789 370.25,248.33459222866153 380.75,250.12375970373625 391.25,254.248022895387 401.75,251.22204010463918 412.25,251.17529586273176 422.75,247.1464522331048 433.25,245.60444663676722 443.75,243.28250178733515 454.25,243.15632799128375 464.75,239.12033130319222 475.25,236.18443899898108 485.75,234.55347540969865 496.25,234.76131088315725 506.75,235.12414061725505 517.25,238.69830429398235 527.75,243.9552886248296 538.25,244.30441578771007 548.75,248.71561139538434 559.25,250.57045042830612 569.75,247.15281327005343 580.25,240.69369664375424 590.75,230.72434941506012 601.25,217.90227358271508 611.75,207.2765364953634 622.25,198.4092473300253 632.75,191.07707954696875 643.25,188.95296200268243 653.75,177.86509501403998 664.25,165.9207441662571 674.75,156.55293678255217" fill="none" stroke="#ff6b6b" stroke-width="1" opacity="0.6"/>
<polyline points="55.25,110.26261831868109 65.75,109.33359013352286 76.25,109.00804557795749 86.75,110.35950085470108 97.25,111.97607327053572 107.75,114.16575194488257 118.25,117.61111899797025 128.75,121.86944482207895 139.25,128.44871156658692 149.75,134.72452171660052 160.25,139.83714024479798 170.75,144.5840203120594 181.25,149.78764848365478 191.75,152.52655719262242 202.25,155.3176595589855 212.75,158.287260480046 223.25,162.27670135147847 233.75,166.52237781743514 244.25,171.3634192560669 254.75,175.64242780464085 265.25,181.57393074880514 275.75,188.26338400127386 286.25,195.52752236147802 296.75,202.0796417558156 307.25,207.27058611060562 317.75,211.6036220444531 328.25,215.89761878991553 338.75,220.17649062982912 349.25,224.6537388127837 359.75,226.80613350677942 370.25,228.7737344948131 380.75,231.57385628974262 391.25,235.50084209622568 401.75,235.70124928194457 412.25,237.1549347573925 422.75,236.37986058047736 433.25,236.59753304455077 443.75,236.23907751315457 454.25,236.8437887889544 464.75,235.33088949541406 475.25,234.15394036537762 485.75,233.4930069265729 496.25,233.70287012534885 506.75,233.99372767728656 517.25,235.97356702604546 527.75,238.98672427248326 538.25,239.64279701040607 548.75,242.39738697416922 559.25,243.97070498391065 569.75,242.8090612766731 580.25,239.8394051384574 590.75,234.6987272096459 601.25,227.60388960274275 611.75,221.11406388841306 622.25,215.15143362151696 632.75,209.71628037405955 643.25,206.82848539113908 653.75,199.31812426485425 664.25,191.01841389212862 674.75,183.72121290772395" fill="none" stroke="#4ecdc4" stroke-width="1" opacity="0.6"/>
<line x1="55.25" y1="103.37064292334918" x2="55.25" y2="112.80734769541894" stroke="#44aa44" stroke-width="1" opacity="0.8"/>
<rect x="50.0" y="103.37064292334918" width="6.3" height="6.891975395331912" fill="#44aa44" opacity="0.8"/>
<rect x="50.0" y="324.1288854367003" width="6.3" height="5.871114563299738" fill="#44aa44" opacity="0.3"/>
<line x1="65.75" y1="90.32890486756732" x2="65.75" y2="125.31893379771361" stroke="#ff4444" stroke-width="1" opacity="0.8"/>
<rect x="60.5" y="100.50782237451907" width="6.3" height="16.64677133949378" fill="#ff4444" opacity="0.8"/>
<rect x="60.5" y="321.1688804676138" width="6.3" height="8.831119532386197" fill="#ff4444" opacity="0.3"/>
<line x1="76.25" y1="92.97966463500265" x2="76.25" y2="111.32292222565516" stroke="#ff4444" stroke-width="1" opacity="0.8"/>
<rect x="71.0" y="105.91537230008704" width="6.3" height="1.696486251158717" fill="#ff4444" opacity="0.8"/>
<rect x="71.0" y="321.9658621919384" width="6.3" height="8.034137808061567" fill="#ff4444" opacity="0.3"/>
<line x1="86.75" y1="91.38920877454154" x2="86.75" y2="127.22748083026713" stroke="#44aa44" stroke-width="1" opacity="0.8"/>
<rect x="81.5" y="92.34348229081814" width="6.3" height="30.854843692947327" fill="#44aa44" opacity="0.8"/>
<rect x="81.5" y="319.6604267151156" width="6.3" height="10.339573284884388" fill="#44aa44" opacity="0.3"/>
<line x1="97.25" y1="117.79077605819735" x2="97.25" y2="134.33151700699383" stroke="#44aa44" stroke-width="1" opacity="0.8"/>
<rect x="92.0" y="123.9405387186473" width="6.3" height="3.392972502317292" fill="#44aa44" opacity="0.8"/>
<rect x="92.0" y="321.7453742151217" width="6.3" height="8.25462578487825" fill="#44aa44" opacity="0.3"/>
<line x1="107.75" y1="125.95511614189812" x2="107.75" y2="139.31494536977223" stroke="#44aa44" stroke-width="1" opacity="0.8"/>
<rect x="102.5" y="127.22748083026713" width="6.3" height="7.740218520911213" fill="#44aa44" opacity="0.8"/>
<rect x="102.5" y="321.42222172544524" width="6.3" height="8.577778274554765" fill="#44aa44" opacity="0.3"/>
<line x1="118.25" y1="135.70991208606014" x2="118.25" y2="154.37126084880492" stroke="#44aa44" stroke-width="1" opacity="0.8"/>
<rect x="113.0" y="137.83051990000843" width="6.3" height="12.511586102294842" fill="#44aa44" opacity="0.8"/>
<rect x="113.0" y="319.7755174354334" width="6.3" height="10.224482564566596" fill="#44aa44" opacity="0.3"/>
<line x1="128.75" y1="155.2195039743842" x2="128.75" y2="171.23009296969363" stroke="#ff4444" stroke-width="1" opacity="0.8"/>
<rect x="123.5" y="162.3235401511109" width="6.3" height="7.316096958121477" fill="#ff4444" opacity="0.8"/>
<rect x="123.5" y="319.3725795699197" width="6.3" height="10.627420430080315" fill="#ff4444" opacity="0.3"/>
<line x1="139.25" y1="152.88683537904112" x2="139.25" y2="193.07235345336068" stroke="#44aa44" stroke-width="1" opacity="0.8"/>
<rect x="134.0" y="162.95972249529538" width="6.3" height="27.992023144117013" fill="#44aa44" opacity="0.8"/>
<rect x="134.0" y="319.2465930526399" width="6.3" height="10.7534069473601" fill="#44aa44" opacity="0.3"/>
<line x1="149.75" y1="186.4984692301211" x2="149.75" y2="201.4487543184563" stroke="#ff4444" stroke-width="1" opacity="0.8"/>
<rect x="144.5" y="194.3447181417296" width="6.3" height="4.665337190686245" fill="#ff4444" opacity="0.8"/>
<rect x="144.5" y="322.8246220667388" width="6.3" height="7.175377933261216" fill="#ff4444" opacity="0.3"/>
<line x1="160.25" y1="180.66679774176342" x2="160.25" y2="192.1180799370839" stroke="#44aa44" stroke-width="1" opacity="0.8"/>
<rect x="155.0" y="182.363283992922" width="6.3" height="6.043732269752439" fill="#44aa44" opacity="0.8"/>
<rect x="155.0" y="323.88091079859254" width="6.3" height="6.119089201407459" fill="#44aa44" opacity="0.3"/>
<line x1="170.75" y1="183.52961829059353" x2="170.75" y2="194.02662696963736" stroke="#ff4444" stroke-width="1" opacity="0.8"/>
<rect x="165.5" y="189.67938095104347" width="6.3" height="2.226638204645667" fill="#ff4444" opacity="0.8"/>
<rect x="165.5" y="324.8035028250835" width="6.3" height="5.196497174916499" fill="#ff4444" opacity="0.3"/>
<line x1="181.25" y1="195.29899165800634" x2="181.25" y2="217.14125214167342" stroke="#ff4444" stroke-width="1" opacity="0.8"/>
<rect x="176.0" y="199.2221161138106" width="6.3" height="3.923124455804242" fill="#ff4444" opacity="0.8"/>
<rect x="176.0" y="321.8502704686201" width="6.3" height="8.149729531379853" fill="#ff4444" opacity="0.3"/>
<line x1="191.75" y1="175.04718703480052" x2="191.75" y2="189.78541134174094" stroke="#ff4444" stroke-width="1" opacity="0.8"/>
<rect x="186.5" y="178.5461899278151" width="6.3" height="11.239221413925833" fill="#ff4444" opacity="0.8"/>
<rect x="186.5" y="320.62958387857725" width="6.3" height="9.370416121422773" fill="#ff4444" opacity="0.3"/>
<line x1="202.25" y1="171.23009296969363" x2="202.25" y2="185.86228688593658" stroke="#44aa44" stroke-width="1" opacity="0.8"/>
<rect x="197.0" y="178.33412914642017" width="6.3" height="3.49900289301479" fill="#44aa44" opacity="0.8"/>
<rect x="197.0" y="322.5101125268291" width="6.3" height="7.489887473170869" fill="#44aa44" opacity="0.3"/>
<line x1="212.75" y1="174.62306547201078" x2="212.75" y2="191.58792798359687" stroke="#44aa44" stroke-width="1" opacity="0.8"/>
<rect x="207.5" y="184.48389180687028" width="6.3" height="2.014577423250813" fill="#44aa44" opacity="0.8"/>
<rect x="207.5" y="323.9070555272348" width="6.3" height="6.0929444727652" fill="#44aa44" opacity="0.3"/>
<line x1="223.25" y1="188.8311378254642" x2="223.25" y2="201.4487543184563" stroke="#44aa44" stroke-width="1" opacity="0.8"/>
<rect x="218.0" y="192.9663230626633" width="6.3" height="7.2100665674240645" fill="#44aa44" opacity="0.8"/>
<rect x="218.0" y="324.5273990717262" width="6.3" height="5.4726009282737635" fill="#44aa44" opacity="0.3"/>
<line x1="233.75" y1="201.13066314636407" x2="233.75" y2="214.59652276493557" stroke="#44aa44" stroke-width="1" opacity="0.8"/>
<rect x="228.5" y="202.29699744403558" width="6.3" height="4.559306799988775" fill="#44aa44" opacity="0.8"/>
<rect x="228.5" y="323.67083168677505" width="6.3" height="6.3291683132249394" fill="#44aa44" opacity="0.3"/>
<line x1="244.25" y1="197.52562986265207" x2="244.25" y2="219.47392073701658" stroke="#44aa44" stroke-width="1" opacity="0.8"/>
<rect x="239.0" y="199.32814650450803" width="6.3" height="18.025166418560246" fill="#44aa44" opacity="0.8"/>
<rect x="239.0" y="323.8307101498267" width="6.3" height="6.169289850173284" fill="#44aa44" opacity="0.3"/>
<line x1="254.75" y1="213.32415807656653" x2="254.75" y2="227.42620003932254" stroke="#ff4444" stroke-width="1" opacity="0.8"/>
<rect x="249.5" y="216.29300901609415" width="6.3" height="2.1206078139482827" fill="#ff4444" opacity="0.8"/>
<rect x="249.5" y="323.0959594412177" width="6.3" height="6.904040558782278" fill="#ff4444" opacity="0.3"/>
<line x1="265.25" y1="225.0935314439794" x2="265.25" y2="240.14984692301206" stroke="#44aa44" stroke-width="1" opacity="0.8"/>
<rect x="260.0" y="225.0935314439794" width="6.3" height="12.829677274386995" fill="#44aa44" opacity="0.8"/>
<rect x="260.0" y="322.63274458277743" width="6.3" height="7.367255417222561" fill="#44aa44" opacity="0.3"/>
<line x1="275.75" y1="231.56138527652166" x2="275.75" y2="254.14585849507063" stroke="#44aa44" stroke-width="1" opacity="0.8"/>
<rect x="270.5" y="231.66741566721907" width="6.3" height="20.145774232508472" fill="#44aa44" opacity="0.8"/>
<rect x="270.5" y="321.63344614567404" width="6.3" height="8.366553854325954" fill="#44aa44" opacity="0.3"/>
<line x1="286.25" y1="243.3307586439345" x2="286.25" y2="275.67002780664546" stroke="#44aa44" stroke-width="1" opacity="0.8"/>
<rect x="281.0" y="263.476532876443" width="6.3" height="1.0603039069741271" fill="#44aa44" opacity="0.8"/>
<rect x="281.0" y="319.631715873544" width="6.3" height="10.368284126456013" fill="#44aa44" opacity="0.3"/>
<line x1="296.75" y1="253.1915849787939" x2="296.75" y2="283.0921551554644" stroke="#44aa44" stroke-width="1" opacity="0.8"/>
<rect x="291.5" y="254.46394966716286" width="6.3" height="9.86082633485944" fill="#44aa44" opacity="0.8"/>
<rect x="291.5" y="320.20976113810445" width="6.3" height="9.790238861895537" fill="#44aa44" opacity="0.3"/>
<line x1="307.25" y1="250.43479482066112" x2="307.25" y2="267.61171811364216" stroke="#ff4444" stroke-width="1" opacity="0.8"/>
<rect x="302.0" y="256.5845574811112" width="6.3" height="7.634188130213715" fill="#ff4444" opacity="0.8"/>
<rect x="302.0" y="317.1414665736892" width="6.3" height="12.8585334263108" fill="#ff4444" opacity="0.3"/>
<line x1="317.75" y1="233.68199309046986" x2="317.75" y2="254.99410162064993" stroke="#ff4444" stroke-width="1" opacity="0.8"/>
<rect x="312.5" y="252.7674634160043" width="6.3" height="1.8025166418559877" fill="#ff4444" opacity="0.8"/>
<rect x="312.5" y="316.4721502636172" width="6.3" height="13.52784973638281" fill="#ff4444" opacity="0.3"/>
<line x1="328.25" y1="251.2830379462405" x2="328.25" y2="266.1272926438783" stroke="#ff4444" stroke-width="1" opacity="0.8"/>
<rect x="323.0" y="256.6905878718086" width="6.3" height="7.104036176726652" fill="#ff4444" opacity="0.8"/>
<rect x="323.0" y="322.35394622569913" width="6.3" height="7.646053774300893" fill="#ff4444" opacity="0.3"/>
<line x1="338.75" y1="257.9629525601775" x2="338.75" y2="271.3227817880516" stroke="#ff4444" stroke-width="1" opacity="0.8"/>
<rect x="333.5" y="260.8257731090076" width="6.3" height="7.316096958121534" fill="#ff4444" opacity="0.8"/>
<rect x="333.5" y="323.5852775557681" width="6.3" height="6.414722444231928" fill="#ff4444" opacity="0.3"/>
<line x1="349.25" y1="244.1790017695138" x2="349.25" y2="267.1875965508525" stroke="#44aa44" stroke-width="1" opacity="0.8"/>
<rect x="344.0" y="259.87149959273097" width="6.3" height="7.316096958121534" fill="#44aa44" opacity="0.8"/>
<rect x="344.0" y="323.1410967381515" width="6.3" height="6.858903261848512" fill="#44aa44" opacity="0.3"/>
<line x1="359.75" y1="241.84633317417075" x2="359.75" y2="255.52425357413702" stroke="#ff4444" stroke-width="1" opacity="0.8"/>
<rect x="354.5" y="247.2538830997388" width="6.3" height="7.528157739516303" fill="#ff4444" opacity="0.8"/>
<rect x="354.5" y="320.0330248312978" width="6.3" height="9.96697516870222" fill="#ff4444" opacity="0.3"/>
<line x1="370.25" y1="229.01665589978373" x2="370.25" y2="250.7528859927534" stroke="#44aa44" stroke-width="1" opacity="0.8"/>
<rect x="365.0" y="241.63427239277587" width="6.3" height="5.831671488357756" fill="#44aa44" opacity="0.8"/>
<rect x="365.0" y="318.6961470176721" width="6.3" height="11.303852982327879" fill="#44aa44" opacity="0.3"/>
<line x1="380.75" y1="240.7860292671966" x2="380.75" y2="261.5679858438896" stroke="#44aa44" stroke-width="1" opacity="0.8"/>
<rect x="375.5" y="241.74030278347325" width="6.3" height="16.434710558099113" fill="#44aa44" opacity="0.8"/>
<rect x="375.5" y="323.9798905510252" width="6.3" height="6.020109448974778" fill="#44aa44" opacity="0.3"/>
<line x1="391.25" y1="258.17501334157237" x2="391.25" y2="276.2001797601325" stroke="#44aa44" stroke-width="1" opacity="0.8"/>
<rect x="386.0" y="258.9172260764542" width="6.3" height="13.889981181361122" fill="#44aa44" opacity="0.8"/>
<rect x="386.0" y="322.496832799847" width="6.3" height="7.503167200152958" fill="#44aa44" opacity="0.3"/>
<line x1="401.75" y1="237.60511754627416" x2="401.75" y2="258.38707412296714" stroke="#ff4444" stroke-width="1" opacity="0.8"/>
<rect x="396.5" y="237.60511754627416" width="6.3" height="20.781956576692977" fill="#ff4444" opacity="0.8"/>
<rect x="396.5" y="317.20457591839016" width="6.3" height="12.795424081609818" fill="#ff4444" opacity="0.3"/>
<line x1="412.25" y1="245.45136645788273" x2="412.25" y2="257.0086790439008" stroke="#44aa44" stroke-width="1" opacity="0.8"/>
<rect x="407.0" y="246.61770075555427" width="6.3" height="4.347246018593978" fill="#44aa44" opacity="0.8"/>
<rect x="407.0" y="322.0017744424928" width="6.3" height="7.99822555750721" fill="#44aa44" opacity="0.3"/>
<line x1="422.75" y1="217.4593433137657" x2="422.75" y2="245.98151841136985" stroke="#ff4444" stroke-width="1" opacity="0.8"/>
<rect x="417.5" y="229.01665589978373" width="6.3" height="13.889981181361065" fill="#ff4444" opacity="0.8"/>
<rect x="417.5" y="316.98837923778393" width="6.3" height="13.011620762216051" fill="#ff4444" opacity="0.3"/>
<line x1="433.25" y1="230.28902058815265" x2="433.25" y2="242.16442434626296" stroke="#44aa44" stroke-width="1" opacity="0.8"/>
<rect x="428.0" y="238.24129989045866" width="6.3" height="1" fill="#44aa44" opacity="0.8"/>
<rect x="428.0" y="322.013032753821" width="6.3" height="7.986967246179004" fill="#44aa44" opacity="0.3"/>
<line x1="443.75" y1="225.62368339746652" x2="443.75" y2="241.52824200207849" stroke="#44aa44" stroke-width="1" opacity="0.8"/>
<rect x="438.5" y="230.92520293233719" width="6.3" height="1.9085470325534004" fill="#44aa44" opacity="0.8"/>
<rect x="438.5" y="319.78372307215994" width="6.3" height="10.21627692784008" fill="#44aa44" opacity="0.3"/>
<line x1="454.25" y1="225.19956183467687" x2="454.25" y2="246.61770075555427" stroke="#44aa44" stroke-width="1" opacity="0.8"/>
<rect x="449.0" y="226.15383535095356" width="6.3" height="16.434710558099056" fill="#44aa44" opacity="0.8"/>
<rect x="449.0" y="320.08879279721987" width="6.3" height="9.911207202780115" fill="#44aa44" opacity="0.3"/>
<line x1="464.75" y1="215.44476589051484" x2="464.75" y2="229.334747071876" stroke="#ff4444" stroke-width="1" opacity="0.8"/>
<rect x="459.5" y="220.95834620678033" width="6.3" height="1.696486251158575" fill="#ff4444" opacity="0.8"/>
<rect x="459.5" y="313.95710964677335" width="6.3" height="16.042890353226635" fill="#ff4444" opacity="0.3"/>
<line x1="475.25" y1="221.91261972305705" x2="475.25" y2="237.49908715557677" stroke="#ff4444" stroke-width="1" opacity="0.8"/>
<rect x="470.0" y="222.97292363003118" width="6.3" height="9.330674381372319" fill="#ff4444" opacity="0.8"/>
<rect x="470.0" y="319.7336968302036" width="6.3" height="10.266303169796418" fill="#ff4444" opacity="0.3"/>
<line x1="485.75" y1="218.09552565795016" x2="485.75" y2="233.25787152768024" stroke="#44aa44" stroke-width="1" opacity="0.8"/>
<rect x="480.5" y="218.30758643934504" width="6.3" height="8.906552818582668" fill="#44aa44" opacity="0.8"/>
<rect x="480.5" y="319.738483945348" width="6.3" height="10.261516054651995" fill="#44aa44" opacity="0.3"/>
<line x1="496.25" y1="220.7462854253855" x2="496.25" y2="243.86091059742154" stroke="#44aa44" stroke-width="1" opacity="0.8"/>
<rect x="491.0" y="231.13726371373195" width="6.3" height="4.559306799988747" fill="#44aa44" opacity="0.8"/>
<rect x="491.0" y="318.32350557750544" width="6.3" height="11.676494422494567" fill="#44aa44" opacity="0.3"/>
<line x1="506.75" y1="233.36390191837765" x2="506.75" y2="243.75488020672415" stroke="#ff4444" stroke-width="1" opacity="0.8"/>
<rect x="501.5" y="236.75687442069486" width="6.3" height="5.301519534870664" fill="#ff4444" opacity="0.8"/>
<rect x="501.5" y="320.5696842116355" width="6.3" height="9.430315788364483" fill="#ff4444" opacity="0.3"/>
<line x1="517.25" y1="238.55939106255087" x2="517.25" y2="261.9921074066792" stroke="#44aa44" stroke-width="1" opacity="0.8"/>
<rect x="512.0" y="238.55939106255087" width="6.3" height="16.22264977670423" fill="#44aa44" opacity="0.8"/>
<rect x="512.0" y="315.76625703160437" width="6.3" height="14.233742968395646" fill="#44aa44" opacity="0.3"/>
<line x1="527.75" y1="256.47852709041365" x2="527.75" y2="275.67002780664546" stroke="#44aa44" stroke-width="1" opacity="0.8"/>
<rect x="522.5" y="258.7051652950594" width="6.3" height="8.906552818582782" fill="#44aa44" opacity="0.8"/>
<rect x="522.5" y="320.41843129469885" width="6.3" height="9.58156870530118" fill="#44aa44" opacity="0.3"/>
<line x1="538.25" y1="238.55939106255087" x2="538.25" y2="269.73232592759035" stroke="#ff4444" stroke-width="1" opacity="0.8"/>
<rect x="533.0" y="245.87548802067238" width="6.3" height="22.37241243715414" fill="#ff4444" opacity="0.8"/>
<rect x="533.0" y="317.3554452144041" width="6.3" height="12.644554785595895" fill="#ff4444" opacity="0.3"/>
<line x1="548.75" y1="249.1624301322922" x2="548.75" y2="270.2624778810774" stroke="#44aa44" stroke-width="1" opacity="0.8"/>
<rect x="543.5" y="250.96494677414825" width="6.3" height="17.601044855770567" fill="#44aa44" opacity="0.8"/>
<rect x="543.5" y="320.5358822464469" width="6.3" height="9.464117753553117" fill="#44aa44" opacity="0.3"/>
<line x1="559.25" y1="255.84234474622926" x2="559.25" y2="275.45796702525064" stroke="#ff4444" stroke-width="1" opacity="0.8"/>
<rect x="554.0" y="258.9172260764542" width="6.3" height="16.22264977670426" fill="#ff4444" opacity="0.8"/>
<rect x="554.0" y="323.1553799522964" width="6.3" height="6.844620047703568" fill="#ff4444" opacity="0.3"/>
<line x1="569.75" y1="223.92719714630786" x2="569.75" y2="259.7654692020335" stroke="#ff4444" stroke-width="1" opacity="0.8"/>
<rect x="564.5" y="231.77344605791646" width="6.3" height="27.885992753419686" fill="#ff4444" opacity="0.8"/>
<rect x="564.5" y="311.4492722903646" width="6.3" height="18.5507277096354" fill="#ff4444" opacity="0.3"/>
<line x1="580.25" y1="202.8271493975227" x2="580.25" y2="227.95635199280957" stroke="#ff4444" stroke-width="1" opacity="0.8"/>
<rect x="575.0" y="211.62767182540796" width="6.3" height="14.420133134848214" fill="#ff4444" opacity="0.8"/>
<rect x="575.0" y="313.8217003480053" width="6.3" height="16.17829965199467" fill="#ff4444" opacity="0.3"/>
<line x1="590.75" y1="184.05977024408057" x2="590.75" y2="215.44476589051484" stroke="#ff4444" stroke-width="1" opacity="0.8"/>
<rect x="585.5" y="185.86228688593658" width="6.3" height="21.418138920877425" fill="#ff4444" opacity="0.8"/>
<rect x="585.5" y="311.6318495589819" width="6.3" height="18.36815044101806" fill="#ff4444" opacity="0.3"/>
<line x1="601.25" y1="139.6330365418645" x2="601.25" y2="192.1180799370839" stroke="#ff4444" stroke-width="1" opacity="0.8"/>
<rect x="596.0" y="160.20293233716262" width="6.3" height="28.522175097604077" fill="#ff4444" opacity="0.8"/>
<rect x="596.0" y="303.30092801561807" width="6.3" height="26.699071984381952" fill="#ff4444" opacity="0.3"/>
<line x1="611.75" y1="149.1757717046316" x2="611.75" y2="169.74566749992985" stroke="#44aa44" stroke-width="1" opacity="0.8"/>
<rect x="606.5" y="152.67477459764632" width="6.3" height="6.785945004634442" fill="#44aa44" opacity="0.8"/>
<rect x="606.5" y="311.96834287356745" width="6.3" height="18.03165712643257" fill="#44aa44" opacity="0.3"/>
<line x1="622.25" y1="144.6164649046429" x2="622.25" y2="167.3069685138893" stroke="#44aa44" stroke-width="1" opacity="0.8"/>
<rect x="617.0" y="153.7350785046204" width="6.3" height="4.771367581383629" fill="#44aa44" opacity="0.8"/>
<rect x="617.0" y="315.7389384821849" width="6.3" height="14.261061517815119" fill="#44aa44" opacity="0.3"/>
<line x1="632.75" y1="155.961716709266" x2="632.75" y2="176.6376428952616" stroke="#ff4444" stroke-width="1" opacity="0.8"/>
<rect x="627.5" y="158.0823245232143" width="6.3" height="8.058309693003451" fill="#ff4444" opacity="0.8"/>
<rect x="627.5" y="316.310361101761" width="6.3" height="13.689638898239018" fill="#ff4444" opacity="0.3"/>
<line x1="643.25" y1="150.55416678369804" x2="643.25" y2="179.92458500688144" stroke="#44aa44" stroke-width="1" opacity="0.8"/>
<rect x="638.0" y="153.20492655113338" width="6.3" height="26.189506502260997" fill="#44aa44" opacity="0.8"/>
<rect x="638.0" y="316.3381551041388" width="6.3" height="13.6618448958612" fill="#44aa44" opacity="0.3"/>
<line x1="653.75" y1="110.3686487093784" x2="653.75" y2="183.42358789989603" stroke="#ff4444" stroke-width="1" opacity="0.8"/>
<rect x="648.5" y="127.96969356514894" width="6.3" height="51.424739488245436" fill="#ff4444" opacity="0.8"/>
<rect x="648.5" y="295.0" width="6.3" height="35.0" fill="#ff4444" opacity="0.3"/>
<line x1="664.25" y1="96.6907283094122" x2="664.25" y2="132.63503075583526" stroke="#ff4444" stroke-width="1" opacity="0.8"/>
<rect x="659.0" y="112.17116535123445" width="6.3" height="15.056315479032676" fill="#ff4444" opacity="0.8"/>
<rect x="659.0" y="301.31798924405643" width="6.3" height="28.68201075594354" fill="#ff4444" opacity="0.3"/>
<line x1="674.75" y1="104.74903800241549" x2="674.75" y2="127.12145043956966" stroke="#44aa44" stroke-width="1" opacity="0.8"/>
<rect x="669.5" y="110.15658792798362" width="6.3" height="4.24121562789658" fill="#44aa44" opacity="0.8"/>
<rect x="669.5" y="313.0162356393952" width="6.3" height="16.98376436060485" fill="#44aa44" opacity="0.3"/>
<rect x="177.25" y="213.14125214167342" width="8" height="8" fill="#ff9800" opacity="0.85"/>
<text x="181.25" y="210.14125214167342" text-anchor="middle" font-size="8" font-weight="bold" fill="#ff9800">前低</text>
<rect x="198.25" y="167.23009296969363" width="8" height="8" fill="#ff9800" opacity="0.85"/>
<text x="202.25" y="164.23009296969363" text-anchor="middle" font-size="8" font-weight="bold" fill="#ff9800">前高</text>
<rect x="292.75" y="279.0921551554644" width="8" height="8" fill="#ff9800" opacity="0.85"/>
<text x="296.75" y="276.0921551554644" text-anchor="middle" font-size="8" font-weight="bold" fill="#ff9800">前低</text>
<rect x="366.25" y="225.01665589978373" width="8" height="8" fill="#ff9800" opacity="0.85"/>
<text x="370.25" y="222.01665589978373" text-anchor="middle" font-size="8" font-weight="bold" fill="#ff9800">前高</text>
<rect x="387.25" y="272.2001797601325" width="8" height="8" fill="#ff9800" opacity="0.85"/>
<text x="391.25" y="269.2001797601325" text-anchor="middle" font-size="8" font-weight="bold" fill="#ff9800">前低</text>
<rect x="418.75" y="213.4593433137657" width="8" height="8" fill="#ff9800" opacity="0.85"/>
<text x="422.75" y="210.4593433137657" text-anchor="middle" font-size="8" font-weight="bold" fill="#ff9800">前高</text>
<rect x="460.75" y="211.44476589051484" width="8" height="8" fill="#ff9800" opacity="0.85"/>
<text x="464.75" y="208.44476589051484" text-anchor="middle" font-size="8" font-weight="bold" fill="#ff9800">前高</text>
<rect x="523.75" y="271.67002780664546" width="8" height="8" fill="#ff9800" opacity="0.85"/>
<text x="527.75" y="268.67002780664546" text-anchor="middle" font-size="8" font-weight="bold" fill="#ff9800">前低</text>
<rect x="597.25" y="135.6330365418645" width="8" height="8" fill="#ff9800" opacity="0.85"/>
<text x="601.25" y="132.6330365418645" text-anchor="middle" font-size="8" font-weight="bold" fill="#ff9800">前高</text>
<rect x="618.25" y="154.50644608600402" width="8" height="8" fill="#2196f3" opacity="0.85"/>
<text x="622.25" y="151.50644608600402" text-anchor="middle" font-size="8" font-weight="bold" fill="#2196f3">中</text>
<rect x="628.75" y="154.0823245232143" width="8" height="8" fill="#2196f3" opacity="0.85"/>
<text x="632.75" y="151.0823245232143" text-anchor="middle" font-size="8" font-weight="bold" fill="#2196f3">中</text>
<text x="55.25" y="355" fill="#666666" font-size="8" text-anchor="middle" transform="rotate(-30,55.25,355)">02/11</text>
<text x="107.75" y="355" fill="#666666" font-size="8" text-anchor="middle" transform="rotate(-30,107.75,355)">02/26</text>
<text x="160.25" y="355" fill="#666666" font-size="8" text-anchor="middle" transform="rotate(-30,160.25,355)">03/05</text>
<text x="212.75" y="355" fill="#666666" font-size="8" text-anchor="middle" transform="rotate(-30,212.75,355)">03/12</text>
<text x="265.25" y="355" fill="#666666" font-size="8" text-anchor="middle" transform="rotate(-30,265.25,355)">03/19</text>
<text x="317.75" y="355" fill="#666666" font-size="8" text-anchor="middle" transform="rotate(-30,317.75,355)">03/26</text>
<text x="370.25" y="355" fill="#666666" font-size="8" text-anchor="middle" transform="rotate(-30,370.25,355)">04/02</text>
<text x="422.75" y="355" fill="#666666" font-size="8" text-anchor="middle" transform="rotate(-30,422.75,355)">04/10</text>
<text x="475.25" y="355" fill="#666666" font-size="8" text-anchor="middle" transform="rotate(-30,475.25,355)">04/17</text>
<text x="527.75" y="355" fill="#666666" font-size="8" text-anchor="middle" transform="rotate(-30,527.75,355)">04/24</text>
<text x="580.25" y="355" fill="#666666" font-size="8" text-anchor="middle" transform="rotate(-30,580.25,355)">05/06</text>
<text x="632.75" y="355" fill="#666666" font-size="8" text-anchor="middle" transform="rotate(-30,632.75,355)">05/13</text>
<text x="674.75" y="355" fill="#666666" font-size="8" text-anchor="middle" transform="rotate(-30,674.75,355)">05/19</text>
<rect x="50" y="334" width="7" height="7" fill="#ff9800" opacity="0.8" rx="1"/>
<text x="60" y="340" font-family="sans-serif" font-size="8" fill="#888888">第1类</text>
<rect x="120" y="334" width="7" height="7" fill="#2196f3" opacity="0.8" rx="1"/>
<text x="130" y="340" font-family="sans-serif" font-size="8" fill="#888888">第2类</text>
<rect x="190" y="334" width="7" height="7" fill="#ffd700" opacity="0.8" rx="1"/>
<text x="200" y="340" font-family="sans-serif" font-size="8" fill="#888888">EMA5</text>
<rect x="260" y="334" width="7" height="7" fill="#ff6b6b" opacity="0.8" rx="1"/>
<text x="270" y="340" font-family="sans-serif" font-size="8" fill="#888888">EMA10</text>
<rect x="330" y="334" width="7" height="7" fill="#4ecdc4" opacity="0.8" rx="1"/>
<text x="340" y="340" font-family="sans-serif" font-size="8" fill="#888888">EMA20</text>
</svg>