<svg xmlns="http://www.w3.org/2000/svg" width="700" height="380" viewBox="0 0 700 380">
<rect width="700" height="380" fill="#1a1a2e"/>
<text x="350.0" y="20" text-anchor="middle" font-family="sans-serif" font-size="14" font-weight="bold" fill="#ffffff">药明康德(603259)</text>
<line x1="50" y1="28.0000000000001" x2="680" y2="28.0000000000001" stroke="#2a2a4e" stroke-width="0.5"/>
<text x="46" y="31.0000000000001" text-anchor="end" font-size="9" fill="#666666">123.66</text>
<line x1="50" y1="128.65001883446803" x2="680" y2="128.65001883446803" stroke="#2a2a4e" stroke-width="0.5"/>
<text x="46" y="131.65001883446803" text-anchor="end" font-size="9" fill="#666666">109.15</text>
<line x1="50" y1="229.30003766893608" x2="680" y2="229.30003766893608" stroke="#2a2a4e" stroke-width="0.5"/>
<text x="46" y="232.30003766893608" text-anchor="end" font-size="9" fill="#666666">94.64</text>
<line x1="50" y1="330.0194224708985" x2="680" y2="330.0194224708985" stroke="#2a2a4e" stroke-width="0.5"/>
<text x="46" y="333.0194224708985" text-anchor="end" font-size="9" fill="#666666">80.12</text>
<polyline points="55.25,177.2755620480877 65.75,170.89389303859693 76.25,173.55292179255147 86.75,179.34883374320006 97.25,183.95267869690676 107.75,191.27635467237167 118.25,196.15880532268156 128.75,203.96880428835806 139.25,214.47040578421988 149.75,225.47157757364184 160.25,231.81144656583578 170.75,234.07265681495528 181.25,240.66696793062908 191.75,238.0109686458076 202.25,239.15367309069416 212.75,242.18143099210445 223.25,246.60462313285268 233.75,249.02161214256066 244.25,247.48834762261694 254.75,244.08460639201112 265.25,246.23174550208813 275.75,249.2354668386807 286.25,258.42888636000185 296.75,250.93898108946948 307.25,245.15956327751059 317.75,239.66495683883565 328.25,230.75319433930454 338.75,225.71377691704527 349.25,218.90898891664727 359.75,201.16980776993552 370.25,190.77725033368 380.75,191.2479152422526 391.25,188.53271126737596 401.75,181.0808099279085 412.25,170.44798835621546 422.75,163.03573279344602 433.25,159.52779241315196 443.75,155.24691840311093 454.25,151.74558669980186 464.75,152.11663829654663 475.25,166.86149323405292 485.75,175.83588292662535 496.25,184.6165700772837 506.75,188.85182226951852 517.25,189.50185674951504 527.75,190.18955495032586 538.25,189.63065289428087 548.75,166.02045241293868 559.25,148.86987741965632 569.75,141.20504499133403 580.25,137.36686610985106 590.75,129.53626665928306 601.25,134.67451817141114 611.75,133.6605972598508 622.25,129.26200972994093 632.75,129.5898185155742 643.25,143.47345330240591 653.75,152.4517459569825 664.25,160.93444922316766 674.75,167.19075645224308" fill="none" stroke="#ffd700" stroke-width="1" opacity="0.6"/>
<polyline points="55.25,177.2755620480877 65.75,173.79465167927458 76.25,174.717620337672 86.75,177.6672634843675 97.25,180.48419168799526 107.75,185.1095580398691 118.25,188.89394869140227 128.75,194.47483115109475 139.25,201.92915435561264 149.75,210.2100210459532 160.25,216.44295986491147 170.75,220.47061758278113 181.25,226.54061259718034 191.75,227.66031395699565 202.25,230.1655445067178 212.75,233.45125401366454 223.25,237.45120917742537 233.75,240.43382390188924 244.25,241.15891384386015 254.75,240.45313385966733 265.25,242.2845683801355 275.75,244.64063040408644 286.25,250.49064767655145 296.75,247.84856092597934 307.25,245.25804578554545 317.75,242.24308181753463 328.25,236.91337045802692 338.75,233.04456529702685 349.25,227.99999213681315 359.75,216.6711654713039 370.25,208.18406910582482 380.75,205.2759192792017 391.25,201.2443527407328 401.75,194.86847174223115 412.25,186.56190328233993 422.75,179.5890520797158 433.25,174.66593563841545 443.75,169.5785237737997 454.25,165.0629600500514 464.75,162.84401122095773 475.25,168.93622792788636 485.75,173.45412508859246 496.25,178.6766376867757 506.75,182.06676295354157 517.25,183.6549743637174 527.75,185.09315199794102 538.25,185.71491504962282 548.75,173.548576213374 559.25,162.82496734423177 569.75,156.10686057886048 580.25,151.30388744577405 590.75,144.49864750256918 601.25,144.58089726495064 611.75,142.22668965981967 622.25,138.26998875260176 632.75,136.8109791770089 643.25,143.07093257683806 653.75,148.0413687021649 664.25,153.4701845300509 674.75,158.2398547810223" fill="none" stroke="#ff6b6b" stroke-width="1" opacity="0.6"/>
<polyline points="55.25,177.2755620480877 65.75,175.45222804537605 76.25,175.77782340300308 86.75,177.22190285457398 97.25,178.73985197359738 107.75,181.32879051166447 118.25,183.67116347467754 128.75,187.0918909742045 139.25,191.69967362198915 149.75,197.01150672013165 160.25,201.53338079918802 170.75,205.06306618147443 181.25,209.70997322723653 191.75,211.89940149856298 202.25,214.71270440160148 212.75,217.90548939144182 223.25,221.48125301267115 233.75,224.56452321736688 244.25,226.4556942045443 254.75,227.48630655942577 265.25,229.68056533683685 275.75,232.11507430588722 286.25,236.37227917224504 296.75,236.33293549378408 307.25,236.0727252232897 317.75,235.36825081740363 328.25,233.23124305767402 338.75,231.55540486861233 349.25,229.0548342064446 359.75,223.02022575597485 370.25,217.96993144218382 380.75,215.5146279771566 391.25,212.42773991434385 401.75,208.02290823192763 412.25,202.41904508725167 422.75,197.25639523779026 433.25,192.99501584872112 443.75,188.5845543757981 454.25,184.40916093935866 464.75,181.4043590870422 475.25,182.8278680415206 485.75,183.87137225773478 496.25,185.6148553168648 506.75,186.72985258706706 517.25,187.1176690749186 527.75,187.54121976796895 538.25,187.63375586456152 548.75,181.07816496796087 559.25,174.74393282178283 569.75,170.08978494682157 580.25,166.2422347944466 590.75,161.25488555289428 601.25,159.70213656649165 611.75,157.02886217318098 622.25,153.54657383955623 632.75,151.3274178631071 643.25,153.2239231024368 653.75,154.86053340374144 664.25,157.05475458010307 674.75,159.21176565917835" fill="none" stroke="#4ecdc4" stroke-width="1" opacity="0.6"/>
<line x1="55.25" y1="172.69740819345304" x2="55.25" y2="185.18328234245664" stroke="#ff4444" stroke-width="1" opacity="0.8"/>
<rect x="50.0" y="177.2755620480877" width="6.3" height="1.9422470898450115" fill="#ff4444" opacity="0.8"/>
<rect x="50.0" y="320.18067793901946" width="6.3" height="9.81932206098055" fill="#ff4444" opacity="0.3"/>
<line x1="65.75" y1="146.47707248054547" x2="65.75" y2="175.40268092573717" stroke="#ff4444" stroke-width="1" opacity="0.8"/>
<rect x="60.5" y="158.13055501961546" width="6.3" height="14.9136830113099" fill="#ff4444" opacity="0.8"/>
<rect x="60.5" y="312.29336553615644" width="6.3" height="17.706634463843574" fill="#ff4444" opacity="0.3"/>
<line x1="76.25" y1="158.19992098710995" x2="76.25" y2="179.7727368778884" stroke="#44aa44" stroke-width="1" opacity="0.8"/>
<rect x="71.0" y="158.19992098710995" width="6.3" height="20.671058313350443" fill="#44aa44" opacity="0.8"/>
<rect x="71.0" y="318.90399628509397" width="6.3" height="11.096003714906027" fill="#44aa44" opacity="0.3"/>
<line x1="86.75" y1="165.2058837040509" x2="86.75" y2="192.1198790919031" stroke="#44aa44" stroke-width="1" opacity="0.8"/>
<rect x="81.5" y="166.7319349889291" width="6.3" height="24.208722655568067" fill="#44aa44" opacity="0.8"/>
<rect x="81.5" y="318.97545602152366" width="6.3" height="11.024543978476334" fill="#44aa44" opacity="0.3"/>
<line x1="97.25" y1="188.30475087970757" x2="97.25" y2="204.4670213059178" stroke="#44aa44" stroke-width="1" opacity="0.8"/>
<rect x="92.0" y="191.4262194169585" width="6.3" height="1.7341491873616235" fill="#44aa44" opacity="0.8"/>
<rect x="92.0" y="320.6748279836302" width="6.3" height="9.325172016369752" fill="#44aa44" opacity="0.3"/>
<line x1="107.75" y1="193.6459303767813" x2="107.75" y2="207.3803919406853" stroke="#44aa44" stroke-width="1" opacity="0.8"/>
<rect x="102.5" y="195.38007956414293" width="6.3" height="10.543627059158581" fill="#44aa44" opacity="0.8"/>
<rect x="102.5" y="321.78219085714136" width="6.3" height="8.217809142858648" fill="#44aa44" opacity="0.3"/>
<line x1="118.25" y1="198.50154810139384" x2="118.25" y2="211.68108192534203" stroke="#ff4444" stroke-width="1" opacity="0.8"/>
<rect x="113.0" y="205.9237066233015" width="6.3" height="1" fill="#ff4444" opacity="0.8"/>
<rect x="113.0" y="322.0933318722713" width="6.3" height="7.906668127728746" fill="#ff4444" opacity="0.3"/>
<line x1="128.75" y1="203.4958977609953" x2="128.75" y2="222.91836865944532" stroke="#44aa44" stroke-width="1" opacity="0.8"/>
<rect x="123.5" y="219.1726064147443" width="6.3" height="1" fill="#44aa44" opacity="0.8"/>
<rect x="123.5" y="318.7304920558065" width="6.3" height="11.26950794419349" fill="#44aa44" opacity="0.3"/>
<line x1="139.25" y1="206.33990242826832" x2="139.25" y2="235.95917054840461" stroke="#44aa44" stroke-width="1" opacity="0.8"/>
<rect x="134.0" y="217.64655512986607" width="6.3" height="17.82705364607733" fill="#44aa44" opacity="0.8"/>
<rect x="134.0" y="317.79910001100313" width="6.3" height="12.200899988996865" fill="#44aa44" opacity="0.3"/>
<line x1="149.75" y1="231.10355282379217" x2="149.75" y2="250.73412162472562" stroke="#44aa44" stroke-width="1" opacity="0.8"/>
<rect x="144.5" y="238.59507731319434" width="6.3" height="8.878843839291449" fill="#44aa44" opacity="0.8"/>
<rect x="144.5" y="320.02884601310683" width="6.3" height="9.97115398689317" fill="#44aa44" opacity="0.3"/>
<line x1="160.25" y1="232.5602381411759" x2="160.25" y2="248.58377663239722" stroke="#44aa44" stroke-width="1" opacity="0.8"/>
<rect x="155.0" y="237.4852218332829" width="6.3" height="7.005962716940843" fill="#44aa44" opacity="0.8"/>
<rect x="155.0" y="321.20045046445506" width="6.3" height="8.799549535544966" fill="#44aa44" opacity="0.3"/>
<line x1="170.75" y1="232.00531040122019" x2="170.75" y2="247.2658232500024" stroke="#ff4444" stroke-width="1" opacity="0.8"/>
<rect x="165.5" y="238.59507731319434" width="6.3" height="6.936596749446437" fill="#ff4444" opacity="0.8"/>
<rect x="165.5" y="320.9665638275403" width="6.3" height="9.033436172459696" fill="#ff4444" opacity="0.3"/>
<line x1="181.25" y1="249.13870437235292" x2="181.25" y2="267.72878366086945" stroke="#44aa44" stroke-width="1" opacity="0.8"/>
<rect x="176.0" y="249.69363211230862" width="6.3" height="4.1619580496679305" fill="#44aa44" opacity="0.8"/>
<rect x="176.0" y="318.27954298805963" width="6.3" height="11.720457011940386" fill="#44aa44" opacity="0.3"/>
<line x1="191.75" y1="229.577501538914" x2="191.75" y2="244.8380143876961" stroke="#ff4444" stroke-width="1" opacity="0.8"/>
<rect x="186.5" y="232.69897007616478" width="6.3" height="11.445384636586681" fill="#ff4444" opacity="0.8"/>
<rect x="186.5" y="320.27432159722275" width="6.3" height="9.725678402777238" fill="#ff4444" opacity="0.3"/>
<line x1="202.25" y1="227.14969267660763" x2="202.25" y2="244.0056227777626" stroke="#44aa44" stroke-width="1" opacity="0.8"/>
<rect x="197.0" y="231.65848056374787" width="6.3" height="9.780601416719463" fill="#44aa44" opacity="0.8"/>
<rect x="197.0" y="321.579289593034" width="6.3" height="8.420710406965982" fill="#44aa44" opacity="0.3"/>
<line x1="212.75" y1="236.306000385877" x2="212.75" y2="254.47988386942666" stroke="#44aa44" stroke-width="1" opacity="0.8"/>
<rect x="207.5" y="241.43908198046734" width="6.3" height="6.797864814457569" fill="#44aa44" opacity="0.8"/>
<rect x="207.5" y="320.7507052640646" width="6.3" height="9.249294735935374" fill="#44aa44" opacity="0.3"/>
<line x1="223.25" y1="246.5721635750577" x2="223.25" y2="256.49149692676616" stroke="#44aa44" stroke-width="1" opacity="0.8"/>
<rect x="218.0" y="253.50876032450415" width="6.3" height="1.942247089844983" fill="#44aa44" opacity="0.8"/>
<rect x="218.0" y="322.36067552696" width="6.3" height="7.639324473040017" fill="#44aa44" opacity="0.3"/>
<line x1="233.75" y1="250.942219527209" x2="233.75" y2="267.52068575838604" stroke="#ff4444" stroke-width="1" opacity="0.8"/>
<rect x="228.5" y="253.85559016197655" width="6.3" height="2.9133706347674035" fill="#ff4444" opacity="0.8"/>
<rect x="228.5" y="320.6472298542651" width="6.3" height="9.352770145734889" fill="#ff4444" opacity="0.3"/>
<line x1="244.25" y1="229.7162334739029" x2="244.25" y2="253.71685822698754" stroke="#ff4444" stroke-width="1" opacity="0.8"/>
<rect x="239.0" y="244.42181858272937" width="6.3" height="7.83835432687448" fill="#ff4444" opacity="0.8"/>
<rect x="239.0" y="316.24783535250174" width="6.3" height="13.752164647498287" fill="#ff4444" opacity="0.3"/>
<line x1="254.75" y1="236.86092812583271" x2="254.75" y2="246.6415295425522" stroke="#ff4444" stroke-width="1" opacity="0.8"/>
<rect x="249.5" y="237.27712393079952" width="6.3" height="7.0753286844353624" fill="#ff4444" opacity="0.8"/>
<rect x="249.5" y="322.1682888450534" width="6.3" height="7.831711154946603" fill="#ff4444" opacity="0.3"/>
<line x1="265.25" y1="242.47957149288436" x2="265.25" y2="252.88446661705404" stroke="#44aa44" stroke-width="1" opacity="0.8"/>
<rect x="260.0" y="247.61265308747468" width="6.3" height="2.9133706347675172" fill="#44aa44" opacity="0.8"/>
<rect x="260.0" y="321.90301621895196" width="6.3" height="8.096983781048046" fill="#44aa44" opacity="0.3"/>
<line x1="275.75" y1="236.58346425585484" x2="275.75" y2="255.24290951186578" stroke="#44aa44" stroke-width="1" opacity="0.8"/>
<rect x="270.5" y="250.59538968973672" width="6.3" height="4.6475198221290555" fill="#44aa44" opacity="0.8"/>
<rect x="270.5" y="321.57604967954484" width="6.3" height="8.423950320455143" fill="#44aa44" opacity="0.3"/>
<line x1="286.25" y1="257.87881627665547" x2="286.25" y2="281.67134312725676" stroke="#44aa44" stroke-width="1" opacity="0.8"/>
<rect x="281.0" y="266.2720983434856" width="6.3" height="10.54362705915861" fill="#44aa44" opacity="0.8"/>
<rect x="281.0" y="316.0730239903427" width="6.3" height="13.92697600965731" fill="#44aa44" opacity="0.3"/>
<line x1="296.75" y1="235.95917054840461" x2="296.75" y2="261.4858465863676" stroke="#ff4444" stroke-width="1" opacity="0.8"/>
<rect x="291.5" y="235.95917054840461" width="6.3" height="25.52667603796297" fill="#ff4444" opacity="0.8"/>
<rect x="291.5" y="304.5307706295499" width="6.3" height="25.469229370450076" fill="#ff4444" opacity="0.3"/>
<line x1="307.25" y1="227.28842461159655" x2="307.25" y2="240.81478827301714" stroke="#44aa44" stroke-width="1" opacity="0.8"/>
<rect x="302.0" y="229.36940363643058" width="6.3" height="4.231324017162308" fill="#44aa44" opacity="0.8"/>
<rect x="302.0" y="317.549572853177" width="6.3" height="12.450427146823024" fill="#44aa44" opacity="0.3"/>
<line x1="317.75" y1="216.39796771496566" x2="317.75" y2="232.14404233620908" stroke="#ff4444" stroke-width="1" opacity="0.8"/>
<rect x="312.5" y="228.67574396148586" width="6.3" height="1.94224708984504" fill="#ff4444" opacity="0.8"/>
<rect x="312.5" y="317.4682396553013" width="6.3" height="12.531760344698656" fill="#ff4444" opacity="0.3"/>
<line x1="328.25" y1="211.12615418538635" x2="328.25" y2="235.0574129709766" stroke="#ff4444" stroke-width="1" opacity="0.8"/>
<rect x="323.0" y="212.92966934024244" width="6.3" height="21.503449923283966" fill="#ff4444" opacity="0.8"/>
<rect x="323.0" y="314.9003569469355" width="6.3" height="15.099643053064511" fill="#ff4444" opacity="0.3"/>
<line x1="338.75" y1="213.55396304769266" x2="338.75" y2="229.50813557141947" stroke="#ff4444" stroke-width="1" opacity="0.8"/>
<rect x="333.5" y="215.63494207252657" width="6.3" height="4.9249836921069345" fill="#ff4444" opacity="0.8"/>
<rect x="333.5" y="317.58551396159856" width="6.3" height="12.414486038401453" fill="#ff4444" opacity="0.3"/>
<line x1="349.25" y1="190.66319377451939" x2="349.25" y2="214.66381852760406" stroke="#ff4444" stroke-width="1" opacity="0.8"/>
<rect x="344.0" y="205.2994129158514" width="6.3" height="9.364405611752659" fill="#ff4444" opacity="0.8"/>
<rect x="344.0" y="312.2921673870858" width="6.3" height="17.707832612914206" fill="#ff4444" opacity="0.3"/>
<line x1="359.75" y1="163.61046645167818" x2="359.75" y2="205.43814485084027" stroke="#ff4444" stroke-width="1" opacity="0.8"/>
<rect x="354.5" y="165.69144547651211" width="6.3" height="26.012237810424182" fill="#ff4444" opacity="0.8"/>
<rect x="354.5" y="303.41749370299" width="6.3" height="26.582506297010013" fill="#ff4444" opacity="0.3"/>
<line x1="370.25" y1="160.21153404444948" x2="370.25" y2="176.3044385031652" stroke="#ff4444" stroke-width="1" opacity="0.8"/>
<rect x="365.0" y="169.99213546116894" width="6.3" height="1.3179533823947907" fill="#ff4444" opacity="0.8"/>
<rect x="365.0" y="314.0785373501277" width="6.3" height="15.921462649872309" fill="#ff4444" opacity="0.3"/>
<line x1="380.75" y1="182.75547348015044" x2="380.75" y2="200.16633132126097" stroke="#44aa44" stroke-width="1" opacity="0.8"/>
<rect x="375.5" y="187.26426136729054" width="6.3" height="4.924983692107048" fill="#44aa44" opacity="0.8"/>
<rect x="375.5" y="314.60667318576884" width="6.3" height="15.393326814231182" fill="#44aa44" opacity="0.3"/>
<line x1="391.25" y1="169.50657368870765" x2="391.25" y2="203.0797019560285" stroke="#ff4444" stroke-width="1" opacity="0.8"/>
<rect x="386.0" y="183.10230331762273" width="6.3" height="8.878843839291449" fill="#ff4444" opacity="0.8"/>
<rect x="386.0" y="318.6543968077703" width="6.3" height="11.345603192229712" fill="#ff4444" opacity="0.3"/>
<line x1="401.75" y1="162.08441516679997" x2="401.75" y2="184.00406089505074" stroke="#44aa44" stroke-width="1" opacity="0.8"/>
<rect x="396.5" y="164.3734920941173" width="6.3" height="1.8035151548561146" fill="#44aa44" opacity="0.8"/>
<rect x="396.5" y="314.4423737148525" width="6.3" height="15.557626285147505" fill="#44aa44" opacity="0.3"/>
<line x1="412.25" y1="138.8468160561543" x2="412.25" y2="171.51818674604715" stroke="#ff4444" stroke-width="1" opacity="0.8"/>
<rect x="407.0" y="149.18234521282957" width="6.3" height="17.064028003638214" fill="#ff4444" opacity="0.8"/>
<rect x="407.0" y="313.95417472396366" width="6.3" height="16.045825276036314" fill="#ff4444" opacity="0.3"/>
<line x1="422.75" y1="138.9855479911433" x2="422.75" y2="153.89923100245312" stroke="#ff4444" stroke-width="1" opacity="0.8"/>
<rect x="417.5" y="148.21122166790707" width="6.3" height="2.289076927317325" fill="#ff4444" opacity="0.8"/>
<rect x="417.5" y="319.1109423955164" width="6.3" height="10.889057604483583" fill="#ff4444" opacity="0.3"/>
<line x1="433.25" y1="145.08975313065616" x2="433.25" y2="158.06118905212105" stroke="#44aa44" stroke-width="1" opacity="0.8"/>
<rect x="428.0" y="151.8876179451137" width="6.3" height="1" fill="#44aa44" opacity="0.8"/>
<rect x="428.0" y="321.60390916821035" width="6.3" height="8.396090831789644" fill="#44aa44" opacity="0.3"/>
<line x1="443.75" y1="144.95102119566724" x2="443.75" y2="163.5411004841837" stroke="#44aa44" stroke-width="1" opacity="0.8"/>
<rect x="438.5" y="145.57531490311746" width="6.3" height="1.1098554799114027" fill="#44aa44" opacity="0.8"/>
<rect x="438.5" y="319.56667329571366" width="6.3" height="10.433326704286324" fill="#44aa44" opacity="0.3"/>
<line x1="454.25" y1="131.42465753424665" x2="454.25" y2="154.38479277491442" stroke="#44aa44" stroke-width="1" opacity="0.8"/>
<rect x="449.0" y="134.54612607149758" width="6.3" height="10.196797221686268" fill="#44aa44" opacity="0.8"/>
<rect x="449.0" y="317.6267565937434" width="6.3" height="12.373243406256599" fill="#44aa44" opacity="0.3"/>
<line x1="464.75" y1="137.4594967062651" x2="464.75" y2="153.34430326249742" stroke="#44aa44" stroke-width="1" opacity="0.8"/>
<rect x="459.5" y="142.80067620333884" width="6.3" height="10.05806528669737" fill="#44aa44" opacity="0.8"/>
<rect x="459.5" y="318.3061804454018" width="6.3" height="11.693819554598198" fill="#44aa44" opacity="0.3"/>
<line x1="475.25" y1="156.95133357220965" x2="475.25" y2="197.18359471899902" stroke="#44aa44" stroke-width="1" opacity="0.8"/>
<rect x="470.0" y="157.43689534467086" width="6.3" height="38.91430776439455" fill="#44aa44" opacity="0.8"/>
<rect x="470.0" y="303.8545843367924" width="6.3" height="26.145415663207608" fill="#44aa44" opacity="0.3"/>
<line x1="485.75" y1="190.80192570950828" x2="485.75" y2="203.77336163097317" stroke="#ff4444" stroke-width="1" opacity="0.8"/>
<rect x="480.5" y="193.78466231177023" width="6.3" height="2.5665407972951755" fill="#ff4444" opacity="0.8"/>
<rect x="480.5" y="317.42181020152" width="6.3" height="12.578189798480013" fill="#ff4444" opacity="0.3"/>
<line x1="496.25" y1="192.1892450593976" x2="496.25" y2="208.6983453230801" stroke="#44aa44" stroke-width="1" opacity="0.8"/>
<rect x="491.0" y="195.58817746662632" width="6.3" height="6.589766911974152" fill="#44aa44" opacity="0.8"/>
<rect x="491.0" y="319.9302049094396" width="6.3" height="10.069795090560396" fill="#44aa44" opacity="0.3"/>
<line x1="506.75" y1="193.5071984417924" x2="506.75" y2="205.1606809808624" stroke="#ff4444" stroke-width="1" opacity="0.8"/>
<rect x="501.5" y="197.32232665398791" width="6.3" height="7.2834265869187504" fill="#ff4444" opacity="0.8"/>
<rect x="501.5" y="320.89517405601987" width="6.3" height="9.104825943980154" fill="#ff4444" opacity="0.3"/>
<line x1="517.25" y1="183.31040122010612" x2="517.25" y2="199.81950148378863" stroke="#ff4444" stroke-width="1" opacity="0.8"/>
<rect x="512.0" y="190.80192570950828" width="6.3" height="1.8728811223505204" fill="#ff4444" opacity="0.8"/>
<rect x="512.0" y="318.0086886422282" width="6.3" height="11.9913113577718" fill="#ff4444" opacity="0.3"/>
<line x1="527.75" y1="182.96357138263383" x2="527.75" y2="203.98145953345647" stroke="#ff4444" stroke-width="1" opacity="0.8"/>
<rect x="522.5" y="191.56495135194737" width="6.3" height="7.283426586918779" fill="#ff4444" opacity="0.8"/>
<rect x="522.5" y="319.29208322737287" width="6.3" height="10.707916772627144" fill="#ff4444" opacity="0.3"/>
<line x1="538.25" y1="183.86532896006185" x2="538.25" y2="197.94662036143814" stroke="#ff4444" stroke-width="1" opacity="0.8"/>
<rect x="533.0" y="188.51284878219096" width="6.3" height="3.884494179690023" fill="#ff4444" opacity="0.8"/>
<rect x="533.0" y="319.1622963025247" width="6.3" height="10.837703697475346" fill="#ff4444" opacity="0.3"/>
<line x1="548.75" y1="118.80005145025416" x2="548.75" y2="136.4883731613426" stroke="#ff4444" stroke-width="1" opacity="0.8"/>
<rect x="543.5" y="118.80005145025416" width="6.3" height="1" fill="#ff4444" opacity="0.8"/>
<rect x="543.5" y="311.89078576657334" width="6.3" height="18.109214233426638" fill="#ff4444" opacity="0.3"/>
<line x1="559.25" y1="91.53922622492956" x2="559.25" y2="123.30883933739429" stroke="#ff4444" stroke-width="1" opacity="0.8"/>
<rect x="554.0" y="114.56872743309174" width="6.3" height="1.248587414900399" fill="#ff4444" opacity="0.8"/>
<rect x="554.0" y="295.0" width="6.3" height="35.0" fill="#ff4444" opacity="0.3"/>
<line x1="569.75" y1="115.74794888049765" x2="569.75" y2="146.19960861056757" stroke="#44aa44" stroke-width="1" opacity="0.8"/>
<rect x="564.5" y="122.75391159743859" width="6.3" height="3.1214685372509337" fill="#44aa44" opacity="0.8"/>
<rect x="564.5" y="309.92460766864804" width="6.3" height="20.075392331351964" fill="#44aa44" opacity="0.3"/>
<line x1="580.25" y1="110.6842332534018" x2="580.25" y2="136.6271050963315" stroke="#44aa44" stroke-width="1" opacity="0.8"/>
<rect x="575.0" y="111.4472588958409" width="6.3" height="18.24324945104415" fill="#44aa44" opacity="0.8"/>
<rect x="575.0" y="311.80500676963356" width="6.3" height="18.194993230366453" fill="#44aa44" opacity="0.3"/>
<line x1="590.75" y1="106.73037310621727" x2="590.75" y2="128.30318899699574" stroke="#ff4444" stroke-width="1" opacity="0.8"/>
<rect x="585.5" y="113.87506775814713" width="6.3" height="10.682358994147577" fill="#ff4444" opacity="0.8"/>
<rect x="585.5" y="313.82168674997536" width="6.3" height="16.17831325002467" fill="#ff4444" opacity="0.3"/>
<line x1="601.25" y1="121.36659224754928" x2="601.25" y2="145.64468087061186" stroke="#44aa44" stroke-width="1" opacity="0.8"/>
<rect x="596.0" y="122.6845456299441" width="6.3" height="22.26647556572314" fill="#44aa44" opacity="0.8"/>
<rect x="596.0" y="314.68388450865524" width="6.3" height="15.31611549134477" fill="#44aa44" opacity="0.3"/>
<line x1="611.75" y1="129.82924028187392" x2="611.75" y2="153.9685969699476" stroke="#ff4444" stroke-width="1" opacity="0.8"/>
<rect x="606.5" y="131.63275543673006" width="6.3" height="14.358755271354084" fill="#ff4444" opacity="0.8"/>
<rect x="606.5" y="311.86309816285313" width="6.3" height="18.13690183714685" fill="#ff4444" opacity="0.3"/>
<line x1="622.25" y1="100.83426586918783" x2="622.25" y2="138.4306202511876" stroke="#ff4444" stroke-width="1" opacity="0.8"/>
<rect x="617.0" y="120.46483467012128" width="6.3" height="16.162270426210213" fill="#ff4444" opacity="0.8"/>
<rect x="617.0" y="308.137960873297" width="6.3" height="21.862039126703003" fill="#ff4444" opacity="0.3"/>
<line x1="632.75" y1="114.70745936808073" x2="632.75" y2="137.0433009012983" stroke="#44aa44" stroke-width="1" opacity="0.8"/>
<rect x="627.5" y="119.70180902768216" width="6.3" height="10.543627059158595" fill="#44aa44" opacity="0.8"/>
<rect x="627.5" y="318.17574129959684" width="6.3" height="11.824258700403156" fill="#44aa44" opacity="0.3"/>
<line x1="643.25" y1="113.25077405069692" x2="643.25" y2="171.31008884356373" stroke="#44aa44" stroke-width="1" opacity="0.8"/>
<rect x="638.0" y="122.75391159743859" width="6.3" height="48.486811278630654" fill="#44aa44" opacity="0.8"/>
<rect x="638.0" y="309.7702792064069" width="6.3" height="20.22972079359313" fill="#44aa44" opacity="0.3"/>
<line x1="653.75" y1="151.5407881076414" x2="653.75" y2="173.94599560835337" stroke="#44aa44" stroke-width="1" opacity="0.8"/>
<rect x="648.5" y="159.03231259704356" width="6.3" height="11.37601866909219" fill="#44aa44" opacity="0.8"/>
<rect x="648.5" y="316.73064199983315" width="6.3" height="13.269358000166859" fill="#44aa44" opacity="0.3"/>
<line x1="664.25" y1="165.6220795090177" x2="664.25" y2="182.96357138263383" stroke="#44aa44" stroke-width="1" opacity="0.8"/>
<rect x="659.0" y="172.00374851850836" width="6.3" height="5.8961072370295255" fill="#44aa44" opacity="0.8"/>
<rect x="659.0" y="320.75962612636175" width="6.3" height="9.240373873638243" fill="#44aa44" opacity="0.3"/>
<line x1="674.75" y1="165.830177411501" x2="674.75" y2="183.79596299256735" stroke="#44aa44" stroke-width="1" opacity="0.8"/>
<rect x="669.5" y="178.2466855930102" width="6.3" height="1.456685317383716" fill="#44aa44" opacity="0.8"/>
<rect x="669.5" y="320.44156295802446" width="6.3" height="9.558437041975514" fill="#44aa44" opacity="0.3"/>
<rect x="177.25" y="263.72878366086945" width="8" height="8" fill="#ff9800" opacity="0.85"/>
<text x="181.25" y="260.72878366086945" text-anchor="middle" font-size="8" font-weight="bold" fill="#ff9800">前低</text>
<rect x="198.25" y="223.14969267660763" width="8" height="8" fill="#ff9800" opacity="0.85"/>
<text x="202.25" y="220.14969267660763" text-anchor="middle" font-size="8" font-weight="bold" fill="#ff9800">前高</text>
<rect x="282.25" y="277.67134312725676" width="8" height="8" fill="#ff9800" opacity="0.85"/>
<text x="286.25" y="274.67134312725676" text-anchor="middle" font-size="8" font-weight="bold" fill="#ff9800">前低</text>
<rect x="366.25" y="156.21153404444948" width="8" height="8" fill="#ff9800" opacity="0.85"/>
<text x="370.25" y="153.21153404444948" text-anchor="middle" font-size="8" font-weight="bold" fill="#ff9800">前高</text>
<rect x="387.25" y="179.10230331762273" width="8" height="8" fill="#2196f3" opacity="0.85"/>
<text x="391.25" y="176.10230331762273" text-anchor="middle" font-size="8" font-weight="bold" fill="#2196f3">中</text>
<rect x="408.25" y="134.8468160561543" width="8" height="8" fill="#ff9800" opacity="0.85"/>
<text x="412.25" y="131.8468160561543" text-anchor="middle" font-size="8" font-weight="bold" fill="#ff9800">前高</text>
<rect x="418.75" y="144.21122166790707" width="8" height="8" fill="#2196f3" opacity="0.85"/>
<text x="422.75" y="141.21122166790707" text-anchor="middle" font-size="8" font-weight="bold" fill="#2196f3">中</text>
<rect x="450.25" y="127.42465753424665" width="8" height="8" fill="#ff9800" opacity="0.85"/>
<text x="454.25" y="124.42465753424665" text-anchor="middle" font-size="8" font-weight="bold" fill="#ff9800">前高</text>
<rect x="492.25" y="204.6983453230801" width="8" height="8" fill="#ff9800" opacity="0.85"/>
<text x="496.25" y="201.6983453230801" text-anchor="middle" font-size="8" font-weight="bold" fill="#ff9800">前低</text>
<rect x="555.25" y="87.53922622492956" width="8" height="8" fill="#ff9800" opacity="0.85"/>
<text x="559.25" y="84.53922622492956" text-anchor="middle" font-size="8" font-weight="bold" fill="#ff9800">前高</text>
<rect x="586.75" y="109.87506775814713" width="8" height="8" fill="#2196f3" opacity="0.85"/>
<text x="590.75" y="106.87506775814713" text-anchor="middle" font-size="8" font-weight="bold" fill="#2196f3">中</text>
<rect x="618.25" y="96.83426586918783" width="8" height="8" fill="#ff9800" opacity="0.85"/>
<text x="622.25" y="93.83426586918783" text-anchor="middle" font-size="8" font-weight="bold" fill="#ff9800">前高</text>
<text x="55.25" y="355" fill="#666666" font-size="8" text-anchor="middle" transform="rotate(-30,55.25,355)">02/11</text>
<text x="107.75" y="355" fill="#666666" font-size="8" text-anchor="middle" transform="rotate(-30,107.75,355)">02/26</text>
<text x="160.25" y="355" fill="#666666" font-size="8" text-anchor="middle" transform="rotate(-30,160.25,355)">03/05</text>
<text x="212.75" y="355" fill="#666666" font-size="8" text-anchor="middle" transform="rotate(-30,212.75,355)">03/12</text>
<text x="265.25" y="355" fill="#666666" font-size="8" text-anchor="middle" transform="rotate(-30,265.25,355)">03/19</text>
<text x="317.75" y="355" fill="#666666" font-size="8" text-anchor="middle" transform="rotate(-30,317.75,355)">03/26</text>
<text x="370.25" y="355" fill="#666666" font-size="8" text-anchor="middle" transform="rotate(-30,370.25,355)">04/02</text>
<text x="422.75" y="355" fill="#666666" font-size="8" text-anchor="middle" transform="rotate(-30,422.75,355)">04/10</text>
<text x="475.25" y="355" fill="#666666" font-size="8" text-anchor="middle" transform="rotate(-30,475.25,355)">04/17</text>
<text x="527.75" y="355" fill="#666666" font-size="8" text-anchor="middle" transform="rotate(-30,527.75,355)">04/24</text>
<text x="580.25" y="355" fill="#666666" font-size="8" text-anchor="middle" transform="rotate(-30,580.25,355)">05/06</text>
<text x="632.75" y="355" fill="#666666" font-size="8" text-anchor="middle" transform="rotate(-30,632.75,355)">05/13</text>
<text x="674.75" y="355" fill="#666666" font-size="8" text-anchor="middle" transform="rotate(-30,674.75,355)">05/19</text>
<rect x="50" y="334" width="7" height="7" fill="#ff9800" opacity="0.8" rx="1"/>
<text x="60" y="340" font-family="sans-serif" font-size="8" fill="#888888">第1类</text>
<rect x="120" y="334" width="7" height="7" fill="#2196f3" opacity="0.8" rx="1"/>
<text x="130" y="340" font-family="sans-serif" font-size="8" fill="#888888">第2类</text>
<rect x="190" y="334" width="7" height="7" fill="#ffd700" opacity="0.8" rx="1"/>
<text x="200" y="340" font-family="sans-serif" font-size="8" fill="#888888">EMA5</text>
<rect x="260" y="334" width="7" height="7" fill="#ff6b6b" opacity="0.8" rx="1"/>
<text x="270" y="340" font-family="sans-serif" font-size="8" fill="#888888">EMA10</text>
<rect x="330" y="334" width="7" height="7" fill="#4ecdc4" opacity="0.8" rx="1"/>
<text x="340" y="340" font-family="sans-serif" font-size="8" fill="#888888">EMA20</text>
</svg>