<svg xmlns="http://www.w3.org/2000/svg" width="700" height="380" viewBox="0 0 700 380">
<rect width="700" height="380" fill="#1a1a2e"/>
<text x="350.0" y="20" text-anchor="middle" font-family="sans-serif" font-size="14" font-weight="bold" fill="#ffffff">鸣志电器(603728) 关键点图</text>
<line x1="50" y1="27.984068158738292" x2="680" y2="27.984068158738292" stroke="#2a2a4e" stroke-width="0.5"/>
<text x="46" y="30.984068158738292" text-anchor="end" font-size="9" fill="#666666">80.71</text>
<line x1="50" y1="128.65339013228188" x2="680" y2="128.65339013228188" stroke="#2a2a4e" stroke-width="0.5"/>
<text x="46" y="131.65339013228188" text-anchor="end" font-size="9" fill="#666666">70.6</text>
<line x1="50" y1="229.32271210582542" x2="680" y2="229.32271210582542" stroke="#2a2a4e" stroke-width="0.5"/>
<text x="46" y="232.32271210582542" text-anchor="end" font-size="9" fill="#666666">60.49</text>
<line x1="50" y1="329.992034079369" x2="680" y2="329.992034079369" stroke="#2a2a4e" stroke-width="0.5"/>
<text x="46" y="332.992034079369" text-anchor="end" font-size="9" fill="#666666">50.38</text>
<polyline points="55.25,130.7444442979044 65.75,126.42957062281016 76.25,120.99725530365316 86.75,119.0020872196994 97.25,122.65067555806964 107.75,128.96645409123454 118.25,133.74122582470295 128.75,145.48777165861242 139.25,166.39618858368368 149.75,182.22703935024683 160.25,191.35371241491168 170.75,196.54199505370713 181.25,201.46126892857697 191.75,199.16464040349672 202.25,200.48800961286443 212.75,203.1957792303674 223.25,208.486049251407 233.75,213.8716107459868 244.25,223.5691908927631 254.75,227.94319015832463 265.25,236.0702294147743 275.75,244.80738918196704 286.25,249.4372742654541 296.75,255.31193654194217 307.25,256.971367214167 317.75,258.7414810482289 328.25,257.93007677986765 338.75,257.78743663250737 349.25,259.94935404636766 359.75,257.17533265506717 370.25,261.06808618233833 380.75,266.6504754371228 391.25,272.1975917515702 401.75,264.2787017077431 412.25,263.18155000977015 422.75,258.36758122109654 433.25,256.91740950131407 443.75,253.09617346203783 454.25,251.54442284805486 464.75,248.0869549134877 475.25,244.58708819580147 485.75,243.84702784353257 496.25,245.3119430971268 506.75,245.02728249962365 517.25,249.78301782633207 527.75,254.3143528185905 538.25,255.17780597588228 548.75,258.30917428317105 559.25,255.4180527603575 569.75,250.5034181752115 580.25,244.96998427301355 590.75,236.93296332715846 601.25,224.4720034673309 611.75,214.7374694477351 622.25,209.84096422752654 632.75,206.51024474212966 643.25,209.96548353474537 653.75,201.48179187542038 664.25,188.65666886802157 674.75,178.24787204920239" fill="none" stroke="#ffd700" stroke-width="1" opacity="0.6"/>
<polyline points="55.25,130.7444442979044 65.75,128.39087683876213 76.25,125.07119462541252 86.75,123.24220488475422 97.25,124.46141349385532 107.75,127.57715852362055 118.25,130.4341786632604 128.75,137.44266678383698 139.25,150.3100041747441 149.75,161.869774485404 160.25,170.54928067791982 170.75,177.16187697853405 181.25,183.3687751057673 191.75,185.4056129689617 202.25,188.6290920712595 212.75,192.2622241429166 223.25,197.1357450793838 233.75,202.1370157440679 244.25,209.5601676426583 254.75,214.49308056025643 265.25,221.3714855361505 275.75,228.8097079325509 286.25,234.24376911434675 296.75,240.210585838087 307.25,243.8614299690924 317.75,247.2105715595034 328.25,248.86451641107465 338.75,250.43499639774956 349.25,252.95103139344752 359.75,252.71035111690549 370.25,255.64548604781004 380.75,259.67635293851583 391.25,263.97007501887026 401.75,261.1465925827282 412.25,261.117620588382 422.75,258.86707932572153 433.25,257.985258732272 443.75,255.7067937597653 454.25,254.385726098006 464.75,251.98323390643282 475.25,249.3658013344321 485.75,248.09327511707986 496.25,248.12027484203173 506.75,247.45439965341097 517.25,249.60714307638153 527.75,252.11075757214985 538.25,252.9823857027528 548.75,255.08957210184295 559.25,254.09797894054975 569.75,251.6572825886169 580.25,248.42925238498069 590.75,243.4164649396112 601.25,235.44075926835018 611.75,228.1366942029308 622.25,223.02965049096335 632.75,218.8149514510311 643.25,218.4624077544758 653.75,212.29004426398396 664.25,203.32938582566396 674.75,194.9840935685549" fill="none" stroke="#ff6b6b" stroke-width="1" opacity="0.6"/>
<polyline points="55.25,130.7444442979044 65.75,129.51162324787745 76.25,127.6660043352547 86.75,126.46083735587732 97.25,126.79293401101373 107.75,128.20294135830432 118.25,129.63987735195536 128.75,133.3866379209531 139.25,140.5129602555124 149.75,147.50112983911816 160.25,153.41598019198707 170.75,158.51146401477862 181.25,163.53892617321077 191.75,166.49439828560367 202.25,169.98395540426992 212.75,173.66275188627978 223.25,177.98692687744233 233.75,182.43033705436656 244.25,188.1954812574093 254.75,192.81412006046065 265.25,198.4817570001952 275.75,204.55794287792443 286.25,209.71404778787718 296.75,215.17568715045255 307.25,219.47231014170632 317.75,223.5493957202441 328.25,226.66919310337758 338.75,229.60566579236894 349.25,232.90733465729463 359.75,234.69018753492998 370.25,237.94384522083004 380.75,241.74112224234062 391.25,245.69833196978107 401.75,245.9595309840961 412.25,247.39074199645117 422.75,247.51920882000337 433.25,248.13805236683626 443.75,247.88239989223138 454.25,247.93559243774166 464.75,247.29144259075224 475.25,246.36724374976907 485.75,245.9862593106477 496.25,246.20107019575892 506.75,246.035059825174 517.25,247.29786255418108 527.75,248.82921114931696 538.25,249.59830649609304 548.75,251.02436405815547 559.25,250.89212078735306 569.75,249.91898061759747 580.25,248.39366022245656 590.75,245.7713041475034 601.25,241.36928315704364 611.75,236.97872299051986 622.25,233.46150687590935 632.75,230.26029724690238 643.25,228.98559856814754 653.75,224.75024713849263 664.25,218.86988292084797 674.75,213.01849201520187" fill="none" stroke="#4ecdc4" stroke-width="1" opacity="0.6"/>
<line x1="55.25" y1="116.70450918586718" x2="55.25" y2="132.13848040831942" stroke="#44aa44" stroke-width="1" opacity="0.8"/>
<rect x="50.0" y="116.70450918586718" width="6.3" height="14.039935112037227" fill="#44aa44" opacity="0.8"/>
<rect x="50.0" y="321.8784810432117" width="6.3" height="8.121518956788298" fill="#44aa44" opacity="0.3"/>
<line x1="65.75" y1="116.00749113065959" x2="65.75" y2="133.5325165187345" stroke="#ff4444" stroke-width="1" opacity="0.8"/>
<rect x="60.5" y="117.79982327262185" width="6.3" height="15.633119238225802" fill="#ff4444" opacity="0.8"/>
<rect x="60.5" y="320.8677983011403" width="6.3" height="9.132201698859717" fill="#ff4444" opacity="0.3"/>
<line x1="76.25" y1="104.75562823945248" x2="76.25" y2="123.67468973794244" stroke="#ff4444" stroke-width="1" opacity="0.8"/>
<rect x="71.0" y="110.13262466533915" width="6.3" height="8.364216662490165" fill="#ff4444" opacity="0.8"/>
<rect x="71.0" y="317.49427846736546" width="6.3" height="12.50572153263456" fill="#ff4444" opacity="0.3"/>
<line x1="86.75" y1="87.52932487503796" x2="86.75" y2="124.67042981681027" stroke="#44aa44" stroke-width="1" opacity="0.8"/>
<rect x="81.5" y="87.52932487503796" width="6.3" height="27.48242617675379" fill="#44aa44" opacity="0.8"/>
<rect x="81.5" y="309.04687654000645" width="6.3" height="20.953123459993524" fill="#44aa44" opacity="0.3"/>
<line x1="97.25" y1="119.79130343035766" x2="97.25" y2="132.23805441620627" stroke="#44aa44" stroke-width="1" opacity="0.8"/>
<rect x="92.0" y="122.08150561175371" width="6.3" height="7.866346623056401" fill="#44aa44" opacity="0.8"/>
<rect x="92.0" y="317.5465738187333" width="6.3" height="12.453426181266682" fill="#44aa44" opacity="0.3"/>
<line x1="107.75" y1="126.3631879508857" x2="107.75" y2="146.477137544017" stroke="#44aa44" stroke-width="1" opacity="0.8"/>
<rect x="102.5" y="129.84827822692324" width="6.3" height="11.749732930641187" fill="#44aa44" opacity="0.8"/>
<rect x="102.5" y="317.26955871082976" width="6.3" height="12.730441289170221" fill="#44aa44" opacity="0.3"/>
<line x1="118.25" y1="136.0218667159042" x2="118.25" y2="145.7801194888096" stroke="#44aa44" stroke-width="1" opacity="0.8"/>
<rect x="113.0" y="141.79715917333795" width="6.3" height="1.4936101183018877" fill="#44aa44" opacity="0.8"/>
<rect x="113.0" y="320.260219608695" width="6.3" height="9.73978039130496" fill="#44aa44" opacity="0.3"/>
<line x1="128.75" y1="154.54263218284694" x2="128.75" y2="169.47873336586528" stroke="#44aa44" stroke-width="1" opacity="0.8"/>
<rect x="123.5" y="163.80301491631838" width="6.3" height="5.1778484101130005" fill="#44aa44" opacity="0.8"/>
<rect x="123.5" y="316.05772623135147" width="6.3" height="13.942273768648535" fill="#44aa44" opacity="0.3"/>
<line x1="139.25" y1="161.5128127349222" x2="139.25" y2="208.81046648114696" stroke="#44aa44" stroke-width="1" opacity="0.8"/>
<rect x="134.0" y="167.9851232475634" width="6.3" height="40.22789918626279" fill="#44aa44" opacity="0.8"/>
<rect x="134.0" y="314.79871147343795" width="6.3" height="15.201288526562031" fill="#44aa44" opacity="0.3"/>
<line x1="149.75" y1="202.43772997639246" x2="149.75" y2="219.26573730925975" stroke="#ff4444" stroke-width="1" opacity="0.8"/>
<rect x="144.5" y="213.88874088337317" width="6.3" height="4.381256347018677" fill="#ff4444" opacity="0.8"/>
<rect x="144.5" y="319.8275876634544" width="6.3" height="10.1724123365456" fill="#ff4444" opacity="0.3"/>
<line x1="160.25" y1="199.35093573190196" x2="160.25" y2="213.19172282816564" stroke="#44aa44" stroke-width="1" opacity="0.8"/>
<rect x="155.0" y="202.93560001582634" width="6.3" height="6.671458528414888" fill="#44aa44" opacity="0.8"/>
<rect x="155.0" y="320.88401852935795" width="6.3" height="9.11598147064207" fill="#44aa44" opacity="0.3"/>
<line x1="170.75" y1="203.43347005526027" x2="170.75" y2="214.18746290703353" stroke="#ff4444" stroke-width="1" opacity="0.8"/>
<rect x="165.5" y="206.9185603312979" width="6.3" height="3.684238291811255" fill="#ff4444" opacity="0.8"/>
<rect x="165.5" y="324.2345576950541" width="6.3" height="5.765442304945923" fill="#ff4444" opacity="0.3"/>
<line x1="181.25" y1="209.50748453635447" x2="181.25" y2="236.09374464212706" stroke="#ff4444" stroke-width="1" opacity="0.8"/>
<rect x="176.0" y="211.29981667831666" width="6.3" height="5.974440473207267" fill="#ff4444" opacity="0.8"/>
<rect x="176.0" y="318.19936760419745" width="6.3" height="11.800632395802534" fill="#ff4444" opacity="0.3"/>
<line x1="191.75" y1="193.3764952586947" x2="191.75" y2="205.4249502129961" stroke="#ff4444" stroke-width="1" opacity="0.8"/>
<rect x="186.5" y="194.57138335333613" width="6.3" height="9.857826780792038" fill="#ff4444" opacity="0.8"/>
<rect x="186.5" y="318.3184587564894" width="6.3" height="11.681541243510601" fill="#ff4444" opacity="0.3"/>
<line x1="202.25" y1="192.48032918771355" x2="202.25" y2="204.72793215778856" stroke="#44aa44" stroke-width="1" opacity="0.8"/>
<rect x="197.0" y="194.47180934544932" width="6.3" height="8.662938686150653" fill="#44aa44" opacity="0.8"/>
<rect x="197.0" y="321.2590308494097" width="6.3" height="8.740969150590256" fill="#44aa44" opacity="0.3"/>
<line x1="212.75" y1="198.85306569246805" x2="212.75" y2="213.2912968360524" stroke="#44aa44" stroke-width="1" opacity="0.8"/>
<rect x="207.5" y="203.13474803159997" width="6.3" height="5.476570433773389" fill="#44aa44" opacity="0.8"/>
<rect x="207.5" y="322.51681661929734" width="6.3" height="7.483183380702676" fill="#44aa44" opacity="0.3"/>
<line x1="223.25" y1="210.30407659944876" x2="223.25" y2="220.75934742756155" stroke="#44aa44" stroke-width="1" opacity="0.8"/>
<rect x="218.0" y="214.08788889914672" width="6.3" height="4.978700394339427" fill="#44aa44" opacity="0.8"/>
<rect x="218.0" y="323.98979597994196" width="6.3" height="6.01020402005805" fill="#44aa44" opacity="0.3"/>
<line x1="233.75" y1="220.4606254039012" x2="233.75" y2="231.71248829510836" stroke="#44aa44" stroke-width="1" opacity="0.8"/>
<rect x="228.5" y="220.4606254039012" width="6.3" height="4.182108331245161" fill="#44aa44" opacity="0.8"/>
<rect x="228.5" y="323.3181791667421" width="6.3" height="6.6818208332579045" fill="#44aa44" opacity="0.3"/>
<line x1="244.25" y1="218.5687192540522" x2="244.25" y2="243.8605172572966" stroke="#44aa44" stroke-width="1" opacity="0.8"/>
<rect x="239.0" y="221.05806945122194" width="6.3" height="21.906281735093614" fill="#44aa44" opacity="0.8"/>
<rect x="239.0" y="319.81300474497993" width="6.3" height="10.186995255020044" fill="#44aa44" opacity="0.3"/>
<line x1="254.75" y1="235.29715257903277" x2="254.75" y2="247.34560753333423" stroke="#ff4444" stroke-width="1" opacity="0.8"/>
<rect x="249.5" y="236.6911886894478" width="6.3" height="2.4893501971697276" fill="#ff4444" opacity="0.8"/>
<rect x="249.5" y="322.19769006571363" width="6.3" height="7.802309934286352" fill="#ff4444" opacity="0.3"/>
<line x1="265.25" y1="242.66562916265516" x2="265.25" y2="253.61877003020197" stroke="#44aa44" stroke-width="1" opacity="0.8"/>
<rect x="260.0" y="246.15071943869276" width="6.3" height="6.173588488980897" fill="#44aa44" opacity="0.8"/>
<rect x="260.0" y="322.5679574058094" width="6.3" height="7.432042594190567" fill="#44aa44" opacity="0.3"/>
<line x1="275.75" y1="245.45370138348528" x2="275.75" y2="262.9787267715601" stroke="#44aa44" stroke-width="1" opacity="0.8"/>
<rect x="270.5" y="252.32430792767366" width="6.3" height="9.95740078867891" fill="#44aa44" opacity="0.8"/>
<rect x="270.5" y="322.50897402631364" width="6.3" height="7.491025973686381" fill="#44aa44" opacity="0.3"/>
<line x1="286.25" y1="232.2103583345423" x2="286.25" y2="263.2774487952205" stroke="#44aa44" stroke-width="1" opacity="0.8"/>
<rect x="281.0" y="253.12089999076798" width="6.3" height="5.576144441660205" fill="#44aa44" opacity="0.8"/>
<rect x="281.0" y="310.35693754689163" width="6.3" height="19.643062453108374" fill="#44aa44" opacity="0.3"/>
<line x1="296.75" y1="249.13793967529642" x2="296.75" y2="285.68160056974796" stroke="#44aa44" stroke-width="1" opacity="0.8"/>
<rect x="291.5" y="252.32430792767366" width="6.3" height="14.736953167244792" fill="#44aa44" opacity="0.8"/>
<rect x="291.5" y="314.99053618876934" width="6.3" height="15.009463811230658" fill="#44aa44" opacity="0.3"/>
<line x1="307.25" y1="253.32004800654158" x2="307.25" y2="265.0697809371827" stroke="#ff4444" stroke-width="1" opacity="0.8"/>
<rect x="302.0" y="260.2902285586167" width="6.3" height="3.78381229969807" fill="#ff4444" opacity="0.8"/>
<rect x="302.0" y="319.11037157276274" width="6.3" height="10.88962842723727" fill="#ff4444" opacity="0.3"/>
<line x1="317.75" y1="241.37116706012688" x2="317.75" y2="263.5761708188808" stroke="#44aa44" stroke-width="1" opacity="0.8"/>
<rect x="312.5" y="254.01706606174912" width="6.3" height="8.264642654603449" fill="#44aa44" opacity="0.8"/>
<rect x="312.5" y="319.6448405634437" width="6.3" height="10.355159436556258" fill="#44aa44" opacity="0.3"/>
<line x1="328.25" y1="250.63154979359825" x2="328.25" y2="274.03144164699364" stroke="#ff4444" stroke-width="1" opacity="0.8"/>
<rect x="323.0" y="256.30726824314524" width="6.3" height="17.724173403848397" fill="#ff4444" opacity="0.8"/>
<rect x="323.0" y="320.1576825831679" width="6.3" height="9.842317416832108" fill="#ff4444" opacity="0.3"/>
<line x1="338.75" y1="254.31578808540945" x2="338.75" y2="267.7582791501259" stroke="#ff4444" stroke-width="1" opacity="0.8"/>
<rect x="333.5" y="257.5021563377867" width="6.3" height="6.571884520528101" fill="#ff4444" opacity="0.8"/>
<rect x="333.5" y="323.97032526948226" width="6.3" height="6.029674730517724" fill="#ff4444" opacity="0.3"/>
<line x1="349.25" y1="247.84347757276817" x2="349.25" y2="264.7710589135223" stroke="#44aa44" stroke-width="1" opacity="0.8"/>
<rect x="344.0" y="255.11238014850377" width="6.3" height="9.160808725584587" fill="#44aa44" opacity="0.8"/>
<rect x="344.0" y="322.9959650573159" width="6.3" height="7.004034942684102" fill="#44aa44" opacity="0.3"/>
<line x1="359.75" y1="250.63154979359825" x2="359.75" y2="258.9957664560885" stroke="#ff4444" stroke-width="1" opacity="0.8"/>
<rect x="354.5" y="251.62728987246615" width="6.3" height="2.9872202366036333" fill="#ff4444" opacity="0.8"/>
<rect x="354.5" y="322.2765182829569" width="6.3" height="7.723481717043107" fill="#ff4444" opacity="0.3"/>
<line x1="370.25" y1="254.11664006963585" x2="370.25" y2="271.54209144982394" stroke="#44aa44" stroke-width="1" opacity="0.8"/>
<rect x="365.0" y="257.0042862983527" width="6.3" height="11.849306938527832" fill="#44aa44" opacity="0.8"/>
<rect x="365.0" y="323.44506061465495" width="6.3" height="6.554939385345072" fill="#44aa44" opacity="0.3"/>
<line x1="380.75" y1="266.5633910554845" x2="380.75" y2="278.0144019624652" stroke="#44aa44" stroke-width="1" opacity="0.8"/>
<rect x="375.5" y="268.85359323688056" width="6.3" height="8.961660709811099" fill="#44aa44" opacity="0.8"/>
<rect x="375.5" y="325.1400865320211" width="6.3" height="4.859913467978928" fill="#44aa44" opacity="0.3"/>
<line x1="391.25" y1="274.2305896627673" x2="391.25" y2="286.3786186249555" stroke="#44aa44" stroke-width="1" opacity="0.8"/>
<rect x="386.0" y="277.81525394669166" width="6.3" height="5.476570433773361" fill="#44aa44" opacity="0.8"/>
<rect x="386.0" y="325.24366145905617" width="6.3" height="4.756338540943807" fill="#44aa44" opacity="0.3"/>
<line x1="401.75" y1="247.94305158065498" x2="401.75" y2="272.33868351291824" stroke="#ff4444" stroke-width="1" opacity="0.8"/>
<rect x="396.5" y="248.4409216200889" width="6.3" height="22.60329979030115" fill="#ff4444" opacity="0.8"/>
<rect x="396.5" y="316.9707154882663" width="6.3" height="13.029284511733717" fill="#ff4444" opacity="0.3"/>
<line x1="412.25" y1="254.11664006963585" x2="412.25" y2="262.7795787557865" stroke="#44aa44" stroke-width="1" opacity="0.8"/>
<rect x="407.0" y="254.11664006963585" width="6.3" height="6.870606544188405" fill="#44aa44" opacity="0.8"/>
<rect x="407.0" y="323.6030227875701" width="6.3" height="6.396977212429877" fill="#44aa44" opacity="0.3"/>
<line x1="422.75" y1="240.57457499703258" x2="422.75" y2="258.0996003851074" stroke="#ff4444" stroke-width="1" opacity="0.8"/>
<rect x="417.5" y="248.73964364374928" width="6.3" height="9.359956741358133" fill="#ff4444" opacity="0.8"/>
<rect x="417.5" y="321.1243711744982" width="6.3" height="8.875628825501805" fill="#ff4444" opacity="0.3"/>
<line x1="433.25" y1="246.8477374939003" x2="433.25" y2="256.10812022737167" stroke="#ff4444" stroke-width="1" opacity="0.8"/>
<rect x="428.0" y="254.01706606174912" width="6.3" height="1" fill="#ff4444" opacity="0.8"/>
<rect x="428.0" y="324.0043688412312" width="6.3" height="5.995631158768759" fill="#ff4444" opacity="0.3"/>
<line x1="443.75" y1="243.46222122574946" x2="443.75" y2="253.12089999076798" stroke="#ff4444" stroke-width="1" opacity="0.8"/>
<rect x="438.5" y="245.45370138348528" width="6.3" height="1" fill="#ff4444" opacity="0.8"/>
<rect x="438.5" y="321.5420199252952" width="6.3" height="8.457980074704771" fill="#ff4444" opacity="0.3"/>
<line x1="454.25" y1="233.4052464291838" x2="454.25" y2="250.83069780937186" stroke="#44aa44" stroke-width="1" opacity="0.8"/>
<rect x="449.0" y="239.28011289450433" width="6.3" height="9.160808725584559" fill="#44aa44" opacity="0.8"/>
<rect x="449.0" y="320.13236663669625" width="6.3" height="9.867633363303744" fill="#44aa44" opacity="0.3"/>
<line x1="464.75" y1="234.30141250016484" x2="464.75" y2="247.84347757276817" stroke="#44aa44" stroke-width="1" opacity="0.8"/>
<rect x="459.5" y="239.08096487873075" width="6.3" height="2.0910541656225803" fill="#44aa44" opacity="0.8"/>
<rect x="459.5" y="320.98353236502754" width="6.3" height="9.016467634972454" fill="#44aa44" opacity="0.3"/>
<line x1="475.25" y1="236.4920406736742" x2="475.25" y2="249.03836566740964" stroke="#ff4444" stroke-width="1" opacity="0.8"/>
<rect x="470.0" y="237.58735476042892" width="6.3" height="5.874866465320537" fill="#ff4444" opacity="0.8"/>
<rect x="470.0" y="321.3482058987402" width="6.3" height="8.651794101259762" fill="#ff4444" opacity="0.3"/>
<line x1="485.75" y1="232.3099323424291" x2="485.75" y2="243.46222122574946" stroke="#44aa44" stroke-width="1" opacity="0.8"/>
<rect x="480.5" y="234.2018384922781" width="6.3" height="8.16506864671669" fill="#44aa44" opacity="0.8"/>
<rect x="480.5" y="320.15856962689855" width="6.3" height="9.841430373101455" fill="#44aa44" opacity="0.3"/>
<line x1="496.25" y1="239.28011289450433" x2="496.25" y2="254.91323213273017" stroke="#44aa44" stroke-width="1" opacity="0.8"/>
<rect x="491.0" y="243.8605172572966" width="6.3" height="4.381256347018677" fill="#44aa44" opacity="0.8"/>
<rect x="491.0" y="321.47184893303324" width="6.3" height="8.528151066966773" fill="#44aa44" opacity="0.3"/>
<line x1="506.75" y1="243.66136924152306" x2="506.75" y2="253.91749205386225" stroke="#ff4444" stroke-width="1" opacity="0.8"/>
<rect x="501.5" y="244.45796130461736" width="6.3" height="8.563364678263838" fill="#ff4444" opacity="0.8"/>
<rect x="501.5" y="322.2865171364378" width="6.3" height="7.7134828635622155" fill="#ff4444" opacity="0.3"/>
<line x1="517.25" y1="243.36264721786267" x2="517.25" y2="263.37702280310725" stroke="#44aa44" stroke-width="1" opacity="0.8"/>
<rect x="512.0" y="243.36264721786267" width="6.3" height="15.931841261886234" fill="#44aa44" opacity="0.8"/>
<rect x="512.0" y="319.1068636265807" width="6.3" height="10.89313637341926" fill="#44aa44" opacity="0.3"/>
<line x1="527.75" y1="255.41110217216414" x2="527.75" y2="267.65870514223917" stroke="#44aa44" stroke-width="1" opacity="0.8"/>
<rect x="522.5" y="259.4936364955225" width="6.3" height="3.8833863075847717" fill="#44aa44" opacity="0.8"/>
<rect x="522.5" y="321.7191430473673" width="6.3" height="8.28085695263267" fill="#44aa44" opacity="0.3"/>
<line x1="538.25" y1="251.42814185669252" x2="538.25" y2="279.0101420413331" stroke="#ff4444" stroke-width="1" opacity="0.8"/>
<rect x="533.0" y="256.904712290466" width="6.3" height="14.039935112037142" fill="#ff4444" opacity="0.8"/>
<rect x="533.0" y="319.17490249558995" width="6.3" height="10.825097504410076" fill="#ff4444" opacity="0.3"/>
<line x1="548.75" y1="249.13793967529642" x2="548.75" y2="268.35572319744665" stroke="#44aa44" stroke-width="1" opacity="0.8"/>
<rect x="543.5" y="253.12089999076798" width="6.3" height="11.451010906980713" fill="#44aa44" opacity="0.8"/>
<rect x="543.5" y="319.97332633353244" width="6.3" height="10.026673666467534" fill="#44aa44" opacity="0.3"/>
<line x1="559.25" y1="248.34134761220216" x2="559.25" y2="267.4595571264656" stroke="#ff4444" stroke-width="1" opacity="0.8"/>
<rect x="554.0" y="249.63580971473036" width="6.3" height="17.82374741173524" fill="#ff4444" opacity="0.8"/>
<rect x="554.0" y="320.1608868023582" width="6.3" height="9.839113197641792" fill="#ff4444" opacity="0.3"/>
<line x1="569.75" y1="234.99843055537238" x2="569.75" y2="254.01706606174912" stroke="#ff4444" stroke-width="1" opacity="0.8"/>
<rect x="564.5" y="240.67414900491934" width="6.3" height="11.849306938527945" fill="#ff4444" opacity="0.8"/>
<rect x="564.5" y="317.66104067729106" width="6.3" height="12.338959322708922" fill="#ff4444" opacity="0.3"/>
<line x1="580.25" y1="226.23591786133503" x2="580.25" y2="240.77372301280613" stroke="#ff4444" stroke-width="1" opacity="0.8"/>
<rect x="575.0" y="233.90311646861772" width="6.3" height="6.771032536301618" fill="#ff4444" opacity="0.8"/>
<rect x="575.0" y="315.82194357114554" width="6.3" height="14.178056428854466" fill="#ff4444" opacity="0.3"/>
<line x1="590.75" y1="218.46914524616545" x2="590.75" y2="238.18479880774962" stroke="#ff4444" stroke-width="1" opacity="0.8"/>
<rect x="585.5" y="220.85892143544834" width="6.3" height="11.15228888332041" fill="#ff4444" opacity="0.8"/>
<rect x="585.5" y="315.595156057342" width="6.3" height="14.404843942657953" fill="#ff4444" opacity="0.3"/>
<line x1="601.25" y1="188.49736887224196" x2="601.25" y2="224.2444377035992" stroke="#ff4444" stroke-width="1" opacity="0.8"/>
<rect x="596.0" y="199.5500837476756" width="6.3" height="21.209263679885964" fill="#ff4444" opacity="0.8"/>
<rect x="596.0" y="301.86130538240434" width="6.3" height="28.138694617595647" fill="#ff4444" opacity="0.3"/>
<line x1="611.75" y1="188.89566490378917" x2="611.75" y2="210.8019466388827" stroke="#44aa44" stroke-width="1" opacity="0.8"/>
<rect x="606.5" y="192.48032918771355" width="6.3" height="2.788072220830088" fill="#44aa44" opacity="0.8"/>
<rect x="606.5" y="307.35905559008523" width="6.3" height="22.640944409914777" fill="#44aa44" opacity="0.3"/>
<line x1="622.25" y1="182.82165042269503" x2="622.25" y2="203.33389604737349" stroke="#44aa44" stroke-width="1" opacity="0.8"/>
<rect x="617.0" y="195.56712343220397" width="6.3" height="4.480830354905521" fill="#44aa44" opacity="0.8"/>
<rect x="617.0" y="314.37287818536197" width="6.3" height="15.627121814638032" fill="#44aa44" opacity="0.3"/>
<line x1="632.75" y1="197.5586035899398" x2="632.75" y2="214.08788889914672" stroke="#ff4444" stroke-width="1" opacity="0.8"/>
<rect x="627.5" y="199.84880577133586" width="6.3" height="2.489350197169756" fill="#ff4444" opacity="0.8"/>
<rect x="627.5" y="316.6213610589814" width="6.3" height="13.378638941018632" fill="#ff4444" opacity="0.3"/>
<line x1="643.25" y1="195.26840140854364" x2="643.25" y2="216.97553512786365" stroke="#44aa44" stroke-width="1" opacity="0.8"/>
<rect x="638.0" y="196.06499347163793" width="6.3" height="20.810967648338874" fill="#44aa44" opacity="0.8"/>
<rect x="638.0" y="315.98151489368547" width="6.3" height="14.018485106314506" fill="#44aa44" opacity="0.3"/>
<line x1="653.75" y1="168.682141302771" x2="653.75" y2="216.8759611199768" stroke="#ff4444" stroke-width="1" opacity="0.8"/>
<rect x="648.5" y="184.51440855677046" width="6.3" height="32.361552563206345" fill="#ff4444" opacity="0.8"/>
<rect x="648.5" y="295.0" width="6.3" height="35.0" fill="#ff4444" opacity="0.3"/>
<line x1="664.25" y1="157.43027841156388" x2="664.25" y2="184.41483454888362" stroke="#ff4444" stroke-width="1" opacity="0.8"/>
<rect x="659.0" y="163.00642285322394" width="6.3" height="18.421191459056047" fill="#ff4444" opacity="0.8"/>
<rect x="659.0" y="295.3445249689736" width="6.3" height="34.65547503102642" fill="#ff4444" opacity="0.3"/>
<line x1="674.75" y1="144.58523139416803" x2="674.75" y2="164.400458963639" stroke="#ff4444" stroke-width="1" opacity="0.8"/>
<rect x="669.5" y="157.43027841156388" width="6.3" height="2.2902021813960687" fill="#ff4444" opacity="0.8"/>
<rect x="669.5" y="300.2510896960115" width="6.3" height="29.74891030398848" fill="#ff4444" opacity="0.3"/>
<rect x="177.25" y="232.09374464212706" width="8" height="8" fill="#ff9800" opacity="0.85"/>
<text x="181.25" y="229.09374464212706" text-anchor="middle" font-size="8" font-weight="bold" fill="#ff9800">前低</text>
<rect x="198.25" y="188.48032918771355" width="8" height="8" fill="#ff9800" opacity="0.85"/>
<text x="202.25" y="185.48032918771355" text-anchor="middle" font-size="8" font-weight="bold" fill="#ff9800">前高</text>
<rect x="292.75" y="281.68160056974796" width="8" height="8" fill="#ff9800" opacity="0.85"/>
<text x="296.75" y="278.68160056974796" text-anchor="middle" font-size="8" font-weight="bold" fill="#ff9800">前低</text>
<rect x="387.25" y="282.3786186249555" width="8" height="8" fill="#ff9800" opacity="0.85"/>
<text x="391.25" y="279.3786186249555" text-anchor="middle" font-size="8" font-weight="bold" fill="#ff9800">前低</text>
<rect x="481.75" y="228.3099323424291" width="8" height="8" fill="#ff9800" opacity="0.85"/>
<text x="485.75" y="225.3099323424291" text-anchor="middle" font-size="8" font-weight="bold" fill="#ff9800">前高</text>
<rect x="534.25" y="275.0101420413331" width="8" height="8" fill="#ff9800" opacity="0.85"/>
<text x="538.25" y="272.0101420413331" text-anchor="middle" font-size="8" font-weight="bold" fill="#ff9800">前低</text>
<rect x="628.75" y="195.84880577133586" width="8" height="8" fill="#2196f3" opacity="0.85"/>
<text x="632.75" y="192.84880577133586" text-anchor="middle" font-size="8" font-weight="bold" fill="#2196f3">中</text>
<line x1="674.75" y1="157.43027841156388" x2="674.75" y2="42" stroke="#4caf50" stroke-width="1" stroke-dasharray="3,2"/>
<rect x="654.75" y="28" width="40" height="14" rx="3" fill="#2563eb" opacity="0.9"/>
<text x="674.75" y="38" text-anchor="middle" font-size="9" font-weight="bold" fill="white">关注</text>
<text x="55.25" y="355" fill="#666666" font-size="8" text-anchor="middle" transform="rotate(-30,55.25,355)">02/11</text>
<text x="107.75" y="355" fill="#666666" font-size="8" text-anchor="middle" transform="rotate(-30,107.75,355)">02/26</text>
<text x="160.25" y="355" fill="#666666" font-size="8" text-anchor="middle" transform="rotate(-30,160.25,355)">03/05</text>
<text x="212.75" y="355" fill="#666666" font-size="8" text-anchor="middle" transform="rotate(-30,212.75,355)">03/12</text>
<text x="265.25" y="355" fill="#666666" font-size="8" text-anchor="middle" transform="rotate(-30,265.25,355)">03/19</text>
<text x="317.75" y="355" fill="#666666" font-size="8" text-anchor="middle" transform="rotate(-30,317.75,355)">03/26</text>
<text x="370.25" y="355" fill="#666666" font-size="8" text-anchor="middle" transform="rotate(-30,370.25,355)">04/02</text>
<text x="422.75" y="355" fill="#666666" font-size="8" text-anchor="middle" transform="rotate(-30,422.75,355)">04/10</text>
<text x="475.25" y="355" fill="#666666" font-size="8" text-anchor="middle" transform="rotate(-30,475.25,355)">04/17</text>
<text x="527.75" y="355" fill="#666666" font-size="8" text-anchor="middle" transform="rotate(-30,527.75,355)">04/24</text>
<text x="580.25" y="355" fill="#666666" font-size="8" text-anchor="middle" transform="rotate(-30,580.25,355)">05/06</text>
<text x="632.75" y="355" fill="#666666" font-size="8" text-anchor="middle" transform="rotate(-30,632.75,355)">05/13</text>
<text x="674.75" y="355" fill="#666666" font-size="8" text-anchor="middle" transform="rotate(-30,674.75,355)">05/19</text>
<rect x="50" y="334" width="7" height="7" fill="#ff9800" opacity="0.8" rx="1"/>
<text x="60" y="340" font-family="sans-serif" font-size="8" fill="#888888">第1类</text>
<rect x="120" y="334" width="7" height="7" fill="#2196f3" opacity="0.8" rx="1"/>
<text x="130" y="340" font-family="sans-serif" font-size="8" fill="#888888">第2类</text>
<rect x="190" y="334" width="7" height="7" fill="#ffd700" opacity="0.8" rx="1"/>
<text x="200" y="340" font-family="sans-serif" font-size="8" fill="#888888">EMA5</text>
<rect x="260" y="334" width="7" height="7" fill="#ff6b6b" opacity="0.8" rx="1"/>
<text x="270" y="340" font-family="sans-serif" font-size="8" fill="#888888">EMA10</text>
<rect x="330" y="334" width="7" height="7" fill="#4ecdc4" opacity="0.8" rx="1"/>
<text x="340" y="340" font-family="sans-serif" font-size="8" fill="#888888">EMA20</text>
</svg>