<svg xmlns="http://www.w3.org/2000/svg" width="700" height="380" viewBox="0 0 700 380">
<rect width="700" height="380" fill="#1a1a2e"/>
<text x="350.0" y="20" text-anchor="middle" font-family="sans-serif" font-size="14" font-weight="bold" fill="#ffffff">德业股份(605117)</text>
<line x1="50" y1="27.99373971302187" x2="680" y2="27.99373971302187" stroke="#2a2a4e" stroke-width="0.5"/>
<text x="46" y="30.99373971302187" text-anchor="end" font-size="9" fill="#666666">180.47</text>
<line x1="50" y1="128.65915432229286" x2="680" y2="128.65915432229286" stroke="#2a2a4e" stroke-width="0.5"/>
<text x="46" y="131.65915432229286" text-anchor="end" font-size="9" fill="#666666">148.31</text>
<line x1="50" y1="229.32456893156387" x2="680" y2="229.32456893156387" stroke="#2a2a4e" stroke-width="0.5"/>
<text x="46" y="232.32456893156387" text-anchor="end" font-size="9" fill="#666666">116.15</text>
<line x1="50" y1="329.9899835408349" x2="680" y2="329.9899835408349" stroke="#2a2a4e" stroke-width="0.5"/>
<text x="46" y="332.9899835408349" text-anchor="end" font-size="9" fill="#666666">83.99</text>
<polyline points="55.25,290.51887414335647 65.75,290.4145360270533 76.25,292.5360777252172 86.75,296.3815169671896 97.25,292.48661372934015 107.75,290.0256511219679 118.25,281.9473476078159 128.75,265.6584787780363 139.25,247.4851309386663 149.75,234.0653392586304 160.25,228.05071254005802 170.75,228.69444138146324 181.25,220.1922511868511 191.75,219.33411155201787 202.25,206.25187831738236 212.75,193.24209291423293 223.25,186.49915779707476 233.75,186.32346573391933 244.25,190.44246521372335 254.75,191.16430541064503 265.25,191.50989265739872 275.75,178.4997771963659 286.25,173.6973110038572 296.75,172.48852489690807 307.25,176.46135321895918 317.75,178.32736956138638 328.25,181.05298170784246 338.75,182.55704212323712 349.25,182.17205212000175 359.75,186.52713685844373 370.25,193.6457865827186 380.75,199.53927234490305 391.25,200.5989646546896 401.75,202.71399076463973 412.25,200.35740217272976 422.75,185.5458361525878 433.25,168.01304106917584 443.75,158.8703610513645 454.25,161.33096657634798 464.75,159.12129376808426 475.25,153.47465391044955 485.75,150.67013800868196 496.25,148.86306361061872 506.75,145.3733425982045 517.25,139.29068973634855 527.75,137.30148253124685 538.25,142.36083711226465 548.75,146.49540841528943 559.25,141.25948957515197 569.75,134.63873352596607 580.25,121.23095053451134 590.75,117.41543005069238 601.25,118.07492989865291 611.75,107.76777048473637 622.25,103.76562907379504 632.75,101.04536574168259 643.25,107.25545799731917 653.75,112.28239348965361 664.25,106.28498859711506 674.75,104.01873139938817" fill="none" stroke="#ffd700" stroke-width="1" opacity="0.6"/>
<polyline points="55.25,290.51887414335647 65.75,290.46196244355474 76.25,291.61054402137114 86.75,293.87633519041907 97.25,292.20733011100486 107.75,290.9157657103173 118.25,286.3475793228982 128.75,276.662699649367 139.25,264.74919703310513 149.75,254.29038955409663 160.25,247.33240219933606 170.75,244.17776526568835 181.25,236.72505718058628 191.75,233.25101628999812 202.25,223.58490639147325 212.75,213.3372001581025 223.25,206.00557968622172 233.75,202.36312549011026 244.25,201.69355070524134 254.75,200.04162981419535 265.25,198.61607296632457 275.75,190.22761356777465 286.25,185.4757526679683 296.75,182.67487994343034 307.25,182.98981265609058 317.75,182.82064712702697 328.25,183.4903851040683 338.75,183.86761744042434 349.25,183.4193364718983 359.75,185.56805826524905 370.25,189.62533604088893 380.75,193.57095564604944 391.25,195.2341181239064 401.75,197.36319537129432 412.25,197.05065530176984 422.75,189.5728459945942 433.25,179.27731961418652 443.75,172.24235259628753 454.25,171.1532298744743 464.75,168.16208774303482 475.25,163.4383216434248 485.75,160.09700974555605 496.25,157.39735612172635 506.75,153.94218238566262 517.25,149.0664008632943 527.75,146.2039767283395 538.25,147.34498937305966 548.75,148.6940005818377 559.25,145.43830082057212 569.75,141.0671954763943 580.25,132.58504803552296 590.75,128.43947368052866 601.25,126.79482930126417 611.75,119.58730609319853 622.25,115.25531339478289 632.75,111.68249988254195 643.25,113.13579854182383 653.75,114.80861052955088 664.25,111.07798658091221 674.75,108.97039211237076" fill="none" stroke="#ff6b6b" stroke-width="1" opacity="0.6"/>
<polyline points="55.25,290.51887414335647 65.75,290.4890632529841 76.25,291.08812019284704 86.75,292.32471783649345 97.25,291.5982501619361 107.75,290.97972404243967 118.25,288.58077323644653 128.75,283.29505589187806 139.25,276.4229967840731 149.75,269.832783366405 160.25,264.70789534131063 170.75,261.40065760064044 181.25,255.8565826670201 191.75,252.2147969160992 202.25,245.34552214771944 212.75,237.90523642964465 223.25,231.72505082327453 233.75,227.36762518368727 244.25,224.63551461127238 254.75,221.58527377253108 265.25,218.7867779038049 275.75,212.47180346289966 286.25,207.86423919203682 296.75,204.26487857212948 307.25,202.37365298078964 317.75,200.4389624346421 328.25,199.11184277427185 338.75,197.8216827913913 349.25,196.25791034588084 359.75,196.16070996392338 370.25,197.27712673224195 380.75,198.61513788814958 391.25,199.00591992492227 401.75,199.76193164488586 412.25,199.36976910622147 422.75,195.23195339251504 433.25,189.3000960124995 443.75,184.66056315566547 454.25,182.90738358144162 464.75,180.2211516357383 475.25,176.59831568901842 485.75,173.59477192864972 496.25,170.89516648920613 506.75,167.79980783055566 517.25,163.9260531812301 527.75,161.01148317549803 538.25,160.1989177563363 548.75,159.6813590196699 559.25,156.9295773887373 569.75,153.54554348767604 580.25,147.91409977947848 590.75,144.28269876077144 601.25,141.91233979256214 611.75,136.69720758916606 622.25,132.79855412847522 632.75,129.25629555218785 643.25,128.34385240517878 653.75,127.77170117366865 664.25,124.58298475827522 674.75,122.19281640071894" fill="none" stroke="#4ecdc4" stroke-width="1" opacity="0.6"/>
<line x1="55.25" y1="286.51229047731584" x2="55.25" y2="293.9620319813601" stroke="#ff4444" stroke-width="1" opacity="0.8"/>
<rect x="50.0" y="290.51887414335647" width="6.3" height="1.53377030965612" fill="#ff4444" opacity="0.8"/>
<rect x="50.0" y="323.9089397128077" width="6.3" height="6.091060287192296" fill="#ff4444" opacity="0.3"/>
<line x1="65.75" y1="287.8269507427354" x2="65.75" y2="293.3360032835413" stroke="#ff4444" stroke-width="1" opacity="0.8"/>
<rect x="60.5" y="290.205859794447" width="6.3" height="1" fill="#ff4444" opacity="0.8"/>
<rect x="60.5" y="326.5181401787979" width="6.3" height="3.481859821202089" fill="#ff4444" opacity="0.3"/>
<line x1="76.25" y1="290.23716122933797" x2="76.25" y2="298.34423286609206" stroke="#44aa44" stroke-width="1" opacity="0.8"/>
<rect x="71.0" y="290.23716122933797" width="6.3" height="6.541999892207002" fill="#44aa44" opacity="0.8"/>
<rect x="71.0" y="325.7711579770257" width="6.3" height="4.228842022974254" fill="#44aa44" opacity="0.3"/>
<line x1="86.75" y1="292.396960236813" x2="86.75" y2="304.5732184093896" stroke="#44aa44" stroke-width="1" opacity="0.8"/>
<rect x="81.5" y="296.779161121545" width="6.3" height="7.293234329589552" fill="#44aa44" opacity="0.8"/>
<rect x="81.5" y="324.5781270323324" width="6.3" height="5.42187296766757" fill="#44aa44" opacity="0.3"/>
<line x1="97.25" y1="277.87309444741567" x2="97.25" y2="307.1399360704469" stroke="#ff4444" stroke-width="1" opacity="0.8"/>
<rect x="92.0" y="284.69680725364117" width="6.3" height="18.530449455437918" fill="#ff4444" opacity="0.8"/>
<rect x="92.0" y="320.82973815543164" width="6.3" height="9.170261844568378" fill="#ff4444" opacity="0.3"/>
<line x1="107.75" y1="273.4595921277928" x2="107.75" y2="290.8005870573749" stroke="#44aa44" stroke-width="1" opacity="0.8"/>
<rect x="102.5" y="284.69680725364117" width="6.3" height="1" fill="#44aa44" opacity="0.8"/>
<rect x="102.5" y="317.53123697542253" width="6.3" height="12.468763024577445" fill="#44aa44" opacity="0.3"/>
<line x1="118.25" y1="265.2899176212568" x2="118.25" y2="287.7017450031716" stroke="#ff4444" stroke-width="1" opacity="0.8"/>
<rect x="113.0" y="265.79074057951186" width="6.3" height="19.406889632384377" fill="#ff4444" opacity="0.8"/>
<rect x="113.0" y="318.28323008357825" width="6.3" height="11.71676991642177" fill="#ff4444" opacity="0.3"/>
<line x1="128.75" y1="233.08074111847696" x2="128.75" y2="271.4876017296634" stroke="#ff4444" stroke-width="1" opacity="0.8"/>
<rect x="123.5" y="233.08074111847696" width="6.3" height="38.40686061118646" fill="#ff4444" opacity="0.8"/>
<rect x="123.5" y="316.7164135963756" width="6.3" height="13.283586403624398" fill="#ff4444" opacity="0.3"/>
<line x1="139.25" y1="197.08409099389314" x2="139.25" y2="212.92261704871004" stroke="#ff4444" stroke-width="1" opacity="0.8"/>
<rect x="134.0" y="211.13843525992633" width="6.3" height="1.7841817887837124" fill="#ff4444" opacity="0.8"/>
<rect x="134.0" y="307.84458764800365" width="6.3" height="22.155412351996365" fill="#ff4444" opacity="0.3"/>
<line x1="149.75" y1="192.29497145557895" x2="149.75" y2="223.53380347673954" stroke="#ff4444" stroke-width="1" opacity="0.8"/>
<rect x="144.5" y="207.22575589855853" width="6.3" height="6.948918545789212" fill="#ff4444" opacity="0.8"/>
<rect x="144.5" y="316.66664174918094" width="6.3" height="13.33335825081908" fill="#ff4444" opacity="0.3"/>
<line x1="160.25" y1="201.59149761818884" x2="160.25" y2="220.37235855275435" stroke="#44aa44" stroke-width="1" opacity="0.8"/>
<rect x="155.0" y="204.75294254217405" width="6.3" height="11.268516560739272" fill="#44aa44" opacity="0.8"/>
<rect x="155.0" y="318.0304106285369" width="6.3" height="11.969589371463066" fill="#44aa44" opacity="0.3"/>
<line x1="170.75" y1="218.8698896779891" x2="170.75" y2="239.18452092221077" stroke="#44aa44" stroke-width="1" opacity="0.8"/>
<rect x="165.5" y="219.27680833157135" width="6.3" height="10.70509073270236" fill="#44aa44" opacity="0.8"/>
<rect x="165.5" y="318.41796557366945" width="6.3" height="11.58203442633054" fill="#44aa44" opacity="0.3"/>
<line x1="181.25" y1="196.9275838194384" x2="181.25" y2="233.612865511623" stroke="#ff4444" stroke-width="1" opacity="0.8"/>
<rect x="176.0" y="203.18787079762694" width="6.3" height="26.63752109219203" fill="#ff4444" opacity="0.8"/>
<rect x="176.0" y="309.82532178025804" width="6.3" height="20.17467821974199" fill="#ff4444" opacity="0.3"/>
<line x1="191.75" y1="211.01322952036256" x2="191.75" y2="228.2290187103809" stroke="#44aa44" stroke-width="1" opacity="0.8"/>
<rect x="186.5" y="215.70844475400392" width="6.3" height="1.9093875283474802" fill="#44aa44" opacity="0.8"/>
<rect x="186.5" y="316.5488866950427" width="6.3" height="13.451113304957302" fill="#44aa44" opacity="0.3"/>
<line x1="202.25" y1="180.08741184811137" x2="202.25" y2="220.40365998764528" stroke="#ff4444" stroke-width="1" opacity="0.8"/>
<rect x="197.0" y="180.08741184811137" width="6.3" height="40.28494670464298" fill="#ff4444" opacity="0.8"/>
<rect x="197.0" y="318.419409126677" width="6.3" height="11.580590873322992" fill="#ff4444" opacity="0.3"/>
<line x1="212.75" y1="154.7645510213389" x2="212.75" y2="186.00338304249948" stroke="#ff4444" stroke-width="1" opacity="0.8"/>
<rect x="207.5" y="167.22252210793397" width="6.3" height="2.535416226166376" fill="#ff4444" opacity="0.8"/>
<rect x="207.5" y="302.22663150975546" width="6.3" height="27.773368490244554" fill="#ff4444" opacity="0.3"/>
<line x1="223.25" y1="153.98201514906535" x2="223.25" y2="175.955622442507" stroke="#44aa44" stroke-width="1" opacity="0.8"/>
<rect x="218.0" y="158.70853181759765" width="6.3" height="14.304755745160776" fill="#44aa44" opacity="0.8"/>
<rect x="218.0" y="312.6350232870516" width="6.3" height="17.364976712948405" fill="#44aa44" opacity="0.3"/>
<line x1="233.75" y1="164.37409153285822" x2="233.75" y2="189.7282537945216" stroke="#44aa44" stroke-width="1" opacity="0.8"/>
<rect x="228.5" y="169.75793833410034" width="6.3" height="16.2141432735082" fill="#44aa44" opacity="0.8"/>
<rect x="228.5" y="315.7561867210067" width="6.3" height="14.24381327899328" fill="#44aa44" opacity="0.3"/>
<line x1="244.25" y1="177.67720136150876" x2="244.25" y2="201.65410048797077" stroke="#44aa44" stroke-width="1" opacity="0.8"/>
<rect x="239.0" y="179.71179462942007" width="6.3" height="18.968669543911147" fill="#44aa44" opacity="0.8"/>
<rect x="239.0" y="316.24267072921356" width="6.3" height="13.757329270786457" fill="#44aa44" opacity="0.3"/>
<line x1="254.75" y1="191.01161262505036" x2="254.75" y2="206.16150711226646" stroke="#ff4444" stroke-width="1" opacity="0.8"/>
<rect x="249.5" y="192.60798580448838" width="6.3" height="5.8846697594972" fill="#ff4444" opacity="0.8"/>
<rect x="249.5" y="319.1638256580002" width="6.3" height="10.8361743419998" fill="#ff4444" opacity="0.3"/>
<line x1="265.25" y1="174.7035650468693" x2="265.25" y2="194.57997620261776" stroke="#ff4444" stroke-width="1" opacity="0.8"/>
<rect x="260.0" y="192.20106715090614" width="6.3" height="1" fill="#ff4444" opacity="0.8"/>
<rect x="260.0" y="319.1335376234931" width="6.3" height="10.866462376506863" fill="#ff4444" opacity="0.3"/>
<line x1="275.75" y1="152.13523049049974" x2="275.75" y2="190.66729684124994" stroke="#ff4444" stroke-width="1" opacity="0.8"/>
<rect x="270.5" y="152.47954627430016" width="6.3" height="38.187750566949774" fill="#ff4444" opacity="0.8"/>
<rect x="270.5" y="301.8681818491399" width="6.3" height="28.131818150860095" fill="#ff4444" opacity="0.3"/>
<line x1="286.25" y1="148.44166117336852" x2="286.25" y2="175.6426080935975" stroke="#ff4444" stroke-width="1" opacity="0.8"/>
<rect x="281.0" y="164.09237861883975" width="6.3" height="10.392076383792954" fill="#ff4444" opacity="0.8"/>
<rect x="281.0" y="307.2128604459665" width="6.3" height="22.787139554033487" fill="#ff4444" opacity="0.3"/>
<line x1="296.75" y1="167.19122067304306" x2="296.75" y2="189.47784231539416" stroke="#44aa44" stroke-width="1" opacity="0.8"/>
<rect x="291.5" y="168.34937376400796" width="6.3" height="1.7215789190017574" fill="#44aa44" opacity="0.8"/>
<rect x="291.5" y="313.84880551387414" width="6.3" height="16.15119448612586" fill="#44aa44" opacity="0.3"/>
<line x1="307.25" y1="173.45150765123157" x2="307.25" y2="196.9275838194384" stroke="#44aa44" stroke-width="1" opacity="0.8"/>
<rect x="302.0" y="176.39384253098015" width="6.3" height="8.01316733208128" fill="#44aa44" opacity="0.8"/>
<rect x="302.0" y="308.6001431260381" width="6.3" height="21.399856873961877" fill="#44aa44" opacity="0.3"/>
<line x1="317.75" y1="171.88643590668443" x2="317.75" y2="196.30155512161957" stroke="#ff4444" stroke-width="1" opacity="0.8"/>
<rect x="312.5" y="182.05940224624075" width="6.3" height="13.67872704734188" fill="#ff4444" opacity="0.8"/>
<rect x="312.5" y="314.2405798199263" width="6.3" height="15.759420180073686" fill="#ff4444" opacity="0.3"/>
<line x1="328.25" y1="177.33288557770845" x2="328.25" y2="195.6442249889098" stroke="#ff4444" stroke-width="1" opacity="0.8"/>
<rect x="323.0" y="186.50420600075455" width="6.3" height="2.2850047470388404" fill="#ff4444" opacity="0.8"/>
<rect x="323.0" y="317.4825806010064" width="6.3" height="12.517419398993566" fill="#ff4444" opacity="0.3"/>
<line x1="338.75" y1="172.82547895341276" x2="338.75" y2="197.39710534280258" stroke="#44aa44" stroke-width="1" opacity="0.8"/>
<rect x="333.5" y="182.5289237696049" width="6.3" height="3.036239184421447" fill="#44aa44" opacity="0.8"/>
<rect x="333.5" y="318.4816031710989" width="6.3" height="11.518396828901093" fill="#44aa44" opacity="0.3"/>
<line x1="349.25" y1="164.43669440264014" x2="349.25" y2="199.49430148049566" stroke="#ff4444" stroke-width="1" opacity="0.8"/>
<rect x="344.0" y="181.40207211353092" width="6.3" height="7.700152983171876" fill="#ff4444" opacity="0.8"/>
<rect x="344.0" y="317.3229400839121" width="6.3" height="12.677059916087874" fill="#ff4444" opacity="0.3"/>
<line x1="359.75" y1="168.7875938524811" x2="359.75" y2="195.7068278586917" stroke="#44aa44" stroke-width="1" opacity="0.8"/>
<rect x="354.5" y="185.97208160760854" width="6.3" height="9.265224727718959" fill="#44aa44" opacity="0.8"/>
<rect x="354.5" y="315.4462813061214" width="6.3" height="14.553718693878555" fill="#44aa44" opacity="0.3"/>
<line x1="370.25" y1="189.1022250967028" x2="370.25" y2="210.07418647363428" stroke="#44aa44" stroke-width="1" opacity="0.8"/>
<rect x="365.0" y="191.60633988797827" width="6.3" height="16.27674614329004" fill="#44aa44" opacity="0.8"/>
<rect x="365.0" y="315.6169419965783" width="6.3" height="14.383058003421668" fill="#44aa44" opacity="0.3"/>
<line x1="380.75" y1="201.62279905307977" x2="380.75" y2="217.64913371724236" stroke="#44aa44" stroke-width="1" opacity="0.8"/>
<rect x="375.5" y="203.75129662566388" width="6.3" height="7.574947243608079" fill="#44aa44" opacity="0.8"/>
<rect x="375.5" y="319.1628206527418" width="6.3" height="10.837179347258221" fill="#44aa44" opacity="0.3"/>
<line x1="391.25" y1="195.4251149446732" x2="391.25" y2="211.35754530416293" stroke="#ff4444" stroke-width="1" opacity="0.8"/>
<rect x="386.0" y="202.71834927426278" width="6.3" height="6.72980850155264" fill="#ff4444" opacity="0.8"/>
<rect x="386.0" y="322.5380195150426" width="6.3" height="7.4619804849573965" fill="#ff4444" opacity="0.3"/>
<line x1="401.75" y1="199.74471295962329" x2="401.75" y2="217.27351649855103" stroke="#44aa44" stroke-width="1" opacity="0.8"/>
<rect x="396.5" y="201.7793062275345" width="6.3" height="5.164736757005528" fill="#44aa44" opacity="0.8"/>
<rect x="396.5" y="319.27051900963295" width="6.3" height="10.729480990367067" fill="#44aa44" opacity="0.3"/>
<line x1="412.25" y1="186.4416031309727" x2="412.25" y2="209.82377499450675" stroke="#ff4444" stroke-width="1" opacity="0.8"/>
<rect x="407.0" y="195.6442249889098" width="6.3" height="14.116947135815053" fill="#ff4444" opacity="0.8"/>
<rect x="407.0" y="317.7010396737869" width="6.3" height="12.298960326213079" fill="#ff4444" opacity="0.3"/>
<line x1="422.75" y1="155.9227041123038" x2="422.75" y2="167.94245511042573" stroke="#ff4444" stroke-width="1" opacity="0.8"/>
<rect x="417.5" y="155.9227041123038" width="6.3" height="11.268516560739272" fill="#ff4444" opacity="0.8"/>
<rect x="417.5" y="319.3874343445015" width="6.3" height="10.612565655498482" fill="#ff4444" opacity="0.3"/>
<line x1="433.25" y1="112.22590100454808" x2="433.25" y2="163.403747051239" stroke="#ff4444" stroke-width="1" opacity="0.8"/>
<rect x="428.0" y="132.947450902352" width="6.3" height="22.975253209951802" fill="#ff4444" opacity="0.8"/>
<rect x="428.0" y="295.0" width="6.3" height="35.0" fill="#ff4444" opacity="0.3"/>
<line x1="443.75" y1="123.99524052354242" x2="443.75" y2="148.15994825935002" stroke="#44aa44" stroke-width="1" opacity="0.8"/>
<rect x="438.5" y="129.6294988039121" width="6.3" height="10.955502211829867" fill="#44aa44" opacity="0.8"/>
<rect x="438.5" y="311.8088549767445" width="6.3" height="18.19114502325549" fill="#44aa44" opacity="0.3"/>
<line x1="454.25" y1="145.28021624938333" x2="454.25" y2="168.66238811291737" stroke="#44aa44" stroke-width="1" opacity="0.8"/>
<rect x="449.0" y="145.28021624938333" width="6.3" height="20.971961376931432" fill="#44aa44" opacity="0.8"/>
<rect x="449.0" y="312.55190353810025" width="6.3" height="17.448096461899752" fill="#44aa44" opacity="0.3"/>
<line x1="464.75" y1="143.9342545490728" x2="464.75" y2="169.75793833410034" stroke="#ff4444" stroke-width="1" opacity="0.8"/>
<rect x="459.5" y="154.701948151557" width="6.3" height="7.7940572878447085" fill="#ff4444" opacity="0.8"/>
<rect x="459.5" y="313.5533032363329" width="6.3" height="16.446696763667116" fill="#ff4444" opacity="0.3"/>
<line x1="475.25" y1="139.89636944814123" x2="475.25" y2="160.30490499703578" stroke="#ff4444" stroke-width="1" opacity="0.8"/>
<rect x="470.0" y="142.18137419518" width="6.3" height="15.619416010580323" fill="#ff4444" opacity="0.8"/>
<rect x="470.0" y="314.5638451600857" width="6.3" height="15.43615483991429" fill="#ff4444" opacity="0.3"/>
<line x1="485.75" y1="129.660800238803" x2="485.75" y2="147.06439803816704" stroke="#44aa44" stroke-width="1" opacity="0.8"/>
<rect x="480.5" y="142.212675630071" width="6.3" height="2.848430575075753" fill="#44aa44" opacity="0.8"/>
<rect x="480.5" y="318.4123682757881" width="6.3" height="11.587631724211938" fill="#44aa44" opacity="0.3"/>
<line x1="496.25" y1="139.11383357586766" x2="496.25" y2="151.29009174844424" stroke="#44aa44" stroke-width="1" opacity="0.8"/>
<rect x="491.0" y="143.71514450483622" width="6.3" height="1.5337703096562052" fill="#44aa44" opacity="0.8"/>
<rect x="491.0" y="322.35656041684626" width="6.3" height="7.64343958315372" fill="#44aa44" opacity="0.3"/>
<line x1="506.75" y1="136.64102021948324" x2="506.75" y2="151.60310609735376" stroke="#ff4444" stroke-width="1" opacity="0.8"/>
<rect x="501.5" y="138.39390057337602" width="6.3" height="5.196038191896463" fill="#ff4444" opacity="0.8"/>
<rect x="501.5" y="320.79956972485616" width="6.3" height="9.20043027514386" fill="#ff4444" opacity="0.3"/>
<line x1="517.25" y1="117.82885785002676" x2="517.25" y2="140.52239814596004" stroke="#ff4444" stroke-width="1" opacity="0.8"/>
<rect x="512.0" y="127.12538401263666" width="6.3" height="7.168028590025898" fill="#ff4444" opacity="0.8"/>
<rect x="512.0" y="317.07710001662826" width="6.3" height="12.922899983371732" fill="#ff4444" opacity="0.3"/>
<line x1="527.75" y1="124.93428357027072" x2="527.75" y2="146.53227364502106" stroke="#44aa44" stroke-width="1" opacity="0.8"/>
<rect x="522.5" y="131.82059924627805" width="6.3" height="1.5024688747652704" fill="#44aa44" opacity="0.8"/>
<rect x="522.5" y="320.4131319136679" width="6.3" height="9.58686808633211" fill="#44aa44" opacity="0.3"/>
<line x1="538.25" y1="136.32800587057375" x2="538.25" y2="154.63934528177518" stroke="#44aa44" stroke-width="1" opacity="0.8"/>
<rect x="533.0" y="142.1500727602891" width="6.3" height="10.329473514011056" fill="#44aa44" opacity="0.8"/>
<rect x="533.0" y="316.4191305491864" width="6.3" height="13.580869450813632" fill="#44aa44" opacity="0.3"/>
<line x1="548.75" y1="146.6574793845848" x2="548.75" y2="158.17640742445167" stroke="#ff4444" stroke-width="1" opacity="0.8"/>
<rect x="543.5" y="154.7645510213389" width="6.3" height="1" fill="#ff4444" opacity="0.8"/>
<rect x="543.5" y="321.9752614218017" width="6.3" height="8.024738578198296" fill="#ff4444" opacity="0.3"/>
<line x1="559.25" y1="125.05948930983448" x2="559.25" y2="158.08250311977883" stroke="#ff4444" stroke-width="1" opacity="0.8"/>
<rect x="554.0" y="130.787651894877" width="6.3" height="27.013138310883335" fill="#ff4444" opacity="0.8"/>
<rect x="554.0" y="315.8943184644051" width="6.3" height="14.105681535594877" fill="#ff4444" opacity="0.3"/>
<line x1="569.75" y1="105.21437958897693" x2="569.75" y2="129.6294988039121" stroke="#ff4444" stroke-width="1" opacity="0.8"/>
<rect x="564.5" y="121.39722142759425" width="6.3" height="1.9719903981293498" fill="#ff4444" opacity="0.8"/>
<rect x="564.5" y="317.50786354320996" width="6.3" height="12.492136456790007" fill="#ff4444" opacity="0.3"/>
<line x1="580.25" y1="92.2868869790177" x2="580.25" y2="131.03806337400448" stroke="#ff4444" stroke-width="1" opacity="0.8"/>
<rect x="575.0" y="94.4153845516018" width="6.3" height="21.879702988768827" fill="#ff4444" opacity="0.8"/>
<rect x="575.0" y="316.99055992746685" width="6.3" height="13.00944007253314" fill="#ff4444" opacity="0.3"/>
<line x1="590.75" y1="95.19792042387537" x2="590.75" y2="114.66741292604158" stroke="#44aa44" stroke-width="1" opacity="0.8"/>
<rect x="585.5" y="98.32806391296963" width="6.3" height="11.456325170084924" fill="#44aa44" opacity="0.8"/>
<rect x="585.5" y="317.750346394581" width="6.3" height="12.249653605418988" fill="#44aa44" opacity="0.3"/>
<line x1="601.25" y1="104.68225519583093" x2="601.25" y2="124.80907783070698" stroke="#44aa44" stroke-width="1" opacity="0.8"/>
<rect x="596.0" y="116.07597749613396" width="6.3" height="3.3179520984399034" fill="#44aa44" opacity="0.8"/>
<rect x="596.0" y="321.0756313800184" width="6.3" height="8.924368619981598" fill="#44aa44" opacity="0.3"/>
<line x1="611.75" y1="77.82562405940226" x2="611.75" y2="126.49935531481786" stroke="#ff4444" stroke-width="1" opacity="0.8"/>
<rect x="606.5" y="87.15345165690317" width="6.3" height="34.40027694514572" fill="#ff4444" opacity="0.8"/>
<rect x="606.5" y="315.8220145654332" width="6.3" height="14.177985434566764" fill="#ff4444" opacity="0.3"/>
<line x1="622.25" y1="84.2424182120455" x2="622.25" y2="99.767929917953" stroke="#44aa44" stroke-width="1" opacity="0.8"/>
<rect x="617.0" y="87.09084878712125" width="6.3" height="8.670497464791111" fill="#44aa44" opacity="0.8"/>
<rect x="617.0" y="321.2939990886845" width="6.3" height="8.706000911315513" fill="#44aa44" opacity="0.3"/>
<line x1="632.75" y1="89.3132506643782" x2="632.75" y2="104.33793941203054" stroke="#ff4444" stroke-width="1" opacity="0.8"/>
<rect x="627.5" y="95.60483907745761" width="6.3" height="2.660621965730087" fill="#ff4444" opacity="0.8"/>
<rect x="627.5" y="321.4044176044362" width="6.3" height="8.595582395563758" fill="#ff4444" opacity="0.3"/>
<line x1="643.25" y1="92.09907836967204" x2="643.25" y2="120.86509703444817" stroke="#44aa44" stroke-width="1" opacity="0.8"/>
<rect x="638.0" y="92.97551854661843" width="6.3" height="26.70012396197393" fill="#44aa44" opacity="0.8"/>
<rect x="638.0" y="318.84073058732673" width="6.3" height="11.159269412673266" fill="#44aa44" opacity="0.3"/>
<line x1="653.75" y1="112.0380923952024" x2="653.75" y2="131.4136805926958" stroke="#44aa44" stroke-width="1" opacity="0.8"/>
<rect x="648.5" y="121.49112573226708" width="6.3" height="1" fill="#44aa44" opacity="0.8"/>
<rect x="648.5" y="317.62672410313246" width="6.3" height="12.373275896867524" fill="#44aa44" opacity="0.3"/>
<line x1="664.25" y1="92.47469558836336" x2="664.25" y2="134.32471403755346" stroke="#ff4444" stroke-width="1" opacity="0.8"/>
<rect x="659.0" y="94.29017881203806" width="6.3" height="29.07903301368553" fill="#ff4444" opacity="0.8"/>
<rect x="659.0" y="317.0900679067933" width="6.3" height="12.90993209320668" fill="#ff4444" opacity="0.3"/>
<line x1="674.75" y1="69.84375816221198" x2="674.75" y2="104.58835089115811" stroke="#44aa44" stroke-width="1" opacity="0.8"/>
<rect x="669.5" y="93.69545154911016" width="6.3" height="5.790765454824339" fill="#44aa44" opacity="0.8"/>
<rect x="669.5" y="319.2206931745525" width="6.3" height="10.779306825447529" fill="#44aa44" opacity="0.3"/>
<rect x="145.75" y="188.29497145557895" width="8" height="8" fill="#ff9800" opacity="0.85"/>
<text x="149.75" y="185.29497145557895" text-anchor="middle" font-size="8" font-weight="bold" fill="#ff9800">前高</text>
<rect x="198.25" y="176.08741184811137" width="8" height="8" fill="#2196f3" opacity="0.85"/>
<text x="202.25" y="173.08741184811137" text-anchor="middle" font-size="8" font-weight="bold" fill="#2196f3">中</text>
<rect x="219.25" y="149.98201514906535" width="8" height="8" fill="#ff9800" opacity="0.85"/>
<text x="223.25" y="146.98201514906535" text-anchor="middle" font-size="8" font-weight="bold" fill="#ff9800">前高</text>
<rect x="250.75" y="188.60798580448838" width="8" height="8" fill="#2196f3" opacity="0.85"/>
<text x="254.75" y="185.60798580448838" text-anchor="middle" font-size="8" font-weight="bold" fill="#2196f3">中</text>
<rect x="261.25" y="188.20106715090614" width="8" height="8" fill="#2196f3" opacity="0.85"/>
<text x="265.25" y="185.20106715090614" text-anchor="middle" font-size="8" font-weight="bold" fill="#2196f3">中</text>
<rect x="282.25" y="144.44166117336852" width="8" height="8" fill="#ff9800" opacity="0.85"/>
<text x="286.25" y="141.44166117336852" text-anchor="middle" font-size="8" font-weight="bold" fill="#ff9800">前高</text>
<rect x="313.75" y="178.05940224624075" width="8" height="8" fill="#2196f3" opacity="0.85"/>
<text x="317.75" y="175.05940224624075" text-anchor="middle" font-size="8" font-weight="bold" fill="#2196f3">中</text>
<rect x="334.75" y="181.56516295402633" width="8" height="8" fill="#2196f3" opacity="0.85"/>
<text x="338.75" y="178.56516295402633" text-anchor="middle" font-size="8" font-weight="bold" fill="#2196f3">中</text>
<rect x="345.25" y="160.43669440264014" width="8" height="8" fill="#ff9800" opacity="0.85"/>
<text x="349.25" y="157.43669440264014" text-anchor="middle" font-size="8" font-weight="bold" fill="#ff9800">前高</text>
<rect x="376.75" y="213.64913371724236" width="8" height="8" fill="#ff9800" opacity="0.85"/>
<text x="380.75" y="210.64913371724236" text-anchor="middle" font-size="8" font-weight="bold" fill="#ff9800">前低</text>
<rect x="429.25" y="108.22590100454808" width="8" height="8" fill="#ff9800" opacity="0.85"/>
<text x="433.25" y="105.22590100454808" text-anchor="middle" font-size="8" font-weight="bold" fill="#ff9800">前高</text>
<rect x="460.75" y="150.701948151557" width="8" height="8" fill="#2196f3" opacity="0.85"/>
<text x="464.75" y="147.701948151557" text-anchor="middle" font-size="8" font-weight="bold" fill="#2196f3">中</text>
<rect x="471.25" y="138.18137419518" width="8" height="8" fill="#2196f3" opacity="0.85"/>
<text x="475.25" y="135.18137419518" text-anchor="middle" font-size="8" font-weight="bold" fill="#2196f3">中</text>
<rect x="502.75" y="134.39390057337602" width="8" height="8" fill="#2196f3" opacity="0.85"/>
<text x="506.75" y="131.39390057337602" text-anchor="middle" font-size="8" font-weight="bold" fill="#2196f3">中</text>
<rect x="513.25" y="113.82885785002676" width="8" height="8" fill="#ff9800" opacity="0.85"/>
<text x="517.25" y="110.82885785002676" text-anchor="middle" font-size="8" font-weight="bold" fill="#ff9800">前高</text>
<rect x="544.75" y="154.17640742445167" width="8" height="8" fill="#ff9800" opacity="0.85"/>
<text x="548.75" y="151.17640742445167" text-anchor="middle" font-size="8" font-weight="bold" fill="#ff9800">前低</text>
<rect x="607.75" y="73.82562405940226" width="8" height="8" fill="#ff9800" opacity="0.85"/>
<text x="611.75" y="70.82562405940226" text-anchor="middle" font-size="8" font-weight="bold" fill="#ff9800">前高</text>
<rect x="628.75" y="91.60483907745761" width="8" height="8" fill="#2196f3" opacity="0.85"/>
<text x="632.75" y="88.60483907745761" text-anchor="middle" font-size="8" font-weight="bold" fill="#2196f3">中</text>
<text x="55.25" y="355" fill="#666666" font-size="8" text-anchor="middle" transform="rotate(-30,55.25,355)">02/11</text>
<text x="107.75" y="355" fill="#666666" font-size="8" text-anchor="middle" transform="rotate(-30,107.75,355)">02/26</text>
<text x="160.25" y="355" fill="#666666" font-size="8" text-anchor="middle" transform="rotate(-30,160.25,355)">03/05</text>
<text x="212.75" y="355" fill="#666666" font-size="8" text-anchor="middle" transform="rotate(-30,212.75,355)">03/12</text>
<text x="265.25" y="355" fill="#666666" font-size="8" text-anchor="middle" transform="rotate(-30,265.25,355)">03/19</text>
<text x="317.75" y="355" fill="#666666" font-size="8" text-anchor="middle" transform="rotate(-30,317.75,355)">03/26</text>
<text x="370.25" y="355" fill="#666666" font-size="8" text-anchor="middle" transform="rotate(-30,370.25,355)">04/02</text>
<text x="422.75" y="355" fill="#666666" font-size="8" text-anchor="middle" transform="rotate(-30,422.75,355)">04/10</text>
<text x="475.25" y="355" fill="#666666" font-size="8" text-anchor="middle" transform="rotate(-30,475.25,355)">04/17</text>
<text x="527.75" y="355" fill="#666666" font-size="8" text-anchor="middle" transform="rotate(-30,527.75,355)">04/24</text>
<text x="580.25" y="355" fill="#666666" font-size="8" text-anchor="middle" transform="rotate(-30,580.25,355)">05/06</text>
<text x="632.75" y="355" fill="#666666" font-size="8" text-anchor="middle" transform="rotate(-30,632.75,355)">05/13</text>
<text x="674.75" y="355" fill="#666666" font-size="8" text-anchor="middle" transform="rotate(-30,674.75,355)">05/19</text>
<rect x="50" y="334" width="7" height="7" fill="#ff9800" opacity="0.8" rx="1"/>
<text x="60" y="340" font-family="sans-serif" font-size="8" fill="#888888">第1类</text>
<rect x="120" y="334" width="7" height="7" fill="#2196f3" opacity="0.8" rx="1"/>
<text x="130" y="340" font-family="sans-serif" font-size="8" fill="#888888">第2类</text>
<rect x="190" y="334" width="7" height="7" fill="#ffd700" opacity="0.8" rx="1"/>
<text x="200" y="340" font-family="sans-serif" font-size="8" fill="#888888">EMA5</text>
<rect x="260" y="334" width="7" height="7" fill="#ff6b6b" opacity="0.8" rx="1"/>
<text x="270" y="340" font-family="sans-serif" font-size="8" fill="#888888">EMA10</text>
<rect x="330" y="334" width="7" height="7" fill="#4ecdc4" opacity="0.8" rx="1"/>
<text x="340" y="340" font-family="sans-serif" font-size="8" fill="#888888">EMA20</text>
</svg>