<svg xmlns="http://www.w3.org/2000/svg" width="700" height="380" viewBox="0 0 700 380">
<rect width="700" height="380" fill="#1a1a2e"/>
<text x="350.0" y="20" text-anchor="middle" font-family="sans-serif" font-size="14" font-weight="bold" fill="#ffffff">福光股份(688010) 关键点图</text>
<line x1="50" y1="27.98796405157128" x2="680" y2="27.98796405157128" stroke="#2a2a4e" stroke-width="0.5"/>
<text x="46" y="30.98796405157128" text-anchor="end" font-size="9" fill="#666666">44.27</text>
<line x1="50" y1="128.63858278699968" x2="680" y2="128.63858278699968" stroke="#2a2a4e" stroke-width="0.5"/>
<text x="46" y="131.63858278699968" text-anchor="end" font-size="9" fill="#666666">37.58</text>
<line x1="50" y1="229.28920152242796" x2="680" y2="229.28920152242796" stroke="#2a2a4e" stroke-width="0.5"/>
<text x="46" y="232.28920152242796" text-anchor="end" font-size="9" fill="#666666">30.89</text>
<line x1="50" y1="329.93982025785624" x2="680" y2="329.93982025785624" stroke="#2a2a4e" stroke-width="0.5"/>
<text x="46" y="332.93982025785624" text-anchor="end" font-size="9" fill="#666666">24.2</text>
<polyline points="55.25,219.0586453579898 65.75,219.76074234966694 76.25,221.38225206854028 86.75,223.11520575434653 97.25,223.91945971571212 107.75,217.63525824699707 118.25,208.53111165944716 128.75,201.85988317964302 139.25,206.94085669920128 149.75,211.6320667920214 160.25,210.69740759253148 170.75,213.88568512864268 181.25,220.22378543611282 191.75,223.24559079821785 202.25,226.46372254916298 212.75,232.1697784599651 223.25,238.1302564939844 233.75,238.49312398803872 244.25,242.99776738592416 254.75,242.79127673684755 265.25,246.51514975835408 275.75,254.26345921027018 286.25,267.8541627450064 296.75,269.8435120662729 307.25,265.00132137738245 317.75,265.93562641639846 328.25,266.30774751681014 338.75,265.2017840521835 349.25,267.67406132343257 359.75,259.9442363535303 370.25,259.70569864866866 380.75,249.5167164881353 391.25,246.98679344962898 401.75,230.20509276956648 412.25,216.8608515560403 422.75,202.9497122350434 433.25,195.73176054429035 443.75,190.66904382485603 454.25,188.84854268394682 464.75,185.07723621556443 475.25,180.1558422175593 485.75,171.85993437357638 496.25,166.2791793591347 506.75,162.1574777352152 517.25,165.12675215625887 527.75,171.56959931261636 538.25,168.19191362685947 548.75,174.6160359954127 559.25,181.3059739268649 569.75,184.4620381347184 580.25,185.91413373339674 590.75,182.16811766458824 601.25,176.91253543712725 611.75,173.40881395215322 622.25,172.27659447171231 632.75,172.17372869130898 643.25,176.86938109075396 653.75,180.5013138749152 664.25,166.7743715891155 674.75,140.12080172510724" fill="none" stroke="#ffd700" stroke-width="1" opacity="0.6"/>
<polyline points="55.25,219.0586453579898 65.75,219.44160735345005 76.25,220.384091744875 86.75,221.51082290507213 97.25,222.2412128565942 107.75,219.1186023934983 118.25,213.88300531910724 128.75,209.27108184654855 139.25,210.69503128141574 149.75,212.57129595346052 160.25,211.89071290620433 170.75,213.41280877796083 181.25,216.95593191852308 191.75,219.1983445737785 202.25,221.68955211510118 212.75,225.66997723627728 223.25,230.10292911368563 233.75,231.76037090686046 244.25,235.44158604773946 254.75,236.702805937004 265.25,239.84100409416095 275.75,245.28083573415026 286.25,254.3271510214828 296.75,257.8717073282688 307.25,257.407204177602 317.75,259.29757368975265 328.25,260.7074675130037 338.75,261.12244744208124 349.25,263.2126598827811 359.75,259.80755561568014 370.25,259.7022951835466 380.75,254.1452873623688 391.25,251.92377100059556 401.75,241.8724838022039 412.25,232.4724629525283 422.75,222.0460939780776 433.25,214.63696001166062 443.75,208.43816917062915 454.25,204.2144184854472 464.75,199.3635466296931 475.25,194.08163891912147 485.75,187.02463524030128 496.25,181.22336871120132 506.75,176.25804248868766 517.25,175.31390767226196 527.75,176.97597784554733 538.25,174.1506259200561 548.75,176.57129043141302 559.25,179.86484667838695 569.75,181.84835938239394 580.25,183.11562584573204 590.75,181.58116396959372 601.25,178.82120160825033 611.75,176.56305058533297 622.25,175.37197875360522 632.75,174.75307300395013 643.25,176.84536625589445 653.75,178.8307868354114 664.25,171.6470959594304 674.75,156.222835239005" fill="none" stroke="#ff6b6b" stroke-width="1" opacity="0.6"/>
<polyline points="55.25,219.0586453579898 65.75,219.25924449846897 76.25,219.7702946896897 86.75,220.41894406457249 97.25,220.90551773827448 107.75,219.39707369744525 118.25,216.62809701048351 128.75,213.950890268536 139.25,214.25107250375333 149.75,214.89520721555417 160.25,214.31738645155392 170.75,214.8835629991073 181.25,216.59941281357834 191.75,217.80796411918308 202.25,219.24529954126595 212.75,221.5630700879615 223.25,224.27622651406264 233.75,225.6993343675945 244.25,228.204831492747 254.75,229.55468520188484 265.25,231.8792766875498 275.75,235.48697206150723 286.25,241.1582670855998 296.75,244.2691188592384 307.25,245.32129230117778 317.75,247.4625250814875 328.25,249.32818838016806 338.75,250.62929968900258 349.25,252.7235202772814 359.75,251.93885990932375 370.25,252.63312308357345 380.75,250.3955639486682 391.25,249.58902903666328 401.75,244.54642545311836 412.25,239.36794389843925 422.75,233.24980005983073 433.25,228.30180549820724 443.75,223.75340596371007 454.25,220.0823711483213 464.75,216.03020468455733 475.25,211.6761903547471 485.75,206.30399305292457 496.25,201.4291050793366 506.75,196.9038640705785 517.25,194.44304853988973 527.75,193.4918337861223 538.25,190.4389488784293 548.75,190.15564715024732 559.25,190.587095020678 569.75,190.6049113568444 580.25,190.43476026864533 590.75,188.93393410277164 601.25,186.78797571033675 611.75,184.84639430765753 622.25,183.4336096603407 632.75,182.34164656226082 643.25,182.71488840296402 653.75,183.19586850203774 664.25,179.01726074160706 674.75,170.23596562308168" fill="none" stroke="#4ecdc4" stroke-width="1" opacity="0.6"/>
<line x1="55.25" y1="213.3415698543332" x2="55.25" y2="228.08560667955288" stroke="#44aa44" stroke-width="1" opacity="0.8"/>
<rect x="50.0" y="218.75774664727103" width="6.3" height="1" fill="#44aa44" opacity="0.8"/>
<rect x="50.0" y="321.06100531800206" width="6.3" height="8.938994681997915" fill="#44aa44" opacity="0.3"/>
<line x1="65.75" y1="212.58932307753628" x2="65.75" y2="226.12976505988087" stroke="#ff4444" stroke-width="1" opacity="0.8"/>
<rect x="60.5" y="221.1649363330212" width="6.3" height="2.5576390411094962" fill="#ff4444" opacity="0.8"/>
<rect x="60.5" y="324.6845027702196" width="6.3" height="5.315497229780422" fill="#ff4444" opacity="0.3"/>
<line x1="76.25" y1="217.40370244903656" x2="76.25" y2="224.62527150628705" stroke="#44aa44" stroke-width="1" opacity="0.8"/>
<rect x="71.0" y="224.17392344020888" width="6.3" height="1" fill="#44aa44" opacity="0.8"/>
<rect x="71.0" y="326.1806164628798" width="6.3" height="3.819383537120162" fill="#44aa44" opacity="0.3"/>
<line x1="86.75" y1="218.75774664727103" x2="86.75" y2="229.1387521670686" stroke="#44aa44" stroke-width="1" opacity="0.8"/>
<rect x="81.5" y="221.31538568838053" width="6.3" height="5.265727437578477" fill="#44aa44" opacity="0.8"/>
<rect x="81.5" y="324.42466114931676" width="6.3" height="5.575338850683262" fill="#44aa44" opacity="0.3"/>
<line x1="97.25" y1="221.01448697766176" x2="97.25" y2="228.68740410099042" stroke="#ff4444" stroke-width="1" opacity="0.8"/>
<rect x="92.0" y="225.52796763844333" width="6.3" height="1" fill="#ff4444" opacity="0.8"/>
<rect x="92.0" y="324.20250212437156" width="6.3" height="5.797497875628409" fill="#ff4444" opacity="0.3"/>
<line x1="107.75" y1="203.86326046669197" x2="107.75" y2="225.52796763844333" stroke="#ff4444" stroke-width="1" opacity="0.8"/>
<rect x="102.5" y="205.06685530956705" width="6.3" height="20.461112328876283" fill="#ff4444" opacity="0.8"/>
<rect x="102.5" y="319.0614448263381" width="6.3" height="10.93855517366189" fill="#ff4444" opacity="0.3"/>
<line x1="118.25" y1="187.01293266644083" x2="118.25" y2="213.94336727577073" stroke="#ff4444" stroke-width="1" opacity="0.8"/>
<rect x="113.0" y="190.32281848434738" width="6.3" height="21.965605882470072" fill="#ff4444" opacity="0.8"/>
<rect x="113.0" y="317.5321338641905" width="6.3" height="12.467866135809539" fill="#ff4444" opacity="0.3"/>
<line x1="128.75" y1="183.40214813781566" x2="128.75" y2="197.69483689695713" stroke="#ff4444" stroke-width="1" opacity="0.8"/>
<rect x="123.5" y="188.51742622003468" width="6.3" height="8.575613255484939" fill="#ff4444" opacity="0.8"/>
<rect x="123.5" y="315.96783540437207" width="6.3" height="14.03216459562794" fill="#ff4444" opacity="0.3"/>
<line x1="139.25" y1="182.6499013610187" x2="139.25" y2="218.75774664727103" stroke="#44aa44" stroke-width="1" opacity="0.8"/>
<rect x="134.0" y="182.6499013610187" width="6.3" height="34.452902377299125" fill="#44aa44" opacity="0.8"/>
<rect x="134.0" y="318.16237467183214" width="6.3" height="11.83762532816785" fill="#44aa44" opacity="0.3"/>
<line x1="149.75" y1="210.3325827471455" x2="149.75" y2="223.87302472949008" stroke="#44aa44" stroke-width="1" opacity="0.8"/>
<rect x="144.5" y="220.26224020086488" width="6.3" height="1" fill="#44aa44" opacity="0.8"/>
<rect x="144.5" y="322.62386720506845" width="6.3" height="7.376132794931557" fill="#44aa44" opacity="0.3"/>
<line x1="160.25" y1="203.56236175597314" x2="160.25" y2="215.59831018472394" stroke="#ff4444" stroke-width="1" opacity="0.8"/>
<rect x="155.0" y="208.82808919355165" width="6.3" height="5.115278082219078" fill="#ff4444" opacity="0.8"/>
<rect x="155.0" y="319.8714425922114" width="6.3" height="10.128557407788616" fill="#ff4444" opacity="0.3"/>
<line x1="170.75" y1="210.48303210250486" x2="170.75" y2="221.76673375445873" stroke="#44aa44" stroke-width="1" opacity="0.8"/>
<rect x="165.5" y="213.7929179204113" width="6.3" height="6.469322280453582" fill="#44aa44" opacity="0.8"/>
<rect x="165.5" y="321.51426963080326" width="6.3" height="8.485730369196759" fill="#44aa44" opacity="0.3"/>
<line x1="181.25" y1="230.94414443138118" x2="181.25" y2="254.71514257816395" stroke="#44aa44" stroke-width="1" opacity="0.8"/>
<rect x="176.0" y="231.6963912081781" width="6.3" height="1.2035948428751055" fill="#44aa44" opacity="0.8"/>
<rect x="176.0" y="315.6877768878127" width="6.3" height="14.312223112187308" fill="#44aa44" opacity="0.3"/>
<line x1="191.75" y1="225.07661957236516" x2="191.75" y2="235.00627702608455" stroke="#ff4444" stroke-width="1" opacity="0.8"/>
<rect x="186.5" y="229.28920152242796" width="6.3" height="3.4603351732658325" fill="#ff4444" opacity="0.8"/>
<rect x="186.5" y="323.8164957575982" width="6.3" height="6.183504242401774" fill="#ff4444" opacity="0.3"/>
<line x1="202.25" y1="217.40370244903656" x2="202.25" y2="233.35133411713133" stroke="#44aa44" stroke-width="1" opacity="0.8"/>
<rect x="197.0" y="227.33335990275597" width="6.3" height="5.566626148297246" fill="#44aa44" opacity="0.8"/>
<rect x="197.0" y="322.2902555001956" width="6.3" height="7.709744499804392" fill="#44aa44" opacity="0.3"/>
<line x1="212.75" y1="230.34234700994364" x2="212.75" y2="249.4494151405855" stroke="#44aa44" stroke-width="1" opacity="0.8"/>
<rect x="207.5" y="230.34234700994364" width="6.3" height="13.239543271625848" fill="#44aa44" opacity="0.8"/>
<rect x="207.5" y="323.69278952672613" width="6.3" height="6.307210473273893" fill="#44aa44" opacity="0.3"/>
<line x1="223.25" y1="241.92694737261627" x2="223.25" y2="251.70615547097626" stroke="#44aa44" stroke-width="1" opacity="0.8"/>
<rect x="218.0" y="243.43144092621012" width="6.3" height="6.619771635812896" fill="#44aa44" opacity="0.8"/>
<rect x="218.0" y="325.4392985817685" width="6.3" height="4.56070141823145" fill="#44aa44" opacity="0.3"/>
<line x1="233.75" y1="237.11256800111593" x2="233.75" y2="254.56469322280455" stroke="#ff4444" stroke-width="1" opacity="0.8"/>
<rect x="228.5" y="239.21885897614735" width="6.3" height="6.469322280453525" fill="#ff4444" opacity="0.8"/>
<rect x="228.5" y="324.81986499630733" width="6.3" height="5.18013500369265" fill="#ff4444" opacity="0.3"/>
<line x1="244.25" y1="237.11256800111593" x2="244.25" y2="253.2106490245701" stroke="#44aa44" stroke-width="1" opacity="0.8"/>
<rect x="239.0" y="237.11256800111593" width="6.3" height="14.894486180579122" fill="#44aa44" opacity="0.8"/>
<rect x="239.0" y="325.7451519937874" width="6.3" height="4.254848006212629" fill="#44aa44" opacity="0.3"/>
<line x1="254.75" y1="240.5729031743818" x2="254.75" y2="254.4142438674452" stroke="#ff4444" stroke-width="1" opacity="0.8"/>
<rect x="249.5" y="242.3782954386944" width="6.3" height="10.681904230516324" fill="#ff4444" opacity="0.8"/>
<rect x="249.5" y="325.91547001050725" width="6.3" height="4.084529989492776" fill="#ff4444" opacity="0.3"/>
<line x1="265.25" y1="240.42245381902245" x2="265.25" y2="255.4673893549609" stroke="#44aa44" stroke-width="1" opacity="0.8"/>
<rect x="260.0" y="250.80345933881995" width="6.3" height="3.1594364625470917" fill="#44aa44" opacity="0.8"/>
<rect x="260.0" y="323.5631833476584" width="6.3" height="6.43681665234159" fill="#44aa44" opacity="0.3"/>
<line x1="275.75" y1="247.64402287627286" x2="275.75" y2="271.11412231233686" stroke="#44aa44" stroke-width="1" opacity="0.8"/>
<rect x="270.5" y="252.75930095849196" width="6.3" height="17.00077715561048" fill="#44aa44" opacity="0.8"/>
<rect x="270.5" y="323.6098951326281" width="6.3" height="6.390104867371896" fill="#44aa44" opacity="0.3"/>
<line x1="286.25" y1="269.60962875874304" x2="286.25" y2="298.3454556323855" stroke="#44aa44" stroke-width="1" opacity="0.8"/>
<rect x="281.0" y="269.60962875874304" width="6.3" height="25.42594105573602" fill="#44aa44" opacity="0.8"/>
<rect x="281.0" y="322.53213630319345" width="6.3" height="7.467863696806565" fill="#44aa44" opacity="0.3"/>
<line x1="296.75" y1="271.56547037841506" x2="296.75" y2="293.8319749716039" stroke="#ff4444" stroke-width="1" opacity="0.8"/>
<rect x="291.5" y="273.8222107088058" width="6.3" height="10.982802941235093" fill="#ff4444" opacity="0.8"/>
<rect x="291.5" y="324.2247970505625" width="6.3" height="5.775202949437517" fill="#ff4444" opacity="0.3"/>
<line x1="307.25" y1="243.88278899228825" x2="307.25" y2="278.3356913695874" stroke="#ff4444" stroke-width="1" opacity="0.8"/>
<rect x="302.0" y="255.31693999960152" width="6.3" height="10.531454875156896" fill="#ff4444" opacity="0.8"/>
<rect x="302.0" y="321.2052284418966" width="6.3" height="8.794771558103394" fill="#ff4444" opacity="0.3"/>
<line x1="317.75" y1="255.31693999960152" x2="317.75" y2="271.56547037841506" stroke="#44aa44" stroke-width="1" opacity="0.8"/>
<rect x="312.5" y="255.31693999960152" width="6.3" height="12.487296494828911" fill="#44aa44" opacity="0.8"/>
<rect x="312.5" y="325.66613805342195" width="6.3" height="4.33386194657803" fill="#44aa44" opacity="0.3"/>
<line x1="328.25" y1="262.68895841221126" x2="328.25" y2="272.76906522129013" stroke="#ff4444" stroke-width="1" opacity="0.8"/>
<rect x="323.0" y="267.05198971763355" width="6.3" height="1" fill="#ff4444" opacity="0.8"/>
<rect x="323.0" y="325.3998160016156" width="6.3" height="4.600183998384404" fill="#ff4444" opacity="0.3"/>
<line x1="338.75" y1="259.5295219496643" x2="338.75" y2="274.273558774884" stroke="#ff4444" stroke-width="1" opacity="0.8"/>
<rect x="333.5" y="262.9898571229301" width="6.3" height="6.1684235697347845" fill="#ff4444" opacity="0.8"/>
<rect x="333.5" y="326.54774250762677" width="6.3" height="3.4522574923732376" fill="#ff4444" opacity="0.3"/>
<line x1="349.25" y1="258.47637646214855" x2="349.25" y2="273.0699639320089" stroke="#44aa44" stroke-width="1" opacity="0.8"/>
<rect x="344.0" y="258.47637646214855" width="6.3" height="14.142239403782128" fill="#44aa44" opacity="0.8"/>
<rect x="344.0" y="325.2331979524082" width="6.3" height="4.766802047591778" fill="#44aa44" opacity="0.3"/>
<line x1="359.75" y1="238.61706155470978" x2="359.75" y2="271.41502102305566" stroke="#ff4444" stroke-width="1" opacity="0.8"/>
<rect x="354.5" y="244.48458641372582" width="6.3" height="19.708865552079374" fill="#ff4444" opacity="0.8"/>
<rect x="354.5" y="320.2502417051948" width="6.3" height="9.749758294805217" fill="#ff4444" opacity="0.3"/>
<line x1="370.25" y1="244.7854851244446" x2="370.25" y2="262.9898571229301" stroke="#44aa44" stroke-width="1" opacity="0.8"/>
<rect x="365.0" y="249.4494151405855" width="6.3" height="9.779208098359987" fill="#44aa44" opacity="0.8"/>
<rect x="365.0" y="324.93982979661644" width="6.3" height="5.0601702033835805" fill="#44aa44" opacity="0.3"/>
<line x1="380.75" y1="223.42167666341194" x2="380.75" y2="260.73311679253936" stroke="#ff4444" stroke-width="1" opacity="0.8"/>
<rect x="375.5" y="229.1387521670686" width="6.3" height="29.18717493972062" fill="#ff4444" opacity="0.8"/>
<rect x="375.5" y="316.7425651872325" width="6.3" height="13.257434812767496" fill="#ff4444" opacity="0.3"/>
<line x1="391.25" y1="224.62527150628705" x2="391.25" y2="242.67919414941318" stroke="#44aa44" stroke-width="1" opacity="0.8"/>
<rect x="386.0" y="224.62527150628705" width="6.3" height="17.30167586632922" fill="#44aa44" opacity="0.8"/>
<rect x="386.0" y="323.838895560917" width="6.3" height="6.1611044390829734" fill="#44aa44" opacity="0.3"/>
<line x1="401.75" y1="192.57955881473814" x2="401.75" y2="238.16571348863164" stroke="#ff4444" stroke-width="1" opacity="0.8"/>
<rect x="396.5" y="196.64169140944148" width="6.3" height="38.51503497200247" fill="#ff4444" opacity="0.8"/>
<rect x="396.5" y="313.21064254069967" width="6.3" height="16.78935745930036" fill="#ff4444" opacity="0.3"/>
<line x1="412.25" y1="181.59675587350299" x2="412.25" y2="204.61550724348885" stroke="#ff4444" stroke-width="1" opacity="0.8"/>
<rect x="407.0" y="190.17236912898792" width="6.3" height="11.885499073391372" fill="#ff4444" opacity="0.8"/>
<rect x="407.0" y="315.0465312987496" width="6.3" height="14.953468701250427" fill="#ff4444" opacity="0.3"/>
<line x1="422.75" y1="164.5959787178926" x2="422.75" y2="190.17236912898792" stroke="#ff4444" stroke-width="1" opacity="0.8"/>
<rect x="417.5" y="175.12743359304946" width="6.3" height="15.044935535938464" fill="#ff4444" opacity="0.8"/>
<rect x="417.5" y="315.11599898147233" width="6.3" height="14.884001018527641" fill="#ff4444" opacity="0.3"/>
<line x1="433.25" y1="171.96799713050237" x2="433.25" y2="191.6768626825818" stroke="#ff4444" stroke-width="1" opacity="0.8"/>
<rect x="428.0" y="181.2958571627843" width="6.3" height="7.2215690572503775" fill="#ff4444" opacity="0.8"/>
<rect x="428.0" y="319.8349014496458" width="6.3" height="10.165098550354191" fill="#ff4444" opacity="0.3"/>
<line x1="443.75" y1="170.4635035769086" x2="443.75" y2="186.86248331108146" stroke="#ff4444" stroke-width="1" opacity="0.8"/>
<rect x="438.5" y="180.5436103859873" width="6.3" height="1.9558416196720145" fill="#ff4444" opacity="0.8"/>
<rect x="438.5" y="320.2994510292105" width="6.3" height="9.700548970789525" fill="#ff4444" opacity="0.3"/>
<line x1="454.25" y1="169.56080744475227" x2="454.25" y2="185.80933782356576" stroke="#44aa44" stroke-width="1" opacity="0.8"/>
<rect x="449.0" y="179.4904648984716" width="6.3" height="5.717075503656645" fill="#44aa44" opacity="0.8"/>
<rect x="449.0" y="320.3336312168966" width="6.3" height="9.666368783103367" fill="#44aa44" opacity="0.3"/>
<line x1="464.75" y1="166.2509216268458" x2="464.75" y2="185.20754040212825" stroke="#ff4444" stroke-width="1" opacity="0.8"/>
<rect x="459.5" y="177.53462327879967" width="6.3" height="7.672917123328574" fill="#ff4444" opacity="0.8"/>
<rect x="459.5" y="319.5713183981799" width="6.3" height="10.428681601820083" fill="#ff4444" opacity="0.3"/>
<line x1="475.25" y1="162.18878903214238" x2="475.25" y2="180.2427116752686" stroke="#ff4444" stroke-width="1" opacity="0.8"/>
<rect x="470.0" y="170.31305422154915" width="6.3" height="7.672917123328688" fill="#ff4444" opacity="0.8"/>
<rect x="470.0" y="319.71698297283245" width="6.3" height="10.283017027167567" fill="#ff4444" opacity="0.3"/>
<line x1="485.75" y1="140.82498057110973" x2="485.75" y2="182.19855329494052" stroke="#ff4444" stroke-width="1" opacity="0.8"/>
<rect x="480.5" y="155.26811868561066" width="6.3" height="20.160213618157627" fill="#ff4444" opacity="0.8"/>
<rect x="480.5" y="309.53532847028663" width="6.3" height="20.464671529713396" fill="#ff4444" opacity="0.3"/>
<line x1="496.25" y1="146.99340414084458" x2="496.25" y2="169.25990873403344" stroke="#ff4444" stroke-width="1" opacity="0.8"/>
<rect x="491.0" y="155.11766933025132" width="6.3" height="10.982802941235036" fill="#ff4444" opacity="0.8"/>
<rect x="491.0" y="316.0224129739349" width="6.3" height="13.977587026065137" fill="#ff4444" opacity="0.3"/>
<line x1="506.75" y1="152.40958093378242" x2="506.75" y2="167.75541518043968" stroke="#ff4444" stroke-width="1" opacity="0.8"/>
<rect x="501.5" y="153.9140744873763" width="6.3" height="4.513480660781482" fill="#ff4444" opacity="0.8"/>
<rect x="501.5" y="320.33912385159545" width="6.3" height="9.660876148404551" fill="#ff4444" opacity="0.3"/>
<line x1="517.25" y1="152.71047964450122" x2="517.25" y2="173.47249068409624" stroke="#44aa44" stroke-width="1" opacity="0.8"/>
<rect x="512.0" y="157.52485901600153" width="6.3" height="13.540441982344618" fill="#44aa44" opacity="0.8"/>
<rect x="512.0" y="320.96374275738066" width="6.3" height="9.036257242619333" fill="#44aa44" opacity="0.3"/>
<line x1="527.75" y1="166.70226969292398" x2="527.75" y2="185.35798975748762" stroke="#44aa44" stroke-width="1" opacity="0.8"/>
<rect x="522.5" y="176.33102843592462" width="6.3" height="8.124265189406742" fill="#44aa44" opacity="0.8"/>
<rect x="522.5" y="320.8622290145745" width="6.3" height="9.137770985425494" fill="#44aa44" opacity="0.3"/>
<line x1="538.25" y1="153.4627264212981" x2="538.25" y2="185.80933782356576" stroke="#ff4444" stroke-width="1" opacity="0.8"/>
<rect x="533.0" y="161.4365422553455" width="6.3" height="23.018751369985864" fill="#ff4444" opacity="0.8"/>
<rect x="533.0" y="317.06464284703844" width="6.3" height="12.935357152961585" fill="#ff4444" opacity="0.3"/>
<line x1="548.75" y1="167.45451646972086" x2="548.75" y2="192.57955881473814" stroke="#44aa44" stroke-width="1" opacity="0.8"/>
<rect x="543.5" y="167.45451646972086" width="6.3" height="20.009764262798114" fill="#44aa44" opacity="0.8"/>
<rect x="543.5" y="317.1327642001192" width="6.3" height="12.867235799880783" fill="#44aa44" opacity="0.3"/>
<line x1="559.25" y1="175.27788294840892" x2="559.25" y2="197.5443875415978" stroke="#44aa44" stroke-width="1" opacity="0.8"/>
<rect x="554.0" y="187.61473008787846" width="6.3" height="7.071119701891064" fill="#44aa44" opacity="0.8"/>
<rect x="554.0" y="319.36744945654135" width="6.3" height="10.632550543458642" fill="#44aa44" opacity="0.3"/>
<line x1="569.75" y1="188.216527509316" x2="569.75" y2="198.2966343183947" stroke="#ff4444" stroke-width="1" opacity="0.8"/>
<rect x="564.5" y="190.77416655042546" width="6.3" height="4.964828726859764" fill="#ff4444" opacity="0.8"/>
<rect x="564.5" y="321.64432702542126" width="6.3" height="8.35567297457876" fill="#ff4444" opacity="0.3"/>
<line x1="580.25" y1="173.02114261801808" x2="580.25" y2="196.0398939880039" stroke="#44aa44" stroke-width="1" opacity="0.8"/>
<rect x="575.0" y="187.61473008787846" width="6.3" height="1.2035948428750487" fill="#44aa44" opacity="0.8"/>
<rect x="575.0" y="319.32519616900925" width="6.3" height="10.674803830990752" fill="#44aa44" opacity="0.3"/>
<line x1="590.75" y1="170.76440228762732" x2="590.75" y2="190.02191977362858" stroke="#ff4444" stroke-width="1" opacity="0.8"/>
<rect x="585.5" y="174.6760855269713" width="6.3" height="9.026961321563107" fill="#ff4444" opacity="0.8"/>
<rect x="585.5" y="317.1639175851139" width="6.3" height="12.836082414886114" fill="#ff4444" opacity="0.3"/>
<line x1="601.25" y1="162.33923838750175" x2="601.25" y2="192.12821074865997" stroke="#ff4444" stroke-width="1" opacity="0.8"/>
<rect x="596.0" y="166.40137098220518" width="6.3" height="14.593587469860296" fill="#ff4444" opacity="0.8"/>
<rect x="596.0" y="319.84853547627387" width="6.3" height="10.151464523726133" fill="#ff4444" opacity="0.3"/>
<line x1="611.75" y1="150.90508738018855" x2="611.75" y2="169.1094593786741" stroke="#44aa44" stroke-width="1" opacity="0.8"/>
<rect x="606.5" y="161.4365422553455" width="6.3" height="4.964828726859679" fill="#44aa44" opacity="0.8"/>
<rect x="606.5" y="315.6196238276932" width="6.3" height="14.38037617230678" fill="#44aa44" opacity="0.3"/>
<line x1="622.25" y1="161.4365422553455" x2="622.25" y2="185.80933782356576" stroke="#44aa44" stroke-width="1" opacity="0.8"/>
<rect x="617.0" y="167.75541518043968" width="6.3" height="2.2567403303907554" fill="#44aa44" opacity="0.8"/>
<rect x="617.0" y="314.4468536373827" width="6.3" height="15.553146362617303" fill="#44aa44" opacity="0.3"/>
<line x1="632.75" y1="168.95901002331473" x2="632.75" y2="190.02191977362858" stroke="#ff4444" stroke-width="1" opacity="0.8"/>
<rect x="627.5" y="171.96799713050237" width="6.3" height="3.61078452862526" fill="#ff4444" opacity="0.8"/>
<rect x="627.5" y="321.30709096212814" width="6.3" height="8.692909037871862" fill="#ff4444" opacity="0.3"/>
<line x1="643.25" y1="164.5959787178926" x2="643.25" y2="193.0309068808163" stroke="#44aa44" stroke-width="1" opacity="0.8"/>
<rect x="638.0" y="170.76440228762732" width="6.3" height="15.496283602016632" fill="#44aa44" opacity="0.8"/>
<rect x="638.0" y="319.4931434748378" width="6.3" height="10.506856525162217" fill="#44aa44" opacity="0.3"/>
<line x1="653.75" y1="177.0832752127215" x2="653.75" y2="200.10202658270737" stroke="#ff4444" stroke-width="1" opacity="0.8"/>
<rect x="648.5" y="187.7651794432378" width="6.3" height="1.8053922643125873" fill="#ff4444" opacity="0.8"/>
<rect x="648.5" y="318.29880030321686" width="6.3" height="11.701199696783151" fill="#ff4444" opacity="0.3"/>
<line x1="664.25" y1="138.41779088535964" x2="664.25" y2="198.74798238447283" stroke="#ff4444" stroke-width="1" opacity="0.8"/>
<rect x="659.0" y="139.32048701751597" width="6.3" height="38.36458561664304" fill="#ff4444" opacity="0.8"/>
<rect x="659.0" y="304.50862870472355" width="6.3" height="25.49137129527643" fill="#ff4444" opacity="0.3"/>
<line x1="674.75" y1="77.33535260944946" x2="674.75" y2="143.98441703365683" stroke="#ff4444" stroke-width="1" opacity="0.8"/>
<rect x="669.5" y="86.81366199709072" width="6.3" height="43.02851563278401" fill="#ff4444" opacity="0.8"/>
<rect x="669.5" y="295.0" width="6.3" height="35.0" fill="#ff4444" opacity="0.3"/>
<rect x="135.25" y="178.6499013610187" width="8" height="8" fill="#ff9800" opacity="0.85"/>
<text x="139.25" y="175.6499013610187" text-anchor="middle" font-size="8" font-weight="bold" fill="#ff9800">前高</text>
<rect x="177.25" y="250.71514257816395" width="8" height="8" fill="#ff9800" opacity="0.85"/>
<text x="181.25" y="247.71514257816395" text-anchor="middle" font-size="8" font-weight="bold" fill="#ff9800">前低</text>
<rect x="282.25" y="294.3454556323855" width="8" height="8" fill="#ff9800" opacity="0.85"/>
<text x="286.25" y="291.3454556323855" text-anchor="middle" font-size="8" font-weight="bold" fill="#ff9800">前低</text>
<rect x="418.75" y="160.5959787178926" width="8" height="8" fill="#ff9800" opacity="0.85"/>
<text x="422.75" y="157.5959787178926" text-anchor="middle" font-size="8" font-weight="bold" fill="#ff9800">前高</text>
<rect x="439.75" y="176.5436103859873" width="8" height="8" fill="#2196f3" opacity="0.85"/>
<text x="443.75" y="173.5436103859873" text-anchor="middle" font-size="8" font-weight="bold" fill="#2196f3">中</text>
<rect x="481.75" y="136.82498057110973" width="8" height="8" fill="#ff9800" opacity="0.85"/>
<text x="485.75" y="133.82498057110973" text-anchor="middle" font-size="8" font-weight="bold" fill="#ff9800">前高</text>
<rect x="502.75" y="149.9140744873763" width="8" height="8" fill="#2196f3" opacity="0.85"/>
<text x="506.75" y="146.9140744873763" text-anchor="middle" font-size="8" font-weight="bold" fill="#2196f3">中</text>
<rect x="565.75" y="194.2966343183947" width="8" height="8" fill="#ff9800" opacity="0.85"/>
<text x="569.75" y="191.2966343183947" text-anchor="middle" font-size="8" font-weight="bold" fill="#ff9800">前低</text>
<rect x="607.75" y="146.90508738018855" width="8" height="8" fill="#ff9800" opacity="0.85"/>
<text x="611.75" y="143.90508738018855" text-anchor="middle" font-size="8" font-weight="bold" fill="#ff9800">前高</text>
<rect x="649.75" y="196.10202658270737" width="8" height="8" fill="#ff9800" opacity="0.85"/>
<text x="653.75" y="193.10202658270737" text-anchor="middle" font-size="8" font-weight="bold" fill="#ff9800">前低</text>
<line x1="674.75" y1="86.81366199709072" x2="674.75" y2="42" stroke="#4caf50" stroke-width="1" stroke-dasharray="3,2"/>
<rect x="654.75" y="28" width="40" height="14" rx="3" fill="#2563eb" opacity="0.9"/>
<text x="674.75" y="38" text-anchor="middle" font-size="9" font-weight="bold" fill="white">关注</text>
<text x="55.25" y="355" fill="#666666" font-size="8" text-anchor="middle" transform="rotate(-30,55.25,355)">02/11</text>
<text x="107.75" y="355" fill="#666666" font-size="8" text-anchor="middle" transform="rotate(-30,107.75,355)">02/26</text>
<text x="160.25" y="355" fill="#666666" font-size="8" text-anchor="middle" transform="rotate(-30,160.25,355)">03/05</text>
<text x="212.75" y="355" fill="#666666" font-size="8" text-anchor="middle" transform="rotate(-30,212.75,355)">03/12</text>
<text x="265.25" y="355" fill="#666666" font-size="8" text-anchor="middle" transform="rotate(-30,265.25,355)">03/19</text>
<text x="317.75" y="355" fill="#666666" font-size="8" text-anchor="middle" transform="rotate(-30,317.75,355)">03/26</text>
<text x="370.25" y="355" fill="#666666" font-size="8" text-anchor="middle" transform="rotate(-30,370.25,355)">04/02</text>
<text x="422.75" y="355" fill="#666666" font-size="8" text-anchor="middle" transform="rotate(-30,422.75,355)">04/10</text>
<text x="475.25" y="355" fill="#666666" font-size="8" text-anchor="middle" transform="rotate(-30,475.25,355)">04/17</text>
<text x="527.75" y="355" fill="#666666" font-size="8" text-anchor="middle" transform="rotate(-30,527.75,355)">04/24</text>
<text x="580.25" y="355" fill="#666666" font-size="8" text-anchor="middle" transform="rotate(-30,580.25,355)">05/06</text>
<text x="632.75" y="355" fill="#666666" font-size="8" text-anchor="middle" transform="rotate(-30,632.75,355)">05/13</text>
<text x="674.75" y="355" fill="#666666" font-size="8" text-anchor="middle" transform="rotate(-30,674.75,355)">05/19</text>
<rect x="50" y="334" width="7" height="7" fill="#ff9800" opacity="0.8" rx="1"/>
<text x="60" y="340" font-family="sans-serif" font-size="8" fill="#888888">第1类</text>
<rect x="120" y="334" width="7" height="7" fill="#2196f3" opacity="0.8" rx="1"/>
<text x="130" y="340" font-family="sans-serif" font-size="8" fill="#888888">第2类</text>
<rect x="190" y="334" width="7" height="7" fill="#ffd700" opacity="0.8" rx="1"/>
<text x="200" y="340" font-family="sans-serif" font-size="8" fill="#888888">EMA5</text>
<rect x="260" y="334" width="7" height="7" fill="#ff6b6b" opacity="0.8" rx="1"/>
<text x="270" y="340" font-family="sans-serif" font-size="8" fill="#888888">EMA10</text>
<rect x="330" y="334" width="7" height="7" fill="#4ecdc4" opacity="0.8" rx="1"/>
<text x="340" y="340" font-family="sans-serif" font-size="8" fill="#888888">EMA20</text>
</svg>