<svg xmlns="http://www.w3.org/2000/svg" width="700" height="380" viewBox="0 0 700 380">
<rect width="700" height="380" fill="#1a1a2e"/>
<text x="350.0" y="20" text-anchor="middle" font-family="sans-serif" font-size="14" font-weight="bold" fill="#ffffff">海光信息(688041) 关键点图</text>
<line x1="50" y1="28.00601706295604" x2="680" y2="28.00601706295604" stroke="#2a2a4e" stroke-width="0.5"/>
<text x="46" y="31.00601706295604" text-anchor="end" font-size="9" fill="#666666">387.5</text>
<line x1="50" y1="128.67148031703152" x2="680" y2="128.67148031703152" stroke="#2a2a4e" stroke-width="0.5"/>
<text x="46" y="131.67148031703152" text-anchor="end" font-size="9" fill="#666666">320.58</text>
<line x1="50" y1="229.33694357110696" x2="680" y2="229.33694357110696" stroke="#2a2a4e" stroke-width="0.5"/>
<text x="46" y="232.33694357110696" text-anchor="end" font-size="9" fill="#666666">253.66</text>
<line x1="50" y1="330.0024068251824" x2="680" y2="330.0024068251824" stroke="#2a2a4e" stroke-width="0.5"/>
<text x="46" y="333.0024068251824" text-anchor="end" font-size="9" fill="#666666">186.74</text>
<polyline points="55.25,227.32122748084305 65.75,223.6407906394159 76.25,222.8318299531077 86.75,227.76805011887285 97.25,231.89122393829786 107.75,231.52116218571516 118.25,227.06251028145184 128.75,225.16813279156173 139.25,232.90573780333582 149.75,240.5712507095234 160.25,242.17665347510496 170.75,243.79347187066375 181.25,246.61128483914962 191.75,243.92688740983135 202.25,243.80702409391242 212.75,244.8302434252353 223.25,248.6512908215033 233.75,252.14634316792046 244.25,257.86599019741845 254.75,259.5179597720496 265.25,265.01674299882234 275.75,271.7964285630735 286.25,281.01955648319006 296.75,284.04444991193833 307.25,283.9901730304098 317.75,283.3021399558229 328.25,281.7152519351795 338.75,283.2747489739488 349.25,287.05719153057714 359.75,284.53952967600287 370.25,286.5264826236572 380.75,287.4650230490826 391.25,286.2003560540192 401.75,279.8616605574863 412.25,276.38799642929916 422.75,271.65536672317637 433.25,261.7661839608247 443.75,253.40337609969689 454.25,246.21359229908188 464.75,240.91898118567087 475.25,233.87928705239008 485.75,228.29362662506114 496.25,229.1979772638408 506.75,226.46642196823746 517.25,222.53941306989782 527.75,209.09069381685035 538.25,194.4738560219644 548.75,188.37463479955747 559.25,189.43803348795285 569.75,181.3821109076261 580.25,151.863016523948 590.75,133.5926158436954 601.25,130.59839816970478 611.75,115.61542550698586 622.25,105.62176284604325 632.75,99.46074298508249 643.25,106.88108619100102 653.75,122.95453391110499 664.25,133.35928413844704 674.75,136.08885443993023" fill="none" stroke="#ffd700" stroke-width="1" opacity="0.6"/>
<polyline points="55.25,227.32122748084305 65.75,225.31371647642828 76.25,224.56829685898518 86.75,226.94505933015205 97.25,229.34369792051498 107.75,229.60503260415766 118.25,227.52142785302445 128.75,226.4046914818894 139.25,230.40037445370658 149.75,235.03708392065062 160.25,236.91897029985378 170.75,238.75681363838603 181.25,241.20955857251977 191.75,240.7274738413698 202.25,241.24380540877064 212.75,242.26796480497254 223.25,244.81804131571192 233.75,247.42138796026518 244.25,251.40027819592868 254.75,253.47693650963475 265.25,257.5746406810407 275.75,262.625760501138 286.25,269.3239517415535 296.75,273.1003672011683 307.25,275.0605948495655 317.75,276.30886375085345 328.25,276.714793231406 338.75,278.4746022896027 349.25,281.4105067176447 359.75,281.06390658113736 370.25,282.77963056983344 380.75,283.97280753894256 391.25,283.9179374525698 401.75,280.8754523819972 412.25,278.79640070762036 422.75,275.77707463549507 433.25,269.6335735083362 443.75,263.64160748453713 454.25,257.8584106142307 464.75,252.8532012223431 475.25,246.84350987024953 485.75,241.4396545793684 496.25,239.54274984519236 506.75,236.17194285098114 517.25,232.26529783684248 527.75,223.16129010482666 538.25,212.6301792552568 548.75,206.00218163698176 559.25,203.37720876930206 569.75,196.44867367433307 580.25,177.60797441656192 590.75,162.96139988322156 601.25,155.98841132658555 611.75,143.19951475476057 622.25,132.73313707646918 632.75,124.44324001950406 643.25,123.9484277619284 653.75,129.61260986908923 664.25,134.07736890982412 674.75,135.43566457038276" fill="none" stroke="#ff6b6b" stroke-width="1" opacity="0.6"/>
<polyline points="55.25,227.32122748084305 65.75,226.26967409757816 76.25,225.78817261976036 86.75,226.9169647941073 97.25,228.1760702020159 107.75,228.42416243806676 118.25,227.4452142509104 128.75,226.86751554242198 139.25,228.9164138552279 149.75,231.4864960139584 160.25,232.81039725132126 170.75,234.16436976660316 181.25,235.88651652941442 191.75,236.14095234101256 202.25,236.84822330492327 212.75,237.8033146175859 223.25,239.56427376010527 233.75,241.42829034111952 244.25,244.0832421425762 254.75,245.86787612150343 265.25,248.73896501015713 275.75,252.22628259886366 286.25,256.7252854297741 296.75,259.9032807954561 307.25,262.18693207849384 317.75,264.0668503383182 328.25,265.44538610551575 338.75,267.4404677194178 349.25,270.029192378886 359.75,270.9315746253592 370.25,272.79527118665504 380.75,274.3711600164911 391.25,275.2568611638626 401.75,274.48804291629665 412.25,274.00734055978506 422.75,272.8818897741799 433.25,269.9395972657934 443.75,266.7718032764265 454.25,263.4443957927527 464.75,260.29062085619046 475.25,256.4343616113941 485.75,252.6903562932045 496.25,250.62524412636597 506.75,247.80410767404837 517.25,244.64994458825504 527.75,238.7016884665884 538.25,231.70535436807455 548.75,226.4168627477573 559.25,223.09762161604175 569.75,217.59025439041608 580.25,205.70783280624235 590.75,195.35964058499925 601.25,188.62157603611584 611.75,178.81470976425223 622.25,169.94039812233845 632.75,162.05452242146438 643.25,158.21330815302375 653.75,157.91693874333697 664.25,157.55997168141258 674.75,156.03502152536345" fill="none" stroke="#4ecdc4" stroke-width="1" opacity="0.6"/>
<line x1="55.25" y1="222.31202256996335" x2="55.25" y2="232.78171211342362" stroke="#ff4444" stroke-width="1" opacity="0.8"/>
<rect x="50.0" y="227.32122748084305" width="6.3" height="1" fill="#ff4444" opacity="0.8"/>
<rect x="50.0" y="322.5099985343058" width="6.3" height="7.490001465694234" fill="#ff4444" opacity="0.3"/>
<line x1="65.75" y1="212.29361274820386" x2="65.75" y2="224.29765334544717" stroke="#ff4444" stroke-width="1" opacity="0.8"/>
<rect x="60.5" y="216.27991695656166" width="6.3" height="3.519981829266783" fill="#ff4444" opacity="0.8"/>
<rect x="60.5" y="319.5499585856164" width="6.3" height="10.450041414383573" fill="#ff4444" opacity="0.3"/>
<line x1="76.25" y1="211.24062673090182" x2="76.25" y2="222.77834494905423" stroke="#44aa44" stroke-width="1" opacity="0.8"/>
<rect x="71.0" y="219.79989878582845" width="6.3" height="1.414009794662718" fill="#44aa44" opacity="0.8"/>
<rect x="71.0" y="321.2962866807025" width="6.3" height="8.703713319297513" fill="#44aa44" opacity="0.3"/>
<line x1="86.75" y1="207.76577287380508" x2="86.75" y2="238.19706877383413" stroke="#44aa44" stroke-width="1" opacity="0.8"/>
<rect x="81.5" y="209.52576378843852" width="6.3" height="28.114726661964596" fill="#44aa44" opacity="0.8"/>
<rect x="81.5" y="317.8502685401799" width="6.3" height="12.149731459820094" fill="#44aa44" opacity="0.3"/>
<line x1="97.25" y1="231.3376170039808" x2="97.25" y2="242.09311703785173" stroke="#44aa44" stroke-width="1" opacity="0.8"/>
<rect x="92.0" y="234.84255617585765" width="6.3" height="5.2950154012903" fill="#44aa44" opacity="0.8"/>
<rect x="92.0" y="320.91636055623667" width="6.3" height="9.083639443763358" fill="#44aa44" opacity="0.3"/>
<line x1="107.75" y1="222.8385155786143" x2="107.75" y2="243.1611457125438" stroke="#ff4444" stroke-width="1" opacity="0.8"/>
<rect x="102.5" y="230.78103868054978" width="6.3" height="1.9405028033137626" fill="#ff4444" opacity="0.8"/>
<rect x="102.5" y="314.48076816012195" width="6.3" height="15.51923183987802" fill="#ff4444" opacity="0.3"/>
<line x1="118.25" y1="204.93775328447958" x2="118.25" y2="245.9289946723092" stroke="#ff4444" stroke-width="1" opacity="0.8"/>
<rect x="113.0" y="218.1452064729252" width="6.3" height="21.210146919941195" fill="#ff4444" opacity="0.8"/>
<rect x="113.0" y="307.6920638906342" width="6.3" height="22.307936109365787" fill="#ff4444" opacity="0.3"/>
<line x1="128.75" y1="212.27857009081384" x2="128.75" y2="227.69729391559378" stroke="#ff4444" stroke-width="1" opacity="0.8"/>
<rect x="123.5" y="221.37937781178152" width="6.3" height="5.821508409941259" fill="#ff4444" opacity="0.8"/>
<rect x="123.5" y="314.7269883164854" width="6.3" height="15.273011683514575" fill="#ff4444" opacity="0.3"/>
<line x1="139.25" y1="222.80843026383428" x2="139.25" y2="249.88521356588686" stroke="#44aa44" stroke-width="1" opacity="0.8"/>
<rect x="134.0" y="223.12432606902487" width="6.3" height="25.25662175785905" fill="#44aa44" opacity="0.8"/>
<rect x="134.0" y="311.8392315217428" width="6.3" height="18.16076847825716" fill="#44aa44" opacity="0.3"/>
<line x1="149.75" y1="244.04866249855553" x2="149.75" y2="259.25678911987507" stroke="#44aa44" stroke-width="1" opacity="0.8"/>
<rect x="144.5" y="254.42809609767568" width="6.3" height="1.4741804242228511" fill="#44aa44" opacity="0.8"/>
<rect x="144.5" y="319.50819084475114" width="6.3" height="10.491809155248832" fill="#44aa44" opacity="0.3"/>
<line x1="160.25" y1="238.60322052336497" x2="160.25" y2="253.11938490474313" stroke="#44aa44" stroke-width="1" opacity="0.8"/>
<rect x="155.0" y="240.91978976142943" width="6.3" height="4.467669244838675" fill="#44aa44" opacity="0.8"/>
<rect x="155.0" y="317.8392633352611" width="6.3" height="12.16073666473892" fill="#44aa44" opacity="0.3"/>
<line x1="170.75" y1="245.41754432104815" x2="170.75" y2="252.15665483178125" stroke="#ff4444" stroke-width="1" opacity="0.8"/>
<rect x="165.5" y="247.0271086617813" width="6.3" height="2.858104904105545" fill="#ff4444" opacity="0.8"/>
<rect x="165.5" y="321.7518255846586" width="6.3" height="8.248174415341387" fill="#ff4444" opacity="0.3"/>
<line x1="181.25" y1="247.77924153128276" x2="181.25" y2="270.7945073380275" stroke="#ff4444" stroke-width="1" opacity="0.8"/>
<rect x="176.0" y="252.2469107761214" width="6.3" height="8.57431471231672" fill="#ff4444" opacity="0.8"/>
<rect x="176.0" y="317.0557679612875" width="6.3" height="12.944232038712508" fill="#ff4444" opacity="0.3"/>
<line x1="191.75" y1="233.3683757516348" x2="191.75" y2="242.66473801867284" stroke="#ff4444" stroke-width="1" opacity="0.8"/>
<rect x="186.5" y="238.55809255119487" width="6.3" height="1" fill="#ff4444" opacity="0.8"/>
<rect x="186.5" y="317.6804212791534" width="6.3" height="12.319578720846602" fill="#ff4444" opacity="0.3"/>
<line x1="202.25" y1="226.77969181480196" x2="202.25" y2="245.64318418189862" stroke="#44aa44" stroke-width="1" opacity="0.8"/>
<rect x="197.0" y="238.54304989380486" width="6.3" height="5.024247568269743" fill="#44aa44" opacity="0.8"/>
<rect x="197.0" y="319.0640758343379" width="6.3" height="10.93592416566208" fill="#44aa44" opacity="0.3"/>
<line x1="212.75" y1="232.31538973433274" x2="212.75" y2="249.13308069638538" stroke="#ff4444" stroke-width="1" opacity="0.8"/>
<rect x="207.5" y="246.876682087881" width="6.3" height="1" fill="#ff4444" opacity="0.8"/>
<rect x="207.5" y="320.17257583831463" width="6.3" height="9.82742416168539" fill="#ff4444" opacity="0.3"/>
<line x1="223.25" y1="248.6818009746845" x2="223.25" y2="257.33132897395126" stroke="#44aa44" stroke-width="1" opacity="0.8"/>
<rect x="218.0" y="251.3894793048898" width="6.3" height="4.903906309149477" fill="#44aa44" opacity="0.8"/>
<rect x="218.0" y="322.24156913361566" width="6.3" height="7.7584308663843595" fill="#44aa44" opacity="0.3"/>
<line x1="233.75" y1="254.57852267157597" x2="233.75" y2="272.46424230832065" stroke="#44aa44" stroke-width="1" opacity="0.8"/>
<rect x="228.5" y="257.13577442788096" width="6.3" height="2.000673432873839" fill="#44aa44" opacity="0.8"/>
<rect x="228.5" y="317.36128794756223" width="6.3" height="12.638712052437768" fill="#44aa44" opacity="0.3"/>
<line x1="244.25" y1="255.75184994799827" x2="244.25" y2="269.30528425641455" stroke="#44aa44" stroke-width="1" opacity="0.8"/>
<rect x="239.0" y="255.9323618366786" width="6.3" height="13.372922419735943" fill="#44aa44" opacity="0.8"/>
<rect x="239.0" y="322.27544825815306" width="6.3" height="7.724551741846934" fill="#44aa44" opacity="0.3"/>
<line x1="254.75" y1="261.1672066084088" x2="254.75" y2="273.80303881603334" stroke="#ff4444" stroke-width="1" opacity="0.8"/>
<rect x="249.5" y="262.82189892131197" width="6.3" height="4.437583930058622" fill="#ff4444" opacity="0.8"/>
<rect x="249.5" y="321.5203629240714" width="6.3" height="8.479637075928643" fill="#ff4444" opacity="0.3"/>
<line x1="265.25" y1="268.2372555817225" x2="265.25" y2="278.46626260694234" stroke="#44aa44" stroke-width="1" opacity="0.8"/>
<rect x="260.0" y="269.4406681729248" width="6.3" height="6.573641279442768" fill="#44aa44" opacity="0.8"/>
<rect x="260.0" y="320.135619892084" width="6.3" height="9.864380107916" fill="#44aa44" opacity="0.3"/>
<line x1="275.75" y1="271.69706678142916" x2="275.75" y2="285.98759130195697" stroke="#44aa44" stroke-width="1" opacity="0.8"/>
<rect x="270.5" y="273.2013325204321" width="6.3" height="12.154467171143608" fill="#44aa44" opacity="0.8"/>
<rect x="270.5" y="318.50875098991173" width="6.3" height="11.491249010088294" fill="#44aa44" opacity="0.3"/>
<line x1="286.25" y1="287.52194235573995" x2="286.25" y2="300.9099074328659" stroke="#44aa44" stroke-width="1" opacity="0.8"/>
<rect x="281.0" y="290.5154311763557" width="6.3" height="8.95038114706739" fill="#44aa44" opacity="0.8"/>
<rect x="281.0" y="317.9974980940294" width="6.3" height="12.002501905970602" fill="#44aa44" opacity="0.3"/>
<line x1="296.75" y1="289.02620809474286" x2="296.75" y2="305.573131223775" stroke="#ff4444" stroke-width="1" opacity="0.8"/>
<rect x="291.5" y="290.09423676943493" width="6.3" height="3.881005606627525" fill="#ff4444" opacity="0.8"/>
<rect x="291.5" y="317.44554321014306" width="6.3" height="12.55445678985694" fill="#ff4444" opacity="0.3"/>
<line x1="307.25" y1="277.66900176527076" x2="307.25" y2="291.17730810151704" stroke="#ff4444" stroke-width="1" opacity="0.8"/>
<rect x="302.0" y="283.88161926735285" width="6.3" height="4.437583930058679" fill="#ff4444" opacity="0.8"/>
<rect x="302.0" y="317.90306193751144" width="6.3" height="12.096938062488567" fill="#ff4444" opacity="0.3"/>
<line x1="317.75" y1="267.9364024339219" x2="317.75" y2="282.9790598239511" stroke="#44aa44" stroke-width="1" opacity="0.8"/>
<rect x="312.5" y="274.96132343506554" width="6.3" height="6.964750371583534" fill="#44aa44" opacity="0.8"/>
<rect x="312.5" y="317.2575304301983" width="6.3" height="12.7424695698017" fill="#44aa44" opacity="0.3"/>
<line x1="328.25" y1="274.11893462122396" x2="328.25" y2="294.5619060142736" stroke="#ff4444" stroke-width="1" opacity="0.8"/>
<rect x="323.0" y="278.54147589389254" width="6.3" height="9.552087442668494" fill="#ff4444" opacity="0.8"/>
<rect x="323.0" y="319.5473657838794" width="6.3" height="10.452634216120591" fill="#ff4444" opacity="0.3"/>
<line x1="338.75" y1="281.6553059736285" x2="338.75" y2="290.3950899172355" stroke="#44aa44" stroke-width="1" opacity="0.8"/>
<rect x="333.5" y="282.0765003805494" width="6.3" height="4.317242670938299" fill="#44aa44" opacity="0.8"/>
<rect x="333.5" y="321.69870269017383" width="6.3" height="8.301297309826174" fill="#44aa44" opacity="0.3"/>
<line x1="349.25" y1="282.918889194391" x2="349.25" y2="294.99814307858446" stroke="#44aa44" stroke-width="1" opacity="0.8"/>
<rect x="344.0" y="288.15373396612114" width="6.3" height="6.468342677712599" fill="#44aa44" opacity="0.8"/>
<rect x="344.0" y="321.7731980198357" width="6.3" height="8.226801980164272" fill="#44aa44" opacity="0.3"/>
<line x1="359.75" y1="277.26285001574" x2="359.75" y2="287.49185704095987" stroke="#ff4444" stroke-width="1" opacity="0.8"/>
<rect x="354.5" y="279.50420596685433" width="6.3" height="4.828693022199445" fill="#ff4444" opacity="0.8"/>
<rect x="354.5" y="318.817699450876" width="6.3" height="11.182300549124049" fill="#ff4444" opacity="0.3"/>
<line x1="370.25" y1="281.11377030758746" x2="370.25" y2="293.05764027527067" stroke="#44aa44" stroke-width="1" opacity="0.8"/>
<rect x="365.0" y="281.4747940849482" width="6.3" height="9.025594434017478" fill="#44aa44" opacity="0.8"/>
<rect x="365.0" y="322.6111808609874" width="6.3" height="7.388819139012577" fill="#44aa44" opacity="0.3"/>
<line x1="380.75" y1="282.72333464832064" x2="380.75" y2="290.1694500563851" stroke="#44aa44" stroke-width="1" opacity="0.8"/>
<rect x="375.5" y="288.8908241782326" width="6.3" height="1" fill="#44aa44" opacity="0.8"/>
<rect x="375.5" y="323.3481915719173" width="6.3" height="6.651808428082702" fill="#44aa44" opacity="0.3"/>
<line x1="391.25" y1="274.179105250784" x2="391.25" y2="293.50891999697154" stroke="#ff4444" stroke-width="1" opacity="0.8"/>
<rect x="386.0" y="283.67102206389245" width="6.3" height="5.325100716070324" fill="#ff4444" opacity="0.8"/>
<rect x="386.0" y="318.71125198692465" width="6.3" height="11.288748013075356" fill="#ff4444" opacity="0.3"/>
<line x1="401.75" y1="262.0697660518105" x2="401.75" y2="275.3825178419863" stroke="#ff4444" stroke-width="1" opacity="0.8"/>
<rect x="396.5" y="267.18426956442045" width="6.3" height="3.6102377736070252" fill="#ff4444" opacity="0.8"/>
<rect x="396.5" y="312.4363934150562" width="6.3" height="17.5636065849438" fill="#ff4444" opacity="0.3"/>
<line x1="412.25" y1="264.386335289875" x2="412.25" y2="274.46491574119455" stroke="#ff4444" stroke-width="1" opacity="0.8"/>
<rect x="407.0" y="269.4406681729248" width="6.3" height="3.008531478005864" fill="#ff4444" opacity="0.8"/>
<rect x="407.0" y="318.8447477585672" width="6.3" height="11.15525224143279" fill="#ff4444" opacity="0.3"/>
<line x1="422.75" y1="252.12656951700123" x2="422.75" y2="264.19078074380457" stroke="#ff4444" stroke-width="1" opacity="0.8"/>
<rect x="417.5" y="262.1901073109308" width="6.3" height="2.000673432873782" fill="#ff4444" opacity="0.8"/>
<rect x="417.5" y="313.2634216120591" width="6.3" height="16.736578387940856" fill="#ff4444" opacity="0.3"/>
<line x1="433.25" y1="224.73389040975798" x2="433.25" y2="249.88521356588686" stroke="#ff4444" stroke-width="1" opacity="0.8"/>
<rect x="428.0" y="241.9878184361215" width="6.3" height="7.897395129765357" fill="#ff4444" opacity="0.8"/>
<rect x="428.0" y="305.762696718322" width="6.3" height="24.237303281678027" fill="#ff4444" opacity="0.3"/>
<line x1="443.75" y1="230.54035616230928" x2="443.75" y2="242.31875689870216" stroke="#44aa44" stroke-width="1" opacity="0.8"/>
<rect x="438.5" y="233.3232477794647" width="6.3" height="3.354512597976509" fill="#44aa44" opacity="0.8"/>
<rect x="438.5" y="314.2479880790202" width="6.3" height="15.752011920979765" fill="#44aa44" opacity="0.3"/>
<line x1="454.25" y1="217.84435332512462" x2="454.25" y2="237.56527716345292" stroke="#ff4444" stroke-width="1" opacity="0.8"/>
<rect x="449.0" y="231.8340246978518" width="6.3" height="1" fill="#ff4444" opacity="0.8"/>
<rect x="449.0" y="309.3823922402284" width="6.3" height="20.61760775977158" fill="#ff4444" opacity="0.3"/>
<line x1="464.75" y1="227.32122748084305" x2="464.75" y2="237.8510876538635" stroke="#ff4444" stroke-width="1" opacity="0.8"/>
<rect x="459.5" y="230.32975895884888" width="6.3" height="1" fill="#ff4444" opacity="0.8"/>
<rect x="459.5" y="316.69408461714136" width="6.3" height="13.305915382858648" fill="#ff4444" opacity="0.3"/>
<line x1="475.25" y1="207.01364000430362" x2="475.25" y2="224.16226942893687" stroke="#ff4444" stroke-width="1" opacity="0.8"/>
<rect x="470.0" y="219.79989878582845" width="6.3" height="3.0085314780058354" fill="#ff4444" opacity="0.8"/>
<rect x="470.0" y="311.3939280491837" width="6.3" height="18.6060719508163" fill="#ff4444" opacity="0.3"/>
<line x1="485.75" y1="202.42562950034468" x2="485.75" y2="218.91238199981674" stroke="#44aa44" stroke-width="1" opacity="0.8"/>
<rect x="480.5" y="216.79136730782258" width="6.3" height="1" fill="#44aa44" opacity="0.8"/>
<rect x="480.5" y="314.17426820386555" width="6.3" height="15.82573179613443" fill="#44aa44" opacity="0.3"/>
<line x1="496.25" y1="219.7547708136584" x2="496.25" y2="234.39127645415675" stroke="#44aa44" stroke-width="1" opacity="0.8"/>
<rect x="491.0" y="219.79989878582845" width="6.3" height="11.206779755571716" fill="#44aa44" opacity="0.8"/>
<rect x="491.0" y="317.8498095165595" width="6.3" height="12.150190483440497" fill="#44aa44" opacity="0.3"/>
<line x1="506.75" y1="219.45391766585772" x2="506.75" y2="233.33829043685472" stroke="#ff4444" stroke-width="1" opacity="0.8"/>
<rect x="501.5" y="221.0033113770308" width="6.3" height="12.30489374504387" fill="#ff4444" opacity="0.8"/>
<rect x="501.5" y="316.37889104892577" width="6.3" height="13.621108951074216" fill="#ff4444" opacity="0.3"/>
<line x1="517.25" y1="198.3490693476468" x2="517.25" y2="220.85288480313048" stroke="#44aa44" stroke-width="1" opacity="0.8"/>
<rect x="512.0" y="207.4649197260045" width="6.3" height="7.220475547214022" fill="#44aa44" opacity="0.8"/>
<rect x="512.0" y="309.4899071613366" width="6.3" height="20.510092838663425" fill="#44aa44" opacity="0.3"/>
<line x1="527.75" y1="169.70784967703116" x2="527.75" y2="203.16271971245612" stroke="#ff4444" stroke-width="1" opacity="0.8"/>
<rect x="522.5" y="182.1932553107554" width="6.3" height="14.094969974457399" fill="#ff4444" opacity="0.8"/>
<rect x="522.5" y="299.2516017538338" width="6.3" height="30.748398246166186" fill="#ff4444" opacity="0.3"/>
<line x1="538.25" y1="152.10794053069702" x2="538.25" y2="169.70784967703116" stroke="#44aa44" stroke-width="1" opacity="0.8"/>
<rect x="533.0" y="159.62926922571162" width="6.3" height="5.610911206480893" fill="#44aa44" opacity="0.8"/>
<rect x="533.0" y="303.67276558322703" width="6.3" height="26.327234416772995" fill="#44aa44" opacity="0.3"/>
<line x1="548.75" y1="159.59918391093157" x2="548.75" y2="180.6889895717525" stroke="#44aa44" stroke-width="1" opacity="0.8"/>
<rect x="543.5" y="174.67192661574083" width="6.3" height="1.5042657390029035" fill="#44aa44" opacity="0.8"/>
<rect x="543.5" y="311.93401819506005" width="6.3" height="18.06598180493996" fill="#44aa44" opacity="0.3"/>
<line x1="559.25" y1="177.98131124154722" x2="559.25" y2="203.16271971245612" stroke="#44aa44" stroke-width="1" opacity="0.8"/>
<rect x="554.0" y="182.61444971767622" width="6.3" height="8.950381147067446" fill="#44aa44" opacity="0.8"/>
<rect x="554.0" y="309.7680817243836" width="6.3" height="20.231918275616415" fill="#44aa44" opacity="0.3"/>
<line x1="569.75" y1="155.59783704518378" x2="569.75" y2="182.37376719943578" stroke="#ff4444" stroke-width="1" opacity="0.8"/>
<rect x="564.5" y="165.27026574697257" width="6.3" height="17.073416137683182" fill="#ff4444" opacity="0.8"/>
<rect x="564.5" y="302.2147009131616" width="6.3" height="27.785299086838407" fill="#ff4444" opacity="0.3"/>
<line x1="580.25" y1="76.1425207110495" x2="580.25" y2="128.03968870665028" stroke="#ff4444" stroke-width="1" opacity="0.8"/>
<rect x="575.0" y="92.82482775659186" width="6.3" height="33.56016863715517" fill="#ff4444" opacity="0.8"/>
<rect x="575.0" y="295.0" width="6.3" height="35.0" fill="#ff4444" opacity="0.3"/>
<line x1="590.75" y1="94.69011727295549" x2="590.75" y2="108.66474598829265" stroke="#44aa44" stroke-width="1" opacity="0.8"/>
<rect x="585.5" y="95.41216482767693" width="6.3" height="1.6396496555131392" fill="#44aa44" opacity="0.8"/>
<rect x="585.5" y="302.65332525118475" width="6.3" height="27.346674748815232" fill="#44aa44" opacity="0.3"/>
<line x1="601.25" y1="101.62478232975899" x2="601.25" y2="129.5289117882632" stroke="#44aa44" stroke-width="1" opacity="0.8"/>
<rect x="596.0" y="108.66474598829265" width="6.3" height="15.94521683343099" fill="#44aa44" opacity="0.8"/>
<rect x="596.0" y="301.6117779325531" width="6.3" height="28.388222067446932" fill="#44aa44" opacity="0.3"/>
<line x1="611.75" y1="84.41598227556557" x2="611.75" y2="110.03362781078526" stroke="#ff4444" stroke-width="1" opacity="0.8"/>
<rect x="606.5" y="85.64948018154796" width="6.3" height="13.057026614545364" fill="#ff4444" opacity="0.8"/>
<rect x="606.5" y="299.0372706728218" width="6.3" height="30.962729327178177" fill="#ff4444" opacity="0.3"/>
<line x1="622.25" y1="71.17844377233985" x2="622.25" y2="101.79025156104933" stroke="#ff4444" stroke-width="1" opacity="0.8"/>
<rect x="617.0" y="85.63443752415793" width="6.3" height="9.31140492442809" fill="#ff4444" opacity="0.8"/>
<rect x="617.0" y="305.37652719090045" width="6.3" height="24.623472809099574" fill="#ff4444" opacity="0.3"/>
<line x1="632.75" y1="83.91957458169463" x2="632.75" y2="117.08863412670904" stroke="#ff4444" stroke-width="1" opacity="0.8"/>
<rect x="627.5" y="87.13870326316086" width="6.3" height="19.841265097448513" fill="#ff4444" opacity="0.8"/>
<rect x="627.5" y="306.27712812553614" width="6.3" height="23.72287187446386" fill="#ff4444" opacity="0.3"/>
<line x1="643.25" y1="78.8802843560348" x2="643.25" y2="122.02262575063858" stroke="#44aa44" stroke-width="1" opacity="0.8"/>
<rect x="638.0" y="86.8528927727503" width="6.3" height="34.868879830087735" fill="#44aa44" opacity="0.8"/>
<rect x="638.0" y="305.9742253692356" width="6.3" height="24.025774630764353" fill="#44aa44" opacity="0.3"/>
<line x1="653.75" y1="122.02262575063858" x2="653.75" y2="159.35850139269107" stroke="#44aa44" stroke-width="1" opacity="0.8"/>
<rect x="648.5" y="129.54395444565318" width="6.3" height="25.55747490565966" fill="#44aa44" opacity="0.8"/>
<rect x="648.5" y="297.23645795105034" width="6.3" height="32.763542048949645" fill="#44aa44" opacity="0.3"/>
<line x1="664.25" y1="137.81741601016927" x2="664.25" y2="159.62926922571162" stroke="#ff4444" stroke-width="1" opacity="0.8"/>
<rect x="659.0" y="154.16878459313102" width="6.3" height="1" fill="#ff4444" opacity="0.8"/>
<rect x="659.0" y="309.84693493794657" width="6.3" height="20.1530650620534" fill="#ff4444" opacity="0.3"/>
<line x1="674.75" y1="141.51790972811642" x2="674.75" y2="172.29518674811624" stroke="#ff4444" stroke-width="1" opacity="0.8"/>
<rect x="669.5" y="141.54799504289653" width="6.3" height="12.84642941108487" fill="#ff4444" opacity="0.8"/>
<rect x="669.5" y="305.498831421303" width="6.3" height="24.501168578696987" fill="#ff4444" opacity="0.3"/>
<rect x="177.25" y="266.7945073380275" width="8" height="8" fill="#ff9800" opacity="0.85"/>
<text x="181.25" y="263.7945073380275" text-anchor="middle" font-size="8" font-weight="bold" fill="#ff9800">前低</text>
<rect x="198.25" y="222.77969181480196" width="8" height="8" fill="#ff9800" opacity="0.85"/>
<text x="202.25" y="219.77969181480196" text-anchor="middle" font-size="8" font-weight="bold" fill="#ff9800">前高</text>
<rect x="292.75" y="301.573131223775" width="8" height="8" fill="#ff9800" opacity="0.85"/>
<text x="296.75" y="298.573131223775" text-anchor="middle" font-size="8" font-weight="bold" fill="#ff9800">前低</text>
<rect x="313.75" y="263.9364024339219" width="8" height="8" fill="#ff9800" opacity="0.85"/>
<text x="317.75" y="260.9364024339219" text-anchor="middle" font-size="8" font-weight="bold" fill="#ff9800">前高</text>
<rect x="460.75" y="226.32975895884888" width="8" height="8" fill="#2196f3" opacity="0.85"/>
<text x="464.75" y="223.32975895884888" text-anchor="middle" font-size="8" font-weight="bold" fill="#2196f3">中</text>
<rect x="534.25" y="148.10794053069702" width="8" height="8" fill="#ff9800" opacity="0.85"/>
<text x="538.25" y="145.10794053069702" text-anchor="middle" font-size="8" font-weight="bold" fill="#ff9800">前高</text>
<rect x="576.25" y="72.1425207110495" width="8" height="8" fill="#ff9800" opacity="0.85"/>
<text x="580.25" y="69.1425207110495" text-anchor="middle" font-size="8" font-weight="bold" fill="#ff9800">前高</text>
<rect x="618.25" y="67.17844377233985" width="8" height="8" fill="#ff9800" opacity="0.85"/>
<text x="622.25" y="64.17844377233985" text-anchor="middle" font-size="8" font-weight="bold" fill="#ff9800">前高</text>
<rect x="618.25" y="81.63443752415793" width="8" height="8" fill="#2196f3" opacity="0.85"/>
<text x="622.25" y="78.63443752415793" text-anchor="middle" font-size="8" font-weight="bold" fill="#2196f3">中</text>
<rect x="660.25" y="150.16878459313102" width="8" height="8" fill="#2196f3" opacity="0.85"/>
<text x="664.25" y="147.16878459313102" text-anchor="middle" font-size="8" font-weight="bold" fill="#2196f3">中</text>
<line x1="674.75" y1="141.54799504289653" x2="674.75" y2="42" stroke="#4caf50" stroke-width="1" stroke-dasharray="3,2"/>
<rect x="654.75" y="28" width="40" height="14" rx="3" fill="#2563eb" opacity="0.9"/>
<text x="674.75" y="38" text-anchor="middle" font-size="9" font-weight="bold" fill="white">关注</text>
<text x="55.25" y="355" fill="#666666" font-size="8" text-anchor="middle" transform="rotate(-30,55.25,355)">02/11</text>
<text x="107.75" y="355" fill="#666666" font-size="8" text-anchor="middle" transform="rotate(-30,107.75,355)">02/26</text>
<text x="160.25" y="355" fill="#666666" font-size="8" text-anchor="middle" transform="rotate(-30,160.25,355)">03/05</text>
<text x="212.75" y="355" fill="#666666" font-size="8" text-anchor="middle" transform="rotate(-30,212.75,355)">03/12</text>
<text x="265.25" y="355" fill="#666666" font-size="8" text-anchor="middle" transform="rotate(-30,265.25,355)">03/19</text>
<text x="317.75" y="355" fill="#666666" font-size="8" text-anchor="middle" transform="rotate(-30,317.75,355)">03/26</text>
<text x="370.25" y="355" fill="#666666" font-size="8" text-anchor="middle" transform="rotate(-30,370.25,355)">04/02</text>
<text x="422.75" y="355" fill="#666666" font-size="8" text-anchor="middle" transform="rotate(-30,422.75,355)">04/10</text>
<text x="475.25" y="355" fill="#666666" font-size="8" text-anchor="middle" transform="rotate(-30,475.25,355)">04/17</text>
<text x="527.75" y="355" fill="#666666" font-size="8" text-anchor="middle" transform="rotate(-30,527.75,355)">04/24</text>
<text x="580.25" y="355" fill="#666666" font-size="8" text-anchor="middle" transform="rotate(-30,580.25,355)">05/06</text>
<text x="632.75" y="355" fill="#666666" font-size="8" text-anchor="middle" transform="rotate(-30,632.75,355)">05/13</text>
<text x="674.75" y="355" fill="#666666" font-size="8" text-anchor="middle" transform="rotate(-30,674.75,355)">05/19</text>
<rect x="50" y="334" width="7" height="7" fill="#ff9800" opacity="0.8" rx="1"/>
<text x="60" y="340" font-family="sans-serif" font-size="8" fill="#888888">第1类</text>
<rect x="120" y="334" width="7" height="7" fill="#2196f3" opacity="0.8" rx="1"/>
<text x="130" y="340" font-family="sans-serif" font-size="8" fill="#888888">第2类</text>
<rect x="190" y="334" width="7" height="7" fill="#ffd700" opacity="0.8" rx="1"/>
<text x="200" y="340" font-family="sans-serif" font-size="8" fill="#888888">EMA5</text>
<rect x="260" y="334" width="7" height="7" fill="#ff6b6b" opacity="0.8" rx="1"/>
<text x="270" y="340" font-family="sans-serif" font-size="8" fill="#888888">EMA10</text>
<rect x="330" y="334" width="7" height="7" fill="#4ecdc4" opacity="0.8" rx="1"/>
<text x="340" y="340" font-family="sans-serif" font-size="8" fill="#888888">EMA20</text>
</svg>