<svg xmlns="http://www.w3.org/2000/svg" width="700" height="380" viewBox="0 0 700 380">
<rect width="700" height="380" fill="#1a1a2e"/>
<text x="350.0" y="20" text-anchor="middle" font-family="sans-serif" font-size="14" font-weight="bold" fill="#ffffff">沪硅产业(688126) 关键点图</text>
<line x1="50" y1="28.02910773234386" x2="680" y2="28.02910773234386" stroke="#2a2a4e" stroke-width="0.5"/>
<text x="46" y="31.02910773234386" text-anchor="end" font-size="9" fill="#666666">31.88</text>
<line x1="50" y1="128.6327076455989" x2="680" y2="128.6327076455989" stroke="#2a2a4e" stroke-width="0.5"/>
<text x="46" y="131.6327076455989" text-anchor="end" font-size="9" fill="#666666">26.35</text>
<line x1="50" y1="229.41823088600282" x2="680" y2="229.41823088600282" stroke="#2a2a4e" stroke-width="0.5"/>
<text x="46" y="232.41823088600282" text-anchor="end" font-size="9" fill="#666666">20.81</text>
<line x1="50" y1="330.02183079925794" x2="680" y2="330.02183079925794" stroke="#2a2a4e" stroke-width="0.5"/>
<text x="46" y="333.02183079925794" text-anchor="end" font-size="9" fill="#666666">15.28</text>
<polyline points="55.25,231.41938748463897 65.75,231.72259302988687 76.25,232.34921782339924 86.75,230.82645219615418 97.25,222.65562424347357 107.75,218.11802224409686 118.25,216.36641753455362 128.75,221.62663862078037 139.25,230.77307581987597 149.75,239.4176271993554 160.25,244.02848038039966 170.75,246.67789473774874 181.25,250.44532757461766 191.75,251.0770750853266 202.25,249.31516016668095 212.75,250.44491236480127 223.25,252.35026156882353 233.75,253.13536549910833 244.25,256.9333880079757 254.75,259.5866852319864 265.25,262.6290133380347 275.75,267.2647997645323 286.25,275.5098183180783 296.75,279.55111073658577 307.25,281.3356890465137 317.75,284.22335897318726 328.25,285.4814200580909 338.75,288.2606429376132 349.25,292.35717922546263 359.75,292.9657646006269 370.25,295.49392700080506 380.75,298.93796076336173 391.25,299.7179555454933 401.75,294.0525589438571 412.25,292.51934891093407 422.75,290.2237455989442 433.25,289.0571900452485 443.75,287.4305108160905 454.25,286.5886224328502 464.75,285.48159352924375 475.25,283.0456232067845 485.75,265.2304668755735 496.25,259.5997302202063 506.75,254.87564803850165 517.25,247.0568945205474 527.75,241.23798108474878 538.25,235.5394721893956 548.75,234.89380392973837 559.25,237.37413165768007 569.75,235.9349869147793 580.25,224.54528632965082 590.75,215.6786893161906 601.25,207.03877473331931 611.75,194.00189859212202 622.25,178.82204916301868 632.75,166.88291627212902 643.25,162.5013197787945 653.75,165.03795526436716 664.25,163.5150668084544 674.75,132.66438218545204" fill="none" stroke="#ffd700" stroke-width="1" opacity="0.6"/>
<polyline points="55.25,231.41938748463897 65.75,231.58477232750144 76.25,231.95162597894188 86.75,231.19331597216413 97.25,226.66979822051837 107.75,223.46489277048656 118.25,221.5373137423012 128.75,223.46636229701625 139.25,228.1208328281164 149.75,233.3182686699706 160.25,236.94225377406468 170.75,239.67579371558872 181.25,243.00386635791 191.75,244.70144885769807 202.25,244.89960912527837 212.75,246.31866505905356 223.25,248.1081732259289 233.75,249.30770052297424 244.25,252.07528825074442 254.75,254.4058321469741 265.25,257.00725712936634 275.75,260.55800539994107 286.25,266.2747054045282 296.75,270.1581581625414 307.25,272.8393740723284 317.75,275.9592513003658 328.25,278.14803146900806 338.75,280.99731460130806 349.25,284.55239409219047 359.75,286.3034015937841 370.25,288.89373799512543 380.75,291.9723362302799 391.25,293.6642651174575 401.75,291.6747197762079 412.25,291.27075778873154 422.75,290.2456270953194 433.25,289.6053456121444 443.75,288.6184013840771 454.25,287.943209435403 464.75,287.0930869420626 475.25,285.4713770547541 485.75,275.3129729017354 496.25,270.40847908496033 506.75,265.86647991952975 517.25,259.6033722040951 527.75,254.1482416602872 538.25,248.69264397636027 548.75,245.9489755098264 559.25,245.29185034686952 569.75,243.067277089071 580.25,235.55793310185697 590.75,228.71930804502298 601.25,221.63560577639637 611.75,211.87061314609295 622.25,200.34183808404188 632.75,189.91689488518875 643.25,183.33893705008637 653.75,180.93389872016385 664.25,177.21306075224842 674.75,157.89487024083004" fill="none" stroke="#ff6b6b" stroke-width="1" opacity="0.6"/>
<polyline points="55.25,231.41938748463897 65.75,231.50601764042412 76.25,231.70567952328128 86.75,231.33189299169865 97.25,228.94923350088092 107.75,227.053384428925 118.25,225.70193906573857 128.75,226.31576208740478 139.25,228.48244667127733 149.75,231.1704736509951 160.25,233.27330346923256 170.75,235.05458156287204 181.25,237.23797315196566 191.75,238.67631571908746 202.25,239.3539361581639 212.75,240.6254105012951 223.25,242.1049866418259 233.75,243.3050425197166 244.25,245.3264130440969 254.75,247.1899241522789 265.25,249.23980466636007 275.75,251.83947780456649 286.25,255.66427567319542 296.75,258.7089823303769 307.25,261.20382645761424 317.75,263.9461952546543 328.25,266.23679972829655 338.75,268.86368439195 349.25,271.8814527166368 359.75,274.0054034437147 370.25,276.533484239662 380.75,279.32325033954896 391.25,281.4141736509973 401.75,281.53870623095804 412.25,282.29244171801804 422.75,282.6105462186796 433.25,283.0023112395536 443.75,283.1142008698604 454.25,283.28473846952795 464.75,283.2831001126234 475.25,282.7964889173131 485.75,277.73017132644065 496.25,274.9309413819674 506.75,272.12108826702695 517.25,268.24473581156144 527.75,264.5642994688557 538.25,260.7145999383637 548.75,258.13249207855984 559.25,256.6279487485602 569.75,254.3830676705047 580.25,249.3719074313513 590.75,244.47415389401024 601.25,239.26318167244517 611.75,232.46936878075775 622.25,224.46870035447716 632.75,216.71021941503645 643.25,210.7128772604735 653.75,206.84605335333438 664.25,202.42921873841001 674.75,189.90862770993735" fill="none" stroke="#4ecdc4" stroke-width="1" opacity="0.6"/>
<line x1="55.25" y1="225.59784101587917" x2="55.25" y2="233.05669742897766" stroke="#44aa44" stroke-width="1" opacity="0.8"/>
<rect x="50.0" y="229.6001542131515" width="6.3" height="1.8192332714874624" fill="#44aa44" opacity="0.8"/>
<rect x="50.0" y="327.04655128599893" width="6.3" height="2.953448714001068" fill="#44aa44" opacity="0.3"/>
<line x1="65.75" y1="229.23630755885404" x2="65.75" y2="234.1482373918701" stroke="#44aa44" stroke-width="1" opacity="0.8"/>
<rect x="60.5" y="231.96515746608517" width="6.3" height="1" fill="#44aa44" opacity="0.8"/>
<rect x="60.5" y="326.734174515488" width="6.3" height="3.265825484511984" fill="#44aa44" opacity="0.3"/>
<line x1="76.25" y1="229.6001542131515" x2="76.25" y2="234.69400737331637" stroke="#44aa44" stroke-width="1" opacity="0.8"/>
<rect x="71.0" y="232.87477410182888" width="6.3" height="1" fill="#44aa44" opacity="0.8"/>
<rect x="71.0" y="326.79864462374735" width="6.3" height="3.201355376252623" fill="#44aa44" opacity="0.3"/>
<line x1="86.75" y1="224.50630105298671" x2="86.75" y2="233.6024674104239" stroke="#ff4444" stroke-width="1" opacity="0.8"/>
<rect x="81.5" y="227.78092094166414" width="6.3" height="1.637309944338682" fill="#ff4444" opacity="0.8"/>
<rect x="81.5" y="326.5142814471445" width="6.3" height="3.48571855285549" fill="#ff4444" opacity="0.3"/>
<line x1="97.25" y1="199.4008819064601" x2="97.25" y2="229.41823088600282" stroke="#ff4444" stroke-width="1" opacity="0.8"/>
<rect x="92.0" y="206.31396833811237" width="6.3" height="21.648875930700456" fill="#ff4444" opacity="0.8"/>
<rect x="92.0" y="320.2039446280925" width="6.3" height="9.796055371907554" fill="#ff4444" opacity="0.3"/>
<line x1="107.75" y1="202.67550179513748" x2="107.75" y2="212.49936146116966" stroke="#44aa44" stroke-width="1" opacity="0.8"/>
<rect x="102.5" y="202.67550179513748" width="6.3" height="6.367316450206033" fill="#44aa44" opacity="0.8"/>
<rect x="102.5" y="324.78229397587955" width="6.3" height="5.2177060241204725" fill="#44aa44" opacity="0.3"/>
<line x1="118.25" y1="208.31512493674856" x2="118.25" y2="220.14014120141687" stroke="#44aa44" stroke-width="1" opacity="0.8"/>
<rect x="113.0" y="211.77166815257465" width="6.3" height="1.0915399628925115" fill="#44aa44" opacity="0.8"/>
<rect x="113.0" y="325.3758877124901" width="6.3" height="4.62411228750987" fill="#44aa44" opacity="0.3"/>
<line x1="128.75" y1="215.95590467699577" x2="128.75" y2="236.14939399050627" stroke="#44aa44" stroke-width="1" opacity="0.8"/>
<rect x="123.5" y="221.41360449145807" width="6.3" height="10.73347630177588" fill="#44aa44" opacity="0.8"/>
<rect x="123.5" y="322.6407717925629" width="6.3" height="7.359228207437127" fill="#44aa44" opacity="0.3"/>
<line x1="139.25" y1="226.87130430592038" x2="139.25" y2="249.9755668538108" stroke="#44aa44" stroke-width="1" opacity="0.8"/>
<rect x="134.0" y="231.0555408303415" width="6.3" height="18.01040938772556" fill="#44aa44" opacity="0.8"/>
<rect x="134.0" y="324.01548131189656" width="6.3" height="5.984518688103444" fill="#44aa44" opacity="0.3"/>
<line x1="149.75" y1="245.06363702079472" x2="149.75" y2="257.25249993976047" stroke="#44aa44" stroke-width="1" opacity="0.8"/>
<rect x="144.5" y="251.61287679814947" width="6.3" height="5.093853160164855" fill="#44aa44" opacity="0.8"/>
<rect x="144.5" y="326.1119987254468" width="6.3" height="3.888001274553159" fill="#44aa44" opacity="0.3"/>
<line x1="160.25" y1="246.33710031083595" x2="160.25" y2="255.4332666682731" stroke="#44aa44" stroke-width="1" opacity="0.8"/>
<rect x="155.0" y="249.61172019951331" width="6.3" height="3.6384665429748395" fill="#44aa44" opacity="0.8"/>
<rect x="155.0" y="326.3965131867158" width="6.3" height="3.6034868132841695" fill="#44aa44" opacity="0.3"/>
<line x1="170.75" y1="249.2478735452158" x2="170.75" y2="255.7971133225706" stroke="#ff4444" stroke-width="1" opacity="0.8"/>
<rect x="165.5" y="251.97672345244695" width="6.3" height="3.4565432158261444" fill="#ff4444" opacity="0.8"/>
<rect x="165.5" y="327.5096640134167" width="6.3" height="2.490335986583334" fill="#ff4444" opacity="0.3"/>
<line x1="181.25" y1="255.7971133225706" x2="181.25" y2="265.07520300715646" stroke="#44aa44" stroke-width="1" opacity="0.8"/>
<rect x="176.0" y="257.7982699212067" width="6.3" height="1" fill="#44aa44" opacity="0.8"/>
<rect x="176.0" y="326.01548448269415" width="6.3" height="3.984515517305824" fill="#44aa44" opacity="0.3"/>
<line x1="191.75" y1="249.2478735452158" x2="191.75" y2="255.2513433411243" stroke="#ff4444" stroke-width="1" opacity="0.8"/>
<rect x="186.5" y="252.34057010674445" width="6.3" height="1" fill="#ff4444" opacity="0.8"/>
<rect x="186.5" y="326.9511943843777" width="6.3" height="3.048805615622316" fill="#ff4444" opacity="0.3"/>
<line x1="202.25" y1="243.60825040360476" x2="202.25" y2="252.52249343389323" stroke="#ff4444" stroke-width="1" opacity="0.8"/>
<rect x="197.0" y="245.7913303293897" width="6.3" height="5.639623141610997" fill="#ff4444" opacity="0.8"/>
<rect x="197.0" y="326.12046462073727" width="6.3" height="3.8795353792627307" fill="#ff4444" opacity="0.3"/>
<line x1="212.75" y1="246.15517698368717" x2="212.75" y2="253.97788005108313" stroke="#44aa44" stroke-width="1" opacity="0.8"/>
<rect x="207.5" y="247.24671694657965" width="6.3" height="5.4576998144622735" fill="#44aa44" opacity="0.8"/>
<rect x="207.5" y="327.04080730549623" width="6.3" height="2.9591926945037796" fill="#44aa44" opacity="0.3"/>
<line x1="223.25" y1="248.52018023662083" x2="223.25" y2="259.43557986554544" stroke="#ff4444" stroke-width="1" opacity="0.8"/>
<rect x="218.0" y="256.16095997686807" width="6.3" height="2.0011565986361575" fill="#ff4444" opacity="0.8"/>
<rect x="218.0" y="326.52023032029007" width="6.3" height="3.4797696797099396" fill="#ff4444" opacity="0.3"/>
<line x1="233.75" y1="253.43211006963693" x2="233.75" y2="260.89096648273545" stroke="#ff4444" stroke-width="1" opacity="0.8"/>
<rect x="228.5" y="254.70557335967808" width="6.3" height="2.1830799257849947" fill="#ff4444" opacity="0.8"/>
<rect x="228.5" y="326.7026112405152" width="6.3" height="3.2973887594848166" fill="#ff4444" opacity="0.3"/>
<line x1="244.25" y1="251.79480012529825" x2="244.25" y2="264.5294330257103" stroke="#44aa44" stroke-width="1" opacity="0.8"/>
<rect x="239.0" y="253.25018674248815" width="6.3" height="11.279246283222164" fill="#44aa44" opacity="0.8"/>
<rect x="239.0" y="327.21227974141664" width="6.3" height="2.787720258583383" fill="#44aa44" opacity="0.3"/>
<line x1="254.75" y1="260.5271198284379" x2="254.75" y2="270.1690561673213" stroke="#44aa44" stroke-width="1" opacity="0.8"/>
<rect x="249.5" y="262.7101997542228" width="6.3" height="2.1830799257849662" fill="#44aa44" opacity="0.8"/>
<rect x="249.5" y="327.0554868892758" width="6.3" height="2.944513110724172" fill="#44aa44" opacity="0.3"/>
<line x1="265.25" y1="264.5294330257103" x2="265.25" y2="270.5329028216188" stroke="#ff4444" stroke-width="1" opacity="0.8"/>
<rect x="260.0" y="268.7136695501314" width="6.3" height="1.0915399628923979" fill="#ff4444" opacity="0.8"/>
<rect x="260.0" y="327.40802221471563" width="6.3" height="2.5919777852843873" fill="#ff4444" opacity="0.3"/>
<line x1="275.75" y1="265.43904966145396" x2="275.75" y2="277.8098359075685" stroke="#44aa44" stroke-width="1" opacity="0.8"/>
<rect x="270.5" y="267.07635960579273" width="6.3" height="9.460013011734645" fill="#44aa44" opacity="0.8"/>
<rect x="270.5" y="326.4207090596755" width="6.3" height="3.579290940324487" fill="#44aa44" opacity="0.3"/>
<line x1="286.25" y1="280.1748391605022" x2="286.25" y2="294.00101202380665" stroke="#44aa44" stroke-width="1" opacity="0.8"/>
<rect x="281.0" y="281.44830245054345" width="6.3" height="10.551552974627043" fill="#44aa44" opacity="0.8"/>
<rect x="281.0" y="325.61812482736957" width="6.3" height="4.381875172630449" fill="#44aa44" opacity="0.3"/>
<line x1="296.75" y1="284.540999012072" x2="296.75" y2="293.81908869665796" stroke="#44aa44" stroke-width="1" opacity="0.8"/>
<rect x="291.5" y="285.6325389749645" width="6.3" height="2.0011565986361575" fill="#44aa44" opacity="0.8"/>
<rect x="291.5" y="326.90835650545966" width="6.3" height="3.091643494540357" fill="#44aa44" opacity="0.3"/>
<line x1="307.25" y1="281.44830245054345" x2="307.25" y2="286.36023228355947" stroke="#44aa44" stroke-width="1" opacity="0.8"/>
<rect x="302.0" y="284.1771523577745" width="6.3" height="1" fill="#44aa44" opacity="0.8"/>
<rect x="302.0" y="326.7542507699462" width="6.3" height="3.2457492300537547" fill="#44aa44" opacity="0.3"/>
<line x1="317.75" y1="283.4494590491796" x2="317.75" y2="291.27216211657554" stroke="#44aa44" stroke-width="1" opacity="0.8"/>
<rect x="312.5" y="285.99638562926197" width="6.3" height="4.002313197272372" fill="#44aa44" opacity="0.8"/>
<rect x="312.5" y="327.8216848753303" width="6.3" height="2.1783151246697163" fill="#44aa44" opacity="0.3"/>
<line x1="328.25" y1="284.7229223392208" x2="328.25" y2="293.091395388063" stroke="#ff4444" stroke-width="1" opacity="0.8"/>
<rect x="323.0" y="287.9975422278982" width="6.3" height="2.5469265800824132" fill="#ff4444" opacity="0.8"/>
<rect x="323.0" y="327.96782250390845" width="6.3" height="2.0321774960915215" fill="#ff4444" opacity="0.3"/>
<line x1="338.75" y1="289.63485217223683" x2="338.75" y2="297.27563191248413" stroke="#44aa44" stroke-width="1" opacity="0.8"/>
<rect x="333.5" y="289.63485217223683" width="6.3" height="4.184236524421124" fill="#44aa44" opacity="0.8"/>
<rect x="333.5" y="327.24507062562066" width="6.3" height="2.7549293743793264" fill="#44aa44" opacity="0.3"/>
<line x1="349.25" y1="289.63485217223683" x2="349.25" y2="300.5502518011615" stroke="#44aa44" stroke-width="1" opacity="0.8"/>
<rect x="344.0" y="294.9106286595504" width="6.3" height="5.639623141611082" fill="#44aa44" opacity="0.8"/>
<rect x="344.0" y="327.19227362070234" width="6.3" height="2.8077263792976366" fill="#44aa44" opacity="0.3"/>
<line x1="359.75" y1="292.54562540661675" x2="359.75" y2="298.73101852967403" stroke="#ff4444" stroke-width="1" opacity="0.8"/>
<rect x="354.5" y="294.1829353509554" width="6.3" height="1" fill="#ff4444" opacity="0.8"/>
<rect x="354.5" y="327.3980441445431" width="6.3" height="2.60195585545688" fill="#ff4444" opacity="0.3"/>
<line x1="370.25" y1="294.00101202380665" x2="370.25" y2="302.0056384183514" stroke="#44aa44" stroke-width="1" opacity="0.8"/>
<rect x="365.0" y="294.00101202380665" width="6.3" height="6.549239777354842" fill="#44aa44" opacity="0.8"/>
<rect x="365.0" y="327.32897503617596" width="6.3" height="2.6710249638240207" fill="#44aa44" opacity="0.3"/>
<line x1="380.75" y1="297.0937085853353" x2="380.75" y2="305.826028288475" stroke="#44aa44" stroke-width="1" opacity="0.8"/>
<rect x="375.5" y="300.5502518011615" width="6.3" height="5.275776487313522" fill="#44aa44" opacity="0.8"/>
<rect x="375.5" y="328.13696131339384" width="6.3" height="1.8630386866061825" fill="#44aa44" opacity="0.3"/>
<line x1="391.25" y1="297.4575552396328" x2="391.25" y2="304.5525649984338" stroke="#ff4444" stroke-width="1" opacity="0.8"/>
<rect x="386.0" y="301.27794510975644" width="6.3" height="1.8192332714874055" fill="#ff4444" opacity="0.8"/>
<rect x="386.0" y="327.75307875715805" width="6.3" height="2.246921242841958" fill="#ff4444" opacity="0.3"/>
<line x1="401.75" y1="282.53984241343585" x2="401.75" y2="293.6371653695092" stroke="#ff4444" stroke-width="1" opacity="0.8"/>
<rect x="396.5" y="282.7217657405846" width="6.3" height="10.915399628924604" fill="#ff4444" opacity="0.8"/>
<rect x="396.5" y="325.74848827521" width="6.3" height="4.25151172479003" fill="#ff4444" opacity="0.3"/>
<line x1="412.25" y1="282.7217657405846" x2="412.25" y2="290.1806221536831" stroke="#44aa44" stroke-width="1" opacity="0.8"/>
<rect x="407.0" y="287.81561890074937" width="6.3" height="1.6373099443387105" fill="#44aa44" opacity="0.8"/>
<rect x="407.0" y="326.79913582866686" width="6.3" height="3.200864171333136" fill="#44aa44" opacity="0.3"/>
<line x1="422.75" y1="281.08445579624595" x2="422.75" y2="285.99638562926197" stroke="#44aa44" stroke-width="1" opacity="0.8"/>
<rect x="417.5" y="284.3590756849233" width="6.3" height="1.2734632900412066" fill="#44aa44" opacity="0.8"/>
<rect x="417.5" y="326.9107879429399" width="6.3" height="3.0892120570600614" fill="#44aa44" opacity="0.3"/>
<line x1="433.25" y1="283.0856123948821" x2="433.25" y2="289.2710055179394" stroke="#ff4444" stroke-width="1" opacity="0.8"/>
<rect x="428.0" y="286.724078937857" width="6.3" height="1.0915399628923979" fill="#ff4444" opacity="0.8"/>
<rect x="428.0" y="327.17561363196836" width="6.3" height="2.8243863680316315" fill="#ff4444" opacity="0.3"/>
<line x1="443.75" y1="281.44830245054345" x2="443.75" y2="287.26984891930323" stroke="#44aa44" stroke-width="1" opacity="0.8"/>
<rect x="438.5" y="283.26753572203086" width="6.3" height="1" fill="#44aa44" opacity="0.8"/>
<rect x="438.5" y="326.47273996764335" width="6.3" height="3.5272600323566463" fill="#44aa44" opacity="0.3"/>
<line x1="454.25" y1="274.1713693645936" x2="454.25" y2="285.6325389749645" stroke="#44aa44" stroke-width="1" opacity="0.8"/>
<rect x="449.0" y="282.7217657405846" width="6.3" height="2.1830799257849094" fill="#44aa44" opacity="0.8"/>
<rect x="449.0" y="324.88420045556836" width="6.3" height="5.1157995444316215" fill="#44aa44" opacity="0.3"/>
<line x1="464.75" y1="281.44830245054345" x2="464.75" y2="285.6325389749645" stroke="#44aa44" stroke-width="1" opacity="0.8"/>
<rect x="459.5" y="282.90368906773335" width="6.3" height="1" fill="#44aa44" opacity="0.8"/>
<rect x="459.5" y="326.8247530519666" width="6.3" height="3.1752469480333945" fill="#44aa44" opacity="0.3"/>
<line x1="475.25" y1="273.44367605599865" x2="475.25" y2="286.724078937857" stroke="#ff4444" stroke-width="1" opacity="0.8"/>
<rect x="470.0" y="278.17368256186603" width="6.3" height="6.367316450205976" fill="#ff4444" opacity="0.8"/>
<rect x="470.0" y="325.31673836386466" width="6.3" height="4.6832616361353345" fill="#ff4444" opacity="0.3"/>
<line x1="485.75" y1="221.0497578371606" x2="485.75" y2="271.4425194573625" stroke="#ff4444" stroke-width="1" opacity="0.8"/>
<rect x="480.5" y="229.6001542131515" width="6.3" height="41.84236524421098" fill="#ff4444" opacity="0.8"/>
<rect x="480.5" y="314.54995700479043" width="6.3" height="15.450042995209598" fill="#ff4444" opacity="0.3"/>
<line x1="496.25" y1="233.7843907375726" x2="496.25" y2="250.33941350810827" stroke="#44aa44" stroke-width="1" opacity="0.8"/>
<rect x="491.0" y="235.0578540276138" width="6.3" height="13.280402881858294" fill="#44aa44" opacity="0.8"/>
<rect x="491.0" y="321.3603063054992" width="6.3" height="8.639693694500796" fill="#44aa44" opacity="0.3"/>
<line x1="506.75" y1="242.6986337678611" x2="506.75" y2="250.33941350810827" stroke="#ff4444" stroke-width="1" opacity="0.8"/>
<rect x="501.5" y="245.4274836750922" width="6.3" height="2.910773234379917" fill="#ff4444" opacity="0.8"/>
<rect x="501.5" y="322.7859627499532" width="6.3" height="7.214037250046762" fill="#ff4444" opacity="0.3"/>
<line x1="517.25" y1="217.59321462133445" x2="517.25" y2="245.24556034794344" stroke="#ff4444" stroke-width="1" opacity="0.8"/>
<rect x="512.0" y="231.41938748463897" width="6.3" height="7.640779740247183" fill="#ff4444" opacity="0.8"/>
<rect x="512.0" y="318.1731659105613" width="6.3" height="11.826834089438687" fill="#ff4444" opacity="0.3"/>
<line x1="527.75" y1="220.6859111828631" x2="527.75" y2="236.69516397195252" stroke="#ff4444" stroke-width="1" opacity="0.8"/>
<rect x="522.5" y="229.6001542131515" width="6.3" height="6.3673164502060615" fill="#ff4444" opacity="0.8"/>
<rect x="522.5" y="321.08491823278763" width="6.3" height="8.915081767212346" fill="#ff4444" opacity="0.3"/>
<line x1="538.25" y1="209.7705115539385" x2="538.25" y2="229.23630755885404" stroke="#44aa44" stroke-width="1" opacity="0.8"/>
<rect x="533.0" y="220.50398785571437" width="6.3" height="3.6384665429748395" fill="#44aa44" opacity="0.8"/>
<rect x="533.0" y="319.7880943858314" width="6.3" height="10.211905614168584" fill="#44aa44" opacity="0.3"/>
<line x1="548.75" y1="223.77860774439173" x2="548.75" y2="235.7855473362088" stroke="#44aa44" stroke-width="1" opacity="0.8"/>
<rect x="543.5" y="225.96168767017667" width="6.3" height="7.64077974024724" fill="#44aa44" opacity="0.8"/>
<rect x="543.5" y="322.9351528086643" width="6.3" height="7.064847191335683" fill="#44aa44" opacity="0.3"/>
<line x1="559.25" y1="234.69400737331637" x2="559.25" y2="246.88287029228215" stroke="#44aa44" stroke-width="1" opacity="0.8"/>
<rect x="554.0" y="236.51324064480374" width="6.3" height="5.821546468759806" fill="#44aa44" opacity="0.8"/>
<rect x="554.0" y="322.6043915923238" width="6.3" height="7.395608407676222" fill="#44aa44" opacity="0.3"/>
<line x1="569.75" y1="229.6001542131515" x2="569.75" y2="253.0682634153394" stroke="#ff4444" stroke-width="1" opacity="0.8"/>
<rect x="564.5" y="233.05669742897766" width="6.3" height="20.011565986361745" fill="#ff4444" opacity="0.8"/>
<rect x="564.5" y="320.0688287457848" width="6.3" height="9.93117125421518" fill="#ff4444" opacity="0.3"/>
<line x1="580.25" y1="185.0289390617094" x2="580.25" y2="224.50630105298671" stroke="#ff4444" stroke-width="1" opacity="0.8"/>
<rect x="575.0" y="201.76588515939383" width="6.3" height="16.736946097684324" fill="#ff4444" opacity="0.8"/>
<rect x="575.0" y="311.7358045204342" width="6.3" height="18.26419547956581" fill="#ff4444" opacity="0.3"/>
<line x1="590.75" y1="192.12394882051038" x2="590.75" y2="213.40897809691333" stroke="#ff4444" stroke-width="1" opacity="0.8"/>
<rect x="585.5" y="197.9454952892702" width="6.3" height="10.733476301775823" fill="#ff4444" opacity="0.8"/>
<rect x="585.5" y="318.5629417166285" width="6.3" height="11.437058283371549" fill="#ff4444" opacity="0.3"/>
<line x1="601.25" y1="179.5712392472471" x2="601.25" y2="209.5885882267898" stroke="#ff4444" stroke-width="1" opacity="0.8"/>
<rect x="596.0" y="189.75894556757677" width="6.3" height="12.552709573263229" fill="#ff4444" opacity="0.8"/>
<rect x="596.0" y="314.9217444460188" width="6.3" height="15.078255553981204" fill="#ff4444" opacity="0.3"/>
<line x1="611.75" y1="151.37312353919185" x2="611.75" y2="189.21317558613052" stroke="#ff4444" stroke-width="1" opacity="0.8"/>
<rect x="606.5" y="167.9281463097275" width="6.3" height="4.0023131972724" fill="#ff4444" opacity="0.8"/>
<rect x="606.5" y="308.44591523474475" width="6.3" height="21.55408476525524" fill="#ff4444" opacity="0.3"/>
<line x1="622.25" y1="118.99077130671556" x2="622.25" y2="176.114696031421" stroke="#ff4444" stroke-width="1" opacity="0.8"/>
<rect x="617.0" y="148.46235030481193" width="6.3" height="17.46463940627939" fill="#ff4444" opacity="0.8"/>
<rect x="617.0" y="305.6138431757355" width="6.3" height="24.386156824264532" fill="#ff4444" opacity="0.3"/>
<line x1="632.75" y1="135.00002409580497" x2="632.75" y2="165.19929640249637" stroke="#ff4444" stroke-width="1" opacity="0.8"/>
<rect x="627.5" y="143.0046504903497" width="6.3" height="15.281559480494451" fill="#ff4444" opacity="0.8"/>
<rect x="627.5" y="311.16674536783415" width="6.3" height="18.833254632165843" fill="#ff4444" opacity="0.3"/>
<line x1="643.25" y1="130.45194091708638" x2="643.25" y2="153.92005011927426" stroke="#44aa44" stroke-width="1" opacity="0.8"/>
<rect x="638.0" y="133.36271415146626" width="6.3" height="20.375412640659306" fill="#44aa44" opacity="0.8"/>
<rect x="638.0" y="312.4123827332227" width="6.3" height="17.58761726677729" fill="#44aa44" opacity="0.3"/>
<line x1="653.75" y1="128.08693766415274" x2="653.75" y2="174.8412327413798" stroke="#44aa44" stroke-width="1" opacity="0.8"/>
<rect x="648.5" y="143.0046504903497" width="6.3" height="27.106575745162758" fill="#44aa44" opacity="0.8"/>
<rect x="648.5" y="309.5053360896343" width="6.3" height="20.494663910365745" fill="#44aa44" opacity="0.3"/>
<line x1="664.25" y1="140.45772391026728" x2="664.25" y2="176.2966193585697" stroke="#ff4444" stroke-width="1" opacity="0.8"/>
<rect x="659.0" y="160.46928989662902" width="6.3" height="9.641936338883426" fill="#ff4444" opacity="0.8"/>
<rect x="659.0" y="312.45774462078884" width="6.3" height="17.542255379211138" fill="#ff4444" opacity="0.3"/>
<line x1="674.75" y1="70.96301293944728" x2="674.75" y2="172.1123828341486" stroke="#ff4444" stroke-width="1" opacity="0.8"/>
<rect x="669.5" y="70.96301293944728" width="6.3" height="92.96282017300788" fill="#ff4444" opacity="0.8"/>
<rect x="669.5" y="295.0" width="6.3" height="35.0" fill="#ff4444" opacity="0.3"/>
<rect x="177.25" y="261.07520300715646" width="8" height="8" fill="#ff9800" opacity="0.85"/>
<text x="181.25" y="258.07520300715646" text-anchor="middle" font-size="8" font-weight="bold" fill="#ff9800">前低</text>
<rect x="198.25" y="239.60825040360476" width="8" height="8" fill="#ff9800" opacity="0.85"/>
<text x="202.25" y="236.60825040360476" text-anchor="middle" font-size="8" font-weight="bold" fill="#ff9800">前高</text>
<rect x="282.25" y="290.00101202380665" width="8" height="8" fill="#ff9800" opacity="0.85"/>
<text x="286.25" y="287.00101202380665" text-anchor="middle" font-size="8" font-weight="bold" fill="#ff9800">前低</text>
<rect x="376.75" y="301.826028288475" width="8" height="8" fill="#ff9800" opacity="0.85"/>
<text x="380.75" y="298.826028288475" text-anchor="middle" font-size="8" font-weight="bold" fill="#ff9800">前低</text>
<rect x="534.25" y="205.7705115539385" width="8" height="8" fill="#ff9800" opacity="0.85"/>
<text x="538.25" y="202.7705115539385" text-anchor="middle" font-size="8" font-weight="bold" fill="#ff9800">前高</text>
<rect x="565.75" y="249.0682634153394" width="8" height="8" fill="#ff9800" opacity="0.85"/>
<text x="569.75" y="246.0682634153394" text-anchor="middle" font-size="8" font-weight="bold" fill="#ff9800">前低</text>
<rect x="618.25" y="114.99077130671556" width="8" height="8" fill="#ff9800" opacity="0.85"/>
<text x="622.25" y="111.99077130671556" text-anchor="middle" font-size="8" font-weight="bold" fill="#ff9800">前高</text>
<line x1="674.75" y1="70.96301293944728" x2="674.75" y2="42" stroke="#4caf50" stroke-width="1" stroke-dasharray="3,2"/>
<rect x="654.75" y="28" width="40" height="14" rx="3" fill="#2563eb" opacity="0.9"/>
<text x="674.75" y="38" text-anchor="middle" font-size="9" font-weight="bold" fill="white">关注</text>
<text x="55.25" y="355" fill="#666666" font-size="8" text-anchor="middle" transform="rotate(-30,55.25,355)">02/11</text>
<text x="107.75" y="355" fill="#666666" font-size="8" text-anchor="middle" transform="rotate(-30,107.75,355)">02/26</text>
<text x="160.25" y="355" fill="#666666" font-size="8" text-anchor="middle" transform="rotate(-30,160.25,355)">03/05</text>
<text x="212.75" y="355" fill="#666666" font-size="8" text-anchor="middle" transform="rotate(-30,212.75,355)">03/12</text>
<text x="265.25" y="355" fill="#666666" font-size="8" text-anchor="middle" transform="rotate(-30,265.25,355)">03/19</text>
<text x="317.75" y="355" fill="#666666" font-size="8" text-anchor="middle" transform="rotate(-30,317.75,355)">03/26</text>
<text x="370.25" y="355" fill="#666666" font-size="8" text-anchor="middle" transform="rotate(-30,370.25,355)">04/02</text>
<text x="422.75" y="355" fill="#666666" font-size="8" text-anchor="middle" transform="rotate(-30,422.75,355)">04/10</text>
<text x="475.25" y="355" fill="#666666" font-size="8" text-anchor="middle" transform="rotate(-30,475.25,355)">04/17</text>
<text x="527.75" y="355" fill="#666666" font-size="8" text-anchor="middle" transform="rotate(-30,527.75,355)">04/24</text>
<text x="580.25" y="355" fill="#666666" font-size="8" text-anchor="middle" transform="rotate(-30,580.25,355)">05/06</text>
<text x="632.75" y="355" fill="#666666" font-size="8" text-anchor="middle" transform="rotate(-30,632.75,355)">05/13</text>
<text x="674.75" y="355" fill="#666666" font-size="8" text-anchor="middle" transform="rotate(-30,674.75,355)">05/19</text>
<rect x="50" y="334" width="7" height="7" fill="#ff9800" opacity="0.8" rx="1"/>
<text x="60" y="340" font-family="sans-serif" font-size="8" fill="#888888">第1类</text>
<rect x="120" y="334" width="7" height="7" fill="#2196f3" opacity="0.8" rx="1"/>
<text x="130" y="340" font-family="sans-serif" font-size="8" fill="#888888">第2类</text>
<rect x="190" y="334" width="7" height="7" fill="#ffd700" opacity="0.8" rx="1"/>
<text x="200" y="340" font-family="sans-serif" font-size="8" fill="#888888">EMA5</text>
<rect x="260" y="334" width="7" height="7" fill="#ff6b6b" opacity="0.8" rx="1"/>
<text x="270" y="340" font-family="sans-serif" font-size="8" fill="#888888">EMA10</text>
<rect x="330" y="334" width="7" height="7" fill="#4ecdc4" opacity="0.8" rx="1"/>
<text x="340" y="340" font-family="sans-serif" font-size="8" fill="#888888">EMA20</text>
</svg>