<svg xmlns="http://www.w3.org/2000/svg" width="700" height="380" viewBox="0 0 700 380">
<rect width="700" height="380" fill="#1a1a2e"/>
<text x="350.0" y="20" text-anchor="middle" font-family="sans-serif" font-size="14" font-weight="bold" fill="#ffffff">奥比中光-W(688322) 关键点图</text>
<line x1="50" y1="28.03003589479312" x2="680" y2="28.03003589479312" stroke="#2a2a4e" stroke-width="0.5"/>
<text x="46" y="31.03003589479312" text-anchor="end" font-size="9" fill="#666666">110.89</text>
<line x1="50" y1="128.6502834513251" x2="680" y2="128.6502834513251" stroke="#2a2a4e" stroke-width="0.5"/>
<text x="46" y="131.6502834513251" text-anchor="end" font-size="9" fill="#666666">96.15</text>
<line x1="50" y1="229.33879440511393" x2="680" y2="229.33879440511393" stroke="#2a2a4e" stroke-width="0.5"/>
<text x="46" y="232.33879440511393" text-anchor="end" font-size="9" fill="#666666">81.4</text>
<line x1="50" y1="330.0273053589027" x2="680" y2="330.0273053589027" stroke="#2a2a4e" stroke-width="0.5"/>
<text x="46" y="333.0273053589027" text-anchor="end" font-size="9" fill="#666666">66.65</text>
<polyline points="55.25,148.37840525854205 65.75,145.46583364225168 76.25,138.44987336863556 86.75,144.39890202586759 97.25,150.0715060621091 107.75,153.39815277122472 118.25,156.7081316000774 128.75,164.7171729194743 139.25,184.27807489424018 149.75,197.5462208682734 160.25,201.3629145863776 170.75,207.0474933389267 181.25,213.88631091809685 191.75,212.66588833646736 202.25,214.21873772028357 212.75,217.9617520673477 223.25,223.39242104743312 233.75,228.56017070531098 244.25,236.57898476010226 254.75,239.64941422140288 265.25,249.29635875686103 275.75,259.8234589492415 286.25,264.90739615521903 296.75,268.38770548887976 307.25,266.08875516360973 317.75,267.2866575037019 328.25,267.72118761172703 338.75,267.5102761038605 349.25,269.349306952397 359.75,263.7944967239119 370.25,265.66613401422757 380.75,265.54862426263537 391.25,268.95171768833757 401.75,259.16057979010327 412.25,257.77566378462654 422.75,249.93502885895234 433.25,240.77141633336043 443.75,235.09467616559226 454.25,233.40359356962216 464.75,227.17920484380053 475.25,220.2990764696473 485.75,217.0320832338434 496.25,219.0864183732294 506.75,219.6595688314907 517.25,226.50393741064244 527.75,237.0512742895903 538.25,239.94151944197603 548.75,247.19289452959734 559.25,248.95529171145526 569.75,246.55777204292102 580.25,240.77260389881414 590.75,225.35655653392368 601.25,211.84805748717457 611.75,204.52622192167638 622.25,199.98631519762836 632.75,195.54893383828895 643.25,198.82540321485095 653.75,191.70313963988113 664.25,172.3921058417826 674.75,147.4354619952623" fill="none" stroke="#ffd700" stroke-width="1" opacity="0.6"/>
<polyline points="55.25,148.37840525854205 65.75,146.78972983147455 76.25,142.72213401146155 86.75,145.19028407125612 97.25,148.14054408277178 107.75,150.3061626476234 118.25,152.6737856676524 128.75,157.7758711023098 139.25,169.70750887348473 149.75,179.59387322673112 160.25,184.93976937143196 170.75,191.0264750937216 181.25,197.66965163603342 191.75,199.95245009733796 202.25,203.11099307744308 212.75,207.17222720181266 223.25,212.09614207559292 233.75,216.96878352022455 244.25,223.45020703830826 254.75,227.51203723934393 265.25,234.98080280087729 275.75,243.32568580690005 286.25,249.09833758149526 296.75,253.87106241325998 307.25,255.25647915867992 317.75,257.8793851632629 328.25,259.8268147386292 338.75,261.1471126203561 349.25,263.3071591711041 359.75,261.3758350067109 370.25,262.8364847500105 380.75,263.2868702062724 391.25,265.554330994176 401.75,260.8314169940776 412.25,259.77221968127674 422.75,255.1324995587908 433.25,249.1891707812246 443.75,244.56226624464847 454.25,241.91847754156368 464.75,236.97519569621713 475.25,231.44130915533052 485.75,227.633452356586 496.25,226.82647713757066 506.75,225.7318212485602 517.25,228.36106730681215 527.75,233.7765001687528 538.25,235.9484110011155 548.75,240.6297262199745 559.25,242.7843371027376 569.75,242.59859084875853 580.25,240.16289571454794 590.75,231.86499863992887 601.25,223.3133733224285 611.75,217.23504195301967 622.25,212.44803464329462 632.75,207.7618776389883 643.25,207.32850751698592 653.75,201.89761751206873 664.25,189.51078491816273 674.75,172.78558298799163" fill="none" stroke="#ff6b6b" stroke-width="1" opacity="0.6"/>
<polyline points="55.25,148.37840525854205 65.75,147.54624193960194 76.25,145.34354773786868 86.75,146.38672979524608 97.25,147.81815687518383 107.75,148.98323204797163 118.25,150.3494089250965 128.75,153.24329908063663 139.25,159.9248781056971 149.75,166.03512903052024 160.25,170.12666931547884 170.75,174.72571517534033 181.25,179.75792764211138 191.75,182.6595576926921 202.25,185.9609747208086 212.75,189.72162291515792 223.25,193.9627787334861 233.75,198.24210171325572 244.25,203.42062658529662 254.75,207.45583101945925 265.25,213.27815642977527 275.75,219.71620432541596 286.25,224.98849634844046 296.75,229.7846704253701 307.25,232.804307005151 317.75,236.31651226026867 328.25,239.39020136193616 338.75,242.02813009776392 349.25,244.98043853125972 359.75,245.71419450608659 370.25,247.9708815621602 380.75,249.6225694857117 391.25,252.111649014667 401.75,250.917997107902 412.25,251.30731469511832 422.75,249.68316653440263 433.25,247.088978415143 443.75,244.86538007370615 454.25,243.4516703883706 464.75,240.71631391254073 475.25,237.46131446575978 485.75,234.89338897018607 496.25,233.77926513035897 506.75,232.54370366537364 517.25,233.27217708476152 527.75,235.64110765264004 538.25,236.60119356636457 548.75,238.99114129383844 559.25,240.27580270158444 569.75,240.41741508294336 580.25,239.34930579986303 590.75,235.08027303836587 601.25,230.29463364363355 611.75,226.4458638481142 622.25,223.06116269586823 632.75,219.59573492670086 643.25,218.24169750206033 653.75,214.35759416757278 664.25,206.6825888416692 674.75,196.2863588855313" fill="none" stroke="#4ecdc4" stroke-width="1" opacity="0.6"/>
<line x1="55.25" y1="138.95805643710284" x2="55.25" y2="152.8837894774913" stroke="#44aa44" stroke-width="1" opacity="0.8"/>
<rect x="50.0" y="139.91374399869812" width="6.3" height="8.464661259843922" fill="#44aa44" opacity="0.8"/>
<rect x="50.0" y="324.3814300050202" width="6.3" height="5.6185699949797785" fill="#44aa44" opacity="0.3"/>
<line x1="65.75" y1="128.03591287601392" x2="65.75" y2="149.470619614651" stroke="#ff4444" stroke-width="1" opacity="0.8"/>
<rect x="60.5" y="139.64069040967087" width="6.3" height="8.25987106807355" fill="#ff4444" opacity="0.8"/>
<rect x="60.5" y="322.98774869842674" width="6.3" height="7.012251301573232" fill="#ff4444" opacity="0.3"/>
<line x1="76.25" y1="118.06945687652019" x2="76.25" y2="152.8837894774913" stroke="#ff4444" stroke-width="1" opacity="0.8"/>
<rect x="71.0" y="124.4179528214032" width="6.3" height="22.253867505718702" fill="#ff4444" opacity="0.8"/>
<rect x="71.0" y="320.5254308404868" width="6.3" height="9.47456915951316" fill="#ff4444" opacity="0.3"/>
<line x1="86.75" y1="102.43713890471167" x2="86.75" y2="162.44066509344407" stroke="#44aa44" stroke-width="1" opacity="0.8"/>
<rect x="81.5" y="102.43713890471167" width="6.3" height="53.85982043561992" fill="#44aa44" opacity="0.8"/>
<rect x="81.5" y="315.0938680673102" width="6.3" height="14.906131932689805" fill="#44aa44" opacity="0.3"/>
<line x1="97.25" y1="152.20115550492318" x2="97.25" y2="173.43107205178984" stroke="#44aa44" stroke-width="1" opacity="0.8"/>
<rect x="92.0" y="157.52570049095405" width="6.3" height="3.8910136436380185" fill="#44aa44" opacity="0.8"/>
<rect x="92.0" y="320.97935003241673" width="6.3" height="9.020649967583259" fill="#44aa44" opacity="0.3"/>
<line x1="107.75" y1="156.7748031211292" x2="107.75" y2="173.02149166824898" stroke="#ff4444" stroke-width="1" opacity="0.8"/>
<rect x="102.5" y="160.0514461894559" width="6.3" height="3.754486849124305" fill="#ff4444" opacity="0.8"/>
<rect x="102.5" y="322.26833560312366" width="6.3" height="7.73166439687633" fill="#ff4444" opacity="0.3"/>
<line x1="118.25" y1="150.97241435430072" x2="118.25" y2="168.37958065478622" stroke="#ff4444" stroke-width="1" opacity="0.8"/>
<rect x="113.0" y="163.3280892577826" width="6.3" height="2.525745698501794" fill="#ff4444" opacity="0.8"/>
<rect x="113.0" y="322.9432028482202" width="6.3" height="7.056797151779794" fill="#ff4444" opacity="0.3"/>
<line x1="128.75" y1="171.17837994231525" x2="128.75" y2="184.28495221562204" stroke="#44aa44" stroke-width="1" opacity="0.8"/>
<rect x="123.5" y="177.4586124899414" width="6.3" height="3.276643068326706" fill="#44aa44" opacity="0.8"/>
<rect x="123.5" y="321.6665902412622" width="6.3" height="8.33340975873781" fill="#44aa44" opacity="0.3"/>
<line x1="139.25" y1="171.79275051762653" x2="139.25" y2="223.46814224102863" stroke="#44aa44" stroke-width="1" opacity="0.8"/>
<rect x="134.0" y="180.3939385719841" width="6.3" height="43.00594027178778" fill="#44aa44" opacity="0.8"/>
<rect x="134.0" y="317.46265978431603" width="6.3" height="12.537340215683976" fill="#44aa44" opacity="0.3"/>
<line x1="149.75" y1="213.43342284427817" x2="149.75" y2="231.2501695283045" stroke="#ff4444" stroke-width="1" opacity="0.8"/>
<rect x="144.5" y="224.0825128163399" width="6.3" height="4.573647616206017" fill="#ff4444" opacity="0.8"/>
<rect x="144.5" y="322.7829984133556" width="6.3" height="7.217001586644409" fill="#ff4444" opacity="0.3"/>
<line x1="160.25" y1="203.26217665301408" x2="160.25" y2="216.57353911809128" stroke="#ff4444" stroke-width="1" opacity="0.8"/>
<rect x="155.0" y="208.9963020225858" width="6.3" height="3.4131698628403058" fill="#ff4444" opacity="0.8"/>
<rect x="155.0" y="322.7846961175718" width="6.3" height="7.215303882428218" fill="#ff4444" opacity="0.3"/>
<line x1="170.75" y1="207.83582426922013" x2="170.75" y2="219.64539199464758" stroke="#44aa44" stroke-width="1" opacity="0.8"/>
<rect x="165.5" y="211.59031111834443" width="6.3" height="6.826339725680583" fill="#44aa44" opacity="0.8"/>
<rect x="165.5" y="324.41128362342295" width="6.3" height="5.588716376577036" fill="#44aa44" opacity="0.3"/>
<line x1="181.25" y1="221.89808410412215" x2="181.25" y2="247.76991166445154" stroke="#ff4444" stroke-width="1" opacity="0.8"/>
<rect x="176.0" y="227.56394607643705" width="6.3" height="12.01435791719777" fill="#ff4444" opacity="0.8"/>
<rect x="176.0" y="322.223657223314" width="6.3" height="7.776342776686028" fill="#ff4444" opacity="0.3"/>
<line x1="191.75" y1="208.17714125550413" x2="191.75" y2="222.58071807669018" stroke="#ff4444" stroke-width="1" opacity="0.8"/>
<rect x="186.5" y="210.22504317320826" width="6.3" height="7.850290684532752" fill="#ff4444" opacity="0.8"/>
<rect x="186.5" y="323.0812125504474" width="6.3" height="6.918787449552607" fill="#ff4444" opacity="0.3"/>
<line x1="202.25" y1="201.62385511885077" x2="202.25" y2="219.1675482138499" stroke="#44aa44" stroke-width="1" opacity="0.8"/>
<rect x="197.0" y="211.4537843238308" width="6.3" height="5.870652164085328" fill="#44aa44" opacity="0.8"/>
<rect x="197.0" y="324.8732314587109" width="6.3" height="5.126768541289068" fill="#44aa44" opacity="0.3"/>
<line x1="212.75" y1="212.068154899142" x2="212.75" y2="232.00106689812935" stroke="#44aa44" stroke-width="1" opacity="0.8"/>
<rect x="207.5" y="218.416650844025" width="6.3" height="7.0311299174510395" fill="#44aa44" opacity="0.8"/>
<rect x="207.5" y="324.90277230725025" width="6.3" height="5.09722769274973" fill="#44aa44" opacity="0.3"/>
<line x1="223.25" y1="221.1471867342973" x2="223.25" y2="235.8238171445105" stroke="#44aa44" stroke-width="1" opacity="0.8"/>
<rect x="218.0" y="232.20585708989978" width="6.3" height="2.047901917704195" fill="#44aa44" opacity="0.8"/>
<rect x="218.0" y="325.54716569540136" width="6.3" height="4.4528343045986185" fill="#44aa44" opacity="0.3"/>
<line x1="233.75" y1="234.25375900760397" x2="233.75" y2="249.06691621233085" stroke="#44aa44" stroke-width="1" opacity="0.8"/>
<rect x="228.5" y="234.25375900760397" width="6.3" height="4.641911013462845" fill="#44aa44" opacity="0.8"/>
<rect x="228.5" y="323.6456415519535" width="6.3" height="6.35435844804654" fill="#44aa44" opacity="0.3"/>
<line x1="244.25" y1="228.7926872270595" x2="244.25" y2="253.16272004773927" stroke="#44aa44" stroke-width="1" opacity="0.8"/>
<rect x="239.0" y="232.75196426795424" width="6.3" height="19.864648601730607" fill="#44aa44" opacity="0.8"/>
<rect x="239.0" y="324.49528751237165" width="6.3" height="5.504712487628362" fill="#44aa44" opacity="0.3"/>
<line x1="254.75" y1="244.35674180161126" x2="254.75" y2="252.54834947242801" stroke="#ff4444" stroke-width="1" opacity="0.8"/>
<rect x="249.5" y="245.79027314400423" width="6.3" height="3.891013643637905" fill="#ff4444" opacity="0.8"/>
<rect x="249.5" y="325.4573742386837" width="6.3" height="4.542625761316305" fill="#ff4444" opacity="0.3"/>
<line x1="265.25" y1="253.91361741756413" x2="265.25" y2="271.5938373070769" stroke="#44aa44" stroke-width="1" opacity="0.8"/>
<rect x="260.0" y="260.1938499651903" width="6.3" height="8.396397862587094" fill="#44aa44" opacity="0.8"/>
<rect x="260.0" y="323.45972504878415" width="6.3" height="6.540274951215853" fill="#44aa44" opacity="0.3"/>
<line x1="275.75" y1="260.1255865679335" x2="275.75" y2="282.1746638818818" stroke="#44aa44" stroke-width="1" opacity="0.8"/>
<rect x="270.5" y="264.63097078688264" width="6.3" height="16.246688547119845" fill="#44aa44" opacity="0.8"/>
<rect x="270.5" y="323.5172892819069" width="6.3" height="6.4827107180931005" fill="#44aa44" opacity="0.3"/>
<line x1="286.25" y1="248.58907243153328" x2="286.25" y2="282.37945407365225" stroke="#ff4444" stroke-width="1" opacity="0.8"/>
<rect x="281.0" y="275.075270567174" width="6.3" height="4.778437807976388" fill="#ff4444" opacity="0.8"/>
<rect x="281.0" y="315.0191134193645" width="6.3" height="14.980886580635516" fill="#ff4444" opacity="0.3"/>
<line x1="296.75" y1="261.9004348966105" x2="296.75" y2="290.4345349499553" stroke="#44aa44" stroke-width="1" opacity="0.8"/>
<rect x="291.5" y="264.76749758139636" width="6.3" height="10.58082657480486" fill="#44aa44" opacity="0.8"/>
<rect x="291.5" y="320.6800478272832" width="6.3" height="9.31995217271682" fill="#44aa44" opacity="0.3"/>
<line x1="307.25" y1="257.32678728040446" x2="307.25" y2="283.13035144347714" stroke="#ff4444" stroke-width="1" opacity="0.8"/>
<rect x="302.0" y="261.4908545130696" width="6.3" height="11.673040930913771" fill="#ff4444" opacity="0.8"/>
<rect x="302.0" y="322.24088209583374" width="6.3" height="7.759117904166254" fill="#ff4444" opacity="0.3"/>
<line x1="317.75" y1="249.27170640410128" x2="317.75" y2="272.00341769061765" stroke="#44aa44" stroke-width="1" opacity="0.8"/>
<rect x="312.5" y="259.0333722118246" width="6.3" height="10.649089972061688" fill="#44aa44" opacity="0.8"/>
<rect x="312.5" y="322.31163700035677" width="6.3" height="7.68836299964323" fill="#44aa44" opacity="0.3"/>
<line x1="328.25" y1="263.6070198280306" x2="328.25" y2="280.6046057449753" stroke="#ff4444" stroke-width="1" opacity="0.8"/>
<rect x="323.0" y="268.5902478277774" width="6.3" height="11.263460547373029" fill="#ff4444" opacity="0.8"/>
<rect x="323.0" y="324.42817452134284" width="6.3" height="5.571825478657168" fill="#ff4444" opacity="0.3"/>
<line x1="338.75" y1="259.579479389879" x2="338.75" y2="283.74472201878825" stroke="#ff4444" stroke-width="1" opacity="0.8"/>
<rect x="333.5" y="267.0884530881276" width="6.3" height="16.178425149863074" fill="#ff4444" opacity="0.8"/>
<rect x="333.5" y="324.3240115544609" width="6.3" height="5.67598844553908" fill="#ff4444" opacity="0.3"/>
<line x1="349.25" y1="256.0297827325251" x2="349.25" y2="273.0273686494698" stroke="#44aa44" stroke-width="1" opacity="0.8"/>
<rect x="344.0" y="268.7950380195478" width="6.3" height="4.232330629921989" fill="#44aa44" opacity="0.8"/>
<rect x="344.0" y="324.837330514517" width="6.3" height="5.162669485482972" fill="#44aa44" opacity="0.3"/>
<line x1="359.75" y1="251.2513449245487" x2="359.75" y2="264.83576097865307" stroke="#ff4444" stroke-width="1" opacity="0.8"/>
<rect x="354.5" y="252.6848762669416" width="6.3" height="10.102982794007318" fill="#ff4444" opacity="0.8"/>
<rect x="354.5" y="323.02498421572426" width="6.3" height="6.975015784275734" fill="#ff4444" opacity="0.3"/>
<line x1="370.25" y1="249.1351796095877" x2="370.25" y2="272.6860516631858" stroke="#44aa44" stroke-width="1" opacity="0.8"/>
<rect x="365.0" y="253.91361741756413" width="6.3" height="15.495791177294961" fill="#44aa44" opacity="0.8"/>
<rect x="365.0" y="324.1069863775472" width="6.3" height="5.893013622452847" fill="#44aa44" opacity="0.3"/>
<line x1="380.75" y1="264.28965380059867" x2="380.75" y2="277.05490908762135" stroke="#ff4444" stroke-width="1" opacity="0.8"/>
<rect x="375.5" y="265.31360475945075" width="6.3" height="4.027540438151448" fill="#ff4444" opacity="0.8"/>
<rect x="375.5" y="325.70407676962805" width="6.3" height="4.295923230371968" fill="#ff4444" opacity="0.3"/>
<line x1="391.25" y1="263.47049303351696" x2="391.25" y2="281.2189763202865" stroke="#44aa44" stroke-width="1" opacity="0.8"/>
<rect x="386.0" y="263.5387564307738" width="6.3" height="12.219148108968284" fill="#44aa44" opacity="0.8"/>
<rect x="386.0" y="325.258558629241" width="6.3" height="4.741441370758986" fill="#44aa44" opacity="0.3"/>
<line x1="401.75" y1="239.0321968155804" x2="401.75" y2="255.55193895172744" stroke="#ff4444" stroke-width="1" opacity="0.8"/>
<rect x="396.5" y="239.57830399363482" width="6.3" height="15.973634958092617" fill="#ff4444" opacity="0.8"/>
<rect x="396.5" y="321.00431860964784" width="6.3" height="8.995681390352164" fill="#ff4444" opacity="0.3"/>
<line x1="412.25" y1="245.7220097467474" x2="412.25" y2="259.1016356090813" stroke="#44aa44" stroke-width="1" opacity="0.8"/>
<rect x="407.0" y="249.4764965958717" width="6.3" height="5.5293351778013005" fill="#44aa44" opacity="0.8"/>
<rect x="407.0" y="324.1875511232944" width="6.3" height="5.81244887670559" fill="#44aa44" opacity="0.3"/>
<line x1="422.75" y1="219.8501821864179" x2="422.75" y2="245.65374634949055" stroke="#ff4444" stroke-width="1" opacity="0.8"/>
<rect x="417.5" y="234.25375900760397" width="6.3" height="9.829929204980118" fill="#ff4444" opacity="0.8"/>
<rect x="417.5" y="320.2324860804158" width="6.3" height="9.767513919584218" fill="#ff4444" opacity="0.3"/>
<line x1="433.25" y1="211.65857451560123" x2="433.25" y2="244.15195160984086" stroke="#ff4444" stroke-width="1" opacity="0.8"/>
<rect x="428.0" y="222.44419128217658" width="6.3" height="19.72812180721695" fill="#ff4444" opacity="0.8"/>
<rect x="428.0" y="318.0408599368841" width="6.3" height="11.959140063115898" fill="#ff4444" opacity="0.3"/>
<line x1="443.75" y1="216.91485610437527" x2="443.75" y2="235.41423676096966" stroke="#44aa44" stroke-width="1" opacity="0.8"/>
<rect x="438.5" y="217.8705436659706" width="6.3" height="5.8706521640853" fill="#44aa44" opacity="0.8"/>
<rect x="438.5" y="320.52200097435764" width="6.3" height="9.477999025642358" fill="#44aa44" opacity="0.3"/>
<line x1="454.25" y1="215.07174437844154" x2="454.25" y2="232.8884910624679" stroke="#44aa44" stroke-width="1" opacity="0.8"/>
<rect x="449.0" y="219.71365539190433" width="6.3" height="10.307772985777717" fill="#44aa44" opacity="0.8"/>
<rect x="449.0" y="322.0397061341592" width="6.3" height="7.960293865840812" fill="#44aa44" opacity="0.3"/>
<line x1="464.75" y1="208.24540465276095" x2="464.75" y2="226.47173172032817" stroke="#ff4444" stroke-width="1" opacity="0.8"/>
<rect x="459.5" y="214.73042739215742" width="6.3" height="5.802388766828585" fill="#ff4444" opacity="0.8"/>
<rect x="459.5" y="320.55224953097775" width="6.3" height="9.447750469022266" fill="#ff4444" opacity="0.3"/>
<line x1="475.25" y1="201.28253813256666" x2="475.25" y2="219.30407500836347" stroke="#ff4444" stroke-width="1" opacity="0.8"/>
<rect x="470.0" y="206.53881972134081" width="6.3" height="11.8778311226842" fill="#ff4444" opacity="0.8"/>
<rect x="470.0" y="320.9908602284492" width="6.3" height="9.009139771550771" fill="#ff4444" opacity="0.3"/>
<line x1="485.75" y1="196.4358369273335" x2="485.75" y2="216.16395873455042" stroke="#44aa44" stroke-width="1" opacity="0.8"/>
<rect x="480.5" y="198.0741584614968" width="6.3" height="12.42393830073874" fill="#44aa44" opacity="0.8"/>
<rect x="480.5" y="320.13037467179043" width="6.3" height="9.869625328209562" fill="#44aa44" opacity="0.3"/>
<line x1="496.25" y1="212.95557906348054" x2="496.25" y2="232.00106689812935" stroke="#44aa44" stroke-width="1" opacity="0.8"/>
<rect x="491.0" y="214.3208470086167" width="6.3" height="8.874241643384721" fill="#44aa44" opacity="0.8"/>
<rect x="491.0" y="321.00599245853545" width="6.3" height="8.994007541464537" fill="#44aa44" opacity="0.3"/>
<line x1="506.75" y1="214.11605681684628" x2="506.75" y2="227.29089248740976" stroke="#ff4444" stroke-width="1" opacity="0.8"/>
<rect x="501.5" y="220.8058697480132" width="6.3" height="5.051491397003673" fill="#ff4444" opacity="0.8"/>
<rect x="501.5" y="322.44202757569957" width="6.3" height="7.5579724243004165" fill="#ff4444" opacity="0.3"/>
<line x1="517.25" y1="219.03102141933627" x2="517.25" y2="244.28847840435452" stroke="#44aa44" stroke-width="1" opacity="0.8"/>
<rect x="512.0" y="221.82982070686532" width="6.3" height="18.362853862080783" fill="#44aa44" opacity="0.8"/>
<rect x="512.0" y="320.076077293385" width="6.3" height="9.923922706614976" fill="#44aa44" opacity="0.3"/>
<line x1="527.75" y1="235.6190269527401" x2="527.75" y2="266.13276552653235" stroke="#44aa44" stroke-width="1" opacity="0.8"/>
<rect x="522.5" y="244.28847840435452" width="6.3" height="13.857469643131537" fill="#44aa44" opacity="0.8"/>
<rect x="522.5" y="320.63676233360246" width="6.3" height="9.363237666397545" fill="#44aa44" opacity="0.3"/>
<line x1="538.25" y1="238.2130360484988" x2="538.25" y2="258.896845417311" stroke="#ff4444" stroke-width="1" opacity="0.8"/>
<rect x="533.0" y="245.7220097467474" width="6.3" height="13.174835670563596" fill="#ff4444" opacity="0.8"/>
<rect x="533.0" y="321.79121577886855" width="6.3" height="8.208784221131474" fill="#ff4444" opacity="0.3"/>
<line x1="548.75" y1="246.95075089736997" x2="548.75" y2="264.49444399236904" stroke="#44aa44" stroke-width="1" opacity="0.8"/>
<rect x="543.5" y="250.50044755472385" width="6.3" height="11.195197150116144" fill="#44aa44" opacity="0.8"/>
<rect x="543.5" y="321.7241306190564" width="6.3" height="8.275869380943622" fill="#44aa44" opacity="0.3"/>
<line x1="559.25" y1="248.65733582879008" x2="559.25" y2="266.13276552653235" stroke="#ff4444" stroke-width="1" opacity="0.8"/>
<rect x="554.0" y="252.48008607517116" width="6.3" height="13.516152656847652" fill="#ff4444" opacity="0.8"/>
<rect x="554.0" y="323.5735427972546" width="6.3" height="6.426457202745378" fill="#ff4444" opacity="0.3"/>
<line x1="569.75" y1="236.36992432256497" x2="569.75" y2="255.688465746241" stroke="#ff4444" stroke-width="1" opacity="0.8"/>
<rect x="564.5" y="241.76273270585267" width="6.3" height="8.805978246127921" fill="#ff4444" opacity="0.8"/>
<rect x="564.5" y="322.7955489667727" width="6.3" height="7.204451033227292" fill="#ff4444" opacity="0.3"/>
<line x1="580.25" y1="210.49809676223555" x2="580.25" y2="241.6262059113391" stroke="#ff4444" stroke-width="1" opacity="0.8"/>
<rect x="575.0" y="229.20226761060036" width="6.3" height="9.625139013209605" fill="#ff4444" opacity="0.8"/>
<rect x="575.0" y="317.7047330562228" width="6.3" height="12.295266943777232" fill="#ff4444" opacity="0.3"/>
<line x1="590.75" y1="191.11129194130262" x2="590.75" y2="229.33879440511393" stroke="#ff4444" stroke-width="1" opacity="0.8"/>
<rect x="585.5" y="194.52446180414293" width="6.3" height="29.558051012196955" fill="#ff4444" opacity="0.8"/>
<rect x="585.5" y="312.90375143595827" width="6.3" height="17.09624856404175" fill="#ff4444" opacity="0.3"/>
<line x1="601.25" y1="170.49574596974725" x2="601.25" y2="201.69211851610754" stroke="#ff4444" stroke-width="1" opacity="0.8"/>
<rect x="596.0" y="184.83105939367647" width="6.3" height="9.693402410466462" fill="#ff4444" opacity="0.8"/>
<rect x="596.0" y="310.6671248656812" width="6.3" height="19.332875134318755" fill="#ff4444" opacity="0.3"/>
<line x1="611.75" y1="182.71489407871545" x2="611.75" y2="198.00589506424004" stroke="#44aa44" stroke-width="1" opacity="0.8"/>
<rect x="606.5" y="185.0358495854469" width="6.3" height="4.846701205233188" fill="#44aa44" opacity="0.8"/>
<rect x="606.5" y="315.1671781425817" width="6.3" height="14.832821857418292" fill="#44aa44" opacity="0.3"/>
<line x1="622.25" y1="180.25741177747045" x2="622.25" y2="196.50410032459035" stroke="#44aa44" stroke-width="1" opacity="0.8"/>
<rect x="617.0" y="183.943635229338" width="6.3" height="6.962866520194183" fill="#44aa44" opacity="0.8"/>
<rect x="617.0" y="318.35388955831064" width="6.3" height="11.646110441689359" fill="#44aa44" opacity="0.3"/>
<line x1="632.75" y1="183.3975280512836" x2="632.75" y2="205.37834196797508" stroke="#ff4444" stroke-width="1" opacity="0.8"/>
<rect x="627.5" y="186.67417111961018" width="6.3" height="11.263460547373057" fill="#ff4444" opacity="0.8"/>
<rect x="627.5" y="318.4318991333094" width="6.3" height="11.568100866690592" fill="#ff4444" opacity="0.3"/>
<line x1="643.25" y1="180.80351895552488" x2="643.25" y2="205.5148687624887" stroke="#44aa44" stroke-width="1" opacity="0.8"/>
<rect x="638.0" y="185.17237637996047" width="6.3" height="20.205965588014607" fill="#44aa44" opacity="0.8"/>
<rect x="638.0" y="318.2246718699556" width="6.3" height="11.775328130044409" fill="#44aa44" opacity="0.3"/>
<line x1="653.75" y1="156.97959331289962" x2="653.75" y2="212.95557906348054" stroke="#ff4444" stroke-width="1" opacity="0.8"/>
<rect x="648.5" y="177.4586124899414" width="6.3" height="30.035894792994696" fill="#ff4444" opacity="0.8"/>
<rect x="648.5" y="305.766465080305" width="6.3" height="24.233534919695014" fill="#ff4444" opacity="0.3"/>
<line x1="664.25" y1="124.75926980768722" x2="664.25" y2="191.11129194130262" stroke="#ff4444" stroke-width="1" opacity="0.8"/>
<rect x="659.0" y="133.77003824558557" width="6.3" height="46.41911013462811" fill="#ff4444" opacity="0.8"/>
<rect x="659.0" y="295.0" width="6.3" height="35.0" fill="#ff4444" opacity="0.3"/>
<line x1="674.75" y1="84.07428504263078" x2="674.75" y2="142.98559687525443" stroke="#ff4444" stroke-width="1" opacity="0.8"/>
<rect x="669.5" y="97.52217430222166" width="6.3" height="39.45624361443376" fill="#ff4444" opacity="0.8"/>
<rect x="669.5" y="298.59617620287844" width="6.3" height="31.40382379712156" fill="#ff4444" opacity="0.3"/>
<rect x="177.25" y="243.76991166445154" width="8" height="8" fill="#ff9800" opacity="0.85"/>
<text x="181.25" y="240.76991166445154" text-anchor="middle" font-size="8" font-weight="bold" fill="#ff9800">前低</text>
<rect x="198.25" y="197.62385511885077" width="8" height="8" fill="#ff9800" opacity="0.85"/>
<text x="202.25" y="194.62385511885077" text-anchor="middle" font-size="8" font-weight="bold" fill="#ff9800">前高</text>
<rect x="292.75" y="286.4345349499553" width="8" height="8" fill="#ff9800" opacity="0.85"/>
<text x="296.75" y="283.4345349499553" text-anchor="middle" font-size="8" font-weight="bold" fill="#ff9800">前低</text>
<rect x="481.75" y="192.4358369273335" width="8" height="8" fill="#ff9800" opacity="0.85"/>
<text x="485.75" y="189.4358369273335" text-anchor="middle" font-size="8" font-weight="bold" fill="#ff9800">前高</text>
<rect x="502.75" y="216.8058697480132" width="8" height="8" fill="#2196f3" opacity="0.85"/>
<text x="506.75" y="213.8058697480132" text-anchor="middle" font-size="8" font-weight="bold" fill="#2196f3">中</text>
<rect x="523.75" y="262.13276552653235" width="8" height="8" fill="#ff9800" opacity="0.85"/>
<text x="527.75" y="259.13276552653235" text-anchor="middle" font-size="8" font-weight="bold" fill="#ff9800">前低</text>
<rect x="597.25" y="166.49574596974725" width="8" height="8" fill="#ff9800" opacity="0.85"/>
<text x="601.25" y="163.49574596974725" text-anchor="middle" font-size="8" font-weight="bold" fill="#ff9800">前高</text>
<rect x="628.75" y="182.67417111961018" width="8" height="8" fill="#2196f3" opacity="0.85"/>
<text x="632.75" y="179.67417111961018" text-anchor="middle" font-size="8" font-weight="bold" fill="#2196f3">中</text>
<rect x="649.75" y="208.95557906348054" width="8" height="8" fill="#ff9800" opacity="0.85"/>
<text x="653.75" y="205.95557906348054" text-anchor="middle" font-size="8" font-weight="bold" fill="#ff9800">前低</text>
<line x1="674.75" y1="97.52217430222166" x2="674.75" y2="42" stroke="#4caf50" stroke-width="1" stroke-dasharray="3,2"/>
<rect x="654.75" y="28" width="40" height="14" rx="3" fill="#2563eb" opacity="0.9"/>
<text x="674.75" y="38" text-anchor="middle" font-size="9" font-weight="bold" fill="white">关注</text>
<text x="55.25" y="355" fill="#666666" font-size="8" text-anchor="middle" transform="rotate(-30,55.25,355)">02/11</text>
<text x="107.75" y="355" fill="#666666" font-size="8" text-anchor="middle" transform="rotate(-30,107.75,355)">02/26</text>
<text x="160.25" y="355" fill="#666666" font-size="8" text-anchor="middle" transform="rotate(-30,160.25,355)">03/05</text>
<text x="212.75" y="355" fill="#666666" font-size="8" text-anchor="middle" transform="rotate(-30,212.75,355)">03/12</text>
<text x="265.25" y="355" fill="#666666" font-size="8" text-anchor="middle" transform="rotate(-30,265.25,355)">03/19</text>
<text x="317.75" y="355" fill="#666666" font-size="8" text-anchor="middle" transform="rotate(-30,317.75,355)">03/26</text>
<text x="370.25" y="355" fill="#666666" font-size="8" text-anchor="middle" transform="rotate(-30,370.25,355)">04/02</text>
<text x="422.75" y="355" fill="#666666" font-size="8" text-anchor="middle" transform="rotate(-30,422.75,355)">04/10</text>
<text x="475.25" y="355" fill="#666666" font-size="8" text-anchor="middle" transform="rotate(-30,475.25,355)">04/17</text>
<text x="527.75" y="355" fill="#666666" font-size="8" text-anchor="middle" transform="rotate(-30,527.75,355)">04/24</text>
<text x="580.25" y="355" fill="#666666" font-size="8" text-anchor="middle" transform="rotate(-30,580.25,355)">05/06</text>
<text x="632.75" y="355" fill="#666666" font-size="8" text-anchor="middle" transform="rotate(-30,632.75,355)">05/13</text>
<text x="674.75" y="355" fill="#666666" font-size="8" text-anchor="middle" transform="rotate(-30,674.75,355)">05/19</text>
<rect x="50" y="334" width="7" height="7" fill="#ff9800" opacity="0.8" rx="1"/>
<text x="60" y="340" font-family="sans-serif" font-size="8" fill="#888888">第1类</text>
<rect x="120" y="334" width="7" height="7" fill="#2196f3" opacity="0.8" rx="1"/>
<text x="130" y="340" font-family="sans-serif" font-size="8" fill="#888888">第2类</text>
<rect x="190" y="334" width="7" height="7" fill="#ffd700" opacity="0.8" rx="1"/>
<text x="200" y="340" font-family="sans-serif" font-size="8" fill="#888888">EMA5</text>
<rect x="260" y="334" width="7" height="7" fill="#ff6b6b" opacity="0.8" rx="1"/>
<text x="270" y="340" font-family="sans-serif" font-size="8" fill="#888888">EMA10</text>
<rect x="330" y="334" width="7" height="7" fill="#4ecdc4" opacity="0.8" rx="1"/>
<text x="340" y="340" font-family="sans-serif" font-size="8" fill="#888888">EMA20</text>
</svg>