<svg xmlns="http://www.w3.org/2000/svg" width="700" height="380" viewBox="0 0 700 380">
<rect width="700" height="380" fill="#1a1a2e"/>
<text x="350.0" y="20" text-anchor="middle" font-family="sans-serif" font-size="14" font-weight="bold" fill="#ffffff">伟创电气(688698)</text>
<line x1="50" y1="28.02764706959375" x2="680" y2="28.02764706959375" stroke="#2a2a4e" stroke-width="0.5"/>
<text x="46" y="31.02764706959375" text-anchor="end" font-size="9" fill="#666666">101.3</text>
<line x1="50" y1="128.6629803907209" x2="680" y2="128.6629803907209" stroke="#2a2a4e" stroke-width="0.5"/>
<text x="46" y="131.6629803907209" text-anchor="end" font-size="9" fill="#666666">86.74</text>
<line x1="50" y1="229.36743138583225" x2="680" y2="229.36743138583225" stroke="#2a2a4e" stroke-width="0.5"/>
<text x="46" y="232.36743138583225" text-anchor="end" font-size="9" fill="#666666">72.17</text>
<line x1="50" y1="330.0027647069594" x2="680" y2="330.0027647069594" stroke="#2a2a4e" stroke-width="0.5"/>
<text x="46" y="333.0027647069594" text-anchor="end" font-size="9" fill="#666666">57.61</text>
<polyline points="55.25,127.6953329549408 65.75,120.04631036734597 76.25,120.72980736563508 86.75,130.26292654776464 97.25,132.58647502010075 107.75,134.08942888566867 118.25,136.01296711583774 128.75,145.38209379211253 139.25,162.52573150781885 149.75,178.6548251492214 160.25,189.49971114213554 170.75,194.4026734466072 181.25,200.2286689203403 191.75,199.91952701444887 202.25,204.27519889348434 212.75,210.9574129906492 223.25,218.96026298661937 233.75,225.17098685440047 244.25,231.75362724703288 254.75,234.5293084491543 265.25,242.66947091647236 275.75,250.86095285405608 286.25,261.57488403525133 296.75,268.74054404737626 307.25,264.6014707781527 317.75,263.8925795935376 328.25,259.04253278478916 338.75,258.7581890022866 349.25,261.63284336058837 359.75,260.32378814685603 370.25,267.33049950524355 380.75,275.15801418945125 391.25,279.22439607918477 401.75,269.14854765191353 412.25,267.5690624665649 422.75,262.8528356218318 433.25,261.06799864703396 443.75,253.47320287462463 454.25,249.79235917270415 464.75,246.5781689575966 475.25,247.84518073074995 485.75,249.68054190662693 496.25,250.0977431607283 506.75,249.50038679299482 517.25,255.5761713443677 527.75,261.2394401049164 538.25,262.8953439430974 548.75,270.05859592117406 559.25,271.3321350913545 569.75,266.39831581478916 580.25,257.4414536970338 590.75,246.21726906239073 601.25,235.83153699862189 611.75,231.2346773135804 622.25,229.89804603982662 632.75,230.78097882292099 643.25,237.88970125750197 653.75,227.23864747338723 664.25,216.95853194736674 674.75,207.43257153596048" fill="none" stroke="#ffd700" stroke-width="1" opacity="0.6"/>
<polyline points="55.25,127.6953329549408 65.75,123.52313881625268 76.25,123.2638047337001 86.75,128.00296112975897 97.25,129.68125400885242 107.75,131.02926902848006 118.25,132.63486440078833 128.75,138.3594976269472 139.25,148.98740841099885 149.75,160.2466091420948 160.25,169.50894986679822 170.75,175.81797681020768 181.25,182.37482827522567 191.75,185.45235826203302 202.25,190.45857360558253 212.75,196.61553134729095 223.25,203.5883370984308 233.75,209.77090027870932 244.25,216.16144714299816 254.75,220.51039690852528 265.25,227.49937853444948 275.75,234.72565820622663 286.25,243.50331060466578 296.75,250.697593053204 307.25,251.72045326893155 317.75,253.67578853354536 328.25,252.88790683059023 338.75,253.85183312271593 349.25,256.3118911144388 359.75,256.56530686079384 370.25,261.0705096537439 380.75,266.47824309085706 391.25,270.2744097759106 401.75,266.4057626889034 412.25,266.0429134901696 422.75,263.74790775238705 433.25,262.61161992421455 443.75,258.1883456343221 454.25,255.32331402242045 464.75,252.56449120514068 475.25,252.16716630912543 485.75,252.38245684535372 496.25,252.1187639041859 506.75,251.42547484115715 517.25,254.38952313314914 527.75,257.69433304094275 538.25,259.24211823703666 548.75,263.8135694443622 559.25,265.6436865329719 569.75,263.9867757563694 580.25,259.5396764300337 590.75,253.035898859683 601.25,246.1312032253923 611.75,241.75115862868412 622.25,239.10999951298135 632.75,237.9166985813684 643.25,240.4967799532403 653.75,234.213099944498 664.25,227.3376819355576 674.75,220.2545853496649" fill="none" stroke="#ff6b6b" stroke-width="1" opacity="0.6"/>
<polyline points="55.25,127.6953329549408 65.75,125.50989792991376 76.25,125.18484111394223 86.75,127.4843005232833 97.25,128.41280256532997 107.75,129.23971057023226 118.25,130.25117085651263 128.75,133.47680669347926 139.25,139.50882576450329 149.75,146.30922449474366 160.25,152.4882967455265 170.75,157.41403972743356 181.25,162.60133688365957 191.75,166.0965660568982 202.25,170.5622781135322 212.75,175.68223650128908 223.25,181.32830568960054 233.75,186.68679415630177 244.25,192.23270976353948 254.75,196.789658438764 265.25,202.70967152565396 275.75,208.85579011647013 286.25,215.91740500039126 296.75,222.31306776908022 307.25,225.55213981390165 317.75,229.06858337679742 328.25,230.99942678541595 338.75,233.58895770464127 349.25,236.8073571686937 359.75,238.7976734116173 370.25,242.84969710784597 380.75,247.4176348649908 391.25,251.2213991501014 401.75,251.0095374022223 412.25,252.28578070637897 422.75,252.3938379659967 433.25,252.87997955946742 443.75,251.48984925188063 454.25,250.6270704439742 464.75,249.6292340709654 475.25,249.70065980487885 485.75,250.04833641949816 496.25,250.13250872896793 506.75,249.958524474545 517.25,251.65083075764676 527.75,253.64274950701508 538.25,254.8393592320097 548.75,257.6532392934686 559.25,259.19857016377773 569.75,258.94448512548064 580.25,257.0952703003418 590.75,253.92133025203347 601.25,250.22025812051456 611.75,247.53651524651292 622.25,245.6020646032564 632.75,244.3587102971472 643.25,245.09665656662497 653.75,241.3671216464852 664.25,237.08437681304144 674.75,232.44592670828973" fill="none" stroke="#4ecdc4" stroke-width="1" opacity="0.6"/>
<line x1="55.25" y1="79.8659025578117" x2="55.25" y2="127.76445062892503" stroke="#44aa44" stroke-width="1" opacity="0.8"/>
<rect x="50.0" y="79.8659025578117" width="6.3" height="47.8294303971291" fill="#44aa44" opacity="0.8"/>
<rect x="50.0" y="313.3466688616356" width="6.3" height="16.65333113836442" fill="#44aa44" opacity="0.3"/>
<line x1="65.75" y1="87.74531739202084" x2="65.75" y2="129.63062782650096" stroke="#ff4444" stroke-width="1" opacity="0.8"/>
<rect x="60.5" y="104.74826519215627" width="6.3" height="24.191185894501714" fill="#ff4444" opacity="0.8"/>
<rect x="60.5" y="318.5699264874865" width="6.3" height="11.430073512513497" fill="#ff4444" opacity="0.3"/>
<line x1="76.25" y1="108.34238423933935" x2="76.25" y2="128.2482743468151" stroke="#44aa44" stroke-width="1" opacity="0.8"/>
<rect x="71.0" y="115.25415163776842" width="6.3" height="6.84264972444484" fill="#44aa44" opacity="0.8"/>
<rect x="71.0" y="320.54330796481514" width="6.3" height="9.456692035184853" fill="#44aa44" opacity="0.3"/>
<line x1="86.75" y1="113.18062141823972" x2="86.75" y2="156.51740300639" stroke="#44aa44" stroke-width="1" opacity="0.8"/>
<rect x="81.5" y="113.87179815808268" width="6.3" height="35.45736675394106" fill="#44aa44" opacity="0.8"/>
<rect x="81.5" y="316.5916725268637" width="6.3" height="13.408327473136316" fill="#44aa44" opacity="0.3"/>
<line x1="97.25" y1="131.28945200212388" x2="97.25" y2="154.30563743889266" stroke="#ff4444" stroke-width="1" opacity="0.8"/>
<rect x="92.0" y="137.23357196477286" width="6.3" height="13.132358057015267" fill="#ff4444" opacity="0.8"/>
<rect x="92.0" y="321.1395599706942" width="6.3" height="8.860440029305776" fill="#ff4444" opacity="0.3"/>
<line x1="107.75" y1="127.83356830290936" x2="107.75" y2="146.21886958273063" stroke="#44aa44" stroke-width="1" opacity="0.8"/>
<rect x="102.5" y="133.77768826555834" width="6.3" height="3.3176483512459924" fill="#44aa44" opacity="0.8"/>
<rect x="102.5" y="322.74319672749925" width="6.3" height="7.256803272500732" fill="#44aa44" opacity="0.3"/>
<line x1="118.25" y1="131.0129813061867" x2="118.25" y2="146.21886958273063" stroke="#ff4444" stroke-width="1" opacity="0.8"/>
<rect x="113.0" y="139.86004357617588" width="6.3" height="4.216178113041735" fill="#ff4444" opacity="0.8"/>
<rect x="113.0" y="323.53352428314753" width="6.3" height="6.466475716852488" fill="#ff4444" opacity="0.3"/>
<line x1="128.75" y1="147.60122306241647" x2="128.75" y2="172.6218210447297" stroke="#44aa44" stroke-width="1" opacity="0.8"/>
<rect x="123.5" y="151.057106761631" width="6.3" height="13.063240383030944" fill="#44aa44" opacity="0.8"/>
<rect x="123.5" y="312.98138707369696" width="6.3" height="17.018612926303007" fill="#44aa44" opacity="0.3"/>
<line x1="139.25" y1="160.45711042349453" x2="139.25" y2="197.3659483311057" stroke="#44aa44" stroke-width="1" opacity="0.8"/>
<rect x="134.0" y="160.45711042349453" width="6.3" height="36.35589651573687" fill="#44aa44" opacity="0.8"/>
<rect x="134.0" y="315.50199850716257" width="6.3" height="14.49800149283741" fill="#44aa44" opacity="0.3"/>
<line x1="149.75" y1="194.04829997985973" x2="149.75" y2="212.50271893366534" stroke="#44aa44" stroke-width="1" opacity="0.8"/>
<rect x="144.5" y="204.27771572953478" width="6.3" height="6.635296702491843" fill="#44aa44" opacity="0.8"/>
<rect x="144.5" y="317.96268214057346" width="6.3" height="12.037317859426551" fill="#44aa44" opacity="0.3"/>
<line x1="160.25" y1="199.43947855063442" x2="160.25" y2="218.7924272662358" stroke="#44aa44" stroke-width="1" opacity="0.8"/>
<rect x="155.0" y="202.89536224984897" width="6.3" height="8.294120878114853" fill="#44aa44" opacity="0.8"/>
<rect x="155.0" y="316.3687435445614" width="6.3" height="13.631256455438576" fill="#44aa44" opacity="0.3"/>
<line x1="170.75" y1="195.63800648149845" x2="170.75" y2="216.16595565483277" stroke="#ff4444" stroke-width="1" opacity="0.8"/>
<rect x="165.5" y="204.20859805555048" width="6.3" height="11.127945511470756" fill="#ff4444" opacity="0.8"/>
<rect x="165.5" y="318.07306190741775" width="6.3" height="11.926938092582263" fill="#ff4444" opacity="0.3"/>
<line x1="181.25" y1="204.20859805555048" x2="181.25" y2="230.5424318435652" stroke="#ff4444" stroke-width="1" opacity="0.8"/>
<rect x="176.0" y="211.8806598678067" width="6.3" height="8.294120878114882" fill="#ff4444" opacity="0.8"/>
<rect x="176.0" y="317.5436368758255" width="6.3" height="12.456363124174503" fill="#ff4444" opacity="0.3"/>
<line x1="191.75" y1="196.8130069392314" x2="191.75" y2="208.9777175604665" stroke="#44aa44" stroke-width="1" opacity="0.8"/>
<rect x="186.5" y="197.64241902704282" width="6.3" height="1.6588241756230389" fill="#44aa44" opacity="0.8"/>
<rect x="186.5" y="317.5980603143491" width="6.3" height="12.401939685650941" fill="#44aa44" opacity="0.3"/>
<line x1="202.25" y1="195.9835948514199" x2="202.25" y2="214.09242543530405" stroke="#44aa44" stroke-width="1" opacity="0.8"/>
<rect x="197.0" y="196.60565391727852" width="6.3" height="16.380888734276823" fill="#44aa44" opacity="0.8"/>
<rect x="197.0" y="319.2883977861394" width="6.3" height="10.711602213860628" fill="#44aa44" opacity="0.3"/>
<line x1="212.75" y1="207.73359942874933" x2="212.75" y2="226.9483127963821" stroke="#44aa44" stroke-width="1" opacity="0.8"/>
<rect x="207.5" y="210.49830638812088" width="6.3" height="13.823534796858098" fill="#44aa44" opacity="0.8"/>
<rect x="207.5" y="322.61456972134437" width="6.3" height="7.385430278655629" fill="#44aa44" opacity="0.3"/>
<line x1="223.25" y1="219.9674277239687" x2="223.25" y2="235.03508065254414" stroke="#44aa44" stroke-width="1" opacity="0.8"/>
<rect x="218.0" y="227.84684255817785" width="6.3" height="7.1191204203819325" fill="#44aa44" opacity="0.8"/>
<rect x="218.0" y="322.4553902322858" width="6.3" height="7.5446097677142046" fill="#44aa44" opacity="0.3"/>
<line x1="233.75" y1="231.4409616053609" x2="233.75" y2="251.1394986908838" stroke="#44aa44" stroke-width="1" opacity="0.8"/>
<rect x="228.5" y="233.99831554277972" width="6.3" height="3.594119047183085" fill="#44aa44" opacity="0.8"/>
<rect x="228.5" y="322.4395979569404" width="6.3" height="7.560402043059593" fill="#44aa44" opacity="0.3"/>
<line x1="244.25" y1="232.1321383452039" x2="244.25" y2="245.6792024461248" stroke="#44aa44" stroke-width="1" opacity="0.8"/>
<rect x="239.0" y="235.03508065254414" width="6.3" height="9.883827379753484" fill="#44aa44" opacity="0.8"/>
<rect x="239.0" y="324.2793442080135" width="6.3" height="5.720655791986486" fill="#44aa44" opacity="0.3"/>
<line x1="254.75" y1="238.9747880696486" x2="254.75" y2="247.82185033963785" stroke="#ff4444" stroke-width="1" opacity="0.8"/>
<rect x="249.5" y="240.08067085339724" width="6.3" height="4.285295787026058" fill="#ff4444" opacity="0.8"/>
<rect x="249.5" y="325.09208237846724" width="6.3" height="4.907917621532753" fill="#ff4444" opacity="0.3"/>
<line x1="265.25" y1="245.1262610542505" x2="265.25" y2="260.2630316568101" stroke="#44aa44" stroke-width="1" opacity="0.8"/>
<rect x="260.0" y="249.48067451526077" width="6.3" height="9.46912133584783" fill="#44aa44" opacity="0.8"/>
<rect x="260.0" y="323.4899059624766" width="6.3" height="6.5100940375234035" fill="#44aa44" opacity="0.3"/>
<line x1="275.75" y1="250.24096892908796" x2="275.75" y2="267.24391672922354" stroke="#44aa44" stroke-width="1" opacity="0.8"/>
<rect x="270.5" y="255.83950052181552" width="6.3" height="11.404416207408019" fill="#44aa44" opacity="0.8"/>
<rect x="270.5" y="321.2004519701328" width="6.3" height="8.79954802986718" fill="#44aa44" opacity="0.3"/>
<line x1="286.25" y1="254.80273541205122" x2="286.25" y2="287.9101012505264" stroke="#44aa44" stroke-width="1" opacity="0.8"/>
<rect x="281.0" y="273.39538971382535" width="6.3" height="9.60735668381642" fill="#44aa44" opacity="0.8"/>
<rect x="281.0" y="318.31579910230494" width="6.3" height="11.684200897695035" fill="#44aa44" opacity="0.3"/>
<line x1="296.75" y1="272.1512715821081" x2="296.75" y2="295.3748100408298" stroke="#44aa44" stroke-width="1" opacity="0.8"/>
<rect x="291.5" y="274.4321548235897" width="6.3" height="8.639709248036297" fill="#44aa44" opacity="0.8"/>
<rect x="291.5" y="321.762112152971" width="6.3" height="8.237887847029032" fill="#44aa44" opacity="0.3"/>
<line x1="307.25" y1="253.6277349543183" x2="307.25" y2="281.3439222220187" stroke="#ff4444" stroke-width="1" opacity="0.8"/>
<rect x="302.0" y="256.3233242397056" width="6.3" height="25.02059798231312" fill="#ff4444" opacity="0.8"/>
<rect x="302.0" y="313.475611806909" width="6.3" height="16.524388193091024" fill="#ff4444" opacity="0.3"/>
<line x1="317.75" y1="245.74832012010913" x2="317.75" y2="265.0321511617262" stroke="#44aa44" stroke-width="1" opacity="0.8"/>
<rect x="312.5" y="257.49832469743853" width="6.3" height="4.9764725268689745" fill="#44aa44" opacity="0.8"/>
<rect x="312.5" y="319.2372952187947" width="6.3" height="10.762704781205306" fill="#44aa44" opacity="0.3"/>
<line x1="328.25" y1="241.25567131113021" x2="328.25" y2="275.0542138894483" stroke="#ff4444" stroke-width="1" opacity="0.8"/>
<rect x="323.0" y="249.34243916729224" width="6.3" height="19.422066389585666" fill="#ff4444" opacity="0.8"/>
<rect x="323.0" y="317.5396841264096" width="6.3" height="12.460315873590385" fill="#ff4444" opacity="0.3"/>
<line x1="338.75" y1="252.6600875185382" x2="338.75" y2="264.41009209586764" stroke="#ff4444" stroke-width="1" opacity="0.8"/>
<rect x="333.5" y="258.1895014372814" width="6.3" height="1" fill="#ff4444" opacity="0.8"/>
<rect x="333.5" y="320.1986043447948" width="6.3" height="9.801395655205242" fill="#ff4444" opacity="0.3"/>
<line x1="349.25" y1="247.1997912737792" x2="349.25" y2="267.3821520771921" stroke="#44aa44" stroke-width="1" opacity="0.8"/>
<rect x="344.0" y="258.0512660893129" width="6.3" height="9.330885987879185" fill="#44aa44" opacity="0.8"/>
<rect x="344.0" y="322.0202250516251" width="6.3" height="7.979774948374879" fill="#44aa44" opacity="0.3"/>
<line x1="359.75" y1="250.58655729900948" x2="359.75" y2="260.4012670047787" stroke="#44aa44" stroke-width="1" opacity="0.8"/>
<rect x="354.5" y="256.3924419136898" width="6.3" height="1.3132358057016518" fill="#44aa44" opacity="0.8"/>
<rect x="354.5" y="320.6630676130442" width="6.3" height="9.336932386955814" fill="#44aa44" opacity="0.3"/>
<line x1="370.25" y1="259.57185491696725" x2="370.25" y2="284.3850998773276" stroke="#44aa44" stroke-width="1" opacity="0.8"/>
<rect x="365.0" y="260.1247963088416" width="6.3" height="21.219125913177095" fill="#44aa44" opacity="0.8"/>
<rect x="365.0" y="318.1290673818236" width="6.3" height="11.870932618176443" fill="#44aa44" opacity="0.3"/>
<line x1="380.75" y1="277.127744108977" x2="380.75" y2="292.7483384294267" stroke="#44aa44" stroke-width="1" opacity="0.8"/>
<rect x="375.5" y="278.92480363256857" width="6.3" height="11.888239925298024" fill="#44aa44" opacity="0.8"/>
<rect x="375.5" y="322.52466748995835" width="6.3" height="7.475332510041682" fill="#44aa44" opacity="0.3"/>
<line x1="391.25" y1="273.9483311056997" x2="391.25" y2="294.82186864895544" stroke="#ff4444" stroke-width="1" opacity="0.8"/>
<rect x="386.0" y="287.35715985865204" width="6.3" height="7.464708790303405" fill="#ff4444" opacity="0.8"/>
<rect x="386.0" y="322.57441971010763" width="6.3" height="7.425580289892362" fill="#ff4444" opacity="0.3"/>
<line x1="401.75" y1="248.44390940549647" x2="401.75" y2="271.5292125162496" stroke="#ff4444" stroke-width="1" opacity="0.8"/>
<rect x="396.5" y="248.99685079737077" width="6.3" height="21.633831957082975" fill="#ff4444" opacity="0.8"/>
<rect x="396.5" y="318.3953174679964" width="6.3" height="11.604682532003629" fill="#ff4444" opacity="0.3"/>
<line x1="412.25" y1="254.80273541205122" x2="412.25" y2="265.23950418367906" stroke="#44aa44" stroke-width="1" opacity="0.8"/>
<rect x="407.0" y="254.80273541205122" width="6.3" height="9.60735668381642" fill="#44aa44" opacity="0.8"/>
<rect x="407.0" y="321.0943759961694" width="6.3" height="8.905624003830585" fill="#44aa44" opacity="0.3"/>
<line x1="422.75" y1="238.1453759818371" x2="422.75" y2="259.57185491696725" stroke="#ff4444" stroke-width="1" opacity="0.8"/>
<rect x="417.5" y="253.4203819323654" width="6.3" height="1.0367651097643034" fill="#ff4444" opacity="0.8"/>
<rect x="417.5" y="319.56105792598305" width="6.3" height="10.438942074016946" fill="#ff4444" opacity="0.3"/>
<line x1="433.25" y1="247.89096801362214" x2="433.25" y2="259.5027372429829" stroke="#ff4444" stroke-width="1" opacity="0.8"/>
<rect x="428.0" y="257.49832469743853" width="6.3" height="1" fill="#ff4444" opacity="0.8"/>
<rect x="428.0" y="322.3832695225468" width="6.3" height="7.616730477453213" fill="#ff4444" opacity="0.3"/>
<line x1="443.75" y1="226.60272442646067" x2="443.75" y2="257.3600893494699" stroke="#ff4444" stroke-width="1" opacity="0.8"/>
<rect x="438.5" y="238.28361132980578" width="6.3" height="13.892652470842336" fill="#ff4444" opacity="0.8"/>
<rect x="438.5" y="315.21506962061164" width="6.3" height="14.784930379388385" fill="#ff4444" opacity="0.3"/>
<line x1="454.25" y1="222.38654631341885" x2="454.25" y2="243.5365545526118" stroke="#44aa44" stroke-width="1" opacity="0.8"/>
<rect x="449.0" y="232.1321383452039" width="6.3" height="10.29853342365925" fill="#44aa44" opacity="0.8"/>
<rect x="449.0" y="315.0522650227045" width="6.3" height="14.947734977295513" fill="#44aa44" opacity="0.3"/>
<line x1="464.75" y1="223.63066444513612" x2="464.75" y2="246.85420290385775" stroke="#44aa44" stroke-width="1" opacity="0.8"/>
<rect x="459.5" y="224.0453704890419" width="6.3" height="16.104418038339702" fill="#44aa44" opacity="0.8"/>
<rect x="459.5" y="311.65558951798926" width="6.3" height="18.344410482010762" fill="#44aa44" opacity="0.3"/>
<line x1="475.25" y1="244.43508431440765" x2="475.25" y2="255.56302982587843" stroke="#44aa44" stroke-width="1" opacity="0.8"/>
<rect x="470.0" y="247.82185033963785" width="6.3" height="2.5573539374187817" fill="#44aa44" opacity="0.8"/>
<rect x="470.0" y="317.8066948067566" width="6.3" height="12.193305193243411" fill="#44aa44" opacity="0.3"/>
<line x1="485.75" y1="241.60125968105163" x2="485.75" y2="258.8115605031401" stroke="#44aa44" stroke-width="1" opacity="0.8"/>
<rect x="480.5" y="249.5497921892451" width="6.3" height="3.801472069135997" fill="#44aa44" opacity="0.8"/>
<rect x="480.5" y="319.2618799627934" width="6.3" height="10.738120037206595" fill="#44aa44" opacity="0.3"/>
<line x1="496.25" y1="238.28361132980578" x2="496.25" y2="263.096856290166" stroke="#ff4444" stroke-width="1" opacity="0.8"/>
<rect x="491.0" y="250.93214566893096" width="6.3" height="4.008825091088795" fill="#ff4444" opacity="0.8"/>
<rect x="491.0" y="315.4769995318752" width="6.3" height="14.523000468124819" fill="#ff4444" opacity="0.3"/>
<line x1="506.75" y1="246.50861453393634" x2="506.75" y2="261.645385136496" stroke="#ff4444" stroke-width="1" opacity="0.8"/>
<rect x="501.5" y="248.30567405752782" width="6.3" height="8.501473900067765" fill="#ff4444" opacity="0.8"/>
<rect x="501.5" y="319.52887426111204" width="6.3" height="10.471125738887988" fill="#ff4444" opacity="0.3"/>
<line x1="517.25" y1="249.2733214933079" x2="517.25" y2="274.08656645366824" stroke="#44aa44" stroke-width="1" opacity="0.8"/>
<rect x="512.0" y="250.24096892908796" width="6.3" height="17.48677151802559" fill="#44aa44" opacity="0.8"/>
<rect x="512.0" y="315.1867591353044" width="6.3" height="14.813240864695613" fill="#44aa44" opacity="0.3"/>
<line x1="527.75" y1="265.1703865096948" x2="527.75" y2="277.8880385228042" stroke="#ff4444" stroke-width="1" opacity="0.8"/>
<rect x="522.5" y="272.5659776260139" width="6.3" height="2.902942307340197" fill="#ff4444" opacity="0.8"/>
<rect x="522.5" y="321.3678856611984" width="6.3" height="8.632114338801609" fill="#ff4444" opacity="0.3"/>
<line x1="538.25" y1="260.95420839665314" x2="538.25" y2="282.3115696577988" stroke="#ff4444" stroke-width="1" opacity="0.8"/>
<rect x="533.0" y="266.20715161945907" width="6.3" height="5.94411996264904" fill="#ff4444" opacity="0.8"/>
<rect x="533.0" y="320.34751932293676" width="6.3" height="9.652480677063215" fill="#ff4444" opacity="0.3"/>
<line x1="548.75" y1="270.0777413625794" x2="548.75" y2="286.80421846677774" stroke="#44aa44" stroke-width="1" opacity="0.8"/>
<rect x="543.5" y="270.0777413625794" width="6.3" height="14.307358514748216" fill="#44aa44" opacity="0.8"/>
<rect x="543.5" y="321.3467036985204" width="6.3" height="8.653296301479605" fill="#44aa44" opacity="0.3"/>
<line x1="559.25" y1="268.557152534925" x2="559.25" y2="288.1174542724792" stroke="#ff4444" stroke-width="1" opacity="0.8"/>
<rect x="554.0" y="273.87921343171536" width="6.3" height="13.33971107896815" fill="#ff4444" opacity="0.8"/>
<rect x="554.0" y="322.99331051573097" width="6.3" height="7.006689484269007" fill="#ff4444" opacity="0.3"/>
<line x1="569.75" y1="251.27773403885237" x2="569.75" y2="276.85127341303996" stroke="#ff4444" stroke-width="1" opacity="0.8"/>
<rect x="564.5" y="256.53067726165847" width="6.3" height="16.311771060292642" fill="#ff4444" opacity="0.8"/>
<rect x="564.5" y="317.48003014025755" width="6.3" height="12.519969859742423" fill="#ff4444" opacity="0.3"/>
<line x1="580.25" y1="231.3718439313767" x2="580.25" y2="260.95420839665314" stroke="#ff4444" stroke-width="1" opacity="0.8"/>
<rect x="575.0" y="239.52772946152294" width="6.3" height="18.661771975758484" fill="#ff4444" opacity="0.8"/>
<rect x="575.0" y="315.04594155975497" width="6.3" height="14.954058440245014" fill="#ff4444" opacity="0.3"/>
<line x1="590.75" y1="218.58507424428288" x2="590.75" y2="244.98802570628197" stroke="#ff4444" stroke-width="1" opacity="0.8"/>
<rect x="585.5" y="223.76889979310468" width="6.3" height="15.20588827654393" fill="#ff4444" opacity="0.8"/>
<rect x="585.5" y="313.4073432141259" width="6.3" height="16.59265678587412" fill="#ff4444" opacity="0.3"/>
<line x1="601.25" y1="204.00124503359757" x2="601.25" y2="229.09096068989513" stroke="#ff4444" stroke-width="1" opacity="0.8"/>
<rect x="596.0" y="215.06007287108415" width="6.3" height="11.542651555376523" fill="#ff4444" opacity="0.8"/>
<rect x="596.0" y="308.55524852439714" width="6.3" height="21.444751475602846" fill="#ff4444" opacity="0.3"/>
<line x1="611.75" y1="215.06007287108415" x2="611.75" y2="229.09096068989513" stroke="#44aa44" stroke-width="1" opacity="0.8"/>
<rect x="606.5" y="217.0644854166285" width="6.3" height="4.976472526868946" fill="#44aa44" opacity="0.8"/>
<rect x="606.5" y="314.61269775699276" width="6.3" height="15.387302243007264" fill="#44aa44" opacity="0.3"/>
<line x1="622.25" y1="214.29977845725693" x2="622.25" y2="230.47331416958087" stroke="#44aa44" stroke-width="1" opacity="0.8"/>
<rect x="617.0" y="219.068897962173" width="6.3" height="8.155885530146207" fill="#44aa44" opacity="0.8"/>
<rect x="617.0" y="318.152943018023" width="6.3" height="11.847056981977028" fill="#44aa44" opacity="0.3"/>
<line x1="632.75" y1="226.8791951223978" x2="632.75" y2="239.80420015746014" stroke="#44aa44" stroke-width="1" opacity="0.8"/>
<rect x="627.5" y="232.20125601918812" width="6.3" height="1" fill="#44aa44" opacity="0.8"/>
<rect x="627.5" y="318.0647257952689" width="6.3" height="11.93527420473109" fill="#44aa44" opacity="0.3"/>
<line x1="643.25" y1="224.32184118497898" x2="643.25" y2="252.10714612666388" stroke="#44aa44" stroke-width="1" opacity="0.8"/>
<rect x="638.0" y="229.92037277770655" width="6.3" height="22.18677334895733" fill="#44aa44" opacity="0.8"/>
<rect x="638.0" y="319.3583186234977" width="6.3" height="10.641681376502273" fill="#44aa44" opacity="0.3"/>
<line x1="653.75" y1="182.85123679440463" x2="653.75" y2="254.59538239009834" stroke="#ff4444" stroke-width="1" opacity="0.8"/>
<rect x="648.5" y="205.93653990515773" width="6.3" height="45.34119413369464" fill="#ff4444" opacity="0.8"/>
<rect x="648.5" y="295.0" width="6.3" height="35.0" fill="#ff4444" opacity="0.3"/>
<line x1="664.25" y1="186.23800281963494" x2="664.25" y2="213.26301334749255" stroke="#ff4444" stroke-width="1" opacity="0.8"/>
<rect x="659.0" y="196.39830089532566" width="6.3" height="9.46912133584783" fill="#ff4444" opacity="0.8"/>
<rect x="659.0" y="304.71936849888397" width="6.3" height="25.28063150111602" fill="#ff4444" opacity="0.3"/>
<line x1="674.75" y1="172.76005639269826" x2="674.75" y2="199.30124320266586" stroke="#ff4444" stroke-width="1" opacity="0.8"/>
<rect x="669.5" y="188.38065071314796" width="6.3" height="10.43676877162784" fill="#ff4444" opacity="0.8"/>
<rect x="669.5" y="307.1176389445079" width="6.3" height="22.882361055492083" fill="#ff4444" opacity="0.3"/>
<rect x="177.25" y="226.5424318435652" width="8" height="8" fill="#ff9800" opacity="0.85"/>
<text x="181.25" y="223.5424318435652" text-anchor="middle" font-size="8" font-weight="bold" fill="#ff9800">前低</text>
<rect x="292.75" y="291.3748100408298" width="8" height="8" fill="#ff9800" opacity="0.85"/>
<text x="296.75" y="288.3748100408298" text-anchor="middle" font-size="8" font-weight="bold" fill="#ff9800">前低</text>
<rect x="324.25" y="237.25567131113021" width="8" height="8" fill="#ff9800" opacity="0.85"/>
<text x="328.25" y="234.25567131113021" text-anchor="middle" font-size="8" font-weight="bold" fill="#ff9800">前高</text>
<rect x="387.25" y="290.82186864895544" width="8" height="8" fill="#ff9800" opacity="0.85"/>
<text x="391.25" y="287.82186864895544" text-anchor="middle" font-size="8" font-weight="bold" fill="#ff9800">前低</text>
<rect x="450.25" y="218.38654631341885" width="8" height="8" fill="#ff9800" opacity="0.85"/>
<text x="454.25" y="215.38654631341885" text-anchor="middle" font-size="8" font-weight="bold" fill="#ff9800">前高</text>
<rect x="502.75" y="244.30567405752782" width="8" height="8" fill="#2196f3" opacity="0.85"/>
<text x="506.75" y="241.30567405752782" text-anchor="middle" font-size="8" font-weight="bold" fill="#2196f3">中</text>
<rect x="555.25" y="284.1174542724792" width="8" height="8" fill="#ff9800" opacity="0.85"/>
<text x="559.25" y="281.1174542724792" text-anchor="middle" font-size="8" font-weight="bold" fill="#ff9800">前低</text>
<rect x="597.25" y="200.00124503359757" width="8" height="8" fill="#ff9800" opacity="0.85"/>
<text x="601.25" y="197.00124503359757" text-anchor="middle" font-size="8" font-weight="bold" fill="#ff9800">前高</text>
<rect x="649.75" y="250.59538239009834" width="8" height="8" fill="#ff9800" opacity="0.85"/>
<text x="653.75" y="247.59538239009834" text-anchor="middle" font-size="8" font-weight="bold" fill="#ff9800">前低</text>
<text x="55.25" y="355" fill="#666666" font-size="8" text-anchor="middle" transform="rotate(-30,55.25,355)">02/11</text>
<text x="107.75" y="355" fill="#666666" font-size="8" text-anchor="middle" transform="rotate(-30,107.75,355)">02/26</text>
<text x="160.25" y="355" fill="#666666" font-size="8" text-anchor="middle" transform="rotate(-30,160.25,355)">03/05</text>
<text x="212.75" y="355" fill="#666666" font-size="8" text-anchor="middle" transform="rotate(-30,212.75,355)">03/12</text>
<text x="265.25" y="355" fill="#666666" font-size="8" text-anchor="middle" transform="rotate(-30,265.25,355)">03/19</text>
<text x="317.75" y="355" fill="#666666" font-size="8" text-anchor="middle" transform="rotate(-30,317.75,355)">03/26</text>
<text x="370.25" y="355" fill="#666666" font-size="8" text-anchor="middle" transform="rotate(-30,370.25,355)">04/02</text>
<text x="422.75" y="355" fill="#666666" font-size="8" text-anchor="middle" transform="rotate(-30,422.75,355)">04/10</text>
<text x="475.25" y="355" fill="#666666" font-size="8" text-anchor="middle" transform="rotate(-30,475.25,355)">04/17</text>
<text x="527.75" y="355" fill="#666666" font-size="8" text-anchor="middle" transform="rotate(-30,527.75,355)">04/24</text>
<text x="580.25" y="355" fill="#666666" font-size="8" text-anchor="middle" transform="rotate(-30,580.25,355)">05/06</text>
<text x="632.75" y="355" fill="#666666" font-size="8" text-anchor="middle" transform="rotate(-30,632.75,355)">05/13</text>
<text x="674.75" y="355" fill="#666666" font-size="8" text-anchor="middle" transform="rotate(-30,674.75,355)">05/19</text>
<rect x="50" y="334" width="7" height="7" fill="#ff9800" opacity="0.8" rx="1"/>
<text x="60" y="340" font-family="sans-serif" font-size="8" fill="#888888">第1类</text>
<rect x="120" y="334" width="7" height="7" fill="#2196f3" opacity="0.8" rx="1"/>
<text x="130" y="340" font-family="sans-serif" font-size="8" fill="#888888">第2类</text>
<rect x="190" y="334" width="7" height="7" fill="#ffd700" opacity="0.8" rx="1"/>
<text x="200" y="340" font-family="sans-serif" font-size="8" fill="#888888">EMA5</text>
<rect x="260" y="334" width="7" height="7" fill="#ff6b6b" opacity="0.8" rx="1"/>
<text x="270" y="340" font-family="sans-serif" font-size="8" fill="#888888">EMA10</text>
<rect x="330" y="334" width="7" height="7" fill="#4ecdc4" opacity="0.8" rx="1"/>
<text x="340" y="340" font-family="sans-serif" font-size="8" fill="#888888">EMA20</text>
</svg>