<svg xmlns="http://www.w3.org/2000/svg" width="700" height="380" viewBox="0 0 700 380">
<rect width="700" height="380" fill="#1a1a2e"/>
<text x="350.0" y="20" text-anchor="middle" font-family="sans-serif" font-size="14" font-weight="bold" fill="#ffffff">普冉股份(688766) 关键点图</text>
<line x1="50" y1="27.99826493370703" x2="680" y2="27.99826493370703" stroke="#2a2a4e" stroke-width="0.5"/>
<text x="46" y="30.99826493370703" text-anchor="end" font-size="9" fill="#666666">479.77</text>
<line x1="50" y1="128.66464242265818" x2="680" y2="128.66464242265818" stroke="#2a2a4e" stroke-width="0.5"/>
<text x="46" y="131.66464242265818" text-anchor="end" font-size="9" fill="#666666">386.94</text>
<line x1="50" y1="229.3310199116093" x2="680" y2="229.3310199116093" stroke="#2a2a4e" stroke-width="0.5"/>
<text x="46" y="232.3310199116093" text-anchor="end" font-size="9" fill="#666666">294.11</text>
<line x1="50" y1="329.9973974005605" x2="680" y2="329.9973974005605" stroke="#2a2a4e" stroke-width="0.5"/>
<text x="46" y="332.9973974005605" text-anchor="end" font-size="9" fill="#666666">201.28</text>
<polyline points="55.25,269.2917654730426 65.75,262.92624101047505 76.25,259.64768866093004 86.75,257.5342815234431 97.25,263.08368221113926 107.75,265.24702605597975 118.25,265.78557492491825 128.75,267.04828786516566 139.25,278.6185897372559 149.75,281.24621124719425 160.25,281.0279357336044 170.75,278.5473086718366 181.25,277.72494322940344 191.75,274.0680391594292 202.25,273.49168465634716 212.75,272.54716649716704 223.25,276.25515345696454 233.75,271.4181780040916 244.25,269.55266296505283 254.75,261.9036998739107 265.25,251.44737396674097 275.75,249.17201318415036 286.25,250.1492637919926 296.75,254.42632980537255 307.25,259.83331520840676 317.75,268.50219688655517 328.25,274.94294536287316 338.75,279.6235528749073 349.25,287.77203541128404 359.75,288.4690720107973 370.25,294.06305280592045 380.75,299.715405144115 391.25,300.8918847610255 401.75,296.6481269772785 412.25,292.7598417384078 422.75,286.02518080454263 433.25,282.0667709008741 443.75,272.83096433012304 454.25,268.6907745152741 464.75,266.0282454510246 475.25,264.499027133038 485.75,260.98539045814437 496.25,257.3055190740017 506.75,255.43062691558455 517.25,256.8447485140686 527.75,259.4321945033296 538.25,260.85713661633315 548.75,256.9452976830639 559.25,257.28701775904176 569.75,256.2894405735719 580.25,238.4797653085524 590.75,226.43314183590272 601.25,218.94426773737592 611.75,190.99820383676592 622.25,165.9152167924734 632.75,133.95717454390916 643.25,119.60292238133279 653.75,116.2760448730928 664.25,110.98561330701895 674.75,103.56560393464193" fill="none" stroke="#ffd700" stroke-width="1" opacity="0.6"/>
<polyline points="55.25,269.2917654730426 65.75,265.81966122073305 76.25,263.50528353729794 86.75,261.65113512114726 97.25,263.92956211485347 107.75,264.9557715022729 118.25,265.3024808041861 128.75,266.0790686117268 139.25,272.56636404258313 149.75,275.10001681067183 160.25,276.0984473371724 170.75,275.64164864828666 181.25,275.7213875021504 191.75,274.0909954143923 202.25,273.7724463663542 212.75,273.2062070595274 223.25,275.1089198444423 233.75,272.67897570878847 244.25,271.43218610482234 254.75,266.91829293878675 265.25,260.30309825035306 275.75,257.4518606810106 286.25,256.4794796494954 296.75,257.66147640997485 307.25,260.0225327017022 317.75,264.7166104364567 328.25,268.9180344144662 338.75,272.56653141164975 349.25,278.2942530611748 359.75,280.3976879972928 370.25,284.9164746152699 380.75,289.66259010713065 391.25,292.13209081398804 401.75,291.4100036495874 412.25,290.24150685160174 422.75,287.0259345034582 433.25,284.68484661074524 443.75,279.171120170359 454.25,275.7600792094894 464.75,273.0224625027687 475.25,270.91666759264075 485.75,267.8332947773164 496.25,264.58101869157093 506.75,262.2355321292399 517.25,261.7696156895666 527.75,262.28551946998203 538.25,262.5439742649563 548.75,260.10354618342336 559.25,259.7157119520732 569.75,258.7299981794476 580.25,248.5718921065505 590.75,240.1660744309237 601.25,233.5843371780871 611.75,215.67919878853417 622.25,197.51011586405306 632.75,174.33392935182175 643.25,159.1631091162505 653.75,150.15568743268003 664.25,141.1100624767148 674.75,131.58561206092804" fill="none" stroke="#ff6b6b" stroke-width="1" opacity="0.6"/>
<polyline points="55.25,269.2917654730426 65.75,267.4730441980233 76.25,266.1032860802916 86.75,264.8846366677371 97.25,265.77014589809846 107.75,266.13239045500916 118.25,266.201941141465 128.75,266.52306234186455 139.25,269.87888435515714 149.75,271.4619862515299 160.25,272.3314527710437 170.75,272.450938654592 181.25,272.7965837679201 191.75,272.22112160140205 202.25,272.2323457965241 212.75,272.0824204995986 223.25,273.186106868833 233.75,272.09640403354854 244.25,271.49880678149384 254.75,269.12804172531605 265.25,265.45248748027666 275.75,263.468564064914 286.25,262.38620224993906 296.75,262.4427984006242 307.25,263.2241781733719 317.75,265.37806217998906 328.25,267.51581266908624 338.75,269.56047507193284 349.25,272.8470013016571 359.75,274.4675864357682 370.25,277.3993414796157 380.75,280.6013194168432 391.25,282.7578455671292 401.75,283.27239469500114 412.25,283.43533532030256 422.75,282.3991947123511 433.25,281.6135524629402 443.75,279.0179142463384 454.25,277.24576954531346 464.75,275.67028552409556 475.25,274.3150764739022 485.75,272.3763184390883 496.25,270.2400763311481 506.75,268.47253026139595 517.25,267.63447897088554 527.75,267.3461558766918 538.25,266.99957158770593 548.75,265.29690951426016 559.25,264.5991522187113 569.75,263.61773640765614 580.25,257.8313248239283 590.75,252.54642673504017 601.25,247.91976890697177 611.75,237.1756076811217 622.25,225.61119196900424 632.75,210.79499178593534 643.25,199.37588952595863 653.75,190.82792765268766 664.25,182.21619646432416 674.75,173.31232872390166" fill="none" stroke="#4ecdc4" stroke-width="1" opacity="0.6"/>
<line x1="55.25" y1="262.7418902168402" x2="55.25" y2="276.0802123445371" stroke="#44aa44" stroke-width="1" opacity="0.8"/>
<rect x="50.0" y="265.4746196283684" width="6.3" height="3.817145844674201" fill="#44aa44" opacity="0.8"/>
<rect x="50.0" y="314.6338763599376" width="6.3" height="15.366123640062408" fill="#44aa44" opacity="0.3"/>
<line x1="65.75" y1="250.19519208534" x2="65.75" y2="273.19566463236845" stroke="#ff4444" stroke-width="1" opacity="0.8"/>
<rect x="60.5" y="250.19519208534" width="6.3" height="10.714034359483321" fill="#ff4444" opacity="0.8"/>
<rect x="60.5" y="307.27715366321775" width="6.3" height="22.722846336782276" fill="#ff4444" opacity="0.3"/>
<line x1="76.25" y1="234.24342635376112" x2="76.25" y2="262.8503318601548" stroke="#ff4444" stroke-width="1" opacity="0.8"/>
<rect x="71.0" y="253.09058396184005" width="6.3" height="4.554549019213567" fill="#ff4444" opacity="0.8"/>
<rect x="71.0" y="304.33775075682814" width="6.3" height="25.66224924317185" fill="#ff4444" opacity="0.3"/>
<line x1="86.75" y1="241.72589974246904" x2="86.75" y2="264.15163157993015" stroke="#ff4444" stroke-width="1" opacity="0.8"/>
<rect x="81.5" y="253.30746724846927" width="6.3" height="2.1688328662921776" fill="#ff4444" opacity="0.8"/>
<rect x="81.5" y="311.1995471783006" width="6.3" height="18.800452821699423" fill="#ff4444" opacity="0.3"/>
<line x1="97.25" y1="260.8983822804919" x2="97.25" y2="282.0119702338461" stroke="#44aa44" stroke-width="1" opacity="0.8"/>
<rect x="92.0" y="266.32046444622233" width="6.3" height="7.86201914030903" fill="#44aa44" opacity="0.8"/>
<rect x="92.0" y="307.97320752331336" width="6.3" height="22.026792476686637" fill="#44aa44" opacity="0.3"/>
<line x1="107.75" y1="263.3166309264077" x2="107.75" y2="274.9632634183966" stroke="#44aa44" stroke-width="1" opacity="0.8"/>
<rect x="102.5" y="267.4048808793684" width="6.3" height="2.1688328662921776" fill="#44aa44" opacity="0.8"/>
<rect x="102.5" y="314.4840505128637" width="6.3" height="15.515949487136309" fill="#44aa44" opacity="0.3"/>
<line x1="118.25" y1="262.00448704230087" x2="118.25" y2="278.14060356751463" stroke="#ff4444" stroke-width="1" opacity="0.8"/>
<rect x="113.0" y="266.8626726627953" width="6.3" height="4.8798739491574" fill="#ff4444" opacity="0.8"/>
<rect x="113.0" y="318.5763643156098" width="6.3" height="11.423635684390222" fill="#ff4444" opacity="0.3"/>
<line x1="128.75" y1="257.6451329810536" x2="128.75" y2="271.46059833933475" stroke="#44aa44" stroke-width="1" opacity="0.8"/>
<rect x="123.5" y="269.1724796653965" width="6.3" height="1" fill="#44aa44" opacity="0.8"/>
<rect x="123.5" y="318.37544026293364" width="6.3" height="11.62455973706634" fill="#44aa44" opacity="0.3"/>
<line x1="139.25" y1="266.4831269111942" x2="139.25" y2="303.19062317318924" stroke="#44aa44" stroke-width="1" opacity="0.8"/>
<rect x="134.0" y="268.4242323265257" width="6.3" height="33.33496115491067" fill="#44aa44" opacity="0.8"/>
<rect x="134.0" y="306.519255098834" width="6.3" height="23.480744901166023" fill="#44aa44" opacity="0.3"/>
<line x1="149.75" y1="279.12742252167754" x2="149.75" y2="295.231006553897" stroke="#ff4444" stroke-width="1" opacity="0.8"/>
<rect x="144.5" y="286.501454267071" width="6.3" height="2.721885247196667" fill="#ff4444" opacity="0.8"/>
<rect x="144.5" y="307.15647362318583" width="6.3" height="22.843526376814147" fill="#ff4444" opacity="0.3"/>
<line x1="160.25" y1="273.0546904960595" x2="160.25" y2="286.28457098044174" stroke="#44aa44" stroke-width="1" opacity="0.8"/>
<rect x="155.0" y="277.1646287776831" width="6.3" height="3.4267559287416702" fill="#44aa44" opacity="0.8"/>
<rect x="155.0" y="311.18434041744365" width="6.3" height="18.815659582556346" fill="#44aa44" opacity="0.3"/>
<line x1="170.75" y1="272.19800151387403" x2="170.75" y2="286.0134668721552" stroke="#ff4444" stroke-width="1" opacity="0.8"/>
<rect x="165.5" y="273.58605454830104" width="6.3" height="8.19818823458445" fill="#ff4444" opacity="0.8"/>
<rect x="165.5" y="312.69893961399833" width="6.3" height="17.301060386001673" fill="#ff4444" opacity="0.3"/>
<line x1="181.25" y1="274.23670440818876" x2="181.25" y2="294.9707466099419" stroke="#ff4444" stroke-width="1" opacity="0.8"/>
<rect x="176.0" y="276.0802123445371" width="6.3" height="15.181830064045187" fill="#ff4444" opacity="0.8"/>
<rect x="176.0" y="315.23806452036314" width="6.3" height="14.761935479636856" fill="#ff4444" opacity="0.3"/>
<line x1="191.75" y1="257.7101979670424" x2="191.75" y2="278.2273568821663" stroke="#ff4444" stroke-width="1" opacity="0.8"/>
<rect x="186.5" y="266.7542310194807" width="6.3" height="1.7350662930337535" fill="#ff4444" opacity="0.8"/>
<rect x="186.5" y="311.90687672072954" width="6.3" height="18.093123279270483" fill="#ff4444" opacity="0.3"/>
<line x1="202.25" y1="261.982798713638" x2="202.25" y2="272.8269630450988" stroke="#44aa44" stroke-width="1" opacity="0.8"/>
<rect x="197.0" y="264.15163157993015" width="6.3" height="8.187344070252948" fill="#44aa44" opacity="0.8"/>
<rect x="197.0" y="316.6647058349517" width="6.3" height="13.33529416504831" fill="#44aa44" opacity="0.3"/>
<line x1="212.75" y1="263.28409843341325" x2="212.75" y2="276.0802123445371" stroke="#ff4444" stroke-width="1" opacity="0.8"/>
<rect x="207.5" y="270.6581301788067" width="6.3" height="1.680845471376415" fill="#ff4444" opacity="0.8"/>
<rect x="207.5" y="317.12841899780926" width="6.3" height="12.871581002190753" fill="#ff4444" opacity="0.3"/>
<line x1="223.25" y1="257.6451329810536" x2="223.25" y2="283.67112737655964" stroke="#44aa44" stroke-width="1" opacity="0.8"/>
<rect x="218.0" y="278.3032660324866" width="6.3" height="5.367861344073049" fill="#44aa44" opacity="0.8"/>
<rect x="218.0" y="305.62952002378586" width="6.3" height="24.37047997621415" fill="#44aa44" opacity="0.3"/>
<line x1="233.75" y1="252.6568173885816" x2="233.75" y2="283.67112737655964" stroke="#ff4444" stroke-width="1" opacity="0.8"/>
<rect x="228.5" y="261.7442270983458" width="6.3" height="16.634948084460973" fill="#ff4444" opacity="0.8"/>
<rect x="228.5" y="308.30283078360134" width="6.3" height="21.697169216398645" fill="#ff4444" opacity="0.3"/>
<line x1="244.25" y1="262.0153312066323" x2="244.25" y2="275.97177070122245" stroke="#ff4444" stroke-width="1" opacity="0.8"/>
<rect x="239.0" y="265.8216328869751" width="6.3" height="1" fill="#ff4444" opacity="0.8"/>
<rect x="239.0" y="313.9042367838461" width="6.3" height="16.09576321615391" fill="#ff4444" opacity="0.3"/>
<line x1="254.75" y1="239.21005361757017" x2="254.75" y2="258.0138345683232" stroke="#ff4444" stroke-width="1" opacity="0.8"/>
<rect x="249.5" y="246.60577369162644" width="6.3" height="5.617277123696738" fill="#ff4444" opacity="0.8"/>
<rect x="249.5" y="306.10646568543115" width="6.3" height="23.893534314568857" fill="#ff4444" opacity="0.3"/>
<line x1="265.25" y1="216.44815268583378" x2="265.25" y2="270.18098694822237" stroke="#ff4444" stroke-width="1" opacity="0.8"/>
<rect x="260.0" y="230.53472215240149" width="6.3" height="27.012813349669017" fill="#ff4444" opacity="0.8"/>
<rect x="260.0" y="296.072373215864" width="6.3" height="33.927626784136024" fill="#ff4444" opacity="0.3"/>
<line x1="275.75" y1="224.10413270384515" x2="275.75" y2="251.53986846244115" stroke="#44aa44" stroke-width="1" opacity="0.8"/>
<rect x="270.5" y="231.06608620464306" width="6.3" height="13.555205414326082" fill="#44aa44" opacity="0.8"/>
<rect x="270.5" y="307.08379228453566" width="6.3" height="22.91620771546435" fill="#44aa44" opacity="0.3"/>
<line x1="286.25" y1="229.45030571925537" x2="286.25" y2="259.7705891900199" stroke="#ff4444" stroke-width="1" opacity="0.8"/>
<rect x="281.0" y="252.1037650076771" width="6.3" height="7.666824182342793" fill="#ff4444" opacity="0.8"/>
<rect x="281.0" y="309.61300226651764" width="6.3" height="20.386997733482346" fill="#ff4444" opacity="0.3"/>
<line x1="296.75" y1="253.4159088917839" x2="296.75" y2="290.1776259754362" stroke="#44aa44" stroke-width="1" opacity="0.8"/>
<rect x="291.5" y="258.57773111355925" width="6.3" height="4.402730718573139" fill="#44aa44" opacity="0.8"/>
<rect x="291.5" y="305.3867933705667" width="6.3" height="24.613206629433297" fill="#44aa44" opacity="0.3"/>
<line x1="307.25" y1="254.9340918981884" x2="307.25" y2="278.79125342740224" stroke="#44aa44" stroke-width="1" opacity="0.8"/>
<rect x="302.0" y="268.48929731251445" width="6.3" height="2.1579887019607327" fill="#44aa44" opacity="0.8"/>
<rect x="302.0" y="307.6147001402046" width="6.3" height="22.38529985979541" fill="#44aa44" opacity="0.3"/>
<line x1="317.75" y1="274.45358769481794" x2="317.75" y2="289.960742688807" stroke="#ff4444" stroke-width="1" opacity="0.8"/>
<rect x="312.5" y="285.8399602428519" width="6.3" height="1.9519495796629371" fill="#ff4444" opacity="0.8"/>
<rect x="312.5" y="312.5206861376896" width="6.3" height="17.479313862310402" fill="#ff4444" opacity="0.3"/>
<line x1="328.25" y1="281.632424482245" x2="328.25" y2="299.4276981501723" stroke="#ff4444" stroke-width="1" opacity="0.8"/>
<rect x="323.0" y="287.8244423155092" width="6.3" height="8.252409056241675" fill="#ff4444" opacity="0.8"/>
<rect x="323.0" y="316.50738709634277" width="6.3" height="13.492612903657257" fill="#ff4444" opacity="0.3"/>
<line x1="338.75" y1="281.9902819051832" x2="338.75" y2="293.9080185054587" stroke="#ff4444" stroke-width="1" opacity="0.8"/>
<rect x="333.5" y="288.98476789897546" width="6.3" height="3.925587487988878" fill="#ff4444" opacity="0.8"/>
<rect x="333.5" y="319.22772541831887" width="6.3" height="10.772274581681158" fill="#ff4444" opacity="0.3"/>
<line x1="349.25" y1="288.6485988047002" x2="349.25" y2="307.27887312614996" stroke="#44aa44" stroke-width="1" opacity="0.8"/>
<rect x="344.0" y="290.5354833983744" width="6.3" height="13.533517085663107" fill="#44aa44" opacity="0.8"/>
<rect x="344.0" y="311.3044854586232" width="6.3" height="18.695514541376802" fill="#44aa44" opacity="0.3"/>
<line x1="359.75" y1="286.9243766759979" x2="359.75" y2="306.03179422803197" stroke="#44aa44" stroke-width="1" opacity="0.8"/>
<rect x="354.5" y="289.0932095422901" width="6.3" height="1" fill="#44aa44" opacity="0.8"/>
<rect x="354.5" y="310.5524282675782" width="6.3" height="19.447571732421817" fill="#44aa44" opacity="0.3"/>
<line x1="370.25" y1="283.31326995362144" x2="370.25" y2="308.1897829299927" stroke="#44aa44" stroke-width="1" opacity="0.8"/>
<rect x="365.0" y="293.2465244812396" width="6.3" height="12.004489914927206" fill="#44aa44" opacity="0.8"/>
<rect x="365.0" y="311.7796254991419" width="6.3" height="18.220374500858117" fill="#44aa44" opacity="0.3"/>
<line x1="380.75" y1="299.66626976546445" x2="380.75" y2="311.020109820504" stroke="#44aa44" stroke-width="1" opacity="0.8"/>
<rect x="375.5" y="302.2146483833577" width="6.3" height="8.805461437146278" fill="#44aa44" opacity="0.8"/>
<rect x="375.5" y="319.97890451342147" width="6.3" height="10.021095486578549" fill="#44aa44" opacity="0.3"/>
<line x1="391.25" y1="296.85763120361605" x2="391.25" y2="304.69796201526225" stroke="#ff4444" stroke-width="1" opacity="0.8"/>
<rect x="386.0" y="303.2448439948465" width="6.3" height="1.0301956114887503" fill="#ff4444" opacity="0.8"/>
<rect x="386.0" y="317.8028054043856" width="6.3" height="12.197194595614388" fill="#ff4444" opacity="0.3"/>
<line x1="401.75" y1="287.27138993460466" x2="401.75" y2="299.93737387375097" stroke="#ff4444" stroke-width="1" opacity="0.8"/>
<rect x="396.5" y="288.16061140978445" width="6.3" height="2.0170145656517207" fill="#ff4444" opacity="0.8"/>
<rect x="396.5" y="309.58216132724243" width="6.3" height="20.41783867275757" fill="#ff4444" opacity="0.3"/>
<line x1="412.25" y1="280.85164465037985" x2="412.25" y2="295.5997081411666" stroke="#ff4444" stroke-width="1" opacity="0.8"/>
<rect x="407.0" y="284.98327126066647" width="6.3" height="8.447604014207968" fill="#ff4444" opacity="0.8"/>
<rect x="407.0" y="314.24027712275955" width="6.3" height="15.759722877240444" fill="#ff4444" opacity="0.3"/>
<line x1="422.75" y1="265.12760636976157" x2="422.75" y2="279.43105912295846" stroke="#ff4444" stroke-width="1" opacity="0.8"/>
<rect x="417.5" y="272.55585893681234" width="6.3" height="4.662990662528159" fill="#ff4444" opacity="0.8"/>
<rect x="417.5" y="310.40212557370114" width="6.3" height="19.597874426298883" fill="#ff4444" opacity="0.3"/>
<line x1="433.25" y1="266.3746852678796" x2="433.25" y2="278.24904521082925" stroke="#ff4444" stroke-width="1" opacity="0.8"/>
<rect x="428.0" y="274.1499510935371" width="6.3" height="4.012340802640438" fill="#ff4444" opacity="0.8"/>
<rect x="428.0" y="315.2396404408955" width="6.3" height="14.760359559104455" fill="#ff4444" opacity="0.3"/>
<line x1="443.75" y1="247.88538508273885" x2="443.75" y2="270.6581301788067" stroke="#ff4444" stroke-width="1" opacity="0.8"/>
<rect x="438.5" y="254.35935118862102" width="6.3" height="14.856505134101326" fill="#ff4444" opacity="0.8"/>
<rect x="438.5" y="309.11930881471255" width="6.3" height="20.880691185287464" fill="#ff4444" opacity="0.3"/>
<line x1="454.25" y1="249.12161981652537" x2="454.25" y2="263.6094233633571" stroke="#44aa44" stroke-width="1" opacity="0.8"/>
<rect x="449.0" y="252.11460917200856" width="6.3" height="8.295785713567568" fill="#44aa44" opacity="0.8"/>
<rect x="449.0" y="315.0980663695983" width="6.3" height="14.901933630401693" fill="#44aa44" opacity="0.3"/>
<line x1="464.75" y1="253.45928554910972" x2="464.75" y2="268.0880632322504" stroke="#ff4444" stroke-width="1" opacity="0.8"/>
<rect x="459.5" y="260.70318732252554" width="6.3" height="1" fill="#ff4444" opacity="0.8"/>
<rect x="459.5" y="315.3004035170692" width="6.3" height="14.699596482930836" fill="#ff4444" opacity="0.3"/>
<line x1="475.25" y1="255.47630011476144" x2="475.25" y2="268.48929731251445" stroke="#ff4444" stroke-width="1" opacity="0.8"/>
<rect x="470.0" y="261.44059049706493" width="6.3" height="3.762925023016919" fill="#ff4444" opacity="0.8"/>
<rect x="470.0" y="316.0792426343576" width="6.3" height="13.920757365642391" fill="#ff4444" opacity="0.3"/>
<line x1="485.75" y1="251.68084259875013" x2="485.75" y2="264.56370982452563" stroke="#ff4444" stroke-width="1" opacity="0.8"/>
<rect x="480.5" y="253.95811710835693" width="6.3" height="6.365524462567521" fill="#ff4444" opacity="0.8"/>
<rect x="480.5" y="316.79743207196833" width="6.3" height="13.202567928031689" fill="#ff4444" opacity="0.3"/>
<line x1="496.25" y1="244.63213578330058" x2="496.25" y2="267.67598498765494" stroke="#ff4444" stroke-width="1" opacity="0.8"/>
<rect x="491.0" y="249.94577630571638" width="6.3" height="5.530523809045064" fill="#ff4444" opacity="0.8"/>
<rect x="491.0" y="314.6174454984457" width="6.3" height="15.38255450155428" fill="#ff4444" opacity="0.3"/>
<line x1="506.75" y1="247.1262935795366" x2="506.75" y2="260.8983822804919" stroke="#44aa44" stroke-width="1" opacity="0.8"/>
<rect x="501.5" y="251.4314268191265" width="6.3" height="1" fill="#44aa44" opacity="0.8"/>
<rect x="501.5" y="310.3623873709035" width="6.3" height="19.63761262909651" fill="#44aa44" opacity="0.3"/>
<line x1="517.25" y1="241.92109470043536" x2="517.25" y2="265.6589704220032" stroke="#44aa44" stroke-width="1" opacity="0.8"/>
<rect x="512.0" y="243.53687518582305" width="6.3" height="16.136116525213737" fill="#44aa44" opacity="0.8"/>
<rect x="512.0" y="315.3382808542935" width="6.3" height="14.661719145706522" fill="#44aa44" opacity="0.3"/>
<line x1="527.75" y1="254.89071524086253" x2="527.75" y2="271.7425466119527" stroke="#44aa44" stroke-width="1" opacity="0.8"/>
<rect x="522.5" y="261.559876304711" width="6.3" height="3.0472101771405278" fill="#44aa44" opacity="0.8"/>
<rect x="522.5" y="317.6106245123016" width="6.3" height="12.389375487698391" fill="#44aa44" opacity="0.3"/>
<line x1="538.25" y1="259.8139658473458" x2="538.25" y2="270.6581301788067" stroke="#44aa44" stroke-width="1" opacity="0.8"/>
<rect x="533.0" y="262.73104605250876" width="6.3" height="1" fill="#44aa44" opacity="0.8"/>
<rect x="533.0" y="318.469661120595" width="6.3" height="11.530338879405027" fill="#44aa44" opacity="0.3"/>
<line x1="548.75" y1="239.6546643551601" x2="548.75" y2="265.94091869462113" stroke="#ff4444" stroke-width="1" opacity="0.8"/>
<rect x="543.5" y="249.12161981652537" width="6.3" height="11.679164984983345" fill="#ff4444" opacity="0.8"/>
<rect x="543.5" y="308.1928332750013" width="6.3" height="21.80716672499871" fill="#ff4444" opacity="0.3"/>
<line x1="559.25" y1="245.84668218842418" x2="559.25" y2="278.2707335394922" stroke="#44aa44" stroke-width="1" opacity="0.8"/>
<rect x="554.0" y="248.74207406492428" width="6.3" height="9.228383846073143" fill="#44aa44" opacity="0.8"/>
<rect x="554.0" y="298.0258750034995" width="6.3" height="31.974124996500493" fill="#44aa44" opacity="0.3"/>
<line x1="569.75" y1="241.34635399086795" x2="569.75" y2="266.2987761175594" stroke="#44aa44" stroke-width="1" opacity="0.8"/>
<rect x="564.5" y="253.30746724846927" width="6.3" height="1" fill="#44aa44" opacity="0.8"/>
<rect x="564.5" y="303.0552945405444" width="6.3" height="26.944705459455605" fill="#44aa44" opacity="0.3"/>
<line x1="580.25" y1="197.40580011978852" x2="580.25" y2="234.8723878849858" stroke="#ff4444" stroke-width="1" opacity="0.8"/>
<rect x="575.0" y="202.86041477851336" width="6.3" height="30.9600891663207" fill="#ff4444" opacity="0.8"/>
<rect x="575.0" y="298.5600888031635" width="6.3" height="31.43991119683646" fill="#ff4444" opacity="0.3"/>
<line x1="590.75" y1="199.5312563287549" x2="590.75" y2="213.31418919404163" stroke="#ff4444" stroke-width="1" opacity="0.8"/>
<rect x="585.5" y="202.3398948906032" width="6.3" height="1.0844164331461172" fill="#ff4444" opacity="0.8"/>
<rect x="585.5" y="310.12905227362467" width="6.3" height="19.870947726375338" fill="#ff4444" opacity="0.3"/>
<line x1="601.25" y1="195.11768144585025" x2="601.25" y2="209.605484992682" stroke="#ff4444" stroke-width="1" opacity="0.8"/>
<rect x="596.0" y="203.96651954032234" width="6.3" height="2.7110410828652505" fill="#ff4444" opacity="0.8"/>
<rect x="596.0" y="313.65616304970615" width="6.3" height="16.34383695029387" fill="#ff4444" opacity="0.3"/>
<line x1="611.75" y1="135.10607603554593" x2="611.75" y2="176.4223421384118" stroke="#ff4444" stroke-width="1" opacity="0.8"/>
<rect x="606.5" y="135.10607603554593" width="6.3" height="34.95074164029836" fill="#ff4444" opacity="0.8"/>
<rect x="606.5" y="299.6490789670767" width="6.3" height="30.35092103292328" fill="#ff4444" opacity="0.3"/>
<line x1="622.25" y1="105.63163738263529" x2="622.25" y2="139.44374176813025" stroke="#ff4444" stroke-width="1" opacity="0.8"/>
<rect x="617.0" y="115.74924270388824" width="6.3" height="11.516502520011457" fill="#ff4444" opacity="0.8"/>
<rect x="617.0" y="295.0" width="6.3" height="35.0" fill="#ff4444" opacity="0.3"/>
<line x1="632.75" y1="66.5384249677189" x2="632.75" y2="123.56788518687156" stroke="#ff4444" stroke-width="1" opacity="0.8"/>
<rect x="627.5" y="70.04109004678077" width="6.3" height="52.87614528020313" fill="#ff4444" opacity="0.8"/>
<rect x="627.5" y="295.65383838000355" width="6.3" height="34.346161619996465" fill="#ff4444" opacity="0.3"/>
<line x1="643.25" y1="75.60414634882017" x2="643.25" y2="95.74175951234298" stroke="#44aa44" stroke-width="1" opacity="0.8"/>
<rect x="638.0" y="81.459995087809" width="6.3" height="9.434422968370995" fill="#44aa44" opacity="0.8"/>
<rect x="638.0" y="302.988658107405" width="6.3" height="27.01134189259499" fill="#44aa44" opacity="0.3"/>
<line x1="653.75" y1="88.60629938224176" x2="653.75" y2="121.96294886581535" stroke="#44aa44" stroke-width="1" opacity="0.8"/>
<rect x="648.5" y="90.89441805618" width="6.3" height="18.727871800432894" fill="#44aa44" opacity="0.8"/>
<rect x="648.5" y="303.2782698502643" width="6.3" height="26.72173014973571" fill="#44aa44" opacity="0.3"/>
<line x1="664.25" y1="82.62032067127538" x2="664.25" y2="114.01417641085455" stroke="#ff4444" stroke-width="1" opacity="0.8"/>
<rect x="659.0" y="100.40475017487115" width="6.3" height="13.609426235983392" fill="#ff4444" opacity="0.8"/>
<rect x="659.0" y="307.9919150375301" width="6.3" height="22.008084962469916" fill="#ff4444" opacity="0.3"/>
<line x1="674.75" y1="88.02071450834285" x2="674.75" y2="122.7979495193378" stroke="#ff4444" stroke-width="1" opacity="0.8"/>
<rect x="669.5" y="88.72558518988784" width="6.3" height="19.55202828962389" fill="#ff4444" opacity="0.8"/>
<rect x="669.5" y="309.55855741048595" width="6.3" height="20.44144258951407" fill="#ff4444" opacity="0.3"/>
<rect x="135.25" y="299.19062317318924" width="8" height="8" fill="#ff9800" opacity="0.85"/>
<text x="139.25" y="296.19062317318924" text-anchor="middle" font-size="8" font-weight="bold" fill="#ff9800">前低</text>
<rect x="208.75" y="266.6581301788067" width="8" height="8" fill="#2196f3" opacity="0.85"/>
<text x="212.75" y="263.6581301788067" text-anchor="middle" font-size="8" font-weight="bold" fill="#2196f3">中</text>
<rect x="261.25" y="212.44815268583378" width="8" height="8" fill="#ff9800" opacity="0.85"/>
<text x="265.25" y="209.44815268583378" text-anchor="middle" font-size="8" font-weight="bold" fill="#ff9800">前高</text>
<rect x="376.75" y="307.020109820504" width="8" height="8" fill="#ff9800" opacity="0.85"/>
<text x="380.75" y="304.020109820504" text-anchor="middle" font-size="8" font-weight="bold" fill="#ff9800">前低</text>
<rect x="439.75" y="243.88538508273885" width="8" height="8" fill="#ff9800" opacity="0.85"/>
<text x="443.75" y="240.88538508273885" text-anchor="middle" font-size="8" font-weight="bold" fill="#ff9800">前高</text>
<rect x="534.25" y="259.70702084234017" width="8" height="8" fill="#2196f3" opacity="0.85"/>
<text x="538.25" y="256.70702084234017" text-anchor="middle" font-size="8" font-weight="bold" fill="#2196f3">中</text>
<rect x="555.25" y="274.2707335394922" width="8" height="8" fill="#ff9800" opacity="0.85"/>
<text x="559.25" y="271.2707335394922" text-anchor="middle" font-size="8" font-weight="bold" fill="#ff9800">前低</text>
<rect x="586.75" y="198.3398948906032" width="8" height="8" fill="#2196f3" opacity="0.85"/>
<text x="590.75" y="195.3398948906032" text-anchor="middle" font-size="8" font-weight="bold" fill="#2196f3">中</text>
<rect x="628.75" y="62.538424967718896" width="8" height="8" fill="#ff9800" opacity="0.85"/>
<text x="632.75" y="59.538424967718896" text-anchor="middle" font-size="8" font-weight="bold" fill="#ff9800">前高</text>
<rect x="660.25" y="96.40475017487115" width="8" height="8" fill="#2196f3" opacity="0.85"/>
<text x="664.25" y="93.40475017487115" text-anchor="middle" font-size="8" font-weight="bold" fill="#2196f3">中</text>
<rect x="670.75" y="84.72558518988784" width="8" height="8" fill="#2196f3" opacity="0.85"/>
<text x="674.75" y="81.72558518988784" text-anchor="middle" font-size="8" font-weight="bold" fill="#2196f3">中</text>
<line x1="674.75" y1="88.72558518988784" x2="674.75" y2="42" stroke="#4caf50" stroke-width="1" stroke-dasharray="3,2"/>
<rect x="654.75" y="28" width="40" height="14" rx="3" fill="#2563eb" opacity="0.9"/>
<text x="674.75" y="38" text-anchor="middle" font-size="9" font-weight="bold" fill="white">关注</text>
<text x="55.25" y="355" fill="#666666" font-size="8" text-anchor="middle" transform="rotate(-30,55.25,355)">02/11</text>
<text x="107.75" y="355" fill="#666666" font-size="8" text-anchor="middle" transform="rotate(-30,107.75,355)">02/26</text>
<text x="160.25" y="355" fill="#666666" font-size="8" text-anchor="middle" transform="rotate(-30,160.25,355)">03/05</text>
<text x="212.75" y="355" fill="#666666" font-size="8" text-anchor="middle" transform="rotate(-30,212.75,355)">03/12</text>
<text x="265.25" y="355" fill="#666666" font-size="8" text-anchor="middle" transform="rotate(-30,265.25,355)">03/19</text>
<text x="317.75" y="355" fill="#666666" font-size="8" text-anchor="middle" transform="rotate(-30,317.75,355)">03/26</text>
<text x="370.25" y="355" fill="#666666" font-size="8" text-anchor="middle" transform="rotate(-30,370.25,355)">04/02</text>
<text x="422.75" y="355" fill="#666666" font-size="8" text-anchor="middle" transform="rotate(-30,422.75,355)">04/10</text>
<text x="475.25" y="355" fill="#666666" font-size="8" text-anchor="middle" transform="rotate(-30,475.25,355)">04/17</text>
<text x="527.75" y="355" fill="#666666" font-size="8" text-anchor="middle" transform="rotate(-30,527.75,355)">04/24</text>
<text x="580.25" y="355" fill="#666666" font-size="8" text-anchor="middle" transform="rotate(-30,580.25,355)">05/06</text>
<text x="632.75" y="355" fill="#666666" font-size="8" text-anchor="middle" transform="rotate(-30,632.75,355)">05/13</text>
<text x="674.75" y="355" fill="#666666" font-size="8" text-anchor="middle" transform="rotate(-30,674.75,355)">05/19</text>
<rect x="50" y="334" width="7" height="7" fill="#ff9800" opacity="0.8" rx="1"/>
<text x="60" y="340" font-family="sans-serif" font-size="8" fill="#888888">第1类</text>
<rect x="120" y="334" width="7" height="7" fill="#2196f3" opacity="0.8" rx="1"/>
<text x="130" y="340" font-family="sans-serif" font-size="8" fill="#888888">第2类</text>
<rect x="190" y="334" width="7" height="7" fill="#ffd700" opacity="0.8" rx="1"/>
<text x="200" y="340" font-family="sans-serif" font-size="8" fill="#888888">EMA5</text>
<rect x="260" y="334" width="7" height="7" fill="#ff6b6b" opacity="0.8" rx="1"/>
<text x="270" y="340" font-family="sans-serif" font-size="8" fill="#888888">EMA10</text>
<rect x="330" y="334" width="7" height="7" fill="#4ecdc4" opacity="0.8" rx="1"/>
<text x="340" y="340" font-family="sans-serif" font-size="8" fill="#888888">EMA20</text>
</svg>