<svg xmlns="http://www.w3.org/2000/svg" width="700" height="380" viewBox="0 0 700 380">
<rect width="700" height="380" fill="#1a1a2e"/>
<text x="350" y="16" text-anchor="middle" font-family="sans-serif" font-size="13" font-weight="bold" fill="#fff">ST豆神(300010) 关键点图</text>
<line x1="50" y1="249.98062953995154" x2="680" y2="249.98062953995154" stroke="#2a2a4e" stroke-width="0.5"/>
<text x="46" y="252.98062953995154" text-anchor="end" font-size="9" fill="#666">3</text>
<line x1="50" y1="188.23728813559322" x2="680" y2="188.23728813559322" stroke="#2a2a4e" stroke-width="0.5"/>
<text x="46" y="191.23728813559322" text-anchor="end" font-size="9" fill="#666">4</text>
<line x1="50" y1="126.49394673123486" x2="680" y2="126.49394673123486" stroke="#2a2a4e" stroke-width="0.5"/>
<text x="46" y="129.49394673123487" text-anchor="end" font-size="9" fill="#666">5</text>
<line x1="50" y1="64.75060532687652" x2="680" y2="64.75060532687652" stroke="#2a2a4e" stroke-width="0.5"/>
<text x="46" y="67.75060532687652" text-anchor="end" font-size="9" fill="#666">6</text>
<polyline points="57.9,24.6 73.6,28.7 89.4,34.8 105.1,47.4 120.9,51.6 136.6,49.2 152.4,51.3 168.1,52.1 183.9,53.0 199.6,53.2 215.4,52.9 231.1,56.5 246.9,61.3 262.6,64.3 278.4,58.9 294.1,59.8 309.9,58.2 325.6,57.7 341.4,56.5 357.1,57.6 372.9,56.3 388.6,56.9 404.4,57.0 420.1,59.4 435.9,62.4 451.6,66.7 467.4,77.0 483.1,85.0 498.9,97.6 514.6,105.0 530.4,130.9 546.1,165.0 561.9,187.8 577.6,202.1 593.4,214.0 609.1,222.1 624.9,232.6 640.6,244.8 656.4,251.7 672.1,249.9" fill="none" stroke="#ffd700" stroke-width="1" opacity="0.6"/>
<polyline points="57.9,24.6 73.6,26.9 89.4,30.5 105.1,38.2 120.9,42.1 136.6,42.5 152.4,44.9 168.1,46.5 183.9,48.0 199.6,49.0 215.4,49.6 231.1,52.2 246.9,55.6 262.6,58.3 278.4,56.4 294.1,57.4 309.9,56.9 325.6,56.9 341.4,56.4 357.1,57.0 372.9,56.4 388.6,56.7 404.4,56.8 420.1,58.1 435.9,60.0 451.6,62.8 467.4,69.1 483.1,74.9 498.9,83.6 514.6,90.2 530.4,107.0 546.1,130.0 561.9,148.8 577.6,163.7 593.4,177.1 609.1,188.2 624.9,200.1 640.6,212.7 656.4,222.3 672.1,226.6" fill="none" stroke="#ff6b6b" stroke-width="1" opacity="0.6"/>
<line x1="57.875" y1="24.0" x2="57.875" y2="33.878934624697344" stroke="#ff4444" stroke-width="1" opacity="0.8"/>
<rect x="53.15" y="24.61743341404357" width="9.45" height="3.7046004842615297" fill="#ff4444" opacity="0.8" rx="0.5"/>
<rect x="53.15" y="323.69270228158325" width="9.45" height="11.307297718416748" fill="#ff4444" opacity="0.2" rx="0.5"/>
<line x1="73.625" y1="29.556900726392243" x2="73.625" y2="40.053268765133154" stroke="#44aa44" stroke-width="1" opacity="0.8"/>
<rect x="68.9" y="30.79176755447944" width="9.45" height="6.174334140435814" fill="#44aa44" opacity="0.8" rx="0.5"/>
<rect x="68.9" y="323.1180545470146" width="9.45" height="11.881945452985406" fill="#44aa44" opacity="0.2" rx="0.5"/>
<line x1="89.375" y1="33.261501210653776" x2="89.375" y2="46.84503631961259" stroke="#44aa44" stroke-width="1" opacity="0.8"/>
<rect x="84.65" y="36.34866828087168" width="9.45" height="10.496368038740911" fill="#44aa44" opacity="0.8" rx="0.5"/>
<rect x="84.65" y="322.54075415184303" width="9.45" height="12.459245848156968" fill="#44aa44" opacity="0.2" rx="0.5"/>
<line x1="105.125" y1="53.636803874092024" x2="105.125" y2="77.71670702179176" stroke="#44aa44" stroke-width="1" opacity="0.8"/>
<rect x="100.4" y="55.48910411622274" width="9.45" height="17.288135593220353" fill="#44aa44" opacity="0.8" rx="0.5"/>
<rect x="100.4" y="315.681236172001" width="9.45" height="19.31876382799902" fill="#44aa44" opacity="0.2" rx="0.5"/>
<line x1="120.875" y1="59.193704600484274" x2="120.875" y2="70.92493946731233" stroke="#ff4444" stroke-width="1" opacity="0.8"/>
<rect x="116.15" y="59.81113801452784" width="9.45" height="4.9394673123486825" fill="#ff4444" opacity="0.8" rx="0.5"/>
<rect x="116.15" y="321.9346907637105" width="9.45" height="13.065309236289522" fill="#ff4444" opacity="0.2" rx="0.5"/>
<line x1="136.625" y1="38.81840193704601" x2="136.625" y2="57.958837772397075" stroke="#ff4444" stroke-width="1" opacity="0.8"/>
<rect x="131.9" y="44.37530266343826" width="9.45" height="13.583535108958813" fill="#ff4444" opacity="0.8" rx="0.5"/>
<rect x="131.9" y="316.56310037960907" width="9.45" height="18.436899620390932" fill="#ff4444" opacity="0.2" rx="0.5"/>
<line x1="152.375" y1="44.37530266343826" x2="152.375" y2="60.42857142857141" stroke="#44aa44" stroke-width="1" opacity="0.8"/>
<rect x="147.65" y="47.462469733656164" width="9.45" height="8.026634382566577" fill="#44aa44" opacity="0.8" rx="0.5"/>
<rect x="147.65" y="322.13148522544327" width="9.45" height="12.86851477455673" fill="#44aa44" opacity="0.2" rx="0.5"/>
<line x1="168.125" y1="53.01937046004841" x2="168.125" y2="62.89830508474575" stroke="#ff4444" stroke-width="1" opacity="0.8"/>
<rect x="163.4" y="53.636803874092024" width="9.45" height="7.409200968523017" fill="#ff4444" opacity="0.8" rx="0.5"/>
<rect x="163.4" y="326.8441494401054" width="9.45" height="8.155850559894589" fill="#ff4444" opacity="0.2" rx="0.5"/>
<line x1="183.875" y1="54.2542372881356" x2="183.875" y2="64.13317191283295" stroke="#ff4444" stroke-width="1" opacity="0.8"/>
<rect x="179.15" y="54.87167070217917" width="9.45" height="5.556900726392236" fill="#ff4444" opacity="0.8" rx="0.5"/>
<rect x="179.15" y="325.2957645980137" width="9.45" height="9.704235401986296" fill="#ff4444" opacity="0.2" rx="0.5"/>
<line x1="199.625" y1="41.288135593220346" x2="199.625" y2="54.87167070217917" stroke="#44aa44" stroke-width="1" opacity="0.8"/>
<rect x="194.9" y="46.84503631961259" width="9.45" height="6.791767554479435" fill="#44aa44" opacity="0.8" rx="0.5"/>
<rect x="194.9" y="319.0779509098924" width="9.45" height="15.922049090107578" fill="#44aa44" opacity="0.2" rx="0.5"/>
<line x1="215.375" y1="44.99273607748182" x2="215.375" y2="55.48910411622274" stroke="#44aa44" stroke-width="1" opacity="0.8"/>
<rect x="210.65" y="46.22760290556902" width="9.45" height="6.1743341404358105" fill="#44aa44" opacity="0.8" rx="0.5"/>
<rect x="210.65" y="324.4890370652175" width="9.45" height="10.510962934782526" fill="#44aa44" opacity="0.2" rx="0.5"/>
<line x1="231.125" y1="54.87167070217917" x2="231.125" y2="64.13317191283295" stroke="#44aa44" stroke-width="1" opacity="0.8"/>
<rect x="226.4" y="55.48910411622274" width="9.45" height="8.026634382566634" fill="#44aa44" opacity="0.8" rx="0.5"/>
<rect x="226.4" y="326.60773779399517" width="9.45" height="8.39226220600483" fill="#44aa44" opacity="0.2" rx="0.5"/>
<line x1="246.875" y1="60.42857142857141" x2="246.875" y2="71.54237288135596" stroke="#44aa44" stroke-width="1" opacity="0.8"/>
<rect x="242.15" y="61.04600484261504" width="9.45" height="9.878934624697287" fill="#44aa44" opacity="0.8" rx="0.5"/>
<rect x="242.15" y="328.14750374755675" width="9.45" height="6.852496252443245" fill="#44aa44" opacity="0.2" rx="0.5"/>
<line x1="262.625" y1="67.83777239709443" x2="262.625" y2="74.01210653753029" stroke="#ff4444" stroke-width="1" opacity="0.8"/>
<rect x="257.9" y="70.30750605326875" width="9.45" height="1.2348668280872062" fill="#ff4444" opacity="0.8" rx="0.5"/>
<rect x="257.9" y="327.07590366317925" width="9.45" height="7.924096336820753" fill="#ff4444" opacity="0.2" rx="0.5"/>
<line x1="278.375" y1="47.462469733656164" x2="278.375" y2="64.13317191283295" stroke="#ff4444" stroke-width="1" opacity="0.8"/>
<rect x="273.65" y="48.07990314769979" width="9.45" height="15.435835351089587" fill="#ff4444" opacity="0.8" rx="0.5"/>
<rect x="273.65" y="315.1694287782767" width="9.45" height="19.83057122172329" fill="#ff4444" opacity="0.2" rx="0.5"/>
<line x1="294.125" y1="53.01937046004841" x2="294.125" y2="62.280871670702176" stroke="#44aa44" stroke-width="1" opacity="0.8"/>
<rect x="289.4" y="54.87167070217917" width="9.45" height="6.791767554479435" fill="#44aa44" opacity="0.8" rx="0.5"/>
<rect x="289.4" y="322.3341100480025" width="9.45" height="12.665889951997485" fill="#44aa44" opacity="0.2" rx="0.5"/>
<line x1="309.875" y1="45.610169491525454" x2="309.875" y2="59.193704600484274" stroke="#ff4444" stroke-width="1" opacity="0.8"/>
<rect x="305.15" y="54.87167070217917" width="9.45" height="3.704600484261526" fill="#ff4444" opacity="0.8" rx="0.5"/>
<rect x="305.15" y="319.8453814132348" width="9.45" height="15.154618586765196" fill="#ff4444" opacity="0.2" rx="0.5"/>
<line x1="325.625" y1="53.636803874092024" x2="325.625" y2="61.66343825665861" stroke="#ff4444" stroke-width="1" opacity="0.8"/>
<rect x="320.9" y="56.72397094430993" width="9.45" height="3.087167070217909" fill="#ff4444" opacity="0.8" rx="0.5"/>
<rect x="320.9" y="324.81895418454377" width="9.45" height="10.18104581545623" fill="#ff4444" opacity="0.2" rx="0.5"/>
<line x1="341.375" y1="50.549636803874066" x2="341.375" y2="58.5762711864407" stroke="#44aa44" stroke-width="1" opacity="0.8"/>
<rect x="336.65" y="53.01937046004841" width="9.45" height="1.234866828087192" fill="#44aa44" opacity="0.8" rx="0.5"/>
<rect x="336.65" y="323.99472545150536" width="9.45" height="11.00527454849464" fill="#44aa44" opacity="0.2" rx="0.5"/>
<line x1="357.125" y1="52.40193704600483" x2="357.125" y2="61.04600484261504" stroke="#44aa44" stroke-width="1" opacity="0.8"/>
<rect x="352.4" y="52.40193704600483" width="9.45" height="7.40920096852301" fill="#44aa44" opacity="0.8" rx="0.5"/>
<rect x="352.4" y="325.23166459569785" width="9.45" height="9.76833540430215" fill="#44aa44" opacity="0.2" rx="0.5"/>
<line x1="372.875" y1="53.01937046004841" x2="372.875" y2="59.81113801452784" stroke="#ff4444" stroke-width="1" opacity="0.8"/>
<rect x="368.15" y="53.636803874092024" width="9.45" height="6.174334140435818" fill="#ff4444" opacity="0.8" rx="0.5"/>
<rect x="368.15" y="322.48476498182407" width="9.45" height="12.515235018175929" fill="#ff4444" opacity="0.2" rx="0.5"/>
<line x1="388.625" y1="53.636803874092024" x2="388.625" y2="61.66343825665861" stroke="#44aa44" stroke-width="1" opacity="0.8"/>
<rect x="383.9" y="53.636803874092024" width="9.45" height="4.322033898305051" fill="#44aa44" opacity="0.8" rx="0.5"/>
<rect x="383.9" y="324.14743392983115" width="9.45" height="10.852566070168848" fill="#44aa44" opacity="0.2" rx="0.5"/>
<line x1="404.375" y1="54.2542372881356" x2="404.375" y2="60.42857142857141" stroke="#ff4444" stroke-width="1" opacity="0.8"/>
<rect x="399.65" y="57.34140435835351" width="9.45" height="1.234866828087192" fill="#ff4444" opacity="0.8" rx="0.5"/>
<rect x="399.65" y="324.33934982314014" width="9.45" height="10.66065017685986" fill="#ff4444" opacity="0.2" rx="0.5"/>
<line x1="420.125" y1="56.72397094430993" x2="420.125" y2="65.98547215496365" stroke="#44aa44" stroke-width="1" opacity="0.8"/>
<rect x="415.4" y="57.34140435835351" width="9.45" height="6.791767554479442" fill="#44aa44" opacity="0.8" rx="0.5"/>
<rect x="415.4" y="322.2672291063052" width="9.45" height="12.732770893694806" fill="#44aa44" opacity="0.2" rx="0.5"/>
<line x1="435.875" y1="65.98547215496365" x2="435.875" y2="72.7772397094431" stroke="#44aa44" stroke-width="1" opacity="0.8"/>
<rect x="431.15" y="65.98547215496365" width="9.45" height="2.4697336561743555" fill="#44aa44" opacity="0.8" rx="0.5"/>
<rect x="431.15" y="322.85275307455936" width="9.45" height="12.14724692544064" fill="#44aa44" opacity="0.2" rx="0.5"/>
<line x1="451.625" y1="65.98547215496365" x2="451.625" y2="77.09927360774819" stroke="#44aa44" stroke-width="1" opacity="0.8"/>
<rect x="446.9" y="70.30750605326875" width="9.45" height="4.9394673123486825" fill="#44aa44" opacity="0.8" rx="0.5"/>
<rect x="446.9" y="322.3796808131037" width="9.45" height="12.620319186896324" fill="#44aa44" opacity="0.2" rx="0.5"/>
<line x1="467.375" y1="78.33414043583534" x2="467.375" y2="99.94430992736079" stroke="#44aa44" stroke-width="1" opacity="0.8"/>
<rect x="462.65" y="78.33414043583534" width="9.45" height="19.140435835351127" fill="#44aa44" opacity="0.8" rx="0.5"/>
<rect x="462.65" y="313.615978189149" width="9.45" height="21.38402181085098" fill="#44aa44" opacity="0.2" rx="0.5"/>
<line x1="483.125" y1="98.09200968523002" x2="483.125" y2="111.05811138014526" stroke="#ff4444" stroke-width="1" opacity="0.8"/>
<rect x="478.4" y="101.17917675544793" width="9.45" height="2.469733656174327" fill="#ff4444" opacity="0.8" rx="0.5"/>
<rect x="478.4" y="315.69404778917493" width="9.45" height="19.30595221082507" fill="#ff4444" opacity="0.2" rx="0.5"/>
<line x1="498.875" y1="99.94430992736079" x2="498.875" y2="128.34624697336562" stroke="#44aa44" stroke-width="1" opacity="0.8"/>
<rect x="494.15" y="101.17917675544793" width="9.45" height="21.610169491525454" fill="#44aa44" opacity="0.8" rx="0.5"/>
<rect x="494.15" y="303.18057398442744" width="9.45" height="31.81942601557256" fill="#44aa44" opacity="0.2" rx="0.5"/>
<line x1="514.625" y1="114.14527845036318" x2="514.625" y2="128.34624697336562" stroke="#ff4444" stroke-width="1" opacity="0.8"/>
<rect x="509.9" y="119.70217917675541" width="9.45" height="6.791767554479449" fill="#ff4444" opacity="0.8" rx="0.5"/>
<rect x="509.9" y="314.734100108333" width="9.45" height="20.265899891667004" fill="#ff4444" opacity="0.2" rx="0.5"/>
<line x1="530.375" y1="182.68038740920096" x2="530.375" y2="182.68038740920096" stroke="#ff4444" stroke-width="1" opacity="0.8"/>
<line x1="525.65" y1="182.68038740920096" x2="535.1" y2="182.68038740920096" stroke="#ff4444" stroke-width="1.5"/>
<rect x="525.65" y="332.7542902718143" width="9.45" height="2.245709728185716" fill="#ff4444" opacity="0.2" rx="0.5"/>
<line x1="546.125" y1="229.6053268765133" x2="546.125" y2="233.3099273607748" stroke="#ff4444" stroke-width="1" opacity="0.8"/>
<line x1="541.4" y1="233.3099273607748" x2="550.85" y2="233.3099273607748" stroke="#ff4444" stroke-width="1.5"/>
<rect x="541.4" y="289.1527554665585" width="9.45" height="45.84724453344148" fill="#ff4444" opacity="0.2" rx="0.5"/>
<line x1="561.875" y1="230.22276029055686" x2="561.875" y2="238.24939467312345" stroke="#ff4444" stroke-width="1" opacity="0.8"/>
<rect x="557.15" y="233.3099273607748" width="9.45" height="4.3220338983050794" fill="#ff4444" opacity="0.8" rx="0.5"/>
<rect x="557.15" y="279.0" width="9.45" height="56.0" fill="#ff4444" opacity="0.2" rx="0.5"/>
<line x1="577.625" y1="223.43099273607743" x2="577.625" y2="233.3099273607748" stroke="#ff4444" stroke-width="1" opacity="0.8"/>
<line x1="572.9" y1="230.84019370460047" x2="582.35" y2="230.84019370460047" stroke="#ff4444" stroke-width="1.5"/>
<rect x="572.9" y="285.0004917310164" width="9.45" height="49.99950826898362" fill="#ff4444" opacity="0.2" rx="0.5"/>
<line x1="593.375" y1="231.45762711864404" x2="593.375" y2="238.24939467312345" stroke="#44aa44" stroke-width="1" opacity="0.8"/>
<rect x="588.65" y="232.69249394673122" width="9.45" height="4.939467312348654" fill="#44aa44" opacity="0.8" rx="0.5"/>
<rect x="588.65" y="304.55532500793305" width="9.45" height="30.44467499206695" fill="#44aa44" opacity="0.2" rx="0.5"/>
<line x1="609.125" y1="233.9273607748184" x2="609.125" y2="239.48426150121063" stroke="#ff4444" stroke-width="1" opacity="0.8"/>
<line x1="604.4" y1="238.24939467312345" x2="613.85" y2="238.24939467312345" stroke="#ff4444" stroke-width="1.5"/>
<rect x="604.4" y="312.7126816690935" width="9.45" height="22.287318330906487" fill="#ff4444" opacity="0.2" rx="0.5"/>
<line x1="624.875" y1="237.01452784503627" x2="624.875" y2="254.30266343825662" stroke="#44aa44" stroke-width="1" opacity="0.8"/>
<rect x="620.15" y="237.63196125907987" width="9.45" height="16.05326876513317" fill="#44aa44" opacity="0.8" rx="0.5"/>
<rect x="620.15" y="295.7646607141485" width="9.45" height="39.23533928585152" fill="#44aa44" opacity="0.2" rx="0.5"/>
<line x1="640.625" y1="253.68523002421304" x2="640.625" y2="269.7384987893462" stroke="#44aa44" stroke-width="1" opacity="0.8"/>
<rect x="635.9" y="254.92009685230022" width="9.45" height="14.20096852300236" fill="#44aa44" opacity="0.8" rx="0.5"/>
<rect x="635.9" y="292.73190900613235" width="9.45" height="42.268090993867645" fill="#44aa44" opacity="0.2" rx="0.5"/>
<line x1="656.375" y1="262.9467312348668" x2="656.375" y2="279.0" stroke="#ff4444" stroke-width="1" opacity="0.8"/>
<rect x="651.65" y="265.41646489104113" width="9.45" height="6.17433414043586" fill="#ff4444" opacity="0.8" rx="0.5"/>
<rect x="651.65" y="307.33117443203133" width="9.45" height="27.668825567968668" fill="#ff4444" opacity="0.2" rx="0.5"/>
<line x1="672.125" y1="241.95399515738498" x2="672.125" y2="266.6513317191283" stroke="#ff4444" stroke-width="1" opacity="0.8"/>
<rect x="667.4" y="246.27602905569003" width="9.45" height="20.375302663438248" fill="#ff4444" opacity="0.8" rx="0.5"/>
<rect x="667.4" y="293.5221348291138" width="9.45" height="41.47786517088622" fill="#ff4444" opacity="0.2" rx="0.5"/>
<text x="57.875" y="347" text-anchor="middle" font-size="8" fill="#666">03-18</text>
<text x="136.625" y="347" text-anchor="middle" font-size="8" fill="#666">03-25</text>
<text x="215.375" y="347" text-anchor="middle" font-size="8" fill="#666">04-01</text>
<text x="294.125" y="347" text-anchor="middle" font-size="8" fill="#666">04-09</text>
<text x="372.875" y="347" text-anchor="middle" font-size="8" fill="#666">04-16</text>
<text x="451.625" y="347" text-anchor="middle" font-size="8" fill="#666">04-23</text>
<text x="530.375" y="347" text-anchor="middle" font-size="8" fill="#666">05-06</text>
<text x="609.125" y="347" text-anchor="middle" font-size="8" fill="#666">05-13</text>
<text x="672.125" y="347" text-anchor="middle" font-size="8" fill="#666">05-19</text>
<rect x="30" y="363" width="7" height="7" fill="#ff9800" opacity="0.8" rx="1"/>
<text x="40" y="369" font-family="sans-serif" font-size="8" fill="#888">第1类</text>
<rect x="130" y="363" width="7" height="7" fill="#2196f3" opacity="0.8" rx="1"/>
<text x="140" y="369" font-family="sans-serif" font-size="8" fill="#888">第2类</text>
<rect x="230" y="363" width="7" height="7" fill="#ffd700" opacity="0.8" rx="1"/>
<text x="240" y="369" font-family="sans-serif" font-size="8" fill="#888">EMA5</text>
<rect x="330" y="363" width="7" height="7" fill="#ff6b6b" opacity="0.8" rx="1"/>
<text x="340" y="369" font-family="sans-serif" font-size="8" fill="#888">EMA10</text>
</svg>