<svg xmlns="http://www.w3.org/2000/svg" width="700" height="380" viewBox="0 0 700 380">
<rect width="700" height="380" fill="#1a1a2e"/>
<text x="350" y="16" text-anchor="middle" font-family="sans-serif" font-size="13" font-weight="bold" fill="#fff">星徽股份(300464) 关键点图</text>
<line x1="50" y1="264.83333333333326" x2="680" y2="264.83333333333326" stroke="#2a2a4e" stroke-width="0.5"/>
<text x="46" y="267.83333333333326" text-anchor="end" font-size="9" fill="#666">7</text>
<line x1="50" y1="170.38888888888889" x2="680" y2="170.38888888888889" stroke="#2a2a4e" stroke-width="0.5"/>
<text x="46" y="173.38888888888889" text-anchor="end" font-size="9" fill="#666">8</text>
<line x1="50" y1="75.94444444444449" x2="680" y2="75.94444444444449" stroke="#2a2a4e" stroke-width="0.5"/>
<text x="46" y="78.94444444444449" text-anchor="end" font-size="9" fill="#666">9</text>
<polyline points="57.9,228.0 73.6,233.7 89.4,245.9 105.1,237.4 120.9,225.8 136.6,222.8 152.4,216.9 168.1,212.8 183.9,202.4 199.6,184.5 215.4,173.8 231.1,180.2 246.9,181.0 262.6,169.6 278.4,160.7 294.1,157.7 309.9,171.0 325.6,184.0 341.4,200.9 357.1,196.7 372.9,183.8 388.6,169.6 404.4,164.2 420.1,162.2 435.9,165.2 451.6,167.6 467.4,172.0 483.1,172.1 498.9,174.3 514.6,175.9 530.4,171.5 546.1,168.9 561.9,164.7 577.6,153.7 593.4,145.7 609.1,139.5 624.9,137.8 640.6,141.1 656.4,128.5 672.1,94.6" fill="none" stroke="#ffd700" stroke-width="1" opacity="0.6"/>
<polyline points="57.9,228.0 73.6,231.1 89.4,238.3 105.1,235.0 120.9,229.1 136.6,226.8 152.4,222.9 168.1,219.6 183.9,212.7 199.6,201.0 215.4,192.2 231.1,192.4 246.9,190.6 262.6,182.6 278.4,175.4 294.1,171.1 309.9,175.9 325.6,182.1 341.4,191.7 357.1,191.1 372.9,185.1 388.6,177.1 404.4,172.8 420.1,170.1 435.9,170.3 451.6,170.7 467.4,172.5 483.1,172.5 498.9,173.6 514.6,174.6 530.4,172.5 546.1,170.9 561.9,168.2 577.6,161.6 593.4,155.8 609.1,150.5 624.9,147.6 640.6,147.6 656.4,139.6 672.1,119.1" fill="none" stroke="#ff6b6b" stroke-width="1" opacity="0.6"/>
<line x1="57.875" y1="195.88888888888886" x2="57.875" y2="232.72222222222223" stroke="#44aa44" stroke-width="1" opacity="0.8"/>
<rect x="53.15" y="214.77777777777774" width="9.45" height="13.222222222222257" fill="#44aa44" opacity="0.8" rx="0.5"/>
<rect x="53.15" y="304.0158335013313" width="9.45" height="30.984166498668685" fill="#44aa44" opacity="0.2" rx="0.5"/>
<line x1="73.625" y1="209.11111111111111" x2="73.625" y2="247.83333333333334" stroke="#44aa44" stroke-width="1" opacity="0.8"/>
<rect x="68.9" y="218.55555555555551" width="9.45" height="26.444444444444457" fill="#44aa44" opacity="0.8" rx="0.5"/>
<rect x="68.9" y="309.8849441425643" width="9.45" height="25.11505585743572" fill="#44aa44" opacity="0.2" rx="0.5"/>
<line x1="89.375" y1="233.66666666666666" x2="89.375" y2="279.0" stroke="#44aa44" stroke-width="1" opacity="0.8"/>
<rect x="84.65" y="264.83333333333326" width="9.45" height="5.666666666666686" fill="#44aa44" opacity="0.8" rx="0.5"/>
<rect x="84.65" y="307.0687959774825" width="9.45" height="27.931204022517477" fill="#44aa44" opacity="0.2" rx="0.5"/>
<line x1="105.125" y1="217.6111111111111" x2="105.125" y2="264.83333333333326" stroke="#ff4444" stroke-width="1" opacity="0.8"/>
<rect x="100.4" y="220.44444444444446" width="9.45" height="26.444444444444372" fill="#ff4444" opacity="0.8" rx="0.5"/>
<rect x="100.4" y="306.19171123058806" width="9.45" height="28.808288769411945" fill="#ff4444" opacity="0.2" rx="0.5"/>
<line x1="120.875" y1="196.83333333333334" x2="120.875" y2="226.1111111111111" stroke="#ff4444" stroke-width="1" opacity="0.8"/>
<rect x="116.15" y="202.5" width="9.45" height="17.944444444444457" fill="#ff4444" opacity="0.8" rx="0.5"/>
<rect x="116.15" y="309.7114140117413" width="9.45" height="25.288585988258717" fill="#ff4444" opacity="0.2" rx="0.5"/>
<line x1="136.625" y1="202.5" x2="136.625" y2="220.44444444444446" stroke="#44aa44" stroke-width="1" opacity="0.8"/>
<rect x="131.9" y="202.5" width="9.45" height="14.166666666666686" fill="#44aa44" opacity="0.8" rx="0.5"/>
<rect x="131.9" y="316.7870550667689" width="9.45" height="18.212944933231086" fill="#44aa44" opacity="0.2" rx="0.5"/>
<line x1="152.375" y1="201.55555555555554" x2="152.375" y2="228.94444444444446" stroke="#ff4444" stroke-width="1" opacity="0.8"/>
<rect x="147.65" y="205.33333333333334" width="9.45" height="17.9444444444444" fill="#ff4444" opacity="0.8" rx="0.5"/>
<rect x="147.65" y="319.27308145496784" width="9.45" height="15.726918545032163" fill="#ff4444" opacity="0.2" rx="0.5"/>
<line x1="168.125" y1="199.66666666666663" x2="168.125" y2="234.61111111111106" stroke="#ff4444" stroke-width="1" opacity="0.8"/>
<rect x="163.4" y="204.3888888888889" width="9.45" height="12.277777777777771" fill="#ff4444" opacity="0.8" rx="0.5"/>
<rect x="163.4" y="312.4565205993773" width="9.45" height="22.543479400622687" fill="#ff4444" opacity="0.2" rx="0.5"/>
<line x1="183.875" y1="172.27777777777774" x2="183.875" y2="209.11111111111111" stroke="#ff4444" stroke-width="1" opacity="0.8"/>
<rect x="179.15" y="181.72222222222223" width="9.45" height="23.611111111111114" fill="#ff4444" opacity="0.8" rx="0.5"/>
<rect x="179.15" y="296.62963926489834" width="9.45" height="38.370360735101656" fill="#ff4444" opacity="0.2" rx="0.5"/>
<line x1="199.625" y1="144.88888888888897" x2="199.625" y2="191.16666666666663" stroke="#ff4444" stroke-width="1" opacity="0.8"/>
<rect x="194.9" y="148.66666666666663" width="9.45" height="24.555555555555628" fill="#ff4444" opacity="0.8" rx="0.5"/>
<rect x="194.9" y="287.84701490346725" width="9.45" height="47.152985096532746" fill="#ff4444" opacity="0.2" rx="0.5"/>
<line x1="215.375" y1="133.55555555555554" x2="215.375" y2="165.66666666666663" stroke="#ff4444" stroke-width="1" opacity="0.8"/>
<rect x="210.65" y="152.4444444444445" width="9.45" height="6.611111111111143" fill="#ff4444" opacity="0.8" rx="0.5"/>
<rect x="210.65" y="293.5736107085938" width="9.45" height="41.426389291406224" fill="#ff4444" opacity="0.2" rx="0.5"/>
<line x1="231.125" y1="137.33333333333337" x2="231.125" y2="194.94444444444443" stroke="#44aa44" stroke-width="1" opacity="0.8"/>
<rect x="226.4" y="138.27777777777783" width="9.45" height="54.77777777777777" fill="#44aa44" opacity="0.8" rx="0.5"/>
<rect x="226.4" y="301.58187044060327" width="9.45" height="33.41812955939673" fill="#44aa44" opacity="0.2" rx="0.5"/>
<line x1="246.875" y1="170.38888888888889" x2="246.875" y2="191.16666666666663" stroke="#44aa44" stroke-width="1" opacity="0.8"/>
<rect x="242.15" y="177.94444444444446" width="9.45" height="4.7222222222222" fill="#44aa44" opacity="0.8" rx="0.5"/>
<rect x="242.15" y="316.6929285501734" width="9.45" height="18.307071449826594" fill="#44aa44" opacity="0.2" rx="0.5"/>
<line x1="262.625" y1="146.7777777777778" x2="262.625" y2="179.83333333333331" stroke="#ff4444" stroke-width="1" opacity="0.8"/>
<rect x="257.9" y="146.7777777777778" width="9.45" height="17.944444444444372" fill="#ff4444" opacity="0.8" rx="0.5"/>
<rect x="257.9" y="310.47729081647736" width="9.45" height="24.522709183522636" fill="#ff4444" opacity="0.2" rx="0.5"/>
<line x1="278.375" y1="136.38888888888897" x2="278.375" y2="160.94444444444449" stroke="#ff4444" stroke-width="1" opacity="0.8"/>
<rect x="273.65" y="143.0000000000001" width="9.45" height="17.944444444444372" fill="#ff4444" opacity="0.8" rx="0.5"/>
<rect x="273.65" y="314.8549242773666" width="9.45" height="20.145075722633408" fill="#ff4444" opacity="0.2" rx="0.5"/>
<line x1="294.125" y1="126.9444444444444" x2="294.125" y2="153.3888888888889" stroke="#44aa44" stroke-width="1" opacity="0.8"/>
<rect x="289.4" y="141.1111111111111" width="9.45" height="10.388888888889" fill="#44aa44" opacity="0.8" rx="0.5"/>
<rect x="289.4" y="309.7833847043849" width="9.45" height="25.2166152956151" fill="#44aa44" opacity="0.2" rx="0.5"/>
<line x1="309.875" y1="148.66666666666663" x2="309.875" y2="208.16666666666669" stroke="#44aa44" stroke-width="1" opacity="0.8"/>
<rect x="305.15" y="160.00000000000006" width="9.45" height="37.777777777777715" fill="#44aa44" opacity="0.8" rx="0.5"/>
<rect x="305.15" y="293.2428471275204" width="9.45" height="41.757152872479594" fill="#44aa44" opacity="0.2" rx="0.5"/>
<line x1="325.625" y1="178.88888888888889" x2="325.625" y2="217.6111111111111" stroke="#44aa44" stroke-width="1" opacity="0.8"/>
<rect x="320.9" y="192.11111111111114" width="9.45" height="17.9444444444444" fill="#44aa44" opacity="0.8" rx="0.5"/>
<rect x="320.9" y="312.46924233054966" width="9.45" height="22.530757669450338" fill="#44aa44" opacity="0.2" rx="0.5"/>
<line x1="341.375" y1="203.44444444444443" x2="341.375" y2="238.38888888888886" stroke="#44aa44" stroke-width="1" opacity="0.8"/>
<rect x="336.65" y="208.16666666666669" width="9.45" height="26.444444444444372" fill="#44aa44" opacity="0.8" rx="0.5"/>
<rect x="336.65" y="308.4276626897303" width="9.45" height="26.57233731026969" fill="#44aa44" opacity="0.2" rx="0.5"/>
<line x1="357.125" y1="184.5555555555556" x2="357.125" y2="243.11111111111106" stroke="#ff4444" stroke-width="1" opacity="0.8"/>
<rect x="352.4" y="188.33333333333337" width="9.45" height="45.333333333333286" fill="#ff4444" opacity="0.8" rx="0.5"/>
<rect x="352.4" y="300.9959561026762" width="9.45" height="34.00404389732381" fill="#ff4444" opacity="0.2" rx="0.5"/>
<line x1="372.875" y1="151.50000000000009" x2="372.875" y2="204.3888888888889" stroke="#ff4444" stroke-width="1" opacity="0.8"/>
<rect x="368.15" y="158.11111111111106" width="9.45" height="34.94444444444454" fill="#ff4444" opacity="0.8" rx="0.5"/>
<rect x="368.15" y="302.17936298330517" width="9.45" height="32.82063701669483" fill="#ff4444" opacity="0.2" rx="0.5"/>
<line x1="388.625" y1="141.1111111111111" x2="388.625" y2="172.27777777777774" stroke="#ff4444" stroke-width="1" opacity="0.8"/>
<rect x="383.9" y="141.1111111111111" width="9.45" height="18.88888888888897" fill="#ff4444" opacity="0.8" rx="0.5"/>
<rect x="383.9" y="307.9507407115664" width="9.45" height="27.049259288433575" fill="#ff4444" opacity="0.2" rx="0.5"/>
<line x1="404.375" y1="143.9444444444445" x2="404.375" y2="168.50000000000006" stroke="#44aa44" stroke-width="1" opacity="0.8"/>
<rect x="399.65" y="146.7777777777778" width="9.45" height="6.611111111111114" fill="#44aa44" opacity="0.8" rx="0.5"/>
<rect x="399.65" y="315.05790021292563" width="9.45" height="19.94209978707437" fill="#44aa44" opacity="0.2" rx="0.5"/>
<line x1="420.125" y1="143.0000000000001" x2="420.125" y2="163.77777777777774" stroke="#44aa44" stroke-width="1" opacity="0.8"/>
<rect x="415.4" y="156.22222222222223" width="9.45" height="1.8888888888888289" fill="#44aa44" opacity="0.8" rx="0.5"/>
<rect x="415.4" y="318.69574356502216" width="9.45" height="16.304256434977844" fill="#44aa44" opacity="0.2" rx="0.5"/>
<line x1="435.875" y1="156.22222222222223" x2="435.875" y2="181.72222222222223" stroke="#44aa44" stroke-width="1" opacity="0.8"/>
<rect x="431.15" y="158.11111111111106" width="9.45" height="13.222222222222257" fill="#44aa44" opacity="0.8" rx="0.5"/>
<rect x="431.15" y="318.0732363823746" width="9.45" height="16.926763617625397" fill="#44aa44" opacity="0.2" rx="0.5"/>
<line x1="451.625" y1="161.8888888888889" x2="451.625" y2="191.16666666666663" stroke="#ff4444" stroke-width="1" opacity="0.8"/>
<rect x="446.9" y="172.27777777777774" width="9.45" height="3.7777777777778" fill="#ff4444" opacity="0.8" rx="0.5"/>
<rect x="446.9" y="319.52065492003" width="9.45" height="15.479345079970017" fill="#ff4444" opacity="0.2" rx="0.5"/>
<line x1="467.375" y1="170.38888888888889" x2="467.375" y2="195.88888888888886" stroke="#44aa44" stroke-width="1" opacity="0.8"/>
<rect x="462.65" y="170.38888888888889" width="9.45" height="10.388888888888914" fill="#44aa44" opacity="0.8" rx="0.5"/>
<rect x="462.65" y="322.1669179446808" width="9.45" height="12.83308205531921" fill="#44aa44" opacity="0.2" rx="0.5"/>
<line x1="483.125" y1="170.38888888888889" x2="483.125" y2="192.11111111111114" stroke="#ff4444" stroke-width="1" opacity="0.8"/>
<rect x="478.4" y="172.27777777777774" width="9.45" height="9.444444444444485" fill="#ff4444" opacity="0.8" rx="0.5"/>
<rect x="478.4" y="317.19415046428446" width="9.45" height="17.805849535715538" fill="#ff4444" opacity="0.2" rx="0.5"/>
<line x1="498.875" y1="162.83333333333334" x2="498.875" y2="225.16666666666666" stroke="#44aa44" stroke-width="1" opacity="0.8"/>
<rect x="494.15" y="176.05555555555554" width="9.45" height="2.833333333333343" fill="#44aa44" opacity="0.8" rx="0.5"/>
<rect x="494.15" y="309.9810718303554" width="9.45" height="25.018928169644596" fill="#44aa44" opacity="0.2" rx="0.5"/>
<line x1="514.625" y1="161.8888888888889" x2="514.625" y2="184.5555555555556" stroke="#44aa44" stroke-width="1" opacity="0.8"/>
<rect x="509.9" y="177.00000000000003" width="9.45" height="1.8888888888888573" fill="#44aa44" opacity="0.8" rx="0.5"/>
<rect x="509.9" y="318.13593879356637" width="9.45" height="16.864061206433632" fill="#44aa44" opacity="0.2" rx="0.5"/>
<line x1="530.375" y1="161.8888888888889" x2="530.375" y2="178.88888888888889" stroke="#ff4444" stroke-width="1" opacity="0.8"/>
<rect x="525.65" y="162.83333333333334" width="9.45" height="13.2222222222222" fill="#ff4444" opacity="0.8" rx="0.5"/>
<rect x="525.65" y="315.8376422752316" width="9.45" height="19.162357724768412" fill="#ff4444" opacity="0.2" rx="0.5"/>
<line x1="546.125" y1="155.27777777777777" x2="546.125" y2="179.83333333333331" stroke="#44aa44" stroke-width="1" opacity="0.8"/>
<rect x="541.4" y="160.94444444444449" width="9.45" height="2.8333333333332575" fill="#44aa44" opacity="0.8" rx="0.5"/>
<rect x="541.4" y="315.22271095496757" width="9.45" height="19.777289045032433" fill="#44aa44" opacity="0.2" rx="0.5"/>
<line x1="561.875" y1="151.50000000000009" x2="561.875" y2="169.44444444444449" stroke="#ff4444" stroke-width="1" opacity="0.8"/>
<rect x="557.15" y="156.22222222222223" width="9.45" height="11.3333333333334" fill="#ff4444" opacity="0.8" rx="0.5"/>
<rect x="557.15" y="312.2479699726304" width="9.45" height="22.752030027369585" fill="#ff4444" opacity="0.2" rx="0.5"/>
<line x1="577.625" y1="123.1666666666667" x2="577.625" y2="175.11111111111111" stroke="#ff4444" stroke-width="1" opacity="0.8"/>
<rect x="572.9" y="131.66666666666669" width="9.45" height="17.9444444444444" fill="#ff4444" opacity="0.8" rx="0.5"/>
<rect x="572.9" y="305.60879864945446" width="9.45" height="29.391201350545543" fill="#ff4444" opacity="0.2" rx="0.5"/>
<line x1="593.375" y1="115.61111111111113" x2="593.375" y2="153.3888888888889" stroke="#ff4444" stroke-width="1" opacity="0.8"/>
<rect x="588.65" y="129.77777777777783" width="9.45" height="4.722222222222115" fill="#ff4444" opacity="0.8" rx="0.5"/>
<rect x="588.65" y="312.96853454386496" width="9.45" height="22.031465456135038" fill="#ff4444" opacity="0.2" rx="0.5"/>
<line x1="609.125" y1="112.77777777777786" x2="609.125" y2="142.05555555555551" stroke="#ff4444" stroke-width="1" opacity="0.8"/>
<rect x="604.4" y="126.9444444444444" width="9.45" height="5.666666666666686" fill="#ff4444" opacity="0.8" rx="0.5"/>
<rect x="604.4" y="312.4654543993579" width="9.45" height="22.534545600642105" fill="#ff4444" opacity="0.2" rx="0.5"/>
<line x1="624.875" y1="123.1666666666667" x2="624.875" y2="150.5555555555555" stroke="#44aa44" stroke-width="1" opacity="0.8"/>
<rect x="620.15" y="123.1666666666667" width="9.45" height="11.333333333333243" fill="#44aa44" opacity="0.8" rx="0.5"/>
<rect x="620.15" y="306.2548910640508" width="9.45" height="28.74510893594919" fill="#44aa44" opacity="0.2" rx="0.5"/>
<line x1="640.625" y1="106.16666666666673" x2="640.625" y2="160.00000000000006" stroke="#44aa44" stroke-width="1" opacity="0.8"/>
<rect x="635.9" y="121.27777777777784" width="9.45" height="26.444444444444386" fill="#44aa44" opacity="0.8" rx="0.5"/>
<rect x="635.9" y="305.5610564223582" width="9.45" height="29.438943577641794" fill="#44aa44" opacity="0.2" rx="0.5"/>
<line x1="656.375" y1="94.83333333333331" x2="656.375" y2="164.72222222222217" stroke="#ff4444" stroke-width="1" opacity="0.8"/>
<rect x="651.65" y="103.33333333333329" width="9.45" height="49.11111111111123" fill="#ff4444" opacity="0.8" rx="0.5"/>
<rect x="651.65" y="296.62504085937235" width="9.45" height="38.37495914062765" fill="#ff4444" opacity="0.2" rx="0.5"/>
<line x1="672.125" y1="24.0" x2="672.125" y2="111.83333333333344" stroke="#ff4444" stroke-width="1" opacity="0.8"/>
<rect x="667.4" y="26.83333333333344" width="9.45" height="79.33333333333329" fill="#ff4444" opacity="0.8" rx="0.5"/>
<rect x="667.4" y="279.0" width="9.45" height="56.0" fill="#ff4444" opacity="0.2" rx="0.5"/>
<text x="57.875" y="347" text-anchor="middle" font-size="8" fill="#666">03-19</text>
<text x="136.625" y="347" text-anchor="middle" font-size="8" fill="#666">03-26</text>
<text x="215.375" y="347" text-anchor="middle" font-size="8" fill="#666">04-02</text>
<text x="294.125" y="347" text-anchor="middle" font-size="8" fill="#666">04-10</text>
<text x="372.875" y="347" text-anchor="middle" font-size="8" fill="#666">04-17</text>
<text x="451.625" y="347" text-anchor="middle" font-size="8" fill="#666">04-24</text>
<text x="530.375" y="347" text-anchor="middle" font-size="8" fill="#666">05-06</text>
<text x="609.125" y="347" text-anchor="middle" font-size="8" fill="#666">05-13</text>
<text x="672.125" y="347" text-anchor="middle" font-size="8" fill="#666">05-19</text>
<rect x="30" y="363" width="7" height="7" fill="#ff9800" opacity="0.8" rx="1"/>
<text x="40" y="369" font-family="sans-serif" font-size="8" fill="#888">第1类</text>
<rect x="130" y="363" width="7" height="7" fill="#2196f3" opacity="0.8" rx="1"/>
<text x="140" y="369" font-family="sans-serif" font-size="8" fill="#888">第2类</text>
<rect x="230" y="363" width="7" height="7" fill="#ffd700" opacity="0.8" rx="1"/>
<text x="240" y="369" font-family="sans-serif" font-size="8" fill="#888">EMA5</text>
<rect x="330" y="363" width="7" height="7" fill="#ff6b6b" opacity="0.8" rx="1"/>
<text x="340" y="369" font-family="sans-serif" font-size="8" fill="#888">EMA10</text>
</svg>