<svg xmlns="http://www.w3.org/2000/svg" width="700" height="380" viewBox="0 0 700 380">
<rect width="700" height="380" fill="#1a1a2e"/>
<text x="350" y="16" text-anchor="middle" font-family="sans-serif" font-size="13" font-weight="bold" fill="#fff">天山电子(301379) 关键点图</text>
<line x1="50" y1="258.7237196765499" x2="680" y2="258.7237196765499" stroke="#2a2a4e" stroke-width="0.5"/>
<text x="46" y="261.7237196765499" text-anchor="end" font-size="9" fill="#666">24</text>
<line x1="50" y1="224.35714285714286" x2="680" y2="224.35714285714286" stroke="#2a2a4e" stroke-width="0.5"/>
<text x="46" y="227.35714285714286" text-anchor="end" font-size="9" fill="#666">26</text>
<line x1="50" y1="189.99056603773585" x2="680" y2="189.99056603773585" stroke="#2a2a4e" stroke-width="0.5"/>
<text x="46" y="192.99056603773585" text-anchor="end" font-size="9" fill="#666">28</text>
<line x1="50" y1="155.62398921832883" x2="680" y2="155.62398921832883" stroke="#2a2a4e" stroke-width="0.5"/>
<text x="46" y="158.62398921832883" text-anchor="end" font-size="9" fill="#666">30</text>
<line x1="50" y1="121.2574123989218" x2="680" y2="121.2574123989218" stroke="#2a2a4e" stroke-width="0.5"/>
<text x="46" y="124.2574123989218" text-anchor="end" font-size="9" fill="#666">32</text>
<line x1="50" y1="86.89083557951477" x2="680" y2="86.89083557951477" stroke="#2a2a4e" stroke-width="0.5"/>
<text x="46" y="89.89083557951477" text-anchor="end" font-size="9" fill="#666">34</text>
<line x1="50" y1="52.52425876010777" x2="680" y2="52.52425876010777" stroke="#2a2a4e" stroke-width="0.5"/>
<text x="46" y="55.52425876010777" text-anchor="end" font-size="9" fill="#666">36</text>
<polyline points="57.9,211.0 73.6,216.6 89.4,231.2 105.1,236.7 120.9,233.9 136.6,237.1 152.4,239.3 168.1,243.5 183.9,249.0 199.6,250.1 215.4,256.5 231.1,263.8 246.9,267.1 262.6,261.2 278.4,257.1 294.1,248.8 309.9,245.3 325.6,239.2 341.4,238.2 357.1,234.3 372.9,230.8 388.6,229.7 404.4,228.5 420.1,219.6 435.9,223.5 451.6,223.3 467.4,212.3 483.1,214.1 498.9,217.1 514.6,216.6 530.4,210.9 546.1,204.6 561.9,200.4 577.6,191.4 593.4,187.9 609.1,182.9 624.9,174.3 640.6,172.5 656.4,158.9 672.1,114.0" fill="none" stroke="#ffd700" stroke-width="1" opacity="0.6"/>
<polyline points="57.9,211.0 73.6,214.0 89.4,222.5 105.1,227.1 120.9,227.3 136.6,230.2 152.4,232.7 168.1,236.2 183.9,240.5 199.6,242.7 215.4,247.5 231.1,253.1 246.9,256.9 262.6,255.5 278.4,254.3 294.1,250.3 309.9,248.1 325.6,244.2 341.4,242.8 357.1,239.8 372.9,236.9 388.6,235.2 404.4,233.6 420.1,227.8 435.9,228.4 451.6,227.4 467.4,220.6 483.1,220.1 498.9,220.6 514.6,219.7 530.4,216.1 546.1,211.7 561.9,208.1 577.6,201.8 593.4,198.0 609.1,193.4 624.9,186.8 640.6,183.5 656.4,174.2 672.1,146.9" fill="none" stroke="#ff6b6b" stroke-width="1" opacity="0.6"/>
<line x1="57.875" y1="199.4413746630728" x2="57.875" y2="214.0471698113207" stroke="#44aa44" stroke-width="1" opacity="0.8"/>
<rect x="53.15" y="201.6752021563342" width="9.45" height="9.278975741239918" fill="#44aa44" opacity="0.8" rx="0.5"/>
<rect x="53.15" y="326.67263500506647" width="9.45" height="8.327364994933532" fill="#44aa44" opacity="0.2" rx="0.5"/>
<line x1="73.625" y1="199.78504043126685" x2="73.625" y2="227.79380053908352" stroke="#44aa44" stroke-width="1" opacity="0.8"/>
<rect x="68.9" y="208.3766846361186" width="9.45" height="19.417115902964923" fill="#44aa44" opacity="0.8" rx="0.5"/>
<rect x="68.9" y="325.91756284253677" width="9.45" height="9.082437157463232" fill="#44aa44" opacity="0.2" rx="0.5"/>
<line x1="89.375" y1="221.77964959568735" x2="89.375" y2="262.16037735849056" stroke="#44aa44" stroke-width="1" opacity="0.8"/>
<rect x="84.65" y="221.77964959568735" width="9.45" height="38.662398921832875" fill="#44aa44" opacity="0.8" rx="0.5"/>
<rect x="84.65" y="325.8695222652366" width="9.45" height="9.130477734763417" fill="#44aa44" opacity="0.2" rx="0.5"/>
<line x1="105.125" y1="247.03908355795147" x2="105.125" y2="263.8787061994609" stroke="#ff4444" stroke-width="1" opacity="0.8"/>
<rect x="100.4" y="247.72641509433961" width="9.45" height="2.7493261455525726" fill="#ff4444" opacity="0.8" rx="0.5"/>
<rect x="100.4" y="329.38003643753063" width="9.45" height="5.619963562469366" fill="#ff4444" opacity="0.2" rx="0.5"/>
<line x1="120.875" y1="220.40498652291103" x2="120.875" y2="246.1799191374663" stroke="#ff4444" stroke-width="1" opacity="0.8"/>
<rect x="116.15" y="228.30929919137466" width="9.45" height="16.66778975741238" fill="#ff4444" opacity="0.8" rx="0.5"/>
<rect x="116.15" y="326.9968865122087" width="9.45" height="8.003113487791325" fill="#ff4444" opacity="0.2" rx="0.5"/>
<line x1="136.625" y1="228.48113207547166" x2="136.625" y2="248.41374663072773" stroke="#44aa44" stroke-width="1" opacity="0.8"/>
<rect x="131.9" y="229.85579514824798" width="9.45" height="13.574797843665749" fill="#44aa44" opacity="0.8" rx="0.5"/>
<rect x="131.9" y="329.607422808414" width="9.45" height="5.3925771915859855" fill="#44aa44" opacity="0.2" rx="0.5"/>
<line x1="152.375" y1="239.99393530997304" x2="152.375" y2="253.05323450134773" stroke="#ff4444" stroke-width="1" opacity="0.8"/>
<rect x="147.65" y="243.6024258760108" width="9.45" height="5.670485175202117" fill="#ff4444" opacity="0.8" rx="0.5"/>
<rect x="147.65" y="331.5178869066599" width="9.45" height="3.4821130933401037" fill="#ff4444" opacity="0.2" rx="0.5"/>
<line x1="168.125" y1="247.55458221024261" x2="168.125" y2="258.2082210242587" stroke="#44aa44" stroke-width="1" opacity="0.8"/>
<rect x="163.4" y="248.24191374663073" width="9.45" height="3.7803234501347447" fill="#44aa44" opacity="0.8" rx="0.5"/>
<rect x="163.4" y="330.9723996334202" width="9.45" height="4.027600366579804" fill="#44aa44" opacity="0.2" rx="0.5"/>
<line x1="183.875" y1="252.02223719676547" x2="183.875" y2="261.6448787061995" stroke="#44aa44" stroke-width="1" opacity="0.8"/>
<rect x="179.15" y="253.05323450134773" width="9.45" height="7.045148247978375" fill="#44aa44" opacity="0.8" rx="0.5"/>
<rect x="179.15" y="330.8583585475062" width="9.45" height="4.141641452493786" fill="#44aa44" opacity="0.2" rx="0.5"/>
<line x1="199.625" y1="244.46159029649598" x2="199.625" y2="255.80256064690025" stroke="#44aa44" stroke-width="1" opacity="0.8"/>
<rect x="194.9" y="250.81940700808624" width="9.45" height="1.5464959568732866" fill="#44aa44" opacity="0.8" rx="0.5"/>
<rect x="194.9" y="331.2113735012231" width="9.45" height="3.788626498776921" fill="#44aa44" opacity="0.2" rx="0.5"/>
<line x1="215.375" y1="252.53773584905662" x2="215.375" y2="270.7520215633423" stroke="#44aa44" stroke-width="1" opacity="0.8"/>
<rect x="210.65" y="253.5687331536388" width="9.45" height="15.636792452830207" fill="#44aa44" opacity="0.8" rx="0.5"/>
<rect x="210.65" y="330.22465611489946" width="9.45" height="4.77534388510054" fill="#44aa44" opacity="0.2" rx="0.5"/>
<line x1="231.125" y1="264.222371967655" x2="231.125" y2="279.0" stroke="#44aa44" stroke-width="1" opacity="0.8"/>
<rect x="226.4" y="267.14353099730454" width="9.45" height="11.340970350404291" fill="#44aa44" opacity="0.8" rx="0.5"/>
<rect x="226.4" y="331.6259578826866" width="9.45" height="3.3740421173134223" fill="#44aa44" opacity="0.2" rx="0.5"/>
<line x1="246.875" y1="268.17452830188677" x2="246.875" y2="277.62533692722377" stroke="#ff4444" stroke-width="1" opacity="0.8"/>
<rect x="242.15" y="273.6731805929919" width="9.45" height="3.9521563342318586" fill="#ff4444" opacity="0.8" rx="0.5"/>
<rect x="242.15" y="332.0950034996721" width="9.45" height="2.9049965003279112" fill="#ff4444" opacity="0.2" rx="0.5"/>
<line x1="262.625" y1="248.75741239892187" x2="262.625" y2="263.1913746630728" stroke="#ff4444" stroke-width="1" opacity="0.8"/>
<rect x="257.9" y="249.27291105121293" width="9.45" height="11.856469002695405" fill="#ff4444" opacity="0.8" rx="0.5"/>
<rect x="257.9" y="330.24437001572295" width="9.45" height="4.75562998427705" fill="#ff4444" opacity="0.2" rx="0.5"/>
<line x1="278.375" y1="240.1657681940701" x2="278.375" y2="255.80256064690025" stroke="#ff4444" stroke-width="1" opacity="0.8"/>
<rect x="273.65" y="248.92924528301887" width="9.45" height="4.983153638813974" fill="#ff4444" opacity="0.8" rx="0.5"/>
<rect x="273.65" y="329.9110593180639" width="9.45" height="5.088940681936094" fill="#ff4444" opacity="0.2" rx="0.5"/>
<line x1="294.125" y1="221.2641509433962" x2="294.125" y2="246.52358490566036" stroke="#ff4444" stroke-width="1" opacity="0.8"/>
<rect x="289.4" y="232.0896226415094" width="9.45" height="14.43396226415095" fill="#ff4444" opacity="0.8" rx="0.5"/>
<rect x="289.4" y="325.9512216965497" width="9.45" height="9.04877830345032" fill="#ff4444" opacity="0.2" rx="0.5"/>
<line x1="309.875" y1="233.46428571428572" x2="309.875" y2="242.9150943396226" stroke="#ff4444" stroke-width="1" opacity="0.8"/>
<line x1="305.15" y1="238.27560646900267" x2="314.6" y2="238.27560646900267" stroke="#ff4444" stroke-width="1.5"/>
<rect x="305.15" y="328.97355917043996" width="9.45" height="6.026440829560045" fill="#ff4444" opacity="0.2" rx="0.5"/>
<line x1="325.625" y1="224.70080862533692" x2="325.625" y2="236.55727762803235" stroke="#ff4444" stroke-width="1" opacity="0.8"/>
<rect x="320.9" y="226.93463611859835" width="9.45" height="6.701482479784374" fill="#ff4444" opacity="0.8" rx="0.5"/>
<rect x="320.9" y="327.70145317092334" width="9.45" height="7.298546829076656" fill="#ff4444" opacity="0.2" rx="0.5"/>
<line x1="341.375" y1="222.6388140161725" x2="341.375" y2="238.96293800539087" stroke="#44aa44" stroke-width="1" opacity="0.8"/>
<rect x="336.65" y="226.24730458221023" width="9.45" height="9.966307277628061" fill="#44aa44" opacity="0.8" rx="0.5"/>
<rect x="336.65" y="328.88277023648965" width="9.45" height="6.117229763510352" fill="#44aa44" opacity="0.2" rx="0.5"/>
<line x1="357.125" y1="219.54582210242583" x2="357.125" y2="238.10377358490567" stroke="#ff4444" stroke-width="1" opacity="0.8"/>
<rect x="352.4" y="226.4191374663073" width="9.45" height="9.966307277628005" fill="#ff4444" opacity="0.8" rx="0.5"/>
<rect x="352.4" y="328.9982180803531" width="9.45" height="6.001781919646874" fill="#ff4444" opacity="0.2" rx="0.5"/>
<line x1="372.875" y1="220.74865229110512" x2="372.875" y2="231.74595687331535" stroke="#ff4444" stroke-width="1" opacity="0.8"/>
<rect x="368.15" y="223.84164420485172" width="9.45" height="4.639487870619945" fill="#ff4444" opacity="0.8" rx="0.5"/>
<rect x="368.15" y="328.7170910757181" width="9.45" height="6.282908924281912" fill="#ff4444" opacity="0.2" rx="0.5"/>
<line x1="388.625" y1="222.6388140161725" x2="388.625" y2="229.51212938005392" stroke="#44aa44" stroke-width="1" opacity="0.8"/>
<rect x="383.9" y="225.90363881401618" width="9.45" height="1.718328840970372" fill="#44aa44" opacity="0.8" rx="0.5"/>
<rect x="383.9" y="330.1323061067506" width="9.45" height="4.867693893249395" fill="#44aa44" opacity="0.2" rx="0.5"/>
<line x1="404.375" y1="223.32614555256066" x2="404.375" y2="233.8079514824798" stroke="#ff4444" stroke-width="1" opacity="0.8"/>
<rect x="399.65" y="226.07547169811323" width="9.45" height="1.7183288409702868" fill="#ff4444" opacity="0.8" rx="0.5"/>
<rect x="399.65" y="329.3766001453407" width="9.45" height="5.623399854659283" fill="#ff4444" opacity="0.2" rx="0.5"/>
<line x1="420.125" y1="186.55390835579513" x2="420.125" y2="231.9177897574124" stroke="#ff4444" stroke-width="1" opacity="0.8"/>
<rect x="415.4" y="201.6752021563342" width="9.45" height="24.40026954177904" fill="#ff4444" opacity="0.8" rx="0.5"/>
<rect x="415.4" y="320.04589707736045" width="9.45" height="14.95410292263955" fill="#ff4444" opacity="0.2" rx="0.5"/>
<line x1="435.875" y1="207.5175202156334" x2="435.875" y2="234.83894878706198" stroke="#44aa44" stroke-width="1" opacity="0.8"/>
<rect x="431.15" y="207.5175202156334" width="9.45" height="23.71293800539084" fill="#44aa44" opacity="0.8" rx="0.5"/>
<rect x="431.15" y="321.10109367704916" width="9.45" height="13.898906322950836" fill="#44aa44" opacity="0.2" rx="0.5"/>
<line x1="451.625" y1="217.82749326145554" x2="451.625" y2="238.79110512129378" stroke="#ff4444" stroke-width="1" opacity="0.8"/>
<rect x="446.9" y="222.9824797843666" width="9.45" height="10.825471698113205" fill="#ff4444" opacity="0.8" rx="0.5"/>
<rect x="446.9" y="327.5268581132949" width="9.45" height="7.473141886705093" fill="#ff4444" opacity="0.2" rx="0.5"/>
<line x1="467.375" y1="183.11725067385447" x2="467.375" y2="241.3685983827493" stroke="#ff4444" stroke-width="1" opacity="0.8"/>
<rect x="462.65" y="190.16239892183287" width="9.45" height="46.56671159029648" fill="#ff4444" opacity="0.8" rx="0.5"/>
<rect x="462.65" y="312.6968392331742" width="9.45" height="22.303160766825783" fill="#ff4444" opacity="0.2" rx="0.5"/>
<line x1="483.125" y1="196.86388140161722" x2="483.125" y2="220.5768194070081" stroke="#44aa44" stroke-width="1" opacity="0.8"/>
<rect x="478.4" y="202.5343665768194" width="9.45" height="15.121293800539064" fill="#44aa44" opacity="0.8" rx="0.5"/>
<rect x="478.4" y="320.6767239920039" width="9.45" height="14.323276007996128" fill="#44aa44" opacity="0.2" rx="0.5"/>
<line x1="498.875" y1="213.53167115902966" x2="498.875" y2="226.4191374663073" stroke="#ff4444" stroke-width="1" opacity="0.8"/>
<rect x="494.15" y="223.1543126684636" width="9.45" height="1.030997304582172" fill="#ff4444" opacity="0.8" rx="0.5"/>
<rect x="494.15" y="327.3040171826419" width="9.45" height="7.695982817358072" fill="#ff4444" opacity="0.2" rx="0.5"/>
<line x1="514.625" y1="209.2358490566038" x2="514.625" y2="226.93463611859835" stroke="#ff4444" stroke-width="1" opacity="0.8"/>
<rect x="509.9" y="215.59366576819403" width="9.45" height="7.216981132075517" fill="#ff4444" opacity="0.8" rx="0.5"/>
<rect x="509.9" y="326.5754391911309" width="9.45" height="8.424560808869103" fill="#ff4444" opacity="0.2" rx="0.5"/>
<line x1="530.375" y1="184.83557951482476" x2="530.375" y2="207.00202156334228" stroke="#ff4444" stroke-width="1" opacity="0.8"/>
<rect x="525.65" y="199.61320754716976" width="9.45" height="7.3888140161725175" fill="#ff4444" opacity="0.8" rx="0.5"/>
<rect x="525.65" y="320.43820205035905" width="9.45" height="14.561797949640948" fill="#ff4444" opacity="0.2" rx="0.5"/>
<line x1="546.125" y1="181.39892183288407" x2="546.125" y2="205.45552560646897" stroke="#ff4444" stroke-width="1" opacity="0.8"/>
<rect x="541.4" y="191.8807277628032" width="9.45" height="8.419811320754775" fill="#ff4444" opacity="0.8" rx="0.5"/>
<rect x="541.4" y="320.58992110188103" width="9.45" height="14.410078898118968" fill="#ff4444" opacity="0.2" rx="0.5"/>
<line x1="561.875" y1="180.88342318059296" x2="561.875" y2="202.36253369272234" stroke="#ff4444" stroke-width="1" opacity="0.8"/>
<rect x="557.15" y="192.05256064690028" width="9.45" height="4.467654986522888" fill="#ff4444" opacity="0.8" rx="0.5"/>
<rect x="557.15" y="326.4512986578423" width="9.45" height="8.548701342157699" fill="#ff4444" opacity="0.2" rx="0.5"/>
<line x1="577.625" y1="157.68598382749326" x2="577.625" y2="186.21024258760107" stroke="#ff4444" stroke-width="1" opacity="0.8"/>
<rect x="572.9" y="173.32277628032347" width="9.45" height="6.357816711590232" fill="#ff4444" opacity="0.8" rx="0.5"/>
<rect x="572.9" y="313.20274163287064" width="9.45" height="21.79725836712936" fill="#ff4444" opacity="0.2" rx="0.5"/>
<line x1="593.375" y1="157.51415094339617" x2="593.375" y2="183.28908355795144" stroke="#44aa44" stroke-width="1" opacity="0.8"/>
<rect x="588.65" y="160.77897574123986" width="9.45" height="20.104447439353095" fill="#44aa44" opacity="0.8" rx="0.5"/>
<rect x="588.65" y="319.8246020648459" width="9.45" height="15.17539793515408" fill="#44aa44" opacity="0.2" rx="0.5"/>
<line x1="609.125" y1="168.68328840970352" x2="609.125" y2="193.4272237196765" stroke="#ff4444" stroke-width="1" opacity="0.8"/>
<rect x="604.4" y="172.97911051212938" width="9.45" height="18.729784366576837" fill="#ff4444" opacity="0.8" rx="0.5"/>
<rect x="604.4" y="321.17294580271613" width="9.45" height="13.827054197283871" fill="#ff4444" opacity="0.2" rx="0.5"/>
<line x1="624.875" y1="146.17318059299186" x2="624.875" y2="176.41576819407007" stroke="#ff4444" stroke-width="1" opacity="0.8"/>
<rect x="620.15" y="156.9986522911051" width="9.45" height="15.808625336927236" fill="#ff4444" opacity="0.8" rx="0.5"/>
<rect x="620.15" y="308.70955123102635" width="9.45" height="26.290448768973647" fill="#ff4444" opacity="0.2" rx="0.5"/>
<line x1="640.625" y1="148.92250673854443" x2="640.625" y2="172.97911051212938" stroke="#44aa44" stroke-width="1" opacity="0.8"/>
<rect x="635.9" y="156.654986522911" width="9.45" height="12.20013477088952" fill="#44aa44" opacity="0.8" rx="0.5"/>
<rect x="635.9" y="320.8891113746035" width="9.45" height="14.110888625396512" fill="#44aa44" opacity="0.2" rx="0.5"/>
<line x1="656.375" y1="128.30256064690025" x2="656.375" y2="166.449460916442" stroke="#ff4444" stroke-width="1" opacity="0.8"/>
<rect x="651.65" y="131.911051212938" width="9.45" height="32.304582210242586" fill="#ff4444" opacity="0.8" rx="0.5"/>
<rect x="651.65" y="311.24770080598745" width="9.45" height="23.75229919401255" fill="#ff4444" opacity="0.2" rx="0.5"/>
<line x1="672.125" y1="24.0" x2="672.125" y2="142.5646900269541" stroke="#ff4444" stroke-width="1" opacity="0.8"/>
<rect x="667.4" y="24.0" width="9.45" height="118.56469002695411" fill="#ff4444" opacity="0.8" rx="0.5"/>
<rect x="667.4" y="279.0" width="9.45" height="56.0" fill="#ff4444" opacity="0.2" rx="0.5"/>
<text x="57.875" y="347" text-anchor="middle" font-size="8" fill="#666">03-19</text>
<text x="136.625" y="347" text-anchor="middle" font-size="8" fill="#666">03-26</text>
<text x="215.375" y="347" text-anchor="middle" font-size="8" fill="#666">04-02</text>
<text x="294.125" y="347" text-anchor="middle" font-size="8" fill="#666">04-10</text>
<text x="372.875" y="347" text-anchor="middle" font-size="8" fill="#666">04-17</text>
<text x="451.625" y="347" text-anchor="middle" font-size="8" fill="#666">04-24</text>
<text x="530.375" y="347" text-anchor="middle" font-size="8" fill="#666">05-06</text>
<text x="609.125" y="347" text-anchor="middle" font-size="8" fill="#666">05-13</text>
<text x="672.125" y="347" text-anchor="middle" font-size="8" fill="#666">05-19</text>
<rect x="30" y="363" width="7" height="7" fill="#ff9800" opacity="0.8" rx="1"/>
<text x="40" y="369" font-family="sans-serif" font-size="8" fill="#888">第1类</text>
<rect x="130" y="363" width="7" height="7" fill="#2196f3" opacity="0.8" rx="1"/>
<text x="140" y="369" font-family="sans-serif" font-size="8" fill="#888">第2类</text>
<rect x="230" y="363" width="7" height="7" fill="#ffd700" opacity="0.8" rx="1"/>
<text x="240" y="369" font-family="sans-serif" font-size="8" fill="#888">EMA5</text>
<rect x="330" y="363" width="7" height="7" fill="#ff6b6b" opacity="0.8" rx="1"/>
<text x="340" y="369" font-family="sans-serif" font-size="8" fill="#888">EMA10</text>
</svg>