<svg xmlns="http://www.w3.org/2000/svg" width="700" height="380" viewBox="0 0 700 380">
<rect width="700" height="380" fill="#1a1a2e"/>
<text x="350" y="16" text-anchor="middle" font-family="sans-serif" font-size="13" font-weight="bold" fill="#fff">宝通科技(300031) 关键点图</text>
<line x1="50" y1="253.00645161290325" x2="680" y2="253.00645161290325" stroke="#2a2a4e" stroke-width="0.5"/>
<text x="46" y="256.0064516129032" text-anchor="end" font-size="9" fill="#666">20</text>
<line x1="50" y1="220.10322580645163" x2="680" y2="220.10322580645163" stroke="#2a2a4e" stroke-width="0.5"/>
<text x="46" y="223.10322580645163" text-anchor="end" font-size="9" fill="#666">21</text>
<line x1="50" y1="187.20000000000005" x2="680" y2="187.20000000000005" stroke="#2a2a4e" stroke-width="0.5"/>
<text x="46" y="190.20000000000005" text-anchor="end" font-size="9" fill="#666">22</text>
<line x1="50" y1="154.29677419354843" x2="680" y2="154.29677419354843" stroke="#2a2a4e" stroke-width="0.5"/>
<text x="46" y="157.29677419354843" text-anchor="end" font-size="9" fill="#666">23</text>
<line x1="50" y1="121.39354838709681" x2="680" y2="121.39354838709681" stroke="#2a2a4e" stroke-width="0.5"/>
<text x="46" y="124.39354838709681" text-anchor="end" font-size="9" fill="#666">24</text>
<line x1="50" y1="88.4903225806452" x2="680" y2="88.4903225806452" stroke="#2a2a4e" stroke-width="0.5"/>
<text x="46" y="91.4903225806452" text-anchor="end" font-size="9" fill="#666">25</text>
<line x1="50" y1="55.587096774193576" x2="680" y2="55.587096774193576" stroke="#2a2a4e" stroke-width="0.5"/>
<text x="46" y="58.587096774193576" text-anchor="end" font-size="9" fill="#666">26</text>
<polyline points="57.9,223.1 73.6,228.9 89.4,243.8 105.1,251.1 120.9,248.3 136.6,248.1 152.4,247.3 168.1,243.6 183.9,242.8 199.6,239.5 215.4,239.1 231.1,242.0 246.9,243.7 262.6,233.2 278.4,227.5 294.1,222.8 309.9,221.3 325.6,219.6 341.4,220.6 357.1,216.3 372.9,212.5 388.6,208.0 404.4,206.0 420.1,204.1 435.9,208.7 451.6,215.0 467.4,198.1 483.1,183.8 498.9,173.7 514.6,165.8 530.4,160.0 546.1,151.4 561.9,140.4 577.6,131.7 593.4,129.9 609.1,130.3 624.9,139.4 640.6,137.6 656.4,124.5 672.1,94.0" fill="none" stroke="#ffd700" stroke-width="1" opacity="0.6"/>
<polyline points="57.9,223.1 73.6,226.2 89.4,234.9 105.1,240.4 120.9,240.9 136.6,242.1 152.4,242.8 168.1,241.6 183.9,241.5 199.6,240.0 215.4,239.6 231.1,241.1 246.9,242.2 262.6,236.7 278.4,233.0 294.1,229.5 309.9,227.4 325.6,225.4 341.4,224.9 357.1,221.7 372.9,218.7 388.6,215.1 404.4,212.7 420.1,210.5 435.9,211.8 451.6,214.7 467.4,205.5 483.1,196.4 498.9,188.6 514.6,181.6 530.4,175.6 546.1,168.0 561.9,159.0 577.6,150.9 593.4,146.4 609.1,143.6 624.9,146.2 640.6,143.9 656.4,135.7 672.1,117.0" fill="none" stroke="#ff6b6b" stroke-width="1" opacity="0.6"/>
<line x1="57.875" y1="215.82580645161298" x2="57.875" y2="229.97419354838715" stroke="#ff4444" stroke-width="1" opacity="0.8"/>
<line x1="53.15" y1="223.06451612903228" x2="62.6" y2="223.06451612903228" stroke="#ff4444" stroke-width="1.5"/>
<rect x="53.15" y="326.9023673533174" width="9.45" height="8.097632646682598" fill="#ff4444" opacity="0.2" rx="0.5"/>
<line x1="73.625" y1="216.81290322580645" x2="73.625" y2="240.83225806451614" stroke="#44aa44" stroke-width="1" opacity="0.8"/>
<rect x="68.9" y="223.39354838709684" width="9.45" height="17.109677419354824" fill="#44aa44" opacity="0.8" rx="0.5"/>
<rect x="68.9" y="327.4534096939209" width="9.45" height="7.546590306079111" fill="#44aa44" opacity="0.2" rx="0.5"/>
<line x1="89.375" y1="242.80645161290332" x2="89.375" y2="279.0" stroke="#44aa44" stroke-width="1" opacity="0.8"/>
<rect x="84.65" y="247.08387096774197" width="9.45" height="26.651612903225782" fill="#44aa44" opacity="0.8" rx="0.5"/>
<rect x="84.65" y="325.00821077758025" width="9.45" height="9.991789222419754" fill="#44aa44" opacity="0.2" rx="0.5"/>
<line x1="105.125" y1="260.9032258064516" x2="105.125" y2="276.6967741935484" stroke="#44aa44" stroke-width="1" opacity="0.8"/>
<rect x="100.4" y="263.86451612903227" width="9.45" height="1.6451612903225623" fill="#44aa44" opacity="0.8" rx="0.5"/>
<rect x="100.4" y="329.313483341141" width="9.45" height="5.686516658858977" fill="#44aa44" opacity="0.2" rx="0.5"/>
<line x1="120.875" y1="240.1741935483871" x2="120.875" y2="263.2064516129032" stroke="#ff4444" stroke-width="1" opacity="0.8"/>
<rect x="116.15" y="242.80645161290332" width="9.45" height="19.741935483870833" fill="#ff4444" opacity="0.8" rx="0.5"/>
<rect x="116.15" y="326.9020826033812" width="9.45" height="8.097917396618811" fill="#ff4444" opacity="0.2" rx="0.5"/>
<line x1="136.625" y1="230.96129032258062" x2="136.625" y2="250.04516129032262" stroke="#44aa44" stroke-width="1" opacity="0.8"/>
<rect x="131.9" y="241.1612903225807" width="9.45" height="6.580645161290306" fill="#44aa44" opacity="0.8" rx="0.5"/>
<rect x="131.9" y="328.3602737111206" width="9.45" height="6.6397262888793875" fill="#44aa44" opacity="0.2" rx="0.5"/>
<line x1="152.375" y1="243.4645161290323" x2="152.375" y2="257.2838709677419" stroke="#ff4444" stroke-width="1" opacity="0.8"/>
<rect x="147.65" y="245.76774193548394" width="9.45" height="11.18709677419352" fill="#ff4444" opacity="0.8" rx="0.5"/>
<rect x="147.65" y="329.8458766094828" width="9.45" height="5.1541233905172135" fill="#ff4444" opacity="0.2" rx="0.5"/>
<line x1="168.125" y1="234.90967741935486" x2="168.125" y2="261.23225806451615" stroke="#ff4444" stroke-width="1" opacity="0.8"/>
<rect x="163.4" y="236.22580645161287" width="9.45" height="15.793548387096791" fill="#ff4444" opacity="0.8" rx="0.5"/>
<rect x="163.4" y="329.0170473904519" width="9.45" height="5.982952609548079" fill="#ff4444" opacity="0.2" rx="0.5"/>
<line x1="183.875" y1="231.61935483870977" x2="183.875" y2="243.79354838709676" stroke="#44aa44" stroke-width="1" opacity="0.8"/>
<rect x="179.15" y="235.89677419354842" width="9.45" height="5.264516129032273" fill="#44aa44" opacity="0.8" rx="0.5"/>
<rect x="179.15" y="330.31893639021513" width="9.45" height="4.6810636097848715" fill="#44aa44" opacity="0.2" rx="0.5"/>
<line x1="199.625" y1="229.97419354838715" x2="199.625" y2="240.1741935483871" stroke="#44aa44" stroke-width="1" opacity="0.8"/>
<rect x="194.9" y="231.61935483870977" width="9.45" height="1.3161290322580328" fill="#44aa44" opacity="0.8" rx="0.5"/>
<rect x="194.9" y="329.2263416664149" width="9.45" height="5.773658333585104" fill="#44aa44" opacity="0.2" rx="0.5"/>
<line x1="215.375" y1="230.3032258064516" x2="215.375" y2="244.45161290322577" stroke="#44aa44" stroke-width="1" opacity="0.8"/>
<line x1="210.65" y1="237.8709677419355" x2="220.1" y2="237.8709677419355" stroke="#44aa44" stroke-width="1.5"/>
<rect x="210.65" y="328.78290919469396" width="9.45" height="6.217090805306043" fill="#44aa44" opacity="0.2" rx="0.5"/>
<line x1="231.125" y1="233.5935483870968" x2="231.125" y2="252.6774193548387" stroke="#44aa44" stroke-width="1" opacity="0.8"/>
<rect x="226.4" y="235.56774193548384" width="9.45" height="12.174193548387166" fill="#44aa44" opacity="0.8" rx="0.5"/>
<rect x="226.4" y="330.10977219785616" width="9.45" height="4.890227802143841" fill="#44aa44" opacity="0.2" rx="0.5"/>
<line x1="246.875" y1="242.1483870967743" x2="246.875" y2="252.34838709677422" stroke="#44aa44" stroke-width="1" opacity="0.8"/>
<rect x="242.15" y="244.78064516129035" width="9.45" height="2.3032258064516213" fill="#44aa44" opacity="0.8" rx="0.5"/>
<rect x="242.15" y="331.4673963883729" width="9.45" height="3.53260361162711" fill="#44aa44" opacity="0.2" rx="0.5"/>
<line x1="262.625" y1="211.2193548387097" x2="262.625" y2="233.5935483870968" stroke="#ff4444" stroke-width="1" opacity="0.8"/>
<rect x="257.9" y="212.2064516129033" width="9.45" height="21.05806451612895" fill="#ff4444" opacity="0.8" rx="0.5"/>
<rect x="257.9" y="325.7432609852421" width="9.45" height="9.256739014757898" fill="#ff4444" opacity="0.2" rx="0.5"/>
<line x1="278.375" y1="212.86451612903232" x2="278.375" y2="222.0774193548387" stroke="#ff4444" stroke-width="1" opacity="0.8"/>
<rect x="273.65" y="216.15483870967742" width="9.45" height="2.961290322580652" fill="#ff4444" opacity="0.8" rx="0.5"/>
<rect x="273.65" y="328.7445130216395" width="9.45" height="6.255486978360523" fill="#ff4444" opacity="0.2" rx="0.5"/>
<line x1="294.125" y1="202.66451612903225" x2="294.125" y2="214.8387096774194" stroke="#44aa44" stroke-width="1" opacity="0.8"/>
<rect x="289.4" y="211.87741935483874" width="9.45" height="1.6451612903225907" fill="#44aa44" opacity="0.8" rx="0.5"/>
<rect x="289.4" y="329.4118910753941" width="9.45" height="5.588108924605876" fill="#44aa44" opacity="0.2" rx="0.5"/>
<line x1="309.875" y1="214.8387096774194" x2="309.875" y2="223.06451612903228" stroke="#ff4444" stroke-width="1" opacity="0.8"/>
<line x1="305.15" y1="218.1290322580646" x2="314.6" y2="218.1290322580646" stroke="#ff4444" stroke-width="1.5"/>
<rect x="305.15" y="329.82894320680083" width="9.45" height="5.17105679319917" fill="#ff4444" opacity="0.2" rx="0.5"/>
<line x1="325.625" y1="208.25806451612908" x2="325.625" y2="223.06451612903228" stroke="#44aa44" stroke-width="1" opacity="0.8"/>
<rect x="320.9" y="211.87741935483874" width="9.45" height="4.277419354838685" fill="#44aa44" opacity="0.8" rx="0.5"/>
<rect x="320.9" y="329.8951045471975" width="9.45" height="5.104895452802509" fill="#44aa44" opacity="0.2" rx="0.5"/>
<line x1="341.375" y1="206.94193548387105" x2="341.375" y2="222.7354838709677" stroke="#44aa44" stroke-width="1" opacity="0.8"/>
<rect x="336.65" y="214.18064516129036" width="9.45" height="8.554838709677341" fill="#44aa44" opacity="0.8" rx="0.5"/>
<rect x="336.65" y="329.4842278019975" width="9.45" height="5.51577219800248" fill="#44aa44" opacity="0.2" rx="0.5"/>
<line x1="357.125" y1="204.30967741935484" x2="357.125" y2="217.80000000000004" stroke="#ff4444" stroke-width="1" opacity="0.8"/>
<rect x="352.4" y="207.60000000000005" width="9.45" height="8.55483870967737" fill="#ff4444" opacity="0.8" rx="0.5"/>
<rect x="352.4" y="326.49531731949054" width="9.45" height="8.504682680509461" fill="#ff4444" opacity="0.2" rx="0.5"/>
<line x1="372.875" y1="202.66451612903225" x2="372.875" y2="217.141935483871" stroke="#ff4444" stroke-width="1" opacity="0.8"/>
<rect x="368.15" y="204.96774193548387" width="9.45" height="5.593548387096831" fill="#ff4444" opacity="0.8" rx="0.5"/>
<rect x="368.15" y="328.8257568901327" width="9.45" height="6.174243109867291" fill="#ff4444" opacity="0.2" rx="0.5"/>
<line x1="388.625" y1="192.13548387096773" x2="388.625" y2="206.61290322580646" stroke="#ff4444" stroke-width="1" opacity="0.8"/>
<rect x="383.9" y="199.0451612903226" width="9.45" height="5.264516129032245" fill="#ff4444" opacity="0.8" rx="0.5"/>
<rect x="383.9" y="328.6956394849245" width="9.45" height="6.304360515075473" fill="#ff4444" opacity="0.2" rx="0.5"/>
<line x1="404.375" y1="197.07096774193553" x2="404.375" y2="205.95483870967746" stroke="#44aa44" stroke-width="1" opacity="0.8"/>
<rect x="399.65" y="198.71612903225812" width="9.45" height="3.2903225806451246" fill="#44aa44" opacity="0.8" rx="0.5"/>
<rect x="399.65" y="329.60974823701235" width="9.45" height="5.390251762987646" fill="#44aa44" opacity="0.2" rx="0.5"/>
<line x1="420.125" y1="197.39999999999998" x2="420.125" y2="207.2709677419355" stroke="#ff4444" stroke-width="1" opacity="0.8"/>
<rect x="415.4" y="200.36129032258063" width="9.45" height="6.251612903225833" fill="#ff4444" opacity="0.8" rx="0.5"/>
<rect x="415.4" y="330.4517537984156" width="9.45" height="4.548246201584391" fill="#ff4444" opacity="0.2" rx="0.5"/>
<line x1="435.875" y1="197.39999999999998" x2="435.875" y2="220.4322580645162" stroke="#44aa44" stroke-width="1" opacity="0.8"/>
<rect x="431.15" y="201.01935483870977" width="9.45" height="16.780645161290266" fill="#44aa44" opacity="0.8" rx="0.5"/>
<rect x="431.15" y="327.415169211479" width="9.45" height="7.584830788521003" fill="#44aa44" opacity="0.2" rx="0.5"/>
<line x1="451.625" y1="216.15483870967742" x2="451.625" y2="233.26451612903224" stroke="#44aa44" stroke-width="1" opacity="0.8"/>
<rect x="446.9" y="220.10322580645163" width="9.45" height="7.567741935483895" fill="#44aa44" opacity="0.8" rx="0.5"/>
<rect x="446.9" y="329.15732668097394" width="9.45" height="5.842673319026062" fill="#44aa44" opacity="0.2" rx="0.5"/>
<line x1="467.375" y1="163.5096774193549" x2="467.375" y2="229.97419354838715" stroke="#ff4444" stroke-width="1" opacity="0.8"/>
<rect x="462.65" y="164.16774193548392" width="9.45" height="65.47741935483864" fill="#ff4444" opacity="0.8" rx="0.5"/>
<rect x="462.65" y="312.8051467599854" width="9.45" height="22.194853240014595" fill="#ff4444" opacity="0.2" rx="0.5"/>
<line x1="483.125" y1="121.72258064516136" x2="483.125" y2="162.19354838709677" stroke="#44aa44" stroke-width="1" opacity="0.8"/>
<line x1="478.4" y1="154.95483870967743" x2="487.85" y2="154.95483870967743" stroke="#44aa44" stroke-width="1.5"/>
<rect x="478.4" y="310.8060833911991" width="9.45" height="24.19391660880092" fill="#44aa44" opacity="0.2" rx="0.5"/>
<line x1="498.875" y1="138.17419354838717" x2="498.875" y2="176.34193548387105" stroke="#ff4444" stroke-width="1" opacity="0.8"/>
<rect x="494.15" y="153.6387096774194" width="9.45" height="8.225806451612897" fill="#ff4444" opacity="0.8" rx="0.5"/>
<rect x="494.15" y="315.8687180612012" width="9.45" height="19.131281938798793" fill="#ff4444" opacity="0.2" rx="0.5"/>
<line x1="514.625" y1="141.4645161290323" x2="514.625" y2="157.5870967741936" stroke="#ff4444" stroke-width="1" opacity="0.8"/>
<rect x="509.9" y="150.01935483870972" width="9.45" height="3.948387096774127" fill="#ff4444" opacity="0.8" rx="0.5"/>
<rect x="509.9" y="321.8580611558287" width="9.45" height="13.141938844171307" fill="#ff4444" opacity="0.2" rx="0.5"/>
<line x1="530.375" y1="136.2" x2="530.375" y2="150.01935483870972" stroke="#44aa44" stroke-width="1" opacity="0.8"/>
<rect x="525.65" y="145.74193548387092" width="9.45" height="2.632258064516236" fill="#44aa44" opacity="0.8" rx="0.5"/>
<rect x="525.65" y="319.45651194643773" width="9.45" height="15.543488053562271" fill="#44aa44" opacity="0.2" rx="0.5"/>
<line x1="546.125" y1="130.2774193548387" x2="546.125" y2="158.5741935483871" stroke="#ff4444" stroke-width="1" opacity="0.8"/>
<rect x="541.4" y="134.22580645161293" width="9.45" height="13.490322580645199" fill="#ff4444" opacity="0.8" rx="0.5"/>
<rect x="541.4" y="319.9803248183201" width="9.45" height="15.019675181679872" fill="#ff4444" opacity="0.2" rx="0.5"/>
<line x1="561.875" y1="100.0064516129033" x2="561.875" y2="140.14838709677423" stroke="#ff4444" stroke-width="1" opacity="0.8"/>
<rect x="557.15" y="118.43225806451616" width="9.45" height="21.716129032258067" fill="#ff4444" opacity="0.8" rx="0.5"/>
<rect x="557.15" y="315.2173822862274" width="9.45" height="19.782617713772595" fill="#ff4444" opacity="0.2" rx="0.5"/>
<line x1="577.625" y1="100.66451612903232" x2="577.625" y2="125.01290322580647" stroke="#ff4444" stroke-width="1" opacity="0.8"/>
<rect x="572.9" y="114.15483870967748" width="9.45" height="10.85806451612899" fill="#ff4444" opacity="0.8" rx="0.5"/>
<rect x="572.9" y="316.6872348257074" width="9.45" height="18.312765174292622" fill="#ff4444" opacity="0.2" rx="0.5"/>
<line x1="593.375" y1="107.90322580645164" x2="593.375" y2="129.29032258064512" stroke="#44aa44" stroke-width="1" opacity="0.8"/>
<rect x="588.65" y="118.76129032258072" width="9.45" height="7.567741935483767" fill="#44aa44" opacity="0.8" rx="0.5"/>
<rect x="588.65" y="321.71229991689427" width="9.45" height="13.287700083105733" fill="#44aa44" opacity="0.2" rx="0.5"/>
<line x1="609.125" y1="123.36774193548385" x2="609.125" y2="142.45161290322585" stroke="#44aa44" stroke-width="1" opacity="0.8"/>
<rect x="604.4" y="126.65806451612906" width="9.45" height="4.606451612903243" fill="#44aa44" opacity="0.8" rx="0.5"/>
<rect x="604.4" y="321.5267371922705" width="9.45" height="13.473262807729498" fill="#44aa44" opacity="0.2" rx="0.5"/>
<line x1="624.875" y1="126.32903225806449" x2="624.875" y2="157.5870967741936" stroke="#44aa44" stroke-width="1" opacity="0.8"/>
<rect x="620.15" y="131.2645161290323" width="9.45" height="26.32258064516131" fill="#44aa44" opacity="0.8" rx="0.5"/>
<rect x="620.15" y="320.6542562177292" width="9.45" height="14.345743782270802" fill="#44aa44" opacity="0.2" rx="0.5"/>
<line x1="640.625" y1="107.90322580645164" x2="640.625" y2="159.23225806451612" stroke="#ff4444" stroke-width="1" opacity="0.8"/>
<rect x="635.9" y="133.89677419354837" width="9.45" height="20.72903225806462" fill="#ff4444" opacity="0.8" rx="0.5"/>
<rect x="635.9" y="314.30003885680657" width="9.45" height="20.699961143193434" fill="#ff4444" opacity="0.2" rx="0.5"/>
<line x1="656.375" y1="87.17419354838715" x2="656.375" y2="137.1870967741936" stroke="#ff4444" stroke-width="1" opacity="0.8"/>
<rect x="651.65" y="98.36129032258069" width="9.45" height="35.53548387096768" fill="#ff4444" opacity="0.8" rx="0.5"/>
<rect x="651.65" y="305.23979983220823" width="9.45" height="29.760200167791766" fill="#ff4444" opacity="0.2" rx="0.5"/>
<line x1="672.125" y1="24.0" x2="672.125" y2="107.90322580645164" stroke="#ff4444" stroke-width="1" opacity="0.8"/>
<rect x="667.4" y="32.88387096774192" width="9.45" height="70.41290322580647" fill="#ff4444" opacity="0.8" rx="0.5"/>
<rect x="667.4" y="279.0" width="9.45" height="56.0" fill="#ff4444" opacity="0.2" rx="0.5"/>
<text x="57.875" y="347" text-anchor="middle" font-size="8" fill="#666">03-19</text>
<text x="136.625" y="347" text-anchor="middle" font-size="8" fill="#666">03-26</text>
<text x="215.375" y="347" text-anchor="middle" font-size="8" fill="#666">04-02</text>
<text x="294.125" y="347" text-anchor="middle" font-size="8" fill="#666">04-10</text>
<text x="372.875" y="347" text-anchor="middle" font-size="8" fill="#666">04-17</text>
<text x="451.625" y="347" text-anchor="middle" font-size="8" fill="#666">04-24</text>
<text x="530.375" y="347" text-anchor="middle" font-size="8" fill="#666">05-06</text>
<text x="609.125" y="347" text-anchor="middle" font-size="8" fill="#666">05-13</text>
<text x="672.125" y="347" text-anchor="middle" font-size="8" fill="#666">05-19</text>
<rect x="30" y="363" width="7" height="7" fill="#ff9800" opacity="0.8" rx="1"/>
<text x="40" y="369" font-family="sans-serif" font-size="8" fill="#888">第1类</text>
<rect x="130" y="363" width="7" height="7" fill="#2196f3" opacity="0.8" rx="1"/>
<text x="140" y="369" font-family="sans-serif" font-size="8" fill="#888">第2类</text>
<rect x="230" y="363" width="7" height="7" fill="#ffd700" opacity="0.8" rx="1"/>
<text x="240" y="369" font-family="sans-serif" font-size="8" fill="#888">EMA5</text>
<rect x="330" y="363" width="7" height="7" fill="#ff6b6b" opacity="0.8" rx="1"/>
<text x="340" y="369" font-family="sans-serif" font-size="8" fill="#888">EMA10</text>
</svg>