<svg xmlns="http://www.w3.org/2000/svg" width="700" height="380" viewBox="0 0 700 380">
<rect width="700" height="380" fill="#1a1a2e"/>
<text x="350" y="16" text-anchor="middle" font-family="sans-serif" font-size="13" font-weight="bold" fill="#fff">逸豪新材(301176) 关键点图</text>
<line x1="50" y1="259.54114713216956" x2="680" y2="259.54114713216956" stroke="#2a2a4e" stroke-width="0.5"/>
<text x="46" y="262.54114713216956" text-anchor="end" font-size="9" fill="#666">26</text>
<line x1="50" y1="234.10473815461344" x2="680" y2="234.10473815461344" stroke="#2a2a4e" stroke-width="0.5"/>
<text x="46" y="237.10473815461344" text-anchor="end" font-size="9" fill="#666">28</text>
<line x1="50" y1="208.66832917705736" x2="680" y2="208.66832917705736" stroke="#2a2a4e" stroke-width="0.5"/>
<text x="46" y="211.66832917705736" text-anchor="end" font-size="9" fill="#666">30</text>
<line x1="50" y1="183.23192019950125" x2="680" y2="183.23192019950125" stroke="#2a2a4e" stroke-width="0.5"/>
<text x="46" y="186.23192019950125" text-anchor="end" font-size="9" fill="#666">32</text>
<line x1="50" y1="157.79551122194513" x2="680" y2="157.79551122194513" stroke="#2a2a4e" stroke-width="0.5"/>
<text x="46" y="160.79551122194513" text-anchor="end" font-size="9" fill="#666">34</text>
<line x1="50" y1="132.35910224438905" x2="680" y2="132.35910224438905" stroke="#2a2a4e" stroke-width="0.5"/>
<text x="46" y="135.35910224438905" text-anchor="end" font-size="9" fill="#666">36</text>
<line x1="50" y1="106.92269326683294" x2="680" y2="106.92269326683294" stroke="#2a2a4e" stroke-width="0.5"/>
<text x="46" y="109.92269326683294" text-anchor="end" font-size="9" fill="#666">38</text>
<line x1="50" y1="81.48628428927682" x2="680" y2="81.48628428927682" stroke="#2a2a4e" stroke-width="0.5"/>
<text x="46" y="84.48628428927682" text-anchor="end" font-size="9" fill="#666">40</text>
<line x1="50" y1="56.049875311720726" x2="680" y2="56.049875311720726" stroke="#2a2a4e" stroke-width="0.5"/>
<text x="46" y="59.049875311720726" text-anchor="end" font-size="9" fill="#666">42</text>
<line x1="50" y1="30.613466334164627" x2="680" y2="30.613466334164627" stroke="#2a2a4e" stroke-width="0.5"/>
<text x="46" y="33.61346633416463" text-anchor="end" font-size="9" fill="#666">44</text>
<polyline points="57.9,227.2 73.6,232.7 89.4,246.4 105.1,246.0 120.9,246.6 136.6,250.7 152.4,252.5 168.1,252.7 183.9,260.9 199.6,256.9 215.4,260.0 231.1,261.9 246.9,257.9 262.6,251.0 278.4,245.3 294.1,237.9 309.9,228.6 325.6,223.7 341.4,221.3 357.1,219.0 372.9,218.8 388.6,220.3 404.4,217.5 420.1,215.3 435.9,218.9 451.6,218.3 467.4,199.5 483.1,178.7 498.9,155.3 514.6,141.9 530.4,111.7 546.1,97.4 561.9,85.7 577.6,80.0 593.4,78.6 609.1,79.6 624.9,88.7 640.6,99.1 656.4,105.5 672.1,78.3" fill="none" stroke="#ffd700" stroke-width="1" opacity="0.6"/>
<polyline points="57.9,227.2 73.6,230.2 89.4,238.1 105.1,239.4 120.9,240.9 136.6,244.2 152.4,246.4 168.1,247.6 183.9,253.0 199.6,252.2 215.4,254.8 231.1,256.8 246.9,255.5 262.6,252.2 278.4,248.9 294.1,244.2 309.9,238.0 325.6,233.6 341.4,230.5 357.1,227.6 372.9,225.9 388.6,225.4 404.4,222.9 420.1,220.8 435.9,221.7 451.6,220.9 467.4,210.1 483.1,196.9 498.9,180.8 514.6,168.9 530.4,147.5 546.1,133.2 561.9,120.3 577.6,110.9 593.4,104.5 609.1,100.3 624.9,101.5 640.6,104.9 656.4,107.3 672.1,92.2" fill="none" stroke="#ff6b6b" stroke-width="1" opacity="0.6"/>
<line x1="57.875" y1="214.90024937655858" x2="57.875" y2="229.78054862842893" stroke="#44aa44" stroke-width="1" opacity="0.8"/>
<rect x="53.15" y="220.24189526184537" width="9.45" height="6.995012468827952" fill="#44aa44" opacity="0.8" rx="0.5"/>
<rect x="53.15" y="321.2161628049778" width="9.45" height="13.783837195022215" fill="#44aa44" opacity="0.2" rx="0.5"/>
<line x1="73.625" y1="211.97506234413967" x2="73.625" y2="245.55112219451368" stroke="#44aa44" stroke-width="1" opacity="0.8"/>
<rect x="68.9" y="217.6982543640898" width="9.45" height="25.81795511221941" fill="#44aa44" opacity="0.8" rx="0.5"/>
<rect x="68.9" y="318.77098597033455" width="9.45" height="16.22901402966545" fill="#44aa44" opacity="0.2" rx="0.5"/>
<line x1="89.375" y1="247.96758104738154" x2="89.375" y2="276.3291770573566" stroke="#44aa44" stroke-width="1" opacity="0.8"/>
<rect x="84.65" y="253.81795511221947" width="9.45" height="19.967581047381486" fill="#44aa44" opacity="0.8" rx="0.5"/>
<rect x="84.65" y="314.24065655839837" width="9.45" height="20.75934344160163" fill="#44aa44" opacity="0.2" rx="0.5"/>
<line x1="105.125" y1="236.9027431421446" x2="105.125" y2="269.33416458852867" stroke="#ff4444" stroke-width="1" opacity="0.8"/>
<rect x="100.4" y="245.16957605985039" width="9.45" height="13.481296758104747" fill="#ff4444" opacity="0.8" rx="0.5"/>
<rect x="100.4" y="311.7587443882874" width="9.45" height="23.241255611712575" fill="#ff4444" opacity="0.2" rx="0.5"/>
<line x1="120.875" y1="235.1221945137157" x2="120.875" y2="251.01995012468825" stroke="#44aa44" stroke-width="1" opacity="0.8"/>
<rect x="116.15" y="241.0997506234414" width="9.45" height="6.740648379052317" fill="#44aa44" opacity="0.8" rx="0.5"/>
<rect x="116.15" y="318.69037873527594" width="9.45" height="16.309621264724058" fill="#44aa44" opacity="0.2" rx="0.5"/>
<line x1="136.625" y1="240.46384039900246" x2="136.625" y2="260.1770573566085" stroke="#44aa44" stroke-width="1" opacity="0.8"/>
<rect x="131.9" y="249.36658354114712" width="9.45" height="9.53865336658356" fill="#44aa44" opacity="0.8" rx="0.5"/>
<rect x="131.9" y="322.97260215823303" width="9.45" height="12.02739784176697" fill="#44aa44" opacity="0.2" rx="0.5"/>
<line x1="152.375" y1="248.9850374064838" x2="152.375" y2="273.65835411471323" stroke="#ff4444" stroke-width="1" opacity="0.8"/>
<rect x="147.65" y="256.23441396508724" width="9.45" height="9.665835411471335" fill="#ff4444" opacity="0.8" rx="0.5"/>
<rect x="147.65" y="320.2018645098914" width="9.45" height="14.79813549010862" fill="#ff4444" opacity="0.2" rx="0.5"/>
<line x1="168.125" y1="252.0374064837905" x2="168.125" y2="270.73316708229424" stroke="#ff4444" stroke-width="1" opacity="0.8"/>
<rect x="163.4" y="253.05486284289273" width="9.45" height="10.937655860349167" fill="#ff4444" opacity="0.8" rx="0.5"/>
<rect x="163.4" y="321.891897877271" width="9.45" height="13.108102122729008" fill="#ff4444" opacity="0.2" rx="0.5"/>
<line x1="183.875" y1="250.8927680798005" x2="183.875" y2="279.0" stroke="#44aa44" stroke-width="1" opacity="0.8"/>
<rect x="179.15" y="254.96259351620947" width="9.45" height="22.384039900249405" fill="#44aa44" opacity="0.8" rx="0.5"/>
<rect x="179.15" y="320.58673325198345" width="9.45" height="14.413266748016554" fill="#44aa44" opacity="0.2" rx="0.5"/>
<line x1="199.625" y1="223.930174563591" x2="199.625" y2="268.69825436408973" stroke="#ff4444" stroke-width="1" opacity="0.8"/>
<rect x="194.9" y="248.73067331670822" width="9.45" height="19.967581047381515" fill="#ff4444" opacity="0.8" rx="0.5"/>
<rect x="194.9" y="299.3432509479166" width="9.45" height="35.6567490520834" fill="#ff4444" opacity="0.2" rx="0.5"/>
<line x1="215.375" y1="244.6608478802992" x2="215.375" y2="269.9700748129676" stroke="#44aa44" stroke-width="1" opacity="0.8"/>
<rect x="210.65" y="252.29177057356608" width="9.45" height="14.117206982543593" fill="#44aa44" opacity="0.8" rx="0.5"/>
<rect x="210.65" y="311.45412091882895" width="9.45" height="23.54587908117105" fill="#44aa44" opacity="0.2" rx="0.5"/>
<line x1="231.125" y1="248.73067331670822" x2="231.125" y2="269.9700748129676" stroke="#44aa44" stroke-width="1" opacity="0.8"/>
<rect x="226.4" y="250.00249376558602" width="9.45" height="15.516209476309172" fill="#44aa44" opacity="0.8" rx="0.5"/>
<rect x="226.4" y="315.054586830848" width="9.45" height="19.945413169152005" fill="#44aa44" opacity="0.2" rx="0.5"/>
<line x1="246.875" y1="240.5910224438903" x2="246.875" y2="265.645885286783" stroke="#ff4444" stroke-width="1" opacity="0.8"/>
<rect x="242.15" y="250.00249376558602" width="9.45" height="15.643391521197003" fill="#ff4444" opacity="0.8" rx="0.5"/>
<rect x="242.15" y="312.1061513029524" width="9.45" height="22.893848697047588" fill="#ff4444" opacity="0.2" rx="0.5"/>
<line x1="262.625" y1="235.63092269326685" x2="262.625" y2="250.7655860349127" stroke="#ff4444" stroke-width="1" opacity="0.8"/>
<rect x="257.9" y="237.02992518703243" width="9.45" height="4.197007481296737" fill="#ff4444" opacity="0.8" rx="0.5"/>
<rect x="257.9" y="313.6911796275665" width="9.45" height="21.3088203724335" fill="#ff4444" opacity="0.2" rx="0.5"/>
<line x1="278.375" y1="230.5436408977556" x2="278.375" y2="249.74812967581047" stroke="#ff4444" stroke-width="1" opacity="0.8"/>
<rect x="273.65" y="234.10473815461344" width="9.45" height="10.42892768079804" fill="#ff4444" opacity="0.8" rx="0.5"/>
<rect x="273.65" y="317.1571700809451" width="9.45" height="17.842829919054907" fill="#ff4444" opacity="0.2" rx="0.5"/>
<line x1="294.125" y1="214.00997506234418" x2="294.125" y2="238.55610972568581" stroke="#ff4444" stroke-width="1" opacity="0.8"/>
<rect x="289.4" y="223.03990024937653" width="9.45" height="11.064837905236914" fill="#ff4444" opacity="0.8" rx="0.5"/>
<rect x="289.4" y="309.4468826788373" width="9.45" height="25.553117321162688" fill="#ff4444" opacity="0.2" rx="0.5"/>
<line x1="309.875" y1="204.85286783042395" x2="309.875" y2="230.28927680798003" stroke="#ff4444" stroke-width="1" opacity="0.8"/>
<rect x="305.15" y="210.06733167082294" width="9.45" height="20.221945137157093" fill="#ff4444" opacity="0.8" rx="0.5"/>
<rect x="305.15" y="311.1953562916344" width="9.45" height="23.804643708365575" fill="#ff4444" opacity="0.2" rx="0.5"/>
<line x1="325.625" y1="205.1072319201995" x2="325.625" y2="218.58852867830427" stroke="#44aa44" stroke-width="1" opacity="0.8"/>
<rect x="320.9" y="210.19451371571074" width="9.45" height="3.5610972568578063" fill="#44aa44" opacity="0.8" rx="0.5"/>
<rect x="320.9" y="316.92568099109127" width="9.45" height="18.07431900890873" fill="#44aa44" opacity="0.2" rx="0.5"/>
<line x1="341.375" y1="194.67830423940148" x2="341.375" y2="219.22443890274312" stroke="#44aa44" stroke-width="1" opacity="0.8"/>
<rect x="336.65" y="213.75561097256855" width="9.45" height="2.6708229426434116" fill="#44aa44" opacity="0.8" rx="0.5"/>
<rect x="336.65" y="311.03706062490136" width="9.45" height="23.962939375098642" fill="#44aa44" opacity="0.2" rx="0.5"/>
<line x1="357.125" y1="204.85286783042395" x2="357.125" y2="221.13216957605985" stroke="#ff4444" stroke-width="1" opacity="0.8"/>
<rect x="352.4" y="214.51870324189528" width="9.45" height="1.907730673316678" fill="#ff4444" opacity="0.8" rx="0.5"/>
<rect x="352.4" y="316.05834200764184" width="9.45" height="18.94165799235816" fill="#ff4444" opacity="0.2" rx="0.5"/>
<line x1="372.875" y1="212.8653366583541" x2="372.875" y2="226.47381546134662" stroke="#ff4444" stroke-width="1" opacity="0.8"/>
<line x1="368.15" y1="218.3341645885287" x2="377.6" y2="218.3341645885287" stroke="#ff4444" stroke-width="1.5"/>
<rect x="368.15" y="319.6841119169848" width="9.45" height="15.315888083015182" fill="#ff4444" opacity="0.2" rx="0.5"/>
<line x1="388.625" y1="215.15461346633418" x2="388.625" y2="224.94763092269326" stroke="#44aa44" stroke-width="1" opacity="0.8"/>
<rect x="383.9" y="215.15461346633418" width="9.45" height="8.266832917705699" fill="#44aa44" opacity="0.8" rx="0.5"/>
<rect x="383.9" y="321.5061383482182" width="9.45" height="13.493861651781799" fill="#44aa44" opacity="0.2" rx="0.5"/>
<line x1="404.375" y1="204.98004987531172" x2="404.375" y2="230.41645885286783" stroke="#ff4444" stroke-width="1" opacity="0.8"/>
<rect x="399.65" y="211.72069825436407" width="9.45" height="14.880299251870326" fill="#ff4444" opacity="0.8" rx="0.5"/>
<rect x="399.65" y="310.9497789054111" width="9.45" height="24.050221094588892" fill="#ff4444" opacity="0.2" rx="0.5"/>
<line x1="420.125" y1="202.5635910224439" x2="420.125" y2="216.2992518703242" stroke="#ff4444" stroke-width="1" opacity="0.8"/>
<rect x="415.4" y="211.0847880299252" width="9.45" height="3.9426433915211874" fill="#ff4444" opacity="0.8" rx="0.5"/>
<rect x="415.4" y="315.4448362342357" width="9.45" height="19.55516376576429" fill="#ff4444" opacity="0.2" rx="0.5"/>
<line x1="435.875" y1="210.06733167082294" x2="435.875" y2="230.28927680798003" stroke="#44aa44" stroke-width="1" opacity="0.8"/>
<rect x="431.15" y="212.73815461346632" width="9.45" height="13.226932668329198" fill="#44aa44" opacity="0.8" rx="0.5"/>
<rect x="431.15" y="320.8235850333672" width="9.45" height="14.17641496663282" fill="#44aa44" opacity="0.2" rx="0.5"/>
<line x1="451.625" y1="183.35910224438905" x2="451.625" y2="219.86034912718202" stroke="#44aa44" stroke-width="1" opacity="0.8"/>
<rect x="446.9" y="205.48877805486285" width="9.45" height="11.573566084788013" fill="#44aa44" opacity="0.8" rx="0.5"/>
<rect x="446.9" y="303.3694437151867" width="9.45" height="31.63055628481328" fill="#44aa44" opacity="0.2" rx="0.5"/>
<line x1="467.375" y1="159.95760598503745" x2="467.375" y2="211.84788029925187" stroke="#ff4444" stroke-width="1" opacity="0.8"/>
<rect x="462.65" y="161.86533665835415" width="9.45" height="49.98254364089772" fill="#ff4444" opacity="0.8" rx="0.5"/>
<rect x="462.65" y="288.405565373985" width="9.45" height="46.594434626015016" fill="#ff4444" opacity="0.2" rx="0.5"/>
<line x1="483.125" y1="110.10224438902745" x2="483.125" y2="179.4164588528679" stroke="#ff4444" stroke-width="1" opacity="0.8"/>
<rect x="478.4" y="137.06483790523689" width="9.45" height="35.865336658354124" fill="#ff4444" opacity="0.8" rx="0.5"/>
<rect x="478.4" y="279.0" width="9.45" height="56.0" fill="#ff4444" opacity="0.2" rx="0.5"/>
<line x1="498.875" y1="88.48129675810473" x2="498.875" y2="145.58603491271822" stroke="#ff4444" stroke-width="1" opacity="0.8"/>
<rect x="494.15" y="108.57605985037412" width="9.45" height="28.488778054862763" fill="#ff4444" opacity="0.8" rx="0.5"/>
<rect x="494.15" y="286.8319555519677" width="9.45" height="48.168044448032276" fill="#ff4444" opacity="0.2" rx="0.5"/>
<line x1="514.625" y1="101.19950124688279" x2="514.625" y2="127.78054862842896" stroke="#44aa44" stroke-width="1" opacity="0.8"/>
<rect x="509.9" y="112.00997506234414" width="9.45" height="3.1795511221945105" fill="#44aa44" opacity="0.8" rx="0.5"/>
<rect x="509.9" y="302.8493653211667" width="9.45" height="32.150634678833285" fill="#44aa44" opacity="0.2" rx="0.5"/>
<line x1="530.375" y1="43.331670822942684" x2="530.375" y2="108.06733167082301" stroke="#ff4444" stroke-width="1" opacity="0.8"/>
<rect x="525.65" y="51.089775561097284" width="9.45" height="44.89526184538653" fill="#ff4444" opacity="0.8" rx="0.5"/>
<rect x="525.65" y="295.18574283367343" width="9.45" height="39.81425716632657" fill="#ff4444" opacity="0.2" rx="0.5"/>
<line x1="546.125" y1="51.216957605985044" x2="546.125" y2="94.07730673316713" stroke="#44aa44" stroke-width="1" opacity="0.8"/>
<rect x="541.4" y="56.049875311720726" width="9.45" height="12.718204488778056" fill="#44aa44" opacity="0.8" rx="0.5"/>
<rect x="541.4" y="298.5397020658675" width="9.45" height="36.460297934132484" fill="#44aa44" opacity="0.2" rx="0.5"/>
<line x1="561.875" y1="50.45386533665842" x2="561.875" y2="84.02992518703249" stroke="#ff4444" stroke-width="1" opacity="0.8"/>
<rect x="557.15" y="62.281795511222" width="9.45" height="12.718204488778056" fill="#ff4444" opacity="0.8" rx="0.5"/>
<rect x="557.15" y="309.3631820769556" width="9.45" height="25.63681792304442" fill="#ff4444" opacity="0.2" rx="0.5"/>
<line x1="577.625" y1="52.234413965087356" x2="577.625" y2="73.85536159600998" stroke="#44aa44" stroke-width="1" opacity="0.8"/>
<rect x="572.9" y="60.374064837905316" width="9.45" height="8.266832917705706" fill="#44aa44" opacity="0.8" rx="0.5"/>
<rect x="572.9" y="315.7123649729108" width="9.45" height="19.28763502708921" fill="#44aa44" opacity="0.2" rx="0.5"/>
<line x1="593.375" y1="54.77805486284291" x2="593.375" y2="86.57356608478804" stroke="#44aa44" stroke-width="1" opacity="0.8"/>
<rect x="588.65" y="66.98753117206985" width="9.45" height="8.902743142144672" fill="#44aa44" opacity="0.8" rx="0.5"/>
<rect x="588.65" y="314.4339342248813" width="9.45" height="20.566065775118716" fill="#44aa44" opacity="0.2" rx="0.5"/>
<line x1="609.125" y1="59.48379052369085" x2="609.125" y2="86.31920199501252" stroke="#44aa44" stroke-width="1" opacity="0.8"/>
<rect x="604.4" y="73.85536159600998" width="9.45" height="7.6309226932668395" fill="#44aa44" opacity="0.8" rx="0.5"/>
<rect x="604.4" y="311.4857066328468" width="9.45" height="23.514293367153186" fill="#44aa44" opacity="0.2" rx="0.5"/>
<line x1="624.875" y1="77.67082294264345" x2="624.875" y2="107.8129675810474" stroke="#44aa44" stroke-width="1" opacity="0.8"/>
<rect x="620.15" y="80.85037406483798" width="9.45" height="26.072319201994958" fill="#44aa44" opacity="0.8" rx="0.5"/>
<rect x="620.15" y="313.3480751882505" width="9.45" height="21.651924811749495" fill="#44aa44" opacity="0.2" rx="0.5"/>
<line x1="640.625" y1="96.36658354114718" x2="640.625" y2="124.09226932668334" stroke="#44aa44" stroke-width="1" opacity="0.8"/>
<rect x="635.9" y="106.92269326683294" width="9.45" height="12.972568578553663" fill="#44aa44" opacity="0.8" rx="0.5"/>
<rect x="635.9" y="318.0579970064754" width="9.45" height="16.942002993524625" fill="#44aa44" opacity="0.2" rx="0.5"/>
<line x1="656.375" y1="106.92269326683294" x2="656.375" y2="130.96009975062347" stroke="#ff4444" stroke-width="1" opacity="0.8"/>
<rect x="651.65" y="118.36907730673316" width="9.45" height="3.6882793017456237" fill="#ff4444" opacity="0.8" rx="0.5"/>
<rect x="651.65" y="319.251340913549" width="9.45" height="15.748659086451028" fill="#ff4444" opacity="0.2" rx="0.5"/>
<line x1="672.125" y1="24.0" x2="672.125" y2="129.30673316708229" stroke="#ff4444" stroke-width="1" opacity="0.8"/>
<rect x="667.4" y="24.0" width="9.45" height="98.05735660847878" fill="#ff4444" opacity="0.8" rx="0.5"/>
<rect x="667.4" y="305.4969330606513" width="9.45" height="29.503066939348685" fill="#ff4444" opacity="0.2" rx="0.5"/>
<text x="57.875" y="347" text-anchor="middle" font-size="8" fill="#666">03-19</text>
<text x="136.625" y="347" text-anchor="middle" font-size="8" fill="#666">03-26</text>
<text x="215.375" y="347" text-anchor="middle" font-size="8" fill="#666">04-02</text>
<text x="294.125" y="347" text-anchor="middle" font-size="8" fill="#666">04-10</text>
<text x="372.875" y="347" text-anchor="middle" font-size="8" fill="#666">04-17</text>
<text x="451.625" y="347" text-anchor="middle" font-size="8" fill="#666">04-24</text>
<text x="530.375" y="347" text-anchor="middle" font-size="8" fill="#666">05-06</text>
<text x="609.125" y="347" text-anchor="middle" font-size="8" fill="#666">05-13</text>
<text x="672.125" y="347" text-anchor="middle" font-size="8" fill="#666">05-19</text>
<rect x="30" y="363" width="7" height="7" fill="#ff9800" opacity="0.8" rx="1"/>
<text x="40" y="369" font-family="sans-serif" font-size="8" fill="#888">第1类</text>
<rect x="130" y="363" width="7" height="7" fill="#2196f3" opacity="0.8" rx="1"/>
<text x="140" y="369" font-family="sans-serif" font-size="8" fill="#888">第2类</text>
<rect x="230" y="363" width="7" height="7" fill="#ffd700" opacity="0.8" rx="1"/>
<text x="240" y="369" font-family="sans-serif" font-size="8" fill="#888">EMA5</text>
<rect x="330" y="363" width="7" height="7" fill="#ff6b6b" opacity="0.8" rx="1"/>
<text x="340" y="369" font-family="sans-serif" font-size="8" fill="#888">EMA10</text>
</svg>