<svg xmlns="http://www.w3.org/2000/svg" width="700" height="380" viewBox="0 0 700 380">
<rect width="700" height="380" fill="#1a1a2e"/>
<text x="350" y="16" text-anchor="middle" font-family="sans-serif" font-size="13" font-weight="bold" fill="#fff">华丰科技(688629) 关键点图</text>
<line x1="50" y1="264.51724137931035" x2="680" y2="264.51724137931035" stroke="#2a2a4e" stroke-width="0.5"/>
<text x="46" y="267.51724137931035" text-anchor="end" font-size="9" fill="#666">102</text>
<line x1="50" y1="233.48275862068965" x2="680" y2="233.48275862068965" stroke="#2a2a4e" stroke-width="0.5"/>
<text x="46" y="236.48275862068965" text-anchor="end" font-size="9" fill="#666">108</text>
<line x1="50" y1="202.44827586206898" x2="680" y2="202.44827586206898" stroke="#2a2a4e" stroke-width="0.5"/>
<text x="46" y="205.44827586206898" text-anchor="end" font-size="9" fill="#666">114</text>
<line x1="50" y1="171.41379310344828" x2="680" y2="171.41379310344828" stroke="#2a2a4e" stroke-width="0.5"/>
<text x="46" y="174.41379310344828" text-anchor="end" font-size="9" fill="#666">120</text>
<line x1="50" y1="140.3793103448276" x2="680" y2="140.3793103448276" stroke="#2a2a4e" stroke-width="0.5"/>
<text x="46" y="143.3793103448276" text-anchor="end" font-size="9" fill="#666">126</text>
<line x1="50" y1="109.3448275862069" x2="680" y2="109.3448275862069" stroke="#2a2a4e" stroke-width="0.5"/>
<text x="46" y="112.3448275862069" text-anchor="end" font-size="9" fill="#666">132</text>
<line x1="50" y1="78.3103448275862" x2="680" y2="78.3103448275862" stroke="#2a2a4e" stroke-width="0.5"/>
<text x="46" y="81.3103448275862" text-anchor="end" font-size="9" fill="#666">138</text>
<line x1="50" y1="47.275862068965516" x2="680" y2="47.275862068965516" stroke="#2a2a4e" stroke-width="0.5"/>
<text x="46" y="50.275862068965516" text-anchor="end" font-size="9" fill="#666">144</text>
<polyline points="57.9,237.1 73.6,232.5 89.4,231.1 105.1,228.6 120.9,227.0 136.6,237.6 152.4,234.3 168.1,234.3 183.9,242.1 199.6,233.5 215.4,234.8 231.1,221.3 246.9,210.3 262.6,186.0 278.4,169.4 294.1,160.5 309.9,156.3 325.6,148.4 341.4,135.4 357.1,126.9 372.9,113.5 388.6,100.9 404.4,92.5 420.1,94.7 435.9,105.2 451.6,89.9 467.4,89.4 483.1,101.2 498.9,112.2 514.6,104.0 530.4,92.3 546.1,80.7 561.9,82.4 577.6,78.4 593.4,83.4 609.1,83.7 624.9,93.7 640.6,108.9 656.4,109.4 672.1,83.1" fill="none" stroke="#ffd700" stroke-width="1" opacity="0.6"/>
<polyline points="57.9,237.1 73.6,234.6 89.4,233.4 105.1,231.7 120.9,230.2 136.6,235.4 152.4,234.0 168.1,234.1 183.9,238.4 199.6,234.3 215.4,234.9 231.1,227.5 246.9,220.4 262.6,205.3 278.4,192.7 294.1,183.6 309.9,177.1 325.6,169.0 341.4,158.2 357.1,149.4 372.9,138.0 388.6,126.7 404.4,117.4 420.1,114.1 435.9,116.3 451.6,105.9 467.4,102.8 483.1,106.7 498.9,111.8 514.6,107.4 530.4,100.4 546.1,92.6 561.9,91.3 577.6,87.6 593.4,88.6 609.1,87.8 624.9,92.5 640.6,101.0 656.4,102.7 672.1,89.6" fill="none" stroke="#ff6b6b" stroke-width="1" opacity="0.6"/>
<line x1="57.875" y1="224.79310344827584" x2="57.875" y2="246.41379310344828" stroke="#ff4444" stroke-width="1" opacity="0.8"/>
<rect x="53.15" y="237.05172413793105" width="9.45" height="9.362068965517238" fill="#ff4444" opacity="0.8" rx="0.5"/>
<rect x="53.15" y="315.1133693128599" width="9.45" height="19.886630687140098" fill="#ff4444" opacity="0.2" rx="0.5"/>
<line x1="73.625" y1="203.17241379310346" x2="73.625" y2="249.93103448275866" stroke="#ff4444" stroke-width="1" opacity="0.8"/>
<rect x="68.9" y="223.44827586206898" width="9.45" height="4.862068965517238" fill="#ff4444" opacity="0.8" rx="0.5"/>
<rect x="68.9" y="303.2242795367873" width="9.45" height="31.77572046321268" fill="#ff4444" opacity="0.2" rx="0.5"/>
<line x1="89.375" y1="207.62068965517244" x2="89.375" y2="254.17241379310346" stroke="#ff4444" stroke-width="1" opacity="0.8"/>
<rect x="84.65" y="228.31034482758622" width="9.45" height="25.86206896551724" fill="#ff4444" opacity="0.8" rx="0.5"/>
<rect x="84.65" y="303.75606671060063" width="9.45" height="31.243933289399365" fill="#ff4444" opacity="0.2" rx="0.5"/>
<line x1="105.125" y1="218.01724137931038" x2="105.125" y2="262.08620689655174" stroke="#44aa44" stroke-width="1" opacity="0.8"/>
<rect x="100.4" y="219.46551724137933" width="9.45" height="4.189655172413751" fill="#44aa44" opacity="0.8" rx="0.5"/>
<rect x="100.4" y="307.9735509367819" width="9.45" height="27.02644906321808" fill="#44aa44" opacity="0.2" rx="0.5"/>
<line x1="120.875" y1="194.5344827586207" x2="120.875" y2="224.6379310344828" stroke="#44aa44" stroke-width="1" opacity="0.8"/>
<rect x="116.15" y="217.96551724137933" width="9.45" height="5.741379310344826" fill="#44aa44" opacity="0.8" rx="0.5"/>
<rect x="116.15" y="305.5525892810628" width="9.45" height="29.447410718937192" fill="#44aa44" opacity="0.2" rx="0.5"/>
<line x1="136.625" y1="229.81034482758625" x2="136.625" y2="261.5689655172414" stroke="#44aa44" stroke-width="1" opacity="0.8"/>
<rect x="131.9" y="238.2931034482759" width="9.45" height="20.534482758620726" fill="#44aa44" opacity="0.8" rx="0.5"/>
<rect x="131.9" y="311.7319554686313" width="9.45" height="23.268044531368673" fill="#44aa44" opacity="0.2" rx="0.5"/>
<line x1="152.375" y1="224.17241379310346" x2="152.375" y2="279.0" stroke="#ff4444" stroke-width="1" opacity="0.8"/>
<rect x="147.65" y="227.8448275862069" width="9.45" height="47.01724137931038" fill="#ff4444" opacity="0.8" rx="0.5"/>
<rect x="147.65" y="311.7880477357586" width="9.45" height="23.211952264241404" fill="#ff4444" opacity="0.2" rx="0.5"/>
<line x1="168.125" y1="223.18965517241384" x2="168.125" y2="256.2413793103449" stroke="#ff4444" stroke-width="1" opacity="0.8"/>
<rect x="163.4" y="234.1034482758621" width="9.45" height="14.844827586206861" fill="#ff4444" opacity="0.8" rx="0.5"/>
<rect x="163.4" y="314.4511634677116" width="9.45" height="20.54883653228842" fill="#ff4444" opacity="0.2" rx="0.5"/>
<line x1="183.875" y1="228.31034482758622" x2="183.875" y2="258.9827586206897" stroke="#44aa44" stroke-width="1" opacity="0.8"/>
<rect x="179.15" y="233.68965517241384" width="9.45" height="24.20689655172407" fill="#44aa44" opacity="0.8" rx="0.5"/>
<rect x="179.15" y="318.76016455636307" width="9.45" height="16.239835443636935" fill="#44aa44" opacity="0.2" rx="0.5"/>
<line x1="199.625" y1="215.3793103448276" x2="199.625" y2="247.29310344827587" stroke="#ff4444" stroke-width="1" opacity="0.8"/>
<rect x="194.9" y="216.15517241379314" width="9.45" height="22.49999999999997" fill="#ff4444" opacity="0.8" rx="0.5"/>
<rect x="194.9" y="306.42664133580774" width="9.45" height="28.573358664192256" fill="#ff4444" opacity="0.2" rx="0.5"/>
<line x1="215.375" y1="214.8620689655173" x2="215.375" y2="240.05172413793105" stroke="#44aa44" stroke-width="1" opacity="0.8"/>
<rect x="210.65" y="219.72413793103453" width="9.45" height="17.84482758620689" fill="#44aa44" opacity="0.8" rx="0.5"/>
<rect x="210.65" y="316.8313624519632" width="9.45" height="18.168637548036827" fill="#44aa44" opacity="0.2" rx="0.5"/>
<line x1="231.125" y1="188.2241379310345" x2="231.125" y2="233.48275862068965" stroke="#ff4444" stroke-width="1" opacity="0.8"/>
<rect x="226.4" y="194.22413793103448" width="9.45" height="32.12068965517247" fill="#ff4444" opacity="0.8" rx="0.5"/>
<rect x="226.4" y="304.0963613421237" width="9.45" height="30.903638657876286" fill="#ff4444" opacity="0.2" rx="0.5"/>
<line x1="246.875" y1="156.6206896551724" x2="246.875" y2="188.6896551724138" stroke="#44aa44" stroke-width="1" opacity="0.8"/>
<rect x="242.15" y="181.86206896551724" width="9.45" height="6.413793103448313" fill="#44aa44" opacity="0.8" rx="0.5"/>
<rect x="242.15" y="306.5833321440965" width="9.45" height="28.416667855903484" fill="#44aa44" opacity="0.2" rx="0.5"/>
<line x1="262.625" y1="132.56896551724134" x2="262.625" y2="162.00000000000006" stroke="#ff4444" stroke-width="1" opacity="0.8"/>
<rect x="257.9" y="137.37931034482762" width="9.45" height="9.413793103448228" fill="#ff4444" opacity="0.8" rx="0.5"/>
<rect x="257.9" y="303.4214408894269" width="9.45" height="31.57855911057311" fill="#ff4444" opacity="0.2" rx="0.5"/>
<line x1="278.375" y1="122.79310344827584" x2="278.375" y2="153.72413793103448" stroke="#ff4444" stroke-width="1" opacity="0.8"/>
<rect x="273.65" y="136.18965517241378" width="9.45" height="17.482758620689623" fill="#ff4444" opacity="0.8" rx="0.5"/>
<rect x="273.65" y="311.36817742025147" width="9.45" height="23.63182257974853" fill="#ff4444" opacity="0.2" rx="0.5"/>
<line x1="294.125" y1="124.4482758620689" x2="294.125" y2="148.9655172413793" stroke="#44aa44" stroke-width="1" opacity="0.8"/>
<rect x="289.4" y="135.20689655172413" width="9.45" height="7.396551724137964" fill="#44aa44" opacity="0.8" rx="0.5"/>
<rect x="289.4" y="312.25585521029234" width="9.45" height="22.74414478970766" fill="#44aa44" opacity="0.2" rx="0.5"/>
<line x1="309.875" y1="132.77586206896552" x2="309.875" y2="155.68965517241378" stroke="#ff4444" stroke-width="1" opacity="0.8"/>
<rect x="305.15" y="147.98275862068965" width="9.45" height="6.258620689655203" fill="#ff4444" opacity="0.8" rx="0.5"/>
<rect x="305.15" y="315.78120407434596" width="9.45" height="19.218795925654035" fill="#ff4444" opacity="0.2" rx="0.5"/>
<line x1="325.625" y1="121.7586206896552" x2="325.625" y2="168.67241379310343" stroke="#ff4444" stroke-width="1" opacity="0.8"/>
<rect x="320.9" y="132.6206896551724" width="9.45" height="4.448275862068982" fill="#ff4444" opacity="0.8" rx="0.5"/>
<rect x="320.9" y="302.09455062280045" width="9.45" height="32.905449377199545" fill="#ff4444" opacity="0.2" rx="0.5"/>
<line x1="341.375" y1="90.82758620689648" x2="341.375" y2="149.58620689655174" stroke="#ff4444" stroke-width="1" opacity="0.8"/>
<rect x="336.65" y="109.44827586206902" width="9.45" height="10.396551724137879" fill="#ff4444" opacity="0.8" rx="0.5"/>
<rect x="336.65" y="297.07599979253274" width="9.45" height="37.92400020746726" fill="#ff4444" opacity="0.2" rx="0.5"/>
<line x1="357.125" y1="75.31034482758614" x2="357.125" y2="122.79310344827584" stroke="#44aa44" stroke-width="1" opacity="0.8"/>
<rect x="352.4" y="98.32758620689657" width="9.45" height="11.637931034482762" fill="#44aa44" opacity="0.8" rx="0.5"/>
<rect x="352.4" y="301.47461570013655" width="9.45" height="33.52538429986345" fill="#44aa44" opacity="0.2" rx="0.5"/>
<line x1="372.875" y1="75.82758620689661" x2="372.875" y2="124.86206896551725" stroke="#ff4444" stroke-width="1" opacity="0.8"/>
<rect x="368.15" y="86.5862068965517" width="9.45" height="38.27586206896555" fill="#ff4444" opacity="0.8" rx="0.5"/>
<rect x="368.15" y="307.2499520685861" width="9.45" height="27.750047931413917" fill="#ff4444" opacity="0.2" rx="0.5"/>
<line x1="388.625" y1="30.3103448275862" x2="388.625" y2="84.72413793103453" stroke="#44aa44" stroke-width="1" opacity="0.8"/>
<rect x="383.9" y="52.44827586206897" width="9.45" height="23.275862068965523" fill="#44aa44" opacity="0.8" rx="0.5"/>
<rect x="383.9" y="299.7032456604979" width="9.45" height="35.296754339502115" fill="#44aa44" opacity="0.2" rx="0.5"/>
<line x1="404.375" y1="72.67241379310343" x2="404.375" y2="111.56896551724141" stroke="#ff4444" stroke-width="1" opacity="0.8"/>
<rect x="399.65" y="75.72413793103449" width="9.45" height="7.086206896551744" fill="#ff4444" opacity="0.8" rx="0.5"/>
<rect x="399.65" y="312.4563972586839" width="9.45" height="22.54360274131608" fill="#ff4444" opacity="0.2" rx="0.5"/>
<line x1="420.125" y1="64.86206896551727" x2="420.125" y2="141.31034482758625" stroke="#44aa44" stroke-width="1" opacity="0.8"/>
<rect x="415.4" y="83.48275862068965" width="9.45" height="15.517241379310349" fill="#44aa44" opacity="0.8" rx="0.5"/>
<rect x="415.4" y="289.13993941395745" width="9.45" height="45.86006058604255" fill="#44aa44" opacity="0.2" rx="0.5"/>
<line x1="435.875" y1="81.31034482758628" x2="435.875" y2="138.31034482758616" stroke="#44aa44" stroke-width="1" opacity="0.8"/>
<rect x="431.15" y="94.448275862069" width="9.45" height="31.706896551724114" fill="#44aa44" opacity="0.8" rx="0.5"/>
<rect x="431.15" y="301.7226432043918" width="9.45" height="33.27735679560823" fill="#44aa44" opacity="0.2" rx="0.5"/>
<line x1="451.625" y1="36.93103448275862" x2="451.625" y2="146.94827586206895" stroke="#ff4444" stroke-width="1" opacity="0.8"/>
<rect x="446.9" y="59.32758620689662" width="9.45" height="62.63793103448268" fill="#ff4444" opacity="0.8" rx="0.5"/>
<rect x="446.9" y="279.0" width="9.45" height="56.0" fill="#ff4444" opacity="0.2" rx="0.5"/>
<line x1="467.375" y1="62.793103448275865" x2="467.375" y2="99.0" stroke="#44aa44" stroke-width="1" opacity="0.8"/>
<rect x="462.65" y="73.13793103448276" width="9.45" height="15.413793103448228" fill="#44aa44" opacity="0.8" rx="0.5"/>
<rect x="462.65" y="291.3587889988954" width="9.45" height="43.64121100110458" fill="#44aa44" opacity="0.2" rx="0.5"/>
<line x1="483.125" y1="79.29310344827586" x2="483.125" y2="130.0344827586207" stroke="#44aa44" stroke-width="1" opacity="0.8"/>
<rect x="478.4" y="83.53448275862064" width="9.45" height="41.06896551724137" fill="#44aa44" opacity="0.8" rx="0.5"/>
<rect x="478.4" y="304.50301129696834" width="9.45" height="30.49698870303166" fill="#44aa44" opacity="0.2" rx="0.5"/>
<line x1="498.875" y1="121.86206896551718" x2="498.875" y2="145.29310344827587" stroke="#ff4444" stroke-width="1" opacity="0.8"/>
<line x1="494.15" y1="134.37931034482762" x2="503.6" y2="134.37931034482762" stroke="#ff4444" stroke-width="1.5"/>
<rect x="494.15" y="309.66875430006775" width="9.45" height="25.331245699932254" fill="#ff4444" opacity="0.2" rx="0.5"/>
<line x1="514.625" y1="73.91379310344831" x2="514.625" y2="153.25862068965515" stroke="#ff4444" stroke-width="1" opacity="0.8"/>
<rect x="509.9" y="87.62068965517247" width="9.45" height="36.72413793103446" fill="#ff4444" opacity="0.8" rx="0.5"/>
<rect x="509.9" y="291.5351449810656" width="9.45" height="43.46485501893437" fill="#ff4444" opacity="0.2" rx="0.5"/>
<line x1="530.375" y1="24.0" x2="530.375" y2="73.7586206896552" stroke="#44aa44" stroke-width="1" opacity="0.8"/>
<rect x="525.65" y="57.62068965517242" width="9.45" height="11.275862068965544" fill="#44aa44" opacity="0.8" rx="0.5"/>
<rect x="525.65" y="293.8275591232813" width="9.45" height="41.172440876718724" fill="#44aa44" opacity="0.2" rx="0.5"/>
<line x1="546.125" y1="51.620689655172434" x2="546.125" y2="88.55172413793099" stroke="#ff4444" stroke-width="1" opacity="0.8"/>
<rect x="541.4" y="57.41379310344832" width="9.45" height="5.3793103448275446" fill="#ff4444" opacity="0.8" rx="0.5"/>
<rect x="541.4" y="304.3754765765965" width="9.45" height="30.624523423403502" fill="#ff4444" opacity="0.2" rx="0.5"/>
<line x1="561.875" y1="71.06896551724135" x2="561.875" y2="92.48275862068971" stroke="#44aa44" stroke-width="1" opacity="0.8"/>
<rect x="557.15" y="78.20689655172409" width="9.45" height="7.655172413793196" fill="#44aa44" opacity="0.8" rx="0.5"/>
<rect x="557.15" y="303.6356189683432" width="9.45" height="31.36438103165682" fill="#44aa44" opacity="0.2" rx="0.5"/>
<line x1="577.625" y1="53.17241379310338" x2="577.625" y2="101.58620689655173" stroke="#ff4444" stroke-width="1" opacity="0.8"/>
<rect x="572.9" y="70.50000000000006" width="9.45" height="3.258620689655146" fill="#ff4444" opacity="0.8" rx="0.5"/>
<rect x="572.9" y="302.17346869904594" width="9.45" height="32.82653130095406" fill="#ff4444" opacity="0.2" rx="0.5"/>
<line x1="593.375" y1="73.34482758620686" x2="593.375" y2="103.13793103448282" stroke="#44aa44" stroke-width="1" opacity="0.8"/>
<rect x="588.65" y="77.27586206896558" width="9.45" height="15.931034482758534" fill="#44aa44" opacity="0.8" rx="0.5"/>
<rect x="588.65" y="306.71704528864245" width="9.45" height="28.282954711357547" fill="#44aa44" opacity="0.2" rx="0.5"/>
<line x1="609.125" y1="73.18965517241375" x2="609.125" y2="114.46551724137936" stroke="#ff4444" stroke-width="1" opacity="0.8"/>
<rect x="604.4" y="84.51724137931029" width="9.45" height="20.741379310344925" fill="#ff4444" opacity="0.8" rx="0.5"/>
<rect x="604.4" y="303.9632800672444" width="9.45" height="31.036719932755602" fill="#ff4444" opacity="0.2" rx="0.5"/>
<line x1="624.875" y1="73.7586206896552" x2="624.875" y2="114.25862068965512" stroke="#44aa44" stroke-width="1" opacity="0.8"/>
<rect x="620.15" y="73.9655172413793" width="9.45" height="39.517241379310406" fill="#44aa44" opacity="0.8" rx="0.5"/>
<rect x="620.15" y="310.2030882561015" width="9.45" height="24.796911743898477" fill="#44aa44" opacity="0.2" rx="0.5"/>
<line x1="640.625" y1="109.60344827586214" x2="640.625" y2="152.7931034482759" stroke="#44aa44" stroke-width="1" opacity="0.8"/>
<rect x="635.9" y="118.65517241379317" width="9.45" height="20.689655172413723" fill="#44aa44" opacity="0.8" rx="0.5"/>
<rect x="635.9" y="309.44223867635714" width="9.45" height="25.557761323642865" fill="#44aa44" opacity="0.2" rx="0.5"/>
<line x1="656.375" y1="84.6724137931034" x2="656.375" y2="130.08620689655174" stroke="#ff4444" stroke-width="1" opacity="0.8"/>
<rect x="651.65" y="110.37931034482754" width="9.45" height="19.655172413793153" fill="#ff4444" opacity="0.8" rx="0.5"/>
<rect x="651.65" y="307.23967871716303" width="9.45" height="27.76032128283697" fill="#ff4444" opacity="0.2" rx="0.5"/>
<line x1="672.125" y1="26.586206896551722" x2="672.125" y2="132.56896551724134" stroke="#ff4444" stroke-width="1" opacity="0.8"/>
<rect x="667.4" y="30.5172413793103" width="9.45" height="73.65517241379317" fill="#ff4444" opacity="0.8" rx="0.5"/>
<rect x="667.4" y="289.82140505835383" width="9.45" height="45.17859494164617" fill="#ff4444" opacity="0.2" rx="0.5"/>
<text x="57.875" y="347" text-anchor="middle" font-size="8" fill="#666">03-19</text>
<text x="136.625" y="347" text-anchor="middle" font-size="8" fill="#666">03-26</text>
<text x="215.375" y="347" text-anchor="middle" font-size="8" fill="#666">04-02</text>
<text x="294.125" y="347" text-anchor="middle" font-size="8" fill="#666">04-10</text>
<text x="372.875" y="347" text-anchor="middle" font-size="8" fill="#666">04-17</text>
<text x="451.625" y="347" text-anchor="middle" font-size="8" fill="#666">04-24</text>
<text x="530.375" y="347" text-anchor="middle" font-size="8" fill="#666">05-06</text>
<text x="609.125" y="347" text-anchor="middle" font-size="8" fill="#666">05-13</text>
<text x="672.125" y="347" text-anchor="middle" font-size="8" fill="#666">05-19</text>
<rect x="30" y="363" width="7" height="7" fill="#ff9800" opacity="0.8" rx="1"/>
<text x="40" y="369" font-family="sans-serif" font-size="8" fill="#888">第1类</text>
<rect x="130" y="363" width="7" height="7" fill="#2196f3" opacity="0.8" rx="1"/>
<text x="140" y="369" font-family="sans-serif" font-size="8" fill="#888">第2类</text>
<rect x="230" y="363" width="7" height="7" fill="#ffd700" opacity="0.8" rx="1"/>
<text x="240" y="369" font-family="sans-serif" font-size="8" fill="#888">EMA5</text>
<rect x="330" y="363" width="7" height="7" fill="#ff6b6b" opacity="0.8" rx="1"/>
<text x="340" y="369" font-family="sans-serif" font-size="8" fill="#888">EMA10</text>
</svg>