<svg xmlns="http://www.w3.org/2000/svg" width="700" height="380" viewBox="0 0 700 380">
<rect width="700" height="380" fill="#1a1a2e"/>
<text x="350" y="16" text-anchor="middle" font-family="sans-serif" font-size="13" font-weight="bold" fill="#fff">彩讯股份(300634) 关键点图</text>
<line x1="50" y1="261.2541603630862" x2="680" y2="261.2541603630862" stroke="#2a2a4e" stroke-width="0.5"/>
<text x="46" y="264.2541603630862" text-anchor="end" font-size="9" fill="#666">23</text>
<line x1="50" y1="222.67624810892582" x2="680" y2="222.67624810892582" stroke="#2a2a4e" stroke-width="0.5"/>
<text x="46" y="225.67624810892582" text-anchor="end" font-size="9" fill="#666">24</text>
<line x1="50" y1="184.09833585476545" x2="680" y2="184.09833585476545" stroke="#2a2a4e" stroke-width="0.5"/>
<text x="46" y="187.09833585476545" text-anchor="end" font-size="9" fill="#666">25</text>
<line x1="50" y1="145.5204236006051" x2="680" y2="145.5204236006051" stroke="#2a2a4e" stroke-width="0.5"/>
<text x="46" y="148.5204236006051" text-anchor="end" font-size="9" fill="#666">26</text>
<line x1="50" y1="106.94251134644473" x2="680" y2="106.94251134644473" stroke="#2a2a4e" stroke-width="0.5"/>
<text x="46" y="109.94251134644473" text-anchor="end" font-size="9" fill="#666">27</text>
<line x1="50" y1="68.36459909228438" x2="680" y2="68.36459909228438" stroke="#2a2a4e" stroke-width="0.5"/>
<text x="46" y="71.36459909228438" text-anchor="end" font-size="9" fill="#666">28</text>
<line x1="50" y1="29.786686838123998" x2="680" y2="29.786686838123998" stroke="#2a2a4e" stroke-width="0.5"/>
<text x="46" y="32.786686838124" text-anchor="end" font-size="9" fill="#666">29</text>
<polyline points="57.9,142.4 73.6,160.7 89.4,194.5 105.1,210.2 120.9,212.2 136.6,224.4 152.4,228.7 168.1,227.6 183.9,229.9 199.6,221.9 215.4,226.0 231.1,229.1 246.9,232.0 262.6,199.2 278.4,189.9 294.1,181.8 309.9,169.2 325.6,151.1 341.4,137.4 357.1,117.2 372.9,105.3 388.6,99.8 404.4,101.8 420.1,95.9 435.9,95.9 451.6,98.8 467.4,103.2 483.1,122.1 498.9,164.2 514.6,201.8 530.4,215.6 546.1,209.1 561.9,204.7 577.6,200.2 593.4,206.4 609.1,203.7 624.9,218.8 640.6,225.5 656.4,220.8 672.1,155.2" fill="none" stroke="#ffd700" stroke-width="1" opacity="0.6"/>
<polyline points="57.9,142.4 73.6,152.4 89.4,172.3 105.1,184.9 120.9,190.6 136.6,201.2 152.4,207.8 168.1,211.0 183.9,215.3 199.6,213.5 215.4,217.3 231.1,220.6 246.9,223.7 262.6,207.3 278.4,200.8 294.1,194.4 309.9,185.2 325.6,172.5 341.4,161.1 357.1,145.8 372.9,134.1 388.6,125.9 404.4,122.2 420.1,115.3 435.9,111.7 451.6,110.5 467.4,110.7 483.1,119.6 498.9,143.1 514.6,167.4 530.4,181.2 546.1,183.9 561.9,186.1 577.6,187.0 593.4,192.8 609.1,193.8 624.9,203.8 640.6,210.2 656.4,210.4 672.1,176.5" fill="none" stroke="#ff6b6b" stroke-width="1" opacity="0.6"/>
<line x1="57.875" y1="127.38880484114976" x2="57.875" y2="154.00756429652034" stroke="#44aa44" stroke-width="1" opacity="0.8"/>
<rect x="53.15" y="138.96217851739777" width="9.45" height="3.4720121028745723" fill="#44aa44" opacity="0.8" rx="0.5"/>
<rect x="53.15" y="324.66968895918455" width="9.45" height="10.330311040815445" fill="#44aa44" opacity="0.2" rx="0.5"/>
<line x1="73.625" y1="133.17549167927376" x2="73.625" y2="197.60060514372165" stroke="#44aa44" stroke-width="1" opacity="0.8"/>
<rect x="68.9" y="137.80484114977304" width="9.45" height="59.40998487140695" fill="#44aa44" opacity="0.8" rx="0.5"/>
<rect x="68.9" y="319.7029696392586" width="9.45" height="15.297030360741417" fill="#44aa44" opacity="0.2" rx="0.5"/>
<line x1="89.375" y1="197.98638426626317" x2="89.375" y2="267.42662632375186" stroke="#44aa44" stroke-width="1" opacity="0.8"/>
<rect x="84.65" y="222.67624810892582" width="9.45" height="39.34947049924361" fill="#44aa44" opacity="0.8" rx="0.5"/>
<rect x="84.65" y="319.2670335272425" width="9.45" height="15.732966472757482" fill="#44aa44" opacity="0.2" rx="0.5"/>
<line x1="105.125" y1="238.10741301058994" x2="105.125" y2="264.340393343419" stroke="#ff4444" stroke-width="1" opacity="0.8"/>
<rect x="100.4" y="241.57942511346437" width="9.45" height="3.0862329803328805" fill="#ff4444" opacity="0.8" rx="0.5"/>
<rect x="100.4" y="324.8142823126371" width="9.45" height="10.18571768736291" fill="#ff4444" opacity="0.2" rx="0.5"/>
<line x1="120.875" y1="203.77307110438733" x2="120.875" y2="236.95007564296523" stroke="#ff4444" stroke-width="1" opacity="0.8"/>
<rect x="116.15" y="216.1180030257185" width="9.45" height="20.832072617246723" fill="#ff4444" opacity="0.8" rx="0.5"/>
<rect x="116.15" y="323.2342973392487" width="9.45" height="11.765702660751288" fill="#ff4444" opacity="0.2" rx="0.5"/>
<line x1="136.625" y1="216.88956127080183" x2="136.625" y2="252.76701966717096" stroke="#44aa44" stroke-width="1" opacity="0.8"/>
<rect x="131.9" y="221.51891074130097" width="9.45" height="27.39031770045392" fill="#44aa44" opacity="0.8" rx="0.5"/>
<rect x="131.9" y="326.6054626367708" width="9.45" height="8.394537363229176" fill="#44aa44" opacity="0.2" rx="0.5"/>
<line x1="152.375" y1="231.93494704992426" x2="152.375" y2="264.72617246596064" stroke="#ff4444" stroke-width="1" opacity="0.8"/>
<rect x="147.65" y="237.33585476550675" width="9.45" height="25.46142208774583" fill="#ff4444" opacity="0.8" rx="0.5"/>
<rect x="147.65" y="329.07691606991324" width="9.45" height="5.9230839300867615" fill="#ff4444" opacity="0.2" rx="0.5"/>
<line x1="168.125" y1="218.4326777609682" x2="168.125" y2="266.6550680786687" stroke="#ff4444" stroke-width="1" opacity="0.8"/>
<rect x="163.4" y="225.3767019667171" width="9.45" height="28.93343419062026" fill="#ff4444" opacity="0.8" rx="0.5"/>
<rect x="163.4" y="326.77545557549615" width="9.45" height="8.224544424503847" fill="#ff4444" opacity="0.2" rx="0.5"/>
<line x1="183.875" y1="205.3161875945537" x2="183.875" y2="235.79273827534033" stroke="#44aa44" stroke-width="1" opacity="0.8"/>
<rect x="179.15" y="222.29046898638416" width="9.45" height="12.344931921331323" fill="#44aa44" opacity="0.8" rx="0.5"/>
<rect x="179.15" y="322.489223965231" width="9.45" height="12.51077603476898" fill="#44aa44" opacity="0.2" rx="0.5"/>
<line x1="199.625" y1="189.88502269288946" x2="199.625" y2="219.9757942511346" stroke="#ff4444" stroke-width="1" opacity="0.8"/>
<rect x="194.9" y="205.70196671709522" width="9.45" height="4.243570347957757" fill="#ff4444" opacity="0.8" rx="0.5"/>
<rect x="194.9" y="320.65206339668543" width="9.45" height="14.347936603314565" fill="#ff4444" opacity="0.2" rx="0.5"/>
<line x1="215.375" y1="207.63086232980325" x2="215.375" y2="241.96520423600603" stroke="#44aa44" stroke-width="1" opacity="0.8"/>
<rect x="210.65" y="209.94553706505297" width="9.45" height="24.304084720120983" fill="#44aa44" opacity="0.8" rx="0.5"/>
<rect x="210.65" y="326.3403404251239" width="9.45" height="8.659659574876116" fill="#44aa44" opacity="0.2" rx="0.5"/>
<line x1="231.125" y1="212.64599092284408" x2="231.125" y2="236.178517397882" stroke="#44aa44" stroke-width="1" opacity="0.8"/>
<rect x="226.4" y="225.7624810892586" width="9.45" height="9.644478063540049" fill="#44aa44" opacity="0.8" rx="0.5"/>
<rect x="226.4" y="326.9175403843041" width="9.45" height="8.082459615695882" fill="#44aa44" opacity="0.2" rx="0.5"/>
<line x1="246.875" y1="225.7624810892586" x2="246.875" y2="243.5083207261724" stroke="#44aa44" stroke-width="1" opacity="0.8"/>
<rect x="242.15" y="234.24962178517396" width="9.45" height="3.4720121028744586" fill="#44aa44" opacity="0.8" rx="0.5"/>
<rect x="242.15" y="328.4682867037317" width="9.45" height="6.531713296268322" fill="#44aa44" opacity="0.2" rx="0.5"/>
<line x1="262.625" y1="132.78971255673224" x2="262.625" y2="209.94553706505297" stroke="#ff4444" stroke-width="1" opacity="0.8"/>
<rect x="257.9" y="133.56127080181545" width="9.45" height="75.6127080181542" fill="#ff4444" opacity="0.8" rx="0.5"/>
<rect x="257.9" y="311.7762479998192" width="9.45" height="23.22375200018081" fill="#ff4444" opacity="0.2" rx="0.5"/>
<line x1="278.375" y1="153.23600605143716" x2="278.375" y2="176.76853252647496" stroke="#44aa44" stroke-width="1" opacity="0.8"/>
<rect x="273.65" y="157.47957639939477" width="9.45" height="13.888048411497834" fill="#44aa44" opacity="0.8" rx="0.5"/>
<rect x="273.65" y="320.7956540628355" width="9.45" height="14.204345937164476" fill="#44aa44" opacity="0.2" rx="0.5"/>
<line x1="294.125" y1="148.22087745839633" x2="294.125" y2="165.58093797276848" stroke="#44aa44" stroke-width="1" opacity="0.8"/>
<rect x="289.4" y="161.7231467473525" width="9.45" height="3.85779122541598" fill="#44aa44" opacity="0.8" rx="0.5"/>
<rect x="289.4" y="324.7883101545604" width="9.45" height="10.211689845439594" fill="#44aa44" opacity="0.2" rx="0.5"/>
<line x1="309.875" y1="127.0030257186081" x2="309.875" y2="162.88048411497724" stroke="#ff4444" stroke-width="1" opacity="0.8"/>
<rect x="305.15" y="143.97730711043872" width="9.45" height="13.88804841149772" fill="#ff4444" opacity="0.8" rx="0.5"/>
<rect x="305.15" y="319.1443851451602" width="9.45" height="15.855614854839814" fill="#ff4444" opacity="0.2" rx="0.5"/>
<line x1="325.625" y1="103.4704992435703" x2="325.625" y2="132.78971255673224" stroke="#ff4444" stroke-width="1" opacity="0.8"/>
<rect x="320.9" y="115.04387291981844" width="9.45" height="7.329803328290382" fill="#ff4444" opacity="0.8" rx="0.5"/>
<rect x="320.9" y="319.45822901040106" width="9.45" height="15.541770989598945" fill="#ff4444" opacity="0.2" rx="0.5"/>
<line x1="341.375" y1="70.29349470499241" x2="341.375" y2="113.88653555219359" stroke="#44aa44" stroke-width="1" opacity="0.8"/>
<rect x="336.65" y="108.48562783661112" width="9.45" height="1.5431164901663834" fill="#44aa44" opacity="0.8" rx="0.5"/>
<rect x="336.65" y="314.0180759955701" width="9.45" height="20.981924004429914" fill="#44aa44" opacity="0.2" rx="0.5"/>
<line x1="357.125" y1="64.50680786686827" x2="357.125" y2="103.4704992435703" stroke="#ff4444" stroke-width="1" opacity="0.8"/>
<rect x="352.4" y="76.85173978819961" width="9.45" height="16.588502269288938" fill="#ff4444" opacity="0.8" rx="0.5"/>
<rect x="352.4" y="317.7062603347907" width="9.45" height="17.293739665209273" fill="#ff4444" opacity="0.2" rx="0.5"/>
<line x1="372.875" y1="71.0650529500756" x2="372.875" y2="87.26777609682289" stroke="#44aa44" stroke-width="1" opacity="0.8"/>
<rect x="368.15" y="79.9379727685325" width="9.45" height="1.5431164901663834" fill="#44aa44" opacity="0.8" rx="0.5"/>
<rect x="368.15" y="321.6913350877317" width="9.45" height="13.308664912268284" fill="#44aa44" opacity="0.2" rx="0.5"/>
<line x1="388.625" y1="69.13615733736756" x2="388.625" y2="96.91225416036298" stroke="#ff4444" stroke-width="1" opacity="0.8"/>
<rect x="383.9" y="88.81089258698941" width="9.45" height="2.314674735249568" fill="#ff4444" opacity="0.8" rx="0.5"/>
<rect x="383.9" y="321.8530088267075" width="9.45" height="13.14699117329252" fill="#ff4444" opacity="0.2" rx="0.5"/>
<line x1="404.375" y1="88.42511346444775" x2="404.375" y2="111.57186081694401" stroke="#44aa44" stroke-width="1" opacity="0.8"/>
<rect x="399.65" y="90.73978819969732" width="9.45" height="15.045385779122554" fill="#44aa44" opacity="0.8" rx="0.5"/>
<rect x="399.65" y="324.223062081914" width="9.45" height="10.776937918085991" fill="#44aa44" opacity="0.2" rx="0.5"/>
<line x1="420.125" y1="83.02420574886526" x2="420.125" y2="115.04387291981844" stroke="#ff4444" stroke-width="1" opacity="0.8"/>
<rect x="415.4" y="84.18154311649013" width="9.45" height="21.603630862329737" fill="#ff4444" opacity="0.8" rx="0.5"/>
<rect x="415.4" y="324.8527889751883" width="9.45" height="10.147211024811725" fill="#ff4444" opacity="0.2" rx="0.5"/>
<line x1="435.875" y1="71.0650529500756" x2="435.875" y2="103.85627836611197" stroke="#44aa44" stroke-width="1" opacity="0.8"/>
<rect x="431.15" y="87.65355521936455" width="9.45" height="8.101361573373708" fill="#44aa44" opacity="0.8" rx="0.5"/>
<rect x="431.15" y="325.38634829366225" width="9.45" height="9.613651706337748" fill="#44aa44" opacity="0.2" rx="0.5"/>
<line x1="451.625" y1="85.7246596066565" x2="451.625" y2="132.40393343419058" stroke="#ff4444" stroke-width="1" opacity="0.8"/>
<rect x="446.9" y="104.62783661119515" width="9.45" height="2.3146747352495822" fill="#ff4444" opacity="0.8" rx="0.5"/>
<rect x="446.9" y="322.6066333518179" width="9.45" height="12.39336664818211" fill="#ff4444" opacity="0.2" rx="0.5"/>
<line x1="467.375" y1="96.52647503782146" x2="467.375" y2="120.44478063540092" stroke="#44aa44" stroke-width="1" opacity="0.8"/>
<rect x="462.65" y="96.52647503782146" width="9.45" height="15.43116490166409" fill="#44aa44" opacity="0.8" rx="0.5"/>
<rect x="462.65" y="326.15050103544814" width="9.45" height="8.849498964551856" fill="#44aa44" opacity="0.2" rx="0.5"/>
<line x1="483.125" y1="118.51588502269287" x2="483.125" y2="165.19515885022696" stroke="#44aa44" stroke-width="1" opacity="0.8"/>
<rect x="478.4" y="123.53101361573367" width="9.45" height="36.2632375189108" fill="#44aa44" opacity="0.8" rx="0.5"/>
<rect x="478.4" y="322.6623171984844" width="9.45" height="12.337682801515598" fill="#44aa44" opacity="0.2" rx="0.5"/>
<line x1="498.875" y1="225.3767019667171" x2="498.875" y2="271.6701966717095" stroke="#ff4444" stroke-width="1" opacity="0.8"/>
<rect x="494.15" y="248.52344931921334" width="9.45" height="2.3146747352495822" fill="#ff4444" opacity="0.8" rx="0.5"/>
<rect x="494.15" y="305.7806299624974" width="9.45" height="29.219370037502586" fill="#ff4444" opacity="0.2" rx="0.5"/>
<line x1="514.625" y1="242.73676248108922" x2="514.625" y2="279.0" stroke="#44aa44" stroke-width="1" opacity="0.8"/>
<rect x="509.9" y="250.45234493192126" width="9.45" height="26.61875945537068" fill="#44aa44" opacity="0.8" rx="0.5"/>
<rect x="509.9" y="315.2886040889643" width="9.45" height="19.71139591103571" fill="#44aa44" opacity="0.2" rx="0.5"/>
<line x1="530.375" y1="211.10287443267768" x2="530.375" y2="264.340393343419" stroke="#ff4444" stroke-width="1" opacity="0.8"/>
<rect x="525.65" y="243.12254160363088" width="9.45" height="21.21785173978813" fill="#ff4444" opacity="0.8" rx="0.5"/>
<rect x="525.65" y="314.22858645061706" width="9.45" height="20.77141354938294" fill="#ff4444" opacity="0.2" rx="0.5"/>
<line x1="546.125" y1="189.88502269288946" x2="546.125" y2="245.8229954614221" stroke="#ff4444" stroke-width="1" opacity="0.8"/>
<rect x="541.4" y="196.0574886535551" width="9.45" height="38.57791225416037" fill="#ff4444" opacity="0.8" rx="0.5"/>
<rect x="541.4" y="319.25679753273175" width="9.45" height="15.743202467268247" fill="#ff4444" opacity="0.2" rx="0.5"/>
<line x1="561.875" y1="174.0680786686837" x2="561.875" y2="199.52950075642954" stroke="#44aa44" stroke-width="1" opacity="0.8"/>
<rect x="557.15" y="192.97125567322237" width="9.45" height="3.0862329803327384" fill="#44aa44" opacity="0.8" rx="0.5"/>
<rect x="557.15" y="320.62840709926354" width="9.45" height="14.37159290073646" fill="#44aa44" opacity="0.2" rx="0.5"/>
<line x1="577.625" y1="169.0529500756429" x2="577.625" y2="199.14372163388802" stroke="#44aa44" stroke-width="1" opacity="0.8"/>
<rect x="572.9" y="185.64145234493185" width="9.45" height="5.400907715582491" fill="#44aa44" opacity="0.8" rx="0.5"/>
<rect x="572.9" y="322.1062275511166" width="9.45" height="12.893772448883396" fill="#44aa44" opacity="0.2" rx="0.5"/>
<line x1="593.375" y1="184.86989409984864" x2="593.375" y2="222.67624810892582" stroke="#44aa44" stroke-width="1" opacity="0.8"/>
<rect x="588.65" y="192.1996974281392" width="9.45" height="26.618759455370537" fill="#44aa44" opacity="0.8" rx="0.5"/>
<rect x="588.65" y="324.8421055154879" width="9.45" height="10.157894484512099" fill="#44aa44" opacity="0.2" rx="0.5"/>
<line x1="609.125" y1="194.12859304084722" x2="609.125" y2="230.39183055975786" stroke="#ff4444" stroke-width="1" opacity="0.8"/>
<rect x="604.4" y="198.37216338880484" width="9.45" height="20.44629349470489" fill="#ff4444" opacity="0.8" rx="0.5"/>
<rect x="604.4" y="324.93011187314636" width="9.45" height="10.069888126853641" fill="#ff4444" opacity="0.2" rx="0.5"/>
<line x1="624.875" y1="181.7836611195159" x2="624.875" y2="248.9092284417549" stroke="#44aa44" stroke-width="1" opacity="0.8"/>
<rect x="620.15" y="191.81391830559753" width="9.45" height="57.095310136157366" fill="#44aa44" opacity="0.8" rx="0.5"/>
<rect x="620.15" y="320.58085524752244" width="9.45" height="14.419144752477564" fill="#44aa44" opacity="0.2" rx="0.5"/>
<line x1="640.625" y1="207.63086232980325" x2="640.625" y2="246.59455370650528" stroke="#ff4444" stroke-width="1" opacity="0.8"/>
<rect x="635.9" y="238.87897125567326" width="9.45" height="7.7155824508320165" fill="#ff4444" opacity="0.8" rx="0.5"/>
<rect x="635.9" y="322.4937908497478" width="9.45" height="12.506209150252175" fill="#ff4444" opacity="0.2" rx="0.5"/>
<line x1="656.375" y1="203.38729198184566" x2="656.375" y2="247.75189107413001" stroke="#ff4444" stroke-width="1" opacity="0.8"/>
<rect x="651.65" y="211.48865355521934" width="9.45" height="30.476550680786687" fill="#ff4444" opacity="0.8" rx="0.5"/>
<rect x="651.65" y="321.73728610992714" width="9.45" height="13.26271389007286" fill="#ff4444" opacity="0.2" rx="0.5"/>
<line x1="672.125" y1="24.0" x2="672.125" y2="222.67624810892582" stroke="#ff4444" stroke-width="1" opacity="0.8"/>
<rect x="667.4" y="24.0" width="9.45" height="198.67624810892582" fill="#ff4444" opacity="0.8" rx="0.5"/>
<rect x="667.4" y="279.0" width="9.45" height="56.0" fill="#ff4444" opacity="0.2" rx="0.5"/>
<text x="57.875" y="347" text-anchor="middle" font-size="8" fill="#666">03-19</text>
<text x="136.625" y="347" text-anchor="middle" font-size="8" fill="#666">03-26</text>
<text x="215.375" y="347" text-anchor="middle" font-size="8" fill="#666">04-02</text>
<text x="294.125" y="347" text-anchor="middle" font-size="8" fill="#666">04-10</text>
<text x="372.875" y="347" text-anchor="middle" font-size="8" fill="#666">04-17</text>
<text x="451.625" y="347" text-anchor="middle" font-size="8" fill="#666">04-24</text>
<text x="530.375" y="347" text-anchor="middle" font-size="8" fill="#666">05-06</text>
<text x="609.125" y="347" text-anchor="middle" font-size="8" fill="#666">05-13</text>
<text x="672.125" y="347" text-anchor="middle" font-size="8" fill="#666">05-19</text>
<rect x="30" y="363" width="7" height="7" fill="#ff9800" opacity="0.8" rx="1"/>
<text x="40" y="369" font-family="sans-serif" font-size="8" fill="#888">第1类</text>
<rect x="130" y="363" width="7" height="7" fill="#2196f3" opacity="0.8" rx="1"/>
<text x="140" y="369" font-family="sans-serif" font-size="8" fill="#888">第2类</text>
<rect x="230" y="363" width="7" height="7" fill="#ffd700" opacity="0.8" rx="1"/>
<text x="240" y="369" font-family="sans-serif" font-size="8" fill="#888">EMA5</text>
<rect x="330" y="363" width="7" height="7" fill="#ff6b6b" opacity="0.8" rx="1"/>
<text x="340" y="369" font-family="sans-serif" font-size="8" fill="#888">EMA10</text>
</svg>