<svg xmlns="http://www.w3.org/2000/svg" width="700" height="380" viewBox="0 0 700 380">
<rect width="700" height="380" fill="#1a1a2e"/>
<text x="350" y="16" text-anchor="middle" font-family="sans-serif" font-size="13" font-weight="bold" fill="#fff">凡拓数创(301313) 关键点图</text>
<line x1="50" y1="240.18497109826592" x2="680" y2="240.18497109826592" stroke="#2a2a4e" stroke-width="0.5"/>
<text x="46" y="243.18497109826592" text-anchor="end" font-size="9" fill="#666">32</text>
<line x1="50" y1="200.878612716763" x2="680" y2="200.878612716763" stroke="#2a2a4e" stroke-width="0.5"/>
<text x="46" y="203.878612716763" text-anchor="end" font-size="9" fill="#666">36</text>
<line x1="50" y1="161.5722543352601" x2="680" y2="161.5722543352601" stroke="#2a2a4e" stroke-width="0.5"/>
<text x="46" y="164.5722543352601" text-anchor="end" font-size="9" fill="#666">40</text>
<line x1="50" y1="122.26589595375722" x2="680" y2="122.26589595375722" stroke="#2a2a4e" stroke-width="0.5"/>
<text x="46" y="125.26589595375722" text-anchor="end" font-size="9" fill="#666">44</text>
<line x1="50" y1="82.95953757225433" x2="680" y2="82.95953757225433" stroke="#2a2a4e" stroke-width="0.5"/>
<text x="46" y="85.95953757225433" text-anchor="end" font-size="9" fill="#666">48</text>
<line x1="50" y1="43.653179190751445" x2="680" y2="43.653179190751445" stroke="#2a2a4e" stroke-width="0.5"/>
<text x="46" y="46.653179190751445" text-anchor="end" font-size="9" fill="#666">52</text>
<polyline points="57.9,245.2 73.6,246.9 89.4,254.2 105.1,257.5 120.9,258.9 136.6,262.0 152.4,264.0 168.1,265.3 183.9,268.7 199.6,268.8 215.4,270.9 231.1,273.3 246.9,273.8 262.6,269.3 278.4,270.4 294.1,267.9 309.9,266.6 325.6,258.5 341.4,254.6 357.1,245.1 372.9,236.9 388.6,227.9 404.4,219.6 420.1,215.4 435.9,211.7 451.6,210.7 467.4,209.2 483.1,206.9 498.9,205.6 514.6,205.2 530.4,204.3 546.1,203.2 561.9,201.6 577.6,195.0 593.4,186.9 609.1,182.0 624.9,183.2 640.6,181.4 656.4,155.1 672.1,121.4" fill="none" stroke="#ffd700" stroke-width="1" opacity="0.6"/>
<polyline points="57.9,245.2 73.6,246.1 89.4,250.2 105.1,252.8 120.9,254.4 136.6,256.9 152.4,258.9 168.1,260.5 183.9,263.2 199.6,264.3 215.4,266.3 231.1,268.4 246.9,269.6 262.6,267.9 278.4,268.7 294.1,267.7 309.9,267.0 325.6,262.5 341.4,259.7 357.1,253.6 372.9,247.6 388.6,240.7 404.4,233.9 420.1,229.0 435.9,224.5 451.6,221.6 467.4,218.8 483.1,215.8 498.9,213.5 514.6,211.8 530.4,210.1 546.1,208.5 561.9,206.6 577.6,202.1 593.4,196.4 609.1,192.0 624.9,190.8 640.6,188.5 656.4,172.8 672.1,151.2" fill="none" stroke="#ff6b6b" stroke-width="1" opacity="0.6"/>
<line x1="57.875" y1="240.18497109826592" x2="57.875" y2="247.55491329479767" stroke="#44aa44" stroke-width="1" opacity="0.8"/>
<rect x="53.15" y="241.0693641618497" width="9.45" height="4.127167630057841" fill="#44aa44" opacity="0.8" rx="0.5"/>
<rect x="53.15" y="329.4938693112504" width="9.45" height="5.506130688749579" fill="#44aa44" opacity="0.2" rx="0.5"/>
<line x1="73.625" y1="236.45086705202309" x2="73.625" y2="251.87861271676303" stroke="#44aa44" stroke-width="1" opacity="0.8"/>
<rect x="68.9" y="242.9364161849711" width="9.45" height="7.2716763005780365" fill="#44aa44" opacity="0.8" rx="0.5"/>
<rect x="68.9" y="327.9926437051889" width="9.45" height="7.007356294811075" fill="#44aa44" opacity="0.2" rx="0.5"/>
<line x1="89.375" y1="255.121387283237" x2="89.375" y2="273.0057803468208" stroke="#44aa44" stroke-width="1" opacity="0.8"/>
<rect x="84.65" y="256.8901734104046" width="9.45" height="11.98843930635843" fill="#44aa44" opacity="0.8" rx="0.5"/>
<rect x="84.65" y="323.87752476413726" width="9.45" height="11.122475235862737" fill="#44aa44" opacity="0.2" rx="0.5"/>
<line x1="105.125" y1="261.11560693641616" x2="105.125" y2="273.0057803468208" stroke="#44aa44" stroke-width="1" opacity="0.8"/>
<rect x="100.4" y="261.11560693641616" width="9.45" height="2.947976878612735" fill="#44aa44" opacity="0.8" rx="0.5"/>
<rect x="100.4" y="329.83781098571984" width="9.45" height="5.162189014280159" fill="#44aa44" opacity="0.2" rx="0.5"/>
<line x1="120.875" y1="255.121387283237" x2="120.875" y2="262.78612716763007" stroke="#ff4444" stroke-width="1" opacity="0.8"/>
<line x1="116.15" y1="261.70520231213874" x2="125.6" y2="261.70520231213874" stroke="#ff4444" stroke-width="1.5"/>
<rect x="116.15" y="329.13896387910586" width="9.45" height="5.861036120894141" fill="#ff4444" opacity="0.2" rx="0.5"/>
<line x1="136.625" y1="257.971098265896" x2="136.625" y2="271.43352601156073" stroke="#44aa44" stroke-width="1" opacity="0.8"/>
<rect x="131.9" y="259.15028901734104" width="9.45" height="8.942196531791865" fill="#44aa44" opacity="0.8" rx="0.5"/>
<rect x="131.9" y="329.95318736686085" width="9.45" height="5.0468126331391545" fill="#44aa44" opacity="0.2" rx="0.5"/>
<line x1="152.375" y1="265.7341040462428" x2="152.375" y2="272.6127167630058" stroke="#ff4444" stroke-width="1" opacity="0.8"/>
<rect x="147.65" y="268.19075144508673" width="9.45" height="3.9306358381502946" fill="#ff4444" opacity="0.8" rx="0.5"/>
<rect x="147.65" y="331.45778902270143" width="9.45" height="3.5422109772985664" fill="#ff4444" opacity="0.2" rx="0.5"/>
<line x1="168.125" y1="266.91329479768785" x2="168.125" y2="272.90751445086704" stroke="#ff4444" stroke-width="1" opacity="0.8"/>
<rect x="163.4" y="267.6994219653179" width="9.45" height="3.144508670520281" fill="#ff4444" opacity="0.8" rx="0.5"/>
<rect x="163.4" y="332.00563834101047" width="9.45" height="2.9943616589895328" fill="#ff4444" opacity="0.2" rx="0.5"/>
<line x1="183.875" y1="263.76878612716763" x2="183.875" y2="276.05202312138726" stroke="#44aa44" stroke-width="1" opacity="0.8"/>
<rect x="179.15" y="267.0115606936416" width="9.45" height="8.450867052023114" fill="#44aa44" opacity="0.8" rx="0.5"/>
<rect x="179.15" y="331.4486645638391" width="9.45" height="3.5513354361609117" fill="#44aa44" opacity="0.2" rx="0.5"/>
<line x1="199.625" y1="265.3410404624277" x2="199.625" y2="271.8265895953757" stroke="#44aa44" stroke-width="1" opacity="0.8"/>
<rect x="194.9" y="267.0115606936416" width="9.45" height="2.161849710982665" fill="#44aa44" opacity="0.8" rx="0.5"/>
<rect x="194.9" y="331.8607059166756" width="9.45" height="3.139294083324387" fill="#44aa44" opacity="0.2" rx="0.5"/>
<line x1="215.375" y1="269.1734104046243" x2="215.375" y2="276.73988439306356" stroke="#44aa44" stroke-width="1" opacity="0.8"/>
<rect x="210.65" y="269.3699421965318" width="9.45" height="5.601156069364208" fill="#44aa44" opacity="0.8" rx="0.5"/>
<rect x="210.65" y="331.6257294904097" width="9.45" height="3.3742705095903034" fill="#44aa44" opacity="0.2" rx="0.5"/>
<line x1="231.125" y1="269.46820809248555" x2="231.125" y2="278.50867052023125" stroke="#44aa44" stroke-width="1" opacity="0.8"/>
<rect x="226.4" y="273.9884393063584" width="9.45" height="4.127167630057841" fill="#44aa44" opacity="0.8" rx="0.5"/>
<rect x="226.4" y="330.841888049493" width="9.45" height="4.1581119505070205" fill="#44aa44" opacity="0.2" rx="0.5"/>
<line x1="246.875" y1="274.2832369942197" x2="246.875" y2="279.0" stroke="#ff4444" stroke-width="1" opacity="0.8"/>
<rect x="242.15" y="274.8728323699422" width="9.45" height="1.9653179190751189" fill="#ff4444" opacity="0.8" rx="0.5"/>
<rect x="242.15" y="332.02758746692115" width="9.45" height="2.9724125330788524" fill="#ff4444" opacity="0.2" rx="0.5"/>
<line x1="262.625" y1="259.6416184971098" x2="262.625" y2="269.1734104046243" stroke="#ff4444" stroke-width="1" opacity="0.8"/>
<rect x="257.9" y="260.23121387283237" width="9.45" height="4.127167630057841" fill="#ff4444" opacity="0.8" rx="0.5"/>
<rect x="257.9" y="330.41856118174775" width="9.45" height="4.581438818252252" fill="#ff4444" opacity="0.2" rx="0.5"/>
<line x1="278.375" y1="261.8034682080925" x2="278.375" y2="273.39884393063585" stroke="#44aa44" stroke-width="1" opacity="0.8"/>
<rect x="273.65" y="261.8034682080925" width="9.45" height="10.809248554913268" fill="#44aa44" opacity="0.8" rx="0.5"/>
<rect x="273.65" y="330.6355023947202" width="9.45" height="4.36449760527978" fill="#44aa44" opacity="0.2" rx="0.5"/>
<line x1="294.125" y1="257.4797687861272" x2="294.125" y2="270.4508670520231" stroke="#ff4444" stroke-width="1" opacity="0.8"/>
<rect x="289.4" y="262.9826589595376" width="9.45" height="7.468208092485497" fill="#ff4444" opacity="0.8" rx="0.5"/>
<rect x="289.4" y="329.5602353424337" width="9.45" height="5.439764657566286" fill="#ff4444" opacity="0.2" rx="0.5"/>
<line x1="309.875" y1="259.2485549132948" x2="309.875" y2="266.7167630057803" stroke="#44aa44" stroke-width="1" opacity="0.8"/>
<rect x="305.15" y="262.78612716763007" width="9.45" height="1.1791907514451054" fill="#44aa44" opacity="0.8" rx="0.5"/>
<rect x="305.15" y="330.16750889967045" width="9.45" height="4.832491100329548" fill="#44aa44" opacity="0.2" rx="0.5"/>
<line x1="325.625" y1="242.34682080924856" x2="325.625" y2="263.17919075144505" stroke="#ff4444" stroke-width="1" opacity="0.8"/>
<rect x="320.9" y="242.34682080924856" width="9.45" height="17.687861271676326" fill="#ff4444" opacity="0.8" rx="0.5"/>
<rect x="320.9" y="325.1744249221902" width="9.45" height="9.825575077809788" fill="#ff4444" opacity="0.2" rx="0.5"/>
<line x1="341.375" y1="238.4161849710983" x2="341.375" y2="247.55491329479767" stroke="#44aa44" stroke-width="1" opacity="0.8"/>
<rect x="336.65" y="242.34682080924856" width="9.45" height="4.421965317919103" fill="#44aa44" opacity="0.8" rx="0.5"/>
<rect x="336.65" y="327.62394593312195" width="9.45" height="7.376054066878055" fill="#44aa44" opacity="0.2" rx="0.5"/>
<line x1="357.125" y1="219.5491329479769" x2="357.125" y2="246.8670520231214" stroke="#ff4444" stroke-width="1" opacity="0.8"/>
<rect x="352.4" y="226.13294797687863" width="9.45" height="17.98265895953756" fill="#ff4444" opacity="0.8" rx="0.5"/>
<rect x="352.4" y="322.9298872807745" width="9.45" height="12.070112719225506" fill="#ff4444" opacity="0.2" rx="0.5"/>
<line x1="372.875" y1="216.79768786127167" x2="372.875" y2="229.47398843930634" stroke="#ff4444" stroke-width="1" opacity="0.8"/>
<rect x="368.15" y="220.53179190751445" width="9.45" height="7.959537572254362" fill="#ff4444" opacity="0.8" rx="0.5"/>
<rect x="368.15" y="323.3125286666872" width="9.45" height="11.687471333312828" fill="#ff4444" opacity="0.2" rx="0.5"/>
<line x1="388.625" y1="208.05202312138726" x2="388.625" y2="230.26011560693644" stroke="#ff4444" stroke-width="1" opacity="0.8"/>
<rect x="383.9" y="209.72254335260115" width="9.45" height="11.693641618497168" fill="#ff4444" opacity="0.8" rx="0.5"/>
<rect x="383.9" y="323.64539612950574" width="9.45" height="11.354603870494259" fill="#ff4444" opacity="0.2" rx="0.5"/>
<line x1="404.375" y1="197.63583815028903" x2="404.375" y2="212.96531791907512" stroke="#ff4444" stroke-width="1" opacity="0.8"/>
<rect x="399.65" y="203.13872832369938" width="9.45" height="6.583815028901768" fill="#ff4444" opacity="0.8" rx="0.5"/>
<rect x="399.65" y="324.5514813074441" width="9.45" height="10.448518692555922" fill="#ff4444" opacity="0.2" rx="0.5"/>
<line x1="420.125" y1="198.42196531791907" x2="420.125" y2="207.75722543352603" stroke="#44aa44" stroke-width="1" opacity="0.8"/>
<rect x="415.4" y="205.3005780346821" width="9.45" height="1.5722543352600837" fill="#44aa44" opacity="0.8" rx="0.5"/>
<rect x="415.4" y="328.03875824004456" width="9.45" height="6.961241759955442" fill="#44aa44" opacity="0.2" rx="0.5"/>
<line x1="435.875" y1="199.69942196531795" x2="435.875" y2="213.45664739884393" stroke="#ff4444" stroke-width="1" opacity="0.8"/>
<rect x="431.15" y="204.31791907514454" width="9.45" height="2.554913294797643" fill="#ff4444" opacity="0.8" rx="0.5"/>
<rect x="431.15" y="327.4946523510425" width="9.45" height="7.505347648957525" fill="#ff4444" opacity="0.2" rx="0.5"/>
<line x1="451.625" y1="196.06358381502886" x2="451.625" y2="209.42774566473986" stroke="#44aa44" stroke-width="1" opacity="0.8"/>
<rect x="446.9" y="203.04046242774567" width="9.45" height="5.699421965317896" fill="#44aa44" opacity="0.8" rx="0.5"/>
<rect x="446.9" y="327.9121899897568" width="9.45" height="7.0878100102431745" fill="#44aa44" opacity="0.2" rx="0.5"/>
<line x1="467.375" y1="200.485549132948" x2="467.375" y2="212.37572254335262" stroke="#ff4444" stroke-width="1" opacity="0.8"/>
<line x1="462.65" y1="206.28323699421964" x2="472.1" y2="206.28323699421964" stroke="#ff4444" stroke-width="1.5"/>
<rect x="462.65" y="329.2908020780955" width="9.45" height="5.70919792190449" fill="#ff4444" opacity="0.2" rx="0.5"/>
<line x1="483.125" y1="200.97687861271675" x2="483.125" y2="210.80346820809248" stroke="#ff4444" stroke-width="1" opacity="0.8"/>
<rect x="478.4" y="202.35260115606934" width="9.45" height="7.6647398843931" fill="#ff4444" opacity="0.8" rx="0.5"/>
<rect x="478.4" y="329.23670364173535" width="9.45" height="5.763296358264654" fill="#ff4444" opacity="0.2" rx="0.5"/>
<line x1="498.875" y1="199.8959537572254" x2="498.875" y2="218.07514450867052" stroke="#ff4444" stroke-width="1" opacity="0.8"/>
<rect x="494.15" y="202.94219653179192" width="9.45" height="2.849710982658962" fill="#ff4444" opacity="0.8" rx="0.5"/>
<rect x="494.15" y="328.2445387991243" width="9.45" height="6.755461200875686" fill="#ff4444" opacity="0.2" rx="0.5"/>
<line x1="514.625" y1="196.94797687861274" x2="514.625" y2="205.39884393063585" stroke="#44aa44" stroke-width="1" opacity="0.8"/>
<line x1="509.9" y1="203.43352601156067" x2="519.35" y2="203.43352601156067" stroke="#44aa44" stroke-width="1.5"/>
<rect x="509.9" y="330.7091007601386" width="9.45" height="4.290899239861403" fill="#44aa44" opacity="0.2" rx="0.5"/>
<line x1="530.375" y1="195.96531791907515" x2="530.375" y2="204.8092485549133" stroke="#ff4444" stroke-width="1" opacity="0.8"/>
<rect x="525.65" y="202.54913294797691" width="9.45" height="1.7687861271676297" fill="#ff4444" opacity="0.8" rx="0.5"/>
<rect x="525.65" y="328.7050142203062" width="9.45" height="6.294985779693775" fill="#ff4444" opacity="0.2" rx="0.5"/>
<line x1="546.125" y1="198.42196531791907" x2="546.125" y2="218.6647398843931" stroke="#ff4444" stroke-width="1" opacity="0.8"/>
<rect x="541.4" y="200.878612716763" width="9.45" height="2.7514450867052176" fill="#ff4444" opacity="0.8" rx="0.5"/>
<rect x="541.4" y="324.6696718637921" width="9.45" height="10.330328136207925" fill="#ff4444" opacity="0.2" rx="0.5"/>
<line x1="561.875" y1="189.08670520231212" x2="561.875" y2="204.31791907514454" stroke="#ff4444" stroke-width="1" opacity="0.8"/>
<rect x="557.15" y="198.52023121387282" width="9.45" height="2.456647398843927" fill="#ff4444" opacity="0.8" rx="0.5"/>
<rect x="557.15" y="328.35134299128146" width="9.45" height="6.648657008718544" fill="#ff4444" opacity="0.2" rx="0.5"/>
<line x1="577.625" y1="175.2312138728324" x2="577.625" y2="197.8323699421965" stroke="#ff4444" stroke-width="1" opacity="0.8"/>
<rect x="572.9" y="181.91329479768788" width="9.45" height="14.052023121387265" fill="#ff4444" opacity="0.8" rx="0.5"/>
<rect x="572.9" y="323.985337449116" width="9.45" height="11.014662550883997" fill="#ff4444" opacity="0.2" rx="0.5"/>
<line x1="593.375" y1="167.46820809248555" x2="593.375" y2="188.9884393063584" stroke="#ff4444" stroke-width="1" opacity="0.8"/>
<rect x="588.65" y="170.6127167630058" width="9.45" height="11.005780346820785" fill="#ff4444" opacity="0.8" rx="0.5"/>
<rect x="588.65" y="321.13221761096884" width="9.45" height="13.867782389031163" fill="#ff4444" opacity="0.2" rx="0.5"/>
<line x1="609.125" y1="169.04046242774564" x2="609.125" y2="185.9421965317919" stroke="#ff4444" stroke-width="1" opacity="0.8"/>
<line x1="604.4" y1="172.18497109826586" x2="613.85" y2="172.18497109826586" stroke="#ff4444" stroke-width="1.5"/>
<rect x="604.4" y="324.6944039496558" width="9.45" height="10.305596050344207" fill="#ff4444" opacity="0.2" rx="0.5"/>
<line x1="624.875" y1="163.242774566474" x2="624.875" y2="185.54913294797686" stroke="#44aa44" stroke-width="1" opacity="0.8"/>
<rect x="620.15" y="171.0057803468208" width="9.45" height="14.543352601156045" fill="#44aa44" opacity="0.8" rx="0.5"/>
<rect x="620.15" y="327.21050469620207" width="9.45" height="7.789495303797935" fill="#44aa44" opacity="0.2" rx="0.5"/>
<line x1="640.625" y1="163.93063583815032" x2="640.625" y2="187.8092485549133" stroke="#ff4444" stroke-width="1" opacity="0.8"/>
<rect x="635.9" y="177.78612716763004" width="9.45" height="7.3699421965318095" fill="#ff4444" opacity="0.8" rx="0.5"/>
<rect x="635.9" y="325.9250629375415" width="9.45" height="9.074937062458503" fill="#ff4444" opacity="0.2" rx="0.5"/>
<line x1="656.375" y1="102.41618497109825" x2="656.375" y2="160.58959537572255" stroke="#ff4444" stroke-width="1" opacity="0.8"/>
<rect x="651.65" y="102.41618497109825" width="9.45" height="50.41040462427749" fill="#ff4444" opacity="0.8" rx="0.5"/>
<rect x="651.65" y="299.76996969076015" width="9.45" height="35.23003030923985" fill="#ff4444" opacity="0.2" rx="0.5"/>
<line x1="672.125" y1="24.0" x2="672.125" y2="107.52601156069363" stroke="#ff4444" stroke-width="1" opacity="0.8"/>
<rect x="667.4" y="54.069364161849734" width="9.45" height="33.50867052023118" fill="#ff4444" opacity="0.8" rx="0.5"/>
<rect x="667.4" y="279.0" width="9.45" height="56.0" fill="#ff4444" opacity="0.2" rx="0.5"/>
<text x="57.875" y="347" text-anchor="middle" font-size="8" fill="#666">03-19</text>
<text x="136.625" y="347" text-anchor="middle" font-size="8" fill="#666">03-26</text>
<text x="215.375" y="347" text-anchor="middle" font-size="8" fill="#666">04-02</text>
<text x="294.125" y="347" text-anchor="middle" font-size="8" fill="#666">04-10</text>
<text x="372.875" y="347" text-anchor="middle" font-size="8" fill="#666">04-17</text>
<text x="451.625" y="347" text-anchor="middle" font-size="8" fill="#666">04-24</text>
<text x="530.375" y="347" text-anchor="middle" font-size="8" fill="#666">05-06</text>
<text x="609.125" y="347" text-anchor="middle" font-size="8" fill="#666">05-13</text>
<text x="672.125" y="347" text-anchor="middle" font-size="8" fill="#666">05-19</text>
<rect x="30" y="363" width="7" height="7" fill="#ff9800" opacity="0.8" rx="1"/>
<text x="40" y="369" font-family="sans-serif" font-size="8" fill="#888">第1类</text>
<rect x="130" y="363" width="7" height="7" fill="#2196f3" opacity="0.8" rx="1"/>
<text x="140" y="369" font-family="sans-serif" font-size="8" fill="#888">第2类</text>
<rect x="230" y="363" width="7" height="7" fill="#ffd700" opacity="0.8" rx="1"/>
<text x="240" y="369" font-family="sans-serif" font-size="8" fill="#888">EMA5</text>
<rect x="330" y="363" width="7" height="7" fill="#ff6b6b" opacity="0.8" rx="1"/>
<text x="340" y="369" font-family="sans-serif" font-size="8" fill="#888">EMA10</text>
</svg>