<svg xmlns="http://www.w3.org/2000/svg" width="700" height="380" viewBox="0 0 700 380">
<rect width="700" height="380" fill="#1a1a2e"/>
<text x="350" y="16" text-anchor="middle" font-family="sans-serif" font-size="13" font-weight="bold" fill="#fff">西子洁能(002534) 关键点图</text>
<line x1="50" y1="257.7500000000001" x2="680" y2="257.7500000000001" stroke="#2a2a4e" stroke-width="0.5"/>
<text x="46" y="260.7500000000001" text-anchor="end" font-size="9" fill="#666">16</text>
<line x1="50" y1="184.47413793103456" x2="680" y2="184.47413793103456" stroke="#2a2a4e" stroke-width="0.5"/>
<text x="46" y="187.47413793103456" text-anchor="end" font-size="9" fill="#666">17</text>
<line x1="50" y1="111.19827586206905" x2="680" y2="111.19827586206905" stroke="#2a2a4e" stroke-width="0.5"/>
<text x="46" y="114.19827586206905" text-anchor="end" font-size="9" fill="#666">18</text>
<line x1="50" y1="37.922413793103544" x2="680" y2="37.922413793103544" stroke="#2a2a4e" stroke-width="0.5"/>
<text x="46" y="40.922413793103544" text-anchor="end" font-size="9" fill="#666">19</text>
<polyline points="57.9,171.3 73.6,170.6 89.4,200.1 105.1,208.8 120.9,201.2 136.6,207.6 152.4,210.4 168.1,216.2 183.9,226.1 199.6,223.5 215.4,233.9 231.1,244.8 246.9,238.4 262.6,204.3 278.4,197.9 294.1,171.5 309.9,141.1 325.6,121.6 341.4,115.7 357.1,109.6 372.9,94.7 388.6,90.2 404.4,87.9 420.1,81.3 435.9,73.9 451.6,73.1 467.4,84.4 483.1,104.5 498.9,112.1 514.6,121.6 530.4,119.8 546.1,113.1 561.9,115.1 577.6,117.5 593.4,125.2 609.1,117.1 624.9,129.5 640.6,145.4 656.4,156.0 672.1,130.3" fill="none" stroke="#ffd700" stroke-width="1" opacity="0.6"/>
<polyline points="57.9,171.3 73.6,170.9 89.4,186.9 105.1,194.1 120.9,192.6 136.6,197.7 152.4,201.0 168.1,205.8 183.9,213.2 199.6,214.1 215.4,221.5 231.1,229.7 246.9,228.9 262.6,212.0 278.4,207.2 294.1,191.0 309.9,170.9 325.6,154.9 341.4,145.6 357.1,136.8 372.9,123.8 388.6,116.0 404.4,110.1 420.1,102.4 435.9,94.6 451.6,90.4 467.4,93.4 483.1,102.7 498.9,107.2 514.6,113.3 530.4,113.8 546.1,111.2 561.9,112.7 577.6,114.4 593.4,119.2 609.1,115.8 624.9,122.9 640.6,132.7 656.4,140.8 672.1,129.6" fill="none" stroke="#ff6b6b" stroke-width="1" opacity="0.6"/>
<line x1="57.875" y1="145.63793103448273" x2="57.875" y2="176.4137931034484" stroke="#44aa44" stroke-width="1" opacity="0.8"/>
<rect x="53.15" y="159.5603448275863" width="9.45" height="11.724137931034505" fill="#44aa44" opacity="0.8" rx="0.5"/>
<rect x="53.15" y="314.74655299214965" width="9.45" height="20.253447007850355" fill="#44aa44" opacity="0.2" rx="0.5"/>
<line x1="73.625" y1="136.11206896551732" x2="73.625" y2="173.48275862068985" stroke="#44aa44" stroke-width="1" opacity="0.8"/>
<rect x="68.9" y="163.22413793103462" width="9.45" height="5.862068965517125" fill="#44aa44" opacity="0.8" rx="0.5"/>
<rect x="68.9" y="309.550206633493" width="9.45" height="25.44979336650698" fill="#44aa44" opacity="0.2" rx="0.5"/>
<line x1="89.375" y1="176.4137931034484" x2="89.375" y2="270.93965517241384" stroke="#44aa44" stroke-width="1" opacity="0.8"/>
<rect x="84.65" y="192.53448275862073" width="9.45" height="66.68103448275858" fill="#44aa44" opacity="0.8" rx="0.5"/>
<rect x="84.65" y="302.02526361617885" width="9.45" height="32.97473638382115" fill="#44aa44" opacity="0.2" rx="0.5"/>
<line x1="105.125" y1="221.11206896551732" x2="105.125" y2="259.94827586206895" stroke="#ff4444" stroke-width="1" opacity="0.8"/>
<rect x="100.4" y="226.2413793103449" width="9.45" height="2.198275862069039" fill="#ff4444" opacity="0.8" rx="0.5"/>
<rect x="100.4" y="312.8716023589023" width="9.45" height="22.128397641097706" fill="#ff4444" opacity="0.2" rx="0.5"/>
<line x1="120.875" y1="176.4137931034484" x2="120.875" y2="215.2500000000002" stroke="#ff4444" stroke-width="1" opacity="0.8"/>
<rect x="116.15" y="185.93965517241384" width="9.45" height="21.98275862068968" fill="#ff4444" opacity="0.8" rx="0.5"/>
<rect x="116.15" y="306.71999208307784" width="9.45" height="28.28000791692216" fill="#ff4444" opacity="0.2" rx="0.5"/>
<line x1="136.625" y1="178.61206896551744" x2="136.625" y2="226.2413793103449" stroke="#44aa44" stroke-width="1" opacity="0.8"/>
<rect x="131.9" y="192.53448275862073" width="9.45" height="27.844827586206833" fill="#44aa44" opacity="0.8" rx="0.5"/>
<rect x="131.9" y="319.15564444020157" width="9.45" height="15.84435555979843" fill="#44aa44" opacity="0.2" rx="0.5"/>
<line x1="152.375" y1="203.5258620689657" x2="152.375" y2="238.6982758620689" stroke="#ff4444" stroke-width="1" opacity="0.8"/>
<rect x="147.65" y="215.9827586206897" width="9.45" height="13.18965517241378" fill="#ff4444" opacity="0.8" rx="0.5"/>
<rect x="147.65" y="315.1931227363121" width="9.45" height="19.80687726368791" fill="#ff4444" opacity="0.2" rx="0.5"/>
<line x1="168.125" y1="224.77586206896564" x2="168.125" y2="262.8793103448277" stroke="#ff4444" stroke-width="1" opacity="0.8"/>
<rect x="163.4" y="227.70689655172418" width="9.45" height="11.724137931034505" fill="#ff4444" opacity="0.8" rx="0.5"/>
<rect x="163.4" y="320.02558862346797" width="9.45" height="14.974411376532032" fill="#ff4444" opacity="0.2" rx="0.5"/>
<line x1="183.875" y1="210.8534482758621" x2="183.875" y2="248.22413793103462" stroke="#44aa44" stroke-width="1" opacity="0.8"/>
<rect x="179.15" y="215.9827586206897" width="9.45" height="30.043103448275872" fill="#44aa44" opacity="0.8" rx="0.5"/>
<rect x="179.15" y="320.5841530215797" width="9.45" height="14.41584697842029" fill="#44aa44" opacity="0.2" rx="0.5"/>
<line x1="199.625" y1="207.18965517241378" x2="199.625" y2="229.1724137931035" stroke="#ff4444" stroke-width="1" opacity="0.8"/>
<rect x="194.9" y="218.18103448275875" width="9.45" height="4.396551724137851" fill="#ff4444" opacity="0.8" rx="0.5"/>
<rect x="194.9" y="320.3619939698835" width="9.45" height="14.638006030116514" fill="#ff4444" opacity="0.2" rx="0.5"/>
<line x1="215.375" y1="210.12068965517258" x2="215.375" y2="257.7500000000001" stroke="#44aa44" stroke-width="1" opacity="0.8"/>
<rect x="210.65" y="224.04310344827587" width="9.45" height="30.775862068965637" fill="#44aa44" opacity="0.8" rx="0.5"/>
<rect x="210.65" y="319.6462531280811" width="9.45" height="15.353746871918872" fill="#44aa44" opacity="0.2" rx="0.5"/>
<line x1="231.125" y1="246.02586206896558" x2="231.125" y2="279.0" stroke="#44aa44" stroke-width="1" opacity="0.8"/>
<rect x="226.4" y="246.02586206896558" width="9.45" height="20.517241379310292" fill="#44aa44" opacity="0.8" rx="0.5"/>
<rect x="226.4" y="322.78325266930096" width="9.45" height="12.216747330699036" fill="#44aa44" opacity="0.2" rx="0.5"/>
<line x1="246.875" y1="192.53448275862073" x2="246.875" y2="235.76724137931035" stroke="#44aa44" stroke-width="1" opacity="0.8"/>
<rect x="242.15" y="221.11206896551732" width="9.45" height="4.396551724137822" fill="#44aa44" opacity="0.8" rx="0.5"/>
<rect x="242.15" y="306.7014724441551" width="9.45" height="28.298527555844885" fill="#44aa44" opacity="0.2" rx="0.5"/>
<line x1="262.625" y1="131.71551724137947" x2="262.625" y2="201.32758620689665" stroke="#ff4444" stroke-width="1" opacity="0.8"/>
<rect x="257.9" y="136.11206896551732" width="9.45" height="65.21551724137933" fill="#ff4444" opacity="0.8" rx="0.5"/>
<rect x="257.9" y="291.53508208942293" width="9.45" height="43.46491791057707" fill="#ff4444" opacity="0.2" rx="0.5"/>
<line x1="278.375" y1="153.69827586206893" x2="278.375" y2="191.06896551724142" stroke="#44aa44" stroke-width="1" opacity="0.8"/>
<rect x="273.65" y="165.42241379310343" width="9.45" height="19.784482758620896" fill="#44aa44" opacity="0.8" rx="0.5"/>
<rect x="273.65" y="308.83988207312694" width="9.45" height="26.160117926873056" fill="#44aa44" opacity="0.2" rx="0.5"/>
<line x1="294.125" y1="100.93965517241384" x2="294.125" y2="147.8362068965518" stroke="#ff4444" stroke-width="1" opacity="0.8"/>
<rect x="289.4" y="118.52586206896571" width="9.45" height="24.181034482758477" fill="#ff4444" opacity="0.8" rx="0.5"/>
<rect x="289.4" y="279.0" width="9.45" height="56.0" fill="#ff4444" opacity="0.2" rx="0.5"/>
<line x1="309.875" y1="64.30172413793107" x2="309.875" y2="132.44827586206898" stroke="#ff4444" stroke-width="1" opacity="0.8"/>
<rect x="305.15" y="80.4224137931034" width="9.45" height="46.896551724137964" fill="#ff4444" opacity="0.8" rx="0.5"/>
<rect x="305.15" y="290.06103417988254" width="9.45" height="44.93896582011746" fill="#ff4444" opacity="0.2" rx="0.5"/>
<line x1="325.625" y1="62.103448275862036" x2="325.625" y2="103.8706896551724" stroke="#44aa44" stroke-width="1" opacity="0.8"/>
<line x1="320.9" y1="81.88793103448295" x2="330.35" y2="81.88793103448295" stroke="#44aa44" stroke-width="1.5"/>
<rect x="320.9" y="298.34981759763974" width="9.45" height="36.65018240236026" fill="#44aa44" opacity="0.2" rx="0.5"/>
<line x1="341.375" y1="60.637931034482754" x2="341.375" y2="107.53448275862071" stroke="#44aa44" stroke-width="1" opacity="0.8"/>
<rect x="336.65" y="87.75000000000007" width="9.45" height="16.120689655172328" fill="#44aa44" opacity="0.8" rx="0.5"/>
<rect x="336.65" y="310.28555675511996" width="9.45" height="24.714443244880044" fill="#44aa44" opacity="0.2" rx="0.5"/>
<line x1="357.125" y1="93.61206896551745" x2="357.125" y2="117.79310344827593" stroke="#ff4444" stroke-width="1" opacity="0.8"/>
<rect x="352.4" y="97.27586206896551" width="9.45" height="7.327586206896655" fill="#ff4444" opacity="0.8" rx="0.5"/>
<rect x="352.4" y="314.7699823997456" width="9.45" height="20.230017600254428" fill="#ff4444" opacity="0.2" rx="0.5"/>
<line x1="372.875" y1="55.508620689655146" x2="372.875" y2="105.33620689655193" stroke="#ff4444" stroke-width="1" opacity="0.8"/>
<rect x="368.15" y="65.03448275862085" width="9.45" height="35.17241379310347" fill="#ff4444" opacity="0.8" rx="0.5"/>
<rect x="368.15" y="305.4825494800035" width="9.45" height="29.517450519996487" fill="#ff4444" opacity="0.2" rx="0.5"/>
<line x1="388.625" y1="61.37068965517253" x2="388.625" y2="92.1465517241379" stroke="#44aa44" stroke-width="1" opacity="0.8"/>
<rect x="383.9" y="78.22413793103462" width="9.45" height="2.9310344827585624" fill="#44aa44" opacity="0.8" rx="0.5"/>
<rect x="383.9" y="308.5240841346278" width="9.45" height="26.4759158653722" fill="#44aa44" opacity="0.2" rx="0.5"/>
<line x1="404.375" y1="76.02586206896558" x2="404.375" y2="107.53448275862071" stroke="#44aa44" stroke-width="1" opacity="0.8"/>
<rect x="399.65" y="81.88793103448295" width="9.45" height="1.4655172413792883" fill="#44aa44" opacity="0.8" rx="0.5"/>
<rect x="399.65" y="315.41650976222786" width="9.45" height="19.58349023777214" fill="#44aa44" opacity="0.2" rx="0.5"/>
<line x1="420.125" y1="62.8362068965518" x2="420.125" y2="89.21551724137935" stroke="#ff4444" stroke-width="1" opacity="0.8"/>
<rect x="415.4" y="67.96551724137942" width="9.45" height="21.24999999999993" fill="#ff4444" opacity="0.8" rx="0.5"/>
<rect x="415.4" y="314.7953399609687" width="9.45" height="20.204660039031296" fill="#ff4444" opacity="0.2" rx="0.5"/>
<line x1="435.875" y1="24.0" x2="435.875" y2="77.49137931034485" stroke="#44aa44" stroke-width="1" opacity="0.8"/>
<rect x="431.15" y="38.65517241379331" width="9.45" height="20.517241379310164" fill="#44aa44" opacity="0.8" rx="0.5"/>
<rect x="431.15" y="299.1107636394371" width="9.45" height="35.889236360562904" fill="#44aa44" opacity="0.2" rx="0.5"/>
<line x1="451.625" y1="30.594827586206886" x2="451.625" y2="87.75000000000007" stroke="#44aa44" stroke-width="1" opacity="0.8"/>
<rect x="446.9" y="49.646551724138035" width="9.45" height="21.982758620689694" fill="#44aa44" opacity="0.8" rx="0.5"/>
<rect x="446.9" y="312.4605183030181" width="9.45" height="22.53948169698191" fill="#44aa44" opacity="0.2" rx="0.5"/>
<line x1="467.375" y1="59.17241379310347" x2="467.375" y2="109.73275862068976" stroke="#44aa44" stroke-width="1" opacity="0.8"/>
<rect x="462.65" y="74.56034482758629" width="9.45" height="32.24137931034491" fill="#44aa44" opacity="0.8" rx="0.5"/>
<rect x="462.65" y="309.8272584738278" width="9.45" height="25.172741526172217" fill="#44aa44" opacity="0.2" rx="0.5"/>
<line x1="483.125" y1="119.25862068965522" x2="483.125" y2="155.89655172413796" stroke="#44aa44" stroke-width="1" opacity="0.8"/>
<rect x="478.4" y="124.38793103448282" width="9.45" height="20.517241379310434" fill="#44aa44" opacity="0.8" rx="0.5"/>
<rect x="478.4" y="309.6207523690721" width="9.45" height="25.37924763092792" fill="#44aa44" opacity="0.2" rx="0.5"/>
<line x1="498.875" y1="114.12931034482762" x2="498.875" y2="153.69827586206893" stroke="#ff4444" stroke-width="1" opacity="0.8"/>
<rect x="494.15" y="127.31896551724137" width="9.45" height="26.37931034482756" fill="#ff4444" opacity="0.8" rx="0.5"/>
<rect x="494.15" y="316.6531032115524" width="9.45" height="18.346896788447623" fill="#ff4444" opacity="0.2" rx="0.5"/>
<line x1="514.625" y1="127.31896551724137" x2="514.625" y2="165.42241379310343" stroke="#44aa44" stroke-width="1" opacity="0.8"/>
<rect x="509.9" y="129.51724137931043" width="9.45" height="10.991379310344712" fill="#44aa44" opacity="0.8" rx="0.5"/>
<rect x="509.9" y="315.3638196656469" width="9.45" height="19.636180334353128" fill="#44aa44" opacity="0.2" rx="0.5"/>
<line x1="530.375" y1="103.8706896551724" x2="530.375" y2="151.50000000000014" stroke="#ff4444" stroke-width="1" opacity="0.8"/>
<rect x="525.65" y="116.32758620689665" width="9.45" height="10.258620689655217" fill="#ff4444" opacity="0.8" rx="0.5"/>
<rect x="525.65" y="307.42477266971446" width="9.45" height="27.575227330285543" fill="#ff4444" opacity="0.2" rx="0.5"/>
<line x1="546.125" y1="97.27586206896551" x2="546.125" y2="132.44827586206898" stroke="#ff4444" stroke-width="1" opacity="0.8"/>
<rect x="541.4" y="99.47413793103455" width="9.45" height="16.12068965517234" fill="#ff4444" opacity="0.8" rx="0.5"/>
<rect x="541.4" y="317.0083687096724" width="9.45" height="17.991631290327575" fill="#ff4444" opacity="0.2" rx="0.5"/>
<line x1="561.875" y1="94.34482758620695" x2="561.875" y2="125.85344827586209" stroke="#44aa44" stroke-width="1" opacity="0.8"/>
<rect x="557.15" y="98.00862068965527" width="9.45" height="21.249999999999943" fill="#44aa44" opacity="0.8" rx="0.5"/>
<rect x="557.15" y="312.16913300277247" width="9.45" height="22.83086699722753" fill="#44aa44" opacity="0.2" rx="0.5"/>
<line x1="577.625" y1="83.35344827586223" x2="577.625" y2="125.12068965517258" stroke="#44aa44" stroke-width="1" opacity="0.8"/>
<rect x="572.9" y="109.0" width="9.45" height="13.18965517241378" fill="#44aa44" opacity="0.8" rx="0.5"/>
<rect x="572.9" y="306.3904097615286" width="9.45" height="28.609590238471412" fill="#44aa44" opacity="0.2" rx="0.5"/>
<line x1="593.375" y1="112.66379310344833" x2="593.375" y2="149.3017241379311" stroke="#44aa44" stroke-width="1" opacity="0.8"/>
<rect x="588.65" y="122.18965517241378" width="9.45" height="18.318965517241367" fill="#44aa44" opacity="0.8" rx="0.5"/>
<rect x="588.65" y="312.60447433795343" width="9.45" height="22.395525662046566" fill="#44aa44" opacity="0.2" rx="0.5"/>
<line x1="609.125" y1="78.22413793103462" x2="609.125" y2="149.3017241379311" stroke="#ff4444" stroke-width="1" opacity="0.8"/>
<rect x="604.4" y="100.93965517241384" width="9.45" height="32.97413793103442" fill="#ff4444" opacity="0.8" rx="0.5"/>
<rect x="604.4" y="305.06496588639584" width="9.45" height="29.93503411360416" fill="#ff4444" opacity="0.2" rx="0.5"/>
<line x1="624.875" y1="92.87931034482767" x2="624.875" y2="154.4310344827587" stroke="#44aa44" stroke-width="1" opacity="0.8"/>
<rect x="620.15" y="97.27586206896551" width="9.45" height="57.15517241379318" fill="#44aa44" opacity="0.8" rx="0.5"/>
<rect x="620.15" y="309.79163445223196" width="9.45" height="25.20836554776804" fill="#44aa44" opacity="0.2" rx="0.5"/>
<line x1="640.625" y1="141.9741379310347" x2="640.625" y2="190.3362068965517" stroke="#44aa44" stroke-width="1" opacity="0.8"/>
<rect x="635.9" y="149.3017241379311" width="9.45" height="27.844827586206776" fill="#44aa44" opacity="0.8" rx="0.5"/>
<rect x="635.9" y="313.30018451536364" width="9.45" height="21.69981548463636" fill="#44aa44" opacity="0.2" rx="0.5"/>
<line x1="656.375" y1="162.49137931034485" x2="656.375" y2="193.2672413793105" stroke="#ff4444" stroke-width="1" opacity="0.8"/>
<rect x="651.65" y="177.14655172413788" width="9.45" height="1.4655172413795583" fill="#ff4444" opacity="0.8" rx="0.5"/>
<rect x="651.65" y="319.7018248140785" width="9.45" height="15.29817518592148" fill="#ff4444" opacity="0.2" rx="0.5"/>
<line x1="672.125" y1="67.23275862068964" x2="672.125" y2="175.68103448275863" stroke="#ff4444" stroke-width="1" opacity="0.8"/>
<rect x="667.4" y="78.95689655172413" width="9.45" height="91.59482758620689" fill="#ff4444" opacity="0.8" rx="0.5"/>
<rect x="667.4" y="283.3723692727346" width="9.45" height="51.6276307272654" fill="#ff4444" opacity="0.2" rx="0.5"/>
<text x="57.875" y="347" text-anchor="middle" font-size="8" fill="#666">03-19</text>
<text x="136.625" y="347" text-anchor="middle" font-size="8" fill="#666">03-26</text>
<text x="215.375" y="347" text-anchor="middle" font-size="8" fill="#666">04-02</text>
<text x="294.125" y="347" text-anchor="middle" font-size="8" fill="#666">04-10</text>
<text x="372.875" y="347" text-anchor="middle" font-size="8" fill="#666">04-17</text>
<text x="451.625" y="347" text-anchor="middle" font-size="8" fill="#666">04-24</text>
<text x="530.375" y="347" text-anchor="middle" font-size="8" fill="#666">05-06</text>
<text x="609.125" y="347" text-anchor="middle" font-size="8" fill="#666">05-13</text>
<text x="672.125" y="347" text-anchor="middle" font-size="8" fill="#666">05-19</text>
<rect x="30" y="363" width="7" height="7" fill="#ff9800" opacity="0.8" rx="1"/>
<text x="40" y="369" font-family="sans-serif" font-size="8" fill="#888">第1类</text>
<rect x="130" y="363" width="7" height="7" fill="#2196f3" opacity="0.8" rx="1"/>
<text x="140" y="369" font-family="sans-serif" font-size="8" fill="#888">第2类</text>
<rect x="230" y="363" width="7" height="7" fill="#ffd700" opacity="0.8" rx="1"/>
<text x="240" y="369" font-family="sans-serif" font-size="8" fill="#888">EMA5</text>
<rect x="330" y="363" width="7" height="7" fill="#ff6b6b" opacity="0.8" rx="1"/>
<text x="340" y="369" font-family="sans-serif" font-size="8" fill="#888">EMA10</text>
</svg>