<svg xmlns="http://www.w3.org/2000/svg" width="700" height="380" viewBox="0 0 700 380">
<rect width="700" height="380" fill="#1a1a2e"/>
<text x="350" y="16" text-anchor="middle" font-family="sans-serif" font-size="13" font-weight="bold" fill="#fff">上海电力(600021) 关键点图</text>
<line x1="50" y1="250.3775510204081" x2="680" y2="250.3775510204081" stroke="#2a2a4e" stroke-width="0.5"/>
<text x="46" y="253.3775510204081" text-anchor="end" font-size="9" fill="#666">17</text>
<line x1="50" y1="185.32653061224485" x2="680" y2="185.32653061224485" stroke="#2a2a4e" stroke-width="0.5"/>
<text x="46" y="188.32653061224485" text-anchor="end" font-size="9" fill="#666">18</text>
<line x1="50" y1="120.27551020408161" x2="680" y2="120.27551020408161" stroke="#2a2a4e" stroke-width="0.5"/>
<text x="46" y="123.27551020408161" text-anchor="end" font-size="9" fill="#666">19</text>
<line x1="50" y1="55.22448979591838" x2="680" y2="55.22448979591838" stroke="#2a2a4e" stroke-width="0.5"/>
<text x="46" y="58.22448979591838" text-anchor="end" font-size="9" fill="#666">20</text>
<polyline points="57.9,52.6 73.6,66.5 89.4,100.7 105.1,112.0 120.9,105.4 136.6,106.9 152.4,106.6 168.1,114.4 183.9,132.6 199.6,141.5 215.4,161.3 231.1,183.4 246.9,201.0 262.6,189.7 278.4,183.7 294.1,171.9 309.9,165.7 325.6,166.6 341.4,171.6 357.1,177.4 372.9,185.9 388.6,185.1 404.4,184.5 420.1,185.9 435.9,188.3 451.6,197.3 467.4,201.5 483.1,217.8 498.9,224.8 514.6,233.3 530.4,227.1 546.1,214.2 561.9,207.2 577.6,198.2 593.4,196.3 609.1,187.9 624.9,197.0 640.6,216.1 656.4,232.5 672.1,207.0" fill="none" stroke="#ffd700" stroke-width="1" opacity="0.6"/>
<polyline points="57.9,52.6 73.6,60.2 89.4,80.0 105.1,89.9 120.9,90.3 136.6,93.9 152.4,96.1 168.1,102.3 183.9,114.4 199.6,122.6 215.4,136.8 231.1,153.3 246.9,168.4 262.6,168.1 278.4,168.8 294.1,165.0 309.9,162.9 325.6,163.9 341.4,167.1 357.1,171.1 372.9,176.9 388.6,178.1 404.4,179.0 420.1,180.8 435.9,183.0 451.6,188.9 467.4,192.7 483.1,203.2 498.9,209.7 514.6,217.1 530.4,216.6 546.1,211.5 561.9,208.2 577.6,203.1 593.4,201.1 609.1,195.7 624.9,199.2 640.6,209.2 656.4,219.4 672.1,207.9" fill="none" stroke="#ff6b6b" stroke-width="1" opacity="0.6"/>
<line x1="57.875" y1="24.0" x2="57.875" y2="55.22448979591838" stroke="#44aa44" stroke-width="1" opacity="0.8"/>
<rect x="53.15" y="35.70918367346936" width="9.45" height="16.913265306122547" fill="#44aa44" opacity="0.8" rx="0.5"/>
<rect x="53.15" y="315.5135491984877" width="9.45" height="19.48645080151232" fill="#44aa44" opacity="0.2" rx="0.5"/>
<line x1="73.625" y1="37.660714285714334" x2="73.625" y2="94.25510204081642" stroke="#44aa44" stroke-width="1" opacity="0.8"/>
<rect x="68.9" y="55.22448979591838" width="9.45" height="39.030612244898045" fill="#44aa44" opacity="0.8" rx="0.5"/>
<rect x="68.9" y="308.979859334032" width="9.45" height="26.020140665967972" fill="#44aa44" opacity="0.2" rx="0.5"/>
<line x1="89.375" y1="104.01275510204081" x2="89.375" y2="175.56887755102045" stroke="#44aa44" stroke-width="1" opacity="0.8"/>
<rect x="84.65" y="119.62499999999989" width="9.45" height="49.43877551020415" fill="#44aa44" opacity="0.8" rx="0.5"/>
<rect x="84.65" y="303.304190823531" width="9.45" height="31.695809176469027" fill="#44aa44" opacity="0.2" rx="0.5"/>
<line x1="105.125" y1="134.58673469387747" x2="105.125" y2="172.96683673469374" stroke="#ff4444" stroke-width="1" opacity="0.8"/>
<rect x="100.4" y="134.58673469387747" width="9.45" height="8.456632653061376" fill="#ff4444" opacity="0.8" rx="0.5"/>
<rect x="100.4" y="311.76562108307576" width="9.45" height="23.234378916924243" fill="#ff4444" opacity="0.2" rx="0.5"/>
<line x1="120.875" y1="77.34183673469387" x2="120.875" y2="133.93622448979596" stroke="#ff4444" stroke-width="1" opacity="0.8"/>
<rect x="116.15" y="92.30357142857144" width="9.45" height="41.63265306122452" fill="#ff4444" opacity="0.8" rx="0.5"/>
<rect x="116.15" y="306.1907877928337" width="9.45" height="28.809212207166297" fill="#ff4444" opacity="0.2" rx="0.5"/>
<line x1="136.625" y1="87.75" x2="136.625" y2="115.07142857142867" stroke="#44aa44" stroke-width="1" opacity="0.8"/>
<rect x="131.9" y="91.65306122448972" width="9.45" height="18.21428571428578" fill="#44aa44" opacity="0.8" rx="0.5"/>
<rect x="131.9" y="316.2445033386835" width="9.45" height="18.7554966613165" fill="#44aa44" opacity="0.2" rx="0.5"/>
<line x1="152.375" y1="101.41071428571433" x2="152.375" y2="139.79081632653066" stroke="#ff4444" stroke-width="1" opacity="0.8"/>
<rect x="147.65" y="105.96428571428578" width="9.45" height="15.612244897959073" fill="#ff4444" opacity="0.8" rx="0.5"/>
<rect x="147.65" y="321.01598912655743" width="9.45" height="13.984010873442571" fill="#ff4444" opacity="0.2" rx="0.5"/>
<line x1="168.125" y1="113.11989795918369" x2="168.125" y2="150.19897959183675" stroke="#44aa44" stroke-width="1" opacity="0.8"/>
<rect x="163.4" y="125.47959183673457" width="9.45" height="4.553571428571431" fill="#44aa44" opacity="0.8" rx="0.5"/>
<rect x="163.4" y="318.8185518302884" width="9.45" height="16.181448169711587" fill="#44aa44" opacity="0.2" rx="0.5"/>
<line x1="183.875" y1="126.78061224489804" x2="183.875" y2="169.06377551020404" stroke="#44aa44" stroke-width="1" opacity="0.8"/>
<rect x="179.15" y="130.033163265306" width="9.45" height="39.03061224489804" fill="#44aa44" opacity="0.8" rx="0.5"/>
<rect x="179.15" y="313.26415450471075" width="9.45" height="21.735845495289254" fill="#44aa44" opacity="0.2" rx="0.5"/>
<line x1="199.625" y1="146.94642857142856" x2="199.625" y2="171.015306122449" stroke="#44aa44" stroke-width="1" opacity="0.8"/>
<rect x="194.9" y="152.80102040816323" width="9.45" height="6.505102040816439" fill="#44aa44" opacity="0.8" rx="0.5"/>
<rect x="194.9" y="322.4957019978777" width="9.45" height="12.504298002122312" fill="#44aa44" opacity="0.2" rx="0.5"/>
<line x1="215.375" y1="152.80102040816323" x2="215.375" y2="208.7448979591836" stroke="#44aa44" stroke-width="1" opacity="0.8"/>
<rect x="210.65" y="159.30612244897966" width="9.45" height="41.63265306122426" fill="#44aa44" opacity="0.8" rx="0.5"/>
<rect x="210.65" y="311.3850472568774" width="9.45" height="23.614952743122615" fill="#44aa44" opacity="0.2" rx="0.5"/>
<line x1="231.125" y1="198.98724489795921" x2="231.125" y2="245.17346938775515" stroke="#44aa44" stroke-width="1" opacity="0.8"/>
<rect x="226.4" y="200.93877551020393" width="9.45" height="26.670918367346957" fill="#44aa44" opacity="0.8" rx="0.5"/>
<rect x="226.4" y="315.4252463683141" width="9.45" height="19.574753631685894" fill="#44aa44" opacity="0.2" rx="0.5"/>
<line x1="246.875" y1="220.45408163265296" x2="246.875" y2="239.96938775510196" stroke="#44aa44" stroke-width="1" opacity="0.8"/>
<rect x="242.15" y="230.8622448979591" width="9.45" height="5.204081632653157" fill="#44aa44" opacity="0.8" rx="0.5"/>
<rect x="242.15" y="323.0354822763039" width="9.45" height="11.964517723696076" fill="#44aa44" opacity="0.2" rx="0.5"/>
<line x1="262.625" y1="160.6071428571429" x2="262.625" y2="217.85204081632648" stroke="#ff4444" stroke-width="1" opacity="0.8"/>
<rect x="257.9" y="167.1122448979591" width="9.45" height="50.73979591836738" fill="#ff4444" opacity="0.8" rx="0.5"/>
<rect x="257.9" y="308.225844528404" width="9.45" height="26.774155471595975" fill="#ff4444" opacity="0.2" rx="0.5"/>
<line x1="278.375" y1="157.3545918367347" x2="278.375" y2="190.5306122448978" stroke="#ff4444" stroke-width="1" opacity="0.8"/>
<rect x="273.65" y="171.66581632653052" width="9.45" height="11.058673469387855" fill="#ff4444" opacity="0.8" rx="0.5"/>
<rect x="273.65" y="319.05213574052317" width="9.45" height="15.94786425947683" fill="#ff4444" opacity="0.2" rx="0.5"/>
<line x1="294.125" y1="141.09183673469386" x2="294.125" y2="166.4617346938776" stroke="#ff4444" stroke-width="1" opacity="0.8"/>
<rect x="289.4" y="148.2474489795918" width="9.45" height="14.96173469387756" fill="#ff4444" opacity="0.8" rx="0.5"/>
<rect x="289.4" y="318.68160473124556" width="9.45" height="16.318395268754443" fill="#ff4444" opacity="0.2" rx="0.5"/>
<line x1="309.875" y1="144.99489795918356" x2="309.875" y2="170.36479591836726" stroke="#ff4444" stroke-width="1" opacity="0.8"/>
<rect x="305.15" y="153.45153061224497" width="9.45" height="4.553571428571217" fill="#ff4444" opacity="0.8" rx="0.5"/>
<rect x="305.15" y="322.4277533885098" width="9.45" height="12.572246611490186" fill="#ff4444" opacity="0.2" rx="0.5"/>
<line x1="325.625" y1="133.93622448979596" x2="325.625" y2="175.56887755102045" stroke="#44aa44" stroke-width="1" opacity="0.8"/>
<rect x="320.9" y="146.94642857142856" width="9.45" height="21.466836734693743" fill="#44aa44" opacity="0.8" rx="0.5"/>
<rect x="320.9" y="313.8679029670608" width="9.45" height="21.132097032939214" fill="#44aa44" opacity="0.2" rx="0.5"/>
<line x1="341.375" y1="149.548469387755" x2="341.375" y2="185.9770408163266" stroke="#44aa44" stroke-width="1" opacity="0.8"/>
<rect x="336.65" y="160.6071428571429" width="9.45" height="20.81632653061226" fill="#44aa44" opacity="0.8" rx="0.5"/>
<rect x="336.65" y="306.6945295951247" width="9.45" height="28.30547040487528" fill="#44aa44" opacity="0.2" rx="0.5"/>
<line x1="357.125" y1="176.8698979591837" x2="357.125" y2="197.68622448979596" stroke="#44aa44" stroke-width="1" opacity="0.8"/>
<rect x="352.4" y="180.1224489795919" width="9.45" height="9.10714285714269" fill="#44aa44" opacity="0.8" rx="0.5"/>
<rect x="352.4" y="309.14187343756845" width="9.45" height="25.85812656243155" fill="#44aa44" opacity="0.2" rx="0.5"/>
<line x1="372.875" y1="184.02551020408163" x2="372.875" y2="209.3954081632653" stroke="#44aa44" stroke-width="1" opacity="0.8"/>
<rect x="368.15" y="189.22959183673458" width="9.45" height="13.660714285714306" fill="#44aa44" opacity="0.8" rx="0.5"/>
<rect x="368.15" y="313.4562853813154" width="9.45" height="21.54371461868459" fill="#44aa44" opacity="0.2" rx="0.5"/>
<line x1="388.625" y1="182.07397959183663" x2="388.625" y2="205.49234693877537" stroke="#ff4444" stroke-width="1" opacity="0.8"/>
<rect x="383.9" y="183.3749999999999" width="9.45" height="19.515306122449005" fill="#ff4444" opacity="0.8" rx="0.5"/>
<rect x="383.9" y="315.49979009444166" width="9.45" height="19.500209905558336" fill="#ff4444" opacity="0.2" rx="0.5"/>
<line x1="404.375" y1="178.82142857142844" x2="404.375" y2="204.84183673469386" stroke="#44aa44" stroke-width="1" opacity="0.8"/>
<rect x="399.65" y="180.1224489795919" width="9.45" height="3.252551020407992" fill="#44aa44" opacity="0.8" rx="0.5"/>
<rect x="399.65" y="316.7173926731784" width="9.45" height="18.28260732682162" fill="#44aa44" opacity="0.2" rx="0.5"/>
<line x1="420.125" y1="184.6760204081631" x2="420.125" y2="199.6377551020407" stroke="#ff4444" stroke-width="1" opacity="0.8"/>
<rect x="415.4" y="188.57908163265307" width="9.45" height="4.553571428571445" fill="#ff4444" opacity="0.8" rx="0.5"/>
<rect x="415.4" y="319.40298427444577" width="9.45" height="15.597015725554229" fill="#ff4444" opacity="0.2" rx="0.5"/>
<line x1="435.875" y1="168.4132653061223" x2="435.875" y2="210.69642857142856" stroke="#44aa44" stroke-width="1" opacity="0.8"/>
<rect x="431.15" y="185.32653061224485" width="9.45" height="7.806122448979664" fill="#44aa44" opacity="0.8" rx="0.5"/>
<rect x="431.15" y="310.93529032222125" width="9.45" height="24.06470967777875" fill="#44aa44" opacity="0.2" rx="0.5"/>
<line x1="451.625" y1="200.2882653061224" x2="451.625" y2="221.1045918367347" stroke="#44aa44" stroke-width="1" opacity="0.8"/>
<rect x="446.9" y="201.58928571428567" width="9.45" height="13.660714285714334" fill="#44aa44" opacity="0.8" rx="0.5"/>
<rect x="446.9" y="315.92838259875424" width="9.45" height="19.07161740124576" fill="#44aa44" opacity="0.2" rx="0.5"/>
<line x1="467.375" y1="206.1428571428571" x2="467.375" y2="231.51275510204079" stroke="#ff4444" stroke-width="1" opacity="0.8"/>
<rect x="462.65" y="210.04591836734681" width="9.45" height="8.456632653061405" fill="#ff4444" opacity="0.8" rx="0.5"/>
<rect x="462.65" y="321.9044764722417" width="9.45" height="13.095523527758303" fill="#ff4444" opacity="0.2" rx="0.5"/>
<line x1="483.125" y1="225.65816326530614" x2="483.125" y2="267.9413265306121" stroke="#44aa44" stroke-width="1" opacity="0.8"/>
<rect x="478.4" y="225.65816326530614" width="9.45" height="24.719387755101963" fill="#44aa44" opacity="0.8" rx="0.5"/>
<rect x="478.4" y="302.65371657062707" width="9.45" height="32.34628342937293" fill="#44aa44" opacity="0.2" rx="0.5"/>
<line x1="498.875" y1="223.05612244897944" x2="498.875" y2="262.7372448979592" stroke="#ff4444" stroke-width="1" opacity="0.8"/>
<rect x="494.15" y="238.6683673469387" width="9.45" height="23.418367346938766" fill="#ff4444" opacity="0.8" rx="0.5"/>
<rect x="494.15" y="314.5327152039893" width="9.45" height="20.467284796010688" fill="#ff4444" opacity="0.2" rx="0.5"/>
<line x1="514.625" y1="236.06632653061226" x2="514.625" y2="260.7857142857142" stroke="#44aa44" stroke-width="1" opacity="0.8"/>
<rect x="509.9" y="236.06632653061226" width="9.45" height="14.311224489795848" fill="#44aa44" opacity="0.8" rx="0.5"/>
<rect x="509.9" y="314.9611837023122" width="9.45" height="20.038816297687788" fill="#44aa44" opacity="0.2" rx="0.5"/>
<line x1="530.375" y1="211.34693877551004" x2="530.375" y2="245.17346938775515" stroke="#ff4444" stroke-width="1" opacity="0.8"/>
<rect x="525.65" y="214.59948979591826" width="9.45" height="27.32142857142867" fill="#ff4444" opacity="0.8" rx="0.5"/>
<rect x="525.65" y="306.0649345031801" width="9.45" height="28.935065496819902" fill="#ff4444" opacity="0.2" rx="0.5"/>
<line x1="546.125" y1="186.6275510204081" x2="546.125" y2="210.04591836734681" stroke="#ff4444" stroke-width="1" opacity="0.8"/>
<rect x="541.4" y="188.57908163265307" width="9.45" height="19.515306122449005" fill="#ff4444" opacity="0.8" rx="0.5"/>
<rect x="541.4" y="307.21576569532976" width="9.45" height="27.784234304670235" fill="#ff4444" opacity="0.2" rx="0.5"/>
<line x1="561.875" y1="179.47193877551018" x2="561.875" y2="206.7933673469386" stroke="#44aa44" stroke-width="1" opacity="0.8"/>
<rect x="557.15" y="191.8316326530613" width="9.45" height="1.3010204081632253" fill="#44aa44" opacity="0.8" rx="0.5"/>
<rect x="557.15" y="311.4426633312948" width="9.45" height="23.557336668705204" fill="#44aa44" opacity="0.2" rx="0.5"/>
<line x1="577.625" y1="163.8596938775511" x2="577.625" y2="193.13265306122452" stroke="#ff4444" stroke-width="1" opacity="0.8"/>
<rect x="572.9" y="180.1224489795919" width="9.45" height="13.010204081632622" fill="#ff4444" opacity="0.8" rx="0.5"/>
<rect x="572.9" y="303.1383886984627" width="9.45" height="31.861611301537323" fill="#ff4444" opacity="0.2" rx="0.5"/>
<line x1="593.375" y1="172.96683673469374" x2="593.375" y2="200.2882653061224" stroke="#44aa44" stroke-width="1" opacity="0.8"/>
<rect x="588.65" y="180.1224489795919" width="9.45" height="12.359693877550882" fill="#44aa44" opacity="0.8" rx="0.5"/>
<rect x="588.65" y="304.29977541391196" width="9.45" height="30.70022458608804" fill="#44aa44" opacity="0.2" rx="0.5"/>
<line x1="609.125" y1="146.29591836734681" x2="609.125" y2="191.18112244897955" stroke="#ff4444" stroke-width="1" opacity="0.8"/>
<rect x="604.4" y="171.015306122449" width="9.45" height="20.165816326530546" fill="#ff4444" opacity="0.8" rx="0.5"/>
<rect x="604.4" y="279.0" width="9.45" height="56.0" fill="#ff4444" opacity="0.2" rx="0.5"/>
<line x1="624.875" y1="159.95663265306118" x2="624.875" y2="217.20153061224474" stroke="#44aa44" stroke-width="1" opacity="0.8"/>
<rect x="620.15" y="169.06377551020404" width="9.45" height="46.18622448979596" fill="#44aa44" opacity="0.8" rx="0.5"/>
<rect x="620.15" y="290.143978431299" width="9.45" height="44.85602156870101" fill="#44aa44" opacity="0.2" rx="0.5"/>
<line x1="640.625" y1="225.0076530612244" x2="640.625" y2="264.6887755102039" stroke="#44aa44" stroke-width="1" opacity="0.8"/>
<rect x="635.9" y="225.0076530612244" width="9.45" height="29.272959183673407" fill="#44aa44" opacity="0.8" rx="0.5"/>
<rect x="635.9" y="295.55451824333363" width="9.45" height="39.44548175666637" fill="#44aa44" opacity="0.2" rx="0.5"/>
<line x1="656.375" y1="254.2806122448978" x2="656.375" y2="275.7474489795918" stroke="#44aa44" stroke-width="1" opacity="0.8"/>
<line x1="651.65" y1="264.6887755102039" x2="661.1" y2="264.6887755102039" stroke="#44aa44" stroke-width="1.5"/>
<rect x="651.65" y="311.7233517230204" width="9.45" height="23.276648276979586" fill="#44aa44" opacity="0.2" rx="0.5"/>
<line x1="672.125" y1="156.05357142857144" x2="672.125" y2="279.0" stroke="#ff4444" stroke-width="1" opacity="0.8"/>
<rect x="667.4" y="156.05357142857144" width="9.45" height="107.33418367346928" fill="#ff4444" opacity="0.8" rx="0.5"/>
<rect x="667.4" y="291.6292765768802" width="9.45" height="43.370723423119784" fill="#ff4444" opacity="0.2" rx="0.5"/>
<text x="57.875" y="347" text-anchor="middle" font-size="8" fill="#666">03-19</text>
<text x="136.625" y="347" text-anchor="middle" font-size="8" fill="#666">03-26</text>
<text x="215.375" y="347" text-anchor="middle" font-size="8" fill="#666">04-02</text>
<text x="294.125" y="347" text-anchor="middle" font-size="8" fill="#666">04-10</text>
<text x="372.875" y="347" text-anchor="middle" font-size="8" fill="#666">04-17</text>
<text x="451.625" y="347" text-anchor="middle" font-size="8" fill="#666">04-24</text>
<text x="530.375" y="347" text-anchor="middle" font-size="8" fill="#666">05-06</text>
<text x="609.125" y="347" text-anchor="middle" font-size="8" fill="#666">05-13</text>
<text x="672.125" y="347" text-anchor="middle" font-size="8" fill="#666">05-19</text>
<rect x="30" y="363" width="7" height="7" fill="#ff9800" opacity="0.8" rx="1"/>
<text x="40" y="369" font-family="sans-serif" font-size="8" fill="#888">第1类</text>
<rect x="130" y="363" width="7" height="7" fill="#2196f3" opacity="0.8" rx="1"/>
<text x="140" y="369" font-family="sans-serif" font-size="8" fill="#888">第2类</text>
<rect x="230" y="363" width="7" height="7" fill="#ffd700" opacity="0.8" rx="1"/>
<text x="240" y="369" font-family="sans-serif" font-size="8" fill="#888">EMA5</text>
<rect x="330" y="363" width="7" height="7" fill="#ff6b6b" opacity="0.8" rx="1"/>
<text x="340" y="369" font-family="sans-serif" font-size="8" fill="#888">EMA10</text>
</svg>