<svg xmlns="http://www.w3.org/2000/svg" width="700" height="380" viewBox="0 0 700 380">
<rect width="700" height="380" fill="#1a1a2e"/>
<text x="350" y="16" text-anchor="middle" font-family="sans-serif" font-size="13" font-weight="bold" fill="#fff">*ST帅电(605336) 关键点图</text>
<line x1="50" y1="276.02912621359224" x2="680" y2="276.02912621359224" stroke="#2a2a4e" stroke-width="0.5"/>
<text x="46" y="279.02912621359224" text-anchor="end" font-size="9" fill="#666">14</text>
<line x1="50" y1="226.5145631067961" x2="680" y2="226.5145631067961" stroke="#2a2a4e" stroke-width="0.5"/>
<text x="46" y="229.5145631067961" text-anchor="end" font-size="9" fill="#666">15</text>
<line x1="50" y1="177.0" x2="680" y2="177.0" stroke="#2a2a4e" stroke-width="0.5"/>
<text x="46" y="180.0" text-anchor="end" font-size="9" fill="#666">16</text>
<line x1="50" y1="127.48543689320387" x2="680" y2="127.48543689320387" stroke="#2a2a4e" stroke-width="0.5"/>
<text x="46" y="130.48543689320388" text-anchor="end" font-size="9" fill="#666">17</text>
<line x1="50" y1="77.97087378640776" x2="680" y2="77.97087378640776" stroke="#2a2a4e" stroke-width="0.5"/>
<text x="46" y="80.97087378640776" text-anchor="end" font-size="9" fill="#666">18</text>
<line x1="50" y1="28.456310679611644" x2="680" y2="28.456310679611644" stroke="#2a2a4e" stroke-width="0.5"/>
<text x="46" y="31.456310679611644" text-anchor="end" font-size="9" fill="#666">19</text>
<polyline points="57.9,214.1 73.6,215.1 89.4,218.1 105.1,230.3 120.9,223.8 136.6,222.7 152.4,216.5 168.1,209.1 183.9,205.9 199.6,204.3 215.4,199.7 231.1,206.1 246.9,223.8 262.6,229.3 278.4,217.2 294.1,216.2 309.9,209.7 325.6,216.0 341.4,228.1 357.1,240.3 372.9,224.9 388.6,223.5 404.4,219.1 420.1,208.7 435.9,214.8 451.6,206.5 467.4,187.9 483.1,165.0 498.9,154.4 514.6,150.7 530.4,144.6 546.1,133.8 561.9,112.2 577.6,88.8 593.4,77.1 609.1,67.5 624.9,76.4 640.6,69.5 656.4,80.1 672.1,72.8" fill="none" stroke="#ffd700" stroke-width="1" opacity="0.6"/>
<polyline points="57.9,214.1 73.6,214.7 89.4,216.4 105.1,223.4 120.9,221.0 136.6,221.0 152.4,217.9 168.1,213.6 183.9,211.0 199.6,209.2 215.4,205.8 231.1,208.2 246.9,217.5 262.6,221.7 278.4,216.4 294.1,216.0 309.9,212.5 325.6,215.4 341.4,222.1 357.1,229.8 372.9,223.4 388.6,222.9 404.4,220.6 420.1,214.6 435.9,216.9 451.6,212.0 467.4,200.8 483.1,186.0 498.9,176.4 514.6,170.4 530.4,163.5 546.1,154.2 561.9,138.7 577.6,121.1 593.4,108.8 609.1,97.8 624.9,97.2 640.6,89.6 656.4,91.7 672.1,85.6" fill="none" stroke="#ff6b6b" stroke-width="1" opacity="0.6"/>
<line x1="57.875" y1="210.17475728155335" x2="57.875" y2="261.66990291262135" stroke="#ff4444" stroke-width="1" opacity="0.8"/>
<rect x="53.15" y="214.13592233009706" width="9.45" height="36.640776699029146" fill="#ff4444" opacity="0.8" rx="0.5"/>
<rect x="53.15" y="310.6202690891581" width="9.45" height="24.379730910841886" fill="#ff4444" opacity="0.2" rx="0.5"/>
<line x1="73.625" y1="198.2912621359223" x2="73.625" y2="230.97087378640774" stroke="#44aa44" stroke-width="1" opacity="0.8"/>
<line x1="68.9" y1="216.6116504854369" x2="78.35" y2="216.6116504854369" stroke="#44aa44" stroke-width="1.5"/>
<rect x="68.9" y="313.496858765103" width="9.45" height="21.503141234896987" fill="#44aa44" opacity="0.2" rx="0.5"/>
<line x1="89.375" y1="189.87378640776697" x2="89.375" y2="227.00970873786403" stroke="#44aa44" stroke-width="1" opacity="0.8"/>
<rect x="84.65" y="202.252427184466" width="9.45" height="21.786407766990266" fill="#44aa44" opacity="0.8" rx="0.5"/>
<rect x="84.65" y="311.82441814757703" width="9.45" height="23.175581852422965" fill="#44aa44" opacity="0.2" rx="0.5"/>
<line x1="105.125" y1="207.69902912621353" x2="105.125" y2="260.1844660194174" stroke="#44aa44" stroke-width="1" opacity="0.8"/>
<rect x="100.4" y="223.5436893203883" width="9.45" height="31.194174757281615" fill="#44aa44" opacity="0.8" rx="0.5"/>
<rect x="100.4" y="310.58831425826963" width="9.45" height="24.411685741730366" fill="#44aa44" opacity="0.2" rx="0.5"/>
<line x1="120.875" y1="206.70873786407762" x2="120.875" y2="260.1844660194174" stroke="#ff4444" stroke-width="1" opacity="0.8"/>
<rect x="116.15" y="210.66990291262132" width="9.45" height="30.699029126213645" fill="#ff4444" opacity="0.8" rx="0.5"/>
<rect x="116.15" y="318.4764749814385" width="9.45" height="16.523525018561486" fill="#ff4444" opacity="0.2" rx="0.5"/>
<line x1="136.625" y1="200.27184466019418" x2="136.625" y2="228.99029126213594" stroke="#44aa44" stroke-width="1" opacity="0.8"/>
<rect x="131.9" y="211.16504854368927" width="9.45" height="9.407766990291321" fill="#44aa44" opacity="0.8" rx="0.5"/>
<rect x="131.9" y="322.23132928827863" width="9.45" height="12.76867071172137" fill="#44aa44" opacity="0.2" rx="0.5"/>
<line x1="152.375" y1="191.3592233009708" x2="152.375" y2="222.05825242718447" stroke="#ff4444" stroke-width="1" opacity="0.8"/>
<rect x="147.65" y="204.23300970873788" width="9.45" height="16.339805825242706" fill="#ff4444" opacity="0.8" rx="0.5"/>
<rect x="147.65" y="317.31965034401776" width="9.45" height="17.68034965598224" fill="#ff4444" opacity="0.2" rx="0.5"/>
<line x1="168.125" y1="189.37864077669903" x2="168.125" y2="215.62135922330094" stroke="#ff4444" stroke-width="1" opacity="0.8"/>
<rect x="163.4" y="194.3300970873786" width="9.45" height="10.893203883495204" fill="#ff4444" opacity="0.8" rx="0.5"/>
<rect x="163.4" y="321.8961453377911" width="9.45" height="13.103854662208903" fill="#ff4444" opacity="0.2" rx="0.5"/>
<line x1="183.875" y1="193.83495145631065" x2="183.875" y2="217.6019417475728" stroke="#44aa44" stroke-width="1" opacity="0.8"/>
<rect x="179.15" y="197.79611650485435" width="9.45" height="1.485436893203854" fill="#44aa44" opacity="0.8" rx="0.5"/>
<rect x="179.15" y="324.8605320065063" width="9.45" height="10.139467993493724" fill="#44aa44" opacity="0.2" rx="0.5"/>
<line x1="199.625" y1="172.0485436893203" x2="199.625" y2="211.66019417475724" stroke="#44aa44" stroke-width="1" opacity="0.8"/>
<rect x="194.9" y="190.3689320388349" width="9.45" height="10.893203883495175" fill="#44aa44" opacity="0.8" rx="0.5"/>
<rect x="194.9" y="322.54879011621625" width="9.45" height="12.451209883783747" fill="#44aa44" opacity="0.2" rx="0.5"/>
<line x1="215.375" y1="186.90291262135915" x2="215.375" y2="204.23300970873788" stroke="#ff4444" stroke-width="1" opacity="0.8"/>
<rect x="210.65" y="190.3689320388349" width="9.45" height="6.436893203883528" fill="#ff4444" opacity="0.8" rx="0.5"/>
<rect x="210.65" y="325.4814920986361" width="9.45" height="9.518507901363876" fill="#ff4444" opacity="0.2" rx="0.5"/>
<line x1="231.125" y1="182.94174757281547" x2="231.125" y2="225.5242718446602" stroke="#44aa44" stroke-width="1" opacity="0.8"/>
<rect x="226.4" y="190.3689320388349" width="9.45" height="28.718446601941764" fill="#44aa44" opacity="0.8" rx="0.5"/>
<rect x="226.4" y="325.55979719274745" width="9.45" height="9.440202807252547" fill="#44aa44" opacity="0.2" rx="0.5"/>
<line x1="246.875" y1="215.62135922330094" x2="246.875" y2="263.15533980582524" stroke="#44aa44" stroke-width="1" opacity="0.8"/>
<rect x="242.15" y="218.5922330097087" width="9.45" height="40.60194174757282" fill="#44aa44" opacity="0.8" rx="0.5"/>
<rect x="242.15" y="322.0431694860572" width="9.45" height="12.956830513942805" fill="#44aa44" opacity="0.2" rx="0.5"/>
<line x1="262.625" y1="230.4757281553398" x2="262.625" y2="261.1747572815533" stroke="#ff4444" stroke-width="1" opacity="0.8"/>
<rect x="257.9" y="240.37864077669897" width="9.45" height="18.815533980582558" fill="#ff4444" opacity="0.8" rx="0.5"/>
<rect x="257.9" y="321.1238674356042" width="9.45" height="13.876132564395789" fill="#ff4444" opacity="0.2" rx="0.5"/>
<line x1="278.375" y1="180.46601941747574" x2="278.375" y2="234.93203883495144" stroke="#ff4444" stroke-width="1" opacity="0.8"/>
<rect x="273.65" y="192.84466019417476" width="9.45" height="42.08737864077668" fill="#ff4444" opacity="0.8" rx="0.5"/>
<rect x="273.65" y="316.006502035367" width="9.45" height="18.99349796463298" fill="#ff4444" opacity="0.2" rx="0.5"/>
<line x1="294.125" y1="196.3106796116505" x2="294.125" y2="224.03883495145627" stroke="#44aa44" stroke-width="1" opacity="0.8"/>
<rect x="289.4" y="201.75728155339803" width="9.45" height="12.37864077669903" fill="#44aa44" opacity="0.8" rx="0.5"/>
<rect x="289.4" y="323.2286949399491" width="9.45" height="11.771305060050906" fill="#44aa44" opacity="0.2" rx="0.5"/>
<line x1="309.875" y1="184.92233009708735" x2="309.875" y2="212.65048543689323" stroke="#ff4444" stroke-width="1" opacity="0.8"/>
<rect x="305.15" y="196.80582524271844" width="9.45" height="15.844660194174793" fill="#ff4444" opacity="0.8" rx="0.5"/>
<rect x="305.15" y="318.6480659152807" width="9.45" height="16.35193408471929" fill="#ff4444" opacity="0.2" rx="0.5"/>
<line x1="325.625" y1="199.2815533980582" x2="325.625" y2="243.84466019417474" stroke="#44aa44" stroke-width="1" opacity="0.8"/>
<rect x="320.9" y="205.71844660194174" width="9.45" height="22.776699029126178" fill="#44aa44" opacity="0.8" rx="0.5"/>
<rect x="320.9" y="310.86196663801985" width="9.45" height="24.13803336198015" fill="#44aa44" opacity="0.2" rx="0.5"/>
<line x1="341.375" y1="223.5436893203883" x2="341.375" y2="255.23300970873782" stroke="#44aa44" stroke-width="1" opacity="0.8"/>
<rect x="336.65" y="228.4951456310679" width="9.45" height="23.766990291262147" fill="#44aa44" opacity="0.8" rx="0.5"/>
<rect x="336.65" y="318.0050399216113" width="9.45" height="16.994960078388715" fill="#44aa44" opacity="0.2" rx="0.5"/>
<line x1="357.125" y1="246.8155339805825" x2="357.125" y2="273.55339805825236" stroke="#44aa44" stroke-width="1" opacity="0.8"/>
<rect x="352.4" y="247.8058252427184" width="9.45" height="16.834951456310648" fill="#44aa44" opacity="0.8" rx="0.5"/>
<rect x="352.4" y="319.8432306194278" width="9.45" height="15.1567693805722" fill="#44aa44" opacity="0.2" rx="0.5"/>
<line x1="372.875" y1="194.3300970873786" x2="372.875" y2="279.0" stroke="#ff4444" stroke-width="1" opacity="0.8"/>
<rect x="368.15" y="194.3300970873786" width="9.45" height="72.29126213592235" fill="#ff4444" opacity="0.8" rx="0.5"/>
<rect x="368.15" y="299.2568823647475" width="9.45" height="35.743117635252474" fill="#ff4444" opacity="0.2" rx="0.5"/>
<line x1="388.625" y1="177.4951456310679" x2="388.625" y2="224.03883495145627" stroke="#44aa44" stroke-width="1" opacity="0.8"/>
<rect x="383.9" y="191.85436893203885" width="9.45" height="28.718446601941736" fill="#44aa44" opacity="0.8" rx="0.5"/>
<rect x="383.9" y="301.7313700000044" width="9.45" height="33.268629999995596" fill="#44aa44" opacity="0.2" rx="0.5"/>
<line x1="404.375" y1="160.66019417475735" x2="404.375" y2="222.55339805825238" stroke="#44aa44" stroke-width="1" opacity="0.8"/>
<rect x="399.65" y="206.70873786407762" width="9.45" height="3.466019417475735" fill="#44aa44" opacity="0.8" rx="0.5"/>
<rect x="399.65" y="302.975340827312" width="9.45" height="32.02465917268802" fill="#44aa44" opacity="0.2" rx="0.5"/>
<line x1="420.125" y1="174.0291262135923" x2="420.125" y2="221.5631067961165" stroke="#ff4444" stroke-width="1" opacity="0.8"/>
<rect x="415.4" y="187.89320388349515" width="9.45" height="30.203883495145618" fill="#ff4444" opacity="0.8" rx="0.5"/>
<rect x="415.4" y="301.62158896769245" width="9.45" height="33.378411032307554" fill="#ff4444" opacity="0.2" rx="0.5"/>
<line x1="435.875" y1="167.0970873786408" x2="435.875" y2="227.00970873786403" stroke="#44aa44" stroke-width="1" opacity="0.8"/>
<rect x="431.15" y="198.78640776699027" width="9.45" height="28.223300970873765" fill="#44aa44" opacity="0.8" rx="0.5"/>
<rect x="431.15" y="279.0" width="9.45" height="56.0" fill="#44aa44" opacity="0.2" rx="0.5"/>
<line x1="451.625" y1="189.87378640776697" x2="451.625" y2="237.40776699029126" stroke="#ff4444" stroke-width="1" opacity="0.8"/>
<rect x="446.9" y="189.87378640776697" width="9.45" height="47.53398058252429" fill="#ff4444" opacity="0.8" rx="0.5"/>
<rect x="446.9" y="321.35650695439597" width="9.45" height="13.643493045604032" fill="#ff4444" opacity="0.2" rx="0.5"/>
<line x1="467.375" y1="150.757281553398" x2="467.375" y2="150.757281553398" stroke="#ff4444" stroke-width="1" opacity="0.8"/>
<line x1="462.65" y1="150.757281553398" x2="472.1" y2="150.757281553398" stroke="#ff4444" stroke-width="1.5"/>
<rect x="462.65" y="332.5329249686549" width="9.45" height="2.4670750313450753" fill="#ff4444" opacity="0.2" rx="0.5"/>
<line x1="483.125" y1="109.6601941747573" x2="483.125" y2="169.57281553398064" stroke="#44aa44" stroke-width="1" opacity="0.8"/>
<rect x="478.4" y="109.6601941747573" width="9.45" height="9.407766990291151" fill="#44aa44" opacity="0.8" rx="0.5"/>
<rect x="478.4" y="289.85276023307864" width="9.45" height="45.14723976692136" fill="#44aa44" opacity="0.2" rx="0.5"/>
<line x1="498.875" y1="117.58252427184468" x2="498.875" y2="151.74757281553389" stroke="#44aa44" stroke-width="1" opacity="0.8"/>
<rect x="494.15" y="123.52427184466028" width="9.45" height="9.902912621359192" fill="#44aa44" opacity="0.8" rx="0.5"/>
<rect x="494.15" y="307.3630620538795" width="9.45" height="27.636937946120497" fill="#44aa44" opacity="0.2" rx="0.5"/>
<line x1="514.625" y1="102.72815533980581" x2="514.625" y2="154.7184466019418" stroke="#44aa44" stroke-width="1" opacity="0.8"/>
<rect x="509.9" y="136.39805825242715" width="9.45" height="6.9320388349514985" fill="#44aa44" opacity="0.8" rx="0.5"/>
<rect x="509.9" y="314.8607615124647" width="9.45" height="20.139238487535295" fill="#44aa44" opacity="0.2" rx="0.5"/>
<line x1="530.375" y1="123.52427184466028" x2="530.375" y2="156.69902912621356" stroke="#ff4444" stroke-width="1" opacity="0.8"/>
<rect x="525.65" y="132.43689320388356" width="9.45" height="17.330097087378533" fill="#ff4444" opacity="0.8" rx="0.5"/>
<rect x="525.65" y="319.1322387019845" width="9.45" height="15.867761298015523" fill="#ff4444" opacity="0.2" rx="0.5"/>
<line x1="546.125" y1="106.68932038834943" x2="546.125" y2="137.88349514563112" stroke="#ff4444" stroke-width="1" opacity="0.8"/>
<rect x="541.4" y="112.13592233009715" width="9.45" height="25.74757281553397" fill="#ff4444" opacity="0.8" rx="0.5"/>
<rect x="541.4" y="322.7548776959824" width="9.45" height="12.245122304017627" fill="#ff4444" opacity="0.2" rx="0.5"/>
<line x1="561.875" y1="69.05825242718447" x2="561.875" y2="125.50485436893206" stroke="#ff4444" stroke-width="1" opacity="0.8"/>
<rect x="557.15" y="69.05825242718447" width="9.45" height="47.03883495145628" fill="#ff4444" opacity="0.8" rx="0.5"/>
<rect x="557.15" y="320.01980694894337" width="9.45" height="14.98019305105663" fill="#ff4444" opacity="0.2" rx="0.5"/>
<line x1="577.625" y1="24.0" x2="577.625" y2="77.97087378640776" stroke="#ff4444" stroke-width="1" opacity="0.8"/>
<rect x="572.9" y="41.825242718446574" width="9.45" height="27.728155339805753" fill="#ff4444" opacity="0.8" rx="0.5"/>
<rect x="572.9" y="314.03602234891014" width="9.45" height="20.963977651089863" fill="#ff4444" opacity="0.2" rx="0.5"/>
<line x1="593.375" y1="30.932038834951484" x2="593.375" y2="62.126213592232986" stroke="#ff4444" stroke-width="1" opacity="0.8"/>
<rect x="588.65" y="53.70873786407773" width="9.45" height="1.4854368932037687" fill="#ff4444" opacity="0.8" rx="0.5"/>
<rect x="588.65" y="321.656588480175" width="9.45" height="13.343411519824997" fill="#ff4444" opacity="0.2" rx="0.5"/>
<line x1="609.125" y1="36.37864077669903" x2="609.125" y2="73.01941747572808" stroke="#ff4444" stroke-width="1" opacity="0.8"/>
<rect x="604.4" y="48.26213592233002" width="9.45" height="9.902912621359363" fill="#ff4444" opacity="0.8" rx="0.5"/>
<rect x="604.4" y="319.31908871223914" width="9.45" height="15.680911287760864" fill="#ff4444" opacity="0.2" rx="0.5"/>
<line x1="624.875" y1="49.74757281553396" x2="624.875" y2="94.31067961165039" stroke="#44aa44" stroke-width="1" opacity="0.8"/>
<rect x="620.15" y="52.718446601941665" width="9.45" height="41.59223300970872" fill="#44aa44" opacity="0.8" rx="0.5"/>
<rect x="620.15" y="314.5008552386051" width="9.45" height="20.499144761394916" fill="#44aa44" opacity="0.2" rx="0.5"/>
<line x1="640.625" y1="54.69902912621364" x2="640.625" y2="133.42718446601947" stroke="#ff4444" stroke-width="1" opacity="0.8"/>
<rect x="635.9" y="55.68932038834954" width="9.45" height="40.10679611650478" fill="#ff4444" opacity="0.8" rx="0.5"/>
<rect x="635.9" y="312.86525252014354" width="9.45" height="22.134747479856458" fill="#ff4444" opacity="0.2" rx="0.5"/>
<line x1="656.375" y1="62.62135922330102" x2="656.375" y2="101.24271844660187" stroke="#44aa44" stroke-width="1" opacity="0.8"/>
<rect x="651.65" y="63.116504854368884" width="9.45" height="38.126213592232986" fill="#44aa44" opacity="0.8" rx="0.5"/>
<rect x="651.65" y="316.21642075663584" width="9.45" height="18.78357924336416" fill="#44aa44" opacity="0.2" rx="0.5"/>
<line x1="672.125" y1="57.66990291262134" x2="672.125" y2="125.00970873786403" stroke="#ff4444" stroke-width="1" opacity="0.8"/>
<rect x="667.4" y="58.16504854368938" width="9.45" height="58.922330097087254" fill="#ff4444" opacity="0.8" rx="0.5"/>
<rect x="667.4" y="312.0068967271427" width="9.45" height="22.993103272857297" fill="#ff4444" opacity="0.2" rx="0.5"/>
<text x="57.875" y="347" text-anchor="middle" font-size="8" fill="#666">03-18</text>
<text x="136.625" y="347" text-anchor="middle" font-size="8" fill="#666">03-25</text>
<text x="215.375" y="347" text-anchor="middle" font-size="8" fill="#666">04-01</text>
<text x="294.125" y="347" text-anchor="middle" font-size="8" fill="#666">04-09</text>
<text x="372.875" y="347" text-anchor="middle" font-size="8" fill="#666">04-16</text>
<text x="451.625" y="347" text-anchor="middle" font-size="8" fill="#666">04-24</text>
<text x="530.375" y="347" text-anchor="middle" font-size="8" fill="#666">05-06</text>
<text x="609.125" y="347" text-anchor="middle" font-size="8" fill="#666">05-13</text>
<text x="672.125" y="347" text-anchor="middle" font-size="8" fill="#666">05-19</text>
<rect x="30" y="363" width="7" height="7" fill="#ff9800" opacity="0.8" rx="1"/>
<text x="40" y="369" font-family="sans-serif" font-size="8" fill="#888">第1类</text>
<rect x="130" y="363" width="7" height="7" fill="#2196f3" opacity="0.8" rx="1"/>
<text x="140" y="369" font-family="sans-serif" font-size="8" fill="#888">第2类</text>
<rect x="230" y="363" width="7" height="7" fill="#ffd700" opacity="0.8" rx="1"/>
<text x="240" y="369" font-family="sans-serif" font-size="8" fill="#888">EMA5</text>
<rect x="330" y="363" width="7" height="7" fill="#ff6b6b" opacity="0.8" rx="1"/>
<text x="340" y="369" font-family="sans-serif" font-size="8" fill="#888">EMA10</text>
</svg>