<svg xmlns="http://www.w3.org/2000/svg" width="700" height="380" viewBox="0 0 700 380">
<rect width="700" height="380" fill="#1a1a2e"/>
<text x="350" y="16" text-anchor="middle" font-family="sans-serif" font-size="13" font-weight="bold" fill="#fff">沪硅产业(688126) 关键点图</text>
<line x1="50" y1="251.54453911696356" x2="680" y2="251.54453911696356" stroke="#2a2a4e" stroke-width="0.5"/>
<text x="46" y="254.54453911696356" text-anchor="end" font-size="9" fill="#666">18</text>
<line x1="50" y1="212.04027885360185" x2="680" y2="212.04027885360185" stroke="#2a2a4e" stroke-width="0.5"/>
<text x="46" y="215.04027885360185" text-anchor="end" font-size="9" fill="#666">20</text>
<line x1="50" y1="172.5360185902401" x2="680" y2="172.5360185902401" stroke="#2a2a4e" stroke-width="0.5"/>
<text x="46" y="175.5360185902401" text-anchor="end" font-size="9" fill="#666">22</text>
<line x1="50" y1="133.0317583268784" x2="680" y2="133.0317583268784" stroke="#2a2a4e" stroke-width="0.5"/>
<text x="46" y="136.0317583268784" text-anchor="end" font-size="9" fill="#666">24</text>
<line x1="50" y1="93.52749806351665" x2="680" y2="93.52749806351665" stroke="#2a2a4e" stroke-width="0.5"/>
<text x="46" y="96.52749806351665" text-anchor="end" font-size="9" fill="#666">26</text>
<line x1="50" y1="54.02323780015491" x2="680" y2="54.02323780015491" stroke="#2a2a4e" stroke-width="0.5"/>
<text x="46" y="57.02323780015491" text-anchor="end" font-size="9" fill="#666">28</text>
<polyline points="57.9,238.7 73.6,241.5 89.4,249.0 105.1,252.4 120.9,253.7 136.6,256.4 152.4,257.5 168.1,260.3 183.9,264.6 199.6,265.2 215.4,267.9 231.1,271.6 246.9,272.4 262.6,266.3 278.4,264.6 294.1,262.1 309.9,260.8 325.6,259.0 341.4,258.1 357.1,256.9 372.9,254.3 388.6,234.9 404.4,228.8 420.1,223.7 435.9,215.2 451.6,208.9 467.4,202.7 483.1,202.0 498.9,204.7 514.6,203.1 530.4,190.8 546.1,181.1 561.9,171.7 577.6,157.6 593.4,141.1 609.1,128.1 624.9,123.4 640.6,126.1 656.4,124.5 672.1,91.0" fill="none" stroke="#ffd700" stroke-width="1" opacity="0.6"/>
<polyline points="57.9,238.7 73.6,240.2 89.4,244.6 105.1,247.2 120.9,248.9 136.6,251.2 152.4,252.8 168.1,255.2 183.9,258.5 199.6,259.9 215.4,262.3 231.1,265.4 246.9,266.9 262.6,264.6 278.4,264.0 294.1,262.7 309.9,261.9 325.6,260.7 341.4,259.9 357.1,258.9 372.9,257.1 388.6,246.1 404.4,240.7 420.1,235.7 435.9,228.9 451.6,223.0 467.4,217.0 483.1,214.0 498.9,213.3 514.6,210.9 530.4,202.7 546.1,195.3 561.9,187.6 577.6,177.0 593.4,164.5 609.1,153.2 624.9,146.0 640.6,143.4 656.4,139.4 672.1,118.4" fill="none" stroke="#ff6b6b" stroke-width="1" opacity="0.6"/>
<line x1="57.875" y1="234.16266460108446" x2="57.875" y2="240.6808675445391" stroke="#ff4444" stroke-width="1" opacity="0.8"/>
<rect x="53.15" y="238.70565453137107" width="9.45" height="1.185127807900784" fill="#ff4444" opacity="0.8" rx="0.5"/>
<rect x="53.15" y="330.852835543545" width="9.45" height="4.147164456455016" fill="#ff4444" opacity="0.2" rx="0.5"/>
<line x1="73.625" y1="235.15027110766852" x2="73.625" y2="248.58171959721147" stroke="#44aa44" stroke-width="1" opacity="0.8"/>
<rect x="68.9" y="236.9279628195198" width="9.45" height="10.271107668474002" fill="#44aa44" opacity="0.8" rx="0.5"/>
<rect x="68.9" y="329.2731344954808" width="9.45" height="5.726865504519196" fill="#44aa44" opacity="0.2" rx="0.5"/>
<line x1="89.375" y1="251.14949651432997" x2="89.375" y2="266.1611154144074" stroke="#44aa44" stroke-width="1" opacity="0.8"/>
<rect x="84.65" y="252.53214562354762" width="9.45" height="11.456235476374928" fill="#44aa44" opacity="0.8" rx="0.5"/>
<rect x="84.65" y="327.98899972379127" width="9.45" height="7.011000276208733" fill="#44aa44" opacity="0.2" rx="0.5"/>
<line x1="105.125" y1="255.89000774593336" x2="105.125" y2="265.9635941130906" stroke="#44aa44" stroke-width="1" opacity="0.8"/>
<rect x="100.4" y="257.07513555383423" width="9.45" height="2.1727343144848987" fill="#44aa44" opacity="0.8" rx="0.5"/>
<rect x="100.4" y="330.0533704087354" width="9.45" height="4.946629591264582" fill="#44aa44" opacity="0.2" rx="0.5"/>
<line x1="120.875" y1="252.53214562354762" x2="120.875" y2="257.8652207591015" stroke="#44aa44" stroke-width="1" opacity="0.8"/>
<line x1="116.15" y1="255.49496514329974" x2="125.6" y2="255.49496514329974" stroke="#44aa44" stroke-width="1.5"/>
<rect x="116.15" y="329.806801231914" width="9.45" height="5.193198768086006" fill="#44aa44" opacity="0.2" rx="0.5"/>
<line x1="136.625" y1="254.70487993803252" x2="136.625" y2="263.1982958946553" stroke="#44aa44" stroke-width="1" opacity="0.8"/>
<rect x="131.9" y="257.47017815646785" width="9.45" height="4.345468628969741" fill="#44aa44" opacity="0.8" rx="0.5"/>
<rect x="131.9" y="331.51469580052844" width="9.45" height="3.485304199471557" fill="#44aa44" opacity="0.2" rx="0.5"/>
<line x1="152.375" y1="256.0875290472502" x2="152.375" y2="265.17350890782336" stroke="#ff4444" stroke-width="1" opacity="0.8"/>
<rect x="147.65" y="259.64291247095275" width="9.45" height="2.765298218435305" fill="#ff4444" opacity="0.8" rx="0.5"/>
<rect x="147.65" y="331.74851600625357" width="9.45" height="3.251483993746433" fill="#ff4444" opacity="0.2" rx="0.5"/>
<line x1="168.125" y1="261.420604182804" x2="168.125" y2="269.71649883811" stroke="#44aa44" stroke-width="1" opacity="0.8"/>
<rect x="163.4" y="261.420604182804" width="9.45" height="4.542989930286581" fill="#44aa44" opacity="0.8" rx="0.5"/>
<rect x="163.4" y="330.5921130009931" width="9.45" height="4.407886999006905" fill="#44aa44" opacity="0.2" rx="0.5"/>
<line x1="183.875" y1="261.420604182804" x2="183.875" y2="273.27188226181255" stroke="#44aa44" stroke-width="1" opacity="0.8"/>
<rect x="179.15" y="267.1487219209914" width="9.45" height="6.12316034082113" fill="#44aa44" opacity="0.8" rx="0.5"/>
<rect x="179.15" y="330.50763779312376" width="9.45" height="4.492362206876237" fill="#44aa44" opacity="0.2" rx="0.5"/>
<line x1="199.625" y1="264.58094500387296" x2="199.625" y2="271.29666924864443" stroke="#ff4444" stroke-width="1" opacity="0.8"/>
<line x1="194.9" y1="266.35863671572423" x2="204.35" y2="266.35863671572423" stroke="#ff4444" stroke-width="1.5"/>
<rect x="194.9" y="330.836870631269" width="9.45" height="4.163129368731006" fill="#ff4444" opacity="0.2" rx="0.5"/>
<line x1="215.375" y1="266.1611154144074" x2="215.375" y2="274.852052672347" stroke="#44aa44" stroke-width="1" opacity="0.8"/>
<rect x="210.65" y="266.1611154144074" width="9.45" height="7.110766847405159" fill="#44aa44" opacity="0.8" rx="0.5"/>
<rect x="210.65" y="330.72636005788155" width="9.45" height="4.27363994211845" fill="#44aa44" opacity="0.2" rx="0.5"/>
<line x1="231.125" y1="269.51897753679316" x2="231.125" y2="279.0" stroke="#44aa44" stroke-width="1" opacity="0.8"/>
<rect x="226.4" y="273.27188226181255" width="9.45" height="5.72811773818745" fill="#44aa44" opacity="0.8" rx="0.5"/>
<rect x="226.4" y="332.0191381014301" width="9.45" height="2.9808618985699127" fill="#44aa44" opacity="0.2" rx="0.5"/>
<line x1="246.875" y1="269.9140201394268" x2="246.875" y2="277.61735089078235" stroke="#ff4444" stroke-width="1" opacity="0.8"/>
<rect x="242.15" y="274.06196746707974" width="9.45" height="1.9752130131680588" fill="#ff4444" opacity="0.8" rx="0.5"/>
<rect x="242.15" y="331.40492601145286" width="9.45" height="3.595073988547142" fill="#ff4444" opacity="0.2" rx="0.5"/>
<line x1="262.625" y1="253.71727343144846" x2="262.625" y2="265.7660728117738" stroke="#ff4444" stroke-width="1" opacity="0.8"/>
<rect x="257.9" y="253.9147947327653" width="9.45" height="11.851278079008523" fill="#ff4444" opacity="0.8" rx="0.5"/>
<rect x="257.9" y="328.1975812403359" width="9.45" height="6.802418759664079" fill="#ff4444" opacity="0.2" rx="0.5"/>
<line x1="278.375" y1="253.9147947327653" x2="278.375" y2="262.0131680867545" stroke="#44aa44" stroke-width="1" opacity="0.8"/>
<rect x="273.65" y="259.4453911696359" width="9.45" height="1.7776917118512756" fill="#44aa44" opacity="0.8" rx="0.5"/>
<rect x="273.65" y="329.87861732586697" width="9.45" height="5.121382674133031" fill="#44aa44" opacity="0.2" rx="0.5"/>
<line x1="294.125" y1="252.13710302091403" x2="294.125" y2="257.47017815646785" stroke="#44aa44" stroke-width="1" opacity="0.8"/>
<rect x="289.4" y="255.69248644461658" width="9.45" height="1.3826491092176525" fill="#44aa44" opacity="0.8" rx="0.5"/>
<rect x="289.4" y="330.0572607087039" width="9.45" height="4.942739291296107" fill="#44aa44" opacity="0.2" rx="0.5"/>
<line x1="309.875" y1="254.3098373353989" x2="309.875" y2="261.0255615801704" stroke="#ff4444" stroke-width="1" opacity="0.8"/>
<rect x="305.15" y="258.26026336173504" width="9.45" height="1.1851278079008694" fill="#ff4444" opacity="0.8" rx="0.5"/>
<rect x="305.15" y="330.4809818111494" width="9.45" height="4.519018188850623" fill="#ff4444" opacity="0.2" rx="0.5"/>
<line x1="325.625" y1="252.53214562354762" x2="325.625" y2="258.8528272656855" stroke="#44aa44" stroke-width="1" opacity="0.8"/>
<line x1="320.9" y1="254.50735863671568" x2="330.35" y2="254.50735863671568" stroke="#44aa44" stroke-width="1.5"/>
<rect x="320.9" y="329.35638394822934" width="9.45" height="5.643616051770664" fill="#44aa44" opacity="0.2" rx="0.5"/>
<line x1="341.375" y1="244.63129357087524" x2="341.375" y2="257.07513555383423" stroke="#44aa44" stroke-width="1" opacity="0.8"/>
<rect x="336.65" y="253.9147947327653" width="9.45" height="2.370255615801682" fill="#44aa44" opacity="0.8" rx="0.5"/>
<rect x="336.65" y="326.8147207289094" width="9.45" height="8.185279271090621" fill="#44aa44" opacity="0.2" rx="0.5"/>
<line x1="357.125" y1="252.53214562354762" x2="357.125" y2="257.07513555383423" stroke="#44aa44" stroke-width="1" opacity="0.8"/>
<line x1="352.4" y1="254.11231603408208" x2="361.85" y2="254.11231603408208" stroke="#44aa44" stroke-width="1.5"/>
<rect x="352.4" y="329.9196048831466" width="9.45" height="5.080395116853424" fill="#44aa44" opacity="0.2" rx="0.5"/>
<line x1="372.875" y1="243.84120836560803" x2="372.875" y2="258.26026336173504" stroke="#ff4444" stroke-width="1" opacity="0.8"/>
<rect x="368.15" y="248.97676219984507" width="9.45" height="6.913245546088291" fill="#ff4444" opacity="0.8" rx="0.5"/>
<rect x="368.15" y="327.5067813821835" width="9.45" height="7.493218617816524" fill="#ff4444" opacity="0.2" rx="0.5"/>
<line x1="388.625" y1="186.95507358636715" x2="388.625" y2="241.66847405112313" stroke="#ff4444" stroke-width="1" opacity="0.8"/>
<rect x="383.9" y="196.23857474825715" width="9.45" height="45.42989930286598" fill="#ff4444" opacity="0.8" rx="0.5"/>
<rect x="383.9" y="310.2799312076646" width="9.45" height="24.720068792335383" fill="#ff4444" opacity="0.2" rx="0.5"/>
<line x1="404.375" y1="200.78156467854376" x2="404.375" y2="218.75600309837336" stroke="#44aa44" stroke-width="1" opacity="0.8"/>
<rect x="399.65" y="202.1642137877614" width="9.45" height="14.419054996127045" fill="#44aa44" opacity="0.8" rx="0.5"/>
<rect x="399.65" y="321.17649008879874" width="9.45" height="13.823509911201256" fill="#44aa44" opacity="0.2" rx="0.5"/>
<line x1="420.125" y1="210.4601084430674" x2="420.125" y2="218.75600309837336" stroke="#ff4444" stroke-width="1" opacity="0.8"/>
<rect x="415.4" y="213.42292796281953" width="9.45" height="3.160340821068928" fill="#ff4444" opacity="0.8" rx="0.5"/>
<rect x="415.4" y="323.45754039992516" width="9.45" height="11.542459600074835" fill="#ff4444" opacity="0.2" rx="0.5"/>
<line x1="435.875" y1="183.20216886134776" x2="435.875" y2="213.2254066615027" stroke="#ff4444" stroke-width="1" opacity="0.8"/>
<rect x="431.15" y="198.21378776142527" width="9.45" height="8.295894655305915" fill="#ff4444" opacity="0.8" rx="0.5"/>
<rect x="431.15" y="316.0770654568981" width="9.45" height="18.922934543101917" fill="#ff4444" opacity="0.2" rx="0.5"/>
<line x1="451.625" y1="186.56003098373355" x2="451.625" y2="203.9419054996127" stroke="#ff4444" stroke-width="1" opacity="0.8"/>
<rect x="446.9" y="196.23857474825715" width="9.45" height="6.913245546088319" fill="#ff4444" opacity="0.8" rx="0.5"/>
<rect x="446.9" y="320.73586917246024" width="9.45" height="14.26413082753976" fill="#ff4444" opacity="0.2" rx="0.5"/>
<line x1="467.375" y1="174.708752904725" x2="467.375" y2="195.84353214562353" stroke="#44aa44" stroke-width="1" opacity="0.8"/>
<rect x="462.65" y="186.36250968241671" width="9.45" height="3.950426026336146" fill="#44aa44" opacity="0.8" rx="0.5"/>
<rect x="462.65" y="318.66095101733026" width="9.45" height="16.339048982669738" fill="#44aa44" opacity="0.2" rx="0.5"/>
<line x1="483.125" y1="189.91789310611927" x2="483.125" y2="202.95429899302863" stroke="#44aa44" stroke-width="1" opacity="0.8"/>
<rect x="478.4" y="192.28814872192098" width="9.45" height="8.295894655306" fill="#44aa44" opacity="0.8" rx="0.5"/>
<rect x="478.4" y="323.6962444938629" width="9.45" height="11.303755506137122" fill="#44aa44" opacity="0.2" rx="0.5"/>
<line x1="498.875" y1="201.76917118512782" x2="498.875" y2="215.00309837335394" stroke="#44aa44" stroke-width="1" opacity="0.8"/>
<rect x="494.15" y="203.74438419829588" width="9.45" height="6.320681642137885" fill="#44aa44" opacity="0.8" rx="0.5"/>
<rect x="494.15" y="323.167026547718" width="9.45" height="11.832973452281976" fill="#44aa44" opacity="0.2" rx="0.5"/>
<line x1="514.625" y1="196.23857474825715" x2="514.625" y2="221.71882261812544" stroke="#ff4444" stroke-width="1" opacity="0.8"/>
<rect x="509.9" y="199.99147947327654" width="9.45" height="21.727343144848902" fill="#ff4444" opacity="0.8" rx="0.5"/>
<rect x="509.9" y="319.1101259932557" width="9.45" height="15.889874006744321" fill="#ff4444" opacity="0.2" rx="0.5"/>
<line x1="530.375" y1="147.84585592563903" x2="530.375" y2="190.70797831138654" stroke="#ff4444" stroke-width="1" opacity="0.8"/>
<rect x="525.65" y="166.01781564678544" width="9.45" height="18.17195972114638" fill="#ff4444" opacity="0.8" rx="0.5"/>
<rect x="525.65" y="305.77728723269473" width="9.45" height="29.222712767305268" fill="#ff4444" opacity="0.2" rx="0.5"/>
<line x1="546.125" y1="155.54918667699457" x2="546.125" y2="178.65917893106115" stroke="#ff4444" stroke-width="1" opacity="0.8"/>
<rect x="541.4" y="161.86986831913245" width="9.45" height="11.653756777691711" fill="#ff4444" opacity="0.8" rx="0.5"/>
<rect x="541.4" y="316.70070674660553" width="9.45" height="18.299293253394467" fill="#ff4444" opacity="0.2" rx="0.5"/>
<line x1="561.875" y1="141.92021688613477" x2="561.875" y2="174.51123160340822" stroke="#ff4444" stroke-width="1" opacity="0.8"/>
<rect x="557.15" y="152.9814097598761" width="9.45" height="13.628969790859742" fill="#ff4444" opacity="0.8" rx="0.5"/>
<rect x="557.15" y="310.87479111363007" width="9.45" height="24.125208886369933" fill="#ff4444" opacity="0.2" rx="0.5"/>
<line x1="577.625" y1="111.30441518202939" x2="577.625" y2="152.38884585592564" stroke="#ff4444" stroke-width="1" opacity="0.8"/>
<rect x="572.9" y="129.278853601859" width="9.45" height="4.345468628969854" fill="#ff4444" opacity="0.8" rx="0.5"/>
<rect x="572.9" y="300.51346437559164" width="9.45" height="34.48653562440836" fill="#ff4444" opacity="0.2" rx="0.5"/>
<line x1="593.375" y1="76.14562354763751" x2="593.375" y2="138.16731216111543" stroke="#ff4444" stroke-width="1" opacity="0.8"/>
<rect x="588.65" y="108.14407436096045" width="9.45" height="18.962044926413654" fill="#ff4444" opacity="0.8" rx="0.5"/>
<rect x="588.65" y="295.9821490811768" width="9.45" height="39.01785091882323" fill="#ff4444" opacity="0.2" rx="0.5"/>
<line x1="609.125" y1="93.52749806351665" x2="609.125" y2="126.3160340821069" stroke="#ff4444" stroke-width="1" opacity="0.8"/>
<rect x="604.4" y="102.21843532145624" width="9.45" height="16.591789310611944" fill="#ff4444" opacity="0.8" rx="0.5"/>
<rect x="604.4" y="304.8667925885346" width="9.45" height="30.133207411465378" fill="#ff4444" opacity="0.2" rx="0.5"/>
<line x1="624.875" y1="88.58946553059643" x2="624.875" y2="114.06971340046474" stroke="#44aa44" stroke-width="1" opacity="0.8"/>
<rect x="620.15" y="91.74980635166537" width="9.45" height="22.122385747482596" fill="#44aa44" opacity="0.8" rx="0.5"/>
<rect x="620.15" y="306.85981237315633" width="9.45" height="28.14018762684367" fill="#44aa44" opacity="0.2" rx="0.5"/>
<line x1="640.625" y1="86.02168861347793" x2="640.625" y2="136.78466305189778" stroke="#44aa44" stroke-width="1" opacity="0.8"/>
<rect x="635.9" y="102.21843532145624" width="9.45" height="29.430673896204468" fill="#44aa44" opacity="0.8" rx="0.5"/>
<rect x="635.9" y="302.2085377434148" width="9.45" height="32.79146225658519" fill="#44aa44" opacity="0.2" rx="0.5"/>
<line x1="656.375" y1="99.45313710302092" x2="656.375" y2="138.36483346243222" stroke="#ff4444" stroke-width="1" opacity="0.8"/>
<rect x="651.65" y="121.18048024786982" width="9.45" height="10.468628969790885" fill="#ff4444" opacity="0.8" rx="0.5"/>
<rect x="651.65" y="306.93239139326215" width="9.45" height="28.06760860673785" fill="#ff4444" opacity="0.2" rx="0.5"/>
<line x1="672.125" y1="24.0" x2="672.125" y2="133.82184353214558" stroke="#ff4444" stroke-width="1" opacity="0.8"/>
<rect x="667.4" y="24.0" width="9.45" height="100.93338497288921" fill="#ff4444" opacity="0.8" rx="0.5"/>
<rect x="667.4" y="279.0" width="9.45" height="56.0" fill="#ff4444" opacity="0.2" rx="0.5"/>
<text x="57.875" y="347" text-anchor="middle" font-size="8" fill="#666">03-19</text>
<text x="136.625" y="347" text-anchor="middle" font-size="8" fill="#666">03-26</text>
<text x="215.375" y="347" text-anchor="middle" font-size="8" fill="#666">04-02</text>
<text x="294.125" y="347" text-anchor="middle" font-size="8" fill="#666">04-10</text>
<text x="372.875" y="347" text-anchor="middle" font-size="8" fill="#666">04-17</text>
<text x="451.625" y="347" text-anchor="middle" font-size="8" fill="#666">04-24</text>
<text x="530.375" y="347" text-anchor="middle" font-size="8" fill="#666">05-06</text>
<text x="609.125" y="347" text-anchor="middle" font-size="8" fill="#666">05-13</text>
<text x="672.125" y="347" text-anchor="middle" font-size="8" fill="#666">05-19</text>
<rect x="30" y="363" width="7" height="7" fill="#ff9800" opacity="0.8" rx="1"/>
<text x="40" y="369" font-family="sans-serif" font-size="8" fill="#888">第1类</text>
<rect x="130" y="363" width="7" height="7" fill="#2196f3" opacity="0.8" rx="1"/>
<text x="140" y="369" font-family="sans-serif" font-size="8" fill="#888">第2类</text>
<rect x="230" y="363" width="7" height="7" fill="#ffd700" opacity="0.8" rx="1"/>
<text x="240" y="369" font-family="sans-serif" font-size="8" fill="#888">EMA5</text>
<rect x="330" y="363" width="7" height="7" fill="#ff6b6b" opacity="0.8" rx="1"/>
<text x="340" y="369" font-family="sans-serif" font-size="8" fill="#888">EMA10</text>
</svg>