<svg xmlns="http://www.w3.org/2000/svg" width="700" height="380" viewBox="0 0 700 380">
<rect width="700" height="380" fill="#1a1a2e"/>
<text x="350" y="16" text-anchor="middle" font-family="sans-serif" font-size="13" font-weight="bold" fill="#fff">国瓷材料(300285) 关键点图</text>
<line x1="50" y1="272.780487804878" x2="680" y2="272.780487804878" stroke="#2a2a4e" stroke-width="0.5"/>
<text x="46" y="275.780487804878" text-anchor="end" font-size="9" fill="#666">30</text>
<line x1="50" y1="237.24041811846686" x2="680" y2="237.24041811846686" stroke="#2a2a4e" stroke-width="0.5"/>
<text x="46" y="240.24041811846686" text-anchor="end" font-size="9" fill="#666">32</text>
<line x1="50" y1="201.70034843205573" x2="680" y2="201.70034843205573" stroke="#2a2a4e" stroke-width="0.5"/>
<text x="46" y="204.70034843205573" text-anchor="end" font-size="9" fill="#666">34</text>
<line x1="50" y1="166.1602787456446" x2="680" y2="166.1602787456446" stroke="#2a2a4e" stroke-width="0.5"/>
<text x="46" y="169.1602787456446" text-anchor="end" font-size="9" fill="#666">36</text>
<line x1="50" y1="130.62020905923345" x2="680" y2="130.62020905923345" stroke="#2a2a4e" stroke-width="0.5"/>
<text x="46" y="133.62020905923345" text-anchor="end" font-size="9" fill="#666">38</text>
<line x1="50" y1="95.0801393728223" x2="680" y2="95.0801393728223" stroke="#2a2a4e" stroke-width="0.5"/>
<text x="46" y="98.0801393728223" text-anchor="end" font-size="9" fill="#666">40</text>
<line x1="50" y1="59.54006968641115" x2="680" y2="59.54006968641115" stroke="#2a2a4e" stroke-width="0.5"/>
<text x="46" y="62.54006968641115" text-anchor="end" font-size="9" fill="#666">42</text>
<line x1="50" y1="24.0" x2="680" y2="24.0" stroke="#2a2a4e" stroke-width="0.5"/>
<text x="46" y="27.0" text-anchor="end" font-size="9" fill="#666">44</text>
<polyline points="57.9,194.4 73.6,204.3 89.4,222.4 105.1,231.5 120.9,234.9 136.6,244.5 152.4,249.7 168.1,253.6 183.9,255.9 199.6,253.3 215.4,259.0 231.1,260.0 246.9,256.8 262.6,249.0 278.4,245.8 294.1,237.8 309.9,224.4 325.6,216.4 341.4,215.6 357.1,201.0 372.9,185.9 388.6,181.5 404.4,177.1 420.1,169.5 435.9,168.4 451.6,170.6 467.4,174.8 483.1,165.7 498.9,160.1 514.6,163.4 530.4,155.9 546.1,143.4 561.9,137.4 577.6,131.0 593.4,113.0 609.1,91.6 624.9,86.1 640.6,93.3 656.4,100.4 672.1,75.6" fill="none" stroke="#ffd700" stroke-width="1" opacity="0.6"/>
<polyline points="57.9,194.4 73.6,199.8 89.4,210.5 105.1,217.6 120.9,222.0 136.6,229.6 152.4,235.1 168.1,239.9 183.9,243.6 199.6,244.5 215.4,249.2 231.1,251.5 246.9,251.3 262.6,248.0 278.4,246.5 294.1,242.0 309.9,233.9 325.6,227.8 341.4,225.3 357.1,215.6 372.9,204.7 388.6,198.9 404.4,193.3 420.1,186.2 435.9,182.6 451.6,181.2 467.4,181.6 483.1,175.4 498.9,170.5 514.6,170.5 530.4,165.1 546.1,156.6 561.9,150.9 577.6,145.0 593.4,132.6 609.1,117.4 624.9,109.7 640.6,109.3 656.4,110.3 672.1,95.0" fill="none" stroke="#ff6b6b" stroke-width="1" opacity="0.6"/>
<line x1="57.875" y1="175.93379790940762" x2="57.875" y2="200.8118466898955" stroke="#44aa44" stroke-width="1" opacity="0.8"/>
<rect x="53.15" y="176.28919860627175" width="9.45" height="18.12543554006976" fill="#44aa44" opacity="0.8" rx="0.5"/>
<rect x="53.15" y="314.8684998940354" width="9.45" height="20.13150010596462" fill="#44aa44" opacity="0.2" rx="0.5"/>
<line x1="73.625" y1="184.10801393728215" x2="73.625" y2="225.51219512195127" stroke="#44aa44" stroke-width="1" opacity="0.8"/>
<rect x="68.9" y="187.3066202090592" width="9.45" height="36.783972125435525" fill="#44aa44" opacity="0.8" rx="0.5"/>
<rect x="68.9" y="315.04794196112493" width="9.45" height="19.952058038875066" fill="#44aa44" opacity="0.2" rx="0.5"/>
<line x1="89.375" y1="228.8885017421603" x2="89.375" y2="263.8954703832752" stroke="#44aa44" stroke-width="1" opacity="0.8"/>
<rect x="84.65" y="237.06271777003488" width="9.45" height="21.501742160278667" fill="#44aa44" opacity="0.8" rx="0.5"/>
<rect x="84.65" y="308.6494344943102" width="9.45" height="26.350565505689815" fill="#44aa44" opacity="0.2" rx="0.5"/>
<line x1="105.125" y1="247.36933797909407" x2="105.125" y2="279.0" stroke="#ff4444" stroke-width="1" opacity="0.8"/>
<rect x="100.4" y="249.67944250871076" width="9.45" height="1.066202090592384" fill="#ff4444" opacity="0.8" rx="0.5"/>
<rect x="100.4" y="305.631480040265" width="9.45" height="29.36851995973501" fill="#ff4444" opacity="0.2" rx="0.5"/>
<line x1="120.875" y1="214.49477351916374" x2="120.875" y2="246.12543554006967" stroke="#ff4444" stroke-width="1" opacity="0.8"/>
<line x1="116.15" y1="241.68292682926827" x2="125.6" y2="241.68292682926827" stroke="#ff4444" stroke-width="1.5"/>
<rect x="116.15" y="316.00298334421683" width="9.45" height="18.99701665578317" fill="#ff4444" opacity="0.2" rx="0.5"/>
<line x1="136.625" y1="234.7526132404181" x2="136.625" y2="266.56097560975604" stroke="#44aa44" stroke-width="1" opacity="0.8"/>
<rect x="131.9" y="242.57142857142856" width="9.45" height="21.146341463414615" fill="#44aa44" opacity="0.8" rx="0.5"/>
<rect x="131.9" y="316.64070824770187" width="9.45" height="18.359291752298134" fill="#44aa44" opacity="0.2" rx="0.5"/>
<line x1="152.375" y1="246.12543554006967" x2="152.375" y2="272.780487804878" stroke="#ff4444" stroke-width="1" opacity="0.8"/>
<rect x="147.65" y="260.163763066202" width="9.45" height="7.108013937282294" fill="#ff4444" opacity="0.8" rx="0.5"/>
<rect x="147.65" y="319.9545974223117" width="9.45" height="15.045402577688321" fill="#ff4444" opacity="0.2" rx="0.5"/>
<line x1="168.125" y1="258.56445993031355" x2="168.125" y2="276.1567944250871" stroke="#ff4444" stroke-width="1" opacity="0.8"/>
<rect x="163.4" y="261.4076655052264" width="9.45" height="11.195121951219505" fill="#ff4444" opacity="0.8" rx="0.5"/>
<rect x="163.4" y="322.2076755867443" width="9.45" height="12.792324413255699" fill="#ff4444" opacity="0.2" rx="0.5"/>
<line x1="183.875" y1="234.7526132404181" x2="183.875" y2="262.11846689895464" stroke="#44aa44" stroke-width="1" opacity="0.8"/>
<rect x="179.15" y="245.59233449477347" width="9.45" height="14.749128919860652" fill="#44aa44" opacity="0.8" rx="0.5"/>
<rect x="179.15" y="313.66063858606384" width="9.45" height="21.33936141393616" fill="#44aa44" opacity="0.2" rx="0.5"/>
<line x1="199.625" y1="239.37282229965157" x2="199.625" y2="258.74216027874564" stroke="#44aa44" stroke-width="1" opacity="0.8"/>
<rect x="194.9" y="243.81533101045295" width="9.45" height="4.442508710801405" fill="#44aa44" opacity="0.8" rx="0.5"/>
<rect x="194.9" y="320.87788295961815" width="9.45" height="14.122117040381852" fill="#44aa44" opacity="0.2" rx="0.5"/>
<line x1="215.375" y1="248.0801393728223" x2="215.375" y2="274.20209059233446" stroke="#44aa44" stroke-width="1" opacity="0.8"/>
<rect x="210.65" y="248.79094076655048" width="9.45" height="21.501742160278752" fill="#44aa44" opacity="0.8" rx="0.5"/>
<rect x="210.65" y="320.9344737226225" width="9.45" height="14.0655262773775" fill="#44aa44" opacity="0.2" rx="0.5"/>
<line x1="231.125" y1="252.70034843205576" x2="231.125" y2="271.8919860627177" stroke="#ff4444" stroke-width="1" opacity="0.8"/>
<rect x="226.4" y="262.11846689895464" width="9.45" height="3.554006968641204" fill="#ff4444" opacity="0.8" rx="0.5"/>
<rect x="226.4" y="321.86774875322595" width="9.45" height="13.132251246774047" fill="#ff4444" opacity="0.2" rx="0.5"/>
<line x1="246.875" y1="230.3101045296167" x2="246.875" y2="261.94076655052265" stroke="#ff4444" stroke-width="1" opacity="0.8"/>
<rect x="242.15" y="250.39024390243898" width="9.45" height="6.752613240418128" fill="#ff4444" opacity="0.8" rx="0.5"/>
<rect x="242.15" y="318.4338184953356" width="9.45" height="16.566181504664428" fill="#ff4444" opacity="0.2" rx="0.5"/>
<line x1="262.625" y1="225.68989547038328" x2="262.625" y2="247.90243902439025" stroke="#ff4444" stroke-width="1" opacity="0.8"/>
<rect x="257.9" y="233.33101045296166" width="9.45" height="5.686411149825801" fill="#ff4444" opacity="0.8" rx="0.5"/>
<rect x="257.9" y="307.1209245376787" width="9.45" height="27.879075462321282" fill="#ff4444" opacity="0.2" rx="0.5"/>
<line x1="278.375" y1="232.9756097560975" x2="278.375" y2="252.34494773519162" stroke="#ff4444" stroke-width="1" opacity="0.8"/>
<rect x="273.65" y="239.37282229965157" width="9.45" height="12.97212543554005" fill="#ff4444" opacity="0.8" rx="0.5"/>
<rect x="273.65" y="319.14628779077066" width="9.45" height="15.853712209229343" fill="#ff4444" opacity="0.2" rx="0.5"/>
<line x1="294.125" y1="200.2787456445993" x2="294.125" y2="236.70731707317069" stroke="#ff4444" stroke-width="1" opacity="0.8"/>
<rect x="289.4" y="221.9581881533101" width="9.45" height="11.728222996515626" fill="#ff4444" opacity="0.8" rx="0.5"/>
<rect x="289.4" y="311.78752764121884" width="9.45" height="23.212472358781156" fill="#ff4444" opacity="0.2" rx="0.5"/>
<line x1="309.875" y1="184.6411149825784" x2="309.875" y2="228.3554006968641" stroke="#ff4444" stroke-width="1" opacity="0.8"/>
<rect x="305.15" y="197.6132404181185" width="9.45" height="30.742160278745615" fill="#ff4444" opacity="0.8" rx="0.5"/>
<rect x="305.15" y="308.21980679210105" width="9.45" height="26.780193207898947" fill="#ff4444" opacity="0.2" rx="0.5"/>
<line x1="325.625" y1="175.04529616724736" x2="325.625" y2="207.3867595818815" stroke="#44aa44" stroke-width="1" opacity="0.8"/>
<rect x="320.9" y="187.12891986062715" width="9.45" height="13.149825783972148" fill="#44aa44" opacity="0.8" rx="0.5"/>
<rect x="320.9" y="308.1557456813213" width="9.45" height="26.84425431867868" fill="#44aa44" opacity="0.2" rx="0.5"/>
<line x1="341.375" y1="172.20209059233454" x2="341.375" y2="217.16027874564452" stroke="#44aa44" stroke-width="1" opacity="0.8"/>
<rect x="336.65" y="174.15679442508716" width="9.45" height="39.98257839721251" fill="#44aa44" opacity="0.8" rx="0.5"/>
<rect x="336.65" y="311.4919541345596" width="9.45" height="23.50804586544041" fill="#44aa44" opacity="0.2" rx="0.5"/>
<line x1="357.125" y1="168.47038327526136" x2="357.125" y2="216.27177700348432" stroke="#ff4444" stroke-width="1" opacity="0.8"/>
<rect x="352.4" y="171.84668989547038" width="9.45" height="35.895470383275324" fill="#ff4444" opacity="0.8" rx="0.5"/>
<rect x="352.4" y="302.91314258446107" width="9.45" height="32.08685741553893" fill="#ff4444" opacity="0.2" rx="0.5"/>
<line x1="372.875" y1="148.390243902439" x2="372.875" y2="180.55400696864115" stroke="#ff4444" stroke-width="1" opacity="0.8"/>
<rect x="368.15" y="155.49825783972122" width="9.45" height="25.055749128919928" fill="#ff4444" opacity="0.8" rx="0.5"/>
<rect x="368.15" y="310.391959013995" width="9.45" height="24.608040986004994" fill="#ff4444" opacity="0.2" rx="0.5"/>
<line x1="388.625" y1="152.83275261324042" x2="388.625" y2="175.93379790940762" stroke="#44aa44" stroke-width="1" opacity="0.8"/>
<rect x="383.9" y="159.40766550522642" width="9.45" height="13.327526132404188" fill="#44aa44" opacity="0.8" rx="0.5"/>
<rect x="383.9" y="308.42409429720294" width="9.45" height="26.57590570279706" fill="#44aa44" opacity="0.2" rx="0.5"/>
<line x1="404.375" y1="153.89895470383277" x2="404.375" y2="187.3066202090592" stroke="#ff4444" stroke-width="1" opacity="0.8"/>
<rect x="399.65" y="168.2926829268292" width="9.45" height="6.397212543554019" fill="#ff4444" opacity="0.8" rx="0.5"/>
<rect x="399.65" y="313.2754501305262" width="9.45" height="21.724549869473776" fill="#ff4444" opacity="0.2" rx="0.5"/>
<line x1="420.125" y1="146.61324041811844" x2="420.125" y2="165.0940766550522" stroke="#ff4444" stroke-width="1" opacity="0.8"/>
<rect x="415.4" y="154.43205574912898" width="9.45" height="9.773519163763012" fill="#ff4444" opacity="0.8" rx="0.5"/>
<rect x="415.4" y="308.32652562854304" width="9.45" height="26.67347437145696" fill="#ff4444" opacity="0.2" rx="0.5"/>
<line x1="435.875" y1="139.50522648083623" x2="435.875" y2="169.71428571428575" stroke="#44aa44" stroke-width="1" opacity="0.8"/>
<rect x="431.15" y="153.72125435540062" width="9.45" height="12.439024390243986" fill="#44aa44" opacity="0.8" rx="0.5"/>
<rect x="431.15" y="311.2233939338337" width="9.45" height="23.776606066166323" fill="#44aa44" opacity="0.2" rx="0.5"/>
<line x1="451.625" y1="156.3867595818816" x2="451.625" y2="182.50871080139373" stroke="#44aa44" stroke-width="1" opacity="0.8"/>
<rect x="446.9" y="167.0487804878048" width="9.45" height="7.818815331010541" fill="#44aa44" opacity="0.8" rx="0.5"/>
<rect x="446.9" y="315.2820237685388" width="9.45" height="19.717976231461193" fill="#44aa44" opacity="0.2" rx="0.5"/>
<line x1="467.375" y1="153.3658536585366" x2="467.375" y2="186.06271777003477" stroke="#44aa44" stroke-width="1" opacity="0.8"/>
<rect x="462.65" y="170.95818815331015" width="9.45" height="12.439024390243844" fill="#44aa44" opacity="0.8" rx="0.5"/>
<rect x="462.65" y="310.4966677944164" width="9.45" height="24.503332205583604" fill="#44aa44" opacity="0.2" rx="0.5"/>
<line x1="483.125" y1="134.8850174216028" x2="483.125" y2="206.85365853658533" stroke="#ff4444" stroke-width="1" opacity="0.8"/>
<rect x="478.4" y="147.50174216027878" width="9.45" height="43.35888501742156" fill="#ff4444" opacity="0.8" rx="0.5"/>
<rect x="478.4" y="289.5813387740865" width="9.45" height="45.418661225913525" fill="#ff4444" opacity="0.2" rx="0.5"/>
<line x1="498.875" y1="142.34843205574907" x2="498.875" y2="159.2299651567944" stroke="#ff4444" stroke-width="1" opacity="0.8"/>
<rect x="494.15" y="148.7456445993032" width="9.45" height="4.264808362369223" fill="#ff4444" opacity="0.8" rx="0.5"/>
<rect x="494.15" y="310.19766567809825" width="9.45" height="24.802334321901753" fill="#ff4444" opacity="0.2" rx="0.5"/>
<line x1="514.625" y1="145.01393728223" x2="514.625" y2="181.08710801393732" stroke="#44aa44" stroke-width="1" opacity="0.8"/>
<rect x="509.9" y="148.7456445993032" width="9.45" height="21.324041811846598" fill="#44aa44" opacity="0.8" rx="0.5"/>
<rect x="509.9" y="306.5115818122411" width="9.45" height="28.488418187758896" fill="#44aa44" opacity="0.2" rx="0.5"/>
<line x1="530.375" y1="133.10801393728224" x2="530.375" y2="161.36236933797903" stroke="#ff4444" stroke-width="1" opacity="0.8"/>
<rect x="525.65" y="140.74912891986062" width="9.45" height="16.348432055749157" fill="#ff4444" opacity="0.8" rx="0.5"/>
<rect x="525.65" y="302.03663307892947" width="9.45" height="32.96336692107053" fill="#ff4444" opacity="0.2" rx="0.5"/>
<line x1="546.125" y1="108.76306620209064" x2="546.125" y2="139.50522648083623" stroke="#ff4444" stroke-width="1" opacity="0.8"/>
<rect x="541.4" y="118.53658536585365" width="9.45" height="19.369337979094013" fill="#ff4444" opacity="0.8" rx="0.5"/>
<rect x="541.4" y="305.4775415452614" width="9.45" height="29.522458454738626" fill="#ff4444" opacity="0.2" rx="0.5"/>
<line x1="561.875" y1="112.85017421602787" x2="561.875" y2="137.19512195121945" stroke="#ff4444" stroke-width="1" opacity="0.8"/>
<rect x="557.15" y="125.46689895470384" width="9.45" height="4.975609756097569" fill="#ff4444" opacity="0.8" rx="0.5"/>
<rect x="557.15" y="311.5384671465004" width="9.45" height="23.46153285349959" fill="#ff4444" opacity="0.2" rx="0.5"/>
<line x1="577.625" y1="83.17421602787454" x2="577.625" y2="118.71428571428568" stroke="#44aa44" stroke-width="1" opacity="0.8"/>
<rect x="572.9" y="112.4947735191637" width="9.45" height="5.508710801393761" fill="#44aa44" opacity="0.8" rx="0.5"/>
<rect x="572.9" y="293.38176086873364" width="9.45" height="41.618239131266364" fill="#44aa44" opacity="0.2" rx="0.5"/>
<line x1="593.375" y1="73.40069686411151" x2="593.375" y2="127.06620209059228" stroke="#ff4444" stroke-width="1" opacity="0.8"/>
<rect x="588.65" y="77.13240418118471" width="9.45" height="27.18815331010454" fill="#ff4444" opacity="0.8" rx="0.5"/>
<rect x="588.65" y="291.36137810494523" width="9.45" height="43.63862189505477" fill="#ff4444" opacity="0.2" rx="0.5"/>
<line x1="609.125" y1="43.54703832752615" x2="609.125" y2="95.0801393728223" stroke="#ff4444" stroke-width="1" opacity="0.8"/>
<rect x="604.4" y="48.878048780487774" width="9.45" height="29.853658536585357" fill="#ff4444" opacity="0.8" rx="0.5"/>
<rect x="604.4" y="288.624114326372" width="9.45" height="46.37588567362798" fill="#ff4444" opacity="0.2" rx="0.5"/>
<line x1="624.875" y1="41.77003484320558" x2="624.875" y2="80.50871080139372" stroke="#44aa44" stroke-width="1" opacity="0.8"/>
<rect x="620.15" y="41.77003484320558" width="9.45" height="33.40766550522652" fill="#44aa44" opacity="0.8" rx="0.5"/>
<rect x="620.15" y="296.3228170906322" width="9.45" height="38.67718290936779" fill="#44aa44" opacity="0.2" rx="0.5"/>
<line x1="640.625" y1="61.67247386759577" x2="640.625" y2="114.27177700348427" stroke="#44aa44" stroke-width="1" opacity="0.8"/>
<rect x="635.9" y="74.99999999999994" width="9.45" height="32.51916376306629" fill="#44aa44" opacity="0.8" rx="0.5"/>
<rect x="635.9" y="294.6284100038759" width="9.45" height="40.3715899961241" fill="#44aa44" opacity="0.2" rx="0.5"/>
<line x1="656.375" y1="91.88153310104529" x2="656.375" y2="124.93379790940764" stroke="#44aa44" stroke-width="1" opacity="0.8"/>
<rect x="651.65" y="112.85017421602787" width="9.45" height="1.7770034843205877" fill="#44aa44" opacity="0.8" rx="0.5"/>
<rect x="651.65" y="309.8050869497125" width="9.45" height="25.194913050287482" fill="#44aa44" opacity="0.2" rx="0.5"/>
<line x1="672.125" y1="24.0" x2="672.125" y2="117.82578397212545" stroke="#ff4444" stroke-width="1" opacity="0.8"/>
<rect x="667.4" y="25.954703832752603" width="9.45" height="89.91637630662025" fill="#ff4444" opacity="0.8" rx="0.5"/>
<rect x="667.4" y="279.0" width="9.45" height="56.0" fill="#ff4444" opacity="0.2" rx="0.5"/>
<text x="57.875" y="347" text-anchor="middle" font-size="8" fill="#666">03-19</text>
<text x="136.625" y="347" text-anchor="middle" font-size="8" fill="#666">03-26</text>
<text x="215.375" y="347" text-anchor="middle" font-size="8" fill="#666">04-02</text>
<text x="294.125" y="347" text-anchor="middle" font-size="8" fill="#666">04-10</text>
<text x="372.875" y="347" text-anchor="middle" font-size="8" fill="#666">04-17</text>
<text x="451.625" y="347" text-anchor="middle" font-size="8" fill="#666">04-24</text>
<text x="530.375" y="347" text-anchor="middle" font-size="8" fill="#666">05-06</text>
<text x="609.125" y="347" text-anchor="middle" font-size="8" fill="#666">05-13</text>
<text x="672.125" y="347" text-anchor="middle" font-size="8" fill="#666">05-19</text>
<rect x="30" y="363" width="7" height="7" fill="#ff9800" opacity="0.8" rx="1"/>
<text x="40" y="369" font-family="sans-serif" font-size="8" fill="#888">第1类</text>
<rect x="130" y="363" width="7" height="7" fill="#2196f3" opacity="0.8" rx="1"/>
<text x="140" y="369" font-family="sans-serif" font-size="8" fill="#888">第2类</text>
<rect x="230" y="363" width="7" height="7" fill="#ffd700" opacity="0.8" rx="1"/>
<text x="240" y="369" font-family="sans-serif" font-size="8" fill="#888">EMA5</text>
<rect x="330" y="363" width="7" height="7" fill="#ff6b6b" opacity="0.8" rx="1"/>
<text x="340" y="369" font-family="sans-serif" font-size="8" fill="#888">EMA10</text>
</svg>