<svg xmlns="http://www.w3.org/2000/svg" width="700" height="380" viewBox="0 0 700 380">
<rect width="700" height="380" fill="#1a1a2e"/>
<text x="350" y="16" text-anchor="middle" font-family="sans-serif" font-size="13" font-weight="bold" fill="#fff">新特电气(301120) 关键点图</text>
<line x1="50" y1="255.81818181818187" x2="680" y2="255.81818181818187" stroke="#2a2a4e" stroke-width="0.5"/>
<text x="46" y="258.81818181818187" text-anchor="end" font-size="9" fill="#666">20</text>
<line x1="50" y1="208.50834879406312" x2="680" y2="208.50834879406312" stroke="#2a2a4e" stroke-width="0.5"/>
<text x="46" y="211.50834879406312" text-anchor="end" font-size="9" fill="#666">21</text>
<line x1="50" y1="161.19851576994435" x2="680" y2="161.19851576994435" stroke="#2a2a4e" stroke-width="0.5"/>
<text x="46" y="164.19851576994435" text-anchor="end" font-size="9" fill="#666">22</text>
<line x1="50" y1="113.88868274582559" x2="680" y2="113.88868274582559" stroke="#2a2a4e" stroke-width="0.5"/>
<text x="46" y="116.88868274582559" text-anchor="end" font-size="9" fill="#666">23</text>
<line x1="50" y1="66.57884972170683" x2="680" y2="66.57884972170683" stroke="#2a2a4e" stroke-width="0.5"/>
<text x="46" y="69.57884972170683" text-anchor="end" font-size="9" fill="#666">24</text>
<polyline points="57.9,91.7 73.6,110.3 89.4,129.6 105.1,132.1 120.9,126.8 136.6,115.9 152.4,112.4 168.1,122.2 183.9,145.6 199.6,154.6 215.4,171.8 231.1,192.2 246.9,205.2 262.6,186.8 278.4,176.8 294.1,166.9 309.9,164.5 325.6,144.5 341.4,118.5 357.1,102.2 372.9,106.1 388.6,97.9 404.4,102.2 420.1,90.6 435.9,93.3 451.6,142.8 467.4,175.7 483.1,207.6 498.9,223.7 514.6,240.2 530.4,239.9 546.1,233.1 561.9,233.9 577.6,231.3 593.4,230.1 609.1,210.9 624.9,213.6 640.6,221.4 656.4,221.0 672.1,155.3" fill="none" stroke="#ffd700" stroke-width="1" opacity="0.6"/>
<polyline points="57.9,91.7 73.6,101.8 89.4,113.9 105.1,118.1 120.9,117.8 136.6,113.5 152.4,112.0 168.1,117.4 183.9,131.0 199.6,138.6 215.4,150.9 231.1,165.8 246.9,177.7 262.6,172.6 278.4,169.8 294.1,165.6 309.9,164.6 325.6,153.6 341.4,137.8 357.1,125.4 372.9,123.3 388.6,115.7 404.4,114.8 420.1,106.2 435.9,104.8 451.6,129.7 467.4,150.1 483.1,172.1 498.9,187.3 514.6,203.0 530.4,209.6 546.1,211.4 561.9,215.7 577.6,217.6 593.4,219.5 609.1,210.9 624.9,212.4 640.6,216.9 656.4,217.5 672.1,182.3" fill="none" stroke="#ff6b6b" stroke-width="1" opacity="0.6"/>
<line x1="57.875" y1="70.36363636363625" x2="57.875" y2="102.06122448979589" stroke="#44aa44" stroke-width="1" opacity="0.8"/>
<rect x="53.15" y="85.50278293135426" width="9.45" height="6.150278293135557" fill="#44aa44" opacity="0.8" rx="0.5"/>
<rect x="53.15" y="320.16045792495265" width="9.45" height="14.839542075047348" fill="#44aa44" opacity="0.2" rx="0.5"/>
<line x1="73.625" y1="70.36363636363625" x2="73.625" y2="150.7903525046383" stroke="#44aa44" stroke-width="1" opacity="0.8"/>
<rect x="68.9" y="92.1261595547309" width="9.45" height="55.35250463821906" fill="#44aa44" opacity="0.8" rx="0.5"/>
<rect x="68.9" y="312.0812329787692" width="9.45" height="22.918767021230792" fill="#44aa44" opacity="0.2" rx="0.5"/>
<line x1="89.375" y1="103.9536178107606" x2="89.375" y2="178.2300556586271" stroke="#44aa44" stroke-width="1" opacity="0.8"/>
<rect x="84.65" y="150.7903525046383" width="9.45" height="17.504638218923787" fill="#44aa44" opacity="0.8" rx="0.5"/>
<rect x="84.65" y="310.4425127793485" width="9.45" height="24.557487220651524" fill="#44aa44" opacity="0.2" rx="0.5"/>
<line x1="105.125" y1="121.93135435992585" x2="105.125" y2="179.1762523191094" stroke="#ff4444" stroke-width="1" opacity="0.8"/>
<rect x="100.4" y="137.0705009276437" width="9.45" height="4.2578849721707" fill="#ff4444" opacity="0.8" rx="0.5"/>
<rect x="100.4" y="313.833348462246" width="9.45" height="21.166651537753978" fill="#ff4444" opacity="0.2" rx="0.5"/>
<line x1="120.875" y1="97.33024118738395" x2="120.875" y2="129.5009276437847" stroke="#ff4444" stroke-width="1" opacity="0.8"/>
<rect x="116.15" y="116.25417439703156" width="9.45" height="8.988868274582444" fill="#ff4444" opacity="0.8" rx="0.5"/>
<rect x="116.15" y="312.78334436141455" width="9.45" height="22.21665563858545" fill="#ff4444" opacity="0.2" rx="0.5"/>
<line x1="136.625" y1="72.25602968460112" x2="136.625" y2="142.2745825602969" stroke="#ff4444" stroke-width="1" opacity="0.8"/>
<rect x="131.9" y="94.01855287569562" width="9.45" height="32.643784786642" fill="#ff4444" opacity="0.8" rx="0.5"/>
<rect x="131.9" y="305.6940515456387" width="9.45" height="29.305948454361328" fill="#ff4444" opacity="0.2" rx="0.5"/>
<line x1="152.375" y1="77.46011131725416" x2="152.375" y2="121.93135435992585" stroke="#ff4444" stroke-width="1" opacity="0.8"/>
<rect x="147.65" y="105.37291280148422" width="9.45" height="14.666048237476758" fill="#ff4444" opacity="0.8" rx="0.5"/>
<rect x="147.65" y="315.818004749959" width="9.45" height="19.181995250040984" fill="#ff4444" opacity="0.2" rx="0.5"/>
<line x1="168.125" y1="87.86827458256023" x2="168.125" y2="158.3599257884973" stroke="#44aa44" stroke-width="1" opacity="0.8"/>
<rect x="163.4" y="115.3079777365492" width="9.45" height="26.493506493506445" fill="#44aa44" opacity="0.8" rx="0.5"/>
<rect x="163.4" y="319.4321983169445" width="9.45" height="15.567801683055507" fill="#44aa44" opacity="0.2" rx="0.5"/>
<line x1="183.875" y1="129.97402597402595" x2="183.875" y2="195.73469387755108" stroke="#44aa44" stroke-width="1" opacity="0.8"/>
<rect x="179.15" y="140.38218923933204" width="9.45" height="52.04081632653069" fill="#44aa44" opacity="0.8" rx="0.5"/>
<rect x="179.15" y="315.0883151838631" width="9.45" height="19.911684816136926" fill="#44aa44" opacity="0.2" rx="0.5"/>
<line x1="199.625" y1="163.09090909090907" x2="199.625" y2="184.85343228200375" stroke="#44aa44" stroke-width="1" opacity="0.8"/>
<rect x="194.9" y="169.7142857142857" width="9.45" height="2.838589981447086" fill="#44aa44" opacity="0.8" rx="0.5"/>
<rect x="194.9" y="323.2526079247679" width="9.45" height="11.747392075232085" fill="#44aa44" opacity="0.2" rx="0.5"/>
<line x1="215.375" y1="154.1020408163266" x2="215.375" y2="214.1855287569574" stroke="#44aa44" stroke-width="1" opacity="0.8"/>
<rect x="210.65" y="181.06864564007432" width="9.45" height="25.074211502782816" fill="#44aa44" opacity="0.8" rx="0.5"/>
<rect x="210.65" y="322.3595922335664" width="9.45" height="12.640407766433611" fill="#44aa44" opacity="0.2" rx="0.5"/>
<line x1="231.125" y1="192.89610389610402" x2="231.125" y2="235.47495361781083" stroke="#44aa44" stroke-width="1" opacity="0.8"/>
<rect x="226.4" y="196.20779220779215" width="9.45" height="36.90166975881269" fill="#44aa44" opacity="0.8" rx="0.5"/>
<rect x="226.4" y="325.1134943765368" width="9.45" height="9.886505623463222" fill="#44aa44" opacity="0.2" rx="0.5"/>
<line x1="246.875" y1="217.02411873840447" x2="246.875" y2="236.4211502782932" stroke="#ff4444" stroke-width="1" opacity="0.8"/>
<rect x="242.15" y="231.21706864564015" width="9.45" height="1.419294990723614" fill="#ff4444" opacity="0.8" rx="0.5"/>
<rect x="242.15" y="328.00975090675837" width="9.45" height="6.99024909324163" fill="#ff4444" opacity="0.2" rx="0.5"/>
<line x1="262.625" y1="147.95176252319106" x2="262.625" y2="196.20779220779215" stroke="#ff4444" stroke-width="1" opacity="0.8"/>
<rect x="257.9" y="149.84415584415592" width="9.45" height="44.94434137291279" fill="#ff4444" opacity="0.8" rx="0.5"/>
<rect x="257.9" y="317.8082033512208" width="9.45" height="17.19179664877919" fill="#ff4444" opacity="0.2" rx="0.5"/>
<line x1="278.375" y1="145.11317254174398" x2="278.375" y2="169.7142857142857" stroke="#ff4444" stroke-width="1" opacity="0.8"/>
<rect x="273.65" y="156.94063079777368" width="9.45" height="3.784786641929429" fill="#ff4444" opacity="0.8" rx="0.5"/>
<rect x="273.65" y="324.81657113150914" width="9.45" height="10.183428868490864" fill="#ff4444" opacity="0.2" rx="0.5"/>
<line x1="294.125" y1="122.40445269016695" x2="294.125" y2="160.7254174397031" stroke="#ff4444" stroke-width="1" opacity="0.8"/>
<rect x="289.4" y="147.0055658627087" width="9.45" height="7.0964749536179" fill="#ff4444" opacity="0.8" rx="0.5"/>
<rect x="289.4" y="319.0029411797158" width="9.45" height="15.997058820284224" fill="#ff4444" opacity="0.2" rx="0.5"/>
<line x1="309.875" y1="148.89795918367338" x2="309.875" y2="168.29499072356208" stroke="#ff4444" stroke-width="1" opacity="0.8"/>
<line x1="305.15" y1="159.77922077922074" x2="314.6" y2="159.77922077922074" stroke="#ff4444" stroke-width="1.5"/>
<rect x="305.15" y="322.71609412328525" width="9.45" height="12.283905876714755" fill="#ff4444" opacity="0.2" rx="0.5"/>
<line x1="325.625" y1="103.4805194805195" x2="325.625" y2="154.1020408163266" stroke="#ff4444" stroke-width="1" opacity="0.8"/>
<rect x="320.9" y="104.42671614100188" width="9.45" height="37.847866419295016" fill="#ff4444" opacity="0.8" rx="0.5"/>
<rect x="320.9" y="309.63840654667484" width="9.45" height="25.361593453325156" fill="#ff4444" opacity="0.2" rx="0.5"/>
<line x1="341.375" y1="66.57884972170683" x2="341.375" y2="120.03896103896098" stroke="#ff4444" stroke-width="1" opacity="0.8"/>
<rect x="336.65" y="66.57884972170683" width="9.45" height="32.17068645640073" fill="#ff4444" opacity="0.8" rx="0.5"/>
<rect x="336.65" y="300.9798612484598" width="9.45" height="34.02013875154017" fill="#ff4444" opacity="0.2" rx="0.5"/>
<line x1="357.125" y1="66.57884972170683" x2="357.125" y2="109.15769944341365" stroke="#ff4444" stroke-width="1" opacity="0.8"/>
<rect x="352.4" y="69.41743970315389" width="9.45" height="17.504638218923986" fill="#ff4444" opacity="0.8" rx="0.5"/>
<rect x="352.4" y="312.50143175324143" width="9.45" height="22.498568246758566" fill="#ff4444" opacity="0.2" rx="0.5"/>
<line x1="372.875" y1="72.25602968460112" x2="372.875" y2="113.88868274582559" stroke="#44aa44" stroke-width="1" opacity="0.8"/>
<rect x="368.15" y="76.04081632653055" width="9.45" height="37.847866419295045" fill="#44aa44" opacity="0.8" rx="0.5"/>
<rect x="368.15" y="315.80388563018397" width="9.45" height="19.19611436981603" fill="#44aa44" opacity="0.2" rx="0.5"/>
<line x1="388.625" y1="78.87940630797777" x2="388.625" y2="127.13543599257889" stroke="#ff4444" stroke-width="1" opacity="0.8"/>
<rect x="383.9" y="81.71799628942483" width="9.45" height="36.9016697588127" fill="#ff4444" opacity="0.8" rx="0.5"/>
<rect x="383.9" y="316.1880971261131" width="9.45" height="18.81190287388688" fill="#ff4444" opacity="0.2" rx="0.5"/>
<line x1="404.375" y1="85.97588126159553" x2="404.375" y2="119.56586270871989" stroke="#44aa44" stroke-width="1" opacity="0.8"/>
<rect x="399.65" y="88.81447124304259" width="9.45" height="21.762523191094672" fill="#44aa44" opacity="0.8" rx="0.5"/>
<rect x="399.65" y="321.40037281750693" width="9.45" height="13.599627182493066" fill="#44aa44" opacity="0.2" rx="0.5"/>
<line x1="420.125" y1="58.06307977736545" x2="420.125" y2="122.87755102040822" stroke="#ff4444" stroke-width="1" opacity="0.8"/>
<rect x="415.4" y="67.52504638218917" width="9.45" height="53.93320964749543" fill="#ff4444" opacity="0.8" rx="0.5"/>
<rect x="415.4" y="312.6385331531688" width="9.45" height="22.361466846831206" fill="#ff4444" opacity="0.2" rx="0.5"/>
<line x1="435.875" y1="45.289424860853416" x2="435.875" y2="119.56586270871989" stroke="#44aa44" stroke-width="1" opacity="0.8"/>
<rect x="431.15" y="54.75139146567713" width="9.45" height="43.99814471243043" fill="#44aa44" opacity="0.8" rx="0.5"/>
<rect x="431.15" y="314.494878654357" width="9.45" height="20.505121345642976" fill="#44aa44" opacity="0.2" rx="0.5"/>
<line x1="451.625" y1="149.37105751391465" x2="451.625" y2="242.57142857142856" stroke="#44aa44" stroke-width="1" opacity="0.8"/>
<rect x="446.9" y="161.19851576994435" width="9.45" height="80.42671614100186" fill="#44aa44" opacity="0.8" rx="0.5"/>
<rect x="446.9" y="306.4650931850241" width="9.45" height="28.534906814975898" fill="#44aa44" opacity="0.2" rx="0.5"/>
<line x1="467.375" y1="233.5825602968461" x2="467.375" y2="251.08719851576993" stroke="#ff4444" stroke-width="1" opacity="0.8"/>
<rect x="462.65" y="241.6252319109462" width="9.45" height="4.730983302411943" fill="#ff4444" opacity="0.8" rx="0.5"/>
<rect x="462.65" y="324.4187622837766" width="9.45" height="10.581237716223427" fill="#ff4444" opacity="0.2" rx="0.5"/>
<line x1="483.125" y1="244.93692022263454" x2="483.125" y2="278.5269016697589" stroke="#44aa44" stroke-width="1" opacity="0.8"/>
<rect x="478.4" y="250.61410018552883" width="9.45" height="20.816326530612145" fill="#44aa44" opacity="0.8" rx="0.5"/>
<rect x="478.4" y="322.3677826176482" width="9.45" height="12.632217382351826" fill="#44aa44" opacity="0.2" rx="0.5"/>
<line x1="498.875" y1="246.35621521335815" x2="498.875" y2="279.0" stroke="#ff4444" stroke-width="1" opacity="0.8"/>
<rect x="494.15" y="255.81818181818187" width="9.45" height="22.70871985157703" fill="#ff4444" opacity="0.8" rx="0.5"/>
<rect x="494.15" y="326.40426301175955" width="9.45" height="8.595736988240446" fill="#ff4444" opacity="0.2" rx="0.5"/>
<line x1="514.625" y1="248.72170686456414" x2="514.625" y2="278.5269016697589" stroke="#44aa44" stroke-width="1" opacity="0.8"/>
<rect x="509.9" y="256.76437847866424" width="9.45" height="16.558441558441643" fill="#44aa44" opacity="0.8" rx="0.5"/>
<rect x="509.9" y="325.8020947148628" width="9.45" height="9.19790528513721" fill="#44aa44" opacity="0.2" rx="0.5"/>
<line x1="530.375" y1="234.52875695732845" x2="530.375" y2="272.3766233766235" stroke="#ff4444" stroke-width="1" opacity="0.8"/>
<rect x="525.65" y="239.25974025974025" width="9.45" height="27.912801484230073" fill="#ff4444" opacity="0.8" rx="0.5"/>
<rect x="525.65" y="324.14852864742073" width="9.45" height="10.851471352579267" fill="#ff4444" opacity="0.2" rx="0.5"/>
<line x1="546.125" y1="214.6586270871985" x2="546.125" y2="239.25974025974025" stroke="#ff4444" stroke-width="1" opacity="0.8"/>
<rect x="541.4" y="219.38961038961045" width="9.45" height="18.450834879406358" fill="#ff4444" opacity="0.8" rx="0.5"/>
<rect x="541.4" y="324.6909270500878" width="9.45" height="10.309072949912206" fill="#ff4444" opacity="0.2" rx="0.5"/>
<line x1="561.875" y1="219.38961038961045" x2="561.875" y2="249.66790352504648" stroke="#44aa44" stroke-width="1" opacity="0.8"/>
<rect x="557.15" y="219.38961038961045" width="9.45" height="16.085343228200372" fill="#44aa44" opacity="0.8" rx="0.5"/>
<rect x="557.15" y="324.63506453104446" width="9.45" height="10.364935468955537" fill="#44aa44" opacity="0.2" rx="0.5"/>
<line x1="577.625" y1="204.7235621521337" x2="577.625" y2="235.00185528756958" stroke="#ff4444" stroke-width="1" opacity="0.8"/>
<rect x="572.9" y="226.0129870129871" width="9.45" height="7.096474953617729" fill="#ff4444" opacity="0.8" rx="0.5"/>
<rect x="572.9" y="323.47856091797814" width="9.45" height="11.521439082021857" fill="#ff4444" opacity="0.2" rx="0.5"/>
<line x1="593.375" y1="199.04638218923938" x2="593.375" y2="240.67903525046387" stroke="#44aa44" stroke-width="1" opacity="0.8"/>
<rect x="588.65" y="220.80890538033407" width="9.45" height="7.096474953617729" fill="#44aa44" opacity="0.8" rx="0.5"/>
<rect x="588.65" y="318.65781422408634" width="9.45" height="16.342185775913663" fill="#44aa44" opacity="0.2" rx="0.5"/>
<line x1="609.125" y1="156.4675324675324" x2="609.125" y2="236.4211502782932" stroke="#ff4444" stroke-width="1" opacity="0.8"/>
<rect x="604.4" y="172.55287569573278" width="9.45" height="59.61038961038972" fill="#ff4444" opacity="0.8" rx="0.5"/>
<rect x="604.4" y="310.23899875122106" width="9.45" height="24.76100124877894" fill="#ff4444" opacity="0.2" rx="0.5"/>
<line x1="624.875" y1="151.73654916512064" x2="624.875" y2="220.33580705009282" stroke="#44aa44" stroke-width="1" opacity="0.8"/>
<rect x="620.15" y="160.25231910946198" width="9.45" height="58.66419294990723" fill="#44aa44" opacity="0.8" rx="0.5"/>
<rect x="620.15" y="317.4421036769703" width="9.45" height="17.557896323029695" fill="#44aa44" opacity="0.2" rx="0.5"/>
<line x1="640.625" y1="199.04638218923938" x2="640.625" y2="255.34508348794063" stroke="#44aa44" stroke-width="1" opacity="0.8"/>
<rect x="635.9" y="208.98144712430437" width="9.45" height="27.912801484230073" fill="#44aa44" opacity="0.8" rx="0.5"/>
<rect x="635.9" y="323.53024242787995" width="9.45" height="11.469757572120045" fill="#44aa44" opacity="0.2" rx="0.5"/>
<line x1="656.375" y1="204.25046382189242" x2="656.375" y2="249.66790352504648" stroke="#ff4444" stroke-width="1" opacity="0.8"/>
<rect x="651.65" y="220.33580705009282" width="9.45" height="21.762523191094658" fill="#ff4444" opacity="0.8" rx="0.5"/>
<rect x="651.65" y="324.8643844968991" width="9.45" height="10.135615503100894" fill="#ff4444" opacity="0.2" rx="0.5"/>
<line x1="672.125" y1="24.0" x2="672.125" y2="213.71243042671617" stroke="#ff4444" stroke-width="1" opacity="0.8"/>
<rect x="667.4" y="24.0" width="9.45" height="172.68089053803342" fill="#ff4444" opacity="0.8" rx="0.5"/>
<rect x="667.4" y="279.0" width="9.45" height="56.0" fill="#ff4444" opacity="0.2" rx="0.5"/>
<text x="57.875" y="347" text-anchor="middle" font-size="8" fill="#666">03-19</text>
<text x="136.625" y="347" text-anchor="middle" font-size="8" fill="#666">03-26</text>
<text x="215.375" y="347" text-anchor="middle" font-size="8" fill="#666">04-02</text>
<text x="294.125" y="347" text-anchor="middle" font-size="8" fill="#666">04-10</text>
<text x="372.875" y="347" text-anchor="middle" font-size="8" fill="#666">04-17</text>
<text x="451.625" y="347" text-anchor="middle" font-size="8" fill="#666">04-24</text>
<text x="530.375" y="347" text-anchor="middle" font-size="8" fill="#666">05-06</text>
<text x="609.125" y="347" text-anchor="middle" font-size="8" fill="#666">05-13</text>
<text x="672.125" y="347" text-anchor="middle" font-size="8" fill="#666">05-19</text>
<rect x="30" y="363" width="7" height="7" fill="#ff9800" opacity="0.8" rx="1"/>
<text x="40" y="369" font-family="sans-serif" font-size="8" fill="#888">第1类</text>
<rect x="130" y="363" width="7" height="7" fill="#2196f3" opacity="0.8" rx="1"/>
<text x="140" y="369" font-family="sans-serif" font-size="8" fill="#888">第2类</text>
<rect x="230" y="363" width="7" height="7" fill="#ffd700" opacity="0.8" rx="1"/>
<text x="240" y="369" font-family="sans-serif" font-size="8" fill="#888">EMA5</text>
<rect x="330" y="363" width="7" height="7" fill="#ff6b6b" opacity="0.8" rx="1"/>
<text x="340" y="369" font-family="sans-serif" font-size="8" fill="#888">EMA10</text>
</svg>