<svg xmlns="http://www.w3.org/2000/svg" width="700" height="380" viewBox="0 0 700 380">
<rect width="700" height="380" fill="#1a1a2e"/>
<text x="350" y="16" text-anchor="middle" font-family="sans-serif" font-size="13" font-weight="bold" fill="#fff">思特奇(300608) 关键点图</text>
<line x1="50" y1="225.3814180929095" x2="680" y2="225.3814180929095" stroke="#2a2a4e" stroke-width="0.5"/>
<text x="46" y="228.3814180929095" text-anchor="end" font-size="9" fill="#666">12</text>
<line x1="50" y1="163.03422982885087" x2="680" y2="163.03422982885087" stroke="#2a2a4e" stroke-width="0.5"/>
<text x="46" y="166.03422982885087" text-anchor="end" font-size="9" fill="#666">14</text>
<line x1="50" y1="100.6870415647922" x2="680" y2="100.6870415647922" stroke="#2a2a4e" stroke-width="0.5"/>
<text x="46" y="103.6870415647922" text-anchor="end" font-size="9" fill="#666">16</text>
<line x1="50" y1="38.33985330073352" x2="680" y2="38.33985330073352" stroke="#2a2a4e" stroke-width="0.5"/>
<text x="46" y="41.33985330073352" text-anchor="end" font-size="9" fill="#666">18</text>
<polyline points="57.9,216.7 73.6,224.3 89.4,238.9 105.1,245.8 120.9,245.6 136.6,251.6 152.4,252.6 168.1,252.1 183.9,256.4 199.6,255.7 215.4,258.6 231.1,238.2 246.9,230.1 262.6,219.6 278.4,214.5 294.1,213.4 309.9,204.6 325.6,199.6 341.4,201.6 357.1,195.5 372.9,194.0 388.6,194.8 404.4,196.9 420.1,194.6 435.9,194.4 451.6,198.5 467.4,197.6 483.1,193.6 498.9,189.3 514.6,186.4 530.4,184.2 546.1,180.6 561.9,176.9 577.6,177.7 593.4,178.8 609.1,173.3 624.9,156.8 640.6,153.7 656.4,142.4 672.1,103.0" fill="none" stroke="#ffd700" stroke-width="1" opacity="0.6"/>
<polyline points="57.9,216.7 73.6,220.8 89.4,229.4 105.1,234.9 120.9,236.8 136.6,241.7 152.4,244.0 168.1,245.3 183.9,248.9 199.6,249.9 215.4,252.5 231.1,242.5 246.9,237.3 262.6,230.2 278.4,225.6 294.1,222.9 309.9,216.4 325.6,211.5 341.4,210.5 357.1,205.5 372.9,202.9 388.6,201.7 404.4,201.6 420.1,199.5 435.9,198.5 451.6,200.0 467.4,199.2 483.1,196.7 498.9,193.8 514.6,191.4 530.4,189.3 546.1,186.4 561.9,183.3 577.6,182.6 593.4,182.3 609.1,178.6 624.9,168.7 640.6,164.8 656.4,156.7 672.1,132.5" fill="none" stroke="#ff6b6b" stroke-width="1" opacity="0.6"/>
<line x1="57.875" y1="206.67726161369194" x2="57.875" y2="218.52322738386303" stroke="#44aa44" stroke-width="1" opacity="0.8"/>
<rect x="53.15" y="214.47066014669926" width="9.45" height="2.182151589242096" fill="#44aa44" opacity="0.8" rx="0.5"/>
<rect x="53.15" y="325.70144399154225" width="9.45" height="9.298556008457751" fill="#44aa44" opacity="0.2" rx="0.5"/>
<line x1="73.625" y1="210.10635696821515" x2="73.625" y2="239.72127139364304" stroke="#44aa44" stroke-width="1" opacity="0.8"/>
<rect x="68.9" y="212.91198044009778" width="9.45" height="26.809290953545258" fill="#44aa44" opacity="0.8" rx="0.5"/>
<rect x="68.9" y="322.0087607752305" width="9.45" height="12.991239224769515" fill="#44aa44" opacity="0.2" rx="0.5"/>
<line x1="89.375" y1="244.7090464547677" x2="89.375" y2="272.7652811735941" stroke="#44aa44" stroke-width="1" opacity="0.8"/>
<rect x="84.65" y="244.7090464547677" width="9.45" height="23.380195599021988" fill="#44aa44" opacity="0.8" rx="0.5"/>
<rect x="84.65" y="323.397240932998" width="9.45" height="11.602759067002012" fill="#44aa44" opacity="0.2" rx="0.5"/>
<line x1="105.125" y1="258.7371638141809" x2="105.125" y2="279.0" stroke="#ff4444" stroke-width="1" opacity="0.8"/>
<rect x="100.4" y="259.6723716381418" width="9.45" height="3.7408312958435204" fill="#ff4444" opacity="0.8" rx="0.5"/>
<rect x="100.4" y="324.0825221247166" width="9.45" height="10.917477875283396" fill="#ff4444" opacity="0.2" rx="0.5"/>
<line x1="120.875" y1="240.34474327628362" x2="120.875" y2="260.6075794621027" stroke="#ff4444" stroke-width="1" opacity="0.8"/>
<rect x="116.15" y="245.02078239608804" width="9.45" height="14.963325183373996" fill="#ff4444" opacity="0.8" rx="0.5"/>
<rect x="116.15" y="324.46707595589817" width="9.45" height="10.532924044101833" fill="#ff4444" opacity="0.2" rx="0.5"/>
<line x1="136.625" y1="242.83863080684597" x2="136.625" y2="264.9718826405867" stroke="#44aa44" stroke-width="1" opacity="0.8"/>
<rect x="131.9" y="245.02078239608804" width="9.45" height="18.704156479217573" fill="#44aa44" opacity="0.8" rx="0.5"/>
<rect x="131.9" y="327.0318342079614" width="9.45" height="7.968165792038576" fill="#44aa44" opacity="0.2" rx="0.5"/>
<line x1="152.375" y1="231.61613691931538" x2="152.375" y2="270.58312958435204" stroke="#ff4444" stroke-width="1" opacity="0.8"/>
<rect x="147.65" y="254.68459657701706" width="9.45" height="13.404645476772629" fill="#ff4444" opacity="0.8" rx="0.5"/>
<rect x="147.65" y="323.40030817673386" width="9.45" height="11.599691823266141" fill="#ff4444" opacity="0.2" rx="0.5"/>
<line x1="168.125" y1="250.9437652811736" x2="168.125" y2="269.0244498777506" stroke="#ff4444" stroke-width="1" opacity="0.8"/>
<rect x="163.4" y="250.9437652811736" width="9.45" height="8.105134474327627" fill="#ff4444" opacity="0.8" rx="0.5"/>
<rect x="163.4" y="326.81212044317743" width="9.45" height="8.187879556822566" fill="#ff4444" opacity="0.2" rx="0.5"/>
<line x1="183.875" y1="250.320293398533" x2="183.875" y2="264.9718826405867" stroke="#44aa44" stroke-width="1" opacity="0.8"/>
<rect x="179.15" y="254.0611246943765" width="9.45" height="10.910757946210225" fill="#44aa44" opacity="0.8" rx="0.5"/>
<rect x="179.15" y="329.5830648120614" width="9.45" height="5.416935187938577" fill="#44aa44" opacity="0.2" rx="0.5"/>
<line x1="199.625" y1="247.82640586797066" x2="199.625" y2="257.17848410757944" stroke="#44aa44" stroke-width="1" opacity="0.8"/>
<rect x="194.9" y="253.12591687041564" width="9.45" height="1.2469437652811735" fill="#44aa44" opacity="0.8" rx="0.5"/>
<rect x="194.9" y="327.744109778796" width="9.45" height="7.255890221204027" fill="#44aa44" opacity="0.2" rx="0.5"/>
<line x1="215.375" y1="254.0611246943765" x2="215.375" y2="268.0892420537897" stroke="#44aa44" stroke-width="1" opacity="0.8"/>
<rect x="210.65" y="254.3728606356968" width="9.45" height="9.975550122249416" fill="#44aa44" opacity="0.8" rx="0.5"/>
<rect x="210.65" y="328.74799576857487" width="9.45" height="6.252004231425133" fill="#44aa44" opacity="0.2" rx="0.5"/>
<line x1="231.125" y1="197.3251833740831" x2="231.125" y2="251.87897310513443" stroke="#ff4444" stroke-width="1" opacity="0.8"/>
<rect x="226.4" y="197.3251833740831" width="9.45" height="52.059902200489006" fill="#ff4444" opacity="0.8" rx="0.5"/>
<rect x="226.4" y="301.61753261368295" width="9.45" height="33.382467386317046" fill="#ff4444" opacity="0.2" rx="0.5"/>
<line x1="246.875" y1="200.75427872860638" x2="246.875" y2="215.7176039119804" stroke="#44aa44" stroke-width="1" opacity="0.8"/>
<rect x="242.15" y="206.36552567237163" width="9.45" height="7.481662591687041" fill="#44aa44" opacity="0.8" rx="0.5"/>
<rect x="242.15" y="300.10346915797606" width="9.45" height="34.896530842023935" fill="#44aa44" opacity="0.2" rx="0.5"/>
<line x1="262.625" y1="191.09046454767727" x2="262.625" y2="207.30073349633253" stroke="#ff4444" stroke-width="1" opacity="0.8"/>
<rect x="257.9" y="198.5721271393643" width="9.45" height="7.481662591687041" fill="#ff4444" opacity="0.8" rx="0.5"/>
<rect x="257.9" y="305.26011257644166" width="9.45" height="29.739887423558343" fill="#ff4444" opacity="0.2" rx="0.5"/>
<line x1="278.375" y1="182.05012224938875" x2="278.375" y2="207.30073349633253" stroke="#ff4444" stroke-width="1" opacity="0.8"/>
<rect x="273.65" y="204.49511002444987" width="9.45" height="2.1821515892420678" fill="#ff4444" opacity="0.8" rx="0.5"/>
<rect x="273.65" y="306.82067119947124" width="9.45" height="28.179328800528765" fill="#ff4444" opacity="0.2" rx="0.5"/>
<line x1="294.125" y1="198.26039119804403" x2="294.125" y2="211.35330073349635" stroke="#44aa44" stroke-width="1" opacity="0.8"/>
<rect x="289.4" y="200.13080684596574" width="9.45" height="10.910757946210254" fill="#44aa44" opacity="0.8" rx="0.5"/>
<rect x="289.4" y="316.0419986864372" width="9.45" height="18.958001313562818" fill="#44aa44" opacity="0.2" rx="0.5"/>
<line x1="309.875" y1="185.479217603912" x2="309.875" y2="214.78239608801957" stroke="#ff4444" stroke-width="1" opacity="0.8"/>
<rect x="305.15" y="187.03789731051342" width="9.45" height="27.744498777506152" fill="#ff4444" opacity="0.8" rx="0.5"/>
<rect x="305.15" y="305.97614111673187" width="9.45" height="29.023858883268133" fill="#ff4444" opacity="0.2" rx="0.5"/>
<line x1="325.625" y1="154.61735941320296" x2="325.625" y2="193.58435207823962" stroke="#44aa44" stroke-width="1" opacity="0.8"/>
<rect x="320.9" y="179.86797066014668" width="9.45" height="9.663814180929108" fill="#44aa44" opacity="0.8" rx="0.5"/>
<rect x="320.9" y="308.0438963979687" width="9.45" height="26.956103602031305" fill="#44aa44" opacity="0.2" rx="0.5"/>
<line x1="341.375" y1="189.5317848410758" x2="341.375" y2="206.67726161369194" stroke="#44aa44" stroke-width="1" opacity="0.8"/>
<rect x="336.65" y="190.778728606357" width="9.45" height="14.963325183374053" fill="#44aa44" opacity="0.8" rx="0.5"/>
<rect x="336.65" y="317.7007980146294" width="9.45" height="17.299201985370587" fill="#44aa44" opacity="0.2" rx="0.5"/>
<line x1="357.125" y1="175.19193154034232" x2="357.125" y2="206.67726161369194" stroke="#ff4444" stroke-width="1" opacity="0.8"/>
<rect x="352.4" y="183.29706601466995" width="9.45" height="21.821515892420507" fill="#ff4444" opacity="0.8" rx="0.5"/>
<rect x="352.4" y="311.8794385904379" width="9.45" height="23.12056140956207" fill="#ff4444" opacity="0.2" rx="0.5"/>
<line x1="372.875" y1="182.98533007334964" x2="372.875" y2="192.33740831295842" stroke="#44aa44" stroke-width="1" opacity="0.8"/>
<rect x="368.15" y="188.9083129584352" width="9.45" height="2.1821515892420678" fill="#44aa44" opacity="0.8" rx="0.5"/>
<rect x="368.15" y="317.96910446070257" width="9.45" height="17.030895539297433" fill="#44aa44" opacity="0.2" rx="0.5"/>
<line x1="388.625" y1="190.15525672371635" x2="388.625" y2="199.50733496332518" stroke="#44aa44" stroke-width="1" opacity="0.8"/>
<rect x="383.9" y="190.15525672371635" width="9.45" height="6.234718826405896" fill="#44aa44" opacity="0.8" rx="0.5"/>
<rect x="383.9" y="322.7516462202126" width="9.45" height="12.248353779787408" fill="#44aa44" opacity="0.2" rx="0.5"/>
<line x1="404.375" y1="198.26039119804403" x2="404.375" y2="212.2885085574572" stroke="#44aa44" stroke-width="1" opacity="0.8"/>
<rect x="399.65" y="198.26039119804403" width="9.45" height="2.8056234718826545" fill="#44aa44" opacity="0.8" rx="0.5"/>
<rect x="399.65" y="323.8580642575038" width="9.45" height="11.141935742496173" fill="#44aa44" opacity="0.2" rx="0.5"/>
<line x1="420.125" y1="187.97310513447434" x2="420.125" y2="210.41809290953543" stroke="#ff4444" stroke-width="1" opacity="0.8"/>
<rect x="415.4" y="189.84352078239607" width="9.45" height="12.157701711491455" fill="#ff4444" opacity="0.8" rx="0.5"/>
<rect x="415.4" y="318.42746559357823" width="9.45" height="16.572534406421767" fill="#ff4444" opacity="0.2" rx="0.5"/>
<line x1="435.875" y1="185.479217603912" x2="435.875" y2="199.50733496332518" stroke="#44aa44" stroke-width="1" opacity="0.8"/>
<rect x="431.15" y="192.6491442542787" width="9.45" height="1.5586797066015095" fill="#44aa44" opacity="0.8" rx="0.5"/>
<rect x="431.15" y="323.1499236209917" width="9.45" height="11.850076379008328" fill="#44aa44" opacity="0.2" rx="0.5"/>
<line x1="451.625" y1="189.84352078239607" x2="451.625" y2="210.7298288508557" stroke="#44aa44" stroke-width="1" opacity="0.8"/>
<rect x="446.9" y="194.2078239608802" width="9.45" height="12.469437652811735" fill="#44aa44" opacity="0.8" rx="0.5"/>
<rect x="446.9" y="322.2938654434383" width="9.45" height="12.706134556561722" fill="#44aa44" opacity="0.2" rx="0.5"/>
<line x1="467.375" y1="192.6491442542787" x2="467.375" y2="216.9645476772616" stroke="#ff4444" stroke-width="1" opacity="0.8"/>
<rect x="462.65" y="195.7665036674817" width="9.45" height="10.910757946210254" fill="#ff4444" opacity="0.8" rx="0.5"/>
<rect x="462.65" y="321.2272688899039" width="9.45" height="13.772731110096117" fill="#ff4444" opacity="0.2" rx="0.5"/>
<line x1="483.125" y1="181.11491442542786" x2="483.125" y2="200.75427872860638" stroke="#ff4444" stroke-width="1" opacity="0.8"/>
<rect x="478.4" y="185.479217603912" width="9.45" height="14.651589242053745" fill="#ff4444" opacity="0.8" rx="0.5"/>
<rect x="478.4" y="317.96329678368795" width="9.45" height="17.03670321631205" fill="#ff4444" opacity="0.2" rx="0.5"/>
<line x1="498.875" y1="173.32151589242054" x2="498.875" y2="190.15525672371635" stroke="#ff4444" stroke-width="1" opacity="0.8"/>
<rect x="494.15" y="180.80317848410758" width="9.45" height="6.234718826405839" fill="#ff4444" opacity="0.8" rx="0.5"/>
<rect x="494.15" y="317.09913584711904" width="9.45" height="17.900864152880956" fill="#ff4444" opacity="0.2" rx="0.5"/>
<line x1="514.625" y1="176.12713936430316" x2="514.625" y2="186.10268948655258" stroke="#44aa44" stroke-width="1" opacity="0.8"/>
<rect x="509.9" y="178.93276283618582" width="9.45" height="1.5586797066015095" fill="#44aa44" opacity="0.8" rx="0.5"/>
<rect x="509.9" y="322.6793108003756" width="9.45" height="12.320689199624383" fill="#44aa44" opacity="0.2" rx="0.5"/>
<line x1="530.375" y1="173.63325183374081" x2="530.375" y2="183.60880195599023" stroke="#44aa44" stroke-width="1" opacity="0.8"/>
<rect x="525.65" y="177.68581907090464" width="9.45" height="2.1821515892420393" fill="#44aa44" opacity="0.8" rx="0.5"/>
<rect x="525.65" y="316.4178792809035" width="9.45" height="18.58212071909651" fill="#44aa44" opacity="0.2" rx="0.5"/>
<line x1="546.125" y1="173.32151589242054" x2="546.125" y2="184.85574572127138" stroke="#ff4444" stroke-width="1" opacity="0.8"/>
<rect x="541.4" y="173.32151589242054" width="9.45" height="5.6112469437652805" fill="#ff4444" opacity="0.8" rx="0.5"/>
<rect x="541.4" y="317.26182736114123" width="9.45" height="17.73817263885877" fill="#ff4444" opacity="0.2" rx="0.5"/>
<line x1="561.875" y1="161.7872860635697" x2="561.875" y2="179.86797066014668" stroke="#ff4444" stroke-width="1" opacity="0.8"/>
<rect x="557.15" y="169.58068459657704" width="9.45" height="5.92298288508556" fill="#ff4444" opacity="0.8" rx="0.5"/>
<rect x="557.15" y="314.21217541236706" width="9.45" height="20.78782458763294" fill="#ff4444" opacity="0.2" rx="0.5"/>
<line x1="577.625" y1="166.15158924205377" x2="577.625" y2="181.73838630806844" stroke="#44aa44" stroke-width="1" opacity="0.8"/>
<rect x="572.9" y="168.95721271393643" width="9.45" height="10.287286063569667" fill="#44aa44" opacity="0.8" rx="0.5"/>
<rect x="572.9" y="318.6666554505647" width="9.45" height="16.33334454943531" fill="#44aa44" opacity="0.2" rx="0.5"/>
<line x1="593.375" y1="175.5036674816626" x2="593.375" y2="187.661369193154" stroke="#ff4444" stroke-width="1" opacity="0.8"/>
<rect x="588.65" y="181.11491442542786" width="9.45" height="2.182151589242096" fill="#ff4444" opacity="0.8" rx="0.5"/>
<rect x="588.65" y="323.4228169382661" width="9.45" height="11.577183061733876" fill="#ff4444" opacity="0.2" rx="0.5"/>
<line x1="609.125" y1="151.8117359413203" x2="609.125" y2="186.10268948655258" stroke="#ff4444" stroke-width="1" opacity="0.8"/>
<rect x="604.4" y="162.09902200489" width="9.45" height="20.262836185818998" fill="#ff4444" opacity="0.8" rx="0.5"/>
<rect x="604.4" y="310.4217124829732" width="9.45" height="24.57828751702681" fill="#ff4444" opacity="0.2" rx="0.5"/>
<line x1="624.875" y1="100.06356968215161" x2="624.875" y2="169.58068459657704" stroke="#ff4444" stroke-width="1" opacity="0.8"/>
<rect x="620.15" y="123.7555012224939" width="9.45" height="38.966992665036656" fill="#ff4444" opacity="0.8" rx="0.5"/>
<rect x="620.15" y="282.08054911977194" width="9.45" height="52.919450880228055" fill="#ff4444" opacity="0.2" rx="0.5"/>
<line x1="640.625" y1="114.71515892420537" x2="640.625" y2="152.43520782396087" stroke="#44aa44" stroke-width="1" opacity="0.8"/>
<rect x="635.9" y="125.00244498777505" width="9.45" height="22.444987775061122" fill="#44aa44" opacity="0.8" rx="0.5"/>
<rect x="635.9" y="296.8125438326514" width="9.45" height="38.187456167348614" fill="#44aa44" opacity="0.2" rx="0.5"/>
<line x1="656.375" y1="68.88997555012227" x2="656.375" y2="127.4963325183374" stroke="#ff4444" stroke-width="1" opacity="0.8"/>
<rect x="651.65" y="120.01466992665036" width="9.45" height="2.1821515892420535" fill="#ff4444" opacity="0.8" rx="0.5"/>
<rect x="651.65" y="279.0" width="9.45" height="56.0" fill="#ff4444" opacity="0.2" rx="0.5"/>
<line x1="672.125" y1="24.0" x2="672.125" y2="122.82029339853304" stroke="#ff4444" stroke-width="1" opacity="0.8"/>
<rect x="667.4" y="24.0" width="9.45" height="98.82029339853304" fill="#ff4444" opacity="0.8" rx="0.5"/>
<rect x="667.4" y="287.45079733475427" width="9.45" height="47.54920266524573" fill="#ff4444" opacity="0.2" rx="0.5"/>
<text x="57.875" y="347" text-anchor="middle" font-size="8" fill="#666">03-19</text>
<text x="136.625" y="347" text-anchor="middle" font-size="8" fill="#666">03-26</text>
<text x="215.375" y="347" text-anchor="middle" font-size="8" fill="#666">04-02</text>
<text x="294.125" y="347" text-anchor="middle" font-size="8" fill="#666">04-10</text>
<text x="372.875" y="347" text-anchor="middle" font-size="8" fill="#666">04-17</text>
<text x="451.625" y="347" text-anchor="middle" font-size="8" fill="#666">04-24</text>
<text x="530.375" y="347" text-anchor="middle" font-size="8" fill="#666">05-06</text>
<text x="609.125" y="347" text-anchor="middle" font-size="8" fill="#666">05-13</text>
<text x="672.125" y="347" text-anchor="middle" font-size="8" fill="#666">05-19</text>
<rect x="30" y="363" width="7" height="7" fill="#ff9800" opacity="0.8" rx="1"/>
<text x="40" y="369" font-family="sans-serif" font-size="8" fill="#888">第1类</text>
<rect x="130" y="363" width="7" height="7" fill="#2196f3" opacity="0.8" rx="1"/>
<text x="140" y="369" font-family="sans-serif" font-size="8" fill="#888">第2类</text>
<rect x="230" y="363" width="7" height="7" fill="#ffd700" opacity="0.8" rx="1"/>
<text x="240" y="369" font-family="sans-serif" font-size="8" fill="#888">EMA5</text>
<rect x="330" y="363" width="7" height="7" fill="#ff6b6b" opacity="0.8" rx="1"/>
<text x="340" y="369" font-family="sans-serif" font-size="8" fill="#888">EMA10</text>
</svg>