<svg xmlns="http://www.w3.org/2000/svg" width="700" height="380" viewBox="0 0 700 380">
<rect width="700" height="380" fill="#1a1a2e"/>
<text x="350.0" y="20" text-anchor="middle" font-family="sans-serif" font-size="14" font-weight="bold" fill="#ffffff">上证指数(000001)</text>
<line x1="50" y1="28.000555796750778" x2="680" y2="28.000555796750778" stroke="#2a2a4e" stroke-width="0.5"/>
<text x="46" y="31.000555796750778" text-anchor="end" font-size="9" fill="#666666">4599.57</text>
<line x1="50" y1="128.66787997460574" x2="680" y2="128.66787997460574" stroke="#2a2a4e" stroke-width="0.5"/>
<text x="46" y="131.66787997460574" text-anchor="end" font-size="9" fill="#666666">4230.08</text>
<line x1="50" y1="229.33247965858604" x2="680" y2="229.33247965858604" stroke="#2a2a4e" stroke-width="0.5"/>
<text x="46" y="232.33247965858604" text-anchor="end" font-size="9" fill="#666666">3860.6</text>
<line x1="50" y1="329.999803836441" x2="680" y2="329.999803836441" stroke="#2a2a4e" stroke-width="0.5"/>
<text x="46" y="332.999803836441" text-anchor="end" font-size="9" fill="#666666">3491.11</text>
<polyline points="55.25,155.3938026388909 65.75,155.20917277064592 76.25,159.80354733593225 86.75,159.65737319419338 97.25,156.85159522194846 107.75,155.03556645128 118.25,152.34902227221974 128.75,148.76809116026976 139.25,151.82207210247594 149.75,157.50906282235977 160.25,158.93071601316058 170.75,158.45929594767452 181.25,160.65082373708017 191.75,159.70193661467866 202.25,158.13438971839506 212.75,157.48259373679394 223.25,160.10440031107908 233.75,162.82064730014852 244.25,167.79906602143274 254.75,169.93040495562198 265.25,176.4762521897302 275.75,185.33547442266467 286.25,204.29830539034458 296.75,210.76494570210264 307.25,210.4845405326339 317.75,214.18037079034593 328.25,214.40653999303228 338.75,213.68884163068446 349.25,216.06437420604098 359.75,212.49958651451135 370.25,212.78098679456107 380.75,216.5275025133743 391.25,218.11083951488632 401.75,209.6458353035321 412.25,206.62046532686924 422.75,202.7823186702913 433.25,200.01167942558016 443.75,194.7073855016497 454.25,191.1181527382677 464.75,186.15186479839397 475.25,183.21535163020098 485.75,178.46942915332767 496.25,175.03757227106254 506.75,170.82608419085523 517.25,169.19976601480522 527.75,169.3279536716989 538.25,168.82819082533334 548.75,169.19493807084424 559.25,166.81692924715375 569.75,164.80974756308763 580.25,159.11107399385153 590.75,153.50307598112366 601.25,149.77712494405387 611.75,143.20015043798185 622.25,139.77197975022676 632.75,134.93613390891036 643.25,137.58388424728594 653.75,143.21138447283337 664.25,147.31369365154433 674.75,146.59663269805313" fill="none" stroke="#ffd700" stroke-width="1" opacity="0.6"/>
<polyline points="55.25,155.3938026388909 65.75,155.29309543802995 76.25,157.78385926138913 86.75,158.0713439249029 97.25,156.8292885344585 107.75,155.84278314818306 118.25,154.23062874198604 128.75,151.93528332278316 139.25,153.02523798898403 149.75,155.90847549319193 160.25,156.9749385662048 170.75,157.07339624811348 181.25,158.52075680589127 191.75,158.39046690843378 202.25,157.7738903661419 212.75,157.48391062204175 223.25,158.9137475016068 233.75,160.61181909736675 244.25,163.72892534584574 254.75,165.6314994327829 265.25,169.98358074644904 275.75,175.99636949955536 286.25,188.03775092249157 296.75,194.52147372306013 307.25,197.32188399044847 317.75,201.73100168414325 328.25,204.11788835946354 338.75,205.59708045883178 349.25,208.36405480390854 359.75,207.81968322709824 370.25,208.8240657957459 380.75,211.58706000579224 391.25,213.34896064435912 401.75,209.59748177826182 412.25,207.95607152285848 422.75,205.61969949272697 433.25,203.59255430062345 443.75,200.0482349102898 454.25,197.1194080559651 464.75,193.3193863946344 475.25,190.41446619448544 485.75,186.51685128632113 496.25,183.18176168999582 506.75,179.40382466098572 517.25,176.95715284311652 527.75,175.61663941445644 538.25,174.200644090483 548.75,173.4238783580072 559.25,171.3578844019646 569.75,169.437429818872 580.25,165.48766564369154 590.75,161.26937733677815 601.25,157.82498561553007 611.75,152.77429758104046 622.25,149.16363227079984 632.75,144.81832498997767 643.25,144.46579043253388 653.75,146.2840803400601 664.25,147.96303155258857 674.75,147.45384595958546" fill="none" stroke="#ff6b6b" stroke-width="1" opacity="0.6"/>
<polyline points="55.25,155.3938026388909 65.75,155.34105124796375 76.25,156.64116984020583 86.75,156.90058460882588 97.25,156.36148505345753 107.75,155.8892968493132 118.25,155.0404051411976 128.75,153.76095978835673 139.25,154.15801447393108 149.75,155.5603982632832 160.25,156.1521719900907 170.75,156.2821037831014 181.25,157.1156062147958 191.75,157.18118299147005 202.25,156.9733842233137 212.75,156.89772875191147 223.25,157.70251777169597 233.75,158.70733905803792 244.25,160.52148804908208 254.75,161.82354469431237 265.25,164.46586869084905 275.75,168.1409210906285 286.25,175.19644930349293 296.75,179.81566616274304 307.25,182.6831008323577 317.75,186.3868084964922 328.25,189.09843420143628 338.75,191.30367331615557 349.25,194.11431770097454 359.75,195.18628850387717 370.25,196.91557410871366 380.75,199.49699885559812 391.25,201.57133358534213 401.75,200.72795199443567 412.25,200.71288279244595 422.75,200.17889637003535 433.25,199.63523013823757 443.75,198.15556990162332 454.25,196.8016763120881 464.75,194.84144894128417 475.25,193.1748657367633 485.75,190.87036273322218 496.25,188.7087909021089 506.75,186.20348777147382 517.25,184.27431080873393 527.75,182.8752649208056 538.25,181.44225541716722 548.75,180.34570085951952 559.25,178.6042923585912 569.75,176.9082058668163 580.25,174.1277792942985 590.75,171.0953317382385 601.25,168.35532136982667 611.75,164.7068337561135 622.25,161.67910086264706 632.75,158.21103813537385 643.25,156.7508806866752 653.75,156.53330966165169 664.25,156.43664321853882 674.75,155.3629163206848" fill="none" stroke="#4ecdc4" stroke-width="1" opacity="0.6"/>
<line x1="55.25" y1="152.51237791696337" x2="55.25" y2="157.99760143498207" stroke="#ff4444" stroke-width="1" opacity="0.8"/>
<rect x="50.0" y="155.3938026388909" width="6.3" height="2.0589000211427333" fill="#ff4444" opacity="0.8"/>
<rect x="50.0" y="310.9757468787263" width="6.3" height="19.024253121273738" fill="#ff4444" opacity="0.3"/>
<line x1="65.75" y1="153.04855831151264" x2="65.75" y2="157.53362012811334" stroke="#44aa44" stroke-width="1" opacity="0.8"/>
<rect x="60.5" y="154.03019345458233" width="6.3" height="1" fill="#44aa44" opacity="0.8"/>
<rect x="60.5" y="309.88582543938503" width="6.3" height="20.114174560614984" fill="#44aa44" opacity="0.3"/>
<line x1="76.25" y1="157.61181310231854" x2="76.25" y2="169.61974740585796" stroke="#44aa44" stroke-width="1" opacity="0.8"/>
<rect x="71.0" y="159.7696122511145" width="6.3" height="9.222684215390359" fill="#44aa44" opacity="0.8"/>
<rect x="71.0" y="310.971407914398" width="6.3" height="19.028592085602003" fill="#44aa44" opacity="0.3"/>
<line x1="86.75" y1="155.51231812244203" x2="86.75" y2="162.49056428381968" stroke="#44aa44" stroke-width="1" opacity="0.8"/>
<rect x="81.5" y="156.17055584257983" width="6.3" height="3.194469068135504" fill="#44aa44" opacity="0.8"/>
<rect x="81.5" y="308.48177630422555" width="6.3" height="21.518223695774438" fill="#44aa44" opacity="0.3"/>
<line x1="97.25" y1="145.6240400534522" x2="97.25" y2="157.92376765097666" stroke="#ff4444" stroke-width="1" opacity="0.8"/>
<rect x="92.0" y="151.24003927745866" width="6.3" height="6.3889381362707525" fill="#ff4444" opacity="0.8"/>
<rect x="92.0" y="302.4606733529744" width="6.3" height="27.539326647025554" fill="#ff4444" opacity="0.3"/>
<line x1="107.75" y1="149.88814541681143" x2="107.75" y2="156.71027807916622" stroke="#44aa44" stroke-width="1" opacity="0.8"/>
<rect x="102.5" y="150.1946509777199" width="6.3" height="1.208857932223168" fill="#44aa44" opacity="0.8"/>
<rect x="102.5" y="305.2376191862517" width="6.3" height="24.762380813748262" fill="#44aa44" opacity="0.3"/>
<line x1="118.25" y1="146.06268356728563" x2="118.25" y2="156.381431668485" stroke="#ff4444" stroke-width="1" opacity="0.8"/>
<rect x="113.0" y="146.97593391409947" width="6.3" height="9.259192433311796" fill="#ff4444" opacity="0.8"/>
<rect x="113.0" y="304.08462435703393" width="6.3" height="25.91537564296609" fill="#ff4444" opacity="0.3"/>
<line x1="128.75" y1="139.92276417116625" x2="128.75" y2="155.56190391096231" stroke="#ff4444" stroke-width="1" opacity="0.8"/>
<rect x="123.5" y="141.60622893636958" width="6.3" height="8.388716640331666" fill="#ff4444" opacity="0.8"/>
<rect x="123.5" y="297.2630655474134" width="6.3" height="32.736934452586574" fill="#ff4444" opacity="0.3"/>
<line x1="139.25" y1="137.61838725190927" x2="139.25" y2="159.7459091544041" stroke="#44aa44" stroke-width="1" opacity="0.8"/>
<rect x="134.0" y="139.7489414619577" width="6.3" height="18.181092524930648" fill="#44aa44" opacity="0.8"/>
<rect x="134.0" y="295.0" width="6.3" height="35.0" fill="#44aa44" opacity="0.3"/>
<line x1="149.75" y1="162.46250199690982" x2="149.75" y2="176.2557971365679" stroke="#44aa44" stroke-width="1" opacity="0.8"/>
<rect x="144.5" y="167.47775032153552" width="6.3" height="1.4052939405920881" fill="#44aa44" opacity="0.8"/>
<rect x="144.5" y="300.9262894715464" width="6.3" height="29.07371052845359" fill="#44aa44" opacity="0.3"/>
<line x1="160.25" y1="157.12876033832669" x2="160.25" y2="166.66339910237502" stroke="#44aa44" stroke-width="1" opacity="0.8"/>
<rect x="155.0" y="161.4443586359186" width="6.3" height="1" fill="#44aa44" opacity="0.8"/>
<rect x="155.0" y="303.79209406001047" width="6.3" height="26.207905939989505" fill="#44aa44" opacity="0.3"/>
<line x1="170.75" y1="156.08037509532582" x2="170.75" y2="167.9509949075783" stroke="#ff4444" stroke-width="1" opacity="0.8"/>
<rect x="165.5" y="157.51645581670246" width="6.3" height="10.43453909087583" fill="#ff4444" opacity="0.8"/>
<rect x="165.5" y="305.42521006896277" width="6.3" height="24.57478993103724" fill="#ff4444" opacity="0.3"/>
<line x1="181.25" y1="162.32791199949764" x2="181.25" y2="177.03718197984398" stroke="#44aa44" stroke-width="1" opacity="0.8"/>
<rect x="176.0" y="164.4625529503583" width="6.3" height="1" fill="#44aa44" opacity="0.8"/>
<rect x="176.0" y="299.6863130247734" width="6.3" height="30.313686975226556" fill="#44aa44" opacity="0.3"/>
<line x1="191.75" y1="157.58075387214657" x2="191.75" y2="164.49306728175517" stroke="#ff4444" stroke-width="1" opacity="0.8"/>
<rect x="186.5" y="157.80416236987537" width="6.3" height="6.688904911879803" fill="#ff4444" opacity="0.8"/>
<rect x="186.5" y="304.35536609522313" width="6.3" height="25.644633904776846" fill="#ff4444" opacity="0.3"/>
<line x1="202.25" y1="154.3437826995651" x2="202.25" y2="160.62074413758396" stroke="#ff4444" stroke-width="1" opacity="0.8"/>
<rect x="197.0" y="154.9992959258281" width="6.3" height="2.661013167460794" fill="#ff4444" opacity="0.8"/>
<rect x="197.0" y="303.10889415874044" width="6.3" height="26.891105841259577" fill="#ff4444" opacity="0.3"/>
<line x1="212.75" y1="152.7608517583397" x2="212.75" y2="163.2460664352858" stroke="#44aa44" stroke-width="1" opacity="0.8"/>
<rect x="207.5" y="155.06277663310965" width="6.3" height="1.1162251404818733" fill="#44aa44" opacity="0.8"/>
<rect x="207.5" y="300.1290616378848" width="6.3" height="29.870938362115247" fill="#44aa44" opacity="0.3"/>
<line x1="223.25" y1="154.82329362151984" x2="223.25" y2="167.69162309070273" stroke="#44aa44" stroke-width="1" opacity="0.8"/>
<rect x="218.0" y="159.3200707617821" width="6.3" height="6.027942697867331" fill="#44aa44" opacity="0.8"/>
<rect x="218.0" y="299.9047465976287" width="6.3" height="30.095253402371327" fill="#44aa44" opacity="0.3"/>
<line x1="233.75" y1="165.16165807861714" x2="233.75" y2="178.25176134920417" stroke="#44aa44" stroke-width="1" opacity="0.8"/>
<rect x="228.5" y="166.21985149956706" width="6.3" height="2.033289778720132" fill="#44aa44" opacity="0.8"/>
<rect x="228.5" y="302.17798432130513" width="6.3" height="27.822015678694893" fill="#44aa44" opacity="0.3"/>
<line x1="244.25" y1="161.81952144247072" x2="244.25" y2="177.84499441370514" stroke="#44aa44" stroke-width="1" opacity="0.8"/>
<rect x="239.0" y="167.84201515258857" width="6.3" height="9.91388831141245" fill="#44aa44" opacity="0.8"/>
<rect x="239.0" y="304.2091166962317" width="6.3" height="25.79088330376831" fill="#44aa44" opacity="0.3"/>
<line x1="254.75" y1="173.54220123732452" x2="254.75" y2="185.078525651146" stroke="#ff4444" stroke-width="1" opacity="0.8"/>
<rect x="249.5" y="174.1930828240005" width="6.3" height="2.6370376213631346" fill="#ff4444" opacity="0.8"/>
<rect x="249.5" y="306.2950493463436" width="6.3" height="23.704950653656383" fill="#ff4444" opacity="0.3"/>
<line x1="265.25" y1="179.90416688423542" x2="265.25" y2="192.94277722058985" stroke="#44aa44" stroke-width="1" opacity="0.8"/>
<rect x="260.0" y="183.57678462738812" width="6.3" height="5.991162030558343" fill="#44aa44" opacity="0.8"/>
<rect x="260.0" y="304.64667606090404" width="6.3" height="25.353323939095976" fill="#44aa44" opacity="0.3"/>
<line x1="275.75" y1="185.16761660085012" x2="275.75" y2="203.41954596652414" stroke="#44aa44" stroke-width="1" opacity="0.8"/>
<rect x="270.5" y="190.10712399575803" width="6.3" height="12.94679489277567" fill="#44aa44" opacity="0.8"/>
<rect x="270.5" y="304.66404175929245" width="6.3" height="25.335958240707537" fill="#44aa44" opacity="0.3"/>
<line x1="286.25" y1="216.79381394824682" x2="286.25" y2="247.29125348333764" stroke="#44aa44" stroke-width="1" opacity="0.8"/>
<rect x="281.0" y="217.24907687471625" width="6.3" height="24.97489045098814" fill="#44aa44" opacity="0.8"/>
<rect x="281.0" y="299.42279661172154" width="6.3" height="30.577203388278452" fill="#44aa44" opacity="0.3"/>
<line x1="296.75" y1="223.65899361382256" x2="296.75" y2="243.66495213605558" stroke="#ff4444" stroke-width="1" opacity="0.8"/>
<rect x="291.5" y="223.69822632561878" width="6.3" height="8.622750664172173" fill="#ff4444" opacity="0.8"/>
<rect x="291.5" y="304.1387923336275" width="6.3" height="25.8612076663725" fill="#ff4444" opacity="0.3"/>
<line x1="307.25" y1="209.59052459281543" x2="307.25" y2="220.82769957919035" stroke="#ff4444" stroke-width="1" opacity="0.8"/>
<rect x="302.0" y="209.92373019369643" width="6.3" height="10.780549812968104" fill="#ff4444" opacity="0.8"/>
<rect x="302.0" y="303.84539959363576" width="6.3" height="26.154600406364217" fill="#ff4444" opacity="0.3"/>
<line x1="317.75" y1="208.4890117192572" x2="317.75" y2="223.89084804256316" stroke="#44aa44" stroke-width="1" opacity="0.8"/>
<rect x="312.5" y="211.7970921819693" width="6.3" height="9.774939123800664" fill="#44aa44" opacity="0.8"/>
<rect x="312.5" y="306.5951877445403" width="6.3" height="23.404812255459728" fill="#44aa44" opacity="0.3"/>
<line x1="328.25" y1="212.02976395887225" x2="328.25" y2="231.64993414844184" stroke="#ff4444" stroke-width="1" opacity="0.8"/>
<rect x="323.0" y="214.85887839840473" width="6.3" height="16.791055750037117" fill="#ff4444" opacity="0.8"/>
<rect x="323.0" y="308.6709713962115" width="6.3" height="21.3290286037885" fill="#ff4444" opacity="0.3"/>
<line x1="338.75" y1="211.98045061973943" x2="338.75" y2="226.0151359166998" stroke="#ff4444" stroke-width="1" opacity="0.8"/>
<rect x="333.5" y="212.25344490598872" width="6.3" height="10.628250605369857" fill="#ff4444" opacity="0.8"/>
<rect x="333.5" y="307.3697260480194" width="6.3" height="22.63027395198057" fill="#ff4444" opacity="0.3"/>
<line x1="349.25" y1="205.29944674009624" x2="349.25" y2="220.81543935675398" stroke="#44aa44" stroke-width="1" opacity="0.8"/>
<rect x="344.0" y="212.04093438375875" width="6.3" height="8.774504972995231" fill="#44aa44" opacity="0.8"/>
<rect x="344.0" y="306.9473765782862" width="6.3" height="23.052623421713786" fill="#44aa44" opacity="0.3"/>
<line x1="359.75" y1="203.35633770863" x2="359.75" y2="210.4460156694846" stroke="#ff4444" stroke-width="1" opacity="0.8"/>
<rect x="354.5" y="205.37001113145206" width="6.3" height="2.4482301958435926" fill="#ff4444" opacity="0.8"/>
<rect x="354.5" y="308.54677493521416" width="6.3" height="21.453225064785816" fill="#ff4444" opacity="0.3"/>
<line x1="370.25" y1="204.2736747962558" x2="370.25" y2="218.56636966315418" stroke="#44aa44" stroke-width="1" opacity="0.8"/>
<rect x="365.0" y="207.48231123253987" width="6.3" height="5.8614761221207345" fill="#44aa44" opacity="0.8"/>
<rect x="365.0" y="309.3218551057817" width="6.3" height="20.678144894218317" fill="#44aa44" opacity="0.3"/>
<line x1="380.75" y1="210.55281582937448" x2="380.75" y2="226.41727121261164" stroke="#44aa44" stroke-width="1" opacity="0.8"/>
<rect x="375.5" y="211.08055029291205" width="6.3" height="12.93998365808875" fill="#44aa44" opacity="0.8"/>
<rect x="375.5" y="311.2791938160658" width="6.3" height="18.720806183934183" fill="#44aa44" opacity="0.3"/>
<line x1="391.25" y1="217.88769823895583" x2="391.25" y2="225.2228530979246" stroke="#ff4444" stroke-width="1" opacity="0.8"/>
<rect x="386.0" y="221.27751351791028" width="6.3" height="1.6385106162701106" fill="#ff4444" opacity="0.8"/>
<rect x="386.0" y="312.00431791430606" width="6.3" height="17.995682085693957" fill="#ff4444" opacity="0.3"/>
<line x1="401.75" y1="192.7158268808238" x2="401.75" y2="211.44644982029" stroke="#ff4444" stroke-width="1" opacity="0.8"/>
<rect x="396.5" y="192.7158268808238" width="6.3" height="17.640280490794225" fill="#ff4444" opacity="0.8"/>
<rect x="396.5" y="305.52515618242575" width="6.3" height="24.474843817574275" fill="#ff4444" opacity="0.3"/>
<line x1="412.25" y1="197.0398711094274" x2="412.25" y2="203.54623493169956" stroke="#44aa44" stroke-width="1" opacity="0.8"/>
<rect x="407.0" y="200.17222171721863" width="6.3" height="1" fill="#44aa44" opacity="0.8"/>
<rect x="407.0" y="309.4222809621699" width="6.3" height="20.577719037830082" fill="#44aa44" opacity="0.3"/>
<line x1="422.75" y1="188.34955299716177" x2="422.75" y2="196.85269838023262" stroke="#ff4444" stroke-width="1" opacity="0.8"/>
<rect x="417.5" y="195.10602535713528" width="6.3" height="1" fill="#ff4444" opacity="0.8"/>
<rect x="417.5" y="309.23816014142574" width="6.3" height="20.76183985857425" fill="#ff4444" opacity="0.3"/>
<line x1="433.25" y1="193.73369779242748" x2="433.25" y2="200.5623692400818" stroke="#ff4444" stroke-width="1" opacity="0.8"/>
<rect x="428.0" y="194.4704009361579" width="6.3" height="4.7294489171652" fill="#ff4444" opacity="0.8"/>
<rect x="428.0" y="309.26224125286086" width="6.3" height="20.737758747139154" fill="#ff4444" opacity="0.3"/>
<line x1="443.75" y1="184.09879765378867" x2="443.75" y2="193.4217432437695" stroke="#ff4444" stroke-width="1" opacity="0.8"/>
<rect x="438.5" y="184.09879765378867" width="6.3" height="5.421470361349861" fill="#ff4444" opacity="0.8"/>
<rect x="438.5" y="308.33219370640813" width="6.3" height="21.66780629359188" fill="#ff4444" opacity="0.3"/>
<line x1="454.25" y1="177.56137460134443" x2="454.25" y2="185.65775304891628" stroke="#44aa44" stroke-width="1" opacity="0.8"/>
<rect x="449.0" y="180.59918527168216" width="6.3" height="3.3405019398215927" fill="#44aa44" opacity="0.8"/>
<rect x="449.0" y="308.3626065809361" width="6.3" height="21.63739341906392" fill="#44aa44" opacity="0.3"/>
<line x1="464.75" y1="175.59701451765517" x2="464.75" y2="183.476795702185" stroke="#ff4444" stroke-width="1" opacity="0.8"/>
<rect x="459.5" y="176.21928891864636" width="6.3" height="6.922666486332844" fill="#ff4444" opacity="0.8"/>
<rect x="459.5" y="309.25862403072057" width="6.3" height="20.74137596927943" fill="#ff4444" opacity="0.3"/>
<line x1="475.25" y1="175.38641114113767" x2="475.25" y2="180.8830775334303" stroke="#ff4444" stroke-width="1" opacity="0.8"/>
<rect x="470.0" y="177.34232529381512" width="6.3" height="2.1915828728428437" fill="#ff4444" opacity="0.8"/>
<rect x="470.0" y="309.14788575324616" width="6.3" height="20.852114246753832" fill="#ff4444" opacity="0.3"/>
<line x1="485.75" y1="168.68797050069608" x2="485.75" y2="177.27148845307187" stroke="#ff4444" stroke-width="1" opacity="0.8"/>
<rect x="480.5" y="168.9775841995812" width="6.3" height="7.8334647886591995" fill="#ff4444" opacity="0.8"/>
<rect x="480.5" y="307.5881333273451" width="6.3" height="22.411866672654906" fill="#ff4444" opacity="0.3"/>
<line x1="496.25" y1="167.74883746207234" x2="496.25" y2="174.4249372527411" stroke="#ff4444" stroke-width="1" opacity="0.8"/>
<rect x="491.0" y="168.17385850653216" width="6.3" height="2.515252745162229" fill="#ff4444" opacity="0.8"/>
<rect x="491.0" y="308.0878596770562" width="6.3" height="21.912140322943817" fill="#ff4444" opacity="0.3"/>
<line x1="506.75" y1="162.24345268938052" x2="506.75" y2="171.00651478810187" stroke="#ff4444" stroke-width="1" opacity="0.8"/>
<rect x="501.5" y="162.40310803044048" width="6.3" height="8.567170989127249" fill="#ff4444" opacity="0.8"/>
<rect x="501.5" y="307.868358252532" width="6.3" height="22.131641747467974" fill="#ff4444" opacity="0.3"/>
<line x1="517.25" y1="160.06385758958666" x2="517.25" y2="172.15625120324307" stroke="#44aa44" stroke-width="1" opacity="0.8"/>
<rect x="512.0" y="161.16891230518226" width="6.3" height="4.778217357523033" fill="#44aa44" opacity="0.8"/>
<rect x="512.0" y="304.4980845619669" width="6.3" height="25.501915438033105" fill="#44aa44" opacity="0.3"/>
<line x1="527.75" y1="166.12067992252642" x2="527.75" y2="174.6941172475656" stroke="#44aa44" stroke-width="1" opacity="0.8"/>
<rect x="522.5" y="169.27564382947804" width="6.3" height="1" fill="#44aa44" opacity="0.8"/>
<rect x="522.5" y="307.01095163502816" width="6.3" height="22.98904836497182" fill="#44aa44" opacity="0.3"/>
<line x1="538.25" y1="166.06128595605696" x2="538.25" y2="171.98733258300908" stroke="#ff4444" stroke-width="1" opacity="0.8"/>
<rect x="533.0" y="167.82866513260234" width="6.3" height="3.142158785740321" fill="#ff4444" opacity="0.8"/>
<rect x="533.0" y="307.58397317421645" width="6.3" height="22.416026825783558" fill="#ff4444" opacity="0.3"/>
<line x1="548.75" y1="166.77782784511422" x2="548.75" y2="174.22359715539764" stroke="#ff4444" stroke-width="1" opacity="0.8"/>
<rect x="543.5" y="169.92843256186623" width="6.3" height="1" fill="#ff4444" opacity="0.8"/>
<rect x="543.5" y="307.18285888331076" width="6.3" height="22.81714111668924" fill="#ff4444" opacity="0.3"/>
<line x1="559.25" y1="160.79729134066727" x2="559.25" y2="174.5096690122455" stroke="#ff4444" stroke-width="1" opacity="0.8"/>
<rect x="554.0" y="162.06091159977277" width="6.3" height="12.44875741247273" fill="#ff4444" opacity="0.8"/>
<rect x="554.0" y="306.6617776280212" width="6.3" height="23.33822237197882" fill="#ff4444" opacity="0.3"/>
<line x1="569.75" y1="158.9983080351749" x2="569.75" y2="163.84491018895397" stroke="#ff4444" stroke-width="1" opacity="0.8"/>
<rect x="564.5" y="160.79538419495506" width="6.3" height="1.324648921899751" fill="#ff4444" opacity="0.8"/>
<rect x="564.5" y="305.0396615095632" width="6.3" height="24.960338490436794" fill="#ff4444" opacity="0.3"/>
<line x1="580.25" y1="146.086386663996" x2="580.25" y2="155.95886266851232" stroke="#ff4444" stroke-width="1" opacity="0.8"/>
<rect x="575.0" y="147.7137268553796" width="6.3" height="6.735766206525483" fill="#ff4444" opacity="0.8"/>
<rect x="575.0" y="303.3577589583993" width="6.3" height="26.642241041600695" fill="#ff4444" opacity="0.3"/>
<line x1="590.75" y1="142.2549309279458" x2="590.75" y2="146.90645932029352" stroke="#ff4444" stroke-width="1" opacity="0.8"/>
<rect x="585.5" y="142.28707995566788" width="6.3" height="3.17267311713735" fill="#ff4444" opacity="0.8"/>
<rect x="585.5" y="303.95062603298044" width="6.3" height="26.049373967019555" fill="#ff4444" opacity="0.3"/>
<line x1="601.25" y1="141.4776328254818" x2="601.25" y2="149.32880682432682" stroke="#ff4444" stroke-width="1" opacity="0.8"/>
<rect x="596.0" y="142.3252228699141" width="6.3" height="4.3858902395602115" fill="#ff4444" opacity="0.8"/>
<rect x="596.0" y="303.51576278099213" width="6.3" height="26.484237219007852" fill="#ff4444" opacity="0.3"/>
<line x1="611.75" y1="128.80410466834286" x2="611.75" y2="140.65510812469702" stroke="#ff4444" stroke-width="1" opacity="0.8"/>
<rect x="606.5" y="130.04620142583798" width="6.3" height="6.44996679906501" fill="#ff4444" opacity="0.8"/>
<rect x="606.5" y="301.0187440568834" width="6.3" height="28.981255943116608" fill="#ff4444" opacity="0.3"/>
<line x1="622.25" y1="128.63954523830836" x2="622.25" y2="137.0418843480138" stroke="#44aa44" stroke-width="1" opacity="0.8"/>
<rect x="617.0" y="128.8850221364226" width="6.3" height="4.030616238294044" fill="#44aa44" opacity="0.8"/>
<rect x="617.0" y="302.68117469155067" width="6.3" height="27.31882530844932" fill="#44aa44" opacity="0.3"/>
<line x1="632.75" y1="124.58440855514185" x2="632.75" y2="138.9569310925703" stroke="#ff4444" stroke-width="1" opacity="0.8"/>
<rect x="627.5" y="125.26444222627757" width="6.3" height="13.692488866292734" fill="#ff4444" opacity="0.8"/>
<rect x="627.5" y="303.2118048296654" width="6.3" height="26.788195170334575" fill="#ff4444" opacity="0.3"/>
<line x1="643.25" y1="120.82596925493475" x2="643.25" y2="142.87938492403686" stroke="#44aa44" stroke-width="1" opacity="0.8"/>
<rect x="638.0" y="121.56321729744006" width="6.3" height="21.316167626596794" fill="#44aa44" opacity="0.8"/>
<rect x="638.0" y="300.96179816129194" width="6.3" height="29.038201838708044" fill="#44aa44" opacity="0.3"/>
<line x1="653.75" y1="139.09533538140718" x2="653.75" y2="160.27037422529207" stroke="#44aa44" stroke-width="1" opacity="0.8"/>
<rect x="648.5" y="143.8991629813528" width="6.3" height="10.567221942575685" fill="#44aa44" opacity="0.8"/>
<rect x="648.5" y="302.1424478181728" width="6.3" height="27.857552181827202" fill="#44aa44" opacity="0.3"/>
<line x1="664.25" y1="151.66778481579314" x2="664.25" y2="161.76394176742582" stroke="#ff4444" stroke-width="1" opacity="0.8"/>
<rect x="659.0" y="155.51831200896646" width="6.3" height="3.1026536245565524" fill="#ff4444" opacity="0.8"/>
<rect x="659.0" y="306.1673800116436" width="6.3" height="23.832619988356374" fill="#ff4444" opacity="0.3"/>
<line x1="674.75" y1="144.95790130107778" x2="674.75" y2="161.93013589378526" stroke="#ff4444" stroke-width="1" opacity="0.8"/>
<rect x="669.5" y="145.16251079107099" width="6.3" height="12.689875120387228" fill="#ff4444" opacity="0.8"/>
<rect x="669.5" y="306.53298432092515" width="6.3" height="23.467015679074855" fill="#ff4444" opacity="0.3"/>
<rect x="135.25" y="133.61838725190927" width="8" height="8" fill="#ff9800" opacity="0.85"/>
<text x="139.25" y="130.61838725190927" text-anchor="middle" font-size="8" font-weight="bold" fill="#ff9800">前高</text>
<rect x="177.25" y="173.03718197984398" width="8" height="8" fill="#ff9800" opacity="0.85"/>
<text x="181.25" y="170.03718197984398" text-anchor="middle" font-size="8" font-weight="bold" fill="#ff9800">前低</text>
<rect x="208.75" y="148.7608517583397" width="8" height="8" fill="#ff9800" opacity="0.85"/>
<text x="212.75" y="145.7608517583397" text-anchor="middle" font-size="8" font-weight="bold" fill="#ff9800">前高</text>
<rect x="282.25" y="243.29125348333764" width="8" height="8" fill="#ff9800" opacity="0.85"/>
<text x="286.25" y="240.29125348333764" text-anchor="middle" font-size="8" font-weight="bold" fill="#ff9800">前低</text>
<rect x="355.75" y="199.35633770863" width="8" height="8" fill="#ff9800" opacity="0.85"/>
<text x="359.75" y="196.35633770863" text-anchor="middle" font-size="8" font-weight="bold" fill="#ff9800">前高</text>
<rect x="513.25" y="156.06385758958666" width="8" height="8" fill="#ff9800" opacity="0.85"/>
<text x="517.25" y="153.06385758958666" text-anchor="middle" font-size="8" font-weight="bold" fill="#ff9800">前高</text>
<rect x="639.25" y="116.82596925493475" width="8" height="8" fill="#ff9800" opacity="0.85"/>
<text x="643.25" y="113.82596925493475" text-anchor="middle" font-size="8" font-weight="bold" fill="#ff9800">前高</text>
<text x="55.25" y="355" fill="#666666" font-size="8" text-anchor="middle" transform="rotate(-30,55.25,355)">02/11</text>
<text x="107.75" y="355" fill="#666666" font-size="8" text-anchor="middle" transform="rotate(-30,107.75,355)">02/26</text>
<text x="160.25" y="355" fill="#666666" font-size="8" text-anchor="middle" transform="rotate(-30,160.25,355)">03/05</text>
<text x="212.75" y="355" fill="#666666" font-size="8" text-anchor="middle" transform="rotate(-30,212.75,355)">03/12</text>
<text x="265.25" y="355" fill="#666666" font-size="8" text-anchor="middle" transform="rotate(-30,265.25,355)">03/19</text>
<text x="317.75" y="355" fill="#666666" font-size="8" text-anchor="middle" transform="rotate(-30,317.75,355)">03/26</text>
<text x="370.25" y="355" fill="#666666" font-size="8" text-anchor="middle" transform="rotate(-30,370.25,355)">04/02</text>
<text x="422.75" y="355" fill="#666666" font-size="8" text-anchor="middle" transform="rotate(-30,422.75,355)">04/10</text>
<text x="475.25" y="355" fill="#666666" font-size="8" text-anchor="middle" transform="rotate(-30,475.25,355)">04/17</text>
<text x="527.75" y="355" fill="#666666" font-size="8" text-anchor="middle" transform="rotate(-30,527.75,355)">04/24</text>
<text x="580.25" y="355" fill="#666666" font-size="8" text-anchor="middle" transform="rotate(-30,580.25,355)">05/06</text>
<text x="632.75" y="355" fill="#666666" font-size="8" text-anchor="middle" transform="rotate(-30,632.75,355)">05/13</text>
<text x="674.75" y="355" fill="#666666" font-size="8" text-anchor="middle" transform="rotate(-30,674.75,355)">05/19</text>
<rect x="50" y="334" width="7" height="7" fill="#ff9800" opacity="0.8" rx="1"/>
<text x="60" y="340" font-family="sans-serif" font-size="8" fill="#888888">第1类</text>
<rect x="120" y="334" width="7" height="7" fill="#2196f3" opacity="0.8" rx="1"/>
<text x="130" y="340" font-family="sans-serif" font-size="8" fill="#888888">第2类</text>
<rect x="190" y="334" width="7" height="7" fill="#ffd700" opacity="0.8" rx="1"/>
<text x="200" y="340" font-family="sans-serif" font-size="8" fill="#888888">EMA5</text>
<rect x="260" y="334" width="7" height="7" fill="#ff6b6b" opacity="0.8" rx="1"/>
<text x="270" y="340" font-family="sans-serif" font-size="8" fill="#888888">EMA10</text>
<rect x="330" y="334" width="7" height="7" fill="#4ecdc4" opacity="0.8" rx="1"/>
<text x="340" y="340" font-family="sans-serif" font-size="8" fill="#888888">EMA20</text>
</svg>