<svg xmlns="http://www.w3.org/2000/svg" width="700" height="380" viewBox="0 0 700 380">
<rect width="700" height="380" fill="#1a1a2e"/>
<text x="350.0" y="20" text-anchor="middle" font-family="sans-serif" font-size="14" font-weight="bold" fill="#ffffff">中证全指(000985)</text>
<line x1="50" y1="28.0" x2="680" y2="28.0" stroke="#2a2a4e" stroke-width="0.5"/>
<text x="46" y="31.0" text-anchor="end" font-size="9" fill="#666666">27.0</text>
<line x1="50" y1="128.79873437258834" x2="680" y2="128.79873437258834" stroke="#2a2a4e" stroke-width="0.5"/>
<text x="46" y="131.79873437258834" text-anchor="end" font-size="9" fill="#666666">23.54</text>
<line x1="50" y1="229.3061429232906" x2="680" y2="229.3061429232906" stroke="#2a2a4e" stroke-width="0.5"/>
<text x="46" y="232.3061429232906" text-anchor="end" font-size="9" fill="#666666">20.09</text>
<line x1="50" y1="330.10487729587896" x2="680" y2="330.10487729587896" stroke="#2a2a4e" stroke-width="0.5"/>
<text x="46" y="333.10487729587896" text-anchor="end" font-size="9" fill="#666666">16.63</text>
<polyline points="55.25,188.81185368112358 65.75,194.3470442969594 76.25,194.249935689664 86.75,187.87313714393514 97.25,185.56411025935645 107.75,190.1426012625786 118.25,191.44697366674345 128.75,177.2647211387385 139.25,149.8447937704262 149.75,155.55066819350637 160.25,169.84231406345918 170.75,176.8452541870816 181.25,182.29074979452602 191.75,192.33024828098308 202.25,201.06252802515712 212.75,206.88404785460648 223.25,211.3477127180115 233.75,216.84831308329439 244.25,220.61248860077833 254.75,223.41326476765366 265.25,225.76599191538077 275.75,236.074251337115 286.25,251.20065590504373 296.75,254.48732310632073 307.25,252.59987306743344 317.75,252.50687632905294 328.25,247.10390510222086 338.75,244.47301035728646 349.25,246.02077317537265 359.75,245.8873117665524 370.25,247.44918381802668 380.75,257.71574954540256 391.25,257.85963279360635 401.75,255.13940534750995 412.25,255.94785278042053 422.75,254.64175419708235 433.25,255.81030256139283 443.75,258.9199413793553 454.25,263.42074910704775 464.75,264.0906810170872 475.25,264.05175925397 485.75,261.11255319303103 496.25,258.66753944926154 506.75,259.95078850560947 517.25,261.4860481275756 527.75,260.470273789017 538.25,253.77235724433208 548.75,246.68514715090055 559.25,238.94997359578997 569.75,234.37584286948845 580.25,234.7252236406252 590.75,236.22055604955605 601.25,235.9550324273369 611.75,236.26355971566764 622.25,240.6449146882555 632.75,245.31377293463063 643.25,249.7858656010158 653.75,255.3891931089141 664.25,257.47389845682505 674.75,259.5434622731666" fill="none" stroke="#ffd700" stroke-width="1" opacity="0.6"/>
<polyline points="55.25,188.81185368112358 65.75,191.8310485624886 76.25,192.23553400114037 86.75,189.12353510138342 97.25,187.63672080844086 107.75,189.7572412558194 118.25,190.53878256841097 128.75,182.96813411646878 139.25,166.97482591962023 149.75,166.9725697596287 160.25,172.69130358576248 170.75,175.99309101277413 181.25,179.11830010307244 191.75,185.17119922140427 202.25,191.2359061836044 212.75,196.19793915267726 223.25,200.5755942967035 233.75,205.53448875436834 244.25,209.64473436916435 254.75,213.16656759320801 265.25,216.31290916004926 275.75,223.65433843651002 286.25,234.1632705463993 296.75,239.05370453957664 307.25,240.83029880322792 317.75,242.91949590305776 328.25,241.71558076587584 338.75,241.26024260251984 349.25,242.68861645870618 359.75,243.22166600237998 370.25,244.55825907848828 380.75,250.6838267006094 391.25,252.04083989868286 401.75,251.61504181807092 412.25,252.69680651410192 422.75,252.5754884261572 433.25,253.58856312867655 443.75,255.68868238078633 454.25,258.73117005017656 464.75,259.9492381932655 475.25,260.6809977449874 485.75,259.6906601679266 496.25,258.61554231225307 506.75,259.32495036789896 517.25,260.2761534594642 527.75,259.9420755780889 538.25,256.3847025920659 548.75,252.04397975060624 559.25,246.85046097514487 569.75,242.91902832818855 580.25,241.55629321086312 590.75,241.12991642114577 601.25,240.0924743778281 611.75,239.50849981682822 622.25,241.30834069257423 632.75,243.7343677352663 643.25,246.4608555895426 653.75,250.12176332320954 664.25,252.21658983765263 674.75,254.30131712277935" fill="none" stroke="#ff6b6b" stroke-width="1" opacity="0.6"/>
<polyline points="55.25,188.81185368112358 65.75,190.39333671421954 76.25,190.742134977158 86.75,189.25426879385503 97.25,188.46301047922114 107.75,189.49506503063077 118.25,189.92941297772055 128.75,186.02187041629273 139.25,177.35359123700783 149.75,176.36395559916582 160.25,178.4650651424229 170.75,179.6446907892708 181.25,180.93393366737976 191.75,183.93158238990523 202.25,187.22639240167663 212.75,190.20741098375552 223.25,193.07099493242853 233.75,196.3832348258982 244.25,199.40776861731229 254.75,202.22748752055915 265.25,204.91738834820447 275.75,209.8481866179549 286.25,216.66773694394982 296.75,220.8956341406094 307.25,223.55557117385214 317.75,226.29512466703684 328.25,227.24777590337206 338.75,228.38715161423355 349.25,230.36135610921554 359.75,231.81459733204375 370.25,233.6011050071801 380.75,237.85327414936813 391.25,239.7860479722868 401.75,240.73013392305157 412.25,242.3334304681173 422.75,243.2568710930972 433.25,244.67501663566068 443.75,246.62398829086254 454.25,249.08097650720256 464.75,250.63807825291335 475.25,251.90815801242022 485.75,252.22491830372812 496.25,252.37278436639426 506.75,253.33892743800484 517.25,254.40727409833852 527.75,254.79122181391585 538.25,253.41839346544407 548.75,251.42718713197678 559.25,248.76551468946175 569.75,246.52380675874022 580.25,245.46668089437438 590.75,244.87092279656898 601.25,243.97121445240984 611.75,243.29591919906886 622.25,243.87798638329383 632.75,244.90403429225447 643.25,246.22079778192418 653.75,248.16127876695148 664.25,249.44528166082722 674.75,250.8012157794008" fill="none" stroke="#4ecdc4" stroke-width="1" opacity="0.6"/>
<line x1="55.25" y1="179.78075320265475" x2="55.25" y2="199.8822349127951" stroke="#ff4444" stroke-width="1" opacity="0.8"/>
<rect x="50.0" y="188.81185368112358" width="6.3" height="4.078561506405322" fill="#ff4444" opacity="0.8"/>
<rect x="50.0" y="324.8432931070577" width="6.3" height="5.156706892942281" fill="#ff4444" opacity="0.3"/>
<line x1="65.75" y1="186.7725729279209" x2="65.75" y2="207.16538045994744" stroke="#44aa44" stroke-width="1" opacity="0.8"/>
<rect x="60.5" y="191.1424602562124" width="6.3" height="14.274965272418513" fill="#44aa44" opacity="0.8"/>
<rect x="60.5" y="325.6178796453245" width="6.3" height="4.382120354675545" fill="#44aa44" opacity="0.3"/>
<line x1="76.25" y1="190.55980861244012" x2="76.25" y2="211.5352677882389" stroke="#ff4444" stroke-width="1" opacity="0.8"/>
<rect x="71.0" y="194.05571847507326" width="6.3" height="14.274965272418626" fill="#ff4444" opacity="0.8"/>
<rect x="71.0" y="324.93173463714186" width="6.3" height="5.068265362858114" fill="#ff4444" opacity="0.3"/>
<line x1="86.75" y1="169.29302361475538" x2="86.75" y2="186.7725729279209" stroke="#ff4444" stroke-width="1" opacity="0.8"/>
<rect x="81.5" y="175.11954005247722" width="6.3" height="6.700493903380163" fill="#ff4444" opacity="0.8"/>
<rect x="81.5" y="321.1961407987178" width="6.3" height="8.803859201282199" fill="#ff4444" opacity="0.3"/>
<line x1="97.25" y1="170.74965272418575" x2="97.25" y2="183.56798888717393" stroke="#44aa44" stroke-width="1" opacity="0.8"/>
<rect x="92.0" y="176.28484334002158" width="6.3" height="4.661213150177474" fill="#44aa44" opacity="0.8"/>
<rect x="92.0" y="323.76942938116366" width="6.3" height="6.230570618836342" fill="#44aa44" opacity="0.3"/>
<line x1="107.75" y1="177.15882080567988" x2="107.75" y2="199.8822349127951" stroke="#44aa44" stroke-width="1" opacity="0.8"/>
<rect x="102.5" y="181.52870813397124" width="6.3" height="17.77087513505171" fill="#44aa44" opacity="0.8"/>
<rect x="102.5" y="324.01738261333475" width="6.3" height="5.982617386665226" fill="#44aa44" opacity="0.3"/>
<line x1="118.25" y1="189.39450532489576" x2="118.25" y2="204.83477388485875" stroke="#ff4444" stroke-width="1" opacity="0.8"/>
<rect x="113.0" y="194.05571847507326" width="6.3" height="3.2045840407470223" fill="#ff4444" opacity="0.8"/>
<rect x="113.0" y="325.8220229292022" width="6.3" height="4.177977070797795" fill="#ff4444" opacity="0.3"/>
<line x1="128.75" y1="132.8772958789937" x2="128.75" y2="191.1424602562124" stroke="#ff4444" stroke-width="1" opacity="0.8"/>
<rect x="123.5" y="148.90021608272875" width="6.3" height="26.219323969748473" fill="#ff4444" opacity="0.8"/>
<rect x="123.5" y="305.84330436231113" width="6.3" height="24.15669563768889" fill="#ff4444" opacity="0.3"/>
<line x1="139.25" y1="86.2651643772187" x2="139.25" y2="169.87567525852756" stroke="#ff4444" stroke-width="1" opacity="0.8"/>
<rect x="134.0" y="95.00493903380152" width="6.3" height="61.17842259607957" fill="#ff4444" opacity="0.8"/>
<rect x="134.0" y="295.0" width="6.3" height="35.0" fill="#ff4444" opacity="0.3"/>
<line x1="149.75" y1="135.79055409785457" x2="149.75" y2="166.96241703966658" stroke="#44aa44" stroke-width="1" opacity="0.8"/>
<rect x="144.5" y="138.9951381386016" width="6.3" height="27.967278901064986" fill="#44aa44" opacity="0.8"/>
<rect x="144.5" y="316.0869310750793" width="6.3" height="13.913068924920706" fill="#44aa44" opacity="0.3"/>
<line x1="160.25" y1="162.59252971137522" x2="160.25" y2="224.35360395122694" stroke="#44aa44" stroke-width="1" opacity="0.8"/>
<rect x="155.0" y="171.91495601173023" width="6.3" height="26.510649791634478" fill="#44aa44" opacity="0.8"/>
<rect x="155.0" y="307.29420782150066" width="6.3" height="22.705792178499312" fill="#44aa44" opacity="0.3"/>
<line x1="170.75" y1="183.85931470906004" x2="170.75" y2="208.62200956937792" stroke="#ff4444" stroke-width="1" opacity="0.8"/>
<rect x="165.5" y="190.85113443432624" width="6.3" height="16.896897669393496" fill="#ff4444" opacity="0.8"/>
<rect x="165.5" y="316.0984114335366" width="6.3" height="13.901588566463396" fill="#ff4444" opacity="0.3"/>
<line x1="181.25" y1="156.1833616298811" x2="181.25" y2="196.38632505016204" stroke="#44aa44" stroke-width="1" opacity="0.8"/>
<rect x="176.0" y="165.50578793023607" width="6.3" height="27.67595307917898" fill="#44aa44" opacity="0.8"/>
<rect x="176.0" y="312.99856833176887" width="6.3" height="17.001431668231145" fill="#44aa44" opacity="0.3"/>
<line x1="191.75" y1="195.2210217626176" x2="191.75" y2="214.73985182898593" stroke="#44aa44" stroke-width="1" opacity="0.8"/>
<rect x="186.5" y="201.3388640222256" width="6.3" height="11.07038123167149" fill="#44aa44" opacity="0.8"/>
<rect x="186.5" y="316.69178839223207" width="6.3" height="13.308211607767925" fill="#44aa44" opacity="0.3"/>
<line x1="202.25" y1="206.0000771724031" x2="202.25" y2="226.10155888254357" stroke="#44aa44" stroke-width="1" opacity="0.8"/>
<rect x="197.0" y="212.4092452538971" width="6.3" height="6.117842259608011" fill="#44aa44" opacity="0.8"/>
<rect x="197.0" y="320.2583755968098" width="6.3" height="9.741624403190189" fill="#44aa44" opacity="0.3"/>
<line x1="212.75" y1="202.7954931316561" x2="212.75" y2="224.6449297731131" stroke="#44aa44" stroke-width="1" opacity="0.8"/>
<rect x="207.5" y="207.16538045994744" width="6.3" height="11.361707053557666" fill="#44aa44" opacity="0.8"/>
<rect x="207.5" y="319.5972195022027" width="6.3" height="10.402780497797346" fill="#44aa44" opacity="0.3"/>
<line x1="223.25" y1="201.92151566599776" x2="223.25" y2="220.56636826670777" stroke="#44aa44" stroke-width="1" opacity="0.8"/>
<rect x="218.0" y="217.36178422596075" width="6.3" height="2.913258218860989" fill="#44aa44" opacity="0.8"/>
<rect x="218.0" y="321.0793112685346" width="6.3" height="8.920688731465411" fill="#44aa44" opacity="0.3"/>
<line x1="233.75" y1="205.12609970674478" x2="233.75" y2="233.38470442969592" stroke="#44aa44" stroke-width="1" opacity="0.8"/>
<rect x="228.5" y="220.56636826670777" width="6.3" height="7.283145547152316" fill="#44aa44" opacity="0.8"/>
<rect x="228.5" y="322.6881371880325" width="6.3" height="7.311862811967486" fill="#44aa44" opacity="0.3"/>
<line x1="244.25" y1="221.4403457323661" x2="244.25" y2="233.38470442969592" stroke="#ff4444" stroke-width="1" opacity="0.8"/>
<rect x="239.0" y="228.14083963574623" width="6.3" height="1" fill="#ff4444" opacity="0.8"/>
<rect x="239.0" y="323.0888242086994" width="6.3" height="6.91117579130059" fill="#ff4444" opacity="0.3"/>
<line x1="254.75" y1="226.9755363482018" x2="254.75" y2="242.12447908627874" stroke="#44aa44" stroke-width="1" opacity="0.8"/>
<rect x="249.5" y="228.14083963574623" width="6.3" height="1" fill="#44aa44" opacity="0.8"/>
<rect x="249.5" y="324.08401371340074" width="6.3" height="5.91598628659927" fill="#44aa44" opacity="0.3"/>
<line x1="265.25" y1="197.26030251582029" x2="265.25" y2="232.51072696403762" stroke="#44aa44" stroke-width="1" opacity="0.8"/>
<rect x="260.0" y="218.81841333539126" width="6.3" height="11.6530328754437" fill="#44aa44" opacity="0.8"/>
<rect x="260.0" y="316.759545017637" width="6.3" height="13.240454982363019" fill="#44aa44" opacity="0.3"/>
<line x1="275.75" y1="229.3061429232906" x2="275.75" y2="256.6907701805834" stroke="#44aa44" stroke-width="1" opacity="0.8"/>
<rect x="270.5" y="230.76277203272107" width="6.3" height="25.927998147862326" fill="#44aa44" opacity="0.8"/>
<rect x="270.5" y="319.6516949286079" width="6.3" height="10.34830507139207" fill="#44aa44" opacity="0.3"/>
<line x1="286.25" y1="256.3994443586973" x2="286.25" y2="286.9886556567371" stroke="#44aa44" stroke-width="1" opacity="0.8"/>
<rect x="281.0" y="264.2652415496218" width="6.3" height="17.188223491279473" fill="#44aa44" opacity="0.8"/>
<rect x="281.0" y="321.0057019113671" width="6.3" height="8.99429808863287" fill="#44aa44" opacity="0.3"/>
<line x1="296.75" y1="260.7693316869886" x2="296.75" y2="286.40600401296496" stroke="#ff4444" stroke-width="1" opacity="0.8"/>
<rect x="291.5" y="261.0606575088748" width="6.3" height="12.235684519215965" fill="#ff4444" opacity="0.8"/>
<rect x="291.5" y="323.04335298500575" width="6.3" height="6.956647014994248" fill="#ff4444" opacity="0.3"/>
<line x1="307.25" y1="243.5811081957091" x2="307.25" y2="267.7611514122549" stroke="#ff4444" stroke-width="1" opacity="0.8"/>
<rect x="302.0" y="248.8249729896588" width="6.3" height="12.818336162988174" fill="#ff4444" opacity="0.8"/>
<rect x="302.0" y="325.44367533546284" width="6.3" height="4.556324664537173" fill="#ff4444" opacity="0.3"/>
<line x1="317.75" y1="238.91989504553163" x2="317.75" y2="257.2734218243556" stroke="#44aa44" stroke-width="1" opacity="0.8"/>
<rect x="312.5" y="249.11629881154494" width="6.3" height="3.204584040746994" fill="#44aa44" opacity="0.8"/>
<rect x="312.5" y="325.82632693809836" width="6.3" height="4.173673061901643" fill="#44aa44" opacity="0.3"/>
<line x1="328.25" y1="235.71531100478464" x2="328.25" y2="256.6907701805834" stroke="#ff4444" stroke-width="1" opacity="0.8"/>
<rect x="323.0" y="236.2979626485568" width="6.3" height="16.02292020373514" fill="#ff4444" opacity="0.8"/>
<rect x="323.0" y="324.7735105360427" width="6.3" height="5.226489463957302" fill="#ff4444" opacity="0.3"/>
<line x1="338.75" y1="229.3061429232906" x2="338.75" y2="246.20304059268398" stroke="#44aa44" stroke-width="1" opacity="0.8"/>
<rect x="333.5" y="236.00663682667076" width="6.3" height="3.2045840407470223" fill="#44aa44" opacity="0.8"/>
<rect x="333.5" y="326.2355679513413" width="6.3" height="3.764432048658711" fill="#44aa44" opacity="0.3"/>
<line x1="349.25" y1="231.0540978546071" x2="349.25" y2="249.11629881154494" stroke="#44aa44" stroke-width="1" opacity="0.8"/>
<rect x="344.0" y="239.79387251118993" width="6.3" height="9.322426300355005" fill="#44aa44" opacity="0.8"/>
<rect x="344.0" y="326.68735382239663" width="6.3" height="3.3126461776033964" fill="#44aa44" opacity="0.3"/>
<line x1="359.75" y1="238.04591757987342" x2="359.75" y2="253.77751196172244" stroke="#44aa44" stroke-width="1" opacity="0.8"/>
<rect x="354.5" y="240.3765241549621" width="6.3" height="5.243864793949655" fill="#44aa44" opacity="0.8"/>
<rect x="354.5" y="325.45704882754023" width="6.3" height="4.542951172459746" fill="#44aa44" opacity="0.3"/>
<line x1="370.25" y1="239.21122086741778" x2="370.25" y2="256.6907701805834" stroke="#44aa44" stroke-width="1" opacity="0.8"/>
<rect x="365.0" y="245.62038894891177" width="6.3" height="4.95253897206365" fill="#44aa44" opacity="0.8"/>
<rect x="365.0" y="325.92089807917847" width="6.3" height="4.079101920821544" fill="#44aa44" opacity="0.3"/>
<line x1="380.75" y1="246.4943664145701" x2="380.75" y2="280.5794875752431" stroke="#44aa44" stroke-width="1" opacity="0.8"/>
<rect x="375.5" y="248.53364716777276" width="6.3" height="29.7152338323815" fill="#44aa44" opacity="0.8"/>
<rect x="375.5" y="325.4350943302787" width="6.3" height="4.564905669721343" fill="#44aa44" opacity="0.3"/>
<line x1="391.25" y1="256.10811853681116" x2="391.25" y2="287.86263312239544" stroke="#ff4444" stroke-width="1" opacity="0.8"/>
<rect x="386.0" y="258.1473992900138" width="6.3" height="20.39280753202661" fill="#ff4444" opacity="0.8"/>
<rect x="386.0" y="325.63588805074767" width="6.3" height="4.3641119492523135" fill="#ff4444" opacity="0.3"/>
<line x1="401.75" y1="248.8249729896588" x2="401.75" y2="262.22596079641914" stroke="#ff4444" stroke-width="1" opacity="0.8"/>
<rect x="396.5" y="249.69895045531712" width="6.3" height="9.322426300355005" fill="#ff4444" opacity="0.8"/>
<rect x="396.5" y="324.88246138885324" width="6.3" height="5.117538611146753" fill="#ff4444" opacity="0.3"/>
<line x1="412.25" y1="245.03773730513961" x2="412.25" y2="259.8953542213304" stroke="#44aa44" stroke-width="1" opacity="0.8"/>
<rect x="407.0" y="252.61220867417808" width="6.3" height="4.952538972063508" fill="#44aa44" opacity="0.8"/>
<rect x="407.0" y="326.7208989795987" width="6.3" height="3.2791010204012725" fill="#44aa44" opacity="0.3"/>
<line x1="422.75" y1="245.91171477079794" x2="422.75" y2="258.1473992900138" stroke="#ff4444" stroke-width="1" opacity="0.8"/>
<rect x="417.5" y="252.0295570304059" width="6.3" height="5.243864793949683" fill="#ff4444" opacity="0.8"/>
<rect x="417.5" y="327.4930048600184" width="6.3" height="2.5069951399815866" fill="#ff4444" opacity="0.3"/>
<line x1="433.25" y1="241.8331532643926" x2="433.25" y2="266.0131964809384" stroke="#44aa44" stroke-width="1" opacity="0.8"/>
<rect x="428.0" y="241.8331532643926" width="6.3" height="16.31424602562123" fill="#44aa44" opacity="0.8"/>
<rect x="428.0" y="326.2425462084428" width="6.3" height="3.757453791557209" fill="#44aa44" opacity="0.3"/>
<line x1="443.75" y1="256.6907701805834" x2="443.75" y2="273.0050162062046" stroke="#44aa44" stroke-width="1" opacity="0.8"/>
<rect x="438.5" y="256.6907701805834" width="6.3" height="8.448448834696705" fill="#44aa44" opacity="0.8"/>
<rect x="438.5" y="325.82677714823393" width="6.3" height="4.173222851766062" fill="#44aa44" opacity="0.3"/>
<line x1="454.25" y1="262.22596079641914" x2="454.25" y2="273.29634202809075" stroke="#44aa44" stroke-width="1" opacity="0.8"/>
<rect x="449.0" y="264.84789319339393" width="6.3" height="7.57447136903852" fill="#44aa44" opacity="0.8"/>
<rect x="449.0" y="326.89512579996716" width="6.3" height="3.104874200032865" fill="#44aa44" opacity="0.3"/>
<line x1="464.75" y1="262.22596079641914" x2="464.75" y2="277.08357771260995" stroke="#ff4444" stroke-width="1" opacity="0.8"/>
<rect x="459.5" y="265.43054483716617" width="6.3" height="6.409168081494101" fill="#ff4444" opacity="0.8"/>
<rect x="459.5" y="327.5303723012716" width="6.3" height="2.469627698728382" fill="#ff4444" opacity="0.3"/>
<line x1="475.25" y1="261.0606575088748" x2="475.25" y2="273.0050162062046" stroke="#44aa44" stroke-width="1" opacity="0.8"/>
<rect x="470.0" y="262.22596079641914" width="6.3" height="1.747954931316599" fill="#44aa44" opacity="0.8"/>
<rect x="470.0" y="327.3784263805131" width="6.3" height="2.6215736194868957" fill="#44aa44" opacity="0.3"/>
<line x1="485.75" y1="252.32088285229193" x2="485.75" y2="266.59584812471064" stroke="#ff4444" stroke-width="1" opacity="0.8"/>
<rect x="480.5" y="255.23414107115292" width="6.3" height="3.2045840407470223" fill="#ff4444" opacity="0.8"/>
<rect x="480.5" y="326.20990597361316" width="6.3" height="3.7900940263868157" fill="#ff4444" opacity="0.3"/>
<line x1="496.25" y1="250.86425374286145" x2="496.25" y2="259.60402839944425" stroke="#ff4444" stroke-width="1" opacity="0.8"/>
<rect x="491.0" y="253.77751196172244" width="6.3" height="2.330606575088723" fill="#ff4444" opacity="0.8"/>
<rect x="491.0" y="326.9313677158814" width="6.3" height="3.068632284118612" fill="#ff4444" opacity="0.3"/>
<line x1="506.75" y1="252.90353449606414" x2="506.75" y2="262.51728661830526" stroke="#44aa44" stroke-width="1" opacity="0.8"/>
<rect x="501.5" y="254.3601636054946" width="6.3" height="8.157123012810672" fill="#44aa44" opacity="0.8"/>
<rect x="501.5" y="327.49232954481505" width="6.3" height="2.507670455184958" fill="#44aa44" opacity="0.3"/>
<line x1="517.25" y1="257.2734218243556" x2="517.25" y2="269.5091063435715" stroke="#44aa44" stroke-width="1" opacity="0.8"/>
<rect x="512.0" y="261.9346349745331" width="6.3" height="2.6219323969748416" fill="#44aa44" opacity="0.8"/>
<rect x="512.0" y="327.2474152310591" width="6.3" height="2.752584768940903" fill="#44aa44" opacity="0.3"/>
<line x1="527.75" y1="255.8167927149251" x2="527.75" y2="268.3438030560271" stroke="#ff4444" stroke-width="1" opacity="0.8"/>
<rect x="522.5" y="258.43872511189994" width="6.3" height="4.078561506405322" fill="#ff4444" opacity="0.8"/>
<rect x="522.5" y="326.8892730682046" width="6.3" height="3.110726931795415" fill="#ff4444" opacity="0.3"/>
<line x1="538.25" y1="239.21122086741778" x2="538.25" y2="263.09993826207744" stroke="#ff4444" stroke-width="1" opacity="0.8"/>
<rect x="533.0" y="240.3765241549621" width="6.3" height="18.353526778823948" fill="#ff4444" opacity="0.8"/>
<rect x="533.0" y="325.2505059236399" width="6.3" height="4.749494076360142" fill="#ff4444" opacity="0.3"/>
<line x1="548.75" y1="229.5974687451767" x2="548.75" y2="240.9591757987343" stroke="#ff4444" stroke-width="1" opacity="0.8"/>
<rect x="543.5" y="232.51072696403762" width="6.3" height="5.243864793949655" fill="#ff4444" opacity="0.8"/>
<rect x="543.5" y="325.8702494389256" width="6.3" height="4.129750561074381" fill="#ff4444" opacity="0.3"/>
<line x1="559.25" y1="220.27504244482174" x2="559.25" y2="237.46326593610124" stroke="#ff4444" stroke-width="1" opacity="0.8"/>
<rect x="554.0" y="223.47962648556876" width="6.3" height="5.535190615835688" fill="#ff4444" opacity="0.8"/>
<rect x="554.0" y="325.905113711825" width="6.3" height="4.094886288175005" fill="#ff4444" opacity="0.3"/>
<line x1="569.75" y1="215.90515511653027" x2="569.75" y2="229.01481710140445" stroke="#44aa44" stroke-width="1" opacity="0.8"/>
<rect x="564.5" y="217.9444358697329" width="6.3" height="7.2831455471523725" fill="#44aa44" opacity="0.8"/>
<rect x="564.5" y="327.00385154770987" width="6.3" height="2.9961484522901065" fill="#44aa44" opacity="0.3"/>
<line x1="580.25" y1="222.89697484179655" x2="580.25" y2="240.3765241549621" stroke="#44aa44" stroke-width="1" opacity="0.8"/>
<rect x="575.0" y="222.89697484179655" width="6.3" height="12.527010341102056" fill="#44aa44" opacity="0.8"/>
<rect x="575.0" y="324.879535022972" width="6.3" height="5.120464977028028" fill="#44aa44" opacity="0.3"/>
<line x1="590.75" y1="229.5974687451767" x2="590.75" y2="240.66784997684826" stroke="#44aa44" stroke-width="1" opacity="0.8"/>
<rect x="585.5" y="237.75459175798727" width="6.3" height="1.4566291094305086" fill="#44aa44" opacity="0.8"/>
<rect x="585.5" y="325.83735708642007" width="6.3" height="4.162642913579913" fill="#44aa44" opacity="0.3"/>
<line x1="601.25" y1="231.92807532026544" x2="601.25" y2="240.66784997684826" stroke="#ff4444" stroke-width="1" opacity="0.8"/>
<rect x="596.0" y="235.4239851828986" width="6.3" height="1" fill="#ff4444" opacity="0.8"/>
<rect x="596.0" y="327.32327338785376" width="6.3" height="2.676726612146219" fill="#ff4444" opacity="0.3"/>
<line x1="611.75" y1="228.43216545763227" x2="611.75" y2="240.66784997684826" stroke="#44aa44" stroke-width="1" opacity="0.8"/>
<rect x="606.5" y="232.21940114215158" width="6.3" height="4.661213150177474" fill="#44aa44" opacity="0.8"/>
<rect x="606.5" y="326.59100885338233" width="6.3" height="3.4089911466176837" fill="#44aa44" opacity="0.3"/>
<line x1="622.25" y1="233.09337860780977" x2="622.25" y2="254.06883778360856" stroke="#44aa44" stroke-width="1" opacity="0.8"/>
<rect x="617.0" y="237.17194011421512" width="6.3" height="12.235684519215965" fill="#44aa44" opacity="0.8"/>
<rect x="617.0" y="326.33011207981326" width="6.3" height="3.669887920186747" fill="#44aa44" opacity="0.3"/>
<line x1="632.75" y1="244.16375983948143" x2="632.75" y2="258.1473992900138" stroke="#44aa44" stroke-width="1" opacity="0.8"/>
<rect x="627.5" y="244.16375983948143" width="6.3" height="10.487729587899338" fill="#44aa44" opacity="0.8"/>
<rect x="627.5" y="326.333391860651" width="6.3" height="3.6666081393490413" fill="#44aa44" opacity="0.3"/>
<line x1="643.25" y1="252.0295570304059" x2="643.25" y2="263.6825899058496" stroke="#44aa44" stroke-width="1" opacity="0.8"/>
<rect x="638.0" y="253.19486031795026" width="6.3" height="5.535190615835802" fill="#44aa44" opacity="0.8"/>
<rect x="638.0" y="326.030722339652" width="6.3" height="3.9692776603479674" fill="#44aa44" opacity="0.3"/>
<line x1="653.75" y1="255.8167927149251" x2="653.75" y2="271.54838709677415" stroke="#44aa44" stroke-width="1" opacity="0.8"/>
<rect x="648.5" y="256.6907701805834" width="6.3" height="9.905077944127243" fill="#44aa44" opacity="0.8"/>
<rect x="648.5" y="325.9761703775237" width="6.3" height="4.023829622476291" fill="#44aa44" opacity="0.3"/>
<line x1="664.25" y1="261.64330915264696" x2="664.25" y2="273.5876678499768" stroke="#ff4444" stroke-width="1" opacity="0.8"/>
<rect x="659.0" y="261.64330915264696" width="6.3" height="4.952538972063678" fill="#ff4444" opacity="0.8"/>
<rect x="659.0" y="326.7041466604538" width="6.3" height="3.295853339546233" fill="#ff4444" opacity="0.3"/>
<line x1="674.75" y1="256.6907701805834" x2="674.75" y2="272.42236456243245" stroke="#44aa44" stroke-width="1" opacity="0.8"/>
<rect x="669.5" y="261.9346349745331" width="6.3" height="1.7479549313165421" fill="#44aa44" opacity="0.8"/>
<rect x="669.5" y="326.43048192743964" width="6.3" height="3.5695180725603675" fill="#44aa44" opacity="0.3"/>
<rect x="135.25" y="82.2651643772187" width="8" height="8" fill="#ff9800" opacity="0.85"/>
<text x="139.25" y="79.2651643772187" text-anchor="middle" font-size="8" font-weight="bold" fill="#ff9800">前高</text>
<rect x="156.25" y="220.35360395122694" width="8" height="8" fill="#ff9800" opacity="0.85"/>
<text x="160.25" y="217.35360395122694" text-anchor="middle" font-size="8" font-weight="bold" fill="#ff9800">前低</text>
<rect x="261.25" y="193.26030251582029" width="8" height="8" fill="#ff9800" opacity="0.85"/>
<text x="265.25" y="190.26030251582029" text-anchor="middle" font-size="8" font-weight="bold" fill="#ff9800">前高</text>
<rect x="282.25" y="282.9886556567371" width="8" height="8" fill="#ff9800" opacity="0.85"/>
<text x="286.25" y="279.9886556567371" text-anchor="middle" font-size="8" font-weight="bold" fill="#ff9800">前低</text>
<rect x="334.75" y="225.3061429232906" width="8" height="8" fill="#ff9800" opacity="0.85"/>
<text x="338.75" y="222.3061429232906" text-anchor="middle" font-size="8" font-weight="bold" fill="#ff9800">前高</text>
<rect x="387.25" y="283.86263312239544" width="8" height="8" fill="#ff9800" opacity="0.85"/>
<text x="391.25" y="280.86263312239544" text-anchor="middle" font-size="8" font-weight="bold" fill="#ff9800">前低</text>
<rect x="429.25" y="237.8331532643926" width="8" height="8" fill="#ff9800" opacity="0.85"/>
<text x="433.25" y="234.8331532643926" text-anchor="middle" font-size="8" font-weight="bold" fill="#ff9800">前高</text>
<rect x="460.75" y="273.08357771260995" width="8" height="8" fill="#ff9800" opacity="0.85"/>
<text x="464.75" y="270.08357771260995" text-anchor="middle" font-size="8" font-weight="bold" fill="#ff9800">前低</text>
<rect x="492.25" y="246.86425374286145" width="8" height="8" fill="#ff9800" opacity="0.85"/>
<text x="496.25" y="243.86425374286145" text-anchor="middle" font-size="8" font-weight="bold" fill="#ff9800">前高</text>
<rect x="565.75" y="211.90515511653027" width="8" height="8" fill="#ff9800" opacity="0.85"/>
<text x="569.75" y="208.90515511653027" text-anchor="middle" font-size="8" font-weight="bold" fill="#ff9800">前高</text>
<rect x="597.25" y="231.4239851828986" width="8" height="8" fill="#2196f3" opacity="0.85"/>
<text x="601.25" y="228.4239851828986" text-anchor="middle" font-size="8" font-weight="bold" fill="#2196f3">中</text>
<text x="55.25" y="355" fill="#666666" font-size="8" text-anchor="middle" transform="rotate(-30,55.25,355)">02/11</text>
<text x="107.75" y="355" fill="#666666" font-size="8" text-anchor="middle" transform="rotate(-30,107.75,355)">02/26</text>
<text x="160.25" y="355" fill="#666666" font-size="8" text-anchor="middle" transform="rotate(-30,160.25,355)">03/05</text>
<text x="212.75" y="355" fill="#666666" font-size="8" text-anchor="middle" transform="rotate(-30,212.75,355)">03/12</text>
<text x="265.25" y="355" fill="#666666" font-size="8" text-anchor="middle" transform="rotate(-30,265.25,355)">03/19</text>
<text x="317.75" y="355" fill="#666666" font-size="8" text-anchor="middle" transform="rotate(-30,317.75,355)">03/26</text>
<text x="370.25" y="355" fill="#666666" font-size="8" text-anchor="middle" transform="rotate(-30,370.25,355)">04/02</text>
<text x="422.75" y="355" fill="#666666" font-size="8" text-anchor="middle" transform="rotate(-30,422.75,355)">04/10</text>
<text x="475.25" y="355" fill="#666666" font-size="8" text-anchor="middle" transform="rotate(-30,475.25,355)">04/17</text>
<text x="527.75" y="355" fill="#666666" font-size="8" text-anchor="middle" transform="rotate(-30,527.75,355)">04/24</text>
<text x="580.25" y="355" fill="#666666" font-size="8" text-anchor="middle" transform="rotate(-30,580.25,355)">05/06</text>
<text x="632.75" y="355" fill="#666666" font-size="8" text-anchor="middle" transform="rotate(-30,632.75,355)">05/13</text>
<text x="674.75" y="355" fill="#666666" font-size="8" text-anchor="middle" transform="rotate(-30,674.75,355)">05/19</text>
<rect x="50" y="334" width="7" height="7" fill="#ff9800" opacity="0.8" rx="1"/>
<text x="60" y="340" font-family="sans-serif" font-size="8" fill="#888888">第1类</text>
<rect x="120" y="334" width="7" height="7" fill="#2196f3" opacity="0.8" rx="1"/>
<text x="130" y="340" font-family="sans-serif" font-size="8" fill="#888888">第2类</text>
<rect x="190" y="334" width="7" height="7" fill="#ffd700" opacity="0.8" rx="1"/>
<text x="200" y="340" font-family="sans-serif" font-size="8" fill="#888888">EMA5</text>
<rect x="260" y="334" width="7" height="7" fill="#ff6b6b" opacity="0.8" rx="1"/>
<text x="270" y="340" font-family="sans-serif" font-size="8" fill="#888888">EMA10</text>
<rect x="330" y="334" width="7" height="7" fill="#4ecdc4" opacity="0.8" rx="1"/>
<text x="340" y="340" font-family="sans-serif" font-size="8" fill="#888888">EMA20</text>
</svg>